<?xml version="1.0" encoding="UTF-8"?>
<!DOCTYPE svg PUBLIC "-//W3C//DTD SVG 1.1//EN" "http://www.w3.org/Graphics/SVG/1.1/DTD/svg11.dtd">
<svg version="1.2" width="115mm" height="76mm" viewBox="0 0 11500 7600" preserveAspectRatio="xMidYMid" fill-rule="evenodd" stroke-width="28.222" stroke-linejoin="round" xmlns="http://www.w3.org/2000/svg" xmlns:ooo="http://xml.openoffice.org/svg/export" xmlns:xlink="http://www.w3.org/1999/xlink" xmlns:presentation="http://sun.com/xmlns/staroffice/presentation" xmlns:smil="http://www.w3.org/2001/SMIL20/" xmlns:anim="urn:oasis:names:tc:opendocument:xmlns:animation:1.0" xml:space="preserve">
 <defs class="ClipPathGroup">
  <clipPath id="presentation_clip_path" clipPathUnits="userSpaceOnUse">
   <rect x="0" y="0" width="11500" height="7600"/>
  </clipPath>
  <clipPath id="presentation_clip_path_shrink" clipPathUnits="userSpaceOnUse">
   <rect x="11" y="7" width="11477" height="7585"/>
  </clipPath>
 </defs>
 <defs class="TextShapeIndex">
  <g ooo:slide="id1" ooo:id-list="id3 id4 id5 id6 id7 id8 id9 id10 id11 id12 id13 id14 id15 id16 id17 id18 id19 id20 id21 id22 id23 id24 id25 id26 id27 id28"/>
 </defs>
 <defs class="EmbeddedBulletChars">
  <g id="bullet-char-template-57356" transform="scale(0.00048828125,-0.00048828125)">
   <path d="M 580,1141 L 1163,571 580,0 -4,571 580,1141 Z"/>
  </g>
  <g id="bullet-char-template-57354" transform="scale(0.00048828125,-0.00048828125)">
   <path d="M 8,1128 L 1137,1128 1137,0 8,0 8,1128 Z"/>
  </g>
  <g id="bullet-char-template-10146" transform="scale(0.00048828125,-0.00048828125)">
   <path d="M 174,0 L 602,739 174,1481 1456,739 174,0 Z M 1358,739 L 309,1346 659,739 1358,739 Z"/>
  </g>
  <g id="bullet-char-template-10132" transform="scale(0.00048828125,-0.00048828125)">
   <path d="M 2015,739 L 1276,0 717,0 1260,543 174,543 174,936 1260,936 717,1481 1274,1481 2015,739 Z"/>
  </g>
  <g id="bullet-char-template-10007" transform="scale(0.00048828125,-0.00048828125)">
   <path d="M 0,-2 C -7,14 -16,27 -25,37 L 356,567 C 262,823 215,952 215,954 215,979 228,992 255,992 264,992 276,990 289,987 310,991 331,999 354,1012 L 381,999 492,748 772,1049 836,1024 860,1049 C 881,1039 901,1025 922,1006 886,937 835,863 770,784 769,783 710,716 594,584 L 774,223 C 774,196 753,168 711,139 L 727,119 C 717,90 699,76 672,76 641,76 570,178 457,381 L 164,-76 C 142,-110 111,-127 72,-127 30,-127 9,-110 8,-76 1,-67 -2,-52 -2,-32 -2,-23 -1,-13 0,-2 Z"/>
  </g>
  <g id="bullet-char-template-10004" transform="scale(0.00048828125,-0.00048828125)">
   <path d="M 285,-33 C 182,-33 111,30 74,156 52,228 41,333 41,471 41,549 55,616 82,672 116,743 169,778 240,778 293,778 328,747 346,684 L 369,508 C 377,444 397,411 428,410 L 1163,1116 C 1174,1127 1196,1133 1229,1133 1271,1133 1292,1118 1292,1087 L 1292,965 C 1292,929 1282,901 1262,881 L 442,47 C 390,-6 338,-33 285,-33 Z"/>
  </g>
  <g id="bullet-char-template-9679" transform="scale(0.00048828125,-0.00048828125)">
   <path d="M 813,0 C 632,0 489,54 383,161 276,268 223,411 223,592 223,773 276,916 383,1023 489,1130 632,1184 813,1184 992,1184 1136,1130 1245,1023 1353,916 1407,772 1407,592 1407,412 1353,268 1245,161 1136,54 992,0 813,0 Z"/>
  </g>
  <g id="bullet-char-template-8226" transform="scale(0.00048828125,-0.00048828125)">
   <path d="M 346,457 C 273,457 209,483 155,535 101,586 74,649 74,723 74,796 101,859 155,911 209,963 273,989 346,989 419,989 480,963 531,910 582,859 608,796 608,723 608,648 583,586 532,535 482,483 420,457 346,457 Z"/>
  </g>
  <g id="bullet-char-template-8211" transform="scale(0.00048828125,-0.00048828125)">
   <path d="M -4,459 L 1135,459 1135,606 -4,606 -4,459 Z"/>
  </g>
  <g id="bullet-char-template-61548" transform="scale(0.00048828125,-0.00048828125)">
   <path d="M 173,740 C 173,903 231,1043 346,1159 462,1274 601,1332 765,1332 928,1332 1067,1274 1183,1159 1299,1043 1357,903 1357,740 1357,577 1299,437 1183,322 1067,206 928,148 765,148 601,148 462,206 346,322 231,437 173,577 173,740 Z"/>
  </g>
 </defs>
 <defs class="TextEmbeddedBitmaps"/>
 <g>
  <g id="id2" class="Master_Slide">
   <g id="bg-id2" class="Background"/>
   <g id="bo-id2" class="BackgroundObjects"/>
  </g>
 </g>
 <g class="SlideGroup">
  <g>
   <g id="container-id1">
    <g id="id1" class="Slide" clip-path="url(#presentation_clip_path)">
     <g class="Page">
      <g class="com.sun.star.drawing.CustomShape">
       <g id="id3">
        <rect class="BoundingBox" stroke="none" fill="none" x="199" y="1499" width="11103" height="6003"/>
        <path fill="rgb(178,178,178)" stroke="none" d="M 5750,7500 L 200,7500 200,1500 11300,1500 11300,7500 5750,7500 Z"/>
        <path fill="none" stroke="rgb(0,0,0)" d="M 5750,7500 L 200,7500 200,1500 11300,1500 11300,7500 5750,7500 Z"/>
       </g>
      </g>
      <g class="com.sun.star.drawing.CustomShape">
       <g id="id4">
        <rect class="BoundingBox" stroke="none" fill="none" x="199" y="199" width="11103" height="1303"/>
        <path fill="rgb(128,128,128)" stroke="none" d="M 5750,1500 L 200,1500 200,200 11300,200 11300,1500 5750,1500 Z"/>
        <path fill="none" stroke="rgb(0,0,0)" d="M 5750,1500 L 200,1500 200,200 11300,200 11300,1500 5750,1500 Z"/>
       </g>
      </g>
      <g class="com.sun.star.drawing.PolyPolygonShape">
       <g id="id5">
        <rect class="BoundingBox" stroke="none" fill="none" x="5785" y="3307" width="1787" height="1219"/>
       </g>
      </g>
      <g class="com.sun.star.drawing.OpenBezierShape">
       <g id="id6">
        <rect class="BoundingBox" stroke="none" fill="none" x="5769" y="3290" width="1819" height="1251"/>
        <path fill="none" stroke="rgb(0,0,0)" stroke-width="35" stroke-linejoin="round" d="M 7569,4522 C 7338,4318 7229,4014 7013,3804 6829,3625 6720,3184 6365,3341 L 6133,3319 5902,3319 5787,3365"/>
       </g>
      </g>
      <g class="com.sun.star.drawing.PolyPolygonShape">
       <g id="id7">
        <rect class="BoundingBox" stroke="none" fill="none" x="7711" y="5350" width="1764" height="2151"/>
       </g>
      </g>
      <g class="com.sun.star.drawing.ClosedBezierShape">
       <g id="id8">
        <rect class="BoundingBox" stroke="none" fill="none" x="7791" y="5456" width="1482" height="1838"/>
        <path fill="rgb(255,242,0)" stroke="none" d="M 8349,5457 L 8364,5460 8705,5970 C 8705,5970 8634,6195 8620,6238 8657,6246 8769,6264 8769,6264 8769,6264 8741,6368 8731,6403 8774,6410 8961,6435 8961,6435 8961,6435 8943,6507 8935,6532 8956,6542 9009,6564 9009,6564 9009,6564 8986,6680 8978,6717 9017,6722 9157,6742 9157,6742 L 9271,6912 9181,7292 8742,7268 7799,5856 7792,5847 7826,5759 7825,5760 7826,5759 C 7922,5567 8137,5443 8349,5457 Z"/>
       </g>
      </g>
      <g class="com.sun.star.drawing.ClosedBezierShape">
       <g id="id9">
        <rect class="BoundingBox" stroke="none" fill="none" x="7784" y="5449" width="1496" height="1851"/>
        <path fill="none" stroke="rgb(0,0,0)" stroke-width="13" stroke-linejoin="miter" d="M 8349,5457 L 8364,5460 8705,5970 C 8705,5970 8634,6195 8620,6238 8657,6246 8769,6264 8769,6264 8769,6264 8741,6368 8731,6403 8774,6410 8961,6435 8961,6435 8961,6435 8943,6507 8935,6532 8956,6542 9009,6564 9009,6564 9009,6564 8986,6680 8978,6717 9017,6722 9157,6742 9157,6742 L 9271,6912 9181,7292 8742,7268 7799,5856 7792,5847 7826,5759 7825,5760 7826,5759 C 7922,5567 8137,5443 8349,5457 Z"/>
       </g>
      </g>
      <g class="com.sun.star.drawing.PolyPolygonShape">
       <g id="id10">
        <rect class="BoundingBox" stroke="none" fill="none" x="6399" y="3663" width="2522" height="2521"/>
       </g>
      </g>
      <g class="com.sun.star.drawing.ClosedBezierShape">
       <g id="id11">
        <rect class="BoundingBox" stroke="none" fill="none" x="6759" y="4021" width="1803" height="1802"/>
        <path fill="rgb(255,242,0)" stroke="none" d="M 7300,5746 C 6844,5548 6635,5018 6835,4562 6951,4294 7181,4113 7444,4048 7629,4002 7831,4015 8020,4096 8475,4295 8683,4826 8485,5281 8435,5397 8363,5498 8274,5580 8020,5817 7640,5894 7300,5746 Z"/>
       </g>
      </g>
      <g class="com.sun.star.drawing.ClosedBezierShape">
       <g id="id12">
        <rect class="BoundingBox" stroke="none" fill="none" x="6752" y="4015" width="1816" height="1815"/>
        <path fill="none" stroke="rgb(0,0,0)" stroke-width="13" stroke-linejoin="miter" d="M 7300,5746 C 6844,5548 6635,5018 6835,4562 6951,4294 7181,4113 7444,4048 7629,4002 7831,4015 8020,4096 8475,4295 8683,4826 8485,5281 8435,5397 8363,5498 8274,5580 8020,5817 7640,5894 7300,5746 Z"/>
       </g>
      </g>
      <g class="com.sun.star.drawing.PolyPolygonShape">
       <g id="id13">
        <rect class="BoundingBox" stroke="none" fill="none" x="7111" y="4270" width="685" height="685"/>
       </g>
      </g>
      <g class="com.sun.star.drawing.ClosedBezierShape">
       <g id="id14">
        <rect class="BoundingBox" stroke="none" fill="none" x="7214" y="4372" width="480" height="480"/>
        <path fill="rgb(178,178,178)" stroke="none" d="M 7672,4706 C 7725,4587 7670,4446 7548,4393 7428,4341 7286,4395 7235,4516 7181,4638 7237,4777 7357,4830 7478,4883 7619,4828 7672,4706 Z"/>
       </g>
      </g>
      <g class="com.sun.star.drawing.ClosedBezierShape">
       <g id="id15">
        <rect class="BoundingBox" stroke="none" fill="none" x="7207" y="4366" width="493" height="492"/>
        <path fill="none" stroke="rgb(0,0,0)" stroke-width="13" stroke-linejoin="miter" d="M 7672,4706 C 7725,4587 7670,4446 7548,4393 7428,4341 7286,4395 7235,4516 7181,4638 7237,4777 7357,4830 7478,4883 7619,4828 7672,4706 Z"/>
       </g>
      </g>
      <g class="com.sun.star.drawing.PolyPolygonShape">
       <g id="id16">
        <rect class="BoundingBox" stroke="none" fill="none" x="4700" y="2400" width="1769" height="1644"/>
       </g>
      </g>
      <g class="com.sun.star.drawing.PolyPolygonShape">
       <g id="id17">
        <rect class="BoundingBox" stroke="none" fill="none" x="4708" y="2407" width="1752" height="1631"/>
        <path fill="rgb(255,242,0)" stroke="none" d="M 5585,2407 L 5497,2411 5412,2423 5330,2442 5250,2470 5172,2503 5099,2545 5029,2593 4966,2648 4907,2710 4856,2775 4811,2845 4792,2881 4774,2917 4759,2955 4746,2994 4734,3032 4724,3072 4717,3112 4712,3154 4709,3195 4708,3236 4708,3639 4708,3689 4758,3689 5071,3689 5119,3689 5119,3639 5121,3259 5123,3214 5129,3171 5141,3129 5157,3089 5176,3051 5200,3015 5226,2982 5256,2951 5290,2922 5325,2897 5363,2876 5403,2857 5446,2844 5491,2832 5537,2826 5585,2824 5631,2826 5677,2832 5721,2844 5764,2857 5805,2876 5842,2897 5879,2922 5911,2951 5941,2982 5969,3015 5991,3051 6011,3089 6028,3129 6039,3171 6045,3214 6048,3259 6046,3987 6046,4037 6096,4037 6408,4037 6456,4037 6456,3987 6459,3238 6458,3196 6455,3155 6450,3114 6443,3074 6433,3034 6421,2995 6408,2956 6393,2919 6375,2881 6356,2846 6335,2810 6313,2776 6260,2711 6201,2650 6138,2595 6069,2546 5995,2505 5919,2470 5839,2442 5756,2423 5671,2411 5585,2407 Z"/>
       </g>
      </g>
      <g class="com.sun.star.drawing.PolyPolygonShape">
       <g id="id18">
        <rect class="BoundingBox" stroke="none" fill="none" x="4701" y="2400" width="1766" height="1645"/>
        <path fill="none" stroke="rgb(0,0,0)" stroke-width="13" stroke-linejoin="miter" d="M 5585,2407 L 5497,2411 5412,2423 5330,2442 5250,2470 5172,2503 5099,2545 5029,2593 4966,2648 4907,2710 4856,2775 4811,2845 4792,2881 4774,2917 4759,2955 4746,2994 4734,3032 4724,3072 4717,3112 4712,3154 4709,3195 4708,3236 4708,3639 4708,3689 4758,3689 5071,3689 5119,3689 5119,3639 5121,3259 5123,3214 5129,3171 5141,3129 5157,3089 5176,3051 5200,3015 5226,2982 5256,2951 5290,2922 5325,2897 5363,2876 5403,2857 5446,2844 5491,2832 5537,2826 5585,2824 5631,2826 5677,2832 5721,2844 5764,2857 5805,2876 5842,2897 5879,2922 5911,2951 5941,2982 5969,3015 5991,3051 6011,3089 6028,3129 6039,3171 6045,3214 6048,3259 6046,3987 6046,4037 6096,4037 6408,4037 6456,4037 6456,3987 6459,3238 6458,3196 6455,3155 6450,3114 6443,3074 6433,3034 6421,2995 6408,2956 6393,2919 6375,2881 6356,2846 6335,2810 6313,2776 6260,2711 6201,2650 6138,2595 6069,2546 5995,2505 5919,2470 5839,2442 5756,2423 5671,2411 5585,2407 Z"/>
       </g>
      </g>
      <g class="com.sun.star.drawing.PolyPolygonShape">
       <g id="id19">
        <rect class="BoundingBox" stroke="none" fill="none" x="4400" y="3678" width="2334" height="1923"/>
       </g>
      </g>
      <g class="com.sun.star.drawing.ClosedBezierShape">
       <g id="id20">
        <rect class="BoundingBox" stroke="none" fill="none" x="4408" y="3685" width="2318" height="1907"/>
        <path fill="rgb(255,242,0)" stroke="none" d="M 4611,3685 C 4499,3685 4408,3776 4408,3888 L 4411,5388 C 4411,5442 4432,5493 4469,5531 4508,5570 4559,5591 4613,5591 L 6523,5591 C 6634,5591 6725,5500 6725,5388 L 6723,3888 C 6723,3776 6631,3685 6520,3685 L 4611,3685 Z"/>
       </g>
      </g>
      <g class="com.sun.star.drawing.ClosedBezierShape">
       <g id="id21">
        <rect class="BoundingBox" stroke="none" fill="none" x="4401" y="3678" width="2332" height="1921"/>
        <path fill="none" stroke="rgb(0,0,0)" stroke-width="13" stroke-linejoin="miter" d="M 4611,3685 C 4499,3685 4408,3776 4408,3888 L 4411,5388 C 4411,5442 4432,5493 4469,5531 4508,5570 4559,5591 4613,5591 L 6523,5591 C 6634,5591 6725,5500 6725,5388 L 6723,3888 C 6723,3776 6631,3685 6520,3685 L 4611,3685 Z"/>
       </g>
      </g>
      <g class="com.sun.star.drawing.PolyPolygonShape">
       <g id="id22">
        <rect class="BoundingBox" stroke="none" fill="none" x="5394" y="4463" width="364" height="641"/>
       </g>
      </g>
      <g class="com.sun.star.drawing.ClosedBezierShape">
       <g id="id23">
        <rect class="BoundingBox" stroke="none" fill="none" x="5402" y="4470" width="348" height="623"/>
        <path fill="rgb(0,0,0)" stroke="none" d="M 5576,4470 C 5480,4470 5402,4543 5402,4632 5402,4697 5443,4753 5504,4778 L 5462,5092 5689,5092 5648,4778 C 5708,4753 5749,4697 5749,4632 5749,4543 5672,4470 5576,4470 Z"/>
       </g>
      </g>
      <g class="com.sun.star.drawing.ClosedBezierShape">
       <g id="id24">
        <rect class="BoundingBox" stroke="none" fill="none" x="5395" y="4463" width="362" height="637"/>
        <path fill="none" stroke="rgb(0,0,0)" stroke-width="13" stroke-linejoin="miter" d="M 5576,4470 C 5480,4470 5402,4543 5402,4632 5402,4697 5443,4753 5504,4778 L 5462,5092 5689,5092 5648,4778 C 5708,4753 5749,4697 5749,4632 5749,4543 5672,4470 5576,4470 Z"/>
       </g>
      </g>
      <g class="com.sun.star.drawing.PolyPolygonShape">
       <g id="id25">
        <rect class="BoundingBox" stroke="none" fill="none" x="5785" y="3363" width="1671" height="1668"/>
       </g>
      </g>
      <g class="com.sun.star.drawing.OpenBezierShape">
       <g id="id26">
        <rect class="BoundingBox" stroke="none" fill="none" x="5769" y="3347" width="1703" height="1700"/>
        <path fill="none" stroke="rgb(0,0,0)" stroke-width="35" stroke-linejoin="round" d="M 5787,3365 C 5855,3696 6215,3638 6435,3573 6716,3490 6846,3815 6874,4059 6903,4304 7069,4547 6990,4776 6786,5370 7269,4725 7384,4730 L 7453,4498 7453,4383"/>
       </g>
      </g>
      <g class="com.sun.star.drawing.CustomShape">
       <g id="id27">
        <rect class="BoundingBox" stroke="none" fill="none" x="5699" y="1599" width="303" height="1903"/>
        <path fill="rgb(178,178,178)" stroke="none" d="M 5850,3500 L 5700,3500 5700,1600 6000,1600 6000,3500 5850,3500 Z"/>
        <path fill="none" stroke="rgb(0,0,0)" d="M 5850,3500 L 5700,3500 5700,1600 6000,1600 6000,3500 5850,3500 Z"/>
       </g>
      </g>
      <g class="com.sun.star.drawing.CustomShape">
       <g id="id28">
        <rect class="BoundingBox" stroke="none" fill="none" x="5299" y="199" width="303" height="3303"/>
        <path fill="rgb(128,128,128)" stroke="none" d="M 5450,3500 L 5300,3500 5300,200 5600,200 5600,3500 5450,3500 Z"/>
        <path fill="none" stroke="rgb(0,0,0)" d="M 5450,3500 L 5300,3500 5300,200 5600,200 5600,3500 5450,3500 Z"/>
       </g>
      </g>
     </g>
    </g>
   </g>
  </g>
 </g>
</svg>