<?xml version="1.0" encoding="UTF-8"?>
<!DOCTYPE svg PUBLIC "-//W3C//DTD SVG 1.1//EN" "http://www.w3.org/Graphics/SVG/1.1/DTD/svg11.dtd">
<svg version="1.2" width="55mm" height="60mm" viewBox="0 0 5500 6000" preserveAspectRatio="xMidYMid" fill-rule="evenodd" stroke-width="28.222" stroke-linejoin="round" xmlns="http://www.w3.org/2000/svg" xmlns:ooo="http://xml.openoffice.org/svg/export" xmlns:xlink="http://www.w3.org/1999/xlink" xmlns:presentation="http://sun.com/xmlns/staroffice/presentation" xmlns:smil="http://www.w3.org/2001/SMIL20/" xmlns:anim="urn:oasis:names:tc:opendocument:xmlns:animation:1.0" xml:space="preserve">
 <defs class="ClipPathGroup">
  <clipPath id="presentation_clip_path" clipPathUnits="userSpaceOnUse">
   <rect x="0" y="0" width="5500" height="6000"/>
  </clipPath>
  <clipPath id="presentation_clip_path_shrink" clipPathUnits="userSpaceOnUse">
   <rect x="5" y="6" width="5489" height="5988"/>
  </clipPath>
 </defs>
 <defs class="TextShapeIndex">
  <g ooo:slide="id1" ooo:id-list="id3 id4 id5 id6 id7 id8 id9 id10 id11 id12 id13 id14 id15 id16 id17 id18"/>
 </defs>
 <defs class="EmbeddedBulletChars">
  <g id="bullet-char-template-57356" transform="scale(0.00048828125,-0.00048828125)">
   <path d="M 580,1141 L 1163,571 580,0 -4,571 580,1141 Z"/>
  </g>
  <g id="bullet-char-template-57354" transform="scale(0.00048828125,-0.00048828125)">
   <path d="M 8,1128 L 1137,1128 1137,0 8,0 8,1128 Z"/>
  </g>
  <g id="bullet-char-template-10146" transform="scale(0.00048828125,-0.00048828125)">
   <path d="M 174,0 L 602,739 174,1481 1456,739 174,0 Z M 1358,739 L 309,1346 659,739 1358,739 Z"/>
  </g>
  <g id="bullet-char-template-10132" transform="scale(0.00048828125,-0.00048828125)">
   <path d="M 2015,739 L 1276,0 717,0 1260,543 174,543 174,936 1260,936 717,1481 1274,1481 2015,739 Z"/>
  </g>
  <g id="bullet-char-template-10007" transform="scale(0.00048828125,-0.00048828125)">
   <path d="M 0,-2 C -7,14 -16,27 -25,37 L 356,567 C 262,823 215,952 215,954 215,979 228,992 255,992 264,992 276,990 289,987 310,991 331,999 354,1012 L 381,999 492,748 772,1049 836,1024 860,1049 C 881,1039 901,1025 922,1006 886,937 835,863 770,784 769,783 710,716 594,584 L 774,223 C 774,196 753,168 711,139 L 727,119 C 717,90 699,76 672,76 641,76 570,178 457,381 L 164,-76 C 142,-110 111,-127 72,-127 30,-127 9,-110 8,-76 1,-67 -2,-52 -2,-32 -2,-23 -1,-13 0,-2 Z"/>
  </g>
  <g id="bullet-char-template-10004" transform="scale(0.00048828125,-0.00048828125)">
   <path d="M 285,-33 C 182,-33 111,30 74,156 52,228 41,333 41,471 41,549 55,616 82,672 116,743 169,778 240,778 293,778 328,747 346,684 L 369,508 C 377,444 397,411 428,410 L 1163,1116 C 1174,1127 1196,1133 1229,1133 1271,1133 1292,1118 1292,1087 L 1292,965 C 1292,929 1282,901 1262,881 L 442,47 C 390,-6 338,-33 285,-33 Z"/>
  </g>
  <g id="bullet-char-template-9679" transform="scale(0.00048828125,-0.00048828125)">
   <path d="M 813,0 C 632,0 489,54 383,161 276,268 223,411 223,592 223,773 276,916 383,1023 489,1130 632,1184 813,1184 992,1184 1136,1130 1245,1023 1353,916 1407,772 1407,592 1407,412 1353,268 1245,161 1136,54 992,0 813,0 Z"/>
  </g>
  <g id="bullet-char-template-8226" transform="scale(0.00048828125,-0.00048828125)">
   <path d="M 346,457 C 273,457 209,483 155,535 101,586 74,649 74,723 74,796 101,859 155,911 209,963 273,989 346,989 419,989 480,963 531,910 582,859 608,796 608,723 608,648 583,586 532,535 482,483 420,457 346,457 Z"/>
  </g>
  <g id="bullet-char-template-8211" transform="scale(0.00048828125,-0.00048828125)">
   <path d="M -4,459 L 1135,459 1135,606 -4,606 -4,459 Z"/>
  </g>
  <g id="bullet-char-template-61548" transform="scale(0.00048828125,-0.00048828125)">
   <path d="M 173,740 C 173,903 231,1043 346,1159 462,1274 601,1332 765,1332 928,1332 1067,1274 1183,1159 1299,1043 1357,903 1357,740 1357,577 1299,437 1183,322 1067,206 928,148 765,148 601,148 462,206 346,322 231,437 173,577 173,740 Z"/>
  </g>
 </defs>
 <defs class="TextEmbeddedBitmaps"/>
 <g>
  <g id="id2" class="Master_Slide">
   <g id="bg-id2" class="Background"/>
   <g id="bo-id2" class="BackgroundObjects"/>
  </g>
 </g>
 <g class="SlideGroup">
  <g>
   <g id="container-id1">
    <g id="id1" class="Slide" clip-path="url(#presentation_clip_path)">
     <g class="Page">
      <g class="com.sun.star.drawing.OpenFreeHandShape">
       <g id="id3">
        <rect class="BoundingBox" stroke="none" fill="none" x="1219" y="4157" width="1335" height="780"/>
        <path fill="none" stroke="rgb(0,0,0)" d="M 1220,4158 C 1417,4181 1619,4180 1812,4232 2030,4291 2249,4433 2330,4658 L 2496,4843 2552,4935"/>
       </g>
      </g>
      <g class="Group">
       <g class="com.sun.star.drawing.PolyPolygonShape">
        <g id="id4">
         <rect class="BoundingBox" stroke="none" fill="none" x="320" y="3137" width="1413" height="1314"/>
         <path fill="rgb(33,64,154)" stroke="none" d="M 1027,3142 L 957,3145 889,3155 823,3170 759,3192 697,3219 639,3252 583,3291 532,3335 485,3384 444,3436 408,3492 393,3521 379,3550 367,3580 356,3611 347,3642 339,3674 333,3706 329,3739 327,3772 326,3805 326,4127 326,4167 366,4167 616,4167 655,4167 655,4127 656,3823 658,3787 663,3753 672,3719 685,3687 700,3657 719,3628 740,3602 764,3577 791,3554 819,3534 850,3517 882,3502 916,3491 952,3482 989,3477 1027,3475 1064,3477 1101,3482 1136,3491 1170,3502 1203,3517 1233,3534 1262,3554 1288,3577 1312,3602 1334,3628 1352,3657 1368,3687 1381,3719 1390,3753 1395,3787 1397,3823 1396,4405 1396,4445 1436,4445 1685,4445 1724,4445 1724,4405 1726,3806 1725,3773 1723,3740 1719,3707 1713,3675 1705,3643 1696,3612 1685,3581 1673,3551 1659,3521 1644,3493 1627,3464 1609,3437 1567,3385 1520,3336 1469,3292 1414,3253 1355,3220 1294,3192 1230,3170 1164,3155 1096,3145 1027,3142 Z"/>
         <path fill="none" stroke="rgb(0,0,0)" stroke-width="10" stroke-linejoin="miter" d="M 1027,3142 L 957,3145 889,3155 823,3170 759,3192 697,3219 639,3252 583,3291 532,3335 485,3384 444,3436 408,3492 393,3521 379,3550 367,3580 356,3611 347,3642 339,3674 333,3706 329,3739 327,3772 326,3805 326,4127 326,4167 366,4167 616,4167 655,4167 655,4127 656,3823 658,3787 663,3753 672,3719 685,3687 700,3657 719,3628 740,3602 764,3577 791,3554 819,3534 850,3517 882,3502 916,3491 952,3482 989,3477 1027,3475 1064,3477 1101,3482 1136,3491 1170,3502 1203,3517 1233,3534 1262,3554 1288,3577 1312,3602 1334,3628 1352,3657 1368,3687 1381,3719 1390,3753 1395,3787 1397,3823 1396,4405 1396,4445 1436,4445 1685,4445 1724,4445 1724,4405 1726,3806 1725,3773 1723,3740 1719,3707 1713,3675 1705,3643 1696,3612 1685,3581 1673,3551 1659,3521 1644,3493 1627,3464 1609,3437 1567,3385 1520,3336 1469,3292 1414,3253 1355,3220 1294,3192 1230,3170 1164,3155 1096,3145 1027,3142 Z"/>
        </g>
       </g>
       <g class="com.sun.star.drawing.ClosedBezierShape">
        <g id="id5">
         <rect class="BoundingBox" stroke="none" fill="none" x="121" y="4439" width="1866" height="1537"/>
         <path fill="rgb(33,64,154)" stroke="none" d="M 289,4445 C 200,4445 127,4518 127,4607 L 129,5807 C 129,5850 146,5891 176,5921 207,5952 248,5969 291,5969 L 1818,5969 C 1907,5969 1980,5896 1980,5807 L 1978,4607 1978,4607 C 1978,4518 1905,4445 1816,4445 L 289,4445 Z"/>
         <path fill="none" stroke="rgb(0,0,0)" stroke-width="10" stroke-linejoin="miter" d="M 289,4445 C 200,4445 127,4518 127,4607 L 129,5807 C 129,5850 146,5891 176,5921 207,5952 248,5969 291,5969 L 1818,5969 C 1907,5969 1980,5896 1980,5807 L 1978,4607 1978,4607 C 1978,4518 1905,4445 1816,4445 L 289,4445 Z"/>
        </g>
       </g>
       <g class="com.sun.star.drawing.ClosedBezierShape">
        <g id="id6">
         <rect class="BoundingBox" stroke="none" fill="none" x="916" y="5067" width="290" height="510"/>
         <path fill="rgb(0,0,0)" stroke="none" d="M 1061,5073 C 984,5073 922,5131 922,5202 922,5254 955,5299 1003,5319 L 970,5570 1151,5570 1118,5319 C 1166,5299 1199,5254 1199,5202 1199,5131 1137,5073 1061,5073 Z"/>
         <path fill="none" stroke="rgb(0,0,0)" stroke-width="10" stroke-linejoin="miter" d="M 1061,5073 C 984,5073 922,5131 922,5202 922,5254 955,5299 1003,5319 L 970,5570 1151,5570 1118,5319 C 1166,5299 1199,5254 1199,5202 1199,5131 1137,5073 1061,5073 Z"/>
        </g>
       </g>
      </g>
      <g class="Group">
       <g class="com.sun.star.drawing.ClosedBezierShape">
        <g id="id7">
         <rect class="BoundingBox" stroke="none" fill="none" x="3465" y="4770" width="1690" height="565"/>
         <path fill="rgb(33,64,154)" stroke="none" d="M 3559,4785 L 3559,4785 3567,4776 4058,4776 C 4058,4776 4176,4923 4199,4952 4220,4930 4282,4864 4282,4864 4282,4864 4339,4929 4358,4951 4381,4925 4481,4813 4481,4813 4481,4813 4521,4857 4534,4873 4550,4863 4588,4838 4588,4838 4588,4838 4655,4905 4676,4926 4697,4903 4772,4818 4772,4818 L 4936,4818 5149,5047 4937,5328 3580,5327 3570,5328 3527,5266 3527,5267 3527,5266 C 3442,5117 3455,4919 3559,4785 Z"/>
         <path fill="none" stroke="rgb(0,0,0)" stroke-width="10" stroke-linejoin="miter" d="M 3559,4785 L 3559,4785 3567,4776 4058,4776 C 4058,4776 4176,4923 4199,4952 4220,4930 4282,4864 4282,4864 4282,4864 4339,4929 4358,4951 4381,4925 4481,4813 4481,4813 4481,4813 4521,4857 4534,4873 4550,4863 4588,4838 4588,4838 4588,4838 4655,4905 4676,4926 4697,4903 4772,4818 4772,4818 L 4936,4818 5149,5047 4937,5328 3580,5327 3570,5328 3527,5266 3527,5267 3527,5266 C 3442,5117 3455,4919 3559,4785 Z"/>
        </g>
       </g>
       <g class="com.sun.star.drawing.ClosedBezierShape">
        <g id="id8">
         <rect class="BoundingBox" stroke="none" fill="none" x="2170" y="4279" width="1452" height="1452"/>
         <path fill="rgb(33,64,154)" stroke="none" d="M 3284,5610 C 2950,5825 2504,5728 2290,5393 2164,5197 2145,4963 2219,4760 2271,4616 2369,4488 2507,4399 2841,4184 3287,4282 3501,4616 3556,4701 3591,4794 3606,4889 3651,5163 3533,5450 3284,5610 Z"/>
         <path fill="none" stroke="rgb(0,0,0)" stroke-width="10" stroke-linejoin="miter" d="M 3284,5610 C 2950,5825 2504,5728 2290,5393 2164,5197 2145,4963 2219,4760 2271,4616 2369,4488 2507,4399 2841,4184 3287,4282 3501,4616 3556,4701 3591,4794 3606,4889 3651,5163 3533,5450 3284,5610 Z"/>
        </g>
       </g>
       <g class="com.sun.star.drawing.ClosedBezierShape">
        <g id="id9">
         <rect class="BoundingBox" stroke="none" fill="none" x="2401" y="4808" width="393" height="393"/>
         <path fill="rgb(255,255,255)" stroke="none" d="M 2757,4901 C 2701,4813 2583,4787 2494,4844 2406,4901 2380,5019 2437,5107 2494,5196 2611,5221 2700,5165 2788,5108 2814,4990 2757,4901 Z"/>
         <path fill="none" stroke="rgb(0,0,0)" stroke-width="10" stroke-linejoin="miter" d="M 2757,4901 C 2701,4813 2583,4787 2494,4844 2406,4901 2380,5019 2437,5107 2494,5196 2611,5221 2700,5165 2788,5108 2814,4990 2757,4901 Z"/>
        </g>
       </g>
      </g>
      <g class="com.sun.star.drawing.OpenFreeHandShape">
       <g id="id10">
        <rect class="BoundingBox" stroke="none" fill="none" x="1229" y="1094" width="1428" height="974"/>
        <path fill="none" stroke="rgb(0,0,0)" d="M 2655,2066 C 2470,1903 2383,1660 2210,1492 2063,1349 1976,996 1692,1122 L 1507,1104 1322,1104 1230,1141"/>
       </g>
      </g>
      <g class="Group">
       <g class="com.sun.star.drawing.ClosedBezierShape">
        <g id="id11">
         <rect class="BoundingBox" stroke="none" fill="none" x="3523" y="1882" width="1690" height="565"/>
         <path fill="rgb(255,242,0)" stroke="none" d="M 3617,1897 L 3617,1897 3625,1888 4116,1888 C 4116,1888 4234,2035 4257,2064 4278,2042 4340,1976 4340,1976 4340,1976 4397,2041 4416,2063 4439,2037 4539,1925 4539,1925 4539,1925 4579,1969 4592,1985 4608,1975 4646,1950 4646,1950 4646,1950 4713,2017 4734,2038 4755,2015 4830,1930 4830,1930 L 4994,1930 5207,2159 4995,2440 3638,2439 3628,2440 3585,2378 3585,2379 3585,2378 C 3500,2229 3513,2031 3617,1897 Z"/>
         <path fill="none" stroke="rgb(0,0,0)" stroke-width="10" stroke-linejoin="miter" d="M 3617,1897 L 3617,1897 3625,1888 4116,1888 C 4116,1888 4234,2035 4257,2064 4278,2042 4340,1976 4340,1976 4340,1976 4397,2041 4416,2063 4439,2037 4539,1925 4539,1925 4539,1925 4579,1969 4592,1985 4608,1975 4646,1950 4646,1950 4646,1950 4713,2017 4734,2038 4755,2015 4830,1930 4830,1930 L 4994,1930 5207,2159 4995,2440 3638,2439 3628,2440 3585,2378 3585,2379 3585,2378 C 3500,2229 3513,2031 3617,1897 Z"/>
        </g>
       </g>
       <g class="com.sun.star.drawing.ClosedBezierShape">
        <g id="id12">
         <rect class="BoundingBox" stroke="none" fill="none" x="2228" y="1391" width="1452" height="1452"/>
         <path fill="rgb(255,242,0)" stroke="none" d="M 3342,2722 C 3008,2937 2562,2840 2348,2505 2222,2309 2203,2075 2277,1872 2329,1728 2427,1600 2565,1511 2899,1296 3345,1394 3559,1728 3614,1813 3649,1906 3664,2001 3709,2275 3591,2562 3342,2722 Z"/>
         <path fill="none" stroke="rgb(0,0,0)" stroke-width="10" stroke-linejoin="miter" d="M 3342,2722 C 3008,2937 2562,2840 2348,2505 2222,2309 2203,2075 2277,1872 2329,1728 2427,1600 2565,1511 2899,1296 3345,1394 3559,1728 3614,1813 3649,1906 3664,2001 3709,2275 3591,2562 3342,2722 Z"/>
        </g>
       </g>
       <g class="com.sun.star.drawing.ClosedBezierShape">
        <g id="id13">
         <rect class="BoundingBox" stroke="none" fill="none" x="2459" y="1920" width="393" height="393"/>
         <path fill="rgb(255,255,255)" stroke="none" d="M 2815,2013 C 2759,1925 2641,1899 2552,1956 2464,2013 2438,2131 2495,2219 2552,2308 2669,2333 2758,2277 2846,2220 2872,2102 2815,2013 Z"/>
         <path fill="none" stroke="rgb(0,0,0)" stroke-width="10" stroke-linejoin="miter" d="M 2815,2013 C 2759,1925 2641,1899 2552,1956 2464,2013 2438,2131 2495,2219 2552,2308 2669,2333 2758,2277 2846,2220 2872,2102 2815,2013 Z"/>
        </g>
       </g>
      </g>
      <g class="Group">
       <g class="com.sun.star.drawing.PolyPolygonShape">
        <g id="id14">
         <rect class="BoundingBox" stroke="none" fill="none" x="320" y="89" width="1413" height="1314"/>
         <path fill="rgb(255,242,0)" stroke="none" d="M 1027,94 L 957,97 889,107 823,122 759,144 697,171 639,204 583,243 532,287 485,336 444,388 408,444 393,473 379,502 367,532 356,563 347,594 339,626 333,658 329,691 327,724 326,757 326,1079 326,1119 366,1119 616,1119 655,1119 655,1079 656,775 658,739 663,705 672,671 685,639 700,609 719,580 740,554 764,529 791,506 819,486 850,469 882,454 916,443 952,434 989,429 1027,427 1064,429 1101,434 1136,443 1170,454 1203,469 1233,486 1262,506 1288,529 1312,554 1334,580 1352,609 1368,639 1381,671 1390,705 1395,739 1397,775 1396,1357 1396,1397 1436,1397 1685,1397 1724,1397 1724,1357 1726,758 1725,725 1723,692 1719,659 1713,627 1705,595 1696,564 1685,533 1673,503 1659,473 1644,445 1627,416 1609,389 1567,337 1520,288 1469,244 1414,205 1355,172 1294,144 1230,122 1164,107 1096,97 1027,94 Z"/>
         <path fill="none" stroke="rgb(0,0,0)" stroke-width="10" stroke-linejoin="miter" d="M 1027,94 L 957,97 889,107 823,122 759,144 697,171 639,204 583,243 532,287 485,336 444,388 408,444 393,473 379,502 367,532 356,563 347,594 339,626 333,658 329,691 327,724 326,757 326,1079 326,1119 366,1119 616,1119 655,1119 655,1079 656,775 658,739 663,705 672,671 685,639 700,609 719,580 740,554 764,529 791,506 819,486 850,469 882,454 916,443 952,434 989,429 1027,427 1064,429 1101,434 1136,443 1170,454 1203,469 1233,486 1262,506 1288,529 1312,554 1334,580 1352,609 1368,639 1381,671 1390,705 1395,739 1397,775 1396,1357 1396,1397 1436,1397 1685,1397 1724,1397 1724,1357 1726,758 1725,725 1723,692 1719,659 1713,627 1705,595 1696,564 1685,533 1673,503 1659,473 1644,445 1627,416 1609,389 1567,337 1520,288 1469,244 1414,205 1355,172 1294,144 1230,122 1164,107 1096,97 1027,94 Z"/>
        </g>
       </g>
       <g class="com.sun.star.drawing.ClosedBezierShape">
        <g id="id15">
         <rect class="BoundingBox" stroke="none" fill="none" x="121" y="1391" width="1866" height="1537"/>
         <path fill="rgb(255,242,0)" stroke="none" d="M 289,1397 C 200,1397 127,1470 127,1559 L 129,2759 C 129,2802 146,2843 176,2873 207,2904 248,2921 291,2921 L 1818,2921 C 1907,2921 1980,2848 1980,2759 L 1978,1559 1978,1559 C 1978,1470 1905,1397 1816,1397 L 289,1397 Z"/>
         <path fill="none" stroke="rgb(0,0,0)" stroke-width="10" stroke-linejoin="miter" d="M 289,1397 C 200,1397 127,1470 127,1559 L 129,2759 C 129,2802 146,2843 176,2873 207,2904 248,2921 291,2921 L 1818,2921 C 1907,2921 1980,2848 1980,2759 L 1978,1559 1978,1559 C 1978,1470 1905,1397 1816,1397 L 289,1397 Z"/>
        </g>
       </g>
       <g class="com.sun.star.drawing.ClosedBezierShape">
        <g id="id16">
         <rect class="BoundingBox" stroke="none" fill="none" x="916" y="2019" width="290" height="510"/>
         <path fill="rgb(0,0,0)" stroke="none" d="M 1061,2025 C 984,2025 922,2083 922,2154 922,2206 955,2251 1003,2271 L 970,2522 1151,2522 1118,2271 C 1166,2251 1199,2206 1199,2154 1199,2083 1137,2025 1061,2025 Z"/>
         <path fill="none" stroke="rgb(0,0,0)" stroke-width="10" stroke-linejoin="miter" d="M 1061,2025 C 984,2025 922,2083 922,2154 922,2206 955,2251 1003,2271 L 970,2522 1151,2522 1118,2271 C 1166,2251 1199,2206 1199,2154 1199,2083 1137,2025 1061,2025 Z"/>
        </g>
       </g>
      </g>
      <g class="com.sun.star.drawing.OpenFreeHandShape">
       <g id="id17">
        <rect class="BoundingBox" stroke="none" fill="none" x="1229" y="1140" width="1335" height="1332"/>
        <path fill="none" stroke="rgb(0,0,0)" d="M 1230,1141 C 1284,1406 1572,1359 1748,1307 1973,1241 2077,1501 2099,1696 2122,1892 2255,2086 2192,2269 2029,2744 2415,2228 2507,2232 L 2562,2047 2562,1955"/>
       </g>
      </g>
      <g class="com.sun.star.drawing.OpenFreeHandShape">
       <g id="id18">
        <rect class="BoundingBox" stroke="none" fill="none" x="1200" y="4157" width="1354" height="1349"/>
        <path fill="none" stroke="rgb(0,0,0)" d="M 1201,4158 C 1413,4388 1635,4612 1867,4824 2008,4953 2071,5130 2145,5379 2253,5744 2472,5206 2552,5065 L 2533,4880 2515,4861"/>
       </g>
      </g>
     </g>
    </g>
   </g>
  </g>
 </g>
</svg>