<?xml version="1.0" encoding="utf-8" standalone="no"?>
<!DOCTYPE svg PUBLIC "-//W3C//DTD SVG 1.1//EN"
  "http://www.w3.org/Graphics/SVG/1.1/DTD/svg11.dtd">
<!-- Created with matplotlib (http://matplotlib.org/) -->
<svg height="345.6pt" version="1.1" viewBox="0 0 460.8 345.6" width="460.8pt" xmlns="http://www.w3.org/2000/svg" xmlns:xlink="http://www.w3.org/1999/xlink">
 <defs>
  <style type="text/css">
*{stroke-linecap:butt;stroke-linejoin:round;}
  </style>
 </defs>
 <g id="figure_1">
  <g id="patch_1">
   <path d="M 0 345.6 
L 460.8 345.6 
L 460.8 0 
L 0 0 
z
" style="fill:#ffffff;"/>
  </g>
  <g id="axes_1">
   <g id="patch_2">
    <path d="M 57.6 276.48 
L 414.72 276.48 
L 414.72 41.472 
L 57.6 41.472 
z
" style="fill:#ffffff;"/>
   </g>
   <g id="matplotlib.axis_1">
    <g id="xtick_1">
     <g id="line2d_1">
      <path clip-path="url(#p60681b7205)" d="M 73.832727 276.48 
L 73.832727 41.472 
" style="fill:none;stroke:#b0b0b0;stroke-linecap:square;stroke-width:0.8;"/>
     </g>
     <g id="line2d_2">
      <defs>
       <path d="M 0 0 
L 0 3.5 
" id="mfdc834909c" style="stroke:#000000;stroke-width:0.8;"/>
      </defs>
      <g>
       <use style="stroke:#000000;stroke-width:0.8;" x="73.832727" xlink:href="#mfdc834909c" y="276.48"/>
      </g>
     </g>
     <g id="text_1">
      <!-- 2019-01 -->
      <defs>
       <path d="M 19.1875 8.296875 
L 53.609375 8.296875 
L 53.609375 0 
L 7.328125 0 
L 7.328125 8.296875 
Q 12.9375 14.109375 22.625 23.890625 
Q 32.328125 33.6875 34.8125 36.53125 
Q 39.546875 41.84375 41.421875 45.53125 
Q 43.3125 49.21875 43.3125 52.78125 
Q 43.3125 58.59375 39.234375 62.25 
Q 35.15625 65.921875 28.609375 65.921875 
Q 23.96875 65.921875 18.8125 64.3125 
Q 13.671875 62.703125 7.8125 59.421875 
L 7.8125 69.390625 
Q 13.765625 71.78125 18.9375 73 
Q 24.125 74.21875 28.421875 74.21875 
Q 39.75 74.21875 46.484375 68.546875 
Q 53.21875 62.890625 53.21875 53.421875 
Q 53.21875 48.921875 51.53125 44.890625 
Q 49.859375 40.875 45.40625 35.40625 
Q 44.1875 33.984375 37.640625 27.21875 
Q 31.109375 20.453125 19.1875 8.296875 
z
" id="DejaVuSans-32"/>
       <path d="M 31.78125 66.40625 
Q 24.171875 66.40625 20.328125 58.90625 
Q 16.5 51.421875 16.5 36.375 
Q 16.5 21.390625 20.328125 13.890625 
Q 24.171875 6.390625 31.78125 6.390625 
Q 39.453125 6.390625 43.28125 13.890625 
Q 47.125 21.390625 47.125 36.375 
Q 47.125 51.421875 43.28125 58.90625 
Q 39.453125 66.40625 31.78125 66.40625 
z
M 31.78125 74.21875 
Q 44.046875 74.21875 50.515625 64.515625 
Q 56.984375 54.828125 56.984375 36.375 
Q 56.984375 17.96875 50.515625 8.265625 
Q 44.046875 -1.421875 31.78125 -1.421875 
Q 19.53125 -1.421875 13.0625 8.265625 
Q 6.59375 17.96875 6.59375 36.375 
Q 6.59375 54.828125 13.0625 64.515625 
Q 19.53125 74.21875 31.78125 74.21875 
z
" id="DejaVuSans-30"/>
       <path d="M 12.40625 8.296875 
L 28.515625 8.296875 
L 28.515625 63.921875 
L 10.984375 60.40625 
L 10.984375 69.390625 
L 28.421875 72.90625 
L 38.28125 72.90625 
L 38.28125 8.296875 
L 54.390625 8.296875 
L 54.390625 0 
L 12.40625 0 
z
" id="DejaVuSans-31"/>
       <path d="M 10.984375 1.515625 
L 10.984375 10.5 
Q 14.703125 8.734375 18.5 7.8125 
Q 22.3125 6.890625 25.984375 6.890625 
Q 35.75 6.890625 40.890625 13.453125 
Q 46.046875 20.015625 46.78125 33.40625 
Q 43.953125 29.203125 39.59375 26.953125 
Q 35.25 24.703125 29.984375 24.703125 
Q 19.046875 24.703125 12.671875 31.3125 
Q 6.296875 37.9375 6.296875 49.421875 
Q 6.296875 60.640625 12.9375 67.421875 
Q 19.578125 74.21875 30.609375 74.21875 
Q 43.265625 74.21875 49.921875 64.515625 
Q 56.59375 54.828125 56.59375 36.375 
Q 56.59375 19.140625 48.40625 8.859375 
Q 40.234375 -1.421875 26.421875 -1.421875 
Q 22.703125 -1.421875 18.890625 -0.6875 
Q 15.09375 0.046875 10.984375 1.515625 
z
M 30.609375 32.421875 
Q 37.25 32.421875 41.125 36.953125 
Q 45.015625 41.5 45.015625 49.421875 
Q 45.015625 57.28125 41.125 61.84375 
Q 37.25 66.40625 30.609375 66.40625 
Q 23.96875 66.40625 20.09375 61.84375 
Q 16.21875 57.28125 16.21875 49.421875 
Q 16.21875 41.5 20.09375 36.953125 
Q 23.96875 32.421875 30.609375 32.421875 
z
" id="DejaVuSans-39"/>
       <path d="M 4.890625 31.390625 
L 31.203125 31.390625 
L 31.203125 23.390625 
L 4.890625 23.390625 
z
" id="DejaVuSans-2d"/>
      </defs>
      <g transform="translate(36.607906 310.951846)rotate(-30)scale(0.1 -0.1)">
       <use xlink:href="#DejaVuSans-32"/>
       <use x="63.623047" xlink:href="#DejaVuSans-30"/>
       <use x="127.246094" xlink:href="#DejaVuSans-31"/>
       <use x="190.869141" xlink:href="#DejaVuSans-39"/>
       <use x="254.492188" xlink:href="#DejaVuSans-2d"/>
       <use x="290.576172" xlink:href="#DejaVuSans-30"/>
       <use x="354.199219" xlink:href="#DejaVuSans-31"/>
      </g>
     </g>
    </g>
    <g id="xtick_2">
     <g id="line2d_3">
      <path clip-path="url(#p60681b7205)" d="M 126.172227 276.48 
L 126.172227 41.472 
" style="fill:none;stroke:#b0b0b0;stroke-linecap:square;stroke-width:0.8;"/>
     </g>
     <g id="line2d_4">
      <g>
       <use style="stroke:#000000;stroke-width:0.8;" x="126.172227" xlink:href="#mfdc834909c" y="276.48"/>
      </g>
     </g>
     <g id="text_2">
      <!-- 2019-03 -->
      <defs>
       <path d="M 40.578125 39.3125 
Q 47.65625 37.796875 51.625 33 
Q 55.609375 28.21875 55.609375 21.1875 
Q 55.609375 10.40625 48.1875 4.484375 
Q 40.765625 -1.421875 27.09375 -1.421875 
Q 22.515625 -1.421875 17.65625 -0.515625 
Q 12.796875 0.390625 7.625 2.203125 
L 7.625 11.71875 
Q 11.71875 9.328125 16.59375 8.109375 
Q 21.484375 6.890625 26.8125 6.890625 
Q 36.078125 6.890625 40.9375 10.546875 
Q 45.796875 14.203125 45.796875 21.1875 
Q 45.796875 27.640625 41.28125 31.265625 
Q 36.765625 34.90625 28.71875 34.90625 
L 20.21875 34.90625 
L 20.21875 43.015625 
L 29.109375 43.015625 
Q 36.375 43.015625 40.234375 45.921875 
Q 44.09375 48.828125 44.09375 54.296875 
Q 44.09375 59.90625 40.109375 62.90625 
Q 36.140625 65.921875 28.71875 65.921875 
Q 24.65625 65.921875 20.015625 65.03125 
Q 15.375 64.15625 9.8125 62.3125 
L 9.8125 71.09375 
Q 15.4375 72.65625 20.34375 73.4375 
Q 25.25 74.21875 29.59375 74.21875 
Q 40.828125 74.21875 47.359375 69.109375 
Q 53.90625 64.015625 53.90625 55.328125 
Q 53.90625 49.265625 50.4375 45.09375 
Q 46.96875 40.921875 40.578125 39.3125 
z
" id="DejaVuSans-33"/>
      </defs>
      <g transform="translate(88.947406 310.951846)rotate(-30)scale(0.1 -0.1)">
       <use xlink:href="#DejaVuSans-32"/>
       <use x="63.623047" xlink:href="#DejaVuSans-30"/>
       <use x="127.246094" xlink:href="#DejaVuSans-31"/>
       <use x="190.869141" xlink:href="#DejaVuSans-39"/>
       <use x="254.492188" xlink:href="#DejaVuSans-2d"/>
       <use x="290.576172" xlink:href="#DejaVuSans-30"/>
       <use x="354.199219" xlink:href="#DejaVuSans-33"/>
      </g>
     </g>
    </g>
    <g id="xtick_3">
     <g id="line2d_5">
      <path clip-path="url(#p60681b7205)" d="M 180.285947 276.48 
L 180.285947 41.472 
" style="fill:none;stroke:#b0b0b0;stroke-linecap:square;stroke-width:0.8;"/>
     </g>
     <g id="line2d_6">
      <g>
       <use style="stroke:#000000;stroke-width:0.8;" x="180.285947" xlink:href="#mfdc834909c" y="276.48"/>
      </g>
     </g>
     <g id="text_3">
      <!-- 2019-05 -->
      <defs>
       <path d="M 10.796875 72.90625 
L 49.515625 72.90625 
L 49.515625 64.59375 
L 19.828125 64.59375 
L 19.828125 46.734375 
Q 21.96875 47.46875 24.109375 47.828125 
Q 26.265625 48.1875 28.421875 48.1875 
Q 40.625 48.1875 47.75 41.5 
Q 54.890625 34.8125 54.890625 23.390625 
Q 54.890625 11.625 47.5625 5.09375 
Q 40.234375 -1.421875 26.90625 -1.421875 
Q 22.3125 -1.421875 17.546875 -0.640625 
Q 12.796875 0.140625 7.71875 1.703125 
L 7.71875 11.625 
Q 12.109375 9.234375 16.796875 8.0625 
Q 21.484375 6.890625 26.703125 6.890625 
Q 35.15625 6.890625 40.078125 11.328125 
Q 45.015625 15.765625 45.015625 23.390625 
Q 45.015625 31 40.078125 35.4375 
Q 35.15625 39.890625 26.703125 39.890625 
Q 22.75 39.890625 18.8125 39.015625 
Q 14.890625 38.140625 10.796875 36.28125 
z
" id="DejaVuSans-35"/>
      </defs>
      <g transform="translate(143.061126 310.951846)rotate(-30)scale(0.1 -0.1)">
       <use xlink:href="#DejaVuSans-32"/>
       <use x="63.623047" xlink:href="#DejaVuSans-30"/>
       <use x="127.246094" xlink:href="#DejaVuSans-31"/>
       <use x="190.869141" xlink:href="#DejaVuSans-39"/>
       <use x="254.492188" xlink:href="#DejaVuSans-2d"/>
       <use x="290.576172" xlink:href="#DejaVuSans-30"/>
       <use x="354.199219" xlink:href="#DejaVuSans-35"/>
      </g>
     </g>
    </g>
    <g id="xtick_4">
     <g id="line2d_7">
      <path clip-path="url(#p60681b7205)" d="M 234.399666 276.48 
L 234.399666 41.472 
" style="fill:none;stroke:#b0b0b0;stroke-linecap:square;stroke-width:0.8;"/>
     </g>
     <g id="line2d_8">
      <g>
       <use style="stroke:#000000;stroke-width:0.8;" x="234.399666" xlink:href="#mfdc834909c" y="276.48"/>
      </g>
     </g>
     <g id="text_4">
      <!-- 2019-07 -->
      <defs>
       <path d="M 8.203125 72.90625 
L 55.078125 72.90625 
L 55.078125 68.703125 
L 28.609375 0 
L 18.3125 0 
L 43.21875 64.59375 
L 8.203125 64.59375 
z
" id="DejaVuSans-37"/>
      </defs>
      <g transform="translate(197.174846 310.951846)rotate(-30)scale(0.1 -0.1)">
       <use xlink:href="#DejaVuSans-32"/>
       <use x="63.623047" xlink:href="#DejaVuSans-30"/>
       <use x="127.246094" xlink:href="#DejaVuSans-31"/>
       <use x="190.869141" xlink:href="#DejaVuSans-39"/>
       <use x="254.492188" xlink:href="#DejaVuSans-2d"/>
       <use x="290.576172" xlink:href="#DejaVuSans-30"/>
       <use x="354.199219" xlink:href="#DejaVuSans-37"/>
      </g>
     </g>
    </g>
    <g id="xtick_5">
     <g id="line2d_9">
      <path clip-path="url(#p60681b7205)" d="M 289.400496 276.48 
L 289.400496 41.472 
" style="fill:none;stroke:#b0b0b0;stroke-linecap:square;stroke-width:0.8;"/>
     </g>
     <g id="line2d_10">
      <g>
       <use style="stroke:#000000;stroke-width:0.8;" x="289.400496" xlink:href="#mfdc834909c" y="276.48"/>
      </g>
     </g>
     <g id="text_5">
      <!-- 2019-09 -->
      <g transform="translate(252.175676 310.951846)rotate(-30)scale(0.1 -0.1)">
       <use xlink:href="#DejaVuSans-32"/>
       <use x="63.623047" xlink:href="#DejaVuSans-30"/>
       <use x="127.246094" xlink:href="#DejaVuSans-31"/>
       <use x="190.869141" xlink:href="#DejaVuSans-39"/>
       <use x="254.492188" xlink:href="#DejaVuSans-2d"/>
       <use x="290.576172" xlink:href="#DejaVuSans-30"/>
       <use x="354.199219" xlink:href="#DejaVuSans-39"/>
      </g>
     </g>
    </g>
    <g id="xtick_6">
     <g id="line2d_11">
      <path clip-path="url(#p60681b7205)" d="M 343.514216 276.48 
L 343.514216 41.472 
" style="fill:none;stroke:#b0b0b0;stroke-linecap:square;stroke-width:0.8;"/>
     </g>
     <g id="line2d_12">
      <g>
       <use style="stroke:#000000;stroke-width:0.8;" x="343.514216" xlink:href="#mfdc834909c" y="276.48"/>
      </g>
     </g>
     <g id="text_6">
      <!-- 2019-11 -->
      <g transform="translate(306.289395 310.951846)rotate(-30)scale(0.1 -0.1)">
       <use xlink:href="#DejaVuSans-32"/>
       <use x="63.623047" xlink:href="#DejaVuSans-30"/>
       <use x="127.246094" xlink:href="#DejaVuSans-31"/>
       <use x="190.869141" xlink:href="#DejaVuSans-39"/>
       <use x="254.492188" xlink:href="#DejaVuSans-2d"/>
       <use x="290.576172" xlink:href="#DejaVuSans-31"/>
       <use x="354.199219" xlink:href="#DejaVuSans-31"/>
      </g>
     </g>
    </g>
    <g id="xtick_7">
     <g id="line2d_13">
      <path clip-path="url(#p60681b7205)" d="M 397.627936 276.48 
L 397.627936 41.472 
" style="fill:none;stroke:#b0b0b0;stroke-linecap:square;stroke-width:0.8;"/>
     </g>
     <g id="line2d_14">
      <g>
       <use style="stroke:#000000;stroke-width:0.8;" x="397.627936" xlink:href="#mfdc834909c" y="276.48"/>
      </g>
     </g>
     <g id="text_7">
      <!-- 2020-01 -->
      <g transform="translate(360.403115 310.951846)rotate(-30)scale(0.1 -0.1)">
       <use xlink:href="#DejaVuSans-32"/>
       <use x="63.623047" xlink:href="#DejaVuSans-30"/>
       <use x="127.246094" xlink:href="#DejaVuSans-32"/>
       <use x="190.869141" xlink:href="#DejaVuSans-30"/>
       <use x="254.492188" xlink:href="#DejaVuSans-2d"/>
       <use x="290.576172" xlink:href="#DejaVuSans-30"/>
       <use x="354.199219" xlink:href="#DejaVuSans-31"/>
      </g>
     </g>
    </g>
    <g id="text_8">
     <!-- date -->
     <defs>
      <path d="M 45.40625 46.390625 
L 45.40625 75.984375 
L 54.390625 75.984375 
L 54.390625 0 
L 45.40625 0 
L 45.40625 8.203125 
Q 42.578125 3.328125 38.25 0.953125 
Q 33.9375 -1.421875 27.875 -1.421875 
Q 17.96875 -1.421875 11.734375 6.484375 
Q 5.515625 14.40625 5.515625 27.296875 
Q 5.515625 40.1875 11.734375 48.09375 
Q 17.96875 56 27.875 56 
Q 33.9375 56 38.25 53.625 
Q 42.578125 51.265625 45.40625 46.390625 
z
M 14.796875 27.296875 
Q 14.796875 17.390625 18.875 11.75 
Q 22.953125 6.109375 30.078125 6.109375 
Q 37.203125 6.109375 41.296875 11.75 
Q 45.40625 17.390625 45.40625 27.296875 
Q 45.40625 37.203125 41.296875 42.84375 
Q 37.203125 48.484375 30.078125 48.484375 
Q 22.953125 48.484375 18.875 42.84375 
Q 14.796875 37.203125 14.796875 27.296875 
z
" id="DejaVuSans-64"/>
      <path d="M 34.28125 27.484375 
Q 23.390625 27.484375 19.1875 25 
Q 14.984375 22.515625 14.984375 16.5 
Q 14.984375 11.71875 18.140625 8.90625 
Q 21.296875 6.109375 26.703125 6.109375 
Q 34.1875 6.109375 38.703125 11.40625 
Q 43.21875 16.703125 43.21875 25.484375 
L 43.21875 27.484375 
z
M 52.203125 31.203125 
L 52.203125 0 
L 43.21875 0 
L 43.21875 8.296875 
Q 40.140625 3.328125 35.546875 0.953125 
Q 30.953125 -1.421875 24.3125 -1.421875 
Q 15.921875 -1.421875 10.953125 3.296875 
Q 6 8.015625 6 15.921875 
Q 6 25.140625 12.171875 29.828125 
Q 18.359375 34.515625 30.609375 34.515625 
L 43.21875 34.515625 
L 43.21875 35.40625 
Q 43.21875 41.609375 39.140625 45 
Q 35.0625 48.390625 27.6875 48.390625 
Q 23 48.390625 18.546875 47.265625 
Q 14.109375 46.140625 10.015625 43.890625 
L 10.015625 52.203125 
Q 14.9375 54.109375 19.578125 55.046875 
Q 24.21875 56 28.609375 56 
Q 40.484375 56 46.34375 49.84375 
Q 52.203125 43.703125 52.203125 31.203125 
z
" id="DejaVuSans-61"/>
      <path d="M 18.3125 70.21875 
L 18.3125 54.6875 
L 36.8125 54.6875 
L 36.8125 47.703125 
L 18.3125 47.703125 
L 18.3125 18.015625 
Q 18.3125 11.328125 20.140625 9.421875 
Q 21.96875 7.515625 27.59375 7.515625 
L 36.8125 7.515625 
L 36.8125 0 
L 27.59375 0 
Q 17.1875 0 13.234375 3.875 
Q 9.28125 7.765625 9.28125 18.015625 
L 9.28125 47.703125 
L 2.6875 47.703125 
L 2.6875 54.6875 
L 9.28125 54.6875 
L 9.28125 70.21875 
z
" id="DejaVuSans-74"/>
      <path d="M 56.203125 29.59375 
L 56.203125 25.203125 
L 14.890625 25.203125 
Q 15.484375 15.921875 20.484375 11.0625 
Q 25.484375 6.203125 34.421875 6.203125 
Q 39.59375 6.203125 44.453125 7.46875 
Q 49.3125 8.734375 54.109375 11.28125 
L 54.109375 2.78125 
Q 49.265625 0.734375 44.1875 -0.34375 
Q 39.109375 -1.421875 33.890625 -1.421875 
Q 20.796875 -1.421875 13.15625 6.1875 
Q 5.515625 13.8125 5.515625 26.8125 
Q 5.515625 40.234375 12.765625 48.109375 
Q 20.015625 56 32.328125 56 
Q 43.359375 56 49.78125 48.890625 
Q 56.203125 41.796875 56.203125 29.59375 
z
M 47.21875 32.234375 
Q 47.125 39.59375 43.09375 43.984375 
Q 39.0625 48.390625 32.421875 48.390625 
Q 24.90625 48.390625 20.390625 44.140625 
Q 15.875 39.890625 15.1875 32.171875 
z
" id="DejaVuSans-65"/>
     </defs>
     <g transform="translate(224.885 324.351346)scale(0.1 -0.1)">
      <use xlink:href="#DejaVuSans-64"/>
      <use x="63.476562" xlink:href="#DejaVuSans-61"/>
      <use x="124.755859" xlink:href="#DejaVuSans-74"/>
      <use x="163.964844" xlink:href="#DejaVuSans-65"/>
     </g>
    </g>
   </g>
   <g id="matplotlib.axis_2">
    <g id="ytick_1">
     <g id="line2d_15">
      <path clip-path="url(#p60681b7205)" d="M 57.6 265.797818 
L 414.72 265.797818 
" style="fill:none;stroke:#b0b0b0;stroke-linecap:square;stroke-width:0.8;"/>
     </g>
     <g id="line2d_16">
      <defs>
       <path d="M 0 0 
L -3.5 0 
" id="md433207ffb" style="stroke:#000000;stroke-width:0.8;"/>
      </defs>
      <g>
       <use style="stroke:#000000;stroke-width:0.8;" x="57.6" xlink:href="#md433207ffb" y="265.797818"/>
      </g>
     </g>
     <g id="text_9">
      <!-- 0 -->
      <g transform="translate(44.2375 269.597037)scale(0.1 -0.1)">
       <use xlink:href="#DejaVuSans-30"/>
      </g>
     </g>
    </g>
    <g id="ytick_2">
     <g id="line2d_17">
      <path clip-path="url(#p60681b7205)" d="M 57.6 226.563738 
L 414.72 226.563738 
" style="fill:none;stroke:#b0b0b0;stroke-linecap:square;stroke-width:0.8;"/>
     </g>
     <g id="line2d_18">
      <g>
       <use style="stroke:#000000;stroke-width:0.8;" x="57.6" xlink:href="#md433207ffb" y="226.563738"/>
      </g>
     </g>
     <g id="text_10">
      <!-- 2000 -->
      <g transform="translate(25.15 230.362957)scale(0.1 -0.1)">
       <use xlink:href="#DejaVuSans-32"/>
       <use x="63.623047" xlink:href="#DejaVuSans-30"/>
       <use x="127.246094" xlink:href="#DejaVuSans-30"/>
       <use x="190.869141" xlink:href="#DejaVuSans-30"/>
      </g>
     </g>
    </g>
    <g id="ytick_3">
     <g id="line2d_19">
      <path clip-path="url(#p60681b7205)" d="M 57.6 187.329658 
L 414.72 187.329658 
" style="fill:none;stroke:#b0b0b0;stroke-linecap:square;stroke-width:0.8;"/>
     </g>
     <g id="line2d_20">
      <g>
       <use style="stroke:#000000;stroke-width:0.8;" x="57.6" xlink:href="#md433207ffb" y="187.329658"/>
      </g>
     </g>
     <g id="text_11">
      <!-- 4000 -->
      <defs>
       <path d="M 37.796875 64.3125 
L 12.890625 25.390625 
L 37.796875 25.390625 
z
M 35.203125 72.90625 
L 47.609375 72.90625 
L 47.609375 25.390625 
L 58.015625 25.390625 
L 58.015625 17.1875 
L 47.609375 17.1875 
L 47.609375 0 
L 37.796875 0 
L 37.796875 17.1875 
L 4.890625 17.1875 
L 4.890625 26.703125 
z
" id="DejaVuSans-34"/>
      </defs>
      <g transform="translate(25.15 191.128877)scale(0.1 -0.1)">
       <use xlink:href="#DejaVuSans-34"/>
       <use x="63.623047" xlink:href="#DejaVuSans-30"/>
       <use x="127.246094" xlink:href="#DejaVuSans-30"/>
       <use x="190.869141" xlink:href="#DejaVuSans-30"/>
      </g>
     </g>
    </g>
    <g id="ytick_4">
     <g id="line2d_21">
      <path clip-path="url(#p60681b7205)" d="M 57.6 148.095578 
L 414.72 148.095578 
" style="fill:none;stroke:#b0b0b0;stroke-linecap:square;stroke-width:0.8;"/>
     </g>
     <g id="line2d_22">
      <g>
       <use style="stroke:#000000;stroke-width:0.8;" x="57.6" xlink:href="#md433207ffb" y="148.095578"/>
      </g>
     </g>
     <g id="text_12">
      <!-- 6000 -->
      <defs>
       <path d="M 33.015625 40.375 
Q 26.375 40.375 22.484375 35.828125 
Q 18.609375 31.296875 18.609375 23.390625 
Q 18.609375 15.53125 22.484375 10.953125 
Q 26.375 6.390625 33.015625 6.390625 
Q 39.65625 6.390625 43.53125 10.953125 
Q 47.40625 15.53125 47.40625 23.390625 
Q 47.40625 31.296875 43.53125 35.828125 
Q 39.65625 40.375 33.015625 40.375 
z
M 52.59375 71.296875 
L 52.59375 62.3125 
Q 48.875 64.0625 45.09375 64.984375 
Q 41.3125 65.921875 37.59375 65.921875 
Q 27.828125 65.921875 22.671875 59.328125 
Q 17.53125 52.734375 16.796875 39.40625 
Q 19.671875 43.65625 24.015625 45.921875 
Q 28.375 48.1875 33.59375 48.1875 
Q 44.578125 48.1875 50.953125 41.515625 
Q 57.328125 34.859375 57.328125 23.390625 
Q 57.328125 12.15625 50.6875 5.359375 
Q 44.046875 -1.421875 33.015625 -1.421875 
Q 20.359375 -1.421875 13.671875 8.265625 
Q 6.984375 17.96875 6.984375 36.375 
Q 6.984375 53.65625 15.1875 63.9375 
Q 23.390625 74.21875 37.203125 74.21875 
Q 40.921875 74.21875 44.703125 73.484375 
Q 48.484375 72.75 52.59375 71.296875 
z
" id="DejaVuSans-36"/>
      </defs>
      <g transform="translate(25.15 151.894797)scale(0.1 -0.1)">
       <use xlink:href="#DejaVuSans-36"/>
       <use x="63.623047" xlink:href="#DejaVuSans-30"/>
       <use x="127.246094" xlink:href="#DejaVuSans-30"/>
       <use x="190.869141" xlink:href="#DejaVuSans-30"/>
      </g>
     </g>
    </g>
    <g id="ytick_5">
     <g id="line2d_23">
      <path clip-path="url(#p60681b7205)" d="M 57.6 108.861498 
L 414.72 108.861498 
" style="fill:none;stroke:#b0b0b0;stroke-linecap:square;stroke-width:0.8;"/>
     </g>
     <g id="line2d_24">
      <g>
       <use style="stroke:#000000;stroke-width:0.8;" x="57.6" xlink:href="#md433207ffb" y="108.861498"/>
      </g>
     </g>
     <g id="text_13">
      <!-- 8000 -->
      <defs>
       <path d="M 31.78125 34.625 
Q 24.75 34.625 20.71875 30.859375 
Q 16.703125 27.09375 16.703125 20.515625 
Q 16.703125 13.921875 20.71875 10.15625 
Q 24.75 6.390625 31.78125 6.390625 
Q 38.8125 6.390625 42.859375 10.171875 
Q 46.921875 13.96875 46.921875 20.515625 
Q 46.921875 27.09375 42.890625 30.859375 
Q 38.875 34.625 31.78125 34.625 
z
M 21.921875 38.8125 
Q 15.578125 40.375 12.03125 44.71875 
Q 8.5 49.078125 8.5 55.328125 
Q 8.5 64.0625 14.71875 69.140625 
Q 20.953125 74.21875 31.78125 74.21875 
Q 42.671875 74.21875 48.875 69.140625 
Q 55.078125 64.0625 55.078125 55.328125 
Q 55.078125 49.078125 51.53125 44.71875 
Q 48 40.375 41.703125 38.8125 
Q 48.828125 37.15625 52.796875 32.3125 
Q 56.78125 27.484375 56.78125 20.515625 
Q 56.78125 9.90625 50.3125 4.234375 
Q 43.84375 -1.421875 31.78125 -1.421875 
Q 19.734375 -1.421875 13.25 4.234375 
Q 6.78125 9.90625 6.78125 20.515625 
Q 6.78125 27.484375 10.78125 32.3125 
Q 14.796875 37.15625 21.921875 38.8125 
z
M 18.3125 54.390625 
Q 18.3125 48.734375 21.84375 45.5625 
Q 25.390625 42.390625 31.78125 42.390625 
Q 38.140625 42.390625 41.71875 45.5625 
Q 45.3125 48.734375 45.3125 54.390625 
Q 45.3125 60.0625 41.71875 63.234375 
Q 38.140625 66.40625 31.78125 66.40625 
Q 25.390625 66.40625 21.84375 63.234375 
Q 18.3125 60.0625 18.3125 54.390625 
z
" id="DejaVuSans-38"/>
      </defs>
      <g transform="translate(25.15 112.660717)scale(0.1 -0.1)">
       <use xlink:href="#DejaVuSans-38"/>
       <use x="63.623047" xlink:href="#DejaVuSans-30"/>
       <use x="127.246094" xlink:href="#DejaVuSans-30"/>
       <use x="190.869141" xlink:href="#DejaVuSans-30"/>
      </g>
     </g>
    </g>
    <g id="ytick_6">
     <g id="line2d_25">
      <path clip-path="url(#p60681b7205)" d="M 57.6 69.627418 
L 414.72 69.627418 
" style="fill:none;stroke:#b0b0b0;stroke-linecap:square;stroke-width:0.8;"/>
     </g>
     <g id="line2d_26">
      <g>
       <use style="stroke:#000000;stroke-width:0.8;" x="57.6" xlink:href="#md433207ffb" y="69.627418"/>
      </g>
     </g>
     <g id="text_14">
      <!-- 10000 -->
      <g transform="translate(18.7875 73.426637)scale(0.1 -0.1)">
       <use xlink:href="#DejaVuSans-31"/>
       <use x="63.623047" xlink:href="#DejaVuSans-30"/>
       <use x="127.246094" xlink:href="#DejaVuSans-30"/>
       <use x="190.869141" xlink:href="#DejaVuSans-30"/>
       <use x="254.492188" xlink:href="#DejaVuSans-30"/>
      </g>
     </g>
    </g>
    <g id="text_15">
     <!-- EUR -->
     <defs>
      <path d="M 9.8125 72.90625 
L 55.90625 72.90625 
L 55.90625 64.59375 
L 19.671875 64.59375 
L 19.671875 43.015625 
L 54.390625 43.015625 
L 54.390625 34.71875 
L 19.671875 34.71875 
L 19.671875 8.296875 
L 56.78125 8.296875 
L 56.78125 0 
L 9.8125 0 
z
" id="DejaVuSans-45"/>
      <path d="M 8.6875 72.90625 
L 18.609375 72.90625 
L 18.609375 28.609375 
Q 18.609375 16.890625 22.84375 11.734375 
Q 27.09375 6.59375 36.625 6.59375 
Q 46.09375 6.59375 50.34375 11.734375 
Q 54.59375 16.890625 54.59375 28.609375 
L 54.59375 72.90625 
L 64.5 72.90625 
L 64.5 27.390625 
Q 64.5 13.140625 57.4375 5.859375 
Q 50.390625 -1.421875 36.625 -1.421875 
Q 22.796875 -1.421875 15.734375 5.859375 
Q 8.6875 13.140625 8.6875 27.390625 
z
" id="DejaVuSans-55"/>
      <path d="M 44.390625 34.1875 
Q 47.5625 33.109375 50.5625 29.59375 
Q 53.5625 26.078125 56.59375 19.921875 
L 66.609375 0 
L 56 0 
L 46.6875 18.703125 
Q 43.0625 26.03125 39.671875 28.421875 
Q 36.28125 30.8125 30.421875 30.8125 
L 19.671875 30.8125 
L 19.671875 0 
L 9.8125 0 
L 9.8125 72.90625 
L 32.078125 72.90625 
Q 44.578125 72.90625 50.734375 67.671875 
Q 56.890625 62.453125 56.890625 51.90625 
Q 56.890625 45.015625 53.6875 40.46875 
Q 50.484375 35.9375 44.390625 34.1875 
z
M 19.671875 64.796875 
L 19.671875 38.921875 
L 32.078125 38.921875 
Q 39.203125 38.921875 42.84375 42.21875 
Q 46.484375 45.515625 46.484375 51.90625 
Q 46.484375 58.296875 42.84375 61.546875 
Q 39.203125 64.796875 32.078125 64.796875 
z
" id="DejaVuSans-52"/>
     </defs>
     <g transform="translate(12.707813 169.268969)rotate(-90)scale(0.1 -0.1)">
      <use xlink:href="#DejaVuSans-45"/>
      <use x="63.183594" xlink:href="#DejaVuSans-55"/>
      <use x="136.376953" xlink:href="#DejaVuSans-52"/>
     </g>
    </g>
   </g>
   <g id="line2d_27">
    <path clip-path="url(#p60681b7205)" d="M 73.832727 265.797818 
L 104.881583 265.710035 
L 104.881583 265.691507 
L 110.204244 265.544061 
L 110.204244 265.424775 
L 110.204244 265.424775 
L 111.978464 265.356521 
L 111.978464 265.315649 
L 111.978464 265.154176 
L 116.414015 264.999003 
L 116.414015 264.817042 
L 119.075345 264.696013 
L 119.075345 264.678658 
L 119.075345 264.678658 
L 123.510896 264.56697 
L 123.510896 264.546318 
L 128.833557 264.43601 
L 128.833557 264.150382 
L 130.607778 264.044649 
L 130.607778 264.00147 
L 132.381998 263.891511 
L 132.381998 263.846919 
L 135.930439 263.733554 
L 135.930439 263.685046 
L 136.817549 263.57051 
L 136.817549 263.52283 
L 136.817549 263.52283 
L 141.2531 263.390827 
L 141.2531 263.390827 
L 141.2531 263.284425 
L 144.80154 263.180715 
L 144.80154 263.15336 
L 151.011311 263.024969 
L 151.011311 263.006124 
L 155.446862 262.894191 
L 155.446862 262.758201 
L 156.333972 262.649008 
L 156.333972 262.630579 
L 159.882413 262.509564 
L 159.882413 262.446197 
L 162.543743 262.326408 
L 162.543743 262.281712 
L 166.092184 262.209103 
L 166.092184 262.172678 
L 166.092184 261.956156 
L 168.753515 261.832677 
L 168.753515 261.635139 
L 173.189065 261.521395 
L 173.189065 261.511816 
L 178.511726 261.37412 
L 178.511726 261.34234 
L 182.060167 261.190164 
L 182.060167 261.190164 
L 182.060167 261.111508 
L 182.060167 261.111508 
L 184.721497 260.991342 
L 184.721497 260.926917 
L 186.495718 260.805149 
L 186.495718 260.803045 
L 190.931269 260.671646 
L 190.931269 260.526939 
L 192.705489 260.415939 
L 192.705489 260.376012 
L 197.14104 260.220053 
L 197.14104 260.1109 
L 200.68948 259.959966 
L 200.68948 259.958021 
L 209.560582 259.842162 
L 209.560582 259.710601 
L 210.447692 259.596098 
L 213.109023 259.465019 
L 213.109023 259.431972 
L 215.770353 259.308596 
L 215.770353 259.257565 
L 217.544573 259.15912 
L 217.544573 259.058811 
L 218.431684 258.949536 
L 218.431684 258.915225 
L 218.431684 258.915225 
L 221.980124 258.797711 
L 221.980124 258.766741 
L 221.980124 258.766741 
L 222.867234 258.652504 
L 222.867234 258.556445 
L 225.528565 258.447527 
L 225.528565 258.438437 
L 231.738336 258.307011 
L 231.738336 258.294152 
L 234.399666 258.180463 
L 234.399666 258.108928 
L 234.399666 258.108928 
L 235.286777 257.996994 
L 235.286777 257.970725 
L 236.173887 257.855167 
L 236.173887 257.363211 
L 237.060997 257.243135 
L 237.060997 256.770877 
L 237.948107 256.770877 
L 237.948107 256.665821 
L 237.948107 256.566613 
L 240.609438 256.444431 
L 240.609438 255.722579 
L 241.496548 255.611181 
L 241.496548 255.574483 
L 242.383658 255.574483 
L 242.383658 255.521118 
L 242.383658 255.2384 
L 244.157878 255.123386 
L 244.157878 254.919987 
L 244.157878 254.919987 
L 246.819209 254.805856 
L 246.819209 254.584024 
L 247.706319 254.474882 
L 247.706319 254.345745 
L 248.593429 254.238737 
L 248.593429 253.998998 
L 249.480539 253.890448 
L 249.480539 253.461113 
L 250.367649 253.404428 
L 250.367649 253.197446 
L 253.02898 252.966845 
L 253.02898 252.901673 
L 253.91609 252.790592 
L 253.91609 252.596446 
L 256.57742 252.477711 
L 256.57742 252.477711 
L 256.57742 252.410885 
L 259.238751 252.300109 
L 261.012971 252.216861 
L 261.012971 252.124437 
L 261.900081 252.012306 
L 261.900081 251.805747 
L 262.787192 251.693944 
L 262.787192 251.668519 
L 265.448522 251.564003 
L 265.448522 251.564003 
L 265.448522 250.395901 
L 266.335632 250.283978 
L 266.335632 249.834535 
L 267.222742 249.727604 
L 267.222742 249.606395 
L 268.109853 249.606395 
L 268.109853 249.495732 
L 268.109853 249.355213 
L 268.996963 249.245957 
L 268.996963 249.197887 
L 271.658293 249.082693 
L 271.658293 249.082693 
L 271.658293 248.883106 
L 272.545403 248.777446 
L 272.545403 248.684818 
L 273.432514 248.572768 
L 273.432514 248.5581 
L 273.432514 248.5581 
L 274.319624 248.5581 
L 274.319624 248.468922 
L 274.319624 248.340576 
L 275.206734 248.232705 
L 275.206734 247.970307 
L 277.868064 247.8458 
L 277.868064 247.166164 
L 278.755175 247.166164 
L 278.755175 247.057473 
L 278.755175 246.985323 
L 279.642285 246.874358 
L 279.642285 246.842269 
L 281.416505 246.734292 
L 281.416505 246.602184 
L 284.077835 246.509814 
L 284.077835 246.402539 
L 285.852056 246.31313 
L 285.852056 246.296224 
L 285.852056 246.197014 
L 285.852056 246.197014 
L 288.513386 246.099046 
L 288.513386 246.018195 
L 290.287607 245.904956 
L 290.287607 245.760297 
L 290.287607 245.760297 
L 291.174717 245.650133 
L 291.174717 245.340865 
L 292.061827 245.239365 
L 292.061827 244.757163 
L 292.948937 244.645727 
L 292.948937 244.345525 
L 293.836047 244.234737 
L 293.836047 243.813582 
L 296.497378 243.697985 
L 296.497378 243.402155 
L 297.384488 243.294715 
L 297.384488 243.173013 
L 298.271598 243.06149 
L 298.271598 243.05629 
L 300.045818 242.945527 
L 300.045818 242.691482 
L 302.707149 242.577554 
L 302.707149 242.071247 
L 303.594259 241.960794 
L 303.594259 241.819394 
L 304.481369 241.819394 
L 304.481369 241.708341 
L 304.481369 241.380546 
L 305.368479 241.270817 
L 305.368479 241.236853 
L 306.255589 241.131689 
L 306.255589 241.049382 
L 308.91692 240.937468 
L 308.91692 240.937468 
L 308.91692 240.877164 
L 309.80403 240.808879 
L 309.80403 240.609971 
L 311.57825 240.502983 
L 311.57825 240.341403 
L 314.239581 240.234411 
L 314.239581 240.230816 
L 314.239581 240.223061 
L 316.013801 240.138623 
L 316.013801 239.859153 
L 317.788022 239.746992 
L 317.788022 239.449511 
L 318.675132 239.317326 
L 318.675132 238.841692 
L 321.336462 238.725173 
L 321.336462 238.725173 
L 321.336462 238.206111 
L 322.223572 238.075673 
L 322.223572 237.951072 
L 323.997793 237.858081 
L 323.997793 237.841237 
L 323.997793 237.660113 
L 327.546233 237.547704 
L 327.546233 237.226579 
L 328.433344 237.116187 
L 328.433344 236.981134 
L 329.320454 236.865598 
L 329.320454 236.4994 
L 330.207564 236.388689 
L 330.207564 236.224862 
L 331.094674 236.114635 
L 331.094674 235.78613 
L 333.756004 235.699093 
L 333.756004 235.386194 
L 334.643115 235.277356 
L 335.530225 235.187491 
L 335.530225 235.0701 
L 336.417335 235.0701 
L 336.417335 234.959213 
L 336.417335 234.933983 
L 337.304445 234.822802 
L 337.304445 234.815732 
L 340.852886 234.701924 
L 340.852886 234.588982 
L 340.852886 234.588982 
L 342.627106 234.496297 
L 342.627106 234.459836 
L 343.514216 234.350491 
L 343.514216 234.321296 
L 346.175547 234.216007 
L 346.175547 233.455159 
L 346.175547 233.455159 
L 347.062657 233.361305 
L 347.062657 232.967895 
L 347.949767 232.870249 
L 347.949767 232.662635 
L 347.949767 232.662635 
L 348.836877 232.551687 
L 348.836877 232.43866 
L 348.836877 232.43866 
L 349.723987 232.327448 
L 349.723987 232.290244 
L 352.385318 232.175012 
L 352.385318 231.982714 
L 352.385318 231.982714 
L 354.159538 231.874904 
L 354.159538 231.680322 
L 355.933759 231.569328 
L 355.933759 231.452062 
L 358.595089 231.332948 
L 358.595089 231.332948 
L 358.595089 230.546765 
L 360.369309 230.439739 
L 360.369309 230.381918 
L 361.256419 230.271976 
L 361.256419 230.229997 
L 363.91775 230.116823 
L 363.91775 230.114893 
L 365.69197 230.007223 
L 365.69197 229.923314 
L 367.466191 229.817322 
L 367.466191 229.813067 
L 367.466191 229.774592 
L 371.014631 229.663338 
L 371.014631 229.231806 
L 371.901741 229.118068 
L 371.901741 228.880925 
L 372.788852 228.747748 
L 372.788852 228.475762 
L 373.675962 228.364241 
L 373.675962 228.298363 
L 376.337292 228.191327 
L 377.224402 228.075517 
L 377.224402 227.778088 
L 378.111513 227.667196 
L 378.111513 227.489441 
L 378.998623 227.381261 
L 378.998623 227.374915 
L 378.998623 227.374915 
L 379.885733 227.263066 
L 379.885733 227.25307 
L 380.772843 227.156374 
L 380.772843 226.996003 
L 383.434174 226.884405 
L 383.434174 226.462233 
L 384.321284 226.350274 
L 384.321284 226.326426 
L 385.208394 226.217889 
L 385.208394 225.99988 
L 385.208394 225.99988 
L 386.095504 225.889428 
L 386.095504 225.881814 
L 386.982614 225.881814 
L 386.982614 225.773761 
L 386.982614 225.745414 
L 389.643945 225.615304 
L 389.643945 225.589034 
L 389.643945 225.589034 
L 393.192385 225.489621 
L 393.192385 225.415169 
L 395.853716 225.408261 
L 395.853716 225.304112 
L 395.853716 225.295619 
L 397.627936 225.225472 
L 397.627936 225.225472 
" style="fill:none;stroke:#0000ff;stroke-linecap:square;stroke-width:1.5;"/>
   </g>
   <g id="line2d_28">
    <path clip-path="url(#p60681b7205)" d="M 73.832727 265.797818 
L 76.382502 265.71935 
L 76.525148 255.91083 
L 76.735097 256.048149 
L 77.237054 259.598834 
L 77.456336 260.599303 
L 77.643235 260.913175 
L 77.726802 261.14858 
L 77.867651 262.227517 
L 77.926176 262.482538 
L 78.039252 263.07105 
L 78.130735 263.424156 
L 78.544422 264.306923 
L 78.648883 264.385391 
L 78.718486 264.8562 
L 78.89787 265.032754 
L 78.980482 265.209307 
L 79.073166 265.405477 
L 79.541599 265.503323 
L 79.542216 226.269243 
L 79.65255 228.054394 
L 79.750676 230.938099 
L 79.885673 249.69153 
L 80.054932 255.925881 
L 80.216625 256.118575 
L 80.312061 258.072097 
L 80.327708 258.066879 
L 80.3796 258.145347 
L 80.494719 261.068286 
L 80.512698 261.087903 
L 80.612179 262.284542 
L 80.648567 262.559181 
L 80.818155 263.598577 
L 80.836298 263.618194 
L 80.943706 264.186575 
L 81.384858 264.500448 
L 81.414562 265.010491 
L 81.539507 265.049725 
L 81.599171 265.206661 
L 81.715789 265.599002 
L 82.302186 265.696857 
L 82.392539 265.736091 
L 83.008732 265.769112 
L 83.11999 265.57164 
L 83.171092 265.689076 
L 83.266569 265.747926 
L 85.995049 265.78716 
L 86.662763 265.588386 
L 86.667117 265.686471 
L 86.673133 265.745322 
L 87.555716 265.784556 
L 88.711269 265.586315 
L 88.714082 265.605932 
L 88.722604 265.782485 
L 91.933799 265.762753 
L 91.933799 265.57533 
L 91.935945 265.771501 
L 92.130853 265.759551 
L 104.296213 265.784051 
L 104.296213 265.74909 
L 104.296213 265.722068 
L 104.308144 265.780919 
L 104.360036 265.770098 
L 104.448511 265.789715 
L 105.265289 265.78602 
L 105.644713 265.582537 
L 106.046274 265.563505 
L 106.046274 265.460537 
L 106.075136 265.558623 
L 108.181222 265.796823 
L 110.757548 265.685939 
L 110.782344 265.518097 
L 110.774602 265.71904 
L 110.845366 265.635799 
L 112.267709 265.491279 
L 112.39711 265.484668 
L 112.403168 265.563136 
L 112.502003 265.697937 
L 112.502003 265.692545 
L 115.199988 265.772892 
L 116.086811 265.790841 
L 116.086811 265.785934 
L 116.709205 265.673307 
L 116.724267 265.605136 
L 116.813328 265.661959 
L 116.891946 265.739406 
L 116.955347 265.663032 
L 117.013317 265.742264 
L 118.65289 265.790632 
L 118.705757 257.435342 
L 118.783513 262.604134 
L 118.836093 264.289119 
L 119.501497 264.369323 
L 119.511724 263.878493 
L 119.528388 264.349302 
L 119.616842 264.368919 
L 119.675736 265.114367 
L 119.71847 265.101364 
L 119.737115 265.120981 
L 120.269638 265.11156 
L 120.306652 264.910377 
L 120.318018 265.126165 
L 120.343615 265.125092 
L 120.52844 265.159599 
L 120.643087 265.608241 
L 120.643087 265.606894 
L 121.305401 265.619283 
L 121.422276 265.756603 
L 123.358958 265.642704 
L 123.358958 265.639774 
L 123.362541 265.698625 
L 129.148759 265.590599 
L 129.224276 265.526446 
L 129.253025 265.663765 
L 129.371974 265.707 
L 129.517022 265.722004 
L 129.517022 265.718259 
L 129.517022 265.519519 
L 129.614112 265.735307 
L 130.869239 265.735339 
L 130.869239 265.703474 
L 130.869239 265.696574 
L 130.933072 265.735808 
L 130.967417 265.730646 
L 135.879276 265.755026 
L 135.897911 265.562475 
L 135.921342 265.699794 
L 136.25179 265.66408 
L 136.282931 265.575155 
L 136.352925 265.698778 
L 136.572936 265.700396 
L 136.572936 265.691116 
L 136.595658 265.710733 
L 137.134321 265.749438 
L 137.134321 265.659427 
L 137.166304 265.57089 
L 137.219233 265.727827 
L 151.797769 265.5912 
L 151.797769 265.266838 
L 151.811784 265.796498 
L 154.897757 265.747256 
L 154.979404 265.642915 
L 155.016573 265.75572 
L 155.168511 265.64226 
L 155.199334 265.029396 
L 155.199467 264.410247 
L 155.240147 265.366957 
L 155.444501 265.353692 
L 155.502296 265.570754 
L 155.723807 265.46204 
L 155.796778 265.416787 
L 156.083723 265.451564 
L 156.083723 265.44675 
L 156.895768 265.314957 
L 156.895768 265.311692 
L 156.98952 265.781469 
L 157.008525 265.772326 
L 157.011359 265.791943 
L 157.119393 265.420424 
L 157.132115 265.616594 
L 157.935535 265.578732 
L 157.992786 265.774903 
L 166.770793 265.651391 
L 166.770793 265.584329 
L 166.83325 265.68008 
L 166.878283 265.673938 
L 168.542805 265.763698 
L 168.689148 265.783078 
L 169.040747 265.674197 
L 169.066057 265.55702 
L 169.121819 265.68225 
L 169.252627 265.743454 
L 169.252627 265.737909 
L 171.009649 265.79683 
L 182.348693 265.691166 
L 182.348693 265.646253 
L 182.44952 265.756774 
L 189.540138 265.769658 
L 189.543475 265.789275 
L 191.234519 265.677382 
L 191.25838 265.596393 
L 191.336023 265.662181 
L 191.715766 265.723373 
L 194.370484 265.766777 
L 197.428611 265.65484 
L 197.428611 265.610243 
L 197.534951 265.737657 
L 203.815743 265.779838 
L 203.868538 263.82343 
L 203.918643 264.601003 
L 205.096693 264.619198 
L 205.46664 264.6172 
L 205.650449 265.794223 
L 205.763237 264.60823 
L 206.392274 264.608423 
L 206.559572 264.843827 
L 206.573629 265.785445 
L 209.86185 265.678855 
L 209.914502 265.656744 
L 209.942255 265.715595 
L 209.952759 265.709211 
L 214.459206 265.777523 
L 216.100668 265.712208 
L 216.100668 265.700903 
L 216.121675 265.679987 
L 216.16445 265.72684 
L 216.191135 265.715564 
L 218.155755 265.641623 
L 218.192944 265.442965 
L 218.214075 265.662676 
L 218.265073 265.661951 
L 218.732839 265.551431 
L 218.765828 265.479053 
L 218.841746 265.539536 
L 218.911555 265.741976 
L 218.979402 265.635809 
L 219.04188 265.694191 
L 220.880847 265.787583 
L 223.160823 265.676208 
L 223.160823 265.586998 
L 223.261126 265.641301 
L 223.463179 265.693045 
L 223.463179 265.688223 
L 231.49051 265.666347 
L 231.49051 265.715548 
L 231.493847 265.173204 
L 231.496023 265.711515 
L 231.640507 265.702774 
L 231.646586 265.419108 
L 231.649645 265.713363 
L 232.490059 265.644263 
L 232.512073 264.523272 
L 232.515697 265.653905 
L 232.526714 265.653138 
L 233.220867 265.714723 
L 233.221083 262.24259 
L 233.329662 265.781749 
L 233.332732 264.035295 
L 233.336325 265.789803 
L 233.420221 265.237519 
L 233.467564 265.794054 
L 233.469433 264.701412 
L 233.469484 263.630035 
L 233.523337 265.797135 
L 233.56336 265.793859 
L 234.681314 265.697215 
L 234.681314 265.606361 
L 234.759254 265.797124 
L 234.785118 265.796718 
L 234.805263 216.754118 
L 234.908964 234.566046 
L 235.011701 248.947276 
L 235.020993 249.201518 
L 235.123442 264.617538 
L 235.843705 264.697739 
L 235.843808 265.785545 
L 235.92797 265.781768 
L 236.453275 265.695643 
L 236.490772 216.752744 
L 236.46153 265.795344 
L 236.555098 223.349303 
L 236.564431 223.628218 
L 236.667393 232.751099 
L 236.676716 232.971759 
L 236.77976 248.023538 
L 236.789094 249.311397 
L 236.817165 252.305946 
L 236.887323 242.145535 
L 236.891974 242.780189 
L 236.901276 242.987422 
L 237.004187 256.557938 
L 237.01353 256.842092 
L 237.1164 265.78233 
L 237.335878 265.67535 
L 237.335878 265.395994 
L 237.443686 265.797742 
L 237.588838 265.685792 
L 237.594413 261.858732 
L 237.692899 265.797605 
L 238.455793 265.689055 
L 238.455793 265.669104 
L 238.460536 265.793869 
L 238.566579 265.761015 
L 239.213553 265.784974 
L 239.213553 265.775118 
L 239.213553 265.771246 
L 239.218595 265.79204 
L 240.897584 265.684793 
L 240.897584 265.404775 
L 240.987609 265.795212 
L 241.006327 265.784802 
L 244.613641 265.762893 
L 244.721984 265.772008 
L 244.721984 265.663563 
L 244.722056 265.794018 
L 244.806218 265.781961 
L 247.112273 265.671723 
L 247.112273 265.65409 
L 247.117664 265.772274 
L 247.206642 265.755651 
L 247.407751 265.726732 
L 247.492078 265.765706 
L 247.516011 265.523571 
L 247.605472 265.777957 
L 247.605472 265.777424 
L 247.978838 265.648801 
L 247.978838 265.583014 
L 248.053349 265.792752 
L 248.087653 265.758884 
L 248.197053 265.770223 
L 248.708209 265.78568 
L 248.864254 265.673543 
L 248.864254 265.575865 
L 248.932636 265.793954 
L 248.960707 265.762562 
L 249.191818 265.794258 
L 249.191818 265.780796 
L 249.228103 265.766616 
L 249.293414 265.793142 
L 249.759784 265.680545 
L 249.759784 265.395645 
L 249.765369 265.790778 
L 249.868311 265.748592 
L 250.339835 265.761738 
L 250.637335 265.318528 
L 250.645036 265.515501 
L 250.654461 265.752379 
L 250.745698 265.7267 
L 250.821338 265.766701 
L 250.821338 264.558655 
L 250.832314 265.776837 
L 250.930964 265.76858 
L 251.028731 265.710981 
L 251.078374 265.76739 
L 251.152249 265.774699 
L 253.378074 265.668577 
L 253.378074 265.65818 
L 253.452205 265.769114 
L 253.488213 265.733462 
L 253.601782 265.777961 
L 253.673244 265.76381 
L 255.464518 265.679759 
L 255.464518 265.460833 
L 255.48263 265.784716 
L 255.485248 265.783682 
L 260.386244 265.79226 
L 260.386244 265.712188 
L 260.386244 265.66603 
L 260.423834 265.784154 
L 260.480469 265.782646 
L 261.439349 265.78365 
L 261.439349 265.488423 
L 261.510266 265.788837 
L 262.175137 265.668916 
L 262.175137 265.515591 
L 262.244319 265.786139 
L 262.262133 265.782973 
L 265.730477 265.663129 
L 265.730477 264.975691 
L 265.792688 265.789843 
L 265.830103 265.788366 
L 266.136433 265.676727 
L 266.136433 265.636869 
L 266.161178 265.797109 
L 266.226643 265.794656 
L 266.604538 265.693875 
L 266.604538 265.540131 
L 266.694491 265.79776 
L 266.708085 265.779307 
L 267.189712 265.787376 
L 267.492459 265.585641 
L 267.605956 265.792839 
L 267.706772 265.768308 
L 267.724586 265.576553 
L 267.746291 265.797345 
L 267.781016 265.780872 
L 267.980051 265.787234 
L 268.774456 265.680422 
L 268.774456 265.552139 
L 268.874934 265.795468 
L 269.807272 265.735698 
L 269.807282 265.229814 
L 269.812416 265.783539 
L 272.818303 265.784475 
L 272.818303 265.715927 
L 272.818303 265.665581 
L 272.854496 265.7896 
L 272.929397 265.788758 
L 273.91258 265.787988 
L 273.91258 265.707408 
L 273.91258 265.615062 
L 273.9218 265.792356 
L 275.491985 265.796306 
L 275.491985 265.687205 
L 275.491985 265.46368 
L 275.501595 265.797669 
L 275.593253 265.780883 
L 275.824857 265.771053 
L 275.829292 265.79075 
L 275.988376 265.792851 
L 275.988376 265.796632 
L 276.503003 265.797053 
L 276.506176 265.612508 
L 276.605986 265.786191 
L 278.149013 265.628291 
L 278.149024 265.235922 
L 278.160431 265.795559 
L 278.254481 265.672801 
L 278.365472 265.783698 
L 278.365472 265.780826 
L 281.705001 265.665049 
L 281.705001 265.632845 
L 281.751266 265.796946 
L 281.779542 265.790591 
L 285.376682 265.780225 
L 285.430032 265.609487 
L 285.487293 265.783752 
L 286.265691 265.789338 
L 286.372894 265.781687 
L 286.372894 265.693064 
L 286.372894 265.648385 
L 286.377997 265.787549 
L 286.446728 265.780857 
L 290.563976 265.667115 
L 290.563976 265.642884 
L 290.637758 265.79712 
L 290.666733 265.780113 
L 291.467124 265.661308 
L 291.467124 265.472254 
L 291.48115 265.792692 
L 291.548361 265.790517 
L 292.338515 265.67774 
L 292.338515 265.305165 
L 292.343443 265.782466 
L 292.43621 265.719873 
L 292.586485 265.748931 
L 292.586485 265.746766 
L 292.65848 265.508113 
L 292.65848 265.488845 
L 292.737715 265.578711 
L 292.916502 265.674352 
L 292.932252 265.693969 
L 293.220522 265.600775 
L 293.220522 265.442461 
L 293.308484 265.711057 
L 293.32755 265.701861 
L 294.108187 265.599274 
L 294.154914 265.400969 
L 294.158313 265.714841 
L 294.212073 265.620382 
L 294.339965 265.5598 
L 294.395923 265.392381 
L 294.445535 265.455636 
L 294.544637 265.486176 
L 294.654396 265.599876 
L 294.654396 265.596475 
L 295.504502 265.751634 
L 295.504502 265.749698 
L 296.772556 265.639308 
L 296.861391 265.583683 
L 296.882275 265.642534 
L 297.848188 265.509331 
L 297.848783 265.548565 
L 298.033105 265.695287 
L 298.656208 265.587722 
L 298.813988 265.612217 
L 298.884895 265.649278 
L 298.913541 265.59996 
L 299.098325 265.630986 
L 299.098325 265.630986 
L 299.692473 265.70771 
L 299.844083 265.747856 
L 300.331922 265.636174 
L 300.416823 265.52445 
L 300.428549 265.544067 
L 300.690801 265.699551 
L 300.727661 265.657503 
L 302.165991 265.738551 
L 302.190222 265.758168 
L 303.001702 265.648754 
L 303.0189 265.404063 
L 303.089263 265.698319 
L 303.212607 265.586114 
L 303.316359 265.512768 
L 303.459622 265.46064 
L 303.533876 265.262339 
L 303.868719 265.150988 
L 303.946793 265.052129 
L 303.969114 265.366002 
L 304.458072 265.337839 
L 304.770553 265.231469 
L 304.842405 264.927666 
L 304.878341 265.11613 
L 305.22262 265.162123 
L 305.34087 265.416297 
L 305.66637 265.384686 
L 305.869871 265.756716 
L 305.869871 265.693471 
L 305.869871 265.615708 
L 305.881104 265.753028 
L 305.980904 265.736641 
L 306.618596 265.608786 
L 306.618596 265.606407 
L 306.630609 265.743727 
L 306.682932 265.739284 
L 312.396363 265.68587 
L 312.396363 265.489972 
L 312.423777 265.71548 
L 316.457849 265.647576 
L 316.457849 263.909171 
L 316.552361 265.514507 
L 317.3308 265.521679 
L 317.444595 265.794351 
L 317.475634 265.711417 
L 317.550258 265.788227 
L 318.055664 265.678466 
L 318.055674 265.496652 
L 318.132557 265.791298 
L 318.165033 265.779921 
L 318.963453 265.66004 
L 318.963463 265.486979 
L 319.036311 265.789875 
L 319.063468 265.789064 
L 321.629188 265.669868 
L 321.629188 265.467058 
L 321.629681 265.783791 
L 321.7233 265.783176 
L 321.762706 265.76091 
L 321.762706 265.643405 
L 321.873092 265.790845 
L 322.772585 265.64733 
L 322.831356 265.609672 
L 322.853133 265.727374 
L 322.880486 265.722625 
L 322.905898 265.737754 
L 322.905898 265.731606 
L 323.532224 265.736555 
L 323.549073 264.786049 
L 323.642743 265.579125 
L 323.682006 265.759603 
L 328.183115 265.635857 
L 328.183115 265.606789 
L 328.223692 265.756084 
L 328.28926 265.755749 
L 328.296653 265.737451 
L 328.317413 265.757841 
L 328.802654 265.648545 
L 328.802654 265.609133 
L 328.804718 265.729664 
L 328.894292 265.683809 
L 329.598784 265.569223 
L 329.598784 265.424638 
L 329.600489 265.776412 
L 329.704817 265.763506 
L 329.83624 265.79585 
L 330.490351 265.685255 
L 330.490351 265.580154 
L 330.597379 265.788521 
L 331.38164 265.698624 
L 331.38164 265.411863 
L 331.382317 265.794695 
L 331.47494 265.781966 
L 331.687837 265.782885 
L 334.454758 265.677537 
L 334.454758 265.481739 
L 334.457458 265.783834 
L 334.510377 265.782912 
L 334.584508 265.709264 
L 334.584508 265.610874 
L 334.597917 265.797795 
L 334.621409 265.793211 
L 335.860139 265.767244 
L 335.860139 265.728492 
L 335.860139 265.670365 
L 335.873898 265.788404 
L 335.960063 265.785541 
L 335.98954 265.597352 
L 335.994068 265.793518 
L 336.067501 265.79778 
L 337.658416 265.686934 
L 337.7188 265.391511 
L 337.723204 265.791485 
L 337.755495 265.790426 
L 341.571835 265.73947 
L 341.571835 262.82064 
L 341.581322 265.777761 
L 341.609045 265.776728 
L 343.939434 265.694726 
L 343.939434 265.636345 
L 343.950748 265.793281 
L 344.013555 265.791132 
L 344.235024 265.696001 
L 344.235024 265.495685 
L 344.23642 265.791797 
L 346.483181 265.681287 
L 346.497607 265.264284 
L 346.605076 265.362369 
L 346.615672 265.578157 
L 346.784778 265.466907 
L 346.833856 264.526588 
L 346.874433 265.251346 
L 346.904035 265.219188 
L 347.008763 265.659993 
L 347.008763 265.657025 
L 347.346635 265.542296 
L 347.376 265.519108 
L 347.426105 265.656439 
L 347.45699 265.555143 
L 347.567755 265.751354 
L 347.602921 265.642138 
L 347.602921 265.616942 
L 347.62167 265.7554 
L 347.692125 265.744989 
L 347.822019 265.735652 
L 347.858345 265.755116 
L 347.858345 265.753315 
L 348.230901 265.64303 
L 348.264814 265.566356 
L 348.317949 265.756214 
L 348.339829 265.754573 
L 348.451457 265.738642 
L 348.454013 265.758259 
L 349.152109 265.646527 
L 349.179852 265.724995 
L 349.268645 265.671525 
L 349.374667 265.699463 
L 349.488534 265.591925 
L 349.488534 265.476079 
L 349.591722 265.737281 
L 350.924009 265.61792 
L 351.25684 265.690142 
L 352.992639 265.659285 
L 353.054562 265.079605 
L 353.101043 265.084689 
L 353.212723 265.727288 
L 353.254193 265.715853 
L 356.327198 265.617724 
L 356.327198 265.547932 
L 356.426084 265.777334 
L 356.435366 265.757331 
L 358.884581 265.64163 
L 358.98898 265.095111 
L 359.028459 265.01395 
L 359.165273 265.619228 
L 359.350426 265.507949 
L 359.38703 265.499375 
L 359.417001 265.518992 
L 359.42618 265.500806 
L 359.905127 265.502716 
L 359.942398 265.698529 
L 360.019322 265.660651 
L 360.165202 265.677579 
L 360.217792 265.775328 
L 360.217792 265.775324 
L 360.338507 265.775063 
L 361.016756 265.701362 
L 361.031243 265.494806 
L 361.078607 265.749827 
L 361.088218 265.737489 
L 361.198778 265.756651 
L 361.198778 265.751436 
L 364.678847 265.710839 
L 364.678847 265.613731 
L 364.689515 265.790284 
L 364.772168 265.773759 
L 364.797981 265.793376 
L 365.278478 265.689836 
L 365.33649 265.573981 
L 365.35338 265.770152 
L 368.00666 265.661682 
L 368.097723 265.621268 
L 368.874324 265.618195 
L 369.059426 265.791434 
L 371.290149 265.649507 
L 371.364865 265.555491 
L 371.399713 265.573656 
L 371.441543 265.573163 
L 371.44911 265.788951 
L 371.51744 265.783719 
L 371.873752 265.682375 
L 371.873752 265.629726 
L 371.913477 265.786662 
L 372.192506 265.682233 
L 372.256 265.514637 
L 372.27479 265.769659 
L 372.302882 265.721764 
L 372.394385 265.766156 
L 372.394385 265.76243 
L 373.074123 265.65119 
L 373.074133 265.458785 
L 373.15846 265.766689 
L 373.174652 265.757978 
L 373.367321 265.771214 
L 377.542797 265.651984 
L 377.640153 265.579625 
L 377.701368 265.605659 
L 377.805152 265.758032 
L 377.805152 265.741799 
L 381.2514 265.630588 
L 381.2514 265.622102 
L 381.29438 265.779038 
L 381.346107 265.740182 
L 384.200333 265.629788 
L 384.218968 265.357866 
L 384.681795 265.444663 
L 384.776041 265.79364 
L 384.810693 265.782141 
L 385.555753 265.580655 
L 385.642821 265.493264 
L 385.664927 265.748286 
L 387.333125 265.651781 
L 387.364913 265.544715 
L 387.369195 265.760503 
L 390.824202 265.700454 
L 390.852026 265.629522 
L 390.85985 265.727608 
L 390.890653 265.721394 
L 398.487273 265.794523 
L 398.487273 265.794523 
" style="fill:none;stroke:#ff0000;stroke-linecap:square;stroke-width:1.5;"/>
   </g>
   <g id="line2d_29">
    <path clip-path="url(#p60681b7205)" d="M 73.832727 265.797818 
L 76.494058 265.660499 
L 76.494058 261.325133 
L 77.381168 261.128963 
L 77.381168 257.951002 
L 78.268278 257.813683 
L 78.268278 256.401256 
L 79.155388 256.205086 
L 79.155388 246.141544 
L 79.155388 246.475034 
L 79.750676 246.278863 
L 79.770862 230.585231 
L 79.966971 230.389061 
L 80.042498 219.760493 
L 80.042498 220.056731 
L 80.216625 219.864037 
L 80.291721 218.695197 
L 80.929609 218.400941 
L 80.929609 217.184685 
L 81.816719 216.831578 
L 81.816719 216.811961 
L 81.816719 216.812218 
L 82.703829 216.714133 
L 82.703829 216.537579 
L 82.703829 216.833552 
L 86.25227 216.656999 
L 86.25227 216.637382 
L 86.25227 216.833552 
L 88.02649 216.774701 
L 88.02649 216.598148 
L 88.02649 216.794318 
L 91.57493 216.598148 
L 91.57493 216.617765 
L 91.57493 216.813935 
L 104.881583 216.702305 
L 104.881583 216.7057 
L 104.881583 216.903423 
L 105.768693 216.805338 
L 105.768693 216.569933 
L 105.768693 216.67024 
L 106.655803 216.552537 
L 106.655803 216.53292 
L 106.655803 216.66185 
L 107.542913 216.544147 
L 107.542913 216.52453 
L 107.542913 216.569854 
L 110.204244 216.435923 
L 110.204244 216.318221 
L 110.204244 216.594453 
L 111.091354 216.476751 
L 111.091354 216.437517 
L 111.091354 216.485563 
L 111.978464 216.367861 
L 111.978464 216.034372 
L 111.978464 216.264177 
L 112.865574 216.146474 
L 112.865574 216.087623 
L 112.865574 216.132771 
L 113.752685 216.015068 
L 113.752685 215.9366 
L 113.752685 216.097381 
L 116.414015 215.943561 
L 116.414015 215.727773 
L 116.414015 215.841582 
L 118.188235 215.71177 
L 118.188235 212.847682 
L 118.188235 212.85897 
L 118.770535 212.662799 
L 118.784088 208.798243 
L 119.075345 208.68054 
L 119.075345 207.503518 
L 119.075345 208.016456 
L 119.962456 207.918371 
L 119.962456 207.408328 
L 119.962456 207.613042 
L 121.736676 207.359917 
L 122.623786 207.242215 
L 122.623786 207.183364 
L 122.623786 207.368608 
L 124.398006 207.219601 
L 124.398006 207.315246 
L 124.398006 207.334863 
L 125.285117 207.21716 
L 125.285117 207.197543 
L 125.285117 207.244607 
L 125.285117 207.244607 
L 126.172227 207.126905 
L 126.172227 207.107287 
L 126.172227 207.144723 
L 128.833557 206.987975 
L 128.833557 206.654486 
L 128.833557 206.893472 
L 130.607778 206.750353 
L 130.607778 206.691502 
L 130.607778 206.697591 
L 132.381998 206.549076 
L 132.381998 206.529459 
L 132.381998 206.556746 
L 135.043328 206.420304 
L 135.043328 206.282985 
L 135.043328 206.524698 
L 135.930439 206.406996 
L 135.930439 206.308911 
L 135.930439 206.414004 
L 136.817549 206.296302 
L 136.817549 206.198217 
L 136.817549 206.277503 
L 138.591769 206.140683 
L 138.591769 206.081832 
L 138.591769 206.130483 
L 142.14021 205.956186 
L 142.14021 205.936569 
L 142.14021 205.941928 
L 151.011311 205.707019 
L 151.011311 205.177359 
L 151.011311 205.688022 
L 154.559752 205.631953 
L 154.559752 205.612336 
L 154.559752 205.337697 
L 154.559752 205.473953 
L 155.168511 205.587641 
L 155.199334 206.14361 
L 155.199467 206.839271 
L 155.199734 206.05459 
L 155.444501 206.049322 
L 155.446862 205.794564 
L 155.446862 205.824893 
L 156.333972 205.70719 
L 156.333972 205.118679 
L 156.333972 205.539149 
L 157.221082 205.499915 
L 157.221082 205.303744 
L 157.221082 205.322384 
L 159.882413 205.286521 
L 159.882413 205.22767 
L 159.882413 205.168819 
L 159.882413 205.201808 
L 161.656633 205.065384 
L 161.656633 205.045767 
L 161.656633 205.071052 
L 165.205074 204.943821 
L 165.205074 204.947515 
L 166.092184 204.751345 
L 166.092184 204.574791 
L 166.092184 204.730408 
L 168.753515 204.561958 
L 168.753515 204.365788 
L 168.753515 204.444707 
L 174.963286 204.208725 
L 174.963286 204.169491 
L 174.963286 204.213854 
L 182.060167 203.964864 
L 182.060167 203.886396 
L 182.060167 203.914388 
L 184.721497 203.760454 
L 184.721497 203.72122 
L 184.721497 203.758133 
L 186.495718 203.613401 
L 186.495718 203.593784 
L 186.495718 203.622017 
L 190.931269 203.42323 
L 190.931269 203.246677 
L 190.931269 203.351119 
L 191.818379 203.233417 
L 191.818379 203.2138 
L 191.818379 203.256501 
L 193.592599 203.142155 
L 193.592599 203.063687 
L 193.592599 203.1223 
L 197.14104 202.951338 
L 197.14104 202.892487 
L 197.14104 202.950149 
L 199.80237 202.818496 
L 199.80237 202.759644 
L 199.80237 202.808346 
L 203.350811 202.714859 
L 203.350811 201.91056 
L 203.350811 202.043453 
L 205.125031 201.995431 
L 205.125031 201.995804 
L 205.125031 203.172827 
L 206.012141 203.15321 
L 206.012141 201.976187 
L 206.012141 201.995145 
L 209.560582 201.819358 
L 209.560582 201.799741 
L 209.560582 201.856878 
L 212.221912 201.695834 
L 212.221912 201.578132 
L 212.221912 201.606593 
L 215.770353 201.449626 
L 215.770353 201.410392 
L 215.770353 201.47412 
L 217.544573 201.337811 
L 217.544573 201.298577 
L 217.544573 201.524128 
L 218.431684 201.288723 
L 218.431684 201.014085 
L 218.431684 201.231288 
L 219.318794 201.199348 
L 219.318794 201.160114 
L 219.318794 201.042411 
L 219.318794 201.183093 
L 220.205904 201.045888 
L 220.205904 201.026271 
L 220.205904 201.029724 
L 222.867234 200.873212 
L 222.867234 200.794744 
L 222.867234 200.840734 
L 224.641455 200.691434 
L 224.641455 200.6522 
L 224.641455 200.664944 
L 230.851226 200.479715 
L 230.851226 200.185459 
L 230.934156 200.328013 
L 231.489935 200.383558 
L 231.49051 200.320206 
L 231.493231 200.850687 
L 231.496023 200.381433 
L 231.738336 200.666385 
L 231.738336 200.666385 
L 232.323685 200.709224 
L 232.510717 200.896734 
L 232.512073 201.830215 
L 232.515697 200.766208 
L 233.220867 200.705793 
L 233.221083 204.177927 
L 233.329662 201.164141 
L 233.332732 202.910596 
L 233.420221 201.776042 
L 233.467564 201.246382 
L 233.469433 202.286278 
L 233.469484 203.410401 
L 233.523337 201.328999 
L 233.56336 201.339133 
L 234.399666 200.907559 
L 234.399666 199.397046 
L 234.399666 199.42428 
L 234.684579 199.308829 
L 234.759254 199.230987 
L 234.806146 199.133476 
L 234.909005 180.969377 
L 234.918318 180.754264 
L 235.030377 168.20914 
L 235.039731 167.974357 
L 235.123442 154.092002 
L 235.286777 154.112343 
L 235.843705 154.000973 
L 235.92797 152.858853 
L 235.993487 152.836838 
L 236.173887 151.659815 
L 236.246262 151.726435 
L 236.461489 151.608962 
L 236.573805 143.839177 
L 236.583128 143.564539 
L 236.695454 133.765772 
L 236.704818 133.492105 
L 236.817165 116.601654 
L 236.826467 116.368774 
L 236.929378 103.067749 
L 236.938711 102.813808 
L 237.050955 90.775108 
L 237.060288 90.501312 
L 237.1164 85.954948 
L 237.340796 85.935487 
L 237.443686 85.492034 
L 237.593551 85.375808 
L 237.692899 81.729972 
L 237.948107 81.690793 
L 237.948107 81.786297 
L 237.948107 81.909199 
L 238.460506 81.734182 
L 238.479244 81.636153 
L 238.591478 81.53083 
L 238.628872 81.491596 
L 239.722327 81.424213 
L 240.903354 81.266766 
L 241.006327 80.996356 
L 241.156171 80.777247 
L 242.728789 80.409219 
L 242.803659 80.272183 
L 244.157878 80.173146 
L 244.157878 80.309056 
L 244.157878 80.33675 
L 244.637842 80.236082 
L 244.806218 79.961256 
L 246.819209 79.917716 
L 246.819209 80.050932 
L 246.819209 80.561967 
L 247.389146 80.332767 
L 247.520159 79.677957 
L 249.480539 79.064344 
L 249.480539 79.101631 
L 249.480539 79.256051 
L 249.540799 79.251176 
L 249.765369 79.055566 
L 249.868311 78.681658 
L 250.008729 78.570796 
L 250.367649 78.551179 
L 250.367649 78.638564 
L 250.367649 80.109842 
L 250.645036 79.914819 
L 250.719875 79.661234 
L 250.757341 79.622353 
L 250.822858 79.232924 
L 250.925861 78.396856 
L 252.076928 78.281969 
L 252.076928 78.262661 
L 252.14187 78.277774 
L 253.489538 78.118123 
L 253.620479 78.040205 
L 254.312784 77.874794 
L 254.8032 77.739787 
L 254.8032 77.746319 
L 254.8032 78.083623 
L 254.818324 78.070307 
L 255.473225 77.964038 
L 255.48263 77.673964 
L 256.858298 77.59314 
L 256.933168 77.554018 
L 260.125861 77.442219 
L 260.125861 77.604682 
L 260.125861 77.720077 
L 260.125861 77.720077 
L 260.423834 77.603888 
L 260.59222 77.559505 
L 260.929127 77.423882 
L 261.003956 77.38785 
L 261.012971 77.39815 
L 261.012971 77.733719 
L 261.444739 77.63504 
L 261.510266 77.383616 
L 261.900081 77.282473 
L 261.900081 77.327763 
L 262.33802 77.036294 
L 265.448522 76.843949 
L 265.448522 76.880686 
L 265.448522 77.194553 
L 265.736412 77.155548 
L 265.830103 76.164765 
L 265.905148 76.074045 
L 266.161178 75.66747 
L 266.610226 75.62918 
L 266.694491 75.415415 
L 266.937727 75.200885 
L 267.124863 75.10475 
L 267.222742 75.10475 
L 267.222742 75.105355 
L 267.222742 75.601204 
L 267.727574 75.171612 
L 267.8211 74.958897 
L 268.109853 74.902975 
L 268.109853 74.945101 
L 268.109853 75.183844 
L 268.109853 75.183844 
L 268.537473 75.016989 
L 268.60303 74.966079 
L 268.781079 74.832844 
L 268.874934 74.657956 
L 268.996963 74.724058 
L 268.996963 75.215627 
L 269.812365 75.051513 
L 269.884073 74.529752 
L 269.884073 74.530017 
L 272.161769 74.392133 
L 272.423836 74.235768 
L 272.873254 74.116986 
L 272.957602 74.070628 
L 273.432514 74.006466 
L 273.432514 74.116945 
L 273.432514 74.201536 
L 273.92179 74.115132 
L 273.9218 73.9899 
L 274.624065 73.889102 
L 274.858317 73.772962 
L 275.206734 73.714155 
L 275.206734 73.752359 
L 275.206734 73.908491 
L 275.492159 73.783041 
L 275.567112 73.563775 
L 276.093844 73.355428 
L 276.093844 73.360522 
L 276.093844 73.557657 
L 276.503003 73.552726 
L 276.605986 73.375877 
L 277.868064 73.439653 
L 278.263331 72.72763 
L 278.328817 72.688572 
L 280.258138 72.35016 
L 280.295604 72.311279 
L 281.910504 72.215011 
L 282.696952 72.091214 
L 284.495013 71.983409 
L 284.870649 71.905002 
L 284.964946 71.913638 
L 284.964946 72.099846 
L 284.982903 72.096609 
L 285.432465 71.954203 
L 285.469941 71.855208 
L 285.852056 71.820849 
L 285.852056 71.856761 
L 285.852056 71.956461 
L 285.900477 71.956051 
L 286.377956 71.856457 
L 286.41535 71.765161 
L 286.739166 71.724597 
L 286.739166 71.740812 
L 287.626276 71.668571 
L 287.626276 71.550869 
L 287.626276 71.676454 
L 290.287607 71.494688 
L 290.287607 71.53268 
L 290.287607 71.713035 
L 291.087464 71.329098 
L 291.174717 71.211638 
L 291.174717 71.363354 
L 291.471806 71.167183 
L 291.537292 71.010897 
L 292.061827 70.849195 
L 292.061827 70.653024 
L 292.061827 71.093428 
L 292.343413 70.975902 
L 292.343443 70.622795 
L 292.606014 70.520938 
L 293.224177 70.198772 
L 293.308484 70.104391 
L 293.495547 69.993127 
L 293.836047 69.541935 
L 293.836047 69.286913 
L 293.836047 69.568761 
L 294.723157 69.549144 
L 294.723157 69.411825 
L 294.723157 69.413878 
L 296.497378 69.239784 
L 296.497378 68.965145 
L 296.497378 69.208113 
L 297.384488 69.129645 
L 297.384488 68.815772 
L 297.384488 68.860389 
L 298.271598 68.762304 
L 298.271598 68.624985 
L 298.271598 68.796437 
L 299.158708 68.717969 
L 299.158708 68.58065 
L 299.158708 68.59279 
L 300.045818 68.514322 
L 300.045818 68.337769 
L 300.045818 68.411549 
L 301.820039 68.272759 
L 301.820039 68.253142 
L 301.820039 68.253853 
L 302.707149 67.93998 
L 302.707149 67.920363 
L 302.707149 68.180041 
L 303.594259 67.826935 
L 303.594259 67.852689 
L 304.481369 67.656518 
L 304.481369 67.244561 
L 304.481369 67.335382 
L 305.368479 67.119595 
L 305.368479 66.68802 
L 305.368479 66.852705 
L 307.1427 66.62062 
L 307.1427 66.620878 
L 308.91692 66.503912 
L 308.91692 66.405827 
L 308.91692 66.487341 
L 311.57825 66.036789 
L 311.57825 65.958321 
L 311.57825 66.222564 
L 312.414383 66.119826 
L 312.465361 65.943594 
L 312.465361 66.100154 
L 312.817001 65.965327 
L 313.352471 65.869391 
L 313.352471 65.875315 
L 316.013801 65.789657 
L 316.013801 64.396848 
L 316.013801 66.242964 
L 316.310829 66.126019 
L 316.404438 66.087138 
L 316.460755 65.952734 
L 316.488929 65.790272 
L 316.900911 65.69099 
L 316.900911 65.795239 
L 317.294115 65.731024 
L 317.444595 65.460194 
L 318.06242 65.358073 
L 318.146593 65.240945 
L 318.970732 64.989562 
L 319.036311 64.91168 
L 319.32649 64.715028 
L 319.562242 64.619675 
L 319.562242 64.620752 
L 321.336462 64.564298 
L 321.336462 64.5949 
L 321.336462 64.778734 
L 321.62965 64.679789 
L 321.7233 64.29774 
L 321.947962 64.025429 
L 322.223572 63.966578 
L 322.223572 63.770408 
L 322.223572 64.012992 
L 323.110683 63.799105 
L 323.110683 63.759871 
L 323.110683 64.855701 
L 323.532224 64.793994 
L 323.682006 63.872249 
L 323.997793 63.761222 
L 323.997793 63.81823 
L 325.232406 63.682986 
L 327.546233 63.508562 
L 327.546233 63.25354 
L 327.546233 63.536019 
L 327.979829 63.425128 
L 328.28926 63.294343 
L 328.433344 63.196737 
L 328.433344 63.261143 
L 328.729889 63.20993 
L 328.982479 63.035114 
L 329.320454 62.961024 
L 329.320454 63.09994 
L 329.320454 63.11504 
L 329.600479 62.998801 
L 329.684682 62.658091 
L 331.382317 62.130112 
L 331.382317 61.938496 
L 331.916103 61.894312 
L 331.981784 61.894312 
L 331.981784 61.991403 
L 331.981784 62.007769 
L 332.835463 61.905945 
L 332.868894 61.886328 
L 332.868894 61.893135 
L 333.756004 61.793988 
L 333.756004 61.953682 
L 333.756004 62.168908 
L 334.448146 62.001492 
L 334.457458 61.717459 
L 334.728879 61.574914 
L 335.530225 61.377996 
L 335.530225 61.382625 
L 335.530225 61.699154 
L 335.618505 61.696323 
L 335.815835 61.669711 
L 335.994068 61.352839 
L 336.219871 61.264385 
L 336.955351 61.158067 
L 337.304445 61.138692 
L 337.304445 61.171138 
L 337.304445 61.76374 
L 337.667031 61.608135 
L 337.723204 61.140594 
L 338.899621 61.035656 
L 339.965776 61.01613 
L 339.965776 60.898428 
L 339.965776 61.089354 
L 340.503145 60.984257 
L 340.852886 60.96028 
L 340.852886 60.986953 
L 340.852886 63.844327 
L 341.571948 63.77756 
L 341.581322 61.065181 
L 343.514216 60.782673 
L 343.514216 60.93029 
L 343.514216 61.092959 
L 344.101126 61.089153 
L 344.401326 60.797342 
L 344.401326 60.797534 
L 346.175547 60.758306 
L 346.175547 59.73822 
L 346.175547 60.54541 
L 347.062657 60.368857 
L 347.062657 59.858814 
L 347.062657 59.972708 
L 347.949767 59.69807 
L 347.949767 59.599984 
L 347.949767 59.663743 
L 348.836877 59.54604 
L 348.836877 59.173317 
L 348.836877 59.466733 
L 349.723987 59.368648 
L 349.723987 59.211712 
L 349.723987 59.404305 
L 352.385318 59.018187 
L 352.385318 58.410059 
L 352.385318 59.024989 
L 353.272428 58.88767 
L 353.272428 58.902421 
L 354.159538 58.686634 
L 354.159538 58.588548 
L 354.159538 58.663873 
L 355.933759 58.538275 
L 355.933759 58.283253 
L 355.933759 58.456779 
L 358.595089 58.383866 
L 358.595089 57.579567 
L 358.595089 57.808086 
L 359.482199 57.788469 
L 359.482199 57.435363 
L 359.482199 57.493003 
L 360.369309 57.414535 
L 360.369309 57.139896 
L 360.369309 57.38861 
L 361.256419 57.270908 
L 361.256419 57.133589 
L 361.256419 57.219434 
L 362.14353 57.101732 
L 362.14353 57.003646 
L 362.14353 57.104593 
L 363.91775 57.065588 
L 363.91775 56.869417 
L 363.91775 57.079645 
L 364.80486 57.020794 
L 364.80486 56.765773 
L 364.80486 56.9961 
L 365.69197 56.917632 
L 365.69197 56.760696 
L 365.69197 56.883641 
L 367.466191 56.727071 
L 367.466191 56.865308 
L 367.466191 56.900645 
L 368.353301 56.86141 
L 368.353301 56.586772 
L 368.353301 56.656015 
L 370.127521 56.638358 
L 370.127521 56.638584 
L 371.014631 56.40318 
L 371.014631 56.128541 
L 371.014631 56.360209 
L 371.901741 56.183655 
L 371.901741 55.791314 
L 371.901741 55.859879 
L 372.788852 55.722559 
L 372.788852 55.369453 
L 372.788852 55.471532 
L 373.675962 55.353829 
L 373.675962 55.236127 
L 373.675962 55.295303 
L 375.450182 55.182082 
L 375.450182 55.142848 
L 375.450182 55.179924 
L 377.224402 55.043339 
L 377.224402 54.709849 
L 377.224402 54.796951 
L 378.111513 54.698866 
L 378.111513 54.365376 
L 378.111513 54.464451 
L 378.998623 54.327131 
L 378.998623 54.287897 
L 378.998623 54.35018 
L 379.885733 54.271711 
L 379.885733 54.173626 
L 379.885733 54.232828 
L 380.772843 54.134743 
L 380.772843 53.899338 
L 380.772843 53.98197 
L 381.659953 53.923118 
L 381.659953 53.929507 
L 382.547063 53.772571 
L 382.547063 53.881978 
L 382.547063 53.904493 
L 382.547063 53.904493 
L 383.434174 53.806408 
L 383.434174 53.862495 
L 384.321284 53.666325 
L 384.321284 53.254367 
L 384.321284 53.3303 
L 385.208394 53.291066 
L 385.208394 52.918342 
L 385.208394 53.048661 
L 386.095504 52.832874 
L 386.095504 52.813257 
L 386.095504 52.904454 
L 386.982614 52.629815 
L 386.982614 52.787356 
L 389.643945 52.673182 
L 389.643945 52.633948 
L 389.643945 52.684543 
L 390.531055 52.586458 
L 390.531055 52.661064 
L 393.192385 52.434239 
L 393.192385 52.395005 
L 393.192385 52.439037 
L 393.192385 52.439037 
L 395.853716 52.42882 
L 395.853716 52.154182 
L 395.853716 52.381696 
L 396.740826 52.263994 
L 396.740826 52.22476 
L 396.740826 52.333496 
L 397.627936 52.336397 
L 397.627936 52.463716 
L 397.627936 52.463716 
" style="fill:none;stroke:#008000;stroke-linecap:square;stroke-width:1.5;"/>
   </g>
   <g id="line2d_30">
    <defs>
     <path d="M 0 3 
C 0.795609 3 1.55874 2.683901 2.12132 2.12132 
C 2.683901 1.55874 3 0.795609 3 0 
C 3 -0.795609 2.683901 -1.55874 2.12132 -2.12132 
C 1.55874 -2.683901 0.795609 -3 0 -3 
C -0.795609 -3 -1.55874 -2.683901 -2.12132 -2.12132 
C -2.683901 -1.55874 -3 -0.795609 -3 0 
C -3 0.795609 -2.683901 1.55874 -2.12132 2.12132 
C -1.55874 2.683901 -0.795609 3 0 3 
z
" id="md1461e23b0" style="stroke:#bfbf00;"/>
    </defs>
    <g clip-path="url(#p60681b7205)">
     <use style="fill:#bfbf00;stroke:#bfbf00;" x="76.525148" xlink:href="#md1461e23b0" y="255.989298"/>
     <use style="fill:#bfbf00;stroke:#bfbf00;" x="79.542216" xlink:href="#md1461e23b0" y="226.563738"/>
     <use style="fill:#bfbf00;stroke:#bfbf00;" x="234.805263" xlink:href="#md1461e23b0" y="216.755218"/>
     <use style="fill:#bfbf00;stroke:#bfbf00;" x="236.490772" xlink:href="#md1461e23b0" y="216.755218"/>
     <use style="fill:#bfbf00;stroke:#bfbf00;" x="236.825061" xlink:href="#md1461e23b0" y="255.989298"/>
     <use style="fill:#bfbf00;stroke:#bfbf00;" x="236.887323" xlink:href="#md1461e23b0" y="255.989298"/>
     <use style="fill:#bfbf00;stroke:#bfbf00;" x="237.594413" xlink:href="#md1461e23b0" y="261.87441"/>
    </g>
   </g>
   <g id="line2d_31">
    <defs>
     <path d="M 0 3 
C 0.795609 3 1.55874 2.683901 2.12132 2.12132 
C 2.683901 1.55874 3 0.795609 3 0 
C 3 -0.795609 2.683901 -1.55874 2.12132 -2.12132 
C 1.55874 -2.683901 0.795609 -3 0 -3 
C -0.795609 -3 -1.55874 -2.683901 -2.12132 -2.12132 
C -2.683901 -1.55874 -3 -0.795609 -3 0 
C -3 0.795609 -2.683901 1.55874 -2.12132 2.12132 
C -1.55874 2.683901 -0.795609 3 0 3 
z
" id="macb2670b01" style="stroke:#008000;"/>
    </defs>
    <g clip-path="url(#p60681b7205)">
     <use style="fill:#008000;stroke:#008000;" x="118.705757" xlink:href="#macb2670b01" y="257.442529"/>
     <use style="fill:#008000;stroke:#008000;" x="203.868538" xlink:href="#macb2670b01" y="263.841411"/>
    </g>
   </g>
   <g id="patch_3">
    <path d="M 57.6 276.48 
L 57.6 41.472 
" style="fill:none;stroke:#000000;stroke-linecap:square;stroke-linejoin:miter;stroke-width:0.8;"/>
   </g>
   <g id="patch_4">
    <path d="M 414.72 276.48 
L 414.72 41.472 
" style="fill:none;stroke:#000000;stroke-linecap:square;stroke-linejoin:miter;stroke-width:0.8;"/>
   </g>
   <g id="patch_5">
    <path d="M 57.6 276.48 
L 414.72 276.48 
" style="fill:none;stroke:#000000;stroke-linecap:square;stroke-linejoin:miter;stroke-width:0.8;"/>
   </g>
   <g id="patch_6">
    <path d="M 57.6 41.472 
L 414.72 41.472 
" style="fill:none;stroke:#000000;stroke-linecap:square;stroke-linejoin:miter;stroke-width:0.8;"/>
   </g>
   <g id="text_16">
    <!-- My Bondora earnings -->
    <defs>
     <path d="M 9.8125 72.90625 
L 24.515625 72.90625 
L 43.109375 23.296875 
L 61.8125 72.90625 
L 76.515625 72.90625 
L 76.515625 0 
L 66.890625 0 
L 66.890625 64.015625 
L 48.09375 14.015625 
L 38.1875 14.015625 
L 19.390625 64.015625 
L 19.390625 0 
L 9.8125 0 
z
" id="DejaVuSans-4d"/>
     <path d="M 32.171875 -5.078125 
Q 28.375 -14.84375 24.75 -17.8125 
Q 21.140625 -20.796875 15.09375 -20.796875 
L 7.90625 -20.796875 
L 7.90625 -13.28125 
L 13.1875 -13.28125 
Q 16.890625 -13.28125 18.9375 -11.515625 
Q 21 -9.765625 23.484375 -3.21875 
L 25.09375 0.875 
L 2.984375 54.6875 
L 12.5 54.6875 
L 29.59375 11.921875 
L 46.6875 54.6875 
L 56.203125 54.6875 
z
" id="DejaVuSans-79"/>
     <path id="DejaVuSans-20"/>
     <path d="M 19.671875 34.8125 
L 19.671875 8.109375 
L 35.5 8.109375 
Q 43.453125 8.109375 47.28125 11.40625 
Q 51.125 14.703125 51.125 21.484375 
Q 51.125 28.328125 47.28125 31.5625 
Q 43.453125 34.8125 35.5 34.8125 
z
M 19.671875 64.796875 
L 19.671875 42.828125 
L 34.28125 42.828125 
Q 41.5 42.828125 45.03125 45.53125 
Q 48.578125 48.25 48.578125 53.8125 
Q 48.578125 59.328125 45.03125 62.0625 
Q 41.5 64.796875 34.28125 64.796875 
z
M 9.8125 72.90625 
L 35.015625 72.90625 
Q 46.296875 72.90625 52.390625 68.21875 
Q 58.5 63.53125 58.5 54.890625 
Q 58.5 48.1875 55.375 44.234375 
Q 52.25 40.28125 46.1875 39.3125 
Q 53.46875 37.75 57.5 32.78125 
Q 61.53125 27.828125 61.53125 20.40625 
Q 61.53125 10.640625 54.890625 5.3125 
Q 48.25 0 35.984375 0 
L 9.8125 0 
z
" id="DejaVuSans-42"/>
     <path d="M 30.609375 48.390625 
Q 23.390625 48.390625 19.1875 42.75 
Q 14.984375 37.109375 14.984375 27.296875 
Q 14.984375 17.484375 19.15625 11.84375 
Q 23.34375 6.203125 30.609375 6.203125 
Q 37.796875 6.203125 41.984375 11.859375 
Q 46.1875 17.53125 46.1875 27.296875 
Q 46.1875 37.015625 41.984375 42.703125 
Q 37.796875 48.390625 30.609375 48.390625 
z
M 30.609375 56 
Q 42.328125 56 49.015625 48.375 
Q 55.71875 40.765625 55.71875 27.296875 
Q 55.71875 13.875 49.015625 6.21875 
Q 42.328125 -1.421875 30.609375 -1.421875 
Q 18.84375 -1.421875 12.171875 6.21875 
Q 5.515625 13.875 5.515625 27.296875 
Q 5.515625 40.765625 12.171875 48.375 
Q 18.84375 56 30.609375 56 
z
" id="DejaVuSans-6f"/>
     <path d="M 54.890625 33.015625 
L 54.890625 0 
L 45.90625 0 
L 45.90625 32.71875 
Q 45.90625 40.484375 42.875 44.328125 
Q 39.84375 48.1875 33.796875 48.1875 
Q 26.515625 48.1875 22.3125 43.546875 
Q 18.109375 38.921875 18.109375 30.90625 
L 18.109375 0 
L 9.078125 0 
L 9.078125 54.6875 
L 18.109375 54.6875 
L 18.109375 46.1875 
Q 21.34375 51.125 25.703125 53.5625 
Q 30.078125 56 35.796875 56 
Q 45.21875 56 50.046875 50.171875 
Q 54.890625 44.34375 54.890625 33.015625 
z
" id="DejaVuSans-6e"/>
     <path d="M 41.109375 46.296875 
Q 39.59375 47.171875 37.8125 47.578125 
Q 36.03125 48 33.890625 48 
Q 26.265625 48 22.1875 43.046875 
Q 18.109375 38.09375 18.109375 28.8125 
L 18.109375 0 
L 9.078125 0 
L 9.078125 54.6875 
L 18.109375 54.6875 
L 18.109375 46.1875 
Q 20.953125 51.171875 25.484375 53.578125 
Q 30.03125 56 36.53125 56 
Q 37.453125 56 38.578125 55.875 
Q 39.703125 55.765625 41.0625 55.515625 
z
" id="DejaVuSans-72"/>
     <path d="M 9.421875 54.6875 
L 18.40625 54.6875 
L 18.40625 0 
L 9.421875 0 
z
M 9.421875 75.984375 
L 18.40625 75.984375 
L 18.40625 64.59375 
L 9.421875 64.59375 
z
" id="DejaVuSans-69"/>
     <path d="M 45.40625 27.984375 
Q 45.40625 37.75 41.375 43.109375 
Q 37.359375 48.484375 30.078125 48.484375 
Q 22.859375 48.484375 18.828125 43.109375 
Q 14.796875 37.75 14.796875 27.984375 
Q 14.796875 18.265625 18.828125 12.890625 
Q 22.859375 7.515625 30.078125 7.515625 
Q 37.359375 7.515625 41.375 12.890625 
Q 45.40625 18.265625 45.40625 27.984375 
z
M 54.390625 6.78125 
Q 54.390625 -7.171875 48.1875 -13.984375 
Q 42 -20.796875 29.203125 -20.796875 
Q 24.46875 -20.796875 20.265625 -20.09375 
Q 16.0625 -19.390625 12.109375 -17.921875 
L 12.109375 -9.1875 
Q 16.0625 -11.328125 19.921875 -12.34375 
Q 23.78125 -13.375 27.78125 -13.375 
Q 36.625 -13.375 41.015625 -8.765625 
Q 45.40625 -4.15625 45.40625 5.171875 
L 45.40625 9.625 
Q 42.625 4.78125 38.28125 2.390625 
Q 33.9375 0 27.875 0 
Q 17.828125 0 11.671875 7.65625 
Q 5.515625 15.328125 5.515625 27.984375 
Q 5.515625 40.671875 11.671875 48.328125 
Q 17.828125 56 27.875 56 
Q 33.9375 56 38.28125 53.609375 
Q 42.625 51.21875 45.40625 46.390625 
L 45.40625 54.6875 
L 54.390625 54.6875 
z
" id="DejaVuSans-67"/>
     <path d="M 44.28125 53.078125 
L 44.28125 44.578125 
Q 40.484375 46.53125 36.375 47.5 
Q 32.28125 48.484375 27.875 48.484375 
Q 21.1875 48.484375 17.84375 46.4375 
Q 14.5 44.390625 14.5 40.28125 
Q 14.5 37.15625 16.890625 35.375 
Q 19.28125 33.59375 26.515625 31.984375 
L 29.59375 31.296875 
Q 39.15625 29.25 43.1875 25.515625 
Q 47.21875 21.78125 47.21875 15.09375 
Q 47.21875 7.46875 41.1875 3.015625 
Q 35.15625 -1.421875 24.609375 -1.421875 
Q 20.21875 -1.421875 15.453125 -0.5625 
Q 10.6875 0.296875 5.421875 2 
L 5.421875 11.28125 
Q 10.40625 8.6875 15.234375 7.390625 
Q 20.0625 6.109375 24.8125 6.109375 
Q 31.15625 6.109375 34.5625 8.28125 
Q 37.984375 10.453125 37.984375 14.40625 
Q 37.984375 18.0625 35.515625 20.015625 
Q 33.0625 21.96875 24.703125 23.78125 
L 21.578125 24.515625 
Q 13.234375 26.265625 9.515625 29.90625 
Q 5.8125 33.546875 5.8125 39.890625 
Q 5.8125 47.609375 11.28125 51.796875 
Q 16.75 56 26.8125 56 
Q 31.78125 56 36.171875 55.265625 
Q 40.578125 54.546875 44.28125 53.078125 
z
" id="DejaVuSans-73"/>
    </defs>
    <g transform="translate(172.363125 35.472)scale(0.12 -0.12)">
     <use xlink:href="#DejaVuSans-4d"/>
     <use x="86.279297" xlink:href="#DejaVuSans-79"/>
     <use x="145.458984" xlink:href="#DejaVuSans-20"/>
     <use x="177.246094" xlink:href="#DejaVuSans-42"/>
     <use x="245.849609" xlink:href="#DejaVuSans-6f"/>
     <use x="307.03125" xlink:href="#DejaVuSans-6e"/>
     <use x="370.410156" xlink:href="#DejaVuSans-64"/>
     <use x="433.886719" xlink:href="#DejaVuSans-6f"/>
     <use x="495.068359" xlink:href="#DejaVuSans-72"/>
     <use x="536.181641" xlink:href="#DejaVuSans-61"/>
     <use x="597.460938" xlink:href="#DejaVuSans-20"/>
     <use x="629.248047" xlink:href="#DejaVuSans-65"/>
     <use x="690.771484" xlink:href="#DejaVuSans-61"/>
     <use x="752.050781" xlink:href="#DejaVuSans-72"/>
     <use x="793.148438" xlink:href="#DejaVuSans-6e"/>
     <use x="856.527344" xlink:href="#DejaVuSans-69"/>
     <use x="884.310547" xlink:href="#DejaVuSans-6e"/>
     <use x="947.689453" xlink:href="#DejaVuSans-67"/>
     <use x="1011.166016" xlink:href="#DejaVuSans-73"/>
    </g>
   </g>
   <g id="legend_1">
    <g id="patch_7">
     <path d="M 64.6 122.862625 
L 158.45 122.862625 
Q 160.45 122.862625 160.45 120.862625 
L 160.45 48.472 
Q 160.45 46.472 158.45 46.472 
L 64.6 46.472 
Q 62.6 46.472 62.6 48.472 
L 62.6 120.862625 
Q 62.6 122.862625 64.6 122.862625 
z
" style="fill:#ffffff;opacity:0.8;stroke:#cccccc;stroke-linejoin:miter;"/>
    </g>
    <g id="line2d_32">
     <path d="M 66.6 54.570437 
L 86.6 54.570437 
" style="fill:none;stroke:#0000ff;stroke-linecap:square;stroke-width:1.5;"/>
    </g>
    <g id="line2d_33"/>
    <g id="text_17">
     <!-- Interest -->
     <defs>
      <path d="M 9.8125 72.90625 
L 19.671875 72.90625 
L 19.671875 0 
L 9.8125 0 
z
" id="DejaVuSans-49"/>
     </defs>
     <g transform="translate(94.6 58.070437)scale(0.1 -0.1)">
      <use xlink:href="#DejaVuSans-49"/>
      <use x="29.492188" xlink:href="#DejaVuSans-6e"/>
      <use x="92.871094" xlink:href="#DejaVuSans-74"/>
      <use x="132.080078" xlink:href="#DejaVuSans-65"/>
      <use x="193.603516" xlink:href="#DejaVuSans-72"/>
      <use x="234.685547" xlink:href="#DejaVuSans-65"/>
      <use x="296.208984" xlink:href="#DejaVuSans-73"/>
      <use x="348.308594" xlink:href="#DejaVuSans-74"/>
     </g>
    </g>
    <g id="line2d_34">
     <path d="M 66.6 69.248562 
L 86.6 69.248562 
" style="fill:none;stroke:#ff0000;stroke-linecap:square;stroke-width:1.5;"/>
    </g>
    <g id="line2d_35"/>
    <g id="text_18">
     <!-- Balance -->
     <defs>
      <path d="M 9.421875 75.984375 
L 18.40625 75.984375 
L 18.40625 0 
L 9.421875 0 
z
" id="DejaVuSans-6c"/>
      <path d="M 48.78125 52.59375 
L 48.78125 44.1875 
Q 44.96875 46.296875 41.140625 47.34375 
Q 37.3125 48.390625 33.40625 48.390625 
Q 24.65625 48.390625 19.8125 42.84375 
Q 14.984375 37.3125 14.984375 27.296875 
Q 14.984375 17.28125 19.8125 11.734375 
Q 24.65625 6.203125 33.40625 6.203125 
Q 37.3125 6.203125 41.140625 7.25 
Q 44.96875 8.296875 48.78125 10.40625 
L 48.78125 2.09375 
Q 45.015625 0.34375 40.984375 -0.53125 
Q 36.96875 -1.421875 32.421875 -1.421875 
Q 20.0625 -1.421875 12.78125 6.34375 
Q 5.515625 14.109375 5.515625 27.296875 
Q 5.515625 40.671875 12.859375 48.328125 
Q 20.21875 56 33.015625 56 
Q 37.15625 56 41.109375 55.140625 
Q 45.0625 54.296875 48.78125 52.59375 
z
" id="DejaVuSans-63"/>
     </defs>
     <g transform="translate(94.6 72.748562)scale(0.1 -0.1)">
      <use xlink:href="#DejaVuSans-42"/>
      <use x="68.603516" xlink:href="#DejaVuSans-61"/>
      <use x="129.882812" xlink:href="#DejaVuSans-6c"/>
      <use x="157.666016" xlink:href="#DejaVuSans-61"/>
      <use x="218.945312" xlink:href="#DejaVuSans-6e"/>
      <use x="282.324219" xlink:href="#DejaVuSans-63"/>
      <use x="337.304688" xlink:href="#DejaVuSans-65"/>
     </g>
    </g>
    <g id="line2d_36">
     <path d="M 66.6 83.926687 
L 86.6 83.926687 
" style="fill:none;stroke:#008000;stroke-linecap:square;stroke-width:1.5;"/>
    </g>
    <g id="line2d_37"/>
    <g id="text_19">
     <!-- Investments -->
     <defs>
      <path d="M 2.984375 54.6875 
L 12.5 54.6875 
L 29.59375 8.796875 
L 46.6875 54.6875 
L 56.203125 54.6875 
L 35.6875 0 
L 23.484375 0 
z
" id="DejaVuSans-76"/>
      <path d="M 52 44.1875 
Q 55.375 50.25 60.0625 53.125 
Q 64.75 56 71.09375 56 
Q 79.640625 56 84.28125 50.015625 
Q 88.921875 44.046875 88.921875 33.015625 
L 88.921875 0 
L 79.890625 0 
L 79.890625 32.71875 
Q 79.890625 40.578125 77.09375 44.375 
Q 74.3125 48.1875 68.609375 48.1875 
Q 61.625 48.1875 57.5625 43.546875 
Q 53.515625 38.921875 53.515625 30.90625 
L 53.515625 0 
L 44.484375 0 
L 44.484375 32.71875 
Q 44.484375 40.625 41.703125 44.40625 
Q 38.921875 48.1875 33.109375 48.1875 
Q 26.21875 48.1875 22.15625 43.53125 
Q 18.109375 38.875 18.109375 30.90625 
L 18.109375 0 
L 9.078125 0 
L 9.078125 54.6875 
L 18.109375 54.6875 
L 18.109375 46.1875 
Q 21.1875 51.21875 25.484375 53.609375 
Q 29.78125 56 35.6875 56 
Q 41.65625 56 45.828125 52.96875 
Q 50 49.953125 52 44.1875 
z
" id="DejaVuSans-6d"/>
     </defs>
     <g transform="translate(94.6 87.426687)scale(0.1 -0.1)">
      <use xlink:href="#DejaVuSans-49"/>
      <use x="29.492188" xlink:href="#DejaVuSans-6e"/>
      <use x="92.871094" xlink:href="#DejaVuSans-76"/>
      <use x="152.050781" xlink:href="#DejaVuSans-65"/>
      <use x="213.574219" xlink:href="#DejaVuSans-73"/>
      <use x="265.673828" xlink:href="#DejaVuSans-74"/>
      <use x="304.882812" xlink:href="#DejaVuSans-6d"/>
      <use x="402.294922" xlink:href="#DejaVuSans-65"/>
      <use x="463.818359" xlink:href="#DejaVuSans-6e"/>
      <use x="527.197266" xlink:href="#DejaVuSans-74"/>
      <use x="566.40625" xlink:href="#DejaVuSans-73"/>
     </g>
    </g>
    <g id="line2d_38"/>
    <g id="line2d_39">
     <g>
      <use style="fill:#bfbf00;stroke:#bfbf00;" x="76.6" xlink:href="#md1461e23b0" y="98.604812"/>
     </g>
    </g>
    <g id="text_20">
     <!-- Deposits -->
     <defs>
      <path d="M 19.671875 64.796875 
L 19.671875 8.109375 
L 31.59375 8.109375 
Q 46.6875 8.109375 53.6875 14.9375 
Q 60.6875 21.78125 60.6875 36.53125 
Q 60.6875 51.171875 53.6875 57.984375 
Q 46.6875 64.796875 31.59375 64.796875 
z
M 9.8125 72.90625 
L 30.078125 72.90625 
Q 51.265625 72.90625 61.171875 64.09375 
Q 71.09375 55.28125 71.09375 36.53125 
Q 71.09375 17.671875 61.125 8.828125 
Q 51.171875 0 30.078125 0 
L 9.8125 0 
z
" id="DejaVuSans-44"/>
      <path d="M 18.109375 8.203125 
L 18.109375 -20.796875 
L 9.078125 -20.796875 
L 9.078125 54.6875 
L 18.109375 54.6875 
L 18.109375 46.390625 
Q 20.953125 51.265625 25.265625 53.625 
Q 29.59375 56 35.59375 56 
Q 45.5625 56 51.78125 48.09375 
Q 58.015625 40.1875 58.015625 27.296875 
Q 58.015625 14.40625 51.78125 6.484375 
Q 45.5625 -1.421875 35.59375 -1.421875 
Q 29.59375 -1.421875 25.265625 0.953125 
Q 20.953125 3.328125 18.109375 8.203125 
z
M 48.6875 27.296875 
Q 48.6875 37.203125 44.609375 42.84375 
Q 40.53125 48.484375 33.40625 48.484375 
Q 26.265625 48.484375 22.1875 42.84375 
Q 18.109375 37.203125 18.109375 27.296875 
Q 18.109375 17.390625 22.1875 11.75 
Q 26.265625 6.109375 33.40625 6.109375 
Q 40.53125 6.109375 44.609375 11.75 
Q 48.6875 17.390625 48.6875 27.296875 
z
" id="DejaVuSans-70"/>
     </defs>
     <g transform="translate(94.6 102.104812)scale(0.1 -0.1)">
      <use xlink:href="#DejaVuSans-44"/>
      <use x="77.001953" xlink:href="#DejaVuSans-65"/>
      <use x="138.525391" xlink:href="#DejaVuSans-70"/>
      <use x="202.001953" xlink:href="#DejaVuSans-6f"/>
      <use x="263.183594" xlink:href="#DejaVuSans-73"/>
      <use x="315.283203" xlink:href="#DejaVuSans-69"/>
      <use x="343.066406" xlink:href="#DejaVuSans-74"/>
      <use x="382.275391" xlink:href="#DejaVuSans-73"/>
     </g>
    </g>
    <g id="line2d_40"/>
    <g id="line2d_41">
     <g>
      <use style="fill:#008000;stroke:#008000;" x="76.6" xlink:href="#macb2670b01" y="113.282937"/>
     </g>
    </g>
    <g id="text_21">
     <!-- Commission -->
     <defs>
      <path d="M 64.40625 67.28125 
L 64.40625 56.890625 
Q 59.421875 61.53125 53.78125 63.8125 
Q 48.140625 66.109375 41.796875 66.109375 
Q 29.296875 66.109375 22.65625 58.46875 
Q 16.015625 50.828125 16.015625 36.375 
Q 16.015625 21.96875 22.65625 14.328125 
Q 29.296875 6.6875 41.796875 6.6875 
Q 48.140625 6.6875 53.78125 8.984375 
Q 59.421875 11.28125 64.40625 15.921875 
L 64.40625 5.609375 
Q 59.234375 2.09375 53.4375 0.328125 
Q 47.65625 -1.421875 41.21875 -1.421875 
Q 24.65625 -1.421875 15.125 8.703125 
Q 5.609375 18.84375 5.609375 36.375 
Q 5.609375 53.953125 15.125 64.078125 
Q 24.65625 74.21875 41.21875 74.21875 
Q 47.75 74.21875 53.53125 72.484375 
Q 59.328125 70.75 64.40625 67.28125 
z
" id="DejaVuSans-43"/>
     </defs>
     <g transform="translate(94.6 116.782937)scale(0.1 -0.1)">
      <use xlink:href="#DejaVuSans-43"/>
      <use x="69.824219" xlink:href="#DejaVuSans-6f"/>
      <use x="131.005859" xlink:href="#DejaVuSans-6d"/>
      <use x="228.417969" xlink:href="#DejaVuSans-6d"/>
      <use x="325.830078" xlink:href="#DejaVuSans-69"/>
      <use x="353.613281" xlink:href="#DejaVuSans-73"/>
      <use x="405.712891" xlink:href="#DejaVuSans-73"/>
      <use x="457.8125" xlink:href="#DejaVuSans-69"/>
      <use x="485.595703" xlink:href="#DejaVuSans-6f"/>
      <use x="546.777344" xlink:href="#DejaVuSans-6e"/>
     </g>
    </g>
   </g>
  </g>
 </g>
 <defs>
  <clipPath id="p60681b7205">
   <rect height="235.008" width="357.12" x="57.6" y="41.472"/>
  </clipPath>
 </defs>
</svg>
