<?xml version="1.0" encoding="utf-8" standalone="no"?>
<!DOCTYPE svg PUBLIC "-//W3C//DTD SVG 1.1//EN"
  "http://www.w3.org/Graphics/SVG/1.1/DTD/svg11.dtd">
<!-- Created with matplotlib (http://matplotlib.org/) -->
<svg height="345.6pt" version="1.1" viewBox="0 0 460.8 345.6" width="460.8pt" xmlns="http://www.w3.org/2000/svg" xmlns:xlink="http://www.w3.org/1999/xlink">
 <defs>
  <style type="text/css">
*{stroke-linecap:butt;stroke-linejoin:round;}
  </style>
 </defs>
 <g id="figure_1">
  <g id="patch_1">
   <path d="M 0 345.6 
L 460.8 345.6 
L 460.8 0 
L 0 0 
z
" style="fill:#ffffff;"/>
  </g>
  <g id="axes_1">
   <g id="patch_2">
    <path d="M 57.6 276.48 
L 414.72 276.48 
L 414.72 41.472 
L 57.6 41.472 
z
" style="fill:#ffffff;"/>
   </g>
   <g id="matplotlib.axis_1">
    <g id="xtick_1">
     <g id="line2d_1">
      <path clip-path="url(#pa3b77f8f62)" d="M 73.832727 276.48 
L 73.832727 41.472 
" style="fill:none;stroke:#b0b0b0;stroke-linecap:square;stroke-width:0.8;"/>
     </g>
     <g id="line2d_2">
      <defs>
       <path d="M 0 0 
L 0 3.5 
" id="m2ac15dbc96" style="stroke:#000000;stroke-width:0.8;"/>
      </defs>
      <g>
       <use style="stroke:#000000;stroke-width:0.8;" x="73.832727" xlink:href="#m2ac15dbc96" y="276.48"/>
      </g>
     </g>
     <g id="text_1">
      <!-- 2019-01 -->
      <defs>
       <path d="M 19.1875 8.296875 
L 53.609375 8.296875 
L 53.609375 0 
L 7.328125 0 
L 7.328125 8.296875 
Q 12.9375 14.109375 22.625 23.890625 
Q 32.328125 33.6875 34.8125 36.53125 
Q 39.546875 41.84375 41.421875 45.53125 
Q 43.3125 49.21875 43.3125 52.78125 
Q 43.3125 58.59375 39.234375 62.25 
Q 35.15625 65.921875 28.609375 65.921875 
Q 23.96875 65.921875 18.8125 64.3125 
Q 13.671875 62.703125 7.8125 59.421875 
L 7.8125 69.390625 
Q 13.765625 71.78125 18.9375 73 
Q 24.125 74.21875 28.421875 74.21875 
Q 39.75 74.21875 46.484375 68.546875 
Q 53.21875 62.890625 53.21875 53.421875 
Q 53.21875 48.921875 51.53125 44.890625 
Q 49.859375 40.875 45.40625 35.40625 
Q 44.1875 33.984375 37.640625 27.21875 
Q 31.109375 20.453125 19.1875 8.296875 
z
" id="DejaVuSans-32"/>
       <path d="M 31.78125 66.40625 
Q 24.171875 66.40625 20.328125 58.90625 
Q 16.5 51.421875 16.5 36.375 
Q 16.5 21.390625 20.328125 13.890625 
Q 24.171875 6.390625 31.78125 6.390625 
Q 39.453125 6.390625 43.28125 13.890625 
Q 47.125 21.390625 47.125 36.375 
Q 47.125 51.421875 43.28125 58.90625 
Q 39.453125 66.40625 31.78125 66.40625 
z
M 31.78125 74.21875 
Q 44.046875 74.21875 50.515625 64.515625 
Q 56.984375 54.828125 56.984375 36.375 
Q 56.984375 17.96875 50.515625 8.265625 
Q 44.046875 -1.421875 31.78125 -1.421875 
Q 19.53125 -1.421875 13.0625 8.265625 
Q 6.59375 17.96875 6.59375 36.375 
Q 6.59375 54.828125 13.0625 64.515625 
Q 19.53125 74.21875 31.78125 74.21875 
z
" id="DejaVuSans-30"/>
       <path d="M 12.40625 8.296875 
L 28.515625 8.296875 
L 28.515625 63.921875 
L 10.984375 60.40625 
L 10.984375 69.390625 
L 28.421875 72.90625 
L 38.28125 72.90625 
L 38.28125 8.296875 
L 54.390625 8.296875 
L 54.390625 0 
L 12.40625 0 
z
" id="DejaVuSans-31"/>
       <path d="M 10.984375 1.515625 
L 10.984375 10.5 
Q 14.703125 8.734375 18.5 7.8125 
Q 22.3125 6.890625 25.984375 6.890625 
Q 35.75 6.890625 40.890625 13.453125 
Q 46.046875 20.015625 46.78125 33.40625 
Q 43.953125 29.203125 39.59375 26.953125 
Q 35.25 24.703125 29.984375 24.703125 
Q 19.046875 24.703125 12.671875 31.3125 
Q 6.296875 37.9375 6.296875 49.421875 
Q 6.296875 60.640625 12.9375 67.421875 
Q 19.578125 74.21875 30.609375 74.21875 
Q 43.265625 74.21875 49.921875 64.515625 
Q 56.59375 54.828125 56.59375 36.375 
Q 56.59375 19.140625 48.40625 8.859375 
Q 40.234375 -1.421875 26.421875 -1.421875 
Q 22.703125 -1.421875 18.890625 -0.6875 
Q 15.09375 0.046875 10.984375 1.515625 
z
M 30.609375 32.421875 
Q 37.25 32.421875 41.125 36.953125 
Q 45.015625 41.5 45.015625 49.421875 
Q 45.015625 57.28125 41.125 61.84375 
Q 37.25 66.40625 30.609375 66.40625 
Q 23.96875 66.40625 20.09375 61.84375 
Q 16.21875 57.28125 16.21875 49.421875 
Q 16.21875 41.5 20.09375 36.953125 
Q 23.96875 32.421875 30.609375 32.421875 
z
" id="DejaVuSans-39"/>
       <path d="M 4.890625 31.390625 
L 31.203125 31.390625 
L 31.203125 23.390625 
L 4.890625 23.390625 
z
" id="DejaVuSans-2d"/>
      </defs>
      <g transform="translate(36.607906 310.951846)rotate(-30)scale(0.1 -0.1)">
       <use xlink:href="#DejaVuSans-32"/>
       <use x="63.623047" xlink:href="#DejaVuSans-30"/>
       <use x="127.246094" xlink:href="#DejaVuSans-31"/>
       <use x="190.869141" xlink:href="#DejaVuSans-39"/>
       <use x="254.492188" xlink:href="#DejaVuSans-2d"/>
       <use x="290.576172" xlink:href="#DejaVuSans-30"/>
       <use x="354.199219" xlink:href="#DejaVuSans-31"/>
      </g>
     </g>
    </g>
    <g id="xtick_2">
     <g id="line2d_3">
      <path clip-path="url(#pa3b77f8f62)" d="M 104.432138 276.48 
L 104.432138 41.472 
" style="fill:none;stroke:#b0b0b0;stroke-linecap:square;stroke-width:0.8;"/>
     </g>
     <g id="line2d_4">
      <g>
       <use style="stroke:#000000;stroke-width:0.8;" x="104.432138" xlink:href="#m2ac15dbc96" y="276.48"/>
      </g>
     </g>
     <g id="text_2">
      <!-- 2019-02 -->
      <g transform="translate(67.207317 310.951846)rotate(-30)scale(0.1 -0.1)">
       <use xlink:href="#DejaVuSans-32"/>
       <use x="63.623047" xlink:href="#DejaVuSans-30"/>
       <use x="127.246094" xlink:href="#DejaVuSans-31"/>
       <use x="190.869141" xlink:href="#DejaVuSans-39"/>
       <use x="254.492188" xlink:href="#DejaVuSans-2d"/>
       <use x="290.576172" xlink:href="#DejaVuSans-30"/>
       <use x="354.199219" xlink:href="#DejaVuSans-32"/>
      </g>
     </g>
    </g>
    <g id="xtick_3">
     <g id="line2d_5">
      <path clip-path="url(#pa3b77f8f62)" d="M 132.070315 276.48 
L 132.070315 41.472 
" style="fill:none;stroke:#b0b0b0;stroke-linecap:square;stroke-width:0.8;"/>
     </g>
     <g id="line2d_6">
      <g>
       <use style="stroke:#000000;stroke-width:0.8;" x="132.070315" xlink:href="#m2ac15dbc96" y="276.48"/>
      </g>
     </g>
     <g id="text_3">
      <!-- 2019-03 -->
      <defs>
       <path d="M 40.578125 39.3125 
Q 47.65625 37.796875 51.625 33 
Q 55.609375 28.21875 55.609375 21.1875 
Q 55.609375 10.40625 48.1875 4.484375 
Q 40.765625 -1.421875 27.09375 -1.421875 
Q 22.515625 -1.421875 17.65625 -0.515625 
Q 12.796875 0.390625 7.625 2.203125 
L 7.625 11.71875 
Q 11.71875 9.328125 16.59375 8.109375 
Q 21.484375 6.890625 26.8125 6.890625 
Q 36.078125 6.890625 40.9375 10.546875 
Q 45.796875 14.203125 45.796875 21.1875 
Q 45.796875 27.640625 41.28125 31.265625 
Q 36.765625 34.90625 28.71875 34.90625 
L 20.21875 34.90625 
L 20.21875 43.015625 
L 29.109375 43.015625 
Q 36.375 43.015625 40.234375 45.921875 
Q 44.09375 48.828125 44.09375 54.296875 
Q 44.09375 59.90625 40.109375 62.90625 
Q 36.140625 65.921875 28.71875 65.921875 
Q 24.65625 65.921875 20.015625 65.03125 
Q 15.375 64.15625 9.8125 62.3125 
L 9.8125 71.09375 
Q 15.4375 72.65625 20.34375 73.4375 
Q 25.25 74.21875 29.59375 74.21875 
Q 40.828125 74.21875 47.359375 69.109375 
Q 53.90625 64.015625 53.90625 55.328125 
Q 53.90625 49.265625 50.4375 45.09375 
Q 46.96875 40.921875 40.578125 39.3125 
z
" id="DejaVuSans-33"/>
      </defs>
      <g transform="translate(94.845494 310.951846)rotate(-30)scale(0.1 -0.1)">
       <use xlink:href="#DejaVuSans-32"/>
       <use x="63.623047" xlink:href="#DejaVuSans-30"/>
       <use x="127.246094" xlink:href="#DejaVuSans-31"/>
       <use x="190.869141" xlink:href="#DejaVuSans-39"/>
       <use x="254.492188" xlink:href="#DejaVuSans-2d"/>
       <use x="290.576172" xlink:href="#DejaVuSans-30"/>
       <use x="354.199219" xlink:href="#DejaVuSans-33"/>
      </g>
     </g>
    </g>
    <g id="xtick_4">
     <g id="line2d_7">
      <path clip-path="url(#pa3b77f8f62)" d="M 162.669725 276.48 
L 162.669725 41.472 
" style="fill:none;stroke:#b0b0b0;stroke-linecap:square;stroke-width:0.8;"/>
     </g>
     <g id="line2d_8">
      <g>
       <use style="stroke:#000000;stroke-width:0.8;" x="162.669725" xlink:href="#m2ac15dbc96" y="276.48"/>
      </g>
     </g>
     <g id="text_4">
      <!-- 2019-04 -->
      <defs>
       <path d="M 37.796875 64.3125 
L 12.890625 25.390625 
L 37.796875 25.390625 
z
M 35.203125 72.90625 
L 47.609375 72.90625 
L 47.609375 25.390625 
L 58.015625 25.390625 
L 58.015625 17.1875 
L 47.609375 17.1875 
L 47.609375 0 
L 37.796875 0 
L 37.796875 17.1875 
L 4.890625 17.1875 
L 4.890625 26.703125 
z
" id="DejaVuSans-34"/>
      </defs>
      <g transform="translate(125.444904 310.951846)rotate(-30)scale(0.1 -0.1)">
       <use xlink:href="#DejaVuSans-32"/>
       <use x="63.623047" xlink:href="#DejaVuSans-30"/>
       <use x="127.246094" xlink:href="#DejaVuSans-31"/>
       <use x="190.869141" xlink:href="#DejaVuSans-39"/>
       <use x="254.492188" xlink:href="#DejaVuSans-2d"/>
       <use x="290.576172" xlink:href="#DejaVuSans-30"/>
       <use x="354.199219" xlink:href="#DejaVuSans-34"/>
      </g>
     </g>
    </g>
    <g id="xtick_5">
     <g id="line2d_9">
      <path clip-path="url(#pa3b77f8f62)" d="M 192.282058 276.48 
L 192.282058 41.472 
" style="fill:none;stroke:#b0b0b0;stroke-linecap:square;stroke-width:0.8;"/>
     </g>
     <g id="line2d_10">
      <g>
       <use style="stroke:#000000;stroke-width:0.8;" x="192.282058" xlink:href="#m2ac15dbc96" y="276.48"/>
      </g>
     </g>
     <g id="text_5">
      <!-- 2019-05 -->
      <defs>
       <path d="M 10.796875 72.90625 
L 49.515625 72.90625 
L 49.515625 64.59375 
L 19.828125 64.59375 
L 19.828125 46.734375 
Q 21.96875 47.46875 24.109375 47.828125 
Q 26.265625 48.1875 28.421875 48.1875 
Q 40.625 48.1875 47.75 41.5 
Q 54.890625 34.8125 54.890625 23.390625 
Q 54.890625 11.625 47.5625 5.09375 
Q 40.234375 -1.421875 26.90625 -1.421875 
Q 22.3125 -1.421875 17.546875 -0.640625 
Q 12.796875 0.140625 7.71875 1.703125 
L 7.71875 11.625 
Q 12.109375 9.234375 16.796875 8.0625 
Q 21.484375 6.890625 26.703125 6.890625 
Q 35.15625 6.890625 40.078125 11.328125 
Q 45.015625 15.765625 45.015625 23.390625 
Q 45.015625 31 40.078125 35.4375 
Q 35.15625 39.890625 26.703125 39.890625 
Q 22.75 39.890625 18.8125 39.015625 
Q 14.890625 38.140625 10.796875 36.28125 
z
" id="DejaVuSans-35"/>
      </defs>
      <g transform="translate(155.057237 310.951846)rotate(-30)scale(0.1 -0.1)">
       <use xlink:href="#DejaVuSans-32"/>
       <use x="63.623047" xlink:href="#DejaVuSans-30"/>
       <use x="127.246094" xlink:href="#DejaVuSans-31"/>
       <use x="190.869141" xlink:href="#DejaVuSans-39"/>
       <use x="254.492188" xlink:href="#DejaVuSans-2d"/>
       <use x="290.576172" xlink:href="#DejaVuSans-30"/>
       <use x="354.199219" xlink:href="#DejaVuSans-35"/>
      </g>
     </g>
    </g>
    <g id="xtick_6">
     <g id="line2d_11">
      <path clip-path="url(#pa3b77f8f62)" d="M 222.881468 276.48 
L 222.881468 41.472 
" style="fill:none;stroke:#b0b0b0;stroke-linecap:square;stroke-width:0.8;"/>
     </g>
     <g id="line2d_12">
      <g>
       <use style="stroke:#000000;stroke-width:0.8;" x="222.881468" xlink:href="#m2ac15dbc96" y="276.48"/>
      </g>
     </g>
     <g id="text_6">
      <!-- 2019-06 -->
      <defs>
       <path d="M 33.015625 40.375 
Q 26.375 40.375 22.484375 35.828125 
Q 18.609375 31.296875 18.609375 23.390625 
Q 18.609375 15.53125 22.484375 10.953125 
Q 26.375 6.390625 33.015625 6.390625 
Q 39.65625 6.390625 43.53125 10.953125 
Q 47.40625 15.53125 47.40625 23.390625 
Q 47.40625 31.296875 43.53125 35.828125 
Q 39.65625 40.375 33.015625 40.375 
z
M 52.59375 71.296875 
L 52.59375 62.3125 
Q 48.875 64.0625 45.09375 64.984375 
Q 41.3125 65.921875 37.59375 65.921875 
Q 27.828125 65.921875 22.671875 59.328125 
Q 17.53125 52.734375 16.796875 39.40625 
Q 19.671875 43.65625 24.015625 45.921875 
Q 28.375 48.1875 33.59375 48.1875 
Q 44.578125 48.1875 50.953125 41.515625 
Q 57.328125 34.859375 57.328125 23.390625 
Q 57.328125 12.15625 50.6875 5.359375 
Q 44.046875 -1.421875 33.015625 -1.421875 
Q 20.359375 -1.421875 13.671875 8.265625 
Q 6.984375 17.96875 6.984375 36.375 
Q 6.984375 53.65625 15.1875 63.9375 
Q 23.390625 74.21875 37.203125 74.21875 
Q 40.921875 74.21875 44.703125 73.484375 
Q 48.484375 72.75 52.59375 71.296875 
z
" id="DejaVuSans-36"/>
      </defs>
      <g transform="translate(185.656647 310.951846)rotate(-30)scale(0.1 -0.1)">
       <use xlink:href="#DejaVuSans-32"/>
       <use x="63.623047" xlink:href="#DejaVuSans-30"/>
       <use x="127.246094" xlink:href="#DejaVuSans-31"/>
       <use x="190.869141" xlink:href="#DejaVuSans-39"/>
       <use x="254.492188" xlink:href="#DejaVuSans-2d"/>
       <use x="290.576172" xlink:href="#DejaVuSans-30"/>
       <use x="354.199219" xlink:href="#DejaVuSans-36"/>
      </g>
     </g>
    </g>
    <g id="xtick_7">
     <g id="line2d_13">
      <path clip-path="url(#pa3b77f8f62)" d="M 252.4938 276.48 
L 252.4938 41.472 
" style="fill:none;stroke:#b0b0b0;stroke-linecap:square;stroke-width:0.8;"/>
     </g>
     <g id="line2d_14">
      <g>
       <use style="stroke:#000000;stroke-width:0.8;" x="252.4938" xlink:href="#m2ac15dbc96" y="276.48"/>
      </g>
     </g>
     <g id="text_7">
      <!-- 2019-07 -->
      <defs>
       <path d="M 8.203125 72.90625 
L 55.078125 72.90625 
L 55.078125 68.703125 
L 28.609375 0 
L 18.3125 0 
L 43.21875 64.59375 
L 8.203125 64.59375 
z
" id="DejaVuSans-37"/>
      </defs>
      <g transform="translate(215.26898 310.951846)rotate(-30)scale(0.1 -0.1)">
       <use xlink:href="#DejaVuSans-32"/>
       <use x="63.623047" xlink:href="#DejaVuSans-30"/>
       <use x="127.246094" xlink:href="#DejaVuSans-31"/>
       <use x="190.869141" xlink:href="#DejaVuSans-39"/>
       <use x="254.492188" xlink:href="#DejaVuSans-2d"/>
       <use x="290.576172" xlink:href="#DejaVuSans-30"/>
       <use x="354.199219" xlink:href="#DejaVuSans-37"/>
      </g>
     </g>
    </g>
    <g id="xtick_8">
     <g id="line2d_15">
      <path clip-path="url(#pa3b77f8f62)" d="M 283.093211 276.48 
L 283.093211 41.472 
" style="fill:none;stroke:#b0b0b0;stroke-linecap:square;stroke-width:0.8;"/>
     </g>
     <g id="line2d_16">
      <g>
       <use style="stroke:#000000;stroke-width:0.8;" x="283.093211" xlink:href="#m2ac15dbc96" y="276.48"/>
      </g>
     </g>
     <g id="text_8">
      <!-- 2019-08 -->
      <defs>
       <path d="M 31.78125 34.625 
Q 24.75 34.625 20.71875 30.859375 
Q 16.703125 27.09375 16.703125 20.515625 
Q 16.703125 13.921875 20.71875 10.15625 
Q 24.75 6.390625 31.78125 6.390625 
Q 38.8125 6.390625 42.859375 10.171875 
Q 46.921875 13.96875 46.921875 20.515625 
Q 46.921875 27.09375 42.890625 30.859375 
Q 38.875 34.625 31.78125 34.625 
z
M 21.921875 38.8125 
Q 15.578125 40.375 12.03125 44.71875 
Q 8.5 49.078125 8.5 55.328125 
Q 8.5 64.0625 14.71875 69.140625 
Q 20.953125 74.21875 31.78125 74.21875 
Q 42.671875 74.21875 48.875 69.140625 
Q 55.078125 64.0625 55.078125 55.328125 
Q 55.078125 49.078125 51.53125 44.71875 
Q 48 40.375 41.703125 38.8125 
Q 48.828125 37.15625 52.796875 32.3125 
Q 56.78125 27.484375 56.78125 20.515625 
Q 56.78125 9.90625 50.3125 4.234375 
Q 43.84375 -1.421875 31.78125 -1.421875 
Q 19.734375 -1.421875 13.25 4.234375 
Q 6.78125 9.90625 6.78125 20.515625 
Q 6.78125 27.484375 10.78125 32.3125 
Q 14.796875 37.15625 21.921875 38.8125 
z
M 18.3125 54.390625 
Q 18.3125 48.734375 21.84375 45.5625 
Q 25.390625 42.390625 31.78125 42.390625 
Q 38.140625 42.390625 41.71875 45.5625 
Q 45.3125 48.734375 45.3125 54.390625 
Q 45.3125 60.0625 41.71875 63.234375 
Q 38.140625 66.40625 31.78125 66.40625 
Q 25.390625 66.40625 21.84375 63.234375 
Q 18.3125 60.0625 18.3125 54.390625 
z
" id="DejaVuSans-38"/>
      </defs>
      <g transform="translate(245.86839 310.951846)rotate(-30)scale(0.1 -0.1)">
       <use xlink:href="#DejaVuSans-32"/>
       <use x="63.623047" xlink:href="#DejaVuSans-30"/>
       <use x="127.246094" xlink:href="#DejaVuSans-31"/>
       <use x="190.869141" xlink:href="#DejaVuSans-39"/>
       <use x="254.492188" xlink:href="#DejaVuSans-2d"/>
       <use x="290.576172" xlink:href="#DejaVuSans-30"/>
       <use x="354.199219" xlink:href="#DejaVuSans-38"/>
      </g>
     </g>
    </g>
    <g id="xtick_9">
     <g id="line2d_17">
      <path clip-path="url(#pa3b77f8f62)" d="M 313.692621 276.48 
L 313.692621 41.472 
" style="fill:none;stroke:#b0b0b0;stroke-linecap:square;stroke-width:0.8;"/>
     </g>
     <g id="line2d_18">
      <g>
       <use style="stroke:#000000;stroke-width:0.8;" x="313.692621" xlink:href="#m2ac15dbc96" y="276.48"/>
      </g>
     </g>
     <g id="text_9">
      <!-- 2019-09 -->
      <g transform="translate(276.4678 310.951846)rotate(-30)scale(0.1 -0.1)">
       <use xlink:href="#DejaVuSans-32"/>
       <use x="63.623047" xlink:href="#DejaVuSans-30"/>
       <use x="127.246094" xlink:href="#DejaVuSans-31"/>
       <use x="190.869141" xlink:href="#DejaVuSans-39"/>
       <use x="254.492188" xlink:href="#DejaVuSans-2d"/>
       <use x="290.576172" xlink:href="#DejaVuSans-30"/>
       <use x="354.199219" xlink:href="#DejaVuSans-39"/>
      </g>
     </g>
    </g>
    <g id="xtick_10">
     <g id="line2d_19">
      <path clip-path="url(#pa3b77f8f62)" d="M 343.304954 276.48 
L 343.304954 41.472 
" style="fill:none;stroke:#b0b0b0;stroke-linecap:square;stroke-width:0.8;"/>
     </g>
     <g id="line2d_20">
      <g>
       <use style="stroke:#000000;stroke-width:0.8;" x="343.304954" xlink:href="#m2ac15dbc96" y="276.48"/>
      </g>
     </g>
     <g id="text_10">
      <!-- 2019-10 -->
      <g transform="translate(306.080133 310.951846)rotate(-30)scale(0.1 -0.1)">
       <use xlink:href="#DejaVuSans-32"/>
       <use x="63.623047" xlink:href="#DejaVuSans-30"/>
       <use x="127.246094" xlink:href="#DejaVuSans-31"/>
       <use x="190.869141" xlink:href="#DejaVuSans-39"/>
       <use x="254.492188" xlink:href="#DejaVuSans-2d"/>
       <use x="290.576172" xlink:href="#DejaVuSans-31"/>
       <use x="354.199219" xlink:href="#DejaVuSans-30"/>
      </g>
     </g>
    </g>
    <g id="xtick_11">
     <g id="line2d_21">
      <path clip-path="url(#pa3b77f8f62)" d="M 373.904364 276.48 
L 373.904364 41.472 
" style="fill:none;stroke:#b0b0b0;stroke-linecap:square;stroke-width:0.8;"/>
     </g>
     <g id="line2d_22">
      <g>
       <use style="stroke:#000000;stroke-width:0.8;" x="373.904364" xlink:href="#m2ac15dbc96" y="276.48"/>
      </g>
     </g>
     <g id="text_11">
      <!-- 2019-11 -->
      <g transform="translate(336.679543 310.951846)rotate(-30)scale(0.1 -0.1)">
       <use xlink:href="#DejaVuSans-32"/>
       <use x="63.623047" xlink:href="#DejaVuSans-30"/>
       <use x="127.246094" xlink:href="#DejaVuSans-31"/>
       <use x="190.869141" xlink:href="#DejaVuSans-39"/>
       <use x="254.492188" xlink:href="#DejaVuSans-2d"/>
       <use x="290.576172" xlink:href="#DejaVuSans-31"/>
       <use x="354.199219" xlink:href="#DejaVuSans-31"/>
      </g>
     </g>
    </g>
    <g id="xtick_12">
     <g id="line2d_23">
      <path clip-path="url(#pa3b77f8f62)" d="M 403.516697 276.48 
L 403.516697 41.472 
" style="fill:none;stroke:#b0b0b0;stroke-linecap:square;stroke-width:0.8;"/>
     </g>
     <g id="line2d_24">
      <g>
       <use style="stroke:#000000;stroke-width:0.8;" x="403.516697" xlink:href="#m2ac15dbc96" y="276.48"/>
      </g>
     </g>
     <g id="text_12">
      <!-- 2019-12 -->
      <g transform="translate(366.291876 310.951846)rotate(-30)scale(0.1 -0.1)">
       <use xlink:href="#DejaVuSans-32"/>
       <use x="63.623047" xlink:href="#DejaVuSans-30"/>
       <use x="127.246094" xlink:href="#DejaVuSans-31"/>
       <use x="190.869141" xlink:href="#DejaVuSans-39"/>
       <use x="254.492188" xlink:href="#DejaVuSans-2d"/>
       <use x="290.576172" xlink:href="#DejaVuSans-31"/>
       <use x="354.199219" xlink:href="#DejaVuSans-32"/>
      </g>
     </g>
    </g>
    <g id="text_13">
     <!-- date -->
     <defs>
      <path d="M 45.40625 46.390625 
L 45.40625 75.984375 
L 54.390625 75.984375 
L 54.390625 0 
L 45.40625 0 
L 45.40625 8.203125 
Q 42.578125 3.328125 38.25 0.953125 
Q 33.9375 -1.421875 27.875 -1.421875 
Q 17.96875 -1.421875 11.734375 6.484375 
Q 5.515625 14.40625 5.515625 27.296875 
Q 5.515625 40.1875 11.734375 48.09375 
Q 17.96875 56 27.875 56 
Q 33.9375 56 38.25 53.625 
Q 42.578125 51.265625 45.40625 46.390625 
z
M 14.796875 27.296875 
Q 14.796875 17.390625 18.875 11.75 
Q 22.953125 6.109375 30.078125 6.109375 
Q 37.203125 6.109375 41.296875 11.75 
Q 45.40625 17.390625 45.40625 27.296875 
Q 45.40625 37.203125 41.296875 42.84375 
Q 37.203125 48.484375 30.078125 48.484375 
Q 22.953125 48.484375 18.875 42.84375 
Q 14.796875 37.203125 14.796875 27.296875 
z
" id="DejaVuSans-64"/>
      <path d="M 34.28125 27.484375 
Q 23.390625 27.484375 19.1875 25 
Q 14.984375 22.515625 14.984375 16.5 
Q 14.984375 11.71875 18.140625 8.90625 
Q 21.296875 6.109375 26.703125 6.109375 
Q 34.1875 6.109375 38.703125 11.40625 
Q 43.21875 16.703125 43.21875 25.484375 
L 43.21875 27.484375 
z
M 52.203125 31.203125 
L 52.203125 0 
L 43.21875 0 
L 43.21875 8.296875 
Q 40.140625 3.328125 35.546875 0.953125 
Q 30.953125 -1.421875 24.3125 -1.421875 
Q 15.921875 -1.421875 10.953125 3.296875 
Q 6 8.015625 6 15.921875 
Q 6 25.140625 12.171875 29.828125 
Q 18.359375 34.515625 30.609375 34.515625 
L 43.21875 34.515625 
L 43.21875 35.40625 
Q 43.21875 41.609375 39.140625 45 
Q 35.0625 48.390625 27.6875 48.390625 
Q 23 48.390625 18.546875 47.265625 
Q 14.109375 46.140625 10.015625 43.890625 
L 10.015625 52.203125 
Q 14.9375 54.109375 19.578125 55.046875 
Q 24.21875 56 28.609375 56 
Q 40.484375 56 46.34375 49.84375 
Q 52.203125 43.703125 52.203125 31.203125 
z
" id="DejaVuSans-61"/>
      <path d="M 18.3125 70.21875 
L 18.3125 54.6875 
L 36.8125 54.6875 
L 36.8125 47.703125 
L 18.3125 47.703125 
L 18.3125 18.015625 
Q 18.3125 11.328125 20.140625 9.421875 
Q 21.96875 7.515625 27.59375 7.515625 
L 36.8125 7.515625 
L 36.8125 0 
L 27.59375 0 
Q 17.1875 0 13.234375 3.875 
Q 9.28125 7.765625 9.28125 18.015625 
L 9.28125 47.703125 
L 2.6875 47.703125 
L 2.6875 54.6875 
L 9.28125 54.6875 
L 9.28125 70.21875 
z
" id="DejaVuSans-74"/>
      <path d="M 56.203125 29.59375 
L 56.203125 25.203125 
L 14.890625 25.203125 
Q 15.484375 15.921875 20.484375 11.0625 
Q 25.484375 6.203125 34.421875 6.203125 
Q 39.59375 6.203125 44.453125 7.46875 
Q 49.3125 8.734375 54.109375 11.28125 
L 54.109375 2.78125 
Q 49.265625 0.734375 44.1875 -0.34375 
Q 39.109375 -1.421875 33.890625 -1.421875 
Q 20.796875 -1.421875 13.15625 6.1875 
Q 5.515625 13.8125 5.515625 26.8125 
Q 5.515625 40.234375 12.765625 48.109375 
Q 20.015625 56 32.328125 56 
Q 43.359375 56 49.78125 48.890625 
Q 56.203125 41.796875 56.203125 29.59375 
z
M 47.21875 32.234375 
Q 47.125 39.59375 43.09375 43.984375 
Q 39.0625 48.390625 32.421875 48.390625 
Q 24.90625 48.390625 20.390625 44.140625 
Q 15.875 39.890625 15.1875 32.171875 
z
" id="DejaVuSans-65"/>
     </defs>
     <g transform="translate(224.885 324.351346)scale(0.1 -0.1)">
      <use xlink:href="#DejaVuSans-64"/>
      <use x="63.476562" xlink:href="#DejaVuSans-61"/>
      <use x="124.755859" xlink:href="#DejaVuSans-74"/>
      <use x="163.964844" xlink:href="#DejaVuSans-65"/>
     </g>
    </g>
   </g>
   <g id="matplotlib.axis_2">
    <g id="ytick_1">
     <g id="line2d_25">
      <path clip-path="url(#pa3b77f8f62)" d="M 57.6 265.797818 
L 414.72 265.797818 
" style="fill:none;stroke:#b0b0b0;stroke-linecap:square;stroke-width:0.8;"/>
     </g>
     <g id="line2d_26">
      <defs>
       <path d="M 0 0 
L -3.5 0 
" id="mb9c85fdd74" style="stroke:#000000;stroke-width:0.8;"/>
      </defs>
      <g>
       <use style="stroke:#000000;stroke-width:0.8;" x="57.6" xlink:href="#mb9c85fdd74" y="265.797818"/>
      </g>
     </g>
     <g id="text_14">
      <!-- 0 -->
      <g transform="translate(44.2375 269.597037)scale(0.1 -0.1)">
       <use xlink:href="#DejaVuSans-30"/>
      </g>
     </g>
    </g>
    <g id="ytick_2">
     <g id="line2d_27">
      <path clip-path="url(#pa3b77f8f62)" d="M 57.6 225.678277 
L 414.72 225.678277 
" style="fill:none;stroke:#b0b0b0;stroke-linecap:square;stroke-width:0.8;"/>
     </g>
     <g id="line2d_28">
      <g>
       <use style="stroke:#000000;stroke-width:0.8;" x="57.6" xlink:href="#mb9c85fdd74" y="225.678277"/>
      </g>
     </g>
     <g id="text_15">
      <!-- 2000 -->
      <g transform="translate(25.15 229.477496)scale(0.1 -0.1)">
       <use xlink:href="#DejaVuSans-32"/>
       <use x="63.623047" xlink:href="#DejaVuSans-30"/>
       <use x="127.246094" xlink:href="#DejaVuSans-30"/>
       <use x="190.869141" xlink:href="#DejaVuSans-30"/>
      </g>
     </g>
    </g>
    <g id="ytick_3">
     <g id="line2d_29">
      <path clip-path="url(#pa3b77f8f62)" d="M 57.6 185.558737 
L 414.72 185.558737 
" style="fill:none;stroke:#b0b0b0;stroke-linecap:square;stroke-width:0.8;"/>
     </g>
     <g id="line2d_30">
      <g>
       <use style="stroke:#000000;stroke-width:0.8;" x="57.6" xlink:href="#mb9c85fdd74" y="185.558737"/>
      </g>
     </g>
     <g id="text_16">
      <!-- 4000 -->
      <g transform="translate(25.15 189.357955)scale(0.1 -0.1)">
       <use xlink:href="#DejaVuSans-34"/>
       <use x="63.623047" xlink:href="#DejaVuSans-30"/>
       <use x="127.246094" xlink:href="#DejaVuSans-30"/>
       <use x="190.869141" xlink:href="#DejaVuSans-30"/>
      </g>
     </g>
    </g>
    <g id="ytick_4">
     <g id="line2d_31">
      <path clip-path="url(#pa3b77f8f62)" d="M 57.6 145.439196 
L 414.72 145.439196 
" style="fill:none;stroke:#b0b0b0;stroke-linecap:square;stroke-width:0.8;"/>
     </g>
     <g id="line2d_32">
      <g>
       <use style="stroke:#000000;stroke-width:0.8;" x="57.6" xlink:href="#mb9c85fdd74" y="145.439196"/>
      </g>
     </g>
     <g id="text_17">
      <!-- 6000 -->
      <g transform="translate(25.15 149.238414)scale(0.1 -0.1)">
       <use xlink:href="#DejaVuSans-36"/>
       <use x="63.623047" xlink:href="#DejaVuSans-30"/>
       <use x="127.246094" xlink:href="#DejaVuSans-30"/>
       <use x="190.869141" xlink:href="#DejaVuSans-30"/>
      </g>
     </g>
    </g>
    <g id="ytick_5">
     <g id="line2d_33">
      <path clip-path="url(#pa3b77f8f62)" d="M 57.6 105.319655 
L 414.72 105.319655 
" style="fill:none;stroke:#b0b0b0;stroke-linecap:square;stroke-width:0.8;"/>
     </g>
     <g id="line2d_34">
      <g>
       <use style="stroke:#000000;stroke-width:0.8;" x="57.6" xlink:href="#mb9c85fdd74" y="105.319655"/>
      </g>
     </g>
     <g id="text_18">
      <!-- 8000 -->
      <g transform="translate(25.15 109.118874)scale(0.1 -0.1)">
       <use xlink:href="#DejaVuSans-38"/>
       <use x="63.623047" xlink:href="#DejaVuSans-30"/>
       <use x="127.246094" xlink:href="#DejaVuSans-30"/>
       <use x="190.869141" xlink:href="#DejaVuSans-30"/>
      </g>
     </g>
    </g>
    <g id="ytick_6">
     <g id="line2d_35">
      <path clip-path="url(#pa3b77f8f62)" d="M 57.6 65.200114 
L 414.72 65.200114 
" style="fill:none;stroke:#b0b0b0;stroke-linecap:square;stroke-width:0.8;"/>
     </g>
     <g id="line2d_36">
      <g>
       <use style="stroke:#000000;stroke-width:0.8;" x="57.6" xlink:href="#mb9c85fdd74" y="65.200114"/>
      </g>
     </g>
     <g id="text_19">
      <!-- 10000 -->
      <g transform="translate(18.7875 68.999333)scale(0.1 -0.1)">
       <use xlink:href="#DejaVuSans-31"/>
       <use x="63.623047" xlink:href="#DejaVuSans-30"/>
       <use x="127.246094" xlink:href="#DejaVuSans-30"/>
       <use x="190.869141" xlink:href="#DejaVuSans-30"/>
       <use x="254.492188" xlink:href="#DejaVuSans-30"/>
      </g>
     </g>
    </g>
    <g id="text_20">
     <!-- EUR -->
     <defs>
      <path d="M 9.8125 72.90625 
L 55.90625 72.90625 
L 55.90625 64.59375 
L 19.671875 64.59375 
L 19.671875 43.015625 
L 54.390625 43.015625 
L 54.390625 34.71875 
L 19.671875 34.71875 
L 19.671875 8.296875 
L 56.78125 8.296875 
L 56.78125 0 
L 9.8125 0 
z
" id="DejaVuSans-45"/>
      <path d="M 8.6875 72.90625 
L 18.609375 72.90625 
L 18.609375 28.609375 
Q 18.609375 16.890625 22.84375 11.734375 
Q 27.09375 6.59375 36.625 6.59375 
Q 46.09375 6.59375 50.34375 11.734375 
Q 54.59375 16.890625 54.59375 28.609375 
L 54.59375 72.90625 
L 64.5 72.90625 
L 64.5 27.390625 
Q 64.5 13.140625 57.4375 5.859375 
Q 50.390625 -1.421875 36.625 -1.421875 
Q 22.796875 -1.421875 15.734375 5.859375 
Q 8.6875 13.140625 8.6875 27.390625 
z
" id="DejaVuSans-55"/>
      <path d="M 44.390625 34.1875 
Q 47.5625 33.109375 50.5625 29.59375 
Q 53.5625 26.078125 56.59375 19.921875 
L 66.609375 0 
L 56 0 
L 46.6875 18.703125 
Q 43.0625 26.03125 39.671875 28.421875 
Q 36.28125 30.8125 30.421875 30.8125 
L 19.671875 30.8125 
L 19.671875 0 
L 9.8125 0 
L 9.8125 72.90625 
L 32.078125 72.90625 
Q 44.578125 72.90625 50.734375 67.671875 
Q 56.890625 62.453125 56.890625 51.90625 
Q 56.890625 45.015625 53.6875 40.46875 
Q 50.484375 35.9375 44.390625 34.1875 
z
M 19.671875 64.796875 
L 19.671875 38.921875 
L 32.078125 38.921875 
Q 39.203125 38.921875 42.84375 42.21875 
Q 46.484375 45.515625 46.484375 51.90625 
Q 46.484375 58.296875 42.84375 61.546875 
Q 39.203125 64.796875 32.078125 64.796875 
z
" id="DejaVuSans-52"/>
     </defs>
     <g transform="translate(12.707813 169.268969)rotate(-90)scale(0.1 -0.1)">
      <use xlink:href="#DejaVuSans-45"/>
      <use x="63.183594" xlink:href="#DejaVuSans-55"/>
      <use x="136.376953" xlink:href="#DejaVuSans-52"/>
     </g>
    </g>
   </g>
   <g id="line2d_37">
    <path clip-path="url(#pa3b77f8f62)" d="M 73.832727 265.797818 
L 108.380449 265.708054 
L 108.380449 265.689108 
L 114.302915 265.538334 
L 114.302915 265.416356 
L 114.302915 265.416356 
L 116.277071 265.346562 
L 116.277071 265.309624 
L 116.277071 265.139649 
L 121.212459 264.986368 
L 121.212459 264.794907 
L 124.173693 264.671147 
L 124.173693 264.6534 
L 124.173693 264.6534 
L 129.109081 264.539192 
L 129.109081 264.518073 
L 134.04447 264.408895 
L 134.04447 264.408488 
L 135.031548 264.297515 
L 135.031548 264.113202 
L 137.005703 264.005083 
L 137.005703 263.960929 
L 138.979859 263.848488 
L 138.979859 263.80289 
L 142.92817 263.692141 
L 142.92817 263.637364 
L 143.915248 263.524989 
L 143.915248 263.471487 
L 143.915248 263.471487 
L 148.850636 263.339975 
L 148.850636 263.227701 
L 152.798947 263.121651 
L 152.798947 263.093678 
L 159.708492 262.962389 
L 159.708492 262.943119 
L 163.656803 262.833583 
L 164.643881 262.72826 
L 164.643881 262.689601 
L 165.630958 262.577943 
L 165.630958 262.559098 
L 169.579269 262.440316 
L 169.579269 262.370555 
L 172.540503 262.248063 
L 172.540503 262.202358 
L 176.488814 262.128111 
L 176.488814 262.094069 
L 176.488814 261.869455 
L 179.450047 261.743189 
L 179.450047 261.541193 
L 184.385436 261.424882 
L 184.385436 261.415086 
L 190.307902 261.274283 
L 190.307902 261.241786 
L 194.256213 261.087859 
L 194.256213 261.005745 
L 194.256213 261.005745 
L 197.217446 260.882867 
L 197.217446 260.816987 
L 199.191602 260.695499 
L 199.191602 260.690319 
L 204.126991 260.559291 
L 204.126991 260.559291 
L 204.126991 260.407983 
L 206.101146 260.300286 
L 206.101146 260.253649 
L 211.036535 260.094171 
L 211.036535 259.982553 
L 214.984846 259.838113 
L 214.984846 259.826225 
L 224.855623 259.707751 
L 224.855623 259.57322 
L 225.842701 259.457272 
L 225.842701 259.456134 
L 228.803934 259.322096 
L 228.803934 259.288303 
L 231.765168 259.162142 
L 231.765168 259.10996 
L 233.739323 259.009294 
L 233.739323 258.90672 
L 234.726401 258.797558 
L 234.726401 258.759894 
L 234.726401 258.759894 
L 238.674712 258.639728 
L 238.674712 258.608059 
L 238.674712 258.608059 
L 239.66179 258.497096 
L 239.66179 258.393017 
L 242.623023 258.28164 
L 242.623023 258.272346 
L 249.532567 258.148838 
L 249.532567 258.124804 
L 252.4938 258.008549 
L 252.4938 257.9354 
L 252.4938 257.9354 
L 253.480878 257.862525 
L 253.480878 257.794078 
L 254.467956 257.682882 
L 254.467956 257.172853 
L 255.455034 257.050067 
L 255.455034 256.567151 
L 256.442112 256.567151 
L 256.442112 256.459724 
L 256.442112 256.358277 
L 259.403345 256.23432 
L 259.403345 255.495194 
L 260.390423 255.383842 
L 260.390423 255.343756 
L 261.3775 255.343756 
L 261.3775 255.289186 
L 261.3775 255.000088 
L 263.351656 254.884468 
L 263.351656 254.674489 
L 263.351656 254.674489 
L 266.312889 254.560431 
L 266.312889 254.560431 
L 266.312889 254.330943 
L 267.299967 254.22183 
L 267.299967 254.087287 
L 268.287045 253.977864 
L 268.287045 253.732714 
L 269.274122 253.621714 
L 269.274122 253.18269 
L 270.2612 253.124726 
L 270.2612 252.913073 
L 273.222433 252.677267 
L 273.222433 252.610624 
L 274.209511 252.511902 
L 274.209511 252.298508 
L 277.170744 252.180587 
L 277.170744 252.10876 
L 280.131978 251.997783 
L 280.131978 251.995484 
L 282.106133 251.910357 
L 282.106133 251.815847 
L 283.093211 251.701185 
L 283.093211 251.489965 
L 284.080289 251.378585 
L 284.080289 251.349639 
L 287.041522 251.242764 
L 287.041522 251.242764 
L 287.041522 250.0483 
L 288.0286 249.936889 
L 288.0286 249.474265 
L 289.015677 249.364921 
L 289.015677 249.240976 
L 290.002755 249.240976 
L 290.002755 249.13029 
L 290.002755 248.984125 
L 290.989833 248.886385 
L 290.989833 248.823249 
L 293.951066 248.705455 
L 293.951066 248.705455 
L 293.951066 248.501363 
L 294.938144 248.393319 
L 294.938144 248.2986 
L 295.925222 248.187 
L 295.925222 248.169022 
L 295.925222 248.169022 
L 296.912299 248.169022 
L 296.912299 248.077832 
L 296.912299 247.94659 
L 297.899377 247.836284 
L 297.899377 247.567963 
L 300.86061 247.444812 
L 300.86061 246.745673 
L 301.847688 246.745673 
L 301.847688 246.639499 
L 301.847688 246.56075 
L 302.834766 246.449399 
L 302.834766 246.414468 
L 304.808921 246.304054 
L 304.808921 246.168964 
L 307.770155 246.07451 
L 307.770155 245.964813 
L 309.74431 245.873387 
L 309.74431 245.856099 
L 309.74431 245.75465 
L 309.74431 245.75465 
L 312.705543 245.654471 
L 312.705543 245.571795 
L 314.679699 245.456727 
L 314.679699 245.308077 
L 314.679699 245.308077 
L 315.666777 245.200701 
L 315.666777 244.879179 
L 316.653854 244.775388 
L 316.653854 244.282304 
L 317.640932 244.170306 
L 317.640932 243.861376 
L 318.62801 243.752103 
L 318.62801 243.317427 
L 321.589243 243.200208 
L 321.589243 242.896714 
L 322.576321 242.78685 
L 322.576321 242.662401 
L 323.563399 242.555312 
L 323.563399 242.543044 
L 325.537554 242.434985 
L 325.537554 242.170003 
L 328.498787 242.05621 
L 328.498787 241.53577 
L 329.485865 241.424803 
L 329.485865 241.278233 
L 330.472943 241.278233 
L 330.472943 241.167622 
L 330.472943 240.82948 
L 331.460021 240.719258 
L 331.460021 240.682544 
L 332.447098 240.575007 
L 332.447098 240.490843 
L 335.408332 240.378257 
L 335.408332 240.314738 
L 336.395409 240.244912 
L 336.395409 240.041515 
L 338.369565 239.932112 
L 338.369565 239.766886 
L 341.330798 239.657479 
L 341.330798 239.655785 
L 341.330798 239.645873 
L 343.304954 239.559529 
L 343.304954 239.273752 
L 345.279109 239.162231 
L 345.279109 239.162231 
L 345.279109 238.854865 
L 346.266187 238.722437 
L 346.266187 238.233329 
L 349.22742 238.125888 
L 349.22742 237.583403 
L 350.214498 237.452 
L 350.214498 237.322608 
L 352.188654 237.227519 
L 352.188654 237.211948 
L 352.188654 237.025083 
L 356.136965 236.913463 
L 356.136965 236.581764 
L 357.124042 236.470766 
L 357.124042 236.33078 
L 358.11112 236.212636 
L 358.11112 235.838174 
L 359.098198 235.72595 
L 359.098198 235.55744 
L 360.085276 235.448667 
L 360.085276 235.108807 
L 363.046509 235.019805 
L 363.046509 234.699844 
L 364.033587 234.58855 
L 365.020664 234.496657 
L 365.020664 234.376617 
L 366.007742 234.376617 
L 366.007742 234.266702 
L 366.007742 234.237427 
L 366.99482 234.125431 
L 366.99482 234.116508 
L 370.943131 234.001893 
L 370.943131 233.884641 
L 370.943131 233.884641 
L 372.917286 233.789863 
L 372.917286 233.752579 
L 373.904364 233.640767 
L 373.904364 233.610913 
L 376.865597 233.503248 
L 376.865597 232.725228 
L 376.865597 232.725228 
L 377.852675 232.629256 
L 377.852675 232.226968 
L 378.839753 232.127117 
L 378.839753 231.914818 
L 378.839753 231.914818 
L 379.826831 231.805311 
L 379.826831 231.685788 
L 379.826831 231.685788 
L 380.813908 231.574532 
L 380.813908 231.534023 
L 383.775142 231.418156 
L 383.775142 231.219552 
L 383.775142 231.219552 
L 385.749297 231.109309 
L 385.749297 230.910335 
L 387.723453 230.800761 
L 387.723453 230.676924 
L 390.684686 230.555122 
L 390.684686 230.555122 
L 390.684686 229.751195 
L 392.658841 229.641755 
L 392.658841 229.582628 
L 393.645919 229.470205 
L 393.645919 229.427278 
L 396.607152 229.314512 
L 396.607152 229.309577 
L 397.59423 229.309577 
L 397.59423 229.202266 
" style="fill:none;stroke:#0000ff;stroke-linecap:square;stroke-width:1.5;"/>
   </g>
   <g id="line2d_38">
    <path clip-path="url(#pa3b77f8f62)" d="M 73.832727 265.797818 
L 76.669833 265.717579 
L 76.828554 255.687694 
L 77.062162 255.828112 
L 77.510083 258.756839 
L 77.665868 259.980485 
L 77.864677 260.481979 
L 78.036787 260.702636 
L 78.193783 261.464908 
L 78.467754 262.828972 
L 78.531903 263.250227 
L 78.867829 264.072678 
L 79.265162 264.654411 
L 79.269058 264.834949 
L 79.468656 265.015487 
L 79.560577 265.196025 
L 79.663706 265.396623 
L 80.184927 265.496677 
L 80.185612 225.377136 
L 80.281727 227.022037 
L 80.334291 228.004966 
L 80.439773 245.818042 
L 80.545941 248.886718 
L 80.564929 249.127435 
L 80.756107 255.703085 
L 80.93602 255.900127 
L 81.042211 257.897737 
L 81.059622 257.892402 
L 81.117361 257.972641 
L 81.231458 260.760949 
L 81.477919 263.428898 
L 81.541747 263.227987 
L 81.564905 263.448645 
L 81.838328 264.190331 
L 82.223688 264.350809 
L 82.268952 264.992722 
L 82.407977 265.032842 
L 82.474365 265.19332 
L 82.604124 265.594515 
L 83.256601 265.694578 
L 83.357136 265.734698 
L 84.042767 265.768464 
L 84.166563 265.566535 
L 84.223423 265.686622 
L 84.329659 265.7468 
L 87.365609 265.786919 
L 88.108568 265.583659 
L 88.113412 265.683958 
L 88.120107 265.744137 
L 89.102146 265.784257 
L 90.391048 265.601601 
L 90.40053 265.782139 
L 93.973592 265.761962 
L 93.973592 265.570309 
L 93.97598 265.770907 
L 94.192851 265.758688 
L 107.729114 265.78374 
L 107.729114 265.74799 
L 107.729114 265.720359 
L 107.74239 265.780538 
L 107.800129 265.769472 
L 107.898574 265.789532 
L 108.807394 265.785753 
L 109.229575 265.577678 
L 109.676388 265.558217 
L 109.676388 265.452925 
L 109.708502 265.553224 
L 112.051921 265.7968 
L 114.918571 265.685881 
L 114.946161 265.511784 
L 114.937547 265.717262 
L 115.016284 265.632142 
L 116.598911 265.490676 
L 116.638142 265.442609 
L 116.691483 265.497512 
L 116.704107 265.487081 
L 116.73573 265.457541 
L 116.967751 265.708609 
L 117.021937 265.601654 
L 117.057856 265.681893 
L 118.666816 265.767102 
L 118.7104 265.785285 
L 118.7104 265.778986 
L 121.540914 265.636988 
L 121.557674 265.600787 
L 121.609198 265.660966 
L 121.623239 265.660215 
L 122.580659 265.761175 
L 122.704455 265.795754 
L 123.070485 265.778706 
L 123.703631 265.79047 
L 123.762456 257.246612 
L 123.847466 260.927275 
L 123.907479 264.25507 
L 124.647867 264.337084 
L 124.659246 263.835177 
L 124.677788 264.316611 
L 124.77621 264.336671 
L 124.841741 265.098942 
L 124.88929 265.085646 
L 124.910037 265.105706 
L 125.502569 265.096072 
L 125.543754 264.890349 
L 125.556401 265.111006 
L 125.584883 265.109909 
L 125.790535 265.145196 
L 125.918101 265.603963 
L 125.918101 265.602585 
L 126.655051 265.615254 
L 126.785096 265.755673 
L 128.883185 265.648329 
L 128.940022 265.636207 
L 128.944009 265.696387 
L 135.382269 265.585922 
L 135.466296 265.520322 
L 135.490859 265.64068 
L 135.630638 265.725492 
L 135.630638 265.70495 
L 135.792032 265.720293 
L 135.792032 265.716464 
L 135.792032 265.513239 
L 135.900062 265.733896 
L 137.296629 265.733929 
L 137.296629 265.702675 
L 137.296629 265.694289 
L 137.367655 265.734409 
L 137.40587 265.72913 
L 142.871242 265.75406 
L 142.891977 265.557163 
L 142.918048 265.697582 
L 143.285734 265.661062 
L 143.320385 265.57013 
L 143.367842 265.676483 
L 143.5202 265.716601 
L 143.5202 265.698484 
L 144.267717 265.587715 
L 144.303304 265.565769 
L 144.362197 265.726247 
L 160.583575 265.586537 
L 160.583575 265.254855 
L 160.599169 265.796469 
L 164.032898 265.746115 
L 164.123745 265.639419 
L 164.165102 265.75477 
L 164.334162 265.63875 
L 164.368458 265.109863 
L 164.368607 264.378931 
L 164.413871 265.357233 
L 164.641253 265.343669 
L 164.705561 265.56563 
L 164.952034 265.454462 
L 165.033228 265.408188 
L 165.352509 265.44375 
L 165.352509 265.438827 
L 166.256062 265.306302 
L 166.256062 265.300721 
L 166.360379 265.7811 
L 166.384679 265.79181 
L 166.504888 265.411907 
L 166.519043 265.612504 
L 167.412999 265.573788 
L 167.476702 265.774386 
L 177.243894 265.651827 
L 177.243894 265.57951 
L 177.313389 265.677423 
L 177.34163 265.652516 
L 177.508714 265.749854 
L 179.769647 265.643561 
L 179.797809 265.551585 
L 179.859855 265.679642 
L 180.005404 265.742227 
L 180.005404 265.736557 
L 181.960423 265.796808 
L 194.577253 265.688759 
L 194.577253 265.642832 
L 194.660858 265.737165 
L 194.686026 265.735788 
L 194.728262 265.755388 
L 194.728262 265.755159 
L 204.464414 265.637261 
L 204.490964 265.591847 
L 204.52397 265.672086 
L 204.572078 265.63906 
L 204.696205 265.735244 
L 204.696205 265.723634 
L 208.371311 265.75061 
L 208.71857 265.795257 
L 211.356513 265.688381 
L 211.356513 265.606009 
L 211.463115 265.716239 
L 211.578102 265.723435 
L 211.578102 265.723012 
L 218.463404 265.779432 
L 218.522149 263.778871 
L 218.5779 264.573992 
L 219.888703 264.592598 
L 220.30034 264.590555 
L 220.504861 265.794142 
L 220.630359 264.581383 
L 221.330282 264.581579 
L 221.516433 264.822297 
L 221.532073 265.785166 
L 225.190841 265.67617 
L 225.249426 265.653561 
L 225.280307 265.71374 
L 225.291994 265.707211 
L 230.306269 265.777065 
L 232.132706 265.710276 
L 232.132706 265.702634 
L 232.15608 265.677328 
L 232.203675 265.725238 
L 232.233367 265.713707 
L 234.419379 265.638098 
L 234.460758 265.434956 
L 234.48427 265.659626 
L 235.061493 265.545871 
L 235.0982 265.471859 
L 235.160064 265.493588 
L 235.40536 265.697169 
L 235.40536 265.691853 
L 237.378316 265.767292 
L 237.451558 265.787352 
L 239.988462 265.683325 
L 239.988462 265.582241 
L 240.070913 265.638745 
L 241.230821 265.710744 
L 241.558681 265.745735 
L 241.558681 265.745432 
L 249.256814 265.66338 
L 249.256814 265.713692 
L 249.260527 265.159108 
L 249.262949 265.709567 
L 249.423714 265.700629 
L 249.430478 265.410561 
L 249.433882 265.711457 
L 250.369001 265.640798 
L 250.393484 264.514168 
L 250.393496 264.494507 
L 250.397528 265.650657 
L 250.409787 265.649872 
L 251.182164 265.712848 
L 251.182404 262.162353 
L 251.287464 265.78035 
L 251.302235 265.742699 
L 251.306634 263.995517 
L 251.310632 265.789622 
L 251.403982 265.224874 
L 251.456661 265.793969 
L 251.45874 264.676668 
L 251.458797 263.581111 
L 251.518718 265.797119 
L 251.563251 265.79377 
L 252.807186 265.694944 
L 252.807186 265.60204 
L 252.89391 265.797108 
L 252.922688 265.796693 
L 252.945103 215.647267 
L 253.046016 232.755376 
L 253.050151 233.306622 
L 253.154034 244.590693 
L 253.164374 244.817161 
L 253.267971 262.363956 
L 253.278322 262.546299 
L 253.351187 264.592263 
L 253.371443 264.588668 
L 254.100567 264.672912 
L 254.100681 265.785268 
L 254.194328 265.781406 
L 254.778828 265.693337 
L 254.820551 215.645862 
L 254.788014 265.795288 
L 254.889235 221.938074 
L 254.902522 222.79847 
L 255.006667 230.718982 
L 255.012928 230.713703 
L 255.017064 231.256184 
L 255.121198 242.200632 
L 255.13164 243.942311 
L 255.183724 252.001452 
L 255.19251 241.971567 
L 255.235752 250.171849 
L 255.246137 250.442283 
L 255.261788 241.611735 
L 255.350202 252.958295 
L 255.360599 253.456421 
L 255.464665 262.394761 
L 255.495865 263.806216 
L 255.51668 265.78198 
L 255.760891 265.672586 
L 255.760891 265.386926 
L 255.839206 265.793912 
L 256.042356 265.683263 
L 256.04856 261.769832 
L 256.120443 265.797531 
L 256.123996 265.777598 
L 256.327992 265.781946 
L 256.327992 265.769958 
L 256.327992 265.762378 
L 256.335555 265.783641 
L 256.410363 265.778362 
L 257.007008 265.6866 
L 257.007008 265.666199 
L 257.012286 265.79378 
L 257.088876 265.780954 
L 257.274673 265.794789 
L 259.723962 265.682242 
L 259.723962 265.395904 
L 259.824132 265.795153 
L 266.061824 265.71661 
L 266.061824 265.736828 
L 266.119769 265.796764 
L 266.119769 265.795528 
L 266.638979 265.685048 
L 266.638979 265.650846 
L 266.644977 265.771697 
L 266.743982 265.754699 
L 266.967753 265.725128 
L 266.967753 265.521147 
L 267.061583 265.764981 
L 267.067729 265.697955 
L 267.088213 265.517382 
L 267.155253 265.777636 
L 267.603196 265.690285 
L 267.603196 265.578166 
L 267.686104 265.792638 
L 267.704212 265.760294 
L 268.588389 265.646594 
L 268.588389 265.570856 
L 268.664476 265.793866 
L 268.695711 265.761766 
L 268.952865 265.794177 
L 268.952865 265.787482 
L 268.993239 265.765911 
L 268.95587 265.787968 
L 269.033511 265.772977 
L 269.183286 265.792611 
L 269.183286 265.792185 
L 269.584835 265.665915 
L 269.584835 265.386569 
L 269.59105 265.790619 
L 269.684753 265.789471 
L 269.696715 265.647104 
L 269.778412 265.790761 
L 270.230251 265.760924 
L 270.561276 265.312026 
L 270.561276 265.307711 
L 270.580332 265.751353 
L 270.653118 265.726234 
L 270.766015 265.765999 
L 270.766015 264.530689 
L 270.778228 265.776364 
L 270.848637 265.754639 
L 270.971016 265.717772 
L 270.971016 265.707946 
L 273.610867 265.785724 
L 273.610867 265.775098 
L 273.610867 265.655029 
L 273.694334 265.748094 
L 273.939299 265.769175 
L 273.939299 265.763042 
L 275.93243 265.677095 
L 275.93243 265.453228 
L 275.952583 265.78442 
L 275.955496 265.783363 
L 281.408781 265.792135 
L 281.408781 265.710256 
L 281.408781 265.663056 
L 281.450606 265.783846 
L 281.513624 265.782303 
L 282.580559 265.78333 
L 282.580559 265.481441 
L 282.659468 265.788634 
L 283.399262 265.666006 
L 283.399262 265.509221 
L 283.47624 265.785876 
L 283.496062 265.782638 
L 287.35525 265.660089 
L 287.35525 264.957137 
L 287.424471 265.789663 
L 287.466102 265.788153 
L 287.806953 265.673994 
L 287.806953 265.633236 
L 287.834486 265.797093 
L 287.907328 265.794585 
L 288.327808 265.691529 
L 288.327808 265.534315 
L 288.427898 265.797759 
L 289.437859 265.709475 
L 289.478553 265.79267 
L 289.514974 265.784084 
L 289.554252 265.767642 
L 289.574073 265.571559 
L 289.598225 265.797335 
L 289.636862 265.78049 
L 289.858326 265.786995 
L 290.742252 265.677772 
L 290.742252 265.546594 
L 290.749678 265.787499 
L 290.844136 265.773906 
L 290.854053 265.795415 
L 291.891455 265.734296 
L 291.891467 265.216995 
L 291.897179 265.783217 
L 295.241796 265.784173 
L 295.241796 265.71566 
L 295.241796 265.662596 
L 295.282067 265.789414 
L 295.344594 265.785695 
L 296.459386 265.665483 
L 296.459386 265.610937 
L 296.469645 265.792232 
L 298.216773 265.796272 
L 298.216773 265.684708 
L 298.216773 265.456139 
L 298.227466 265.797665 
L 298.300366 265.781303 
L 298.457899 265.753612 
L 298.457899 265.649718 
L 298.560845 265.791351 
L 298.728911 265.788874 
L 299.341722 265.797035 
L 299.345252 265.608326 
L 299.387682 265.783587 
L 301.173219 265.78254 
L 301.173219 265.690174 
L 301.173231 265.223241 
L 301.185923 265.795508 
L 301.279604 265.795463 
L 301.290572 265.780432 
L 301.290572 265.66998 
L 301.30042 265.791714 
L 301.373285 265.783596 
L 305.129927 265.653168 
L 305.129927 265.629122 
L 305.181406 265.796926 
L 305.212869 265.790428 
L 309.215367 265.779828 
L 309.274728 265.605237 
L 309.319136 265.79066 
L 310.323841 265.679372 
L 310.323841 265.645013 
L 310.329519 265.787317 
L 310.405995 265.780474 
L 314.987212 265.664165 
L 314.987212 265.639388 
L 315.069309 265.797104 
L 315.648143 265.788333 
L 315.992135 265.677915 
L 315.992135 265.464907 
L 316.007741 265.792576 
L 316.082526 265.790352 
L 316.961722 265.677072 
L 316.961722 265.294047 
L 316.967206 265.782119 
L 317.070426 265.718114 
L 317.237636 265.747828 
L 317.237636 265.745614 
L 317.317744 265.501575 
L 317.317744 265.481872 
L 317.405907 265.573766 
L 317.604842 265.671566 
L 317.622367 265.691626 
L 317.943122 265.596328 
L 317.943122 265.434441 
L 318.040996 265.709099 
L 318.050672 265.679635 
L 318.14513 265.705188 
L 318.264573 265.751223 
L 318.930817 265.638486 
L 318.98281 265.392012 
L 318.986591 265.712969 
L 319.026657 265.620592 
L 319.188713 265.554429 
L 319.250977 265.383231 
L 319.295453 265.387734 
L 319.41645 265.479687 
L 319.41645 265.479142 
L 319.538578 265.595409 
L 319.538578 265.59193 
L 320.484482 265.750591 
L 320.484482 265.748612 
L 321.895431 265.639573 
L 321.994276 265.57885 
L 322.138168 265.655249 
L 322.138168 265.643152 
L 322.138168 265.529505 
L 322.158629 265.669924 
L 322.2244 265.620452 
L 322.338531 265.48897 
L 322.369629 265.529328 
L 322.542207 265.560065 
L 322.961121 265.449385 
L 323.006854 265.414041 
L 323.031691 265.534399 
L 323.051786 265.496037 
L 323.459904 265.689697 
L 323.459904 265.689697 
L 324.03514 265.563157 
L 324.03514 265.539106 
L 324.10155 265.596172 
L 324.127221 265.59089 
L 324.323517 265.633529 
L 325.144391 265.705676 
L 325.313085 265.746729 
L 325.855898 265.634836 
L 325.950367 265.518281 
L 325.963414 265.53834 
L 326.255219 265.697333 
L 326.296233 265.654336 
L 327.896647 265.737213 
L 327.923609 265.757273 
L 328.826534 265.650344 
L 328.84567 265.395177 
L 328.923962 265.696073 
L 329.029239 265.584838 
L 329.336056 265.472055 
L 329.418678 265.250254 
L 329.791254 265.138375 
L 329.878126 265.0353 
L 329.902963 265.356257 
L 329.961125 265.342307 
L 330.794714 265.230373 
L 330.874663 264.908028 
L 330.879301 265.008327 
L 331.113789 265.07013 
L 331.4293 265.407686 
L 331.79148 265.375362 
L 332.017914 265.755788 
L 332.017914 265.730875 
L 332.017914 265.611598 
L 332.030412 265.752017 
L 332.12102 265.738283 
L 332.851012 265.624788 
L 332.851012 265.602088 
L 332.864379 265.742506 
L 332.922598 265.737963 
L 339.27987 265.683343 
L 339.27987 265.483025 
L 339.310373 265.713621 
L 343.799041 265.644185 
L 343.799041 263.866547 
L 343.904204 265.508113 
L 344.770364 265.515447 
L 344.896982 265.794272 
L 344.931518 265.709467 
L 345.014552 265.78801 
L 345.576912 265.677102 
L 345.576923 265.489855 
L 345.66247 265.791151 
L 345.678087 265.780359 
L 346.586999 265.651815 
L 346.58701 265.479964 
L 346.668067 265.789696 
L 349.553133 265.600024 
L 349.553133 265.459593 
L 349.553681 265.783474 
L 349.65785 265.782846 
L 349.701697 265.760077 
L 349.701697 265.63992 
L 349.751543 265.785414 
L 350.809726 265.681241 
L 350.890772 265.605426 
L 350.894771 265.625485 
L 350.973714 265.736399 
L 350.973714 265.730112 
L 351.67062 265.735172 
L 351.689368 264.763215 
L 351.753905 265.721136 
L 351.793594 265.647599 
L 351.793594 265.574189 
L 351.837281 265.75874 
L 356.845616 265.637105 
L 356.845616 265.602477 
L 356.890765 265.755142 
L 356.93251 265.747635 
L 357.448487 265.756801 
L 357.448487 265.752384 
L 357.534971 265.604875 
L 357.454005 265.755681 
L 357.558059 265.719696 
L 358.420816 265.608508 
L 358.420816 265.416215 
L 358.422712 265.775929 
L 358.516393 265.765899 
L 359.412852 265.654065 
L 359.412852 265.575242 
L 359.45647 265.77174 
L 359.508589 265.760947 
L 360.404579 265.696386 
L 360.404579 265.403152 
L 360.405333 265.794624 
L 360.508394 265.781609 
L 360.745281 265.782548 
L 363.824004 265.674823 
L 363.824004 265.474605 
L 363.827009 265.783519 
L 363.88589 265.782575 
L 363.968375 265.707266 
L 363.968375 265.606655 
L 363.983296 265.797794 
L 364.009435 265.793107 
L 365.387757 265.766554 
L 365.387757 265.726928 
L 365.387757 265.667488 
L 365.403066 265.788191 
L 365.492668 265.765204 
L 365.615996 265.790326 
L 365.53174 265.592828 
L 365.615996 265.788006 
L 365.697864 265.704123 
L 365.618486 265.797779 
L 365.70465 265.797061 
L 367.38868 265.704245 
L 367.455867 265.382341 
L 367.460768 265.791342 
L 367.496699 265.790259 
L 371.743098 265.738153 
L 371.743098 262.753449 
L 371.753654 265.777308 
L 371.7845 265.776252 
L 374.377499 265.6924 
L 374.377499 265.6327 
L 374.390089 265.793179 
L 374.459972 265.790981 
L 374.706399 265.693703 
L 374.706399 265.488866 
L 374.707953 265.791661 
L 377.207899 265.680646 
L 377.22395 265.252243 
L 377.34353 265.352542 
L 377.35532 265.573199 
L 377.543482 265.465598 
L 377.598091 264.497898 
L 377.643241 265.239013 
L 377.676178 265.206129 
L 377.792708 265.656882 
L 377.792708 265.65481 
L 377.830729 265.644884 
L 378.168654 265.534857 
L 378.201328 265.512818 
L 378.25708 265.653248 
L 378.26213 265.6204 
L 378.453821 265.749258 
L 378.291445 265.549666 
L 378.453821 265.655177 
L 378.453821 265.61286 
L 378.474683 265.754443 
L 378.553078 265.743796 
L 378.583364 265.68278 
L 378.656709 265.749688 
L 379.152567 265.639536 
L 379.190303 265.561132 
L 379.249424 265.755275 
L 380.177586 265.643113 
L 380.208455 265.723352 
L 380.307254 265.668675 
L 380.382576 265.687858 
L 380.382576 265.686684 
L 380.551921 265.587279 
L 380.551921 265.468817 
L 380.570395 265.729594 
L 380.630945 265.675735 
L 380.777967 265.728525 
L 382.109539 265.618736 
L 382.410084 265.689769 
L 384.450901 265.656158 
L 384.519803 265.063396 
L 384.594039 265.188954 
L 384.652681 265.730567 
L 384.741929 265.714003 
L 388.161228 265.61366 
L 388.161228 265.542292 
L 388.271258 265.776872 
L 391.0068 265.631329 
L 391.084487 265.080756 
L 391.105999 265.100816 
L 391.166892 264.996259 
L 391.259282 265.61426 
L 391.298833 265.59936 
L 392.431734 265.674865 
L 392.49025 265.77482 
L 392.49025 265.774817 
L 392.624568 265.77455 
L 393.379248 265.699185 
L 393.395368 265.487967 
L 393.448069 265.748744 
L 393.458763 265.736128 
L 393.581782 265.755722 
L 393.581782 265.750389 
L 397.454017 265.708876 
L 397.454017 265.609577 
L 397.465887 265.790114 
L 397.557854 265.773216 
L 397.586576 265.793276 
L 398.12122 265.687399 
L 398.185768 265.56893 
L 398.204562 265.769527 
L 398.487273 265.771396 
L 398.487273 265.771396 
" style="fill:none;stroke:#ff0000;stroke-linecap:square;stroke-width:1.5;"/>
   </g>
   <g id="line2d_39">
    <path clip-path="url(#pa3b77f8f62)" d="M 73.832727 265.797818 
L 76.793961 265.6574 
L 76.793961 261.224191 
L 77.781038 261.023593 
L 77.781038 257.77391 
L 78.768116 257.633492 
L 78.768116 256.189188 
L 79.755194 255.98859 
L 79.755194 245.697928 
L 79.755194 246.038944 
L 80.417564 245.838347 
L 80.440025 229.79053 
L 80.658233 229.589933 
L 80.742272 218.721492 
L 80.742272 219.024415 
L 80.93602 218.827373 
L 81.019579 217.632154 
L 81.729349 217.331257 
L 81.729349 216.087551 
L 82.716427 215.746535 
L 82.716427 215.706416 
L 82.716427 215.706678 
L 83.703505 215.606379 
L 83.703505 215.425841 
L 83.703505 215.728494 
L 87.651816 215.547956 
L 87.651816 215.527896 
L 87.651816 215.728494 
L 89.625971 215.668315 
L 89.625971 215.487777 
L 89.625971 215.688374 
L 93.574282 215.487777 
L 93.574282 215.507837 
L 93.574282 215.708434 
L 108.380449 215.594285 
L 108.380449 215.597757 
L 108.380449 215.799942 
L 109.367526 215.699643 
L 109.367526 215.458925 
L 109.367526 215.561496 
L 110.354604 215.441137 
L 110.354604 215.421077 
L 110.354604 215.552916 
L 111.341682 215.432558 
L 111.341682 215.412498 
L 111.341682 215.458845 
L 114.302915 215.321891 
L 114.302915 215.201532 
L 114.302915 215.483999 
L 115.289993 215.36364 
L 115.289993 215.323521 
L 115.289993 215.372652 
L 116.277071 215.252293 
L 116.277071 214.911277 
L 116.277071 215.146268 
L 117.264148 215.02591 
L 117.264148 214.96573 
L 117.264148 215.011897 
L 118.251226 214.891538 
L 118.251226 214.811299 
L 118.251226 214.975709 
L 121.212459 214.818417 
L 121.212459 214.597759 
L 121.212459 214.714136 
L 123.186615 214.581394 
L 123.186615 211.652668 
L 123.186615 211.664211 
L 123.834533 211.463613 
L 123.849614 207.511838 
L 124.173693 207.39148 
L 124.173693 206.187893 
L 124.173693 206.712408 
L 125.16077 206.612109 
L 125.16077 206.090555 
L 125.16077 206.299889 
L 127.134926 206.041052 
L 128.122004 205.920693 
L 128.122004 205.860514 
L 128.122004 206.049939 
L 130.096159 205.897568 
L 130.096159 205.995372 
L 130.096159 206.015432 
L 131.083237 205.895073 
L 131.083237 205.875013 
L 131.083237 205.923139 
L 131.083237 205.923139 
L 132.070315 205.80278 
L 132.070315 205.78272 
L 132.070315 205.821001 
L 135.031548 205.660716 
L 135.031548 205.319699 
L 135.031548 205.56408 
L 137.005703 205.417731 
L 137.005703 205.357552 
L 137.005703 205.363778 
L 138.979859 205.23197 
L 138.979859 205.191851 
L 138.979859 205.219754 
L 141.941092 205.080233 
L 141.941092 204.939815 
L 141.941092 205.186983 
L 142.92817 205.066624 
L 142.92817 204.966325 
L 142.92817 205.073791 
L 143.915248 204.953432 
L 143.915248 204.853133 
L 143.915248 204.934209 
L 145.889403 204.794301 
L 145.889403 204.734122 
L 145.889403 204.783871 
L 149.837714 204.60564 
L 149.837714 204.58558 
L 149.837714 204.59106 
L 159.708492 204.350849 
L 159.708492 203.809236 
L 159.708492 204.331424 
L 163.656803 204.27409 
L 163.656803 204.25403 
L 163.656803 203.973193 
L 163.656803 204.112524 
L 164.334162 204.228777 
L 164.368458 204.797294 
L 164.368607 205.508656 
L 164.368904 204.706265 
L 164.641253 204.700878 
L 164.643881 204.44037 
L 164.643881 204.471384 
L 165.630958 204.351025 
L 165.630958 203.749232 
L 165.630958 204.179191 
L 166.618036 204.139071 
L 166.618036 203.938474 
L 166.618036 203.957534 
L 169.579269 203.920862 
L 169.579269 203.860682 
L 169.579269 203.800503 
L 169.579269 203.834237 
L 171.553425 203.694734 
L 171.553425 203.674674 
L 171.553425 203.70053 
L 175.501736 203.570428 
L 175.501736 203.574205 
L 176.488814 203.373607 
L 176.488814 203.193069 
L 176.488814 203.352198 
L 179.450047 203.200006 
L 179.450047 202.979349 
L 179.450047 203.060049 
L 186.359591 202.818741 
L 186.359591 202.778622 
L 186.359591 202.823986 
L 193.269135 202.590027 
L 193.269135 202.569967 
L 193.269135 202.629556 
L 194.256213 202.509198 
L 194.256213 202.489138 
L 194.256213 202.517761 
L 197.217446 202.360354 
L 197.217446 202.320234 
L 197.217446 202.35798 
L 199.191602 202.209981 
L 199.191602 202.189922 
L 199.191602 202.218792 
L 204.126991 202.015519 
L 204.126991 201.834981 
L 204.126991 201.94178 
L 205.114068 201.821422 
L 205.114068 201.801362 
L 205.114068 201.845027 
L 207.088224 201.728101 
L 207.088224 201.647862 
L 207.088224 201.707797 
L 211.036535 201.532976 
L 211.036535 201.472797 
L 211.036535 201.531761 
L 213.997768 201.397136 
L 213.997768 201.336957 
L 213.997768 201.386758 
L 217.946079 201.29116 
L 217.946079 200.46871 
L 217.946079 200.604602 
L 219.920235 200.555497 
L 219.920235 200.555878 
L 219.920235 201.759464 
L 220.907312 201.739404 
L 220.907312 200.535818 
L 220.907312 200.555203 
L 224.855623 200.375449 
L 224.855623 200.35539 
L 224.855623 200.413816 
L 227.816857 200.249137 
L 227.816857 200.128779 
L 227.816857 200.157883 
L 231.765168 199.997373 
L 231.765168 199.957254 
L 231.765168 200.02242 
L 233.739323 199.883035 
L 233.739323 199.842916 
L 233.739323 200.073556 
L 234.726401 199.832839 
L 234.726401 199.552002 
L 234.726401 199.774108 
L 235.713479 199.741446 
L 235.713479 199.701327 
L 235.713479 199.580968 
L 235.713479 199.724825 
L 236.700556 199.584524 
L 236.700556 199.564464 
L 236.700556 199.567995 
L 239.66179 199.40795 
L 239.66179 199.327711 
L 239.66179 199.374739 
L 241.635945 199.242129 
L 241.635945 199.18195 
L 241.635945 199.194982 
L 248.545489 199.005572 
L 248.545489 198.704676 
L 248.637765 198.850447 
L 249.256814 198.888202 
L 249.256814 198.842464 
L 249.259841 199.384917 
L 249.262949 198.905072 
L 249.532567 199.196456 
L 249.532567 199.196456 
L 250.183879 199.240261 
L 250.391988 199.432003 
L 250.393496 200.386552 
L 250.397528 199.298531 
L 251.182164 199.236753 
L 251.182404 202.787248 
L 251.287464 199.675056 
L 251.302247 199.80736 
L 251.306634 201.491315 
L 251.303218 199.705446 
L 251.403982 200.331156 
L 251.456661 199.789542 
L 251.45874 200.852907 
L 251.458797 202.0024 
L 251.518718 199.874024 
L 251.563251 199.884387 
L 252.4938 199.443072 
L 252.4938 197.89847 
L 252.4938 197.926318 
L 252.810819 197.808261 
L 252.89391 197.728662 
L 252.946085 197.62895 
L 253.050151 180.994157 
L 253.081295 178.254542 
L 253.1852 166.786165 
L 253.206005 165.570908 
L 253.299137 151.570951 
L 253.480878 151.591751 
L 253.871539 151.497681 
L 254.100567 151.351106 
L 254.194328 150.309971 
L 254.267227 150.287459 
L 254.467956 149.083873 
L 254.548487 149.151996 
L 254.787968 149.031872 
L 254.902533 141.507989 
L 254.912906 141.247212 
L 255.027483 132.144325 
L 255.037833 131.924341 
L 255.142105 117.521819 
L 255.152478 116.418532 
L 255.256556 104.908044 
L 255.266941 104.668014 
L 255.371018 92.937208 
L 255.391788 91.921789 
L 255.495888 82.516671 
L 255.506284 82.256638 
L 255.51668 81.896135 
L 255.766375 81.856302 
L 255.839206 81.442833 
L 256.047623 81.284915 
L 256.158144 77.575806 
L 256.442112 77.535743 
L 256.442112 77.633402 
L 256.442112 77.759079 
L 257.012252 77.580111 
L 257.033101 77.47987 
L 257.157983 77.37217 
L 257.199591 77.332051 
L 258.416267 77.263146 
L 259.730383 77.102147 
L 259.824132 76.922696 
L 260.011689 76.601579 
L 261.761524 76.225245 
L 261.844831 76.085117 
L 263.351656 75.983845 
L 263.351656 76.122822 
L 263.351656 76.151141 
L 263.885706 76.048201 
L 264.073057 75.767172 
L 266.312889 75.72265 
L 266.312889 75.858872 
L 266.312889 76.381441 
L 266.947052 76.147068 
L 267.092829 75.47748 
L 269.274122 74.850019 
L 269.274122 74.888147 
L 269.274122 75.046052 
L 269.341173 75.041067 
L 269.59105 74.841042 
L 269.684753 74.558079 
L 269.778412 74.361226 
L 270.2612 74.325272 
L 270.2612 74.365371 
L 270.2612 75.919112 
L 270.569845 75.719688 
L 270.653118 75.460379 
L 270.694806 75.420621 
L 270.767706 75.022403 
L 270.778228 74.187279 
L 271.642401 74.06973 
L 273.734891 73.882443 
L 273.880588 73.802766 
L 274.650908 73.633622 
L 275.196589 73.495568 
L 275.196589 73.847164 
L 275.213417 73.833548 
L 275.942118 73.72488 
L 275.952583 73.428259 
L 277.483273 73.345611 
L 277.566581 73.305606 
L 281.119055 73.191284 
L 281.119055 73.357414 
L 281.119055 73.475413 
L 281.119055 73.475413 
L 281.450606 73.356602 
L 281.637968 73.311218 
L 281.950394 73.192277 
L 282.106133 73.142078 
L 282.106133 73.146221 
L 282.106133 73.489363 
L 282.586557 73.388457 
L 282.659468 73.131359 
L 283.093211 73.027933 
L 283.093211 73.074246 
L 283.5805 72.776198 
L 287.041522 72.579513 
L 287.041522 72.614026 
L 287.041522 72.938029 
L 287.361854 72.718984 
L 287.466102 71.885 
L 287.549604 71.792233 
L 287.688503 71.551885 
L 287.813602 71.433812 
L 287.834486 71.376481 
L 288.334137 71.256731 
L 288.427898 71.118738 
L 288.698544 70.899367 
L 288.906767 70.801062 
L 289.015677 70.801062 
L 289.015677 70.801681 
L 289.015677 71.30872 
L 289.577398 70.869433 
L 289.681464 70.651917 
L 290.002755 70.594733 
L 290.002755 70.63781 
L 290.002755 70.881941 
L 290.002755 70.881941 
L 290.436944 70.731804 
L 290.489028 70.672132 
L 290.749621 70.523019 
L 290.854053 70.344185 
L 290.989833 70.411778 
L 290.989833 70.914441 
L 291.792999 70.765946 
L 291.897133 70.650011 
L 291.897179 70.213087 
L 291.976911 70.213357 
L 294.511278 70.072362 
L 294.802878 69.912468 
L 295.282067 69.809846 
L 295.511426 69.732565 
L 295.925222 69.677991 
L 295.925222 69.790963 
L 295.925222 69.877463 
L 296.469634 69.78911 
L 296.469645 69.661051 
L 297.251048 69.557978 
L 297.459488 69.499044 
L 297.899377 69.379083 
L 297.899377 69.398147 
L 297.899377 69.577804 
L 298.216967 69.449523 
L 298.300366 69.225309 
L 298.886455 69.01226 
L 298.886455 69.017469 
L 298.886455 69.219053 
L 299.341722 69.21401 
L 299.456309 69.03317 
L 301.175333 69.079499 
L 301.279604 68.468785 
L 301.373285 68.330354 
L 303.520019 67.984305 
L 303.561708 67.944546 
L 305.358589 67.846105 
L 306.233661 67.719514 
L 308.234344 67.609276 
L 308.65231 67.5291 
L 308.757232 67.537931 
L 308.757232 67.728341 
L 308.777214 67.725032 
L 309.277436 67.597874 
L 309.319136 67.478181 
L 309.74431 67.443047 
L 309.74431 67.47977 
L 309.74431 67.581721 
L 309.798188 67.581301 
L 310.329474 67.479459 
L 310.371082 67.386103 
L 310.731388 67.344624 
L 310.731388 67.361204 
L 311.718466 67.287333 
L 311.718466 67.166975 
L 311.718466 67.295394 
L 314.679699 67.109526 
L 314.679699 67.148375 
L 314.679699 67.3328 
L 315.569691 66.940198 
L 315.666777 66.820087 
L 315.666777 66.975227 
L 315.997345 66.77463 
L 316.07021 66.614816 
L 316.653854 66.449464 
L 316.653854 66.248867 
L 316.653854 66.699209 
L 316.967172 66.579031 
L 316.967206 66.217955 
L 317.259365 66.1138 
L 317.947189 65.784363 
L 318.040996 65.687852 
L 318.249139 65.574076 
L 318.62801 65.112701 
L 318.62801 64.851924 
L 318.62801 65.140133 
L 319.615088 65.120073 
L 319.615088 64.979655 
L 319.615088 64.981754 
L 321.589243 64.803731 
L 321.589243 64.522894 
L 321.589243 64.771346 
L 322.576321 64.691107 
L 322.576321 64.37015 
L 322.576321 64.415774 
L 323.563399 64.315475 
L 323.563399 64.175057 
L 323.563399 64.350379 
L 324.550476 64.27014 
L 324.550476 64.129722 
L 324.550476 64.142136 
L 325.537554 64.061897 
L 325.537554 63.881359 
L 325.537554 63.956805 
L 327.51171 63.814882 
L 327.51171 63.794822 
L 327.51171 63.795549 
L 328.498787 63.474592 
L 328.498787 63.454533 
L 328.498787 63.720072 
L 329.485865 63.358996 
L 329.485865 63.385331 
L 330.472943 63.184734 
L 330.472943 62.763478 
L 330.472943 62.85635 
L 331.460021 62.635692 
L 331.460021 62.194377 
L 331.460021 62.362779 
L 333.434176 62.125457 
L 333.434176 62.125721 
L 335.408332 62.006114 
L 335.408332 61.905815 
L 335.408332 61.98917 
L 338.369565 61.528449 
L 338.369565 61.44821 
L 338.369565 61.718416 
L 339.29992 61.61336 
L 339.356643 61.433151 
L 339.356643 61.593244 
L 339.664465 61.553344 
L 339.925046 61.377332 
L 342.317876 61.31315 
L 342.317876 61.371897 
L 342.317876 61.415312 
L 342.416869 61.411844 
L 343.25007 61.2958 
L 343.304954 61.27574 
L 343.304954 59.851496 
L 343.304954 61.739277 
L 343.635453 61.619693 
L 343.739611 61.579935 
L 343.802274 61.461576 
L 343.833623 61.276369 
L 344.292031 61.174846 
L 344.292031 61.281447 
L 344.792791 61.195904 
L 344.896982 60.938841 
L 345.584429 60.834415 
L 345.678087 60.714643 
L 346.595087 60.548763 
L 346.668067 60.377947 
L 346.990947 60.176857 
L 347.253265 60.079353 
L 347.253265 60.080454 
L 349.22742 60.022726 
L 349.22742 60.054019 
L 349.22742 60.242002 
L 349.553647 60.222814 
L 349.65785 59.750152 
L 349.90783 59.471695 
L 350.214498 59.411516 
L 350.214498 59.210918 
L 350.214498 59.458978 
L 351.148406 59.280383 
L 351.201576 59.200144 
L 351.201576 59.317741 
L 351.201576 60.320705 
L 351.67062 60.257606 
L 351.837281 59.315059 
L 352.188654 59.221585 
L 352.188654 59.201525 
L 352.188654 59.25982 
L 353.562394 59.121524 
L 356.136965 58.943163 
L 356.136965 58.682386 
L 356.136965 58.97124 
L 356.619422 58.857846 
L 356.963722 58.72411 
L 357.124042 58.624301 
L 357.124042 58.690161 
L 357.454005 58.637791 
L 357.735059 58.45903 
L 358.11112 58.383268 
L 358.11112 58.525319 
L 358.11112 58.54076 
L 358.422689 58.520947 
L 358.516393 58.073499 
L 360.405333 57.533603 
L 360.405333 57.337663 
L 360.999271 57.292481 
L 361.072353 57.292481 
L 361.072353 57.391764 
L 361.072353 57.408499 
L 362.022233 57.304377 
L 362.059431 57.284317 
L 362.059431 57.291278 
L 363.046509 57.189894 
L 363.046509 57.353192 
L 363.046509 57.573275 
L 363.816646 57.402081 
L 363.827009 57.111638 
L 364.129015 56.965876 
L 365.020664 56.764513 
L 365.020664 56.769246 
L 365.020664 57.09292 
L 365.118892 57.090025 
L 365.33846 57.062812 
L 365.536778 56.738788 
L 365.788026 56.648339 
L 366.606386 56.539621 
L 366.99482 56.519809 
L 366.99482 56.552987 
L 366.99482 57.158964 
L 367.398265 56.999846 
L 367.460768 56.521754 
L 368.769755 56.414448 
L 369.956053 56.39448 
L 369.956053 56.274122 
L 369.956053 56.469357 
L 370.553978 56.361888 
L 370.943131 56.33737 
L 370.943131 56.364645 
L 370.943131 59.286506 
L 371.743224 59.218232 
L 371.753654 56.444639 
L 373.315773 56.365564 
L 373.904364 56.276113 
L 373.904364 56.155755 
L 373.904364 56.473044 
L 374.557412 56.469151 
L 374.891442 56.170754 
L 374.891442 56.170951 
L 376.865597 56.130838 
L 376.865597 55.08773 
L 376.865597 55.913137 
L 377.852675 55.732599 
L 377.852675 55.211045 
L 377.852675 55.32751 
L 378.839753 55.046673 
L 378.839753 54.946374 
L 378.839753 55.011572 
L 379.826831 54.891213 
L 379.826831 54.510077 
L 379.826831 54.810116 
L 380.813908 54.709817 
L 380.813908 54.549339 
L 380.813908 54.746279 
L 383.775142 54.351447 
L 383.775142 53.729594 
L 383.775142 54.358403 
L 384.762219 54.217984 
L 384.762219 54.233068 
L 385.749297 54.01241 
L 385.749297 53.912112 
L 385.749297 53.989136 
L 387.723453 53.860703 
L 387.723453 53.599926 
L 387.723453 53.777369 
L 390.684686 53.702809 
L 390.684686 52.880359 
L 390.684686 53.114036 
L 391.671764 53.093976 
L 391.671764 52.7329 
L 391.671764 52.791841 
L 392.658841 52.711602 
L 392.658841 52.430765 
L 392.658841 52.685092 
L 393.645919 52.564734 
L 393.645919 52.424315 
L 393.645919 52.512098 
L 394.632997 52.391739 
L 394.632997 52.29144 
L 394.632997 52.394665 
L 396.607152 52.35478 
L 396.607152 52.154182 
L 396.607152 52.369155 
L 397.59423 52.412732 
L 397.59423 52.60468 
L 397.59423 52.60468 
" style="fill:none;stroke:#008000;stroke-linecap:square;stroke-width:1.5;"/>
   </g>
   <g id="line2d_40">
    <defs>
     <path d="M 0 3 
C 0.795609 3 1.55874 2.683901 2.12132 2.12132 
C 2.683901 1.55874 3 0.795609 3 0 
C 3 -0.795609 2.683901 -1.55874 2.12132 -2.12132 
C 1.55874 -2.683901 0.795609 -3 0 -3 
C -0.795609 -3 -1.55874 -2.683901 -2.12132 -2.12132 
C -2.683901 -1.55874 -3 -0.795609 -3 0 
C -3 0.795609 -2.683901 1.55874 -2.12132 2.12132 
C -1.55874 2.683901 -0.795609 3 0 3 
z
" id="me8beada0e6" style="stroke:#bfbf00;"/>
    </defs>
    <g clip-path="url(#pa3b77f8f62)">
     <use style="fill:#bfbf00;stroke:#bfbf00;" x="76.828554" xlink:href="#me8beada0e6" y="255.767933"/>
     <use style="fill:#bfbf00;stroke:#bfbf00;" x="80.185612" xlink:href="#me8beada0e6" y="225.678277"/>
     <use style="fill:#bfbf00;stroke:#bfbf00;" x="252.945103" xlink:href="#me8beada0e6" y="215.648392"/>
     <use style="fill:#bfbf00;stroke:#bfbf00;" x="254.820551" xlink:href="#me8beada0e6" y="215.648392"/>
     <use style="fill:#bfbf00;stroke:#bfbf00;" x="255.19251" xlink:href="#me8beada0e6" y="255.767933"/>
     <use style="fill:#bfbf00;stroke:#bfbf00;" x="255.261788" xlink:href="#me8beada0e6" y="255.767933"/>
     <use style="fill:#bfbf00;stroke:#bfbf00;" x="256.04856" xlink:href="#me8beada0e6" y="261.785864"/>
    </g>
   </g>
   <g id="line2d_41">
    <defs>
     <path d="M 0 3 
C 0.795609 3 1.55874 2.683901 2.12132 2.12132 
C 2.683901 1.55874 3 0.795609 3 0 
C 3 -0.795609 2.683901 -1.55874 2.12132 -2.12132 
C 1.55874 -2.683901 0.795609 -3 0 -3 
C -0.795609 -3 -1.55874 -2.683901 -2.12132 -2.12132 
C -2.683901 -1.55874 -3 -0.795609 -3 0 
C -3 0.795609 -2.683901 1.55874 -2.12132 2.12132 
C -1.55874 2.683901 -0.795609 3 0 3 
z
" id="m0cd9239318" style="stroke:#008000;"/>
    </defs>
    <g clip-path="url(#pa3b77f8f62)">
     <use style="fill:#008000;stroke:#008000;" x="123.762456" xlink:href="#m0cd9239318" y="257.253961"/>
     <use style="fill:#008000;stroke:#008000;" x="218.522149" xlink:href="#m0cd9239318" y="263.797257"/>
    </g>
   </g>
   <g id="patch_3">
    <path d="M 57.6 276.48 
L 57.6 41.472 
" style="fill:none;stroke:#000000;stroke-linecap:square;stroke-linejoin:miter;stroke-width:0.8;"/>
   </g>
   <g id="patch_4">
    <path d="M 414.72 276.48 
L 414.72 41.472 
" style="fill:none;stroke:#000000;stroke-linecap:square;stroke-linejoin:miter;stroke-width:0.8;"/>
   </g>
   <g id="patch_5">
    <path d="M 57.6 276.48 
L 414.72 276.48 
" style="fill:none;stroke:#000000;stroke-linecap:square;stroke-linejoin:miter;stroke-width:0.8;"/>
   </g>
   <g id="patch_6">
    <path d="M 57.6 41.472 
L 414.72 41.472 
" style="fill:none;stroke:#000000;stroke-linecap:square;stroke-linejoin:miter;stroke-width:0.8;"/>
   </g>
   <g id="text_21">
    <!-- My Bondora earnings -->
    <defs>
     <path d="M 9.8125 72.90625 
L 24.515625 72.90625 
L 43.109375 23.296875 
L 61.8125 72.90625 
L 76.515625 72.90625 
L 76.515625 0 
L 66.890625 0 
L 66.890625 64.015625 
L 48.09375 14.015625 
L 38.1875 14.015625 
L 19.390625 64.015625 
L 19.390625 0 
L 9.8125 0 
z
" id="DejaVuSans-4d"/>
     <path d="M 32.171875 -5.078125 
Q 28.375 -14.84375 24.75 -17.8125 
Q 21.140625 -20.796875 15.09375 -20.796875 
L 7.90625 -20.796875 
L 7.90625 -13.28125 
L 13.1875 -13.28125 
Q 16.890625 -13.28125 18.9375 -11.515625 
Q 21 -9.765625 23.484375 -3.21875 
L 25.09375 0.875 
L 2.984375 54.6875 
L 12.5 54.6875 
L 29.59375 11.921875 
L 46.6875 54.6875 
L 56.203125 54.6875 
z
" id="DejaVuSans-79"/>
     <path id="DejaVuSans-20"/>
     <path d="M 19.671875 34.8125 
L 19.671875 8.109375 
L 35.5 8.109375 
Q 43.453125 8.109375 47.28125 11.40625 
Q 51.125 14.703125 51.125 21.484375 
Q 51.125 28.328125 47.28125 31.5625 
Q 43.453125 34.8125 35.5 34.8125 
z
M 19.671875 64.796875 
L 19.671875 42.828125 
L 34.28125 42.828125 
Q 41.5 42.828125 45.03125 45.53125 
Q 48.578125 48.25 48.578125 53.8125 
Q 48.578125 59.328125 45.03125 62.0625 
Q 41.5 64.796875 34.28125 64.796875 
z
M 9.8125 72.90625 
L 35.015625 72.90625 
Q 46.296875 72.90625 52.390625 68.21875 
Q 58.5 63.53125 58.5 54.890625 
Q 58.5 48.1875 55.375 44.234375 
Q 52.25 40.28125 46.1875 39.3125 
Q 53.46875 37.75 57.5 32.78125 
Q 61.53125 27.828125 61.53125 20.40625 
Q 61.53125 10.640625 54.890625 5.3125 
Q 48.25 0 35.984375 0 
L 9.8125 0 
z
" id="DejaVuSans-42"/>
     <path d="M 30.609375 48.390625 
Q 23.390625 48.390625 19.1875 42.75 
Q 14.984375 37.109375 14.984375 27.296875 
Q 14.984375 17.484375 19.15625 11.84375 
Q 23.34375 6.203125 30.609375 6.203125 
Q 37.796875 6.203125 41.984375 11.859375 
Q 46.1875 17.53125 46.1875 27.296875 
Q 46.1875 37.015625 41.984375 42.703125 
Q 37.796875 48.390625 30.609375 48.390625 
z
M 30.609375 56 
Q 42.328125 56 49.015625 48.375 
Q 55.71875 40.765625 55.71875 27.296875 
Q 55.71875 13.875 49.015625 6.21875 
Q 42.328125 -1.421875 30.609375 -1.421875 
Q 18.84375 -1.421875 12.171875 6.21875 
Q 5.515625 13.875 5.515625 27.296875 
Q 5.515625 40.765625 12.171875 48.375 
Q 18.84375 56 30.609375 56 
z
" id="DejaVuSans-6f"/>
     <path d="M 54.890625 33.015625 
L 54.890625 0 
L 45.90625 0 
L 45.90625 32.71875 
Q 45.90625 40.484375 42.875 44.328125 
Q 39.84375 48.1875 33.796875 48.1875 
Q 26.515625 48.1875 22.3125 43.546875 
Q 18.109375 38.921875 18.109375 30.90625 
L 18.109375 0 
L 9.078125 0 
L 9.078125 54.6875 
L 18.109375 54.6875 
L 18.109375 46.1875 
Q 21.34375 51.125 25.703125 53.5625 
Q 30.078125 56 35.796875 56 
Q 45.21875 56 50.046875 50.171875 
Q 54.890625 44.34375 54.890625 33.015625 
z
" id="DejaVuSans-6e"/>
     <path d="M 41.109375 46.296875 
Q 39.59375 47.171875 37.8125 47.578125 
Q 36.03125 48 33.890625 48 
Q 26.265625 48 22.1875 43.046875 
Q 18.109375 38.09375 18.109375 28.8125 
L 18.109375 0 
L 9.078125 0 
L 9.078125 54.6875 
L 18.109375 54.6875 
L 18.109375 46.1875 
Q 20.953125 51.171875 25.484375 53.578125 
Q 30.03125 56 36.53125 56 
Q 37.453125 56 38.578125 55.875 
Q 39.703125 55.765625 41.0625 55.515625 
z
" id="DejaVuSans-72"/>
     <path d="M 9.421875 54.6875 
L 18.40625 54.6875 
L 18.40625 0 
L 9.421875 0 
z
M 9.421875 75.984375 
L 18.40625 75.984375 
L 18.40625 64.59375 
L 9.421875 64.59375 
z
" id="DejaVuSans-69"/>
     <path d="M 45.40625 27.984375 
Q 45.40625 37.75 41.375 43.109375 
Q 37.359375 48.484375 30.078125 48.484375 
Q 22.859375 48.484375 18.828125 43.109375 
Q 14.796875 37.75 14.796875 27.984375 
Q 14.796875 18.265625 18.828125 12.890625 
Q 22.859375 7.515625 30.078125 7.515625 
Q 37.359375 7.515625 41.375 12.890625 
Q 45.40625 18.265625 45.40625 27.984375 
z
M 54.390625 6.78125 
Q 54.390625 -7.171875 48.1875 -13.984375 
Q 42 -20.796875 29.203125 -20.796875 
Q 24.46875 -20.796875 20.265625 -20.09375 
Q 16.0625 -19.390625 12.109375 -17.921875 
L 12.109375 -9.1875 
Q 16.0625 -11.328125 19.921875 -12.34375 
Q 23.78125 -13.375 27.78125 -13.375 
Q 36.625 -13.375 41.015625 -8.765625 
Q 45.40625 -4.15625 45.40625 5.171875 
L 45.40625 9.625 
Q 42.625 4.78125 38.28125 2.390625 
Q 33.9375 0 27.875 0 
Q 17.828125 0 11.671875 7.65625 
Q 5.515625 15.328125 5.515625 27.984375 
Q 5.515625 40.671875 11.671875 48.328125 
Q 17.828125 56 27.875 56 
Q 33.9375 56 38.28125 53.609375 
Q 42.625 51.21875 45.40625 46.390625 
L 45.40625 54.6875 
L 54.390625 54.6875 
z
" id="DejaVuSans-67"/>
     <path d="M 44.28125 53.078125 
L 44.28125 44.578125 
Q 40.484375 46.53125 36.375 47.5 
Q 32.28125 48.484375 27.875 48.484375 
Q 21.1875 48.484375 17.84375 46.4375 
Q 14.5 44.390625 14.5 40.28125 
Q 14.5 37.15625 16.890625 35.375 
Q 19.28125 33.59375 26.515625 31.984375 
L 29.59375 31.296875 
Q 39.15625 29.25 43.1875 25.515625 
Q 47.21875 21.78125 47.21875 15.09375 
Q 47.21875 7.46875 41.1875 3.015625 
Q 35.15625 -1.421875 24.609375 -1.421875 
Q 20.21875 -1.421875 15.453125 -0.5625 
Q 10.6875 0.296875 5.421875 2 
L 5.421875 11.28125 
Q 10.40625 8.6875 15.234375 7.390625 
Q 20.0625 6.109375 24.8125 6.109375 
Q 31.15625 6.109375 34.5625 8.28125 
Q 37.984375 10.453125 37.984375 14.40625 
Q 37.984375 18.0625 35.515625 20.015625 
Q 33.0625 21.96875 24.703125 23.78125 
L 21.578125 24.515625 
Q 13.234375 26.265625 9.515625 29.90625 
Q 5.8125 33.546875 5.8125 39.890625 
Q 5.8125 47.609375 11.28125 51.796875 
Q 16.75 56 26.8125 56 
Q 31.78125 56 36.171875 55.265625 
Q 40.578125 54.546875 44.28125 53.078125 
z
" id="DejaVuSans-73"/>
    </defs>
    <g transform="translate(172.363125 35.472)scale(0.12 -0.12)">
     <use xlink:href="#DejaVuSans-4d"/>
     <use x="86.279297" xlink:href="#DejaVuSans-79"/>
     <use x="145.458984" xlink:href="#DejaVuSans-20"/>
     <use x="177.246094" xlink:href="#DejaVuSans-42"/>
     <use x="245.849609" xlink:href="#DejaVuSans-6f"/>
     <use x="307.03125" xlink:href="#DejaVuSans-6e"/>
     <use x="370.410156" xlink:href="#DejaVuSans-64"/>
     <use x="433.886719" xlink:href="#DejaVuSans-6f"/>
     <use x="495.068359" xlink:href="#DejaVuSans-72"/>
     <use x="536.181641" xlink:href="#DejaVuSans-61"/>
     <use x="597.460938" xlink:href="#DejaVuSans-20"/>
     <use x="629.248047" xlink:href="#DejaVuSans-65"/>
     <use x="690.771484" xlink:href="#DejaVuSans-61"/>
     <use x="752.050781" xlink:href="#DejaVuSans-72"/>
     <use x="793.148438" xlink:href="#DejaVuSans-6e"/>
     <use x="856.527344" xlink:href="#DejaVuSans-69"/>
     <use x="884.310547" xlink:href="#DejaVuSans-6e"/>
     <use x="947.689453" xlink:href="#DejaVuSans-67"/>
     <use x="1011.166016" xlink:href="#DejaVuSans-73"/>
    </g>
   </g>
   <g id="legend_1">
    <g id="patch_7">
     <path d="M 64.6 122.862625 
L 158.45 122.862625 
Q 160.45 122.862625 160.45 120.862625 
L 160.45 48.472 
Q 160.45 46.472 158.45 46.472 
L 64.6 46.472 
Q 62.6 46.472 62.6 48.472 
L 62.6 120.862625 
Q 62.6 122.862625 64.6 122.862625 
z
" style="fill:#ffffff;opacity:0.8;stroke:#cccccc;stroke-linejoin:miter;"/>
    </g>
    <g id="line2d_42">
     <path d="M 66.6 54.570437 
L 86.6 54.570437 
" style="fill:none;stroke:#0000ff;stroke-linecap:square;stroke-width:1.5;"/>
    </g>
    <g id="line2d_43"/>
    <g id="text_22">
     <!-- Interest -->
     <defs>
      <path d="M 9.8125 72.90625 
L 19.671875 72.90625 
L 19.671875 0 
L 9.8125 0 
z
" id="DejaVuSans-49"/>
     </defs>
     <g transform="translate(94.6 58.070437)scale(0.1 -0.1)">
      <use xlink:href="#DejaVuSans-49"/>
      <use x="29.492188" xlink:href="#DejaVuSans-6e"/>
      <use x="92.871094" xlink:href="#DejaVuSans-74"/>
      <use x="132.080078" xlink:href="#DejaVuSans-65"/>
      <use x="193.603516" xlink:href="#DejaVuSans-72"/>
      <use x="234.685547" xlink:href="#DejaVuSans-65"/>
      <use x="296.208984" xlink:href="#DejaVuSans-73"/>
      <use x="348.308594" xlink:href="#DejaVuSans-74"/>
     </g>
    </g>
    <g id="line2d_44">
     <path d="M 66.6 69.248562 
L 86.6 69.248562 
" style="fill:none;stroke:#ff0000;stroke-linecap:square;stroke-width:1.5;"/>
    </g>
    <g id="line2d_45"/>
    <g id="text_23">
     <!-- Balance -->
     <defs>
      <path d="M 9.421875 75.984375 
L 18.40625 75.984375 
L 18.40625 0 
L 9.421875 0 
z
" id="DejaVuSans-6c"/>
      <path d="M 48.78125 52.59375 
L 48.78125 44.1875 
Q 44.96875 46.296875 41.140625 47.34375 
Q 37.3125 48.390625 33.40625 48.390625 
Q 24.65625 48.390625 19.8125 42.84375 
Q 14.984375 37.3125 14.984375 27.296875 
Q 14.984375 17.28125 19.8125 11.734375 
Q 24.65625 6.203125 33.40625 6.203125 
Q 37.3125 6.203125 41.140625 7.25 
Q 44.96875 8.296875 48.78125 10.40625 
L 48.78125 2.09375 
Q 45.015625 0.34375 40.984375 -0.53125 
Q 36.96875 -1.421875 32.421875 -1.421875 
Q 20.0625 -1.421875 12.78125 6.34375 
Q 5.515625 14.109375 5.515625 27.296875 
Q 5.515625 40.671875 12.859375 48.328125 
Q 20.21875 56 33.015625 56 
Q 37.15625 56 41.109375 55.140625 
Q 45.0625 54.296875 48.78125 52.59375 
z
" id="DejaVuSans-63"/>
     </defs>
     <g transform="translate(94.6 72.748562)scale(0.1 -0.1)">
      <use xlink:href="#DejaVuSans-42"/>
      <use x="68.603516" xlink:href="#DejaVuSans-61"/>
      <use x="129.882812" xlink:href="#DejaVuSans-6c"/>
      <use x="157.666016" xlink:href="#DejaVuSans-61"/>
      <use x="218.945312" xlink:href="#DejaVuSans-6e"/>
      <use x="282.324219" xlink:href="#DejaVuSans-63"/>
      <use x="337.304688" xlink:href="#DejaVuSans-65"/>
     </g>
    </g>
    <g id="line2d_46">
     <path d="M 66.6 83.926687 
L 86.6 83.926687 
" style="fill:none;stroke:#008000;stroke-linecap:square;stroke-width:1.5;"/>
    </g>
    <g id="line2d_47"/>
    <g id="text_24">
     <!-- Investments -->
     <defs>
      <path d="M 2.984375 54.6875 
L 12.5 54.6875 
L 29.59375 8.796875 
L 46.6875 54.6875 
L 56.203125 54.6875 
L 35.6875 0 
L 23.484375 0 
z
" id="DejaVuSans-76"/>
      <path d="M 52 44.1875 
Q 55.375 50.25 60.0625 53.125 
Q 64.75 56 71.09375 56 
Q 79.640625 56 84.28125 50.015625 
Q 88.921875 44.046875 88.921875 33.015625 
L 88.921875 0 
L 79.890625 0 
L 79.890625 32.71875 
Q 79.890625 40.578125 77.09375 44.375 
Q 74.3125 48.1875 68.609375 48.1875 
Q 61.625 48.1875 57.5625 43.546875 
Q 53.515625 38.921875 53.515625 30.90625 
L 53.515625 0 
L 44.484375 0 
L 44.484375 32.71875 
Q 44.484375 40.625 41.703125 44.40625 
Q 38.921875 48.1875 33.109375 48.1875 
Q 26.21875 48.1875 22.15625 43.53125 
Q 18.109375 38.875 18.109375 30.90625 
L 18.109375 0 
L 9.078125 0 
L 9.078125 54.6875 
L 18.109375 54.6875 
L 18.109375 46.1875 
Q 21.1875 51.21875 25.484375 53.609375 
Q 29.78125 56 35.6875 56 
Q 41.65625 56 45.828125 52.96875 
Q 50 49.953125 52 44.1875 
z
" id="DejaVuSans-6d"/>
     </defs>
     <g transform="translate(94.6 87.426687)scale(0.1 -0.1)">
      <use xlink:href="#DejaVuSans-49"/>
      <use x="29.492188" xlink:href="#DejaVuSans-6e"/>
      <use x="92.871094" xlink:href="#DejaVuSans-76"/>
      <use x="152.050781" xlink:href="#DejaVuSans-65"/>
      <use x="213.574219" xlink:href="#DejaVuSans-73"/>
      <use x="265.673828" xlink:href="#DejaVuSans-74"/>
      <use x="304.882812" xlink:href="#DejaVuSans-6d"/>
      <use x="402.294922" xlink:href="#DejaVuSans-65"/>
      <use x="463.818359" xlink:href="#DejaVuSans-6e"/>
      <use x="527.197266" xlink:href="#DejaVuSans-74"/>
      <use x="566.40625" xlink:href="#DejaVuSans-73"/>
     </g>
    </g>
    <g id="line2d_48"/>
    <g id="line2d_49">
     <g>
      <use style="fill:#bfbf00;stroke:#bfbf00;" x="76.6" xlink:href="#me8beada0e6" y="98.604812"/>
     </g>
    </g>
    <g id="text_25">
     <!-- Deposits -->
     <defs>
      <path d="M 19.671875 64.796875 
L 19.671875 8.109375 
L 31.59375 8.109375 
Q 46.6875 8.109375 53.6875 14.9375 
Q 60.6875 21.78125 60.6875 36.53125 
Q 60.6875 51.171875 53.6875 57.984375 
Q 46.6875 64.796875 31.59375 64.796875 
z
M 9.8125 72.90625 
L 30.078125 72.90625 
Q 51.265625 72.90625 61.171875 64.09375 
Q 71.09375 55.28125 71.09375 36.53125 
Q 71.09375 17.671875 61.125 8.828125 
Q 51.171875 0 30.078125 0 
L 9.8125 0 
z
" id="DejaVuSans-44"/>
      <path d="M 18.109375 8.203125 
L 18.109375 -20.796875 
L 9.078125 -20.796875 
L 9.078125 54.6875 
L 18.109375 54.6875 
L 18.109375 46.390625 
Q 20.953125 51.265625 25.265625 53.625 
Q 29.59375 56 35.59375 56 
Q 45.5625 56 51.78125 48.09375 
Q 58.015625 40.1875 58.015625 27.296875 
Q 58.015625 14.40625 51.78125 6.484375 
Q 45.5625 -1.421875 35.59375 -1.421875 
Q 29.59375 -1.421875 25.265625 0.953125 
Q 20.953125 3.328125 18.109375 8.203125 
z
M 48.6875 27.296875 
Q 48.6875 37.203125 44.609375 42.84375 
Q 40.53125 48.484375 33.40625 48.484375 
Q 26.265625 48.484375 22.1875 42.84375 
Q 18.109375 37.203125 18.109375 27.296875 
Q 18.109375 17.390625 22.1875 11.75 
Q 26.265625 6.109375 33.40625 6.109375 
Q 40.53125 6.109375 44.609375 11.75 
Q 48.6875 17.390625 48.6875 27.296875 
z
" id="DejaVuSans-70"/>
     </defs>
     <g transform="translate(94.6 102.104812)scale(0.1 -0.1)">
      <use xlink:href="#DejaVuSans-44"/>
      <use x="77.001953" xlink:href="#DejaVuSans-65"/>
      <use x="138.525391" xlink:href="#DejaVuSans-70"/>
      <use x="202.001953" xlink:href="#DejaVuSans-6f"/>
      <use x="263.183594" xlink:href="#DejaVuSans-73"/>
      <use x="315.283203" xlink:href="#DejaVuSans-69"/>
      <use x="343.066406" xlink:href="#DejaVuSans-74"/>
      <use x="382.275391" xlink:href="#DejaVuSans-73"/>
     </g>
    </g>
    <g id="line2d_50"/>
    <g id="line2d_51">
     <g>
      <use style="fill:#008000;stroke:#008000;" x="76.6" xlink:href="#m0cd9239318" y="113.282937"/>
     </g>
    </g>
    <g id="text_26">
     <!-- Commission -->
     <defs>
      <path d="M 64.40625 67.28125 
L 64.40625 56.890625 
Q 59.421875 61.53125 53.78125 63.8125 
Q 48.140625 66.109375 41.796875 66.109375 
Q 29.296875 66.109375 22.65625 58.46875 
Q 16.015625 50.828125 16.015625 36.375 
Q 16.015625 21.96875 22.65625 14.328125 
Q 29.296875 6.6875 41.796875 6.6875 
Q 48.140625 6.6875 53.78125 8.984375 
Q 59.421875 11.28125 64.40625 15.921875 
L 64.40625 5.609375 
Q 59.234375 2.09375 53.4375 0.328125 
Q 47.65625 -1.421875 41.21875 -1.421875 
Q 24.65625 -1.421875 15.125 8.703125 
Q 5.609375 18.84375 5.609375 36.375 
Q 5.609375 53.953125 15.125 64.078125 
Q 24.65625 74.21875 41.21875 74.21875 
Q 47.75 74.21875 53.53125 72.484375 
Q 59.328125 70.75 64.40625 67.28125 
z
" id="DejaVuSans-43"/>
     </defs>
     <g transform="translate(94.6 116.782937)scale(0.1 -0.1)">
      <use xlink:href="#DejaVuSans-43"/>
      <use x="69.824219" xlink:href="#DejaVuSans-6f"/>
      <use x="131.005859" xlink:href="#DejaVuSans-6d"/>
      <use x="228.417969" xlink:href="#DejaVuSans-6d"/>
      <use x="325.830078" xlink:href="#DejaVuSans-69"/>
      <use x="353.613281" xlink:href="#DejaVuSans-73"/>
      <use x="405.712891" xlink:href="#DejaVuSans-73"/>
      <use x="457.8125" xlink:href="#DejaVuSans-69"/>
      <use x="485.595703" xlink:href="#DejaVuSans-6f"/>
      <use x="546.777344" xlink:href="#DejaVuSans-6e"/>
     </g>
    </g>
   </g>
  </g>
 </g>
 <defs>
  <clipPath id="pa3b77f8f62">
   <rect height="235.008" width="357.12" x="57.6" y="41.472"/>
  </clipPath>
 </defs>
</svg>
