<?xml version="1.0" encoding="utf-8" standalone="no"?>
<!DOCTYPE svg PUBLIC "-//W3C//DTD SVG 1.1//EN"
  "http://www.w3.org/Graphics/SVG/1.1/DTD/svg11.dtd">
<!-- Created with matplotlib (http://matplotlib.org/) -->
<svg height="345.6pt" version="1.1" viewBox="0 0 460.8 345.6" width="460.8pt" xmlns="http://www.w3.org/2000/svg" xmlns:xlink="http://www.w3.org/1999/xlink">
 <defs>
  <style type="text/css">
*{stroke-linecap:butt;stroke-linejoin:round;}
  </style>
 </defs>
 <g id="figure_1">
  <g id="patch_1">
   <path d="M 0 345.6 
L 460.8 345.6 
L 460.8 0 
L 0 0 
z
" style="fill:#ffffff;"/>
  </g>
  <g id="axes_1">
   <g id="patch_2">
    <path d="M 57.6 276.48 
L 414.72 276.48 
L 414.72 41.472 
L 57.6 41.472 
z
" style="fill:#ffffff;"/>
   </g>
   <g id="matplotlib.axis_1">
    <g id="xtick_1">
     <g id="line2d_1">
      <path clip-path="url(#pdb38e5e96c)" d="M 73.832727 276.48 
L 73.832727 41.472 
" style="fill:none;stroke:#b0b0b0;stroke-linecap:square;stroke-width:0.8;"/>
     </g>
     <g id="line2d_2">
      <defs>
       <path d="M 0 0 
L 0 3.5 
" id="m263b0b9653" style="stroke:#000000;stroke-width:0.8;"/>
      </defs>
      <g>
       <use style="stroke:#000000;stroke-width:0.8;" x="73.832727" xlink:href="#m263b0b9653" y="276.48"/>
      </g>
     </g>
     <g id="text_1">
      <!-- 2019-01 -->
      <defs>
       <path d="M 19.1875 8.296875 
L 53.609375 8.296875 
L 53.609375 0 
L 7.328125 0 
L 7.328125 8.296875 
Q 12.9375 14.109375 22.625 23.890625 
Q 32.328125 33.6875 34.8125 36.53125 
Q 39.546875 41.84375 41.421875 45.53125 
Q 43.3125 49.21875 43.3125 52.78125 
Q 43.3125 58.59375 39.234375 62.25 
Q 35.15625 65.921875 28.609375 65.921875 
Q 23.96875 65.921875 18.8125 64.3125 
Q 13.671875 62.703125 7.8125 59.421875 
L 7.8125 69.390625 
Q 13.765625 71.78125 18.9375 73 
Q 24.125 74.21875 28.421875 74.21875 
Q 39.75 74.21875 46.484375 68.546875 
Q 53.21875 62.890625 53.21875 53.421875 
Q 53.21875 48.921875 51.53125 44.890625 
Q 49.859375 40.875 45.40625 35.40625 
Q 44.1875 33.984375 37.640625 27.21875 
Q 31.109375 20.453125 19.1875 8.296875 
z
" id="DejaVuSans-32"/>
       <path d="M 31.78125 66.40625 
Q 24.171875 66.40625 20.328125 58.90625 
Q 16.5 51.421875 16.5 36.375 
Q 16.5 21.390625 20.328125 13.890625 
Q 24.171875 6.390625 31.78125 6.390625 
Q 39.453125 6.390625 43.28125 13.890625 
Q 47.125 21.390625 47.125 36.375 
Q 47.125 51.421875 43.28125 58.90625 
Q 39.453125 66.40625 31.78125 66.40625 
z
M 31.78125 74.21875 
Q 44.046875 74.21875 50.515625 64.515625 
Q 56.984375 54.828125 56.984375 36.375 
Q 56.984375 17.96875 50.515625 8.265625 
Q 44.046875 -1.421875 31.78125 -1.421875 
Q 19.53125 -1.421875 13.0625 8.265625 
Q 6.59375 17.96875 6.59375 36.375 
Q 6.59375 54.828125 13.0625 64.515625 
Q 19.53125 74.21875 31.78125 74.21875 
z
" id="DejaVuSans-30"/>
       <path d="M 12.40625 8.296875 
L 28.515625 8.296875 
L 28.515625 63.921875 
L 10.984375 60.40625 
L 10.984375 69.390625 
L 28.421875 72.90625 
L 38.28125 72.90625 
L 38.28125 8.296875 
L 54.390625 8.296875 
L 54.390625 0 
L 12.40625 0 
z
" id="DejaVuSans-31"/>
       <path d="M 10.984375 1.515625 
L 10.984375 10.5 
Q 14.703125 8.734375 18.5 7.8125 
Q 22.3125 6.890625 25.984375 6.890625 
Q 35.75 6.890625 40.890625 13.453125 
Q 46.046875 20.015625 46.78125 33.40625 
Q 43.953125 29.203125 39.59375 26.953125 
Q 35.25 24.703125 29.984375 24.703125 
Q 19.046875 24.703125 12.671875 31.3125 
Q 6.296875 37.9375 6.296875 49.421875 
Q 6.296875 60.640625 12.9375 67.421875 
Q 19.578125 74.21875 30.609375 74.21875 
Q 43.265625 74.21875 49.921875 64.515625 
Q 56.59375 54.828125 56.59375 36.375 
Q 56.59375 19.140625 48.40625 8.859375 
Q 40.234375 -1.421875 26.421875 -1.421875 
Q 22.703125 -1.421875 18.890625 -0.6875 
Q 15.09375 0.046875 10.984375 1.515625 
z
M 30.609375 32.421875 
Q 37.25 32.421875 41.125 36.953125 
Q 45.015625 41.5 45.015625 49.421875 
Q 45.015625 57.28125 41.125 61.84375 
Q 37.25 66.40625 30.609375 66.40625 
Q 23.96875 66.40625 20.09375 61.84375 
Q 16.21875 57.28125 16.21875 49.421875 
Q 16.21875 41.5 20.09375 36.953125 
Q 23.96875 32.421875 30.609375 32.421875 
z
" id="DejaVuSans-39"/>
       <path d="M 4.890625 31.390625 
L 31.203125 31.390625 
L 31.203125 23.390625 
L 4.890625 23.390625 
z
" id="DejaVuSans-2d"/>
      </defs>
      <g transform="translate(36.607906 310.951846)rotate(-30)scale(0.1 -0.1)">
       <use xlink:href="#DejaVuSans-32"/>
       <use x="63.623047" xlink:href="#DejaVuSans-30"/>
       <use x="127.246094" xlink:href="#DejaVuSans-31"/>
       <use x="190.869141" xlink:href="#DejaVuSans-39"/>
       <use x="254.492188" xlink:href="#DejaVuSans-2d"/>
       <use x="290.576172" xlink:href="#DejaVuSans-30"/>
       <use x="354.199219" xlink:href="#DejaVuSans-31"/>
      </g>
     </g>
    </g>
    <g id="xtick_2">
     <g id="line2d_3">
      <path clip-path="url(#pdb38e5e96c)" d="M 145.773857 276.48 
L 145.773857 41.472 
" style="fill:none;stroke:#b0b0b0;stroke-linecap:square;stroke-width:0.8;"/>
     </g>
     <g id="line2d_4">
      <g>
       <use style="stroke:#000000;stroke-width:0.8;" x="145.773857" xlink:href="#m263b0b9653" y="276.48"/>
      </g>
     </g>
     <g id="text_2">
      <!-- 2019-02 -->
      <g transform="translate(108.549036 310.951846)rotate(-30)scale(0.1 -0.1)">
       <use xlink:href="#DejaVuSans-32"/>
       <use x="63.623047" xlink:href="#DejaVuSans-30"/>
       <use x="127.246094" xlink:href="#DejaVuSans-31"/>
       <use x="190.869141" xlink:href="#DejaVuSans-39"/>
       <use x="254.492188" xlink:href="#DejaVuSans-2d"/>
       <use x="290.576172" xlink:href="#DejaVuSans-30"/>
       <use x="354.199219" xlink:href="#DejaVuSans-32"/>
      </g>
     </g>
    </g>
    <g id="xtick_3">
     <g id="line2d_5">
      <path clip-path="url(#pdb38e5e96c)" d="M 210.752942 276.48 
L 210.752942 41.472 
" style="fill:none;stroke:#b0b0b0;stroke-linecap:square;stroke-width:0.8;"/>
     </g>
     <g id="line2d_6">
      <g>
       <use style="stroke:#000000;stroke-width:0.8;" x="210.752942" xlink:href="#m263b0b9653" y="276.48"/>
      </g>
     </g>
     <g id="text_3">
      <!-- 2019-03 -->
      <defs>
       <path d="M 40.578125 39.3125 
Q 47.65625 37.796875 51.625 33 
Q 55.609375 28.21875 55.609375 21.1875 
Q 55.609375 10.40625 48.1875 4.484375 
Q 40.765625 -1.421875 27.09375 -1.421875 
Q 22.515625 -1.421875 17.65625 -0.515625 
Q 12.796875 0.390625 7.625 2.203125 
L 7.625 11.71875 
Q 11.71875 9.328125 16.59375 8.109375 
Q 21.484375 6.890625 26.8125 6.890625 
Q 36.078125 6.890625 40.9375 10.546875 
Q 45.796875 14.203125 45.796875 21.1875 
Q 45.796875 27.640625 41.28125 31.265625 
Q 36.765625 34.90625 28.71875 34.90625 
L 20.21875 34.90625 
L 20.21875 43.015625 
L 29.109375 43.015625 
Q 36.375 43.015625 40.234375 45.921875 
Q 44.09375 48.828125 44.09375 54.296875 
Q 44.09375 59.90625 40.109375 62.90625 
Q 36.140625 65.921875 28.71875 65.921875 
Q 24.65625 65.921875 20.015625 65.03125 
Q 15.375 64.15625 9.8125 62.3125 
L 9.8125 71.09375 
Q 15.4375 72.65625 20.34375 73.4375 
Q 25.25 74.21875 29.59375 74.21875 
Q 40.828125 74.21875 47.359375 69.109375 
Q 53.90625 64.015625 53.90625 55.328125 
Q 53.90625 49.265625 50.4375 45.09375 
Q 46.96875 40.921875 40.578125 39.3125 
z
" id="DejaVuSans-33"/>
      </defs>
      <g transform="translate(173.528121 310.951846)rotate(-30)scale(0.1 -0.1)">
       <use xlink:href="#DejaVuSans-32"/>
       <use x="63.623047" xlink:href="#DejaVuSans-30"/>
       <use x="127.246094" xlink:href="#DejaVuSans-31"/>
       <use x="190.869141" xlink:href="#DejaVuSans-39"/>
       <use x="254.492188" xlink:href="#DejaVuSans-2d"/>
       <use x="290.576172" xlink:href="#DejaVuSans-30"/>
       <use x="354.199219" xlink:href="#DejaVuSans-33"/>
      </g>
     </g>
    </g>
    <g id="xtick_4">
     <g id="line2d_7">
      <path clip-path="url(#pdb38e5e96c)" d="M 282.694071 276.48 
L 282.694071 41.472 
" style="fill:none;stroke:#b0b0b0;stroke-linecap:square;stroke-width:0.8;"/>
     </g>
     <g id="line2d_8">
      <g>
       <use style="stroke:#000000;stroke-width:0.8;" x="282.694071" xlink:href="#m263b0b9653" y="276.48"/>
      </g>
     </g>
     <g id="text_4">
      <!-- 2019-04 -->
      <defs>
       <path d="M 37.796875 64.3125 
L 12.890625 25.390625 
L 37.796875 25.390625 
z
M 35.203125 72.90625 
L 47.609375 72.90625 
L 47.609375 25.390625 
L 58.015625 25.390625 
L 58.015625 17.1875 
L 47.609375 17.1875 
L 47.609375 0 
L 37.796875 0 
L 37.796875 17.1875 
L 4.890625 17.1875 
L 4.890625 26.703125 
z
" id="DejaVuSans-34"/>
      </defs>
      <g transform="translate(245.46925 310.951846)rotate(-30)scale(0.1 -0.1)">
       <use xlink:href="#DejaVuSans-32"/>
       <use x="63.623047" xlink:href="#DejaVuSans-30"/>
       <use x="127.246094" xlink:href="#DejaVuSans-31"/>
       <use x="190.869141" xlink:href="#DejaVuSans-39"/>
       <use x="254.492188" xlink:href="#DejaVuSans-2d"/>
       <use x="290.576172" xlink:href="#DejaVuSans-30"/>
       <use x="354.199219" xlink:href="#DejaVuSans-34"/>
      </g>
     </g>
    </g>
    <g id="xtick_5">
     <g id="line2d_9">
      <path clip-path="url(#pdb38e5e96c)" d="M 352.314519 276.48 
L 352.314519 41.472 
" style="fill:none;stroke:#b0b0b0;stroke-linecap:square;stroke-width:0.8;"/>
     </g>
     <g id="line2d_10">
      <g>
       <use style="stroke:#000000;stroke-width:0.8;" x="352.314519" xlink:href="#m263b0b9653" y="276.48"/>
      </g>
     </g>
     <g id="text_5">
      <!-- 2019-05 -->
      <defs>
       <path d="M 10.796875 72.90625 
L 49.515625 72.90625 
L 49.515625 64.59375 
L 19.828125 64.59375 
L 19.828125 46.734375 
Q 21.96875 47.46875 24.109375 47.828125 
Q 26.265625 48.1875 28.421875 48.1875 
Q 40.625 48.1875 47.75 41.5 
Q 54.890625 34.8125 54.890625 23.390625 
Q 54.890625 11.625 47.5625 5.09375 
Q 40.234375 -1.421875 26.90625 -1.421875 
Q 22.3125 -1.421875 17.546875 -0.640625 
Q 12.796875 0.140625 7.71875 1.703125 
L 7.71875 11.625 
Q 12.109375 9.234375 16.796875 8.0625 
Q 21.484375 6.890625 26.703125 6.890625 
Q 35.15625 6.890625 40.078125 11.328125 
Q 45.015625 15.765625 45.015625 23.390625 
Q 45.015625 31 40.078125 35.4375 
Q 35.15625 39.890625 26.703125 39.890625 
Q 22.75 39.890625 18.8125 39.015625 
Q 14.890625 38.140625 10.796875 36.28125 
z
" id="DejaVuSans-35"/>
      </defs>
      <g transform="translate(315.089698 310.951846)rotate(-30)scale(0.1 -0.1)">
       <use xlink:href="#DejaVuSans-32"/>
       <use x="63.623047" xlink:href="#DejaVuSans-30"/>
       <use x="127.246094" xlink:href="#DejaVuSans-31"/>
       <use x="190.869141" xlink:href="#DejaVuSans-39"/>
       <use x="254.492188" xlink:href="#DejaVuSans-2d"/>
       <use x="290.576172" xlink:href="#DejaVuSans-30"/>
       <use x="354.199219" xlink:href="#DejaVuSans-35"/>
      </g>
     </g>
    </g>
    <g id="text_6">
     <!-- date -->
     <defs>
      <path d="M 45.40625 46.390625 
L 45.40625 75.984375 
L 54.390625 75.984375 
L 54.390625 0 
L 45.40625 0 
L 45.40625 8.203125 
Q 42.578125 3.328125 38.25 0.953125 
Q 33.9375 -1.421875 27.875 -1.421875 
Q 17.96875 -1.421875 11.734375 6.484375 
Q 5.515625 14.40625 5.515625 27.296875 
Q 5.515625 40.1875 11.734375 48.09375 
Q 17.96875 56 27.875 56 
Q 33.9375 56 38.25 53.625 
Q 42.578125 51.265625 45.40625 46.390625 
z
M 14.796875 27.296875 
Q 14.796875 17.390625 18.875 11.75 
Q 22.953125 6.109375 30.078125 6.109375 
Q 37.203125 6.109375 41.296875 11.75 
Q 45.40625 17.390625 45.40625 27.296875 
Q 45.40625 37.203125 41.296875 42.84375 
Q 37.203125 48.484375 30.078125 48.484375 
Q 22.953125 48.484375 18.875 42.84375 
Q 14.796875 37.203125 14.796875 27.296875 
z
" id="DejaVuSans-64"/>
      <path d="M 34.28125 27.484375 
Q 23.390625 27.484375 19.1875 25 
Q 14.984375 22.515625 14.984375 16.5 
Q 14.984375 11.71875 18.140625 8.90625 
Q 21.296875 6.109375 26.703125 6.109375 
Q 34.1875 6.109375 38.703125 11.40625 
Q 43.21875 16.703125 43.21875 25.484375 
L 43.21875 27.484375 
z
M 52.203125 31.203125 
L 52.203125 0 
L 43.21875 0 
L 43.21875 8.296875 
Q 40.140625 3.328125 35.546875 0.953125 
Q 30.953125 -1.421875 24.3125 -1.421875 
Q 15.921875 -1.421875 10.953125 3.296875 
Q 6 8.015625 6 15.921875 
Q 6 25.140625 12.171875 29.828125 
Q 18.359375 34.515625 30.609375 34.515625 
L 43.21875 34.515625 
L 43.21875 35.40625 
Q 43.21875 41.609375 39.140625 45 
Q 35.0625 48.390625 27.6875 48.390625 
Q 23 48.390625 18.546875 47.265625 
Q 14.109375 46.140625 10.015625 43.890625 
L 10.015625 52.203125 
Q 14.9375 54.109375 19.578125 55.046875 
Q 24.21875 56 28.609375 56 
Q 40.484375 56 46.34375 49.84375 
Q 52.203125 43.703125 52.203125 31.203125 
z
" id="DejaVuSans-61"/>
      <path d="M 18.3125 70.21875 
L 18.3125 54.6875 
L 36.8125 54.6875 
L 36.8125 47.703125 
L 18.3125 47.703125 
L 18.3125 18.015625 
Q 18.3125 11.328125 20.140625 9.421875 
Q 21.96875 7.515625 27.59375 7.515625 
L 36.8125 7.515625 
L 36.8125 0 
L 27.59375 0 
Q 17.1875 0 13.234375 3.875 
Q 9.28125 7.765625 9.28125 18.015625 
L 9.28125 47.703125 
L 2.6875 47.703125 
L 2.6875 54.6875 
L 9.28125 54.6875 
L 9.28125 70.21875 
z
" id="DejaVuSans-74"/>
      <path d="M 56.203125 29.59375 
L 56.203125 25.203125 
L 14.890625 25.203125 
Q 15.484375 15.921875 20.484375 11.0625 
Q 25.484375 6.203125 34.421875 6.203125 
Q 39.59375 6.203125 44.453125 7.46875 
Q 49.3125 8.734375 54.109375 11.28125 
L 54.109375 2.78125 
Q 49.265625 0.734375 44.1875 -0.34375 
Q 39.109375 -1.421875 33.890625 -1.421875 
Q 20.796875 -1.421875 13.15625 6.1875 
Q 5.515625 13.8125 5.515625 26.8125 
Q 5.515625 40.234375 12.765625 48.109375 
Q 20.015625 56 32.328125 56 
Q 43.359375 56 49.78125 48.890625 
Q 56.203125 41.796875 56.203125 29.59375 
z
M 47.21875 32.234375 
Q 47.125 39.59375 43.09375 43.984375 
Q 39.0625 48.390625 32.421875 48.390625 
Q 24.90625 48.390625 20.390625 44.140625 
Q 15.875 39.890625 15.1875 32.171875 
z
" id="DejaVuSans-65"/>
     </defs>
     <g transform="translate(224.885 324.351346)scale(0.1 -0.1)">
      <use xlink:href="#DejaVuSans-64"/>
      <use x="63.476562" xlink:href="#DejaVuSans-61"/>
      <use x="124.755859" xlink:href="#DejaVuSans-74"/>
      <use x="163.964844" xlink:href="#DejaVuSans-65"/>
     </g>
    </g>
   </g>
   <g id="matplotlib.axis_2">
    <g id="ytick_1">
     <g id="line2d_11">
      <path clip-path="url(#pdb38e5e96c)" d="M 57.6 265.797818 
L 414.72 265.797818 
" style="fill:none;stroke:#b0b0b0;stroke-linecap:square;stroke-width:0.8;"/>
     </g>
     <g id="line2d_12">
      <defs>
       <path d="M 0 0 
L -3.5 0 
" id="m0682d98e46" style="stroke:#000000;stroke-width:0.8;"/>
      </defs>
      <g>
       <use style="stroke:#000000;stroke-width:0.8;" x="57.6" xlink:href="#m0682d98e46" y="265.797818"/>
      </g>
     </g>
     <g id="text_7">
      <!-- 0 -->
      <g transform="translate(44.2375 269.597037)scale(0.1 -0.1)">
       <use xlink:href="#DejaVuSans-30"/>
      </g>
     </g>
    </g>
    <g id="ytick_2">
     <g id="line2d_13">
      <path clip-path="url(#pdb38e5e96c)" d="M 57.6 232.405073 
L 414.72 232.405073 
" style="fill:none;stroke:#b0b0b0;stroke-linecap:square;stroke-width:0.8;"/>
     </g>
     <g id="line2d_14">
      <g>
       <use style="stroke:#000000;stroke-width:0.8;" x="57.6" xlink:href="#m0682d98e46" y="232.405073"/>
      </g>
     </g>
     <g id="text_8">
      <!-- 500 -->
      <g transform="translate(31.5125 236.204292)scale(0.1 -0.1)">
       <use xlink:href="#DejaVuSans-35"/>
       <use x="63.623047" xlink:href="#DejaVuSans-30"/>
       <use x="127.246094" xlink:href="#DejaVuSans-30"/>
      </g>
     </g>
    </g>
    <g id="ytick_3">
     <g id="line2d_15">
      <path clip-path="url(#pdb38e5e96c)" d="M 57.6 199.012328 
L 414.72 199.012328 
" style="fill:none;stroke:#b0b0b0;stroke-linecap:square;stroke-width:0.8;"/>
     </g>
     <g id="line2d_16">
      <g>
       <use style="stroke:#000000;stroke-width:0.8;" x="57.6" xlink:href="#m0682d98e46" y="199.012328"/>
      </g>
     </g>
     <g id="text_9">
      <!-- 1000 -->
      <g transform="translate(25.15 202.811547)scale(0.1 -0.1)">
       <use xlink:href="#DejaVuSans-31"/>
       <use x="63.623047" xlink:href="#DejaVuSans-30"/>
       <use x="127.246094" xlink:href="#DejaVuSans-30"/>
       <use x="190.869141" xlink:href="#DejaVuSans-30"/>
      </g>
     </g>
    </g>
    <g id="ytick_4">
     <g id="line2d_17">
      <path clip-path="url(#pdb38e5e96c)" d="M 57.6 165.619583 
L 414.72 165.619583 
" style="fill:none;stroke:#b0b0b0;stroke-linecap:square;stroke-width:0.8;"/>
     </g>
     <g id="line2d_18">
      <g>
       <use style="stroke:#000000;stroke-width:0.8;" x="57.6" xlink:href="#m0682d98e46" y="165.619583"/>
      </g>
     </g>
     <g id="text_10">
      <!-- 1500 -->
      <g transform="translate(25.15 169.418802)scale(0.1 -0.1)">
       <use xlink:href="#DejaVuSans-31"/>
       <use x="63.623047" xlink:href="#DejaVuSans-35"/>
       <use x="127.246094" xlink:href="#DejaVuSans-30"/>
       <use x="190.869141" xlink:href="#DejaVuSans-30"/>
      </g>
     </g>
    </g>
    <g id="ytick_5">
     <g id="line2d_19">
      <path clip-path="url(#pdb38e5e96c)" d="M 57.6 132.226838 
L 414.72 132.226838 
" style="fill:none;stroke:#b0b0b0;stroke-linecap:square;stroke-width:0.8;"/>
     </g>
     <g id="line2d_20">
      <g>
       <use style="stroke:#000000;stroke-width:0.8;" x="57.6" xlink:href="#m0682d98e46" y="132.226838"/>
      </g>
     </g>
     <g id="text_11">
      <!-- 2000 -->
      <g transform="translate(25.15 136.026057)scale(0.1 -0.1)">
       <use xlink:href="#DejaVuSans-32"/>
       <use x="63.623047" xlink:href="#DejaVuSans-30"/>
       <use x="127.246094" xlink:href="#DejaVuSans-30"/>
       <use x="190.869141" xlink:href="#DejaVuSans-30"/>
      </g>
     </g>
    </g>
    <g id="ytick_6">
     <g id="line2d_21">
      <path clip-path="url(#pdb38e5e96c)" d="M 57.6 98.834093 
L 414.72 98.834093 
" style="fill:none;stroke:#b0b0b0;stroke-linecap:square;stroke-width:0.8;"/>
     </g>
     <g id="line2d_22">
      <g>
       <use style="stroke:#000000;stroke-width:0.8;" x="57.6" xlink:href="#m0682d98e46" y="98.834093"/>
      </g>
     </g>
     <g id="text_12">
      <!-- 2500 -->
      <g transform="translate(25.15 102.633311)scale(0.1 -0.1)">
       <use xlink:href="#DejaVuSans-32"/>
       <use x="63.623047" xlink:href="#DejaVuSans-35"/>
       <use x="127.246094" xlink:href="#DejaVuSans-30"/>
       <use x="190.869141" xlink:href="#DejaVuSans-30"/>
      </g>
     </g>
    </g>
    <g id="ytick_7">
     <g id="line2d_23">
      <path clip-path="url(#pdb38e5e96c)" d="M 57.6 65.441348 
L 414.72 65.441348 
" style="fill:none;stroke:#b0b0b0;stroke-linecap:square;stroke-width:0.8;"/>
     </g>
     <g id="line2d_24">
      <g>
       <use style="stroke:#000000;stroke-width:0.8;" x="57.6" xlink:href="#m0682d98e46" y="65.441348"/>
      </g>
     </g>
     <g id="text_13">
      <!-- 3000 -->
      <g transform="translate(25.15 69.240566)scale(0.1 -0.1)">
       <use xlink:href="#DejaVuSans-33"/>
       <use x="63.623047" xlink:href="#DejaVuSans-30"/>
       <use x="127.246094" xlink:href="#DejaVuSans-30"/>
       <use x="190.869141" xlink:href="#DejaVuSans-30"/>
      </g>
     </g>
    </g>
    <g id="text_14">
     <!-- EUR -->
     <defs>
      <path d="M 9.8125 72.90625 
L 55.90625 72.90625 
L 55.90625 64.59375 
L 19.671875 64.59375 
L 19.671875 43.015625 
L 54.390625 43.015625 
L 54.390625 34.71875 
L 19.671875 34.71875 
L 19.671875 8.296875 
L 56.78125 8.296875 
L 56.78125 0 
L 9.8125 0 
z
" id="DejaVuSans-45"/>
      <path d="M 8.6875 72.90625 
L 18.609375 72.90625 
L 18.609375 28.609375 
Q 18.609375 16.890625 22.84375 11.734375 
Q 27.09375 6.59375 36.625 6.59375 
Q 46.09375 6.59375 50.34375 11.734375 
Q 54.59375 16.890625 54.59375 28.609375 
L 54.59375 72.90625 
L 64.5 72.90625 
L 64.5 27.390625 
Q 64.5 13.140625 57.4375 5.859375 
Q 50.390625 -1.421875 36.625 -1.421875 
Q 22.796875 -1.421875 15.734375 5.859375 
Q 8.6875 13.140625 8.6875 27.390625 
z
" id="DejaVuSans-55"/>
      <path d="M 44.390625 34.1875 
Q 47.5625 33.109375 50.5625 29.59375 
Q 53.5625 26.078125 56.59375 19.921875 
L 66.609375 0 
L 56 0 
L 46.6875 18.703125 
Q 43.0625 26.03125 39.671875 28.421875 
Q 36.28125 30.8125 30.421875 30.8125 
L 19.671875 30.8125 
L 19.671875 0 
L 9.8125 0 
L 9.8125 72.90625 
L 32.078125 72.90625 
Q 44.578125 72.90625 50.734375 67.671875 
Q 56.890625 62.453125 56.890625 51.90625 
Q 56.890625 45.015625 53.6875 40.46875 
Q 50.484375 35.9375 44.390625 34.1875 
z
M 19.671875 64.796875 
L 19.671875 38.921875 
L 32.078125 38.921875 
Q 39.203125 38.921875 42.84375 42.21875 
Q 46.484375 45.515625 46.484375 51.90625 
Q 46.484375 58.296875 42.84375 61.546875 
Q 39.203125 64.796875 32.078125 64.796875 
z
" id="DejaVuSans-52"/>
     </defs>
     <g transform="translate(19.070312 169.268969)rotate(-90)scale(0.1 -0.1)">
      <use xlink:href="#DejaVuSans-45"/>
      <use x="63.183594" xlink:href="#DejaVuSans-55"/>
      <use x="136.376953" xlink:href="#DejaVuSans-52"/>
     </g>
    </g>
   </g>
   <g id="line2d_25">
    <path clip-path="url(#pdb38e5e96c)" d="M 73.832727 265.797818 
L 152.735902 265.690617 
L 152.735902 265.523304 
L 157.377265 265.371527 
L 157.377265 265.354906 
L 162.018628 265.211652 
L 162.018628 265.029793 
L 168.980673 264.887479 
L 168.980673 264.527805 
L 168.980673 264.527805 
L 171.301354 264.527805 
L 171.301354 264.420799 
L 171.301354 264.29544 
L 173.622036 264.29544 
L 173.622036 264.192496 
L 173.622036 263.60656 
L 175.942718 263.473911 
L 175.942718 263.371373 
L 178.263399 263.240057 
L 178.263399 263.208545 
L 185.225444 263.096238 
L 185.225444 262.458802 
L 187.546126 262.330666 
L 187.546126 262.248591 
L 192.187489 262.09552 
L 192.187489 261.987678 
L 192.187489 261.987678 
L 201.470215 261.848278 
L 201.470215 261.681886 
L 201.470215 261.681886 
L 203.790897 261.544822 
L 203.790897 261.537132 
L 208.43226 261.481456 
L 208.43226 261.434301 
L 210.752942 261.312111 
L 210.752942 261.173685 
L 217.714986 261.076275 
L 217.714986 260.189184 
L 220.035668 260.079866 
L 220.035668 259.903406 
L 222.356349 259.778948 
L 222.356349 259.682217 
L 224.677031 259.595111 
L 224.677031 259.469859 
L 226.997713 259.348159 
L 226.997713 259.156053 
L 233.959757 259.03728 
L 233.959757 258.812803 
L 236.280439 258.812803 
L 236.280439 258.710438 
L 236.280439 258.604964 
L 238.601121 258.478423 
L 238.601121 258.052706 
L 238.601121 258.052706 
L 240.921802 257.935735 
L 240.921802 257.899008 
L 243.242484 257.790592 
L 243.242484 257.669018 
L 250.204529 257.556218 
L 250.204529 257.241062 
L 252.52521 257.152415 
L 252.52521 257.103065 
L 257.166573 256.989259 
L 257.166573 256.989259 
L 257.166573 256.901888 
L 264.128618 256.750504 
L 268.769981 256.621235 
L 268.769981 256.529943 
L 268.769981 256.529943 
L 275.732026 256.420217 
L 275.732026 256.293597 
L 282.694071 256.217325 
L 282.694071 256.008981 
L 287.335434 255.876274 
L 287.335434 255.449555 
L 289.656116 255.338293 
L 289.656116 255.015069 
L 291.976797 254.91451 
L 291.976797 254.816056 
L 298.938842 254.799736 
L 298.938842 254.71426 
L 298.938842 254.387346 
L 301.259524 254.268913 
L 301.259524 254.21681 
L 303.580205 254.109753 
L 303.580205 254.109753 
L 303.580205 254.007641 
L 305.900887 254.007641 
L 305.900887 253.930197 
L 305.900887 253.827363 
L 308.221569 253.827363 
L 308.221569 253.751515 
L 308.221569 253.62839 
L 315.183613 253.518703 
L 315.183613 252.719022 
L 319.824977 252.580761 
L 319.824977 252.455402 
L 322.145658 252.333733 
L 322.145658 251.626129 
L 331.428385 251.512508 
L 333.749066 251.39202 
L 333.749066 251.206281 
L 338.390429 251.105381 
L 338.390429 250.973123 
L 347.673156 250.837369 
L 347.673156 250.629306 
L 354.635201 250.418415 
L 354.635201 250.258317 
L 356.955882 250.15596 
L 356.955882 249.843449 
L 356.955882 249.843449 
L 363.917927 249.689294 
L 363.917927 249.215015 
L 366.238609 249.0879 
L 366.238609 249.030013 
L 368.55929 248.920981 
L 368.55929 248.920981 
L 368.55929 248.793295 
L 373.200653 248.664348 
L 373.200653 248.464002 
L 380.162698 248.35706 
L 380.162698 248.35706 
L 380.162698 247.853305 
L 382.48338 247.742993 
L 382.48338 247.688975 
L 384.804061 247.571732 
L 384.804061 247.339477 
L 387.124743 247.2045 
L 387.124743 247.164714 
L 387.124743 247.164714 
L 396.407469 247.066083 
L 396.407469 246.436913 
L 396.407469 246.436913 
" style="fill:none;stroke:#0000ff;stroke-linecap:square;stroke-width:1.5;"/>
   </g>
   <g id="line2d_26">
    <path clip-path="url(#pdb38e5e96c)" d="M 73.832727 265.797818 
L 80.502941 265.530676 
L 80.876103 232.137931 
L 81.352917 232.271502 
L 81.443005 232.739001 
L 81.633736 232.805786 
L 81.713617 233.473641 
L 81.803919 233.740783 
L 81.957879 236.211846 
L 82.015037 236.412202 
L 82.932351 247.097881 
L 83.312094 248.099663 
L 83.705455 248.700733 
L 83.883266 249.902872 
L 84.019633 249.969657 
L 84.134459 252.106793 
L 84.213077 252.307149 
L 84.429298 253.843215 
L 84.541196 254.51107 
L 84.653684 255.446067 
L 84.837002 256.514635 
L 84.95642 257.649988 
L 85.076322 257.716774 
L 85.190772 258.384629 
L 85.357409 259.052484 
L 85.573738 259.720339 
L 85.670567 260.054266 
L 86.158528 260.722121 
L 86.431799 260.989263 
L 86.613881 262.592115 
L 87.040763 262.859257 
L 87.164882 263.25997 
L 87.541724 264.462108 
L 88.664407 264.862821 
L 88.722425 264.996392 
L 88.74872 264.661651 
L 88.767146 264.795222 
L 88.768758 131.224241 
L 88.877405 132.827093 
L 89.124273 141.30885 
L 89.31726 152.462027 
L 89.437807 205.957205 
L 89.470683 205.688499 
L 89.571004 207.625278 
L 89.677826 211.632408 
L 89.892139 229.384182 
L 90.002882 230.252393 
L 90.110026 232.189173 
L 90.533013 232.845191 
L 90.537283 233.48519 
L 90.683696 233.752331 
L 90.726081 235.755896 
L 90.782674 239.495884 
L 90.823608 239.478119 
L 90.959357 239.745261 
L 91.074586 241.615255 
L 91.206064 248.293804 
L 91.337462 251.633078 
L 91.662975 254.771996 
L 91.807051 257.910914 
L 91.957116 257.242016 
L 92.106618 258.310584 
L 92.154079 258.377369 
L 92.296301 259.310618 
L 92.398932 259.644546 
L 92.435058 260.312401 
L 92.654395 260.445972 
L 93.404292 260.646328 
L 93.589114 261.380969 
L 93.666819 263.117391 
L 93.993676 263.250962 
L 93.995932 263.718461 
L 94.149757 263.785246 
L 94.45483 265.120956 
L 95.814444 265.186956 
L 95.982183 265.387313 
L 96.016993 265.520884 
L 96.773578 265.721152 
L 97.83717 265.700089 
L 98.128222 265.027801 
L 98.155458 265.161372 
L 98.323385 265.627966 
L 100.524836 265.694747 
L 105.649379 265.761532 
L 107.396122 265.084813 
L 107.42325 265.619097 
L 109.732087 265.752668 
L 112.755016 265.077763 
L 112.762376 265.144548 
L 112.78467 265.745618 
L 121.185161 265.678441 
L 121.185161 265.040366 
L 121.190775 265.708221 
L 121.700653 265.667541 
L 131.060816 265.733343 
L 140.209485 265.774603 
L 153.525256 265.660918 
L 153.525256 265.539931 
L 153.556467 265.740287 
L 153.594849 265.723366 
L 153.692216 265.703445 
L 153.923666 265.770231 
L 156.060359 265.757651 
L 157.052933 265.0649 
L 158.103418 265.000106 
L 158.103418 264.649558 
L 158.178921 264.983486 
L 159.135262 265.115784 
L 159.135262 265.109929 
L 159.395909 265.510642 
L 160.473038 265.488616 
L 160.607256 265.763318 
L 160.632853 265.489036 
L 160.722457 265.689392 
L 163.026513 265.686329 
L 163.093394 265.75311 
L 163.688444 265.79443 
L 169.690683 265.679132 
L 169.731832 265.724188 
L 169.742496 265.656564 
L 170.110796 265.551061 
L 170.110796 265.488382 
L 170.188475 265.621953 
L 170.428117 265.558713 
L 170.492984 264.845516 
L 170.505447 264.912302 
L 170.600154 265.112658 
L 170.657849 265.246229 
L 172.039863 265.095506 
L 172.039863 265.031222 
L 172.052138 265.098007 
L 172.114264 265.098003 
L 172.804909 265.188008 
L 172.982962 265.381582 
L 172.982962 265.378906 
L 173.36934 265.34704 
L 174.378702 265.240302 
L 174.470938 264.61521 
L 174.663845 264.896843 
L 174.700374 264.664925 
L 174.736473 265.065638 
L 174.991614 265.457776 
L 174.991614 265.439421 
L 175.245868 265.500812 
L 175.373264 265.144723 
L 175.430234 265.211508 
L 175.457711 265.411864 
L 177.537542 265.483994 
L 177.633055 265.590564 
L 178.003451 265.65199 
L 178.051744 265.557259 
L 178.068156 265.624044 
L 179.058259 265.513751 
L 179.058259 265.500564 
L 179.095541 265.56735 
L 179.342946 265.75609 
L 179.342946 265.735121 
L 179.828516 265.688642 
L 179.927038 265.520391 
L 179.977319 265.653962 
L 179.997303 265.720748 
L 180.064667 265.38682 
L 180.123006 265.520391 
L 180.212906 265.586699 
L 180.212906 265.584461 
L 181.879231 265.648484 
L 182.049548 265.714715 
L 182.049548 265.712957 
L 182.455802 265.779743 
L 185.997661 265.694334 
L 186.037065 265.141837 
L 186.084445 265.208623 
L 186.301177 265.402076 
L 186.470796 265.465385 
L 186.475711 265.598956 
L 186.64157 265.338944 
L 186.670015 265.472515 
L 186.713554 265.658574 
L 186.894643 265.564817 
L 186.894643 265.542101 
L 187.368314 265.569242 
L 187.478036 265.702813 
L 188.267578 265.61135 
L 188.267578 265.565919 
L 188.350333 265.69949 
L 191.082345 265.773352 
L 191.220646 237.328076 
L 191.314896 239.700781 
L 191.462007 259.996215 
L 191.541002 259.993654 
L 191.561603 260.661509 
L 191.747043 260.709704 
L 191.776454 260.776489 
L 192.074946 260.976846 
L 193.302302 260.93456 
L 193.329055 259.263548 
L 193.372648 260.8664 
L 193.604045 260.933185 
L 193.687444 262.93675 
L 193.742909 263.070321 
L 193.758112 263.471034 
L 195.31176 263.461476 
L 195.408589 262.776558 
L 195.420166 263.110485 
L 195.505284 263.510589 
L 195.505284 263.507546 
L 195.988787 263.625026 
L 196.192786 265.157263 
L 196.787569 265.190599 
L 198.021317 265.190003 
L 198.327061 265.657502 
L 203.259799 265.700834 
L 203.259799 265.269736 
L 203.332347 265.403307 
L 203.393426 265.259763 
L 203.4028 265.46012 
L 205.384539 265.36941 
L 205.384539 265.328117 
L 205.510484 265.394903 
L 205.638014 265.72883 
L 205.673711 265.689086 
L 206.990671 265.725391 
L 207.740407 265.405423 
L 210.027433 265.467862 
L 210.082576 265.601433 
L 211.490134 265.477444 
L 211.490134 265.331989 
L 211.592953 265.46556 
L 211.701869 265.636673 
L 212.478035 265.714128 
L 218.539553 265.776775 
L 218.539553 264.939238 
L 218.757708 265.007513 
L 218.86641 265.380718 
L 219.033182 265.432251 
L 219.042046 265.565822 
L 219.123484 265.488631 
L 219.502932 265.53971 
L 219.502932 265.526963 
L 219.502932 264.85036 
L 219.612788 265.317859 
L 219.618241 265.518215 
L 219.756918 265.585001 
L 220.800311 265.650418 
L 220.800311 265.559015 
L 220.800311 265.478888 
L 220.869797 265.612459 
L 223.040333 265.513202 
L 223.040333 265.453137 
L 223.297166 265.585707 
L 223.297166 265.569132 
L 223.621014 265.63763 
L 223.797294 265.704415 
L 227.73367 265.588617 
L 227.73367 265.400021 
L 227.770897 265.466806 
L 228.117415 265.703454 
L 228.117415 265.699258 
L 228.500703 265.631161 
L 228.500703 265.564671 
L 228.518404 265.631457 
L 228.873651 265.698242 
L 233.132746 265.762039 
L 233.132746 265.755421 
L 233.282462 265.753648 
L 234.759399 265.652859 
L 234.759399 265.631063 
L 234.798399 265.764634 
L 235.646281 265.630499 
L 235.646281 265.595668 
L 235.679855 265.729239 
L 236.022827 265.61502 
L 236.07421 265.585347 
L 236.146597 265.652133 
L 236.195347 264.9966 
L 236.256641 265.464098 
L 237.005518 265.356548 
L 237.005518 265.346026 
L 237.121095 265.342512 
L 237.202561 265.039771 
L 237.207906 265.306913 
L 237.385664 265.460639 
L 237.475939 265.527424 
L 239.429797 265.435346 
L 239.513465 265.025251 
L 239.534765 265.092037 
L 239.651927 265.559535 
L 240.265108 265.455189 
L 240.265108 265.38875 
L 240.283937 265.455536 
L 240.870258 265.545567 
L 240.965718 265.612353 
L 241.708309 265.501251 
L 241.708309 265.485508 
L 241.765708 265.552294 
L 242.015343 265.601958 
L 244.246743 265.660393 
L 244.414455 265.727178 
L 244.893848 265.673218 
L 244.893848 265.500331 
L 244.931532 265.633902 
L 246.950713 265.600436 
L 247.823547 265.732439 
L 247.823547 265.731792 
L 251.051094 265.620974 
L 251.051094 265.429741 
L 251.056788 265.496527 
L 251.595783 265.628846 
L 251.595783 265.54975 
L 251.595783 265.430511 
L 251.622938 265.630867 
L 253.430733 265.675568 
L 253.479215 265.742354 
L 277.59628 265.76225 
L 277.789402 265.094395 
L 277.789402 263.990117 
L 277.826065 265.793325 
L 283.598788 265.697007 
L 283.598788 265.648642 
L 283.632792 265.715427 
L 283.700479 265.687315 
L 283.795965 265.743112 
L 283.795965 265.721526 
L 284.462731 265.632809 
L 285.898975 265.62568 
L 286.112564 265.270456 
L 286.130667 265.337242 
L 286.15605 265.671169 
L 286.209796 265.654495 
L 286.601734 265.527328 
L 286.688249 261.073883 
L 286.691902 263.796682 
L 286.794667 264.330966 
L 287.329256 264.285808 
L 287.329256 264.958003 
L 287.48045 265.024788 
L 288.059922 264.916652 
L 288.152991 264.525564 
L 288.54055 264.564379 
L 288.564563 264.631165 
L 290.364541 264.470153 
L 290.364541 264.286622 
L 291.125773 264.14282 
L 291.185966 264.476748 
L 291.204177 265.678887 
L 291.42816 265.777816 
L 291.611209 265.112585 
L 291.621443 265.179371 
L 291.710779 264.512994 
L 291.744058 265.180848 
L 292.689601 265.069984 
L 292.689601 265.032008 
L 292.758684 265.098794 
L 292.77284 265.095891 
L 293.845806 265.051949 
L 293.995576 265.719804 
L 299.728223 265.598039 
L 299.770527 265.418403 
L 299.885836 265.527707 
L 299.958008 265.660945 
L 299.958008 265.622407 
L 302.467084 265.653672 
L 302.658433 265.713876 
L 302.658433 265.691506 
L 302.751717 265.670155 
L 303.219775 265.728363 
L 304.376919 265.620042 
L 304.405981 265.519741 
L 304.471197 265.667749 
L 304.777666 265.723933 
L 305.070975 265.78572 
L 308.9633 265.658907 
L 309.040844 265.564806 
L 309.060157 265.698377 
L 309.232757 265.751141 
L 309.232757 265.740082 
L 313.776244 265.727164 
L 313.874201 265.78747 
L 313.874201 265.775597 
L 315.9868 265.665713 
L 316.07678 265.39701 
L 316.091177 265.463795 
L 316.127008 265.334011 
L 316.127008 265.332451 
L 316.188409 265.683322 
L 316.222011 265.597843 
L 316.401541 265.731414 
L 316.958854 265.618149 
L 316.958854 265.071001 
L 317.04913 265.263413 
L 317.142306 265.392513 
L 317.142306 265.376431 
L 317.188639 265.314062 
L 317.240049 265.376074 
L 317.430968 265.370987 
L 317.581463 265.638129 
L 321.594443 265.681656 
L 321.977274 265.747635 
L 322.897033 265.655821 
L 322.963269 264.978029 
L 322.978847 265.178386 
L 323.451337 265.612736 
L 323.451337 265.598607 
L 323.548193 265.558829 
L 323.64137 265.624317 
L 323.64137 265.622106 
L 324.335909 265.584682 
L 328.04771 265.794454 
L 334.465899 265.68295 
L 334.465899 265.62597 
L 334.501972 265.692756 
L 339.278009 265.727355 
L 339.373576 265.793519 
L 339.373576 265.792104 
L 340.244772 265.715449 
L 340.340903 265.650819 
L 340.344314 265.717605 
L 349.360082 265.670293 
L 349.360082 265.573726 
L 349.41176 265.707297 
L 352.326928 265.775195 
L 355.375052 265.663006 
L 355.442201 265.573068 
L 355.657321 265.723575 
L 356.506384 265.660086 
L 356.553067 265.597792 
L 356.567813 265.664577 
L 357.710668 265.55617 
L 357.710668 265.281819 
L 357.813299 265.548961 
L 357.966399 265.5913 
L 358.0657 265.656554 
L 358.0657 265.655791 
L 362.513834 265.708729 
L 362.897176 265.775126 
L 362.897176 265.771874 
L 364.660276 265.642217 
L 364.660276 265.369877 
L 365.231932 265.514883 
L 366.945906 265.384868 
L 367.027909 265.34899 
L 367.135079 265.4109 
L 367.312246 265.475445 
L 367.349098 265.609016 
L 367.417483 265.591512 
L 367.514285 265.653304 
L 367.514285 265.651837 
L 369.270858 265.537495 
L 369.358636 265.449985 
L 369.505693 265.566902 
L 369.505693 265.534533 
L 370.034105 265.600026 
L 370.034105 265.593906 
L 371.581145 265.485978 
L 371.581145 265.444753 
L 371.815201 265.576165 
L 373.950309 265.441094 
L 374.009857 265.402881 
L 374.122748 265.453978 
L 374.201125 265.581225 
L 374.201125 265.550038 
L 375.260312 265.635163 
L 378.548589 265.765891 
L 378.548589 265.764533 
L 380.956001 265.654554 
L 381.018423 265.112072 
L 381.060807 265.178857 
L 381.12194 265.377896 
L 381.221536 265.336047 
L 381.398461 265.389324 
L 381.635633 265.581901 
L 381.635633 265.570159 
L 383.289843 265.521687 
L 383.326883 265.588472 
L 383.472651 265.521576 
L 383.482831 265.588362 
L 383.567627 265.652285 
L 383.724917 265.706606 
L 383.861284 265.771186 
L 383.861284 265.765914 
L 385.545686 265.604409 
L 385.545686 265.454157 
L 385.653205 265.587728 
L 385.739559 265.650121 
L 385.739559 265.601049 
L 389.01728 265.627747 
L 389.159691 265.693093 
L 389.159691 265.692138 
L 397.159757 265.569567 
L 397.159757 265.159224 
L 397.250623 265.22601 
L 397.299669 265.19647 
L 397.311702 265.263256 
L 397.410385 265.526216 
L 397.437943 265.593001 
L 398.487273 265.483633 
L 398.487273 265.483633 
" style="fill:none;stroke:#ff0000;stroke-linecap:square;stroke-width:1.5;"/>
   </g>
   <g id="line2d_27">
    <path clip-path="url(#pdb38e5e96c)" d="M 73.832727 265.797818 
L 78.47409 265.731033 
L 78.47409 265.463891 
L 80.794772 265.33032 
L 80.794772 250.570726 
L 82.373104 250.236799 
L 83.115454 249.902872 
L 83.115454 239.083622 
L 85.436135 238.950051 
L 85.436135 233.807568 
L 87.756817 233.406855 
L 87.756817 198.878757 
L 87.756817 200.01411 
L 89.314091 199.346255 
L 89.366897 145.917863 
L 89.879918 145.250008 
L 89.892139 132.573931 
L 90.077498 131.906076 
L 90.077498 109.065439 
L 90.077498 110.073971 
L 90.533013 109.417952 
L 90.537283 108.777954 
L 90.725946 108.110099 
L 90.729465 105.438679 
L 92.39818 104.770824 
L 92.39818 100.296197 
L 94.718862 99.427985 
L 94.718862 99.027272 
L 94.718862 99.028146 
L 97.039543 98.894575 
L 97.039543 98.093149 
L 97.039543 99.100778 
L 104.001588 98.967207 
L 106.32227 98.566494 
L 106.32227 98.432923 
L 106.32227 99.100778 
L 110.963633 98.900421 
L 110.963633 98.299352 
L 110.963633 98.967207 
L 120.246359 98.299352 
L 120.246359 98.366138 
L 120.246359 99.033992 
L 138.811812 98.833636 
L 138.811812 98.913804 
L 152.735902 98.853114 
L 152.735902 98.652757 
L 152.735902 98.720737 
L 155.056583 98.653952 
L 155.056583 98.665511 
L 155.056583 99.33865 
L 157.377265 99.271864 
L 157.377265 98.203297 
L 157.377265 98.544786 
L 159.697946 98.411215 
L 159.697946 98.077287 
L 159.697946 98.516223 
L 162.018628 98.382652 
L 162.018628 98.048724 
L 162.018628 98.203028 
L 168.980673 98.014206 
L 168.980673 97.346352 
L 168.980673 98.286775 
L 171.301354 98.153204 
L 171.301354 97.752491 
L 171.301354 97.916063 
L 173.622036 97.782492 
L 173.622036 96.379997 
L 173.622036 97.16236 
L 175.942718 97.028789 
L 175.942718 96.56129 
L 175.942718 96.714993 
L 178.263399 96.581422 
L 178.263399 96.047138 
L 178.263399 96.594511 
L 180.584081 96.46094 
L 180.584081 96.394154 
L 180.584081 96.394708 
L 185.225444 96.204406 
L 185.225444 95.336194 
L 185.225444 95.723652 
L 187.546126 95.590081 
L 187.546126 95.389725 
L 187.546126 95.482067 
L 189.866807 95.348496 
L 189.866807 85.531029 
L 189.866807 85.569459 
L 191.390104 84.901604 
L 191.425558 71.744862 
L 192.187489 71.611291 
L 192.187489 67.33702 
L 192.187489 69.083299 
L 194.50817 68.749372 
L 194.50817 67.012949 
L 194.50817 67.709891 
L 196.063698 67.309178 
L 196.828852 66.84168 
L 196.828852 66.84168 
L 199.149534 66.848137 
L 201.470215 66.64778 
L 201.470215 66.247067 
L 201.470215 66.877725 
L 203.790897 66.543797 
L 203.790897 66.477012 
L 203.790897 66.504005 
L 206.111578 66.370434 
L 206.111578 66.762839 
L 208.43226 66.629268 
L 208.43226 66.29534 
L 208.43226 66.455566 
L 210.752942 66.321995 
L 210.752942 65.988068 
L 210.752942 66.115516 
L 217.714986 65.849016 
L 217.714986 64.44652 
L 217.714986 65.260142 
L 220.035668 65.126571 
L 220.035668 64.926214 
L 220.035668 64.973255 
L 222.356349 64.772899 
L 222.356349 64.572542 
L 222.356349 64.593272 
L 226.997713 64.354799 
L 226.997713 64.020871 
L 226.997713 64.11377 
L 233.959757 63.849616 
L 233.959757 63.181761 
L 233.959757 64.004664 
L 236.280439 63.871093 
L 236.280439 63.270023 
L 236.280439 63.62781 
L 238.601121 63.494239 
L 238.601121 62.893169 
L 238.601121 63.163098 
L 240.921802 63.029527 
L 240.921802 62.82917 
L 240.921802 62.897654 
L 243.242484 62.764083 
L 243.242484 62.496941 
L 243.242484 62.662575 
L 250.204529 62.413338 
L 250.204529 62.146196 
L 250.204529 62.269541 
L 252.52521 62.13597 
L 252.52521 62.002399 
L 252.52521 62.020645 
L 259.487255 61.759095 
L 259.487255 61.69231 
L 259.487255 61.717389 
L 268.769981 61.384463 
L 268.769981 61.317677 
L 268.769981 61.40103 
L 275.732026 61.220904 
L 275.732026 59.417696 
L 275.732026 61.156231 
L 282.694071 61.089445 
L 282.694071 60.955874 
L 282.694071 61.032131 
L 285.014753 60.89856 
L 285.014753 59.963563 
L 285.014753 60.427442 
L 286.601734 60.554608 
L 286.688249 65.075617 
L 286.688947 62.404198 
L 287.329256 62.386263 
L 287.335434 61.518948 
L 287.335434 61.622202 
L 289.656116 61.221489 
L 289.656116 59.217924 
L 289.656116 60.649397 
L 291.976797 60.515826 
L 291.976797 59.847971 
L 291.976797 59.911429 
L 296.618161 59.856121 
L 298.938842 59.72255 
L 298.938842 59.388623 
L 298.938842 59.500932 
L 301.259524 59.367361 
L 301.259524 59.10022 
L 301.259524 59.303624 
L 303.580205 59.170053 
L 303.580205 58.969696 
L 303.580205 59.05578 
L 305.900887 58.922209 
L 305.900887 58.855423 
L 305.900887 58.911495 
L 308.221569 58.777924 
L 308.221569 58.577568 
L 308.221569 58.668737 
L 312.862932 58.635202 
L 315.183613 58.234489 
L 315.183613 57.366278 
L 315.183613 57.89607 
L 317.504295 57.762499 
L 317.504295 57.695713 
L 317.504295 57.811812 
L 319.824977 57.678241 
L 319.824977 57.477884 
L 319.824977 57.589729 
L 322.145658 57.322587 
L 322.145658 56.654732 
L 322.145658 56.923409 
L 324.46634 56.789838 
L 324.46634 56.723053 
L 324.46634 56.727593 
L 331.428385 56.594744 
L 331.428385 56.635742 
L 331.428385 56.641086 
L 331.428385 56.641086 
L 333.749066 56.507515 
L 333.749066 56.373944 
L 333.749066 56.43375 
L 336.069748 56.300179 
L 336.069748 56.233394 
L 336.069748 56.253589 
L 338.390429 56.120018 
L 338.390429 55.986447 
L 338.390429 56.13748 
L 340.711111 56.003909 
L 340.711111 55.937124 
L 340.711111 55.970558 
L 347.673156 55.906832 
L 347.673156 55.773261 
L 347.673156 55.805168 
L 354.635201 55.55891 
L 354.635201 55.291768 
L 354.635201 55.49016 
L 356.955882 55.356589 
L 356.955882 55.022662 
L 356.955882 55.117958 
L 361.597245 54.920212 
L 361.597245 54.853427 
L 361.597245 54.861039 
L 363.917927 54.727468 
L 363.917927 54.460326 
L 363.917927 54.585995 
L 366.238609 54.452424 
L 366.238609 54.252067 
L 366.238609 54.293616 
L 368.55929 54.160045 
L 368.55929 54.026474 
L 368.55929 54.122592 
L 370.879972 53.989021 
L 370.879972 53.922235 
L 370.879972 54.030388 
L 373.200653 53.896817 
L 373.200653 53.629675 
L 373.200653 53.710801 
L 380.162698 53.44583 
L 380.162698 52.844761 
L 380.162698 53.20033 
L 382.48338 53.066759 
L 382.48338 52.732832 
L 382.48338 52.878207 
L 384.804061 52.744636 
L 384.804061 52.477494 
L 384.804061 52.622493 
L 387.124743 52.488922 
L 387.124743 52.22178 
L 387.124743 52.421324 
L 389.445424 52.287753 
L 389.445424 52.154182 
L 389.445424 52.23954 
L 396.407469 52.349563 
L 396.407469 52.436312 
L 396.407469 52.436312 
" style="fill:none;stroke:#008000;stroke-linecap:square;stroke-width:1.5;"/>
   </g>
   <g id="line2d_28">
    <defs>
     <path d="M 0 3 
C 0.795609 3 1.55874 2.683901 2.12132 2.12132 
C 2.683901 1.55874 3 0.795609 3 0 
C 3 -0.795609 2.683901 -1.55874 2.12132 -2.12132 
C 1.55874 -2.683901 0.795609 -3 0 -3 
C -0.795609 -3 -1.55874 -2.683901 -2.12132 -2.12132 
C -2.683901 -1.55874 -3 -0.795609 -3 0 
C -3 0.795609 -2.683901 1.55874 -2.12132 2.12132 
C -1.55874 2.683901 -0.795609 3 0 3 
z
" id="m985a3b6416" style="stroke:#bfbf00;"/>
    </defs>
    <g clip-path="url(#pdb38e5e96c)">
     <use style="fill:#bfbf00;stroke:#bfbf00;" x="80.876103" xlink:href="#m985a3b6416" y="232.405073"/>
     <use style="fill:#bfbf00;stroke:#bfbf00;" x="88.768758" xlink:href="#m985a3b6416" y="132.226838"/>
    </g>
   </g>
   <g id="line2d_29">
    <defs>
     <path d="M 0 3 
C 0.795609 3 1.55874 2.683901 2.12132 2.12132 
C 2.683901 1.55874 3 0.795609 3 0 
C 3 -0.795609 2.683901 -1.55874 2.12132 -2.12132 
C 1.55874 -2.683901 0.795609 -3 0 -3 
C -0.795609 -3 -1.55874 -2.683901 -2.12132 -2.12132 
C -2.683901 -1.55874 -3 -0.795609 -3 0 
C -3 0.795609 -2.683901 1.55874 -2.12132 2.12132 
C -1.55874 2.683901 -0.795609 3 0 3 
z
" id="mb61f5b3ea6" style="stroke:#008000;"/>
    </defs>
    <g clip-path="url(#pdb38e5e96c)">
     <use style="fill:#008000;stroke:#008000;" x="191.220646" xlink:href="#mb61f5b3ea6" y="237.352542"/>
    </g>
   </g>
   <g id="patch_3">
    <path d="M 57.6 276.48 
L 57.6 41.472 
" style="fill:none;stroke:#000000;stroke-linecap:square;stroke-linejoin:miter;stroke-width:0.8;"/>
   </g>
   <g id="patch_4">
    <path d="M 414.72 276.48 
L 414.72 41.472 
" style="fill:none;stroke:#000000;stroke-linecap:square;stroke-linejoin:miter;stroke-width:0.8;"/>
   </g>
   <g id="patch_5">
    <path d="M 57.6 276.48 
L 414.72 276.48 
" style="fill:none;stroke:#000000;stroke-linecap:square;stroke-linejoin:miter;stroke-width:0.8;"/>
   </g>
   <g id="patch_6">
    <path d="M 57.6 41.472 
L 414.72 41.472 
" style="fill:none;stroke:#000000;stroke-linecap:square;stroke-linejoin:miter;stroke-width:0.8;"/>
   </g>
   <g id="text_15">
    <!-- My Bondora earnings -->
    <defs>
     <path d="M 9.8125 72.90625 
L 24.515625 72.90625 
L 43.109375 23.296875 
L 61.8125 72.90625 
L 76.515625 72.90625 
L 76.515625 0 
L 66.890625 0 
L 66.890625 64.015625 
L 48.09375 14.015625 
L 38.1875 14.015625 
L 19.390625 64.015625 
L 19.390625 0 
L 9.8125 0 
z
" id="DejaVuSans-4d"/>
     <path d="M 32.171875 -5.078125 
Q 28.375 -14.84375 24.75 -17.8125 
Q 21.140625 -20.796875 15.09375 -20.796875 
L 7.90625 -20.796875 
L 7.90625 -13.28125 
L 13.1875 -13.28125 
Q 16.890625 -13.28125 18.9375 -11.515625 
Q 21 -9.765625 23.484375 -3.21875 
L 25.09375 0.875 
L 2.984375 54.6875 
L 12.5 54.6875 
L 29.59375 11.921875 
L 46.6875 54.6875 
L 56.203125 54.6875 
z
" id="DejaVuSans-79"/>
     <path id="DejaVuSans-20"/>
     <path d="M 19.671875 34.8125 
L 19.671875 8.109375 
L 35.5 8.109375 
Q 43.453125 8.109375 47.28125 11.40625 
Q 51.125 14.703125 51.125 21.484375 
Q 51.125 28.328125 47.28125 31.5625 
Q 43.453125 34.8125 35.5 34.8125 
z
M 19.671875 64.796875 
L 19.671875 42.828125 
L 34.28125 42.828125 
Q 41.5 42.828125 45.03125 45.53125 
Q 48.578125 48.25 48.578125 53.8125 
Q 48.578125 59.328125 45.03125 62.0625 
Q 41.5 64.796875 34.28125 64.796875 
z
M 9.8125 72.90625 
L 35.015625 72.90625 
Q 46.296875 72.90625 52.390625 68.21875 
Q 58.5 63.53125 58.5 54.890625 
Q 58.5 48.1875 55.375 44.234375 
Q 52.25 40.28125 46.1875 39.3125 
Q 53.46875 37.75 57.5 32.78125 
Q 61.53125 27.828125 61.53125 20.40625 
Q 61.53125 10.640625 54.890625 5.3125 
Q 48.25 0 35.984375 0 
L 9.8125 0 
z
" id="DejaVuSans-42"/>
     <path d="M 30.609375 48.390625 
Q 23.390625 48.390625 19.1875 42.75 
Q 14.984375 37.109375 14.984375 27.296875 
Q 14.984375 17.484375 19.15625 11.84375 
Q 23.34375 6.203125 30.609375 6.203125 
Q 37.796875 6.203125 41.984375 11.859375 
Q 46.1875 17.53125 46.1875 27.296875 
Q 46.1875 37.015625 41.984375 42.703125 
Q 37.796875 48.390625 30.609375 48.390625 
z
M 30.609375 56 
Q 42.328125 56 49.015625 48.375 
Q 55.71875 40.765625 55.71875 27.296875 
Q 55.71875 13.875 49.015625 6.21875 
Q 42.328125 -1.421875 30.609375 -1.421875 
Q 18.84375 -1.421875 12.171875 6.21875 
Q 5.515625 13.875 5.515625 27.296875 
Q 5.515625 40.765625 12.171875 48.375 
Q 18.84375 56 30.609375 56 
z
" id="DejaVuSans-6f"/>
     <path d="M 54.890625 33.015625 
L 54.890625 0 
L 45.90625 0 
L 45.90625 32.71875 
Q 45.90625 40.484375 42.875 44.328125 
Q 39.84375 48.1875 33.796875 48.1875 
Q 26.515625 48.1875 22.3125 43.546875 
Q 18.109375 38.921875 18.109375 30.90625 
L 18.109375 0 
L 9.078125 0 
L 9.078125 54.6875 
L 18.109375 54.6875 
L 18.109375 46.1875 
Q 21.34375 51.125 25.703125 53.5625 
Q 30.078125 56 35.796875 56 
Q 45.21875 56 50.046875 50.171875 
Q 54.890625 44.34375 54.890625 33.015625 
z
" id="DejaVuSans-6e"/>
     <path d="M 41.109375 46.296875 
Q 39.59375 47.171875 37.8125 47.578125 
Q 36.03125 48 33.890625 48 
Q 26.265625 48 22.1875 43.046875 
Q 18.109375 38.09375 18.109375 28.8125 
L 18.109375 0 
L 9.078125 0 
L 9.078125 54.6875 
L 18.109375 54.6875 
L 18.109375 46.1875 
Q 20.953125 51.171875 25.484375 53.578125 
Q 30.03125 56 36.53125 56 
Q 37.453125 56 38.578125 55.875 
Q 39.703125 55.765625 41.0625 55.515625 
z
" id="DejaVuSans-72"/>
     <path d="M 9.421875 54.6875 
L 18.40625 54.6875 
L 18.40625 0 
L 9.421875 0 
z
M 9.421875 75.984375 
L 18.40625 75.984375 
L 18.40625 64.59375 
L 9.421875 64.59375 
z
" id="DejaVuSans-69"/>
     <path d="M 45.40625 27.984375 
Q 45.40625 37.75 41.375 43.109375 
Q 37.359375 48.484375 30.078125 48.484375 
Q 22.859375 48.484375 18.828125 43.109375 
Q 14.796875 37.75 14.796875 27.984375 
Q 14.796875 18.265625 18.828125 12.890625 
Q 22.859375 7.515625 30.078125 7.515625 
Q 37.359375 7.515625 41.375 12.890625 
Q 45.40625 18.265625 45.40625 27.984375 
z
M 54.390625 6.78125 
Q 54.390625 -7.171875 48.1875 -13.984375 
Q 42 -20.796875 29.203125 -20.796875 
Q 24.46875 -20.796875 20.265625 -20.09375 
Q 16.0625 -19.390625 12.109375 -17.921875 
L 12.109375 -9.1875 
Q 16.0625 -11.328125 19.921875 -12.34375 
Q 23.78125 -13.375 27.78125 -13.375 
Q 36.625 -13.375 41.015625 -8.765625 
Q 45.40625 -4.15625 45.40625 5.171875 
L 45.40625 9.625 
Q 42.625 4.78125 38.28125 2.390625 
Q 33.9375 0 27.875 0 
Q 17.828125 0 11.671875 7.65625 
Q 5.515625 15.328125 5.515625 27.984375 
Q 5.515625 40.671875 11.671875 48.328125 
Q 17.828125 56 27.875 56 
Q 33.9375 56 38.28125 53.609375 
Q 42.625 51.21875 45.40625 46.390625 
L 45.40625 54.6875 
L 54.390625 54.6875 
z
" id="DejaVuSans-67"/>
     <path d="M 44.28125 53.078125 
L 44.28125 44.578125 
Q 40.484375 46.53125 36.375 47.5 
Q 32.28125 48.484375 27.875 48.484375 
Q 21.1875 48.484375 17.84375 46.4375 
Q 14.5 44.390625 14.5 40.28125 
Q 14.5 37.15625 16.890625 35.375 
Q 19.28125 33.59375 26.515625 31.984375 
L 29.59375 31.296875 
Q 39.15625 29.25 43.1875 25.515625 
Q 47.21875 21.78125 47.21875 15.09375 
Q 47.21875 7.46875 41.1875 3.015625 
Q 35.15625 -1.421875 24.609375 -1.421875 
Q 20.21875 -1.421875 15.453125 -0.5625 
Q 10.6875 0.296875 5.421875 2 
L 5.421875 11.28125 
Q 10.40625 8.6875 15.234375 7.390625 
Q 20.0625 6.109375 24.8125 6.109375 
Q 31.15625 6.109375 34.5625 8.28125 
Q 37.984375 10.453125 37.984375 14.40625 
Q 37.984375 18.0625 35.515625 20.015625 
Q 33.0625 21.96875 24.703125 23.78125 
L 21.578125 24.515625 
Q 13.234375 26.265625 9.515625 29.90625 
Q 5.8125 33.546875 5.8125 39.890625 
Q 5.8125 47.609375 11.28125 51.796875 
Q 16.75 56 26.8125 56 
Q 31.78125 56 36.171875 55.265625 
Q 40.578125 54.546875 44.28125 53.078125 
z
" id="DejaVuSans-73"/>
    </defs>
    <g transform="translate(172.363125 35.472)scale(0.12 -0.12)">
     <use xlink:href="#DejaVuSans-4d"/>
     <use x="86.279297" xlink:href="#DejaVuSans-79"/>
     <use x="145.458984" xlink:href="#DejaVuSans-20"/>
     <use x="177.246094" xlink:href="#DejaVuSans-42"/>
     <use x="245.849609" xlink:href="#DejaVuSans-6f"/>
     <use x="307.03125" xlink:href="#DejaVuSans-6e"/>
     <use x="370.410156" xlink:href="#DejaVuSans-64"/>
     <use x="433.886719" xlink:href="#DejaVuSans-6f"/>
     <use x="495.068359" xlink:href="#DejaVuSans-72"/>
     <use x="536.181641" xlink:href="#DejaVuSans-61"/>
     <use x="597.460938" xlink:href="#DejaVuSans-20"/>
     <use x="629.248047" xlink:href="#DejaVuSans-65"/>
     <use x="690.771484" xlink:href="#DejaVuSans-61"/>
     <use x="752.050781" xlink:href="#DejaVuSans-72"/>
     <use x="793.148438" xlink:href="#DejaVuSans-6e"/>
     <use x="856.527344" xlink:href="#DejaVuSans-69"/>
     <use x="884.310547" xlink:href="#DejaVuSans-6e"/>
     <use x="947.689453" xlink:href="#DejaVuSans-67"/>
     <use x="1011.166016" xlink:href="#DejaVuSans-73"/>
    </g>
   </g>
   <g id="legend_1">
    <g id="patch_7">
     <path d="M 313.87 197.171312 
L 407.72 197.171312 
Q 409.72 197.171312 409.72 195.171312 
L 409.72 122.780687 
Q 409.72 120.780687 407.72 120.780687 
L 313.87 120.780687 
Q 311.87 120.780687 311.87 122.780687 
L 311.87 195.171312 
Q 311.87 197.171312 313.87 197.171312 
z
" style="fill:#ffffff;opacity:0.8;stroke:#cccccc;stroke-linejoin:miter;"/>
    </g>
    <g id="line2d_30">
     <path d="M 315.87 128.879125 
L 335.87 128.879125 
" style="fill:none;stroke:#0000ff;stroke-linecap:square;stroke-width:1.5;"/>
    </g>
    <g id="line2d_31"/>
    <g id="text_16">
     <!-- Interest -->
     <defs>
      <path d="M 9.8125 72.90625 
L 19.671875 72.90625 
L 19.671875 0 
L 9.8125 0 
z
" id="DejaVuSans-49"/>
     </defs>
     <g transform="translate(343.87 132.379125)scale(0.1 -0.1)">
      <use xlink:href="#DejaVuSans-49"/>
      <use x="29.492188" xlink:href="#DejaVuSans-6e"/>
      <use x="92.871094" xlink:href="#DejaVuSans-74"/>
      <use x="132.080078" xlink:href="#DejaVuSans-65"/>
      <use x="193.603516" xlink:href="#DejaVuSans-72"/>
      <use x="234.685547" xlink:href="#DejaVuSans-65"/>
      <use x="296.208984" xlink:href="#DejaVuSans-73"/>
      <use x="348.308594" xlink:href="#DejaVuSans-74"/>
     </g>
    </g>
    <g id="line2d_32">
     <path d="M 315.87 143.55725 
L 335.87 143.55725 
" style="fill:none;stroke:#ff0000;stroke-linecap:square;stroke-width:1.5;"/>
    </g>
    <g id="line2d_33"/>
    <g id="text_17">
     <!-- Balance -->
     <defs>
      <path d="M 9.421875 75.984375 
L 18.40625 75.984375 
L 18.40625 0 
L 9.421875 0 
z
" id="DejaVuSans-6c"/>
      <path d="M 48.78125 52.59375 
L 48.78125 44.1875 
Q 44.96875 46.296875 41.140625 47.34375 
Q 37.3125 48.390625 33.40625 48.390625 
Q 24.65625 48.390625 19.8125 42.84375 
Q 14.984375 37.3125 14.984375 27.296875 
Q 14.984375 17.28125 19.8125 11.734375 
Q 24.65625 6.203125 33.40625 6.203125 
Q 37.3125 6.203125 41.140625 7.25 
Q 44.96875 8.296875 48.78125 10.40625 
L 48.78125 2.09375 
Q 45.015625 0.34375 40.984375 -0.53125 
Q 36.96875 -1.421875 32.421875 -1.421875 
Q 20.0625 -1.421875 12.78125 6.34375 
Q 5.515625 14.109375 5.515625 27.296875 
Q 5.515625 40.671875 12.859375 48.328125 
Q 20.21875 56 33.015625 56 
Q 37.15625 56 41.109375 55.140625 
Q 45.0625 54.296875 48.78125 52.59375 
z
" id="DejaVuSans-63"/>
     </defs>
     <g transform="translate(343.87 147.05725)scale(0.1 -0.1)">
      <use xlink:href="#DejaVuSans-42"/>
      <use x="68.603516" xlink:href="#DejaVuSans-61"/>
      <use x="129.882812" xlink:href="#DejaVuSans-6c"/>
      <use x="157.666016" xlink:href="#DejaVuSans-61"/>
      <use x="218.945312" xlink:href="#DejaVuSans-6e"/>
      <use x="282.324219" xlink:href="#DejaVuSans-63"/>
      <use x="337.304688" xlink:href="#DejaVuSans-65"/>
     </g>
    </g>
    <g id="line2d_34">
     <path d="M 315.87 158.235375 
L 335.87 158.235375 
" style="fill:none;stroke:#008000;stroke-linecap:square;stroke-width:1.5;"/>
    </g>
    <g id="line2d_35"/>
    <g id="text_18">
     <!-- Investments -->
     <defs>
      <path d="M 2.984375 54.6875 
L 12.5 54.6875 
L 29.59375 8.796875 
L 46.6875 54.6875 
L 56.203125 54.6875 
L 35.6875 0 
L 23.484375 0 
z
" id="DejaVuSans-76"/>
      <path d="M 52 44.1875 
Q 55.375 50.25 60.0625 53.125 
Q 64.75 56 71.09375 56 
Q 79.640625 56 84.28125 50.015625 
Q 88.921875 44.046875 88.921875 33.015625 
L 88.921875 0 
L 79.890625 0 
L 79.890625 32.71875 
Q 79.890625 40.578125 77.09375 44.375 
Q 74.3125 48.1875 68.609375 48.1875 
Q 61.625 48.1875 57.5625 43.546875 
Q 53.515625 38.921875 53.515625 30.90625 
L 53.515625 0 
L 44.484375 0 
L 44.484375 32.71875 
Q 44.484375 40.625 41.703125 44.40625 
Q 38.921875 48.1875 33.109375 48.1875 
Q 26.21875 48.1875 22.15625 43.53125 
Q 18.109375 38.875 18.109375 30.90625 
L 18.109375 0 
L 9.078125 0 
L 9.078125 54.6875 
L 18.109375 54.6875 
L 18.109375 46.1875 
Q 21.1875 51.21875 25.484375 53.609375 
Q 29.78125 56 35.6875 56 
Q 41.65625 56 45.828125 52.96875 
Q 50 49.953125 52 44.1875 
z
" id="DejaVuSans-6d"/>
     </defs>
     <g transform="translate(343.87 161.735375)scale(0.1 -0.1)">
      <use xlink:href="#DejaVuSans-49"/>
      <use x="29.492188" xlink:href="#DejaVuSans-6e"/>
      <use x="92.871094" xlink:href="#DejaVuSans-76"/>
      <use x="152.050781" xlink:href="#DejaVuSans-65"/>
      <use x="213.574219" xlink:href="#DejaVuSans-73"/>
      <use x="265.673828" xlink:href="#DejaVuSans-74"/>
      <use x="304.882812" xlink:href="#DejaVuSans-6d"/>
      <use x="402.294922" xlink:href="#DejaVuSans-65"/>
      <use x="463.818359" xlink:href="#DejaVuSans-6e"/>
      <use x="527.197266" xlink:href="#DejaVuSans-74"/>
      <use x="566.40625" xlink:href="#DejaVuSans-73"/>
     </g>
    </g>
    <g id="line2d_36"/>
    <g id="line2d_37">
     <g>
      <use style="fill:#bfbf00;stroke:#bfbf00;" x="325.87" xlink:href="#m985a3b6416" y="172.9135"/>
     </g>
    </g>
    <g id="text_19">
     <!-- Deposits -->
     <defs>
      <path d="M 19.671875 64.796875 
L 19.671875 8.109375 
L 31.59375 8.109375 
Q 46.6875 8.109375 53.6875 14.9375 
Q 60.6875 21.78125 60.6875 36.53125 
Q 60.6875 51.171875 53.6875 57.984375 
Q 46.6875 64.796875 31.59375 64.796875 
z
M 9.8125 72.90625 
L 30.078125 72.90625 
Q 51.265625 72.90625 61.171875 64.09375 
Q 71.09375 55.28125 71.09375 36.53125 
Q 71.09375 17.671875 61.125 8.828125 
Q 51.171875 0 30.078125 0 
L 9.8125 0 
z
" id="DejaVuSans-44"/>
      <path d="M 18.109375 8.203125 
L 18.109375 -20.796875 
L 9.078125 -20.796875 
L 9.078125 54.6875 
L 18.109375 54.6875 
L 18.109375 46.390625 
Q 20.953125 51.265625 25.265625 53.625 
Q 29.59375 56 35.59375 56 
Q 45.5625 56 51.78125 48.09375 
Q 58.015625 40.1875 58.015625 27.296875 
Q 58.015625 14.40625 51.78125 6.484375 
Q 45.5625 -1.421875 35.59375 -1.421875 
Q 29.59375 -1.421875 25.265625 0.953125 
Q 20.953125 3.328125 18.109375 8.203125 
z
M 48.6875 27.296875 
Q 48.6875 37.203125 44.609375 42.84375 
Q 40.53125 48.484375 33.40625 48.484375 
Q 26.265625 48.484375 22.1875 42.84375 
Q 18.109375 37.203125 18.109375 27.296875 
Q 18.109375 17.390625 22.1875 11.75 
Q 26.265625 6.109375 33.40625 6.109375 
Q 40.53125 6.109375 44.609375 11.75 
Q 48.6875 17.390625 48.6875 27.296875 
z
" id="DejaVuSans-70"/>
     </defs>
     <g transform="translate(343.87 176.4135)scale(0.1 -0.1)">
      <use xlink:href="#DejaVuSans-44"/>
      <use x="77.001953" xlink:href="#DejaVuSans-65"/>
      <use x="138.525391" xlink:href="#DejaVuSans-70"/>
      <use x="202.001953" xlink:href="#DejaVuSans-6f"/>
      <use x="263.183594" xlink:href="#DejaVuSans-73"/>
      <use x="315.283203" xlink:href="#DejaVuSans-69"/>
      <use x="343.066406" xlink:href="#DejaVuSans-74"/>
      <use x="382.275391" xlink:href="#DejaVuSans-73"/>
     </g>
    </g>
    <g id="line2d_38"/>
    <g id="line2d_39">
     <g>
      <use style="fill:#008000;stroke:#008000;" x="325.87" xlink:href="#mb61f5b3ea6" y="187.591625"/>
     </g>
    </g>
    <g id="text_20">
     <!-- Commission -->
     <defs>
      <path d="M 64.40625 67.28125 
L 64.40625 56.890625 
Q 59.421875 61.53125 53.78125 63.8125 
Q 48.140625 66.109375 41.796875 66.109375 
Q 29.296875 66.109375 22.65625 58.46875 
Q 16.015625 50.828125 16.015625 36.375 
Q 16.015625 21.96875 22.65625 14.328125 
Q 29.296875 6.6875 41.796875 6.6875 
Q 48.140625 6.6875 53.78125 8.984375 
Q 59.421875 11.28125 64.40625 15.921875 
L 64.40625 5.609375 
Q 59.234375 2.09375 53.4375 0.328125 
Q 47.65625 -1.421875 41.21875 -1.421875 
Q 24.65625 -1.421875 15.125 8.703125 
Q 5.609375 18.84375 5.609375 36.375 
Q 5.609375 53.953125 15.125 64.078125 
Q 24.65625 74.21875 41.21875 74.21875 
Q 47.75 74.21875 53.53125 72.484375 
Q 59.328125 70.75 64.40625 67.28125 
z
" id="DejaVuSans-43"/>
     </defs>
     <g transform="translate(343.87 191.091625)scale(0.1 -0.1)">
      <use xlink:href="#DejaVuSans-43"/>
      <use x="69.824219" xlink:href="#DejaVuSans-6f"/>
      <use x="131.005859" xlink:href="#DejaVuSans-6d"/>
      <use x="228.417969" xlink:href="#DejaVuSans-6d"/>
      <use x="325.830078" xlink:href="#DejaVuSans-69"/>
      <use x="353.613281" xlink:href="#DejaVuSans-73"/>
      <use x="405.712891" xlink:href="#DejaVuSans-73"/>
      <use x="457.8125" xlink:href="#DejaVuSans-69"/>
      <use x="485.595703" xlink:href="#DejaVuSans-6f"/>
      <use x="546.777344" xlink:href="#DejaVuSans-6e"/>
     </g>
    </g>
   </g>
  </g>
 </g>
 <defs>
  <clipPath id="pdb38e5e96c">
   <rect height="235.008" width="357.12" x="57.6" y="41.472"/>
  </clipPath>
 </defs>
</svg>
