<?xml version="1.0" encoding="utf-8" standalone="no"?>
<!DOCTYPE svg PUBLIC "-//W3C//DTD SVG 1.1//EN"
  "http://www.w3.org/Graphics/SVG/1.1/DTD/svg11.dtd">
<!-- Created with matplotlib (http://matplotlib.org/) -->
<svg height="345.6pt" version="1.1" viewBox="0 0 460.8 345.6" width="460.8pt" xmlns="http://www.w3.org/2000/svg" xmlns:xlink="http://www.w3.org/1999/xlink">
 <defs>
  <style type="text/css">
*{stroke-linecap:butt;stroke-linejoin:round;}
  </style>
 </defs>
 <g id="figure_1">
  <g id="patch_1">
   <path d="M 0 345.6 
L 460.8 345.6 
L 460.8 0 
L 0 0 
z
" style="fill:#ffffff;"/>
  </g>
  <g id="axes_1">
   <g id="patch_2">
    <path d="M 57.6 276.48 
L 414.72 276.48 
L 414.72 41.472 
L 57.6 41.472 
z
" style="fill:#ffffff;"/>
   </g>
   <g id="matplotlib.axis_1">
    <g id="xtick_1">
     <g id="line2d_1">
      <path clip-path="url(#pacee361f8e)" d="M 73.832727 276.48 
L 73.832727 41.472 
" style="fill:none;stroke:#b0b0b0;stroke-linecap:square;stroke-width:0.8;"/>
     </g>
     <g id="line2d_2">
      <defs>
       <path d="M 0 0 
L 0 3.5 
" id="m9fb74525d0" style="stroke:#000000;stroke-width:0.8;"/>
      </defs>
      <g>
       <use style="stroke:#000000;stroke-width:0.8;" x="73.832727" xlink:href="#m9fb74525d0" y="276.48"/>
      </g>
     </g>
     <g id="text_1">
      <!-- 2019-01 -->
      <defs>
       <path d="M 19.1875 8.296875 
L 53.609375 8.296875 
L 53.609375 0 
L 7.328125 0 
L 7.328125 8.296875 
Q 12.9375 14.109375 22.625 23.890625 
Q 32.328125 33.6875 34.8125 36.53125 
Q 39.546875 41.84375 41.421875 45.53125 
Q 43.3125 49.21875 43.3125 52.78125 
Q 43.3125 58.59375 39.234375 62.25 
Q 35.15625 65.921875 28.609375 65.921875 
Q 23.96875 65.921875 18.8125 64.3125 
Q 13.671875 62.703125 7.8125 59.421875 
L 7.8125 69.390625 
Q 13.765625 71.78125 18.9375 73 
Q 24.125 74.21875 28.421875 74.21875 
Q 39.75 74.21875 46.484375 68.546875 
Q 53.21875 62.890625 53.21875 53.421875 
Q 53.21875 48.921875 51.53125 44.890625 
Q 49.859375 40.875 45.40625 35.40625 
Q 44.1875 33.984375 37.640625 27.21875 
Q 31.109375 20.453125 19.1875 8.296875 
z
" id="DejaVuSans-32"/>
       <path d="M 31.78125 66.40625 
Q 24.171875 66.40625 20.328125 58.90625 
Q 16.5 51.421875 16.5 36.375 
Q 16.5 21.390625 20.328125 13.890625 
Q 24.171875 6.390625 31.78125 6.390625 
Q 39.453125 6.390625 43.28125 13.890625 
Q 47.125 21.390625 47.125 36.375 
Q 47.125 51.421875 43.28125 58.90625 
Q 39.453125 66.40625 31.78125 66.40625 
z
M 31.78125 74.21875 
Q 44.046875 74.21875 50.515625 64.515625 
Q 56.984375 54.828125 56.984375 36.375 
Q 56.984375 17.96875 50.515625 8.265625 
Q 44.046875 -1.421875 31.78125 -1.421875 
Q 19.53125 -1.421875 13.0625 8.265625 
Q 6.59375 17.96875 6.59375 36.375 
Q 6.59375 54.828125 13.0625 64.515625 
Q 19.53125 74.21875 31.78125 74.21875 
z
" id="DejaVuSans-30"/>
       <path d="M 12.40625 8.296875 
L 28.515625 8.296875 
L 28.515625 63.921875 
L 10.984375 60.40625 
L 10.984375 69.390625 
L 28.421875 72.90625 
L 38.28125 72.90625 
L 38.28125 8.296875 
L 54.390625 8.296875 
L 54.390625 0 
L 12.40625 0 
z
" id="DejaVuSans-31"/>
       <path d="M 10.984375 1.515625 
L 10.984375 10.5 
Q 14.703125 8.734375 18.5 7.8125 
Q 22.3125 6.890625 25.984375 6.890625 
Q 35.75 6.890625 40.890625 13.453125 
Q 46.046875 20.015625 46.78125 33.40625 
Q 43.953125 29.203125 39.59375 26.953125 
Q 35.25 24.703125 29.984375 24.703125 
Q 19.046875 24.703125 12.671875 31.3125 
Q 6.296875 37.9375 6.296875 49.421875 
Q 6.296875 60.640625 12.9375 67.421875 
Q 19.578125 74.21875 30.609375 74.21875 
Q 43.265625 74.21875 49.921875 64.515625 
Q 56.59375 54.828125 56.59375 36.375 
Q 56.59375 19.140625 48.40625 8.859375 
Q 40.234375 -1.421875 26.421875 -1.421875 
Q 22.703125 -1.421875 18.890625 -0.6875 
Q 15.09375 0.046875 10.984375 1.515625 
z
M 30.609375 32.421875 
Q 37.25 32.421875 41.125 36.953125 
Q 45.015625 41.5 45.015625 49.421875 
Q 45.015625 57.28125 41.125 61.84375 
Q 37.25 66.40625 30.609375 66.40625 
Q 23.96875 66.40625 20.09375 61.84375 
Q 16.21875 57.28125 16.21875 49.421875 
Q 16.21875 41.5 20.09375 36.953125 
Q 23.96875 32.421875 30.609375 32.421875 
z
" id="DejaVuSans-39"/>
       <path d="M 4.890625 31.390625 
L 31.203125 31.390625 
L 31.203125 23.390625 
L 4.890625 23.390625 
z
" id="DejaVuSans-2d"/>
      </defs>
      <g transform="translate(36.607906 310.951846)rotate(-30)scale(0.1 -0.1)">
       <use xlink:href="#DejaVuSans-32"/>
       <use x="63.623047" xlink:href="#DejaVuSans-30"/>
       <use x="127.246094" xlink:href="#DejaVuSans-31"/>
       <use x="190.869141" xlink:href="#DejaVuSans-39"/>
       <use x="254.492188" xlink:href="#DejaVuSans-2d"/>
       <use x="290.576172" xlink:href="#DejaVuSans-30"/>
       <use x="354.199219" xlink:href="#DejaVuSans-31"/>
      </g>
     </g>
    </g>
    <g id="xtick_2">
     <g id="line2d_3">
      <path clip-path="url(#pacee361f8e)" d="M 139.183006 276.48 
L 139.183006 41.472 
" style="fill:none;stroke:#b0b0b0;stroke-linecap:square;stroke-width:0.8;"/>
     </g>
     <g id="line2d_4">
      <g>
       <use style="stroke:#000000;stroke-width:0.8;" x="139.183006" xlink:href="#m9fb74525d0" y="276.48"/>
      </g>
     </g>
     <g id="text_2">
      <!-- 2019-02 -->
      <g transform="translate(101.958186 310.951846)rotate(-30)scale(0.1 -0.1)">
       <use xlink:href="#DejaVuSans-32"/>
       <use x="63.623047" xlink:href="#DejaVuSans-30"/>
       <use x="127.246094" xlink:href="#DejaVuSans-31"/>
       <use x="190.869141" xlink:href="#DejaVuSans-39"/>
       <use x="254.492188" xlink:href="#DejaVuSans-2d"/>
       <use x="290.576172" xlink:href="#DejaVuSans-30"/>
       <use x="354.199219" xlink:href="#DejaVuSans-32"/>
      </g>
     </g>
    </g>
    <g id="xtick_3">
     <g id="line2d_5">
      <path clip-path="url(#pacee361f8e)" d="M 198.209065 276.48 
L 198.209065 41.472 
" style="fill:none;stroke:#b0b0b0;stroke-linecap:square;stroke-width:0.8;"/>
     </g>
     <g id="line2d_6">
      <g>
       <use style="stroke:#000000;stroke-width:0.8;" x="198.209065" xlink:href="#m9fb74525d0" y="276.48"/>
      </g>
     </g>
     <g id="text_3">
      <!-- 2019-03 -->
      <defs>
       <path d="M 40.578125 39.3125 
Q 47.65625 37.796875 51.625 33 
Q 55.609375 28.21875 55.609375 21.1875 
Q 55.609375 10.40625 48.1875 4.484375 
Q 40.765625 -1.421875 27.09375 -1.421875 
Q 22.515625 -1.421875 17.65625 -0.515625 
Q 12.796875 0.390625 7.625 2.203125 
L 7.625 11.71875 
Q 11.71875 9.328125 16.59375 8.109375 
Q 21.484375 6.890625 26.8125 6.890625 
Q 36.078125 6.890625 40.9375 10.546875 
Q 45.796875 14.203125 45.796875 21.1875 
Q 45.796875 27.640625 41.28125 31.265625 
Q 36.765625 34.90625 28.71875 34.90625 
L 20.21875 34.90625 
L 20.21875 43.015625 
L 29.109375 43.015625 
Q 36.375 43.015625 40.234375 45.921875 
Q 44.09375 48.828125 44.09375 54.296875 
Q 44.09375 59.90625 40.109375 62.90625 
Q 36.140625 65.921875 28.71875 65.921875 
Q 24.65625 65.921875 20.015625 65.03125 
Q 15.375 64.15625 9.8125 62.3125 
L 9.8125 71.09375 
Q 15.4375 72.65625 20.34375 73.4375 
Q 25.25 74.21875 29.59375 74.21875 
Q 40.828125 74.21875 47.359375 69.109375 
Q 53.90625 64.015625 53.90625 55.328125 
Q 53.90625 49.265625 50.4375 45.09375 
Q 46.96875 40.921875 40.578125 39.3125 
z
" id="DejaVuSans-33"/>
      </defs>
      <g transform="translate(160.984244 310.951846)rotate(-30)scale(0.1 -0.1)">
       <use xlink:href="#DejaVuSans-32"/>
       <use x="63.623047" xlink:href="#DejaVuSans-30"/>
       <use x="127.246094" xlink:href="#DejaVuSans-31"/>
       <use x="190.869141" xlink:href="#DejaVuSans-39"/>
       <use x="254.492188" xlink:href="#DejaVuSans-2d"/>
       <use x="290.576172" xlink:href="#DejaVuSans-30"/>
       <use x="354.199219" xlink:href="#DejaVuSans-33"/>
      </g>
     </g>
    </g>
    <g id="xtick_4">
     <g id="line2d_7">
      <path clip-path="url(#pacee361f8e)" d="M 263.559344 276.48 
L 263.559344 41.472 
" style="fill:none;stroke:#b0b0b0;stroke-linecap:square;stroke-width:0.8;"/>
     </g>
     <g id="line2d_8">
      <g>
       <use style="stroke:#000000;stroke-width:0.8;" x="263.559344" xlink:href="#m9fb74525d0" y="276.48"/>
      </g>
     </g>
     <g id="text_4">
      <!-- 2019-04 -->
      <defs>
       <path d="M 37.796875 64.3125 
L 12.890625 25.390625 
L 37.796875 25.390625 
z
M 35.203125 72.90625 
L 47.609375 72.90625 
L 47.609375 25.390625 
L 58.015625 25.390625 
L 58.015625 17.1875 
L 47.609375 17.1875 
L 47.609375 0 
L 37.796875 0 
L 37.796875 17.1875 
L 4.890625 17.1875 
L 4.890625 26.703125 
z
" id="DejaVuSans-34"/>
      </defs>
      <g transform="translate(226.334523 310.951846)rotate(-30)scale(0.1 -0.1)">
       <use xlink:href="#DejaVuSans-32"/>
       <use x="63.623047" xlink:href="#DejaVuSans-30"/>
       <use x="127.246094" xlink:href="#DejaVuSans-31"/>
       <use x="190.869141" xlink:href="#DejaVuSans-39"/>
       <use x="254.492188" xlink:href="#DejaVuSans-2d"/>
       <use x="290.576172" xlink:href="#DejaVuSans-30"/>
       <use x="354.199219" xlink:href="#DejaVuSans-34"/>
      </g>
     </g>
    </g>
    <g id="xtick_5">
     <g id="line2d_9">
      <path clip-path="url(#pacee361f8e)" d="M 326.80155 276.48 
L 326.80155 41.472 
" style="fill:none;stroke:#b0b0b0;stroke-linecap:square;stroke-width:0.8;"/>
     </g>
     <g id="line2d_10">
      <g>
       <use style="stroke:#000000;stroke-width:0.8;" x="326.80155" xlink:href="#m9fb74525d0" y="276.48"/>
      </g>
     </g>
     <g id="text_5">
      <!-- 2019-05 -->
      <defs>
       <path d="M 10.796875 72.90625 
L 49.515625 72.90625 
L 49.515625 64.59375 
L 19.828125 64.59375 
L 19.828125 46.734375 
Q 21.96875 47.46875 24.109375 47.828125 
Q 26.265625 48.1875 28.421875 48.1875 
Q 40.625 48.1875 47.75 41.5 
Q 54.890625 34.8125 54.890625 23.390625 
Q 54.890625 11.625 47.5625 5.09375 
Q 40.234375 -1.421875 26.90625 -1.421875 
Q 22.3125 -1.421875 17.546875 -0.640625 
Q 12.796875 0.140625 7.71875 1.703125 
L 7.71875 11.625 
Q 12.109375 9.234375 16.796875 8.0625 
Q 21.484375 6.890625 26.703125 6.890625 
Q 35.15625 6.890625 40.078125 11.328125 
Q 45.015625 15.765625 45.015625 23.390625 
Q 45.015625 31 40.078125 35.4375 
Q 35.15625 39.890625 26.703125 39.890625 
Q 22.75 39.890625 18.8125 39.015625 
Q 14.890625 38.140625 10.796875 36.28125 
z
" id="DejaVuSans-35"/>
      </defs>
      <g transform="translate(289.576729 310.951846)rotate(-30)scale(0.1 -0.1)">
       <use xlink:href="#DejaVuSans-32"/>
       <use x="63.623047" xlink:href="#DejaVuSans-30"/>
       <use x="127.246094" xlink:href="#DejaVuSans-31"/>
       <use x="190.869141" xlink:href="#DejaVuSans-39"/>
       <use x="254.492188" xlink:href="#DejaVuSans-2d"/>
       <use x="290.576172" xlink:href="#DejaVuSans-30"/>
       <use x="354.199219" xlink:href="#DejaVuSans-35"/>
      </g>
     </g>
    </g>
    <g id="xtick_6">
     <g id="line2d_11">
      <path clip-path="url(#pacee361f8e)" d="M 392.151829 276.48 
L 392.151829 41.472 
" style="fill:none;stroke:#b0b0b0;stroke-linecap:square;stroke-width:0.8;"/>
     </g>
     <g id="line2d_12">
      <g>
       <use style="stroke:#000000;stroke-width:0.8;" x="392.151829" xlink:href="#m9fb74525d0" y="276.48"/>
      </g>
     </g>
     <g id="text_6">
      <!-- 2019-06 -->
      <defs>
       <path d="M 33.015625 40.375 
Q 26.375 40.375 22.484375 35.828125 
Q 18.609375 31.296875 18.609375 23.390625 
Q 18.609375 15.53125 22.484375 10.953125 
Q 26.375 6.390625 33.015625 6.390625 
Q 39.65625 6.390625 43.53125 10.953125 
Q 47.40625 15.53125 47.40625 23.390625 
Q 47.40625 31.296875 43.53125 35.828125 
Q 39.65625 40.375 33.015625 40.375 
z
M 52.59375 71.296875 
L 52.59375 62.3125 
Q 48.875 64.0625 45.09375 64.984375 
Q 41.3125 65.921875 37.59375 65.921875 
Q 27.828125 65.921875 22.671875 59.328125 
Q 17.53125 52.734375 16.796875 39.40625 
Q 19.671875 43.65625 24.015625 45.921875 
Q 28.375 48.1875 33.59375 48.1875 
Q 44.578125 48.1875 50.953125 41.515625 
Q 57.328125 34.859375 57.328125 23.390625 
Q 57.328125 12.15625 50.6875 5.359375 
Q 44.046875 -1.421875 33.015625 -1.421875 
Q 20.359375 -1.421875 13.671875 8.265625 
Q 6.984375 17.96875 6.984375 36.375 
Q 6.984375 53.65625 15.1875 63.9375 
Q 23.390625 74.21875 37.203125 74.21875 
Q 40.921875 74.21875 44.703125 73.484375 
Q 48.484375 72.75 52.59375 71.296875 
z
" id="DejaVuSans-36"/>
      </defs>
      <g transform="translate(354.927008 310.951846)rotate(-30)scale(0.1 -0.1)">
       <use xlink:href="#DejaVuSans-32"/>
       <use x="63.623047" xlink:href="#DejaVuSans-30"/>
       <use x="127.246094" xlink:href="#DejaVuSans-31"/>
       <use x="190.869141" xlink:href="#DejaVuSans-39"/>
       <use x="254.492188" xlink:href="#DejaVuSans-2d"/>
       <use x="290.576172" xlink:href="#DejaVuSans-30"/>
       <use x="354.199219" xlink:href="#DejaVuSans-36"/>
      </g>
     </g>
    </g>
    <g id="text_7">
     <!-- date -->
     <defs>
      <path d="M 45.40625 46.390625 
L 45.40625 75.984375 
L 54.390625 75.984375 
L 54.390625 0 
L 45.40625 0 
L 45.40625 8.203125 
Q 42.578125 3.328125 38.25 0.953125 
Q 33.9375 -1.421875 27.875 -1.421875 
Q 17.96875 -1.421875 11.734375 6.484375 
Q 5.515625 14.40625 5.515625 27.296875 
Q 5.515625 40.1875 11.734375 48.09375 
Q 17.96875 56 27.875 56 
Q 33.9375 56 38.25 53.625 
Q 42.578125 51.265625 45.40625 46.390625 
z
M 14.796875 27.296875 
Q 14.796875 17.390625 18.875 11.75 
Q 22.953125 6.109375 30.078125 6.109375 
Q 37.203125 6.109375 41.296875 11.75 
Q 45.40625 17.390625 45.40625 27.296875 
Q 45.40625 37.203125 41.296875 42.84375 
Q 37.203125 48.484375 30.078125 48.484375 
Q 22.953125 48.484375 18.875 42.84375 
Q 14.796875 37.203125 14.796875 27.296875 
z
" id="DejaVuSans-64"/>
      <path d="M 34.28125 27.484375 
Q 23.390625 27.484375 19.1875 25 
Q 14.984375 22.515625 14.984375 16.5 
Q 14.984375 11.71875 18.140625 8.90625 
Q 21.296875 6.109375 26.703125 6.109375 
Q 34.1875 6.109375 38.703125 11.40625 
Q 43.21875 16.703125 43.21875 25.484375 
L 43.21875 27.484375 
z
M 52.203125 31.203125 
L 52.203125 0 
L 43.21875 0 
L 43.21875 8.296875 
Q 40.140625 3.328125 35.546875 0.953125 
Q 30.953125 -1.421875 24.3125 -1.421875 
Q 15.921875 -1.421875 10.953125 3.296875 
Q 6 8.015625 6 15.921875 
Q 6 25.140625 12.171875 29.828125 
Q 18.359375 34.515625 30.609375 34.515625 
L 43.21875 34.515625 
L 43.21875 35.40625 
Q 43.21875 41.609375 39.140625 45 
Q 35.0625 48.390625 27.6875 48.390625 
Q 23 48.390625 18.546875 47.265625 
Q 14.109375 46.140625 10.015625 43.890625 
L 10.015625 52.203125 
Q 14.9375 54.109375 19.578125 55.046875 
Q 24.21875 56 28.609375 56 
Q 40.484375 56 46.34375 49.84375 
Q 52.203125 43.703125 52.203125 31.203125 
z
" id="DejaVuSans-61"/>
      <path d="M 18.3125 70.21875 
L 18.3125 54.6875 
L 36.8125 54.6875 
L 36.8125 47.703125 
L 18.3125 47.703125 
L 18.3125 18.015625 
Q 18.3125 11.328125 20.140625 9.421875 
Q 21.96875 7.515625 27.59375 7.515625 
L 36.8125 7.515625 
L 36.8125 0 
L 27.59375 0 
Q 17.1875 0 13.234375 3.875 
Q 9.28125 7.765625 9.28125 18.015625 
L 9.28125 47.703125 
L 2.6875 47.703125 
L 2.6875 54.6875 
L 9.28125 54.6875 
L 9.28125 70.21875 
z
" id="DejaVuSans-74"/>
      <path d="M 56.203125 29.59375 
L 56.203125 25.203125 
L 14.890625 25.203125 
Q 15.484375 15.921875 20.484375 11.0625 
Q 25.484375 6.203125 34.421875 6.203125 
Q 39.59375 6.203125 44.453125 7.46875 
Q 49.3125 8.734375 54.109375 11.28125 
L 54.109375 2.78125 
Q 49.265625 0.734375 44.1875 -0.34375 
Q 39.109375 -1.421875 33.890625 -1.421875 
Q 20.796875 -1.421875 13.15625 6.1875 
Q 5.515625 13.8125 5.515625 26.8125 
Q 5.515625 40.234375 12.765625 48.109375 
Q 20.015625 56 32.328125 56 
Q 43.359375 56 49.78125 48.890625 
Q 56.203125 41.796875 56.203125 29.59375 
z
M 47.21875 32.234375 
Q 47.125 39.59375 43.09375 43.984375 
Q 39.0625 48.390625 32.421875 48.390625 
Q 24.90625 48.390625 20.390625 44.140625 
Q 15.875 39.890625 15.1875 32.171875 
z
" id="DejaVuSans-65"/>
     </defs>
     <g transform="translate(224.885 324.351346)scale(0.1 -0.1)">
      <use xlink:href="#DejaVuSans-64"/>
      <use x="63.476562" xlink:href="#DejaVuSans-61"/>
      <use x="124.755859" xlink:href="#DejaVuSans-74"/>
      <use x="163.964844" xlink:href="#DejaVuSans-65"/>
     </g>
    </g>
   </g>
   <g id="matplotlib.axis_2">
    <g id="ytick_1">
     <g id="line2d_13">
      <path clip-path="url(#pacee361f8e)" d="M 57.6 265.797818 
L 414.72 265.797818 
" style="fill:none;stroke:#b0b0b0;stroke-linecap:square;stroke-width:0.8;"/>
     </g>
     <g id="line2d_14">
      <defs>
       <path d="M 0 0 
L -3.5 0 
" id="mcb2ff8d252" style="stroke:#000000;stroke-width:0.8;"/>
      </defs>
      <g>
       <use style="stroke:#000000;stroke-width:0.8;" x="57.6" xlink:href="#mcb2ff8d252" y="265.797818"/>
      </g>
     </g>
     <g id="text_8">
      <!-- 0 -->
      <g transform="translate(44.2375 269.597037)scale(0.1 -0.1)">
       <use xlink:href="#DejaVuSans-30"/>
      </g>
     </g>
    </g>
    <g id="ytick_2">
     <g id="line2d_15">
      <path clip-path="url(#pacee361f8e)" d="M 57.6 232.997414 
L 414.72 232.997414 
" style="fill:none;stroke:#b0b0b0;stroke-linecap:square;stroke-width:0.8;"/>
     </g>
     <g id="line2d_16">
      <g>
       <use style="stroke:#000000;stroke-width:0.8;" x="57.6" xlink:href="#mcb2ff8d252" y="232.997414"/>
      </g>
     </g>
     <g id="text_9">
      <!-- 500 -->
      <g transform="translate(31.5125 236.796633)scale(0.1 -0.1)">
       <use xlink:href="#DejaVuSans-35"/>
       <use x="63.623047" xlink:href="#DejaVuSans-30"/>
       <use x="127.246094" xlink:href="#DejaVuSans-30"/>
      </g>
     </g>
    </g>
    <g id="ytick_3">
     <g id="line2d_17">
      <path clip-path="url(#pacee361f8e)" d="M 57.6 200.19701 
L 414.72 200.19701 
" style="fill:none;stroke:#b0b0b0;stroke-linecap:square;stroke-width:0.8;"/>
     </g>
     <g id="line2d_18">
      <g>
       <use style="stroke:#000000;stroke-width:0.8;" x="57.6" xlink:href="#mcb2ff8d252" y="200.19701"/>
      </g>
     </g>
     <g id="text_10">
      <!-- 1000 -->
      <g transform="translate(25.15 203.996229)scale(0.1 -0.1)">
       <use xlink:href="#DejaVuSans-31"/>
       <use x="63.623047" xlink:href="#DejaVuSans-30"/>
       <use x="127.246094" xlink:href="#DejaVuSans-30"/>
       <use x="190.869141" xlink:href="#DejaVuSans-30"/>
      </g>
     </g>
    </g>
    <g id="ytick_4">
     <g id="line2d_19">
      <path clip-path="url(#pacee361f8e)" d="M 57.6 167.396606 
L 414.72 167.396606 
" style="fill:none;stroke:#b0b0b0;stroke-linecap:square;stroke-width:0.8;"/>
     </g>
     <g id="line2d_20">
      <g>
       <use style="stroke:#000000;stroke-width:0.8;" x="57.6" xlink:href="#mcb2ff8d252" y="167.396606"/>
      </g>
     </g>
     <g id="text_11">
      <!-- 1500 -->
      <g transform="translate(25.15 171.195825)scale(0.1 -0.1)">
       <use xlink:href="#DejaVuSans-31"/>
       <use x="63.623047" xlink:href="#DejaVuSans-35"/>
       <use x="127.246094" xlink:href="#DejaVuSans-30"/>
       <use x="190.869141" xlink:href="#DejaVuSans-30"/>
      </g>
     </g>
    </g>
    <g id="ytick_5">
     <g id="line2d_21">
      <path clip-path="url(#pacee361f8e)" d="M 57.6 134.596202 
L 414.72 134.596202 
" style="fill:none;stroke:#b0b0b0;stroke-linecap:square;stroke-width:0.8;"/>
     </g>
     <g id="line2d_22">
      <g>
       <use style="stroke:#000000;stroke-width:0.8;" x="57.6" xlink:href="#mcb2ff8d252" y="134.596202"/>
      </g>
     </g>
     <g id="text_12">
      <!-- 2000 -->
      <g transform="translate(25.15 138.395421)scale(0.1 -0.1)">
       <use xlink:href="#DejaVuSans-32"/>
       <use x="63.623047" xlink:href="#DejaVuSans-30"/>
       <use x="127.246094" xlink:href="#DejaVuSans-30"/>
       <use x="190.869141" xlink:href="#DejaVuSans-30"/>
      </g>
     </g>
    </g>
    <g id="ytick_6">
     <g id="line2d_23">
      <path clip-path="url(#pacee361f8e)" d="M 57.6 101.795798 
L 414.72 101.795798 
" style="fill:none;stroke:#b0b0b0;stroke-linecap:square;stroke-width:0.8;"/>
     </g>
     <g id="line2d_24">
      <g>
       <use style="stroke:#000000;stroke-width:0.8;" x="57.6" xlink:href="#mcb2ff8d252" y="101.795798"/>
      </g>
     </g>
     <g id="text_13">
      <!-- 2500 -->
      <g transform="translate(25.15 105.595017)scale(0.1 -0.1)">
       <use xlink:href="#DejaVuSans-32"/>
       <use x="63.623047" xlink:href="#DejaVuSans-35"/>
       <use x="127.246094" xlink:href="#DejaVuSans-30"/>
       <use x="190.869141" xlink:href="#DejaVuSans-30"/>
      </g>
     </g>
    </g>
    <g id="ytick_7">
     <g id="line2d_25">
      <path clip-path="url(#pacee361f8e)" d="M 57.6 68.995394 
L 414.72 68.995394 
" style="fill:none;stroke:#b0b0b0;stroke-linecap:square;stroke-width:0.8;"/>
     </g>
     <g id="line2d_26">
      <g>
       <use style="stroke:#000000;stroke-width:0.8;" x="57.6" xlink:href="#mcb2ff8d252" y="68.995394"/>
      </g>
     </g>
     <g id="text_14">
      <!-- 3000 -->
      <g transform="translate(25.15 72.794613)scale(0.1 -0.1)">
       <use xlink:href="#DejaVuSans-33"/>
       <use x="63.623047" xlink:href="#DejaVuSans-30"/>
       <use x="127.246094" xlink:href="#DejaVuSans-30"/>
       <use x="190.869141" xlink:href="#DejaVuSans-30"/>
      </g>
     </g>
    </g>
    <g id="text_15">
     <!-- EUR -->
     <defs>
      <path d="M 9.8125 72.90625 
L 55.90625 72.90625 
L 55.90625 64.59375 
L 19.671875 64.59375 
L 19.671875 43.015625 
L 54.390625 43.015625 
L 54.390625 34.71875 
L 19.671875 34.71875 
L 19.671875 8.296875 
L 56.78125 8.296875 
L 56.78125 0 
L 9.8125 0 
z
" id="DejaVuSans-45"/>
      <path d="M 8.6875 72.90625 
L 18.609375 72.90625 
L 18.609375 28.609375 
Q 18.609375 16.890625 22.84375 11.734375 
Q 27.09375 6.59375 36.625 6.59375 
Q 46.09375 6.59375 50.34375 11.734375 
Q 54.59375 16.890625 54.59375 28.609375 
L 54.59375 72.90625 
L 64.5 72.90625 
L 64.5 27.390625 
Q 64.5 13.140625 57.4375 5.859375 
Q 50.390625 -1.421875 36.625 -1.421875 
Q 22.796875 -1.421875 15.734375 5.859375 
Q 8.6875 13.140625 8.6875 27.390625 
z
" id="DejaVuSans-55"/>
      <path d="M 44.390625 34.1875 
Q 47.5625 33.109375 50.5625 29.59375 
Q 53.5625 26.078125 56.59375 19.921875 
L 66.609375 0 
L 56 0 
L 46.6875 18.703125 
Q 43.0625 26.03125 39.671875 28.421875 
Q 36.28125 30.8125 30.421875 30.8125 
L 19.671875 30.8125 
L 19.671875 0 
L 9.8125 0 
L 9.8125 72.90625 
L 32.078125 72.90625 
Q 44.578125 72.90625 50.734375 67.671875 
Q 56.890625 62.453125 56.890625 51.90625 
Q 56.890625 45.015625 53.6875 40.46875 
Q 50.484375 35.9375 44.390625 34.1875 
z
M 19.671875 64.796875 
L 19.671875 38.921875 
L 32.078125 38.921875 
Q 39.203125 38.921875 42.84375 42.21875 
Q 46.484375 45.515625 46.484375 51.90625 
Q 46.484375 58.296875 42.84375 61.546875 
Q 39.203125 64.796875 32.078125 64.796875 
z
" id="DejaVuSans-52"/>
     </defs>
     <g transform="translate(19.070312 169.268969)rotate(-90)scale(0.1 -0.1)">
      <use xlink:href="#DejaVuSans-45"/>
      <use x="63.183594" xlink:href="#DejaVuSans-55"/>
      <use x="136.376953" xlink:href="#DejaVuSans-52"/>
     </g>
    </g>
   </g>
   <g id="line2d_27">
    <path clip-path="url(#pacee361f8e)" d="M 73.832727 265.797818 
L 145.507227 265.692518 
L 145.507227 265.528174 
L 149.723374 265.379089 
L 149.723374 265.362763 
L 153.939521 265.22205 
L 153.939521 265.043417 
L 160.263742 264.903628 
L 160.263742 264.550334 
L 160.263742 264.550334 
L 162.371815 264.550334 
L 162.371815 264.445225 
L 162.371815 264.32209 
L 164.479889 264.32209 
L 164.479889 264.220972 
L 164.479889 263.64543 
L 166.587962 263.515134 
L 166.587962 263.414415 
L 168.696036 263.28402 
L 168.696036 263.28402 
L 168.696036 263.254476 
L 175.020256 263.14416 
L 175.020256 262.518031 
L 177.12833 262.392168 
L 177.12833 262.311549 
L 181.344477 262.161194 
L 181.344477 262.055265 
L 181.344477 262.055265 
L 189.776771 261.918337 
L 189.776771 261.754897 
L 189.776771 261.754897 
L 191.884844 261.620265 
L 191.884844 261.612711 
L 196.100991 261.558022 
L 196.100991 261.511704 
L 198.209065 261.391681 
L 198.209065 261.255711 
L 204.533285 261.160029 
L 204.533285 260.288673 
L 206.641359 260.181295 
L 206.641359 260.007964 
L 208.749432 259.885714 
L 208.749432 259.790699 
L 210.857506 259.705138 
L 210.857506 259.582108 
L 212.96558 259.461078 
L 212.96558 259.273869 
L 219.2898 259.157203 
L 219.2898 258.936708 
L 221.397874 258.936708 
L 221.397874 258.836158 
L 221.397874 258.732555 
L 223.505947 258.608258 
L 223.505947 258.190094 
L 223.505947 258.190094 
L 225.614021 258.064719 
L 225.614021 258.039122 
L 227.722094 257.932629 
L 227.722094 257.813211 
L 234.046315 257.702413 
L 234.046315 257.392847 
L 236.154388 257.305773 
L 236.154388 257.257298 
L 240.370535 257.125901 
L 240.370535 257.125901 
L 240.370535 257.059689 
L 248.802829 256.895451 
L 248.802829 256.788073 
L 253.018976 256.679111 
L 253.018976 256.679111 
L 253.018976 256.606756 
L 257.235123 256.587351 
L 257.235123 256.525207 
L 257.235123 256.462189 
L 263.559344 256.38727 
L 263.559344 256.182622 
L 267.775491 256.052268 
L 267.775491 255.633119 
L 269.883565 255.523831 
L 269.883565 255.20634 
L 271.991638 255.08627 
L 271.991638 255.010857 
L 278.315859 254.994826 
L 278.315859 254.901129 
L 278.315859 254.589752 
L 280.423932 254.47342 
L 280.423932 254.422241 
L 282.532006 254.317083 
L 282.532006 254.317083 
L 282.532006 254.216783 
L 284.640079 254.216783 
L 284.640079 254.140712 
L 284.640079 254.039703 
L 286.748153 254.039703 
L 286.748153 253.965199 
L 286.748153 253.844259 
L 293.072373 253.736517 
L 293.072373 252.951022 
L 297.28852 252.815213 
L 297.28852 252.692078 
L 299.396594 252.569803 
L 299.396594 251.877515 
L 309.936961 251.748746 
L 309.936961 251.748746 
L 309.936961 251.465114 
L 314.153108 251.366004 
L 314.153108 251.236093 
L 322.585403 251.102746 
L 322.585403 250.898375 
L 328.909623 250.691224 
L 328.909623 250.533967 
L 331.017697 250.433424 
L 331.017697 250.126458 
L 331.017697 250.126458 
L 337.341917 249.968565 
L 337.341917 249.509171 
L 339.449991 249.380618 
L 339.449991 249.327451 
L 341.558064 249.220353 
L 341.558064 249.220353 
L 341.558064 249.094932 
L 345.774211 248.968272 
L 345.774211 248.77148 
L 352.098432 248.666435 
L 352.098432 248.666435 
L 352.098432 248.171616 
L 354.206505 248.061944 
L 354.206505 248.010201 
L 356.314579 247.895038 
L 356.314579 247.666902 
L 358.422652 247.534319 
L 358.422652 247.49524 
L 358.422652 247.49524 
L 366.854946 247.398358 
L 366.854946 246.780349 
L 371.071093 246.602757 
L 371.071093 246.569834 
L 373.179167 246.447973 
L 373.179167 246.384827 
L 373.179167 246.384827 
L 381.611461 246.206505 
L 381.611461 246.109329 
L 381.611461 246.109329 
L 390.043755 246.000408 
L 390.043755 245.941918 
L 396.367976 245.826899 
L 396.367976 245.441721 
L 396.367976 245.441721 
" style="fill:none;stroke:#0000ff;stroke-linecap:square;stroke-width:1.5;"/>
   </g>
   <g id="line2d_28">
    <path clip-path="url(#pacee361f8e)" d="M 73.832727 265.797818 
L 79.891853 265.535415 
L 80.230828 232.735011 
L 80.663959 232.866213 
L 80.745793 233.325418 
L 80.919051 233.391019 
L 81.029236 234.112628 
L 81.081158 234.637434 
L 81.17524 236.671059 
L 81.265419 236.933463 
L 82.098693 247.429592 
L 82.935018 249.856822 
L 82.962491 250.184826 
L 83.086365 250.250427 
L 83.190671 252.349653 
L 83.262086 252.546455 
L 83.486972 254.186475 
L 83.568513 255.104886 
L 83.695364 255.760895 
L 83.937329 257.79452 
L 84.046246 257.86012 
L 84.15021 258.516128 
L 84.301581 259.172137 
L 84.498091 259.828145 
L 84.786829 260.484153 
L 85.277541 261.07456 
L 85.442942 262.648979 
L 85.830715 262.911383 
L 86.013757 263.567391 
L 86.065531 263.829794 
L 86.116452 264.157798 
L 86.285781 264.485802 
L 87.305611 264.879407 
L 87.358312 265.010608 
L 87.382199 264.681805 
L 87.398937 264.813006 
L 87.400401 133.61139 
L 87.499095 135.18581 
L 87.80984 146.009943 
L 87.913975 167.592609 
L 88.008155 207.018694 
L 88.03802 206.754755 
L 88.12915 208.657179 
L 88.237091 213.249235 
L 88.412935 220.202921 
L 88.521461 230.88292 
L 88.618789 232.785344 
L 89.003025 233.429725 
L 89.006904 234.058371 
L 89.139903 234.320774 
L 89.179185 236.944806 
L 89.229813 239.962444 
L 89.266997 239.944994 
L 89.39031 240.207397 
L 89.498495 243.356236 
L 89.579817 246.767478 
L 89.663871 249.981918 
L 89.706594 250.047519 
L 89.81534 252.540349 
L 90.160342 258.050817 
L 90.296659 257.393784 
L 90.432464 258.443397 
L 90.475577 258.508998 
L 90.60477 259.425692 
L 90.697999 259.753696 
L 90.730815 260.409705 
L 90.930057 260.540906 
L 91.611253 260.737709 
L 91.779143 261.459317 
L 91.849729 263.164938 
L 92.14664 263.29614 
L 92.14869 263.755346 
L 92.288423 263.820947 
L 92.565547 265.132963 
L 93.8006 265.197792 
L 93.952971 265.394594 
L 93.984593 265.525796 
L 94.671864 265.722512 
L 95.638015 265.701823 
L 95.902403 265.04146 
L 95.935781 265.238263 
L 96.056482 265.565378 
L 96.079686 265.630979 
L 98.079452 265.696575 
L 102.734513 265.762176 
L 104.321229 265.09746 
L 104.345872 265.622267 
L 106.443185 265.753468 
L 109.18917 265.090536 
L 109.195856 265.156136 
L 109.216107 265.746544 
L 116.846991 265.680559 
L 116.846991 265.053803 
L 116.852091 265.709811 
L 117.315257 265.669852 
L 125.817893 265.734487 
L 134.128412 265.775015 
L 146.224265 265.663347 
L 146.224265 265.544505 
L 146.252616 265.741308 
L 146.287483 265.724686 
L 146.586175 265.77072 
L 148.527115 265.758363 
L 149.428756 265.077901 
L 150.383001 265.014257 
L 150.383001 264.669927 
L 150.451586 264.997931 
L 151.320313 265.127882 
L 151.320313 265.122132 
L 151.557081 265.515736 
L 152.535529 265.494101 
L 152.657451 265.76393 
L 152.680703 265.494513 
L 152.762098 265.691316 
L 154.855069 265.688307 
L 154.915823 265.753903 
L 155.456358 265.79449 
L 160.908705 265.681238 
L 160.946084 265.725494 
L 161.015255 265.656573 
L 161.290329 265.501785 
L 161.290329 265.493871 
L 161.360891 265.625072 
L 161.578579 265.562954 
L 161.637503 264.862409 
L 161.648824 264.92801 
L 161.734855 265.124812 
L 161.787264 265.256014 
L 163.042666 265.107964 
L 163.042666 265.04482 
L 163.053816 265.110421 
L 163.110251 265.110417 
L 163.737622 265.198825 
L 163.899363 265.388965 
L 163.899363 265.386337 
L 164.250343 265.355036 
L 165.167233 265.250192 
L 165.251019 264.636188 
L 165.275613 264.701789 
L 165.364938 264.815738 
L 165.31126 264.684537 
L 165.391899 264.805417 
L 165.459435 264.685021 
L 165.492227 265.078625 
L 165.723994 265.463808 
L 165.723994 265.445778 
L 165.954954 265.50608 
L 166.070679 265.156308 
L 166.124576 265.35311 
L 166.147389 265.418711 
L 168.036677 265.489561 
L 168.12344 265.59424 
L 168.459902 265.654577 
L 168.459902 265.627344 
L 168.503772 265.561526 
L 168.518679 265.627127 
L 169.418075 265.516112 
L 169.418075 265.505837 
L 169.525772 265.637039 
L 169.583598 265.69737 
L 169.67668 265.75683 
L 169.67668 265.736234 
L 170.117765 265.690579 
L 170.207261 265.525312 
L 170.252936 265.656514 
L 170.271089 265.722115 
L 170.332281 265.394111 
L 170.398598 265.590913 
L 171.980604 265.651133 
L 172.135319 265.716189 
L 172.135319 265.714462 
L 172.504353 265.780063 
L 175.721727 265.69617 
L 175.757521 265.153474 
L 175.800561 265.219074 
L 176.155981 265.602484 
L 176.306645 265.347084 
L 176.332483 265.478285 
L 176.444401 265.659648 
L 176.444401 265.612041 
L 177.066478 265.704499 
L 177.783687 265.614658 
L 177.783687 265.570033 
L 177.85886 265.701235 
L 180.34058 265.773786 
L 180.46621 237.83309 
L 180.555218 242.525335 
L 180.648739 251.181857 
L 180.68546 260.099128 
L 180.757217 260.096612 
L 180.775931 260.75262 
L 180.944382 260.79996 
L 180.971099 260.865561 
L 181.242245 261.062363 
L 182.357157 261.020828 
L 182.381459 259.379457 
L 182.421058 260.953876 
L 182.631256 261.019477 
L 182.747297 263.053102 
L 182.917065 263.534427 
L 184.18252 263.50292 
L 184.270478 262.830151 
L 184.280994 263.158155 
L 184.358314 263.551162 
L 184.358314 263.548172 
L 184.797521 263.663568 
L 184.982831 265.168625 
L 185.523123 265.20137 
L 186.643842 265.200785 
L 186.921576 265.659991 
L 191.402403 265.702554 
L 191.402403 265.279104 
L 191.468305 265.410305 
L 191.523788 265.269308 
L 191.532303 265.46611 
L 193.332486 265.37701 
L 193.332486 265.336449 
L 193.446893 265.40205 
L 193.562739 265.730054 
L 193.595165 265.718513 
L 193.595165 265.691015 
L 194.791473 265.726676 
L 195.472522 265.412384 
L 197.550024 265.473715 
L 197.600115 265.604917 
L 198.87872 265.479338 
L 198.87872 265.340252 
L 198.972119 265.471453 
L 199.071057 265.639531 
L 199.776115 265.715612 
L 205.28231 265.777149 
L 205.28231 265.775112 
L 205.28231 264.954468 
L 205.480479 265.021532 
L 205.579222 265.388117 
L 205.730715 265.438736 
L 205.738767 265.569937 
L 205.812745 265.494115 
L 206.157429 265.544289 
L 206.157429 265.531767 
L 206.157429 264.867167 
L 206.262174 265.523175 
L 206.388146 265.588776 
L 207.33595 265.653033 
L 207.33595 265.563251 
L 207.33595 265.484546 
L 207.39907 265.615747 
L 209.370753 265.518251 
L 209.370753 265.459251 
L 209.604056 265.589469 
L 209.604056 265.573188 
L 209.898235 265.640471 
L 210.058366 265.706072 
L 213.634112 265.592327 
L 213.634112 265.407077 
L 213.667929 265.472678 
L 213.982701 265.705128 
L 213.982701 265.701006 
L 214.330874 265.634117 
L 214.330874 265.568807 
L 214.346953 265.634408 
L 214.669654 265.700008 
L 218.538555 265.762674 
L 218.538555 265.756173 
L 218.626367 265.688831 
L 218.674555 265.754431 
L 220.016183 265.643999 
L 220.016183 265.634021 
L 220.05161 265.765222 
L 220.118878 265.725052 
L 221.276293 265.654717 
L 221.320578 265.010812 
L 221.376256 265.470018 
L 222.056525 265.364376 
L 222.161513 265.085647 
L 222.235516 265.053218 
L 222.336869 265.401019 
L 222.483849 265.532221 
L 224.258705 265.421849 
L 224.334708 265.038955 
L 224.367842 265.170157 
L 224.460485 265.563762 
L 225.01749 265.461267 
L 225.01749 265.396006 
L 225.034593 265.461607 
L 225.567199 265.550042 
L 225.653913 265.615643 
L 226.328472 265.506511 
L 226.328472 265.491048 
L 226.380613 265.556649 
L 226.607377 265.605432 
L 228.634348 265.66283 
L 228.786696 265.728431 
L 229.222169 265.675428 
L 229.222169 265.505608 
L 229.256401 265.63681 
L 231.090596 265.603938 
L 231.883465 265.733598 
L 231.883465 265.732963 
L 234.815322 265.624111 
L 234.815322 265.43627 
L 234.820495 265.501871 
L 235.31011 265.631843 
L 235.31011 265.55415 
L 235.31011 265.437026 
L 235.334777 265.633829 
L 236.976952 265.677737 
L 237.020992 265.743338 
L 258.928585 265.76288 
L 259.104014 265.106872 
L 259.104014 264.022183 
L 259.137318 265.793405 
L 264.381175 265.698796 
L 264.381175 265.651288 
L 264.412065 265.716889 
L 264.47355 265.689275 
L 264.560289 265.744083 
L 264.560289 265.722879 
L 265.165969 265.635736 
L 266.470633 265.628734 
L 266.664653 265.279811 
L 266.681098 265.345412 
L 266.704155 265.673416 
L 266.752978 265.657038 
L 267.109008 265.532126 
L 267.187597 261.157679 
L 267.190915 263.832179 
L 267.284266 264.356986 
L 267.769879 264.312629 
L 267.769879 264.9729 
L 267.907221 265.038501 
L 268.433605 264.932283 
L 268.518148 264.548132 
L 269.417056 264.602733 
L 269.459974 264.668334 
L 269.461071 264.666002 
L 270.527088 264.552287 
L 270.527088 264.313429 
L 271.21858 264.172178 
L 271.273258 264.500182 
L 271.289801 265.680996 
L 271.493264 265.778171 
L 271.74999 264.535785 
L 271.780221 265.191793 
L 272.639139 265.082894 
L 272.639139 265.045593 
L 272.701893 265.111193 
L 272.714751 265.108342 
L 273.689418 265.065179 
L 273.825467 265.721188 
L 279.032921 265.601583 
L 279.071349 265.425133 
L 279.176094 265.532498 
L 279.241654 265.663373 
L 279.241654 265.625519 
L 281.520862 265.656229 
L 281.694681 265.715365 
L 281.694681 265.693392 
L 281.779419 265.672419 
L 282.204595 265.729595 
L 283.255729 265.619931 
L 283.282128 265.524674 
L 283.341369 265.670057 
L 283.619762 265.725244 
L 283.886199 265.785935 
L 287.421931 265.661371 
L 287.492371 265.568939 
L 287.509914 265.700141 
L 287.666702 265.751969 
L 287.666702 265.741106 
L 291.793939 265.728417 
L 291.882922 265.787653 
L 291.882922 265.775991 
L 293.801977 265.668057 
L 293.883713 265.40412 
L 293.896791 265.46972 
L 293.929339 265.340706 
L 293.985115 265.685353 
L 294.015639 265.60139 
L 294.178721 265.732592 
L 294.684976 265.618647 
L 294.684976 265.083894 
L 294.786208 265.338494 
L 294.940409 265.386813 
L 294.940409 265.383555 
L 295.113837 265.378559 
L 295.250545 265.640962 
L 300.079131 265.615488 
L 300.139299 264.992571 
L 300.153451 265.189373 
L 300.582654 265.61602 
L 300.582654 265.597479 
L 301.386186 265.588463 
L 304.757932 265.794514 
L 310.588122 265.683497 
L 310.588122 265.629019 
L 310.62089 265.694619 
L 317.986655 265.787004 
L 323.665766 265.731484 
L 323.665766 265.633388 
L 323.756213 265.68174 
L 325.565838 265.727946 
L 326.213265 265.788961 
L 326.213265 265.749041 
L 329.581693 265.629663 
L 329.642691 265.577055 
L 329.838103 265.724892 
L 330.609379 265.66253 
L 330.651785 265.60134 
L 330.66518 265.666941 
L 331.703333 265.560457 
L 331.703333 265.290972 
L 331.796561 265.553375 
L 331.935636 265.594964 
L 332.025839 265.659059 
L 332.025839 265.65831 
L 336.066459 265.710309 
L 336.414682 265.775529 
L 336.414682 265.772334 
L 338.016257 265.644977 
L 338.016257 265.377468 
L 338.535541 265.519902 
L 340.09249 265.392193 
L 340.16698 265.356952 
L 340.353583 265.416249 
L 340.353583 265.415562 
L 340.695657 265.65423 
L 340.695657 265.650974 
L 342.204442 265.52577 
L 342.284178 265.456156 
L 342.309846 265.521756 
L 344.829043 265.576031 
L 345.182682 265.575236 
L 345.182682 265.569854 
L 346.455187 265.458215 
L 346.50928 265.409887 
L 346.611829 265.460078 
L 346.683025 265.585067 
L 346.683025 265.554433 
L 347.645175 265.638048 
L 350.632198 265.766457 
L 350.632198 265.765123 
L 352.819056 265.651993 
L 352.875759 265.124236 
L 352.914261 265.189837 
L 352.969793 265.385345 
L 353.060265 265.344238 
L 353.220981 265.39657 
L 353.436424 265.585731 
L 353.436424 265.574197 
L 354.939085 265.526585 
L 354.972731 265.592186 
L 355.105145 265.526476 
L 355.114392 265.592077 
L 355.19142 265.654867 
L 355.3343 265.708224 
L 355.458174 265.771659 
L 355.458174 265.76648 
L 356.98826 265.60784 
L 356.98826 265.460253 
L 357.085929 265.591454 
L 357.164372 265.652741 
L 357.164372 265.604539 
L 360.141806 265.630764 
L 360.271169 265.69495 
L 360.271169 265.694013 
L 367.538314 265.573616 
L 367.538314 265.170552 
L 367.620855 265.236153 
L 367.665408 265.207137 
L 367.676339 265.272738 
L 367.791014 265.596635 
L 369.631211 265.483418 
L 369.631211 265.470474 
L 369.805469 265.600464 
L 369.805469 265.578228 
L 369.805469 265.416155 
L 369.838846 265.678558 
L 369.887327 265.613995 
L 372.086897 265.642468 
L 372.174685 265.706779 
L 372.174685 265.687288 
L 372.785172 265.654537 
L 376.881495 265.567808 
L 378.637247 265.553342 
L 379.084042 265.750145 
L 382.292388 265.639961 
L 382.292388 265.623487 
L 382.383372 265.754689 
L 382.716297 265.73769 
L 382.841756 259.195322 
L 382.889481 261.79558 
L 382.931837 261.467575 
L 382.960823 261.79558 
L 383.169923 261.767079 
L 386.639387 261.849747 
L 387.076178 265.785795 
L 387.122073 261.849747 
L 388.839006 261.820393 
L 389.236563 262.607602 
L 389.269965 265.756441 
L 397.083891 265.686612 
L 397.083891 265.359745 
L 397.260662 265.457259 
L 397.29992 265.518973 
L 397.380119 265.499403 
L 397.91436 265.549606 
L 398.169134 265.694407 
L 398.169134 265.693623 
L 398.487273 265.647201 
L 398.487273 265.71986 
" style="fill:none;stroke:#ff0000;stroke-linecap:square;stroke-width:1.5;"/>
   </g>
   <g id="line2d_29">
    <path clip-path="url(#pacee361f8e)" d="M 73.832727 265.797818 
L 78.048874 265.732217 
L 78.048874 265.469814 
L 80.156948 265.338613 
L 80.156948 250.840834 
L 81.590682 250.51283 
L 82.265021 250.184826 
L 82.265021 239.557495 
L 84.373095 239.426293 
L 84.373095 234.375031 
L 86.481168 233.981426 
L 86.481168 200.065808 
L 86.481168 201.181022 
L 87.895774 200.525014 
L 87.943742 148.044368 
L 88.409763 147.38836 
L 88.420864 134.937139 
L 88.589242 134.281131 
L 88.589242 111.845654 
L 88.589242 112.836296 
L 89.003025 112.191914 
L 89.006904 111.563269 
L 89.178283 110.907261 
L 89.181479 108.283228 
L 90.697315 107.62722 
L 90.697315 103.231966 
L 92.805389 102.313555 
L 92.805389 101.985551 
L 92.805389 101.986409 
L 94.913462 101.855207 
L 94.913462 101.067998 
L 94.913462 102.057753 
L 101.237683 101.926551 
L 103.345757 101.532946 
L 103.345757 101.401745 
L 103.345757 102.057753 
L 107.561904 101.86095 
L 107.561904 101.270543 
L 107.561904 101.926551 
L 115.994198 101.270543 
L 115.994198 101.336144 
L 115.994198 101.992152 
L 132.858786 101.795349 
L 132.858786 101.874095 
L 145.507227 101.814482 
L 145.507227 101.617679 
L 145.507227 101.684453 
L 147.6153 101.618852 
L 147.6153 101.630207 
L 147.6153 102.291405 
L 149.723374 102.225804 
L 149.723374 101.176191 
L 149.723374 101.511623 
L 151.831447 101.380421 
L 151.831447 101.052417 
L 151.831447 101.483567 
L 153.939521 101.352365 
L 153.939521 101.024361 
L 153.939521 101.175927 
L 160.263742 100.990455 
L 160.263742 100.334447 
L 160.263742 101.258189 
L 162.371815 101.126987 
L 162.371815 100.733382 
L 162.371815 100.894053 
L 164.479889 100.762851 
L 164.479889 99.385234 
L 164.479889 100.153719 
L 166.587962 100.022517 
L 166.587962 99.563312 
L 166.587962 99.714288 
L 168.696036 99.583086 
L 168.696036 99.05828 
L 168.696036 99.595943 
L 170.804109 99.464741 
L 170.804109 99.399141 
L 170.804109 99.399685 
L 175.020256 99.212758 
L 175.020256 98.359947 
L 175.020256 98.740532 
L 177.12833 98.609331 
L 177.12833 98.412528 
L 177.12833 98.503232 
L 179.236403 98.372031 
L 179.236403 88.728712 
L 179.236403 88.76646 
L 180.620144 88.110452 
L 180.65235 75.187093 
L 181.344477 75.055891 
L 181.344477 70.85744 
L 181.344477 72.572742 
L 183.45255 72.244738 
L 183.45255 70.539117 
L 183.45255 71.223697 
L 184.865569 70.830092 
L 185.560624 70.370886 
L 185.560624 70.370886 
L 187.668697 70.377228 
L 189.776771 70.180426 
L 189.776771 69.786821 
L 189.776771 70.406292 
L 191.884844 70.078288 
L 191.884844 70.012687 
L 191.884844 70.039201 
L 193.992918 69.908 
L 193.992918 70.293444 
L 196.100991 70.162242 
L 196.100991 69.834238 
L 196.100991 69.991622 
L 198.209065 69.86042 
L 198.209065 69.532416 
L 198.209065 69.657604 
L 204.533285 69.395831 
L 204.533285 68.018214 
L 204.533285 68.817403 
L 206.641359 68.686201 
L 206.641359 68.489399 
L 206.641359 68.535605 
L 208.749432 68.338803 
L 208.749432 68.142 
L 208.749432 68.162362 
L 212.96558 67.928119 
L 212.96558 67.600115 
L 212.96558 67.691365 
L 219.2898 67.431897 
L 219.2898 66.775889 
L 219.2898 67.584195 
L 221.397874 67.452993 
L 221.397874 66.862586 
L 221.397874 67.214026 
L 223.505947 67.082824 
L 223.505947 66.492417 
L 223.505947 66.757557 
L 225.614021 66.626355 
L 225.614021 66.429553 
L 225.614021 66.496822 
L 227.722094 66.365621 
L 227.722094 66.103217 
L 227.722094 66.265913 
L 234.046315 66.021097 
L 234.046315 65.758694 
L 234.046315 65.879851 
L 236.154388 65.748649 
L 236.154388 65.617447 
L 236.154388 65.635369 
L 242.478609 65.37846 
L 242.478609 65.312859 
L 242.478609 65.337493 
L 250.910903 65.010473 
L 250.910903 64.944872 
L 250.910903 65.026746 
L 257.235123 64.849815 
L 257.235123 63.078594 
L 257.235123 64.786289 
L 263.559344 64.720688 
L 263.559344 64.589487 
L 263.559344 64.664391 
L 265.667417 64.533189 
L 265.667417 63.614778 
L 265.667417 64.070428 
L 267.109008 64.195339 
L 267.187597 68.636151 
L 267.188232 66.012119 
L 267.775491 65.273774 
L 267.775491 65.142572 
L 267.775491 65.243994 
L 269.883565 64.850389 
L 269.883565 62.882365 
L 269.883565 64.288446 
L 271.991638 64.157244 
L 271.991638 63.501236 
L 271.991638 63.563569 
L 276.207785 63.509242 
L 278.315859 63.37804 
L 278.315859 63.050036 
L 278.315859 63.160354 
L 280.423932 63.029152 
L 280.423932 62.766749 
L 280.423932 62.966545 
L 282.532006 62.835343 
L 282.532006 62.638541 
L 282.532006 62.723097 
L 284.640079 62.591896 
L 284.640079 62.526295 
L 284.640079 62.581372 
L 286.748153 62.45017 
L 286.748153 62.253368 
L 286.748153 62.34292 
L 290.9643 62.30998 
L 293.072373 61.916375 
L 293.072373 61.063565 
L 293.072373 61.583959 
L 295.180447 61.452757 
L 295.180447 61.387156 
L 295.180447 61.501195 
L 297.28852 61.369994 
L 297.28852 61.173191 
L 297.28852 61.283052 
L 299.396594 61.020649 
L 299.396594 60.364641 
L 299.396594 60.628552 
L 301.504667 60.497351 
L 301.504667 60.43175 
L 301.504667 60.436209 
L 307.828888 60.305717 
L 307.828888 60.345988 
L 307.828888 60.351237 
L 307.828888 60.351237 
L 309.936961 60.220035 
L 309.936961 60.088834 
L 309.936961 60.147579 
L 312.045035 60.016377 
L 312.045035 59.950777 
L 312.045035 59.970613 
L 314.153108 59.839412 
L 314.153108 59.70821 
L 314.153108 59.856564 
L 316.261182 59.725363 
L 316.261182 59.659762 
L 316.261182 59.692603 
L 322.585403 59.630007 
L 322.585403 59.498806 
L 322.585403 59.530147 
L 328.909623 59.222656 
L 328.909623 59.025854 
L 328.909623 59.220727 
L 331.017697 59.089525 
L 331.017697 58.761521 
L 331.017697 58.855127 
L 335.233844 58.660889 
L 335.233844 58.595288 
L 335.233844 58.602765 
L 337.341917 58.471564 
L 337.341917 58.20916 
L 337.341917 58.3326 
L 339.449991 58.201398 
L 339.449991 58.004596 
L 339.449991 58.045408 
L 341.558064 57.914206 
L 341.558064 57.783004 
L 341.558064 57.877417 
L 343.666138 57.746216 
L 343.666138 57.680615 
L 343.666138 57.786848 
L 345.774211 57.655647 
L 345.774211 57.393244 
L 345.774211 57.472931 
L 352.098432 57.21266 
L 352.098432 56.622253 
L 352.098432 56.971515 
L 354.206505 56.840314 
L 354.206505 56.512309 
L 354.206505 56.655106 
L 356.314579 56.523904 
L 356.314579 56.261501 
L 356.314579 56.403928 
L 358.422652 56.272726 
L 358.422652 56.010323 
L 358.422652 56.206327 
L 360.530726 56.075126 
L 360.530726 55.943924 
L 360.530726 56.027768 
L 366.854946 55.962622 
L 366.854946 55.437816 
L 366.854946 55.630642 
L 368.96302 55.49944 
L 368.96302 55.302638 
L 368.96302 55.55153 
L 371.071093 55.420329 
L 371.071093 55.223526 
L 371.071093 55.387187 
L 373.179167 55.255985 
L 373.179167 54.993582 
L 373.179167 55.156444 
L 377.395314 54.975204 
L 377.395314 54.909603 
L 377.395314 54.975017 
L 381.611461 54.843815 
L 381.611461 52.154182 
L 381.611461 52.598587 
L 383.719535 52.467385 
L 383.719535 52.401784 
L 383.719535 52.425584 
L 385.827608 52.439245 
L 385.827608 56.375293 
L 387.935682 56.309693 
L 387.935682 52.373644 
L 387.935682 52.437039 
L 392.151829 52.374002 
L 396.367976 52.374002 
L 396.367976 52.474391 
L 396.367976 52.565072 
L 398.487273 52.495015 
L 398.487273 52.495015 
" style="fill:none;stroke:#008000;stroke-linecap:square;stroke-width:1.5;"/>
   </g>
   <g id="line2d_30">
    <defs>
     <path d="M 0 3 
C 0.795609 3 1.55874 2.683901 2.12132 2.12132 
C 2.683901 1.55874 3 0.795609 3 0 
C 3 -0.795609 2.683901 -1.55874 2.12132 -2.12132 
C 1.55874 -2.683901 0.795609 -3 0 -3 
C -0.795609 -3 -1.55874 -2.683901 -2.12132 -2.12132 
C -2.683901 -1.55874 -3 -0.795609 -3 0 
C -3 0.795609 -2.683901 1.55874 -2.12132 2.12132 
C -1.55874 2.683901 -0.795609 3 0 3 
z
" id="m9ca567f1d7" style="stroke:#bfbf00;"/>
    </defs>
    <g clip-path="url(#pacee361f8e)">
     <use style="fill:#bfbf00;stroke:#bfbf00;" x="80.230828" xlink:href="#m9ca567f1d7" y="232.997414"/>
     <use style="fill:#bfbf00;stroke:#bfbf00;" x="87.400401" xlink:href="#m9ca567f1d7" y="134.596202"/>
    </g>
   </g>
   <g id="line2d_31">
    <defs>
     <path d="M 0 3 
C 0.795609 3 1.55874 2.683901 2.12132 2.12132 
C 2.683901 1.55874 3 0.795609 3 0 
C 3 -0.795609 2.683901 -1.55874 2.12132 -2.12132 
C 1.55874 -2.683901 0.795609 -3 0 -3 
C -0.795609 -3 -1.55874 -2.683901 -2.12132 -2.12132 
C -2.683901 -1.55874 -3 -0.795609 -3 0 
C -3 0.795609 -2.683901 1.55874 -2.12132 2.12132 
C -1.55874 2.683901 -0.795609 3 0 3 
z
" id="mdf42e63a2b" style="stroke:#008000;"/>
    </defs>
    <g clip-path="url(#pacee361f8e)">
     <use style="fill:#008000;stroke:#008000;" x="180.46621" xlink:href="#mdf42e63a2b" y="237.857122"/>
     <use style="fill:#008000;stroke:#008000;" x="382.841756" xlink:href="#mdf42e63a2b" y="259.25545"/>
    </g>
   </g>
   <g id="patch_3">
    <path d="M 57.6 276.48 
L 57.6 41.472 
" style="fill:none;stroke:#000000;stroke-linecap:square;stroke-linejoin:miter;stroke-width:0.8;"/>
   </g>
   <g id="patch_4">
    <path d="M 414.72 276.48 
L 414.72 41.472 
" style="fill:none;stroke:#000000;stroke-linecap:square;stroke-linejoin:miter;stroke-width:0.8;"/>
   </g>
   <g id="patch_5">
    <path d="M 57.6 276.48 
L 414.72 276.48 
" style="fill:none;stroke:#000000;stroke-linecap:square;stroke-linejoin:miter;stroke-width:0.8;"/>
   </g>
   <g id="patch_6">
    <path d="M 57.6 41.472 
L 414.72 41.472 
" style="fill:none;stroke:#000000;stroke-linecap:square;stroke-linejoin:miter;stroke-width:0.8;"/>
   </g>
   <g id="text_16">
    <!-- My Bondora earnings -->
    <defs>
     <path d="M 9.8125 72.90625 
L 24.515625 72.90625 
L 43.109375 23.296875 
L 61.8125 72.90625 
L 76.515625 72.90625 
L 76.515625 0 
L 66.890625 0 
L 66.890625 64.015625 
L 48.09375 14.015625 
L 38.1875 14.015625 
L 19.390625 64.015625 
L 19.390625 0 
L 9.8125 0 
z
" id="DejaVuSans-4d"/>
     <path d="M 32.171875 -5.078125 
Q 28.375 -14.84375 24.75 -17.8125 
Q 21.140625 -20.796875 15.09375 -20.796875 
L 7.90625 -20.796875 
L 7.90625 -13.28125 
L 13.1875 -13.28125 
Q 16.890625 -13.28125 18.9375 -11.515625 
Q 21 -9.765625 23.484375 -3.21875 
L 25.09375 0.875 
L 2.984375 54.6875 
L 12.5 54.6875 
L 29.59375 11.921875 
L 46.6875 54.6875 
L 56.203125 54.6875 
z
" id="DejaVuSans-79"/>
     <path id="DejaVuSans-20"/>
     <path d="M 19.671875 34.8125 
L 19.671875 8.109375 
L 35.5 8.109375 
Q 43.453125 8.109375 47.28125 11.40625 
Q 51.125 14.703125 51.125 21.484375 
Q 51.125 28.328125 47.28125 31.5625 
Q 43.453125 34.8125 35.5 34.8125 
z
M 19.671875 64.796875 
L 19.671875 42.828125 
L 34.28125 42.828125 
Q 41.5 42.828125 45.03125 45.53125 
Q 48.578125 48.25 48.578125 53.8125 
Q 48.578125 59.328125 45.03125 62.0625 
Q 41.5 64.796875 34.28125 64.796875 
z
M 9.8125 72.90625 
L 35.015625 72.90625 
Q 46.296875 72.90625 52.390625 68.21875 
Q 58.5 63.53125 58.5 54.890625 
Q 58.5 48.1875 55.375 44.234375 
Q 52.25 40.28125 46.1875 39.3125 
Q 53.46875 37.75 57.5 32.78125 
Q 61.53125 27.828125 61.53125 20.40625 
Q 61.53125 10.640625 54.890625 5.3125 
Q 48.25 0 35.984375 0 
L 9.8125 0 
z
" id="DejaVuSans-42"/>
     <path d="M 30.609375 48.390625 
Q 23.390625 48.390625 19.1875 42.75 
Q 14.984375 37.109375 14.984375 27.296875 
Q 14.984375 17.484375 19.15625 11.84375 
Q 23.34375 6.203125 30.609375 6.203125 
Q 37.796875 6.203125 41.984375 11.859375 
Q 46.1875 17.53125 46.1875 27.296875 
Q 46.1875 37.015625 41.984375 42.703125 
Q 37.796875 48.390625 30.609375 48.390625 
z
M 30.609375 56 
Q 42.328125 56 49.015625 48.375 
Q 55.71875 40.765625 55.71875 27.296875 
Q 55.71875 13.875 49.015625 6.21875 
Q 42.328125 -1.421875 30.609375 -1.421875 
Q 18.84375 -1.421875 12.171875 6.21875 
Q 5.515625 13.875 5.515625 27.296875 
Q 5.515625 40.765625 12.171875 48.375 
Q 18.84375 56 30.609375 56 
z
" id="DejaVuSans-6f"/>
     <path d="M 54.890625 33.015625 
L 54.890625 0 
L 45.90625 0 
L 45.90625 32.71875 
Q 45.90625 40.484375 42.875 44.328125 
Q 39.84375 48.1875 33.796875 48.1875 
Q 26.515625 48.1875 22.3125 43.546875 
Q 18.109375 38.921875 18.109375 30.90625 
L 18.109375 0 
L 9.078125 0 
L 9.078125 54.6875 
L 18.109375 54.6875 
L 18.109375 46.1875 
Q 21.34375 51.125 25.703125 53.5625 
Q 30.078125 56 35.796875 56 
Q 45.21875 56 50.046875 50.171875 
Q 54.890625 44.34375 54.890625 33.015625 
z
" id="DejaVuSans-6e"/>
     <path d="M 41.109375 46.296875 
Q 39.59375 47.171875 37.8125 47.578125 
Q 36.03125 48 33.890625 48 
Q 26.265625 48 22.1875 43.046875 
Q 18.109375 38.09375 18.109375 28.8125 
L 18.109375 0 
L 9.078125 0 
L 9.078125 54.6875 
L 18.109375 54.6875 
L 18.109375 46.1875 
Q 20.953125 51.171875 25.484375 53.578125 
Q 30.03125 56 36.53125 56 
Q 37.453125 56 38.578125 55.875 
Q 39.703125 55.765625 41.0625 55.515625 
z
" id="DejaVuSans-72"/>
     <path d="M 9.421875 54.6875 
L 18.40625 54.6875 
L 18.40625 0 
L 9.421875 0 
z
M 9.421875 75.984375 
L 18.40625 75.984375 
L 18.40625 64.59375 
L 9.421875 64.59375 
z
" id="DejaVuSans-69"/>
     <path d="M 45.40625 27.984375 
Q 45.40625 37.75 41.375 43.109375 
Q 37.359375 48.484375 30.078125 48.484375 
Q 22.859375 48.484375 18.828125 43.109375 
Q 14.796875 37.75 14.796875 27.984375 
Q 14.796875 18.265625 18.828125 12.890625 
Q 22.859375 7.515625 30.078125 7.515625 
Q 37.359375 7.515625 41.375 12.890625 
Q 45.40625 18.265625 45.40625 27.984375 
z
M 54.390625 6.78125 
Q 54.390625 -7.171875 48.1875 -13.984375 
Q 42 -20.796875 29.203125 -20.796875 
Q 24.46875 -20.796875 20.265625 -20.09375 
Q 16.0625 -19.390625 12.109375 -17.921875 
L 12.109375 -9.1875 
Q 16.0625 -11.328125 19.921875 -12.34375 
Q 23.78125 -13.375 27.78125 -13.375 
Q 36.625 -13.375 41.015625 -8.765625 
Q 45.40625 -4.15625 45.40625 5.171875 
L 45.40625 9.625 
Q 42.625 4.78125 38.28125 2.390625 
Q 33.9375 0 27.875 0 
Q 17.828125 0 11.671875 7.65625 
Q 5.515625 15.328125 5.515625 27.984375 
Q 5.515625 40.671875 11.671875 48.328125 
Q 17.828125 56 27.875 56 
Q 33.9375 56 38.28125 53.609375 
Q 42.625 51.21875 45.40625 46.390625 
L 45.40625 54.6875 
L 54.390625 54.6875 
z
" id="DejaVuSans-67"/>
     <path d="M 44.28125 53.078125 
L 44.28125 44.578125 
Q 40.484375 46.53125 36.375 47.5 
Q 32.28125 48.484375 27.875 48.484375 
Q 21.1875 48.484375 17.84375 46.4375 
Q 14.5 44.390625 14.5 40.28125 
Q 14.5 37.15625 16.890625 35.375 
Q 19.28125 33.59375 26.515625 31.984375 
L 29.59375 31.296875 
Q 39.15625 29.25 43.1875 25.515625 
Q 47.21875 21.78125 47.21875 15.09375 
Q 47.21875 7.46875 41.1875 3.015625 
Q 35.15625 -1.421875 24.609375 -1.421875 
Q 20.21875 -1.421875 15.453125 -0.5625 
Q 10.6875 0.296875 5.421875 2 
L 5.421875 11.28125 
Q 10.40625 8.6875 15.234375 7.390625 
Q 20.0625 6.109375 24.8125 6.109375 
Q 31.15625 6.109375 34.5625 8.28125 
Q 37.984375 10.453125 37.984375 14.40625 
Q 37.984375 18.0625 35.515625 20.015625 
Q 33.0625 21.96875 24.703125 23.78125 
L 21.578125 24.515625 
Q 13.234375 26.265625 9.515625 29.90625 
Q 5.8125 33.546875 5.8125 39.890625 
Q 5.8125 47.609375 11.28125 51.796875 
Q 16.75 56 26.8125 56 
Q 31.78125 56 36.171875 55.265625 
Q 40.578125 54.546875 44.28125 53.078125 
z
" id="DejaVuSans-73"/>
    </defs>
    <g transform="translate(172.363125 35.472)scale(0.12 -0.12)">
     <use xlink:href="#DejaVuSans-4d"/>
     <use x="86.279297" xlink:href="#DejaVuSans-79"/>
     <use x="145.458984" xlink:href="#DejaVuSans-20"/>
     <use x="177.246094" xlink:href="#DejaVuSans-42"/>
     <use x="245.849609" xlink:href="#DejaVuSans-6f"/>
     <use x="307.03125" xlink:href="#DejaVuSans-6e"/>
     <use x="370.410156" xlink:href="#DejaVuSans-64"/>
     <use x="433.886719" xlink:href="#DejaVuSans-6f"/>
     <use x="495.068359" xlink:href="#DejaVuSans-72"/>
     <use x="536.181641" xlink:href="#DejaVuSans-61"/>
     <use x="597.460938" xlink:href="#DejaVuSans-20"/>
     <use x="629.248047" xlink:href="#DejaVuSans-65"/>
     <use x="690.771484" xlink:href="#DejaVuSans-61"/>
     <use x="752.050781" xlink:href="#DejaVuSans-72"/>
     <use x="793.148438" xlink:href="#DejaVuSans-6e"/>
     <use x="856.527344" xlink:href="#DejaVuSans-69"/>
     <use x="884.310547" xlink:href="#DejaVuSans-6e"/>
     <use x="947.689453" xlink:href="#DejaVuSans-67"/>
     <use x="1011.166016" xlink:href="#DejaVuSans-73"/>
    </g>
   </g>
   <g id="legend_1">
    <g id="patch_7">
     <path d="M 313.87 197.171312 
L 407.72 197.171312 
Q 409.72 197.171312 409.72 195.171312 
L 409.72 122.780687 
Q 409.72 120.780687 407.72 120.780687 
L 313.87 120.780687 
Q 311.87 120.780687 311.87 122.780687 
L 311.87 195.171312 
Q 311.87 197.171312 313.87 197.171312 
z
" style="fill:#ffffff;opacity:0.8;stroke:#cccccc;stroke-linejoin:miter;"/>
    </g>
    <g id="line2d_32">
     <path d="M 315.87 128.879125 
L 335.87 128.879125 
" style="fill:none;stroke:#0000ff;stroke-linecap:square;stroke-width:1.5;"/>
    </g>
    <g id="line2d_33"/>
    <g id="text_17">
     <!-- Interest -->
     <defs>
      <path d="M 9.8125 72.90625 
L 19.671875 72.90625 
L 19.671875 0 
L 9.8125 0 
z
" id="DejaVuSans-49"/>
     </defs>
     <g transform="translate(343.87 132.379125)scale(0.1 -0.1)">
      <use xlink:href="#DejaVuSans-49"/>
      <use x="29.492188" xlink:href="#DejaVuSans-6e"/>
      <use x="92.871094" xlink:href="#DejaVuSans-74"/>
      <use x="132.080078" xlink:href="#DejaVuSans-65"/>
      <use x="193.603516" xlink:href="#DejaVuSans-72"/>
      <use x="234.685547" xlink:href="#DejaVuSans-65"/>
      <use x="296.208984" xlink:href="#DejaVuSans-73"/>
      <use x="348.308594" xlink:href="#DejaVuSans-74"/>
     </g>
    </g>
    <g id="line2d_34">
     <path d="M 315.87 143.55725 
L 335.87 143.55725 
" style="fill:none;stroke:#ff0000;stroke-linecap:square;stroke-width:1.5;"/>
    </g>
    <g id="line2d_35"/>
    <g id="text_18">
     <!-- Balance -->
     <defs>
      <path d="M 9.421875 75.984375 
L 18.40625 75.984375 
L 18.40625 0 
L 9.421875 0 
z
" id="DejaVuSans-6c"/>
      <path d="M 48.78125 52.59375 
L 48.78125 44.1875 
Q 44.96875 46.296875 41.140625 47.34375 
Q 37.3125 48.390625 33.40625 48.390625 
Q 24.65625 48.390625 19.8125 42.84375 
Q 14.984375 37.3125 14.984375 27.296875 
Q 14.984375 17.28125 19.8125 11.734375 
Q 24.65625 6.203125 33.40625 6.203125 
Q 37.3125 6.203125 41.140625 7.25 
Q 44.96875 8.296875 48.78125 10.40625 
L 48.78125 2.09375 
Q 45.015625 0.34375 40.984375 -0.53125 
Q 36.96875 -1.421875 32.421875 -1.421875 
Q 20.0625 -1.421875 12.78125 6.34375 
Q 5.515625 14.109375 5.515625 27.296875 
Q 5.515625 40.671875 12.859375 48.328125 
Q 20.21875 56 33.015625 56 
Q 37.15625 56 41.109375 55.140625 
Q 45.0625 54.296875 48.78125 52.59375 
z
" id="DejaVuSans-63"/>
     </defs>
     <g transform="translate(343.87 147.05725)scale(0.1 -0.1)">
      <use xlink:href="#DejaVuSans-42"/>
      <use x="68.603516" xlink:href="#DejaVuSans-61"/>
      <use x="129.882812" xlink:href="#DejaVuSans-6c"/>
      <use x="157.666016" xlink:href="#DejaVuSans-61"/>
      <use x="218.945312" xlink:href="#DejaVuSans-6e"/>
      <use x="282.324219" xlink:href="#DejaVuSans-63"/>
      <use x="337.304688" xlink:href="#DejaVuSans-65"/>
     </g>
    </g>
    <g id="line2d_36">
     <path d="M 315.87 158.235375 
L 335.87 158.235375 
" style="fill:none;stroke:#008000;stroke-linecap:square;stroke-width:1.5;"/>
    </g>
    <g id="line2d_37"/>
    <g id="text_19">
     <!-- Investments -->
     <defs>
      <path d="M 2.984375 54.6875 
L 12.5 54.6875 
L 29.59375 8.796875 
L 46.6875 54.6875 
L 56.203125 54.6875 
L 35.6875 0 
L 23.484375 0 
z
" id="DejaVuSans-76"/>
      <path d="M 52 44.1875 
Q 55.375 50.25 60.0625 53.125 
Q 64.75 56 71.09375 56 
Q 79.640625 56 84.28125 50.015625 
Q 88.921875 44.046875 88.921875 33.015625 
L 88.921875 0 
L 79.890625 0 
L 79.890625 32.71875 
Q 79.890625 40.578125 77.09375 44.375 
Q 74.3125 48.1875 68.609375 48.1875 
Q 61.625 48.1875 57.5625 43.546875 
Q 53.515625 38.921875 53.515625 30.90625 
L 53.515625 0 
L 44.484375 0 
L 44.484375 32.71875 
Q 44.484375 40.625 41.703125 44.40625 
Q 38.921875 48.1875 33.109375 48.1875 
Q 26.21875 48.1875 22.15625 43.53125 
Q 18.109375 38.875 18.109375 30.90625 
L 18.109375 0 
L 9.078125 0 
L 9.078125 54.6875 
L 18.109375 54.6875 
L 18.109375 46.1875 
Q 21.1875 51.21875 25.484375 53.609375 
Q 29.78125 56 35.6875 56 
Q 41.65625 56 45.828125 52.96875 
Q 50 49.953125 52 44.1875 
z
" id="DejaVuSans-6d"/>
     </defs>
     <g transform="translate(343.87 161.735375)scale(0.1 -0.1)">
      <use xlink:href="#DejaVuSans-49"/>
      <use x="29.492188" xlink:href="#DejaVuSans-6e"/>
      <use x="92.871094" xlink:href="#DejaVuSans-76"/>
      <use x="152.050781" xlink:href="#DejaVuSans-65"/>
      <use x="213.574219" xlink:href="#DejaVuSans-73"/>
      <use x="265.673828" xlink:href="#DejaVuSans-74"/>
      <use x="304.882812" xlink:href="#DejaVuSans-6d"/>
      <use x="402.294922" xlink:href="#DejaVuSans-65"/>
      <use x="463.818359" xlink:href="#DejaVuSans-6e"/>
      <use x="527.197266" xlink:href="#DejaVuSans-74"/>
      <use x="566.40625" xlink:href="#DejaVuSans-73"/>
     </g>
    </g>
    <g id="line2d_38"/>
    <g id="line2d_39">
     <g>
      <use style="fill:#bfbf00;stroke:#bfbf00;" x="325.87" xlink:href="#m9ca567f1d7" y="172.9135"/>
     </g>
    </g>
    <g id="text_20">
     <!-- Deposits -->
     <defs>
      <path d="M 19.671875 64.796875 
L 19.671875 8.109375 
L 31.59375 8.109375 
Q 46.6875 8.109375 53.6875 14.9375 
Q 60.6875 21.78125 60.6875 36.53125 
Q 60.6875 51.171875 53.6875 57.984375 
Q 46.6875 64.796875 31.59375 64.796875 
z
M 9.8125 72.90625 
L 30.078125 72.90625 
Q 51.265625 72.90625 61.171875 64.09375 
Q 71.09375 55.28125 71.09375 36.53125 
Q 71.09375 17.671875 61.125 8.828125 
Q 51.171875 0 30.078125 0 
L 9.8125 0 
z
" id="DejaVuSans-44"/>
      <path d="M 18.109375 8.203125 
L 18.109375 -20.796875 
L 9.078125 -20.796875 
L 9.078125 54.6875 
L 18.109375 54.6875 
L 18.109375 46.390625 
Q 20.953125 51.265625 25.265625 53.625 
Q 29.59375 56 35.59375 56 
Q 45.5625 56 51.78125 48.09375 
Q 58.015625 40.1875 58.015625 27.296875 
Q 58.015625 14.40625 51.78125 6.484375 
Q 45.5625 -1.421875 35.59375 -1.421875 
Q 29.59375 -1.421875 25.265625 0.953125 
Q 20.953125 3.328125 18.109375 8.203125 
z
M 48.6875 27.296875 
Q 48.6875 37.203125 44.609375 42.84375 
Q 40.53125 48.484375 33.40625 48.484375 
Q 26.265625 48.484375 22.1875 42.84375 
Q 18.109375 37.203125 18.109375 27.296875 
Q 18.109375 17.390625 22.1875 11.75 
Q 26.265625 6.109375 33.40625 6.109375 
Q 40.53125 6.109375 44.609375 11.75 
Q 48.6875 17.390625 48.6875 27.296875 
z
" id="DejaVuSans-70"/>
     </defs>
     <g transform="translate(343.87 176.4135)scale(0.1 -0.1)">
      <use xlink:href="#DejaVuSans-44"/>
      <use x="77.001953" xlink:href="#DejaVuSans-65"/>
      <use x="138.525391" xlink:href="#DejaVuSans-70"/>
      <use x="202.001953" xlink:href="#DejaVuSans-6f"/>
      <use x="263.183594" xlink:href="#DejaVuSans-73"/>
      <use x="315.283203" xlink:href="#DejaVuSans-69"/>
      <use x="343.066406" xlink:href="#DejaVuSans-74"/>
      <use x="382.275391" xlink:href="#DejaVuSans-73"/>
     </g>
    </g>
    <g id="line2d_40"/>
    <g id="line2d_41">
     <g>
      <use style="fill:#008000;stroke:#008000;" x="325.87" xlink:href="#mdf42e63a2b" y="187.591625"/>
     </g>
    </g>
    <g id="text_21">
     <!-- Commission -->
     <defs>
      <path d="M 64.40625 67.28125 
L 64.40625 56.890625 
Q 59.421875 61.53125 53.78125 63.8125 
Q 48.140625 66.109375 41.796875 66.109375 
Q 29.296875 66.109375 22.65625 58.46875 
Q 16.015625 50.828125 16.015625 36.375 
Q 16.015625 21.96875 22.65625 14.328125 
Q 29.296875 6.6875 41.796875 6.6875 
Q 48.140625 6.6875 53.78125 8.984375 
Q 59.421875 11.28125 64.40625 15.921875 
L 64.40625 5.609375 
Q 59.234375 2.09375 53.4375 0.328125 
Q 47.65625 -1.421875 41.21875 -1.421875 
Q 24.65625 -1.421875 15.125 8.703125 
Q 5.609375 18.84375 5.609375 36.375 
Q 5.609375 53.953125 15.125 64.078125 
Q 24.65625 74.21875 41.21875 74.21875 
Q 47.75 74.21875 53.53125 72.484375 
Q 59.328125 70.75 64.40625 67.28125 
z
" id="DejaVuSans-43"/>
     </defs>
     <g transform="translate(343.87 191.091625)scale(0.1 -0.1)">
      <use xlink:href="#DejaVuSans-43"/>
      <use x="69.824219" xlink:href="#DejaVuSans-6f"/>
      <use x="131.005859" xlink:href="#DejaVuSans-6d"/>
      <use x="228.417969" xlink:href="#DejaVuSans-6d"/>
      <use x="325.830078" xlink:href="#DejaVuSans-69"/>
      <use x="353.613281" xlink:href="#DejaVuSans-73"/>
      <use x="405.712891" xlink:href="#DejaVuSans-73"/>
      <use x="457.8125" xlink:href="#DejaVuSans-69"/>
      <use x="485.595703" xlink:href="#DejaVuSans-6f"/>
      <use x="546.777344" xlink:href="#DejaVuSans-6e"/>
     </g>
    </g>
   </g>
  </g>
 </g>
 <defs>
  <clipPath id="pacee361f8e">
   <rect height="235.008" width="357.12" x="57.6" y="41.472"/>
  </clipPath>
 </defs>
</svg>
