<?xml version="1.0" encoding="utf-8" standalone="no"?>
<!DOCTYPE svg PUBLIC "-//W3C//DTD SVG 1.1//EN"
  "http://www.w3.org/Graphics/SVG/1.1/DTD/svg11.dtd">
<!-- Created with matplotlib (http://matplotlib.org/) -->
<svg height="345.6pt" version="1.1" viewBox="0 0 460.8 345.6" width="460.8pt" xmlns="http://www.w3.org/2000/svg" xmlns:xlink="http://www.w3.org/1999/xlink">
 <defs>
  <style type="text/css">
*{stroke-linecap:butt;stroke-linejoin:round;}
  </style>
 </defs>
 <g id="figure_1">
  <g id="patch_1">
   <path d="M 0 345.6 
L 460.8 345.6 
L 460.8 0 
L 0 0 
z
" style="fill:#ffffff;"/>
  </g>
  <g id="axes_1">
   <g id="patch_2">
    <path d="M 57.6 276.48 
L 414.72 276.48 
L 414.72 41.472 
L 57.6 41.472 
z
" style="fill:#ffffff;"/>
   </g>
   <g id="matplotlib.axis_1">
    <g id="xtick_1">
     <g id="line2d_1">
      <path clip-path="url(#pccf7c5c253)" d="M 73.832727 276.48 
L 73.832727 41.472 
" style="fill:none;stroke:#b0b0b0;stroke-linecap:square;stroke-width:0.8;"/>
     </g>
     <g id="line2d_2">
      <defs>
       <path d="M 0 0 
L 0 3.5 
" id="m594bc396e5" style="stroke:#000000;stroke-width:0.8;"/>
      </defs>
      <g>
       <use style="stroke:#000000;stroke-width:0.8;" x="73.832727" xlink:href="#m594bc396e5" y="276.48"/>
      </g>
     </g>
     <g id="text_1">
      <!-- 2019-01 -->
      <defs>
       <path d="M 19.1875 8.296875 
L 53.609375 8.296875 
L 53.609375 0 
L 7.328125 0 
L 7.328125 8.296875 
Q 12.9375 14.109375 22.625 23.890625 
Q 32.328125 33.6875 34.8125 36.53125 
Q 39.546875 41.84375 41.421875 45.53125 
Q 43.3125 49.21875 43.3125 52.78125 
Q 43.3125 58.59375 39.234375 62.25 
Q 35.15625 65.921875 28.609375 65.921875 
Q 23.96875 65.921875 18.8125 64.3125 
Q 13.671875 62.703125 7.8125 59.421875 
L 7.8125 69.390625 
Q 13.765625 71.78125 18.9375 73 
Q 24.125 74.21875 28.421875 74.21875 
Q 39.75 74.21875 46.484375 68.546875 
Q 53.21875 62.890625 53.21875 53.421875 
Q 53.21875 48.921875 51.53125 44.890625 
Q 49.859375 40.875 45.40625 35.40625 
Q 44.1875 33.984375 37.640625 27.21875 
Q 31.109375 20.453125 19.1875 8.296875 
z
" id="DejaVuSans-32"/>
       <path d="M 31.78125 66.40625 
Q 24.171875 66.40625 20.328125 58.90625 
Q 16.5 51.421875 16.5 36.375 
Q 16.5 21.390625 20.328125 13.890625 
Q 24.171875 6.390625 31.78125 6.390625 
Q 39.453125 6.390625 43.28125 13.890625 
Q 47.125 21.390625 47.125 36.375 
Q 47.125 51.421875 43.28125 58.90625 
Q 39.453125 66.40625 31.78125 66.40625 
z
M 31.78125 74.21875 
Q 44.046875 74.21875 50.515625 64.515625 
Q 56.984375 54.828125 56.984375 36.375 
Q 56.984375 17.96875 50.515625 8.265625 
Q 44.046875 -1.421875 31.78125 -1.421875 
Q 19.53125 -1.421875 13.0625 8.265625 
Q 6.59375 17.96875 6.59375 36.375 
Q 6.59375 54.828125 13.0625 64.515625 
Q 19.53125 74.21875 31.78125 74.21875 
z
" id="DejaVuSans-30"/>
       <path d="M 12.40625 8.296875 
L 28.515625 8.296875 
L 28.515625 63.921875 
L 10.984375 60.40625 
L 10.984375 69.390625 
L 28.421875 72.90625 
L 38.28125 72.90625 
L 38.28125 8.296875 
L 54.390625 8.296875 
L 54.390625 0 
L 12.40625 0 
z
" id="DejaVuSans-31"/>
       <path d="M 10.984375 1.515625 
L 10.984375 10.5 
Q 14.703125 8.734375 18.5 7.8125 
Q 22.3125 6.890625 25.984375 6.890625 
Q 35.75 6.890625 40.890625 13.453125 
Q 46.046875 20.015625 46.78125 33.40625 
Q 43.953125 29.203125 39.59375 26.953125 
Q 35.25 24.703125 29.984375 24.703125 
Q 19.046875 24.703125 12.671875 31.3125 
Q 6.296875 37.9375 6.296875 49.421875 
Q 6.296875 60.640625 12.9375 67.421875 
Q 19.578125 74.21875 30.609375 74.21875 
Q 43.265625 74.21875 49.921875 64.515625 
Q 56.59375 54.828125 56.59375 36.375 
Q 56.59375 19.140625 48.40625 8.859375 
Q 40.234375 -1.421875 26.421875 -1.421875 
Q 22.703125 -1.421875 18.890625 -0.6875 
Q 15.09375 0.046875 10.984375 1.515625 
z
M 30.609375 32.421875 
Q 37.25 32.421875 41.125 36.953125 
Q 45.015625 41.5 45.015625 49.421875 
Q 45.015625 57.28125 41.125 61.84375 
Q 37.25 66.40625 30.609375 66.40625 
Q 23.96875 66.40625 20.09375 61.84375 
Q 16.21875 57.28125 16.21875 49.421875 
Q 16.21875 41.5 20.09375 36.953125 
Q 23.96875 32.421875 30.609375 32.421875 
z
" id="DejaVuSans-39"/>
       <path d="M 4.890625 31.390625 
L 31.203125 31.390625 
L 31.203125 23.390625 
L 4.890625 23.390625 
z
" id="DejaVuSans-2d"/>
      </defs>
      <g transform="translate(36.607906 310.951846)rotate(-30)scale(0.1 -0.1)">
       <use xlink:href="#DejaVuSans-32"/>
       <use x="63.623047" xlink:href="#DejaVuSans-30"/>
       <use x="127.246094" xlink:href="#DejaVuSans-31"/>
       <use x="190.869141" xlink:href="#DejaVuSans-39"/>
       <use x="254.492188" xlink:href="#DejaVuSans-2d"/>
       <use x="290.576172" xlink:href="#DejaVuSans-30"/>
       <use x="354.199219" xlink:href="#DejaVuSans-31"/>
      </g>
     </g>
    </g>
    <g id="xtick_2">
     <g id="line2d_3">
      <path clip-path="url(#pccf7c5c253)" d="M 141.849374 276.48 
L 141.849374 41.472 
" style="fill:none;stroke:#b0b0b0;stroke-linecap:square;stroke-width:0.8;"/>
     </g>
     <g id="line2d_4">
      <g>
       <use style="stroke:#000000;stroke-width:0.8;" x="141.849374" xlink:href="#m594bc396e5" y="276.48"/>
      </g>
     </g>
     <g id="text_2">
      <!-- 2019-02 -->
      <g transform="translate(104.624553 310.951846)rotate(-30)scale(0.1 -0.1)">
       <use xlink:href="#DejaVuSans-32"/>
       <use x="63.623047" xlink:href="#DejaVuSans-30"/>
       <use x="127.246094" xlink:href="#DejaVuSans-31"/>
       <use x="190.869141" xlink:href="#DejaVuSans-39"/>
       <use x="254.492188" xlink:href="#DejaVuSans-2d"/>
       <use x="290.576172" xlink:href="#DejaVuSans-30"/>
       <use x="354.199219" xlink:href="#DejaVuSans-32"/>
      </g>
     </g>
    </g>
    <g id="xtick_3">
     <g id="line2d_5">
      <path clip-path="url(#pccf7c5c253)" d="M 203.283764 276.48 
L 203.283764 41.472 
" style="fill:none;stroke:#b0b0b0;stroke-linecap:square;stroke-width:0.8;"/>
     </g>
     <g id="line2d_6">
      <g>
       <use style="stroke:#000000;stroke-width:0.8;" x="203.283764" xlink:href="#m594bc396e5" y="276.48"/>
      </g>
     </g>
     <g id="text_3">
      <!-- 2019-03 -->
      <defs>
       <path d="M 40.578125 39.3125 
Q 47.65625 37.796875 51.625 33 
Q 55.609375 28.21875 55.609375 21.1875 
Q 55.609375 10.40625 48.1875 4.484375 
Q 40.765625 -1.421875 27.09375 -1.421875 
Q 22.515625 -1.421875 17.65625 -0.515625 
Q 12.796875 0.390625 7.625 2.203125 
L 7.625 11.71875 
Q 11.71875 9.328125 16.59375 8.109375 
Q 21.484375 6.890625 26.8125 6.890625 
Q 36.078125 6.890625 40.9375 10.546875 
Q 45.796875 14.203125 45.796875 21.1875 
Q 45.796875 27.640625 41.28125 31.265625 
Q 36.765625 34.90625 28.71875 34.90625 
L 20.21875 34.90625 
L 20.21875 43.015625 
L 29.109375 43.015625 
Q 36.375 43.015625 40.234375 45.921875 
Q 44.09375 48.828125 44.09375 54.296875 
Q 44.09375 59.90625 40.109375 62.90625 
Q 36.140625 65.921875 28.71875 65.921875 
Q 24.65625 65.921875 20.015625 65.03125 
Q 15.375 64.15625 9.8125 62.3125 
L 9.8125 71.09375 
Q 15.4375 72.65625 20.34375 73.4375 
Q 25.25 74.21875 29.59375 74.21875 
Q 40.828125 74.21875 47.359375 69.109375 
Q 53.90625 64.015625 53.90625 55.328125 
Q 53.90625 49.265625 50.4375 45.09375 
Q 46.96875 40.921875 40.578125 39.3125 
z
" id="DejaVuSans-33"/>
      </defs>
      <g transform="translate(166.058943 310.951846)rotate(-30)scale(0.1 -0.1)">
       <use xlink:href="#DejaVuSans-32"/>
       <use x="63.623047" xlink:href="#DejaVuSans-30"/>
       <use x="127.246094" xlink:href="#DejaVuSans-31"/>
       <use x="190.869141" xlink:href="#DejaVuSans-39"/>
       <use x="254.492188" xlink:href="#DejaVuSans-2d"/>
       <use x="290.576172" xlink:href="#DejaVuSans-30"/>
       <use x="354.199219" xlink:href="#DejaVuSans-33"/>
      </g>
     </g>
    </g>
    <g id="xtick_4">
     <g id="line2d_7">
      <path clip-path="url(#pccf7c5c253)" d="M 271.30041 276.48 
L 271.30041 41.472 
" style="fill:none;stroke:#b0b0b0;stroke-linecap:square;stroke-width:0.8;"/>
     </g>
     <g id="line2d_8">
      <g>
       <use style="stroke:#000000;stroke-width:0.8;" x="271.30041" xlink:href="#m594bc396e5" y="276.48"/>
      </g>
     </g>
     <g id="text_4">
      <!-- 2019-04 -->
      <defs>
       <path d="M 37.796875 64.3125 
L 12.890625 25.390625 
L 37.796875 25.390625 
z
M 35.203125 72.90625 
L 47.609375 72.90625 
L 47.609375 25.390625 
L 58.015625 25.390625 
L 58.015625 17.1875 
L 47.609375 17.1875 
L 47.609375 0 
L 37.796875 0 
L 37.796875 17.1875 
L 4.890625 17.1875 
L 4.890625 26.703125 
z
" id="DejaVuSans-34"/>
      </defs>
      <g transform="translate(234.075589 310.951846)rotate(-30)scale(0.1 -0.1)">
       <use xlink:href="#DejaVuSans-32"/>
       <use x="63.623047" xlink:href="#DejaVuSans-30"/>
       <use x="127.246094" xlink:href="#DejaVuSans-31"/>
       <use x="190.869141" xlink:href="#DejaVuSans-39"/>
       <use x="254.492188" xlink:href="#DejaVuSans-2d"/>
       <use x="290.576172" xlink:href="#DejaVuSans-30"/>
       <use x="354.199219" xlink:href="#DejaVuSans-34"/>
      </g>
     </g>
    </g>
    <g id="xtick_5">
     <g id="line2d_9">
      <path clip-path="url(#pccf7c5c253)" d="M 337.122971 276.48 
L 337.122971 41.472 
" style="fill:none;stroke:#b0b0b0;stroke-linecap:square;stroke-width:0.8;"/>
     </g>
     <g id="line2d_10">
      <g>
       <use style="stroke:#000000;stroke-width:0.8;" x="337.122971" xlink:href="#m594bc396e5" y="276.48"/>
      </g>
     </g>
     <g id="text_5">
      <!-- 2019-05 -->
      <defs>
       <path d="M 10.796875 72.90625 
L 49.515625 72.90625 
L 49.515625 64.59375 
L 19.828125 64.59375 
L 19.828125 46.734375 
Q 21.96875 47.46875 24.109375 47.828125 
Q 26.265625 48.1875 28.421875 48.1875 
Q 40.625 48.1875 47.75 41.5 
Q 54.890625 34.8125 54.890625 23.390625 
Q 54.890625 11.625 47.5625 5.09375 
Q 40.234375 -1.421875 26.90625 -1.421875 
Q 22.3125 -1.421875 17.546875 -0.640625 
Q 12.796875 0.140625 7.71875 1.703125 
L 7.71875 11.625 
Q 12.109375 9.234375 16.796875 8.0625 
Q 21.484375 6.890625 26.703125 6.890625 
Q 35.15625 6.890625 40.078125 11.328125 
Q 45.015625 15.765625 45.015625 23.390625 
Q 45.015625 31 40.078125 35.4375 
Q 35.15625 39.890625 26.703125 39.890625 
Q 22.75 39.890625 18.8125 39.015625 
Q 14.890625 38.140625 10.796875 36.28125 
z
" id="DejaVuSans-35"/>
      </defs>
      <g transform="translate(299.89815 310.951846)rotate(-30)scale(0.1 -0.1)">
       <use xlink:href="#DejaVuSans-32"/>
       <use x="63.623047" xlink:href="#DejaVuSans-30"/>
       <use x="127.246094" xlink:href="#DejaVuSans-31"/>
       <use x="190.869141" xlink:href="#DejaVuSans-39"/>
       <use x="254.492188" xlink:href="#DejaVuSans-2d"/>
       <use x="290.576172" xlink:href="#DejaVuSans-30"/>
       <use x="354.199219" xlink:href="#DejaVuSans-35"/>
      </g>
     </g>
    </g>
    <g id="xtick_6">
     <g id="line2d_11">
      <path clip-path="url(#pccf7c5c253)" d="M 405.139618 276.48 
L 405.139618 41.472 
" style="fill:none;stroke:#b0b0b0;stroke-linecap:square;stroke-width:0.8;"/>
     </g>
     <g id="line2d_12">
      <g>
       <use style="stroke:#000000;stroke-width:0.8;" x="405.139618" xlink:href="#m594bc396e5" y="276.48"/>
      </g>
     </g>
     <g id="text_6">
      <!-- 2019-06 -->
      <defs>
       <path d="M 33.015625 40.375 
Q 26.375 40.375 22.484375 35.828125 
Q 18.609375 31.296875 18.609375 23.390625 
Q 18.609375 15.53125 22.484375 10.953125 
Q 26.375 6.390625 33.015625 6.390625 
Q 39.65625 6.390625 43.53125 10.953125 
Q 47.40625 15.53125 47.40625 23.390625 
Q 47.40625 31.296875 43.53125 35.828125 
Q 39.65625 40.375 33.015625 40.375 
z
M 52.59375 71.296875 
L 52.59375 62.3125 
Q 48.875 64.0625 45.09375 64.984375 
Q 41.3125 65.921875 37.59375 65.921875 
Q 27.828125 65.921875 22.671875 59.328125 
Q 17.53125 52.734375 16.796875 39.40625 
Q 19.671875 43.65625 24.015625 45.921875 
Q 28.375 48.1875 33.59375 48.1875 
Q 44.578125 48.1875 50.953125 41.515625 
Q 57.328125 34.859375 57.328125 23.390625 
Q 57.328125 12.15625 50.6875 5.359375 
Q 44.046875 -1.421875 33.015625 -1.421875 
Q 20.359375 -1.421875 13.671875 8.265625 
Q 6.984375 17.96875 6.984375 36.375 
Q 6.984375 53.65625 15.1875 63.9375 
Q 23.390625 74.21875 37.203125 74.21875 
Q 40.921875 74.21875 44.703125 73.484375 
Q 48.484375 72.75 52.59375 71.296875 
z
" id="DejaVuSans-36"/>
      </defs>
      <g transform="translate(367.914797 310.951846)rotate(-30)scale(0.1 -0.1)">
       <use xlink:href="#DejaVuSans-32"/>
       <use x="63.623047" xlink:href="#DejaVuSans-30"/>
       <use x="127.246094" xlink:href="#DejaVuSans-31"/>
       <use x="190.869141" xlink:href="#DejaVuSans-39"/>
       <use x="254.492188" xlink:href="#DejaVuSans-2d"/>
       <use x="290.576172" xlink:href="#DejaVuSans-30"/>
       <use x="354.199219" xlink:href="#DejaVuSans-36"/>
      </g>
     </g>
    </g>
    <g id="text_7">
     <!-- date -->
     <defs>
      <path d="M 45.40625 46.390625 
L 45.40625 75.984375 
L 54.390625 75.984375 
L 54.390625 0 
L 45.40625 0 
L 45.40625 8.203125 
Q 42.578125 3.328125 38.25 0.953125 
Q 33.9375 -1.421875 27.875 -1.421875 
Q 17.96875 -1.421875 11.734375 6.484375 
Q 5.515625 14.40625 5.515625 27.296875 
Q 5.515625 40.1875 11.734375 48.09375 
Q 17.96875 56 27.875 56 
Q 33.9375 56 38.25 53.625 
Q 42.578125 51.265625 45.40625 46.390625 
z
M 14.796875 27.296875 
Q 14.796875 17.390625 18.875 11.75 
Q 22.953125 6.109375 30.078125 6.109375 
Q 37.203125 6.109375 41.296875 11.75 
Q 45.40625 17.390625 45.40625 27.296875 
Q 45.40625 37.203125 41.296875 42.84375 
Q 37.203125 48.484375 30.078125 48.484375 
Q 22.953125 48.484375 18.875 42.84375 
Q 14.796875 37.203125 14.796875 27.296875 
z
" id="DejaVuSans-64"/>
      <path d="M 34.28125 27.484375 
Q 23.390625 27.484375 19.1875 25 
Q 14.984375 22.515625 14.984375 16.5 
Q 14.984375 11.71875 18.140625 8.90625 
Q 21.296875 6.109375 26.703125 6.109375 
Q 34.1875 6.109375 38.703125 11.40625 
Q 43.21875 16.703125 43.21875 25.484375 
L 43.21875 27.484375 
z
M 52.203125 31.203125 
L 52.203125 0 
L 43.21875 0 
L 43.21875 8.296875 
Q 40.140625 3.328125 35.546875 0.953125 
Q 30.953125 -1.421875 24.3125 -1.421875 
Q 15.921875 -1.421875 10.953125 3.296875 
Q 6 8.015625 6 15.921875 
Q 6 25.140625 12.171875 29.828125 
Q 18.359375 34.515625 30.609375 34.515625 
L 43.21875 34.515625 
L 43.21875 35.40625 
Q 43.21875 41.609375 39.140625 45 
Q 35.0625 48.390625 27.6875 48.390625 
Q 23 48.390625 18.546875 47.265625 
Q 14.109375 46.140625 10.015625 43.890625 
L 10.015625 52.203125 
Q 14.9375 54.109375 19.578125 55.046875 
Q 24.21875 56 28.609375 56 
Q 40.484375 56 46.34375 49.84375 
Q 52.203125 43.703125 52.203125 31.203125 
z
" id="DejaVuSans-61"/>
      <path d="M 18.3125 70.21875 
L 18.3125 54.6875 
L 36.8125 54.6875 
L 36.8125 47.703125 
L 18.3125 47.703125 
L 18.3125 18.015625 
Q 18.3125 11.328125 20.140625 9.421875 
Q 21.96875 7.515625 27.59375 7.515625 
L 36.8125 7.515625 
L 36.8125 0 
L 27.59375 0 
Q 17.1875 0 13.234375 3.875 
Q 9.28125 7.765625 9.28125 18.015625 
L 9.28125 47.703125 
L 2.6875 47.703125 
L 2.6875 54.6875 
L 9.28125 54.6875 
L 9.28125 70.21875 
z
" id="DejaVuSans-74"/>
      <path d="M 56.203125 29.59375 
L 56.203125 25.203125 
L 14.890625 25.203125 
Q 15.484375 15.921875 20.484375 11.0625 
Q 25.484375 6.203125 34.421875 6.203125 
Q 39.59375 6.203125 44.453125 7.46875 
Q 49.3125 8.734375 54.109375 11.28125 
L 54.109375 2.78125 
Q 49.265625 0.734375 44.1875 -0.34375 
Q 39.109375 -1.421875 33.890625 -1.421875 
Q 20.796875 -1.421875 13.15625 6.1875 
Q 5.515625 13.8125 5.515625 26.8125 
Q 5.515625 40.234375 12.765625 48.109375 
Q 20.015625 56 32.328125 56 
Q 43.359375 56 49.78125 48.890625 
Q 56.203125 41.796875 56.203125 29.59375 
z
M 47.21875 32.234375 
Q 47.125 39.59375 43.09375 43.984375 
Q 39.0625 48.390625 32.421875 48.390625 
Q 24.90625 48.390625 20.390625 44.140625 
Q 15.875 39.890625 15.1875 32.171875 
z
" id="DejaVuSans-65"/>
     </defs>
     <g transform="translate(224.885 324.351346)scale(0.1 -0.1)">
      <use xlink:href="#DejaVuSans-64"/>
      <use x="63.476562" xlink:href="#DejaVuSans-61"/>
      <use x="124.755859" xlink:href="#DejaVuSans-74"/>
      <use x="163.964844" xlink:href="#DejaVuSans-65"/>
     </g>
    </g>
   </g>
   <g id="matplotlib.axis_2">
    <g id="ytick_1">
     <g id="line2d_13">
      <path clip-path="url(#pccf7c5c253)" d="M 57.6 265.797818 
L 414.72 265.797818 
" style="fill:none;stroke:#b0b0b0;stroke-linecap:square;stroke-width:0.8;"/>
     </g>
     <g id="line2d_14">
      <defs>
       <path d="M 0 0 
L -3.5 0 
" id="m144e9bbfa9" style="stroke:#000000;stroke-width:0.8;"/>
      </defs>
      <g>
       <use style="stroke:#000000;stroke-width:0.8;" x="57.6" xlink:href="#m144e9bbfa9" y="265.797818"/>
      </g>
     </g>
     <g id="text_8">
      <!-- 0 -->
      <g transform="translate(44.2375 269.597037)scale(0.1 -0.1)">
       <use xlink:href="#DejaVuSans-30"/>
      </g>
     </g>
    </g>
    <g id="ytick_2">
     <g id="line2d_15">
      <path clip-path="url(#pccf7c5c253)" d="M 57.6 232.997414 
L 414.72 232.997414 
" style="fill:none;stroke:#b0b0b0;stroke-linecap:square;stroke-width:0.8;"/>
     </g>
     <g id="line2d_16">
      <g>
       <use style="stroke:#000000;stroke-width:0.8;" x="57.6" xlink:href="#m144e9bbfa9" y="232.997414"/>
      </g>
     </g>
     <g id="text_9">
      <!-- 500 -->
      <g transform="translate(31.5125 236.796633)scale(0.1 -0.1)">
       <use xlink:href="#DejaVuSans-35"/>
       <use x="63.623047" xlink:href="#DejaVuSans-30"/>
       <use x="127.246094" xlink:href="#DejaVuSans-30"/>
      </g>
     </g>
    </g>
    <g id="ytick_3">
     <g id="line2d_17">
      <path clip-path="url(#pccf7c5c253)" d="M 57.6 200.19701 
L 414.72 200.19701 
" style="fill:none;stroke:#b0b0b0;stroke-linecap:square;stroke-width:0.8;"/>
     </g>
     <g id="line2d_18">
      <g>
       <use style="stroke:#000000;stroke-width:0.8;" x="57.6" xlink:href="#m144e9bbfa9" y="200.19701"/>
      </g>
     </g>
     <g id="text_10">
      <!-- 1000 -->
      <g transform="translate(25.15 203.996229)scale(0.1 -0.1)">
       <use xlink:href="#DejaVuSans-31"/>
       <use x="63.623047" xlink:href="#DejaVuSans-30"/>
       <use x="127.246094" xlink:href="#DejaVuSans-30"/>
       <use x="190.869141" xlink:href="#DejaVuSans-30"/>
      </g>
     </g>
    </g>
    <g id="ytick_4">
     <g id="line2d_19">
      <path clip-path="url(#pccf7c5c253)" d="M 57.6 167.396606 
L 414.72 167.396606 
" style="fill:none;stroke:#b0b0b0;stroke-linecap:square;stroke-width:0.8;"/>
     </g>
     <g id="line2d_20">
      <g>
       <use style="stroke:#000000;stroke-width:0.8;" x="57.6" xlink:href="#m144e9bbfa9" y="167.396606"/>
      </g>
     </g>
     <g id="text_11">
      <!-- 1500 -->
      <g transform="translate(25.15 171.195825)scale(0.1 -0.1)">
       <use xlink:href="#DejaVuSans-31"/>
       <use x="63.623047" xlink:href="#DejaVuSans-35"/>
       <use x="127.246094" xlink:href="#DejaVuSans-30"/>
       <use x="190.869141" xlink:href="#DejaVuSans-30"/>
      </g>
     </g>
    </g>
    <g id="ytick_5">
     <g id="line2d_21">
      <path clip-path="url(#pccf7c5c253)" d="M 57.6 134.596202 
L 414.72 134.596202 
" style="fill:none;stroke:#b0b0b0;stroke-linecap:square;stroke-width:0.8;"/>
     </g>
     <g id="line2d_22">
      <g>
       <use style="stroke:#000000;stroke-width:0.8;" x="57.6" xlink:href="#m144e9bbfa9" y="134.596202"/>
      </g>
     </g>
     <g id="text_12">
      <!-- 2000 -->
      <g transform="translate(25.15 138.395421)scale(0.1 -0.1)">
       <use xlink:href="#DejaVuSans-32"/>
       <use x="63.623047" xlink:href="#DejaVuSans-30"/>
       <use x="127.246094" xlink:href="#DejaVuSans-30"/>
       <use x="190.869141" xlink:href="#DejaVuSans-30"/>
      </g>
     </g>
    </g>
    <g id="ytick_6">
     <g id="line2d_23">
      <path clip-path="url(#pccf7c5c253)" d="M 57.6 101.795798 
L 414.72 101.795798 
" style="fill:none;stroke:#b0b0b0;stroke-linecap:square;stroke-width:0.8;"/>
     </g>
     <g id="line2d_24">
      <g>
       <use style="stroke:#000000;stroke-width:0.8;" x="57.6" xlink:href="#m144e9bbfa9" y="101.795798"/>
      </g>
     </g>
     <g id="text_13">
      <!-- 2500 -->
      <g transform="translate(25.15 105.595017)scale(0.1 -0.1)">
       <use xlink:href="#DejaVuSans-32"/>
       <use x="63.623047" xlink:href="#DejaVuSans-35"/>
       <use x="127.246094" xlink:href="#DejaVuSans-30"/>
       <use x="190.869141" xlink:href="#DejaVuSans-30"/>
      </g>
     </g>
    </g>
    <g id="ytick_7">
     <g id="line2d_25">
      <path clip-path="url(#pccf7c5c253)" d="M 57.6 68.995394 
L 414.72 68.995394 
" style="fill:none;stroke:#b0b0b0;stroke-linecap:square;stroke-width:0.8;"/>
     </g>
     <g id="line2d_26">
      <g>
       <use style="stroke:#000000;stroke-width:0.8;" x="57.6" xlink:href="#m144e9bbfa9" y="68.995394"/>
      </g>
     </g>
     <g id="text_14">
      <!-- 3000 -->
      <g transform="translate(25.15 72.794613)scale(0.1 -0.1)">
       <use xlink:href="#DejaVuSans-33"/>
       <use x="63.623047" xlink:href="#DejaVuSans-30"/>
       <use x="127.246094" xlink:href="#DejaVuSans-30"/>
       <use x="190.869141" xlink:href="#DejaVuSans-30"/>
      </g>
     </g>
    </g>
    <g id="text_15">
     <!-- EUR -->
     <defs>
      <path d="M 9.8125 72.90625 
L 55.90625 72.90625 
L 55.90625 64.59375 
L 19.671875 64.59375 
L 19.671875 43.015625 
L 54.390625 43.015625 
L 54.390625 34.71875 
L 19.671875 34.71875 
L 19.671875 8.296875 
L 56.78125 8.296875 
L 56.78125 0 
L 9.8125 0 
z
" id="DejaVuSans-45"/>
      <path d="M 8.6875 72.90625 
L 18.609375 72.90625 
L 18.609375 28.609375 
Q 18.609375 16.890625 22.84375 11.734375 
Q 27.09375 6.59375 36.625 6.59375 
Q 46.09375 6.59375 50.34375 11.734375 
Q 54.59375 16.890625 54.59375 28.609375 
L 54.59375 72.90625 
L 64.5 72.90625 
L 64.5 27.390625 
Q 64.5 13.140625 57.4375 5.859375 
Q 50.390625 -1.421875 36.625 -1.421875 
Q 22.796875 -1.421875 15.734375 5.859375 
Q 8.6875 13.140625 8.6875 27.390625 
z
" id="DejaVuSans-55"/>
      <path d="M 44.390625 34.1875 
Q 47.5625 33.109375 50.5625 29.59375 
Q 53.5625 26.078125 56.59375 19.921875 
L 66.609375 0 
L 56 0 
L 46.6875 18.703125 
Q 43.0625 26.03125 39.671875 28.421875 
Q 36.28125 30.8125 30.421875 30.8125 
L 19.671875 30.8125 
L 19.671875 0 
L 9.8125 0 
L 9.8125 72.90625 
L 32.078125 72.90625 
Q 44.578125 72.90625 50.734375 67.671875 
Q 56.890625 62.453125 56.890625 51.90625 
Q 56.890625 45.015625 53.6875 40.46875 
Q 50.484375 35.9375 44.390625 34.1875 
z
M 19.671875 64.796875 
L 19.671875 38.921875 
L 32.078125 38.921875 
Q 39.203125 38.921875 42.84375 42.21875 
Q 46.484375 45.515625 46.484375 51.90625 
Q 46.484375 58.296875 42.84375 61.546875 
Q 39.203125 64.796875 32.078125 64.796875 
z
" id="DejaVuSans-52"/>
     </defs>
     <g transform="translate(19.070312 169.268969)rotate(-90)scale(0.1 -0.1)">
      <use xlink:href="#DejaVuSans-45"/>
      <use x="63.183594" xlink:href="#DejaVuSans-55"/>
      <use x="136.376953" xlink:href="#DejaVuSans-52"/>
     </g>
    </g>
   </g>
   <g id="line2d_27">
    <path clip-path="url(#pccf7c5c253)" d="M 73.832727 265.797818 
L 148.43163 265.692518 
L 148.43163 265.528174 
L 152.8198 265.379089 
L 152.8198 265.362763 
L 157.207971 265.22205 
L 157.207971 265.043417 
L 163.790227 264.903628 
L 163.790227 264.550334 
L 163.790227 264.550334 
L 165.984313 264.550334 
L 165.984313 264.445225 
L 165.984313 264.32209 
L 168.178398 264.32209 
L 168.178398 264.220972 
L 168.178398 263.64543 
L 170.372483 263.515134 
L 170.372483 263.414415 
L 172.566569 263.28402 
L 172.566569 263.28402 
L 172.566569 263.254476 
L 179.148825 263.14416 
L 179.148825 262.518031 
L 181.34291 262.392168 
L 181.34291 262.311549 
L 185.731081 262.161194 
L 185.731081 262.055265 
L 185.731081 262.055265 
L 194.507422 261.918337 
L 194.507422 261.754897 
L 194.507422 261.754897 
L 196.701508 261.620265 
L 196.701508 261.612711 
L 201.089679 261.558022 
L 201.089679 261.511704 
L 203.283764 261.391681 
L 203.283764 261.255711 
L 209.86602 261.160029 
L 209.86602 260.288673 
L 212.060105 260.181295 
L 212.060105 260.007964 
L 214.254191 259.885714 
L 214.254191 259.790699 
L 216.448276 259.705138 
L 216.448276 259.582108 
L 218.642361 259.461078 
L 218.642361 259.273869 
L 225.224618 259.157203 
L 225.224618 258.936708 
L 227.418703 258.936708 
L 227.418703 258.836158 
L 227.418703 258.732555 
L 229.612788 258.608258 
L 229.612788 258.190094 
L 229.612788 258.190094 
L 231.806874 258.064719 
L 231.806874 258.039122 
L 234.000959 257.932629 
L 234.000959 257.813211 
L 240.583215 257.702413 
L 240.583215 257.392847 
L 242.777301 257.305773 
L 242.777301 257.257298 
L 247.165471 257.125901 
L 247.165471 257.125901 
L 247.165471 257.059689 
L 255.941813 256.895451 
L 255.941813 256.788073 
L 260.329983 256.679111 
L 260.329983 256.679111 
L 260.329983 256.606756 
L 264.718154 256.587351 
L 264.718154 256.525207 
L 264.718154 256.462189 
L 271.30041 256.38727 
L 271.30041 256.182622 
L 275.688581 256.052268 
L 275.688581 255.633119 
L 277.882666 255.523831 
L 277.882666 255.20634 
L 280.076752 255.08627 
L 280.076752 255.010857 
L 286.659008 254.994826 
L 286.659008 254.901129 
L 286.659008 254.589752 
L 288.853093 254.47342 
L 288.853093 254.422241 
L 291.047179 254.317083 
L 291.047179 254.317083 
L 291.047179 254.216783 
L 293.241264 254.216783 
L 293.241264 254.140712 
L 293.241264 254.039703 
L 295.435349 254.039703 
L 295.435349 253.965199 
L 295.435349 253.844259 
L 302.017605 253.736517 
L 302.017605 252.951022 
L 306.405776 252.815213 
L 306.405776 252.692078 
L 308.599862 252.569803 
L 308.599862 251.877515 
L 319.570288 251.748746 
L 319.570288 251.748746 
L 319.570288 251.465114 
L 323.958459 251.366004 
L 323.958459 251.236093 
L 332.734801 251.102746 
L 332.734801 250.898375 
L 339.317057 250.691224 
L 339.317057 250.533967 
L 341.511142 250.433424 
L 341.511142 250.126458 
L 341.511142 250.126458 
L 348.093398 249.968565 
L 348.093398 249.509171 
L 350.287483 249.380618 
L 350.287483 249.327451 
L 352.481569 249.220353 
L 352.481569 249.220353 
L 352.481569 249.094932 
L 356.86974 248.968272 
L 356.86974 248.77148 
L 363.451996 248.666435 
L 363.451996 248.666435 
L 363.451996 248.171616 
L 365.646081 248.061944 
L 365.646081 248.010201 
L 367.840166 247.895038 
L 367.840166 247.666902 
L 370.034252 247.534319 
L 370.034252 247.49524 
L 370.034252 247.49524 
L 378.810593 247.398358 
L 378.810593 246.780349 
L 383.198764 246.602757 
L 383.198764 246.569834 
L 385.392849 246.447973 
L 385.392849 246.384827 
L 385.392849 246.384827 
L 394.169191 246.206505 
L 394.169191 246.109329 
L 394.169191 246.109329 
L 396.363276 246.109329 
L 396.363276 246.025674 
" style="fill:none;stroke:#0000ff;stroke-linecap:square;stroke-width:1.5;"/>
   </g>
   <g id="line2d_28">
    <path clip-path="url(#pccf7c5c253)" d="M 73.832727 265.797818 
L 80.139072 265.535415 
L 80.491878 232.735011 
L 80.942681 232.866213 
L 81.027854 233.325418 
L 81.208181 233.391019 
L 81.322862 234.112628 
L 81.376902 234.637434 
L 81.474823 236.671059 
L 81.568681 236.933463 
L 82.435954 247.429592 
L 83.306402 249.856822 
L 83.334996 250.184826 
L 83.463924 250.250427 
L 83.572486 252.349653 
L 83.646815 252.546455 
L 83.851241 254.055274 
L 83.957035 254.711282 
L 84.063387 255.629693 
L 84.236704 256.679306 
L 84.349608 257.79452 
L 84.462969 257.86012 
L 84.571175 258.516128 
L 84.728723 259.172137 
L 84.93325 259.828145 
L 85.024797 260.156149 
L 85.486139 260.812157 
L 85.744503 261.07456 
L 85.916652 262.648979 
L 86.320247 262.911383 
L 86.510757 263.567391 
L 86.564644 263.829794 
L 86.617642 264.157798 
L 86.79388 264.485802 
L 87.85532 264.879407 
L 87.910172 265.010608 
L 87.935033 264.681805 
L 87.952454 264.813006 
L 87.953978 133.61139 
L 88.056698 135.18581 
L 88.380123 146.009943 
L 88.487999 166.936601 
L 88.586529 207.018694 
L 88.617612 206.754755 
L 88.712461 208.657179 
L 88.824806 213.249235 
L 89.007824 220.202921 
L 89.120779 230.88292 
L 89.222078 232.785344 
L 89.62199 233.429725 
L 89.626028 234.058371 
L 89.764453 234.320774 
L 89.805339 236.944806 
L 89.858032 239.962444 
L 89.896733 239.944994 
L 90.025077 240.207397 
L 90.137677 243.356236 
L 90.222316 246.767478 
L 90.3098 249.981918 
L 90.354266 250.047519 
L 90.382556 251.884341 
L 90.690312 254.967579 
L 90.826528 258.050817 
L 90.968407 257.393784 
L 91.109753 258.443397 
L 91.154625 258.508998 
L 91.289089 259.425692 
L 91.386121 259.753696 
L 91.420277 260.409705 
L 91.627648 260.540906 
L 92.336638 260.737709 
L 92.511377 261.459317 
L 92.584844 263.164938 
L 92.893869 263.29614 
L 92.896002 263.755346 
L 93.041437 263.820947 
L 93.329868 265.132963 
L 94.615312 265.197792 
L 94.773901 265.394594 
L 94.806812 265.525796 
L 95.522125 265.722512 
L 96.527696 265.701823 
L 96.802871 265.04146 
L 96.837611 265.238263 
L 96.963237 265.565378 
L 96.987388 265.630979 
L 99.068747 265.696575 
L 103.913739 265.762176 
L 105.565195 265.09746 
L 105.590843 265.622267 
L 107.77373 265.753468 
L 110.631754 265.090536 
L 110.638712 265.156136 
L 110.65979 265.746544 
L 118.602023 265.680559 
L 118.602023 265.053803 
L 118.607331 265.709811 
L 119.089395 265.669852 
L 127.938949 265.734487 
L 136.588546 265.775015 
L 149.177924 265.663347 
L 149.177924 265.544505 
L 149.207432 265.741308 
L 149.243721 265.724686 
L 149.5546 265.77072 
L 151.574733 265.758363 
L 152.513162 265.077901 
L 153.506341 265.014257 
L 153.506341 264.669927 
L 153.577725 264.997931 
L 154.481896 265.127882 
L 154.481896 265.122132 
L 154.728325 265.515736 
L 155.746695 265.494101 
L 155.873591 265.76393 
L 155.897792 265.494513 
L 155.982509 265.691316 
L 158.160875 265.688307 
L 158.224107 265.753903 
L 158.786697 265.79449 
L 164.461506 265.681238 
L 164.50041 265.725494 
L 164.572404 265.656573 
L 164.858701 265.501785 
L 164.858701 265.493871 
L 164.932142 265.625072 
L 165.158712 265.562954 
L 165.22004 264.862409 
L 165.231823 264.92801 
L 165.321364 265.124812 
L 165.375911 265.256014 
L 166.682535 265.107964 
L 166.682535 265.04482 
L 166.69414 265.110421 
L 166.752877 265.110417 
L 167.405846 265.198825 
L 167.574187 265.388965 
L 167.574187 265.386337 
L 167.939487 265.355036 
L 168.893787 265.250192 
L 168.980991 264.636188 
L 169.163375 264.912825 
L 169.197911 264.685021 
L 169.232042 265.078625 
L 169.473264 265.463808 
L 169.473264 265.445778 
L 169.713648 265.50608 
L 169.834094 265.156308 
L 169.887956 265.221908 
L 169.913935 265.418711 
L 171.880308 265.489561 
L 171.970611 265.59424 
L 172.320801 265.654577 
L 172.320801 265.627344 
L 172.36646 265.561526 
L 172.381976 265.627127 
L 173.318068 265.516112 
L 173.318068 265.505837 
L 173.353316 265.571438 
L 173.587225 265.75683 
L 173.587225 265.736234 
L 174.046307 265.690579 
L 174.139454 265.525312 
L 174.186992 265.656514 
L 174.205886 265.722115 
L 174.269575 265.394111 
L 174.338597 265.590913 
L 175.985152 265.651133 
L 176.146178 265.716189 
L 176.146178 265.714462 
L 176.53027 265.780063 
L 179.878917 265.69617 
L 179.916171 265.153474 
L 179.960967 265.219074 
L 180.283274 265.40796 
L 180.283274 265.405681 
L 180.330888 265.602484 
L 180.487699 265.347084 
L 180.514592 265.478285 
L 180.631077 265.659648 
L 180.631077 265.612041 
L 181.278535 265.704499 
L 182.025007 265.614658 
L 182.025007 265.570033 
L 182.103247 265.701235 
L 184.686224 265.773786 
L 184.81698 237.83309 
L 184.908705 241.475723 
L 185.012874 260.037966 
L 185.012874 259.381958 
L 185.139338 260.75262 
L 185.314662 260.79996 
L 185.342469 260.865561 
L 185.624678 261.062363 
L 186.78508 261.020828 
L 186.810373 259.379457 
L 186.851588 260.953876 
L 187.070362 261.019477 
L 187.149212 262.987501 
L 187.201651 263.118703 
L 187.216025 263.512308 
L 187.321717 263.468826 
L 187.367833 263.534427 
L 188.684919 263.50292 
L 188.776466 262.830151 
L 188.787411 263.158155 
L 188.867887 263.551162 
L 188.867887 263.548172 
L 189.325013 263.663568 
L 189.517884 265.168625 
L 190.08022 265.20137 
L 191.246666 265.200785 
L 191.535732 265.659991 
L 196.199382 265.702554 
L 196.199382 265.279104 
L 196.267973 265.410305 
L 196.32572 265.269308 
L 196.334583 265.46611 
L 198.208215 265.37701 
L 198.208215 265.336449 
L 198.32729 265.40205 
L 198.447863 265.730054 
L 198.481612 265.691015 
L 199.72673 265.726676 
L 200.435567 265.412384 
L 202.597833 265.473715 
L 202.649968 265.604917 
L 203.980742 265.479338 
L 203.980742 265.340252 
L 204.077952 265.471453 
L 204.180926 265.639531 
L 204.914751 265.715612 
L 210.645606 265.777149 
L 210.645606 265.775112 
L 210.645606 264.954468 
L 210.85186 265.021532 
L 210.954632 265.388117 
L 211.112306 265.438736 
L 211.120686 265.569937 
L 211.197683 265.494115 
L 211.556431 265.544289 
L 211.556431 265.531767 
L 211.556431 264.867167 
L 211.665449 265.523175 
L 211.796561 265.588776 
L 212.783036 265.653033 
L 212.783036 265.563251 
L 212.783036 265.484546 
L 212.848732 265.615747 
L 214.900862 265.518251 
L 214.900862 265.459251 
L 215.143684 265.589469 
L 215.143684 265.573188 
L 215.449866 265.640471 
L 215.61653 265.706072 
L 219.338171 265.592327 
L 219.338171 265.407077 
L 219.373368 265.472678 
L 219.700982 265.705128 
L 219.700982 265.701006 
L 220.063362 265.634117 
L 220.063362 265.568807 
L 220.080097 265.634408 
L 220.415965 265.700008 
L 224.442721 265.762674 
L 224.442721 265.756173 
L 224.58427 265.754431 
L 225.980637 265.643999 
L 225.980637 265.634021 
L 226.01751 265.765222 
L 226.087523 265.725052 
L 227.292162 265.654717 
L 227.338253 265.010812 
L 227.396203 265.470018 
L 228.104228 265.364376 
L 228.2135 265.085647 
L 228.290522 265.053218 
L 228.396011 265.401019 
L 228.548987 265.532221 
L 230.39626 265.421849 
L 230.475364 265.038955 
L 230.495501 265.104556 
L 230.606272 265.563762 
L 231.186003 265.461267 
L 231.186003 265.396006 
L 231.203805 265.461607 
L 231.758142 265.550042 
L 231.848394 265.615643 
L 232.550476 265.506511 
L 232.550476 265.491048 
L 232.604744 265.556649 
L 232.84076 265.605432 
L 234.950434 265.66283 
L 235.108998 265.728431 
L 235.562239 265.675428 
L 235.562239 265.505608 
L 235.597867 265.63681 
L 237.506899 265.603938 
L 238.332119 265.733598 
L 238.332119 265.732963 
L 241.383599 265.624111 
L 241.383599 265.43627 
L 241.388983 265.501871 
L 241.898574 265.631843 
L 241.898574 265.55415 
L 241.898574 265.437026 
L 241.924248 265.633829 
L 243.633426 265.677737 
L 243.679263 265.743338 
L 266.480711 265.76288 
L 266.663297 265.106872 
L 266.663297 264.022183 
L 266.697961 265.793405 
L 272.155773 265.698796 
L 272.155773 265.651288 
L 272.187923 265.716889 
L 272.251917 265.689275 
L 272.342195 265.744083 
L 272.342195 265.722879 
L 272.972588 265.635736 
L 274.330483 265.628734 
L 274.53242 265.279811 
L 274.549536 265.345412 
L 274.573534 265.673416 
L 274.624348 265.657038 
L 274.994905 265.532126 
L 275.0767 261.157679 
L 275.080154 263.832179 
L 275.177313 264.356986 
L 275.68274 264.312629 
L 275.68274 264.9729 
L 275.825686 265.038501 
L 276.373547 264.932283 
L 276.461539 264.548132 
L 277.397123 264.602733 
L 277.441792 264.668334 
L 277.442935 264.666002 
L 278.552446 264.552287 
L 278.552446 264.313429 
L 279.272152 264.172178 
L 279.329061 264.500182 
L 279.346279 265.680996 
L 279.558044 265.778171 
L 279.825245 264.535785 
L 279.856708 265.191793 
L 280.750671 265.082894 
L 280.750671 265.045593 
L 280.815986 265.111193 
L 280.829369 265.108342 
L 281.843803 265.065179 
L 281.985403 265.721188 
L 287.405327 265.601583 
L 287.445323 265.425133 
L 287.554342 265.532498 
L 287.622577 265.663373 
L 287.622577 265.625519 
L 289.994779 265.656229 
L 290.17569 265.715365 
L 290.17569 265.693392 
L 290.263885 265.672419 
L 290.70641 265.729595 
L 291.80043 265.619931 
L 291.827907 265.524674 
L 291.889565 265.670057 
L 292.179316 265.725244 
L 292.456624 265.785935 
L 296.136619 265.661371 
L 296.209933 265.568939 
L 296.228191 265.700141 
L 296.391376 265.751969 
L 296.391376 265.741106 
L 300.687009 265.728417 
L 300.779623 265.787653 
L 300.779623 265.775991 
L 302.776977 265.668057 
L 302.862049 265.40412 
L 302.87566 265.46972 
L 302.909537 265.340706 
L 302.967589 265.685353 
L 302.999357 265.60139 
L 303.169094 265.732592 
L 303.696005 265.618647 
L 303.696005 265.083894 
L 303.801366 265.338494 
L 303.96186 265.386813 
L 303.96186 265.383555 
L 304.142364 265.378559 
L 304.284649 265.640962 
L 309.310247 265.615488 
L 309.37287 264.992571 
L 309.387599 265.189373 
L 309.834314 265.61602 
L 309.834314 265.597479 
L 310.670631 265.588463 
L 314.179949 265.794514 
L 320.248017 265.683497 
L 320.248017 265.629019 
L 320.282122 265.694619 
L 327.948419 265.787004 
L 333.859244 265.731484 
L 333.859244 265.633388 
L 333.953381 265.68174 
L 335.836841 265.727946 
L 336.510684 265.788961 
L 336.510684 265.749041 
L 340.016548 265.629663 
L 340.080035 265.577055 
L 340.283419 265.724892 
L 341.086165 265.66253 
L 341.130301 265.60134 
L 341.144242 265.666941 
L 342.224753 265.560457 
L 342.224753 265.290972 
L 342.321785 265.553375 
L 342.466534 265.594964 
L 342.560418 265.659059 
L 342.560418 265.65831 
L 346.7659 265.710309 
L 347.128331 265.775529 
L 347.128331 265.772334 
L 348.795252 265.644977 
L 348.795252 265.377468 
L 349.335723 265.519902 
L 350.956197 265.392193 
L 351.033726 265.356952 
L 351.135051 265.417764 
L 351.302553 265.481163 
L 351.415558 265.660772 
L 353.87593 265.597524 
L 355.338578 265.491509 
L 355.338578 265.451016 
L 355.559866 265.580097 
L 357.5785 265.447421 
L 357.6348 265.409887 
L 357.741533 265.460078 
L 357.815634 265.585067 
L 357.815634 265.554433 
L 358.817041 265.638048 
L 361.925938 265.766457 
L 361.925938 265.765123 
L 364.202022 265.651993 
L 364.261039 265.124236 
L 364.301112 265.189837 
L 364.35891 265.385345 
L 364.453073 265.344238 
L 364.620346 265.39657 
L 364.84458 265.585731 
L 364.84458 265.574197 
L 366.408551 265.526585 
L 366.44357 265.592186 
L 366.581386 265.526476 
L 366.591011 265.592077 
L 366.671181 265.654867 
L 366.819891 265.708224 
L 366.948819 265.771659 
L 366.948819 265.76648 
L 368.541334 265.60784 
L 368.541334 265.460253 
L 368.642988 265.591454 
L 368.724632 265.652741 
L 368.724632 265.604539 
L 371.823549 265.630764 
L 371.95819 265.69495 
L 371.95819 265.694013 
L 379.521843 265.573616 
L 379.521843 265.170552 
L 379.607752 265.236153 
L 379.654123 265.207137 
L 379.665499 265.272738 
L 379.784854 265.596635 
L 381.700133 265.483418 
L 381.700133 265.470474 
L 381.8815 265.600464 
L 381.8815 265.578228 
L 381.8815 265.416155 
L 381.91624 265.678558 
L 381.966699 265.613995 
L 384.256013 265.642468 
L 384.347383 265.706779 
L 384.347383 265.687288 
L 384.982779 265.654537 
L 389.246237 265.567808 
L 391.073626 265.553342 
L 391.53865 265.750145 
L 394.877901 265.639961 
L 394.877901 265.623487 
L 394.972597 265.754689 
L 395.319105 265.73769 
L 395.449683 259.195322 
L 395.499355 261.79558 
L 395.54344 261.467575 
L 395.573609 261.79558 
L 395.79124 261.767079 
L 398.487273 261.856426 
L 398.487273 261.856426 
" style="fill:none;stroke:#ff0000;stroke-linecap:square;stroke-width:1.5;"/>
   </g>
   <g id="line2d_29">
    <path clip-path="url(#pccf7c5c253)" d="M 73.832727 265.797818 
L 78.220898 265.732217 
L 78.220898 265.469814 
L 80.414983 265.338613 
L 80.414983 250.840834 
L 81.907215 250.51283 
L 82.609069 250.184826 
L 82.609069 239.557495 
L 84.803154 239.426293 
L 84.803154 234.375031 
L 86.997239 233.981426 
L 86.997239 200.065808 
L 86.997239 201.181022 
L 88.469562 200.525014 
L 88.519488 148.044368 
L 89.004523 147.38836 
L 89.016077 134.937139 
L 89.191325 134.281131 
L 89.191325 111.845654 
L 89.191325 112.836296 
L 89.62199 112.191914 
L 89.626028 111.563269 
L 89.804399 110.907261 
L 89.807726 108.283228 
L 91.38541 107.62722 
L 91.38541 103.231966 
L 93.579496 102.313555 
L 93.579496 101.985551 
L 93.579496 101.986409 
L 95.773581 101.855207 
L 95.773581 101.067998 
L 95.773581 102.057753 
L 102.355837 101.926551 
L 104.549922 101.532946 
L 104.549922 101.401745 
L 104.549922 102.057753 
L 108.938093 101.86095 
L 108.938093 101.270543 
L 108.938093 101.926551 
L 117.714435 101.270543 
L 117.714435 101.336144 
L 117.714435 101.992152 
L 135.267118 101.795349 
L 135.267118 101.874095 
L 148.43163 101.814482 
L 148.43163 101.617679 
L 148.43163 101.684453 
L 150.625715 101.618852 
L 150.625715 101.630207 
L 150.625715 102.291405 
L 152.8198 102.225804 
L 152.8198 101.176191 
L 152.8198 101.511623 
L 155.013886 101.380421 
L 155.013886 101.052417 
L 155.013886 101.483567 
L 157.207971 101.352365 
L 157.207971 101.024361 
L 157.207971 101.175927 
L 163.790227 100.990455 
L 163.790227 100.334447 
L 163.790227 101.258189 
L 165.984313 101.126987 
L 165.984313 100.733382 
L 165.984313 100.894053 
L 168.178398 100.762851 
L 168.178398 99.385234 
L 168.178398 100.153719 
L 170.372483 100.022517 
L 170.372483 99.563312 
L 170.372483 99.714288 
L 172.566569 99.583086 
L 172.566569 99.05828 
L 172.566569 99.595943 
L 174.760654 99.464741 
L 174.760654 99.399141 
L 174.760654 99.399685 
L 179.148825 99.212758 
L 179.148825 98.359947 
L 179.148825 98.740532 
L 181.34291 98.609331 
L 181.34291 98.412528 
L 181.34291 98.503232 
L 183.536996 98.372031 
L 183.536996 88.728712 
L 183.536996 88.76646 
L 184.977194 88.110452 
L 185.010715 75.187093 
L 185.731081 75.055891 
L 185.731081 70.85744 
L 185.731081 72.572742 
L 187.925166 72.244738 
L 187.925166 70.539117 
L 187.925166 71.223697 
L 189.395838 70.830092 
L 190.119252 70.370886 
L 190.119252 70.370886 
L 192.313337 70.377228 
L 194.507422 70.180426 
L 194.507422 69.786821 
L 194.507422 70.406292 
L 196.701508 70.078288 
L 196.701508 70.012687 
L 196.701508 70.039201 
L 198.895593 69.908 
L 198.895593 70.293444 
L 201.089679 70.162242 
L 201.089679 69.834238 
L 201.089679 69.991622 
L 203.283764 69.86042 
L 203.283764 69.532416 
L 203.283764 69.657604 
L 209.86602 69.395831 
L 209.86602 68.018214 
L 209.86602 68.817403 
L 212.060105 68.686201 
L 212.060105 68.489399 
L 212.060105 68.535605 
L 214.254191 68.338803 
L 214.254191 68.142 
L 214.254191 68.162362 
L 218.642361 67.928119 
L 218.642361 67.600115 
L 218.642361 67.691365 
L 225.224618 67.431897 
L 225.224618 66.775889 
L 225.224618 67.584195 
L 227.418703 67.452993 
L 227.418703 66.862586 
L 227.418703 67.214026 
L 229.612788 67.082824 
L 229.612788 66.492417 
L 229.612788 66.757557 
L 231.806874 66.626355 
L 231.806874 66.429553 
L 231.806874 66.496822 
L 234.000959 66.365621 
L 234.000959 66.103217 
L 234.000959 66.265913 
L 240.583215 66.021097 
L 240.583215 65.758694 
L 240.583215 65.879851 
L 242.777301 65.748649 
L 242.777301 65.617447 
L 242.777301 65.635369 
L 249.359557 65.37846 
L 249.359557 65.312859 
L 249.359557 65.337493 
L 258.135898 65.010473 
L 258.135898 64.944872 
L 258.135898 65.026746 
L 264.718154 64.849815 
L 264.718154 63.078594 
L 264.718154 64.786289 
L 271.30041 64.720688 
L 271.30041 64.589487 
L 271.30041 64.664391 
L 273.494496 64.533189 
L 273.494496 63.614778 
L 273.494496 64.070428 
L 274.994905 64.195339 
L 275.0767 68.636151 
L 275.077361 66.012119 
L 275.68274 65.994503 
L 275.688581 65.142572 
L 275.688581 65.243994 
L 277.882666 64.850389 
L 277.882666 62.882365 
L 277.882666 64.288446 
L 280.076752 64.157244 
L 280.076752 63.501236 
L 280.076752 63.563569 
L 284.464922 63.509242 
L 286.659008 63.37804 
L 286.659008 63.050036 
L 286.659008 63.160354 
L 288.853093 63.029152 
L 288.853093 62.766749 
L 288.853093 62.966545 
L 291.047179 62.835343 
L 291.047179 62.638541 
L 291.047179 62.723097 
L 293.241264 62.591896 
L 293.241264 62.526295 
L 293.241264 62.581372 
L 295.435349 62.45017 
L 295.435349 62.253368 
L 295.435349 62.34292 
L 299.82352 62.30998 
L 302.017605 61.916375 
L 302.017605 61.063565 
L 302.017605 61.583959 
L 304.211691 61.452757 
L 304.211691 61.387156 
L 304.211691 61.501195 
L 306.405776 61.369994 
L 306.405776 61.173191 
L 306.405776 61.283052 
L 308.599862 61.020649 
L 308.599862 60.364641 
L 308.599862 60.628552 
L 310.793947 60.497351 
L 310.793947 60.43175 
L 310.793947 60.436209 
L 317.376203 60.305717 
L 317.376203 60.345988 
L 317.376203 60.351237 
L 317.376203 60.351237 
L 319.570288 60.220035 
L 319.570288 60.088834 
L 319.570288 60.147579 
L 321.764374 60.016377 
L 321.764374 59.950777 
L 321.764374 59.970613 
L 323.958459 59.839412 
L 323.958459 59.70821 
L 323.958459 59.856564 
L 326.152544 59.725363 
L 326.152544 59.659762 
L 326.152544 59.692603 
L 332.734801 59.630007 
L 332.734801 59.498806 
L 332.734801 59.530147 
L 339.317057 59.222656 
L 339.317057 59.025854 
L 339.317057 59.220727 
L 341.511142 59.089525 
L 341.511142 58.761521 
L 341.511142 58.855127 
L 345.899313 58.660889 
L 345.899313 58.595288 
L 345.899313 58.602765 
L 348.093398 58.471564 
L 348.093398 58.20916 
L 348.093398 58.3326 
L 350.287483 58.201398 
L 350.287483 58.004596 
L 350.287483 58.045408 
L 352.481569 57.914206 
L 352.481569 57.783004 
L 352.481569 57.877417 
L 354.675654 57.746216 
L 354.675654 57.680615 
L 354.675654 57.786848 
L 356.86974 57.655647 
L 356.86974 57.393244 
L 356.86974 57.472931 
L 363.451996 57.21266 
L 363.451996 56.622253 
L 363.451996 56.971515 
L 365.646081 56.840314 
L 365.646081 56.512309 
L 365.646081 56.655106 
L 367.840166 56.523904 
L 367.840166 56.261501 
L 367.840166 56.403928 
L 370.034252 56.272726 
L 370.034252 56.010323 
L 370.034252 56.206327 
L 372.228337 56.075126 
L 372.228337 55.943924 
L 372.228337 56.027768 
L 378.810593 55.962622 
L 378.810593 55.437816 
L 378.810593 55.630642 
L 381.004679 55.49944 
L 381.004679 55.302638 
L 381.004679 55.55153 
L 383.198764 55.420329 
L 383.198764 55.223526 
L 383.198764 55.387187 
L 385.392849 55.255985 
L 385.392849 54.993582 
L 385.392849 55.156444 
L 389.78102 54.975204 
L 389.78102 54.909603 
L 389.78102 54.975017 
L 394.169191 54.843815 
L 394.169191 52.154182 
L 394.169191 52.598587 
L 396.363276 52.622386 
L 396.363276 52.622386 
" style="fill:none;stroke:#008000;stroke-linecap:square;stroke-width:1.5;"/>
   </g>
   <g id="line2d_30">
    <defs>
     <path d="M 0 3 
C 0.795609 3 1.55874 2.683901 2.12132 2.12132 
C 2.683901 1.55874 3 0.795609 3 0 
C 3 -0.795609 2.683901 -1.55874 2.12132 -2.12132 
C 1.55874 -2.683901 0.795609 -3 0 -3 
C -0.795609 -3 -1.55874 -2.683901 -2.12132 -2.12132 
C -2.683901 -1.55874 -3 -0.795609 -3 0 
C -3 0.795609 -2.683901 1.55874 -2.12132 2.12132 
C -1.55874 2.683901 -0.795609 3 0 3 
z
" id="m2a8b651827" style="stroke:#bfbf00;"/>
    </defs>
    <g clip-path="url(#pccf7c5c253)">
     <use style="fill:#bfbf00;stroke:#bfbf00;" x="80.491878" xlink:href="#m2a8b651827" y="232.997414"/>
     <use style="fill:#bfbf00;stroke:#bfbf00;" x="87.953978" xlink:href="#m2a8b651827" y="134.596202"/>
    </g>
   </g>
   <g id="line2d_31">
    <defs>
     <path d="M 0 3 
C 0.795609 3 1.55874 2.683901 2.12132 2.12132 
C 2.683901 1.55874 3 0.795609 3 0 
C 3 -0.795609 2.683901 -1.55874 2.12132 -2.12132 
C 1.55874 -2.683901 0.795609 -3 0 -3 
C -0.795609 -3 -1.55874 -2.683901 -2.12132 -2.12132 
C -2.683901 -1.55874 -3 -0.795609 -3 0 
C -3 0.795609 -2.683901 1.55874 -2.12132 2.12132 
C -1.55874 2.683901 -0.795609 3 0 3 
z
" id="m2295ddc199" style="stroke:#008000;"/>
    </defs>
    <g clip-path="url(#pccf7c5c253)">
     <use style="fill:#008000;stroke:#008000;" x="184.81698" xlink:href="#m2295ddc199" y="237.857122"/>
     <use style="fill:#008000;stroke:#008000;" x="395.449683" xlink:href="#m2295ddc199" y="259.25545"/>
    </g>
   </g>
   <g id="patch_3">
    <path d="M 57.6 276.48 
L 57.6 41.472 
" style="fill:none;stroke:#000000;stroke-linecap:square;stroke-linejoin:miter;stroke-width:0.8;"/>
   </g>
   <g id="patch_4">
    <path d="M 414.72 276.48 
L 414.72 41.472 
" style="fill:none;stroke:#000000;stroke-linecap:square;stroke-linejoin:miter;stroke-width:0.8;"/>
   </g>
   <g id="patch_5">
    <path d="M 57.6 276.48 
L 414.72 276.48 
" style="fill:none;stroke:#000000;stroke-linecap:square;stroke-linejoin:miter;stroke-width:0.8;"/>
   </g>
   <g id="patch_6">
    <path d="M 57.6 41.472 
L 414.72 41.472 
" style="fill:none;stroke:#000000;stroke-linecap:square;stroke-linejoin:miter;stroke-width:0.8;"/>
   </g>
   <g id="text_16">
    <!-- My Bondora earnings -->
    <defs>
     <path d="M 9.8125 72.90625 
L 24.515625 72.90625 
L 43.109375 23.296875 
L 61.8125 72.90625 
L 76.515625 72.90625 
L 76.515625 0 
L 66.890625 0 
L 66.890625 64.015625 
L 48.09375 14.015625 
L 38.1875 14.015625 
L 19.390625 64.015625 
L 19.390625 0 
L 9.8125 0 
z
" id="DejaVuSans-4d"/>
     <path d="M 32.171875 -5.078125 
Q 28.375 -14.84375 24.75 -17.8125 
Q 21.140625 -20.796875 15.09375 -20.796875 
L 7.90625 -20.796875 
L 7.90625 -13.28125 
L 13.1875 -13.28125 
Q 16.890625 -13.28125 18.9375 -11.515625 
Q 21 -9.765625 23.484375 -3.21875 
L 25.09375 0.875 
L 2.984375 54.6875 
L 12.5 54.6875 
L 29.59375 11.921875 
L 46.6875 54.6875 
L 56.203125 54.6875 
z
" id="DejaVuSans-79"/>
     <path id="DejaVuSans-20"/>
     <path d="M 19.671875 34.8125 
L 19.671875 8.109375 
L 35.5 8.109375 
Q 43.453125 8.109375 47.28125 11.40625 
Q 51.125 14.703125 51.125 21.484375 
Q 51.125 28.328125 47.28125 31.5625 
Q 43.453125 34.8125 35.5 34.8125 
z
M 19.671875 64.796875 
L 19.671875 42.828125 
L 34.28125 42.828125 
Q 41.5 42.828125 45.03125 45.53125 
Q 48.578125 48.25 48.578125 53.8125 
Q 48.578125 59.328125 45.03125 62.0625 
Q 41.5 64.796875 34.28125 64.796875 
z
M 9.8125 72.90625 
L 35.015625 72.90625 
Q 46.296875 72.90625 52.390625 68.21875 
Q 58.5 63.53125 58.5 54.890625 
Q 58.5 48.1875 55.375 44.234375 
Q 52.25 40.28125 46.1875 39.3125 
Q 53.46875 37.75 57.5 32.78125 
Q 61.53125 27.828125 61.53125 20.40625 
Q 61.53125 10.640625 54.890625 5.3125 
Q 48.25 0 35.984375 0 
L 9.8125 0 
z
" id="DejaVuSans-42"/>
     <path d="M 30.609375 48.390625 
Q 23.390625 48.390625 19.1875 42.75 
Q 14.984375 37.109375 14.984375 27.296875 
Q 14.984375 17.484375 19.15625 11.84375 
Q 23.34375 6.203125 30.609375 6.203125 
Q 37.796875 6.203125 41.984375 11.859375 
Q 46.1875 17.53125 46.1875 27.296875 
Q 46.1875 37.015625 41.984375 42.703125 
Q 37.796875 48.390625 30.609375 48.390625 
z
M 30.609375 56 
Q 42.328125 56 49.015625 48.375 
Q 55.71875 40.765625 55.71875 27.296875 
Q 55.71875 13.875 49.015625 6.21875 
Q 42.328125 -1.421875 30.609375 -1.421875 
Q 18.84375 -1.421875 12.171875 6.21875 
Q 5.515625 13.875 5.515625 27.296875 
Q 5.515625 40.765625 12.171875 48.375 
Q 18.84375 56 30.609375 56 
z
" id="DejaVuSans-6f"/>
     <path d="M 54.890625 33.015625 
L 54.890625 0 
L 45.90625 0 
L 45.90625 32.71875 
Q 45.90625 40.484375 42.875 44.328125 
Q 39.84375 48.1875 33.796875 48.1875 
Q 26.515625 48.1875 22.3125 43.546875 
Q 18.109375 38.921875 18.109375 30.90625 
L 18.109375 0 
L 9.078125 0 
L 9.078125 54.6875 
L 18.109375 54.6875 
L 18.109375 46.1875 
Q 21.34375 51.125 25.703125 53.5625 
Q 30.078125 56 35.796875 56 
Q 45.21875 56 50.046875 50.171875 
Q 54.890625 44.34375 54.890625 33.015625 
z
" id="DejaVuSans-6e"/>
     <path d="M 41.109375 46.296875 
Q 39.59375 47.171875 37.8125 47.578125 
Q 36.03125 48 33.890625 48 
Q 26.265625 48 22.1875 43.046875 
Q 18.109375 38.09375 18.109375 28.8125 
L 18.109375 0 
L 9.078125 0 
L 9.078125 54.6875 
L 18.109375 54.6875 
L 18.109375 46.1875 
Q 20.953125 51.171875 25.484375 53.578125 
Q 30.03125 56 36.53125 56 
Q 37.453125 56 38.578125 55.875 
Q 39.703125 55.765625 41.0625 55.515625 
z
" id="DejaVuSans-72"/>
     <path d="M 9.421875 54.6875 
L 18.40625 54.6875 
L 18.40625 0 
L 9.421875 0 
z
M 9.421875 75.984375 
L 18.40625 75.984375 
L 18.40625 64.59375 
L 9.421875 64.59375 
z
" id="DejaVuSans-69"/>
     <path d="M 45.40625 27.984375 
Q 45.40625 37.75 41.375 43.109375 
Q 37.359375 48.484375 30.078125 48.484375 
Q 22.859375 48.484375 18.828125 43.109375 
Q 14.796875 37.75 14.796875 27.984375 
Q 14.796875 18.265625 18.828125 12.890625 
Q 22.859375 7.515625 30.078125 7.515625 
Q 37.359375 7.515625 41.375 12.890625 
Q 45.40625 18.265625 45.40625 27.984375 
z
M 54.390625 6.78125 
Q 54.390625 -7.171875 48.1875 -13.984375 
Q 42 -20.796875 29.203125 -20.796875 
Q 24.46875 -20.796875 20.265625 -20.09375 
Q 16.0625 -19.390625 12.109375 -17.921875 
L 12.109375 -9.1875 
Q 16.0625 -11.328125 19.921875 -12.34375 
Q 23.78125 -13.375 27.78125 -13.375 
Q 36.625 -13.375 41.015625 -8.765625 
Q 45.40625 -4.15625 45.40625 5.171875 
L 45.40625 9.625 
Q 42.625 4.78125 38.28125 2.390625 
Q 33.9375 0 27.875 0 
Q 17.828125 0 11.671875 7.65625 
Q 5.515625 15.328125 5.515625 27.984375 
Q 5.515625 40.671875 11.671875 48.328125 
Q 17.828125 56 27.875 56 
Q 33.9375 56 38.28125 53.609375 
Q 42.625 51.21875 45.40625 46.390625 
L 45.40625 54.6875 
L 54.390625 54.6875 
z
" id="DejaVuSans-67"/>
     <path d="M 44.28125 53.078125 
L 44.28125 44.578125 
Q 40.484375 46.53125 36.375 47.5 
Q 32.28125 48.484375 27.875 48.484375 
Q 21.1875 48.484375 17.84375 46.4375 
Q 14.5 44.390625 14.5 40.28125 
Q 14.5 37.15625 16.890625 35.375 
Q 19.28125 33.59375 26.515625 31.984375 
L 29.59375 31.296875 
Q 39.15625 29.25 43.1875 25.515625 
Q 47.21875 21.78125 47.21875 15.09375 
Q 47.21875 7.46875 41.1875 3.015625 
Q 35.15625 -1.421875 24.609375 -1.421875 
Q 20.21875 -1.421875 15.453125 -0.5625 
Q 10.6875 0.296875 5.421875 2 
L 5.421875 11.28125 
Q 10.40625 8.6875 15.234375 7.390625 
Q 20.0625 6.109375 24.8125 6.109375 
Q 31.15625 6.109375 34.5625 8.28125 
Q 37.984375 10.453125 37.984375 14.40625 
Q 37.984375 18.0625 35.515625 20.015625 
Q 33.0625 21.96875 24.703125 23.78125 
L 21.578125 24.515625 
Q 13.234375 26.265625 9.515625 29.90625 
Q 5.8125 33.546875 5.8125 39.890625 
Q 5.8125 47.609375 11.28125 51.796875 
Q 16.75 56 26.8125 56 
Q 31.78125 56 36.171875 55.265625 
Q 40.578125 54.546875 44.28125 53.078125 
z
" id="DejaVuSans-73"/>
    </defs>
    <g transform="translate(172.363125 35.472)scale(0.12 -0.12)">
     <use xlink:href="#DejaVuSans-4d"/>
     <use x="86.279297" xlink:href="#DejaVuSans-79"/>
     <use x="145.458984" xlink:href="#DejaVuSans-20"/>
     <use x="177.246094" xlink:href="#DejaVuSans-42"/>
     <use x="245.849609" xlink:href="#DejaVuSans-6f"/>
     <use x="307.03125" xlink:href="#DejaVuSans-6e"/>
     <use x="370.410156" xlink:href="#DejaVuSans-64"/>
     <use x="433.886719" xlink:href="#DejaVuSans-6f"/>
     <use x="495.068359" xlink:href="#DejaVuSans-72"/>
     <use x="536.181641" xlink:href="#DejaVuSans-61"/>
     <use x="597.460938" xlink:href="#DejaVuSans-20"/>
     <use x="629.248047" xlink:href="#DejaVuSans-65"/>
     <use x="690.771484" xlink:href="#DejaVuSans-61"/>
     <use x="752.050781" xlink:href="#DejaVuSans-72"/>
     <use x="793.148438" xlink:href="#DejaVuSans-6e"/>
     <use x="856.527344" xlink:href="#DejaVuSans-69"/>
     <use x="884.310547" xlink:href="#DejaVuSans-6e"/>
     <use x="947.689453" xlink:href="#DejaVuSans-67"/>
     <use x="1011.166016" xlink:href="#DejaVuSans-73"/>
    </g>
   </g>
   <g id="legend_1">
    <g id="patch_7">
     <path d="M 313.87 197.171312 
L 407.72 197.171312 
Q 409.72 197.171312 409.72 195.171312 
L 409.72 122.780687 
Q 409.72 120.780687 407.72 120.780687 
L 313.87 120.780687 
Q 311.87 120.780687 311.87 122.780687 
L 311.87 195.171312 
Q 311.87 197.171312 313.87 197.171312 
z
" style="fill:#ffffff;opacity:0.8;stroke:#cccccc;stroke-linejoin:miter;"/>
    </g>
    <g id="line2d_32">
     <path d="M 315.87 128.879125 
L 335.87 128.879125 
" style="fill:none;stroke:#0000ff;stroke-linecap:square;stroke-width:1.5;"/>
    </g>
    <g id="line2d_33"/>
    <g id="text_17">
     <!-- Interest -->
     <defs>
      <path d="M 9.8125 72.90625 
L 19.671875 72.90625 
L 19.671875 0 
L 9.8125 0 
z
" id="DejaVuSans-49"/>
     </defs>
     <g transform="translate(343.87 132.379125)scale(0.1 -0.1)">
      <use xlink:href="#DejaVuSans-49"/>
      <use x="29.492188" xlink:href="#DejaVuSans-6e"/>
      <use x="92.871094" xlink:href="#DejaVuSans-74"/>
      <use x="132.080078" xlink:href="#DejaVuSans-65"/>
      <use x="193.603516" xlink:href="#DejaVuSans-72"/>
      <use x="234.685547" xlink:href="#DejaVuSans-65"/>
      <use x="296.208984" xlink:href="#DejaVuSans-73"/>
      <use x="348.308594" xlink:href="#DejaVuSans-74"/>
     </g>
    </g>
    <g id="line2d_34">
     <path d="M 315.87 143.55725 
L 335.87 143.55725 
" style="fill:none;stroke:#ff0000;stroke-linecap:square;stroke-width:1.5;"/>
    </g>
    <g id="line2d_35"/>
    <g id="text_18">
     <!-- Balance -->
     <defs>
      <path d="M 9.421875 75.984375 
L 18.40625 75.984375 
L 18.40625 0 
L 9.421875 0 
z
" id="DejaVuSans-6c"/>
      <path d="M 48.78125 52.59375 
L 48.78125 44.1875 
Q 44.96875 46.296875 41.140625 47.34375 
Q 37.3125 48.390625 33.40625 48.390625 
Q 24.65625 48.390625 19.8125 42.84375 
Q 14.984375 37.3125 14.984375 27.296875 
Q 14.984375 17.28125 19.8125 11.734375 
Q 24.65625 6.203125 33.40625 6.203125 
Q 37.3125 6.203125 41.140625 7.25 
Q 44.96875 8.296875 48.78125 10.40625 
L 48.78125 2.09375 
Q 45.015625 0.34375 40.984375 -0.53125 
Q 36.96875 -1.421875 32.421875 -1.421875 
Q 20.0625 -1.421875 12.78125 6.34375 
Q 5.515625 14.109375 5.515625 27.296875 
Q 5.515625 40.671875 12.859375 48.328125 
Q 20.21875 56 33.015625 56 
Q 37.15625 56 41.109375 55.140625 
Q 45.0625 54.296875 48.78125 52.59375 
z
" id="DejaVuSans-63"/>
     </defs>
     <g transform="translate(343.87 147.05725)scale(0.1 -0.1)">
      <use xlink:href="#DejaVuSans-42"/>
      <use x="68.603516" xlink:href="#DejaVuSans-61"/>
      <use x="129.882812" xlink:href="#DejaVuSans-6c"/>
      <use x="157.666016" xlink:href="#DejaVuSans-61"/>
      <use x="218.945312" xlink:href="#DejaVuSans-6e"/>
      <use x="282.324219" xlink:href="#DejaVuSans-63"/>
      <use x="337.304688" xlink:href="#DejaVuSans-65"/>
     </g>
    </g>
    <g id="line2d_36">
     <path d="M 315.87 158.235375 
L 335.87 158.235375 
" style="fill:none;stroke:#008000;stroke-linecap:square;stroke-width:1.5;"/>
    </g>
    <g id="line2d_37"/>
    <g id="text_19">
     <!-- Investments -->
     <defs>
      <path d="M 2.984375 54.6875 
L 12.5 54.6875 
L 29.59375 8.796875 
L 46.6875 54.6875 
L 56.203125 54.6875 
L 35.6875 0 
L 23.484375 0 
z
" id="DejaVuSans-76"/>
      <path d="M 52 44.1875 
Q 55.375 50.25 60.0625 53.125 
Q 64.75 56 71.09375 56 
Q 79.640625 56 84.28125 50.015625 
Q 88.921875 44.046875 88.921875 33.015625 
L 88.921875 0 
L 79.890625 0 
L 79.890625 32.71875 
Q 79.890625 40.578125 77.09375 44.375 
Q 74.3125 48.1875 68.609375 48.1875 
Q 61.625 48.1875 57.5625 43.546875 
Q 53.515625 38.921875 53.515625 30.90625 
L 53.515625 0 
L 44.484375 0 
L 44.484375 32.71875 
Q 44.484375 40.625 41.703125 44.40625 
Q 38.921875 48.1875 33.109375 48.1875 
Q 26.21875 48.1875 22.15625 43.53125 
Q 18.109375 38.875 18.109375 30.90625 
L 18.109375 0 
L 9.078125 0 
L 9.078125 54.6875 
L 18.109375 54.6875 
L 18.109375 46.1875 
Q 21.1875 51.21875 25.484375 53.609375 
Q 29.78125 56 35.6875 56 
Q 41.65625 56 45.828125 52.96875 
Q 50 49.953125 52 44.1875 
z
" id="DejaVuSans-6d"/>
     </defs>
     <g transform="translate(343.87 161.735375)scale(0.1 -0.1)">
      <use xlink:href="#DejaVuSans-49"/>
      <use x="29.492188" xlink:href="#DejaVuSans-6e"/>
      <use x="92.871094" xlink:href="#DejaVuSans-76"/>
      <use x="152.050781" xlink:href="#DejaVuSans-65"/>
      <use x="213.574219" xlink:href="#DejaVuSans-73"/>
      <use x="265.673828" xlink:href="#DejaVuSans-74"/>
      <use x="304.882812" xlink:href="#DejaVuSans-6d"/>
      <use x="402.294922" xlink:href="#DejaVuSans-65"/>
      <use x="463.818359" xlink:href="#DejaVuSans-6e"/>
      <use x="527.197266" xlink:href="#DejaVuSans-74"/>
      <use x="566.40625" xlink:href="#DejaVuSans-73"/>
     </g>
    </g>
    <g id="line2d_38"/>
    <g id="line2d_39">
     <g>
      <use style="fill:#bfbf00;stroke:#bfbf00;" x="325.87" xlink:href="#m2a8b651827" y="172.9135"/>
     </g>
    </g>
    <g id="text_20">
     <!-- Deposits -->
     <defs>
      <path d="M 19.671875 64.796875 
L 19.671875 8.109375 
L 31.59375 8.109375 
Q 46.6875 8.109375 53.6875 14.9375 
Q 60.6875 21.78125 60.6875 36.53125 
Q 60.6875 51.171875 53.6875 57.984375 
Q 46.6875 64.796875 31.59375 64.796875 
z
M 9.8125 72.90625 
L 30.078125 72.90625 
Q 51.265625 72.90625 61.171875 64.09375 
Q 71.09375 55.28125 71.09375 36.53125 
Q 71.09375 17.671875 61.125 8.828125 
Q 51.171875 0 30.078125 0 
L 9.8125 0 
z
" id="DejaVuSans-44"/>
      <path d="M 18.109375 8.203125 
L 18.109375 -20.796875 
L 9.078125 -20.796875 
L 9.078125 54.6875 
L 18.109375 54.6875 
L 18.109375 46.390625 
Q 20.953125 51.265625 25.265625 53.625 
Q 29.59375 56 35.59375 56 
Q 45.5625 56 51.78125 48.09375 
Q 58.015625 40.1875 58.015625 27.296875 
Q 58.015625 14.40625 51.78125 6.484375 
Q 45.5625 -1.421875 35.59375 -1.421875 
Q 29.59375 -1.421875 25.265625 0.953125 
Q 20.953125 3.328125 18.109375 8.203125 
z
M 48.6875 27.296875 
Q 48.6875 37.203125 44.609375 42.84375 
Q 40.53125 48.484375 33.40625 48.484375 
Q 26.265625 48.484375 22.1875 42.84375 
Q 18.109375 37.203125 18.109375 27.296875 
Q 18.109375 17.390625 22.1875 11.75 
Q 26.265625 6.109375 33.40625 6.109375 
Q 40.53125 6.109375 44.609375 11.75 
Q 48.6875 17.390625 48.6875 27.296875 
z
" id="DejaVuSans-70"/>
     </defs>
     <g transform="translate(343.87 176.4135)scale(0.1 -0.1)">
      <use xlink:href="#DejaVuSans-44"/>
      <use x="77.001953" xlink:href="#DejaVuSans-65"/>
      <use x="138.525391" xlink:href="#DejaVuSans-70"/>
      <use x="202.001953" xlink:href="#DejaVuSans-6f"/>
      <use x="263.183594" xlink:href="#DejaVuSans-73"/>
      <use x="315.283203" xlink:href="#DejaVuSans-69"/>
      <use x="343.066406" xlink:href="#DejaVuSans-74"/>
      <use x="382.275391" xlink:href="#DejaVuSans-73"/>
     </g>
    </g>
    <g id="line2d_40"/>
    <g id="line2d_41">
     <g>
      <use style="fill:#008000;stroke:#008000;" x="325.87" xlink:href="#m2295ddc199" y="187.591625"/>
     </g>
    </g>
    <g id="text_21">
     <!-- Commission -->
     <defs>
      <path d="M 64.40625 67.28125 
L 64.40625 56.890625 
Q 59.421875 61.53125 53.78125 63.8125 
Q 48.140625 66.109375 41.796875 66.109375 
Q 29.296875 66.109375 22.65625 58.46875 
Q 16.015625 50.828125 16.015625 36.375 
Q 16.015625 21.96875 22.65625 14.328125 
Q 29.296875 6.6875 41.796875 6.6875 
Q 48.140625 6.6875 53.78125 8.984375 
Q 59.421875 11.28125 64.40625 15.921875 
L 64.40625 5.609375 
Q 59.234375 2.09375 53.4375 0.328125 
Q 47.65625 -1.421875 41.21875 -1.421875 
Q 24.65625 -1.421875 15.125 8.703125 
Q 5.609375 18.84375 5.609375 36.375 
Q 5.609375 53.953125 15.125 64.078125 
Q 24.65625 74.21875 41.21875 74.21875 
Q 47.75 74.21875 53.53125 72.484375 
Q 59.328125 70.75 64.40625 67.28125 
z
" id="DejaVuSans-43"/>
     </defs>
     <g transform="translate(343.87 191.091625)scale(0.1 -0.1)">
      <use xlink:href="#DejaVuSans-43"/>
      <use x="69.824219" xlink:href="#DejaVuSans-6f"/>
      <use x="131.005859" xlink:href="#DejaVuSans-6d"/>
      <use x="228.417969" xlink:href="#DejaVuSans-6d"/>
      <use x="325.830078" xlink:href="#DejaVuSans-69"/>
      <use x="353.613281" xlink:href="#DejaVuSans-73"/>
      <use x="405.712891" xlink:href="#DejaVuSans-73"/>
      <use x="457.8125" xlink:href="#DejaVuSans-69"/>
      <use x="485.595703" xlink:href="#DejaVuSans-6f"/>
      <use x="546.777344" xlink:href="#DejaVuSans-6e"/>
     </g>
    </g>
   </g>
  </g>
 </g>
 <defs>
  <clipPath id="pccf7c5c253">
   <rect height="235.008" width="357.12" x="57.6" y="41.472"/>
  </clipPath>
 </defs>
</svg>
