<?xml version="1.0" encoding="utf-8" standalone="no"?>
<!DOCTYPE svg PUBLIC "-//W3C//DTD SVG 1.1//EN"
  "http://www.w3.org/Graphics/SVG/1.1/DTD/svg11.dtd">
<!-- Created with matplotlib (http://matplotlib.org/) -->
<svg height="345.6pt" version="1.1" viewBox="0 0 460.8 345.6" width="460.8pt" xmlns="http://www.w3.org/2000/svg" xmlns:xlink="http://www.w3.org/1999/xlink">
 <defs>
  <style type="text/css">
*{stroke-linecap:butt;stroke-linejoin:round;}
  </style>
 </defs>
 <g id="figure_1">
  <g id="patch_1">
   <path d="M 0 345.6 
L 460.8 345.6 
L 460.8 0 
L 0 0 
z
" style="fill:#ffffff;"/>
  </g>
  <g id="axes_1">
   <g id="patch_2">
    <path d="M 57.6 276.48 
L 414.72 276.48 
L 414.72 41.472 
L 57.6 41.472 
z
" style="fill:#ffffff;"/>
   </g>
   <g id="matplotlib.axis_1">
    <g id="xtick_1">
     <g id="line2d_1">
      <path clip-path="url(#p6dc572ec14)" d="M 90.794538 276.48 
L 90.794538 41.472 
" style="fill:none;stroke:#b0b0b0;stroke-linecap:square;stroke-width:0.8;"/>
     </g>
     <g id="line2d_2">
      <defs>
       <path d="M 0 0 
L 0 3.5 
" id="m1a61792fec" style="stroke:#000000;stroke-width:0.8;"/>
      </defs>
      <g>
       <use style="stroke:#000000;stroke-width:0.8;" x="90.794538" xlink:href="#m1a61792fec" y="276.48"/>
      </g>
     </g>
     <g id="text_1">
      <!-- 2019-01-07 -->
      <defs>
       <path d="M 19.1875 8.296875 
L 53.609375 8.296875 
L 53.609375 0 
L 7.328125 0 
L 7.328125 8.296875 
Q 12.9375 14.109375 22.625 23.890625 
Q 32.328125 33.6875 34.8125 36.53125 
Q 39.546875 41.84375 41.421875 45.53125 
Q 43.3125 49.21875 43.3125 52.78125 
Q 43.3125 58.59375 39.234375 62.25 
Q 35.15625 65.921875 28.609375 65.921875 
Q 23.96875 65.921875 18.8125 64.3125 
Q 13.671875 62.703125 7.8125 59.421875 
L 7.8125 69.390625 
Q 13.765625 71.78125 18.9375 73 
Q 24.125 74.21875 28.421875 74.21875 
Q 39.75 74.21875 46.484375 68.546875 
Q 53.21875 62.890625 53.21875 53.421875 
Q 53.21875 48.921875 51.53125 44.890625 
Q 49.859375 40.875 45.40625 35.40625 
Q 44.1875 33.984375 37.640625 27.21875 
Q 31.109375 20.453125 19.1875 8.296875 
z
" id="DejaVuSans-32"/>
       <path d="M 31.78125 66.40625 
Q 24.171875 66.40625 20.328125 58.90625 
Q 16.5 51.421875 16.5 36.375 
Q 16.5 21.390625 20.328125 13.890625 
Q 24.171875 6.390625 31.78125 6.390625 
Q 39.453125 6.390625 43.28125 13.890625 
Q 47.125 21.390625 47.125 36.375 
Q 47.125 51.421875 43.28125 58.90625 
Q 39.453125 66.40625 31.78125 66.40625 
z
M 31.78125 74.21875 
Q 44.046875 74.21875 50.515625 64.515625 
Q 56.984375 54.828125 56.984375 36.375 
Q 56.984375 17.96875 50.515625 8.265625 
Q 44.046875 -1.421875 31.78125 -1.421875 
Q 19.53125 -1.421875 13.0625 8.265625 
Q 6.59375 17.96875 6.59375 36.375 
Q 6.59375 54.828125 13.0625 64.515625 
Q 19.53125 74.21875 31.78125 74.21875 
z
" id="DejaVuSans-30"/>
       <path d="M 12.40625 8.296875 
L 28.515625 8.296875 
L 28.515625 63.921875 
L 10.984375 60.40625 
L 10.984375 69.390625 
L 28.421875 72.90625 
L 38.28125 72.90625 
L 38.28125 8.296875 
L 54.390625 8.296875 
L 54.390625 0 
L 12.40625 0 
z
" id="DejaVuSans-31"/>
       <path d="M 10.984375 1.515625 
L 10.984375 10.5 
Q 14.703125 8.734375 18.5 7.8125 
Q 22.3125 6.890625 25.984375 6.890625 
Q 35.75 6.890625 40.890625 13.453125 
Q 46.046875 20.015625 46.78125 33.40625 
Q 43.953125 29.203125 39.59375 26.953125 
Q 35.25 24.703125 29.984375 24.703125 
Q 19.046875 24.703125 12.671875 31.3125 
Q 6.296875 37.9375 6.296875 49.421875 
Q 6.296875 60.640625 12.9375 67.421875 
Q 19.578125 74.21875 30.609375 74.21875 
Q 43.265625 74.21875 49.921875 64.515625 
Q 56.59375 54.828125 56.59375 36.375 
Q 56.59375 19.140625 48.40625 8.859375 
Q 40.234375 -1.421875 26.421875 -1.421875 
Q 22.703125 -1.421875 18.890625 -0.6875 
Q 15.09375 0.046875 10.984375 1.515625 
z
M 30.609375 32.421875 
Q 37.25 32.421875 41.125 36.953125 
Q 45.015625 41.5 45.015625 49.421875 
Q 45.015625 57.28125 41.125 61.84375 
Q 37.25 66.40625 30.609375 66.40625 
Q 23.96875 66.40625 20.09375 61.84375 
Q 16.21875 57.28125 16.21875 49.421875 
Q 16.21875 41.5 20.09375 36.953125 
Q 23.96875 32.421875 30.609375 32.421875 
z
" id="DejaVuSans-39"/>
       <path d="M 4.890625 31.390625 
L 31.203125 31.390625 
L 31.203125 23.390625 
L 4.890625 23.390625 
z
" id="DejaVuSans-2d"/>
       <path d="M 8.203125 72.90625 
L 55.078125 72.90625 
L 55.078125 68.703125 
L 28.609375 0 
L 18.3125 0 
L 43.21875 64.59375 
L 8.203125 64.59375 
z
" id="DejaVuSans-37"/>
      </defs>
      <g transform="translate(39.425086 319.118252)rotate(-30)scale(0.1 -0.1)">
       <use xlink:href="#DejaVuSans-32"/>
       <use x="63.623047" xlink:href="#DejaVuSans-30"/>
       <use x="127.246094" xlink:href="#DejaVuSans-31"/>
       <use x="190.869141" xlink:href="#DejaVuSans-39"/>
       <use x="254.492188" xlink:href="#DejaVuSans-2d"/>
       <use x="290.576172" xlink:href="#DejaVuSans-30"/>
       <use x="354.199219" xlink:href="#DejaVuSans-31"/>
       <use x="417.822266" xlink:href="#DejaVuSans-2d"/>
       <use x="453.90625" xlink:href="#DejaVuSans-30"/>
       <use x="517.529297" xlink:href="#DejaVuSans-37"/>
      </g>
     </g>
    </g>
    <g id="xtick_2">
     <g id="line2d_3">
      <path clip-path="url(#p6dc572ec14)" d="M 130.372095 276.48 
L 130.372095 41.472 
" style="fill:none;stroke:#b0b0b0;stroke-linecap:square;stroke-width:0.8;"/>
     </g>
     <g id="line2d_4">
      <g>
       <use style="stroke:#000000;stroke-width:0.8;" x="130.372095" xlink:href="#m1a61792fec" y="276.48"/>
      </g>
     </g>
     <g id="text_2">
      <!-- 2019-01-21 -->
      <g transform="translate(79.002643 319.118252)rotate(-30)scale(0.1 -0.1)">
       <use xlink:href="#DejaVuSans-32"/>
       <use x="63.623047" xlink:href="#DejaVuSans-30"/>
       <use x="127.246094" xlink:href="#DejaVuSans-31"/>
       <use x="190.869141" xlink:href="#DejaVuSans-39"/>
       <use x="254.492188" xlink:href="#DejaVuSans-2d"/>
       <use x="290.576172" xlink:href="#DejaVuSans-30"/>
       <use x="354.199219" xlink:href="#DejaVuSans-31"/>
       <use x="417.822266" xlink:href="#DejaVuSans-2d"/>
       <use x="453.90625" xlink:href="#DejaVuSans-32"/>
       <use x="517.529297" xlink:href="#DejaVuSans-31"/>
      </g>
     </g>
    </g>
    <g id="xtick_3">
     <g id="line2d_5">
      <path clip-path="url(#p6dc572ec14)" d="M 169.949652 276.48 
L 169.949652 41.472 
" style="fill:none;stroke:#b0b0b0;stroke-linecap:square;stroke-width:0.8;"/>
     </g>
     <g id="line2d_6">
      <g>
       <use style="stroke:#000000;stroke-width:0.8;" x="169.949652" xlink:href="#m1a61792fec" y="276.48"/>
      </g>
     </g>
     <g id="text_3">
      <!-- 2019-02-04 -->
      <defs>
       <path d="M 37.796875 64.3125 
L 12.890625 25.390625 
L 37.796875 25.390625 
z
M 35.203125 72.90625 
L 47.609375 72.90625 
L 47.609375 25.390625 
L 58.015625 25.390625 
L 58.015625 17.1875 
L 47.609375 17.1875 
L 47.609375 0 
L 37.796875 0 
L 37.796875 17.1875 
L 4.890625 17.1875 
L 4.890625 26.703125 
z
" id="DejaVuSans-34"/>
      </defs>
      <g transform="translate(118.580201 319.118252)rotate(-30)scale(0.1 -0.1)">
       <use xlink:href="#DejaVuSans-32"/>
       <use x="63.623047" xlink:href="#DejaVuSans-30"/>
       <use x="127.246094" xlink:href="#DejaVuSans-31"/>
       <use x="190.869141" xlink:href="#DejaVuSans-39"/>
       <use x="254.492188" xlink:href="#DejaVuSans-2d"/>
       <use x="290.576172" xlink:href="#DejaVuSans-30"/>
       <use x="354.199219" xlink:href="#DejaVuSans-32"/>
       <use x="417.822266" xlink:href="#DejaVuSans-2d"/>
       <use x="453.90625" xlink:href="#DejaVuSans-30"/>
       <use x="517.529297" xlink:href="#DejaVuSans-34"/>
      </g>
     </g>
    </g>
    <g id="xtick_4">
     <g id="line2d_7">
      <path clip-path="url(#p6dc572ec14)" d="M 209.527209 276.48 
L 209.527209 41.472 
" style="fill:none;stroke:#b0b0b0;stroke-linecap:square;stroke-width:0.8;"/>
     </g>
     <g id="line2d_8">
      <g>
       <use style="stroke:#000000;stroke-width:0.8;" x="209.527209" xlink:href="#m1a61792fec" y="276.48"/>
      </g>
     </g>
     <g id="text_4">
      <!-- 2019-02-18 -->
      <defs>
       <path d="M 31.78125 34.625 
Q 24.75 34.625 20.71875 30.859375 
Q 16.703125 27.09375 16.703125 20.515625 
Q 16.703125 13.921875 20.71875 10.15625 
Q 24.75 6.390625 31.78125 6.390625 
Q 38.8125 6.390625 42.859375 10.171875 
Q 46.921875 13.96875 46.921875 20.515625 
Q 46.921875 27.09375 42.890625 30.859375 
Q 38.875 34.625 31.78125 34.625 
z
M 21.921875 38.8125 
Q 15.578125 40.375 12.03125 44.71875 
Q 8.5 49.078125 8.5 55.328125 
Q 8.5 64.0625 14.71875 69.140625 
Q 20.953125 74.21875 31.78125 74.21875 
Q 42.671875 74.21875 48.875 69.140625 
Q 55.078125 64.0625 55.078125 55.328125 
Q 55.078125 49.078125 51.53125 44.71875 
Q 48 40.375 41.703125 38.8125 
Q 48.828125 37.15625 52.796875 32.3125 
Q 56.78125 27.484375 56.78125 20.515625 
Q 56.78125 9.90625 50.3125 4.234375 
Q 43.84375 -1.421875 31.78125 -1.421875 
Q 19.734375 -1.421875 13.25 4.234375 
Q 6.78125 9.90625 6.78125 20.515625 
Q 6.78125 27.484375 10.78125 32.3125 
Q 14.796875 37.15625 21.921875 38.8125 
z
M 18.3125 54.390625 
Q 18.3125 48.734375 21.84375 45.5625 
Q 25.390625 42.390625 31.78125 42.390625 
Q 38.140625 42.390625 41.71875 45.5625 
Q 45.3125 48.734375 45.3125 54.390625 
Q 45.3125 60.0625 41.71875 63.234375 
Q 38.140625 66.40625 31.78125 66.40625 
Q 25.390625 66.40625 21.84375 63.234375 
Q 18.3125 60.0625 18.3125 54.390625 
z
" id="DejaVuSans-38"/>
      </defs>
      <g transform="translate(158.157758 319.118252)rotate(-30)scale(0.1 -0.1)">
       <use xlink:href="#DejaVuSans-32"/>
       <use x="63.623047" xlink:href="#DejaVuSans-30"/>
       <use x="127.246094" xlink:href="#DejaVuSans-31"/>
       <use x="190.869141" xlink:href="#DejaVuSans-39"/>
       <use x="254.492188" xlink:href="#DejaVuSans-2d"/>
       <use x="290.576172" xlink:href="#DejaVuSans-30"/>
       <use x="354.199219" xlink:href="#DejaVuSans-32"/>
       <use x="417.822266" xlink:href="#DejaVuSans-2d"/>
       <use x="453.90625" xlink:href="#DejaVuSans-31"/>
       <use x="517.529297" xlink:href="#DejaVuSans-38"/>
      </g>
     </g>
    </g>
    <g id="xtick_5">
     <g id="line2d_9">
      <path clip-path="url(#p6dc572ec14)" d="M 249.104767 276.48 
L 249.104767 41.472 
" style="fill:none;stroke:#b0b0b0;stroke-linecap:square;stroke-width:0.8;"/>
     </g>
     <g id="line2d_10">
      <g>
       <use style="stroke:#000000;stroke-width:0.8;" x="249.104767" xlink:href="#m1a61792fec" y="276.48"/>
      </g>
     </g>
     <g id="text_5">
      <!-- 2019-03-04 -->
      <defs>
       <path d="M 40.578125 39.3125 
Q 47.65625 37.796875 51.625 33 
Q 55.609375 28.21875 55.609375 21.1875 
Q 55.609375 10.40625 48.1875 4.484375 
Q 40.765625 -1.421875 27.09375 -1.421875 
Q 22.515625 -1.421875 17.65625 -0.515625 
Q 12.796875 0.390625 7.625 2.203125 
L 7.625 11.71875 
Q 11.71875 9.328125 16.59375 8.109375 
Q 21.484375 6.890625 26.8125 6.890625 
Q 36.078125 6.890625 40.9375 10.546875 
Q 45.796875 14.203125 45.796875 21.1875 
Q 45.796875 27.640625 41.28125 31.265625 
Q 36.765625 34.90625 28.71875 34.90625 
L 20.21875 34.90625 
L 20.21875 43.015625 
L 29.109375 43.015625 
Q 36.375 43.015625 40.234375 45.921875 
Q 44.09375 48.828125 44.09375 54.296875 
Q 44.09375 59.90625 40.109375 62.90625 
Q 36.140625 65.921875 28.71875 65.921875 
Q 24.65625 65.921875 20.015625 65.03125 
Q 15.375 64.15625 9.8125 62.3125 
L 9.8125 71.09375 
Q 15.4375 72.65625 20.34375 73.4375 
Q 25.25 74.21875 29.59375 74.21875 
Q 40.828125 74.21875 47.359375 69.109375 
Q 53.90625 64.015625 53.90625 55.328125 
Q 53.90625 49.265625 50.4375 45.09375 
Q 46.96875 40.921875 40.578125 39.3125 
z
" id="DejaVuSans-33"/>
      </defs>
      <g transform="translate(197.735315 319.118252)rotate(-30)scale(0.1 -0.1)">
       <use xlink:href="#DejaVuSans-32"/>
       <use x="63.623047" xlink:href="#DejaVuSans-30"/>
       <use x="127.246094" xlink:href="#DejaVuSans-31"/>
       <use x="190.869141" xlink:href="#DejaVuSans-39"/>
       <use x="254.492188" xlink:href="#DejaVuSans-2d"/>
       <use x="290.576172" xlink:href="#DejaVuSans-30"/>
       <use x="354.199219" xlink:href="#DejaVuSans-33"/>
       <use x="417.822266" xlink:href="#DejaVuSans-2d"/>
       <use x="453.90625" xlink:href="#DejaVuSans-30"/>
       <use x="517.529297" xlink:href="#DejaVuSans-34"/>
      </g>
     </g>
    </g>
    <g id="xtick_6">
     <g id="line2d_11">
      <path clip-path="url(#p6dc572ec14)" d="M 288.682324 276.48 
L 288.682324 41.472 
" style="fill:none;stroke:#b0b0b0;stroke-linecap:square;stroke-width:0.8;"/>
     </g>
     <g id="line2d_12">
      <g>
       <use style="stroke:#000000;stroke-width:0.8;" x="288.682324" xlink:href="#m1a61792fec" y="276.48"/>
      </g>
     </g>
     <g id="text_6">
      <!-- 2019-03-18 -->
      <g transform="translate(237.312873 319.118252)rotate(-30)scale(0.1 -0.1)">
       <use xlink:href="#DejaVuSans-32"/>
       <use x="63.623047" xlink:href="#DejaVuSans-30"/>
       <use x="127.246094" xlink:href="#DejaVuSans-31"/>
       <use x="190.869141" xlink:href="#DejaVuSans-39"/>
       <use x="254.492188" xlink:href="#DejaVuSans-2d"/>
       <use x="290.576172" xlink:href="#DejaVuSans-30"/>
       <use x="354.199219" xlink:href="#DejaVuSans-33"/>
       <use x="417.822266" xlink:href="#DejaVuSans-2d"/>
       <use x="453.90625" xlink:href="#DejaVuSans-31"/>
       <use x="517.529297" xlink:href="#DejaVuSans-38"/>
      </g>
     </g>
    </g>
    <g id="xtick_7">
     <g id="line2d_13">
      <path clip-path="url(#p6dc572ec14)" d="M 328.259881 276.48 
L 328.259881 41.472 
" style="fill:none;stroke:#b0b0b0;stroke-linecap:square;stroke-width:0.8;"/>
     </g>
     <g id="line2d_14">
      <g>
       <use style="stroke:#000000;stroke-width:0.8;" x="328.259881" xlink:href="#m1a61792fec" y="276.48"/>
      </g>
     </g>
     <g id="text_7">
      <!-- 2019-04-01 -->
      <g transform="translate(276.89043 319.118252)rotate(-30)scale(0.1 -0.1)">
       <use xlink:href="#DejaVuSans-32"/>
       <use x="63.623047" xlink:href="#DejaVuSans-30"/>
       <use x="127.246094" xlink:href="#DejaVuSans-31"/>
       <use x="190.869141" xlink:href="#DejaVuSans-39"/>
       <use x="254.492188" xlink:href="#DejaVuSans-2d"/>
       <use x="290.576172" xlink:href="#DejaVuSans-30"/>
       <use x="354.199219" xlink:href="#DejaVuSans-34"/>
       <use x="417.822266" xlink:href="#DejaVuSans-2d"/>
       <use x="453.90625" xlink:href="#DejaVuSans-30"/>
       <use x="517.529297" xlink:href="#DejaVuSans-31"/>
      </g>
     </g>
    </g>
    <g id="xtick_8">
     <g id="line2d_15">
      <path clip-path="url(#p6dc572ec14)" d="M 367.837439 276.48 
L 367.837439 41.472 
" style="fill:none;stroke:#b0b0b0;stroke-linecap:square;stroke-width:0.8;"/>
     </g>
     <g id="line2d_16">
      <g>
       <use style="stroke:#000000;stroke-width:0.8;" x="367.837439" xlink:href="#m1a61792fec" y="276.48"/>
      </g>
     </g>
     <g id="text_8">
      <!-- 2019-04-15 -->
      <defs>
       <path d="M 10.796875 72.90625 
L 49.515625 72.90625 
L 49.515625 64.59375 
L 19.828125 64.59375 
L 19.828125 46.734375 
Q 21.96875 47.46875 24.109375 47.828125 
Q 26.265625 48.1875 28.421875 48.1875 
Q 40.625 48.1875 47.75 41.5 
Q 54.890625 34.8125 54.890625 23.390625 
Q 54.890625 11.625 47.5625 5.09375 
Q 40.234375 -1.421875 26.90625 -1.421875 
Q 22.3125 -1.421875 17.546875 -0.640625 
Q 12.796875 0.140625 7.71875 1.703125 
L 7.71875 11.625 
Q 12.109375 9.234375 16.796875 8.0625 
Q 21.484375 6.890625 26.703125 6.890625 
Q 35.15625 6.890625 40.078125 11.328125 
Q 45.015625 15.765625 45.015625 23.390625 
Q 45.015625 31 40.078125 35.4375 
Q 35.15625 39.890625 26.703125 39.890625 
Q 22.75 39.890625 18.8125 39.015625 
Q 14.890625 38.140625 10.796875 36.28125 
z
" id="DejaVuSans-35"/>
      </defs>
      <g transform="translate(316.467987 319.118252)rotate(-30)scale(0.1 -0.1)">
       <use xlink:href="#DejaVuSans-32"/>
       <use x="63.623047" xlink:href="#DejaVuSans-30"/>
       <use x="127.246094" xlink:href="#DejaVuSans-31"/>
       <use x="190.869141" xlink:href="#DejaVuSans-39"/>
       <use x="254.492188" xlink:href="#DejaVuSans-2d"/>
       <use x="290.576172" xlink:href="#DejaVuSans-30"/>
       <use x="354.199219" xlink:href="#DejaVuSans-34"/>
       <use x="417.822266" xlink:href="#DejaVuSans-2d"/>
       <use x="453.90625" xlink:href="#DejaVuSans-31"/>
       <use x="517.529297" xlink:href="#DejaVuSans-35"/>
      </g>
     </g>
    </g>
    <g id="xtick_9">
     <g id="line2d_17">
      <path clip-path="url(#p6dc572ec14)" d="M 407.414996 276.48 
L 407.414996 41.472 
" style="fill:none;stroke:#b0b0b0;stroke-linecap:square;stroke-width:0.8;"/>
     </g>
     <g id="line2d_18">
      <g>
       <use style="stroke:#000000;stroke-width:0.8;" x="407.414996" xlink:href="#m1a61792fec" y="276.48"/>
      </g>
     </g>
     <g id="text_9">
      <!-- 2019-04-29 -->
      <g transform="translate(356.045545 319.118252)rotate(-30)scale(0.1 -0.1)">
       <use xlink:href="#DejaVuSans-32"/>
       <use x="63.623047" xlink:href="#DejaVuSans-30"/>
       <use x="127.246094" xlink:href="#DejaVuSans-31"/>
       <use x="190.869141" xlink:href="#DejaVuSans-39"/>
       <use x="254.492188" xlink:href="#DejaVuSans-2d"/>
       <use x="290.576172" xlink:href="#DejaVuSans-30"/>
       <use x="354.199219" xlink:href="#DejaVuSans-34"/>
       <use x="417.822266" xlink:href="#DejaVuSans-2d"/>
       <use x="453.90625" xlink:href="#DejaVuSans-32"/>
       <use x="517.529297" xlink:href="#DejaVuSans-39"/>
      </g>
     </g>
    </g>
    <g id="text_10">
     <!-- date -->
     <defs>
      <path d="M 45.40625 46.390625 
L 45.40625 75.984375 
L 54.390625 75.984375 
L 54.390625 0 
L 45.40625 0 
L 45.40625 8.203125 
Q 42.578125 3.328125 38.25 0.953125 
Q 33.9375 -1.421875 27.875 -1.421875 
Q 17.96875 -1.421875 11.734375 6.484375 
Q 5.515625 14.40625 5.515625 27.296875 
Q 5.515625 40.1875 11.734375 48.09375 
Q 17.96875 56 27.875 56 
Q 33.9375 56 38.25 53.625 
Q 42.578125 51.265625 45.40625 46.390625 
z
M 14.796875 27.296875 
Q 14.796875 17.390625 18.875 11.75 
Q 22.953125 6.109375 30.078125 6.109375 
Q 37.203125 6.109375 41.296875 11.75 
Q 45.40625 17.390625 45.40625 27.296875 
Q 45.40625 37.203125 41.296875 42.84375 
Q 37.203125 48.484375 30.078125 48.484375 
Q 22.953125 48.484375 18.875 42.84375 
Q 14.796875 37.203125 14.796875 27.296875 
z
" id="DejaVuSans-64"/>
      <path d="M 34.28125 27.484375 
Q 23.390625 27.484375 19.1875 25 
Q 14.984375 22.515625 14.984375 16.5 
Q 14.984375 11.71875 18.140625 8.90625 
Q 21.296875 6.109375 26.703125 6.109375 
Q 34.1875 6.109375 38.703125 11.40625 
Q 43.21875 16.703125 43.21875 25.484375 
L 43.21875 27.484375 
z
M 52.203125 31.203125 
L 52.203125 0 
L 43.21875 0 
L 43.21875 8.296875 
Q 40.140625 3.328125 35.546875 0.953125 
Q 30.953125 -1.421875 24.3125 -1.421875 
Q 15.921875 -1.421875 10.953125 3.296875 
Q 6 8.015625 6 15.921875 
Q 6 25.140625 12.171875 29.828125 
Q 18.359375 34.515625 30.609375 34.515625 
L 43.21875 34.515625 
L 43.21875 35.40625 
Q 43.21875 41.609375 39.140625 45 
Q 35.0625 48.390625 27.6875 48.390625 
Q 23 48.390625 18.546875 47.265625 
Q 14.109375 46.140625 10.015625 43.890625 
L 10.015625 52.203125 
Q 14.9375 54.109375 19.578125 55.046875 
Q 24.21875 56 28.609375 56 
Q 40.484375 56 46.34375 49.84375 
Q 52.203125 43.703125 52.203125 31.203125 
z
" id="DejaVuSans-61"/>
      <path d="M 18.3125 70.21875 
L 18.3125 54.6875 
L 36.8125 54.6875 
L 36.8125 47.703125 
L 18.3125 47.703125 
L 18.3125 18.015625 
Q 18.3125 11.328125 20.140625 9.421875 
Q 21.96875 7.515625 27.59375 7.515625 
L 36.8125 7.515625 
L 36.8125 0 
L 27.59375 0 
Q 17.1875 0 13.234375 3.875 
Q 9.28125 7.765625 9.28125 18.015625 
L 9.28125 47.703125 
L 2.6875 47.703125 
L 2.6875 54.6875 
L 9.28125 54.6875 
L 9.28125 70.21875 
z
" id="DejaVuSans-74"/>
      <path d="M 56.203125 29.59375 
L 56.203125 25.203125 
L 14.890625 25.203125 
Q 15.484375 15.921875 20.484375 11.0625 
Q 25.484375 6.203125 34.421875 6.203125 
Q 39.59375 6.203125 44.453125 7.46875 
Q 49.3125 8.734375 54.109375 11.28125 
L 54.109375 2.78125 
Q 49.265625 0.734375 44.1875 -0.34375 
Q 39.109375 -1.421875 33.890625 -1.421875 
Q 20.796875 -1.421875 13.15625 6.1875 
Q 5.515625 13.8125 5.515625 26.8125 
Q 5.515625 40.234375 12.765625 48.109375 
Q 20.015625 56 32.328125 56 
Q 43.359375 56 49.78125 48.890625 
Q 56.203125 41.796875 56.203125 29.59375 
z
M 47.21875 32.234375 
Q 47.125 39.59375 43.09375 43.984375 
Q 39.0625 48.390625 32.421875 48.390625 
Q 24.90625 48.390625 20.390625 44.140625 
Q 15.875 39.890625 15.1875 32.171875 
z
" id="DejaVuSans-65"/>
     </defs>
     <g transform="translate(224.885 332.517752)scale(0.1 -0.1)">
      <use xlink:href="#DejaVuSans-64"/>
      <use x="63.476562" xlink:href="#DejaVuSans-61"/>
      <use x="124.755859" xlink:href="#DejaVuSans-74"/>
      <use x="163.964844" xlink:href="#DejaVuSans-65"/>
     </g>
    </g>
   </g>
   <g id="matplotlib.axis_2">
    <g id="ytick_1">
     <g id="line2d_19">
      <path clip-path="url(#p6dc572ec14)" d="M 57.6 265.797818 
L 414.72 265.797818 
" style="fill:none;stroke:#b0b0b0;stroke-linecap:square;stroke-width:0.8;"/>
     </g>
     <g id="line2d_20">
      <defs>
       <path d="M 0 0 
L -3.5 0 
" id="m0365a1ef6f" style="stroke:#000000;stroke-width:0.8;"/>
      </defs>
      <g>
       <use style="stroke:#000000;stroke-width:0.8;" x="57.6" xlink:href="#m0365a1ef6f" y="265.797818"/>
      </g>
     </g>
     <g id="text_11">
      <!-- 0 -->
      <g transform="translate(44.2375 269.597037)scale(0.1 -0.1)">
       <use xlink:href="#DejaVuSans-30"/>
      </g>
     </g>
    </g>
    <g id="ytick_2">
     <g id="line2d_21">
      <path clip-path="url(#p6dc572ec14)" d="M 57.6 231.755077 
L 414.72 231.755077 
" style="fill:none;stroke:#b0b0b0;stroke-linecap:square;stroke-width:0.8;"/>
     </g>
     <g id="line2d_22">
      <g>
       <use style="stroke:#000000;stroke-width:0.8;" x="57.6" xlink:href="#m0365a1ef6f" y="231.755077"/>
      </g>
     </g>
     <g id="text_12">
      <!-- 500 -->
      <g transform="translate(31.5125 235.554296)scale(0.1 -0.1)">
       <use xlink:href="#DejaVuSans-35"/>
       <use x="63.623047" xlink:href="#DejaVuSans-30"/>
       <use x="127.246094" xlink:href="#DejaVuSans-30"/>
      </g>
     </g>
    </g>
    <g id="ytick_3">
     <g id="line2d_23">
      <path clip-path="url(#p6dc572ec14)" d="M 57.6 197.712335 
L 414.72 197.712335 
" style="fill:none;stroke:#b0b0b0;stroke-linecap:square;stroke-width:0.8;"/>
     </g>
     <g id="line2d_24">
      <g>
       <use style="stroke:#000000;stroke-width:0.8;" x="57.6" xlink:href="#m0365a1ef6f" y="197.712335"/>
      </g>
     </g>
     <g id="text_13">
      <!-- 1000 -->
      <g transform="translate(25.15 201.511554)scale(0.1 -0.1)">
       <use xlink:href="#DejaVuSans-31"/>
       <use x="63.623047" xlink:href="#DejaVuSans-30"/>
       <use x="127.246094" xlink:href="#DejaVuSans-30"/>
       <use x="190.869141" xlink:href="#DejaVuSans-30"/>
      </g>
     </g>
    </g>
    <g id="ytick_4">
     <g id="line2d_25">
      <path clip-path="url(#p6dc572ec14)" d="M 57.6 163.669594 
L 414.72 163.669594 
" style="fill:none;stroke:#b0b0b0;stroke-linecap:square;stroke-width:0.8;"/>
     </g>
     <g id="line2d_26">
      <g>
       <use style="stroke:#000000;stroke-width:0.8;" x="57.6" xlink:href="#m0365a1ef6f" y="163.669594"/>
      </g>
     </g>
     <g id="text_14">
      <!-- 1500 -->
      <g transform="translate(25.15 167.468813)scale(0.1 -0.1)">
       <use xlink:href="#DejaVuSans-31"/>
       <use x="63.623047" xlink:href="#DejaVuSans-35"/>
       <use x="127.246094" xlink:href="#DejaVuSans-30"/>
       <use x="190.869141" xlink:href="#DejaVuSans-30"/>
      </g>
     </g>
    </g>
    <g id="ytick_5">
     <g id="line2d_27">
      <path clip-path="url(#p6dc572ec14)" d="M 57.6 129.626853 
L 414.72 129.626853 
" style="fill:none;stroke:#b0b0b0;stroke-linecap:square;stroke-width:0.8;"/>
     </g>
     <g id="line2d_28">
      <g>
       <use style="stroke:#000000;stroke-width:0.8;" x="57.6" xlink:href="#m0365a1ef6f" y="129.626853"/>
      </g>
     </g>
     <g id="text_15">
      <!-- 2000 -->
      <g transform="translate(25.15 133.426072)scale(0.1 -0.1)">
       <use xlink:href="#DejaVuSans-32"/>
       <use x="63.623047" xlink:href="#DejaVuSans-30"/>
       <use x="127.246094" xlink:href="#DejaVuSans-30"/>
       <use x="190.869141" xlink:href="#DejaVuSans-30"/>
      </g>
     </g>
    </g>
    <g id="ytick_6">
     <g id="line2d_29">
      <path clip-path="url(#p6dc572ec14)" d="M 57.6 95.584111 
L 414.72 95.584111 
" style="fill:none;stroke:#b0b0b0;stroke-linecap:square;stroke-width:0.8;"/>
     </g>
     <g id="line2d_30">
      <g>
       <use style="stroke:#000000;stroke-width:0.8;" x="57.6" xlink:href="#m0365a1ef6f" y="95.584111"/>
      </g>
     </g>
     <g id="text_16">
      <!-- 2500 -->
      <g transform="translate(25.15 99.38333)scale(0.1 -0.1)">
       <use xlink:href="#DejaVuSans-32"/>
       <use x="63.623047" xlink:href="#DejaVuSans-35"/>
       <use x="127.246094" xlink:href="#DejaVuSans-30"/>
       <use x="190.869141" xlink:href="#DejaVuSans-30"/>
      </g>
     </g>
    </g>
    <g id="ytick_7">
     <g id="line2d_31">
      <path clip-path="url(#p6dc572ec14)" d="M 57.6 61.54137 
L 414.72 61.54137 
" style="fill:none;stroke:#b0b0b0;stroke-linecap:square;stroke-width:0.8;"/>
     </g>
     <g id="line2d_32">
      <g>
       <use style="stroke:#000000;stroke-width:0.8;" x="57.6" xlink:href="#m0365a1ef6f" y="61.54137"/>
      </g>
     </g>
     <g id="text_17">
      <!-- 3000 -->
      <g transform="translate(25.15 65.340589)scale(0.1 -0.1)">
       <use xlink:href="#DejaVuSans-33"/>
       <use x="63.623047" xlink:href="#DejaVuSans-30"/>
       <use x="127.246094" xlink:href="#DejaVuSans-30"/>
       <use x="190.869141" xlink:href="#DejaVuSans-30"/>
      </g>
     </g>
    </g>
    <g id="text_18">
     <!-- EUR -->
     <defs>
      <path d="M 9.8125 72.90625 
L 55.90625 72.90625 
L 55.90625 64.59375 
L 19.671875 64.59375 
L 19.671875 43.015625 
L 54.390625 43.015625 
L 54.390625 34.71875 
L 19.671875 34.71875 
L 19.671875 8.296875 
L 56.78125 8.296875 
L 56.78125 0 
L 9.8125 0 
z
" id="DejaVuSans-45"/>
      <path d="M 8.6875 72.90625 
L 18.609375 72.90625 
L 18.609375 28.609375 
Q 18.609375 16.890625 22.84375 11.734375 
Q 27.09375 6.59375 36.625 6.59375 
Q 46.09375 6.59375 50.34375 11.734375 
Q 54.59375 16.890625 54.59375 28.609375 
L 54.59375 72.90625 
L 64.5 72.90625 
L 64.5 27.390625 
Q 64.5 13.140625 57.4375 5.859375 
Q 50.390625 -1.421875 36.625 -1.421875 
Q 22.796875 -1.421875 15.734375 5.859375 
Q 8.6875 13.140625 8.6875 27.390625 
z
" id="DejaVuSans-55"/>
      <path d="M 44.390625 34.1875 
Q 47.5625 33.109375 50.5625 29.59375 
Q 53.5625 26.078125 56.59375 19.921875 
L 66.609375 0 
L 56 0 
L 46.6875 18.703125 
Q 43.0625 26.03125 39.671875 28.421875 
Q 36.28125 30.8125 30.421875 30.8125 
L 19.671875 30.8125 
L 19.671875 0 
L 9.8125 0 
L 9.8125 72.90625 
L 32.078125 72.90625 
Q 44.578125 72.90625 50.734375 67.671875 
Q 56.890625 62.453125 56.890625 51.90625 
Q 56.890625 45.015625 53.6875 40.46875 
Q 50.484375 35.9375 44.390625 34.1875 
z
M 19.671875 64.796875 
L 19.671875 38.921875 
L 32.078125 38.921875 
Q 39.203125 38.921875 42.84375 42.21875 
Q 46.484375 45.515625 46.484375 51.90625 
Q 46.484375 58.296875 42.84375 61.546875 
Q 39.203125 64.796875 32.078125 64.796875 
z
" id="DejaVuSans-52"/>
     </defs>
     <g transform="translate(19.070312 169.268969)rotate(-90)scale(0.1 -0.1)">
      <use xlink:href="#DejaVuSans-45"/>
      <use x="63.183594" xlink:href="#DejaVuSans-55"/>
      <use x="136.376953" xlink:href="#DejaVuSans-52"/>
     </g>
    </g>
   </g>
   <g id="line2d_33">
    <path clip-path="url(#p6dc572ec14)" d="M 73.832727 265.797818 
L 169.949652 265.68853 
L 169.949652 265.517961 
L 175.603589 265.36323 
L 175.603589 265.346285 
L 181.257526 265.200242 
L 181.257526 265.014844 
L 189.738431 264.86976 
L 189.738431 264.503084 
L 189.738431 264.503084 
L 192.565399 264.503084 
L 192.565399 264.393995 
L 192.565399 264.266196 
L 195.392368 264.266196 
L 195.392368 264.161248 
L 195.392368 263.563907 
L 198.219336 263.428676 
L 198.219336 263.324142 
L 201.046304 263.202428 
L 201.046304 263.158145 
L 209.527209 263.043651 
L 209.527209 262.393807 
L 212.354178 262.290967 
L 212.354178 262.179505 
L 218.008115 262.023454 
L 218.008115 261.913513 
L 218.008115 261.913513 
L 229.315988 261.771399 
L 229.315988 261.601768 
L 229.315988 261.601768 
L 232.142956 261.467299 
L 232.142956 261.454197 
L 237.796893 261.397437 
L 237.796893 261.349364 
L 240.623862 261.224796 
L 240.623862 261.083676 
L 249.104767 260.984369 
L 249.104767 260.080011 
L 251.931735 259.968565 
L 251.931735 259.78867 
L 254.758703 259.661789 
L 254.758703 259.563176 
L 257.585672 259.474374 
L 257.585672 259.346684 
L 260.41264 259.236336 
L 260.41264 259.02677 
L 268.893545 258.905685 
L 268.893545 258.676839 
L 271.720514 258.676839 
L 271.720514 258.57248 
L 271.720514 258.464953 
L 274.547482 258.347768 
L 274.547482 257.901946 
L 274.547482 257.901946 
L 277.374451 257.782698 
L 277.374451 257.745256 
L 280.201419 257.63473 
L 280.201419 257.510789 
L 288.682324 257.413199 
L 288.682324 257.074503 
L 291.509292 256.984131 
L 291.509292 256.93382 
L 297.163229 256.817799 
L 297.163229 256.817799 
L 297.163229 256.728727 
L 305.644134 256.583647 
L 305.644134 256.574397 
L 308.471103 256.447777 
L 308.471103 256.446822 
L 314.125039 256.333734 
L 314.125039 256.333734 
L 314.125039 256.258638 
L 319.778976 256.238498 
L 319.778976 256.174001 
L 319.778976 256.108596 
L 328.259881 256.030839 
L 328.259881 255.818439 
L 333.913818 255.683149 
L 333.913818 255.248124 
L 336.740786 255.134696 
L 336.740786 254.80518 
L 339.567755 254.702664 
L 339.567755 254.602294 
L 348.04866 254.585656 
L 348.04866 254.498516 
L 348.04866 254.165239 
L 350.875628 254.044501 
L 350.875628 253.991383 
L 353.702597 253.882242 
L 353.702597 253.882242 
L 353.702597 253.778143 
L 356.529565 253.778143 
L 356.529565 253.699191 
L 356.529565 253.594356 
L 359.356533 253.594356 
L 359.356533 253.517031 
L 359.356533 253.39151 
L 367.837439 253.279687 
L 367.837439 252.464441 
L 373.491375 252.323488 
L 373.491375 252.19569 
L 376.318344 252.088498 
L 376.318344 251.350275 
L 387.626217 251.234441 
L 390.453186 251.111609 
L 390.453186 250.922254 
L 396.107122 250.819389 
L 396.107122 250.684557 
L 396.107122 250.684557 
" style="fill:none;stroke:#0000ff;stroke-linecap:square;stroke-width:1.5;"/>
   </g>
   <g id="line2d_34">
    <path clip-path="url(#p6dc572ec14)" d="M 73.832727 265.797818 
L 81.958135 265.525476 
L 82.412707 231.482735 
L 82.993544 231.618906 
L 83.103286 232.095504 
L 83.335627 232.16359 
L 83.432935 232.844445 
L 83.542938 233.116786 
L 83.679182 235.567864 
L 83.800114 235.840206 
L 84.917552 246.733883 
L 85.380141 247.755165 
L 85.859318 248.367935 
L 86.075922 249.593473 
L 86.242039 249.661559 
L 86.381915 251.840294 
L 86.477685 252.044551 
L 86.644293 252.793491 
L 86.674656 253.202004 
L 86.779261 253.746688 
L 86.88861 254.699885 
L 87.014416 255.244568 
L 87.22778 256.061594 
L 87.383198 257.491389 
L 87.529258 257.559475 
L 87.668676 258.24033 
L 87.871668 258.921184 
L 88.068247 259.261612 
L 88.253145 259.942467 
L 88.847561 260.623321 
L 89.18045 260.895663 
L 89.402256 262.529715 
L 89.922267 262.802057 
L 90.073464 263.21057 
L 90.532519 264.436109 
L 91.900131 264.844621 
L 91.970805 264.980792 
L 92.002837 264.639535 
L 92.025283 264.775706 
L 92.027246 128.60474 
L 92.135613 129.694108 
L 92.302516 134.18775 
L 92.42384 135.481374 
L 92.5397 140.723956 
L 92.692402 145.48994 
L 92.784933 203.430686 
L 93.121748 209.897213 
L 93.270916 214.663197 
L 93.380821 215.752564 
L 93.407684 229.492409 
L 93.530611 229.560495 
L 93.661129 231.534974 
L 94.176397 232.203762 
L 94.181599 232.856218 
L 94.359953 233.12856 
L 94.411585 235.171124 
L 94.480525 238.983911 
L 94.597759 239.033887 
L 94.695754 239.238143 
L 94.784587 240.327511 
L 94.832129 240.463682 
L 94.986565 247.884999 
L 95.022524 248.702025 
L 95.381686 253.468009 
L 95.549701 253.876522 
L 95.662944 257.07654 
L 95.728383 257.757394 
L 95.911187 257.075476 
L 96.031791 258.096758 
L 96.151119 258.232929 
L 96.227487 258.912002 
L 96.44939 259.524771 
L 96.493398 260.205626 
L 96.760586 260.341797 
L 97.674083 260.546054 
L 97.899226 261.294994 
L 97.993884 263.065216 
L 98.392048 263.201387 
L 98.394796 263.677986 
L 98.582181 263.746071 
L 98.95381 265.107781 
L 100.61004 265.175066 
L 100.814374 265.379322 
L 100.856778 265.515493 
L 101.778422 265.71966 
L 103.074051 265.698187 
L 103.4286 265.012813 
L 103.461777 265.148984 
L 103.635223 265.556574 
L 103.66634 265.624659 
L 106.348066 265.692741 
L 112.590595 265.760826 
L 114.718412 265.070934 
L 114.751459 265.615618 
L 117.563998 265.751789 
L 121.246418 265.063747 
L 121.255384 265.131832 
L 121.282541 265.744602 
L 131.515708 265.676118 
L 131.515708 265.025623 
L 131.522547 265.706477 
L 132.143662 265.665005 
L 143.545866 265.732088 
L 154.690436 265.774151 
L 170.911214 265.658254 
L 170.911214 265.534911 
L 170.949234 265.739167 
L 170.99599 265.721916 
L 171.114599 265.701608 
L 171.396543 265.769694 
L 173.999382 265.756869 
L 175.2085 265.050634 
L 176.488162 264.984579 
L 176.488162 264.627207 
L 176.580136 264.967634 
L 177.745116 265.102508 
L 177.745116 265.096539 
L 178.062626 265.505052 
L 179.374745 265.482597 
L 179.538245 265.762647 
L 179.569426 265.483025 
L 179.657115 265.551111 
L 179.678579 265.687282 
L 182.485294 265.684159 
L 182.566765 265.75224 
L 183.291634 265.794364 
L 190.603339 265.676822 
L 190.653465 265.722755 
L 190.666455 265.653814 
L 191.115105 265.546258 
L 191.115105 265.482359 
L 191.20973 265.618529 
L 191.501654 265.554059 
L 191.580672 264.82698 
L 191.595854 264.895065 
L 191.711223 265.099322 
L 191.781504 265.235493 
L 193.465023 265.081836 
L 193.465023 265.0163 
L 193.479976 265.084385 
L 193.555656 265.084381 
L 194.396974 265.176138 
L 194.52939 265.380394 
L 196.31411 265.13102 
L 196.372023 264.687649 
L 196.577044 264.710456 
L 196.66146 264.879306 
L 196.705959 264.642873 
L 196.745779 264.9833 
L 196.812657 265.255642 
L 196.884706 265.318483 
L 196.905908 265.454654 
L 197.37046 265.49503 
L 197.525649 265.13201 
L 197.595047 265.200095 
L 197.628519 265.404352 
L 200.162091 265.477885 
L 200.278442 265.58653 
L 200.729645 265.649151 
L 200.788474 265.552576 
L 200.808466 265.620662 
L 202.014574 265.50971 
L 202.014574 265.494778 
L 202.059988 265.562864 
L 202.361368 265.755278 
L 202.361368 265.733901 
L 202.952872 265.686517 
L 203.072887 265.514991 
L 203.083488 265.583077 
L 203.158482 265.719248 
L 203.240542 265.37882 
L 203.311609 265.514991 
L 203.421121 265.58259 
L 203.421121 265.580308 
L 205.450976 265.645577 
L 205.658451 265.713098 
L 205.658451 265.711305 
L 206.153334 265.779391 
L 210.467896 265.69232 
L 210.515896 265.129069 
L 210.573613 265.197154 
L 210.837627 265.394372 
L 211.044251 265.458914 
L 211.050239 265.595085 
L 211.252282 265.330012 
L 211.286932 265.466183 
L 211.33997 265.655864 
L 211.560565 265.560282 
L 211.560565 265.537124 
L 212.137574 265.564793 
L 212.140225 265.632878 
L 212.271234 265.700964 
L 213.233025 265.607721 
L 213.233025 265.561405 
L 213.333834 265.697576 
L 216.661869 265.772876 
L 216.830342 236.773907 
L 216.914758 238.85237 
L 217.067101 247.223994 
L 217.245684 260.56153 
L 217.47158 260.610663 
L 217.507407 260.678748 
L 217.87102 260.883005 
L 219.366139 260.839896 
L 219.398728 259.136357 
L 219.451832 260.770409 
L 219.73371 260.838494 
L 219.835305 262.881059 
L 219.90287 263.01723 
L 219.92139 263.425742 
L 221.813986 263.415999 
L 221.93194 262.717748 
L 221.946042 263.058176 
L 222.04973 263.466068 
L 222.04973 263.462965 
L 222.638715 263.582732 
L 222.88722 265.144794 
L 223.611761 265.178779 
L 225.114668 265.178172 
L 225.487115 265.65477 
L 231.495993 265.698946 
L 231.495993 265.259457 
L 231.584368 265.395628 
L 231.658773 265.24929 
L 231.670192 265.453547 
L 234.084272 265.361071 
L 234.084272 265.318975 
L 234.237694 265.38706 
L 234.393047 265.727487 
L 234.436531 265.68697 
L 236.040803 265.723981 
L 236.954103 265.397785 
L 239.740074 265.461439 
L 239.807247 265.59761 
L 241.521882 265.471208 
L 241.521882 265.322921 
L 241.603387 265.391007 
L 241.77981 265.633536 
L 242.725307 265.712499 
L 248.920229 265.779887 
L 248.920229 265.778504 
L 250.109224 265.714857 
L 250.109224 264.922526 
L 250.374972 264.992129 
L 250.507388 265.372599 
L 250.710544 265.425135 
L 250.721341 265.561306 
L 250.820547 265.482612 
L 251.282776 265.534686 
L 251.282776 265.52169 
L 251.282776 264.831918 
L 251.363626 265.10426 
L 251.592172 265.580858 
L 252.863195 265.647549 
L 252.863195 265.566802 
L 252.863195 265.47268 
L 252.94784 265.608851 
L 255.591907 265.507662 
L 255.591907 265.446427 
L 255.904771 265.581578 
L 255.904771 265.56468 
L 256.29927 265.634512 
L 256.514009 265.702597 
L 261.309156 265.584544 
L 261.309156 265.392277 
L 261.354505 265.460363 
L 261.77662 265.701617 
L 261.77662 265.69734 
L 262.243528 265.627917 
L 262.243528 265.560133 
L 262.26509 265.628218 
L 262.697838 265.696304 
L 267.886111 265.761343 
L 267.886111 265.754595 
L 268.068489 265.752788 
L 269.867639 265.650037 
L 269.867639 265.627817 
L 269.915148 265.763988 
L 270.948005 265.627243 
L 270.948005 265.591733 
L 270.988905 265.727904 
L 271.406701 265.616861 
L 271.469293 265.581211 
L 271.557472 265.649297 
L 271.616858 264.981004 
L 271.691524 265.457602 
L 272.603778 265.347959 
L 272.603778 265.337232 
L 272.74457 265.333649 
L 272.843808 265.025015 
L 272.85032 265.297357 
L 272.979725 265.38599 
L 273.176828 265.522161 
L 275.556945 265.428291 
L 275.658867 265.010213 
L 275.827536 265.554897 
L 276.57449 265.44852 
L 276.57449 265.380788 
L 276.597427 265.448873 
L 277.311662 265.540657 
L 277.427947 265.608743 
L 278.332544 265.495478 
L 278.332544 265.479429 
L 278.402466 265.547514 
L 278.573458 265.60297 
L 278.573458 265.53006 
L 278.706561 265.598146 
L 281.42477 265.657718 
L 281.629071 265.725803 
L 282.213049 265.670792 
L 282.213049 265.494541 
L 282.258955 265.630711 
L 284.718646 265.596594 
L 285.7819 265.731166 
L 285.7819 265.730507 
L 289.713579 265.617532 
L 289.713579 265.422576 
L 289.720515 265.490662 
L 290.377098 265.625557 
L 290.377098 265.544921 
L 290.377098 265.423361 
L 290.410178 265.627618 
L 292.612366 265.673189 
L 292.671425 265.741274 
L 322.049941 265.761557 
L 322.285195 265.080702 
L 322.285195 263.95493 
L 322.329857 265.793238 
L 329.361974 265.695045 
L 329.361974 265.645738 
L 329.403397 265.713823 
L 329.719271 265.651341 
L 329.835654 265.717141 
L 329.835654 265.707225 
L 331.96141 265.595811 
L 331.96141 265.554244 
L 332.163977 265.62233 
L 332.424163 265.260191 
L 332.446216 265.328276 
L 332.477136 265.668704 
L 332.542608 265.651706 
L 333.020051 265.522063 
L 333.125441 260.98193 
L 333.129891 263.757729 
L 333.255076 264.302413 
L 333.906293 264.256377 
L 333.906293 264.941656 
L 334.090471 265.009741 
L 334.796362 264.8995 
L 334.796395 264.518715 
L 336.115189 264.557468 
L 336.174215 264.624506 
L 336.174215 264.623133 
L 337.603764 264.51015 
L 337.603764 264.257206 
L 338.531069 264.110605 
L 338.604393 264.451033 
L 338.626577 265.676572 
L 338.899425 265.777427 
L 339.005862 265.117165 
L 339.134875 265.167332 
L 339.243701 264.487984 
L 339.28424 265.168839 
L 340.436066 265.055816 
L 340.436066 265.017102 
L 340.520221 265.085187 
L 340.537464 265.082228 
L 341.844511 265.03743 
L 342.026956 265.718285 
L 349.010255 265.600975 
L 349.061788 265.411017 
L 349.190703 265.454363 
L 349.29017 265.658281 
L 349.29017 265.618993 
L 352.346633 265.650866 
L 352.579728 265.712242 
L 352.579728 265.670807 
L 354.673124 265.554133 
L 354.708526 265.514328 
L 354.751553 265.650499 
L 354.781884 265.597132 
L 354.787969 265.665217 
L 355.161299 265.722495 
L 355.518597 265.785485 
L 360.260084 265.656203 
L 360.354545 265.56027 
L 360.445571 265.764526 
L 361.297293 265.785039 
L 368.815851 265.641391 
L 368.925462 265.389208 
L 369.061444 265.681093 
L 368.986647 265.323393 
L 369.102376 265.63785 
L 369.102376 265.59395 
L 369.172363 265.662036 
L 369.321074 265.730121 
L 369.999971 265.615993 
L 369.999971 265.056853 
L 370.109942 265.253011 
L 370.223446 265.384624 
L 370.223446 265.368229 
L 370.279887 265.304645 
L 370.342512 265.367864 
L 370.575083 265.362679 
L 370.75841 265.635021 
L 375.646873 265.679395 
L 376.113225 265.746659 
L 377.23364 265.653057 
L 377.314327 264.962072 
L 377.333304 265.166328 
L 377.796056 265.622305 
L 378.986426 265.580533 
L 383.508005 265.794389 
L 391.326405 265.714407 
L 391.326405 265.622625 
L 391.370347 265.690711 
L 397.18834 265.725983 
L 397.304756 265.793436 
L 397.304756 265.791993 
L 398.366014 265.713846 
L 398.483117 265.647958 
L 398.487273 265.716044 
" style="fill:none;stroke:#ff0000;stroke-linecap:square;stroke-width:1.5;"/>
   </g>
   <g id="line2d_35">
    <path clip-path="url(#p6dc572ec14)" d="M 73.832727 265.797818 
L 79.486664 265.729733 
L 79.486664 265.457391 
L 82.313632 265.32122 
L 82.313632 250.274328 
L 84.236298 249.933901 
L 85.140601 249.593473 
L 85.140601 238.563625 
L 87.967569 238.427454 
L 87.967569 233.184872 
L 90.794538 232.776359 
L 90.794538 197.576165 
L 90.794538 198.733618 
L 92.691551 198.052763 
L 92.755878 143.584377 
L 93.380821 142.903522 
L 93.395708 129.980703 
L 93.621506 129.299848 
L 93.621506 106.014613 
L 93.621506 107.042776 
L 94.176397 106.373988 
L 94.181599 105.721532 
L 94.411421 105.040677 
L 94.415707 102.317258 
L 96.448474 101.636403 
L 96.448474 97.074676 
L 99.275443 96.189564 
L 99.275443 95.781051 
L 99.275443 95.781942 
L 102.102411 95.645771 
L 102.102411 94.828745 
L 102.102411 95.855988 
L 110.583316 95.719817 
L 113.410285 95.311304 
L 113.410285 95.175133 
L 113.410285 95.855988 
L 119.064221 95.651731 
L 119.064221 95.038962 
L 119.064221 95.719817 
L 130.372095 95.038962 
L 130.372095 95.107047 
L 130.372095 95.787902 
L 152.987842 95.583646 
L 152.987842 95.665374 
L 169.949652 95.603503 
L 169.949652 95.399246 
L 169.949652 95.468549 
L 172.776621 95.400464 
L 172.776621 95.412249 
L 172.776621 96.09849 
L 175.603589 96.030405 
L 175.603589 94.941037 
L 175.603589 95.289173 
L 178.430557 95.153002 
L 178.430557 94.812575 
L 178.430557 95.260054 
L 181.257526 95.123883 
L 181.257526 94.783456 
L 181.257526 94.940762 
L 189.738431 94.748266 
L 189.738431 94.067411 
L 189.738431 95.02614 
L 192.565399 94.889969 
L 192.565399 94.481456 
L 192.565399 94.648212 
L 195.392368 94.512041 
L 195.392368 93.082246 
L 195.392368 93.879838 
L 198.219336 93.743667 
L 198.219336 93.267068 
L 198.219336 93.423763 
L 201.046304 93.287592 
L 201.046304 92.742908 
L 201.046304 93.300936 
L 203.873273 93.164765 
L 203.873273 93.096679 
L 203.873273 93.097244 
L 209.527209 92.903237 
L 209.527209 92.018126 
L 209.527209 92.413126 
L 212.354178 92.276955 
L 212.354178 92.072698 
L 212.354178 92.166838 
L 215.181146 92.030667 
L 215.181146 82.022101 
L 215.181146 82.061279 
L 217.03677 81.380424 
L 217.079959 67.967584 
L 218.008115 67.831413 
L 218.008115 63.473942 
L 218.008115 65.254213 
L 220.835083 64.913785 
L 220.835083 63.143563 
L 220.835083 63.854071 
L 222.72997 63.445558 
L 223.662051 62.96896 
L 223.662051 62.96896 
L 226.48902 62.975543 
L 229.315988 62.771286 
L 229.315988 62.362773 
L 229.315988 63.005706 
L 232.142956 62.665279 
L 232.142956 62.597194 
L 232.142956 62.624712 
L 234.969925 62.488541 
L 234.969925 62.888584 
L 237.796893 62.752413 
L 237.796893 62.411986 
L 237.796893 62.575331 
L 240.623862 62.43916 
L 240.623862 62.098732 
L 240.623862 62.228662 
L 249.104767 61.956974 
L 249.104767 60.527178 
L 249.104767 61.356637 
L 251.931735 61.220466 
L 251.931735 61.01621 
L 251.931735 61.064166 
L 254.758703 60.85991 
L 254.758703 60.655653 
L 254.758703 60.676787 
L 260.41264 60.433671 
L 260.41264 60.093244 
L 260.41264 60.187951 
L 268.893545 59.918655 
L 268.893545 59.2378 
L 268.893545 60.076721 
L 271.720514 59.94055 
L 271.720514 59.327781 
L 271.720514 59.692532 
L 274.547482 59.556361 
L 274.547482 58.943591 
L 274.547482 59.218774 
L 277.374451 59.082603 
L 277.374451 58.878346 
L 277.374451 58.948163 
L 280.201419 58.811992 
L 280.201419 58.53965 
L 280.201419 58.708508 
L 288.682324 58.45442 
L 288.682324 58.182078 
L 288.682324 58.307824 
L 291.509292 58.171653 
L 291.509292 58.035482 
L 291.509292 58.054082 
L 299.990198 57.787442 
L 299.990198 57.719356 
L 299.990198 57.744924 
L 311.298071 57.405517 
L 311.298071 57.337432 
L 311.298071 57.422407 
L 319.778976 57.238775 
L 319.778976 55.400467 
L 319.778976 57.172842 
L 328.259881 57.104757 
L 328.259881 56.968586 
L 328.259881 57.046327 
L 331.08685 56.910156 
L 331.08685 55.956959 
L 331.08685 56.429867 
L 333.020051 56.55951 
L 333.125441 61.168521 
L 333.126291 58.445102 
L 333.906293 58.426818 
L 333.913818 57.54262 
L 333.913818 57.647884 
L 336.740786 57.239371 
L 336.740786 55.196806 
L 336.740786 56.656143 
L 339.567755 56.519972 
L 339.567755 55.839117 
L 339.567755 55.903811 
L 345.221692 55.847426 
L 348.04866 55.711255 
L 348.04866 55.370828 
L 348.04866 55.485324 
L 350.875628 55.349153 
L 350.875628 55.076811 
L 350.875628 55.284174 
L 353.702597 55.148003 
L 353.702597 54.943747 
L 353.702597 55.031506 
L 356.529565 54.895335 
L 356.529565 54.82725 
L 356.529565 54.884413 
L 359.356533 54.748242 
L 359.356533 54.543985 
L 359.356533 54.63693 
L 365.01047 54.602742 
L 367.837439 54.194229 
L 367.837439 53.309117 
L 367.837439 53.849222 
L 370.664407 53.713051 
L 370.664407 53.644966 
L 370.664407 53.763324 
L 373.491375 53.627153 
L 373.491375 53.422896 
L 373.491375 53.536918 
L 376.318344 53.264576 
L 376.318344 52.583722 
L 376.318344 52.857629 
L 379.145312 52.721458 
L 379.145312 52.653372 
L 379.145312 52.658001 
L 387.626217 52.522565 
L 387.626217 52.564362 
L 387.626217 52.56981 
L 387.626217 52.56981 
L 390.453186 52.433639 
L 390.453186 52.297468 
L 390.453186 52.358438 
L 393.280154 52.222267 
L 393.280154 52.154182 
L 393.280154 52.17477 
L 396.107122 52.256729 
L 396.107122 52.328743 
L 396.107122 52.328743 
" style="fill:none;stroke:#008000;stroke-linecap:square;stroke-width:1.5;"/>
   </g>
   <g id="line2d_36">
    <defs>
     <path d="M 0 3 
C 0.795609 3 1.55874 2.683901 2.12132 2.12132 
C 2.683901 1.55874 3 0.795609 3 0 
C 3 -0.795609 2.683901 -1.55874 2.12132 -2.12132 
C 1.55874 -2.683901 0.795609 -3 0 -3 
C -0.795609 -3 -1.55874 -2.683901 -2.12132 -2.12132 
C -2.683901 -1.55874 -3 -0.795609 -3 0 
C -3 0.795609 -2.683901 1.55874 -2.12132 2.12132 
C -1.55874 2.683901 -0.795609 3 0 3 
z
" id="m77dfea9e8a" style="stroke:#bfbf00;"/>
    </defs>
    <g clip-path="url(#p6dc572ec14)">
     <use style="fill:#bfbf00;stroke:#bfbf00;" x="82.412707" xlink:href="#m77dfea9e8a" y="231.755077"/>
     <use style="fill:#bfbf00;stroke:#bfbf00;" x="92.027246" xlink:href="#m77dfea9e8a" y="129.626853"/>
    </g>
   </g>
   <g id="line2d_37">
    <defs>
     <path d="M 0 3 
C 0.795609 3 1.55874 2.683901 2.12132 2.12132 
C 2.683901 1.55874 3 0.795609 3 0 
C 3 -0.795609 2.683901 -1.55874 2.12132 -2.12132 
C 1.55874 -2.683901 0.795609 -3 0 -3 
C -0.795609 -3 -1.55874 -2.683901 -2.12132 -2.12132 
C -2.683901 -1.55874 -3 -0.795609 -3 0 
C -3 0.795609 -2.683901 1.55874 -2.12132 2.12132 
C -1.55874 2.683901 -0.795609 3 0 3 
z
" id="m5e84bc09a5" style="stroke:#008000;"/>
    </defs>
    <g clip-path="url(#p6dc572ec14)">
     <use style="fill:#008000;stroke:#008000;" x="216.830342" xlink:href="#m5e84bc09a5" y="236.798849"/>
    </g>
   </g>
   <g id="patch_3">
    <path d="M 57.6 276.48 
L 57.6 41.472 
" style="fill:none;stroke:#000000;stroke-linecap:square;stroke-linejoin:miter;stroke-width:0.8;"/>
   </g>
   <g id="patch_4">
    <path d="M 414.72 276.48 
L 414.72 41.472 
" style="fill:none;stroke:#000000;stroke-linecap:square;stroke-linejoin:miter;stroke-width:0.8;"/>
   </g>
   <g id="patch_5">
    <path d="M 57.6 276.48 
L 414.72 276.48 
" style="fill:none;stroke:#000000;stroke-linecap:square;stroke-linejoin:miter;stroke-width:0.8;"/>
   </g>
   <g id="patch_6">
    <path d="M 57.6 41.472 
L 414.72 41.472 
" style="fill:none;stroke:#000000;stroke-linecap:square;stroke-linejoin:miter;stroke-width:0.8;"/>
   </g>
   <g id="text_19">
    <!-- My Bondora earnings -->
    <defs>
     <path d="M 9.8125 72.90625 
L 24.515625 72.90625 
L 43.109375 23.296875 
L 61.8125 72.90625 
L 76.515625 72.90625 
L 76.515625 0 
L 66.890625 0 
L 66.890625 64.015625 
L 48.09375 14.015625 
L 38.1875 14.015625 
L 19.390625 64.015625 
L 19.390625 0 
L 9.8125 0 
z
" id="DejaVuSans-4d"/>
     <path d="M 32.171875 -5.078125 
Q 28.375 -14.84375 24.75 -17.8125 
Q 21.140625 -20.796875 15.09375 -20.796875 
L 7.90625 -20.796875 
L 7.90625 -13.28125 
L 13.1875 -13.28125 
Q 16.890625 -13.28125 18.9375 -11.515625 
Q 21 -9.765625 23.484375 -3.21875 
L 25.09375 0.875 
L 2.984375 54.6875 
L 12.5 54.6875 
L 29.59375 11.921875 
L 46.6875 54.6875 
L 56.203125 54.6875 
z
" id="DejaVuSans-79"/>
     <path id="DejaVuSans-20"/>
     <path d="M 19.671875 34.8125 
L 19.671875 8.109375 
L 35.5 8.109375 
Q 43.453125 8.109375 47.28125 11.40625 
Q 51.125 14.703125 51.125 21.484375 
Q 51.125 28.328125 47.28125 31.5625 
Q 43.453125 34.8125 35.5 34.8125 
z
M 19.671875 64.796875 
L 19.671875 42.828125 
L 34.28125 42.828125 
Q 41.5 42.828125 45.03125 45.53125 
Q 48.578125 48.25 48.578125 53.8125 
Q 48.578125 59.328125 45.03125 62.0625 
Q 41.5 64.796875 34.28125 64.796875 
z
M 9.8125 72.90625 
L 35.015625 72.90625 
Q 46.296875 72.90625 52.390625 68.21875 
Q 58.5 63.53125 58.5 54.890625 
Q 58.5 48.1875 55.375 44.234375 
Q 52.25 40.28125 46.1875 39.3125 
Q 53.46875 37.75 57.5 32.78125 
Q 61.53125 27.828125 61.53125 20.40625 
Q 61.53125 10.640625 54.890625 5.3125 
Q 48.25 0 35.984375 0 
L 9.8125 0 
z
" id="DejaVuSans-42"/>
     <path d="M 30.609375 48.390625 
Q 23.390625 48.390625 19.1875 42.75 
Q 14.984375 37.109375 14.984375 27.296875 
Q 14.984375 17.484375 19.15625 11.84375 
Q 23.34375 6.203125 30.609375 6.203125 
Q 37.796875 6.203125 41.984375 11.859375 
Q 46.1875 17.53125 46.1875 27.296875 
Q 46.1875 37.015625 41.984375 42.703125 
Q 37.796875 48.390625 30.609375 48.390625 
z
M 30.609375 56 
Q 42.328125 56 49.015625 48.375 
Q 55.71875 40.765625 55.71875 27.296875 
Q 55.71875 13.875 49.015625 6.21875 
Q 42.328125 -1.421875 30.609375 -1.421875 
Q 18.84375 -1.421875 12.171875 6.21875 
Q 5.515625 13.875 5.515625 27.296875 
Q 5.515625 40.765625 12.171875 48.375 
Q 18.84375 56 30.609375 56 
z
" id="DejaVuSans-6f"/>
     <path d="M 54.890625 33.015625 
L 54.890625 0 
L 45.90625 0 
L 45.90625 32.71875 
Q 45.90625 40.484375 42.875 44.328125 
Q 39.84375 48.1875 33.796875 48.1875 
Q 26.515625 48.1875 22.3125 43.546875 
Q 18.109375 38.921875 18.109375 30.90625 
L 18.109375 0 
L 9.078125 0 
L 9.078125 54.6875 
L 18.109375 54.6875 
L 18.109375 46.1875 
Q 21.34375 51.125 25.703125 53.5625 
Q 30.078125 56 35.796875 56 
Q 45.21875 56 50.046875 50.171875 
Q 54.890625 44.34375 54.890625 33.015625 
z
" id="DejaVuSans-6e"/>
     <path d="M 41.109375 46.296875 
Q 39.59375 47.171875 37.8125 47.578125 
Q 36.03125 48 33.890625 48 
Q 26.265625 48 22.1875 43.046875 
Q 18.109375 38.09375 18.109375 28.8125 
L 18.109375 0 
L 9.078125 0 
L 9.078125 54.6875 
L 18.109375 54.6875 
L 18.109375 46.1875 
Q 20.953125 51.171875 25.484375 53.578125 
Q 30.03125 56 36.53125 56 
Q 37.453125 56 38.578125 55.875 
Q 39.703125 55.765625 41.0625 55.515625 
z
" id="DejaVuSans-72"/>
     <path d="M 9.421875 54.6875 
L 18.40625 54.6875 
L 18.40625 0 
L 9.421875 0 
z
M 9.421875 75.984375 
L 18.40625 75.984375 
L 18.40625 64.59375 
L 9.421875 64.59375 
z
" id="DejaVuSans-69"/>
     <path d="M 45.40625 27.984375 
Q 45.40625 37.75 41.375 43.109375 
Q 37.359375 48.484375 30.078125 48.484375 
Q 22.859375 48.484375 18.828125 43.109375 
Q 14.796875 37.75 14.796875 27.984375 
Q 14.796875 18.265625 18.828125 12.890625 
Q 22.859375 7.515625 30.078125 7.515625 
Q 37.359375 7.515625 41.375 12.890625 
Q 45.40625 18.265625 45.40625 27.984375 
z
M 54.390625 6.78125 
Q 54.390625 -7.171875 48.1875 -13.984375 
Q 42 -20.796875 29.203125 -20.796875 
Q 24.46875 -20.796875 20.265625 -20.09375 
Q 16.0625 -19.390625 12.109375 -17.921875 
L 12.109375 -9.1875 
Q 16.0625 -11.328125 19.921875 -12.34375 
Q 23.78125 -13.375 27.78125 -13.375 
Q 36.625 -13.375 41.015625 -8.765625 
Q 45.40625 -4.15625 45.40625 5.171875 
L 45.40625 9.625 
Q 42.625 4.78125 38.28125 2.390625 
Q 33.9375 0 27.875 0 
Q 17.828125 0 11.671875 7.65625 
Q 5.515625 15.328125 5.515625 27.984375 
Q 5.515625 40.671875 11.671875 48.328125 
Q 17.828125 56 27.875 56 
Q 33.9375 56 38.28125 53.609375 
Q 42.625 51.21875 45.40625 46.390625 
L 45.40625 54.6875 
L 54.390625 54.6875 
z
" id="DejaVuSans-67"/>
     <path d="M 44.28125 53.078125 
L 44.28125 44.578125 
Q 40.484375 46.53125 36.375 47.5 
Q 32.28125 48.484375 27.875 48.484375 
Q 21.1875 48.484375 17.84375 46.4375 
Q 14.5 44.390625 14.5 40.28125 
Q 14.5 37.15625 16.890625 35.375 
Q 19.28125 33.59375 26.515625 31.984375 
L 29.59375 31.296875 
Q 39.15625 29.25 43.1875 25.515625 
Q 47.21875 21.78125 47.21875 15.09375 
Q 47.21875 7.46875 41.1875 3.015625 
Q 35.15625 -1.421875 24.609375 -1.421875 
Q 20.21875 -1.421875 15.453125 -0.5625 
Q 10.6875 0.296875 5.421875 2 
L 5.421875 11.28125 
Q 10.40625 8.6875 15.234375 7.390625 
Q 20.0625 6.109375 24.8125 6.109375 
Q 31.15625 6.109375 34.5625 8.28125 
Q 37.984375 10.453125 37.984375 14.40625 
Q 37.984375 18.0625 35.515625 20.015625 
Q 33.0625 21.96875 24.703125 23.78125 
L 21.578125 24.515625 
Q 13.234375 26.265625 9.515625 29.90625 
Q 5.8125 33.546875 5.8125 39.890625 
Q 5.8125 47.609375 11.28125 51.796875 
Q 16.75 56 26.8125 56 
Q 31.78125 56 36.171875 55.265625 
Q 40.578125 54.546875 44.28125 53.078125 
z
" id="DejaVuSans-73"/>
    </defs>
    <g transform="translate(172.363125 35.472)scale(0.12 -0.12)">
     <use xlink:href="#DejaVuSans-4d"/>
     <use x="86.279297" xlink:href="#DejaVuSans-79"/>
     <use x="145.458984" xlink:href="#DejaVuSans-20"/>
     <use x="177.246094" xlink:href="#DejaVuSans-42"/>
     <use x="245.849609" xlink:href="#DejaVuSans-6f"/>
     <use x="307.03125" xlink:href="#DejaVuSans-6e"/>
     <use x="370.410156" xlink:href="#DejaVuSans-64"/>
     <use x="433.886719" xlink:href="#DejaVuSans-6f"/>
     <use x="495.068359" xlink:href="#DejaVuSans-72"/>
     <use x="536.181641" xlink:href="#DejaVuSans-61"/>
     <use x="597.460938" xlink:href="#DejaVuSans-20"/>
     <use x="629.248047" xlink:href="#DejaVuSans-65"/>
     <use x="690.771484" xlink:href="#DejaVuSans-61"/>
     <use x="752.050781" xlink:href="#DejaVuSans-72"/>
     <use x="793.148438" xlink:href="#DejaVuSans-6e"/>
     <use x="856.527344" xlink:href="#DejaVuSans-69"/>
     <use x="884.310547" xlink:href="#DejaVuSans-6e"/>
     <use x="947.689453" xlink:href="#DejaVuSans-67"/>
     <use x="1011.166016" xlink:href="#DejaVuSans-73"/>
    </g>
   </g>
   <g id="legend_1">
    <g id="patch_7">
     <path d="M 313.87 197.171312 
L 407.72 197.171312 
Q 409.72 197.171312 409.72 195.171312 
L 409.72 122.780687 
Q 409.72 120.780687 407.72 120.780687 
L 313.87 120.780687 
Q 311.87 120.780687 311.87 122.780687 
L 311.87 195.171312 
Q 311.87 197.171312 313.87 197.171312 
z
" style="fill:#ffffff;opacity:0.8;stroke:#cccccc;stroke-linejoin:miter;"/>
    </g>
    <g id="line2d_38">
     <path d="M 315.87 128.879125 
L 335.87 128.879125 
" style="fill:none;stroke:#0000ff;stroke-linecap:square;stroke-width:1.5;"/>
    </g>
    <g id="line2d_39"/>
    <g id="text_20">
     <!-- Interest -->
     <defs>
      <path d="M 9.8125 72.90625 
L 19.671875 72.90625 
L 19.671875 0 
L 9.8125 0 
z
" id="DejaVuSans-49"/>
     </defs>
     <g transform="translate(343.87 132.379125)scale(0.1 -0.1)">
      <use xlink:href="#DejaVuSans-49"/>
      <use x="29.492188" xlink:href="#DejaVuSans-6e"/>
      <use x="92.871094" xlink:href="#DejaVuSans-74"/>
      <use x="132.080078" xlink:href="#DejaVuSans-65"/>
      <use x="193.603516" xlink:href="#DejaVuSans-72"/>
      <use x="234.685547" xlink:href="#DejaVuSans-65"/>
      <use x="296.208984" xlink:href="#DejaVuSans-73"/>
      <use x="348.308594" xlink:href="#DejaVuSans-74"/>
     </g>
    </g>
    <g id="line2d_40">
     <path d="M 315.87 143.55725 
L 335.87 143.55725 
" style="fill:none;stroke:#ff0000;stroke-linecap:square;stroke-width:1.5;"/>
    </g>
    <g id="line2d_41"/>
    <g id="text_21">
     <!-- Balance -->
     <defs>
      <path d="M 9.421875 75.984375 
L 18.40625 75.984375 
L 18.40625 0 
L 9.421875 0 
z
" id="DejaVuSans-6c"/>
      <path d="M 48.78125 52.59375 
L 48.78125 44.1875 
Q 44.96875 46.296875 41.140625 47.34375 
Q 37.3125 48.390625 33.40625 48.390625 
Q 24.65625 48.390625 19.8125 42.84375 
Q 14.984375 37.3125 14.984375 27.296875 
Q 14.984375 17.28125 19.8125 11.734375 
Q 24.65625 6.203125 33.40625 6.203125 
Q 37.3125 6.203125 41.140625 7.25 
Q 44.96875 8.296875 48.78125 10.40625 
L 48.78125 2.09375 
Q 45.015625 0.34375 40.984375 -0.53125 
Q 36.96875 -1.421875 32.421875 -1.421875 
Q 20.0625 -1.421875 12.78125 6.34375 
Q 5.515625 14.109375 5.515625 27.296875 
Q 5.515625 40.671875 12.859375 48.328125 
Q 20.21875 56 33.015625 56 
Q 37.15625 56 41.109375 55.140625 
Q 45.0625 54.296875 48.78125 52.59375 
z
" id="DejaVuSans-63"/>
     </defs>
     <g transform="translate(343.87 147.05725)scale(0.1 -0.1)">
      <use xlink:href="#DejaVuSans-42"/>
      <use x="68.603516" xlink:href="#DejaVuSans-61"/>
      <use x="129.882812" xlink:href="#DejaVuSans-6c"/>
      <use x="157.666016" xlink:href="#DejaVuSans-61"/>
      <use x="218.945312" xlink:href="#DejaVuSans-6e"/>
      <use x="282.324219" xlink:href="#DejaVuSans-63"/>
      <use x="337.304688" xlink:href="#DejaVuSans-65"/>
     </g>
    </g>
    <g id="line2d_42">
     <path d="M 315.87 158.235375 
L 335.87 158.235375 
" style="fill:none;stroke:#008000;stroke-linecap:square;stroke-width:1.5;"/>
    </g>
    <g id="line2d_43"/>
    <g id="text_22">
     <!-- Investments -->
     <defs>
      <path d="M 2.984375 54.6875 
L 12.5 54.6875 
L 29.59375 8.796875 
L 46.6875 54.6875 
L 56.203125 54.6875 
L 35.6875 0 
L 23.484375 0 
z
" id="DejaVuSans-76"/>
      <path d="M 52 44.1875 
Q 55.375 50.25 60.0625 53.125 
Q 64.75 56 71.09375 56 
Q 79.640625 56 84.28125 50.015625 
Q 88.921875 44.046875 88.921875 33.015625 
L 88.921875 0 
L 79.890625 0 
L 79.890625 32.71875 
Q 79.890625 40.578125 77.09375 44.375 
Q 74.3125 48.1875 68.609375 48.1875 
Q 61.625 48.1875 57.5625 43.546875 
Q 53.515625 38.921875 53.515625 30.90625 
L 53.515625 0 
L 44.484375 0 
L 44.484375 32.71875 
Q 44.484375 40.625 41.703125 44.40625 
Q 38.921875 48.1875 33.109375 48.1875 
Q 26.21875 48.1875 22.15625 43.53125 
Q 18.109375 38.875 18.109375 30.90625 
L 18.109375 0 
L 9.078125 0 
L 9.078125 54.6875 
L 18.109375 54.6875 
L 18.109375 46.1875 
Q 21.1875 51.21875 25.484375 53.609375 
Q 29.78125 56 35.6875 56 
Q 41.65625 56 45.828125 52.96875 
Q 50 49.953125 52 44.1875 
z
" id="DejaVuSans-6d"/>
     </defs>
     <g transform="translate(343.87 161.735375)scale(0.1 -0.1)">
      <use xlink:href="#DejaVuSans-49"/>
      <use x="29.492188" xlink:href="#DejaVuSans-6e"/>
      <use x="92.871094" xlink:href="#DejaVuSans-76"/>
      <use x="152.050781" xlink:href="#DejaVuSans-65"/>
      <use x="213.574219" xlink:href="#DejaVuSans-73"/>
      <use x="265.673828" xlink:href="#DejaVuSans-74"/>
      <use x="304.882812" xlink:href="#DejaVuSans-6d"/>
      <use x="402.294922" xlink:href="#DejaVuSans-65"/>
      <use x="463.818359" xlink:href="#DejaVuSans-6e"/>
      <use x="527.197266" xlink:href="#DejaVuSans-74"/>
      <use x="566.40625" xlink:href="#DejaVuSans-73"/>
     </g>
    </g>
    <g id="line2d_44"/>
    <g id="line2d_45">
     <g>
      <use style="fill:#bfbf00;stroke:#bfbf00;" x="325.87" xlink:href="#m77dfea9e8a" y="172.9135"/>
     </g>
    </g>
    <g id="text_23">
     <!-- Deposits -->
     <defs>
      <path d="M 19.671875 64.796875 
L 19.671875 8.109375 
L 31.59375 8.109375 
Q 46.6875 8.109375 53.6875 14.9375 
Q 60.6875 21.78125 60.6875 36.53125 
Q 60.6875 51.171875 53.6875 57.984375 
Q 46.6875 64.796875 31.59375 64.796875 
z
M 9.8125 72.90625 
L 30.078125 72.90625 
Q 51.265625 72.90625 61.171875 64.09375 
Q 71.09375 55.28125 71.09375 36.53125 
Q 71.09375 17.671875 61.125 8.828125 
Q 51.171875 0 30.078125 0 
L 9.8125 0 
z
" id="DejaVuSans-44"/>
      <path d="M 18.109375 8.203125 
L 18.109375 -20.796875 
L 9.078125 -20.796875 
L 9.078125 54.6875 
L 18.109375 54.6875 
L 18.109375 46.390625 
Q 20.953125 51.265625 25.265625 53.625 
Q 29.59375 56 35.59375 56 
Q 45.5625 56 51.78125 48.09375 
Q 58.015625 40.1875 58.015625 27.296875 
Q 58.015625 14.40625 51.78125 6.484375 
Q 45.5625 -1.421875 35.59375 -1.421875 
Q 29.59375 -1.421875 25.265625 0.953125 
Q 20.953125 3.328125 18.109375 8.203125 
z
M 48.6875 27.296875 
Q 48.6875 37.203125 44.609375 42.84375 
Q 40.53125 48.484375 33.40625 48.484375 
Q 26.265625 48.484375 22.1875 42.84375 
Q 18.109375 37.203125 18.109375 27.296875 
Q 18.109375 17.390625 22.1875 11.75 
Q 26.265625 6.109375 33.40625 6.109375 
Q 40.53125 6.109375 44.609375 11.75 
Q 48.6875 17.390625 48.6875 27.296875 
z
" id="DejaVuSans-70"/>
     </defs>
     <g transform="translate(343.87 176.4135)scale(0.1 -0.1)">
      <use xlink:href="#DejaVuSans-44"/>
      <use x="77.001953" xlink:href="#DejaVuSans-65"/>
      <use x="138.525391" xlink:href="#DejaVuSans-70"/>
      <use x="202.001953" xlink:href="#DejaVuSans-6f"/>
      <use x="263.183594" xlink:href="#DejaVuSans-73"/>
      <use x="315.283203" xlink:href="#DejaVuSans-69"/>
      <use x="343.066406" xlink:href="#DejaVuSans-74"/>
      <use x="382.275391" xlink:href="#DejaVuSans-73"/>
     </g>
    </g>
    <g id="line2d_46"/>
    <g id="line2d_47">
     <g>
      <use style="fill:#008000;stroke:#008000;" x="325.87" xlink:href="#m5e84bc09a5" y="187.591625"/>
     </g>
    </g>
    <g id="text_24">
     <!-- Commission -->
     <defs>
      <path d="M 64.40625 67.28125 
L 64.40625 56.890625 
Q 59.421875 61.53125 53.78125 63.8125 
Q 48.140625 66.109375 41.796875 66.109375 
Q 29.296875 66.109375 22.65625 58.46875 
Q 16.015625 50.828125 16.015625 36.375 
Q 16.015625 21.96875 22.65625 14.328125 
Q 29.296875 6.6875 41.796875 6.6875 
Q 48.140625 6.6875 53.78125 8.984375 
Q 59.421875 11.28125 64.40625 15.921875 
L 64.40625 5.609375 
Q 59.234375 2.09375 53.4375 0.328125 
Q 47.65625 -1.421875 41.21875 -1.421875 
Q 24.65625 -1.421875 15.125 8.703125 
Q 5.609375 18.84375 5.609375 36.375 
Q 5.609375 53.953125 15.125 64.078125 
Q 24.65625 74.21875 41.21875 74.21875 
Q 47.75 74.21875 53.53125 72.484375 
Q 59.328125 70.75 64.40625 67.28125 
z
" id="DejaVuSans-43"/>
     </defs>
     <g transform="translate(343.87 191.091625)scale(0.1 -0.1)">
      <use xlink:href="#DejaVuSans-43"/>
      <use x="69.824219" xlink:href="#DejaVuSans-6f"/>
      <use x="131.005859" xlink:href="#DejaVuSans-6d"/>
      <use x="228.417969" xlink:href="#DejaVuSans-6d"/>
      <use x="325.830078" xlink:href="#DejaVuSans-69"/>
      <use x="353.613281" xlink:href="#DejaVuSans-73"/>
      <use x="405.712891" xlink:href="#DejaVuSans-73"/>
      <use x="457.8125" xlink:href="#DejaVuSans-69"/>
      <use x="485.595703" xlink:href="#DejaVuSans-6f"/>
      <use x="546.777344" xlink:href="#DejaVuSans-6e"/>
     </g>
    </g>
   </g>
  </g>
 </g>
 <defs>
  <clipPath id="p6dc572ec14">
   <rect height="235.008" width="357.12" x="57.6" y="41.472"/>
  </clipPath>
 </defs>
</svg>
