<?xml version="1.0" encoding="utf-8" standalone="no"?>
<!DOCTYPE svg PUBLIC "-//W3C//DTD SVG 1.1//EN"
  "http://www.w3.org/Graphics/SVG/1.1/DTD/svg11.dtd">
<!-- Created with matplotlib (http://matplotlib.org/) -->
<svg height="345.6pt" version="1.1" viewBox="0 0 460.8 345.6" width="460.8pt" xmlns="http://www.w3.org/2000/svg" xmlns:xlink="http://www.w3.org/1999/xlink">
 <defs>
  <style type="text/css">
*{stroke-linecap:butt;stroke-linejoin:round;}
  </style>
 </defs>
 <g id="figure_1">
  <g id="patch_1">
   <path d="M 0 345.6 
L 460.8 345.6 
L 460.8 0 
L 0 0 
z
" style="fill:#ffffff;"/>
  </g>
  <g id="axes_1">
   <g id="patch_2">
    <path d="M 57.6 276.48 
L 414.72 276.48 
L 414.72 41.472 
L 57.6 41.472 
z
" style="fill:#ffffff;"/>
   </g>
   <g id="matplotlib.axis_1">
    <g id="xtick_1">
     <g id="line2d_1">
      <path clip-path="url(#pd5ef8c1880)" d="M 73.832727 276.48 
L 73.832727 41.472 
" style="fill:none;stroke:#b0b0b0;stroke-linecap:square;stroke-width:0.8;"/>
     </g>
     <g id="line2d_2">
      <defs>
       <path d="M 0 0 
L 0 3.5 
" id="m898e338d51" style="stroke:#000000;stroke-width:0.8;"/>
      </defs>
      <g>
       <use style="stroke:#000000;stroke-width:0.8;" x="73.832727" xlink:href="#m898e338d51" y="276.48"/>
      </g>
     </g>
     <g id="text_1">
      <!-- 2019-01 -->
      <defs>
       <path d="M 19.1875 8.296875 
L 53.609375 8.296875 
L 53.609375 0 
L 7.328125 0 
L 7.328125 8.296875 
Q 12.9375 14.109375 22.625 23.890625 
Q 32.328125 33.6875 34.8125 36.53125 
Q 39.546875 41.84375 41.421875 45.53125 
Q 43.3125 49.21875 43.3125 52.78125 
Q 43.3125 58.59375 39.234375 62.25 
Q 35.15625 65.921875 28.609375 65.921875 
Q 23.96875 65.921875 18.8125 64.3125 
Q 13.671875 62.703125 7.8125 59.421875 
L 7.8125 69.390625 
Q 13.765625 71.78125 18.9375 73 
Q 24.125 74.21875 28.421875 74.21875 
Q 39.75 74.21875 46.484375 68.546875 
Q 53.21875 62.890625 53.21875 53.421875 
Q 53.21875 48.921875 51.53125 44.890625 
Q 49.859375 40.875 45.40625 35.40625 
Q 44.1875 33.984375 37.640625 27.21875 
Q 31.109375 20.453125 19.1875 8.296875 
z
" id="DejaVuSans-32"/>
       <path d="M 31.78125 66.40625 
Q 24.171875 66.40625 20.328125 58.90625 
Q 16.5 51.421875 16.5 36.375 
Q 16.5 21.390625 20.328125 13.890625 
Q 24.171875 6.390625 31.78125 6.390625 
Q 39.453125 6.390625 43.28125 13.890625 
Q 47.125 21.390625 47.125 36.375 
Q 47.125 51.421875 43.28125 58.90625 
Q 39.453125 66.40625 31.78125 66.40625 
z
M 31.78125 74.21875 
Q 44.046875 74.21875 50.515625 64.515625 
Q 56.984375 54.828125 56.984375 36.375 
Q 56.984375 17.96875 50.515625 8.265625 
Q 44.046875 -1.421875 31.78125 -1.421875 
Q 19.53125 -1.421875 13.0625 8.265625 
Q 6.59375 17.96875 6.59375 36.375 
Q 6.59375 54.828125 13.0625 64.515625 
Q 19.53125 74.21875 31.78125 74.21875 
z
" id="DejaVuSans-30"/>
       <path d="M 12.40625 8.296875 
L 28.515625 8.296875 
L 28.515625 63.921875 
L 10.984375 60.40625 
L 10.984375 69.390625 
L 28.421875 72.90625 
L 38.28125 72.90625 
L 38.28125 8.296875 
L 54.390625 8.296875 
L 54.390625 0 
L 12.40625 0 
z
" id="DejaVuSans-31"/>
       <path d="M 10.984375 1.515625 
L 10.984375 10.5 
Q 14.703125 8.734375 18.5 7.8125 
Q 22.3125 6.890625 25.984375 6.890625 
Q 35.75 6.890625 40.890625 13.453125 
Q 46.046875 20.015625 46.78125 33.40625 
Q 43.953125 29.203125 39.59375 26.953125 
Q 35.25 24.703125 29.984375 24.703125 
Q 19.046875 24.703125 12.671875 31.3125 
Q 6.296875 37.9375 6.296875 49.421875 
Q 6.296875 60.640625 12.9375 67.421875 
Q 19.578125 74.21875 30.609375 74.21875 
Q 43.265625 74.21875 49.921875 64.515625 
Q 56.59375 54.828125 56.59375 36.375 
Q 56.59375 19.140625 48.40625 8.859375 
Q 40.234375 -1.421875 26.421875 -1.421875 
Q 22.703125 -1.421875 18.890625 -0.6875 
Q 15.09375 0.046875 10.984375 1.515625 
z
M 30.609375 32.421875 
Q 37.25 32.421875 41.125 36.953125 
Q 45.015625 41.5 45.015625 49.421875 
Q 45.015625 57.28125 41.125 61.84375 
Q 37.25 66.40625 30.609375 66.40625 
Q 23.96875 66.40625 20.09375 61.84375 
Q 16.21875 57.28125 16.21875 49.421875 
Q 16.21875 41.5 20.09375 36.953125 
Q 23.96875 32.421875 30.609375 32.421875 
z
" id="DejaVuSans-39"/>
       <path d="M 4.890625 31.390625 
L 31.203125 31.390625 
L 31.203125 23.390625 
L 4.890625 23.390625 
z
" id="DejaVuSans-2d"/>
      </defs>
      <g transform="translate(36.607906 310.951846)rotate(-30)scale(0.1 -0.1)">
       <use xlink:href="#DejaVuSans-32"/>
       <use x="63.623047" xlink:href="#DejaVuSans-30"/>
       <use x="127.246094" xlink:href="#DejaVuSans-31"/>
       <use x="190.869141" xlink:href="#DejaVuSans-39"/>
       <use x="254.492188" xlink:href="#DejaVuSans-2d"/>
       <use x="290.576172" xlink:href="#DejaVuSans-30"/>
       <use x="354.199219" xlink:href="#DejaVuSans-31"/>
      </g>
     </g>
    </g>
    <g id="xtick_2">
     <g id="line2d_3">
      <path clip-path="url(#pd5ef8c1880)" d="M 128.267001 276.48 
L 128.267001 41.472 
" style="fill:none;stroke:#b0b0b0;stroke-linecap:square;stroke-width:0.8;"/>
     </g>
     <g id="line2d_4">
      <g>
       <use style="stroke:#000000;stroke-width:0.8;" x="128.267001" xlink:href="#m898e338d51" y="276.48"/>
      </g>
     </g>
     <g id="text_2">
      <!-- 2019-03 -->
      <defs>
       <path d="M 40.578125 39.3125 
Q 47.65625 37.796875 51.625 33 
Q 55.609375 28.21875 55.609375 21.1875 
Q 55.609375 10.40625 48.1875 4.484375 
Q 40.765625 -1.421875 27.09375 -1.421875 
Q 22.515625 -1.421875 17.65625 -0.515625 
Q 12.796875 0.390625 7.625 2.203125 
L 7.625 11.71875 
Q 11.71875 9.328125 16.59375 8.109375 
Q 21.484375 6.890625 26.8125 6.890625 
Q 36.078125 6.890625 40.9375 10.546875 
Q 45.796875 14.203125 45.796875 21.1875 
Q 45.796875 27.640625 41.28125 31.265625 
Q 36.765625 34.90625 28.71875 34.90625 
L 20.21875 34.90625 
L 20.21875 43.015625 
L 29.109375 43.015625 
Q 36.375 43.015625 40.234375 45.921875 
Q 44.09375 48.828125 44.09375 54.296875 
Q 44.09375 59.90625 40.109375 62.90625 
Q 36.140625 65.921875 28.71875 65.921875 
Q 24.65625 65.921875 20.015625 65.03125 
Q 15.375 64.15625 9.8125 62.3125 
L 9.8125 71.09375 
Q 15.4375 72.65625 20.34375 73.4375 
Q 25.25 74.21875 29.59375 74.21875 
Q 40.828125 74.21875 47.359375 69.109375 
Q 53.90625 64.015625 53.90625 55.328125 
Q 53.90625 49.265625 50.4375 45.09375 
Q 46.96875 40.921875 40.578125 39.3125 
z
" id="DejaVuSans-33"/>
      </defs>
      <g transform="translate(91.04218 310.951846)rotate(-30)scale(0.1 -0.1)">
       <use xlink:href="#DejaVuSans-32"/>
       <use x="63.623047" xlink:href="#DejaVuSans-30"/>
       <use x="127.246094" xlink:href="#DejaVuSans-31"/>
       <use x="190.869141" xlink:href="#DejaVuSans-39"/>
       <use x="254.492188" xlink:href="#DejaVuSans-2d"/>
       <use x="290.576172" xlink:href="#DejaVuSans-30"/>
       <use x="354.199219" xlink:href="#DejaVuSans-33"/>
      </g>
     </g>
    </g>
    <g id="xtick_3">
     <g id="line2d_5">
      <path clip-path="url(#pd5ef8c1880)" d="M 184.546504 276.48 
L 184.546504 41.472 
" style="fill:none;stroke:#b0b0b0;stroke-linecap:square;stroke-width:0.8;"/>
     </g>
     <g id="line2d_6">
      <g>
       <use style="stroke:#000000;stroke-width:0.8;" x="184.546504" xlink:href="#m898e338d51" y="276.48"/>
      </g>
     </g>
     <g id="text_3">
      <!-- 2019-05 -->
      <defs>
       <path d="M 10.796875 72.90625 
L 49.515625 72.90625 
L 49.515625 64.59375 
L 19.828125 64.59375 
L 19.828125 46.734375 
Q 21.96875 47.46875 24.109375 47.828125 
Q 26.265625 48.1875 28.421875 48.1875 
Q 40.625 48.1875 47.75 41.5 
Q 54.890625 34.8125 54.890625 23.390625 
Q 54.890625 11.625 47.5625 5.09375 
Q 40.234375 -1.421875 26.90625 -1.421875 
Q 22.3125 -1.421875 17.546875 -0.640625 
Q 12.796875 0.140625 7.71875 1.703125 
L 7.71875 11.625 
Q 12.109375 9.234375 16.796875 8.0625 
Q 21.484375 6.890625 26.703125 6.890625 
Q 35.15625 6.890625 40.078125 11.328125 
Q 45.015625 15.765625 45.015625 23.390625 
Q 45.015625 31 40.078125 35.4375 
Q 35.15625 39.890625 26.703125 39.890625 
Q 22.75 39.890625 18.8125 39.015625 
Q 14.890625 38.140625 10.796875 36.28125 
z
" id="DejaVuSans-35"/>
      </defs>
      <g transform="translate(147.321683 310.951846)rotate(-30)scale(0.1 -0.1)">
       <use xlink:href="#DejaVuSans-32"/>
       <use x="63.623047" xlink:href="#DejaVuSans-30"/>
       <use x="127.246094" xlink:href="#DejaVuSans-31"/>
       <use x="190.869141" xlink:href="#DejaVuSans-39"/>
       <use x="254.492188" xlink:href="#DejaVuSans-2d"/>
       <use x="290.576172" xlink:href="#DejaVuSans-30"/>
       <use x="354.199219" xlink:href="#DejaVuSans-35"/>
      </g>
     </g>
    </g>
    <g id="xtick_4">
     <g id="line2d_7">
      <path clip-path="url(#pd5ef8c1880)" d="M 240.826007 276.48 
L 240.826007 41.472 
" style="fill:none;stroke:#b0b0b0;stroke-linecap:square;stroke-width:0.8;"/>
     </g>
     <g id="line2d_8">
      <g>
       <use style="stroke:#000000;stroke-width:0.8;" x="240.826007" xlink:href="#m898e338d51" y="276.48"/>
      </g>
     </g>
     <g id="text_4">
      <!-- 2019-07 -->
      <defs>
       <path d="M 8.203125 72.90625 
L 55.078125 72.90625 
L 55.078125 68.703125 
L 28.609375 0 
L 18.3125 0 
L 43.21875 64.59375 
L 8.203125 64.59375 
z
" id="DejaVuSans-37"/>
      </defs>
      <g transform="translate(203.601186 310.951846)rotate(-30)scale(0.1 -0.1)">
       <use xlink:href="#DejaVuSans-32"/>
       <use x="63.623047" xlink:href="#DejaVuSans-30"/>
       <use x="127.246094" xlink:href="#DejaVuSans-31"/>
       <use x="190.869141" xlink:href="#DejaVuSans-39"/>
       <use x="254.492188" xlink:href="#DejaVuSans-2d"/>
       <use x="290.576172" xlink:href="#DejaVuSans-30"/>
       <use x="354.199219" xlink:href="#DejaVuSans-37"/>
      </g>
     </g>
    </g>
    <g id="xtick_5">
     <g id="line2d_9">
      <path clip-path="url(#pd5ef8c1880)" d="M 298.028125 276.48 
L 298.028125 41.472 
" style="fill:none;stroke:#b0b0b0;stroke-linecap:square;stroke-width:0.8;"/>
     </g>
     <g id="line2d_10">
      <g>
       <use style="stroke:#000000;stroke-width:0.8;" x="298.028125" xlink:href="#m898e338d51" y="276.48"/>
      </g>
     </g>
     <g id="text_5">
      <!-- 2019-09 -->
      <g transform="translate(260.803304 310.951846)rotate(-30)scale(0.1 -0.1)">
       <use xlink:href="#DejaVuSans-32"/>
       <use x="63.623047" xlink:href="#DejaVuSans-30"/>
       <use x="127.246094" xlink:href="#DejaVuSans-31"/>
       <use x="190.869141" xlink:href="#DejaVuSans-39"/>
       <use x="254.492188" xlink:href="#DejaVuSans-2d"/>
       <use x="290.576172" xlink:href="#DejaVuSans-30"/>
       <use x="354.199219" xlink:href="#DejaVuSans-39"/>
      </g>
     </g>
    </g>
    <g id="xtick_6">
     <g id="line2d_11">
      <path clip-path="url(#pd5ef8c1880)" d="M 354.307628 276.48 
L 354.307628 41.472 
" style="fill:none;stroke:#b0b0b0;stroke-linecap:square;stroke-width:0.8;"/>
     </g>
     <g id="line2d_12">
      <g>
       <use style="stroke:#000000;stroke-width:0.8;" x="354.307628" xlink:href="#m898e338d51" y="276.48"/>
      </g>
     </g>
     <g id="text_6">
      <!-- 2019-11 -->
      <g transform="translate(317.082807 310.951846)rotate(-30)scale(0.1 -0.1)">
       <use xlink:href="#DejaVuSans-32"/>
       <use x="63.623047" xlink:href="#DejaVuSans-30"/>
       <use x="127.246094" xlink:href="#DejaVuSans-31"/>
       <use x="190.869141" xlink:href="#DejaVuSans-39"/>
       <use x="254.492188" xlink:href="#DejaVuSans-2d"/>
       <use x="290.576172" xlink:href="#DejaVuSans-31"/>
       <use x="354.199219" xlink:href="#DejaVuSans-31"/>
      </g>
     </g>
    </g>
    <g id="xtick_7">
     <g id="line2d_13">
      <path clip-path="url(#pd5ef8c1880)" d="M 410.587131 276.48 
L 410.587131 41.472 
" style="fill:none;stroke:#b0b0b0;stroke-linecap:square;stroke-width:0.8;"/>
     </g>
     <g id="line2d_14">
      <g>
       <use style="stroke:#000000;stroke-width:0.8;" x="410.587131" xlink:href="#m898e338d51" y="276.48"/>
      </g>
     </g>
     <g id="text_7">
      <!-- 2020-01 -->
      <g transform="translate(373.36231 310.951846)rotate(-30)scale(0.1 -0.1)">
       <use xlink:href="#DejaVuSans-32"/>
       <use x="63.623047" xlink:href="#DejaVuSans-30"/>
       <use x="127.246094" xlink:href="#DejaVuSans-32"/>
       <use x="190.869141" xlink:href="#DejaVuSans-30"/>
       <use x="254.492188" xlink:href="#DejaVuSans-2d"/>
       <use x="290.576172" xlink:href="#DejaVuSans-30"/>
       <use x="354.199219" xlink:href="#DejaVuSans-31"/>
      </g>
     </g>
    </g>
    <g id="text_8">
     <!-- date -->
     <defs>
      <path d="M 45.40625 46.390625 
L 45.40625 75.984375 
L 54.390625 75.984375 
L 54.390625 0 
L 45.40625 0 
L 45.40625 8.203125 
Q 42.578125 3.328125 38.25 0.953125 
Q 33.9375 -1.421875 27.875 -1.421875 
Q 17.96875 -1.421875 11.734375 6.484375 
Q 5.515625 14.40625 5.515625 27.296875 
Q 5.515625 40.1875 11.734375 48.09375 
Q 17.96875 56 27.875 56 
Q 33.9375 56 38.25 53.625 
Q 42.578125 51.265625 45.40625 46.390625 
z
M 14.796875 27.296875 
Q 14.796875 17.390625 18.875 11.75 
Q 22.953125 6.109375 30.078125 6.109375 
Q 37.203125 6.109375 41.296875 11.75 
Q 45.40625 17.390625 45.40625 27.296875 
Q 45.40625 37.203125 41.296875 42.84375 
Q 37.203125 48.484375 30.078125 48.484375 
Q 22.953125 48.484375 18.875 42.84375 
Q 14.796875 37.203125 14.796875 27.296875 
z
" id="DejaVuSans-64"/>
      <path d="M 34.28125 27.484375 
Q 23.390625 27.484375 19.1875 25 
Q 14.984375 22.515625 14.984375 16.5 
Q 14.984375 11.71875 18.140625 8.90625 
Q 21.296875 6.109375 26.703125 6.109375 
Q 34.1875 6.109375 38.703125 11.40625 
Q 43.21875 16.703125 43.21875 25.484375 
L 43.21875 27.484375 
z
M 52.203125 31.203125 
L 52.203125 0 
L 43.21875 0 
L 43.21875 8.296875 
Q 40.140625 3.328125 35.546875 0.953125 
Q 30.953125 -1.421875 24.3125 -1.421875 
Q 15.921875 -1.421875 10.953125 3.296875 
Q 6 8.015625 6 15.921875 
Q 6 25.140625 12.171875 29.828125 
Q 18.359375 34.515625 30.609375 34.515625 
L 43.21875 34.515625 
L 43.21875 35.40625 
Q 43.21875 41.609375 39.140625 45 
Q 35.0625 48.390625 27.6875 48.390625 
Q 23 48.390625 18.546875 47.265625 
Q 14.109375 46.140625 10.015625 43.890625 
L 10.015625 52.203125 
Q 14.9375 54.109375 19.578125 55.046875 
Q 24.21875 56 28.609375 56 
Q 40.484375 56 46.34375 49.84375 
Q 52.203125 43.703125 52.203125 31.203125 
z
" id="DejaVuSans-61"/>
      <path d="M 18.3125 70.21875 
L 18.3125 54.6875 
L 36.8125 54.6875 
L 36.8125 47.703125 
L 18.3125 47.703125 
L 18.3125 18.015625 
Q 18.3125 11.328125 20.140625 9.421875 
Q 21.96875 7.515625 27.59375 7.515625 
L 36.8125 7.515625 
L 36.8125 0 
L 27.59375 0 
Q 17.1875 0 13.234375 3.875 
Q 9.28125 7.765625 9.28125 18.015625 
L 9.28125 47.703125 
L 2.6875 47.703125 
L 2.6875 54.6875 
L 9.28125 54.6875 
L 9.28125 70.21875 
z
" id="DejaVuSans-74"/>
      <path d="M 56.203125 29.59375 
L 56.203125 25.203125 
L 14.890625 25.203125 
Q 15.484375 15.921875 20.484375 11.0625 
Q 25.484375 6.203125 34.421875 6.203125 
Q 39.59375 6.203125 44.453125 7.46875 
Q 49.3125 8.734375 54.109375 11.28125 
L 54.109375 2.78125 
Q 49.265625 0.734375 44.1875 -0.34375 
Q 39.109375 -1.421875 33.890625 -1.421875 
Q 20.796875 -1.421875 13.15625 6.1875 
Q 5.515625 13.8125 5.515625 26.8125 
Q 5.515625 40.234375 12.765625 48.109375 
Q 20.015625 56 32.328125 56 
Q 43.359375 56 49.78125 48.890625 
Q 56.203125 41.796875 56.203125 29.59375 
z
M 47.21875 32.234375 
Q 47.125 39.59375 43.09375 43.984375 
Q 39.0625 48.390625 32.421875 48.390625 
Q 24.90625 48.390625 20.390625 44.140625 
Q 15.875 39.890625 15.1875 32.171875 
z
" id="DejaVuSans-65"/>
     </defs>
     <g transform="translate(224.885 324.351346)scale(0.1 -0.1)">
      <use xlink:href="#DejaVuSans-64"/>
      <use x="63.476562" xlink:href="#DejaVuSans-61"/>
      <use x="124.755859" xlink:href="#DejaVuSans-74"/>
      <use x="163.964844" xlink:href="#DejaVuSans-65"/>
     </g>
    </g>
   </g>
   <g id="matplotlib.axis_2">
    <g id="ytick_1">
     <g id="line2d_15">
      <path clip-path="url(#pd5ef8c1880)" d="M 57.6 265.797818 
L 414.72 265.797818 
" style="fill:none;stroke:#b0b0b0;stroke-linecap:square;stroke-width:0.8;"/>
     </g>
     <g id="line2d_16">
      <defs>
       <path d="M 0 0 
L -3.5 0 
" id="m7ad70fb4d7" style="stroke:#000000;stroke-width:0.8;"/>
      </defs>
      <g>
       <use style="stroke:#000000;stroke-width:0.8;" x="57.6" xlink:href="#m7ad70fb4d7" y="265.797818"/>
      </g>
     </g>
     <g id="text_9">
      <!-- 0 -->
      <g transform="translate(44.2375 269.597037)scale(0.1 -0.1)">
       <use xlink:href="#DejaVuSans-30"/>
      </g>
     </g>
    </g>
    <g id="ytick_2">
     <g id="line2d_17">
      <path clip-path="url(#pd5ef8c1880)" d="M 57.6 226.360652 
L 414.72 226.360652 
" style="fill:none;stroke:#b0b0b0;stroke-linecap:square;stroke-width:0.8;"/>
     </g>
     <g id="line2d_18">
      <g>
       <use style="stroke:#000000;stroke-width:0.8;" x="57.6" xlink:href="#m7ad70fb4d7" y="226.360652"/>
      </g>
     </g>
     <g id="text_10">
      <!-- 2000 -->
      <g transform="translate(25.15 230.15987)scale(0.1 -0.1)">
       <use xlink:href="#DejaVuSans-32"/>
       <use x="63.623047" xlink:href="#DejaVuSans-30"/>
       <use x="127.246094" xlink:href="#DejaVuSans-30"/>
       <use x="190.869141" xlink:href="#DejaVuSans-30"/>
      </g>
     </g>
    </g>
    <g id="ytick_3">
     <g id="line2d_19">
      <path clip-path="url(#pd5ef8c1880)" d="M 57.6 186.923485 
L 414.72 186.923485 
" style="fill:none;stroke:#b0b0b0;stroke-linecap:square;stroke-width:0.8;"/>
     </g>
     <g id="line2d_20">
      <g>
       <use style="stroke:#000000;stroke-width:0.8;" x="57.6" xlink:href="#m7ad70fb4d7" y="186.923485"/>
      </g>
     </g>
     <g id="text_11">
      <!-- 4000 -->
      <defs>
       <path d="M 37.796875 64.3125 
L 12.890625 25.390625 
L 37.796875 25.390625 
z
M 35.203125 72.90625 
L 47.609375 72.90625 
L 47.609375 25.390625 
L 58.015625 25.390625 
L 58.015625 17.1875 
L 47.609375 17.1875 
L 47.609375 0 
L 37.796875 0 
L 37.796875 17.1875 
L 4.890625 17.1875 
L 4.890625 26.703125 
z
" id="DejaVuSans-34"/>
      </defs>
      <g transform="translate(25.15 190.722704)scale(0.1 -0.1)">
       <use xlink:href="#DejaVuSans-34"/>
       <use x="63.623047" xlink:href="#DejaVuSans-30"/>
       <use x="127.246094" xlink:href="#DejaVuSans-30"/>
       <use x="190.869141" xlink:href="#DejaVuSans-30"/>
      </g>
     </g>
    </g>
    <g id="ytick_4">
     <g id="line2d_21">
      <path clip-path="url(#pd5ef8c1880)" d="M 57.6 147.486318 
L 414.72 147.486318 
" style="fill:none;stroke:#b0b0b0;stroke-linecap:square;stroke-width:0.8;"/>
     </g>
     <g id="line2d_22">
      <g>
       <use style="stroke:#000000;stroke-width:0.8;" x="57.6" xlink:href="#m7ad70fb4d7" y="147.486318"/>
      </g>
     </g>
     <g id="text_12">
      <!-- 6000 -->
      <defs>
       <path d="M 33.015625 40.375 
Q 26.375 40.375 22.484375 35.828125 
Q 18.609375 31.296875 18.609375 23.390625 
Q 18.609375 15.53125 22.484375 10.953125 
Q 26.375 6.390625 33.015625 6.390625 
Q 39.65625 6.390625 43.53125 10.953125 
Q 47.40625 15.53125 47.40625 23.390625 
Q 47.40625 31.296875 43.53125 35.828125 
Q 39.65625 40.375 33.015625 40.375 
z
M 52.59375 71.296875 
L 52.59375 62.3125 
Q 48.875 64.0625 45.09375 64.984375 
Q 41.3125 65.921875 37.59375 65.921875 
Q 27.828125 65.921875 22.671875 59.328125 
Q 17.53125 52.734375 16.796875 39.40625 
Q 19.671875 43.65625 24.015625 45.921875 
Q 28.375 48.1875 33.59375 48.1875 
Q 44.578125 48.1875 50.953125 41.515625 
Q 57.328125 34.859375 57.328125 23.390625 
Q 57.328125 12.15625 50.6875 5.359375 
Q 44.046875 -1.421875 33.015625 -1.421875 
Q 20.359375 -1.421875 13.671875 8.265625 
Q 6.984375 17.96875 6.984375 36.375 
Q 6.984375 53.65625 15.1875 63.9375 
Q 23.390625 74.21875 37.203125 74.21875 
Q 40.921875 74.21875 44.703125 73.484375 
Q 48.484375 72.75 52.59375 71.296875 
z
" id="DejaVuSans-36"/>
      </defs>
      <g transform="translate(25.15 151.285537)scale(0.1 -0.1)">
       <use xlink:href="#DejaVuSans-36"/>
       <use x="63.623047" xlink:href="#DejaVuSans-30"/>
       <use x="127.246094" xlink:href="#DejaVuSans-30"/>
       <use x="190.869141" xlink:href="#DejaVuSans-30"/>
      </g>
     </g>
    </g>
    <g id="ytick_5">
     <g id="line2d_23">
      <path clip-path="url(#pd5ef8c1880)" d="M 57.6 108.049152 
L 414.72 108.049152 
" style="fill:none;stroke:#b0b0b0;stroke-linecap:square;stroke-width:0.8;"/>
     </g>
     <g id="line2d_24">
      <g>
       <use style="stroke:#000000;stroke-width:0.8;" x="57.6" xlink:href="#m7ad70fb4d7" y="108.049152"/>
      </g>
     </g>
     <g id="text_13">
      <!-- 8000 -->
      <defs>
       <path d="M 31.78125 34.625 
Q 24.75 34.625 20.71875 30.859375 
Q 16.703125 27.09375 16.703125 20.515625 
Q 16.703125 13.921875 20.71875 10.15625 
Q 24.75 6.390625 31.78125 6.390625 
Q 38.8125 6.390625 42.859375 10.171875 
Q 46.921875 13.96875 46.921875 20.515625 
Q 46.921875 27.09375 42.890625 30.859375 
Q 38.875 34.625 31.78125 34.625 
z
M 21.921875 38.8125 
Q 15.578125 40.375 12.03125 44.71875 
Q 8.5 49.078125 8.5 55.328125 
Q 8.5 64.0625 14.71875 69.140625 
Q 20.953125 74.21875 31.78125 74.21875 
Q 42.671875 74.21875 48.875 69.140625 
Q 55.078125 64.0625 55.078125 55.328125 
Q 55.078125 49.078125 51.53125 44.71875 
Q 48 40.375 41.703125 38.8125 
Q 48.828125 37.15625 52.796875 32.3125 
Q 56.78125 27.484375 56.78125 20.515625 
Q 56.78125 9.90625 50.3125 4.234375 
Q 43.84375 -1.421875 31.78125 -1.421875 
Q 19.734375 -1.421875 13.25 4.234375 
Q 6.78125 9.90625 6.78125 20.515625 
Q 6.78125 27.484375 10.78125 32.3125 
Q 14.796875 37.15625 21.921875 38.8125 
z
M 18.3125 54.390625 
Q 18.3125 48.734375 21.84375 45.5625 
Q 25.390625 42.390625 31.78125 42.390625 
Q 38.140625 42.390625 41.71875 45.5625 
Q 45.3125 48.734375 45.3125 54.390625 
Q 45.3125 60.0625 41.71875 63.234375 
Q 38.140625 66.40625 31.78125 66.40625 
Q 25.390625 66.40625 21.84375 63.234375 
Q 18.3125 60.0625 18.3125 54.390625 
z
" id="DejaVuSans-38"/>
      </defs>
      <g transform="translate(25.15 111.84837)scale(0.1 -0.1)">
       <use xlink:href="#DejaVuSans-38"/>
       <use x="63.623047" xlink:href="#DejaVuSans-30"/>
       <use x="127.246094" xlink:href="#DejaVuSans-30"/>
       <use x="190.869141" xlink:href="#DejaVuSans-30"/>
      </g>
     </g>
    </g>
    <g id="ytick_6">
     <g id="line2d_25">
      <path clip-path="url(#pd5ef8c1880)" d="M 57.6 68.611985 
L 414.72 68.611985 
" style="fill:none;stroke:#b0b0b0;stroke-linecap:square;stroke-width:0.8;"/>
     </g>
     <g id="line2d_26">
      <g>
       <use style="stroke:#000000;stroke-width:0.8;" x="57.6" xlink:href="#m7ad70fb4d7" y="68.611985"/>
      </g>
     </g>
     <g id="text_14">
      <!-- 10000 -->
      <g transform="translate(18.7875 72.411204)scale(0.1 -0.1)">
       <use xlink:href="#DejaVuSans-31"/>
       <use x="63.623047" xlink:href="#DejaVuSans-30"/>
       <use x="127.246094" xlink:href="#DejaVuSans-30"/>
       <use x="190.869141" xlink:href="#DejaVuSans-30"/>
       <use x="254.492188" xlink:href="#DejaVuSans-30"/>
      </g>
     </g>
    </g>
    <g id="text_15">
     <!-- EUR -->
     <defs>
      <path d="M 9.8125 72.90625 
L 55.90625 72.90625 
L 55.90625 64.59375 
L 19.671875 64.59375 
L 19.671875 43.015625 
L 54.390625 43.015625 
L 54.390625 34.71875 
L 19.671875 34.71875 
L 19.671875 8.296875 
L 56.78125 8.296875 
L 56.78125 0 
L 9.8125 0 
z
" id="DejaVuSans-45"/>
      <path d="M 8.6875 72.90625 
L 18.609375 72.90625 
L 18.609375 28.609375 
Q 18.609375 16.890625 22.84375 11.734375 
Q 27.09375 6.59375 36.625 6.59375 
Q 46.09375 6.59375 50.34375 11.734375 
Q 54.59375 16.890625 54.59375 28.609375 
L 54.59375 72.90625 
L 64.5 72.90625 
L 64.5 27.390625 
Q 64.5 13.140625 57.4375 5.859375 
Q 50.390625 -1.421875 36.625 -1.421875 
Q 22.796875 -1.421875 15.734375 5.859375 
Q 8.6875 13.140625 8.6875 27.390625 
z
" id="DejaVuSans-55"/>
      <path d="M 44.390625 34.1875 
Q 47.5625 33.109375 50.5625 29.59375 
Q 53.5625 26.078125 56.59375 19.921875 
L 66.609375 0 
L 56 0 
L 46.6875 18.703125 
Q 43.0625 26.03125 39.671875 28.421875 
Q 36.28125 30.8125 30.421875 30.8125 
L 19.671875 30.8125 
L 19.671875 0 
L 9.8125 0 
L 9.8125 72.90625 
L 32.078125 72.90625 
Q 44.578125 72.90625 50.734375 67.671875 
Q 56.890625 62.453125 56.890625 51.90625 
Q 56.890625 45.015625 53.6875 40.46875 
Q 50.484375 35.9375 44.390625 34.1875 
z
M 19.671875 64.796875 
L 19.671875 38.921875 
L 32.078125 38.921875 
Q 39.203125 38.921875 42.84375 42.21875 
Q 46.484375 45.515625 46.484375 51.90625 
Q 46.484375 58.296875 42.84375 61.546875 
Q 39.203125 64.796875 32.078125 64.796875 
z
" id="DejaVuSans-52"/>
     </defs>
     <g transform="translate(12.707813 169.268969)rotate(-90)scale(0.1 -0.1)">
      <use xlink:href="#DejaVuSans-45"/>
      <use x="63.183594" xlink:href="#DejaVuSans-55"/>
      <use x="136.376953" xlink:href="#DejaVuSans-52"/>
     </g>
    </g>
   </g>
   <g id="line2d_27">
    <path clip-path="url(#pd5ef8c1880)" d="M 73.832727 265.797818 
L 106.124245 265.709581 
L 106.124245 265.690957 
L 111.659934 265.542748 
L 111.659934 265.422844 
L 111.659934 265.422844 
L 113.505164 265.354237 
L 113.505164 265.313153 
L 113.505164 265.150844 
L 118.118238 264.994868 
L 118.118238 264.811965 
L 120.886082 264.69031 
L 120.886082 264.672865 
L 120.886082 264.672865 
L 125.499156 264.560599 
L 125.499156 264.53984 
L 131.034845 264.428961 
L 131.034845 264.141855 
L 132.880075 264.035574 
L 132.880075 263.992172 
L 134.725304 263.881643 
L 134.725304 263.83682 
L 138.415764 263.722868 
L 138.415764 263.67411 
L 139.338378 263.55898 
L 139.338378 263.511054 
L 139.338378 263.511054 
L 143.951452 263.378368 
L 143.951452 263.378368 
L 143.951452 263.271414 
L 147.641912 263.167168 
L 147.641912 263.139672 
L 154.100215 263.010615 
L 154.100215 262.991673 
L 158.713289 262.879161 
L 158.713289 262.742468 
L 159.635904 262.632708 
L 159.635904 262.614184 
L 163.326363 262.492543 
L 163.326363 262.428848 
L 166.094208 262.308439 
L 166.094208 262.263511 
L 169.784667 262.190527 
L 169.784667 262.153913 
L 169.784667 261.936271 
L 172.552511 261.812152 
L 172.552511 261.613592 
L 177.165585 261.499259 
L 177.165585 261.48963 
L 182.701274 261.351222 
L 182.701274 261.319277 
L 186.391733 261.166313 
L 186.391733 261.166313 
L 186.391733 261.087251 
L 186.391733 261.087251 
L 189.159578 260.966463 
L 189.159578 260.901704 
L 191.004807 260.780284 
L 191.004807 260.77719 
L 195.617881 260.645112 
L 195.617881 260.499656 
L 197.463111 260.393791 
L 197.463111 260.347947 
L 202.076185 260.191181 
L 202.076185 260.081462 
L 205.766644 259.929748 
L 205.766644 259.927793 
L 214.992792 259.811334 
L 214.992792 259.679092 
L 215.915407 259.563997 
L 218.683252 259.432238 
L 218.683252 259.39902 
L 221.451096 259.275005 
L 221.451096 259.22371 
L 223.296326 259.124756 
L 223.296326 259.023928 
L 224.21894 258.914088 
L 224.21894 258.879599 
L 224.21894 258.879599 
L 227.9094 258.761476 
L 227.9094 258.730346 
L 227.9094 258.730346 
L 228.832014 258.621271 
L 228.832014 258.518962 
L 231.599859 258.40948 
L 231.599859 258.400343 
L 238.058162 258.268236 
L 238.058162 258.255311 
L 240.826007 258.141033 
L 240.826007 258.069128 
L 240.826007 258.069128 
L 241.748622 257.957594 
L 241.748622 257.93021 
L 242.671237 257.815033 
L 242.671237 257.319551 
L 243.593851 257.198853 
L 243.593851 256.724151 
L 244.516466 256.723185 
L 244.516466 256.618551 
L 244.516466 256.51883 
L 247.284311 256.396015 
L 247.284311 255.670426 
L 248.206925 255.558452 
L 248.206925 255.521565 
L 249.12954 255.521565 
L 249.12954 255.467923 
L 249.12954 255.183742 
L 250.97477 255.068132 
L 250.97477 254.863681 
L 250.97477 254.863681 
L 253.742614 254.751562 
L 253.742614 254.751562 
L 253.742614 254.525978 
L 254.665229 254.416271 
L 254.665229 254.286466 
L 255.587844 254.178904 
L 255.587844 253.937924 
L 256.510459 253.828812 
L 256.510459 253.397255 
L 257.433073 253.340276 
L 257.433073 253.132223 
L 260.200918 252.900428 
L 260.200918 252.834919 
L 261.123533 252.737876 
L 261.123533 252.528112 
L 263.891377 252.408762 
L 263.891377 252.408762 
L 263.891377 252.341591 
L 266.659221 252.230994 
L 266.659221 252.230241 
L 268.504451 252.146562 
L 268.504451 252.05366 
L 269.427066 251.940948 
L 269.427066 251.73332 
L 270.349681 251.621904 
L 270.349681 251.595381 
L 273.117525 251.490324 
L 273.117525 251.490324 
L 273.117525 250.316176 
L 274.04014 250.20464 
L 274.04014 249.751904 
L 274.962755 249.64442 
L 274.962755 249.522584 
L 275.885369 249.522186 
L 275.885369 249.412564 
L 275.885369 249.270101 
L 276.807984 249.16028 
L 276.807984 249.111962 
L 279.575829 248.996171 
L 279.575829 248.996171 
L 279.575829 248.795551 
L 280.498444 248.689344 
L 280.498444 248.596236 
L 281.421058 248.484582 
L 281.421058 248.468862 
L 281.421058 248.468862 
L 282.343673 248.468862 
L 282.343673 248.379222 
L 282.343673 248.250213 
L 283.266288 248.141783 
L 283.266288 247.878026 
L 286.034132 247.752875 
L 286.034132 247.069721 
L 286.956747 247.069721 
L 286.956747 246.960467 
L 286.956747 246.887944 
L 287.879362 246.776405 
L 287.879362 246.74415 
L 289.724592 246.635614 
L 289.724592 246.502822 
L 292.492436 246.409974 
L 292.492436 246.302143 
L 294.337666 246.212272 
L 294.337666 246.195278 
L 294.337666 246.095555 
L 294.337666 246.095555 
L 297.10551 245.99708 
L 297.10551 245.91581 
L 298.95074 245.801985 
L 298.95074 245.656577 
L 298.95074 245.656577 
L 299.873354 245.545843 
L 299.873354 245.234974 
L 300.795969 245.132948 
L 300.795969 244.648251 
L 301.718584 244.536238 
L 301.718584 244.234482 
L 302.641199 244.124043 
L 302.641199 243.699785 
L 305.409043 243.58359 
L 305.409043 243.286228 
L 306.331658 243.178233 
L 306.331658 243.0559 
L 307.254273 242.944778 
L 307.254273 242.938573 
L 309.099502 242.827237 
L 309.099502 242.571877 
L 311.867347 242.45833 
L 311.867347 241.948432 
L 312.789962 241.837407 
L 312.789962 241.695275 
L 313.712576 241.695275 
L 313.712576 241.584613 
L 313.712576 241.254155 
L 314.635191 241.143858 
L 314.635191 241.109718 
L 315.557806 241.00401 
L 315.557806 240.921277 
L 318.325651 240.808784 
L 318.325651 240.808784 
L 318.325651 240.748167 
L 319.248265 240.679529 
L 319.248265 240.479592 
L 321.093495 240.37205 
L 321.093495 240.209633 
L 323.861339 240.102087 
L 323.861339 240.099448 
L 323.861339 240.090679 
L 325.706569 240.005804 
L 325.706569 239.724887 
L 327.551799 239.612145 
L 327.551799 239.313124 
L 328.474413 239.180256 
L 328.474413 238.70216 
L 331.242258 238.586904 
L 331.242258 238.063289 
L 332.164873 237.932175 
L 332.164873 237.80693 
L 334.010102 237.713458 
L 334.010102 237.696526 
L 334.010102 237.514465 
L 337.700561 237.401474 
L 337.700561 237.078686 
L 338.623176 236.967722 
L 338.623176 236.831971 
L 339.545791 236.715836 
L 339.545791 236.347743 
L 340.468406 236.236459 
L 340.468406 236.071784 
L 341.391021 235.960987 
L 341.391021 235.630781 
L 344.158865 235.543294 
L 344.158865 235.228774 
L 345.08148 235.119374 
L 346.004095 235.029044 
L 346.004095 234.911045 
L 346.926709 234.910402 
L 346.926709 234.800262 
L 346.926709 234.774223 
L 347.849324 234.662466 
L 347.849324 234.65536 
L 351.539783 234.540963 
L 351.539783 234.427437 
L 351.539783 234.427437 
L 353.385013 234.334271 
L 353.385013 234.297622 
L 354.307628 234.187711 
L 354.307628 234.158365 
L 357.075472 234.052531 
L 357.075472 233.287744 
L 357.075472 233.287744 
L 357.998087 233.193405 
L 357.998087 232.797958 
L 358.920702 232.699806 
L 358.920702 232.491118 
L 358.920702 232.491118 
L 359.843317 232.380565 
L 359.843317 232.265983 
L 359.843317 232.265983 
L 360.765932 232.154195 
L 360.765932 232.116799 
L 363.533776 232.000971 
L 363.533776 231.807677 
L 363.533776 231.807677 
L 365.379006 231.699309 
L 365.379006 231.50372 
L 367.224235 231.392674 
L 367.224235 231.274279 
L 369.99208 231.154548 
L 369.99208 231.154548 
L 369.99208 230.364295 
L 371.837309 230.256716 
L 371.837309 230.198595 
L 372.759924 230.088084 
L 372.759924 230.045887 
L 375.527768 229.933099 
L 375.527768 229.930188 
L 377.372998 229.821961 
L 377.372998 229.737617 
L 379.218228 229.631077 
L 379.218228 229.6268 
L 379.218228 229.588126 
L 381.986072 229.483908 
L 382.908687 229.383067 
L 382.908687 229.04253 
L 383.831302 228.928204 
L 383.831302 228.689833 
L 384.753916 228.555967 
L 384.753916 228.282573 
L 385.676531 228.17248 
L 385.676531 228.104256 
L 388.444376 227.996665 
L 389.36699 227.882187 
L 389.36699 227.581287 
L 390.289605 227.469821 
L 390.289605 227.291146 
L 391.21222 227.182406 
L 391.21222 227.176027 
L 391.21222 227.176027 
L 392.134835 227.071042 
L 392.134835 227.053552 
L 393.05745 226.956355 
L 393.05745 226.795154 
L 395.825294 226.682978 
L 395.825294 226.258621 
L 396.747909 226.147049 
L 396.747909 226.122111 
L 397.670524 226.013012 
L 397.670524 225.793874 
L 397.670524 225.793874 
" style="fill:none;stroke:#0000ff;stroke-linecap:square;stroke-width:1.5;"/>
   </g>
   <g id="line2d_28">
    <path clip-path="url(#pd5ef8c1880)" d="M 73.832727 265.797818 
L 76.484551 265.718944 
L 76.632906 255.859652 
L 76.851258 255.997682 
L 77.348349 259.349841 
L 77.450392 260.276615 
L 77.889883 261.242825 
L 78.255085 263.392151 
L 78.341281 263.510463 
L 78.478659 263.904834 
L 78.626875 264.200613 
L 78.859568 264.476673 
L 78.914028 264.851326 
L 79.100591 265.028793 
L 79.186509 265.206261 
L 79.282903 265.403447 
L 79.770085 265.501799 
L 79.770725 226.064632 
L 79.860563 227.681556 
L 79.911958 228.844953 
L 80.032816 247.932541 
L 80.203212 251.106772 
L 80.216613 253.670187 
L 80.303962 255.874781 
L 80.472126 256.068473 
L 80.571382 258.032106 
L 80.587656 258.026861 
L 80.641625 258.105735 
L 80.761351 261.043804 
L 80.780049 261.063523 
L 80.883512 262.266357 
L 80.921356 262.542417 
L 81.097732 263.587194 
L 81.1166 263.606912 
L 81.228307 264.178235 
L 81.687116 264.493732 
L 81.718008 265.006415 
L 81.847954 265.045853 
L 81.910006 265.203601 
L 82.031292 265.597973 
L 82.641157 265.696334 
L 82.735127 265.735771 
L 83.375981 265.768963 
L 83.491693 265.570469 
L 83.544839 265.688513 
L 83.644138 265.747668 
L 86.481819 265.787105 
L 87.176257 265.587302 
L 87.180785 265.685894 
L 87.187043 265.74505 
L 88.104948 265.784487 
L 89.30675 265.58522 
L 89.309676 265.604939 
L 89.318539 265.782406 
L 92.658255 265.762572 
L 92.658255 265.574179 
L 92.660487 265.771365 
L 92.863195 265.759353 
L 105.515448 265.783979 
L 105.515448 265.748838 
L 105.515448 265.721676 
L 105.527856 265.780832 
L 105.581825 265.769954 
L 105.673841 265.789673 
L 106.523308 265.785959 
L 106.917918 265.581422 
L 107.335551 265.562292 
L 107.335551 265.458792 
L 107.365568 265.557384 
L 109.555945 265.796818 
L 112.235383 265.68536 
L 112.261172 265.516649 
L 112.25312 265.718632 
L 112.326716 265.63496 
L 113.805985 265.4959 
L 113.842655 265.44865 
L 113.892513 265.50262 
L 113.904312 265.492366 
L 113.93387 265.463329 
L 114.150738 265.710126 
L 114.201386 265.60499 
L 114.234959 265.683864 
L 115.738842 265.767625 
L 115.77958 265.785498 
L 115.77958 265.779307 
L 118.425242 265.635695 
L 118.440907 265.604138 
L 118.489067 265.663294 
L 118.533532 265.661256 
L 118.615297 265.739104 
L 118.681236 265.662334 
L 118.741526 265.741976 
L 120.446719 265.790595 
L 120.501702 257.392056 
L 120.582036 261.996045 
L 120.637254 264.28131 
L 121.32929 264.361929 
L 121.339926 263.868559 
L 121.357257 264.341805 
L 121.449251 264.361523 
L 121.510502 265.110829 
L 121.554946 265.097759 
L 121.574338 265.117478 
L 122.128174 265.108007 
L 122.16667 264.905783 
L 122.178491 265.122688 
L 122.205112 265.12161 
L 122.397334 265.156296 
L 122.516569 265.60726 
L 122.516569 265.605905 
L 123.205391 265.618359 
L 123.326943 265.756389 
L 125.288012 265.650872 
L 125.341137 265.638956 
L 125.344864 265.698112 
L 131.362662 265.589526 
L 131.441201 265.525041 
L 131.471101 265.663071 
L 131.59481 265.70653 
L 131.745664 265.721611 
L 131.745664 265.717847 
L 131.745664 265.518079 
L 131.846639 265.734983 
L 133.152001 265.735015 
L 133.152001 265.702986 
L 133.152001 265.69605 
L 133.218388 265.735487 
L 133.254108 265.730298 
L 138.362553 265.754804 
L 138.381934 265.561256 
L 138.406303 265.699286 
L 138.749977 265.663388 
L 138.782364 265.574003 
L 138.855159 265.698265 
L 139.083976 265.699892 
L 139.083976 265.690564 
L 139.107607 265.710282 
L 139.667829 265.749188 
L 139.667829 265.65871 
L 139.701092 265.569716 
L 139.756139 265.727465 
L 154.91815 265.590131 
L 154.91815 265.26409 
L 154.932726 265.796492 
L 158.142208 265.746994 
L 158.227123 265.642113 
L 158.265778 265.755502 
L 158.423798 265.641455 
L 158.455854 265.121564 
L 158.455993 264.403064 
L 158.498301 265.364726 
L 158.710833 265.351394 
L 158.770942 265.569579 
L 159.001318 265.460302 
L 159.07721 265.414815 
L 159.375639 265.449772 
L 159.375639 265.444933 
L 160.220184 265.312457 
L 160.220184 265.309176 
L 160.317689 265.781384 
L 160.337454 265.772194 
L 160.340402 265.791913 
L 160.45276 265.41847 
L 160.46599 265.615656 
L 161.301566 265.577598 
L 161.361108 265.774784 
L 170.490435 265.650633 
L 170.490435 265.583224 
L 170.555392 265.679471 
L 170.594678 265.674706 
L 171.332812 265.724998 
L 171.426996 265.751793 
L 171.426996 265.750664 
L 171.485952 265.768755 
L 171.485952 265.763198 
L 172.85124 265.665023 
L 172.877562 265.555773 
L 172.935557 265.681652 
L 173.0716 265.743172 
L 173.0716 265.737599 
L 174.898943 265.796825 
L 186.691807 265.690613 
L 186.691807 265.645468 
L 186.79667 265.756562 
L 194.171074 265.769512 
L 194.174545 265.789231 
L 195.933268 265.676758 
L 195.958085 265.59535 
L 196.038835 265.661479 
L 196.433776 265.722988 
L 199.194744 265.766616 
L 202.375266 265.6541 
L 202.375266 265.609272 
L 202.485862 265.737346 
L 209.018029 265.779745 
L 209.072937 263.81321 
L 209.125048 264.594807 
L 210.350246 264.613097 
L 210.735 264.611089 
L 210.926165 265.794204 
L 211.043467 264.602073 
L 211.69768 264.602266 
L 211.871674 264.838889 
L 211.886293 265.785381 
L 215.306118 265.678239 
L 215.360877 265.656014 
L 215.389741 265.71517 
L 215.400665 265.708753 
L 220.087473 265.777418 
L 221.794631 265.711765 
L 221.794631 265.704253 
L 221.816479 265.679377 
L 221.860966 265.726473 
L 221.888719 265.715138 
L 223.931969 265.640814 
L 223.970646 265.441128 
L 223.992622 265.661976 
L 224.532149 265.547452 
L 224.566459 265.477403 
L 224.637235 265.518481 
L 224.821897 265.698973 
L 232.850813 265.7761 
L 232.889961 265.795819 
L 237.533553 265.784569 
L 237.550991 265.667348 
L 237.611271 265.706401 
L 237.800418 265.665667 
L 237.800418 265.715123 
L 237.803888 265.169971 
L 237.806152 265.711068 
L 237.956419 265.702282 
L 237.96274 265.417147 
L 237.965922 265.712926 
L 238.839972 265.643468 
L 238.862866 264.516675 
L 238.866636 265.65316 
L 238.878094 265.652389 
L 239.600029 265.714293 
L 239.600253 262.224187 
L 239.698452 265.780647 
L 239.712259 265.743637 
L 239.71637 264.026172 
L 239.720108 265.789762 
L 239.807361 265.234619 
L 239.856599 265.794035 
L 239.858543 264.695737 
L 239.858596 263.618814 
L 239.914604 265.797131 
L 239.956229 265.793839 
L 241.118926 265.696694 
L 241.118926 265.60537 
L 241.199986 265.79712 
L 241.226885 265.796712 
L 241.247836 216.500254 
L 241.346024 234.078683 
L 241.365534 236.518161 
L 241.6274 264.612768 
L 241.646333 264.609234 
L 242.32784 264.692045 
L 242.327947 265.785481 
L 242.415478 265.781685 
L 242.961807 265.695114 
L 243.000804 216.498873 
L 242.970392 265.795331 
L 243.067705 223.129577 
L 243.077401 223.390021 
L 243.184494 232.580039 
L 243.19419 232.801842 
L 243.301359 247.931534 
L 243.311055 249.12648 
L 243.34026 252.236108 
L 243.413226 242.023104 
L 243.418063 242.661043 
L 243.427738 242.869349 
L 243.534768 256.51011 
L 243.544485 256.775286 
L 243.651472 265.78225 
L 243.879734 265.674716 
L 243.879734 265.393914 
L 243.952934 265.793978 
L 243.989187 265.778023 
L 244.06619 265.794098 
L 244.069756 265.789755 
L 244.142818 265.672342 
L 244.148616 261.838342 
L 244.251044 265.797604 
L 245.044471 265.688492 
L 245.044471 265.668438 
L 245.049404 265.793848 
L 245.120992 265.781241 
L 245.294655 265.794841 
L 247.58399 265.677141 
L 247.58399 265.40274 
L 247.677618 265.795199 
L 253.562106 265.795567 
L 254.047408 265.685008 
L 254.047408 265.653346 
L 254.053014 265.772141 
L 254.145553 265.755432 
L 254.354711 265.726364 
L 254.354711 265.525853 
L 254.442413 265.76554 
L 254.448158 265.699653 
L 254.467305 265.522152 
L 254.529966 265.777979 
L 254.948655 265.692114 
L 254.948655 265.581902 
L 255.026149 265.792726 
L 255.043074 265.760933 
L 255.869508 265.649166 
L 255.869508 265.574716 
L 255.940626 265.793934 
L 255.969821 265.762379 
L 256.210182 265.794239 
L 256.210182 265.782765 
L 256.247919 265.766454 
L 256.315845 265.793118 
L 256.800879 265.684873 
L 256.800879 265.393563 
L 256.806688 265.790742 
L 256.905453 265.649667 
L 256.981814 265.790881 
L 257.404146 265.761551 
L 257.713553 265.316047 
L 257.721561 265.51404 
L 257.731364 265.752144 
L 257.826253 265.726331 
L 257.90492 265.76654 
L 257.90492 264.552241 
L 257.916336 265.776729 
L 258.013627 265.775044 
L 262.733933 265.679148 
L 262.733933 265.459089 
L 262.75277 265.784648 
L 262.755493 265.783609 
L 267.852641 265.792232 
L 267.852641 265.711745 
L 267.852641 265.665348 
L 267.891734 265.784084 
L 267.950637 265.782567 
L 268.947893 265.783577 
L 268.947893 265.486822 
L 269.021649 265.78879 
L 269.71313 265.668248 
L 269.71313 265.51413 
L 269.785081 265.786079 
L 269.803608 265.782896 
L 273.410765 265.662432 
L 273.410765 264.971436 
L 273.475465 265.789802 
L 273.514378 265.788317 
L 273.832968 265.6761 
L 273.832968 265.636036 
L 273.858703 265.797105 
L 273.926789 265.79464 
L 274.319807 265.693337 
L 274.319807 265.538797 
L 274.413361 265.79776 
L 274.427499 265.779212 
L 274.928402 265.787322 
L 275.243266 265.584543 
L 275.361305 265.792813 
L 275.466156 265.768155 
L 275.484683 265.575408 
L 275.507258 265.797343 
L 275.543372 265.780784 
L 275.750373 265.787179 
L 276.576572 265.679814 
L 276.576572 265.550867 
L 276.681071 265.795456 
L 277.650725 265.735376 
L 277.650735 265.226874 
L 277.656074 265.783465 
L 280.782265 265.784406 
L 280.782265 265.715503 
L 280.782265 265.664896 
L 280.819906 265.789557 
L 280.892028 265.783824 
L 281.057255 265.794193 
L 281.057255 265.791119 
L 281.920338 265.687337 
L 281.920338 265.614116 
L 281.929927 265.792327 
L 283.562956 265.796298 
L 283.562956 265.686632 
L 283.562956 265.46195 
L 283.572951 265.797668 
L 283.668277 265.780795 
L 283.90915 265.770915 
L 283.913763 265.790714 
L 284.079214 265.792826 
L 284.079214 265.796625 
L 284.614437 265.797049 
L 284.617737 265.611549 
L 284.721542 265.78613 
L 286.326326 265.627413 
L 286.326336 265.233014 
L 286.3382 265.795547 
L 286.436014 265.672154 
L 286.551448 265.783625 
L 286.551448 265.780738 
L 290.024634 265.66534 
L 290.024634 265.631991 
L 290.072751 265.796941 
L 290.102159 265.790554 
L 293.843266 265.780134 
L 293.898751 265.608513 
L 293.940258 265.790782 
L 294.879349 265.681386 
L 294.879349 265.647612 
L 294.884657 265.787496 
L 294.956138 265.780769 
L 299.23817 265.666438 
L 299.23817 265.642083 
L 299.314905 265.797116 
L 299.34504 265.780022 
L 300.177465 265.660602 
L 300.177465 265.470569 
L 300.192052 265.792665 
L 300.261953 265.790479 
L 301.083731 265.677118 
L 301.083731 265.302615 
L 301.088857 265.782386 
L 301.185336 265.71947 
L 301.341625 265.748678 
L 301.341625 265.746502 
L 301.416502 265.506613 
L 301.416502 265.487245 
L 301.498908 265.577577 
L 301.684851 265.673713 
L 301.701232 265.693432 
L 302.001039 265.599755 
L 302.001039 265.440622 
L 302.092521 265.710608 
L 302.101565 265.681645 
L 302.228756 265.702189 
L 302.92423 265.598246 
L 302.972828 265.398915 
L 302.976362 265.714412 
L 303.032274 265.619464 
L 303.165285 265.558568 
L 303.223482 265.390283 
L 303.27508 265.453865 
L 303.378148 265.484562 
L 303.4923 265.598852 
L 303.4923 265.595432 
L 304.37643 265.751395 
L 304.37643 265.749449 
L 305.695235 265.638487 
L 305.787625 265.582575 
L 305.883026 265.672903 
L 305.92212 265.626521 
L 305.92212 265.534069 
L 305.941245 265.672099 
L 306.00272 265.623468 
L 306.109398 265.494223 
L 306.1469 265.530967 
L 306.299772 265.566593 
L 306.299772 265.564109 
L 306.691328 265.453173 
L 306.734074 265.420568 
L 306.757289 265.53888 
L 306.799127 265.520889 
L 306.84529 265.616675 
L 306.88559 265.656069 
L 306.933824 265.639366 
L 308.732016 265.707244 
L 308.889693 265.747598 
L 309.397056 265.63631 
L 309.485356 265.523035 
L 309.497551 265.542754 
L 309.770299 265.699042 
L 309.808634 265.656777 
L 311.30453 265.738244 
L 311.329732 265.757963 
L 312.173689 265.647982 
L 312.191575 265.402025 
L 312.264755 265.697804 
L 312.393034 265.586739 
L 312.50094 265.511292 
L 312.649936 265.458894 
L 312.727162 265.259567 
L 313.075406 265.147639 
L 313.156605 265.04827 
L 313.17982 265.363767 
L 313.688347 265.335458 
L 314.013334 265.228537 
L 314.088061 264.923162 
L 314.120588 265.014009 
L 314.159447 265.111796 
L 314.233907 265.089921 
L 314.483494 265.158832 
L 314.606477 265.414322 
L 314.945004 265.382547 
L 315.15665 265.756503 
L 315.15665 265.712472 
L 315.15665 265.614766 
L 315.168332 265.752796 
L 315.253023 265.739296 
L 315.935341 265.627731 
L 315.935341 265.605417 
L 315.947835 265.743447 
L 316.002252 265.738981 
L 321.944351 265.68529 
L 321.944351 265.488379 
L 321.972862 265.715053 
L 326.168389 265.646798 
L 326.168389 263.899395 
L 326.266684 265.51304 
L 327.076278 265.52025 
L 327.194627 265.794333 
L 327.226908 265.710969 
L 327.304519 265.788177 
L 327.830153 265.677848 
L 327.830163 265.495093 
L 327.910123 265.791265 
L 327.924721 265.780656 
L 328.774274 265.65236 
L 328.774285 265.48537 
L 328.850048 265.789834 
L 328.878292 265.789018 
L 331.546699 265.669205 
L 331.546699 265.465346 
L 331.547212 265.783718 
L 331.644578 265.783101 
L 331.685561 265.760719 
L 331.685561 265.642606 
L 331.732151 265.785624 
L 332.721229 265.683223 
L 332.796981 265.608698 
L 332.81963 265.727009 
L 333.5259 265.736238 
L 333.543424 264.780812 
L 333.603746 265.72244 
L 333.640843 265.650154 
L 333.640843 265.577993 
L 333.681677 265.759405 
L 338.362933 265.635019 
L 338.362933 265.6058 
L 338.405134 265.755868 
L 338.473326 265.755531 
L 338.481015 265.737138 
L 338.502606 265.757635 
L 339.007268 265.647772 
L 339.007268 265.608157 
L 339.009414 265.729312 
L 339.102573 265.683219 
L 339.835261 265.56804 
L 339.835261 265.422706 
L 339.837034 265.776302 
L 339.945537 265.763328 
L 340.062904 265.789242 
L 340.062904 265.776122 
L 340.21726 265.796314 
L 340.21726 265.793157 
L 340.762511 265.684673 
L 340.762511 265.579027 
L 340.803281 265.772183 
L 340.868184 265.768754 
L 340.94524 265.785917 
L 340.94524 265.78494 
L 341.689472 265.698111 
L 341.689472 265.409865 
L 341.690176 265.794678 
L 341.786506 265.781884 
L 342.007923 265.782807 
L 344.885584 265.676915 
L 344.885584 265.480102 
L 344.888393 265.783762 
L 344.943429 265.782834 
L 345.020527 265.708806 
L 345.020527 265.609907 
L 345.034473 265.797795 
L 345.058906 265.793187 
L 346.347213 265.767086 
L 346.347213 265.728133 
L 346.347213 265.669705 
L 346.361522 265.788355 
L 346.451136 265.785478 
L 346.481793 265.596315 
L 346.486503 265.793495 
L 346.560547 265.778061 
L 346.637068 265.705716 
L 346.643411 265.797074 
L 348.217463 265.68636 
L 348.280262 265.389407 
L 348.284843 265.791453 
L 348.318427 265.790387 
L 352.287507 265.739168 
L 352.287507 262.80523 
L 352.297374 265.777657 
L 352.326206 265.776619 
L 354.749864 265.694193 
L 354.749864 265.635509 
L 354.761631 265.793257 
L 354.826951 265.791098 
L 355.057284 265.695474 
L 355.057284 265.494121 
L 355.058737 265.791766 
L 357.395419 265.680683 
L 357.410422 265.261522 
L 357.522193 265.360115 
L 357.533213 265.57702 
L 357.709087 265.465194 
L 357.760129 264.520008 
L 357.80233 265.248517 
L 357.833116 265.216193 
L 357.942036 265.65928 
L 357.942036 265.656296 
L 358.293431 265.540973 
L 358.323971 265.517665 
L 358.376082 265.655707 
L 358.401656 265.643136 
L 358.559974 265.616005 
L 358.596345 265.755072 
L 358.652749 265.744715 
L 358.681057 265.684737 
L 358.749612 265.750507 
L 359.213088 265.636766 
L 359.248358 265.565158 
L 359.303619 265.755999 
L 360.171165 265.645744 
L 360.200018 265.724618 
L 360.292365 265.670872 
L 360.402631 265.698954 
L 360.521054 265.59086 
L 360.521054 265.474413 
L 360.628372 265.736968 
L 362.013982 265.616989 
L 362.360133 265.689585 
L 364.165404 265.658568 
L 364.229806 265.075887 
L 364.271836 265.095606 
L 364.299194 265.19931 
L 364.354006 265.731711 
L 364.437426 265.715428 
L 367.633421 265.616792 
L 367.633421 265.546638 
L 367.736265 265.777228 
L 370.293157 265.632336 
L 370.401735 265.091474 
L 370.442794 265.009892 
L 370.52915 265.617382 
L 370.577865 265.598585 
L 370.67222 265.618022 
L 370.67222 265.606892 
L 370.777648 265.505941 
L 371.354549 265.501188 
L 371.393311 265.698016 
L 371.473314 265.659941 
L 371.625033 265.676957 
L 371.679728 265.775211 
L 371.679728 265.775208 
L 371.805274 265.774946 
L 372.510668 265.700862 
L 372.525736 265.493237 
L 372.574995 265.749579 
L 372.58499 265.737177 
L 372.699975 265.756438 
L 372.699975 265.751195 
L 376.319327 265.710389 
L 376.319327 265.612778 
L 376.330422 265.790245 
L 376.416383 265.773635 
L 376.443229 265.793353 
L 376.942957 265.689277 
L 377.00329 265.572823 
L 377.020856 265.770008 
L 379.780329 265.660977 
L 379.875035 265.620355 
L 380.682718 265.617266 
L 380.875229 265.791401 
L 383.195231 265.648739 
L 383.272938 265.554237 
L 383.286382 265.573955 
L 383.352685 265.572 
L 383.360555 265.788905 
L 383.431619 265.783646 
L 383.802192 265.681777 
L 383.802192 265.628855 
L 383.843507 265.786604 
L 384.133704 265.681635 
L 384.199739 265.513171 
L 384.21928 265.769513 
L 385.050605 265.660937 
L 385.050616 265.457031 
L 385.138318 265.766528 
L 385.155158 265.757771 
L 385.355538 265.771076 
L 389.698128 265.651229 
L 389.799381 265.578495 
L 389.863045 265.604664 
L 389.970983 265.757826 
L 389.970983 265.741509 
L 393.55516 265.634601 
L 393.55516 265.621193 
L 393.59986 265.778941 
L 393.653657 265.739884 
L 396.622117 265.628918 
L 396.641499 265.355589 
L 397.122849 265.442835 
L 397.220866 265.793618 
L 397.256906 265.78206 
L 398.031785 265.580494 
L 398.122338 265.491688 
L 398.140053 265.669155 
L 398.235273 265.756098 
L 398.235273 265.728108 
L 398.487273 265.748326 
L 398.487273 265.748326 
" style="fill:none;stroke:#ff0000;stroke-linecap:square;stroke-width:1.5;"/>
   </g>
   <g id="line2d_29">
    <path clip-path="url(#pd5ef8c1880)" d="M 73.832727 265.797818 
L 76.600572 265.659788 
L 76.600572 261.301981 
L 77.523186 261.104795 
L 77.523186 257.910385 
L 78.445801 257.772355 
L 78.445801 256.352617 
L 79.368416 256.155431 
L 79.368416 246.039798 
L 79.368416 246.375014 
L 79.987529 246.177828 
L 80.008523 230.402961 
L 80.212481 230.205775 
L 80.291031 219.52219 
L 80.291031 219.819962 
L 80.472126 219.626271 
L 80.550228 218.451381 
L 81.213646 218.155602 
L 81.213646 216.93305 
L 82.136261 216.578115 
L 82.136261 216.558397 
L 82.136261 216.558655 
L 83.058875 216.460062 
L 83.058875 216.282594 
L 83.058875 216.580099 
L 86.749335 216.402632 
L 86.749335 216.382914 
L 86.749335 216.580099 
L 88.594564 216.520944 
L 88.594564 216.343476 
L 88.594564 216.540662 
L 92.285023 216.343476 
L 92.285023 216.363195 
L 92.285023 216.560381 
L 106.124245 216.448173 
L 106.124245 216.451586 
L 106.124245 216.650332 
L 107.04686 216.551739 
L 107.04686 216.315116 
L 107.04686 216.415941 
L 107.969475 216.29763 
L 107.969475 216.277911 
L 107.969475 216.407508 
L 108.89209 216.289196 
L 108.89209 216.269478 
L 108.89209 216.315036 
L 111.659934 216.180412 
L 111.659934 216.062101 
L 111.659934 216.339763 
L 112.582549 216.221451 
L 112.582549 216.182014 
L 112.582549 216.230309 
L 113.505164 216.111998 
L 113.505164 215.776782 
L 113.505164 216.007776 
L 114.427779 215.889465 
L 114.427779 215.830309 
L 114.427779 215.87569 
L 115.350393 215.757379 
L 115.350393 215.678504 
L 115.350393 215.840118 
L 118.118238 215.685501 
L 118.118238 215.468597 
L 118.118238 215.582995 
L 119.963468 215.45251 
L 119.963468 212.573597 
L 119.963468 212.584943 
L 120.569072 212.387758 
L 120.583168 208.503197 
L 120.886082 208.424322 
L 120.886082 207.20177 
L 120.886082 207.717363 
L 121.808697 207.618771 
L 121.808697 207.106087 
L 121.808697 207.311861 
L 123.653927 207.057426 
L 124.576542 206.939115 
L 124.576542 206.879959 
L 124.576542 207.066162 
L 126.421771 206.916383 
L 126.421771 207.012523 
L 126.421771 207.032242 
L 127.344386 206.91393 
L 127.344386 206.894212 
L 127.344386 206.941519 
L 127.344386 206.941519 
L 128.267001 206.823207 
L 128.267001 206.803489 
L 128.267001 206.841118 
L 131.034845 206.683559 
L 131.034845 206.348343 
L 131.034845 206.588567 
L 132.880075 206.444707 
L 132.880075 206.385551 
L 132.880075 206.391672 
L 134.725304 206.242388 
L 134.725304 206.222669 
L 134.725304 206.250097 
L 137.493149 206.11295 
L 137.493149 205.97492 
L 137.493149 206.217884 
L 138.415764 206.099572 
L 138.415764 206.000979 
L 138.415764 206.106617 
L 139.338378 205.988305 
L 139.338378 205.889712 
L 139.338378 205.969409 
L 141.183608 205.831881 
L 141.183608 205.772725 
L 141.183608 205.821629 
L 144.874067 205.646429 
L 144.874067 205.62671 
L 144.874067 205.632097 
L 154.100215 205.395972 
L 154.100215 204.86357 
L 154.100215 205.376877 
L 157.790674 205.320517 
L 157.790674 205.300799 
L 157.790674 205.024739 
L 157.790674 205.1617 
L 158.423798 205.275976 
L 158.455854 205.834823 
L 158.455993 206.534085 
L 158.456271 205.745342 
L 158.713289 205.48397 
L 158.713289 205.514456 
L 159.635904 205.396144 
L 159.635904 204.804587 
L 159.635904 205.227233 
L 160.558519 205.187796 
L 160.558519 204.99061 
L 160.558519 205.009346 
L 163.326363 204.973297 
L 163.326363 204.914142 
L 163.326363 204.854986 
L 163.326363 204.888146 
L 165.171593 204.751016 
L 165.171593 204.731297 
L 165.171593 204.756713 
L 168.862052 204.628824 
L 168.862052 204.632537 
L 169.784667 204.435351 
L 169.784667 204.257884 
L 169.784667 204.414306 
L 172.552511 204.244984 
L 172.552511 204.047798 
L 172.552511 204.127126 
L 179.010815 203.889922 
L 179.010815 203.850485 
L 179.010815 203.895078 
L 185.469119 203.665098 
L 185.469119 203.645379 
L 185.469119 203.703955 
L 186.391733 203.585644 
L 186.391733 203.565925 
L 186.391733 203.594062 
L 189.159578 203.439331 
L 189.159578 203.399894 
L 189.159578 203.436998 
L 191.004807 203.291517 
L 191.004807 203.271798 
L 191.004807 203.300177 
L 195.617881 203.100362 
L 195.617881 202.922894 
L 195.617881 203.027877 
L 196.540496 202.909566 
L 196.540496 202.889847 
L 196.540496 202.932769 
L 198.385726 202.817832 
L 198.385726 202.738958 
L 198.385726 202.797874 
L 202.076185 202.626027 
L 202.076185 202.566871 
L 202.076185 202.624831 
L 204.84403 202.492497 
L 204.84403 202.433341 
L 204.84403 202.482295 
L 208.534489 202.388323 
L 208.534489 201.579862 
L 208.534489 201.713443 
L 210.379718 201.665172 
L 210.379718 201.665547 
L 210.379718 202.848662 
L 211.302333 202.828944 
L 211.302333 201.645829 
L 211.302333 201.664884 
L 214.992792 201.488187 
L 214.992792 201.468469 
L 214.992792 201.525901 
L 217.760637 201.364024 
L 217.760637 201.245712 
L 217.760637 201.274321 
L 221.451096 201.116542 
L 221.451096 201.077104 
L 221.451096 201.141163 
L 223.296326 201.004148 
L 223.296326 200.964711 
L 223.296326 201.191429 
L 224.21894 200.954806 
L 224.21894 200.678746 
L 224.21894 200.897074 
L 225.141555 200.864968 
L 225.141555 200.825531 
L 225.141555 200.707219 
L 225.141555 200.848629 
L 226.06417 200.710714 
L 226.06417 200.690996 
L 226.06417 200.694466 
L 228.832014 200.537144 
L 228.832014 200.458269 
L 228.832014 200.504498 
L 230.677244 200.354425 
L 230.677244 200.314988 
L 230.677244 200.327798 
L 237.135548 200.14161 
L 237.135548 199.845831 
L 237.221797 199.989123 
L 237.800418 200.026235 
L 237.800418 199.981276 
L 237.803247 200.514502 
L 237.806152 200.042819 
L 238.058162 200.329247 
L 238.058162 200.329247 
L 238.666939 200.372307 
L 238.861457 200.560788 
L 238.862866 201.499101 
L 238.866636 200.429586 
L 239.600029 200.368859 
L 239.600253 203.858965 
L 239.698452 200.799706 
L 239.71227 200.92976 
L 239.71637 202.585074 
L 239.713178 200.829579 
L 239.807361 201.444647 
L 239.856599 200.912245 
L 239.858543 201.957524 
L 239.858596 203.087466 
L 239.914604 200.99529 
L 239.956229 201.005477 
L 240.826007 200.571668 
L 240.826007 199.053337 
L 240.826007 199.080712 
L 241.122322 198.964663 
L 241.199986 198.886418 
L 241.248744 198.827609 
L 241.355731 180.530281 
L 241.365427 180.294336 
L 241.472254 168.470207 
L 241.49171 167.196745 
L 241.57875 153.513782 
L 241.748622 153.534228 
L 242.11377 153.441757 
L 242.327851 153.25855 
L 242.415478 152.274249 
L 242.483617 152.25212 
L 242.671237 151.069005 
L 242.746509 151.13597 
L 242.97035 151.017889 
L 243.077433 143.621975 
L 243.087129 143.365634 
L 243.194222 134.417574 
L 243.203897 134.240655 
L 243.311076 118.170509 
L 243.320794 116.948351 
L 243.437519 105.698697 
L 243.447226 104.567174 
L 243.554224 92.505297 
L 243.56393 92.249687 
L 243.651472 85.024031 
L 243.884859 84.966745 
L 243.991857 84.55872 
L 244.147719 84.461611 
L 244.251044 80.777185 
L 244.516466 80.737804 
L 244.516466 80.833801 
L 244.516466 80.95734 
L 245.049372 80.781417 
L 245.06886 80.68288 
L 245.185586 80.577012 
L 245.224477 80.537575 
L 246.361696 80.469843 
L 247.589991 80.311582 
L 247.697085 80.039772 
L 247.852925 79.819528 
L 249.488484 79.449595 
L 249.566351 79.31185 
L 250.97477 79.212301 
L 250.97477 79.348913 
L 250.97477 79.376751 
L 251.473943 79.275562 
L 251.649058 78.999313 
L 253.742614 78.955548 
L 253.742614 79.089453 
L 253.742614 79.603134 
L 254.335362 79.372748 
L 254.471619 78.714548 
L 256.510459 78.097759 
L 256.510459 78.135239 
L 256.510459 78.290458 
L 256.57313 78.285558 
L 256.806688 78.088935 
L 256.91375 77.713092 
L 257.059788 77.601656 
L 257.433073 77.581937 
L 257.433073 77.669775 
L 257.433073 79.148669 
L 257.721561 78.952637 
L 257.799396 78.697738 
L 257.838362 78.658656 
L 257.906501 78.267211 
L 258.013627 77.426816 
L 259.210762 77.311334 
L 259.210762 77.291926 
L 259.278303 77.307117 
L 260.679909 77.14664 
L 260.81609 77.068318 
L 261.536104 76.902051 
L 262.046147 76.766345 
L 262.046147 76.771429 
L 262.046147 77.111961 
L 262.061877 77.098576 
L 262.742989 76.991757 
L 262.75277 76.700182 
L 264.183496 76.618939 
L 264.261363 76.579615 
L 267.581836 76.467237 
L 267.581836 76.630542 
L 267.581836 76.746533 
L 267.581836 76.746533 
L 268.280984 76.537477 
L 268.358883 76.468213 
L 268.504451 76.418867 
L 268.504451 76.42294 
L 268.504451 76.760246 
L 268.9535 76.661056 
L 269.021649 76.408331 
L 269.427066 76.306664 
L 269.427066 76.352189 
L 269.882532 76.059211 
L 273.117525 75.865871 
L 273.117525 75.902096 
L 273.117525 76.218289 
L 273.416948 75.963887 
L 273.514378 75.183171 
L 273.592426 75.091981 
L 273.858703 74.683301 
L 274.325723 74.644813 
L 274.413361 74.429942 
L 274.666333 74.214302 
L 274.860957 74.117669 
L 274.962755 74.117669 
L 274.962755 74.118277 
L 274.962755 74.616693 
L 275.487791 74.184877 
L 275.585061 73.971061 
L 275.885369 73.914849 
L 275.885369 73.957193 
L 275.885369 74.197173 
L 275.885369 74.197173 
L 276.330104 74.029453 
L 276.398286 73.97828 
L 276.58346 73.844356 
L 276.681071 73.668563 
L 276.807984 73.735006 
L 276.807984 74.22912 
L 277.656021 74.064156 
L 277.730599 73.539694 
L 277.730599 73.53996 
L 280.099455 73.401363 
L 280.372011 73.244189 
L 280.839416 73.124792 
L 280.927139 73.078194 
L 281.421058 73.0137 
L 281.421058 73.12475 
L 281.421058 73.209779 
L 281.929917 73.122929 
L 281.929927 72.997048 
L 282.660299 72.895728 
L 282.855126 72.837796 
L 283.266288 72.719876 
L 283.266288 72.738615 
L 283.266288 72.915217 
L 283.563137 72.789118 
L 283.64109 72.568718 
L 284.188903 72.359292 
L 284.188903 72.364412 
L 284.188903 72.562567 
L 284.614437 72.557611 
L 284.721542 72.379847 
L 286.034132 72.443953 
L 286.445219 71.728244 
L 286.513326 71.688984 
L 288.519864 71.348821 
L 288.558829 71.309738 
L 290.238362 71.212972 
L 291.056286 71.088534 
L 292.926311 70.980171 
L 293.31698 70.901358 
L 293.415051 70.910039 
L 293.415051 71.097211 
L 293.433727 71.093957 
L 293.901282 70.950814 
L 293.940258 70.851306 
L 294.337666 70.816769 
L 294.337666 70.852867 
L 294.337666 70.953084 
L 294.388025 70.952672 
L 294.884614 70.852562 
L 294.923505 70.760793 
L 295.26028 70.72002 
L 295.26028 70.736318 
L 296.182895 70.663704 
L 296.182895 70.545392 
L 296.182895 70.671628 
L 298.95074 70.48892 
L 298.95074 70.527109 
L 298.95074 70.708397 
L 299.782609 70.322473 
L 299.873354 70.204405 
L 299.873354 70.356906 
L 300.182334 70.15972 
L 300.250441 70.002625 
L 300.795969 69.840086 
L 300.795969 69.6429 
L 300.795969 70.085583 
L 301.088825 69.967448 
L 301.088857 69.612514 
L 301.361936 69.51013 
L 302.00484 69.186297 
L 302.092521 69.091427 
L 302.287071 68.979586 
L 302.641199 68.526059 
L 302.641199 68.269717 
L 302.641199 68.553024 
L 303.563814 68.533305 
L 303.563814 68.395275 
L 303.563814 68.397339 
L 305.409043 68.222344 
L 305.409043 67.946284 
L 305.409043 68.190509 
L 306.331658 68.111635 
L 306.331658 67.796138 
L 306.331658 67.840986 
L 307.254273 67.742393 
L 307.254273 67.604363 
L 307.254273 67.776703 
L 308.176888 67.697828 
L 308.176888 67.559798 
L 308.176888 67.572001 
L 309.099502 67.493127 
L 309.099502 67.31566 
L 309.099502 67.389822 
L 310.944732 67.250313 
L 310.944732 67.230595 
L 310.944732 67.231309 
L 311.867347 66.915812 
L 311.867347 66.896093 
L 311.867347 67.157116 
L 312.789962 66.802182 
L 312.789962 66.828069 
L 313.712576 66.630883 
L 313.712576 66.216793 
L 313.712576 66.308085 
L 314.635191 66.09118 
L 314.635191 65.657371 
L 314.635191 65.822909 
L 316.480421 65.589623 
L 316.480421 65.589882 
L 318.325651 65.47231 
L 318.325651 65.373717 
L 318.325651 65.455654 
L 321.093495 65.002769 
L 321.093495 64.923895 
L 321.093495 65.189506 
L 321.963091 65.086236 
L 322.01611 64.909092 
L 322.01611 65.066463 
L 322.381824 64.930937 
L 322.938725 64.834505 
L 322.938725 64.84046 
L 325.706569 64.754359 
L 325.706569 63.354339 
L 325.706569 65.210012 
L 326.015485 65.092462 
L 326.11284 65.053379 
L 326.171411 64.91828 
L 326.200712 64.754977 
L 326.629184 64.655181 
L 326.629184 64.759969 
L 327.038124 64.695422 
L 327.194627 64.42319 
L 327.837179 64.32054 
L 327.924721 64.202806 
L 328.781845 63.950122 
L 328.850048 63.871836 
L 329.151841 63.674167 
L 329.397028 63.578321 
L 329.397028 63.579402 
L 331.242258 63.522656 
L 331.242258 63.553417 
L 331.242258 63.738203 
L 331.54718 63.638745 
L 331.644578 63.254719 
L 331.878232 62.980998 
L 332.164873 62.921842 
L 332.164873 62.724657 
L 332.164873 62.968497 
L 333.087487 62.753503 
L 333.087487 62.714066 
L 333.087487 63.815568 
L 333.5259 63.753542 
L 333.681677 62.827026 
L 334.010102 62.735142 
L 334.010102 62.715423 
L 334.010102 62.772726 
L 335.294128 62.636783 
L 337.700561 62.461456 
L 337.700561 62.205114 
L 337.700561 62.489055 
L 338.151511 62.37759 
L 338.473326 62.246128 
L 338.623176 62.148016 
L 338.623176 62.212756 
L 338.93159 62.161277 
L 339.19429 61.985557 
L 339.545791 61.911083 
L 339.545791 62.050719 
L 339.545791 62.065897 
L 339.837013 62.046421 
L 339.924597 61.606583 
L 340.468406 61.469784 
L 340.468406 61.560931 
L 340.764262 61.444087 
L 340.851996 61.353969 
L 341.690176 61.039494 
L 341.690176 60.883263 
L 342.245326 60.83885 
L 342.313635 60.83885 
L 342.313635 60.936443 
L 342.313635 60.952894 
L 343.201481 60.850543 
L 343.23625 60.830824 
L 343.23625 60.837667 
L 344.158865 60.738007 
L 344.158865 60.898527 
L 344.158865 61.114868 
L 344.878707 60.946585 
L 344.888393 60.661082 
L 345.170677 60.517799 
L 346.004095 60.319861 
L 346.004095 60.324514 
L 346.004095 60.642682 
L 346.095908 60.639836 
L 346.301136 60.613086 
L 346.486503 60.294574 
L 346.721342 60.205663 
L 347.486258 60.098794 
L 347.849324 60.079319 
L 347.849324 60.111933 
L 347.849324 60.707603 
L 348.226422 60.551191 
L 348.284843 60.081231 
L 349.508344 59.97575 
L 350.617169 59.956122 
L 350.617169 59.837811 
L 350.617169 60.029725 
L 351.176045 59.924084 
L 351.539783 59.899983 
L 351.539783 59.926794 
L 351.539783 62.798959 
L 352.287625 62.731846 
L 352.297374 60.005427 
L 354.307628 59.721457 
L 354.307628 59.869838 
L 354.307628 60.033349 
L 354.918027 60.029523 
L 355.230243 59.736201 
L 355.230243 59.736394 
L 357.075472 59.696964 
L 357.075472 58.671598 
L 357.075472 59.482966 
L 357.998087 59.305498 
L 357.998087 58.792815 
L 357.998087 58.907299 
L 358.920702 58.631239 
L 358.920702 58.532646 
L 358.920702 58.596735 
L 359.843317 58.478423 
L 359.843317 58.10377 
L 359.843317 58.398705 
L 360.765932 58.300113 
L 360.765932 58.142364 
L 360.765932 58.335954 
L 363.533776 57.947837 
L 363.533776 57.336561 
L 363.533776 57.954675 
L 364.456391 57.816645 
L 364.456391 57.831472 
L 365.379006 57.614568 
L 365.379006 57.515975 
L 365.379006 57.591689 
L 367.224235 57.465441 
L 367.224235 57.209099 
L 367.224235 57.383524 
L 369.99208 57.310232 
L 369.99208 56.501771 
L 369.99208 56.731473 
L 370.914694 56.711754 
L 370.914694 56.35682 
L 370.914694 56.414758 
L 371.837309 56.335884 
L 371.837309 56.059824 
L 371.837309 56.309825 
L 372.759924 56.191514 
L 372.759924 56.053484 
L 372.759924 56.139773 
L 373.682539 56.021462 
L 373.682539 55.922869 
L 373.682539 56.024338 
L 375.527768 55.985131 
L 375.527768 55.787945 
L 375.527768 55.999261 
L 376.450383 55.940105 
L 376.450383 55.683764 
L 376.450383 55.915284 
L 377.372998 55.836409 
L 377.372998 55.678661 
L 377.372998 55.802242 
L 379.218228 55.644862 
L 379.218228 55.783814 
L 379.218228 55.819334 
L 380.140842 55.779897 
L 380.140842 55.503837 
L 380.140842 55.573438 
L 381.986072 55.555689 
L 381.986072 55.555917 
L 382.908687 55.319294 
L 382.908687 55.043234 
L 382.908687 55.2761 
L 383.831302 55.098633 
L 383.831302 54.704261 
L 383.831302 54.773181 
L 384.753916 54.635151 
L 384.753916 54.280216 
L 384.753916 54.382823 
L 385.676531 54.264512 
L 385.676531 54.1462 
L 385.676531 54.205683 
L 387.521761 54.091876 
L 387.521761 54.052438 
L 387.521761 54.089706 
L 389.36699 53.952414 
L 389.36699 53.617198 
L 389.36699 53.704751 
L 390.289605 53.606158 
L 390.289605 53.270942 
L 390.289605 53.370529 
L 391.21222 53.232499 
L 391.21222 53.193062 
L 391.21222 53.255667 
L 392.134835 53.176793 
L 392.134835 53.0782 
L 392.134835 53.137708 
L 393.05745 53.039115 
L 393.05745 52.802492 
L 393.05745 52.885551 
L 393.980064 52.826395 
L 393.980064 52.832817 
L 394.902679 52.675068 
L 394.902679 52.785042 
L 394.902679 52.807673 
L 394.902679 52.807673 
L 395.825294 52.70908 
L 395.825294 52.765458 
L 396.747909 52.568272 
L 396.747909 52.154182 
L 396.747909 52.230508 
L 397.670524 52.230778 
L 397.670524 52.322065 
L 397.670524 52.361502 
L 397.670524 52.361502 
" style="fill:none;stroke:#008000;stroke-linecap:square;stroke-width:1.5;"/>
   </g>
   <g id="line2d_30">
    <defs>
     <path d="M 0 3 
C 0.795609 3 1.55874 2.683901 2.12132 2.12132 
C 2.683901 1.55874 3 0.795609 3 0 
C 3 -0.795609 2.683901 -1.55874 2.12132 -2.12132 
C 1.55874 -2.683901 0.795609 -3 0 -3 
C -0.795609 -3 -1.55874 -2.683901 -2.12132 -2.12132 
C -2.683901 -1.55874 -3 -0.795609 -3 0 
C -3 0.795609 -2.683901 1.55874 -2.12132 2.12132 
C -1.55874 2.683901 -0.795609 3 0 3 
z
" id="mefc589080f" style="stroke:#bfbf00;"/>
    </defs>
    <g clip-path="url(#pd5ef8c1880)">
     <use style="fill:#bfbf00;stroke:#bfbf00;" x="76.632906" xlink:href="#mefc589080f" y="255.938527"/>
     <use style="fill:#bfbf00;stroke:#bfbf00;" x="79.770725" xlink:href="#mefc589080f" y="226.360652"/>
     <use style="fill:#bfbf00;stroke:#bfbf00;" x="241.247836" xlink:href="#mefc589080f" y="216.50136"/>
     <use style="fill:#bfbf00;stroke:#bfbf00;" x="243.000804" xlink:href="#mefc589080f" y="216.50136"/>
     <use style="fill:#bfbf00;stroke:#bfbf00;" x="243.348472" xlink:href="#mefc589080f" y="255.938527"/>
     <use style="fill:#bfbf00;stroke:#bfbf00;" x="243.413226" xlink:href="#mefc589080f" y="255.938527"/>
     <use style="fill:#bfbf00;stroke:#bfbf00;" x="244.148616" xlink:href="#mefc589080f" y="261.854102"/>
    </g>
   </g>
   <g id="line2d_31">
    <defs>
     <path d="M 0 3 
C 0.795609 3 1.55874 2.683901 2.12132 2.12132 
C 2.683901 1.55874 3 0.795609 3 0 
C 3 -0.795609 2.683901 -1.55874 2.12132 -2.12132 
C 1.55874 -2.683901 0.795609 -3 0 -3 
C -0.795609 -3 -1.55874 -2.683901 -2.12132 -2.12132 
C -2.683901 -1.55874 -3 -0.795609 -3 0 
C -3 0.795609 -2.683901 1.55874 -2.12132 2.12132 
C -1.55874 2.683901 -0.795609 3 0 3 
z
" id="m07fc4cfa29" style="stroke:#008000;"/>
    </defs>
    <g clip-path="url(#pd5ef8c1880)">
     <use style="fill:#008000;stroke:#008000;" x="120.501702" xlink:href="#m07fc4cfa29" y="257.399279"/>
     <use style="fill:#008000;stroke:#008000;" x="209.072937" xlink:href="#m07fc4cfa29" y="263.831284"/>
    </g>
   </g>
   <g id="patch_3">
    <path d="M 57.6 276.48 
L 57.6 41.472 
" style="fill:none;stroke:#000000;stroke-linecap:square;stroke-linejoin:miter;stroke-width:0.8;"/>
   </g>
   <g id="patch_4">
    <path d="M 414.72 276.48 
L 414.72 41.472 
" style="fill:none;stroke:#000000;stroke-linecap:square;stroke-linejoin:miter;stroke-width:0.8;"/>
   </g>
   <g id="patch_5">
    <path d="M 57.6 276.48 
L 414.72 276.48 
" style="fill:none;stroke:#000000;stroke-linecap:square;stroke-linejoin:miter;stroke-width:0.8;"/>
   </g>
   <g id="patch_6">
    <path d="M 57.6 41.472 
L 414.72 41.472 
" style="fill:none;stroke:#000000;stroke-linecap:square;stroke-linejoin:miter;stroke-width:0.8;"/>
   </g>
   <g id="text_16">
    <!-- My Bondora earnings -->
    <defs>
     <path d="M 9.8125 72.90625 
L 24.515625 72.90625 
L 43.109375 23.296875 
L 61.8125 72.90625 
L 76.515625 72.90625 
L 76.515625 0 
L 66.890625 0 
L 66.890625 64.015625 
L 48.09375 14.015625 
L 38.1875 14.015625 
L 19.390625 64.015625 
L 19.390625 0 
L 9.8125 0 
z
" id="DejaVuSans-4d"/>
     <path d="M 32.171875 -5.078125 
Q 28.375 -14.84375 24.75 -17.8125 
Q 21.140625 -20.796875 15.09375 -20.796875 
L 7.90625 -20.796875 
L 7.90625 -13.28125 
L 13.1875 -13.28125 
Q 16.890625 -13.28125 18.9375 -11.515625 
Q 21 -9.765625 23.484375 -3.21875 
L 25.09375 0.875 
L 2.984375 54.6875 
L 12.5 54.6875 
L 29.59375 11.921875 
L 46.6875 54.6875 
L 56.203125 54.6875 
z
" id="DejaVuSans-79"/>
     <path id="DejaVuSans-20"/>
     <path d="M 19.671875 34.8125 
L 19.671875 8.109375 
L 35.5 8.109375 
Q 43.453125 8.109375 47.28125 11.40625 
Q 51.125 14.703125 51.125 21.484375 
Q 51.125 28.328125 47.28125 31.5625 
Q 43.453125 34.8125 35.5 34.8125 
z
M 19.671875 64.796875 
L 19.671875 42.828125 
L 34.28125 42.828125 
Q 41.5 42.828125 45.03125 45.53125 
Q 48.578125 48.25 48.578125 53.8125 
Q 48.578125 59.328125 45.03125 62.0625 
Q 41.5 64.796875 34.28125 64.796875 
z
M 9.8125 72.90625 
L 35.015625 72.90625 
Q 46.296875 72.90625 52.390625 68.21875 
Q 58.5 63.53125 58.5 54.890625 
Q 58.5 48.1875 55.375 44.234375 
Q 52.25 40.28125 46.1875 39.3125 
Q 53.46875 37.75 57.5 32.78125 
Q 61.53125 27.828125 61.53125 20.40625 
Q 61.53125 10.640625 54.890625 5.3125 
Q 48.25 0 35.984375 0 
L 9.8125 0 
z
" id="DejaVuSans-42"/>
     <path d="M 30.609375 48.390625 
Q 23.390625 48.390625 19.1875 42.75 
Q 14.984375 37.109375 14.984375 27.296875 
Q 14.984375 17.484375 19.15625 11.84375 
Q 23.34375 6.203125 30.609375 6.203125 
Q 37.796875 6.203125 41.984375 11.859375 
Q 46.1875 17.53125 46.1875 27.296875 
Q 46.1875 37.015625 41.984375 42.703125 
Q 37.796875 48.390625 30.609375 48.390625 
z
M 30.609375 56 
Q 42.328125 56 49.015625 48.375 
Q 55.71875 40.765625 55.71875 27.296875 
Q 55.71875 13.875 49.015625 6.21875 
Q 42.328125 -1.421875 30.609375 -1.421875 
Q 18.84375 -1.421875 12.171875 6.21875 
Q 5.515625 13.875 5.515625 27.296875 
Q 5.515625 40.765625 12.171875 48.375 
Q 18.84375 56 30.609375 56 
z
" id="DejaVuSans-6f"/>
     <path d="M 54.890625 33.015625 
L 54.890625 0 
L 45.90625 0 
L 45.90625 32.71875 
Q 45.90625 40.484375 42.875 44.328125 
Q 39.84375 48.1875 33.796875 48.1875 
Q 26.515625 48.1875 22.3125 43.546875 
Q 18.109375 38.921875 18.109375 30.90625 
L 18.109375 0 
L 9.078125 0 
L 9.078125 54.6875 
L 18.109375 54.6875 
L 18.109375 46.1875 
Q 21.34375 51.125 25.703125 53.5625 
Q 30.078125 56 35.796875 56 
Q 45.21875 56 50.046875 50.171875 
Q 54.890625 44.34375 54.890625 33.015625 
z
" id="DejaVuSans-6e"/>
     <path d="M 41.109375 46.296875 
Q 39.59375 47.171875 37.8125 47.578125 
Q 36.03125 48 33.890625 48 
Q 26.265625 48 22.1875 43.046875 
Q 18.109375 38.09375 18.109375 28.8125 
L 18.109375 0 
L 9.078125 0 
L 9.078125 54.6875 
L 18.109375 54.6875 
L 18.109375 46.1875 
Q 20.953125 51.171875 25.484375 53.578125 
Q 30.03125 56 36.53125 56 
Q 37.453125 56 38.578125 55.875 
Q 39.703125 55.765625 41.0625 55.515625 
z
" id="DejaVuSans-72"/>
     <path d="M 9.421875 54.6875 
L 18.40625 54.6875 
L 18.40625 0 
L 9.421875 0 
z
M 9.421875 75.984375 
L 18.40625 75.984375 
L 18.40625 64.59375 
L 9.421875 64.59375 
z
" id="DejaVuSans-69"/>
     <path d="M 45.40625 27.984375 
Q 45.40625 37.75 41.375 43.109375 
Q 37.359375 48.484375 30.078125 48.484375 
Q 22.859375 48.484375 18.828125 43.109375 
Q 14.796875 37.75 14.796875 27.984375 
Q 14.796875 18.265625 18.828125 12.890625 
Q 22.859375 7.515625 30.078125 7.515625 
Q 37.359375 7.515625 41.375 12.890625 
Q 45.40625 18.265625 45.40625 27.984375 
z
M 54.390625 6.78125 
Q 54.390625 -7.171875 48.1875 -13.984375 
Q 42 -20.796875 29.203125 -20.796875 
Q 24.46875 -20.796875 20.265625 -20.09375 
Q 16.0625 -19.390625 12.109375 -17.921875 
L 12.109375 -9.1875 
Q 16.0625 -11.328125 19.921875 -12.34375 
Q 23.78125 -13.375 27.78125 -13.375 
Q 36.625 -13.375 41.015625 -8.765625 
Q 45.40625 -4.15625 45.40625 5.171875 
L 45.40625 9.625 
Q 42.625 4.78125 38.28125 2.390625 
Q 33.9375 0 27.875 0 
Q 17.828125 0 11.671875 7.65625 
Q 5.515625 15.328125 5.515625 27.984375 
Q 5.515625 40.671875 11.671875 48.328125 
Q 17.828125 56 27.875 56 
Q 33.9375 56 38.28125 53.609375 
Q 42.625 51.21875 45.40625 46.390625 
L 45.40625 54.6875 
L 54.390625 54.6875 
z
" id="DejaVuSans-67"/>
     <path d="M 44.28125 53.078125 
L 44.28125 44.578125 
Q 40.484375 46.53125 36.375 47.5 
Q 32.28125 48.484375 27.875 48.484375 
Q 21.1875 48.484375 17.84375 46.4375 
Q 14.5 44.390625 14.5 40.28125 
Q 14.5 37.15625 16.890625 35.375 
Q 19.28125 33.59375 26.515625 31.984375 
L 29.59375 31.296875 
Q 39.15625 29.25 43.1875 25.515625 
Q 47.21875 21.78125 47.21875 15.09375 
Q 47.21875 7.46875 41.1875 3.015625 
Q 35.15625 -1.421875 24.609375 -1.421875 
Q 20.21875 -1.421875 15.453125 -0.5625 
Q 10.6875 0.296875 5.421875 2 
L 5.421875 11.28125 
Q 10.40625 8.6875 15.234375 7.390625 
Q 20.0625 6.109375 24.8125 6.109375 
Q 31.15625 6.109375 34.5625 8.28125 
Q 37.984375 10.453125 37.984375 14.40625 
Q 37.984375 18.0625 35.515625 20.015625 
Q 33.0625 21.96875 24.703125 23.78125 
L 21.578125 24.515625 
Q 13.234375 26.265625 9.515625 29.90625 
Q 5.8125 33.546875 5.8125 39.890625 
Q 5.8125 47.609375 11.28125 51.796875 
Q 16.75 56 26.8125 56 
Q 31.78125 56 36.171875 55.265625 
Q 40.578125 54.546875 44.28125 53.078125 
z
" id="DejaVuSans-73"/>
    </defs>
    <g transform="translate(172.363125 35.472)scale(0.12 -0.12)">
     <use xlink:href="#DejaVuSans-4d"/>
     <use x="86.279297" xlink:href="#DejaVuSans-79"/>
     <use x="145.458984" xlink:href="#DejaVuSans-20"/>
     <use x="177.246094" xlink:href="#DejaVuSans-42"/>
     <use x="245.849609" xlink:href="#DejaVuSans-6f"/>
     <use x="307.03125" xlink:href="#DejaVuSans-6e"/>
     <use x="370.410156" xlink:href="#DejaVuSans-64"/>
     <use x="433.886719" xlink:href="#DejaVuSans-6f"/>
     <use x="495.068359" xlink:href="#DejaVuSans-72"/>
     <use x="536.181641" xlink:href="#DejaVuSans-61"/>
     <use x="597.460938" xlink:href="#DejaVuSans-20"/>
     <use x="629.248047" xlink:href="#DejaVuSans-65"/>
     <use x="690.771484" xlink:href="#DejaVuSans-61"/>
     <use x="752.050781" xlink:href="#DejaVuSans-72"/>
     <use x="793.148438" xlink:href="#DejaVuSans-6e"/>
     <use x="856.527344" xlink:href="#DejaVuSans-69"/>
     <use x="884.310547" xlink:href="#DejaVuSans-6e"/>
     <use x="947.689453" xlink:href="#DejaVuSans-67"/>
     <use x="1011.166016" xlink:href="#DejaVuSans-73"/>
    </g>
   </g>
   <g id="legend_1">
    <g id="patch_7">
     <path d="M 64.6 122.862625 
L 158.45 122.862625 
Q 160.45 122.862625 160.45 120.862625 
L 160.45 48.472 
Q 160.45 46.472 158.45 46.472 
L 64.6 46.472 
Q 62.6 46.472 62.6 48.472 
L 62.6 120.862625 
Q 62.6 122.862625 64.6 122.862625 
z
" style="fill:#ffffff;opacity:0.8;stroke:#cccccc;stroke-linejoin:miter;"/>
    </g>
    <g id="line2d_32">
     <path d="M 66.6 54.570437 
L 86.6 54.570437 
" style="fill:none;stroke:#0000ff;stroke-linecap:square;stroke-width:1.5;"/>
    </g>
    <g id="line2d_33"/>
    <g id="text_17">
     <!-- Interest -->
     <defs>
      <path d="M 9.8125 72.90625 
L 19.671875 72.90625 
L 19.671875 0 
L 9.8125 0 
z
" id="DejaVuSans-49"/>
     </defs>
     <g transform="translate(94.6 58.070437)scale(0.1 -0.1)">
      <use xlink:href="#DejaVuSans-49"/>
      <use x="29.492188" xlink:href="#DejaVuSans-6e"/>
      <use x="92.871094" xlink:href="#DejaVuSans-74"/>
      <use x="132.080078" xlink:href="#DejaVuSans-65"/>
      <use x="193.603516" xlink:href="#DejaVuSans-72"/>
      <use x="234.685547" xlink:href="#DejaVuSans-65"/>
      <use x="296.208984" xlink:href="#DejaVuSans-73"/>
      <use x="348.308594" xlink:href="#DejaVuSans-74"/>
     </g>
    </g>
    <g id="line2d_34">
     <path d="M 66.6 69.248562 
L 86.6 69.248562 
" style="fill:none;stroke:#ff0000;stroke-linecap:square;stroke-width:1.5;"/>
    </g>
    <g id="line2d_35"/>
    <g id="text_18">
     <!-- Balance -->
     <defs>
      <path d="M 9.421875 75.984375 
L 18.40625 75.984375 
L 18.40625 0 
L 9.421875 0 
z
" id="DejaVuSans-6c"/>
      <path d="M 48.78125 52.59375 
L 48.78125 44.1875 
Q 44.96875 46.296875 41.140625 47.34375 
Q 37.3125 48.390625 33.40625 48.390625 
Q 24.65625 48.390625 19.8125 42.84375 
Q 14.984375 37.3125 14.984375 27.296875 
Q 14.984375 17.28125 19.8125 11.734375 
Q 24.65625 6.203125 33.40625 6.203125 
Q 37.3125 6.203125 41.140625 7.25 
Q 44.96875 8.296875 48.78125 10.40625 
L 48.78125 2.09375 
Q 45.015625 0.34375 40.984375 -0.53125 
Q 36.96875 -1.421875 32.421875 -1.421875 
Q 20.0625 -1.421875 12.78125 6.34375 
Q 5.515625 14.109375 5.515625 27.296875 
Q 5.515625 40.671875 12.859375 48.328125 
Q 20.21875 56 33.015625 56 
Q 37.15625 56 41.109375 55.140625 
Q 45.0625 54.296875 48.78125 52.59375 
z
" id="DejaVuSans-63"/>
     </defs>
     <g transform="translate(94.6 72.748562)scale(0.1 -0.1)">
      <use xlink:href="#DejaVuSans-42"/>
      <use x="68.603516" xlink:href="#DejaVuSans-61"/>
      <use x="129.882812" xlink:href="#DejaVuSans-6c"/>
      <use x="157.666016" xlink:href="#DejaVuSans-61"/>
      <use x="218.945312" xlink:href="#DejaVuSans-6e"/>
      <use x="282.324219" xlink:href="#DejaVuSans-63"/>
      <use x="337.304688" xlink:href="#DejaVuSans-65"/>
     </g>
    </g>
    <g id="line2d_36">
     <path d="M 66.6 83.926687 
L 86.6 83.926687 
" style="fill:none;stroke:#008000;stroke-linecap:square;stroke-width:1.5;"/>
    </g>
    <g id="line2d_37"/>
    <g id="text_19">
     <!-- Investments -->
     <defs>
      <path d="M 2.984375 54.6875 
L 12.5 54.6875 
L 29.59375 8.796875 
L 46.6875 54.6875 
L 56.203125 54.6875 
L 35.6875 0 
L 23.484375 0 
z
" id="DejaVuSans-76"/>
      <path d="M 52 44.1875 
Q 55.375 50.25 60.0625 53.125 
Q 64.75 56 71.09375 56 
Q 79.640625 56 84.28125 50.015625 
Q 88.921875 44.046875 88.921875 33.015625 
L 88.921875 0 
L 79.890625 0 
L 79.890625 32.71875 
Q 79.890625 40.578125 77.09375 44.375 
Q 74.3125 48.1875 68.609375 48.1875 
Q 61.625 48.1875 57.5625 43.546875 
Q 53.515625 38.921875 53.515625 30.90625 
L 53.515625 0 
L 44.484375 0 
L 44.484375 32.71875 
Q 44.484375 40.625 41.703125 44.40625 
Q 38.921875 48.1875 33.109375 48.1875 
Q 26.21875 48.1875 22.15625 43.53125 
Q 18.109375 38.875 18.109375 30.90625 
L 18.109375 0 
L 9.078125 0 
L 9.078125 54.6875 
L 18.109375 54.6875 
L 18.109375 46.1875 
Q 21.1875 51.21875 25.484375 53.609375 
Q 29.78125 56 35.6875 56 
Q 41.65625 56 45.828125 52.96875 
Q 50 49.953125 52 44.1875 
z
" id="DejaVuSans-6d"/>
     </defs>
     <g transform="translate(94.6 87.426687)scale(0.1 -0.1)">
      <use xlink:href="#DejaVuSans-49"/>
      <use x="29.492188" xlink:href="#DejaVuSans-6e"/>
      <use x="92.871094" xlink:href="#DejaVuSans-76"/>
      <use x="152.050781" xlink:href="#DejaVuSans-65"/>
      <use x="213.574219" xlink:href="#DejaVuSans-73"/>
      <use x="265.673828" xlink:href="#DejaVuSans-74"/>
      <use x="304.882812" xlink:href="#DejaVuSans-6d"/>
      <use x="402.294922" xlink:href="#DejaVuSans-65"/>
      <use x="463.818359" xlink:href="#DejaVuSans-6e"/>
      <use x="527.197266" xlink:href="#DejaVuSans-74"/>
      <use x="566.40625" xlink:href="#DejaVuSans-73"/>
     </g>
    </g>
    <g id="line2d_38"/>
    <g id="line2d_39">
     <g>
      <use style="fill:#bfbf00;stroke:#bfbf00;" x="76.6" xlink:href="#mefc589080f" y="98.604812"/>
     </g>
    </g>
    <g id="text_20">
     <!-- Deposits -->
     <defs>
      <path d="M 19.671875 64.796875 
L 19.671875 8.109375 
L 31.59375 8.109375 
Q 46.6875 8.109375 53.6875 14.9375 
Q 60.6875 21.78125 60.6875 36.53125 
Q 60.6875 51.171875 53.6875 57.984375 
Q 46.6875 64.796875 31.59375 64.796875 
z
M 9.8125 72.90625 
L 30.078125 72.90625 
Q 51.265625 72.90625 61.171875 64.09375 
Q 71.09375 55.28125 71.09375 36.53125 
Q 71.09375 17.671875 61.125 8.828125 
Q 51.171875 0 30.078125 0 
L 9.8125 0 
z
" id="DejaVuSans-44"/>
      <path d="M 18.109375 8.203125 
L 18.109375 -20.796875 
L 9.078125 -20.796875 
L 9.078125 54.6875 
L 18.109375 54.6875 
L 18.109375 46.390625 
Q 20.953125 51.265625 25.265625 53.625 
Q 29.59375 56 35.59375 56 
Q 45.5625 56 51.78125 48.09375 
Q 58.015625 40.1875 58.015625 27.296875 
Q 58.015625 14.40625 51.78125 6.484375 
Q 45.5625 -1.421875 35.59375 -1.421875 
Q 29.59375 -1.421875 25.265625 0.953125 
Q 20.953125 3.328125 18.109375 8.203125 
z
M 48.6875 27.296875 
Q 48.6875 37.203125 44.609375 42.84375 
Q 40.53125 48.484375 33.40625 48.484375 
Q 26.265625 48.484375 22.1875 42.84375 
Q 18.109375 37.203125 18.109375 27.296875 
Q 18.109375 17.390625 22.1875 11.75 
Q 26.265625 6.109375 33.40625 6.109375 
Q 40.53125 6.109375 44.609375 11.75 
Q 48.6875 17.390625 48.6875 27.296875 
z
" id="DejaVuSans-70"/>
     </defs>
     <g transform="translate(94.6 102.104812)scale(0.1 -0.1)">
      <use xlink:href="#DejaVuSans-44"/>
      <use x="77.001953" xlink:href="#DejaVuSans-65"/>
      <use x="138.525391" xlink:href="#DejaVuSans-70"/>
      <use x="202.001953" xlink:href="#DejaVuSans-6f"/>
      <use x="263.183594" xlink:href="#DejaVuSans-73"/>
      <use x="315.283203" xlink:href="#DejaVuSans-69"/>
      <use x="343.066406" xlink:href="#DejaVuSans-74"/>
      <use x="382.275391" xlink:href="#DejaVuSans-73"/>
     </g>
    </g>
    <g id="line2d_40"/>
    <g id="line2d_41">
     <g>
      <use style="fill:#008000;stroke:#008000;" x="76.6" xlink:href="#m07fc4cfa29" y="113.282937"/>
     </g>
    </g>
    <g id="text_21">
     <!-- Commission -->
     <defs>
      <path d="M 64.40625 67.28125 
L 64.40625 56.890625 
Q 59.421875 61.53125 53.78125 63.8125 
Q 48.140625 66.109375 41.796875 66.109375 
Q 29.296875 66.109375 22.65625 58.46875 
Q 16.015625 50.828125 16.015625 36.375 
Q 16.015625 21.96875 22.65625 14.328125 
Q 29.296875 6.6875 41.796875 6.6875 
Q 48.140625 6.6875 53.78125 8.984375 
Q 59.421875 11.28125 64.40625 15.921875 
L 64.40625 5.609375 
Q 59.234375 2.09375 53.4375 0.328125 
Q 47.65625 -1.421875 41.21875 -1.421875 
Q 24.65625 -1.421875 15.125 8.703125 
Q 5.609375 18.84375 5.609375 36.375 
Q 5.609375 53.953125 15.125 64.078125 
Q 24.65625 74.21875 41.21875 74.21875 
Q 47.75 74.21875 53.53125 72.484375 
Q 59.328125 70.75 64.40625 67.28125 
z
" id="DejaVuSans-43"/>
     </defs>
     <g transform="translate(94.6 116.782937)scale(0.1 -0.1)">
      <use xlink:href="#DejaVuSans-43"/>
      <use x="69.824219" xlink:href="#DejaVuSans-6f"/>
      <use x="131.005859" xlink:href="#DejaVuSans-6d"/>
      <use x="228.417969" xlink:href="#DejaVuSans-6d"/>
      <use x="325.830078" xlink:href="#DejaVuSans-69"/>
      <use x="353.613281" xlink:href="#DejaVuSans-73"/>
      <use x="405.712891" xlink:href="#DejaVuSans-73"/>
      <use x="457.8125" xlink:href="#DejaVuSans-69"/>
      <use x="485.595703" xlink:href="#DejaVuSans-6f"/>
      <use x="546.777344" xlink:href="#DejaVuSans-6e"/>
     </g>
    </g>
   </g>
  </g>
 </g>
 <defs>
  <clipPath id="pd5ef8c1880">
   <rect height="235.008" width="357.12" x="57.6" y="41.472"/>
  </clipPath>
 </defs>
</svg>
