<?xml version="1.0" encoding="utf-8" standalone="no"?>
<!DOCTYPE svg PUBLIC "-//W3C//DTD SVG 1.1//EN"
  "http://www.w3.org/Graphics/SVG/1.1/DTD/svg11.dtd">
<!-- Created with matplotlib (http://matplotlib.org/) -->
<svg height="345.6pt" version="1.1" viewBox="0 0 460.8 345.6" width="460.8pt" xmlns="http://www.w3.org/2000/svg" xmlns:xlink="http://www.w3.org/1999/xlink">
 <defs>
  <style type="text/css">
*{stroke-linecap:butt;stroke-linejoin:round;}
  </style>
 </defs>
 <g id="figure_1">
  <g id="patch_1">
   <path d="M 0 345.6 
L 460.8 345.6 
L 460.8 0 
L 0 0 
z
" style="fill:#ffffff;"/>
  </g>
  <g id="axes_1">
   <g id="patch_2">
    <path d="M 57.6 276.48 
L 414.72 276.48 
L 414.72 41.472 
L 57.6 41.472 
z
" style="fill:#ffffff;"/>
   </g>
   <g id="matplotlib.axis_1">
    <g id="xtick_1">
     <g id="line2d_1">
      <path clip-path="url(#p54cac3d549)" d="M 73.832727 276.48 
L 73.832727 41.472 
" style="fill:none;stroke:#b0b0b0;stroke-linecap:square;stroke-width:0.8;"/>
     </g>
     <g id="line2d_2">
      <defs>
       <path d="M 0 0 
L 0 3.5 
" id="mae8d2fa0f2" style="stroke:#000000;stroke-width:0.8;"/>
      </defs>
      <g>
       <use style="stroke:#000000;stroke-width:0.8;" x="73.832727" xlink:href="#mae8d2fa0f2" y="276.48"/>
      </g>
     </g>
     <g id="text_1">
      <!-- 2019-01 -->
      <defs>
       <path d="M 19.1875 8.296875 
L 53.609375 8.296875 
L 53.609375 0 
L 7.328125 0 
L 7.328125 8.296875 
Q 12.9375 14.109375 22.625 23.890625 
Q 32.328125 33.6875 34.8125 36.53125 
Q 39.546875 41.84375 41.421875 45.53125 
Q 43.3125 49.21875 43.3125 52.78125 
Q 43.3125 58.59375 39.234375 62.25 
Q 35.15625 65.921875 28.609375 65.921875 
Q 23.96875 65.921875 18.8125 64.3125 
Q 13.671875 62.703125 7.8125 59.421875 
L 7.8125 69.390625 
Q 13.765625 71.78125 18.9375 73 
Q 24.125 74.21875 28.421875 74.21875 
Q 39.75 74.21875 46.484375 68.546875 
Q 53.21875 62.890625 53.21875 53.421875 
Q 53.21875 48.921875 51.53125 44.890625 
Q 49.859375 40.875 45.40625 35.40625 
Q 44.1875 33.984375 37.640625 27.21875 
Q 31.109375 20.453125 19.1875 8.296875 
z
" id="DejaVuSans-32"/>
       <path d="M 31.78125 66.40625 
Q 24.171875 66.40625 20.328125 58.90625 
Q 16.5 51.421875 16.5 36.375 
Q 16.5 21.390625 20.328125 13.890625 
Q 24.171875 6.390625 31.78125 6.390625 
Q 39.453125 6.390625 43.28125 13.890625 
Q 47.125 21.390625 47.125 36.375 
Q 47.125 51.421875 43.28125 58.90625 
Q 39.453125 66.40625 31.78125 66.40625 
z
M 31.78125 74.21875 
Q 44.046875 74.21875 50.515625 64.515625 
Q 56.984375 54.828125 56.984375 36.375 
Q 56.984375 17.96875 50.515625 8.265625 
Q 44.046875 -1.421875 31.78125 -1.421875 
Q 19.53125 -1.421875 13.0625 8.265625 
Q 6.59375 17.96875 6.59375 36.375 
Q 6.59375 54.828125 13.0625 64.515625 
Q 19.53125 74.21875 31.78125 74.21875 
z
" id="DejaVuSans-30"/>
       <path d="M 12.40625 8.296875 
L 28.515625 8.296875 
L 28.515625 63.921875 
L 10.984375 60.40625 
L 10.984375 69.390625 
L 28.421875 72.90625 
L 38.28125 72.90625 
L 38.28125 8.296875 
L 54.390625 8.296875 
L 54.390625 0 
L 12.40625 0 
z
" id="DejaVuSans-31"/>
       <path d="M 10.984375 1.515625 
L 10.984375 10.5 
Q 14.703125 8.734375 18.5 7.8125 
Q 22.3125 6.890625 25.984375 6.890625 
Q 35.75 6.890625 40.890625 13.453125 
Q 46.046875 20.015625 46.78125 33.40625 
Q 43.953125 29.203125 39.59375 26.953125 
Q 35.25 24.703125 29.984375 24.703125 
Q 19.046875 24.703125 12.671875 31.3125 
Q 6.296875 37.9375 6.296875 49.421875 
Q 6.296875 60.640625 12.9375 67.421875 
Q 19.578125 74.21875 30.609375 74.21875 
Q 43.265625 74.21875 49.921875 64.515625 
Q 56.59375 54.828125 56.59375 36.375 
Q 56.59375 19.140625 48.40625 8.859375 
Q 40.234375 -1.421875 26.421875 -1.421875 
Q 22.703125 -1.421875 18.890625 -0.6875 
Q 15.09375 0.046875 10.984375 1.515625 
z
M 30.609375 32.421875 
Q 37.25 32.421875 41.125 36.953125 
Q 45.015625 41.5 45.015625 49.421875 
Q 45.015625 57.28125 41.125 61.84375 
Q 37.25 66.40625 30.609375 66.40625 
Q 23.96875 66.40625 20.09375 61.84375 
Q 16.21875 57.28125 16.21875 49.421875 
Q 16.21875 41.5 20.09375 36.953125 
Q 23.96875 32.421875 30.609375 32.421875 
z
" id="DejaVuSans-39"/>
       <path d="M 4.890625 31.390625 
L 31.203125 31.390625 
L 31.203125 23.390625 
L 4.890625 23.390625 
z
" id="DejaVuSans-2d"/>
      </defs>
      <g transform="translate(36.607906 310.951846)rotate(-30)scale(0.1 -0.1)">
       <use xlink:href="#DejaVuSans-32"/>
       <use x="63.623047" xlink:href="#DejaVuSans-30"/>
       <use x="127.246094" xlink:href="#DejaVuSans-31"/>
       <use x="190.869141" xlink:href="#DejaVuSans-39"/>
       <use x="254.492188" xlink:href="#DejaVuSans-2d"/>
       <use x="290.576172" xlink:href="#DejaVuSans-30"/>
       <use x="354.199219" xlink:href="#DejaVuSans-31"/>
      </g>
     </g>
    </g>
    <g id="xtick_2">
     <g id="line2d_3">
      <path clip-path="url(#p54cac3d549)" d="M 130.092797 276.48 
L 130.092797 41.472 
" style="fill:none;stroke:#b0b0b0;stroke-linecap:square;stroke-width:0.8;"/>
     </g>
     <g id="line2d_4">
      <g>
       <use style="stroke:#000000;stroke-width:0.8;" x="130.092797" xlink:href="#mae8d2fa0f2" y="276.48"/>
      </g>
     </g>
     <g id="text_2">
      <!-- 2019-02 -->
      <g transform="translate(92.867976 310.951846)rotate(-30)scale(0.1 -0.1)">
       <use xlink:href="#DejaVuSans-32"/>
       <use x="63.623047" xlink:href="#DejaVuSans-30"/>
       <use x="127.246094" xlink:href="#DejaVuSans-31"/>
       <use x="190.869141" xlink:href="#DejaVuSans-39"/>
       <use x="254.492188" xlink:href="#DejaVuSans-2d"/>
       <use x="290.576172" xlink:href="#DejaVuSans-30"/>
       <use x="354.199219" xlink:href="#DejaVuSans-32"/>
      </g>
     </g>
    </g>
    <g id="xtick_3">
     <g id="line2d_5">
      <path clip-path="url(#p54cac3d549)" d="M 180.908343 276.48 
L 180.908343 41.472 
" style="fill:none;stroke:#b0b0b0;stroke-linecap:square;stroke-width:0.8;"/>
     </g>
     <g id="line2d_6">
      <g>
       <use style="stroke:#000000;stroke-width:0.8;" x="180.908343" xlink:href="#mae8d2fa0f2" y="276.48"/>
      </g>
     </g>
     <g id="text_3">
      <!-- 2019-03 -->
      <defs>
       <path d="M 40.578125 39.3125 
Q 47.65625 37.796875 51.625 33 
Q 55.609375 28.21875 55.609375 21.1875 
Q 55.609375 10.40625 48.1875 4.484375 
Q 40.765625 -1.421875 27.09375 -1.421875 
Q 22.515625 -1.421875 17.65625 -0.515625 
Q 12.796875 0.390625 7.625 2.203125 
L 7.625 11.71875 
Q 11.71875 9.328125 16.59375 8.109375 
Q 21.484375 6.890625 26.8125 6.890625 
Q 36.078125 6.890625 40.9375 10.546875 
Q 45.796875 14.203125 45.796875 21.1875 
Q 45.796875 27.640625 41.28125 31.265625 
Q 36.765625 34.90625 28.71875 34.90625 
L 20.21875 34.90625 
L 20.21875 43.015625 
L 29.109375 43.015625 
Q 36.375 43.015625 40.234375 45.921875 
Q 44.09375 48.828125 44.09375 54.296875 
Q 44.09375 59.90625 40.109375 62.90625 
Q 36.140625 65.921875 28.71875 65.921875 
Q 24.65625 65.921875 20.015625 65.03125 
Q 15.375 64.15625 9.8125 62.3125 
L 9.8125 71.09375 
Q 15.4375 72.65625 20.34375 73.4375 
Q 25.25 74.21875 29.59375 74.21875 
Q 40.828125 74.21875 47.359375 69.109375 
Q 53.90625 64.015625 53.90625 55.328125 
Q 53.90625 49.265625 50.4375 45.09375 
Q 46.96875 40.921875 40.578125 39.3125 
z
" id="DejaVuSans-33"/>
      </defs>
      <g transform="translate(143.683523 310.951846)rotate(-30)scale(0.1 -0.1)">
       <use xlink:href="#DejaVuSans-32"/>
       <use x="63.623047" xlink:href="#DejaVuSans-30"/>
       <use x="127.246094" xlink:href="#DejaVuSans-31"/>
       <use x="190.869141" xlink:href="#DejaVuSans-39"/>
       <use x="254.492188" xlink:href="#DejaVuSans-2d"/>
       <use x="290.576172" xlink:href="#DejaVuSans-30"/>
       <use x="354.199219" xlink:href="#DejaVuSans-33"/>
      </g>
     </g>
    </g>
    <g id="xtick_4">
     <g id="line2d_7">
      <path clip-path="url(#p54cac3d549)" d="M 237.168413 276.48 
L 237.168413 41.472 
" style="fill:none;stroke:#b0b0b0;stroke-linecap:square;stroke-width:0.8;"/>
     </g>
     <g id="line2d_8">
      <g>
       <use style="stroke:#000000;stroke-width:0.8;" x="237.168413" xlink:href="#mae8d2fa0f2" y="276.48"/>
      </g>
     </g>
     <g id="text_4">
      <!-- 2019-04 -->
      <defs>
       <path d="M 37.796875 64.3125 
L 12.890625 25.390625 
L 37.796875 25.390625 
z
M 35.203125 72.90625 
L 47.609375 72.90625 
L 47.609375 25.390625 
L 58.015625 25.390625 
L 58.015625 17.1875 
L 47.609375 17.1875 
L 47.609375 0 
L 37.796875 0 
L 37.796875 17.1875 
L 4.890625 17.1875 
L 4.890625 26.703125 
z
" id="DejaVuSans-34"/>
      </defs>
      <g transform="translate(199.943592 310.951846)rotate(-30)scale(0.1 -0.1)">
       <use xlink:href="#DejaVuSans-32"/>
       <use x="63.623047" xlink:href="#DejaVuSans-30"/>
       <use x="127.246094" xlink:href="#DejaVuSans-31"/>
       <use x="190.869141" xlink:href="#DejaVuSans-39"/>
       <use x="254.492188" xlink:href="#DejaVuSans-2d"/>
       <use x="290.576172" xlink:href="#DejaVuSans-30"/>
       <use x="354.199219" xlink:href="#DejaVuSans-34"/>
      </g>
     </g>
    </g>
    <g id="xtick_5">
     <g id="line2d_9">
      <path clip-path="url(#p54cac3d549)" d="M 291.613642 276.48 
L 291.613642 41.472 
" style="fill:none;stroke:#b0b0b0;stroke-linecap:square;stroke-width:0.8;"/>
     </g>
     <g id="line2d_10">
      <g>
       <use style="stroke:#000000;stroke-width:0.8;" x="291.613642" xlink:href="#mae8d2fa0f2" y="276.48"/>
      </g>
     </g>
     <g id="text_5">
      <!-- 2019-05 -->
      <defs>
       <path d="M 10.796875 72.90625 
L 49.515625 72.90625 
L 49.515625 64.59375 
L 19.828125 64.59375 
L 19.828125 46.734375 
Q 21.96875 47.46875 24.109375 47.828125 
Q 26.265625 48.1875 28.421875 48.1875 
Q 40.625 48.1875 47.75 41.5 
Q 54.890625 34.8125 54.890625 23.390625 
Q 54.890625 11.625 47.5625 5.09375 
Q 40.234375 -1.421875 26.90625 -1.421875 
Q 22.3125 -1.421875 17.546875 -0.640625 
Q 12.796875 0.140625 7.71875 1.703125 
L 7.71875 11.625 
Q 12.109375 9.234375 16.796875 8.0625 
Q 21.484375 6.890625 26.703125 6.890625 
Q 35.15625 6.890625 40.078125 11.328125 
Q 45.015625 15.765625 45.015625 23.390625 
Q 45.015625 31 40.078125 35.4375 
Q 35.15625 39.890625 26.703125 39.890625 
Q 22.75 39.890625 18.8125 39.015625 
Q 14.890625 38.140625 10.796875 36.28125 
z
" id="DejaVuSans-35"/>
      </defs>
      <g transform="translate(254.388821 310.951846)rotate(-30)scale(0.1 -0.1)">
       <use xlink:href="#DejaVuSans-32"/>
       <use x="63.623047" xlink:href="#DejaVuSans-30"/>
       <use x="127.246094" xlink:href="#DejaVuSans-31"/>
       <use x="190.869141" xlink:href="#DejaVuSans-39"/>
       <use x="254.492188" xlink:href="#DejaVuSans-2d"/>
       <use x="290.576172" xlink:href="#DejaVuSans-30"/>
       <use x="354.199219" xlink:href="#DejaVuSans-35"/>
      </g>
     </g>
    </g>
    <g id="xtick_6">
     <g id="line2d_11">
      <path clip-path="url(#p54cac3d549)" d="M 347.873711 276.48 
L 347.873711 41.472 
" style="fill:none;stroke:#b0b0b0;stroke-linecap:square;stroke-width:0.8;"/>
     </g>
     <g id="line2d_12">
      <g>
       <use style="stroke:#000000;stroke-width:0.8;" x="347.873711" xlink:href="#mae8d2fa0f2" y="276.48"/>
      </g>
     </g>
     <g id="text_6">
      <!-- 2019-06 -->
      <defs>
       <path d="M 33.015625 40.375 
Q 26.375 40.375 22.484375 35.828125 
Q 18.609375 31.296875 18.609375 23.390625 
Q 18.609375 15.53125 22.484375 10.953125 
Q 26.375 6.390625 33.015625 6.390625 
Q 39.65625 6.390625 43.53125 10.953125 
Q 47.40625 15.53125 47.40625 23.390625 
Q 47.40625 31.296875 43.53125 35.828125 
Q 39.65625 40.375 33.015625 40.375 
z
M 52.59375 71.296875 
L 52.59375 62.3125 
Q 48.875 64.0625 45.09375 64.984375 
Q 41.3125 65.921875 37.59375 65.921875 
Q 27.828125 65.921875 22.671875 59.328125 
Q 17.53125 52.734375 16.796875 39.40625 
Q 19.671875 43.65625 24.015625 45.921875 
Q 28.375 48.1875 33.59375 48.1875 
Q 44.578125 48.1875 50.953125 41.515625 
Q 57.328125 34.859375 57.328125 23.390625 
Q 57.328125 12.15625 50.6875 5.359375 
Q 44.046875 -1.421875 33.015625 -1.421875 
Q 20.359375 -1.421875 13.671875 8.265625 
Q 6.984375 17.96875 6.984375 36.375 
Q 6.984375 53.65625 15.1875 63.9375 
Q 23.390625 74.21875 37.203125 74.21875 
Q 40.921875 74.21875 44.703125 73.484375 
Q 48.484375 72.75 52.59375 71.296875 
z
" id="DejaVuSans-36"/>
      </defs>
      <g transform="translate(310.64889 310.951846)rotate(-30)scale(0.1 -0.1)">
       <use xlink:href="#DejaVuSans-32"/>
       <use x="63.623047" xlink:href="#DejaVuSans-30"/>
       <use x="127.246094" xlink:href="#DejaVuSans-31"/>
       <use x="190.869141" xlink:href="#DejaVuSans-39"/>
       <use x="254.492188" xlink:href="#DejaVuSans-2d"/>
       <use x="290.576172" xlink:href="#DejaVuSans-30"/>
       <use x="354.199219" xlink:href="#DejaVuSans-36"/>
      </g>
     </g>
    </g>
    <g id="xtick_7">
     <g id="line2d_13">
      <path clip-path="url(#p54cac3d549)" d="M 402.31894 276.48 
L 402.31894 41.472 
" style="fill:none;stroke:#b0b0b0;stroke-linecap:square;stroke-width:0.8;"/>
     </g>
     <g id="line2d_14">
      <g>
       <use style="stroke:#000000;stroke-width:0.8;" x="402.31894" xlink:href="#mae8d2fa0f2" y="276.48"/>
      </g>
     </g>
     <g id="text_7">
      <!-- 2019-07 -->
      <defs>
       <path d="M 8.203125 72.90625 
L 55.078125 72.90625 
L 55.078125 68.703125 
L 28.609375 0 
L 18.3125 0 
L 43.21875 64.59375 
L 8.203125 64.59375 
z
" id="DejaVuSans-37"/>
      </defs>
      <g transform="translate(365.094119 310.951846)rotate(-30)scale(0.1 -0.1)">
       <use xlink:href="#DejaVuSans-32"/>
       <use x="63.623047" xlink:href="#DejaVuSans-30"/>
       <use x="127.246094" xlink:href="#DejaVuSans-31"/>
       <use x="190.869141" xlink:href="#DejaVuSans-39"/>
       <use x="254.492188" xlink:href="#DejaVuSans-2d"/>
       <use x="290.576172" xlink:href="#DejaVuSans-30"/>
       <use x="354.199219" xlink:href="#DejaVuSans-37"/>
      </g>
     </g>
    </g>
    <g id="text_8">
     <!-- date -->
     <defs>
      <path d="M 45.40625 46.390625 
L 45.40625 75.984375 
L 54.390625 75.984375 
L 54.390625 0 
L 45.40625 0 
L 45.40625 8.203125 
Q 42.578125 3.328125 38.25 0.953125 
Q 33.9375 -1.421875 27.875 -1.421875 
Q 17.96875 -1.421875 11.734375 6.484375 
Q 5.515625 14.40625 5.515625 27.296875 
Q 5.515625 40.1875 11.734375 48.09375 
Q 17.96875 56 27.875 56 
Q 33.9375 56 38.25 53.625 
Q 42.578125 51.265625 45.40625 46.390625 
z
M 14.796875 27.296875 
Q 14.796875 17.390625 18.875 11.75 
Q 22.953125 6.109375 30.078125 6.109375 
Q 37.203125 6.109375 41.296875 11.75 
Q 45.40625 17.390625 45.40625 27.296875 
Q 45.40625 37.203125 41.296875 42.84375 
Q 37.203125 48.484375 30.078125 48.484375 
Q 22.953125 48.484375 18.875 42.84375 
Q 14.796875 37.203125 14.796875 27.296875 
z
" id="DejaVuSans-64"/>
      <path d="M 34.28125 27.484375 
Q 23.390625 27.484375 19.1875 25 
Q 14.984375 22.515625 14.984375 16.5 
Q 14.984375 11.71875 18.140625 8.90625 
Q 21.296875 6.109375 26.703125 6.109375 
Q 34.1875 6.109375 38.703125 11.40625 
Q 43.21875 16.703125 43.21875 25.484375 
L 43.21875 27.484375 
z
M 52.203125 31.203125 
L 52.203125 0 
L 43.21875 0 
L 43.21875 8.296875 
Q 40.140625 3.328125 35.546875 0.953125 
Q 30.953125 -1.421875 24.3125 -1.421875 
Q 15.921875 -1.421875 10.953125 3.296875 
Q 6 8.015625 6 15.921875 
Q 6 25.140625 12.171875 29.828125 
Q 18.359375 34.515625 30.609375 34.515625 
L 43.21875 34.515625 
L 43.21875 35.40625 
Q 43.21875 41.609375 39.140625 45 
Q 35.0625 48.390625 27.6875 48.390625 
Q 23 48.390625 18.546875 47.265625 
Q 14.109375 46.140625 10.015625 43.890625 
L 10.015625 52.203125 
Q 14.9375 54.109375 19.578125 55.046875 
Q 24.21875 56 28.609375 56 
Q 40.484375 56 46.34375 49.84375 
Q 52.203125 43.703125 52.203125 31.203125 
z
" id="DejaVuSans-61"/>
      <path d="M 18.3125 70.21875 
L 18.3125 54.6875 
L 36.8125 54.6875 
L 36.8125 47.703125 
L 18.3125 47.703125 
L 18.3125 18.015625 
Q 18.3125 11.328125 20.140625 9.421875 
Q 21.96875 7.515625 27.59375 7.515625 
L 36.8125 7.515625 
L 36.8125 0 
L 27.59375 0 
Q 17.1875 0 13.234375 3.875 
Q 9.28125 7.765625 9.28125 18.015625 
L 9.28125 47.703125 
L 2.6875 47.703125 
L 2.6875 54.6875 
L 9.28125 54.6875 
L 9.28125 70.21875 
z
" id="DejaVuSans-74"/>
      <path d="M 56.203125 29.59375 
L 56.203125 25.203125 
L 14.890625 25.203125 
Q 15.484375 15.921875 20.484375 11.0625 
Q 25.484375 6.203125 34.421875 6.203125 
Q 39.59375 6.203125 44.453125 7.46875 
Q 49.3125 8.734375 54.109375 11.28125 
L 54.109375 2.78125 
Q 49.265625 0.734375 44.1875 -0.34375 
Q 39.109375 -1.421875 33.890625 -1.421875 
Q 20.796875 -1.421875 13.15625 6.1875 
Q 5.515625 13.8125 5.515625 26.8125 
Q 5.515625 40.234375 12.765625 48.109375 
Q 20.015625 56 32.328125 56 
Q 43.359375 56 49.78125 48.890625 
Q 56.203125 41.796875 56.203125 29.59375 
z
M 47.21875 32.234375 
Q 47.125 39.59375 43.09375 43.984375 
Q 39.0625 48.390625 32.421875 48.390625 
Q 24.90625 48.390625 20.390625 44.140625 
Q 15.875 39.890625 15.1875 32.171875 
z
" id="DejaVuSans-65"/>
     </defs>
     <g transform="translate(224.885 324.351346)scale(0.1 -0.1)">
      <use xlink:href="#DejaVuSans-64"/>
      <use x="63.476562" xlink:href="#DejaVuSans-61"/>
      <use x="124.755859" xlink:href="#DejaVuSans-74"/>
      <use x="163.964844" xlink:href="#DejaVuSans-65"/>
     </g>
    </g>
   </g>
   <g id="matplotlib.axis_2">
    <g id="ytick_1">
     <g id="line2d_15">
      <path clip-path="url(#p54cac3d549)" d="M 57.6 265.797818 
L 414.72 265.797818 
" style="fill:none;stroke:#b0b0b0;stroke-linecap:square;stroke-width:0.8;"/>
     </g>
     <g id="line2d_16">
      <defs>
       <path d="M 0 0 
L -3.5 0 
" id="m67ef5dd704" style="stroke:#000000;stroke-width:0.8;"/>
      </defs>
      <g>
       <use style="stroke:#000000;stroke-width:0.8;" x="57.6" xlink:href="#m67ef5dd704" y="265.797818"/>
      </g>
     </g>
     <g id="text_9">
      <!-- 0 -->
      <g transform="translate(44.2375 269.597037)scale(0.1 -0.1)">
       <use xlink:href="#DejaVuSans-30"/>
      </g>
     </g>
    </g>
    <g id="ytick_2">
     <g id="line2d_17">
      <path clip-path="url(#p54cac3d549)" d="M 57.6 233.859813 
L 414.72 233.859813 
" style="fill:none;stroke:#b0b0b0;stroke-linecap:square;stroke-width:0.8;"/>
     </g>
     <g id="line2d_18">
      <g>
       <use style="stroke:#000000;stroke-width:0.8;" x="57.6" xlink:href="#m67ef5dd704" y="233.859813"/>
      </g>
     </g>
     <g id="text_10">
      <!-- 500 -->
      <g transform="translate(31.5125 237.659031)scale(0.1 -0.1)">
       <use xlink:href="#DejaVuSans-35"/>
       <use x="63.623047" xlink:href="#DejaVuSans-30"/>
       <use x="127.246094" xlink:href="#DejaVuSans-30"/>
      </g>
     </g>
    </g>
    <g id="ytick_3">
     <g id="line2d_19">
      <path clip-path="url(#p54cac3d549)" d="M 57.6 201.921807 
L 414.72 201.921807 
" style="fill:none;stroke:#b0b0b0;stroke-linecap:square;stroke-width:0.8;"/>
     </g>
     <g id="line2d_20">
      <g>
       <use style="stroke:#000000;stroke-width:0.8;" x="57.6" xlink:href="#m67ef5dd704" y="201.921807"/>
      </g>
     </g>
     <g id="text_11">
      <!-- 1000 -->
      <g transform="translate(25.15 205.721026)scale(0.1 -0.1)">
       <use xlink:href="#DejaVuSans-31"/>
       <use x="63.623047" xlink:href="#DejaVuSans-30"/>
       <use x="127.246094" xlink:href="#DejaVuSans-30"/>
       <use x="190.869141" xlink:href="#DejaVuSans-30"/>
      </g>
     </g>
    </g>
    <g id="ytick_4">
     <g id="line2d_21">
      <path clip-path="url(#p54cac3d549)" d="M 57.6 169.983802 
L 414.72 169.983802 
" style="fill:none;stroke:#b0b0b0;stroke-linecap:square;stroke-width:0.8;"/>
     </g>
     <g id="line2d_22">
      <g>
       <use style="stroke:#000000;stroke-width:0.8;" x="57.6" xlink:href="#m67ef5dd704" y="169.983802"/>
      </g>
     </g>
     <g id="text_12">
      <!-- 1500 -->
      <g transform="translate(25.15 173.78302)scale(0.1 -0.1)">
       <use xlink:href="#DejaVuSans-31"/>
       <use x="63.623047" xlink:href="#DejaVuSans-35"/>
       <use x="127.246094" xlink:href="#DejaVuSans-30"/>
       <use x="190.869141" xlink:href="#DejaVuSans-30"/>
      </g>
     </g>
    </g>
    <g id="ytick_5">
     <g id="line2d_23">
      <path clip-path="url(#p54cac3d549)" d="M 57.6 138.045796 
L 414.72 138.045796 
" style="fill:none;stroke:#b0b0b0;stroke-linecap:square;stroke-width:0.8;"/>
     </g>
     <g id="line2d_24">
      <g>
       <use style="stroke:#000000;stroke-width:0.8;" x="57.6" xlink:href="#m67ef5dd704" y="138.045796"/>
      </g>
     </g>
     <g id="text_13">
      <!-- 2000 -->
      <g transform="translate(25.15 141.845015)scale(0.1 -0.1)">
       <use xlink:href="#DejaVuSans-32"/>
       <use x="63.623047" xlink:href="#DejaVuSans-30"/>
       <use x="127.246094" xlink:href="#DejaVuSans-30"/>
       <use x="190.869141" xlink:href="#DejaVuSans-30"/>
      </g>
     </g>
    </g>
    <g id="ytick_6">
     <g id="line2d_25">
      <path clip-path="url(#p54cac3d549)" d="M 57.6 106.107791 
L 414.72 106.107791 
" style="fill:none;stroke:#b0b0b0;stroke-linecap:square;stroke-width:0.8;"/>
     </g>
     <g id="line2d_26">
      <g>
       <use style="stroke:#000000;stroke-width:0.8;" x="57.6" xlink:href="#m67ef5dd704" y="106.107791"/>
      </g>
     </g>
     <g id="text_14">
      <!-- 2500 -->
      <g transform="translate(25.15 109.907009)scale(0.1 -0.1)">
       <use xlink:href="#DejaVuSans-32"/>
       <use x="63.623047" xlink:href="#DejaVuSans-35"/>
       <use x="127.246094" xlink:href="#DejaVuSans-30"/>
       <use x="190.869141" xlink:href="#DejaVuSans-30"/>
      </g>
     </g>
    </g>
    <g id="ytick_7">
     <g id="line2d_27">
      <path clip-path="url(#p54cac3d549)" d="M 57.6 74.169785 
L 414.72 74.169785 
" style="fill:none;stroke:#b0b0b0;stroke-linecap:square;stroke-width:0.8;"/>
     </g>
     <g id="line2d_28">
      <g>
       <use style="stroke:#000000;stroke-width:0.8;" x="57.6" xlink:href="#m67ef5dd704" y="74.169785"/>
      </g>
     </g>
     <g id="text_15">
      <!-- 3000 -->
      <g transform="translate(25.15 77.969004)scale(0.1 -0.1)">
       <use xlink:href="#DejaVuSans-33"/>
       <use x="63.623047" xlink:href="#DejaVuSans-30"/>
       <use x="127.246094" xlink:href="#DejaVuSans-30"/>
       <use x="190.869141" xlink:href="#DejaVuSans-30"/>
      </g>
     </g>
    </g>
    <g id="ytick_8">
     <g id="line2d_29">
      <path clip-path="url(#p54cac3d549)" d="M 57.6 42.231779 
L 414.72 42.231779 
" style="fill:none;stroke:#b0b0b0;stroke-linecap:square;stroke-width:0.8;"/>
     </g>
     <g id="line2d_30">
      <g>
       <use style="stroke:#000000;stroke-width:0.8;" x="57.6" xlink:href="#m67ef5dd704" y="42.231779"/>
      </g>
     </g>
     <g id="text_16">
      <!-- 3500 -->
      <g transform="translate(25.15 46.030998)scale(0.1 -0.1)">
       <use xlink:href="#DejaVuSans-33"/>
       <use x="63.623047" xlink:href="#DejaVuSans-35"/>
       <use x="127.246094" xlink:href="#DejaVuSans-30"/>
       <use x="190.869141" xlink:href="#DejaVuSans-30"/>
      </g>
     </g>
    </g>
    <g id="text_17">
     <!-- EUR -->
     <defs>
      <path d="M 9.8125 72.90625 
L 55.90625 72.90625 
L 55.90625 64.59375 
L 19.671875 64.59375 
L 19.671875 43.015625 
L 54.390625 43.015625 
L 54.390625 34.71875 
L 19.671875 34.71875 
L 19.671875 8.296875 
L 56.78125 8.296875 
L 56.78125 0 
L 9.8125 0 
z
" id="DejaVuSans-45"/>
      <path d="M 8.6875 72.90625 
L 18.609375 72.90625 
L 18.609375 28.609375 
Q 18.609375 16.890625 22.84375 11.734375 
Q 27.09375 6.59375 36.625 6.59375 
Q 46.09375 6.59375 50.34375 11.734375 
Q 54.59375 16.890625 54.59375 28.609375 
L 54.59375 72.90625 
L 64.5 72.90625 
L 64.5 27.390625 
Q 64.5 13.140625 57.4375 5.859375 
Q 50.390625 -1.421875 36.625 -1.421875 
Q 22.796875 -1.421875 15.734375 5.859375 
Q 8.6875 13.140625 8.6875 27.390625 
z
" id="DejaVuSans-55"/>
      <path d="M 44.390625 34.1875 
Q 47.5625 33.109375 50.5625 29.59375 
Q 53.5625 26.078125 56.59375 19.921875 
L 66.609375 0 
L 56 0 
L 46.6875 18.703125 
Q 43.0625 26.03125 39.671875 28.421875 
Q 36.28125 30.8125 30.421875 30.8125 
L 19.671875 30.8125 
L 19.671875 0 
L 9.8125 0 
L 9.8125 72.90625 
L 32.078125 72.90625 
Q 44.578125 72.90625 50.734375 67.671875 
Q 56.890625 62.453125 56.890625 51.90625 
Q 56.890625 45.015625 53.6875 40.46875 
Q 50.484375 35.9375 44.390625 34.1875 
z
M 19.671875 64.796875 
L 19.671875 38.921875 
L 32.078125 38.921875 
Q 39.203125 38.921875 42.84375 42.21875 
Q 46.484375 45.515625 46.484375 51.90625 
Q 46.484375 58.296875 42.84375 61.546875 
Q 39.203125 64.796875 32.078125 64.796875 
z
" id="DejaVuSans-52"/>
     </defs>
     <g transform="translate(19.070312 169.268969)rotate(-90)scale(0.1 -0.1)">
      <use xlink:href="#DejaVuSans-45"/>
      <use x="63.183594" xlink:href="#DejaVuSans-55"/>
      <use x="136.376953" xlink:href="#DejaVuSans-52"/>
     </g>
    </g>
   </g>
   <g id="line2d_31">
    <path clip-path="url(#p54cac3d549)" d="M 73.832727 265.797818 
L 135.53732 265.695287 
L 135.53732 265.535263 
L 139.167002 265.390099 
L 139.167002 265.374202 
L 142.796683 265.237188 
L 142.796683 265.063252 
L 148.241206 264.927138 
L 148.241206 264.583133 
L 148.241206 264.583133 
L 150.056047 264.563139 
L 150.056047 264.480788 
L 150.056047 264.36089 
L 151.870888 264.36089 
L 151.870888 264.262431 
L 151.870888 263.702022 
L 153.685729 263.575151 
L 153.685729 263.47708 
L 155.50057 263.350114 
L 155.50057 263.350114 
L 155.50057 263.321346 
L 160.945093 263.213931 
L 160.945093 262.604264 
L 162.759934 262.481711 
L 162.759934 262.403211 
L 166.389616 262.256809 
L 166.389616 262.153665 
L 166.389616 262.153665 
L 173.64898 262.020338 
L 173.64898 261.861195 
L 173.64898 261.861195 
L 175.463821 261.730102 
L 175.463821 261.722747 
L 179.093503 261.669496 
L 179.093503 261.624396 
L 180.908343 261.492195 
L 180.908343 261.375134 
L 186.352866 261.281967 
L 186.352866 260.433521 
L 188.167707 260.328966 
L 188.167707 260.160193 
L 189.982548 260.041157 
L 189.982548 259.94864 
L 191.797389 259.865329 
L 191.797389 259.745534 
L 193.61223 259.627686 
L 193.61223 259.445398 
L 199.056753 259.3318 
L 199.056753 259.117102 
L 200.871594 259.117102 
L 200.871594 259.019196 
L 200.871594 258.918317 
L 202.686435 258.797289 
L 202.686435 258.390118 
L 202.686435 258.390118 
L 204.501276 258.26804 
L 204.501276 258.243116 
L 206.316117 258.139423 
L 206.316117 258.023145 
L 211.76064 257.91526 
L 211.76064 257.613833 
L 213.575481 257.529048 
L 213.575481 257.481848 
L 217.205163 257.353905 
L 217.205163 257.353905 
L 217.205163 257.289435 
L 224.464526 257.129515 
L 224.464526 257.02496 
L 228.094208 256.918863 
L 228.094208 256.918863 
L 228.094208 256.84841 
L 231.72389 256.829515 
L 231.72389 256.769006 
L 231.72389 256.707644 
L 237.168413 256.634695 
L 237.168413 256.435427 
L 240.798095 256.308501 
L 240.798095 255.900372 
L 242.612936 255.793957 
L 242.612936 255.484814 
L 244.427777 255.364868 
L 244.427777 255.294472 
L 249.8723 255.278862 
L 249.8723 255.184467 
L 249.8723 254.884438 
L 251.687141 254.760145 
L 251.687141 254.721331 
L 253.501982 254.618938 
L 253.501982 254.618938 
L 253.501982 254.521275 
L 255.316823 254.521275 
L 255.316823 254.447204 
L 255.316823 254.348851 
L 257.131663 254.348851 
L 257.131663 254.276306 
L 257.131663 254.158546 
L 262.576186 254.036086 
L 262.576186 253.288794 
L 266.205868 253.143959 
L 266.205868 253.036658 
L 268.020709 252.915557 
L 268.020709 252.243512 
L 277.094914 252.118129 
L 277.094914 252.118129 
L 277.094914 251.841954 
L 280.724596 251.74545 
L 280.724596 251.618954 
L 287.98396 251.489114 
L 287.98396 251.290115 
L 293.428483 251.088411 
L 293.428483 250.935288 
L 295.243324 250.83739 
L 295.243324 250.538494 
L 295.243324 250.538494 
L 300.687846 250.384753 
L 300.687846 249.937437 
L 302.502687 249.810541 
L 302.502687 249.760495 
L 304.317528 249.641007 
L 304.317528 249.641007 
L 304.317528 249.534089 
L 307.94721 249.41076 
L 307.94721 249.219142 
L 313.391733 249.106236 
L 313.391733 248.63505 
L 315.206574 248.524788 
L 315.206574 248.477878 
L 317.021415 248.365743 
L 317.021415 248.143606 
L 318.836256 248.014509 
L 318.836256 247.976457 
L 318.836256 247.976457 
L 326.09562 247.882122 
L 326.09562 247.86701 
L 326.09562 247.280362 
L 329.725302 247.107439 
L 329.725302 247.075382 
L 331.540143 246.956725 
L 331.540143 246.89524 
L 331.540143 246.89524 
L 338.799506 246.721606 
L 338.799506 246.626985 
L 338.799506 246.626985 
L 346.05887 246.520927 
L 346.05887 246.517931 
L 346.05887 246.463976 
L 351.503393 246.35198 
L 351.503393 245.97693 
L 353.318234 245.851848 
L 353.318234 245.604093 
L 355.133075 245.473225 
L 355.133075 245.464323 
L 356.947916 245.342248 
L 356.947916 245.230662 
L 358.762757 245.208162 
L 358.762757 245.120486 
L 358.762757 245.069671 
L 364.20728 244.922215 
L 364.20728 244.922215 
L 364.20728 244.501776 
L 366.022121 244.381407 
L 366.022121 244.321751 
L 367.836962 244.321751 
L 367.836962 244.213604 
L 367.836962 243.854604 
L 369.651803 243.752391 
L 369.651803 243.387068 
L 369.651803 243.387068 
L 371.466644 243.274835 
L 371.466644 243.228385 
L 376.911166 243.106715 
L 376.911166 243.106715 
L 376.911166 242.903581 
L 376.911166 242.903581 
L 378.726007 242.785067 
L 378.726007 242.218827 
L 380.540848 242.107272 
L 380.540848 242.105537 
L 382.355689 241.989889 
L 382.355689 241.932603 
L 389.615053 241.784969 
L 389.615053 241.713978 
L 393.244735 241.670389 
L 393.244735 241.605401 
L 393.244735 241.589368 
L 395.059576 241.478981 
L 395.059576 241.478981 
L 395.059576 241.474836 
L 395.059576 241.474836 
L 396.874417 241.364761 
L 396.874417 241.364761 
" style="fill:none;stroke:#0000ff;stroke-linecap:square;stroke-width:1.5;"/>
   </g>
   <g id="line2d_32">
    <path clip-path="url(#p54cac3d549)" d="M 73.832727 265.797818 
L 79.04903 265.542314 
L 79.340854 233.604309 
L 79.713736 233.732061 
L 79.784187 234.179193 
L 79.933345 234.243069 
L 80.028204 234.945705 
L 80.072902 235.456713 
L 80.186834 237.500745 
L 80.231533 237.692373 
L 80.948899 247.912535 
L 81.668891 250.275947 
L 81.970083 253.214244 
L 82.047634 253.533624 
L 82.207063 255.002772 
L 82.295032 255.897036 
L 82.438392 256.919053 
L 82.531781 258.004945 
L 82.625548 258.068821 
L 83.263116 260.623861 
L 83.720838 261.518125 
L 83.827964 262.73177 
L 84.161798 262.987274 
L 84.319378 263.626034 
L 84.363951 263.881538 
L 84.553564 264.520298 
L 85.431535 264.903554 
L 85.476906 265.031306 
L 85.49747 264.711147 
L 85.51188 264.838899 
L 85.51314 137.086877 
L 85.622493 139.386414 
L 85.790954 146.093395 
L 85.892576 150.373087 
L 85.940909 154.844408 
L 86.036356 208.564134 
L 86.041566 208.243258 
L 86.10122 208.754266 
L 86.162954 211.245431 
L 86.390986 229.705598 
L 86.478262 231.800914 
L 86.562051 233.653318 
L 86.892839 234.280757 
L 86.896179 234.892874 
L 87.010678 235.148378 
L 87.044496 237.703419 
L 87.088082 240.641715 
L 87.120094 240.624725 
L 87.226254 240.880229 
L 87.344008 244.904417 
L 87.702061 254.358067 
L 87.774466 254.613571 
L 87.889175 258.254504 
L 88.00653 257.614746 
L 88.123444 258.636762 
L 88.160561 258.700638 
L 88.271783 259.59323 
L 88.352043 259.91261 
L 88.380295 260.551371 
L 88.551823 260.679123 
L 89.138264 260.870751 
L 89.2828 261.573387 
L 89.343568 263.234163 
L 89.599179 263.361915 
L 89.600943 263.809047 
L 89.72124 263.872923 
L 89.959816 265.150443 
L 91.023073 265.213568 
L 91.15425 265.405196 
L 91.181473 265.532948 
L 91.773144 265.724492 
L 92.604904 265.704347 
L 92.832516 265.061347 
L 92.861251 265.252975 
L 92.985139 265.635365 
L 94.706738 265.699237 
L 98.714281 265.763113 
L 100.080285 265.115874 
L 100.1015 265.626883 
L 101.907078 265.754635 
L 104.271097 265.109132 
L 104.276852 265.173008 
L 104.294287 265.747892 
L 110.863717 265.683642 
L 110.863717 265.073365 
L 110.868107 265.712125 
L 111.266847 265.673216 
L 118.586768 265.736152 
L 136.285185 265.707557 
L 136.466186 265.771433 
L 138.137142 265.7594 
L 138.913365 265.09683 
L 139.734875 265.034858 
L 139.734875 264.699582 
L 139.79392 265.018962 
L 140.541807 265.145496 
L 140.541807 265.139897 
L 140.74564 265.523153 
L 141.587987 265.502086 
L 141.692949 265.764821 
L 141.712967 265.502488 
L 141.78304 265.694116 
L 143.584879 265.691186 
L 143.637182 265.755058 
L 144.102529 265.794577 
L 148.796455 265.684303 
L 148.828635 265.727396 
L 148.888185 265.660287 
L 149.124996 265.509569 
L 149.124996 265.501862 
L 149.185743 265.629614 
L 149.37315 265.569129 
L 149.423878 264.887003 
L 149.433624 264.950879 
L 149.507688 265.142507 
L 149.552807 265.270259 
L 150.633583 265.126102 
L 150.633583 265.064618 
L 150.643182 265.128494 
L 150.691767 265.12849 
L 151.231871 265.214574 
L 151.371114 265.399715 
L 151.371114 265.397155 
L 151.673272 265.366678 
L 152.462623 265.256942 
L 152.534755 264.66673 
L 152.559373 264.794482 
L 152.684395 264.872218 
L 152.71418 264.714279 
L 152.782678 265.289163 
L 152.828931 265.348118 
L 152.842542 265.47587 
L 153.140773 265.513751 
L 153.2404 265.173174 
L 153.2868 265.364802 
L 153.30644 265.428678 
L 154.932928 265.497666 
L 155.007622 265.599593 
L 155.297283 265.658343 
L 155.297283 265.631827 
L 155.33505 265.567739 
L 155.347884 265.631615 
L 156.122174 265.523518 
L 156.122174 265.513514 
L 156.214891 265.641266 
L 156.264673 265.700011 
L 156.344807 265.757908 
L 156.344807 265.737853 
L 156.724538 265.693398 
L 156.801584 265.532477 
L 156.840906 265.660229 
L 156.856534 265.724105 
L 156.909214 265.404725 
L 156.966306 265.596353 
L 158.328256 265.65499 
L 158.46145 265.718336 
L 158.46145 265.716654 
L 158.779152 265.78053 
L 161.54899 265.698842 
L 161.579804 265.170415 
L 161.616857 265.234291 
L 161.922839 265.60762 
L 162.052545 265.358934 
L 162.077247 265.550562 
L 162.108839 265.66464 
L 162.17114 265.616925 
L 162.706686 265.706952 
L 163.324131 265.619474 
L 163.324131 265.576022 
L 163.388848 265.703774 
L 165.525361 265.774418 
L 165.633516 238.568348 
L 165.723271 243.775983 
L 165.900155 260.88527 
L 166.068175 260.995241 
L 166.301604 261.186869 
L 167.261433 261.146426 
L 167.282354 259.54821 
L 167.316445 261.081235 
L 167.497404 261.145111 
L 167.616209 263.508523 
L 167.617889 263.572399 
L 167.705313 263.530061 
L 167.743458 263.593937 
L 168.832888 263.563258 
L 168.908611 262.908177 
L 168.931864 263.610814 
L 169.190142 263.671197 
L 169.362342 263.719682 
L 169.521876 265.185168 
L 169.987013 265.217052 
L 170.95184 265.216482 
L 171.190941 265.663615 
L 175.048487 265.705059 
L 175.152987 265.283204 
L 175.160318 265.474832 
L 176.710095 265.363574 
L 176.710095 265.34858 
L 176.808588 265.412456 
L 176.908321 265.731836 
L 176.936236 265.693823 
L 177.966138 265.728546 
L 178.552453 265.422518 
L 180.340975 265.482236 
L 180.384098 265.609988 
L 181.48485 265.487712 
L 181.48485 265.352282 
L 181.595378 265.54391 
L 181.650433 265.643693 
L 182.257417 265.717774 
L 186.997702 265.777692 
L 186.997702 265.77212 
L 186.997702 264.976642 
L 187.168305 265.041942 
L 187.253313 265.398889 
L 187.383734 265.448177 
L 187.390665 265.575929 
L 187.454353 265.5021 
L 187.751092 265.550955 
L 187.751092 265.538762 
L 187.751092 264.891636 
L 187.841267 265.530396 
L 187.949716 265.594272 
L 188.765681 265.65684 
L 188.765681 265.565673 
L 188.765681 265.492783 
L 188.820021 265.620535 
L 190.517443 265.525601 
L 190.517443 265.468153 
L 190.718294 265.594947 
L 190.718294 265.579094 
L 190.971553 265.644608 
L 191.109409 265.708484 
L 194.18777 265.59773 
L 194.18777 265.41735 
L 194.283595 265.545102 
L 194.410424 265.720934 
L 194.410424 265.711233 
L 194.787613 265.638421 
L 194.787613 265.574828 
L 194.801455 265.638704 
L 195.079269 265.70258 
L 198.410006 265.763598 
L 198.410006 265.757268 
L 198.485603 265.691696 
L 198.527088 265.755572 
L 199.682096 265.646033 
L 199.682096 265.638327 
L 199.712595 265.766079 
L 199.770506 265.726965 
L 200.766926 265.658479 
L 200.80505 265.031504 
L 200.852983 265.478636 
L 201.438627 265.375772 
L 201.529012 265.104372 
L 201.59272 265.072795 
L 201.679975 265.411452 
L 201.80651 265.539204 
L 203.334484 265.428858 
L 203.399915 265.058908 
L 203.42844 265.18666 
L 203.508197 265.569916 
L 203.987722 265.457004 
L 203.987722 265.406571 
L 204.002447 265.470447 
L 204.460967 265.556556 
L 204.535619 265.620432 
L 205.116347 265.51417 
L 205.116347 265.499114 
L 205.161235 265.56299 
L 205.356457 265.610491 
L 207.101477 265.66638 
L 207.232633 265.730256 
L 207.607532 265.678646 
L 207.607532 265.513291 
L 207.637002 265.641043 
L 209.21606 265.609035 
L 209.898642 265.735287 
L 209.898642 265.734668 
L 212.422679 265.621647 
L 212.422679 265.445776 
L 212.427132 265.509652 
L 212.848641 265.636207 
L 212.848641 265.560557 
L 212.848641 265.446513 
L 212.869877 265.638141 
L 214.585091 265.728112 
L 214.591939 265.791988 
L 216.017954 265.680781 
L 216.017954 265.673501 
L 216.074815 265.737377 
L 224.409493 265.73273 
L 224.42844 265.796606 
L 226.851756 265.697555 
L 226.851756 265.612284 
L 226.861629 265.67616 
L 227.50783 265.725999 
L 227.583532 265.789387 
L 227.583532 265.785436 
L 230.616732 265.680803 
L 230.949999 265.616926 
L 230.953171 265.680803 
L 231.171876 265.744679 
L 233.181791 265.763799 
L 233.332818 265.125039 
L 233.332818 264.068869 
L 233.36149 265.793521 
L 237.875928 265.701399 
L 237.875928 265.65514 
L 237.90252 265.719016 
L 237.955453 265.692129 
L 238.105304 265.715021 
L 238.105304 265.660397 
L 238.137105 265.724273 
L 238.180019 265.712826 
L 239.544699 265.6083 
L 239.544699 265.569303 
L 239.674742 265.633179 
L 239.841775 265.29343 
L 239.855932 265.357306 
L 239.875782 265.676686 
L 239.917813 265.660739 
L 240.22432 265.539112 
L 240.291977 261.279679 
L 240.294834 263.88386 
L 240.375199 264.394868 
L 240.793264 264.351678 
L 240.793264 264.994589 
L 240.911501 265.058465 
L 241.364666 264.95504 
L 241.437448 264.580989 
L 242.211318 264.634154 
L 242.248266 264.69803 
L 242.249211 264.69576 
L 243.166945 264.581865 
L 243.166945 264.352457 
L 243.762251 264.21492 
L 243.809324 264.5343 
L 243.920945 265.683876 
L 243.920945 265.680706 
L 243.998727 265.778688 
L 244.219742 264.568966 
L 244.245768 265.207726 
L 244.98521 265.095846 
L 244.98521 265.06537 
L 245.039235 265.129246 
L 245.050305 265.12647 
L 245.889396 265.084442 
L 246.00652 265.723202 
L 250.489619 265.606742 
L 250.589099 265.411722 
L 250.669317 265.666908 
L 250.739222 265.62685 
L 253.010945 265.669352 
L 253.02943 265.733228 
L 253.220114 265.731389 
L 254.125035 265.621917 
L 254.147762 265.531855 
L 254.198763 265.673416 
L 254.438431 265.727152 
L 254.667807 265.786247 
L 257.711719 265.648487 
L 257.772361 265.574957 
L 257.787464 265.702709 
L 257.922443 265.753175 
L 257.922443 265.742597 
L 261.475582 265.730242 
L 261.552188 265.78792 
L 261.552188 265.776565 
L 263.204302 265.671469 
L 263.313949 265.352725 
L 263.361966 265.68831 
L 263.433174 265.670431 
L 263.528642 265.734307 
L 263.964477 265.621405 
L 263.964477 265.102664 
L 264.051627 265.350571 
L 264.184379 265.39762 
L 264.184379 265.394447 
L 264.333683 265.389582 
L 264.451375 265.645086 
L 268.608306 265.532844 
L 268.660105 265.013743 
L 268.713479 265.269247 
L 268.770402 265.357635 
L 268.844445 265.613139 
L 269.733549 265.593967 
L 272.636287 265.794601 
L 277.655498 265.683833 
L 277.655498 265.633457 
L 277.683708 265.697333 
L 284.024897 265.787288 
L 288.914045 265.733228 
L 288.914045 265.637711 
L 288.991911 265.684792 
L 295.833588 265.571745 
L 295.833588 265.304298 
L 295.913848 265.559802 
L 296.033578 265.600297 
L 296.111233 265.662708 
L 296.111233 265.661978 
L 299.589805 265.71261 
L 299.889589 265.776115 
L 299.889589 265.773004 
L 301.268385 265.648995 
L 301.268385 265.38852 
L 301.715437 265.527209 
L 303.055815 265.402858 
L 303.119943 265.368543 
L 303.164474 265.432419 
L 303.342303 265.489489 
L 303.435776 265.664376 
L 305.470876 265.60279 
L 306.680707 265.486963 
L 306.680707 265.460134 
L 306.789367 265.52401 
L 307.133514 265.581862 
L 307.437962 265.581088 
L 307.437962 265.575848 
L 308.533463 265.464055 
L 308.580031 265.420087 
L 308.668315 265.468958 
L 308.729608 265.590661 
L 308.729608 265.560832 
L 309.557924 265.642249 
L 312.129452 265.767282 
L 312.129452 265.765983 
L 314.012119 265.654197 
L 314.060935 265.141946 
L 314.121618 265.39745 
L 314.408968 265.470996 
L 314.438291 265.598565 
L 314.50618 265.53374 
L 314.621246 265.573326 
L 314.621246 265.569285 
L 315.988174 265.597486 
L 316.130525 265.654249 
L 316.130525 265.63098 
L 316.130525 265.58539 
L 316.238429 265.774455 
L 317.601387 265.604007 
L 317.601387 265.469128 
L 317.68547 265.59688 
L 317.753002 265.656555 
L 317.753002 265.609621 
L 320.316275 265.635156 
L 320.427645 265.697655 
L 320.427645 265.696742 
L 326.683931 265.57951 
L 326.683931 265.187044 
L 326.793346 265.222668 
L 326.90148 265.601924 
L 328.635725 265.584001 
L 328.635725 265.42619 
L 328.66446 265.681694 
L 328.706197 265.618828 
L 330.824415 265.66342 
L 330.836577 265.727296 
L 331.200952 265.658304 
L 334.727478 265.573855 
L 336.239005 265.55977 
L 336.623651 265.751398 
L 339.385717 265.644111 
L 339.385717 265.628071 
L 339.464045 265.755823 
L 339.750659 265.739271 
L 339.858668 259.368916 
L 339.899754 261.900808 
L 339.936219 261.581428 
L 339.961173 261.900808 
L 340.141186 261.873056 
L 343.128049 261.953551 
L 343.504082 265.786111 
L 343.543593 261.953551 
L 345.021701 261.924968 
L 345.363958 262.691481 
L 345.392714 265.757529 
L 352.119725 265.689535 
L 352.227439 265.338461 
L 352.453349 265.507067 
L 352.453349 265.479417 
L 352.525228 265.476209 
L 352.677851 265.402143 
L 352.692828 265.529895 
L 352.694571 265.593771 
L 352.893028 265.620008 
L 352.999923 265.698125 
L 353.904886 265.571963 
L 353.904886 265.481957 
L 353.975337 265.673585 
L 354.05879 265.72434 
L 354.193076 265.741173 
L 354.193076 265.733431 
L 354.26674 265.724789 
L 355.095035 265.621443 
L 355.095035 265.607096 
L 356.083745 265.498615 
L 356.156276 265.482359 
L 356.394557 265.524634 
L 356.459421 265.588509 
L 358.423419 265.661879 
L 358.575685 265.725564 
L 358.575685 265.722392 
L 364.816911 265.611581 
L 364.926011 265.414143 
L 365.113881 265.528469 
L 365.113881 265.503093 
L 367.786612 265.560922 
L 368.407229 265.461729 
L 368.407229 265.376019 
L 368.484465 265.43989 
L 368.532777 265.503766 
L 368.556323 265.465569 
L 368.630387 265.186257 
L 368.640428 265.250133 
L 368.784523 265.31185 
L 368.784523 265.309932 
L 369.087311 265.289222 
L 369.163392 264.642362 
L 369.171689 265.293897 
L 369.310953 265.356419 
L 369.310953 265.355415 
L 370.267903 265.248733 
L 370.335393 264.759872 
L 370.378894 264.863435 
L 370.474614 264.892938 
L 370.633518 265.615987 
L 370.77232 265.270291 
L 370.773181 265.413745 
L 370.900136 265.477323 
L 370.900136 265.460394 
L 371.42812 265.380729 
L 371.464186 265.316824 
L 371.500231 265.3807 
L 372.513118 265.391993 
L 372.523515 265.198009 
L 372.581678 265.616899 
L 372.598819 265.615396 
L 372.792633 265.49532 
L 372.826241 265.372752 
L 372.876548 265.500504 
L 373.01598 265.538187 
L 373.166839 265.600702 
L 373.166839 265.599697 
L 376.11627 265.762275 
L 376.11627 265.720237 
L 376.19191 265.701245 
L 376.198274 265.765121 
L 377.558649 265.652345 
L 377.635191 265.433686 
L 377.815814 265.553103 
L 377.815814 265.540038 
L 377.928675 265.593129 
L 378.152694 265.716377 
L 379.326627 265.603066 
L 379.326627 265.111358 
L 379.399788 265.23911 
L 379.531826 265.288176 
L 379.720074 265.473012 
L 379.720074 265.454936 
L 381.297704 265.477288 
L 381.299133 265.541164 
L 381.835876 265.577183 
L 381.989192 265.636865 
L 381.989192 265.633346 
L 383.057323 265.51961 
L 383.131324 265.504995 
L 383.51368 265.655259 
L 383.513701 265.650808 
L 386.534949 265.66359 
L 386.708241 265.791342 
L 393.8091 265.679667 
L 393.8091 265.68463 
L 393.8091 265.678356 
L 395.842478 265.754898 
L 395.876779 265.375174 
L 395.905451 265.502926 
L 396.218848 265.484492 
L 396.36624 265.30363 
L 396.367417 265.369729 
L 396.367417 265.529935 
L 396.374243 263.763983 
L 396.378696 265.516802 
L 396.67428 265.488339 
L 396.686715 264.56468 
L 396.692975 265.52282 
L 397.973089 265.415672 
L 398.043666 265.244929 
L 397.974685 265.486235 
L 398.071918 265.346767 
L 398.412285 265.29782 
L 398.457193 263.32615 
L 398.457319 261.647705 
L 398.464734 265.329217 
L 398.487273 265.326717 
" style="fill:none;stroke:#ff0000;stroke-linecap:square;stroke-width:1.5;"/>
   </g>
   <g id="line2d_33">
    <path clip-path="url(#p54cac3d549)" d="M 73.832727 265.797818 
L 77.462409 265.733942 
L 77.462409 265.478438 
L 79.27725 265.350686 
L 79.27725 251.234088 
L 80.511552 250.914708 
L 81.092091 250.595328 
L 81.092091 240.247414 
L 82.906932 240.119662 
L 82.906932 235.201209 
L 84.721773 234.817953 
L 84.721773 201.794055 
L 84.721773 202.879947 
L 85.939607 202.241187 
L 85.980903 151.140378 
L 86.3821 150.501618 
L 86.391658 138.377769 
L 86.536614 137.739009 
L 86.536614 115.893413 
L 86.536614 116.858008 
L 86.892839 116.230569 
L 86.896179 115.618452 
L 87.043719 114.979692 
L 87.046471 112.424651 
L 88.351455 111.785891 
L 88.351455 107.506199 
L 90.166296 106.611934 
L 90.166296 106.292554 
L 90.166296 106.29339 
L 91.981137 106.165638 
L 91.981137 105.399126 
L 91.981137 106.362858 
L 97.42566 106.235106 
L 99.240501 105.85185 
L 99.240501 105.724098 
L 99.240501 106.362858 
L 102.870183 106.17123 
L 102.870183 105.596346 
L 102.870183 106.235106 
L 110.129546 105.596346 
L 110.129546 105.660222 
L 110.129546 106.298982 
L 124.648274 106.107354 
L 124.648274 106.184029 
L 135.53732 106.125983 
L 135.53732 105.934355 
L 135.53732 105.999373 
L 137.352161 105.935497 
L 137.352161 105.946553 
L 137.352161 106.590367 
L 139.167002 106.526491 
L 139.167002 105.504475 
L 139.167002 105.831087 
L 140.981843 105.703335 
L 140.981843 105.383955 
L 140.981843 105.803768 
L 142.796683 105.676016 
L 142.796683 105.356636 
L 142.796683 105.504217 
L 148.241206 105.323622 
L 148.241206 104.684862 
L 148.241206 105.584316 
L 150.056047 105.456564 
L 150.056047 105.073308 
L 150.056047 105.229755 
L 151.870888 105.102003 
L 151.870888 103.760606 
L 151.870888 104.508886 
L 153.685729 104.381134 
L 153.685729 103.934002 
L 153.685729 104.081008 
L 155.50057 103.953256 
L 155.50057 103.442248 
L 155.50057 103.965775 
L 157.315411 103.838023 
L 157.315411 103.774147 
L 157.315411 103.774677 
L 160.945093 103.592665 
L 160.945093 102.762276 
L 160.945093 103.132855 
L 162.759934 103.005103 
L 162.759934 102.813475 
L 162.759934 102.901794 
L 164.574775 102.774042 
L 164.574775 93.384268 
L 164.574775 93.421024 
L 165.766037 92.782264 
L 165.793764 80.19869 
L 166.389616 80.070938 
L 166.389616 75.982873 
L 166.389616 77.653076 
L 168.204457 77.333696 
L 168.204457 75.67292 
L 168.204457 76.339501 
L 169.420925 75.956244 
L 170.019298 75.509112 
L 170.019298 75.509112 
L 171.834139 75.515288 
L 173.64898 75.32366 
L 173.64898 74.940404 
L 173.64898 75.543587 
L 175.463821 75.224207 
L 175.463821 75.160331 
L 175.463821 75.186148 
L 177.278662 75.058396 
L 177.278662 75.433706 
L 179.093503 75.305954 
L 179.093503 74.986574 
L 179.093503 75.13982 
L 180.908343 75.012068 
L 180.908343 74.692688 
L 180.908343 74.814584 
L 186.352866 74.559693 
L 186.352866 73.218297 
L 186.352866 73.996473 
L 188.167707 73.868721 
L 188.167707 73.677093 
L 188.167707 73.722085 
L 189.982548 73.530457 
L 189.982548 73.338829 
L 189.982548 73.358656 
L 193.61223 73.130571 
L 193.61223 72.811191 
L 193.61223 72.900042 
L 199.056753 72.647396 
L 199.056753 72.008636 
L 199.056753 72.79569 
L 200.871594 72.667938 
L 200.871594 72.093054 
L 200.871594 72.435253 
L 202.686435 72.307501 
L 202.686435 71.732617 
L 202.686435 71.990786 
L 204.501276 71.863034 
L 204.501276 71.671406 
L 204.501276 71.736907 
L 206.316117 71.609154 
L 206.316117 71.35365 
L 206.316117 71.512068 
L 211.76064 71.209813 
L 211.76064 71.018185 
L 211.76064 71.136157 
L 213.575481 71.008405 
L 213.575481 70.880653 
L 213.575481 70.898103 
L 219.020003 70.647948 
L 219.020003 70.584072 
L 219.020003 70.608059 
L 226.279367 70.289636 
L 226.279367 70.22576 
L 226.279367 70.305482 
L 231.72389 70.133203 
L 231.72389 68.408551 
L 231.72389 70.071347 
L 237.168413 70.007471 
L 237.168413 69.879719 
L 237.168413 69.952654 
L 238.983254 69.824902 
L 238.983254 68.930638 
L 238.983254 69.374307 
L 240.22432 69.495934 
L 240.291977 73.819988 
L 240.292523 71.264947 
L 240.798095 70.546015 
L 240.798095 70.418263 
L 240.798095 70.517018 
L 242.612936 70.133762 
L 242.612936 68.217482 
L 242.612936 69.586593 
L 244.427777 69.458841 
L 244.427777 68.820081 
L 244.427777 68.880775 
L 248.057459 68.827876 
L 249.8723 68.700124 
L 249.8723 68.380744 
L 249.8723 68.488161 
L 251.687141 68.360409 
L 251.687141 68.104905 
L 251.687141 68.299448 
L 253.501982 68.171696 
L 253.501982 67.980068 
L 253.501982 68.062402 
L 255.316823 67.93465 
L 255.316823 67.870774 
L 255.316823 67.924402 
L 257.131663 67.79665 
L 257.131663 67.605022 
L 257.131663 67.69222 
L 260.761345 67.660146 
L 262.576186 67.27689 
L 262.576186 66.446502 
L 262.576186 66.953214 
L 264.391027 66.825462 
L 264.391027 66.761586 
L 264.391027 66.872626 
L 266.205868 66.744874 
L 266.205868 66.553246 
L 266.205868 66.660219 
L 268.020709 66.404715 
L 268.020709 65.765955 
L 268.020709 66.022927 
L 269.83555 65.895175 
L 269.83555 65.831299 
L 269.83555 65.835641 
L 278.909755 65.426848 
L 278.909755 65.362972 
L 278.909755 65.382287 
L 280.724596 65.254535 
L 280.724596 65.126783 
L 280.724596 65.271236 
L 282.539437 65.143484 
L 282.539437 65.079608 
L 282.539437 65.111586 
L 287.98396 65.050636 
L 287.98396 64.922884 
L 287.98396 64.953401 
L 293.428483 64.653995 
L 293.428483 64.462367 
L 293.428483 64.652117 
L 295.243324 64.524365 
L 295.243324 64.204985 
L 295.243324 64.296129 
L 298.873005 64.106998 
L 298.873005 64.043122 
L 298.873005 64.050402 
L 300.687846 63.92265 
L 300.687846 63.667146 
L 300.687846 63.787341 
L 302.502687 63.659589 
L 302.502687 63.467961 
L 302.502687 63.507699 
L 304.317528 63.379947 
L 304.317528 63.252195 
L 304.317528 63.344126 
L 306.132369 63.216374 
L 306.132369 63.152498 
L 306.132369 63.255938 
L 307.94721 63.128186 
L 307.94721 62.872682 
L 307.94721 62.950274 
L 313.391733 62.696847 
L 313.391733 62.121963 
L 313.391733 62.462042 
L 315.206574 62.33429 
L 315.206574 62.01491 
L 315.206574 62.153952 
L 317.021415 62.0262 
L 317.021415 61.770696 
L 317.021415 61.909378 
L 318.836256 61.781625 
L 318.836256 61.526121 
L 318.836256 61.716973 
L 320.651097 61.58922 
L 320.651097 61.461468 
L 320.651097 61.543108 
L 326.09562 61.479675 
L 326.09562 60.968667 
L 326.09562 61.156423 
L 327.910461 61.028671 
L 327.910461 60.837043 
L 327.910461 61.079392 
L 329.725302 60.95164 
L 329.725302 60.760012 
L 329.725302 60.919369 
L 331.540143 60.791617 
L 331.540143 60.536113 
L 331.540143 60.694693 
L 335.169824 60.518218 
L 335.169824 60.454342 
L 335.169824 60.518036 
L 338.799506 60.390284 
L 338.799506 57.771367 
L 338.799506 58.204088 
L 340.614347 58.076336 
L 340.614347 58.01246 
L 340.614347 58.035634 
L 342.429188 58.048935 
L 342.429188 61.881496 
L 344.244029 61.81762 
L 344.244029 57.985059 
L 344.244029 58.046788 
L 347.873711 57.985408 
L 351.503393 57.857656 
L 351.503393 57.410524 
L 351.503393 57.59657 
L 353.318234 57.468818 
L 353.318234 57.213314 
L 353.327896 57.270332 
L 356.947916 57.072186 
L 356.947916 56.68893 
L 356.947916 56.781605 
L 358.762757 56.653853 
L 358.762757 56.589977 
L 358.762757 56.646493 
L 364.20728 56.398249 
L 364.20728 56.142745 
L 364.20728 56.350254 
L 366.022121 56.222502 
L 366.022121 55.966998 
L 366.022121 56.09804 
L 367.836962 55.970288 
L 367.836962 55.77866 
L 367.836962 56.513086 
L 369.171689 56.193706 
L 369.171689 55.874326 
L 369.651803 55.682698 
L 369.651803 54.85231 
L 369.651803 55.559557 
L 370.77232 55.621897 
L 370.773181 55.51943 
L 371.466644 55.391678 
L 371.466644 54.944546 
L 371.466644 55.402626 
L 372.545949 55.339123 
L 372.581678 55.083619 
L 373.281484 54.955867 
L 373.281484 54.891991 
L 373.281484 54.903234 
L 376.911166 54.730667 
L 376.911166 54.475163 
L 376.911166 54.585234 
L 378.726007 54.457482 
L 378.726007 54.138102 
L 378.726007 54.287855 
L 380.540848 54.160103 
L 380.540848 53.904598 
L 380.540848 53.929463 
L 382.355689 53.801711 
L 382.355689 53.673959 
L 382.355689 53.715454 
L 395.059576 53.176198 
L 395.059576 52.154182 
L 395.059576 52.624795 
L 396.36624 52.677764 
L 396.372983 54.320262 
L 396.367417 52.592938 
L 396.378696 52.7923 
L 396.686715 53.715959 
L 397.973089 53.831538 
L 398.043666 54.006752 
L 397.974685 53.765446 
L 398.071918 53.923513 
L 398.454547 54.534074 
L 398.457319 57.573628 
L 398.464734 54.109062 
L 398.464734 54.109062 
" style="fill:none;stroke:#008000;stroke-linecap:square;stroke-width:1.5;"/>
   </g>
   <g id="line2d_34">
    <defs>
     <path d="M 0 3 
C 0.795609 3 1.55874 2.683901 2.12132 2.12132 
C 2.683901 1.55874 3 0.795609 3 0 
C 3 -0.795609 2.683901 -1.55874 2.12132 -2.12132 
C 1.55874 -2.683901 0.795609 -3 0 -3 
C -0.795609 -3 -1.55874 -2.683901 -2.12132 -2.12132 
C -2.683901 -1.55874 -3 -0.795609 -3 0 
C -3 0.795609 -2.683901 1.55874 -2.12132 2.12132 
C -1.55874 2.683901 -0.795609 3 0 3 
z
" id="m1f7389200c" style="stroke:#bfbf00;"/>
    </defs>
    <g clip-path="url(#p54cac3d549)">
     <use style="fill:#bfbf00;stroke:#bfbf00;" x="79.340854" xlink:href="#m1f7389200c" y="233.859813"/>
     <use style="fill:#bfbf00;stroke:#bfbf00;" x="85.51314" xlink:href="#m1f7389200c" y="138.045796"/>
    </g>
   </g>
   <g id="line2d_35">
    <defs>
     <path d="M 0 3 
C 0.795609 3 1.55874 2.683901 2.12132 2.12132 
C 2.683901 1.55874 3 0.795609 3 0 
C 3 -0.795609 2.683901 -1.55874 2.12132 -2.12132 
C 1.55874 -2.683901 0.795609 -3 0 -3 
C -0.795609 -3 -1.55874 -2.683901 -2.12132 -2.12132 
C -2.683901 -1.55874 -3 -0.795609 -3 0 
C -3 0.795609 -2.683901 1.55874 -2.12132 2.12132 
C -1.55874 2.683901 -0.795609 3 0 3 
z
" id="m8a1d47e1bf" style="stroke:#008000;"/>
    </defs>
    <g clip-path="url(#p54cac3d549)">
     <use style="fill:#008000;stroke:#008000;" x="165.633516" xlink:href="#m8a1d47e1bf" y="238.591748"/>
     <use style="fill:#008000;stroke:#008000;" x="339.858668" xlink:href="#m8a1d47e1bf" y="259.427464"/>
    </g>
   </g>
   <g id="patch_3">
    <path d="M 57.6 276.48 
L 57.6 41.472 
" style="fill:none;stroke:#000000;stroke-linecap:square;stroke-linejoin:miter;stroke-width:0.8;"/>
   </g>
   <g id="patch_4">
    <path d="M 414.72 276.48 
L 414.72 41.472 
" style="fill:none;stroke:#000000;stroke-linecap:square;stroke-linejoin:miter;stroke-width:0.8;"/>
   </g>
   <g id="patch_5">
    <path d="M 57.6 276.48 
L 414.72 276.48 
" style="fill:none;stroke:#000000;stroke-linecap:square;stroke-linejoin:miter;stroke-width:0.8;"/>
   </g>
   <g id="patch_6">
    <path d="M 57.6 41.472 
L 414.72 41.472 
" style="fill:none;stroke:#000000;stroke-linecap:square;stroke-linejoin:miter;stroke-width:0.8;"/>
   </g>
   <g id="text_18">
    <!-- My Bondora earnings -->
    <defs>
     <path d="M 9.8125 72.90625 
L 24.515625 72.90625 
L 43.109375 23.296875 
L 61.8125 72.90625 
L 76.515625 72.90625 
L 76.515625 0 
L 66.890625 0 
L 66.890625 64.015625 
L 48.09375 14.015625 
L 38.1875 14.015625 
L 19.390625 64.015625 
L 19.390625 0 
L 9.8125 0 
z
" id="DejaVuSans-4d"/>
     <path d="M 32.171875 -5.078125 
Q 28.375 -14.84375 24.75 -17.8125 
Q 21.140625 -20.796875 15.09375 -20.796875 
L 7.90625 -20.796875 
L 7.90625 -13.28125 
L 13.1875 -13.28125 
Q 16.890625 -13.28125 18.9375 -11.515625 
Q 21 -9.765625 23.484375 -3.21875 
L 25.09375 0.875 
L 2.984375 54.6875 
L 12.5 54.6875 
L 29.59375 11.921875 
L 46.6875 54.6875 
L 56.203125 54.6875 
z
" id="DejaVuSans-79"/>
     <path id="DejaVuSans-20"/>
     <path d="M 19.671875 34.8125 
L 19.671875 8.109375 
L 35.5 8.109375 
Q 43.453125 8.109375 47.28125 11.40625 
Q 51.125 14.703125 51.125 21.484375 
Q 51.125 28.328125 47.28125 31.5625 
Q 43.453125 34.8125 35.5 34.8125 
z
M 19.671875 64.796875 
L 19.671875 42.828125 
L 34.28125 42.828125 
Q 41.5 42.828125 45.03125 45.53125 
Q 48.578125 48.25 48.578125 53.8125 
Q 48.578125 59.328125 45.03125 62.0625 
Q 41.5 64.796875 34.28125 64.796875 
z
M 9.8125 72.90625 
L 35.015625 72.90625 
Q 46.296875 72.90625 52.390625 68.21875 
Q 58.5 63.53125 58.5 54.890625 
Q 58.5 48.1875 55.375 44.234375 
Q 52.25 40.28125 46.1875 39.3125 
Q 53.46875 37.75 57.5 32.78125 
Q 61.53125 27.828125 61.53125 20.40625 
Q 61.53125 10.640625 54.890625 5.3125 
Q 48.25 0 35.984375 0 
L 9.8125 0 
z
" id="DejaVuSans-42"/>
     <path d="M 30.609375 48.390625 
Q 23.390625 48.390625 19.1875 42.75 
Q 14.984375 37.109375 14.984375 27.296875 
Q 14.984375 17.484375 19.15625 11.84375 
Q 23.34375 6.203125 30.609375 6.203125 
Q 37.796875 6.203125 41.984375 11.859375 
Q 46.1875 17.53125 46.1875 27.296875 
Q 46.1875 37.015625 41.984375 42.703125 
Q 37.796875 48.390625 30.609375 48.390625 
z
M 30.609375 56 
Q 42.328125 56 49.015625 48.375 
Q 55.71875 40.765625 55.71875 27.296875 
Q 55.71875 13.875 49.015625 6.21875 
Q 42.328125 -1.421875 30.609375 -1.421875 
Q 18.84375 -1.421875 12.171875 6.21875 
Q 5.515625 13.875 5.515625 27.296875 
Q 5.515625 40.765625 12.171875 48.375 
Q 18.84375 56 30.609375 56 
z
" id="DejaVuSans-6f"/>
     <path d="M 54.890625 33.015625 
L 54.890625 0 
L 45.90625 0 
L 45.90625 32.71875 
Q 45.90625 40.484375 42.875 44.328125 
Q 39.84375 48.1875 33.796875 48.1875 
Q 26.515625 48.1875 22.3125 43.546875 
Q 18.109375 38.921875 18.109375 30.90625 
L 18.109375 0 
L 9.078125 0 
L 9.078125 54.6875 
L 18.109375 54.6875 
L 18.109375 46.1875 
Q 21.34375 51.125 25.703125 53.5625 
Q 30.078125 56 35.796875 56 
Q 45.21875 56 50.046875 50.171875 
Q 54.890625 44.34375 54.890625 33.015625 
z
" id="DejaVuSans-6e"/>
     <path d="M 41.109375 46.296875 
Q 39.59375 47.171875 37.8125 47.578125 
Q 36.03125 48 33.890625 48 
Q 26.265625 48 22.1875 43.046875 
Q 18.109375 38.09375 18.109375 28.8125 
L 18.109375 0 
L 9.078125 0 
L 9.078125 54.6875 
L 18.109375 54.6875 
L 18.109375 46.1875 
Q 20.953125 51.171875 25.484375 53.578125 
Q 30.03125 56 36.53125 56 
Q 37.453125 56 38.578125 55.875 
Q 39.703125 55.765625 41.0625 55.515625 
z
" id="DejaVuSans-72"/>
     <path d="M 9.421875 54.6875 
L 18.40625 54.6875 
L 18.40625 0 
L 9.421875 0 
z
M 9.421875 75.984375 
L 18.40625 75.984375 
L 18.40625 64.59375 
L 9.421875 64.59375 
z
" id="DejaVuSans-69"/>
     <path d="M 45.40625 27.984375 
Q 45.40625 37.75 41.375 43.109375 
Q 37.359375 48.484375 30.078125 48.484375 
Q 22.859375 48.484375 18.828125 43.109375 
Q 14.796875 37.75 14.796875 27.984375 
Q 14.796875 18.265625 18.828125 12.890625 
Q 22.859375 7.515625 30.078125 7.515625 
Q 37.359375 7.515625 41.375 12.890625 
Q 45.40625 18.265625 45.40625 27.984375 
z
M 54.390625 6.78125 
Q 54.390625 -7.171875 48.1875 -13.984375 
Q 42 -20.796875 29.203125 -20.796875 
Q 24.46875 -20.796875 20.265625 -20.09375 
Q 16.0625 -19.390625 12.109375 -17.921875 
L 12.109375 -9.1875 
Q 16.0625 -11.328125 19.921875 -12.34375 
Q 23.78125 -13.375 27.78125 -13.375 
Q 36.625 -13.375 41.015625 -8.765625 
Q 45.40625 -4.15625 45.40625 5.171875 
L 45.40625 9.625 
Q 42.625 4.78125 38.28125 2.390625 
Q 33.9375 0 27.875 0 
Q 17.828125 0 11.671875 7.65625 
Q 5.515625 15.328125 5.515625 27.984375 
Q 5.515625 40.671875 11.671875 48.328125 
Q 17.828125 56 27.875 56 
Q 33.9375 56 38.28125 53.609375 
Q 42.625 51.21875 45.40625 46.390625 
L 45.40625 54.6875 
L 54.390625 54.6875 
z
" id="DejaVuSans-67"/>
     <path d="M 44.28125 53.078125 
L 44.28125 44.578125 
Q 40.484375 46.53125 36.375 47.5 
Q 32.28125 48.484375 27.875 48.484375 
Q 21.1875 48.484375 17.84375 46.4375 
Q 14.5 44.390625 14.5 40.28125 
Q 14.5 37.15625 16.890625 35.375 
Q 19.28125 33.59375 26.515625 31.984375 
L 29.59375 31.296875 
Q 39.15625 29.25 43.1875 25.515625 
Q 47.21875 21.78125 47.21875 15.09375 
Q 47.21875 7.46875 41.1875 3.015625 
Q 35.15625 -1.421875 24.609375 -1.421875 
Q 20.21875 -1.421875 15.453125 -0.5625 
Q 10.6875 0.296875 5.421875 2 
L 5.421875 11.28125 
Q 10.40625 8.6875 15.234375 7.390625 
Q 20.0625 6.109375 24.8125 6.109375 
Q 31.15625 6.109375 34.5625 8.28125 
Q 37.984375 10.453125 37.984375 14.40625 
Q 37.984375 18.0625 35.515625 20.015625 
Q 33.0625 21.96875 24.703125 23.78125 
L 21.578125 24.515625 
Q 13.234375 26.265625 9.515625 29.90625 
Q 5.8125 33.546875 5.8125 39.890625 
Q 5.8125 47.609375 11.28125 51.796875 
Q 16.75 56 26.8125 56 
Q 31.78125 56 36.171875 55.265625 
Q 40.578125 54.546875 44.28125 53.078125 
z
" id="DejaVuSans-73"/>
    </defs>
    <g transform="translate(172.363125 35.472)scale(0.12 -0.12)">
     <use xlink:href="#DejaVuSans-4d"/>
     <use x="86.279297" xlink:href="#DejaVuSans-79"/>
     <use x="145.458984" xlink:href="#DejaVuSans-20"/>
     <use x="177.246094" xlink:href="#DejaVuSans-42"/>
     <use x="245.849609" xlink:href="#DejaVuSans-6f"/>
     <use x="307.03125" xlink:href="#DejaVuSans-6e"/>
     <use x="370.410156" xlink:href="#DejaVuSans-64"/>
     <use x="433.886719" xlink:href="#DejaVuSans-6f"/>
     <use x="495.068359" xlink:href="#DejaVuSans-72"/>
     <use x="536.181641" xlink:href="#DejaVuSans-61"/>
     <use x="597.460938" xlink:href="#DejaVuSans-20"/>
     <use x="629.248047" xlink:href="#DejaVuSans-65"/>
     <use x="690.771484" xlink:href="#DejaVuSans-61"/>
     <use x="752.050781" xlink:href="#DejaVuSans-72"/>
     <use x="793.148438" xlink:href="#DejaVuSans-6e"/>
     <use x="856.527344" xlink:href="#DejaVuSans-69"/>
     <use x="884.310547" xlink:href="#DejaVuSans-6e"/>
     <use x="947.689453" xlink:href="#DejaVuSans-67"/>
     <use x="1011.166016" xlink:href="#DejaVuSans-73"/>
    </g>
   </g>
   <g id="legend_1">
    <g id="patch_7">
     <path d="M 313.87 197.171312 
L 407.72 197.171312 
Q 409.72 197.171312 409.72 195.171312 
L 409.72 122.780687 
Q 409.72 120.780687 407.72 120.780687 
L 313.87 120.780687 
Q 311.87 120.780687 311.87 122.780687 
L 311.87 195.171312 
Q 311.87 197.171312 313.87 197.171312 
z
" style="fill:#ffffff;opacity:0.8;stroke:#cccccc;stroke-linejoin:miter;"/>
    </g>
    <g id="line2d_36">
     <path d="M 315.87 128.879125 
L 335.87 128.879125 
" style="fill:none;stroke:#0000ff;stroke-linecap:square;stroke-width:1.5;"/>
    </g>
    <g id="line2d_37"/>
    <g id="text_19">
     <!-- Interest -->
     <defs>
      <path d="M 9.8125 72.90625 
L 19.671875 72.90625 
L 19.671875 0 
L 9.8125 0 
z
" id="DejaVuSans-49"/>
     </defs>
     <g transform="translate(343.87 132.379125)scale(0.1 -0.1)">
      <use xlink:href="#DejaVuSans-49"/>
      <use x="29.492188" xlink:href="#DejaVuSans-6e"/>
      <use x="92.871094" xlink:href="#DejaVuSans-74"/>
      <use x="132.080078" xlink:href="#DejaVuSans-65"/>
      <use x="193.603516" xlink:href="#DejaVuSans-72"/>
      <use x="234.685547" xlink:href="#DejaVuSans-65"/>
      <use x="296.208984" xlink:href="#DejaVuSans-73"/>
      <use x="348.308594" xlink:href="#DejaVuSans-74"/>
     </g>
    </g>
    <g id="line2d_38">
     <path d="M 315.87 143.55725 
L 335.87 143.55725 
" style="fill:none;stroke:#ff0000;stroke-linecap:square;stroke-width:1.5;"/>
    </g>
    <g id="line2d_39"/>
    <g id="text_20">
     <!-- Balance -->
     <defs>
      <path d="M 9.421875 75.984375 
L 18.40625 75.984375 
L 18.40625 0 
L 9.421875 0 
z
" id="DejaVuSans-6c"/>
      <path d="M 48.78125 52.59375 
L 48.78125 44.1875 
Q 44.96875 46.296875 41.140625 47.34375 
Q 37.3125 48.390625 33.40625 48.390625 
Q 24.65625 48.390625 19.8125 42.84375 
Q 14.984375 37.3125 14.984375 27.296875 
Q 14.984375 17.28125 19.8125 11.734375 
Q 24.65625 6.203125 33.40625 6.203125 
Q 37.3125 6.203125 41.140625 7.25 
Q 44.96875 8.296875 48.78125 10.40625 
L 48.78125 2.09375 
Q 45.015625 0.34375 40.984375 -0.53125 
Q 36.96875 -1.421875 32.421875 -1.421875 
Q 20.0625 -1.421875 12.78125 6.34375 
Q 5.515625 14.109375 5.515625 27.296875 
Q 5.515625 40.671875 12.859375 48.328125 
Q 20.21875 56 33.015625 56 
Q 37.15625 56 41.109375 55.140625 
Q 45.0625 54.296875 48.78125 52.59375 
z
" id="DejaVuSans-63"/>
     </defs>
     <g transform="translate(343.87 147.05725)scale(0.1 -0.1)">
      <use xlink:href="#DejaVuSans-42"/>
      <use x="68.603516" xlink:href="#DejaVuSans-61"/>
      <use x="129.882812" xlink:href="#DejaVuSans-6c"/>
      <use x="157.666016" xlink:href="#DejaVuSans-61"/>
      <use x="218.945312" xlink:href="#DejaVuSans-6e"/>
      <use x="282.324219" xlink:href="#DejaVuSans-63"/>
      <use x="337.304688" xlink:href="#DejaVuSans-65"/>
     </g>
    </g>
    <g id="line2d_40">
     <path d="M 315.87 158.235375 
L 335.87 158.235375 
" style="fill:none;stroke:#008000;stroke-linecap:square;stroke-width:1.5;"/>
    </g>
    <g id="line2d_41"/>
    <g id="text_21">
     <!-- Investments -->
     <defs>
      <path d="M 2.984375 54.6875 
L 12.5 54.6875 
L 29.59375 8.796875 
L 46.6875 54.6875 
L 56.203125 54.6875 
L 35.6875 0 
L 23.484375 0 
z
" id="DejaVuSans-76"/>
      <path d="M 52 44.1875 
Q 55.375 50.25 60.0625 53.125 
Q 64.75 56 71.09375 56 
Q 79.640625 56 84.28125 50.015625 
Q 88.921875 44.046875 88.921875 33.015625 
L 88.921875 0 
L 79.890625 0 
L 79.890625 32.71875 
Q 79.890625 40.578125 77.09375 44.375 
Q 74.3125 48.1875 68.609375 48.1875 
Q 61.625 48.1875 57.5625 43.546875 
Q 53.515625 38.921875 53.515625 30.90625 
L 53.515625 0 
L 44.484375 0 
L 44.484375 32.71875 
Q 44.484375 40.625 41.703125 44.40625 
Q 38.921875 48.1875 33.109375 48.1875 
Q 26.21875 48.1875 22.15625 43.53125 
Q 18.109375 38.875 18.109375 30.90625 
L 18.109375 0 
L 9.078125 0 
L 9.078125 54.6875 
L 18.109375 54.6875 
L 18.109375 46.1875 
Q 21.1875 51.21875 25.484375 53.609375 
Q 29.78125 56 35.6875 56 
Q 41.65625 56 45.828125 52.96875 
Q 50 49.953125 52 44.1875 
z
" id="DejaVuSans-6d"/>
     </defs>
     <g transform="translate(343.87 161.735375)scale(0.1 -0.1)">
      <use xlink:href="#DejaVuSans-49"/>
      <use x="29.492188" xlink:href="#DejaVuSans-6e"/>
      <use x="92.871094" xlink:href="#DejaVuSans-76"/>
      <use x="152.050781" xlink:href="#DejaVuSans-65"/>
      <use x="213.574219" xlink:href="#DejaVuSans-73"/>
      <use x="265.673828" xlink:href="#DejaVuSans-74"/>
      <use x="304.882812" xlink:href="#DejaVuSans-6d"/>
      <use x="402.294922" xlink:href="#DejaVuSans-65"/>
      <use x="463.818359" xlink:href="#DejaVuSans-6e"/>
      <use x="527.197266" xlink:href="#DejaVuSans-74"/>
      <use x="566.40625" xlink:href="#DejaVuSans-73"/>
     </g>
    </g>
    <g id="line2d_42"/>
    <g id="line2d_43">
     <g>
      <use style="fill:#bfbf00;stroke:#bfbf00;" x="325.87" xlink:href="#m1f7389200c" y="172.9135"/>
     </g>
    </g>
    <g id="text_22">
     <!-- Deposits -->
     <defs>
      <path d="M 19.671875 64.796875 
L 19.671875 8.109375 
L 31.59375 8.109375 
Q 46.6875 8.109375 53.6875 14.9375 
Q 60.6875 21.78125 60.6875 36.53125 
Q 60.6875 51.171875 53.6875 57.984375 
Q 46.6875 64.796875 31.59375 64.796875 
z
M 9.8125 72.90625 
L 30.078125 72.90625 
Q 51.265625 72.90625 61.171875 64.09375 
Q 71.09375 55.28125 71.09375 36.53125 
Q 71.09375 17.671875 61.125 8.828125 
Q 51.171875 0 30.078125 0 
L 9.8125 0 
z
" id="DejaVuSans-44"/>
      <path d="M 18.109375 8.203125 
L 18.109375 -20.796875 
L 9.078125 -20.796875 
L 9.078125 54.6875 
L 18.109375 54.6875 
L 18.109375 46.390625 
Q 20.953125 51.265625 25.265625 53.625 
Q 29.59375 56 35.59375 56 
Q 45.5625 56 51.78125 48.09375 
Q 58.015625 40.1875 58.015625 27.296875 
Q 58.015625 14.40625 51.78125 6.484375 
Q 45.5625 -1.421875 35.59375 -1.421875 
Q 29.59375 -1.421875 25.265625 0.953125 
Q 20.953125 3.328125 18.109375 8.203125 
z
M 48.6875 27.296875 
Q 48.6875 37.203125 44.609375 42.84375 
Q 40.53125 48.484375 33.40625 48.484375 
Q 26.265625 48.484375 22.1875 42.84375 
Q 18.109375 37.203125 18.109375 27.296875 
Q 18.109375 17.390625 22.1875 11.75 
Q 26.265625 6.109375 33.40625 6.109375 
Q 40.53125 6.109375 44.609375 11.75 
Q 48.6875 17.390625 48.6875 27.296875 
z
" id="DejaVuSans-70"/>
     </defs>
     <g transform="translate(343.87 176.4135)scale(0.1 -0.1)">
      <use xlink:href="#DejaVuSans-44"/>
      <use x="77.001953" xlink:href="#DejaVuSans-65"/>
      <use x="138.525391" xlink:href="#DejaVuSans-70"/>
      <use x="202.001953" xlink:href="#DejaVuSans-6f"/>
      <use x="263.183594" xlink:href="#DejaVuSans-73"/>
      <use x="315.283203" xlink:href="#DejaVuSans-69"/>
      <use x="343.066406" xlink:href="#DejaVuSans-74"/>
      <use x="382.275391" xlink:href="#DejaVuSans-73"/>
     </g>
    </g>
    <g id="line2d_44"/>
    <g id="line2d_45">
     <g>
      <use style="fill:#008000;stroke:#008000;" x="325.87" xlink:href="#m8a1d47e1bf" y="187.591625"/>
     </g>
    </g>
    <g id="text_23">
     <!-- Commission -->
     <defs>
      <path d="M 64.40625 67.28125 
L 64.40625 56.890625 
Q 59.421875 61.53125 53.78125 63.8125 
Q 48.140625 66.109375 41.796875 66.109375 
Q 29.296875 66.109375 22.65625 58.46875 
Q 16.015625 50.828125 16.015625 36.375 
Q 16.015625 21.96875 22.65625 14.328125 
Q 29.296875 6.6875 41.796875 6.6875 
Q 48.140625 6.6875 53.78125 8.984375 
Q 59.421875 11.28125 64.40625 15.921875 
L 64.40625 5.609375 
Q 59.234375 2.09375 53.4375 0.328125 
Q 47.65625 -1.421875 41.21875 -1.421875 
Q 24.65625 -1.421875 15.125 8.703125 
Q 5.609375 18.84375 5.609375 36.375 
Q 5.609375 53.953125 15.125 64.078125 
Q 24.65625 74.21875 41.21875 74.21875 
Q 47.75 74.21875 53.53125 72.484375 
Q 59.328125 70.75 64.40625 67.28125 
z
" id="DejaVuSans-43"/>
     </defs>
     <g transform="translate(343.87 191.091625)scale(0.1 -0.1)">
      <use xlink:href="#DejaVuSans-43"/>
      <use x="69.824219" xlink:href="#DejaVuSans-6f"/>
      <use x="131.005859" xlink:href="#DejaVuSans-6d"/>
      <use x="228.417969" xlink:href="#DejaVuSans-6d"/>
      <use x="325.830078" xlink:href="#DejaVuSans-69"/>
      <use x="353.613281" xlink:href="#DejaVuSans-73"/>
      <use x="405.712891" xlink:href="#DejaVuSans-73"/>
      <use x="457.8125" xlink:href="#DejaVuSans-69"/>
      <use x="485.595703" xlink:href="#DejaVuSans-6f"/>
      <use x="546.777344" xlink:href="#DejaVuSans-6e"/>
     </g>
    </g>
   </g>
  </g>
 </g>
 <defs>
  <clipPath id="p54cac3d549">
   <rect height="235.008" width="357.12" x="57.6" y="41.472"/>
  </clipPath>
 </defs>
</svg>
