<?xml version="1.0" encoding="utf-8" standalone="no"?>
<!DOCTYPE svg PUBLIC "-//W3C//DTD SVG 1.1//EN"
  "http://www.w3.org/Graphics/SVG/1.1/DTD/svg11.dtd">
<!-- Created with matplotlib (http://matplotlib.org/) -->
<svg height="345.6pt" version="1.1" viewBox="0 0 460.8 345.6" width="460.8pt" xmlns="http://www.w3.org/2000/svg" xmlns:xlink="http://www.w3.org/1999/xlink">
 <defs>
  <style type="text/css">
*{stroke-linecap:butt;stroke-linejoin:round;}
  </style>
 </defs>
 <g id="figure_1">
  <g id="patch_1">
   <path d="M 0 345.6 
L 460.8 345.6 
L 460.8 0 
L 0 0 
z
" style="fill:#ffffff;"/>
  </g>
  <g id="axes_1">
   <g id="patch_2">
    <path d="M 57.6 276.48 
L 414.72 276.48 
L 414.72 41.472 
L 57.6 41.472 
z
" style="fill:#ffffff;"/>
   </g>
   <g id="matplotlib.axis_1">
    <g id="xtick_1">
     <g id="line2d_1">
      <path clip-path="url(#pbbf04385ee)" d="M 73.832727 276.48 
L 73.832727 41.472 
" style="fill:none;stroke:#b0b0b0;stroke-linecap:square;stroke-width:0.8;"/>
     </g>
     <g id="line2d_2">
      <defs>
       <path d="M 0 0 
L 0 3.5 
" id="meaae72175c" style="stroke:#000000;stroke-width:0.8;"/>
      </defs>
      <g>
       <use style="stroke:#000000;stroke-width:0.8;" x="73.832727" xlink:href="#meaae72175c" y="276.48"/>
      </g>
     </g>
     <g id="text_1">
      <!-- 2019-01 -->
      <defs>
       <path d="M 19.1875 8.296875 
L 53.609375 8.296875 
L 53.609375 0 
L 7.328125 0 
L 7.328125 8.296875 
Q 12.9375 14.109375 22.625 23.890625 
Q 32.328125 33.6875 34.8125 36.53125 
Q 39.546875 41.84375 41.421875 45.53125 
Q 43.3125 49.21875 43.3125 52.78125 
Q 43.3125 58.59375 39.234375 62.25 
Q 35.15625 65.921875 28.609375 65.921875 
Q 23.96875 65.921875 18.8125 64.3125 
Q 13.671875 62.703125 7.8125 59.421875 
L 7.8125 69.390625 
Q 13.765625 71.78125 18.9375 73 
Q 24.125 74.21875 28.421875 74.21875 
Q 39.75 74.21875 46.484375 68.546875 
Q 53.21875 62.890625 53.21875 53.421875 
Q 53.21875 48.921875 51.53125 44.890625 
Q 49.859375 40.875 45.40625 35.40625 
Q 44.1875 33.984375 37.640625 27.21875 
Q 31.109375 20.453125 19.1875 8.296875 
z
" id="DejaVuSans-32"/>
       <path d="M 31.78125 66.40625 
Q 24.171875 66.40625 20.328125 58.90625 
Q 16.5 51.421875 16.5 36.375 
Q 16.5 21.390625 20.328125 13.890625 
Q 24.171875 6.390625 31.78125 6.390625 
Q 39.453125 6.390625 43.28125 13.890625 
Q 47.125 21.390625 47.125 36.375 
Q 47.125 51.421875 43.28125 58.90625 
Q 39.453125 66.40625 31.78125 66.40625 
z
M 31.78125 74.21875 
Q 44.046875 74.21875 50.515625 64.515625 
Q 56.984375 54.828125 56.984375 36.375 
Q 56.984375 17.96875 50.515625 8.265625 
Q 44.046875 -1.421875 31.78125 -1.421875 
Q 19.53125 -1.421875 13.0625 8.265625 
Q 6.59375 17.96875 6.59375 36.375 
Q 6.59375 54.828125 13.0625 64.515625 
Q 19.53125 74.21875 31.78125 74.21875 
z
" id="DejaVuSans-30"/>
       <path d="M 12.40625 8.296875 
L 28.515625 8.296875 
L 28.515625 63.921875 
L 10.984375 60.40625 
L 10.984375 69.390625 
L 28.421875 72.90625 
L 38.28125 72.90625 
L 38.28125 8.296875 
L 54.390625 8.296875 
L 54.390625 0 
L 12.40625 0 
z
" id="DejaVuSans-31"/>
       <path d="M 10.984375 1.515625 
L 10.984375 10.5 
Q 14.703125 8.734375 18.5 7.8125 
Q 22.3125 6.890625 25.984375 6.890625 
Q 35.75 6.890625 40.890625 13.453125 
Q 46.046875 20.015625 46.78125 33.40625 
Q 43.953125 29.203125 39.59375 26.953125 
Q 35.25 24.703125 29.984375 24.703125 
Q 19.046875 24.703125 12.671875 31.3125 
Q 6.296875 37.9375 6.296875 49.421875 
Q 6.296875 60.640625 12.9375 67.421875 
Q 19.578125 74.21875 30.609375 74.21875 
Q 43.265625 74.21875 49.921875 64.515625 
Q 56.59375 54.828125 56.59375 36.375 
Q 56.59375 19.140625 48.40625 8.859375 
Q 40.234375 -1.421875 26.421875 -1.421875 
Q 22.703125 -1.421875 18.890625 -0.6875 
Q 15.09375 0.046875 10.984375 1.515625 
z
M 30.609375 32.421875 
Q 37.25 32.421875 41.125 36.953125 
Q 45.015625 41.5 45.015625 49.421875 
Q 45.015625 57.28125 41.125 61.84375 
Q 37.25 66.40625 30.609375 66.40625 
Q 23.96875 66.40625 20.09375 61.84375 
Q 16.21875 57.28125 16.21875 49.421875 
Q 16.21875 41.5 20.09375 36.953125 
Q 23.96875 32.421875 30.609375 32.421875 
z
" id="DejaVuSans-39"/>
       <path d="M 4.890625 31.390625 
L 31.203125 31.390625 
L 31.203125 23.390625 
L 4.890625 23.390625 
z
" id="DejaVuSans-2d"/>
      </defs>
      <g transform="translate(36.607906 310.951846)rotate(-30)scale(0.1 -0.1)">
       <use xlink:href="#DejaVuSans-32"/>
       <use x="63.623047" xlink:href="#DejaVuSans-30"/>
       <use x="127.246094" xlink:href="#DejaVuSans-31"/>
       <use x="190.869141" xlink:href="#DejaVuSans-39"/>
       <use x="254.492188" xlink:href="#DejaVuSans-2d"/>
       <use x="290.576172" xlink:href="#DejaVuSans-30"/>
       <use x="354.199219" xlink:href="#DejaVuSans-31"/>
      </g>
     </g>
    </g>
    <g id="xtick_2">
     <g id="line2d_3">
      <path clip-path="url(#pbbf04385ee)" d="M 127.490531 276.48 
L 127.490531 41.472 
" style="fill:none;stroke:#b0b0b0;stroke-linecap:square;stroke-width:0.8;"/>
     </g>
     <g id="line2d_4">
      <g>
       <use style="stroke:#000000;stroke-width:0.8;" x="127.490531" xlink:href="#meaae72175c" y="276.48"/>
      </g>
     </g>
     <g id="text_2">
      <!-- 2019-03 -->
      <defs>
       <path d="M 40.578125 39.3125 
Q 47.65625 37.796875 51.625 33 
Q 55.609375 28.21875 55.609375 21.1875 
Q 55.609375 10.40625 48.1875 4.484375 
Q 40.765625 -1.421875 27.09375 -1.421875 
Q 22.515625 -1.421875 17.65625 -0.515625 
Q 12.796875 0.390625 7.625 2.203125 
L 7.625 11.71875 
Q 11.71875 9.328125 16.59375 8.109375 
Q 21.484375 6.890625 26.8125 6.890625 
Q 36.078125 6.890625 40.9375 10.546875 
Q 45.796875 14.203125 45.796875 21.1875 
Q 45.796875 27.640625 41.28125 31.265625 
Q 36.765625 34.90625 28.71875 34.90625 
L 20.21875 34.90625 
L 20.21875 43.015625 
L 29.109375 43.015625 
Q 36.375 43.015625 40.234375 45.921875 
Q 44.09375 48.828125 44.09375 54.296875 
Q 44.09375 59.90625 40.109375 62.90625 
Q 36.140625 65.921875 28.71875 65.921875 
Q 24.65625 65.921875 20.015625 65.03125 
Q 15.375 64.15625 9.8125 62.3125 
L 9.8125 71.09375 
Q 15.4375 72.65625 20.34375 73.4375 
Q 25.25 74.21875 29.59375 74.21875 
Q 40.828125 74.21875 47.359375 69.109375 
Q 53.90625 64.015625 53.90625 55.328125 
Q 53.90625 49.265625 50.4375 45.09375 
Q 46.96875 40.921875 40.578125 39.3125 
z
" id="DejaVuSans-33"/>
      </defs>
      <g transform="translate(90.26571 310.951846)rotate(-30)scale(0.1 -0.1)">
       <use xlink:href="#DejaVuSans-32"/>
       <use x="63.623047" xlink:href="#DejaVuSans-30"/>
       <use x="127.246094" xlink:href="#DejaVuSans-31"/>
       <use x="190.869141" xlink:href="#DejaVuSans-39"/>
       <use x="254.492188" xlink:href="#DejaVuSans-2d"/>
       <use x="290.576172" xlink:href="#DejaVuSans-30"/>
       <use x="354.199219" xlink:href="#DejaVuSans-33"/>
      </g>
     </g>
    </g>
    <g id="xtick_3">
     <g id="line2d_5">
      <path clip-path="url(#pbbf04385ee)" d="M 182.967244 276.48 
L 182.967244 41.472 
" style="fill:none;stroke:#b0b0b0;stroke-linecap:square;stroke-width:0.8;"/>
     </g>
     <g id="line2d_6">
      <g>
       <use style="stroke:#000000;stroke-width:0.8;" x="182.967244" xlink:href="#meaae72175c" y="276.48"/>
      </g>
     </g>
     <g id="text_3">
      <!-- 2019-05 -->
      <defs>
       <path d="M 10.796875 72.90625 
L 49.515625 72.90625 
L 49.515625 64.59375 
L 19.828125 64.59375 
L 19.828125 46.734375 
Q 21.96875 47.46875 24.109375 47.828125 
Q 26.265625 48.1875 28.421875 48.1875 
Q 40.625 48.1875 47.75 41.5 
Q 54.890625 34.8125 54.890625 23.390625 
Q 54.890625 11.625 47.5625 5.09375 
Q 40.234375 -1.421875 26.90625 -1.421875 
Q 22.3125 -1.421875 17.546875 -0.640625 
Q 12.796875 0.140625 7.71875 1.703125 
L 7.71875 11.625 
Q 12.109375 9.234375 16.796875 8.0625 
Q 21.484375 6.890625 26.703125 6.890625 
Q 35.15625 6.890625 40.078125 11.328125 
Q 45.015625 15.765625 45.015625 23.390625 
Q 45.015625 31 40.078125 35.4375 
Q 35.15625 39.890625 26.703125 39.890625 
Q 22.75 39.890625 18.8125 39.015625 
Q 14.890625 38.140625 10.796875 36.28125 
z
" id="DejaVuSans-35"/>
      </defs>
      <g transform="translate(145.742423 310.951846)rotate(-30)scale(0.1 -0.1)">
       <use xlink:href="#DejaVuSans-32"/>
       <use x="63.623047" xlink:href="#DejaVuSans-30"/>
       <use x="127.246094" xlink:href="#DejaVuSans-31"/>
       <use x="190.869141" xlink:href="#DejaVuSans-39"/>
       <use x="254.492188" xlink:href="#DejaVuSans-2d"/>
       <use x="290.576172" xlink:href="#DejaVuSans-30"/>
       <use x="354.199219" xlink:href="#DejaVuSans-35"/>
      </g>
     </g>
    </g>
    <g id="xtick_4">
     <g id="line2d_7">
      <path clip-path="url(#pbbf04385ee)" d="M 238.443957 276.48 
L 238.443957 41.472 
" style="fill:none;stroke:#b0b0b0;stroke-linecap:square;stroke-width:0.8;"/>
     </g>
     <g id="line2d_8">
      <g>
       <use style="stroke:#000000;stroke-width:0.8;" x="238.443957" xlink:href="#meaae72175c" y="276.48"/>
      </g>
     </g>
     <g id="text_4">
      <!-- 2019-07 -->
      <defs>
       <path d="M 8.203125 72.90625 
L 55.078125 72.90625 
L 55.078125 68.703125 
L 28.609375 0 
L 18.3125 0 
L 43.21875 64.59375 
L 8.203125 64.59375 
z
" id="DejaVuSans-37"/>
      </defs>
      <g transform="translate(201.219136 310.951846)rotate(-30)scale(0.1 -0.1)">
       <use xlink:href="#DejaVuSans-32"/>
       <use x="63.623047" xlink:href="#DejaVuSans-30"/>
       <use x="127.246094" xlink:href="#DejaVuSans-31"/>
       <use x="190.869141" xlink:href="#DejaVuSans-39"/>
       <use x="254.492188" xlink:href="#DejaVuSans-2d"/>
       <use x="290.576172" xlink:href="#DejaVuSans-30"/>
       <use x="354.199219" xlink:href="#DejaVuSans-37"/>
      </g>
     </g>
    </g>
    <g id="xtick_5">
     <g id="line2d_9">
      <path clip-path="url(#pbbf04385ee)" d="M 294.830124 276.48 
L 294.830124 41.472 
" style="fill:none;stroke:#b0b0b0;stroke-linecap:square;stroke-width:0.8;"/>
     </g>
     <g id="line2d_10">
      <g>
       <use style="stroke:#000000;stroke-width:0.8;" x="294.830124" xlink:href="#meaae72175c" y="276.48"/>
      </g>
     </g>
     <g id="text_5">
      <!-- 2019-09 -->
      <g transform="translate(257.605303 310.951846)rotate(-30)scale(0.1 -0.1)">
       <use xlink:href="#DejaVuSans-32"/>
       <use x="63.623047" xlink:href="#DejaVuSans-30"/>
       <use x="127.246094" xlink:href="#DejaVuSans-31"/>
       <use x="190.869141" xlink:href="#DejaVuSans-39"/>
       <use x="254.492188" xlink:href="#DejaVuSans-2d"/>
       <use x="290.576172" xlink:href="#DejaVuSans-30"/>
       <use x="354.199219" xlink:href="#DejaVuSans-39"/>
      </g>
     </g>
    </g>
    <g id="xtick_6">
     <g id="line2d_11">
      <path clip-path="url(#pbbf04385ee)" d="M 350.306836 276.48 
L 350.306836 41.472 
" style="fill:none;stroke:#b0b0b0;stroke-linecap:square;stroke-width:0.8;"/>
     </g>
     <g id="line2d_12">
      <g>
       <use style="stroke:#000000;stroke-width:0.8;" x="350.306836" xlink:href="#meaae72175c" y="276.48"/>
      </g>
     </g>
     <g id="text_6">
      <!-- 2019-11 -->
      <g transform="translate(313.082015 310.951846)rotate(-30)scale(0.1 -0.1)">
       <use xlink:href="#DejaVuSans-32"/>
       <use x="63.623047" xlink:href="#DejaVuSans-30"/>
       <use x="127.246094" xlink:href="#DejaVuSans-31"/>
       <use x="190.869141" xlink:href="#DejaVuSans-39"/>
       <use x="254.492188" xlink:href="#DejaVuSans-2d"/>
       <use x="290.576172" xlink:href="#DejaVuSans-31"/>
       <use x="354.199219" xlink:href="#DejaVuSans-31"/>
      </g>
     </g>
    </g>
    <g id="xtick_7">
     <g id="line2d_13">
      <path clip-path="url(#pbbf04385ee)" d="M 405.783549 276.48 
L 405.783549 41.472 
" style="fill:none;stroke:#b0b0b0;stroke-linecap:square;stroke-width:0.8;"/>
     </g>
     <g id="line2d_14">
      <g>
       <use style="stroke:#000000;stroke-width:0.8;" x="405.783549" xlink:href="#meaae72175c" y="276.48"/>
      </g>
     </g>
     <g id="text_7">
      <!-- 2020-01 -->
      <g transform="translate(368.558728 310.951846)rotate(-30)scale(0.1 -0.1)">
       <use xlink:href="#DejaVuSans-32"/>
       <use x="63.623047" xlink:href="#DejaVuSans-30"/>
       <use x="127.246094" xlink:href="#DejaVuSans-32"/>
       <use x="190.869141" xlink:href="#DejaVuSans-30"/>
       <use x="254.492188" xlink:href="#DejaVuSans-2d"/>
       <use x="290.576172" xlink:href="#DejaVuSans-30"/>
       <use x="354.199219" xlink:href="#DejaVuSans-31"/>
      </g>
     </g>
    </g>
    <g id="text_8">
     <!-- date -->
     <defs>
      <path d="M 45.40625 46.390625 
L 45.40625 75.984375 
L 54.390625 75.984375 
L 54.390625 0 
L 45.40625 0 
L 45.40625 8.203125 
Q 42.578125 3.328125 38.25 0.953125 
Q 33.9375 -1.421875 27.875 -1.421875 
Q 17.96875 -1.421875 11.734375 6.484375 
Q 5.515625 14.40625 5.515625 27.296875 
Q 5.515625 40.1875 11.734375 48.09375 
Q 17.96875 56 27.875 56 
Q 33.9375 56 38.25 53.625 
Q 42.578125 51.265625 45.40625 46.390625 
z
M 14.796875 27.296875 
Q 14.796875 17.390625 18.875 11.75 
Q 22.953125 6.109375 30.078125 6.109375 
Q 37.203125 6.109375 41.296875 11.75 
Q 45.40625 17.390625 45.40625 27.296875 
Q 45.40625 37.203125 41.296875 42.84375 
Q 37.203125 48.484375 30.078125 48.484375 
Q 22.953125 48.484375 18.875 42.84375 
Q 14.796875 37.203125 14.796875 27.296875 
z
" id="DejaVuSans-64"/>
      <path d="M 34.28125 27.484375 
Q 23.390625 27.484375 19.1875 25 
Q 14.984375 22.515625 14.984375 16.5 
Q 14.984375 11.71875 18.140625 8.90625 
Q 21.296875 6.109375 26.703125 6.109375 
Q 34.1875 6.109375 38.703125 11.40625 
Q 43.21875 16.703125 43.21875 25.484375 
L 43.21875 27.484375 
z
M 52.203125 31.203125 
L 52.203125 0 
L 43.21875 0 
L 43.21875 8.296875 
Q 40.140625 3.328125 35.546875 0.953125 
Q 30.953125 -1.421875 24.3125 -1.421875 
Q 15.921875 -1.421875 10.953125 3.296875 
Q 6 8.015625 6 15.921875 
Q 6 25.140625 12.171875 29.828125 
Q 18.359375 34.515625 30.609375 34.515625 
L 43.21875 34.515625 
L 43.21875 35.40625 
Q 43.21875 41.609375 39.140625 45 
Q 35.0625 48.390625 27.6875 48.390625 
Q 23 48.390625 18.546875 47.265625 
Q 14.109375 46.140625 10.015625 43.890625 
L 10.015625 52.203125 
Q 14.9375 54.109375 19.578125 55.046875 
Q 24.21875 56 28.609375 56 
Q 40.484375 56 46.34375 49.84375 
Q 52.203125 43.703125 52.203125 31.203125 
z
" id="DejaVuSans-61"/>
      <path d="M 18.3125 70.21875 
L 18.3125 54.6875 
L 36.8125 54.6875 
L 36.8125 47.703125 
L 18.3125 47.703125 
L 18.3125 18.015625 
Q 18.3125 11.328125 20.140625 9.421875 
Q 21.96875 7.515625 27.59375 7.515625 
L 36.8125 7.515625 
L 36.8125 0 
L 27.59375 0 
Q 17.1875 0 13.234375 3.875 
Q 9.28125 7.765625 9.28125 18.015625 
L 9.28125 47.703125 
L 2.6875 47.703125 
L 2.6875 54.6875 
L 9.28125 54.6875 
L 9.28125 70.21875 
z
" id="DejaVuSans-74"/>
      <path d="M 56.203125 29.59375 
L 56.203125 25.203125 
L 14.890625 25.203125 
Q 15.484375 15.921875 20.484375 11.0625 
Q 25.484375 6.203125 34.421875 6.203125 
Q 39.59375 6.203125 44.453125 7.46875 
Q 49.3125 8.734375 54.109375 11.28125 
L 54.109375 2.78125 
Q 49.265625 0.734375 44.1875 -0.34375 
Q 39.109375 -1.421875 33.890625 -1.421875 
Q 20.796875 -1.421875 13.15625 6.1875 
Q 5.515625 13.8125 5.515625 26.8125 
Q 5.515625 40.234375 12.765625 48.109375 
Q 20.015625 56 32.328125 56 
Q 43.359375 56 49.78125 48.890625 
Q 56.203125 41.796875 56.203125 29.59375 
z
M 47.21875 32.234375 
Q 47.125 39.59375 43.09375 43.984375 
Q 39.0625 48.390625 32.421875 48.390625 
Q 24.90625 48.390625 20.390625 44.140625 
Q 15.875 39.890625 15.1875 32.171875 
z
" id="DejaVuSans-65"/>
     </defs>
     <g transform="translate(224.885 324.351346)scale(0.1 -0.1)">
      <use xlink:href="#DejaVuSans-64"/>
      <use x="63.476562" xlink:href="#DejaVuSans-61"/>
      <use x="124.755859" xlink:href="#DejaVuSans-74"/>
      <use x="163.964844" xlink:href="#DejaVuSans-65"/>
     </g>
    </g>
   </g>
   <g id="matplotlib.axis_2">
    <g id="ytick_1">
     <g id="line2d_15">
      <path clip-path="url(#pbbf04385ee)" d="M 57.6 265.797818 
L 414.72 265.797818 
" style="fill:none;stroke:#b0b0b0;stroke-linecap:square;stroke-width:0.8;"/>
     </g>
     <g id="line2d_16">
      <defs>
       <path d="M 0 0 
L -3.5 0 
" id="m94adab2a52" style="stroke:#000000;stroke-width:0.8;"/>
      </defs>
      <g>
       <use style="stroke:#000000;stroke-width:0.8;" x="57.6" xlink:href="#m94adab2a52" y="265.797818"/>
      </g>
     </g>
     <g id="text_9">
      <!-- 0 -->
      <g transform="translate(44.2375 269.597037)scale(0.1 -0.1)">
       <use xlink:href="#DejaVuSans-30"/>
      </g>
     </g>
    </g>
    <g id="ytick_2">
     <g id="line2d_17">
      <path clip-path="url(#pbbf04385ee)" d="M 57.6 226.476197 
L 414.72 226.476197 
" style="fill:none;stroke:#b0b0b0;stroke-linecap:square;stroke-width:0.8;"/>
     </g>
     <g id="line2d_18">
      <g>
       <use style="stroke:#000000;stroke-width:0.8;" x="57.6" xlink:href="#m94adab2a52" y="226.476197"/>
      </g>
     </g>
     <g id="text_10">
      <!-- 2000 -->
      <g transform="translate(25.15 230.275416)scale(0.1 -0.1)">
       <use xlink:href="#DejaVuSans-32"/>
       <use x="63.623047" xlink:href="#DejaVuSans-30"/>
       <use x="127.246094" xlink:href="#DejaVuSans-30"/>
       <use x="190.869141" xlink:href="#DejaVuSans-30"/>
      </g>
     </g>
    </g>
    <g id="ytick_3">
     <g id="line2d_19">
      <path clip-path="url(#pbbf04385ee)" d="M 57.6 187.154575 
L 414.72 187.154575 
" style="fill:none;stroke:#b0b0b0;stroke-linecap:square;stroke-width:0.8;"/>
     </g>
     <g id="line2d_20">
      <g>
       <use style="stroke:#000000;stroke-width:0.8;" x="57.6" xlink:href="#m94adab2a52" y="187.154575"/>
      </g>
     </g>
     <g id="text_11">
      <!-- 4000 -->
      <defs>
       <path d="M 37.796875 64.3125 
L 12.890625 25.390625 
L 37.796875 25.390625 
z
M 35.203125 72.90625 
L 47.609375 72.90625 
L 47.609375 25.390625 
L 58.015625 25.390625 
L 58.015625 17.1875 
L 47.609375 17.1875 
L 47.609375 0 
L 37.796875 0 
L 37.796875 17.1875 
L 4.890625 17.1875 
L 4.890625 26.703125 
z
" id="DejaVuSans-34"/>
      </defs>
      <g transform="translate(25.15 190.953794)scale(0.1 -0.1)">
       <use xlink:href="#DejaVuSans-34"/>
       <use x="63.623047" xlink:href="#DejaVuSans-30"/>
       <use x="127.246094" xlink:href="#DejaVuSans-30"/>
       <use x="190.869141" xlink:href="#DejaVuSans-30"/>
      </g>
     </g>
    </g>
    <g id="ytick_4">
     <g id="line2d_21">
      <path clip-path="url(#pbbf04385ee)" d="M 57.6 147.832954 
L 414.72 147.832954 
" style="fill:none;stroke:#b0b0b0;stroke-linecap:square;stroke-width:0.8;"/>
     </g>
     <g id="line2d_22">
      <g>
       <use style="stroke:#000000;stroke-width:0.8;" x="57.6" xlink:href="#m94adab2a52" y="147.832954"/>
      </g>
     </g>
     <g id="text_12">
      <!-- 6000 -->
      <defs>
       <path d="M 33.015625 40.375 
Q 26.375 40.375 22.484375 35.828125 
Q 18.609375 31.296875 18.609375 23.390625 
Q 18.609375 15.53125 22.484375 10.953125 
Q 26.375 6.390625 33.015625 6.390625 
Q 39.65625 6.390625 43.53125 10.953125 
Q 47.40625 15.53125 47.40625 23.390625 
Q 47.40625 31.296875 43.53125 35.828125 
Q 39.65625 40.375 33.015625 40.375 
z
M 52.59375 71.296875 
L 52.59375 62.3125 
Q 48.875 64.0625 45.09375 64.984375 
Q 41.3125 65.921875 37.59375 65.921875 
Q 27.828125 65.921875 22.671875 59.328125 
Q 17.53125 52.734375 16.796875 39.40625 
Q 19.671875 43.65625 24.015625 45.921875 
Q 28.375 48.1875 33.59375 48.1875 
Q 44.578125 48.1875 50.953125 41.515625 
Q 57.328125 34.859375 57.328125 23.390625 
Q 57.328125 12.15625 50.6875 5.359375 
Q 44.046875 -1.421875 33.015625 -1.421875 
Q 20.359375 -1.421875 13.671875 8.265625 
Q 6.984375 17.96875 6.984375 36.375 
Q 6.984375 53.65625 15.1875 63.9375 
Q 23.390625 74.21875 37.203125 74.21875 
Q 40.921875 74.21875 44.703125 73.484375 
Q 48.484375 72.75 52.59375 71.296875 
z
" id="DejaVuSans-36"/>
      </defs>
      <g transform="translate(25.15 151.632173)scale(0.1 -0.1)">
       <use xlink:href="#DejaVuSans-36"/>
       <use x="63.623047" xlink:href="#DejaVuSans-30"/>
       <use x="127.246094" xlink:href="#DejaVuSans-30"/>
       <use x="190.869141" xlink:href="#DejaVuSans-30"/>
      </g>
     </g>
    </g>
    <g id="ytick_5">
     <g id="line2d_23">
      <path clip-path="url(#pbbf04385ee)" d="M 57.6 108.511333 
L 414.72 108.511333 
" style="fill:none;stroke:#b0b0b0;stroke-linecap:square;stroke-width:0.8;"/>
     </g>
     <g id="line2d_24">
      <g>
       <use style="stroke:#000000;stroke-width:0.8;" x="57.6" xlink:href="#m94adab2a52" y="108.511333"/>
      </g>
     </g>
     <g id="text_13">
      <!-- 8000 -->
      <defs>
       <path d="M 31.78125 34.625 
Q 24.75 34.625 20.71875 30.859375 
Q 16.703125 27.09375 16.703125 20.515625 
Q 16.703125 13.921875 20.71875 10.15625 
Q 24.75 6.390625 31.78125 6.390625 
Q 38.8125 6.390625 42.859375 10.171875 
Q 46.921875 13.96875 46.921875 20.515625 
Q 46.921875 27.09375 42.890625 30.859375 
Q 38.875 34.625 31.78125 34.625 
z
M 21.921875 38.8125 
Q 15.578125 40.375 12.03125 44.71875 
Q 8.5 49.078125 8.5 55.328125 
Q 8.5 64.0625 14.71875 69.140625 
Q 20.953125 74.21875 31.78125 74.21875 
Q 42.671875 74.21875 48.875 69.140625 
Q 55.078125 64.0625 55.078125 55.328125 
Q 55.078125 49.078125 51.53125 44.71875 
Q 48 40.375 41.703125 38.8125 
Q 48.828125 37.15625 52.796875 32.3125 
Q 56.78125 27.484375 56.78125 20.515625 
Q 56.78125 9.90625 50.3125 4.234375 
Q 43.84375 -1.421875 31.78125 -1.421875 
Q 19.734375 -1.421875 13.25 4.234375 
Q 6.78125 9.90625 6.78125 20.515625 
Q 6.78125 27.484375 10.78125 32.3125 
Q 14.796875 37.15625 21.921875 38.8125 
z
M 18.3125 54.390625 
Q 18.3125 48.734375 21.84375 45.5625 
Q 25.390625 42.390625 31.78125 42.390625 
Q 38.140625 42.390625 41.71875 45.5625 
Q 45.3125 48.734375 45.3125 54.390625 
Q 45.3125 60.0625 41.71875 63.234375 
Q 38.140625 66.40625 31.78125 66.40625 
Q 25.390625 66.40625 21.84375 63.234375 
Q 18.3125 60.0625 18.3125 54.390625 
z
" id="DejaVuSans-38"/>
      </defs>
      <g transform="translate(25.15 112.310551)scale(0.1 -0.1)">
       <use xlink:href="#DejaVuSans-38"/>
       <use x="63.623047" xlink:href="#DejaVuSans-30"/>
       <use x="127.246094" xlink:href="#DejaVuSans-30"/>
       <use x="190.869141" xlink:href="#DejaVuSans-30"/>
      </g>
     </g>
    </g>
    <g id="ytick_6">
     <g id="line2d_25">
      <path clip-path="url(#pbbf04385ee)" d="M 57.6 69.189711 
L 414.72 69.189711 
" style="fill:none;stroke:#b0b0b0;stroke-linecap:square;stroke-width:0.8;"/>
     </g>
     <g id="line2d_26">
      <g>
       <use style="stroke:#000000;stroke-width:0.8;" x="57.6" xlink:href="#m94adab2a52" y="69.189711"/>
      </g>
     </g>
     <g id="text_14">
      <!-- 10000 -->
      <g transform="translate(18.7875 72.98893)scale(0.1 -0.1)">
       <use xlink:href="#DejaVuSans-31"/>
       <use x="63.623047" xlink:href="#DejaVuSans-30"/>
       <use x="127.246094" xlink:href="#DejaVuSans-30"/>
       <use x="190.869141" xlink:href="#DejaVuSans-30"/>
       <use x="254.492188" xlink:href="#DejaVuSans-30"/>
      </g>
     </g>
    </g>
    <g id="text_15">
     <!-- EUR -->
     <defs>
      <path d="M 9.8125 72.90625 
L 55.90625 72.90625 
L 55.90625 64.59375 
L 19.671875 64.59375 
L 19.671875 43.015625 
L 54.390625 43.015625 
L 54.390625 34.71875 
L 19.671875 34.71875 
L 19.671875 8.296875 
L 56.78125 8.296875 
L 56.78125 0 
L 9.8125 0 
z
" id="DejaVuSans-45"/>
      <path d="M 8.6875 72.90625 
L 18.609375 72.90625 
L 18.609375 28.609375 
Q 18.609375 16.890625 22.84375 11.734375 
Q 27.09375 6.59375 36.625 6.59375 
Q 46.09375 6.59375 50.34375 11.734375 
Q 54.59375 16.890625 54.59375 28.609375 
L 54.59375 72.90625 
L 64.5 72.90625 
L 64.5 27.390625 
Q 64.5 13.140625 57.4375 5.859375 
Q 50.390625 -1.421875 36.625 -1.421875 
Q 22.796875 -1.421875 15.734375 5.859375 
Q 8.6875 13.140625 8.6875 27.390625 
z
" id="DejaVuSans-55"/>
      <path d="M 44.390625 34.1875 
Q 47.5625 33.109375 50.5625 29.59375 
Q 53.5625 26.078125 56.59375 19.921875 
L 66.609375 0 
L 56 0 
L 46.6875 18.703125 
Q 43.0625 26.03125 39.671875 28.421875 
Q 36.28125 30.8125 30.421875 30.8125 
L 19.671875 30.8125 
L 19.671875 0 
L 9.8125 0 
L 9.8125 72.90625 
L 32.078125 72.90625 
Q 44.578125 72.90625 50.734375 67.671875 
Q 56.890625 62.453125 56.890625 51.90625 
Q 56.890625 45.015625 53.6875 40.46875 
Q 50.484375 35.9375 44.390625 34.1875 
z
M 19.671875 64.796875 
L 19.671875 38.921875 
L 32.078125 38.921875 
Q 39.203125 38.921875 42.84375 42.21875 
Q 46.484375 45.515625 46.484375 51.90625 
Q 46.484375 58.296875 42.84375 61.546875 
Q 39.203125 64.796875 32.078125 64.796875 
z
" id="DejaVuSans-52"/>
     </defs>
     <g transform="translate(12.707813 169.268969)rotate(-90)scale(0.1 -0.1)">
      <use xlink:href="#DejaVuSans-45"/>
      <use x="63.183594" xlink:href="#DejaVuSans-55"/>
      <use x="136.376953" xlink:href="#DejaVuSans-52"/>
     </g>
    </g>
   </g>
   <g id="line2d_27">
    <path clip-path="url(#pbbf04385ee)" d="M 73.832727 265.797818 
L 105.663628 265.709839 
L 105.663628 265.69127 
L 111.120354 265.543495 
L 111.120354 265.423942 
L 111.120354 265.423942 
L 112.939262 265.355537 
L 112.939262 265.314573 
L 112.939262 265.152739 
L 117.486534 264.99722 
L 117.486534 264.814854 
L 120.214897 264.693555 
L 120.214897 264.676161 
L 120.214897 264.676161 
L 124.762168 264.564224 
L 124.762168 264.543526 
L 130.218894 264.432971 
L 130.218894 264.146707 
L 132.037803 264.040738 
L 132.037803 263.997462 
L 133.856711 263.887258 
L 133.856711 263.842566 
L 137.494529 263.728948 
L 137.494529 263.680332 
L 138.403983 263.56554 
L 138.403983 263.517754 
L 138.403983 263.517754 
L 142.951255 263.385457 
L 142.951255 263.385457 
L 142.951255 263.278816 
L 146.589072 263.174876 
L 146.589072 263.14746 
L 152.955252 263.018782 
L 152.955252 262.999895 
L 157.502523 262.887712 
L 157.502523 262.751419 
L 158.411978 262.637598 
L 158.411978 262.623512 
L 162.049795 262.502227 
L 162.049795 262.438718 
L 164.778158 262.318663 
L 164.778158 262.273866 
L 168.415975 262.201096 
L 168.415975 262.164589 
L 168.415975 261.947585 
L 171.144338 261.82383 
L 171.144338 261.625851 
L 175.69161 261.511853 
L 175.69161 261.502253 
L 181.148335 261.36425 
L 181.148335 261.332398 
L 184.786153 261.179883 
L 184.786153 261.179883 
L 184.786153 261.101052 
L 184.786153 261.101052 
L 187.514515 260.980618 
L 187.514515 260.916049 
L 189.333424 260.794985 
L 189.333424 260.7919 
L 193.880696 260.660208 
L 193.880696 260.515179 
L 195.699604 260.409624 
L 195.699604 260.363914 
L 200.246876 260.207608 
L 200.246876 260.098211 
L 203.884693 259.94694 
L 203.884693 259.944991 
L 212.979236 259.828873 
L 212.979236 259.697019 
L 213.88869 259.582261 
L 216.617053 259.450889 
L 216.617053 259.417768 
L 219.345416 259.294116 
L 219.345416 259.242972 
L 221.164325 259.144308 
L 221.164325 259.043774 
L 222.073779 258.934256 
L 222.073779 258.899868 
L 222.073779 258.899868 
L 225.711596 258.782092 
L 225.711596 258.751053 
L 225.711596 258.751053 
L 226.621051 258.642297 
L 226.621051 258.540288 
L 229.349414 258.431126 
L 229.349414 258.422017 
L 235.715594 258.290297 
L 235.715594 258.27741 
L 238.443957 258.163466 
L 238.443957 258.091772 
L 238.443957 258.091772 
L 239.353411 257.979589 
L 239.353411 257.953261 
L 240.262865 257.837445 
L 240.262865 257.344391 
L 241.17232 257.231157 
L 241.17232 256.750736 
L 242.081774 256.750736 
L 242.081774 256.645445 
L 242.081774 256.546016 
L 244.810137 256.423561 
L 244.810137 255.700098 
L 245.719591 255.588452 
L 245.719591 255.551673 
L 246.629045 255.551673 
L 246.629045 255.50466 
L 246.629045 255.214839 
L 248.447954 255.099568 
L 248.447954 254.895716 
L 248.447954 254.895716 
L 251.176317 254.78133 
L 251.176317 254.559003 
L 252.085771 254.449617 
L 252.085771 254.320193 
L 252.995225 254.212946 
L 252.995225 253.972671 
L 253.90468 253.863879 
L 253.90468 253.433587 
L 254.814134 253.376775 
L 254.814134 253.169332 
L 257.542497 252.938216 
L 257.542497 252.872898 
L 258.451951 252.77614 
L 258.451951 252.56699 
L 261.180314 252.44799 
L 261.180314 252.44799 
L 261.180314 252.381015 
L 263.908677 252.269992 
L 265.727586 252.186559 
L 265.727586 252.093928 
L 266.63704 251.981547 
L 266.63704 251.774527 
L 267.546494 251.662475 
L 267.546494 251.636992 
L 270.274857 251.532243 
L 270.274857 251.532243 
L 270.274857 250.361535 
L 271.184312 250.250326 
L 271.184312 249.798917 
L 272.093766 249.691747 
L 272.093766 249.570268 
L 273.00322 249.570268 
L 273.00322 249.459358 
L 273.00322 249.318525 
L 273.912675 249.209025 
L 273.912675 249.160849 
L 276.641037 249.045398 
L 276.641037 249.045398 
L 276.641037 248.845365 
L 277.550492 248.739469 
L 277.550492 248.646634 
L 278.459946 248.534334 
L 278.459946 248.519633 
L 278.459946 248.519633 
L 279.3694 248.519633 
L 279.3694 248.430256 
L 279.3694 248.301625 
L 280.278855 248.193513 
L 280.278855 247.930529 
L 283.007218 247.805744 
L 283.007218 247.124592 
L 283.916672 247.124592 
L 283.916672 247.015658 
L 283.916672 246.943348 
L 284.826126 246.832135 
L 284.826126 246.799974 
L 286.645035 246.691757 
L 286.645035 246.559354 
L 289.373398 246.466778 
L 289.373398 246.359263 
L 291.192306 246.269655 
L 291.192306 246.252711 
L 291.192306 246.15328 
L 291.192306 246.15328 
L 293.920669 246.055093 
L 293.920669 245.974062 
L 295.739578 245.86057 
L 295.739578 245.715588 
L 295.739578 245.715588 
L 296.649032 245.605178 
L 296.649032 245.29522 
L 297.558486 245.174097 
L 297.558486 244.710216 
L 298.467941 244.598531 
L 298.467941 244.29766 
L 299.377395 244.186624 
L 299.377395 243.764529 
L 302.105758 243.649642 
L 302.105758 243.352184 
L 303.015212 243.244505 
L 303.015212 243.122531 
L 303.924667 243.011734 
L 303.924667 243.005547 
L 305.743575 242.894538 
L 305.743575 242.639926 
L 308.471938 242.525743 
L 308.471938 242.018307 
L 309.381392 241.907607 
L 309.381392 241.765892 
L 310.290847 241.765892 
L 310.290847 241.655554 
L 310.290847 241.326064 
L 311.200301 241.216091 
L 311.200301 241.182051 
L 312.109755 241.076652 
L 312.109755 240.994162 
L 314.838118 240.881998 
L 314.838118 240.881998 
L 314.838118 240.821559 
L 315.747573 240.784631 
L 315.747573 240.553771 
L 317.566481 240.446544 
L 317.566481 240.284603 
L 320.294844 240.177372 
L 320.294844 240.173769 
L 320.294844 240.165997 
L 322.113753 240.081371 
L 322.113753 239.801277 
L 323.932661 239.688866 
L 323.932661 239.390721 
L 324.842116 239.258241 
L 324.842116 238.781546 
L 327.570479 238.664767 
L 327.570479 238.664767 
L 327.570479 238.144547 
L 328.479933 238.013818 
L 328.479933 237.888939 
L 330.298841 237.795741 
L 330.298841 237.778858 
L 330.298841 237.597331 
L 333.936659 237.484671 
L 333.936659 237.162829 
L 334.846113 237.05219 
L 334.846113 236.916837 
L 335.755567 236.801042 
L 335.755567 236.434027 
L 336.665022 236.322103 
L 336.665022 236.158877 
L 337.574476 236.048404 
L 337.574476 235.719167 
L 340.302839 235.631935 
L 340.302839 235.318337 
L 341.212293 235.209257 
L 342.121747 235.121162 
L 342.121747 235.001539 
L 343.031202 235.001539 
L 343.031202 234.891081 
L 343.031202 234.865117 
L 343.940656 234.753688 
L 343.940656 234.746603 
L 347.578473 234.632541 
L 347.578473 234.519347 
L 347.578473 234.519347 
L 349.397382 234.407236 
L 349.397382 234.389913 
L 350.306836 234.280324 
L 350.306836 234.251064 
L 353.035199 234.14554 
L 353.035199 233.382994 
L 353.035199 233.382994 
L 353.944653 233.288931 
L 353.944653 232.894643 
L 354.854108 232.796779 
L 354.854108 232.588702 
L 354.854108 232.588702 
L 355.763562 232.477506 
L 355.763562 232.364227 
L 355.763562 232.364227 
L 356.673016 232.252766 
L 356.673016 232.21548 
L 359.401379 232.099991 
L 359.401379 231.907264 
L 359.401379 231.907264 
L 361.220288 231.799213 
L 361.220288 231.604197 
L 363.039196 231.493086 
L 363.039196 231.375428 
L 365.767559 231.256048 
L 365.767559 231.256048 
L 365.767559 230.46811 
L 367.586468 230.37537 
L 367.586468 230.302896 
L 368.495922 230.192709 
L 368.495922 230.150635 
L 371.224285 230.038177 
L 371.224285 230.035275 
L 373.043194 229.927365 
L 373.043194 229.843268 
L 374.862102 229.73704 
L 374.862102 229.732776 
L 374.862102 229.694215 
L 378.49992 229.582713 
L 378.49992 229.150218 
L 379.409374 229.036226 
L 379.409374 228.798554 
L 380.318828 228.66508 
L 380.318828 228.392487 
L 381.228283 228.282717 
L 381.228283 228.214692 
L 383.956646 228.107417 
L 384.8661 227.991348 
L 384.8661 227.693256 
L 385.775554 227.582116 
L 385.775554 227.403965 
L 386.685008 227.295543 
L 386.685008 227.289184 
L 386.685008 227.289184 
L 387.594463 227.184506 
L 387.594463 227.167067 
L 388.503917 227.070155 
L 388.503917 226.909426 
L 391.23228 226.797579 
L 391.23228 226.374465 
L 392.141734 226.26322 
L 392.141734 226.238355 
L 393.051189 226.129576 
L 393.051189 225.91108 
L 393.051189 225.91108 
L 393.960643 225.800382 
L 393.960643 225.792751 
L 394.870097 225.792751 
L 394.870097 225.684457 
L 394.870097 225.656046 
L 397.59846 225.525646 
L 397.59846 225.499318 
L 397.59846 225.499318 
" style="fill:none;stroke:#0000ff;stroke-linecap:square;stroke-width:1.5;"/>
   </g>
   <g id="line2d_28">
    <path clip-path="url(#pbbf04385ee)" d="M 73.832727 265.797818 
L 76.446724 265.719175 
L 76.592963 255.88877 
L 76.808201 256.026395 
L 77.298201 259.368733 
L 77.398788 260.292791 
L 77.83201 261.256171 
L 78.192003 263.399199 
L 78.276969 263.517164 
L 78.412388 263.91038 
L 78.55849 264.205293 
L 78.829316 264.598509 
L 78.841547 264.854099 
L 79.025448 265.031047 
L 79.110141 265.207994 
L 79.20516 265.404602 
L 79.685392 265.502666 
L 79.686024 226.181045 
L 79.77458 227.793231 
L 79.825242 228.953219 
L 79.944376 247.984884 
L 80.112341 251.149814 
L 80.125551 253.70572 
L 80.211655 255.903854 
L 80.377419 256.096978 
L 80.475259 258.054859 
L 80.491301 258.049629 
L 80.5445 258.128272 
L 80.662519 261.057733 
L 80.68095 261.077394 
L 80.782937 262.276703 
L 80.820242 262.551955 
L 80.994101 263.59367 
L 81.012701 263.613331 
L 81.122814 264.18298 
L 81.575078 264.497553 
L 81.60553 265.008734 
L 81.733622 265.048056 
L 81.794789 265.205342 
L 81.914345 265.598558 
L 82.515511 265.696631 
L 82.60814 265.735953 
L 83.239853 265.769048 
L 83.353914 265.571135 
L 83.406302 265.688833 
L 83.504184 265.747814 
L 86.301388 265.787136 
L 86.985921 265.587918 
L 86.990384 265.686222 
L 86.996552 265.745205 
L 87.901364 265.784526 
L 89.086023 265.585843 
L 89.088907 265.605504 
L 89.097644 265.782451 
L 92.389721 265.762675 
L 92.389721 265.574834 
L 92.391921 265.771442 
L 92.591738 265.759466 
L 105.063514 265.78402 
L 105.063514 265.748981 
L 105.063514 265.721899 
L 105.075746 265.780882 
L 105.128945 265.770036 
L 105.219648 265.789697 
L 106.056999 265.785993 
L 106.44598 265.582056 
L 106.857655 265.562982 
L 106.857655 265.459785 
L 106.887244 265.558089 
L 109.046377 265.796821 
L 111.687594 265.685689 
L 111.713015 265.517472 
L 111.705078 265.718864 
L 111.777624 265.635437 
L 113.235793 265.490595 
L 113.368453 265.483969 
L 113.374664 265.562613 
L 113.475988 265.697714 
L 113.475988 265.69231 
L 116.241929 265.772836 
L 117.151088 265.790826 
L 117.151088 265.785908 
L 117.789159 265.673029 
L 117.804601 265.604706 
L 117.895904 265.661656 
L 117.976502 265.739276 
L 118.041501 265.662731 
L 118.100931 265.74214 
L 119.781801 265.790616 
L 119.836 257.416683 
L 119.915398 262.203792 
L 119.969618 264.285753 
L 120.651782 264.366136 
L 120.662266 263.874211 
L 120.67935 264.34607 
L 120.770032 264.365731 
L 120.83041 265.112842 
L 120.87422 265.09981 
L 120.893335 265.119471 
L 121.439271 265.110028 
L 121.477217 264.908397 
L 121.48887 265.124666 
L 121.515111 265.123591 
L 121.704591 265.158175 
L 121.822126 265.607818 
L 121.822126 265.606468 
L 122.501122 265.618885 
L 122.62094 265.756511 
L 124.606403 265.642358 
L 124.606403 265.639422 
L 124.610077 265.698404 
L 130.542035 265.590136 
L 130.619454 265.525841 
L 130.648927 265.663466 
L 130.770872 265.706797 
L 130.919574 265.721834 
L 130.919574 265.718082 
L 130.919574 265.518898 
L 131.019109 265.735167 
L 132.30585 265.735199 
L 132.30585 265.703264 
L 132.30585 265.696348 
L 132.37129 265.73567 
L 132.4065 265.730496 
L 137.442077 265.75493 
L 137.461182 265.56195 
L 137.485203 265.699575 
L 137.823974 265.663782 
L 137.8559 265.574659 
L 137.927656 265.698557 
L 138.153209 265.700179 
L 138.153209 265.690878 
L 138.176504 265.710539 
L 138.728734 265.74933 
L 138.728734 265.659118 
L 138.761523 265.570384 
L 138.815785 265.727671 
L 153.761519 265.590739 
L 153.761519 265.265654 
L 153.775887 265.796496 
L 156.939588 265.747143 
L 157.023291 265.642569 
L 157.061396 265.755626 
L 157.217161 265.641913 
L 157.24876 265.123546 
L 157.248897 264.407151 
L 157.290602 265.365995 
L 157.500102 265.352701 
L 157.559354 265.570248 
L 157.786444 265.461291 
L 157.861253 265.415937 
L 158.155425 265.450792 
L 158.155425 265.445967 
L 158.987923 265.313879 
L 158.987923 265.310608 
L 159.084037 265.781432 
L 159.103521 265.772269 
L 159.106426 265.79193 
L 159.217182 265.419582 
L 159.230223 265.61619 
L 160.05388 265.578244 
L 160.112573 265.774852 
L 169.111676 265.651064 
L 169.111676 265.583852 
L 169.175706 265.679818 
L 169.221874 265.673662 
L 170.928322 265.763622 
L 171.07835 265.783045 
L 171.438805 265.673921 
L 171.464752 265.556483 
L 171.521919 265.681992 
L 171.656022 265.743332 
L 171.656022 265.737776 
L 173.457299 265.796828 
L 185.081946 265.690928 
L 185.081946 265.645914 
L 185.185312 265.756683 
L 192.454526 265.769595 
L 192.457947 265.789256 
L 194.191584 265.677113 
L 194.216046 265.595943 
L 194.295645 265.661879 
L 194.684952 265.723207 
L 197.406536 265.766707 
L 200.541691 265.654521 
L 200.541691 265.609824 
L 200.650709 265.737523 
L 207.089698 265.779798 
L 207.143824 263.819025 
L 207.195191 264.598332 
L 208.402912 264.616568 
L 208.782178 264.614566 
L 208.970616 265.794215 
L 209.086245 264.605576 
L 209.731126 264.605769 
L 209.902638 264.841698 
L 209.917049 265.785417 
L 213.288093 265.67859 
L 213.34207 265.65643 
L 213.370522 265.715412 
L 213.381291 265.709014 
L 218.001245 265.777478 
L 219.684051 265.712017 
L 219.684051 265.704527 
L 219.705587 265.679724 
L 219.749439 265.726682 
L 219.776796 265.71538 
L 221.790901 265.641274 
L 221.829026 265.442173 
L 221.850689 265.662374 
L 222.38252 265.548186 
L 222.41634 265.478342 
L 222.486107 265.519299 
L 222.565737 265.741851 
L 222.668135 265.699263 
L 230.582524 265.776164 
L 230.621113 265.795825 
L 235.198468 265.784607 
L 235.215657 265.66773 
L 235.275077 265.706669 
L 235.461525 265.666054 
L 235.461525 265.715365 
L 235.464946 265.171811 
L 235.467178 265.711323 
L 235.615301 265.702562 
L 235.621533 265.418263 
L 235.624669 265.713175 
L 236.486251 265.643921 
L 236.508819 264.520428 
L 236.512535 265.653584 
L 236.523829 265.652815 
L 237.235467 265.714538 
L 237.235688 262.234657 
L 237.332486 265.780697 
L 237.346569 265.543424 
L 237.353832 265.789785 
L 237.350148 264.031362 
L 237.439841 265.236269 
L 237.488377 265.794046 
L 237.490293 264.698966 
L 237.490345 263.625198 
L 237.545555 265.797133 
L 237.586585 265.793851 
L 238.732698 265.69699 
L 238.732698 265.605934 
L 238.812601 265.797122 
L 238.839117 265.796715 
L 238.859769 216.644688 
L 238.956556 234.171615 
L 238.975787 236.603946 
L 239.233919 264.61624 
L 239.252581 264.612716 
L 239.924367 264.695285 
L 239.924472 265.785518 
L 240.010755 265.781732 
L 240.549291 265.695415 
L 240.587732 216.643312 
L 240.557754 265.795338 
L 240.653678 223.254589 
L 240.663236 223.51427 
L 240.778391 233.305049 
L 240.787949 233.809284 
L 240.893578 249.870334 
L 240.903167 251.125018 
L 240.922346 252.275842 
L 240.994271 242.092761 
L 241.008628 243.462914 
L 241.018196 243.970412 
L 241.123668 256.924054 
L 241.18114 261.507803 
L 241.229118 265.782295 
L 241.454124 265.675076 
L 241.454124 265.395098 
L 241.564648 265.797742 
L 241.713455 265.685542 
L 241.719171 261.849943 
L 241.820137 265.797605 
L 242.602247 265.688812 
L 242.602247 265.668817 
L 242.60711 265.79386 
L 242.677677 265.78129 
L 242.848863 265.79485 
L 245.105541 265.677494 
L 245.105541 265.403898 
L 245.197834 265.795206 
L 245.215202 265.689641 
L 245.30621 265.796563 
L 245.313115 265.782752 
L 248.915197 265.762815 
L 249.026268 265.77195 
L 249.026268 265.663264 
L 249.026342 265.794009 
L 249.112624 265.781926 
L 251.476763 265.671441 
L 251.476763 265.653769 
L 251.482289 265.772217 
L 251.573508 265.755557 
L 251.779683 265.726573 
L 251.866134 265.765634 
L 251.89067 265.522959 
L 251.982384 265.777912 
L 251.982384 265.777379 
L 252.365155 265.648468 
L 252.365155 265.582535 
L 252.441543 265.792741 
L 252.458226 265.761041 
L 253.272872 265.649602 
L 253.272872 265.57537 
L 253.342976 265.793945 
L 253.371754 265.762483 
L 253.608686 265.79425 
L 253.608686 265.782809 
L 253.645885 265.766546 
L 253.712842 265.793132 
L 254.190958 265.680283 
L 254.190958 265.394748 
L 254.196684 265.790763 
L 254.29404 265.650101 
L 254.369312 265.790902 
L 254.785619 265.761658 
L 255.090612 265.317459 
L 255.098507 265.514871 
L 255.10817 265.752277 
L 255.201705 265.726541 
L 255.279251 265.766632 
L 255.279251 264.55589 
L 255.290503 265.77679 
L 255.386406 265.775111 
L 260.039381 265.679496 
L 260.039381 265.460081 
L 260.057949 265.784686 
L 260.060633 265.783651 
L 265.085073 265.792248 
L 265.085073 265.711997 
L 265.085073 265.665736 
L 265.123609 265.784124 
L 265.181671 265.782612 
L 266.164703 265.783619 
L 266.164703 265.487733 
L 266.237406 265.788817 
L 266.919024 265.668628 
L 266.919024 265.514961 
L 266.989948 265.786113 
L 267.008211 265.78294 
L 270.563914 265.662829 
L 270.563914 264.973857 
L 270.627692 265.789826 
L 270.666049 265.788345 
L 270.980095 265.676457 
L 270.980095 265.63651 
L 271.005463 265.797107 
L 271.072577 265.794649 
L 271.45999 265.693643 
L 271.45999 265.539556 
L 271.552209 265.79776 
L 271.566146 265.779266 
L 272.059903 265.787353 
L 272.370276 265.585167 
L 272.486631 265.792828 
L 272.589987 265.768242 
L 272.60825 265.576059 
L 272.630502 265.797344 
L 272.666101 265.780834 
L 272.870149 265.78721 
L 273.684564 265.68016 
L 273.684564 265.551591 
L 273.787572 265.795463 
L 274.743394 265.735559 
L 274.743404 265.228546 
L 274.748667 265.783507 
L 277.830265 265.784445 
L 277.830265 265.715744 
L 277.830265 265.665286 
L 277.867369 265.789581 
L 277.938462 265.783865 
L 278.101333 265.794204 
L 278.101333 265.791138 
L 278.952104 265.687661 
L 278.952104 265.614654 
L 278.961556 265.792343 
L 280.571291 265.796302 
L 280.571291 265.686958 
L 280.571291 265.462934 
L 280.581143 265.797668 
L 280.675109 265.780845 
L 280.912546 265.770993 
L 280.917094 265.790735 
L 281.080185 265.79284 
L 281.080185 265.796629 
L 281.607774 265.797051 
L 281.611026 265.612095 
L 281.71335 265.786165 
L 283.295243 265.627913 
L 283.295254 265.234669 
L 283.306948 265.795553 
L 283.403367 265.672522 
L 283.517154 265.783667 
L 283.517154 265.780788 
L 286.940797 265.665728 
L 286.940797 265.632477 
L 286.988227 265.796944 
L 287.017216 265.790575 
L 290.704959 265.780186 
L 290.759652 265.609067 
L 290.800567 265.790802 
L 291.726263 265.681727 
L 291.726263 265.648052 
L 291.731495 265.787526 
L 291.801956 265.780819 
L 296.022909 265.666823 
L 296.022909 265.642539 
L 296.098549 265.797118 
L 296.128254 265.780074 
L 296.948805 265.661004 
L 296.948805 265.471528 
L 296.963183 265.79268 
L 297.032087 265.7905 
L 297.842144 265.677472 
L 297.842144 265.304066 
L 297.847196 265.782431 
L 297.942299 265.719699 
L 298.096359 265.748822 
L 298.096359 265.746652 
L 298.170168 265.507467 
L 298.170168 265.488155 
L 298.251398 265.578223 
L 298.434689 265.674077 
L 298.450836 265.693738 
L 298.746366 265.600335 
L 298.746366 265.441668 
L 298.836543 265.710864 
L 298.85609 265.701647 
L 299.656389 265.598831 
L 299.704293 265.400083 
L 299.707778 265.714656 
L 299.762892 265.619986 
L 299.894005 265.559269 
L 299.951372 265.391477 
L 300.002234 265.454873 
L 300.103832 265.48548 
L 300.216356 265.599434 
L 300.216356 265.596025 
L 301.087874 265.751531 
L 301.087874 265.749591 
L 302.387868 265.638954 
L 302.47894 265.583205 
L 302.57298 265.673269 
L 302.611516 265.627023 
L 302.611516 265.534841 
L 302.630368 265.672467 
L 302.690967 265.623979 
L 302.796122 265.495113 
L 302.83309 265.531749 
L 302.983781 265.56727 
L 302.983781 265.565766 
L 302.983781 265.564793 
L 303.369752 265.454183 
L 303.411888 265.421673 
L 303.434772 265.539638 
L 303.476013 265.5217 
L 303.521517 265.617206 
L 303.561243 265.656484 
L 303.608789 265.63983 
L 305.38133 265.707509 
L 305.536759 265.747745 
L 306.036885 265.636783 
L 306.123925 265.52384 
L 306.135946 265.543501 
L 306.404803 265.699332 
L 306.442592 265.65719 
L 307.91715 265.738419 
L 307.941992 265.758079 
L 308.773911 265.648421 
L 308.791542 265.403185 
L 308.863677 265.698097 
L 308.990127 265.587358 
L 309.096493 265.512132 
L 309.243364 265.459887 
L 309.319488 265.261144 
L 309.662765 265.149544 
L 309.742806 265.050466 
L 309.76569 265.365039 
L 310.266963 265.336813 
L 310.587314 265.230205 
L 310.660976 264.925725 
L 310.697817 265.114609 
L 311.050767 265.160704 
L 311.171996 265.415445 
L 311.505695 265.383764 
L 311.714322 265.756624 
L 311.714322 265.712722 
L 311.714322 265.615302 
L 311.725837 265.752928 
L 311.80932 265.739467 
L 312.481905 265.628229 
L 312.481905 265.60598 
L 312.494221 265.743606 
L 312.547862 265.739154 
L 318.4052 265.68562 
L 318.4052 265.489286 
L 318.433305 265.715296 
L 322.568985 265.64724 
L 322.568985 263.904957 
L 322.665878 265.513874 
L 323.463924 265.521063 
L 323.580585 265.794343 
L 323.612405 265.711224 
L 323.688909 265.788205 
L 324.207045 265.678199 
L 324.207055 265.49598 
L 324.285875 265.791284 
L 324.300264 265.780706 
L 325.137699 265.652786 
L 325.137709 265.486285 
L 325.212392 265.789857 
L 325.240233 265.789044 
L 327.870577 265.669582 
L 327.870577 265.46632 
L 327.871083 265.783759 
L 327.96706 265.783144 
L 328.007459 265.760827 
L 328.007459 265.643061 
L 328.053384 265.78566 
L 328.117741 265.770578 
L 328.232864 265.797254 
L 329.028353 265.683559 
L 329.103025 265.609252 
L 329.125351 265.727217 
L 329.821546 265.736418 
L 329.83882 264.783792 
L 329.898282 265.722661 
L 329.934849 265.650587 
L 329.934849 265.578637 
L 329.975101 265.759517 
L 334.589582 265.635496 
L 334.589582 265.606362 
L 334.631181 265.755991 
L 334.6984 265.755655 
L 334.705979 265.737316 
L 334.727263 265.757752 
L 335.224726 265.648211 
L 335.224726 265.608712 
L 335.226842 265.729512 
L 335.318671 265.683555 
L 336.040909 265.568713 
L 336.040909 265.423805 
L 336.042656 265.776365 
L 336.149612 265.763429 
L 336.265304 265.789267 
L 336.265304 265.776185 
L 336.417458 265.796319 
L 336.417458 265.793171 
L 336.954931 265.685004 
L 336.954931 265.579668 
L 337.064655 265.7885 
L 337.86867 265.698403 
L 337.86867 265.411002 
L 337.869364 265.794688 
L 337.96432 265.781931 
L 338.182579 265.782851 
L 341.019192 265.677269 
L 341.019192 265.481033 
L 341.02196 265.783803 
L 341.076212 265.782878 
L 341.15221 265.709067 
L 341.15221 265.610457 
L 341.165957 265.797795 
L 341.190041 265.7932 
L 342.459972 265.767176 
L 342.459972 265.728338 
L 342.459972 265.67008 
L 342.474077 265.788383 
L 342.562412 265.785514 
L 342.592632 265.596905 
L 342.597274 265.793508 
L 342.672557 265.79778 
L 344.303543 265.686687 
L 344.365447 265.390604 
L 344.369963 265.791471 
L 344.403067 265.790409 
L 348.315531 265.73934 
L 348.315531 262.813998 
L 348.325257 265.777716 
L 348.353678 265.776681 
L 350.742764 265.694496 
L 350.742764 265.635984 
L 350.754363 265.793271 
L 350.818752 265.791117 
L 351.045799 265.695773 
L 351.045799 265.49501 
L 351.047231 265.791784 
L 353.350582 265.681027 
L 353.365371 265.263094 
L 353.475548 265.361398 
L 353.486411 265.577667 
L 353.659775 265.466169 
L 353.71009 264.523752 
L 353.751689 265.250126 
L 353.782036 265.217897 
L 353.889402 265.659685 
L 353.889402 265.65671 
L 354.235784 265.541726 
L 354.265889 265.518486 
L 354.317256 265.656124 
L 354.342466 265.643589 
L 354.498526 265.616538 
L 354.534378 265.755197 
L 354.589977 265.744871 
L 354.617881 265.685068 
L 354.685459 265.750646 
L 355.142323 265.637238 
L 355.17709 265.565839 
L 355.231563 265.756121 
L 356.086734 265.64619 
L 356.115176 265.724833 
L 356.206205 265.671244 
L 356.314898 265.699244 
L 356.431632 265.591466 
L 356.431632 265.475361 
L 356.537419 265.737146 
L 357.903264 265.617518 
L 358.244478 265.689902 
L 360.023998 265.658976 
L 360.08748 265.078002 
L 360.128911 265.097663 
L 360.155879 265.201063 
L 360.209909 265.731905 
L 360.292139 265.71567 
L 363.442546 265.617322 
L 363.442546 265.547374 
L 363.543923 265.777288 
L 363.553438 265.757241 
L 366.064343 265.642251 
L 366.171372 265.093543 
L 366.211845 265.012201 
L 366.296969 265.617911 
L 366.344989 265.599169 
L 366.437998 265.618549 
L 366.437998 265.607451 
L 366.541922 265.506796 
L 367.110594 265.502057 
L 367.148804 265.698308 
L 367.227665 265.660345 
L 367.37722 265.677311 
L 367.431134 265.775277 
L 367.431134 265.775274 
L 367.55489 265.775013 
L 368.250222 265.701146 
L 368.265075 265.49413 
L 368.313631 265.74972 
L 368.323484 265.737355 
L 368.436829 265.75656 
L 368.436829 265.751332 
L 372.004553 265.710645 
L 372.004553 265.61332 
L 372.015489 265.790268 
L 372.100224 265.773705 
L 372.126687 265.793366 
L 372.619287 265.689595 
L 372.678759 265.573482 
L 372.696075 265.77009 
L 375.416185 265.661378 
L 375.509541 265.620874 
L 376.305703 265.617795 
L 376.495468 265.79142 
L 378.782377 265.649176 
L 378.858975 265.55495 
L 378.872228 265.574611 
L 378.937584 265.572662 
L 378.945342 265.788931 
L 379.015393 265.783688 
L 379.38068 265.682117 
L 379.38068 265.62935 
L 379.421405 265.786637 
L 379.707462 265.681975 
L 379.772556 265.514005 
L 379.791818 265.769596 
L 380.611285 265.661338 
L 380.611296 265.458029 
L 380.697747 265.766619 
L 380.714346 265.757889 
L 380.911868 265.771154 
L 385.192514 265.651658 
L 385.292322 265.579138 
L 385.355079 265.60523 
L 385.461477 265.757944 
L 385.461477 265.741674 
L 388.994528 265.635079 
L 388.994528 265.62171 
L 389.03859 265.778997 
L 389.09162 265.740054 
L 392.017737 265.629413 
L 392.036842 265.356884 
L 392.511326 265.443875 
L 392.607945 265.79363 
L 392.643471 265.782106 
L 393.407297 265.58113 
L 393.496558 265.492585 
L 393.514021 265.669532 
L 393.607882 265.75622 
L 393.607882 265.728312 
L 395.229437 265.651455 
L 395.262026 265.54415 
L 395.266415 265.760419 
L 398.487273 265.7213 
L 398.487273 265.7213 
" style="fill:none;stroke:#ff0000;stroke-linecap:square;stroke-width:1.5;"/>
   </g>
   <g id="line2d_29">
    <path clip-path="url(#pbbf04385ee)" d="M 73.832727 265.797818 
L 76.56109 265.660193 
L 76.56109 261.315153 
L 77.470544 261.118545 
L 77.470544 257.933494 
L 78.379999 257.795868 
L 78.379999 256.38029 
L 79.289453 256.183682 
L 79.289453 246.097686 
L 79.289453 246.43192 
L 79.899735 246.235312 
L 79.920429 230.506663 
L 80.121477 230.310055 
L 80.198907 219.657771 
L 80.198907 219.954671 
L 80.377419 219.761547 
L 80.454407 218.590099 
L 81.108362 218.295187 
L 81.108362 217.076216 
L 82.017816 216.722322 
L 82.017816 216.702661 
L 82.017816 216.702918 
L 82.92727 216.604614 
L 82.92727 216.427667 
L 82.92727 216.7243 
L 86.565088 216.547353 
L 86.565088 216.527692 
L 86.565088 216.7243 
L 88.383996 216.665318 
L 88.383996 216.48837 
L 88.383996 216.684979 
L 92.021813 216.48837 
L 92.021813 216.508031 
L 92.021813 216.704639 
L 105.663628 216.59276 
L 105.663628 216.596163 
L 105.663628 216.794327 
L 106.573082 216.696023 
L 106.573082 216.460093 
L 106.573082 216.560623 
L 107.482537 216.442658 
L 107.482537 216.422997 
L 107.482537 216.552215 
L 108.391991 216.43425 
L 108.391991 216.414589 
L 108.391991 216.460014 
L 111.120354 216.325784 
L 111.120354 216.207819 
L 111.120354 216.484668 
L 112.029808 216.366703 
L 112.029808 216.327381 
L 112.029808 216.375535 
L 112.939262 216.25757 
L 112.939262 215.923336 
L 112.939262 216.153654 
L 113.848717 216.035689 
L 113.848717 215.976707 
L 113.848717 216.021955 
L 114.758171 215.90399 
L 114.758171 215.825347 
L 114.758171 215.986487 
L 117.486534 215.832323 
L 117.486534 215.616054 
L 117.486534 215.730117 
L 119.305443 215.600015 
L 119.305443 212.729536 
L 119.305443 212.74085 
L 119.902409 212.544241 
L 119.916303 208.671062 
L 120.214897 208.592418 
L 120.214897 207.373448 
L 120.214897 207.887531 
L 121.124351 207.789227 
L 121.124351 207.278046 
L 121.124351 207.483217 
L 122.94326 207.229527 
L 123.852714 207.111562 
L 123.852714 207.05258 
L 123.852714 207.238237 
L 125.671623 207.088897 
L 125.671623 207.184756 
L 125.671623 207.204417 
L 126.581077 207.086452 
L 126.581077 207.066791 
L 126.581077 207.113959 
L 126.581077 207.113959 
L 127.490531 206.995994 
L 127.490531 206.976334 
L 127.490531 207.013853 
L 130.218894 206.856755 
L 130.218894 206.522521 
L 130.218894 206.762041 
L 132.037803 206.618603 
L 132.037803 206.559621 
L 132.037803 206.565723 
L 133.856711 206.416876 
L 133.856711 206.397216 
L 133.856711 206.424564 
L 136.585074 206.287818 
L 136.585074 206.150192 
L 136.585074 206.392444 
L 137.494529 206.27448 
L 137.494529 206.176175 
L 137.494529 206.281503 
L 138.403983 206.163538 
L 138.403983 206.065234 
L 138.403983 206.144698 
L 140.222892 206.007572 
L 140.222892 205.94859 
L 140.222892 205.99735 
L 143.860709 205.822664 
L 143.860709 205.803003 
L 143.860709 205.808374 
L 152.955252 205.57294 
L 152.955252 205.042099 
L 152.955252 205.553901 
L 156.593069 205.497707 
L 156.593069 205.478046 
L 156.593069 205.202795 
L 156.593069 205.339355 
L 157.217161 205.453296 
L 157.24876 206.010506 
L 157.248897 206.70772 
L 157.249171 205.921287 
L 157.502523 205.660681 
L 157.502523 205.691077 
L 158.411978 205.573113 
L 158.411978 204.983288 
L 158.411978 205.404696 
L 159.321432 205.365374 
L 159.321432 205.168766 
L 159.321432 205.187447 
L 162.049795 205.151505 
L 162.049795 205.092522 
L 162.049795 205.03354 
L 162.049795 205.066602 
L 163.868704 204.929874 
L 163.868704 204.910213 
L 163.868704 204.935555 
L 167.506521 204.80804 
L 167.506521 204.811742 
L 168.415975 204.615134 
L 168.415975 204.438187 
L 168.415975 204.594151 
L 171.144338 204.425325 
L 171.144338 204.228717 
L 171.144338 204.307812 
L 177.510518 204.071303 
L 177.510518 204.031982 
L 177.510518 204.076444 
L 183.876698 203.847138 
L 183.876698 203.827477 
L 183.876698 203.885881 
L 184.786153 203.767916 
L 184.786153 203.748256 
L 184.786153 203.77631 
L 187.514515 203.622033 
L 187.514515 203.582711 
L 187.514515 203.619706 
L 189.333424 203.474651 
L 189.333424 203.45499 
L 189.333424 203.483286 
L 193.880696 203.284056 
L 193.880696 203.107109 
L 193.880696 203.211784 
L 194.79015 203.093819 
L 194.79015 203.074158 
L 194.79015 203.116955 
L 196.609059 203.002354 
L 196.609059 202.923711 
L 196.609059 202.982454 
L 200.246876 202.811111 
L 200.246876 202.752128 
L 200.246876 202.809919 
L 202.975239 202.677972 
L 202.975239 202.61899 
L 202.975239 202.6678 
L 206.613056 202.574104 
L 206.613056 201.768011 
L 206.613056 201.901201 
L 208.431965 201.853072 
L 208.431965 201.853445 
L 208.431965 203.033094 
L 209.341419 203.013433 
L 209.341419 201.833785 
L 209.341419 201.852784 
L 212.979236 201.676605 
L 212.979236 201.656945 
L 212.979236 201.714209 
L 215.707599 201.552806 
L 215.707599 201.434841 
L 215.707599 201.463366 
L 219.345416 201.306048 
L 219.345416 201.266727 
L 219.345416 201.330597 
L 221.164325 201.193984 
L 221.164325 201.154663 
L 221.164325 201.380717 
L 222.073779 201.144787 
L 222.073779 200.869535 
L 222.073779 201.087224 
L 222.983233 201.055212 
L 222.983233 201.01589 
L 222.983233 200.897925 
L 222.983233 201.038921 
L 223.892688 200.90141 
L 223.892688 200.881749 
L 223.892688 200.88521 
L 226.621051 200.728348 
L 226.621051 200.649705 
L 226.621051 200.695798 
L 228.439959 200.546165 
L 228.439959 200.506843 
L 228.439959 200.519615 
L 234.806139 200.333973 
L 234.806139 200.039061 
L 234.891159 200.181933 
L 235.460936 200.237602 
L 235.461525 200.174109 
L 235.464315 200.705773 
L 235.467178 200.235472 
L 235.715594 200.52106 
L 235.715594 200.52106 
L 236.315686 200.563994 
L 236.507429 200.751923 
L 236.508819 201.687487 
L 236.512535 200.621106 
L 237.235467 200.560556 
L 237.235688 204.040437 
L 237.346569 201.255857 
L 237.347001 201.019927 
L 237.350148 202.770278 
L 237.439841 201.633192 
L 237.488377 201.102351 
L 237.490293 202.144567 
L 237.490345 203.271198 
L 237.545555 201.185153 
L 237.586585 201.195309 
L 238.443957 200.762771 
L 238.443957 199.248889 
L 238.443957 199.276183 
L 238.736045 199.160475 
L 238.812601 199.082459 
L 238.860664 199.023822 
L 238.966124 180.780102 
L 238.975682 180.544905 
L 239.080985 168.755363 
L 239.100164 167.485632 
L 239.185962 153.842758 
L 239.353411 153.863144 
L 239.713351 153.770945 
L 239.924378 153.588274 
L 240.010755 152.606857 
L 240.077922 152.584792 
L 240.262865 151.405144 
L 240.337064 151.471912 
L 240.557712 151.354177 
L 240.663267 143.979933 
L 240.672825 143.724342 
L 240.787991 133.883936 
L 240.797538 133.62846 
L 240.903167 117.325589 
L 240.941482 113.698388 
L 241.046975 102.156557 
L 241.056511 101.901197 
L 241.162025 90.384587 
L 241.171593 90.129785 
L 241.229118 85.553672 
L 241.459177 85.51609 
L 241.564648 85.089725 
L 241.718287 84.973239 
L 241.820137 81.319269 
L 242.081774 81.280003 
L 242.081774 81.375719 
L 242.081774 81.498896 
L 242.607078 81.323488 
L 242.626289 81.22524 
L 242.741349 81.119683 
L 242.779685 81.080361 
L 243.900682 81.012827 
L 245.111457 80.85503 
L 245.217023 80.584016 
L 245.370641 80.364418 
L 246.982869 79.995568 
L 247.059626 79.858227 
L 248.447954 79.758969 
L 248.447954 79.895182 
L 248.447954 79.922938 
L 248.940007 79.822046 
L 249.112624 79.546606 
L 251.176317 79.502969 
L 251.176317 79.640546 
L 251.176317 80.148657 
L 251.76061 79.918946 
L 251.894923 79.262675 
L 253.90468 78.647693 
L 253.90468 78.685063 
L 253.90468 78.839827 
L 253.966457 78.834942 
L 254.196684 78.638895 
L 254.302219 78.264153 
L 254.446174 78.153043 
L 254.814134 78.133383 
L 254.814134 78.220963 
L 254.814134 79.695524 
L 255.098507 79.500066 
L 255.175232 79.245915 
L 255.213641 79.206947 
L 255.280808 78.816649 
L 255.386406 77.978716 
L 256.566465 77.863572 
L 256.566465 77.844222 
L 256.633043 77.859368 
L 258.014655 77.699361 
L 258.148895 77.621269 
L 258.858637 77.455489 
L 259.361406 77.32018 
L 259.361406 77.325249 
L 259.361406 77.664783 
L 259.376911 77.651438 
L 260.048307 77.544932 
L 260.057949 77.254211 
L 261.468266 77.173206 
L 261.545022 77.133997 
L 264.818131 77.021949 
L 264.818131 77.184775 
L 264.818131 77.300427 
L 264.818131 77.300427 
L 265.507306 77.091983 
L 265.584094 77.022922 
L 265.727586 76.973721 
L 265.727586 76.977782 
L 265.727586 77.314099 
L 266.170229 77.2152 
L 266.237406 76.963215 
L 266.63704 76.861846 
L 266.63704 76.907238 
L 267.086009 76.615118 
L 270.274857 76.422344 
L 270.274857 76.458781 
L 270.274857 76.77373 
L 270.570009 76.520074 
L 270.666049 75.741644 
L 270.742984 75.650722 
L 271.005463 75.243239 
L 271.465821 75.204864 
L 271.552209 74.990622 
L 271.801572 74.775614 
L 271.993421 74.679264 
L 272.093766 74.679326 
L 272.093766 74.679871 
L 272.093766 75.176826 
L 272.611313 74.746275 
L 272.707195 74.533086 
L 273.00322 74.477039 
L 273.00322 74.519259 
L 273.00322 74.758535 
L 273.00322 74.758535 
L 273.441611 74.591307 
L 273.50882 74.540284 
L 273.691353 74.406752 
L 273.787572 74.231474 
L 273.912675 74.297722 
L 273.912675 74.790388 
L 274.748615 74.625908 
L 274.822129 74.102983 
L 274.822129 74.103248 
L 277.157195 73.965057 
L 277.425863 73.808344 
L 277.8866 73.689296 
L 277.973072 73.642835 
L 278.459946 73.57853 
L 278.459946 73.689255 
L 278.459946 73.774035 
L 278.961546 73.687438 
L 278.961556 73.561927 
L 279.681509 73.460904 
L 279.921662 73.344504 
L 280.278855 73.285567 
L 280.278855 73.323856 
L 280.278855 73.480336 
L 280.571469 73.354606 
L 280.64831 73.134851 
L 281.188309 72.926039 
L 281.188309 72.931145 
L 281.188309 73.128719 
L 281.607774 73.123777 
L 281.71335 72.946534 
L 283.007218 73.010452 
L 283.412441 72.29684 
L 283.479576 72.257695 
L 285.457492 71.918528 
L 285.495901 71.879561 
L 287.151477 71.783077 
L 287.957733 71.659004 
L 289.801083 71.550958 
L 290.18618 71.472377 
L 290.282852 71.481032 
L 290.282852 71.667656 
L 290.301262 71.664412 
L 290.762147 71.521687 
L 290.800567 71.422471 
L 291.192306 71.388036 
L 291.192306 71.457336 
L 291.192306 71.523951 
L 291.241947 71.52354 
L 291.731453 71.423723 
L 291.769789 71.332224 
L 292.101761 71.29157 
L 292.101761 71.30782 
L 293.011215 71.235419 
L 293.011215 71.117454 
L 293.011215 71.243319 
L 295.739578 71.061147 
L 295.739578 71.099224 
L 295.739578 71.279981 
L 296.559581 70.895187 
L 296.649032 70.777465 
L 296.649032 70.92952 
L 296.953605 70.732912 
L 297.02074 70.576277 
L 297.558486 70.414214 
L 297.558486 70.217606 
L 297.558486 70.658991 
L 297.847165 70.541203 
L 297.847196 70.187309 
L 298.11638 70.085225 
L 298.750114 69.76234 
L 298.836543 69.667748 
L 299.028318 69.556236 
L 299.377395 69.104037 
L 299.377395 68.848446 
L 299.377395 69.130923 
L 300.286849 69.111262 
L 300.286849 68.973636 
L 300.286849 68.975694 
L 302.105758 68.801212 
L 302.105758 68.52596 
L 302.105758 68.76947 
L 303.015212 68.690827 
L 303.015212 68.376254 
L 303.015212 68.420971 
L 303.924667 68.322667 
L 303.924667 68.185041 
L 303.924667 68.356876 
L 304.834121 68.278233 
L 304.834121 68.140607 
L 304.834121 68.152775 
L 305.743575 68.074131 
L 305.743575 67.897184 
L 305.743575 67.971129 
L 307.562484 67.832029 
L 307.562484 67.812368 
L 307.562484 67.813081 
L 308.471938 67.498508 
L 308.471938 67.478847 
L 308.471938 67.739105 
L 309.381392 67.38521 
L 309.381392 67.411022 
L 310.290847 67.214414 
L 310.290847 66.801537 
L 310.290847 66.892561 
L 311.200301 66.676292 
L 311.200301 66.243754 
L 311.200301 66.408807 
L 313.01921 66.176204 
L 313.01921 66.176463 
L 314.838118 66.059235 
L 314.838118 65.960931 
L 314.838118 66.042628 
L 317.566481 65.59107 
L 317.566481 65.512427 
L 317.566481 65.777259 
L 318.423673 65.674293 
L 318.475935 65.497667 
L 318.475935 65.654577 
L 318.836433 65.519448 
L 319.38539 65.423298 
L 319.38539 65.429236 
L 322.113753 65.343387 
L 322.113753 63.94747 
L 322.113753 65.797705 
L 322.418262 65.6805 
L 322.514228 65.641532 
L 322.571964 65.506828 
L 322.600848 65.344003 
L 323.023207 65.2445 
L 323.023207 65.348981 
L 323.426314 65.284623 
L 323.580585 65.013189 
L 324.213961 64.930441 
L 324.300264 64.79345 
L 325.145162 64.541507 
L 325.212392 64.46345 
L 325.50988 64.26636 
L 325.75157 64.170795 
L 325.75157 64.171873 
L 327.570479 64.115293 
L 327.570479 64.145964 
L 327.570479 64.330209 
L 327.871051 64.231042 
L 327.96706 63.848141 
L 328.197381 63.575222 
L 328.479933 63.51624 
L 328.479933 63.319632 
L 328.479933 63.562758 
L 329.389387 63.348394 
L 329.389387 63.309072 
L 329.389387 64.407347 
L 329.821546 64.345503 
L 329.975101 63.421701 
L 330.298841 63.310425 
L 330.298841 63.367561 
L 331.564551 63.232015 
L 333.936659 63.057202 
L 333.936659 62.801611 
L 333.936659 63.08472 
L 334.381176 62.973582 
L 334.6984 62.842505 
L 334.846113 62.744681 
L 334.846113 62.809231 
L 335.150128 62.757903 
L 335.40908 62.582698 
L 335.755567 62.508442 
L 335.755567 62.6506 
L 335.755567 62.662802 
L 336.042635 62.643383 
L 336.12897 62.204834 
L 337.869364 61.639406 
L 337.869364 61.483633 
L 338.416595 61.43935 
L 338.48393 61.43935 
L 338.48393 61.536657 
L 338.48393 61.55306 
L 339.359112 61.451009 
L 339.393385 61.431348 
L 339.393385 61.43817 
L 340.302839 61.338803 
L 340.302839 61.466147 
L 340.302839 61.714559 
L 341.012413 61.54677 
L 341.02196 61.262103 
L 341.300218 61.11924 
L 342.121747 60.921882 
L 342.121747 60.926521 
L 342.121747 61.243757 
L 342.212251 61.24092 
L 342.414552 61.214248 
L 342.597274 60.896669 
L 342.828764 60.808018 
L 343.582769 60.701463 
L 343.940656 60.682045 
L 343.940656 60.714563 
L 343.940656 61.308487 
L 344.312374 61.152535 
L 344.369963 60.683951 
L 345.576011 60.578779 
L 346.669019 60.559209 
L 346.669019 60.441244 
L 346.669019 60.632596 
L 347.219923 60.527264 
L 347.578473 60.503234 
L 347.578473 60.529967 
L 347.578473 63.393716 
L 348.315647 63.3268 
L 348.325257 60.60837 
L 350.306836 60.325231 
L 350.306836 60.473177 
L 350.306836 60.636209 
L 350.908529 60.632394 
L 351.21629 60.339932 
L 351.21629 60.340125 
L 353.035199 60.30081 
L 353.035199 59.278448 
L 353.035199 60.087439 
L 353.944653 59.910491 
L 353.944653 59.39931 
L 353.944653 59.513459 
L 354.854108 59.238208 
L 354.854108 59.139904 
L 354.854108 59.203804 
L 355.763562 59.085839 
L 355.763562 58.712284 
L 355.763562 59.006355 
L 356.673016 58.908051 
L 356.673016 58.750765 
L 356.673016 58.943788 
L 359.401379 58.556808 
L 359.401379 57.947323 
L 359.401379 58.563626 
L 360.310834 58.426 
L 360.310834 58.440784 
L 361.220288 58.224515 
L 361.220288 58.126211 
L 361.220288 58.201703 
L 363.039196 58.075825 
L 363.039196 57.820234 
L 363.039196 57.994148 
L 365.767559 57.921071 
L 365.767559 57.114978 
L 365.767559 57.344007 
L 366.677014 57.324346 
L 366.677014 56.970452 
L 366.677014 57.02822 
L 367.586468 56.949577 
L 367.586468 56.674326 
L 367.586468 56.923595 
L 368.495922 56.80563 
L 368.495922 56.668004 
L 368.495922 56.754041 
L 369.405377 56.636076 
L 369.405377 56.537772 
L 369.405377 56.638944 
L 371.224285 56.599852 
L 371.224285 56.403244 
L 371.224285 56.613941 
L 372.13374 56.554958 
L 372.13374 56.299368 
L 372.13374 56.530209 
L 373.043194 56.451566 
L 373.043194 56.29428 
L 373.043194 56.417499 
L 374.862102 56.26058 
L 374.862102 56.399125 
L 374.862102 56.434541 
L 375.771557 56.395219 
L 375.771557 56.119968 
L 375.771557 56.189365 
L 377.590465 56.171669 
L 377.590465 56.171896 
L 378.49992 55.935966 
L 378.49992 55.660715 
L 378.49992 55.892899 
L 379.409374 55.715952 
L 379.409374 55.322735 
L 379.409374 55.391453 
L 380.318828 55.253827 
L 380.318828 54.899932 
L 380.318828 55.002239 
L 381.228283 54.884274 
L 381.228283 54.766309 
L 381.228283 54.825617 
L 383.047191 54.712144 
L 383.047191 54.672822 
L 383.047191 54.709981 
L 384.8661 54.573091 
L 384.8661 54.238857 
L 384.8661 54.326153 
L 385.775554 54.227849 
L 385.775554 53.893616 
L 385.775554 53.992911 
L 386.685008 53.855285 
L 386.685008 53.815964 
L 386.685008 53.878385 
L 387.594463 53.799742 
L 387.594463 53.701438 
L 387.594463 53.760771 
L 388.503917 53.662467 
L 388.503917 53.426538 
L 388.503917 53.509353 
L 389.413371 53.450371 
L 389.413371 53.456774 
L 390.322826 53.299487 
L 390.322826 53.398174 
L 390.322826 53.431704 
L 390.322826 53.431704 
L 391.23228 53.3334 
L 391.23228 53.389612 
L 392.141734 53.193004 
L 392.141734 52.780127 
L 392.141734 52.856229 
L 393.051189 52.816908 
L 393.051189 52.443352 
L 393.051189 52.573963 
L 393.960643 52.357694 
L 393.960643 52.338033 
L 393.960643 52.429433 
L 394.870097 52.154182 
L 394.870097 52.312074 
L 397.59846 52.28648 
L 397.59846 52.326997 
" style="fill:none;stroke:#008000;stroke-linecap:square;stroke-width:1.5;"/>
   </g>
   <g id="line2d_30">
    <defs>
     <path d="M 0 3 
C 0.795609 3 1.55874 2.683901 2.12132 2.12132 
C 2.683901 1.55874 3 0.795609 3 0 
C 3 -0.795609 2.683901 -1.55874 2.12132 -2.12132 
C 1.55874 -2.683901 0.795609 -3 0 -3 
C -0.795609 -3 -1.55874 -2.683901 -2.12132 -2.12132 
C -2.683901 -1.55874 -3 -0.795609 -3 0 
C -3 0.795609 -2.683901 1.55874 -2.12132 2.12132 
C -1.55874 2.683901 -0.795609 3 0 3 
z
" id="m376f2b59fe" style="stroke:#bfbf00;"/>
    </defs>
    <g clip-path="url(#pbbf04385ee)">
     <use style="fill:#bfbf00;stroke:#bfbf00;" x="76.592963" xlink:href="#m376f2b59fe" y="255.967413"/>
     <use style="fill:#bfbf00;stroke:#bfbf00;" x="79.686024" xlink:href="#m376f2b59fe" y="226.476197"/>
     <use style="fill:#bfbf00;stroke:#bfbf00;" x="238.859769" xlink:href="#m376f2b59fe" y="216.645791"/>
     <use style="fill:#bfbf00;stroke:#bfbf00;" x="240.587732" xlink:href="#m376f2b59fe" y="216.645791"/>
     <use style="fill:#bfbf00;stroke:#bfbf00;" x="240.93044" xlink:href="#m376f2b59fe" y="255.967413"/>
     <use style="fill:#bfbf00;stroke:#bfbf00;" x="240.994271" xlink:href="#m376f2b59fe" y="255.967413"/>
     <use style="fill:#bfbf00;stroke:#bfbf00;" x="241.719171" xlink:href="#m376f2b59fe" y="261.865656"/>
    </g>
   </g>
   <g id="line2d_31">
    <defs>
     <path d="M 0 3 
C 0.795609 3 1.55874 2.683901 2.12132 2.12132 
C 2.683901 1.55874 3 0.795609 3 0 
C 3 -0.795609 2.683901 -1.55874 2.12132 -2.12132 
C 1.55874 -2.683901 0.795609 -3 0 -3 
C -0.795609 -3 -1.55874 -2.683901 -2.12132 -2.12132 
C -2.683901 -1.55874 -3 -0.795609 -3 0 
C -3 0.795609 -2.683901 1.55874 -2.12132 2.12132 
C -1.55874 2.683901 -0.795609 3 0 3 
z
" id="m87571dd8fc" style="stroke:#008000;"/>
    </defs>
    <g clip-path="url(#pbbf04385ee)">
     <use style="fill:#008000;stroke:#008000;" x="119.836" xlink:href="#m87571dd8fc" y="257.423886"/>
     <use style="fill:#008000;stroke:#008000;" x="207.143824" xlink:href="#m87571dd8fc" y="263.837046"/>
    </g>
   </g>
   <g id="patch_3">
    <path d="M 57.6 276.48 
L 57.6 41.472 
" style="fill:none;stroke:#000000;stroke-linecap:square;stroke-linejoin:miter;stroke-width:0.8;"/>
   </g>
   <g id="patch_4">
    <path d="M 414.72 276.48 
L 414.72 41.472 
" style="fill:none;stroke:#000000;stroke-linecap:square;stroke-linejoin:miter;stroke-width:0.8;"/>
   </g>
   <g id="patch_5">
    <path d="M 57.6 276.48 
L 414.72 276.48 
" style="fill:none;stroke:#000000;stroke-linecap:square;stroke-linejoin:miter;stroke-width:0.8;"/>
   </g>
   <g id="patch_6">
    <path d="M 57.6 41.472 
L 414.72 41.472 
" style="fill:none;stroke:#000000;stroke-linecap:square;stroke-linejoin:miter;stroke-width:0.8;"/>
   </g>
   <g id="text_16">
    <!-- My Bondora earnings -->
    <defs>
     <path d="M 9.8125 72.90625 
L 24.515625 72.90625 
L 43.109375 23.296875 
L 61.8125 72.90625 
L 76.515625 72.90625 
L 76.515625 0 
L 66.890625 0 
L 66.890625 64.015625 
L 48.09375 14.015625 
L 38.1875 14.015625 
L 19.390625 64.015625 
L 19.390625 0 
L 9.8125 0 
z
" id="DejaVuSans-4d"/>
     <path d="M 32.171875 -5.078125 
Q 28.375 -14.84375 24.75 -17.8125 
Q 21.140625 -20.796875 15.09375 -20.796875 
L 7.90625 -20.796875 
L 7.90625 -13.28125 
L 13.1875 -13.28125 
Q 16.890625 -13.28125 18.9375 -11.515625 
Q 21 -9.765625 23.484375 -3.21875 
L 25.09375 0.875 
L 2.984375 54.6875 
L 12.5 54.6875 
L 29.59375 11.921875 
L 46.6875 54.6875 
L 56.203125 54.6875 
z
" id="DejaVuSans-79"/>
     <path id="DejaVuSans-20"/>
     <path d="M 19.671875 34.8125 
L 19.671875 8.109375 
L 35.5 8.109375 
Q 43.453125 8.109375 47.28125 11.40625 
Q 51.125 14.703125 51.125 21.484375 
Q 51.125 28.328125 47.28125 31.5625 
Q 43.453125 34.8125 35.5 34.8125 
z
M 19.671875 64.796875 
L 19.671875 42.828125 
L 34.28125 42.828125 
Q 41.5 42.828125 45.03125 45.53125 
Q 48.578125 48.25 48.578125 53.8125 
Q 48.578125 59.328125 45.03125 62.0625 
Q 41.5 64.796875 34.28125 64.796875 
z
M 9.8125 72.90625 
L 35.015625 72.90625 
Q 46.296875 72.90625 52.390625 68.21875 
Q 58.5 63.53125 58.5 54.890625 
Q 58.5 48.1875 55.375 44.234375 
Q 52.25 40.28125 46.1875 39.3125 
Q 53.46875 37.75 57.5 32.78125 
Q 61.53125 27.828125 61.53125 20.40625 
Q 61.53125 10.640625 54.890625 5.3125 
Q 48.25 0 35.984375 0 
L 9.8125 0 
z
" id="DejaVuSans-42"/>
     <path d="M 30.609375 48.390625 
Q 23.390625 48.390625 19.1875 42.75 
Q 14.984375 37.109375 14.984375 27.296875 
Q 14.984375 17.484375 19.15625 11.84375 
Q 23.34375 6.203125 30.609375 6.203125 
Q 37.796875 6.203125 41.984375 11.859375 
Q 46.1875 17.53125 46.1875 27.296875 
Q 46.1875 37.015625 41.984375 42.703125 
Q 37.796875 48.390625 30.609375 48.390625 
z
M 30.609375 56 
Q 42.328125 56 49.015625 48.375 
Q 55.71875 40.765625 55.71875 27.296875 
Q 55.71875 13.875 49.015625 6.21875 
Q 42.328125 -1.421875 30.609375 -1.421875 
Q 18.84375 -1.421875 12.171875 6.21875 
Q 5.515625 13.875 5.515625 27.296875 
Q 5.515625 40.765625 12.171875 48.375 
Q 18.84375 56 30.609375 56 
z
" id="DejaVuSans-6f"/>
     <path d="M 54.890625 33.015625 
L 54.890625 0 
L 45.90625 0 
L 45.90625 32.71875 
Q 45.90625 40.484375 42.875 44.328125 
Q 39.84375 48.1875 33.796875 48.1875 
Q 26.515625 48.1875 22.3125 43.546875 
Q 18.109375 38.921875 18.109375 30.90625 
L 18.109375 0 
L 9.078125 0 
L 9.078125 54.6875 
L 18.109375 54.6875 
L 18.109375 46.1875 
Q 21.34375 51.125 25.703125 53.5625 
Q 30.078125 56 35.796875 56 
Q 45.21875 56 50.046875 50.171875 
Q 54.890625 44.34375 54.890625 33.015625 
z
" id="DejaVuSans-6e"/>
     <path d="M 41.109375 46.296875 
Q 39.59375 47.171875 37.8125 47.578125 
Q 36.03125 48 33.890625 48 
Q 26.265625 48 22.1875 43.046875 
Q 18.109375 38.09375 18.109375 28.8125 
L 18.109375 0 
L 9.078125 0 
L 9.078125 54.6875 
L 18.109375 54.6875 
L 18.109375 46.1875 
Q 20.953125 51.171875 25.484375 53.578125 
Q 30.03125 56 36.53125 56 
Q 37.453125 56 38.578125 55.875 
Q 39.703125 55.765625 41.0625 55.515625 
z
" id="DejaVuSans-72"/>
     <path d="M 9.421875 54.6875 
L 18.40625 54.6875 
L 18.40625 0 
L 9.421875 0 
z
M 9.421875 75.984375 
L 18.40625 75.984375 
L 18.40625 64.59375 
L 9.421875 64.59375 
z
" id="DejaVuSans-69"/>
     <path d="M 45.40625 27.984375 
Q 45.40625 37.75 41.375 43.109375 
Q 37.359375 48.484375 30.078125 48.484375 
Q 22.859375 48.484375 18.828125 43.109375 
Q 14.796875 37.75 14.796875 27.984375 
Q 14.796875 18.265625 18.828125 12.890625 
Q 22.859375 7.515625 30.078125 7.515625 
Q 37.359375 7.515625 41.375 12.890625 
Q 45.40625 18.265625 45.40625 27.984375 
z
M 54.390625 6.78125 
Q 54.390625 -7.171875 48.1875 -13.984375 
Q 42 -20.796875 29.203125 -20.796875 
Q 24.46875 -20.796875 20.265625 -20.09375 
Q 16.0625 -19.390625 12.109375 -17.921875 
L 12.109375 -9.1875 
Q 16.0625 -11.328125 19.921875 -12.34375 
Q 23.78125 -13.375 27.78125 -13.375 
Q 36.625 -13.375 41.015625 -8.765625 
Q 45.40625 -4.15625 45.40625 5.171875 
L 45.40625 9.625 
Q 42.625 4.78125 38.28125 2.390625 
Q 33.9375 0 27.875 0 
Q 17.828125 0 11.671875 7.65625 
Q 5.515625 15.328125 5.515625 27.984375 
Q 5.515625 40.671875 11.671875 48.328125 
Q 17.828125 56 27.875 56 
Q 33.9375 56 38.28125 53.609375 
Q 42.625 51.21875 45.40625 46.390625 
L 45.40625 54.6875 
L 54.390625 54.6875 
z
" id="DejaVuSans-67"/>
     <path d="M 44.28125 53.078125 
L 44.28125 44.578125 
Q 40.484375 46.53125 36.375 47.5 
Q 32.28125 48.484375 27.875 48.484375 
Q 21.1875 48.484375 17.84375 46.4375 
Q 14.5 44.390625 14.5 40.28125 
Q 14.5 37.15625 16.890625 35.375 
Q 19.28125 33.59375 26.515625 31.984375 
L 29.59375 31.296875 
Q 39.15625 29.25 43.1875 25.515625 
Q 47.21875 21.78125 47.21875 15.09375 
Q 47.21875 7.46875 41.1875 3.015625 
Q 35.15625 -1.421875 24.609375 -1.421875 
Q 20.21875 -1.421875 15.453125 -0.5625 
Q 10.6875 0.296875 5.421875 2 
L 5.421875 11.28125 
Q 10.40625 8.6875 15.234375 7.390625 
Q 20.0625 6.109375 24.8125 6.109375 
Q 31.15625 6.109375 34.5625 8.28125 
Q 37.984375 10.453125 37.984375 14.40625 
Q 37.984375 18.0625 35.515625 20.015625 
Q 33.0625 21.96875 24.703125 23.78125 
L 21.578125 24.515625 
Q 13.234375 26.265625 9.515625 29.90625 
Q 5.8125 33.546875 5.8125 39.890625 
Q 5.8125 47.609375 11.28125 51.796875 
Q 16.75 56 26.8125 56 
Q 31.78125 56 36.171875 55.265625 
Q 40.578125 54.546875 44.28125 53.078125 
z
" id="DejaVuSans-73"/>
    </defs>
    <g transform="translate(172.363125 35.472)scale(0.12 -0.12)">
     <use xlink:href="#DejaVuSans-4d"/>
     <use x="86.279297" xlink:href="#DejaVuSans-79"/>
     <use x="145.458984" xlink:href="#DejaVuSans-20"/>
     <use x="177.246094" xlink:href="#DejaVuSans-42"/>
     <use x="245.849609" xlink:href="#DejaVuSans-6f"/>
     <use x="307.03125" xlink:href="#DejaVuSans-6e"/>
     <use x="370.410156" xlink:href="#DejaVuSans-64"/>
     <use x="433.886719" xlink:href="#DejaVuSans-6f"/>
     <use x="495.068359" xlink:href="#DejaVuSans-72"/>
     <use x="536.181641" xlink:href="#DejaVuSans-61"/>
     <use x="597.460938" xlink:href="#DejaVuSans-20"/>
     <use x="629.248047" xlink:href="#DejaVuSans-65"/>
     <use x="690.771484" xlink:href="#DejaVuSans-61"/>
     <use x="752.050781" xlink:href="#DejaVuSans-72"/>
     <use x="793.148438" xlink:href="#DejaVuSans-6e"/>
     <use x="856.527344" xlink:href="#DejaVuSans-69"/>
     <use x="884.310547" xlink:href="#DejaVuSans-6e"/>
     <use x="947.689453" xlink:href="#DejaVuSans-67"/>
     <use x="1011.166016" xlink:href="#DejaVuSans-73"/>
    </g>
   </g>
   <g id="legend_1">
    <g id="patch_7">
     <path d="M 64.6 122.862625 
L 158.45 122.862625 
Q 160.45 122.862625 160.45 120.862625 
L 160.45 48.472 
Q 160.45 46.472 158.45 46.472 
L 64.6 46.472 
Q 62.6 46.472 62.6 48.472 
L 62.6 120.862625 
Q 62.6 122.862625 64.6 122.862625 
z
" style="fill:#ffffff;opacity:0.8;stroke:#cccccc;stroke-linejoin:miter;"/>
    </g>
    <g id="line2d_32">
     <path d="M 66.6 54.570437 
L 86.6 54.570437 
" style="fill:none;stroke:#0000ff;stroke-linecap:square;stroke-width:1.5;"/>
    </g>
    <g id="line2d_33"/>
    <g id="text_17">
     <!-- Interest -->
     <defs>
      <path d="M 9.8125 72.90625 
L 19.671875 72.90625 
L 19.671875 0 
L 9.8125 0 
z
" id="DejaVuSans-49"/>
     </defs>
     <g transform="translate(94.6 58.070437)scale(0.1 -0.1)">
      <use xlink:href="#DejaVuSans-49"/>
      <use x="29.492188" xlink:href="#DejaVuSans-6e"/>
      <use x="92.871094" xlink:href="#DejaVuSans-74"/>
      <use x="132.080078" xlink:href="#DejaVuSans-65"/>
      <use x="193.603516" xlink:href="#DejaVuSans-72"/>
      <use x="234.685547" xlink:href="#DejaVuSans-65"/>
      <use x="296.208984" xlink:href="#DejaVuSans-73"/>
      <use x="348.308594" xlink:href="#DejaVuSans-74"/>
     </g>
    </g>
    <g id="line2d_34">
     <path d="M 66.6 69.248562 
L 86.6 69.248562 
" style="fill:none;stroke:#ff0000;stroke-linecap:square;stroke-width:1.5;"/>
    </g>
    <g id="line2d_35"/>
    <g id="text_18">
     <!-- Balance -->
     <defs>
      <path d="M 9.421875 75.984375 
L 18.40625 75.984375 
L 18.40625 0 
L 9.421875 0 
z
" id="DejaVuSans-6c"/>
      <path d="M 48.78125 52.59375 
L 48.78125 44.1875 
Q 44.96875 46.296875 41.140625 47.34375 
Q 37.3125 48.390625 33.40625 48.390625 
Q 24.65625 48.390625 19.8125 42.84375 
Q 14.984375 37.3125 14.984375 27.296875 
Q 14.984375 17.28125 19.8125 11.734375 
Q 24.65625 6.203125 33.40625 6.203125 
Q 37.3125 6.203125 41.140625 7.25 
Q 44.96875 8.296875 48.78125 10.40625 
L 48.78125 2.09375 
Q 45.015625 0.34375 40.984375 -0.53125 
Q 36.96875 -1.421875 32.421875 -1.421875 
Q 20.0625 -1.421875 12.78125 6.34375 
Q 5.515625 14.109375 5.515625 27.296875 
Q 5.515625 40.671875 12.859375 48.328125 
Q 20.21875 56 33.015625 56 
Q 37.15625 56 41.109375 55.140625 
Q 45.0625 54.296875 48.78125 52.59375 
z
" id="DejaVuSans-63"/>
     </defs>
     <g transform="translate(94.6 72.748562)scale(0.1 -0.1)">
      <use xlink:href="#DejaVuSans-42"/>
      <use x="68.603516" xlink:href="#DejaVuSans-61"/>
      <use x="129.882812" xlink:href="#DejaVuSans-6c"/>
      <use x="157.666016" xlink:href="#DejaVuSans-61"/>
      <use x="218.945312" xlink:href="#DejaVuSans-6e"/>
      <use x="282.324219" xlink:href="#DejaVuSans-63"/>
      <use x="337.304688" xlink:href="#DejaVuSans-65"/>
     </g>
    </g>
    <g id="line2d_36">
     <path d="M 66.6 83.926687 
L 86.6 83.926687 
" style="fill:none;stroke:#008000;stroke-linecap:square;stroke-width:1.5;"/>
    </g>
    <g id="line2d_37"/>
    <g id="text_19">
     <!-- Investments -->
     <defs>
      <path d="M 2.984375 54.6875 
L 12.5 54.6875 
L 29.59375 8.796875 
L 46.6875 54.6875 
L 56.203125 54.6875 
L 35.6875 0 
L 23.484375 0 
z
" id="DejaVuSans-76"/>
      <path d="M 52 44.1875 
Q 55.375 50.25 60.0625 53.125 
Q 64.75 56 71.09375 56 
Q 79.640625 56 84.28125 50.015625 
Q 88.921875 44.046875 88.921875 33.015625 
L 88.921875 0 
L 79.890625 0 
L 79.890625 32.71875 
Q 79.890625 40.578125 77.09375 44.375 
Q 74.3125 48.1875 68.609375 48.1875 
Q 61.625 48.1875 57.5625 43.546875 
Q 53.515625 38.921875 53.515625 30.90625 
L 53.515625 0 
L 44.484375 0 
L 44.484375 32.71875 
Q 44.484375 40.625 41.703125 44.40625 
Q 38.921875 48.1875 33.109375 48.1875 
Q 26.21875 48.1875 22.15625 43.53125 
Q 18.109375 38.875 18.109375 30.90625 
L 18.109375 0 
L 9.078125 0 
L 9.078125 54.6875 
L 18.109375 54.6875 
L 18.109375 46.1875 
Q 21.1875 51.21875 25.484375 53.609375 
Q 29.78125 56 35.6875 56 
Q 41.65625 56 45.828125 52.96875 
Q 50 49.953125 52 44.1875 
z
" id="DejaVuSans-6d"/>
     </defs>
     <g transform="translate(94.6 87.426687)scale(0.1 -0.1)">
      <use xlink:href="#DejaVuSans-49"/>
      <use x="29.492188" xlink:href="#DejaVuSans-6e"/>
      <use x="92.871094" xlink:href="#DejaVuSans-76"/>
      <use x="152.050781" xlink:href="#DejaVuSans-65"/>
      <use x="213.574219" xlink:href="#DejaVuSans-73"/>
      <use x="265.673828" xlink:href="#DejaVuSans-74"/>
      <use x="304.882812" xlink:href="#DejaVuSans-6d"/>
      <use x="402.294922" xlink:href="#DejaVuSans-65"/>
      <use x="463.818359" xlink:href="#DejaVuSans-6e"/>
      <use x="527.197266" xlink:href="#DejaVuSans-74"/>
      <use x="566.40625" xlink:href="#DejaVuSans-73"/>
     </g>
    </g>
    <g id="line2d_38"/>
    <g id="line2d_39">
     <g>
      <use style="fill:#bfbf00;stroke:#bfbf00;" x="76.6" xlink:href="#m376f2b59fe" y="98.604812"/>
     </g>
    </g>
    <g id="text_20">
     <!-- Deposits -->
     <defs>
      <path d="M 19.671875 64.796875 
L 19.671875 8.109375 
L 31.59375 8.109375 
Q 46.6875 8.109375 53.6875 14.9375 
Q 60.6875 21.78125 60.6875 36.53125 
Q 60.6875 51.171875 53.6875 57.984375 
Q 46.6875 64.796875 31.59375 64.796875 
z
M 9.8125 72.90625 
L 30.078125 72.90625 
Q 51.265625 72.90625 61.171875 64.09375 
Q 71.09375 55.28125 71.09375 36.53125 
Q 71.09375 17.671875 61.125 8.828125 
Q 51.171875 0 30.078125 0 
L 9.8125 0 
z
" id="DejaVuSans-44"/>
      <path d="M 18.109375 8.203125 
L 18.109375 -20.796875 
L 9.078125 -20.796875 
L 9.078125 54.6875 
L 18.109375 54.6875 
L 18.109375 46.390625 
Q 20.953125 51.265625 25.265625 53.625 
Q 29.59375 56 35.59375 56 
Q 45.5625 56 51.78125 48.09375 
Q 58.015625 40.1875 58.015625 27.296875 
Q 58.015625 14.40625 51.78125 6.484375 
Q 45.5625 -1.421875 35.59375 -1.421875 
Q 29.59375 -1.421875 25.265625 0.953125 
Q 20.953125 3.328125 18.109375 8.203125 
z
M 48.6875 27.296875 
Q 48.6875 37.203125 44.609375 42.84375 
Q 40.53125 48.484375 33.40625 48.484375 
Q 26.265625 48.484375 22.1875 42.84375 
Q 18.109375 37.203125 18.109375 27.296875 
Q 18.109375 17.390625 22.1875 11.75 
Q 26.265625 6.109375 33.40625 6.109375 
Q 40.53125 6.109375 44.609375 11.75 
Q 48.6875 17.390625 48.6875 27.296875 
z
" id="DejaVuSans-70"/>
     </defs>
     <g transform="translate(94.6 102.104812)scale(0.1 -0.1)">
      <use xlink:href="#DejaVuSans-44"/>
      <use x="77.001953" xlink:href="#DejaVuSans-65"/>
      <use x="138.525391" xlink:href="#DejaVuSans-70"/>
      <use x="202.001953" xlink:href="#DejaVuSans-6f"/>
      <use x="263.183594" xlink:href="#DejaVuSans-73"/>
      <use x="315.283203" xlink:href="#DejaVuSans-69"/>
      <use x="343.066406" xlink:href="#DejaVuSans-74"/>
      <use x="382.275391" xlink:href="#DejaVuSans-73"/>
     </g>
    </g>
    <g id="line2d_40"/>
    <g id="line2d_41">
     <g>
      <use style="fill:#008000;stroke:#008000;" x="76.6" xlink:href="#m87571dd8fc" y="113.282937"/>
     </g>
    </g>
    <g id="text_21">
     <!-- Commission -->
     <defs>
      <path d="M 64.40625 67.28125 
L 64.40625 56.890625 
Q 59.421875 61.53125 53.78125 63.8125 
Q 48.140625 66.109375 41.796875 66.109375 
Q 29.296875 66.109375 22.65625 58.46875 
Q 16.015625 50.828125 16.015625 36.375 
Q 16.015625 21.96875 22.65625 14.328125 
Q 29.296875 6.6875 41.796875 6.6875 
Q 48.140625 6.6875 53.78125 8.984375 
Q 59.421875 11.28125 64.40625 15.921875 
L 64.40625 5.609375 
Q 59.234375 2.09375 53.4375 0.328125 
Q 47.65625 -1.421875 41.21875 -1.421875 
Q 24.65625 -1.421875 15.125 8.703125 
Q 5.609375 18.84375 5.609375 36.375 
Q 5.609375 53.953125 15.125 64.078125 
Q 24.65625 74.21875 41.21875 74.21875 
Q 47.75 74.21875 53.53125 72.484375 
Q 59.328125 70.75 64.40625 67.28125 
z
" id="DejaVuSans-43"/>
     </defs>
     <g transform="translate(94.6 116.782937)scale(0.1 -0.1)">
      <use xlink:href="#DejaVuSans-43"/>
      <use x="69.824219" xlink:href="#DejaVuSans-6f"/>
      <use x="131.005859" xlink:href="#DejaVuSans-6d"/>
      <use x="228.417969" xlink:href="#DejaVuSans-6d"/>
      <use x="325.830078" xlink:href="#DejaVuSans-69"/>
      <use x="353.613281" xlink:href="#DejaVuSans-73"/>
      <use x="405.712891" xlink:href="#DejaVuSans-73"/>
      <use x="457.8125" xlink:href="#DejaVuSans-69"/>
      <use x="485.595703" xlink:href="#DejaVuSans-6f"/>
      <use x="546.777344" xlink:href="#DejaVuSans-6e"/>
     </g>
    </g>
   </g>
  </g>
 </g>
 <defs>
  <clipPath id="pbbf04385ee">
   <rect height="235.008" width="357.12" x="57.6" y="41.472"/>
  </clipPath>
 </defs>
</svg>
