<?xml version="1.0" encoding="utf-8" standalone="no"?>
<!DOCTYPE svg PUBLIC "-//W3C//DTD SVG 1.1//EN"
  "http://www.w3.org/Graphics/SVG/1.1/DTD/svg11.dtd">
<!-- Created with matplotlib (http://matplotlib.org/) -->
<svg height="345.6pt" version="1.1" viewBox="0 0 460.8 345.6" width="460.8pt" xmlns="http://www.w3.org/2000/svg" xmlns:xlink="http://www.w3.org/1999/xlink">
 <defs>
  <style type="text/css">
*{stroke-linecap:butt;stroke-linejoin:round;}
  </style>
 </defs>
 <g id="figure_1">
  <g id="patch_1">
   <path d="M 0 345.6 
L 460.8 345.6 
L 460.8 0 
L 0 0 
z
" style="fill:#ffffff;"/>
  </g>
  <g id="axes_1">
   <g id="patch_2">
    <path d="M 57.6 276.48 
L 414.72 276.48 
L 414.72 41.472 
L 57.6 41.472 
z
" style="fill:#ffffff;"/>
   </g>
   <g id="matplotlib.axis_1">
    <g id="xtick_1">
     <g id="line2d_1">
      <path clip-path="url(#p6b4d739b58)" d="M 73.832727 276.48 
L 73.832727 41.472 
" style="fill:none;stroke:#b0b0b0;stroke-linecap:square;stroke-width:0.8;"/>
     </g>
     <g id="line2d_2">
      <defs>
       <path d="M 0 0 
L 0 3.5 
" id="m86a613ac70" style="stroke:#000000;stroke-width:0.8;"/>
      </defs>
      <g>
       <use style="stroke:#000000;stroke-width:0.8;" x="73.832727" xlink:href="#m86a613ac70" y="276.48"/>
      </g>
     </g>
     <g id="text_1">
      <!-- 2019-01 -->
      <defs>
       <path d="M 19.1875 8.296875 
L 53.609375 8.296875 
L 53.609375 0 
L 7.328125 0 
L 7.328125 8.296875 
Q 12.9375 14.109375 22.625 23.890625 
Q 32.328125 33.6875 34.8125 36.53125 
Q 39.546875 41.84375 41.421875 45.53125 
Q 43.3125 49.21875 43.3125 52.78125 
Q 43.3125 58.59375 39.234375 62.25 
Q 35.15625 65.921875 28.609375 65.921875 
Q 23.96875 65.921875 18.8125 64.3125 
Q 13.671875 62.703125 7.8125 59.421875 
L 7.8125 69.390625 
Q 13.765625 71.78125 18.9375 73 
Q 24.125 74.21875 28.421875 74.21875 
Q 39.75 74.21875 46.484375 68.546875 
Q 53.21875 62.890625 53.21875 53.421875 
Q 53.21875 48.921875 51.53125 44.890625 
Q 49.859375 40.875 45.40625 35.40625 
Q 44.1875 33.984375 37.640625 27.21875 
Q 31.109375 20.453125 19.1875 8.296875 
z
" id="DejaVuSans-32"/>
       <path d="M 31.78125 66.40625 
Q 24.171875 66.40625 20.328125 58.90625 
Q 16.5 51.421875 16.5 36.375 
Q 16.5 21.390625 20.328125 13.890625 
Q 24.171875 6.390625 31.78125 6.390625 
Q 39.453125 6.390625 43.28125 13.890625 
Q 47.125 21.390625 47.125 36.375 
Q 47.125 51.421875 43.28125 58.90625 
Q 39.453125 66.40625 31.78125 66.40625 
z
M 31.78125 74.21875 
Q 44.046875 74.21875 50.515625 64.515625 
Q 56.984375 54.828125 56.984375 36.375 
Q 56.984375 17.96875 50.515625 8.265625 
Q 44.046875 -1.421875 31.78125 -1.421875 
Q 19.53125 -1.421875 13.0625 8.265625 
Q 6.59375 17.96875 6.59375 36.375 
Q 6.59375 54.828125 13.0625 64.515625 
Q 19.53125 74.21875 31.78125 74.21875 
z
" id="DejaVuSans-30"/>
       <path d="M 12.40625 8.296875 
L 28.515625 8.296875 
L 28.515625 63.921875 
L 10.984375 60.40625 
L 10.984375 69.390625 
L 28.421875 72.90625 
L 38.28125 72.90625 
L 38.28125 8.296875 
L 54.390625 8.296875 
L 54.390625 0 
L 12.40625 0 
z
" id="DejaVuSans-31"/>
       <path d="M 10.984375 1.515625 
L 10.984375 10.5 
Q 14.703125 8.734375 18.5 7.8125 
Q 22.3125 6.890625 25.984375 6.890625 
Q 35.75 6.890625 40.890625 13.453125 
Q 46.046875 20.015625 46.78125 33.40625 
Q 43.953125 29.203125 39.59375 26.953125 
Q 35.25 24.703125 29.984375 24.703125 
Q 19.046875 24.703125 12.671875 31.3125 
Q 6.296875 37.9375 6.296875 49.421875 
Q 6.296875 60.640625 12.9375 67.421875 
Q 19.578125 74.21875 30.609375 74.21875 
Q 43.265625 74.21875 49.921875 64.515625 
Q 56.59375 54.828125 56.59375 36.375 
Q 56.59375 19.140625 48.40625 8.859375 
Q 40.234375 -1.421875 26.421875 -1.421875 
Q 22.703125 -1.421875 18.890625 -0.6875 
Q 15.09375 0.046875 10.984375 1.515625 
z
M 30.609375 32.421875 
Q 37.25 32.421875 41.125 36.953125 
Q 45.015625 41.5 45.015625 49.421875 
Q 45.015625 57.28125 41.125 61.84375 
Q 37.25 66.40625 30.609375 66.40625 
Q 23.96875 66.40625 20.09375 61.84375 
Q 16.21875 57.28125 16.21875 49.421875 
Q 16.21875 41.5 20.09375 36.953125 
Q 23.96875 32.421875 30.609375 32.421875 
z
" id="DejaVuSans-39"/>
       <path d="M 4.890625 31.390625 
L 31.203125 31.390625 
L 31.203125 23.390625 
L 4.890625 23.390625 
z
" id="DejaVuSans-2d"/>
      </defs>
      <g transform="translate(36.607906 310.951846)rotate(-30)scale(0.1 -0.1)">
       <use xlink:href="#DejaVuSans-32"/>
       <use x="63.623047" xlink:href="#DejaVuSans-30"/>
       <use x="127.246094" xlink:href="#DejaVuSans-31"/>
       <use x="190.869141" xlink:href="#DejaVuSans-39"/>
       <use x="254.492188" xlink:href="#DejaVuSans-2d"/>
       <use x="290.576172" xlink:href="#DejaVuSans-30"/>
       <use x="354.199219" xlink:href="#DejaVuSans-31"/>
      </g>
     </g>
    </g>
    <g id="xtick_2">
     <g id="line2d_3">
      <path clip-path="url(#p6b4d739b58)" d="M 105.784942 276.48 
L 105.784942 41.472 
" style="fill:none;stroke:#b0b0b0;stroke-linecap:square;stroke-width:0.8;"/>
     </g>
     <g id="line2d_4">
      <g>
       <use style="stroke:#000000;stroke-width:0.8;" x="105.784942" xlink:href="#m86a613ac70" y="276.48"/>
      </g>
     </g>
     <g id="text_2">
      <!-- 2019-02 -->
      <g transform="translate(68.560121 310.951846)rotate(-30)scale(0.1 -0.1)">
       <use xlink:href="#DejaVuSans-32"/>
       <use x="63.623047" xlink:href="#DejaVuSans-30"/>
       <use x="127.246094" xlink:href="#DejaVuSans-31"/>
       <use x="190.869141" xlink:href="#DejaVuSans-39"/>
       <use x="254.492188" xlink:href="#DejaVuSans-2d"/>
       <use x="290.576172" xlink:href="#DejaVuSans-30"/>
       <use x="354.199219" xlink:href="#DejaVuSans-32"/>
      </g>
     </g>
    </g>
    <g id="xtick_3">
     <g id="line2d_5">
      <path clip-path="url(#p6b4d739b58)" d="M 134.645007 276.48 
L 134.645007 41.472 
" style="fill:none;stroke:#b0b0b0;stroke-linecap:square;stroke-width:0.8;"/>
     </g>
     <g id="line2d_6">
      <g>
       <use style="stroke:#000000;stroke-width:0.8;" x="134.645007" xlink:href="#m86a613ac70" y="276.48"/>
      </g>
     </g>
     <g id="text_3">
      <!-- 2019-03 -->
      <defs>
       <path d="M 40.578125 39.3125 
Q 47.65625 37.796875 51.625 33 
Q 55.609375 28.21875 55.609375 21.1875 
Q 55.609375 10.40625 48.1875 4.484375 
Q 40.765625 -1.421875 27.09375 -1.421875 
Q 22.515625 -1.421875 17.65625 -0.515625 
Q 12.796875 0.390625 7.625 2.203125 
L 7.625 11.71875 
Q 11.71875 9.328125 16.59375 8.109375 
Q 21.484375 6.890625 26.8125 6.890625 
Q 36.078125 6.890625 40.9375 10.546875 
Q 45.796875 14.203125 45.796875 21.1875 
Q 45.796875 27.640625 41.28125 31.265625 
Q 36.765625 34.90625 28.71875 34.90625 
L 20.21875 34.90625 
L 20.21875 43.015625 
L 29.109375 43.015625 
Q 36.375 43.015625 40.234375 45.921875 
Q 44.09375 48.828125 44.09375 54.296875 
Q 44.09375 59.90625 40.109375 62.90625 
Q 36.140625 65.921875 28.71875 65.921875 
Q 24.65625 65.921875 20.015625 65.03125 
Q 15.375 64.15625 9.8125 62.3125 
L 9.8125 71.09375 
Q 15.4375 72.65625 20.34375 73.4375 
Q 25.25 74.21875 29.59375 74.21875 
Q 40.828125 74.21875 47.359375 69.109375 
Q 53.90625 64.015625 53.90625 55.328125 
Q 53.90625 49.265625 50.4375 45.09375 
Q 46.96875 40.921875 40.578125 39.3125 
z
" id="DejaVuSans-33"/>
      </defs>
      <g transform="translate(97.420186 310.951846)rotate(-30)scale(0.1 -0.1)">
       <use xlink:href="#DejaVuSans-32"/>
       <use x="63.623047" xlink:href="#DejaVuSans-30"/>
       <use x="127.246094" xlink:href="#DejaVuSans-31"/>
       <use x="190.869141" xlink:href="#DejaVuSans-39"/>
       <use x="254.492188" xlink:href="#DejaVuSans-2d"/>
       <use x="290.576172" xlink:href="#DejaVuSans-30"/>
       <use x="354.199219" xlink:href="#DejaVuSans-33"/>
      </g>
     </g>
    </g>
    <g id="xtick_4">
     <g id="line2d_7">
      <path clip-path="url(#p6b4d739b58)" d="M 166.597222 276.48 
L 166.597222 41.472 
" style="fill:none;stroke:#b0b0b0;stroke-linecap:square;stroke-width:0.8;"/>
     </g>
     <g id="line2d_8">
      <g>
       <use style="stroke:#000000;stroke-width:0.8;" x="166.597222" xlink:href="#m86a613ac70" y="276.48"/>
      </g>
     </g>
     <g id="text_4">
      <!-- 2019-04 -->
      <defs>
       <path d="M 37.796875 64.3125 
L 12.890625 25.390625 
L 37.796875 25.390625 
z
M 35.203125 72.90625 
L 47.609375 72.90625 
L 47.609375 25.390625 
L 58.015625 25.390625 
L 58.015625 17.1875 
L 47.609375 17.1875 
L 47.609375 0 
L 37.796875 0 
L 37.796875 17.1875 
L 4.890625 17.1875 
L 4.890625 26.703125 
z
" id="DejaVuSans-34"/>
      </defs>
      <g transform="translate(129.372401 310.951846)rotate(-30)scale(0.1 -0.1)">
       <use xlink:href="#DejaVuSans-32"/>
       <use x="63.623047" xlink:href="#DejaVuSans-30"/>
       <use x="127.246094" xlink:href="#DejaVuSans-31"/>
       <use x="190.869141" xlink:href="#DejaVuSans-39"/>
       <use x="254.492188" xlink:href="#DejaVuSans-2d"/>
       <use x="290.576172" xlink:href="#DejaVuSans-30"/>
       <use x="354.199219" xlink:href="#DejaVuSans-34"/>
      </g>
     </g>
    </g>
    <g id="xtick_5">
     <g id="line2d_9">
      <path clip-path="url(#p6b4d739b58)" d="M 197.518721 276.48 
L 197.518721 41.472 
" style="fill:none;stroke:#b0b0b0;stroke-linecap:square;stroke-width:0.8;"/>
     </g>
     <g id="line2d_10">
      <g>
       <use style="stroke:#000000;stroke-width:0.8;" x="197.518721" xlink:href="#m86a613ac70" y="276.48"/>
      </g>
     </g>
     <g id="text_5">
      <!-- 2019-05 -->
      <defs>
       <path d="M 10.796875 72.90625 
L 49.515625 72.90625 
L 49.515625 64.59375 
L 19.828125 64.59375 
L 19.828125 46.734375 
Q 21.96875 47.46875 24.109375 47.828125 
Q 26.265625 48.1875 28.421875 48.1875 
Q 40.625 48.1875 47.75 41.5 
Q 54.890625 34.8125 54.890625 23.390625 
Q 54.890625 11.625 47.5625 5.09375 
Q 40.234375 -1.421875 26.90625 -1.421875 
Q 22.3125 -1.421875 17.546875 -0.640625 
Q 12.796875 0.140625 7.71875 1.703125 
L 7.71875 11.625 
Q 12.109375 9.234375 16.796875 8.0625 
Q 21.484375 6.890625 26.703125 6.890625 
Q 35.15625 6.890625 40.078125 11.328125 
Q 45.015625 15.765625 45.015625 23.390625 
Q 45.015625 31 40.078125 35.4375 
Q 35.15625 39.890625 26.703125 39.890625 
Q 22.75 39.890625 18.8125 39.015625 
Q 14.890625 38.140625 10.796875 36.28125 
z
" id="DejaVuSans-35"/>
      </defs>
      <g transform="translate(160.2939 310.951846)rotate(-30)scale(0.1 -0.1)">
       <use xlink:href="#DejaVuSans-32"/>
       <use x="63.623047" xlink:href="#DejaVuSans-30"/>
       <use x="127.246094" xlink:href="#DejaVuSans-31"/>
       <use x="190.869141" xlink:href="#DejaVuSans-39"/>
       <use x="254.492188" xlink:href="#DejaVuSans-2d"/>
       <use x="290.576172" xlink:href="#DejaVuSans-30"/>
       <use x="354.199219" xlink:href="#DejaVuSans-35"/>
      </g>
     </g>
    </g>
    <g id="xtick_6">
     <g id="line2d_11">
      <path clip-path="url(#p6b4d739b58)" d="M 229.470936 276.48 
L 229.470936 41.472 
" style="fill:none;stroke:#b0b0b0;stroke-linecap:square;stroke-width:0.8;"/>
     </g>
     <g id="line2d_12">
      <g>
       <use style="stroke:#000000;stroke-width:0.8;" x="229.470936" xlink:href="#m86a613ac70" y="276.48"/>
      </g>
     </g>
     <g id="text_6">
      <!-- 2019-06 -->
      <defs>
       <path d="M 33.015625 40.375 
Q 26.375 40.375 22.484375 35.828125 
Q 18.609375 31.296875 18.609375 23.390625 
Q 18.609375 15.53125 22.484375 10.953125 
Q 26.375 6.390625 33.015625 6.390625 
Q 39.65625 6.390625 43.53125 10.953125 
Q 47.40625 15.53125 47.40625 23.390625 
Q 47.40625 31.296875 43.53125 35.828125 
Q 39.65625 40.375 33.015625 40.375 
z
M 52.59375 71.296875 
L 52.59375 62.3125 
Q 48.875 64.0625 45.09375 64.984375 
Q 41.3125 65.921875 37.59375 65.921875 
Q 27.828125 65.921875 22.671875 59.328125 
Q 17.53125 52.734375 16.796875 39.40625 
Q 19.671875 43.65625 24.015625 45.921875 
Q 28.375 48.1875 33.59375 48.1875 
Q 44.578125 48.1875 50.953125 41.515625 
Q 57.328125 34.859375 57.328125 23.390625 
Q 57.328125 12.15625 50.6875 5.359375 
Q 44.046875 -1.421875 33.015625 -1.421875 
Q 20.359375 -1.421875 13.671875 8.265625 
Q 6.984375 17.96875 6.984375 36.375 
Q 6.984375 53.65625 15.1875 63.9375 
Q 23.390625 74.21875 37.203125 74.21875 
Q 40.921875 74.21875 44.703125 73.484375 
Q 48.484375 72.75 52.59375 71.296875 
z
" id="DejaVuSans-36"/>
      </defs>
      <g transform="translate(192.246115 310.951846)rotate(-30)scale(0.1 -0.1)">
       <use xlink:href="#DejaVuSans-32"/>
       <use x="63.623047" xlink:href="#DejaVuSans-30"/>
       <use x="127.246094" xlink:href="#DejaVuSans-31"/>
       <use x="190.869141" xlink:href="#DejaVuSans-39"/>
       <use x="254.492188" xlink:href="#DejaVuSans-2d"/>
       <use x="290.576172" xlink:href="#DejaVuSans-30"/>
       <use x="354.199219" xlink:href="#DejaVuSans-36"/>
      </g>
     </g>
    </g>
    <g id="xtick_7">
     <g id="line2d_13">
      <path clip-path="url(#p6b4d739b58)" d="M 260.392434 276.48 
L 260.392434 41.472 
" style="fill:none;stroke:#b0b0b0;stroke-linecap:square;stroke-width:0.8;"/>
     </g>
     <g id="line2d_14">
      <g>
       <use style="stroke:#000000;stroke-width:0.8;" x="260.392434" xlink:href="#m86a613ac70" y="276.48"/>
      </g>
     </g>
     <g id="text_7">
      <!-- 2019-07 -->
      <defs>
       <path d="M 8.203125 72.90625 
L 55.078125 72.90625 
L 55.078125 68.703125 
L 28.609375 0 
L 18.3125 0 
L 43.21875 64.59375 
L 8.203125 64.59375 
z
" id="DejaVuSans-37"/>
      </defs>
      <g transform="translate(223.167613 310.951846)rotate(-30)scale(0.1 -0.1)">
       <use xlink:href="#DejaVuSans-32"/>
       <use x="63.623047" xlink:href="#DejaVuSans-30"/>
       <use x="127.246094" xlink:href="#DejaVuSans-31"/>
       <use x="190.869141" xlink:href="#DejaVuSans-39"/>
       <use x="254.492188" xlink:href="#DejaVuSans-2d"/>
       <use x="290.576172" xlink:href="#DejaVuSans-30"/>
       <use x="354.199219" xlink:href="#DejaVuSans-37"/>
      </g>
     </g>
    </g>
    <g id="xtick_8">
     <g id="line2d_15">
      <path clip-path="url(#p6b4d739b58)" d="M 292.344649 276.48 
L 292.344649 41.472 
" style="fill:none;stroke:#b0b0b0;stroke-linecap:square;stroke-width:0.8;"/>
     </g>
     <g id="line2d_16">
      <g>
       <use style="stroke:#000000;stroke-width:0.8;" x="292.344649" xlink:href="#m86a613ac70" y="276.48"/>
      </g>
     </g>
     <g id="text_8">
      <!-- 2019-08 -->
      <defs>
       <path d="M 31.78125 34.625 
Q 24.75 34.625 20.71875 30.859375 
Q 16.703125 27.09375 16.703125 20.515625 
Q 16.703125 13.921875 20.71875 10.15625 
Q 24.75 6.390625 31.78125 6.390625 
Q 38.8125 6.390625 42.859375 10.171875 
Q 46.921875 13.96875 46.921875 20.515625 
Q 46.921875 27.09375 42.890625 30.859375 
Q 38.875 34.625 31.78125 34.625 
z
M 21.921875 38.8125 
Q 15.578125 40.375 12.03125 44.71875 
Q 8.5 49.078125 8.5 55.328125 
Q 8.5 64.0625 14.71875 69.140625 
Q 20.953125 74.21875 31.78125 74.21875 
Q 42.671875 74.21875 48.875 69.140625 
Q 55.078125 64.0625 55.078125 55.328125 
Q 55.078125 49.078125 51.53125 44.71875 
Q 48 40.375 41.703125 38.8125 
Q 48.828125 37.15625 52.796875 32.3125 
Q 56.78125 27.484375 56.78125 20.515625 
Q 56.78125 9.90625 50.3125 4.234375 
Q 43.84375 -1.421875 31.78125 -1.421875 
Q 19.734375 -1.421875 13.25 4.234375 
Q 6.78125 9.90625 6.78125 20.515625 
Q 6.78125 27.484375 10.78125 32.3125 
Q 14.796875 37.15625 21.921875 38.8125 
z
M 18.3125 54.390625 
Q 18.3125 48.734375 21.84375 45.5625 
Q 25.390625 42.390625 31.78125 42.390625 
Q 38.140625 42.390625 41.71875 45.5625 
Q 45.3125 48.734375 45.3125 54.390625 
Q 45.3125 60.0625 41.71875 63.234375 
Q 38.140625 66.40625 31.78125 66.40625 
Q 25.390625 66.40625 21.84375 63.234375 
Q 18.3125 60.0625 18.3125 54.390625 
z
" id="DejaVuSans-38"/>
      </defs>
      <g transform="translate(255.119828 310.951846)rotate(-30)scale(0.1 -0.1)">
       <use xlink:href="#DejaVuSans-32"/>
       <use x="63.623047" xlink:href="#DejaVuSans-30"/>
       <use x="127.246094" xlink:href="#DejaVuSans-31"/>
       <use x="190.869141" xlink:href="#DejaVuSans-39"/>
       <use x="254.492188" xlink:href="#DejaVuSans-2d"/>
       <use x="290.576172" xlink:href="#DejaVuSans-30"/>
       <use x="354.199219" xlink:href="#DejaVuSans-38"/>
      </g>
     </g>
    </g>
    <g id="xtick_9">
     <g id="line2d_17">
      <path clip-path="url(#p6b4d739b58)" d="M 324.296864 276.48 
L 324.296864 41.472 
" style="fill:none;stroke:#b0b0b0;stroke-linecap:square;stroke-width:0.8;"/>
     </g>
     <g id="line2d_18">
      <g>
       <use style="stroke:#000000;stroke-width:0.8;" x="324.296864" xlink:href="#m86a613ac70" y="276.48"/>
      </g>
     </g>
     <g id="text_9">
      <!-- 2019-09 -->
      <g transform="translate(287.072043 310.951846)rotate(-30)scale(0.1 -0.1)">
       <use xlink:href="#DejaVuSans-32"/>
       <use x="63.623047" xlink:href="#DejaVuSans-30"/>
       <use x="127.246094" xlink:href="#DejaVuSans-31"/>
       <use x="190.869141" xlink:href="#DejaVuSans-39"/>
       <use x="254.492188" xlink:href="#DejaVuSans-2d"/>
       <use x="290.576172" xlink:href="#DejaVuSans-30"/>
       <use x="354.199219" xlink:href="#DejaVuSans-39"/>
      </g>
     </g>
    </g>
    <g id="xtick_10">
     <g id="line2d_19">
      <path clip-path="url(#p6b4d739b58)" d="M 355.218362 276.48 
L 355.218362 41.472 
" style="fill:none;stroke:#b0b0b0;stroke-linecap:square;stroke-width:0.8;"/>
     </g>
     <g id="line2d_20">
      <g>
       <use style="stroke:#000000;stroke-width:0.8;" x="355.218362" xlink:href="#m86a613ac70" y="276.48"/>
      </g>
     </g>
     <g id="text_10">
      <!-- 2019-10 -->
      <g transform="translate(317.993541 310.951846)rotate(-30)scale(0.1 -0.1)">
       <use xlink:href="#DejaVuSans-32"/>
       <use x="63.623047" xlink:href="#DejaVuSans-30"/>
       <use x="127.246094" xlink:href="#DejaVuSans-31"/>
       <use x="190.869141" xlink:href="#DejaVuSans-39"/>
       <use x="254.492188" xlink:href="#DejaVuSans-2d"/>
       <use x="290.576172" xlink:href="#DejaVuSans-31"/>
       <use x="354.199219" xlink:href="#DejaVuSans-30"/>
      </g>
     </g>
    </g>
    <g id="xtick_11">
     <g id="line2d_21">
      <path clip-path="url(#p6b4d739b58)" d="M 387.170577 276.48 
L 387.170577 41.472 
" style="fill:none;stroke:#b0b0b0;stroke-linecap:square;stroke-width:0.8;"/>
     </g>
     <g id="line2d_22">
      <g>
       <use style="stroke:#000000;stroke-width:0.8;" x="387.170577" xlink:href="#m86a613ac70" y="276.48"/>
      </g>
     </g>
     <g id="text_11">
      <!-- 2019-11 -->
      <g transform="translate(349.945756 310.951846)rotate(-30)scale(0.1 -0.1)">
       <use xlink:href="#DejaVuSans-32"/>
       <use x="63.623047" xlink:href="#DejaVuSans-30"/>
       <use x="127.246094" xlink:href="#DejaVuSans-31"/>
       <use x="190.869141" xlink:href="#DejaVuSans-39"/>
       <use x="254.492188" xlink:href="#DejaVuSans-2d"/>
       <use x="290.576172" xlink:href="#DejaVuSans-31"/>
       <use x="354.199219" xlink:href="#DejaVuSans-31"/>
      </g>
     </g>
    </g>
    <g id="text_12">
     <!-- date -->
     <defs>
      <path d="M 45.40625 46.390625 
L 45.40625 75.984375 
L 54.390625 75.984375 
L 54.390625 0 
L 45.40625 0 
L 45.40625 8.203125 
Q 42.578125 3.328125 38.25 0.953125 
Q 33.9375 -1.421875 27.875 -1.421875 
Q 17.96875 -1.421875 11.734375 6.484375 
Q 5.515625 14.40625 5.515625 27.296875 
Q 5.515625 40.1875 11.734375 48.09375 
Q 17.96875 56 27.875 56 
Q 33.9375 56 38.25 53.625 
Q 42.578125 51.265625 45.40625 46.390625 
z
M 14.796875 27.296875 
Q 14.796875 17.390625 18.875 11.75 
Q 22.953125 6.109375 30.078125 6.109375 
Q 37.203125 6.109375 41.296875 11.75 
Q 45.40625 17.390625 45.40625 27.296875 
Q 45.40625 37.203125 41.296875 42.84375 
Q 37.203125 48.484375 30.078125 48.484375 
Q 22.953125 48.484375 18.875 42.84375 
Q 14.796875 37.203125 14.796875 27.296875 
z
" id="DejaVuSans-64"/>
      <path d="M 34.28125 27.484375 
Q 23.390625 27.484375 19.1875 25 
Q 14.984375 22.515625 14.984375 16.5 
Q 14.984375 11.71875 18.140625 8.90625 
Q 21.296875 6.109375 26.703125 6.109375 
Q 34.1875 6.109375 38.703125 11.40625 
Q 43.21875 16.703125 43.21875 25.484375 
L 43.21875 27.484375 
z
M 52.203125 31.203125 
L 52.203125 0 
L 43.21875 0 
L 43.21875 8.296875 
Q 40.140625 3.328125 35.546875 0.953125 
Q 30.953125 -1.421875 24.3125 -1.421875 
Q 15.921875 -1.421875 10.953125 3.296875 
Q 6 8.015625 6 15.921875 
Q 6 25.140625 12.171875 29.828125 
Q 18.359375 34.515625 30.609375 34.515625 
L 43.21875 34.515625 
L 43.21875 35.40625 
Q 43.21875 41.609375 39.140625 45 
Q 35.0625 48.390625 27.6875 48.390625 
Q 23 48.390625 18.546875 47.265625 
Q 14.109375 46.140625 10.015625 43.890625 
L 10.015625 52.203125 
Q 14.9375 54.109375 19.578125 55.046875 
Q 24.21875 56 28.609375 56 
Q 40.484375 56 46.34375 49.84375 
Q 52.203125 43.703125 52.203125 31.203125 
z
" id="DejaVuSans-61"/>
      <path d="M 18.3125 70.21875 
L 18.3125 54.6875 
L 36.8125 54.6875 
L 36.8125 47.703125 
L 18.3125 47.703125 
L 18.3125 18.015625 
Q 18.3125 11.328125 20.140625 9.421875 
Q 21.96875 7.515625 27.59375 7.515625 
L 36.8125 7.515625 
L 36.8125 0 
L 27.59375 0 
Q 17.1875 0 13.234375 3.875 
Q 9.28125 7.765625 9.28125 18.015625 
L 9.28125 47.703125 
L 2.6875 47.703125 
L 2.6875 54.6875 
L 9.28125 54.6875 
L 9.28125 70.21875 
z
" id="DejaVuSans-74"/>
      <path d="M 56.203125 29.59375 
L 56.203125 25.203125 
L 14.890625 25.203125 
Q 15.484375 15.921875 20.484375 11.0625 
Q 25.484375 6.203125 34.421875 6.203125 
Q 39.59375 6.203125 44.453125 7.46875 
Q 49.3125 8.734375 54.109375 11.28125 
L 54.109375 2.78125 
Q 49.265625 0.734375 44.1875 -0.34375 
Q 39.109375 -1.421875 33.890625 -1.421875 
Q 20.796875 -1.421875 13.15625 6.1875 
Q 5.515625 13.8125 5.515625 26.8125 
Q 5.515625 40.234375 12.765625 48.109375 
Q 20.015625 56 32.328125 56 
Q 43.359375 56 49.78125 48.890625 
Q 56.203125 41.796875 56.203125 29.59375 
z
M 47.21875 32.234375 
Q 47.125 39.59375 43.09375 43.984375 
Q 39.0625 48.390625 32.421875 48.390625 
Q 24.90625 48.390625 20.390625 44.140625 
Q 15.875 39.890625 15.1875 32.171875 
z
" id="DejaVuSans-65"/>
     </defs>
     <g transform="translate(224.885 324.351346)scale(0.1 -0.1)">
      <use xlink:href="#DejaVuSans-64"/>
      <use x="63.476562" xlink:href="#DejaVuSans-61"/>
      <use x="124.755859" xlink:href="#DejaVuSans-74"/>
      <use x="163.964844" xlink:href="#DejaVuSans-65"/>
     </g>
    </g>
   </g>
   <g id="matplotlib.axis_2">
    <g id="ytick_1">
     <g id="line2d_23">
      <path clip-path="url(#p6b4d739b58)" d="M 57.6 265.797818 
L 414.72 265.797818 
" style="fill:none;stroke:#b0b0b0;stroke-linecap:square;stroke-width:0.8;"/>
     </g>
     <g id="line2d_24">
      <defs>
       <path d="M 0 0 
L -3.5 0 
" id="m8fdc6ed136" style="stroke:#000000;stroke-width:0.8;"/>
      </defs>
      <g>
       <use style="stroke:#000000;stroke-width:0.8;" x="57.6" xlink:href="#m8fdc6ed136" y="265.797818"/>
      </g>
     </g>
     <g id="text_13">
      <!-- 0 -->
      <g transform="translate(44.2375 269.597037)scale(0.1 -0.1)">
       <use xlink:href="#DejaVuSans-30"/>
      </g>
     </g>
    </g>
    <g id="ytick_2">
     <g id="line2d_25">
      <path clip-path="url(#p6b4d739b58)" d="M 57.6 225.230937 
L 414.72 225.230937 
" style="fill:none;stroke:#b0b0b0;stroke-linecap:square;stroke-width:0.8;"/>
     </g>
     <g id="line2d_26">
      <g>
       <use style="stroke:#000000;stroke-width:0.8;" x="57.6" xlink:href="#m8fdc6ed136" y="225.230937"/>
      </g>
     </g>
     <g id="text_14">
      <!-- 2000 -->
      <g transform="translate(25.15 229.030156)scale(0.1 -0.1)">
       <use xlink:href="#DejaVuSans-32"/>
       <use x="63.623047" xlink:href="#DejaVuSans-30"/>
       <use x="127.246094" xlink:href="#DejaVuSans-30"/>
       <use x="190.869141" xlink:href="#DejaVuSans-30"/>
      </g>
     </g>
    </g>
    <g id="ytick_3">
     <g id="line2d_27">
      <path clip-path="url(#p6b4d739b58)" d="M 57.6 184.664057 
L 414.72 184.664057 
" style="fill:none;stroke:#b0b0b0;stroke-linecap:square;stroke-width:0.8;"/>
     </g>
     <g id="line2d_28">
      <g>
       <use style="stroke:#000000;stroke-width:0.8;" x="57.6" xlink:href="#m8fdc6ed136" y="184.664057"/>
      </g>
     </g>
     <g id="text_15">
      <!-- 4000 -->
      <g transform="translate(25.15 188.463275)scale(0.1 -0.1)">
       <use xlink:href="#DejaVuSans-34"/>
       <use x="63.623047" xlink:href="#DejaVuSans-30"/>
       <use x="127.246094" xlink:href="#DejaVuSans-30"/>
       <use x="190.869141" xlink:href="#DejaVuSans-30"/>
      </g>
     </g>
    </g>
    <g id="ytick_4">
     <g id="line2d_29">
      <path clip-path="url(#p6b4d739b58)" d="M 57.6 144.097176 
L 414.72 144.097176 
" style="fill:none;stroke:#b0b0b0;stroke-linecap:square;stroke-width:0.8;"/>
     </g>
     <g id="line2d_30">
      <g>
       <use style="stroke:#000000;stroke-width:0.8;" x="57.6" xlink:href="#m8fdc6ed136" y="144.097176"/>
      </g>
     </g>
     <g id="text_16">
      <!-- 6000 -->
      <g transform="translate(25.15 147.896395)scale(0.1 -0.1)">
       <use xlink:href="#DejaVuSans-36"/>
       <use x="63.623047" xlink:href="#DejaVuSans-30"/>
       <use x="127.246094" xlink:href="#DejaVuSans-30"/>
       <use x="190.869141" xlink:href="#DejaVuSans-30"/>
      </g>
     </g>
    </g>
    <g id="ytick_5">
     <g id="line2d_31">
      <path clip-path="url(#p6b4d739b58)" d="M 57.6 103.530295 
L 414.72 103.530295 
" style="fill:none;stroke:#b0b0b0;stroke-linecap:square;stroke-width:0.8;"/>
     </g>
     <g id="line2d_32">
      <g>
       <use style="stroke:#000000;stroke-width:0.8;" x="57.6" xlink:href="#m8fdc6ed136" y="103.530295"/>
      </g>
     </g>
     <g id="text_17">
      <!-- 8000 -->
      <g transform="translate(25.15 107.329514)scale(0.1 -0.1)">
       <use xlink:href="#DejaVuSans-38"/>
       <use x="63.623047" xlink:href="#DejaVuSans-30"/>
       <use x="127.246094" xlink:href="#DejaVuSans-30"/>
       <use x="190.869141" xlink:href="#DejaVuSans-30"/>
      </g>
     </g>
    </g>
    <g id="ytick_6">
     <g id="line2d_33">
      <path clip-path="url(#p6b4d739b58)" d="M 57.6 62.963414 
L 414.72 62.963414 
" style="fill:none;stroke:#b0b0b0;stroke-linecap:square;stroke-width:0.8;"/>
     </g>
     <g id="line2d_34">
      <g>
       <use style="stroke:#000000;stroke-width:0.8;" x="57.6" xlink:href="#m8fdc6ed136" y="62.963414"/>
      </g>
     </g>
     <g id="text_18">
      <!-- 10000 -->
      <g transform="translate(18.7875 66.762633)scale(0.1 -0.1)">
       <use xlink:href="#DejaVuSans-31"/>
       <use x="63.623047" xlink:href="#DejaVuSans-30"/>
       <use x="127.246094" xlink:href="#DejaVuSans-30"/>
       <use x="190.869141" xlink:href="#DejaVuSans-30"/>
       <use x="254.492188" xlink:href="#DejaVuSans-30"/>
      </g>
     </g>
    </g>
    <g id="text_19">
     <!-- EUR -->
     <defs>
      <path d="M 9.8125 72.90625 
L 55.90625 72.90625 
L 55.90625 64.59375 
L 19.671875 64.59375 
L 19.671875 43.015625 
L 54.390625 43.015625 
L 54.390625 34.71875 
L 19.671875 34.71875 
L 19.671875 8.296875 
L 56.78125 8.296875 
L 56.78125 0 
L 9.8125 0 
z
" id="DejaVuSans-45"/>
      <path d="M 8.6875 72.90625 
L 18.609375 72.90625 
L 18.609375 28.609375 
Q 18.609375 16.890625 22.84375 11.734375 
Q 27.09375 6.59375 36.625 6.59375 
Q 46.09375 6.59375 50.34375 11.734375 
Q 54.59375 16.890625 54.59375 28.609375 
L 54.59375 72.90625 
L 64.5 72.90625 
L 64.5 27.390625 
Q 64.5 13.140625 57.4375 5.859375 
Q 50.390625 -1.421875 36.625 -1.421875 
Q 22.796875 -1.421875 15.734375 5.859375 
Q 8.6875 13.140625 8.6875 27.390625 
z
" id="DejaVuSans-55"/>
      <path d="M 44.390625 34.1875 
Q 47.5625 33.109375 50.5625 29.59375 
Q 53.5625 26.078125 56.59375 19.921875 
L 66.609375 0 
L 56 0 
L 46.6875 18.703125 
Q 43.0625 26.03125 39.671875 28.421875 
Q 36.28125 30.8125 30.421875 30.8125 
L 19.671875 30.8125 
L 19.671875 0 
L 9.8125 0 
L 9.8125 72.90625 
L 32.078125 72.90625 
Q 44.578125 72.90625 50.734375 67.671875 
Q 56.890625 62.453125 56.890625 51.90625 
Q 56.890625 45.015625 53.6875 40.46875 
Q 50.484375 35.9375 44.390625 34.1875 
z
M 19.671875 64.796875 
L 19.671875 38.921875 
L 32.078125 38.921875 
Q 39.203125 38.921875 42.84375 42.21875 
Q 46.484375 45.515625 46.484375 51.90625 
Q 46.484375 58.296875 42.84375 61.546875 
Q 39.203125 64.796875 32.078125 64.796875 
z
" id="DejaVuSans-52"/>
     </defs>
     <g transform="translate(12.707813 169.268969)rotate(-90)scale(0.1 -0.1)">
      <use xlink:href="#DejaVuSans-45"/>
      <use x="63.183594" xlink:href="#DejaVuSans-55"/>
      <use x="136.376953" xlink:href="#DejaVuSans-52"/>
     </g>
    </g>
   </g>
   <g id="line2d_35">
    <path clip-path="url(#p6b4d739b58)" d="M 73.832727 265.797818 
L 109.907809 265.707053 
L 109.907809 265.687896 
L 116.092108 265.535441 
L 116.092108 265.412102 
L 116.092108 265.412102 
L 118.153542 265.34153 
L 118.153542 265.30418 
L 118.153542 265.132311 
L 123.307125 264.97732 
L 123.307125 264.783725 
L 126.399274 264.658584 
L 126.399274 264.640639 
L 126.399274 264.640639 
L 131.552857 264.525158 
L 131.552857 264.503804 
L 136.706441 264.393409 
L 136.706441 264.392996 
L 137.737157 264.280786 
L 137.737157 264.094418 
L 139.79859 263.985093 
L 139.79859 263.940447 
L 141.860024 263.826753 
L 141.860024 263.780646 
L 145.98289 263.668663 
L 145.98289 263.613274 
L 147.013607 263.499646 
L 147.013607 263.445548 
L 147.013607 263.445548 
L 152.16719 263.312569 
L 152.16719 263.199043 
L 156.290056 263.091811 
L 156.290056 263.063527 
L 163.505072 262.930773 
L 163.505072 262.911288 
L 167.627939 262.800531 
L 168.658655 262.694034 
L 168.658655 262.654944 
L 169.689372 262.543979 
L 169.689372 262.522986 
L 173.812239 262.402879 
L 173.812239 262.33234 
L 176.904388 262.208483 
L 176.904388 262.162268 
L 181.027255 262.087193 
L 181.027255 262.052771 
L 181.027255 261.825653 
L 184.119405 261.697979 
L 184.119405 261.49373 
L 189.272988 261.386555 
L 189.272988 261.366218 
L 195.457287 261.254176 
L 195.457287 261.190985 
L 199.580154 261.035342 
L 199.580154 260.952312 
L 199.580154 260.952312 
L 202.672304 260.828064 
L 202.672304 260.76145 
L 204.733737 260.645054 
L 204.733737 260.63337 
L 209.88732 260.50088 
L 209.88732 260.50088 
L 209.88732 260.347885 
L 211.948753 260.238988 
L 211.948753 260.19183 
L 217.102336 260.038391 
L 217.102336 259.917712 
L 221.225203 259.771661 
L 221.225203 259.75964 
L 231.532369 259.645431 
L 231.532369 259.503815 
L 232.563085 259.38738 
L 232.563085 259.385423 
L 235.655235 259.253879 
L 235.655235 259.215721 
L 238.747385 259.088153 
L 238.747385 259.035389 
L 240.808818 258.9336 
L 240.808818 258.829883 
L 241.839535 258.719504 
L 241.839535 258.68142 
L 241.839535 258.68142 
L 245.962401 258.559914 
L 245.962401 258.527892 
L 245.962401 258.527892 
L 246.993118 258.415692 
L 246.993118 258.310452 
L 250.085268 258.199896 
L 250.085268 258.188435 
L 257.300284 258.06355 
L 257.300284 258.039249 
L 260.392434 257.921697 
L 260.392434 257.847733 
L 260.392434 257.847733 
L 261.42315 257.774045 
L 261.42315 257.704835 
L 262.453867 257.592399 
L 262.453867 257.076683 
L 263.484584 256.959864 
L 263.484584 256.464228 
L 264.5153 256.464228 
L 264.5153 256.355602 
L 264.5153 256.253025 
L 267.60745 256.132934 
L 267.60745 255.380318 
L 268.638167 255.269306 
L 268.638167 255.227192 
L 269.668883 255.227192 
L 269.668883 255.178691 
L 269.668883 254.879692 
L 271.730317 254.766389 
L 271.730317 254.550462 
L 271.730317 254.550462 
L 274.822466 254.436136 
L 274.822466 254.203086 
L 275.853183 254.092755 
L 275.853183 253.956713 
L 276.8839 253.84607 
L 276.8839 253.598186 
L 277.914616 253.485948 
L 277.914616 253.042029 
L 278.945333 252.983419 
L 278.945333 252.769405 
L 282.037483 252.531977 
L 282.037483 252.463585 
L 283.068199 252.363762 
L 283.068199 252.147989 
L 286.160349 252.028753 
L 286.160349 251.956124 
L 289.252499 251.845461 
L 289.252499 251.841585 
L 291.313932 251.75551 
L 291.313932 251.659946 
L 292.344649 251.545005 
L 292.344649 251.330429 
L 293.375365 251.218801 
L 293.375365 251.188539 
L 296.467515 251.080473 
L 296.467515 251.080473 
L 296.467515 249.87269 
L 297.498232 249.765639 
L 297.498232 249.292254 
L 298.528948 249.181691 
L 298.528948 249.056365 
L 299.559665 249.056365 
L 299.559665 248.945696 
L 299.559665 248.79665 
L 300.590382 248.697819 
L 300.590382 248.63398 
L 303.682531 248.514872 
L 303.682531 248.514872 
L 303.682531 248.308505 
L 304.713248 248.199256 
L 304.713248 248.103481 
L 305.743965 247.99164 
L 305.743965 247.972458 
L 305.743965 247.972458 
L 306.774681 247.972458 
L 306.774681 247.880251 
L 306.774681 247.747545 
L 307.805398 247.63601 
L 307.805398 247.364697 
L 310.897548 247.240173 
L 310.897548 246.533238 
L 311.928264 246.533238 
L 311.928264 246.42588 
L 311.928264 246.346253 
L 312.958981 246.235134 
L 312.958981 246.19834 
L 315.020414 246.086695 
L 315.020414 245.950099 
L 318.112564 245.854591 
L 318.112564 245.743672 
L 320.173997 245.651226 
L 320.173997 245.633745 
L 320.173997 245.531166 
L 320.173997 245.531166 
L 323.266147 245.429869 
L 323.266147 245.346272 
L 325.32758 245.238711 
L 325.32758 245.079612 
L 325.32758 245.079612 
L 326.358297 244.971039 
L 326.358297 244.645932 
L 327.389014 244.520974 
L 327.389014 244.042402 
L 328.41973 243.93115 
L 328.41973 243.61678 
L 329.450447 243.506289 
L 329.450447 243.066767 
L 332.542597 242.951359 
L 332.542597 242.951359 
L 332.542597 242.641363 
L 333.573313 242.530274 
L 333.573313 242.404437 
L 334.60403 242.296154 
L 334.60403 242.283749 
L 336.665463 242.174485 
L 336.665463 241.906548 
L 339.757613 241.792481 
L 339.757613 241.265244 
L 340.788329 241.15404 
L 340.788329 241.004836 
L 341.819046 241.004836 
L 341.819046 240.894978 
L 341.819046 240.551079 
L 342.849763 240.439628 
L 342.849763 240.402505 
L 343.880479 240.293768 
L 343.880479 240.208666 
L 346.972629 240.106232 
L 346.972629 240.030597 
L 348.003346 239.9925 
L 348.003346 239.754328 
L 350.064779 239.643705 
L 350.064779 239.476636 
L 353.156929 239.366009 
L 353.156929 239.354274 
L 355.218362 239.266968 
L 355.218362 238.978004 
L 357.279795 238.86524 
L 357.279795 238.86524 
L 357.279795 238.554446 
L 358.310512 238.421928 
L 358.310512 237.92598 
L 361.402662 237.817341 
L 361.402662 237.268808 
L 362.433378 237.140942 
L 362.433378 237.005105 
L 364.494812 236.908955 
L 364.494812 236.898964 
L 364.494812 236.704262 
L 368.617678 236.591397 
L 368.617678 236.256 
L 369.648395 236.160342 
L 369.648395 236.160342 
L 369.648395 236.002218 
L 370.679111 235.886794 
L 370.679111 235.504118 
L 371.709828 235.39164 
L 371.709828 235.220255 
L 372.740544 235.110268 
L 372.740544 234.766619 
L 375.832694 234.676625 
L 375.832694 234.353096 
L 376.863411 234.241544 
L 376.863411 234.240561 
L 377.894127 234.149676 
L 377.894127 234.026265 
L 378.924844 234.026265 
L 378.924844 233.916335 
L 378.924844 233.885523 
L 379.955561 233.774848 
L 379.955561 233.763256 
L 384.078427 233.64937 
L 384.078427 233.528803 
L 384.078427 233.528803 
L 386.13986 233.437926 
L 386.13986 233.395269 
L 387.170577 233.28221 
L 387.170577 233.252023 
L 390.262727 233.143158 
L 390.262727 232.356463 
L 390.262727 232.356463 
L 391.293443 232.259421 
L 391.293443 231.852647 
L 392.32416 231.751683 
L 392.32416 231.537016 
L 392.32416 231.537016 
L 393.354877 231.426289 
L 393.354877 231.305433 
L 393.354877 231.305433 
L 394.385593 231.193926 
L 394.385593 231.193926 
L 394.385593 231.151975 
L 397.477743 231.035807 
L 397.477743 230.833998 
L 397.477743 230.833998 
" style="fill:none;stroke:#0000ff;stroke-linecap:square;stroke-width:1.5;"/>
   </g>
   <g id="line2d_36">
    <path clip-path="url(#p6b4d739b58)" d="M 73.832727 265.797818 
L 76.795262 265.716684 
L 76.961 255.574964 
L 77.204936 255.716948 
L 77.67266 258.678331 
L 77.835332 259.91562 
L 78.04293 260.422706 
L 78.22265 260.645824 
L 78.385333 261.315178 
L 78.503842 261.923681 
L 78.59292 262.491617 
L 78.739654 263.221821 
L 79.090432 264.053442 
L 79.505331 264.641662 
L 79.509399 264.824213 
L 79.717821 265.006764 
L 79.80882 265.128465 
L 79.921495 265.392149 
L 80.465758 265.493319 
L 80.466474 224.926439 
L 80.566838 226.589681 
L 80.621726 227.583569 
L 80.731609 245.189595 
L 80.842734 248.698156 
L 80.862561 248.941557 
L 81.06219 255.590527 
L 81.250057 255.789766 
L 81.360943 257.80965 
L 81.379124 257.804255 
L 81.439416 257.885389 
L 81.558557 260.704787 
L 81.815914 263.402484 
L 81.882564 263.199333 
L 81.906746 263.422451 
L 82.192257 264.172407 
L 82.590788 264.314391 
L 82.856413 265.186579 
L 82.991909 265.592248 
L 83.673232 265.693427 
L 83.778212 265.733994 
L 84.494154 265.768137 
L 84.623424 265.563956 
L 84.641819 265.64509 
L 84.667038 265.624532 
L 84.710104 265.746232 
L 87.9639 265.786798 
L 88.739705 265.581271 
L 88.744763 265.682688 
L 88.751754 265.743539 
L 89.777209 265.784105 
L 91.123094 265.599413 
L 91.132995 265.781964 
L 94.864023 265.761562 
L 94.864023 265.567772 
L 94.866516 265.770607 
L 95.092975 265.758252 
L 109.227679 265.783583 
L 109.227679 265.747435 
L 109.227679 265.719495 
L 109.241541 265.780345 
L 109.301833 265.769156 
L 109.40463 265.78944 
L 110.353629 265.785619 
L 110.794475 265.575224 
L 111.261042 265.555545 
L 111.261042 265.44908 
L 111.294576 265.550497 
L 113.741597 265.796789 
L 116.734982 265.684633 
L 116.763792 265.508594 
L 116.754797 265.716364 
L 116.837016 265.630295 
L 118.48961 265.487251 
L 118.530576 265.438648 
L 118.586276 265.494164 
L 118.599458 265.483616 
L 118.632479 265.453747 
L 118.874757 265.707614 
L 118.931339 265.599466 
L 118.968846 265.6806 
L 120.648937 265.76676 
L 120.694449 265.785145 
L 120.694449 265.778777 
L 123.6501 265.635194 
L 123.667601 265.59859 
L 123.721403 265.65944 
L 123.736065 265.658681 
L 124.259834 265.748681 
L 124.3076 265.768964 
L 125.908431 265.790388 
L 125.969857 257.151265 
L 126.056179 260.264464 
L 126.203653 264.252506 
L 126.349289 264.333639 
L 126.894412 264.320797 
L 126.906294 263.813293 
L 126.925656 264.300096 
L 127.028429 264.320379 
L 127.096857 265.09115 
L 127.786901 265.088247 
L 127.829907 264.88023 
L 127.843113 265.103348 
L 127.872853 265.102239 
L 128.087598 265.137919 
L 128.220804 265.601801 
L 128.220804 265.600408 
L 128.990334 265.613219 
L 129.126128 265.755203 
L 131.316974 265.646662 
L 131.376323 265.634405 
L 131.380487 265.695256 
L 138.103384 265.583559 
L 138.191126 265.517227 
L 138.20537 265.618645 
L 138.362733 265.724686 
L 138.362733 265.703915 
L 138.531262 265.719428 
L 138.531262 265.715557 
L 138.531262 265.510065 
L 138.582476 265.7129 
L 139.01323 265.753467 
L 145.923445 265.753572 
L 145.945097 265.55448 
L 145.97232 265.696464 
L 146.356262 265.659537 
L 146.392445 265.567591 
L 146.442 265.67513 
L 146.601093 265.715695 
L 146.601093 265.697376 
L 147.381658 265.585372 
L 147.418819 265.563182 
L 147.480316 265.725449 
L 163.910249 265.775603 
L 163.990917 265.795363 
L 164.333069 265.787016 
L 164.418843 265.584181 
L 164.418843 265.248801 
L 164.435127 265.796454 
L 168.020661 265.745538 
L 168.115525 265.637653 
L 168.15871 265.75429 
L 168.335244 265.636976 
L 168.371057 265.102193 
L 168.371212 264.36311 
L 168.418477 265.35232 
L 168.655912 265.338605 
L 168.723063 265.563041 
L 168.980432 265.452599 
L 169.065216 265.403843 
L 169.398612 265.439802 
L 169.398612 265.434824 
L 170.342112 265.300821 
L 170.342112 265.295178 
L 170.451041 265.780913 
L 170.476415 265.791743 
L 170.601938 265.407604 
L 170.616719 265.610438 
L 171.550197 265.57129 
L 171.616717 265.774124 
L 181.815717 265.650199 
L 181.815717 265.577076 
L 181.888285 265.676081 
L 181.917775 265.650896 
L 182.092245 265.749319 
L 184.453135 265.641841 
L 184.482541 265.54884 
L 184.547331 265.678324 
L 184.699314 265.741607 
L 184.699314 265.735874 
L 186.740765 265.796796 
L 199.915387 265.687542 
L 199.915387 265.641104 
L 200.002688 265.736489 
L 208.270992 265.768702 
L 208.274869 265.788985 
L 210.23966 265.675576 
L 210.267385 265.58955 
L 210.330218 265.658396 
L 211.361937 265.734204 
L 211.530024 265.78973 
L 211.530024 265.788129 
L 215.55891 265.794275 
L 217.43646 265.687161 
L 217.43646 265.603871 
L 217.544471 265.695046 
L 217.626284 265.735278 
L 217.626284 265.723066 
L 223.062073 265.762794 
L 223.081602 265.783078 
L 224.857548 265.779227 
L 224.91889 263.756359 
L 224.977107 264.560346 
L 226.34586 264.57916 
L 226.775695 264.577094 
L 226.989259 265.794101 
L 227.120305 264.567819 
L 227.851172 264.568018 
L 228.045552 264.81142 
L 228.061884 265.785025 
L 231.882407 265.674814 
L 231.943582 265.651952 
L 231.975827 265.712802 
L 231.988031 265.706201 
L 237.223988 265.776834 
L 239.131172 265.7093 
L 239.131172 265.701573 
L 239.15558 265.675984 
L 239.205278 265.724429 
L 239.236283 265.712769 
L 241.518939 265.636317 
L 241.562148 265.43091 
L 241.586699 265.658085 
L 242.189442 265.543061 
L 242.227771 265.468225 
L 242.29237 265.490195 
L 242.54851 265.696047 
L 242.54851 265.690671 
L 244.608691 265.766952 
L 244.685172 265.787235 
L 247.334233 265.682048 
L 247.334233 265.579837 
L 247.420328 265.636972 
L 248.631516 265.709773 
L 248.973871 265.745155 
L 248.973871 265.744848 
L 257.012339 265.661881 
L 257.012339 265.712754 
L 257.016217 265.151986 
L 257.018746 265.708583 
L 257.186619 265.699545 
L 257.193681 265.406243 
L 257.197236 265.710494 
L 258.173697 265.639047 
L 258.19925 264.536999 
L 258.199274 264.479975 
L 258.203485 265.649017 
L 258.216286 265.648223 
L 259.022809 265.711901 
L 259.02306 262.121817 
L 259.132765 265.780155 
L 259.148189 265.742085 
L 259.152782 263.975421 
L 259.156958 265.789531 
L 259.254434 265.218485 
L 259.309442 265.793926 
L 259.311601 264.91359 
L 259.311673 263.556394 
L 259.374243 265.797111 
L 259.420745 265.793725 
L 260.719674 265.693797 
L 260.719674 265.599857 
L 260.810232 265.7971 
L 260.840283 265.79668 
L 260.863688 215.088079 
L 260.962537 232.387071 
L 260.973309 232.407636 
L 260.973321 232.449015 
L 261.081857 244.35423 
L 261.092653 244.583223 
L 261.200831 262.325667 
L 261.211639 262.510044 
L 261.287726 264.578821 
L 261.308877 264.575186 
L 262.070235 264.660369 
L 262.070355 265.785128 
L 262.168141 265.781223 
L 262.778483 265.692172 
L 262.82205 215.086659 
L 262.788075 265.79526 
L 262.885921 221.450098 
L 262.896741 221.469792 
L 262.896753 221.55194 
L 263.005551 229.387019 
L 263.016347 229.510549 
L 263.125109 239.064244 
L 263.135929 239.523683 
L 263.20128 251.84762 
L 263.244739 249.597959 
L 263.255571 249.850374 
L 263.277331 251.536715 
L 263.282795 241.342056 
L 263.364262 250.946754 
L 263.37507 251.194688 
L 263.483784 260.81415 
L 263.548956 265.781804 
L 263.803963 265.671189 
L 263.803963 265.382344 
L 263.88574 265.793868 
L 264.097872 265.681986 
L 264.10435 261.724919 
L 264.179411 265.797528 
L 264.183121 265.777372 
L 264.396136 265.781769 
L 264.396136 265.771296 
L 264.396136 265.761983 
L 264.404033 265.783483 
L 264.482148 265.778145 
L 265.105171 265.68536 
L 265.105171 265.664732 
L 265.110682 265.793735 
L 265.190658 265.780766 
L 265.384669 265.794756 
L 267.942242 265.680953 
L 267.942242 265.391423 
L 268.046841 265.795124 
L 274.560302 265.715705 
L 274.560302 265.736148 
L 274.620809 265.796752 
L 274.620809 265.795503 
L 275.162973 265.684797 
L 275.162973 265.649207 
L 275.169236 265.771406 
L 275.272618 265.754218 
L 275.506282 265.724317 
L 275.506282 265.518062 
L 275.60426 265.764615 
L 275.610678 265.696841 
L 275.632068 265.514255 
L 275.702071 265.777411 
L 276.169818 265.689086 
L 276.169818 265.575717 
L 276.256391 265.79258 
L 276.2753 265.759876 
L 277.198566 265.660313 
L 277.198566 265.568325 
L 277.278017 265.793822 
L 277.300624 265.741353 
L 277.435214 265.790199 
L 278.239065 265.675821 
L 278.239065 265.381983 
L 278.245555 265.790539 
L 278.343401 265.789378 
L 278.355892 265.645423 
L 278.4412 265.790683 
L 278.913016 265.760512 
L 279.258675 265.308654 
L 279.258675 265.302246 
L 279.278574 265.750835 
L 279.354577 265.725435 
L 279.472466 265.765644 
L 279.472466 264.51656 
L 279.485218 265.776124 
L 279.55874 265.754157 
L 279.68653 265.71688 
L 279.68653 265.706943 
L 282.443089 265.785589 
L 282.443089 265.774844 
L 282.443089 265.653437 
L 282.530246 265.74754 
L 282.786041 265.768856 
L 282.786041 265.766627 
L 282.786041 265.762654 
L 284.867289 265.675749 
L 284.867289 265.449386 
L 284.888333 265.78427 
L 284.891375 265.783202 
L 290.58575 265.792072 
L 290.58575 265.709279 
L 290.58575 265.661554 
L 290.629424 265.78369 
L 290.695228 265.78213 
L 291.809332 265.783169 
L 291.809332 265.477913 
L 291.89173 265.788532 
L 292.664231 265.664537 
L 292.664231 265.506003 
L 292.744612 265.785742 
L 292.76531 265.782468 
L 296.795114 265.658554 
L 296.795114 264.947763 
L 296.867395 265.789572 
L 296.889095 265.788974 
L 297.266786 265.678187 
L 297.266786 265.631401 
L 297.295536 265.797085 
L 297.371599 265.794548 
L 297.810668 265.690344 
L 297.810668 265.531377 
L 297.915183 265.797758 
L 298.969795 265.70849 
L 299.012288 265.792613 
L 299.050319 265.783931 
L 299.091333 265.767305 
L 299.112031 265.569037 
L 299.13725 265.797329 
L 299.177596 265.780296 
L 299.408851 265.786874 
L 300.331855 265.676434 
L 300.331855 265.543793 
L 300.33961 265.787384 
L 300.438244 265.773639 
L 300.448598 265.795388 
L 301.531865 265.733588 
L 301.531877 265.210518 
L 301.537842 265.783054 
L 304.032772 265.782788 
L 304.032772 265.704081 
L 304.032772 265.703074 
L 304.039167 265.795356 
L 304.125155 265.778257 
L 307.128394 265.717854 
L 307.128406 265.776942 
L 307.192837 265.797307 
L 307.193732 265.779016 
L 308.136826 265.668374 
L 308.136826 265.452329 
L 308.147992 265.797664 
L 308.224115 265.781119 
L 308.388612 265.75312 
L 308.388612 265.648066 
L 308.496109 265.791279 
L 308.671605 265.788774 
L 309.311509 265.797027 
L 309.315195 265.606213 
L 309.359501 265.783429 
L 311.223977 265.78237 
L 311.223977 265.698874 
L 311.223989 265.216834 
L 311.237243 265.795482 
L 311.335065 265.795437 
L 311.346518 265.780238 
L 311.346518 265.668554 
L 311.356801 265.791646 
L 311.432888 265.783437 
L 315.355612 265.652424 
L 315.355612 265.627241 
L 315.409367 265.796916 
L 315.442221 265.790346 
L 319.621669 265.779627 
L 319.683655 265.60309 
L 319.730026 265.79058 
L 320.77915 265.678051 
L 320.77915 265.643309 
L 320.785079 265.7872 
L 320.864935 265.780281 
L 325.648689 265.662675 
L 325.648689 265.637621 
L 325.734415 265.797096 
L 326.33884 265.788227 
L 326.69804 265.678639 
L 326.69804 265.461195 
L 326.714336 265.792518 
L 326.792427 265.790269 
L 327.710492 265.676722 
L 327.710492 265.288429 
L 327.716218 265.781944 
L 327.80569 265.752321 
L 327.974005 265.729524 
L 327.998604 265.747271 
L 328.017667 265.624426 
L 328.021294 265.709857 
L 328.082254 265.478349 
L 328.174315 265.571268 
L 328.2533 265.561221 
L 328.400345 265.690442 
L 328.73528 265.594081 
L 328.73528 265.430389 
L 328.837481 265.70811 
L 328.83933 265.658034 
L 328.946219 265.704156 
L 329.070943 265.750704 
L 329.766641 265.637391 
L 329.820932 265.387488 
L 329.824881 265.712023 
L 329.866718 265.618616 
L 330.035939 265.551715 
L 330.100955 265.378608 
L 330.126711 265.398892 
L 330.273744 265.475589 
L 330.401271 265.593152 
L 330.401271 265.589635 
L 331.388993 265.750065 
L 331.388993 265.748064 
L 332.862322 265.637809 
L 332.965536 265.576409 
L 333.11579 265.65366 
L 333.11579 265.526513 
L 333.137155 265.668497 
L 333.205834 265.618474 
L 333.325011 265.485526 
L 333.357483 265.526335 
L 333.537691 265.557414 
L 333.975126 265.446501 
L 334.02288 265.409761 
L 334.048815 265.531462 
L 334.069799 265.492672 
L 334.49596 265.688491 
L 334.49596 265.688491 
L 335.096626 265.56054 
L 335.096626 265.536221 
L 335.165973 265.593924 
L 335.192779 265.588582 
L 335.397753 265.631697 
L 336.254918 265.704649 
L 336.43107 265.746159 
L 336.997881 265.635422 
L 337.096527 265.515164 
L 337.327818 265.709341 
L 337.327818 265.698028 
L 340.099849 265.633672 
L 340.119831 265.390687 
L 340.201584 265.694939 
L 340.311516 265.584851 
L 340.41485 265.535503 
L 340.631897 265.449185 
L 340.718172 265.244149 
L 341.107219 265.133029 
L 341.197932 265.026798 
L 341.223867 265.351333 
L 341.2846 265.337228 
L 342.155043 265.229065 
L 342.238526 264.898107 
L 342.24337 264.999524 
L 342.488225 265.062017 
L 342.817684 265.403336 
L 343.195876 265.370651 
L 343.43232 265.75532 
L 343.43232 265.755225 
L 343.43232 265.609522 
L 343.539985 265.737619 
L 344.30225 265.622858 
L 344.30225 265.599905 
L 344.316208 265.741889 
L 344.377001 265.737296 
L 351.015329 265.682067 
L 351.015329 265.479515 
L 351.047181 265.712683 
L 355.734293 265.642472 
L 355.734293 263.845013 
L 355.844105 265.504882 
L 356.748559 265.512299 
L 356.880774 265.794233 
L 356.916837 265.708482 
L 357.003542 265.787901 
L 357.590764 265.677844 
L 357.590776 265.486421 
L 357.680105 265.791077 
L 357.696412 265.780165 
L 358.645507 265.651184 
L 358.645519 265.47642 
L 358.730159 265.789605 
L 361.742774 265.598816 
L 361.742774 265.455822 
L 361.743347 265.783314 
L 361.852121 265.782679 
L 361.897907 265.759656 
L 361.897907 265.63816 
L 361.949956 265.785275 
L 363.054922 265.679941 
L 363.13955 265.60328 
L 363.143726 265.623564 
L 363.226159 265.735714 
L 363.226159 265.729357 
L 363.953876 265.734474 
L 363.973453 264.751679 
L 364.040843 265.720281 
L 364.082286 265.645925 
L 364.082286 265.571696 
L 364.127905 265.758305 
L 369.357659 265.635313 
L 369.357659 265.600299 
L 369.404804 265.754667 
L 369.448395 265.747076 
L 369.987183 265.756343 
L 369.987183 265.753086 
L 370.07749 265.602724 
L 369.992945 265.755211 
L 370.079888 265.727349 
L 371.002499 265.616384 
L 371.002499 265.411961 
L 371.004479 265.775685 
L 371.102301 265.765543 
L 372.038393 265.652462 
L 372.038393 265.57276 
L 372.08394 265.771449 
L 372.138363 265.760536 
L 373.073965 265.695255 
L 373.073965 265.398752 
L 373.074752 265.794589 
L 373.182369 265.781428 
L 373.408244 265.783445 
L 376.644563 265.673451 
L 376.644563 265.471001 
L 376.6477 265.783359 
L 376.709185 265.782405 
L 376.795317 265.706256 
L 376.795317 265.604524 
L 376.810897 265.797794 
L 376.838192 265.793054 
L 378.277449 265.766205 
L 378.277449 265.726137 
L 378.277449 265.666035 
L 378.293435 265.788084 
L 378.386998 265.764841 
L 378.47449 265.793349 
L 378.427798 265.590542 
L 378.47449 265.790313 
L 380.366833 265.683168 
L 380.436991 265.377708 
L 380.442109 265.79127 
L 384.913761 265.737488 
L 384.913761 262.719504 
L 384.924784 265.77708 
L 384.956994 265.776012 
L 387.664629 265.691224 
L 387.664629 265.630859 
L 387.677775 265.793127 
L 387.750749 265.790905 
L 388.00807 265.692542 
L 388.00807 265.485421 
L 388.009692 265.791593 
L 390.620161 265.681351 
L 390.636922 265.24616 
L 390.761789 265.347577 
L 390.774101 265.570695 
L 390.970581 265.461894 
L 391.027604 264.483404 
L 391.07475 265.232782 
L 391.109143 265.199532 
L 391.186304 265.655376 
L 391.623392 265.543844 
L 391.657511 265.50964 
L 391.715727 265.651636 
L 391.721 265.618422 
L 391.921167 265.748716 
L 391.751611 265.546899 
L 391.921167 265.653587 
L 391.921167 265.610797 
L 391.94295 265.753959 
L 392.024811 265.743194 
L 392.056436 265.681498 
L 392.133024 265.749152 
L 392.650804 265.637771 
L 392.690208 265.558493 
L 392.751943 265.754801 
L 393.721139 265.641388 
L 393.741371 265.621104 
L 393.753373 265.722522 
L 393.765863 265.667235 
L 394.112024 265.564967 
L 394.112024 265.465149 
L 394.131314 265.728834 
L 394.194541 265.674374 
L 394.348063 265.727752 
L 395.738504 265.616739 
L 396.052336 265.688564 
L 398.183378 265.654579 
L 398.255326 265.055207 
L 398.332844 265.182165 
L 398.394079 265.729818 
L 398.487273 265.713068 
" style="fill:none;stroke:#ff0000;stroke-linecap:square;stroke-width:1.5;"/>
   </g>
   <g id="line2d_37">
    <path clip-path="url(#p6b4d739b58)" d="M 73.832727 265.797818 
L 76.924877 265.676118 
L 76.924877 261.173194 
L 77.955594 260.970359 
L 77.955594 257.684442 
L 78.98631 257.542458 
L 78.98631 256.08205 
L 80.017027 255.879216 
L 80.017027 245.473811 
L 80.017027 245.818629 
L 80.708681 245.615795 
L 80.732134 229.389043 
L 80.959989 229.186208 
L 81.047744 218.196582 
L 81.047744 218.502884 
L 81.250057 218.303644 
L 81.33731 217.095098 
L 82.07846 216.790847 
L 82.07846 215.533273 
L 83.109177 215.188455 
L 83.109177 215.147888 
L 83.109177 215.148153 
L 84.139893 215.046736 
L 84.139893 214.864185 
L 84.139893 215.170212 
L 88.26276 214.987661 
L 88.26276 214.967378 
L 88.26276 215.170212 
L 90.324193 215.109362 
L 90.324193 214.926811 
L 90.324193 215.129645 
L 94.447059 214.926811 
L 94.447059 214.947094 
L 94.447059 215.149929 
L 109.907809 215.034506 
L 109.907809 215.038017 
L 109.907809 215.242456 
L 110.938525 215.141039 
L 110.938525 214.897638 
L 110.938525 215.001352 
L 111.969242 214.879651 
L 111.969242 214.859368 
L 111.969242 214.992677 
L 112.999958 214.870976 
L 112.999958 214.850693 
L 112.999958 214.897556 
L 116.092108 214.759076 
L 116.092108 214.637375 
L 116.092108 214.922991 
L 117.122825 214.80129 
L 117.122825 214.760724 
L 117.122825 214.810402 
L 118.153542 214.688702 
L 118.153542 214.343883 
L 118.153542 214.581495 
L 119.184258 214.459794 
L 119.184258 214.398944 
L 119.184258 214.445625 
L 120.214975 214.323924 
L 120.214975 214.24279 
L 120.214975 214.409033 
L 123.307125 214.249987 
L 123.307125 214.026869 
L 123.307125 214.144544 
L 125.368558 214.010322 
L 125.368558 211.04894 
L 125.368558 211.060611 
L 126.045121 210.857777 
L 126.060868 206.861939 
L 126.399274 206.780806 
L 126.399274 205.523232 
L 126.399274 206.053595 
L 127.429991 205.952178 
L 127.429991 205.424808 
L 127.429991 205.636477 
L 129.491424 205.374753 
L 130.522141 205.253053 
L 130.522141 205.192202 
L 130.522141 205.383739 
L 132.583574 205.22967 
L 132.583574 205.328564 
L 132.583574 205.348848 
L 133.614291 205.227147 
L 133.614291 205.206863 
L 133.614291 205.255526 
L 133.614291 205.255526 
L 134.645007 205.133825 
L 134.645007 205.113542 
L 134.645007 205.152249 
L 137.737157 204.990176 
L 137.737157 204.645358 
L 137.737157 204.892463 
L 139.79859 204.744482 
L 139.79859 204.683632 
L 139.79859 204.689928 
L 141.860024 204.556651 
L 141.860024 204.516084 
L 141.860024 204.544298 
L 144.952173 204.403221 
L 144.952173 204.261237 
L 144.952173 204.511161 
L 145.98289 204.389461 
L 145.98289 204.288044 
L 145.98289 204.396707 
L 147.013607 204.275006 
L 147.013607 204.173589 
L 147.013607 204.255569 
L 149.07504 204.114101 
L 149.07504 204.053251 
L 149.07504 204.103555 
L 153.197906 203.923336 
L 153.197906 203.903053 
L 153.197906 203.908594 
L 163.505072 203.665705 
L 163.505072 203.118052 
L 163.505072 203.646063 
L 167.627939 203.588089 
L 167.627939 203.567806 
L 167.627939 203.283838 
L 167.627939 203.424722 
L 168.335244 203.542272 
L 168.371057 204.117128 
L 168.371212 204.836421 
L 168.371522 204.025083 
L 168.658655 203.756224 
L 168.658655 203.787583 
L 169.689372 203.665882 
L 169.689372 203.057379 
L 169.689372 203.492132 
L 170.720089 203.451565 
L 170.720089 203.248731 
L 170.720089 203.268004 
L 173.812239 203.230923 
L 173.812239 203.170073 
L 173.812239 203.109222 
L 173.812239 203.143332 
L 175.873672 203.002273 
L 175.873672 202.98199 
L 175.873672 203.008134 
L 179.996538 202.876581 
L 179.996538 202.880401 
L 181.027255 202.677566 
L 181.027255 202.495015 
L 181.027255 202.655919 
L 184.119405 202.502029 
L 184.119405 202.278912 
L 184.119405 202.360512 
L 191.334421 202.116513 
L 191.334421 202.075946 
L 191.334421 202.121817 
L 198.549437 201.885249 
L 198.549437 201.864965 
L 198.549437 201.925219 
L 199.580154 201.803518 
L 199.580154 201.783235 
L 199.580154 201.812177 
L 202.672304 201.653015 
L 202.672304 201.612448 
L 202.672304 201.650615 
L 204.733737 201.500966 
L 204.733737 201.480682 
L 204.733737 201.509874 
L 209.88732 201.304335 
L 209.88732 201.121784 
L 209.88732 201.229774 
L 210.918037 201.108073 
L 210.918037 201.08779 
L 210.918037 201.131942 
L 212.97947 201.013712 
L 212.97947 200.932578 
L 212.97947 200.993182 
L 217.102336 200.816412 
L 217.102336 200.755562 
L 217.102336 200.815183 
L 220.194486 200.679057 
L 220.194486 200.618207 
L 220.194486 200.668563 
L 224.317352 200.5719 
L 224.317352 199.740279 
L 224.317352 199.877687 
L 226.378786 199.828033 
L 226.378786 199.828419 
L 226.378786 201.045425 
L 227.409502 201.025142 
L 227.409502 199.808135 
L 227.409502 199.827737 
L 231.532369 199.645979 
L 231.532369 199.625695 
L 231.532369 199.684773 
L 234.624519 199.518258 
L 234.624519 199.396557 
L 234.624519 199.425986 
L 238.747385 199.263687 
L 238.747385 199.22312 
L 238.747385 199.289013 
L 240.808818 199.148074 
L 240.808818 199.107507 
L 240.808818 199.340719 
L 241.839535 199.097318 
L 241.839535 198.81335 
L 241.839535 199.037932 
L 242.870251 199.004906 
L 242.870251 198.964339 
L 242.870251 198.842639 
L 242.870251 198.988099 
L 243.900968 198.846234 
L 243.900968 198.82595 
L 243.900968 198.82952 
L 246.993118 198.667691 
L 246.993118 198.586557 
L 246.993118 198.63411 
L 249.054551 198.500022 
L 249.054551 198.439171 
L 249.054551 198.452348 
L 256.269567 198.260827 
L 256.269567 197.956576 
L 256.365923 198.103972 
L 257.011671 198.161404 
L 257.012339 198.0959 
L 257.015501 198.644401 
L 257.018746 198.159206 
L 257.300284 198.453839 
L 257.300284 198.453839 
L 257.98039 198.498133 
L 258.197699 198.692013 
L 258.199274 199.657205 
L 258.203485 198.557052 
L 259.022809 198.494586 
L 259.02306 202.08467 
L 259.132765 198.937775 
L 259.148201 199.071554 
L 259.152782 200.774286 
L 259.149215 198.968504 
L 259.254434 199.601191 
L 259.309442 199.053538 
L 259.311601 199.933874 
L 259.311673 201.29107 
L 259.374243 199.138962 
L 259.420745 199.14944 
L 260.392434 198.703205 
L 260.392434 197.14138 
L 260.392434 197.169539 
L 260.723468 197.050166 
L 260.810232 196.969679 
L 260.864714 196.868856 
L 260.973381 180.048581 
L 261.005889 177.40012 
L 261.114401 165.682168 
L 261.136124 164.51421 
L 261.233375 150.297302 
L 261.42315 150.318333 
L 261.831083 150.223214 
L 262.070247 150.034758 
L 262.168141 149.022262 
L 262.244264 148.999498 
L 262.453867 147.782492 
L 262.537959 147.851375 
L 262.788027 147.729911 
L 262.896789 140.730404 
L 262.907621 140.507521 
L 263.016395 132.551854 
L 263.027227 132.309893 
L 263.135989 121.225418 
L 263.146881 119.651749 
L 263.255607 104.631349 
L 263.266439 104.388643 
L 263.375118 92.019302 
L 263.396818 91.271278 
L 263.505508 81.241625 
L 263.516364 80.998918 
L 263.548956 79.845599 
L 263.809689 79.786672 
L 263.88574 79.387242 
L 264.103372 79.227564 
L 264.218778 75.477098 
L 264.5153 75.436588 
L 264.5153 75.535336 
L 264.5153 75.662414 
L 265.110646 75.481451 
L 265.132418 75.380091 
L 265.26282 75.271191 
L 265.306268 75.230624 
L 266.576733 75.160952 
L 267.948947 74.998157 
L 268.046841 74.816705 
L 268.242689 74.492008 
L 270.069885 74.111478 
L 270.156875 73.969787 
L 271.730317 73.867386 
L 271.730317 74.007912 
L 271.730317 74.036548 
L 272.287977 73.93246 
L 272.483611 73.648297 
L 274.822466 73.603278 
L 274.822466 73.745212 
L 274.822466 74.269415 
L 275.484666 74.032429 
L 275.636888 73.355374 
L 277.914616 72.720917 
L 277.914616 72.759471 
L 277.914616 72.919136 
L 277.984631 72.914096 
L 278.245555 72.71184 
L 278.343401 72.425722 
L 278.4412 72.226674 
L 278.945333 72.190319 
L 278.945333 72.230865 
L 278.945333 73.801931 
L 279.267623 73.600283 
L 279.354577 73.338083 
L 279.398108 73.297881 
L 279.474231 72.895224 
L 279.485218 72.050788 
L 280.387596 71.931928 
L 282.572596 71.742553 
L 282.724734 71.661987 
L 283.529111 71.490957 
L 284.098916 71.351364 
L 284.098916 71.70688 
L 284.116488 71.693112 
L 284.877405 71.583233 
L 284.888333 71.283305 
L 286.486695 71.199735 
L 286.573686 71.159284 
L 290.283216 71.043688 
L 290.283216 71.21167 
L 290.283216 71.330984 
L 290.283216 71.330984 
L 291.064282 71.11594 
L 291.151308 71.044692 
L 291.313932 70.993932 
L 291.313932 70.998122 
L 291.313932 71.34509 
L 291.815595 71.243058 
L 291.89173 70.983094 
L 292.344649 70.878515 
L 292.344649 70.925344 
L 292.853482 70.623973 
L 296.467515 70.425095 
L 296.467515 70.458287 
L 296.467515 70.787608 
L 296.802009 70.706828 
L 296.910867 69.722838 
L 296.99806 69.629036 
L 297.1431 69.386009 
L 297.273729 69.267336 
L 297.295536 69.208649 
L 297.817277 69.169058 
L 297.915183 68.948032 
L 298.197795 68.726215 
L 298.415224 68.626813 
L 298.528948 68.626813 
L 298.528948 68.627439 
L 298.528948 69.140132 
L 299.115503 68.695947 
L 299.224169 68.476006 
L 299.559665 68.418184 
L 299.559665 68.461741 
L 299.559665 68.708595 
L 299.559665 68.708595 
L 300.013049 68.556784 
L 300.067436 68.496446 
L 300.33955 68.345671 
L 300.448598 68.164842 
L 300.590382 68.233189 
L 300.590382 68.741457 
L 301.429056 68.591306 
L 301.537794 68.474079 
L 301.537842 68.032283 
L 301.621098 68.032556 
L 304.234907 67.910124 
L 304.713248 67.722595 
L 304.713248 67.74492 
L 304.713248 67.762442 
L 305.039785 67.644711 
L 305.311875 67.546403 
L 305.743965 67.491221 
L 305.743965 67.605452 
L 305.743965 67.692917 
L 306.312445 67.603578 
L 306.312457 67.474092 
L 307.128406 67.369869 
L 307.346061 67.310278 
L 307.805398 67.18898 
L 307.805398 67.208256 
L 307.805398 67.389917 
L 308.137029 67.260205 
L 308.224115 67.033491 
L 308.836115 66.818066 
L 308.836115 66.823334 
L 308.836115 67.027165 
L 309.311509 67.022066 
L 309.431163 66.83921 
L 310.897548 66.905153 
L 311.356801 66.208951 
L 311.432888 66.128557 
L 313.67453 65.778649 
L 313.718061 65.738447 
L 315.594383 65.638909 
L 316.508141 65.510907 
L 318.597275 65.399439 
L 319.033719 65.318369 
L 319.143281 65.327298 
L 319.143281 65.519832 
L 319.164146 65.516485 
L 319.686483 65.392341 
L 319.730026 65.266883 
L 320.173997 65.231357 
L 320.173997 65.302851 
L 320.173997 65.371576 
L 320.230257 65.371152 
L 320.785031 65.268174 
L 320.828478 65.173777 
L 321.204714 65.131836 
L 321.204714 65.148601 
L 322.23543 65.073906 
L 322.23543 64.952206 
L 322.23543 65.082057 
L 325.32758 64.894116 
L 325.32758 64.933399 
L 325.32758 65.119881 
L 326.256919 64.722901 
L 326.358297 64.60145 
L 326.358297 64.75832 
L 326.70348 64.555486 
L 326.779567 64.393891 
L 327.389014 64.226695 
L 327.389014 64.023861 
L 327.389014 64.479225 
L 327.716183 64.357706 
L 327.716218 63.992604 
L 328.021294 63.887288 
L 328.739527 63.554178 
L 328.837481 63.45659 
L 329.054826 63.341546 
L 329.450447 62.875027 
L 329.450447 62.611342 
L 329.450447 62.902764 
L 330.481163 62.882481 
L 330.481163 62.740497 
L 330.481163 62.74262 
L 332.542597 62.562612 
L 332.542597 62.278643 
L 332.542597 62.529865 
L 333.573313 62.448731 
L 333.573313 62.124196 
L 333.573313 62.170329 
L 334.60403 62.068912 
L 334.60403 61.926928 
L 334.60403 62.104205 
L 335.634746 62.023071 
L 335.634746 61.881087 
L 335.634746 61.893639 
L 336.665463 61.812506 
L 336.665463 61.629955 
L 336.665463 61.706242 
L 338.726896 61.562736 
L 338.726896 61.542453 
L 338.726896 61.543188 
L 339.757613 61.218653 
L 339.757613 61.198369 
L 339.757613 61.466869 
L 340.788329 61.101767 
L 340.788329 61.128396 
L 341.819046 60.925562 
L 341.819046 60.49961 
L 341.819046 60.593517 
L 342.849763 60.370399 
L 342.849763 59.924163 
L 342.849763 60.094443 
L 344.911196 59.854474 
L 344.911196 59.854741 
L 346.972629 59.733801 
L 346.972629 59.632384 
L 346.972629 59.716667 
L 350.064779 59.250809 
L 350.064779 59.169676 
L 350.064779 59.442895 
L 351.036265 59.336667 
L 351.095496 59.154449 
L 351.095496 59.316328 
L 351.416926 59.275982 
L 351.50406 59.17692 
L 352.126212 59.077725 
L 352.126212 59.08385 
L 355.218362 58.995283 
L 355.218362 57.555159 
L 355.218362 59.463988 
L 355.563473 59.343071 
L 355.672235 59.302869 
L 355.737669 59.183962 
L 355.770404 58.995918 
L 356.249079 58.893264 
L 356.249079 59.001054 
L 356.771976 58.914557 
L 356.880774 58.654627 
L 357.598614 58.549037 
L 357.696412 58.42793 
L 358.653965 58.168008 
L 358.730159 58.08748 
L 359.067313 57.884148 
L 359.341228 57.785556 
L 359.341228 57.786669 
L 361.402662 57.728297 
L 361.402662 57.759939 
L 361.402662 57.950018 
L 361.743311 57.847711 
L 361.852121 57.452685 
L 362.113152 57.171123 
L 362.433378 57.110273 
L 362.433378 56.907438 
L 362.433378 57.158263 
L 363.408575 56.977678 
L 363.464095 56.896544 
L 363.464095 57.015452 
L 363.464095 58.029599 
L 363.953876 57.965797 
L 364.127905 57.01274 
L 364.494812 56.918224 
L 364.494812 56.89794 
L 364.494812 56.956885 
L 365.929285 56.817047 
L 368.617678 56.636697 
L 368.617678 56.373013 
L 368.617678 56.665087 
L 369.121465 56.550429 
L 369.480987 56.415202 
L 369.648395 56.314279 
L 369.648395 56.380874 
L 369.992945 56.32792 
L 370.286425 56.147166 
L 370.679111 56.070559 
L 370.679111 56.213522 
L 370.679111 56.229807 
L 371.004455 56.209773 
L 371.102301 55.757336 
L 371.709828 55.616618 
L 371.709828 55.710376 
L 372.040349 55.590185 
L 372.138363 55.497485 
L 373.074752 55.174002 
L 373.074752 55.013296 
L 373.314095 54.971794 
L 373.771261 54.96761 
L 373.771261 55.067999 
L 373.771261 55.084922 
L 374.763135 54.979638 
L 374.801978 54.959355 
L 374.801978 54.966393 
L 375.832694 54.863879 
L 375.832694 54.995256 
L 375.832694 55.251535 
L 376.63688 55.078432 
L 376.6477 54.78475 
L 376.963059 54.637363 
L 377.894127 54.433755 
L 377.894127 54.438541 
L 377.894127 54.765823 
L 377.996698 54.762896 
L 378.225973 54.73538 
L 378.433059 54.407743 
L 378.695414 54.316285 
L 379.549955 54.206355 
L 379.955561 54.186322 
L 379.955561 54.21987 
L 379.955561 54.832604 
L 380.376842 54.671712 
L 380.442109 54.188289 
L 381.808966 54.079786 
L 383.047711 54.059596 
L 383.047711 53.937896 
L 383.047711 54.135308 
L 383.672069 54.02664 
L 384.078427 54.001849 
L 384.078427 54.029428 
L 384.078427 56.983869 
L 384.913892 56.914833 
L 384.924784 54.110314 
L 386.555964 54.030357 
L 387.170577 53.939909 
L 387.170577 53.818209 
L 387.170577 54.139035 
L 387.852496 54.1351 
L 388.201294 53.833376 
L 388.201294 53.833574 
L 390.262727 53.793014 
L 390.262727 52.738275 
L 390.262727 53.572886 
L 391.293443 53.390335 
L 391.293443 52.862965 
L 391.293443 52.980729 
L 392.32416 52.696761 
L 392.32416 52.595344 
L 392.32416 52.661268 
L 393.354877 52.539567 
L 393.354877 52.154182 
L 393.354877 52.457566 
L 394.385593 52.356149 
L 394.385593 52.193881 
L 394.385593 52.393017 
L 396.447026 52.210189 
L 396.447026 52.2169 
L 397.477743 52.259757 
L 397.477743 52.85272 
L 397.477743 52.85272 
" style="fill:none;stroke:#008000;stroke-linecap:square;stroke-width:1.5;"/>
   </g>
   <g id="line2d_38">
    <defs>
     <path d="M 0 3 
C 0.795609 3 1.55874 2.683901 2.12132 2.12132 
C 2.683901 1.55874 3 0.795609 3 0 
C 3 -0.795609 2.683901 -1.55874 2.12132 -2.12132 
C 1.55874 -2.683901 0.795609 -3 0 -3 
C -0.795609 -3 -1.55874 -2.683901 -2.12132 -2.12132 
C -2.683901 -1.55874 -3 -0.795609 -3 0 
C -3 0.795609 -2.683901 1.55874 -2.12132 2.12132 
C -1.55874 2.683901 -0.795609 3 0 3 
z
" id="ma31fedd757" style="stroke:#bfbf00;"/>
    </defs>
    <g clip-path="url(#p6b4d739b58)">
     <use style="fill:#bfbf00;stroke:#bfbf00;" x="76.961" xlink:href="#ma31fedd757" y="255.656098"/>
     <use style="fill:#bfbf00;stroke:#bfbf00;" x="80.466474" xlink:href="#ma31fedd757" y="225.230937"/>
     <use style="fill:#bfbf00;stroke:#bfbf00;" x="260.863688" xlink:href="#ma31fedd757" y="215.089217"/>
     <use style="fill:#bfbf00;stroke:#bfbf00;" x="262.82205" xlink:href="#ma31fedd757" y="215.089217"/>
     <use style="fill:#bfbf00;stroke:#bfbf00;" x="263.210454" xlink:href="#ma31fedd757" y="255.656098"/>
     <use style="fill:#bfbf00;stroke:#bfbf00;" x="263.282795" xlink:href="#ma31fedd757" y="255.656098"/>
     <use style="fill:#bfbf00;stroke:#bfbf00;" x="264.10435" xlink:href="#ma31fedd757" y="261.74113"/>
    </g>
   </g>
   <g id="line2d_39">
    <defs>
     <path d="M 0 3 
C 0.795609 3 1.55874 2.683901 2.12132 2.12132 
C 2.683901 1.55874 3 0.795609 3 0 
C 3 -0.795609 2.683901 -1.55874 2.12132 -2.12132 
C 1.55874 -2.683901 0.795609 -3 0 -3 
C -0.795609 -3 -1.55874 -2.683901 -2.12132 -2.12132 
C -2.683901 -1.55874 -3 -0.795609 -3 0 
C -3 0.795609 -2.683901 1.55874 -2.12132 2.12132 
C -1.55874 2.683901 -0.795609 3 0 3 
z
" id="mb36ad9c062" style="stroke:#008000;"/>
    </defs>
    <g clip-path="url(#p6b4d739b58)">
     <use style="fill:#008000;stroke:#008000;" x="125.969857" xlink:href="#mb36ad9c062" y="257.158695"/>
     <use style="fill:#008000;stroke:#008000;" x="224.91889" xlink:href="#mb36ad9c062" y="263.774951"/>
    </g>
   </g>
   <g id="patch_3">
    <path d="M 57.6 276.48 
L 57.6 41.472 
" style="fill:none;stroke:#000000;stroke-linecap:square;stroke-linejoin:miter;stroke-width:0.8;"/>
   </g>
   <g id="patch_4">
    <path d="M 414.72 276.48 
L 414.72 41.472 
" style="fill:none;stroke:#000000;stroke-linecap:square;stroke-linejoin:miter;stroke-width:0.8;"/>
   </g>
   <g id="patch_5">
    <path d="M 57.6 276.48 
L 414.72 276.48 
" style="fill:none;stroke:#000000;stroke-linecap:square;stroke-linejoin:miter;stroke-width:0.8;"/>
   </g>
   <g id="patch_6">
    <path d="M 57.6 41.472 
L 414.72 41.472 
" style="fill:none;stroke:#000000;stroke-linecap:square;stroke-linejoin:miter;stroke-width:0.8;"/>
   </g>
   <g id="text_20">
    <!-- My Bondora earnings -->
    <defs>
     <path d="M 9.8125 72.90625 
L 24.515625 72.90625 
L 43.109375 23.296875 
L 61.8125 72.90625 
L 76.515625 72.90625 
L 76.515625 0 
L 66.890625 0 
L 66.890625 64.015625 
L 48.09375 14.015625 
L 38.1875 14.015625 
L 19.390625 64.015625 
L 19.390625 0 
L 9.8125 0 
z
" id="DejaVuSans-4d"/>
     <path d="M 32.171875 -5.078125 
Q 28.375 -14.84375 24.75 -17.8125 
Q 21.140625 -20.796875 15.09375 -20.796875 
L 7.90625 -20.796875 
L 7.90625 -13.28125 
L 13.1875 -13.28125 
Q 16.890625 -13.28125 18.9375 -11.515625 
Q 21 -9.765625 23.484375 -3.21875 
L 25.09375 0.875 
L 2.984375 54.6875 
L 12.5 54.6875 
L 29.59375 11.921875 
L 46.6875 54.6875 
L 56.203125 54.6875 
z
" id="DejaVuSans-79"/>
     <path id="DejaVuSans-20"/>
     <path d="M 19.671875 34.8125 
L 19.671875 8.109375 
L 35.5 8.109375 
Q 43.453125 8.109375 47.28125 11.40625 
Q 51.125 14.703125 51.125 21.484375 
Q 51.125 28.328125 47.28125 31.5625 
Q 43.453125 34.8125 35.5 34.8125 
z
M 19.671875 64.796875 
L 19.671875 42.828125 
L 34.28125 42.828125 
Q 41.5 42.828125 45.03125 45.53125 
Q 48.578125 48.25 48.578125 53.8125 
Q 48.578125 59.328125 45.03125 62.0625 
Q 41.5 64.796875 34.28125 64.796875 
z
M 9.8125 72.90625 
L 35.015625 72.90625 
Q 46.296875 72.90625 52.390625 68.21875 
Q 58.5 63.53125 58.5 54.890625 
Q 58.5 48.1875 55.375 44.234375 
Q 52.25 40.28125 46.1875 39.3125 
Q 53.46875 37.75 57.5 32.78125 
Q 61.53125 27.828125 61.53125 20.40625 
Q 61.53125 10.640625 54.890625 5.3125 
Q 48.25 0 35.984375 0 
L 9.8125 0 
z
" id="DejaVuSans-42"/>
     <path d="M 30.609375 48.390625 
Q 23.390625 48.390625 19.1875 42.75 
Q 14.984375 37.109375 14.984375 27.296875 
Q 14.984375 17.484375 19.15625 11.84375 
Q 23.34375 6.203125 30.609375 6.203125 
Q 37.796875 6.203125 41.984375 11.859375 
Q 46.1875 17.53125 46.1875 27.296875 
Q 46.1875 37.015625 41.984375 42.703125 
Q 37.796875 48.390625 30.609375 48.390625 
z
M 30.609375 56 
Q 42.328125 56 49.015625 48.375 
Q 55.71875 40.765625 55.71875 27.296875 
Q 55.71875 13.875 49.015625 6.21875 
Q 42.328125 -1.421875 30.609375 -1.421875 
Q 18.84375 -1.421875 12.171875 6.21875 
Q 5.515625 13.875 5.515625 27.296875 
Q 5.515625 40.765625 12.171875 48.375 
Q 18.84375 56 30.609375 56 
z
" id="DejaVuSans-6f"/>
     <path d="M 54.890625 33.015625 
L 54.890625 0 
L 45.90625 0 
L 45.90625 32.71875 
Q 45.90625 40.484375 42.875 44.328125 
Q 39.84375 48.1875 33.796875 48.1875 
Q 26.515625 48.1875 22.3125 43.546875 
Q 18.109375 38.921875 18.109375 30.90625 
L 18.109375 0 
L 9.078125 0 
L 9.078125 54.6875 
L 18.109375 54.6875 
L 18.109375 46.1875 
Q 21.34375 51.125 25.703125 53.5625 
Q 30.078125 56 35.796875 56 
Q 45.21875 56 50.046875 50.171875 
Q 54.890625 44.34375 54.890625 33.015625 
z
" id="DejaVuSans-6e"/>
     <path d="M 41.109375 46.296875 
Q 39.59375 47.171875 37.8125 47.578125 
Q 36.03125 48 33.890625 48 
Q 26.265625 48 22.1875 43.046875 
Q 18.109375 38.09375 18.109375 28.8125 
L 18.109375 0 
L 9.078125 0 
L 9.078125 54.6875 
L 18.109375 54.6875 
L 18.109375 46.1875 
Q 20.953125 51.171875 25.484375 53.578125 
Q 30.03125 56 36.53125 56 
Q 37.453125 56 38.578125 55.875 
Q 39.703125 55.765625 41.0625 55.515625 
z
" id="DejaVuSans-72"/>
     <path d="M 9.421875 54.6875 
L 18.40625 54.6875 
L 18.40625 0 
L 9.421875 0 
z
M 9.421875 75.984375 
L 18.40625 75.984375 
L 18.40625 64.59375 
L 9.421875 64.59375 
z
" id="DejaVuSans-69"/>
     <path d="M 45.40625 27.984375 
Q 45.40625 37.75 41.375 43.109375 
Q 37.359375 48.484375 30.078125 48.484375 
Q 22.859375 48.484375 18.828125 43.109375 
Q 14.796875 37.75 14.796875 27.984375 
Q 14.796875 18.265625 18.828125 12.890625 
Q 22.859375 7.515625 30.078125 7.515625 
Q 37.359375 7.515625 41.375 12.890625 
Q 45.40625 18.265625 45.40625 27.984375 
z
M 54.390625 6.78125 
Q 54.390625 -7.171875 48.1875 -13.984375 
Q 42 -20.796875 29.203125 -20.796875 
Q 24.46875 -20.796875 20.265625 -20.09375 
Q 16.0625 -19.390625 12.109375 -17.921875 
L 12.109375 -9.1875 
Q 16.0625 -11.328125 19.921875 -12.34375 
Q 23.78125 -13.375 27.78125 -13.375 
Q 36.625 -13.375 41.015625 -8.765625 
Q 45.40625 -4.15625 45.40625 5.171875 
L 45.40625 9.625 
Q 42.625 4.78125 38.28125 2.390625 
Q 33.9375 0 27.875 0 
Q 17.828125 0 11.671875 7.65625 
Q 5.515625 15.328125 5.515625 27.984375 
Q 5.515625 40.671875 11.671875 48.328125 
Q 17.828125 56 27.875 56 
Q 33.9375 56 38.28125 53.609375 
Q 42.625 51.21875 45.40625 46.390625 
L 45.40625 54.6875 
L 54.390625 54.6875 
z
" id="DejaVuSans-67"/>
     <path d="M 44.28125 53.078125 
L 44.28125 44.578125 
Q 40.484375 46.53125 36.375 47.5 
Q 32.28125 48.484375 27.875 48.484375 
Q 21.1875 48.484375 17.84375 46.4375 
Q 14.5 44.390625 14.5 40.28125 
Q 14.5 37.15625 16.890625 35.375 
Q 19.28125 33.59375 26.515625 31.984375 
L 29.59375 31.296875 
Q 39.15625 29.25 43.1875 25.515625 
Q 47.21875 21.78125 47.21875 15.09375 
Q 47.21875 7.46875 41.1875 3.015625 
Q 35.15625 -1.421875 24.609375 -1.421875 
Q 20.21875 -1.421875 15.453125 -0.5625 
Q 10.6875 0.296875 5.421875 2 
L 5.421875 11.28125 
Q 10.40625 8.6875 15.234375 7.390625 
Q 20.0625 6.109375 24.8125 6.109375 
Q 31.15625 6.109375 34.5625 8.28125 
Q 37.984375 10.453125 37.984375 14.40625 
Q 37.984375 18.0625 35.515625 20.015625 
Q 33.0625 21.96875 24.703125 23.78125 
L 21.578125 24.515625 
Q 13.234375 26.265625 9.515625 29.90625 
Q 5.8125 33.546875 5.8125 39.890625 
Q 5.8125 47.609375 11.28125 51.796875 
Q 16.75 56 26.8125 56 
Q 31.78125 56 36.171875 55.265625 
Q 40.578125 54.546875 44.28125 53.078125 
z
" id="DejaVuSans-73"/>
    </defs>
    <g transform="translate(172.363125 35.472)scale(0.12 -0.12)">
     <use xlink:href="#DejaVuSans-4d"/>
     <use x="86.279297" xlink:href="#DejaVuSans-79"/>
     <use x="145.458984" xlink:href="#DejaVuSans-20"/>
     <use x="177.246094" xlink:href="#DejaVuSans-42"/>
     <use x="245.849609" xlink:href="#DejaVuSans-6f"/>
     <use x="307.03125" xlink:href="#DejaVuSans-6e"/>
     <use x="370.410156" xlink:href="#DejaVuSans-64"/>
     <use x="433.886719" xlink:href="#DejaVuSans-6f"/>
     <use x="495.068359" xlink:href="#DejaVuSans-72"/>
     <use x="536.181641" xlink:href="#DejaVuSans-61"/>
     <use x="597.460938" xlink:href="#DejaVuSans-20"/>
     <use x="629.248047" xlink:href="#DejaVuSans-65"/>
     <use x="690.771484" xlink:href="#DejaVuSans-61"/>
     <use x="752.050781" xlink:href="#DejaVuSans-72"/>
     <use x="793.148438" xlink:href="#DejaVuSans-6e"/>
     <use x="856.527344" xlink:href="#DejaVuSans-69"/>
     <use x="884.310547" xlink:href="#DejaVuSans-6e"/>
     <use x="947.689453" xlink:href="#DejaVuSans-67"/>
     <use x="1011.166016" xlink:href="#DejaVuSans-73"/>
    </g>
   </g>
   <g id="legend_1">
    <g id="patch_7">
     <path d="M 64.6 122.862625 
L 158.45 122.862625 
Q 160.45 122.862625 160.45 120.862625 
L 160.45 48.472 
Q 160.45 46.472 158.45 46.472 
L 64.6 46.472 
Q 62.6 46.472 62.6 48.472 
L 62.6 120.862625 
Q 62.6 122.862625 64.6 122.862625 
z
" style="fill:#ffffff;opacity:0.8;stroke:#cccccc;stroke-linejoin:miter;"/>
    </g>
    <g id="line2d_40">
     <path d="M 66.6 54.570437 
L 86.6 54.570437 
" style="fill:none;stroke:#0000ff;stroke-linecap:square;stroke-width:1.5;"/>
    </g>
    <g id="line2d_41"/>
    <g id="text_21">
     <!-- Interest -->
     <defs>
      <path d="M 9.8125 72.90625 
L 19.671875 72.90625 
L 19.671875 0 
L 9.8125 0 
z
" id="DejaVuSans-49"/>
     </defs>
     <g transform="translate(94.6 58.070437)scale(0.1 -0.1)">
      <use xlink:href="#DejaVuSans-49"/>
      <use x="29.492188" xlink:href="#DejaVuSans-6e"/>
      <use x="92.871094" xlink:href="#DejaVuSans-74"/>
      <use x="132.080078" xlink:href="#DejaVuSans-65"/>
      <use x="193.603516" xlink:href="#DejaVuSans-72"/>
      <use x="234.685547" xlink:href="#DejaVuSans-65"/>
      <use x="296.208984" xlink:href="#DejaVuSans-73"/>
      <use x="348.308594" xlink:href="#DejaVuSans-74"/>
     </g>
    </g>
    <g id="line2d_42">
     <path d="M 66.6 69.248562 
L 86.6 69.248562 
" style="fill:none;stroke:#ff0000;stroke-linecap:square;stroke-width:1.5;"/>
    </g>
    <g id="line2d_43"/>
    <g id="text_22">
     <!-- Balance -->
     <defs>
      <path d="M 9.421875 75.984375 
L 18.40625 75.984375 
L 18.40625 0 
L 9.421875 0 
z
" id="DejaVuSans-6c"/>
      <path d="M 48.78125 52.59375 
L 48.78125 44.1875 
Q 44.96875 46.296875 41.140625 47.34375 
Q 37.3125 48.390625 33.40625 48.390625 
Q 24.65625 48.390625 19.8125 42.84375 
Q 14.984375 37.3125 14.984375 27.296875 
Q 14.984375 17.28125 19.8125 11.734375 
Q 24.65625 6.203125 33.40625 6.203125 
Q 37.3125 6.203125 41.140625 7.25 
Q 44.96875 8.296875 48.78125 10.40625 
L 48.78125 2.09375 
Q 45.015625 0.34375 40.984375 -0.53125 
Q 36.96875 -1.421875 32.421875 -1.421875 
Q 20.0625 -1.421875 12.78125 6.34375 
Q 5.515625 14.109375 5.515625 27.296875 
Q 5.515625 40.671875 12.859375 48.328125 
Q 20.21875 56 33.015625 56 
Q 37.15625 56 41.109375 55.140625 
Q 45.0625 54.296875 48.78125 52.59375 
z
" id="DejaVuSans-63"/>
     </defs>
     <g transform="translate(94.6 72.748562)scale(0.1 -0.1)">
      <use xlink:href="#DejaVuSans-42"/>
      <use x="68.603516" xlink:href="#DejaVuSans-61"/>
      <use x="129.882812" xlink:href="#DejaVuSans-6c"/>
      <use x="157.666016" xlink:href="#DejaVuSans-61"/>
      <use x="218.945312" xlink:href="#DejaVuSans-6e"/>
      <use x="282.324219" xlink:href="#DejaVuSans-63"/>
      <use x="337.304688" xlink:href="#DejaVuSans-65"/>
     </g>
    </g>
    <g id="line2d_44">
     <path d="M 66.6 83.926687 
L 86.6 83.926687 
" style="fill:none;stroke:#008000;stroke-linecap:square;stroke-width:1.5;"/>
    </g>
    <g id="line2d_45"/>
    <g id="text_23">
     <!-- Investments -->
     <defs>
      <path d="M 2.984375 54.6875 
L 12.5 54.6875 
L 29.59375 8.796875 
L 46.6875 54.6875 
L 56.203125 54.6875 
L 35.6875 0 
L 23.484375 0 
z
" id="DejaVuSans-76"/>
      <path d="M 52 44.1875 
Q 55.375 50.25 60.0625 53.125 
Q 64.75 56 71.09375 56 
Q 79.640625 56 84.28125 50.015625 
Q 88.921875 44.046875 88.921875 33.015625 
L 88.921875 0 
L 79.890625 0 
L 79.890625 32.71875 
Q 79.890625 40.578125 77.09375 44.375 
Q 74.3125 48.1875 68.609375 48.1875 
Q 61.625 48.1875 57.5625 43.546875 
Q 53.515625 38.921875 53.515625 30.90625 
L 53.515625 0 
L 44.484375 0 
L 44.484375 32.71875 
Q 44.484375 40.625 41.703125 44.40625 
Q 38.921875 48.1875 33.109375 48.1875 
Q 26.21875 48.1875 22.15625 43.53125 
Q 18.109375 38.875 18.109375 30.90625 
L 18.109375 0 
L 9.078125 0 
L 9.078125 54.6875 
L 18.109375 54.6875 
L 18.109375 46.1875 
Q 21.1875 51.21875 25.484375 53.609375 
Q 29.78125 56 35.6875 56 
Q 41.65625 56 45.828125 52.96875 
Q 50 49.953125 52 44.1875 
z
" id="DejaVuSans-6d"/>
     </defs>
     <g transform="translate(94.6 87.426687)scale(0.1 -0.1)">
      <use xlink:href="#DejaVuSans-49"/>
      <use x="29.492188" xlink:href="#DejaVuSans-6e"/>
      <use x="92.871094" xlink:href="#DejaVuSans-76"/>
      <use x="152.050781" xlink:href="#DejaVuSans-65"/>
      <use x="213.574219" xlink:href="#DejaVuSans-73"/>
      <use x="265.673828" xlink:href="#DejaVuSans-74"/>
      <use x="304.882812" xlink:href="#DejaVuSans-6d"/>
      <use x="402.294922" xlink:href="#DejaVuSans-65"/>
      <use x="463.818359" xlink:href="#DejaVuSans-6e"/>
      <use x="527.197266" xlink:href="#DejaVuSans-74"/>
      <use x="566.40625" xlink:href="#DejaVuSans-73"/>
     </g>
    </g>
    <g id="line2d_46"/>
    <g id="line2d_47">
     <g>
      <use style="fill:#bfbf00;stroke:#bfbf00;" x="76.6" xlink:href="#ma31fedd757" y="98.604812"/>
     </g>
    </g>
    <g id="text_24">
     <!-- Deposits -->
     <defs>
      <path d="M 19.671875 64.796875 
L 19.671875 8.109375 
L 31.59375 8.109375 
Q 46.6875 8.109375 53.6875 14.9375 
Q 60.6875 21.78125 60.6875 36.53125 
Q 60.6875 51.171875 53.6875 57.984375 
Q 46.6875 64.796875 31.59375 64.796875 
z
M 9.8125 72.90625 
L 30.078125 72.90625 
Q 51.265625 72.90625 61.171875 64.09375 
Q 71.09375 55.28125 71.09375 36.53125 
Q 71.09375 17.671875 61.125 8.828125 
Q 51.171875 0 30.078125 0 
L 9.8125 0 
z
" id="DejaVuSans-44"/>
      <path d="M 18.109375 8.203125 
L 18.109375 -20.796875 
L 9.078125 -20.796875 
L 9.078125 54.6875 
L 18.109375 54.6875 
L 18.109375 46.390625 
Q 20.953125 51.265625 25.265625 53.625 
Q 29.59375 56 35.59375 56 
Q 45.5625 56 51.78125 48.09375 
Q 58.015625 40.1875 58.015625 27.296875 
Q 58.015625 14.40625 51.78125 6.484375 
Q 45.5625 -1.421875 35.59375 -1.421875 
Q 29.59375 -1.421875 25.265625 0.953125 
Q 20.953125 3.328125 18.109375 8.203125 
z
M 48.6875 27.296875 
Q 48.6875 37.203125 44.609375 42.84375 
Q 40.53125 48.484375 33.40625 48.484375 
Q 26.265625 48.484375 22.1875 42.84375 
Q 18.109375 37.203125 18.109375 27.296875 
Q 18.109375 17.390625 22.1875 11.75 
Q 26.265625 6.109375 33.40625 6.109375 
Q 40.53125 6.109375 44.609375 11.75 
Q 48.6875 17.390625 48.6875 27.296875 
z
" id="DejaVuSans-70"/>
     </defs>
     <g transform="translate(94.6 102.104812)scale(0.1 -0.1)">
      <use xlink:href="#DejaVuSans-44"/>
      <use x="77.001953" xlink:href="#DejaVuSans-65"/>
      <use x="138.525391" xlink:href="#DejaVuSans-70"/>
      <use x="202.001953" xlink:href="#DejaVuSans-6f"/>
      <use x="263.183594" xlink:href="#DejaVuSans-73"/>
      <use x="315.283203" xlink:href="#DejaVuSans-69"/>
      <use x="343.066406" xlink:href="#DejaVuSans-74"/>
      <use x="382.275391" xlink:href="#DejaVuSans-73"/>
     </g>
    </g>
    <g id="line2d_48"/>
    <g id="line2d_49">
     <g>
      <use style="fill:#008000;stroke:#008000;" x="76.6" xlink:href="#mb36ad9c062" y="113.282937"/>
     </g>
    </g>
    <g id="text_25">
     <!-- Commission -->
     <defs>
      <path d="M 64.40625 67.28125 
L 64.40625 56.890625 
Q 59.421875 61.53125 53.78125 63.8125 
Q 48.140625 66.109375 41.796875 66.109375 
Q 29.296875 66.109375 22.65625 58.46875 
Q 16.015625 50.828125 16.015625 36.375 
Q 16.015625 21.96875 22.65625 14.328125 
Q 29.296875 6.6875 41.796875 6.6875 
Q 48.140625 6.6875 53.78125 8.984375 
Q 59.421875 11.28125 64.40625 15.921875 
L 64.40625 5.609375 
Q 59.234375 2.09375 53.4375 0.328125 
Q 47.65625 -1.421875 41.21875 -1.421875 
Q 24.65625 -1.421875 15.125 8.703125 
Q 5.609375 18.84375 5.609375 36.375 
Q 5.609375 53.953125 15.125 64.078125 
Q 24.65625 74.21875 41.21875 74.21875 
Q 47.75 74.21875 53.53125 72.484375 
Q 59.328125 70.75 64.40625 67.28125 
z
" id="DejaVuSans-43"/>
     </defs>
     <g transform="translate(94.6 116.782937)scale(0.1 -0.1)">
      <use xlink:href="#DejaVuSans-43"/>
      <use x="69.824219" xlink:href="#DejaVuSans-6f"/>
      <use x="131.005859" xlink:href="#DejaVuSans-6d"/>
      <use x="228.417969" xlink:href="#DejaVuSans-6d"/>
      <use x="325.830078" xlink:href="#DejaVuSans-69"/>
      <use x="353.613281" xlink:href="#DejaVuSans-73"/>
      <use x="405.712891" xlink:href="#DejaVuSans-73"/>
      <use x="457.8125" xlink:href="#DejaVuSans-69"/>
      <use x="485.595703" xlink:href="#DejaVuSans-6f"/>
      <use x="546.777344" xlink:href="#DejaVuSans-6e"/>
     </g>
    </g>
   </g>
  </g>
 </g>
 <defs>
  <clipPath id="p6b4d739b58">
   <rect height="235.008" width="357.12" x="57.6" y="41.472"/>
  </clipPath>
 </defs>
</svg>
