<?xml version="1.0" encoding="utf-8" standalone="no"?>
<!DOCTYPE svg PUBLIC "-//W3C//DTD SVG 1.1//EN"
  "http://www.w3.org/Graphics/SVG/1.1/DTD/svg11.dtd">
<!-- Created with matplotlib (http://matplotlib.org/) -->
<svg height="345.6pt" version="1.1" viewBox="0 0 460.8 345.6" width="460.8pt" xmlns="http://www.w3.org/2000/svg" xmlns:xlink="http://www.w3.org/1999/xlink">
 <defs>
  <style type="text/css">
*{stroke-linecap:butt;stroke-linejoin:round;}
  </style>
 </defs>
 <g id="figure_1">
  <g id="patch_1">
   <path d="M 0 345.6 
L 460.8 345.6 
L 460.8 0 
L 0 0 
z
" style="fill:#ffffff;"/>
  </g>
  <g id="axes_1">
   <g id="patch_2">
    <path d="M 57.6 276.48 
L 414.72 276.48 
L 414.72 41.472 
L 57.6 41.472 
z
" style="fill:#ffffff;"/>
   </g>
   <g id="matplotlib.axis_1">
    <g id="xtick_1">
     <g id="line2d_1">
      <path clip-path="url(#p7fabac1e5f)" d="M 73.832727 276.48 
L 73.832727 41.472 
" style="fill:none;stroke:#b0b0b0;stroke-linecap:square;stroke-width:0.8;"/>
     </g>
     <g id="line2d_2">
      <defs>
       <path d="M 0 0 
L 0 3.5 
" id="me3a300e1f4" style="stroke:#000000;stroke-width:0.8;"/>
      </defs>
      <g>
       <use style="stroke:#000000;stroke-width:0.8;" x="73.832727" xlink:href="#me3a300e1f4" y="276.48"/>
      </g>
     </g>
     <g id="text_1">
      <!-- 2019-01 -->
      <defs>
       <path d="M 19.1875 8.296875 
L 53.609375 8.296875 
L 53.609375 0 
L 7.328125 0 
L 7.328125 8.296875 
Q 12.9375 14.109375 22.625 23.890625 
Q 32.328125 33.6875 34.8125 36.53125 
Q 39.546875 41.84375 41.421875 45.53125 
Q 43.3125 49.21875 43.3125 52.78125 
Q 43.3125 58.59375 39.234375 62.25 
Q 35.15625 65.921875 28.609375 65.921875 
Q 23.96875 65.921875 18.8125 64.3125 
Q 13.671875 62.703125 7.8125 59.421875 
L 7.8125 69.390625 
Q 13.765625 71.78125 18.9375 73 
Q 24.125 74.21875 28.421875 74.21875 
Q 39.75 74.21875 46.484375 68.546875 
Q 53.21875 62.890625 53.21875 53.421875 
Q 53.21875 48.921875 51.53125 44.890625 
Q 49.859375 40.875 45.40625 35.40625 
Q 44.1875 33.984375 37.640625 27.21875 
Q 31.109375 20.453125 19.1875 8.296875 
z
" id="DejaVuSans-32"/>
       <path d="M 31.78125 66.40625 
Q 24.171875 66.40625 20.328125 58.90625 
Q 16.5 51.421875 16.5 36.375 
Q 16.5 21.390625 20.328125 13.890625 
Q 24.171875 6.390625 31.78125 6.390625 
Q 39.453125 6.390625 43.28125 13.890625 
Q 47.125 21.390625 47.125 36.375 
Q 47.125 51.421875 43.28125 58.90625 
Q 39.453125 66.40625 31.78125 66.40625 
z
M 31.78125 74.21875 
Q 44.046875 74.21875 50.515625 64.515625 
Q 56.984375 54.828125 56.984375 36.375 
Q 56.984375 17.96875 50.515625 8.265625 
Q 44.046875 -1.421875 31.78125 -1.421875 
Q 19.53125 -1.421875 13.0625 8.265625 
Q 6.59375 17.96875 6.59375 36.375 
Q 6.59375 54.828125 13.0625 64.515625 
Q 19.53125 74.21875 31.78125 74.21875 
z
" id="DejaVuSans-30"/>
       <path d="M 12.40625 8.296875 
L 28.515625 8.296875 
L 28.515625 63.921875 
L 10.984375 60.40625 
L 10.984375 69.390625 
L 28.421875 72.90625 
L 38.28125 72.90625 
L 38.28125 8.296875 
L 54.390625 8.296875 
L 54.390625 0 
L 12.40625 0 
z
" id="DejaVuSans-31"/>
       <path d="M 10.984375 1.515625 
L 10.984375 10.5 
Q 14.703125 8.734375 18.5 7.8125 
Q 22.3125 6.890625 25.984375 6.890625 
Q 35.75 6.890625 40.890625 13.453125 
Q 46.046875 20.015625 46.78125 33.40625 
Q 43.953125 29.203125 39.59375 26.953125 
Q 35.25 24.703125 29.984375 24.703125 
Q 19.046875 24.703125 12.671875 31.3125 
Q 6.296875 37.9375 6.296875 49.421875 
Q 6.296875 60.640625 12.9375 67.421875 
Q 19.578125 74.21875 30.609375 74.21875 
Q 43.265625 74.21875 49.921875 64.515625 
Q 56.59375 54.828125 56.59375 36.375 
Q 56.59375 19.140625 48.40625 8.859375 
Q 40.234375 -1.421875 26.421875 -1.421875 
Q 22.703125 -1.421875 18.890625 -0.6875 
Q 15.09375 0.046875 10.984375 1.515625 
z
M 30.609375 32.421875 
Q 37.25 32.421875 41.125 36.953125 
Q 45.015625 41.5 45.015625 49.421875 
Q 45.015625 57.28125 41.125 61.84375 
Q 37.25 66.40625 30.609375 66.40625 
Q 23.96875 66.40625 20.09375 61.84375 
Q 16.21875 57.28125 16.21875 49.421875 
Q 16.21875 41.5 20.09375 36.953125 
Q 23.96875 32.421875 30.609375 32.421875 
z
" id="DejaVuSans-39"/>
       <path d="M 4.890625 31.390625 
L 31.203125 31.390625 
L 31.203125 23.390625 
L 4.890625 23.390625 
z
" id="DejaVuSans-2d"/>
      </defs>
      <g transform="translate(36.607906 310.951846)rotate(-30)scale(0.1 -0.1)">
       <use xlink:href="#DejaVuSans-32"/>
       <use x="63.623047" xlink:href="#DejaVuSans-30"/>
       <use x="127.246094" xlink:href="#DejaVuSans-31"/>
       <use x="190.869141" xlink:href="#DejaVuSans-39"/>
       <use x="254.492188" xlink:href="#DejaVuSans-2d"/>
       <use x="290.576172" xlink:href="#DejaVuSans-30"/>
       <use x="354.199219" xlink:href="#DejaVuSans-31"/>
      </g>
     </g>
    </g>
    <g id="xtick_2">
     <g id="line2d_3">
      <path clip-path="url(#p7fabac1e5f)" d="M 112.257878 276.48 
L 112.257878 41.472 
" style="fill:none;stroke:#b0b0b0;stroke-linecap:square;stroke-width:0.8;"/>
     </g>
     <g id="line2d_4">
      <g>
       <use style="stroke:#000000;stroke-width:0.8;" x="112.257878" xlink:href="#me3a300e1f4" y="276.48"/>
      </g>
     </g>
     <g id="text_2">
      <!-- 2019-02 -->
      <g transform="translate(75.033057 310.951846)rotate(-30)scale(0.1 -0.1)">
       <use xlink:href="#DejaVuSans-32"/>
       <use x="63.623047" xlink:href="#DejaVuSans-30"/>
       <use x="127.246094" xlink:href="#DejaVuSans-31"/>
       <use x="190.869141" xlink:href="#DejaVuSans-39"/>
       <use x="254.492188" xlink:href="#DejaVuSans-2d"/>
       <use x="290.576172" xlink:href="#DejaVuSans-30"/>
       <use x="354.199219" xlink:href="#DejaVuSans-32"/>
      </g>
     </g>
    </g>
    <g id="xtick_3">
     <g id="line2d_5">
      <path clip-path="url(#p7fabac1e5f)" d="M 146.964465 276.48 
L 146.964465 41.472 
" style="fill:none;stroke:#b0b0b0;stroke-linecap:square;stroke-width:0.8;"/>
     </g>
     <g id="line2d_6">
      <g>
       <use style="stroke:#000000;stroke-width:0.8;" x="146.964465" xlink:href="#me3a300e1f4" y="276.48"/>
      </g>
     </g>
     <g id="text_3">
      <!-- 2019-03 -->
      <defs>
       <path d="M 40.578125 39.3125 
Q 47.65625 37.796875 51.625 33 
Q 55.609375 28.21875 55.609375 21.1875 
Q 55.609375 10.40625 48.1875 4.484375 
Q 40.765625 -1.421875 27.09375 -1.421875 
Q 22.515625 -1.421875 17.65625 -0.515625 
Q 12.796875 0.390625 7.625 2.203125 
L 7.625 11.71875 
Q 11.71875 9.328125 16.59375 8.109375 
Q 21.484375 6.890625 26.8125 6.890625 
Q 36.078125 6.890625 40.9375 10.546875 
Q 45.796875 14.203125 45.796875 21.1875 
Q 45.796875 27.640625 41.28125 31.265625 
Q 36.765625 34.90625 28.71875 34.90625 
L 20.21875 34.90625 
L 20.21875 43.015625 
L 29.109375 43.015625 
Q 36.375 43.015625 40.234375 45.921875 
Q 44.09375 48.828125 44.09375 54.296875 
Q 44.09375 59.90625 40.109375 62.90625 
Q 36.140625 65.921875 28.71875 65.921875 
Q 24.65625 65.921875 20.015625 65.03125 
Q 15.375 64.15625 9.8125 62.3125 
L 9.8125 71.09375 
Q 15.4375 72.65625 20.34375 73.4375 
Q 25.25 74.21875 29.59375 74.21875 
Q 40.828125 74.21875 47.359375 69.109375 
Q 53.90625 64.015625 53.90625 55.328125 
Q 53.90625 49.265625 50.4375 45.09375 
Q 46.96875 40.921875 40.578125 39.3125 
z
" id="DejaVuSans-33"/>
      </defs>
      <g transform="translate(109.739644 310.951846)rotate(-30)scale(0.1 -0.1)">
       <use xlink:href="#DejaVuSans-32"/>
       <use x="63.623047" xlink:href="#DejaVuSans-30"/>
       <use x="127.246094" xlink:href="#DejaVuSans-31"/>
       <use x="190.869141" xlink:href="#DejaVuSans-39"/>
       <use x="254.492188" xlink:href="#DejaVuSans-2d"/>
       <use x="290.576172" xlink:href="#DejaVuSans-30"/>
       <use x="354.199219" xlink:href="#DejaVuSans-33"/>
      </g>
     </g>
    </g>
    <g id="xtick_4">
     <g id="line2d_7">
      <path clip-path="url(#p7fabac1e5f)" d="M 185.389615 276.48 
L 185.389615 41.472 
" style="fill:none;stroke:#b0b0b0;stroke-linecap:square;stroke-width:0.8;"/>
     </g>
     <g id="line2d_8">
      <g>
       <use style="stroke:#000000;stroke-width:0.8;" x="185.389615" xlink:href="#me3a300e1f4" y="276.48"/>
      </g>
     </g>
     <g id="text_4">
      <!-- 2019-04 -->
      <defs>
       <path d="M 37.796875 64.3125 
L 12.890625 25.390625 
L 37.796875 25.390625 
z
M 35.203125 72.90625 
L 47.609375 72.90625 
L 47.609375 25.390625 
L 58.015625 25.390625 
L 58.015625 17.1875 
L 47.609375 17.1875 
L 47.609375 0 
L 37.796875 0 
L 37.796875 17.1875 
L 4.890625 17.1875 
L 4.890625 26.703125 
z
" id="DejaVuSans-34"/>
      </defs>
      <g transform="translate(148.164794 310.951846)rotate(-30)scale(0.1 -0.1)">
       <use xlink:href="#DejaVuSans-32"/>
       <use x="63.623047" xlink:href="#DejaVuSans-30"/>
       <use x="127.246094" xlink:href="#DejaVuSans-31"/>
       <use x="190.869141" xlink:href="#DejaVuSans-39"/>
       <use x="254.492188" xlink:href="#DejaVuSans-2d"/>
       <use x="290.576172" xlink:href="#DejaVuSans-30"/>
       <use x="354.199219" xlink:href="#DejaVuSans-34"/>
      </g>
     </g>
    </g>
    <g id="xtick_5">
     <g id="line2d_9">
      <path clip-path="url(#p7fabac1e5f)" d="M 222.575245 276.48 
L 222.575245 41.472 
" style="fill:none;stroke:#b0b0b0;stroke-linecap:square;stroke-width:0.8;"/>
     </g>
     <g id="line2d_10">
      <g>
       <use style="stroke:#000000;stroke-width:0.8;" x="222.575245" xlink:href="#me3a300e1f4" y="276.48"/>
      </g>
     </g>
     <g id="text_5">
      <!-- 2019-05 -->
      <defs>
       <path d="M 10.796875 72.90625 
L 49.515625 72.90625 
L 49.515625 64.59375 
L 19.828125 64.59375 
L 19.828125 46.734375 
Q 21.96875 47.46875 24.109375 47.828125 
Q 26.265625 48.1875 28.421875 48.1875 
Q 40.625 48.1875 47.75 41.5 
Q 54.890625 34.8125 54.890625 23.390625 
Q 54.890625 11.625 47.5625 5.09375 
Q 40.234375 -1.421875 26.90625 -1.421875 
Q 22.3125 -1.421875 17.546875 -0.640625 
Q 12.796875 0.140625 7.71875 1.703125 
L 7.71875 11.625 
Q 12.109375 9.234375 16.796875 8.0625 
Q 21.484375 6.890625 26.703125 6.890625 
Q 35.15625 6.890625 40.078125 11.328125 
Q 45.015625 15.765625 45.015625 23.390625 
Q 45.015625 31 40.078125 35.4375 
Q 35.15625 39.890625 26.703125 39.890625 
Q 22.75 39.890625 18.8125 39.015625 
Q 14.890625 38.140625 10.796875 36.28125 
z
" id="DejaVuSans-35"/>
      </defs>
      <g transform="translate(185.350424 310.951846)rotate(-30)scale(0.1 -0.1)">
       <use xlink:href="#DejaVuSans-32"/>
       <use x="63.623047" xlink:href="#DejaVuSans-30"/>
       <use x="127.246094" xlink:href="#DejaVuSans-31"/>
       <use x="190.869141" xlink:href="#DejaVuSans-39"/>
       <use x="254.492188" xlink:href="#DejaVuSans-2d"/>
       <use x="290.576172" xlink:href="#DejaVuSans-30"/>
       <use x="354.199219" xlink:href="#DejaVuSans-35"/>
      </g>
     </g>
    </g>
    <g id="xtick_6">
     <g id="line2d_11">
      <path clip-path="url(#p7fabac1e5f)" d="M 261.000395 276.48 
L 261.000395 41.472 
" style="fill:none;stroke:#b0b0b0;stroke-linecap:square;stroke-width:0.8;"/>
     </g>
     <g id="line2d_12">
      <g>
       <use style="stroke:#000000;stroke-width:0.8;" x="261.000395" xlink:href="#me3a300e1f4" y="276.48"/>
      </g>
     </g>
     <g id="text_6">
      <!-- 2019-06 -->
      <defs>
       <path d="M 33.015625 40.375 
Q 26.375 40.375 22.484375 35.828125 
Q 18.609375 31.296875 18.609375 23.390625 
Q 18.609375 15.53125 22.484375 10.953125 
Q 26.375 6.390625 33.015625 6.390625 
Q 39.65625 6.390625 43.53125 10.953125 
Q 47.40625 15.53125 47.40625 23.390625 
Q 47.40625 31.296875 43.53125 35.828125 
Q 39.65625 40.375 33.015625 40.375 
z
M 52.59375 71.296875 
L 52.59375 62.3125 
Q 48.875 64.0625 45.09375 64.984375 
Q 41.3125 65.921875 37.59375 65.921875 
Q 27.828125 65.921875 22.671875 59.328125 
Q 17.53125 52.734375 16.796875 39.40625 
Q 19.671875 43.65625 24.015625 45.921875 
Q 28.375 48.1875 33.59375 48.1875 
Q 44.578125 48.1875 50.953125 41.515625 
Q 57.328125 34.859375 57.328125 23.390625 
Q 57.328125 12.15625 50.6875 5.359375 
Q 44.046875 -1.421875 33.015625 -1.421875 
Q 20.359375 -1.421875 13.671875 8.265625 
Q 6.984375 17.96875 6.984375 36.375 
Q 6.984375 53.65625 15.1875 63.9375 
Q 23.390625 74.21875 37.203125 74.21875 
Q 40.921875 74.21875 44.703125 73.484375 
Q 48.484375 72.75 52.59375 71.296875 
z
" id="DejaVuSans-36"/>
      </defs>
      <g transform="translate(223.775574 310.951846)rotate(-30)scale(0.1 -0.1)">
       <use xlink:href="#DejaVuSans-32"/>
       <use x="63.623047" xlink:href="#DejaVuSans-30"/>
       <use x="127.246094" xlink:href="#DejaVuSans-31"/>
       <use x="190.869141" xlink:href="#DejaVuSans-39"/>
       <use x="254.492188" xlink:href="#DejaVuSans-2d"/>
       <use x="290.576172" xlink:href="#DejaVuSans-30"/>
       <use x="354.199219" xlink:href="#DejaVuSans-36"/>
      </g>
     </g>
    </g>
    <g id="xtick_7">
     <g id="line2d_13">
      <path clip-path="url(#p7fabac1e5f)" d="M 298.186024 276.48 
L 298.186024 41.472 
" style="fill:none;stroke:#b0b0b0;stroke-linecap:square;stroke-width:0.8;"/>
     </g>
     <g id="line2d_14">
      <g>
       <use style="stroke:#000000;stroke-width:0.8;" x="298.186024" xlink:href="#me3a300e1f4" y="276.48"/>
      </g>
     </g>
     <g id="text_7">
      <!-- 2019-07 -->
      <defs>
       <path d="M 8.203125 72.90625 
L 55.078125 72.90625 
L 55.078125 68.703125 
L 28.609375 0 
L 18.3125 0 
L 43.21875 64.59375 
L 8.203125 64.59375 
z
" id="DejaVuSans-37"/>
      </defs>
      <g transform="translate(260.961203 310.951846)rotate(-30)scale(0.1 -0.1)">
       <use xlink:href="#DejaVuSans-32"/>
       <use x="63.623047" xlink:href="#DejaVuSans-30"/>
       <use x="127.246094" xlink:href="#DejaVuSans-31"/>
       <use x="190.869141" xlink:href="#DejaVuSans-39"/>
       <use x="254.492188" xlink:href="#DejaVuSans-2d"/>
       <use x="290.576172" xlink:href="#DejaVuSans-30"/>
       <use x="354.199219" xlink:href="#DejaVuSans-37"/>
      </g>
     </g>
    </g>
    <g id="xtick_8">
     <g id="line2d_15">
      <path clip-path="url(#p7fabac1e5f)" d="M 336.611175 276.48 
L 336.611175 41.472 
" style="fill:none;stroke:#b0b0b0;stroke-linecap:square;stroke-width:0.8;"/>
     </g>
     <g id="line2d_16">
      <g>
       <use style="stroke:#000000;stroke-width:0.8;" x="336.611175" xlink:href="#me3a300e1f4" y="276.48"/>
      </g>
     </g>
     <g id="text_8">
      <!-- 2019-08 -->
      <defs>
       <path d="M 31.78125 34.625 
Q 24.75 34.625 20.71875 30.859375 
Q 16.703125 27.09375 16.703125 20.515625 
Q 16.703125 13.921875 20.71875 10.15625 
Q 24.75 6.390625 31.78125 6.390625 
Q 38.8125 6.390625 42.859375 10.171875 
Q 46.921875 13.96875 46.921875 20.515625 
Q 46.921875 27.09375 42.890625 30.859375 
Q 38.875 34.625 31.78125 34.625 
z
M 21.921875 38.8125 
Q 15.578125 40.375 12.03125 44.71875 
Q 8.5 49.078125 8.5 55.328125 
Q 8.5 64.0625 14.71875 69.140625 
Q 20.953125 74.21875 31.78125 74.21875 
Q 42.671875 74.21875 48.875 69.140625 
Q 55.078125 64.0625 55.078125 55.328125 
Q 55.078125 49.078125 51.53125 44.71875 
Q 48 40.375 41.703125 38.8125 
Q 48.828125 37.15625 52.796875 32.3125 
Q 56.78125 27.484375 56.78125 20.515625 
Q 56.78125 9.90625 50.3125 4.234375 
Q 43.84375 -1.421875 31.78125 -1.421875 
Q 19.734375 -1.421875 13.25 4.234375 
Q 6.78125 9.90625 6.78125 20.515625 
Q 6.78125 27.484375 10.78125 32.3125 
Q 14.796875 37.15625 21.921875 38.8125 
z
M 18.3125 54.390625 
Q 18.3125 48.734375 21.84375 45.5625 
Q 25.390625 42.390625 31.78125 42.390625 
Q 38.140625 42.390625 41.71875 45.5625 
Q 45.3125 48.734375 45.3125 54.390625 
Q 45.3125 60.0625 41.71875 63.234375 
Q 38.140625 66.40625 31.78125 66.40625 
Q 25.390625 66.40625 21.84375 63.234375 
Q 18.3125 60.0625 18.3125 54.390625 
z
" id="DejaVuSans-38"/>
      </defs>
      <g transform="translate(299.386354 310.951846)rotate(-30)scale(0.1 -0.1)">
       <use xlink:href="#DejaVuSans-32"/>
       <use x="63.623047" xlink:href="#DejaVuSans-30"/>
       <use x="127.246094" xlink:href="#DejaVuSans-31"/>
       <use x="190.869141" xlink:href="#DejaVuSans-39"/>
       <use x="254.492188" xlink:href="#DejaVuSans-2d"/>
       <use x="290.576172" xlink:href="#DejaVuSans-30"/>
       <use x="354.199219" xlink:href="#DejaVuSans-38"/>
      </g>
     </g>
    </g>
    <g id="xtick_9">
     <g id="line2d_17">
      <path clip-path="url(#p7fabac1e5f)" d="M 375.036325 276.48 
L 375.036325 41.472 
" style="fill:none;stroke:#b0b0b0;stroke-linecap:square;stroke-width:0.8;"/>
     </g>
     <g id="line2d_18">
      <g>
       <use style="stroke:#000000;stroke-width:0.8;" x="375.036325" xlink:href="#me3a300e1f4" y="276.48"/>
      </g>
     </g>
     <g id="text_9">
      <!-- 2019-09 -->
      <g transform="translate(337.811504 310.951846)rotate(-30)scale(0.1 -0.1)">
       <use xlink:href="#DejaVuSans-32"/>
       <use x="63.623047" xlink:href="#DejaVuSans-30"/>
       <use x="127.246094" xlink:href="#DejaVuSans-31"/>
       <use x="190.869141" xlink:href="#DejaVuSans-39"/>
       <use x="254.492188" xlink:href="#DejaVuSans-2d"/>
       <use x="290.576172" xlink:href="#DejaVuSans-30"/>
       <use x="354.199219" xlink:href="#DejaVuSans-39"/>
      </g>
     </g>
    </g>
    <g id="xtick_10">
     <g id="line2d_19">
      <path clip-path="url(#p7fabac1e5f)" d="M 412.221954 276.48 
L 412.221954 41.472 
" style="fill:none;stroke:#b0b0b0;stroke-linecap:square;stroke-width:0.8;"/>
     </g>
     <g id="line2d_20">
      <g>
       <use style="stroke:#000000;stroke-width:0.8;" x="412.221954" xlink:href="#me3a300e1f4" y="276.48"/>
      </g>
     </g>
     <g id="text_10">
      <!-- 2019-10 -->
      <g transform="translate(374.997133 310.951846)rotate(-30)scale(0.1 -0.1)">
       <use xlink:href="#DejaVuSans-32"/>
       <use x="63.623047" xlink:href="#DejaVuSans-30"/>
       <use x="127.246094" xlink:href="#DejaVuSans-31"/>
       <use x="190.869141" xlink:href="#DejaVuSans-39"/>
       <use x="254.492188" xlink:href="#DejaVuSans-2d"/>
       <use x="290.576172" xlink:href="#DejaVuSans-31"/>
       <use x="354.199219" xlink:href="#DejaVuSans-30"/>
      </g>
     </g>
    </g>
    <g id="text_11">
     <!-- date -->
     <defs>
      <path d="M 45.40625 46.390625 
L 45.40625 75.984375 
L 54.390625 75.984375 
L 54.390625 0 
L 45.40625 0 
L 45.40625 8.203125 
Q 42.578125 3.328125 38.25 0.953125 
Q 33.9375 -1.421875 27.875 -1.421875 
Q 17.96875 -1.421875 11.734375 6.484375 
Q 5.515625 14.40625 5.515625 27.296875 
Q 5.515625 40.1875 11.734375 48.09375 
Q 17.96875 56 27.875 56 
Q 33.9375 56 38.25 53.625 
Q 42.578125 51.265625 45.40625 46.390625 
z
M 14.796875 27.296875 
Q 14.796875 17.390625 18.875 11.75 
Q 22.953125 6.109375 30.078125 6.109375 
Q 37.203125 6.109375 41.296875 11.75 
Q 45.40625 17.390625 45.40625 27.296875 
Q 45.40625 37.203125 41.296875 42.84375 
Q 37.203125 48.484375 30.078125 48.484375 
Q 22.953125 48.484375 18.875 42.84375 
Q 14.796875 37.203125 14.796875 27.296875 
z
" id="DejaVuSans-64"/>
      <path d="M 34.28125 27.484375 
Q 23.390625 27.484375 19.1875 25 
Q 14.984375 22.515625 14.984375 16.5 
Q 14.984375 11.71875 18.140625 8.90625 
Q 21.296875 6.109375 26.703125 6.109375 
Q 34.1875 6.109375 38.703125 11.40625 
Q 43.21875 16.703125 43.21875 25.484375 
L 43.21875 27.484375 
z
M 52.203125 31.203125 
L 52.203125 0 
L 43.21875 0 
L 43.21875 8.296875 
Q 40.140625 3.328125 35.546875 0.953125 
Q 30.953125 -1.421875 24.3125 -1.421875 
Q 15.921875 -1.421875 10.953125 3.296875 
Q 6 8.015625 6 15.921875 
Q 6 25.140625 12.171875 29.828125 
Q 18.359375 34.515625 30.609375 34.515625 
L 43.21875 34.515625 
L 43.21875 35.40625 
Q 43.21875 41.609375 39.140625 45 
Q 35.0625 48.390625 27.6875 48.390625 
Q 23 48.390625 18.546875 47.265625 
Q 14.109375 46.140625 10.015625 43.890625 
L 10.015625 52.203125 
Q 14.9375 54.109375 19.578125 55.046875 
Q 24.21875 56 28.609375 56 
Q 40.484375 56 46.34375 49.84375 
Q 52.203125 43.703125 52.203125 31.203125 
z
" id="DejaVuSans-61"/>
      <path d="M 18.3125 70.21875 
L 18.3125 54.6875 
L 36.8125 54.6875 
L 36.8125 47.703125 
L 18.3125 47.703125 
L 18.3125 18.015625 
Q 18.3125 11.328125 20.140625 9.421875 
Q 21.96875 7.515625 27.59375 7.515625 
L 36.8125 7.515625 
L 36.8125 0 
L 27.59375 0 
Q 17.1875 0 13.234375 3.875 
Q 9.28125 7.765625 9.28125 18.015625 
L 9.28125 47.703125 
L 2.6875 47.703125 
L 2.6875 54.6875 
L 9.28125 54.6875 
L 9.28125 70.21875 
z
" id="DejaVuSans-74"/>
      <path d="M 56.203125 29.59375 
L 56.203125 25.203125 
L 14.890625 25.203125 
Q 15.484375 15.921875 20.484375 11.0625 
Q 25.484375 6.203125 34.421875 6.203125 
Q 39.59375 6.203125 44.453125 7.46875 
Q 49.3125 8.734375 54.109375 11.28125 
L 54.109375 2.78125 
Q 49.265625 0.734375 44.1875 -0.34375 
Q 39.109375 -1.421875 33.890625 -1.421875 
Q 20.796875 -1.421875 13.15625 6.1875 
Q 5.515625 13.8125 5.515625 26.8125 
Q 5.515625 40.234375 12.765625 48.109375 
Q 20.015625 56 32.328125 56 
Q 43.359375 56 49.78125 48.890625 
Q 56.203125 41.796875 56.203125 29.59375 
z
M 47.21875 32.234375 
Q 47.125 39.59375 43.09375 43.984375 
Q 39.0625 48.390625 32.421875 48.390625 
Q 24.90625 48.390625 20.390625 44.140625 
Q 15.875 39.890625 15.1875 32.171875 
z
" id="DejaVuSans-65"/>
     </defs>
     <g transform="translate(224.885 324.351346)scale(0.1 -0.1)">
      <use xlink:href="#DejaVuSans-64"/>
      <use x="63.476562" xlink:href="#DejaVuSans-61"/>
      <use x="124.755859" xlink:href="#DejaVuSans-74"/>
      <use x="163.964844" xlink:href="#DejaVuSans-65"/>
     </g>
    </g>
   </g>
   <g id="matplotlib.axis_2">
    <g id="ytick_1">
     <g id="line2d_21">
      <path clip-path="url(#p7fabac1e5f)" d="M 57.6 265.797818 
L 414.72 265.797818 
" style="fill:none;stroke:#b0b0b0;stroke-linecap:square;stroke-width:0.8;"/>
     </g>
     <g id="line2d_22">
      <defs>
       <path d="M 0 0 
L -3.5 0 
" id="m60323ea5ae" style="stroke:#000000;stroke-width:0.8;"/>
      </defs>
      <g>
       <use style="stroke:#000000;stroke-width:0.8;" x="57.6" xlink:href="#m60323ea5ae" y="265.797818"/>
      </g>
     </g>
     <g id="text_12">
      <!-- 0 -->
      <g transform="translate(44.2375 269.597037)scale(0.1 -0.1)">
       <use xlink:href="#DejaVuSans-30"/>
      </g>
     </g>
    </g>
    <g id="ytick_2">
     <g id="line2d_23">
      <path clip-path="url(#p7fabac1e5f)" d="M 57.6 223.581883 
L 414.72 223.581883 
" style="fill:none;stroke:#b0b0b0;stroke-linecap:square;stroke-width:0.8;"/>
     </g>
     <g id="line2d_24">
      <g>
       <use style="stroke:#000000;stroke-width:0.8;" x="57.6" xlink:href="#m60323ea5ae" y="223.581883"/>
      </g>
     </g>
     <g id="text_13">
      <!-- 2000 -->
      <g transform="translate(25.15 227.381101)scale(0.1 -0.1)">
       <use xlink:href="#DejaVuSans-32"/>
       <use x="63.623047" xlink:href="#DejaVuSans-30"/>
       <use x="127.246094" xlink:href="#DejaVuSans-30"/>
       <use x="190.869141" xlink:href="#DejaVuSans-30"/>
      </g>
     </g>
    </g>
    <g id="ytick_3">
     <g id="line2d_25">
      <path clip-path="url(#p7fabac1e5f)" d="M 57.6 181.365947 
L 414.72 181.365947 
" style="fill:none;stroke:#b0b0b0;stroke-linecap:square;stroke-width:0.8;"/>
     </g>
     <g id="line2d_26">
      <g>
       <use style="stroke:#000000;stroke-width:0.8;" x="57.6" xlink:href="#m60323ea5ae" y="181.365947"/>
      </g>
     </g>
     <g id="text_14">
      <!-- 4000 -->
      <g transform="translate(25.15 185.165166)scale(0.1 -0.1)">
       <use xlink:href="#DejaVuSans-34"/>
       <use x="63.623047" xlink:href="#DejaVuSans-30"/>
       <use x="127.246094" xlink:href="#DejaVuSans-30"/>
       <use x="190.869141" xlink:href="#DejaVuSans-30"/>
      </g>
     </g>
    </g>
    <g id="ytick_4">
     <g id="line2d_27">
      <path clip-path="url(#p7fabac1e5f)" d="M 57.6 139.150012 
L 414.72 139.150012 
" style="fill:none;stroke:#b0b0b0;stroke-linecap:square;stroke-width:0.8;"/>
     </g>
     <g id="line2d_28">
      <g>
       <use style="stroke:#000000;stroke-width:0.8;" x="57.6" xlink:href="#m60323ea5ae" y="139.150012"/>
      </g>
     </g>
     <g id="text_15">
      <!-- 6000 -->
      <g transform="translate(25.15 142.94923)scale(0.1 -0.1)">
       <use xlink:href="#DejaVuSans-36"/>
       <use x="63.623047" xlink:href="#DejaVuSans-30"/>
       <use x="127.246094" xlink:href="#DejaVuSans-30"/>
       <use x="190.869141" xlink:href="#DejaVuSans-30"/>
      </g>
     </g>
    </g>
    <g id="ytick_5">
     <g id="line2d_29">
      <path clip-path="url(#p7fabac1e5f)" d="M 57.6 96.934076 
L 414.72 96.934076 
" style="fill:none;stroke:#b0b0b0;stroke-linecap:square;stroke-width:0.8;"/>
     </g>
     <g id="line2d_30">
      <g>
       <use style="stroke:#000000;stroke-width:0.8;" x="57.6" xlink:href="#m60323ea5ae" y="96.934076"/>
      </g>
     </g>
     <g id="text_16">
      <!-- 8000 -->
      <g transform="translate(25.15 100.733295)scale(0.1 -0.1)">
       <use xlink:href="#DejaVuSans-38"/>
       <use x="63.623047" xlink:href="#DejaVuSans-30"/>
       <use x="127.246094" xlink:href="#DejaVuSans-30"/>
       <use x="190.869141" xlink:href="#DejaVuSans-30"/>
      </g>
     </g>
    </g>
    <g id="ytick_6">
     <g id="line2d_31">
      <path clip-path="url(#p7fabac1e5f)" d="M 57.6 54.718141 
L 414.72 54.718141 
" style="fill:none;stroke:#b0b0b0;stroke-linecap:square;stroke-width:0.8;"/>
     </g>
     <g id="line2d_32">
      <g>
       <use style="stroke:#000000;stroke-width:0.8;" x="57.6" xlink:href="#m60323ea5ae" y="54.718141"/>
      </g>
     </g>
     <g id="text_17">
      <!-- 10000 -->
      <g transform="translate(18.7875 58.517359)scale(0.1 -0.1)">
       <use xlink:href="#DejaVuSans-31"/>
       <use x="63.623047" xlink:href="#DejaVuSans-30"/>
       <use x="127.246094" xlink:href="#DejaVuSans-30"/>
       <use x="190.869141" xlink:href="#DejaVuSans-30"/>
       <use x="254.492188" xlink:href="#DejaVuSans-30"/>
      </g>
     </g>
    </g>
    <g id="text_18">
     <!-- EUR -->
     <defs>
      <path d="M 9.8125 72.90625 
L 55.90625 72.90625 
L 55.90625 64.59375 
L 19.671875 64.59375 
L 19.671875 43.015625 
L 54.390625 43.015625 
L 54.390625 34.71875 
L 19.671875 34.71875 
L 19.671875 8.296875 
L 56.78125 8.296875 
L 56.78125 0 
L 9.8125 0 
z
" id="DejaVuSans-45"/>
      <path d="M 8.6875 72.90625 
L 18.609375 72.90625 
L 18.609375 28.609375 
Q 18.609375 16.890625 22.84375 11.734375 
Q 27.09375 6.59375 36.625 6.59375 
Q 46.09375 6.59375 50.34375 11.734375 
Q 54.59375 16.890625 54.59375 28.609375 
L 54.59375 72.90625 
L 64.5 72.90625 
L 64.5 27.390625 
Q 64.5 13.140625 57.4375 5.859375 
Q 50.390625 -1.421875 36.625 -1.421875 
Q 22.796875 -1.421875 15.734375 5.859375 
Q 8.6875 13.140625 8.6875 27.390625 
z
" id="DejaVuSans-55"/>
      <path d="M 44.390625 34.1875 
Q 47.5625 33.109375 50.5625 29.59375 
Q 53.5625 26.078125 56.59375 19.921875 
L 66.609375 0 
L 56 0 
L 46.6875 18.703125 
Q 43.0625 26.03125 39.671875 28.421875 
Q 36.28125 30.8125 30.421875 30.8125 
L 19.671875 30.8125 
L 19.671875 0 
L 9.8125 0 
L 9.8125 72.90625 
L 32.078125 72.90625 
Q 44.578125 72.90625 50.734375 67.671875 
Q 56.890625 62.453125 56.890625 51.90625 
Q 56.890625 45.015625 53.6875 40.46875 
Q 50.484375 35.9375 44.390625 34.1875 
z
M 19.671875 64.796875 
L 19.671875 38.921875 
L 32.078125 38.921875 
Q 39.203125 38.921875 42.84375 42.21875 
Q 46.484375 45.515625 46.484375 51.90625 
Q 46.484375 58.296875 42.84375 61.546875 
Q 39.203125 64.796875 32.078125 64.796875 
z
" id="DejaVuSans-52"/>
     </defs>
     <g transform="translate(12.707813 169.268969)rotate(-90)scale(0.1 -0.1)">
      <use xlink:href="#DejaVuSans-45"/>
      <use x="63.183594" xlink:href="#DejaVuSans-55"/>
      <use x="136.376953" xlink:href="#DejaVuSans-52"/>
     </g>
    </g>
   </g>
   <g id="line2d_33">
    <path clip-path="url(#p7fabac1e5f)" d="M 73.832727 265.797818 
L 117.215961 265.703364 
L 117.215961 265.687708 
L 117.215961 265.683427 
L 124.653087 265.533919 
L 124.653087 265.396423 
L 124.653087 265.396423 
L 127.132129 265.322982 
L 127.132129 265.290446 
L 127.132129 265.105258 
L 133.329734 264.950659 
L 133.329734 264.742501 
L 137.048297 264.627684 
L 137.048297 264.5936 
L 137.048297 264.5936 
L 143.245902 264.473424 
L 143.245902 264.451202 
L 146.964465 264.41156 
L 146.964465 264.342308 
L 146.964465 264.336332 
L 150.683028 264.22945 
L 150.683028 264.025175 
L 153.16207 263.916644 
L 153.16207 263.864945 
L 155.641112 263.746628 
L 155.641112 263.698647 
L 160.599196 263.586835 
L 160.599196 263.524472 
L 161.838717 263.411668 
L 161.838717 263.349928 
L 161.838717 263.349928 
L 164.317759 263.229229 
L 164.317759 263.229229 
L 164.317759 263.22866 
L 168.036322 263.117161 
L 168.036322 263.117161 
L 168.036322 263.093402 
L 172.994405 262.981811 
L 172.994405 262.952377 
L 181.671052 262.814227 
L 181.671052 262.79395 
L 186.629136 262.68133 
L 186.629136 262.68133 
L 186.629136 262.67869 
L 187.868657 262.567864 
L 187.868657 262.527185 
L 189.108178 262.415222 
L 189.108178 262.389863 
L 194.066262 262.267846 
L 194.066262 262.191468 
L 197.784825 262.066642 
L 197.784825 262.014482 
L 202.742909 261.936355 
L 202.742909 261.904989 
L 202.742909 261.664184 
L 206.461472 261.537075 
L 206.461472 261.318768 
L 212.659077 261.207236 
L 212.659077 261.186072 
L 220.096203 261.069475 
L 220.096203 261.003716 
L 225.054287 260.854112 
L 225.054287 260.755341 
L 225.054287 260.755341 
L 228.772849 260.635122 
L 228.772849 260.556721 
L 231.251891 260.435593 
L 231.251891 260.423433 
L 237.449496 260.291662 
L 237.449496 260.126344 
L 239.928538 260.015509 
L 239.928538 259.963945 
L 246.126143 259.804269 
L 246.126143 259.678684 
L 251.084227 259.526696 
L 251.084227 259.514187 
L 263.479437 259.395335 
L 263.479437 259.247962 
L 264.718958 259.132399 
L 264.718958 259.124757 
L 268.437521 258.990979 
L 268.437521 258.948157 
L 272.156084 258.821307 
L 272.156084 258.760494 
L 274.635126 258.654568 
L 274.635126 258.546635 
L 275.874647 258.435649 
L 275.874647 258.392137 
L 275.874647 258.392137 
L 280.832731 258.269848 
L 280.832731 258.269848 
L 280.832731 258.232367 
L 280.832731 258.232367 
L 282.072252 258.117868 
L 282.072252 258.006089 
L 285.790814 257.896255 
L 285.790814 257.879112 
L 294.467461 257.74915 
L 294.467461 257.723861 
L 298.186024 257.609376 
L 298.186024 257.524559 
L 298.186024 257.524559 
L 299.425545 257.447876 
L 299.425545 257.375853 
L 300.665066 257.259894 
L 300.665066 256.722166 
L 301.904587 256.592964 
L 301.904587 256.084815 
L 303.144108 256.084815 
L 303.144108 255.974926 
L 303.144108 255.865026 
L 306.862671 255.740054 
L 306.862671 254.956844 
L 308.102192 254.846467 
L 308.102192 254.797493 
L 309.341713 254.797493 
L 309.341713 254.740071 
L 309.341713 254.435867 
L 311.820755 254.323633 
L 311.820755 254.093254 
L 311.820755 254.093254 
L 315.539318 253.979503 
L 315.539318 253.731757 
L 316.778839 253.622185 
L 316.778839 253.475369 
L 318.01836 253.363378 
L 318.01836 253.102268 
L 319.257881 252.986509 
L 319.257881 252.523503 
L 320.497402 252.46251 
L 320.497402 252.239797 
L 324.215965 251.997962 
L 324.215965 251.921544 
L 325.455486 251.817664 
L 325.455486 251.59312 
L 327.934528 251.4759 
L 327.934528 251.473584 
L 332.892612 251.371192 
L 332.892612 251.274261 
L 335.371654 251.184686 
L 335.371654 251.085237 
L 336.611175 250.984436 
L 336.611175 250.742326 
L 337.850696 250.630336 
L 337.850696 250.594668 
L 341.569258 250.482209 
L 341.569258 250.482209 
L 341.569258 249.22533 
L 342.808779 249.113927 
L 342.808779 248.621299 
L 344.0483 248.511479 
L 344.0483 248.37582 
L 345.287821 248.37582 
L 345.287821 248.264831 
L 345.287821 248.105547 
L 346.527342 248.002699 
L 346.527342 247.936265 
L 350.245905 247.814664 
L 350.245905 247.814664 
L 350.245905 247.59756 
L 351.485426 247.486688 
L 351.485426 247.384201 
L 352.724947 247.271992 
L 352.724947 247.247852 
L 352.724947 247.247852 
L 353.964468 247.247852 
L 353.964468 247.151897 
L 353.964468 247.013797 
L 355.203989 246.902956 
L 355.203989 246.615386 
L 358.922552 246.48995 
L 358.922552 245.750127 
L 360.162073 245.750127 
L 360.162073 245.643637 
L 360.162073 245.555542 
L 361.401594 245.444505 
L 361.401594 245.401616 
L 363.880636 245.285432 
L 363.880636 245.143284 
L 367.599199 245.043894 
L 367.599199 244.928465 
L 370.078241 244.832262 
L 370.078241 244.819669 
L 370.078241 244.707321 
L 370.078241 244.707321 
L 373.796804 244.601907 
L 373.796804 244.514911 
L 376.275846 244.402978 
L 376.275846 244.237412 
L 376.275846 244.237412 
L 377.515367 244.129974 
L 377.515367 243.786102 
L 378.754888 243.676888 
L 378.754888 243.158038 
L 379.994409 243.055695 
L 379.994409 242.715115 
L 381.23393 242.604823 
L 381.23393 242.142743 
L 384.952493 242.030946 
L 384.952493 241.700047 
L 386.192014 241.587802 
L 386.192014 241.45349 
L 387.431535 241.346937 
L 387.431535 241.327896 
L 389.910577 241.216538 
L 389.910577 240.935362 
L 393.62914 240.830661 
L 393.62914 240.267988 
L 394.868661 240.15747 
L 394.868661 239.996994 
L 396.108181 239.996994 
L 396.108181 239.893012 
L 396.108181 239.524792 
L 397.347702 239.414034 
L 397.347702 239.370178 
L 397.347702 239.370178 
" style="fill:none;stroke:#0000ff;stroke-linecap:square;stroke-width:1.5;"/>
   </g>
   <g id="line2d_34">
    <path clip-path="url(#p7fabac1e5f)" d="M 73.832727 265.797818 
L 77.395418 265.713386 
L 77.594731 255.159402 
L 77.888084 255.307158 
L 78.064185 255.60267 
L 78.107568 255.961505 
L 78.814856 260.098667 
L 79.273751 260.79523 
L 79.417989 261.660657 
L 79.463438 261.892844 
L 79.605366 262.483867 
L 79.838149 263.243754 
L 80.416176 264.193613 
L 80.562135 264.278045 
L 80.659389 264.784636 
L 80.887395 264.869068 
L 81.055405 265.270119 
L 81.154968 265.375659 
L 81.80949 265.480941 
L 81.81035 223.265006 
L 81.906628 224.763672 
L 81.984242 225.396911 
L 82.092973 228.077622 
L 82.109729 231.032738 
L 82.217929 247.200947 
L 82.346802 249.522824 
L 82.526747 255.175598 
L 82.752673 255.382936 
L 82.886022 257.484929 
L 82.980392 257.563746 
L 83.096755 260.22335 
L 83.123669 260.497754 
L 83.433162 263.305113 
L 83.513314 263.093704 
L 83.542394 263.325892 
L 83.768593 264.064118 
L 84.384996 264.401846 
L 84.4265 264.950653 
L 84.60108 264.992869 
L 84.684447 265.161732 
L 84.847392 265.583892 
L 85.666738 265.689183 
L 85.792986 265.731399 
L 86.653965 265.76693 
L 86.809422 265.55445 
L 86.831544 265.638881 
L 86.861872 265.617487 
L 86.913662 265.744135 
L 90.826617 265.78635 
L 91.759586 265.572468 
L 91.765669 265.678008 
L 91.774076 265.741332 
L 93.00727 265.783548 
L 94.625806 265.591348 
L 94.637714 265.78132 
L 99.124579 265.760088 
L 99.124579 265.558421 
L 99.127577 265.769501 
L 99.399913 265.756643 
L 116.39805 265.783004 
L 116.39805 265.75455 
L 116.39805 265.716311 
L 116.41472 265.779635 
L 116.487226 265.767991 
L 116.610849 265.789099 
L 117.752097 265.785123 
L 118.282251 265.566175 
L 118.843335 265.545696 
L 118.843335 265.434903 
L 118.883662 265.540443 
L 121.826406 265.796747 
L 125.426196 265.722248 
L 125.460842 265.496837 
L 125.522947 265.602377 
L 125.5489 265.623485 
L 127.536279 265.478222 
L 127.585544 265.424048 
L 127.620965 265.439604 
L 127.99945 265.703947 
L 128.067494 265.591403 
L 128.112599 265.675835 
L 130.133047 265.765497 
L 130.187778 265.78463 
L 130.187778 265.778002 
L 133.742191 265.638776 
L 133.763237 265.590491 
L 133.827938 265.653815 
L 133.84557 265.653025 
L 134.475445 265.746683 
L 134.532887 265.767791 
L 136.458018 265.790086 
L 136.531887 256.79978 
L 136.623144 259.174105 
L 136.713999 264.174456 
L 137.643741 264.260755 
L 137.65803 263.732622 
L 137.681314 264.239213 
L 137.804907 264.260321 
L 137.887197 265.062424 
L 138.717031 265.059403 
L 138.768749 264.84293 
L 138.820396 265.073963 
L 139.078644 265.111094 
L 139.238835 265.593833 
L 139.238835 265.592383 
L 140.164258 265.605715 
L 140.327562 265.75347 
L 142.962232 265.640518 
L 143.033605 265.627763 
L 143.038612 265.691087 
L 151.123445 265.585307 
L 151.228962 265.505821 
L 151.435334 265.721713 
L 151.435334 265.700098 
L 151.638004 265.716242 
L 151.638004 265.712213 
L 151.638004 265.498368 
L 151.699593 265.709448 
L 152.217609 265.751664 
L 160.527708 265.751773 
L 160.553747 265.544588 
L 160.586485 265.692344 
L 161.048206 265.653916 
L 161.091719 265.558233 
L 161.151313 265.670143 
L 161.342636 265.712357 
L 161.342636 265.693293 
L 162.281329 265.580669 
L 162.326018 265.553644 
L 162.385053 265.701399 
L 162.399973 265.722507 
L 182.15831 265.7747 
L 182.25532 265.795263 
L 182.666787 265.786576 
L 182.769936 265.575497 
L 182.769936 265.226483 
L 182.789519 265.796398 
L 187.101417 265.743413 
L 187.215499 265.631142 
L 187.238725 265.75779 
L 187.479729 265.630438 
L 187.522796 265.156242 
L 187.522983 264.304789 
L 187.579823 265.33421 
L 187.865358 265.319938 
L 187.946113 265.553497 
L 188.25562 265.445848 
L 188.357579 265.387828 
L 188.758516 265.425248 
L 188.833877 265.413283 
L 188.859112 265.434391 
L 188.859758 265.433641 
L 189.486562 265.330672 
L 189.589827 265.30091 
L 189.925301 265.380286 
L 190.024147 265.780226 
L 190.054662 265.791496 
L 190.205613 265.391741 
L 190.223388 265.602821 
L 191.345973 265.562082 
L 191.425968 265.773161 
L 203.691099 265.669144 
L 203.691099 265.568103 
L 203.778368 265.671132 
L 203.789085 265.664636 
L 203.943265 265.662916 
L 204.023647 265.747347 
L 206.86281 265.635501 
L 206.898173 265.538719 
L 206.973506 265.652359 
L 207.024077 265.736791 
L 208.587279 265.7712 
L 208.839889 265.780908 
L 208.839889 265.776736 
L 225.457432 265.661873 
L 225.457432 265.634733 
L 225.562418 265.733996 
L 235.505729 265.767518 
L 235.510392 265.788626 
L 237.873215 265.674284 
L 237.906555 265.581084 
L 237.982117 265.652729 
L 239.222843 265.731618 
L 239.424983 265.789401 
L 239.424983 265.787735 
L 244.270047 265.794131 
L 246.527955 265.685789 
L 246.527955 265.595987 
L 246.637905 265.669761 
L 246.806216 265.719549 
L 246.806216 265.719103 
L 255.45242 265.778471 
L 255.526188 263.673374 
L 255.596198 264.510043 
L 257.087813 264.530128 
L 257.759148 264.527472 
L 258.015976 265.79395 
L 258.042961 264.527472 
L 259.052496 264.518027 
L 259.286255 264.771322 
L 259.305895 265.784505 
L 263.900386 265.673225 
L 263.973954 265.646023 
L 264.004325 265.688238 
L 264.128249 265.701739 
L 264.128249 265.699869 
L 264.231011 265.672621 
L 265.224751 265.773537 
L 265.36678 265.773686 
L 275.126444 265.688026 
L 275.177029 265.595726 
L 275.232492 265.637289 
L 275.489104 265.629752 
L 275.541066 265.415995 
L 275.570591 265.652404 
L 276.295438 265.539326 
L 276.341533 265.454827 
L 276.392577 265.487178 
L 276.447609 265.519906 
L 276.54515 265.737732 
L 276.727248 265.686316 
L 279.204783 265.765697 
L 279.296757 265.786805 
L 282.48247 265.677342 
L 282.48247 265.570976 
L 282.586007 265.630433 
L 284.042559 265.706194 
L 284.300979 265.744631 
L 284.300979 265.743468 
L 294.121184 265.656355 
L 294.121184 265.709296 
L 294.125847 265.125733 
L 294.128888 265.704956 
L 294.33077 265.69555 
L 294.339263 265.390325 
L 294.343538 265.706945 
L 295.517812 265.632593 
L 295.548499 264.679625 
L 295.54857 264.426404 
L 295.553635 265.642968 
L 295.569028 265.642142 
L 296.538939 265.708408 
L 296.53924 261.972386 
L 296.638689 265.777098 
L 296.642505 265.71489 
L 296.689719 265.758889 
L 296.689719 265.739819 
L 296.695242 263.90134 
L 296.700263 265.789194 
L 296.701741 265.586352 
L 296.817487 265.194935 
L 296.883638 265.793768 
L 296.886234 264.877646 
L 296.886321 263.46528 
L 296.961567 265.797083 
L 297.006141 265.554238 
L 297.017489 265.793559 
L 298.579558 265.689569 
L 298.579558 265.59181 
L 298.688461 265.797071 
L 298.724599 265.796634 
L 298.752746 213.026715 
L 298.845524 226.52633 
L 298.858507 226.741589 
L 298.962934 239.890201 
L 298.975932 240.124861 
L 299.093443 250.794839 
L 299.095422 251.721452 
L 299.197324 264.527835 
L 300.203718 264.614131 
L 300.203861 265.784612 
L 300.262566 265.782235 
L 301.055444 265.687878 
L 301.107836 213.025236 
L 301.066978 265.795156 
L 301.15845 217.797078 
L 301.171462 218.013372 
L 301.27619 225.525857 
L 301.289217 225.762643 
L 301.39383 232.385937 
L 301.406799 232.354397 
L 301.406813 232.484025 
L 301.524683 248.697973 
L 301.537709 249.65733 
L 301.563891 251.280541 
L 301.574923 240.726557 
L 301.642279 249.771237 
L 301.655306 250.360926 
L 301.655349 250.956997 
L 301.661919 240.347922 
L 301.75989 250.343054 
L 301.772874 250.494471 
L 301.877487 259.019043 
L 301.890513 259.977532 
L 301.982 265.781153 
L 302.288667 265.670162 
L 302.288667 265.365455 
L 302.38701 265.793708 
L 302.642117 265.686338 
L 302.649907 261.559355 
L 302.740174 265.797516 
L 302.744635 265.776541 
L 303.000803 265.781116 
L 303.000803 265.779099 
L 303.000803 265.760526 
L 303.0103 265.782901 
L 303.10424 265.777345 
L 303.853476 265.680789 
L 303.853476 265.659322 
L 303.860104 265.793569 
L 303.956281 265.780073 
L 304.189595 265.794631 
L 307.265286 265.676203 
L 307.265286 265.374903 
L 307.273406 265.78515 
L 307.362941 265.779646 
L 313.900008 265.779479 
L 315.217301 265.772141 
L 315.217301 265.751105 
L 315.217301 265.707729 
L 315.280238 265.796965 
L 315.296808 265.795408 
L 315.948805 265.685466 
L 315.948805 265.643166 
L 315.956336 265.770332 
L 316.029173 265.76011 
L 316.361663 265.721329 
L 316.361663 265.50669 
L 316.466348 265.742138 
L 316.487207 265.763046 
L 316.487207 265.692737 
L 316.51293 265.502728 
L 316.571836 265.756385 
L 316.58799 265.754967 
L 316.637929 265.776447 
L 316.637929 265.775874 
L 317.159619 265.64534 
L 317.159619 265.566689 
L 317.26373 265.792367 
L 318.396772 265.674335 
L 318.396772 265.558996 
L 318.492319 265.79366 
L 319.648057 265.61853 
L 319.648057 265.365079 
L 319.655862 265.790243 
L 319.747406 265.747736 
L 320.458538 265.758996 
L 320.874222 265.393422 
L 320.874222 265.282101 
L 320.898152 265.748925 
L 320.980299 265.701575 
L 321.079489 265.768088 
L 321.079489 265.764824 
L 321.131322 265.764336 
L 321.131322 264.464477 
L 321.146658 265.775243 
L 321.235075 265.752383 
L 321.388752 265.71359 
L 321.388752 265.706931 
L 321.388752 265.703249 
L 321.45816 265.769689 
L 321.490468 265.765077 
L 321.593689 265.772942 
L 324.703739 265.674365 
L 324.703739 265.647568 
L 324.80732 265.766932 
L 324.808553 265.745496 
L 325.065883 265.775866 
L 325.065883 265.767805 
L 327.619038 265.670787 
L 327.619038 265.435222 
L 327.644345 265.78372 
L 327.648003 265.782608 
L 334.495955 265.791838 
L 334.495955 265.70568 
L 334.495955 265.656014 
L 334.548477 265.783116 
L 334.574558 265.782527 
L 335.037284 265.673015 
L 335.037284 265.669872 
L 335.071428 265.737886 
L 335.967413 265.782573 
L 335.967413 265.464909 
L 336.066503 265.788154 
L 336.995498 265.666543 
L 336.995498 265.494141 
L 337.092163 265.785252 
L 341.963222 265.626922 
L 341.963222 264.913208 
L 342.050147 265.789237 
L 342.072125 265.76665 
L 342.155893 265.731658 
L 342.168088 265.795802 
L 342.530447 265.684923 
L 342.530447 265.624636 
L 342.565021 265.797055 
L 342.630656 265.795001 
L 343.184509 265.685975 
L 343.184509 265.520546 
L 343.28403 265.784049 
L 344.002148 265.786583 
L 344.425164 265.569515 
L 344.53147 265.782337 
L 344.724614 265.766065 
L 344.749505 265.559737 
L 344.779833 265.797309 
L 344.828352 265.779584 
L 345.106455 265.786429 
L 346.216444 265.692482 
L 346.216444 265.533467 
L 346.225769 265.78696 
L 346.26502 265.782655 
L 347.659553 265.730977 
L 347.659567 265.186645 
L 347.66674 265.782454 
L 350.667099 265.782177 
L 350.667099 265.704588 
L 350.667099 265.699223 
L 350.674788 265.795256 
L 350.778196 265.777462 
L 354.389836 265.714603 
L 354.389851 265.776094 
L 354.467335 265.797286 
L 354.468411 265.778252 
L 355.602558 265.668341 
L 355.602558 265.438285 
L 355.615986 265.797657 
L 355.70753 265.78044 
L 355.905352 265.751303 
L 355.905352 265.641979 
L 355.916857 265.790339 
L 355.999305 265.78484 
L 356.296145 265.796541 
L 357.015211 265.796994 
L 357.019644 265.598425 
L 357.072926 265.782844 
L 359.31511 265.781742 
L 359.31511 265.694852 
L 359.315125 265.193217 
L 359.331063 265.795387 
L 359.422564 265.770123 
L 359.564119 265.790345 
L 359.462475 265.6633 
L 359.564119 265.790317 
L 359.564119 265.761725 
L 359.617559 265.779534 
L 361.064929 265.677295 
L 361.064929 265.662711 
L 361.071773 265.78955 
L 361.114352 265.78432 
L 364.283739 265.671432 
L 364.283739 265.620307 
L 364.348383 265.79688 
L 364.387893 265.790042 
L 369.414021 265.778888 
L 369.488565 265.595174 
L 369.492036 265.788289 
L 370.805986 265.780461 
L 370.805986 265.768541 
L 370.805986 265.637028 
L 370.813116 265.786768 
L 370.90915 265.779568 
L 376.662005 265.662007 
L 376.662005 265.631109 
L 376.765098 265.797067 
L 377.491968 265.787837 
L 377.923935 265.678946 
L 377.923935 265.447511 
L 377.943532 265.792302 
L 378.021978 265.792218 
L 379.141492 265.6718 
L 379.141492 265.267723 
L 379.148378 265.781299 
L 379.233997 265.769009 
L 379.510895 265.721968 
L 379.588566 265.465362 
L 379.593817 265.555756 
L 379.794263 265.551603 
L 379.971096 265.686077 
L 380.373883 265.585799 
L 380.373883 265.415453 
L 380.470505 265.683144 
L 380.625058 265.692843 
L 380.625058 265.676931 
L 380.625058 265.658124 
L 380.732039 265.712098 
L 380.882876 265.762897 
L 380.882876 265.740251 
L 380.934235 265.720191 
L 380.88586 265.759144 
L 380.985251 265.739436 
L 381.614179 265.63016 
L 381.679469 265.370808 
L 381.684217 265.708535 
L 381.722149 265.692055 
L 381.864321 265.589045 
L 381.968389 265.416658 
L 381.973869 265.437766 
L 382.01622 265.458475 
L 382.01622 265.361567 
L 382.07207 265.381564 
L 382.07207 265.366306 
L 382.085541 265.42963 
L 382.173584 265.379031 
L 382.325483 265.58809 
L 382.325483 265.584947 
L 382.944167 265.623388 
L 383.076842 265.750036 
L 385.336988 265.638136 
L 385.410097 265.577801 
L 386.609118 265.469232 
L 386.704794 265.422059 
L 386.840754 265.529622 
L 387.001016 265.628201 
L 389.181956 265.597919 
L 389.36645 265.702652 
L 389.36645 265.70201 
L 390.310336 265.612776 
L 390.41736 265.504365 
L 390.468318 265.54589 
L 390.572329 265.69895 
L 393.39046 265.774473 
L 393.441834 265.795515 
L 393.441834 265.793357 
L 394.040706 265.68434 
L 394.064736 265.374137 
L 394.160455 265.458569 
L 394.163052 265.690757 
L 394.295253 265.578678 
L 394.399005 265.551329 
L 394.680537 265.455033 
L 394.78429 265.221642 
L 395.252152 265.110183 
L 395.361241 264.995456 
L 395.39243 265.333183 
L 395.465467 265.318505 
L 396.512245 265.211167 
L 396.612641 264.861533 
L 396.618465 264.967073 
L 396.808583 265.040042 
L 397.143899 265.113809 
L 397.309125 265.3873 
L 397.763932 265.353287 
L 398.022983 265.73288 
L 398.048276 265.753592 
L 398.048276 265.622786 
L 398.048276 265.601868 
L 398.063971 265.749624 
L 398.125057 265.743031 
L 398.487273 265.752048 
L 398.487273 265.752048 
" style="fill:none;stroke:#ff0000;stroke-linecap:square;stroke-width:1.5;"/>
   </g>
   <g id="line2d_35">
    <path clip-path="url(#p7fabac1e5f)" d="M 73.832727 265.797818 
L 77.55129 265.67117 
L 77.55129 260.985202 
L 78.790811 260.774122 
L 78.790811 257.354631 
L 80.030332 257.206875 
L 80.030332 255.687102 
L 81.269853 255.476022 
L 81.269853 244.647634 
L 81.269853 245.00647 
L 82.101623 244.79539 
L 82.129828 227.909016 
L 82.403843 227.697936 
L 82.509374 216.261579 
L 82.509374 216.580332 
L 82.752673 216.372993 
L 82.857602 215.115319 
L 83.748895 214.7987 
L 83.748895 213.490006 
L 84.988416 213.13117 
L 84.988416 213.088954 
L 84.988416 213.089231 
L 86.227937 212.983691 
L 86.227937 212.793719 
L 86.227937 213.112186 
L 91.186021 212.922215 
L 91.186021 212.901107 
L 91.186021 213.112186 
L 93.665063 213.048862 
L 93.665063 212.858891 
L 93.665063 213.06997 
L 98.623147 212.858891 
L 98.623147 212.879999 
L 98.623147 213.091078 
L 117.215961 212.970964 
L 117.215961 212.974618 
L 117.215961 213.187367 
L 118.455482 213.081827 
L 118.455482 212.828532 
L 118.455482 212.936462 
L 119.695003 212.809814 
L 119.695003 212.788706 
L 119.695003 212.927434 
L 120.934524 212.800786 
L 120.934524 212.779678 
L 120.934524 212.828447 
L 124.653087 212.705445 
L 124.653087 212.557689 
L 124.653087 212.854916 
L 125.892608 212.728268 
L 125.892608 212.686052 
L 125.892608 212.73775 
L 127.132129 212.611102 
L 127.132129 212.252267 
L 127.132129 212.499537 
L 128.37165 212.372889 
L 128.37165 212.309565 
L 128.37165 212.358144 
L 129.611171 212.231496 
L 129.611171 212.147064 
L 129.611171 212.320065 
L 133.329734 212.154554 
L 133.329734 211.922366 
L 133.329734 212.044825 
L 135.808776 211.905146 
L 135.808776 208.823383 
L 135.808776 208.835529 
L 136.622398 208.624449 
L 136.641335 204.46618 
L 137.048297 204.381748 
L 137.048297 203.073054 
L 137.048297 203.624976 
L 138.287818 203.519436 
L 138.287818 202.970629 
L 138.287818 203.190902 
L 140.76686 202.918539 
L 142.006381 202.791891 
L 142.006381 202.728568 
L 142.006381 202.927891 
L 144.485423 202.767558 
L 144.485423 202.869976 
L 144.485423 202.89158 
L 145.724944 202.764933 
L 145.724944 202.743825 
L 145.724944 202.794465 
L 145.724944 202.794465 
L 146.964465 202.667817 
L 146.964465 202.646709 
L 146.964465 202.68699 
L 150.683028 202.518329 
L 150.683028 202.159494 
L 150.683028 202.416644 
L 153.16207 202.283756 
L 153.16207 202.199324 
L 153.16207 202.205875 
L 155.641112 202.06718 
L 155.641112 202.024965 
L 155.641112 202.054326 
L 159.359675 201.907514 
L 159.359675 201.759759 
L 159.359675 202.019842 
L 160.599196 201.893194 
L 160.599196 201.787654 
L 160.599196 201.900735 
L 161.838717 201.774087 
L 161.838717 201.668547 
L 161.838717 201.75386 
L 164.317759 201.606641 
L 164.317759 201.543317 
L 164.317759 201.595667 
L 169.275843 201.408122 
L 169.275843 201.387014 
L 169.275843 201.392781 
L 181.671052 201.140018 
L 181.671052 200.570103 
L 181.671052 201.119577 
L 186.629136 201.059247 
L 186.629136 201.038139 
L 186.629136 200.742627 
L 186.629136 200.889239 
L 187.479729 201.011567 
L 187.522796 201.506882 
L 187.522983 202.358324 
L 187.523356 201.514005 
L 187.865358 201.508337 
L 187.868657 201.234216 
L 187.868657 201.26685 
L 189.108178 201.140202 
L 189.108178 200.506963 
L 189.108178 200.959389 
L 190.347699 200.917173 
L 190.347699 200.706094 
L 190.347699 200.72615 
L 194.066262 200.687562 
L 194.066262 200.624238 
L 194.066262 200.560914 
L 194.066262 200.59641 
L 196.545304 200.449617 
L 196.545304 200.428509 
L 196.545304 200.455717 
L 201.503388 200.318816 
L 201.503388 200.32279 
L 202.742909 200.111711 
L 202.742909 199.921739 
L 202.742909 200.089183 
L 206.461472 199.929038 
L 206.461472 199.696851 
L 206.461472 199.781768 
L 215.138119 199.527851 
L 215.138119 199.485635 
L 215.138119 199.53337 
L 223.814766 199.287185 
L 223.814766 199.266077 
L 223.814766 199.328781 
L 225.054287 199.202133 
L 225.054287 199.181025 
L 225.054287 199.211144 
L 228.772849 199.045511 
L 228.772849 199.003295 
L 228.772849 199.043013 
L 231.251891 198.908389 
L 231.251891 198.866173 
L 231.251891 198.896552 
L 233.730933 198.76187 
L 233.730933 198.740763 
L 233.730933 198.766403 
L 237.449496 198.598226 
L 237.449496 198.492686 
L 237.449496 198.605066 
L 238.689017 198.478418 
L 238.689017 198.45731 
L 238.689017 198.503256 
L 241.168059 198.38022 
L 241.168059 198.295789 
L 241.168059 198.358856 
L 246.126143 198.1749 
L 246.126143 198.111576 
L 246.126143 198.173621 
L 249.844706 198.031962 
L 249.844706 197.968638 
L 249.844706 198.021041 
L 254.80279 197.920449 
L 254.80279 197.055022 
L 254.80279 197.198015 
L 257.281832 197.146343 
L 257.281832 197.146745 
L 257.281832 198.413223 
L 258.521353 198.392115 
L 258.521353 197.125637 
L 258.521353 197.146035 
L 263.479437 196.956888 
L 263.479437 196.93578 
L 263.479437 196.99726 
L 267.198 196.823976 
L 267.198 196.697328 
L 267.198 196.727953 
L 272.156084 196.559056 
L 272.156084 196.51684 
L 272.156084 196.585412 
L 274.635126 196.438743 
L 274.635126 196.396528 
L 274.635126 196.63922 
L 275.874647 196.385925 
L 275.874647 196.090413 
L 275.874647 196.324124 
L 277.114168 196.289756 
L 277.114168 196.24754 
L 277.114168 196.120893 
L 277.114168 196.272266 
L 278.353689 196.145742 
L 278.353689 196.103526 
L 278.353689 196.107241 
L 282.072252 195.938833 
L 282.072252 195.854401 
L 282.072252 195.903887 
L 284.551293 195.764348 
L 284.551293 195.701024 
L 284.551293 195.714737 
L 293.22794 195.51543 
L 293.22794 195.198811 
L 293.22794 195.354326 
L 294.121184 195.343799 
L 294.124986 195.914597 
L 294.128888 195.409678 
L 294.339263 195.714903 
L 294.467461 195.693795 
L 294.467461 195.716288 
L 295.285344 195.762382 
L 295.546677 195.964143 
L 295.54857 196.968571 
L 295.553635 195.823697 
L 296.538939 195.758691 
L 296.53924 199.494713 
L 296.642505 196.282973 
L 296.671169 196.219896 
L 296.689733 196.359114 
L 296.695242 198.131062 
L 296.690952 196.251874 
L 296.701741 196.518863 
L 296.817487 196.91028 
L 296.883638 196.340365 
L 296.886234 197.236124 
L 296.886321 198.668853 
L 296.961567 196.429261 
L 297.006141 196.672107 
L 297.017489 196.440166 
L 298.186024 195.975791 
L 298.186024 194.350477 
L 298.186024 194.37978 
L 298.58412 194.255555 
L 298.688461 194.171797 
L 298.753966 194.108843 
L 298.858579 179.915029 
L 298.871534 179.872997 
L 298.975975 169.830553 
L 298.988987 169.598365 
L 299.09954 149.281992 
L 299.145046 149.239184 
L 299.197324 145.602174 
L 299.25042 145.642605 
L 299.262686 145.600389 
L 299.916117 145.525075 
L 300.203718 145.370842 
L 300.203861 144.317262 
L 300.413002 144.251615 
L 300.665066 142.985137 
L 300.665066 143.058947 
L 301.066921 142.951403 
L 301.17162 136.805933 
L 301.197716 135.688595 
L 301.302344 129.492021 
L 301.31537 129.259834 
L 301.420026 121.2944 
L 301.433024 121.083441 
L 301.537752 106.397116 
L 301.55075 106.376131 
L 301.655349 96.500957 
L 301.668375 96.29048 
L 301.772945 84.955158 
L 301.785986 84.555585 
L 301.890556 77.47309 
L 301.903583 77.241629 
L 301.982 72.28659 
L 302.295553 72.162088 
L 302.38701 71.809602 
L 302.64873 71.643432 
L 302.787516 67.740509 
L 303.144108 67.698352 
L 303.144108 67.780006 
L 303.144108 67.933358 
L 303.860061 67.745039 
L 303.886243 67.639559 
L 304.043062 67.526232 
L 304.095311 67.484016 
L 305.62315 67.411511 
L 307.273348 67.242099 
L 307.273406 67.074194 
L 307.417228 66.951137 
L 307.626598 66.715375 
L 309.82395 66.319376 
L 309.928563 66.171925 
L 311.820755 66.065362 
L 311.820755 66.2116 
L 311.820755 66.2414 
L 312.491388 66.133081 
L 312.726653 65.837367 
L 315.539318 65.790518 
L 315.539318 65.933858 
L 315.539318 66.483733 
L 316.335667 66.237114 
L 316.518726 65.532537 
L 318.01836 65.180189 
L 318.01836 65.20899 
L 318.400818 65.102278 
L 318.492319 64.955666 
L 318.805958 64.914 
L 318.910614 64.871905 
L 319.257881 64.981307 
L 319.257881 65.078565 
L 319.342079 65.07332 
L 319.655862 64.862843 
L 319.747406 64.623275 
L 319.891141 64.357954 
L 320.497402 64.320122 
L 320.497402 64.362316 
L 320.497402 65.997246 
L 320.884982 65.787401 
L 320.989552 65.514543 
L 321.041902 65.472707 
L 321.133445 65.053681 
L 321.146658 64.174919 
L 322.231842 64.051227 
L 324.846499 63.87489 
L 325.042441 63.770313 
L 326.00977 63.59233 
L 326.415325 63.445931 
L 326.695007 63.544103 
L 326.695007 63.817031 
L 326.716139 63.802703 
L 327.631204 63.688358 
L 327.644345 63.376237 
L 329.566506 63.28927 
L 329.67112 63.247175 
L 334.132133 63.126879 
L 334.132133 63.30169 
L 334.132133 63.425855 
L 334.132133 63.425855 
L 334.548477 63.300835 
L 334.574558 63.25874 
L 335.176056 63.148457 
L 335.267557 63.086381 
L 335.371654 63.075101 
L 335.371654 63.079461 
L 335.371654 63.440534 
L 335.974945 63.334355 
L 336.066503 63.063822 
L 336.611175 62.954992 
L 336.611175 63.003725 
L 337.223088 62.690103 
L 341.569258 62.48314 
L 341.569258 62.514039 
L 341.569258 62.86039 
L 341.971515 62.776326 
L 342.076243 61.773384 
L 342.538796 61.277573 
L 342.565021 61.217246 
L 343.192457 61.091239 
L 343.28403 60.987794 
L 343.911537 60.611759 
L 344.0483 60.611759 
L 344.0483 60.61241 
L 344.0483 61.145944 
L 344.75368 60.683702 
L 344.819027 60.472138 
L 345.287821 60.394648 
L 345.287821 60.46096 
L 345.287821 60.696864 
L 345.287821 60.696864 
L 345.833053 60.560076 
L 345.898458 60.476092 
L 346.225697 60.319188 
L 346.26502 60.151584 
L 346.527342 60.132283 
L 346.527342 60.202133 
L 346.527342 60.731062 
L 347.535917 60.574808 
L 347.666683 60.452815 
L 347.66674 59.99306 
L 347.766863 59.993345 
L 350.910182 59.865936 
L 351.485426 59.670784 
L 351.485426 59.683912 
L 351.485426 59.71225 
L 351.878113 59.589733 
L 352.205324 59.487429 
L 352.724947 59.430004 
L 352.724947 59.527894 
L 352.724947 59.639899 
L 353.408592 59.546928 
L 353.408606 59.412178 
L 354.389851 59.303719 
L 354.599264 59.244281 
L 354.795622 59.157834 
L 355.203989 59.115477 
L 355.203989 59.135536 
L 355.203989 59.324582 
L 355.602802 59.189597 
L 355.70753 58.953667 
L 356.44351 58.729485 
L 356.44351 58.734967 
L 356.44351 58.947084 
L 357.015211 58.941778 
L 357.054462 58.75387 
L 358.922552 58.736096 
L 358.922552 58.820112 
L 359.474842 58.095609 
L 359.566343 58.011947 
L 362.157444 57.668734 
L 362.641115 57.60598 
L 362.641115 57.669902 
L 362.641115 57.691137 
L 364.662524 57.481734 
L 364.950067 57.384691 
L 368.090029 57.274113 
L 368.83872 57.168866 
L 368.83872 57.178117 
L 368.83872 57.378477 
L 368.863812 57.374995 
L 369.491965 57.241192 
L 369.544329 57.115246 
L 370.078241 57.078275 
L 370.078241 57.116917 
L 370.078241 57.224195 
L 370.145898 57.223754 
L 370.813059 57.11659 
L 370.865308 57.018356 
L 371.317762 56.974709 
L 371.317762 56.992156 
L 372.557283 56.914425 
L 372.557283 56.787777 
L 372.557283 56.922907 
L 376.275846 56.727326 
L 376.275846 56.768206 
L 376.275846 56.962268 
L 377.393452 56.570135 
L 377.393466 56.528303 
L 377.930477 56.374931 
L 378.021978 56.206766 
L 378.754888 56.032774 
L 378.754888 55.821694 
L 378.754888 56.295569 
L 379.148335 56.169111 
L 379.148378 55.789168 
L 379.515256 55.67957 
L 380.37899 55.351502 
L 380.470505 55.252472 
L 381.23393 54.499512 
L 381.23393 54.351757 
L 381.23393 54.655025 
L 382.473451 54.633917 
L 382.473451 54.486161 
L 382.473451 54.488371 
L 384.952493 54.301045 
L 384.952493 54.005534 
L 384.952493 54.266968 
L 386.192014 54.182536 
L 386.192014 53.844808 
L 386.192014 53.892816 
L 387.431535 53.787276 
L 387.431535 53.639521 
L 387.431535 53.824004 
L 388.671056 53.739572 
L 388.671056 53.591816 
L 388.671056 53.604879 
L 389.910577 53.520447 
L 389.910577 53.330476 
L 389.910577 53.409864 
L 392.389619 53.260525 
L 392.389619 53.239417 
L 392.389619 53.240182 
L 393.62914 52.902454 
L 393.62914 52.881346 
L 393.62914 53.160761 
L 394.868661 52.780817 
L 394.868661 52.808529 
L 396.108181 52.597449 
L 396.108181 52.154182 
L 396.108181 52.251906 
L 397.347702 52.346067 
L 397.347702 52.429107 
L 397.347702 52.429107 
" style="fill:none;stroke:#008000;stroke-linecap:square;stroke-width:1.5;"/>
   </g>
   <g id="line2d_36">
    <defs>
     <path d="M 0 3 
C 0.795609 3 1.55874 2.683901 2.12132 2.12132 
C 2.683901 1.55874 3 0.795609 3 0 
C 3 -0.795609 2.683901 -1.55874 2.12132 -2.12132 
C 1.55874 -2.683901 0.795609 -3 0 -3 
C -0.795609 -3 -1.55874 -2.683901 -2.12132 -2.12132 
C -2.683901 -1.55874 -3 -0.795609 -3 0 
C -3 0.795609 -2.683901 1.55874 -2.12132 2.12132 
C -1.55874 2.683901 -0.795609 3 0 3 
z
" id="mc1949d5fa0" style="stroke:#bfbf00;"/>
    </defs>
    <g clip-path="url(#p7fabac1e5f)">
     <use style="fill:#bfbf00;stroke:#bfbf00;" x="77.594731" xlink:href="#mc1949d5fa0" y="255.243834"/>
     <use style="fill:#bfbf00;stroke:#bfbf00;" x="81.81035" xlink:href="#mc1949d5fa0" y="223.581883"/>
     <use style="fill:#bfbf00;stroke:#bfbf00;" x="298.752746" xlink:href="#mc1949d5fa0" y="213.027899"/>
     <use style="fill:#bfbf00;stroke:#bfbf00;" x="301.107836" xlink:href="#mc1949d5fa0" y="213.027899"/>
     <use style="fill:#bfbf00;stroke:#bfbf00;" x="301.574923" xlink:href="#mc1949d5fa0" y="255.243834"/>
     <use style="fill:#bfbf00;stroke:#bfbf00;" x="301.661919" xlink:href="#mc1949d5fa0" y="255.243834"/>
     <use style="fill:#bfbf00;stroke:#bfbf00;" x="302.649907" xlink:href="#mc1949d5fa0" y="261.576225"/>
    </g>
   </g>
   <g id="line2d_37">
    <defs>
     <path d="M 0 3 
C 0.795609 3 1.55874 2.683901 2.12132 2.12132 
C 2.683901 1.55874 3 0.795609 3 0 
C 3 -0.795609 2.683901 -1.55874 2.12132 -2.12132 
C 1.55874 -2.683901 0.795609 -3 0 -3 
C -0.795609 -3 -1.55874 -2.683901 -2.12132 -2.12132 
C -2.683901 -1.55874 -3 -0.795609 -3 0 
C -3 0.795609 -2.683901 1.55874 -2.12132 2.12132 
C -1.55874 2.683901 -0.795609 3 0 3 
z
" id="m1352066677" style="stroke:#008000;"/>
    </defs>
    <g clip-path="url(#p7fabac1e5f)">
     <use style="fill:#008000;stroke:#008000;" x="136.531887" xlink:href="#m1352066677" y="256.807513"/>
     <use style="fill:#008000;stroke:#008000;" x="255.526188" xlink:href="#m1352066677" y="263.692721"/>
    </g>
   </g>
   <g id="patch_3">
    <path d="M 57.6 276.48 
L 57.6 41.472 
" style="fill:none;stroke:#000000;stroke-linecap:square;stroke-linejoin:miter;stroke-width:0.8;"/>
   </g>
   <g id="patch_4">
    <path d="M 414.72 276.48 
L 414.72 41.472 
" style="fill:none;stroke:#000000;stroke-linecap:square;stroke-linejoin:miter;stroke-width:0.8;"/>
   </g>
   <g id="patch_5">
    <path d="M 57.6 276.48 
L 414.72 276.48 
" style="fill:none;stroke:#000000;stroke-linecap:square;stroke-linejoin:miter;stroke-width:0.8;"/>
   </g>
   <g id="patch_6">
    <path d="M 57.6 41.472 
L 414.72 41.472 
" style="fill:none;stroke:#000000;stroke-linecap:square;stroke-linejoin:miter;stroke-width:0.8;"/>
   </g>
   <g id="text_19">
    <!-- My Bondora earnings -->
    <defs>
     <path d="M 9.8125 72.90625 
L 24.515625 72.90625 
L 43.109375 23.296875 
L 61.8125 72.90625 
L 76.515625 72.90625 
L 76.515625 0 
L 66.890625 0 
L 66.890625 64.015625 
L 48.09375 14.015625 
L 38.1875 14.015625 
L 19.390625 64.015625 
L 19.390625 0 
L 9.8125 0 
z
" id="DejaVuSans-4d"/>
     <path d="M 32.171875 -5.078125 
Q 28.375 -14.84375 24.75 -17.8125 
Q 21.140625 -20.796875 15.09375 -20.796875 
L 7.90625 -20.796875 
L 7.90625 -13.28125 
L 13.1875 -13.28125 
Q 16.890625 -13.28125 18.9375 -11.515625 
Q 21 -9.765625 23.484375 -3.21875 
L 25.09375 0.875 
L 2.984375 54.6875 
L 12.5 54.6875 
L 29.59375 11.921875 
L 46.6875 54.6875 
L 56.203125 54.6875 
z
" id="DejaVuSans-79"/>
     <path id="DejaVuSans-20"/>
     <path d="M 19.671875 34.8125 
L 19.671875 8.109375 
L 35.5 8.109375 
Q 43.453125 8.109375 47.28125 11.40625 
Q 51.125 14.703125 51.125 21.484375 
Q 51.125 28.328125 47.28125 31.5625 
Q 43.453125 34.8125 35.5 34.8125 
z
M 19.671875 64.796875 
L 19.671875 42.828125 
L 34.28125 42.828125 
Q 41.5 42.828125 45.03125 45.53125 
Q 48.578125 48.25 48.578125 53.8125 
Q 48.578125 59.328125 45.03125 62.0625 
Q 41.5 64.796875 34.28125 64.796875 
z
M 9.8125 72.90625 
L 35.015625 72.90625 
Q 46.296875 72.90625 52.390625 68.21875 
Q 58.5 63.53125 58.5 54.890625 
Q 58.5 48.1875 55.375 44.234375 
Q 52.25 40.28125 46.1875 39.3125 
Q 53.46875 37.75 57.5 32.78125 
Q 61.53125 27.828125 61.53125 20.40625 
Q 61.53125 10.640625 54.890625 5.3125 
Q 48.25 0 35.984375 0 
L 9.8125 0 
z
" id="DejaVuSans-42"/>
     <path d="M 30.609375 48.390625 
Q 23.390625 48.390625 19.1875 42.75 
Q 14.984375 37.109375 14.984375 27.296875 
Q 14.984375 17.484375 19.15625 11.84375 
Q 23.34375 6.203125 30.609375 6.203125 
Q 37.796875 6.203125 41.984375 11.859375 
Q 46.1875 17.53125 46.1875 27.296875 
Q 46.1875 37.015625 41.984375 42.703125 
Q 37.796875 48.390625 30.609375 48.390625 
z
M 30.609375 56 
Q 42.328125 56 49.015625 48.375 
Q 55.71875 40.765625 55.71875 27.296875 
Q 55.71875 13.875 49.015625 6.21875 
Q 42.328125 -1.421875 30.609375 -1.421875 
Q 18.84375 -1.421875 12.171875 6.21875 
Q 5.515625 13.875 5.515625 27.296875 
Q 5.515625 40.765625 12.171875 48.375 
Q 18.84375 56 30.609375 56 
z
" id="DejaVuSans-6f"/>
     <path d="M 54.890625 33.015625 
L 54.890625 0 
L 45.90625 0 
L 45.90625 32.71875 
Q 45.90625 40.484375 42.875 44.328125 
Q 39.84375 48.1875 33.796875 48.1875 
Q 26.515625 48.1875 22.3125 43.546875 
Q 18.109375 38.921875 18.109375 30.90625 
L 18.109375 0 
L 9.078125 0 
L 9.078125 54.6875 
L 18.109375 54.6875 
L 18.109375 46.1875 
Q 21.34375 51.125 25.703125 53.5625 
Q 30.078125 56 35.796875 56 
Q 45.21875 56 50.046875 50.171875 
Q 54.890625 44.34375 54.890625 33.015625 
z
" id="DejaVuSans-6e"/>
     <path d="M 41.109375 46.296875 
Q 39.59375 47.171875 37.8125 47.578125 
Q 36.03125 48 33.890625 48 
Q 26.265625 48 22.1875 43.046875 
Q 18.109375 38.09375 18.109375 28.8125 
L 18.109375 0 
L 9.078125 0 
L 9.078125 54.6875 
L 18.109375 54.6875 
L 18.109375 46.1875 
Q 20.953125 51.171875 25.484375 53.578125 
Q 30.03125 56 36.53125 56 
Q 37.453125 56 38.578125 55.875 
Q 39.703125 55.765625 41.0625 55.515625 
z
" id="DejaVuSans-72"/>
     <path d="M 9.421875 54.6875 
L 18.40625 54.6875 
L 18.40625 0 
L 9.421875 0 
z
M 9.421875 75.984375 
L 18.40625 75.984375 
L 18.40625 64.59375 
L 9.421875 64.59375 
z
" id="DejaVuSans-69"/>
     <path d="M 45.40625 27.984375 
Q 45.40625 37.75 41.375 43.109375 
Q 37.359375 48.484375 30.078125 48.484375 
Q 22.859375 48.484375 18.828125 43.109375 
Q 14.796875 37.75 14.796875 27.984375 
Q 14.796875 18.265625 18.828125 12.890625 
Q 22.859375 7.515625 30.078125 7.515625 
Q 37.359375 7.515625 41.375 12.890625 
Q 45.40625 18.265625 45.40625 27.984375 
z
M 54.390625 6.78125 
Q 54.390625 -7.171875 48.1875 -13.984375 
Q 42 -20.796875 29.203125 -20.796875 
Q 24.46875 -20.796875 20.265625 -20.09375 
Q 16.0625 -19.390625 12.109375 -17.921875 
L 12.109375 -9.1875 
Q 16.0625 -11.328125 19.921875 -12.34375 
Q 23.78125 -13.375 27.78125 -13.375 
Q 36.625 -13.375 41.015625 -8.765625 
Q 45.40625 -4.15625 45.40625 5.171875 
L 45.40625 9.625 
Q 42.625 4.78125 38.28125 2.390625 
Q 33.9375 0 27.875 0 
Q 17.828125 0 11.671875 7.65625 
Q 5.515625 15.328125 5.515625 27.984375 
Q 5.515625 40.671875 11.671875 48.328125 
Q 17.828125 56 27.875 56 
Q 33.9375 56 38.28125 53.609375 
Q 42.625 51.21875 45.40625 46.390625 
L 45.40625 54.6875 
L 54.390625 54.6875 
z
" id="DejaVuSans-67"/>
     <path d="M 44.28125 53.078125 
L 44.28125 44.578125 
Q 40.484375 46.53125 36.375 47.5 
Q 32.28125 48.484375 27.875 48.484375 
Q 21.1875 48.484375 17.84375 46.4375 
Q 14.5 44.390625 14.5 40.28125 
Q 14.5 37.15625 16.890625 35.375 
Q 19.28125 33.59375 26.515625 31.984375 
L 29.59375 31.296875 
Q 39.15625 29.25 43.1875 25.515625 
Q 47.21875 21.78125 47.21875 15.09375 
Q 47.21875 7.46875 41.1875 3.015625 
Q 35.15625 -1.421875 24.609375 -1.421875 
Q 20.21875 -1.421875 15.453125 -0.5625 
Q 10.6875 0.296875 5.421875 2 
L 5.421875 11.28125 
Q 10.40625 8.6875 15.234375 7.390625 
Q 20.0625 6.109375 24.8125 6.109375 
Q 31.15625 6.109375 34.5625 8.28125 
Q 37.984375 10.453125 37.984375 14.40625 
Q 37.984375 18.0625 35.515625 20.015625 
Q 33.0625 21.96875 24.703125 23.78125 
L 21.578125 24.515625 
Q 13.234375 26.265625 9.515625 29.90625 
Q 5.8125 33.546875 5.8125 39.890625 
Q 5.8125 47.609375 11.28125 51.796875 
Q 16.75 56 26.8125 56 
Q 31.78125 56 36.171875 55.265625 
Q 40.578125 54.546875 44.28125 53.078125 
z
" id="DejaVuSans-73"/>
    </defs>
    <g transform="translate(172.363125 35.472)scale(0.12 -0.12)">
     <use xlink:href="#DejaVuSans-4d"/>
     <use x="86.279297" xlink:href="#DejaVuSans-79"/>
     <use x="145.458984" xlink:href="#DejaVuSans-20"/>
     <use x="177.246094" xlink:href="#DejaVuSans-42"/>
     <use x="245.849609" xlink:href="#DejaVuSans-6f"/>
     <use x="307.03125" xlink:href="#DejaVuSans-6e"/>
     <use x="370.410156" xlink:href="#DejaVuSans-64"/>
     <use x="433.886719" xlink:href="#DejaVuSans-6f"/>
     <use x="495.068359" xlink:href="#DejaVuSans-72"/>
     <use x="536.181641" xlink:href="#DejaVuSans-61"/>
     <use x="597.460938" xlink:href="#DejaVuSans-20"/>
     <use x="629.248047" xlink:href="#DejaVuSans-65"/>
     <use x="690.771484" xlink:href="#DejaVuSans-61"/>
     <use x="752.050781" xlink:href="#DejaVuSans-72"/>
     <use x="793.148438" xlink:href="#DejaVuSans-6e"/>
     <use x="856.527344" xlink:href="#DejaVuSans-69"/>
     <use x="884.310547" xlink:href="#DejaVuSans-6e"/>
     <use x="947.689453" xlink:href="#DejaVuSans-67"/>
     <use x="1011.166016" xlink:href="#DejaVuSans-73"/>
    </g>
   </g>
   <g id="legend_1">
    <g id="patch_7">
     <path d="M 64.6 122.862625 
L 158.45 122.862625 
Q 160.45 122.862625 160.45 120.862625 
L 160.45 48.472 
Q 160.45 46.472 158.45 46.472 
L 64.6 46.472 
Q 62.6 46.472 62.6 48.472 
L 62.6 120.862625 
Q 62.6 122.862625 64.6 122.862625 
z
" style="fill:#ffffff;opacity:0.8;stroke:#cccccc;stroke-linejoin:miter;"/>
    </g>
    <g id="line2d_38">
     <path d="M 66.6 54.570437 
L 86.6 54.570437 
" style="fill:none;stroke:#0000ff;stroke-linecap:square;stroke-width:1.5;"/>
    </g>
    <g id="line2d_39"/>
    <g id="text_20">
     <!-- Interest -->
     <defs>
      <path d="M 9.8125 72.90625 
L 19.671875 72.90625 
L 19.671875 0 
L 9.8125 0 
z
" id="DejaVuSans-49"/>
     </defs>
     <g transform="translate(94.6 58.070437)scale(0.1 -0.1)">
      <use xlink:href="#DejaVuSans-49"/>
      <use x="29.492188" xlink:href="#DejaVuSans-6e"/>
      <use x="92.871094" xlink:href="#DejaVuSans-74"/>
      <use x="132.080078" xlink:href="#DejaVuSans-65"/>
      <use x="193.603516" xlink:href="#DejaVuSans-72"/>
      <use x="234.685547" xlink:href="#DejaVuSans-65"/>
      <use x="296.208984" xlink:href="#DejaVuSans-73"/>
      <use x="348.308594" xlink:href="#DejaVuSans-74"/>
     </g>
    </g>
    <g id="line2d_40">
     <path d="M 66.6 69.248562 
L 86.6 69.248562 
" style="fill:none;stroke:#ff0000;stroke-linecap:square;stroke-width:1.5;"/>
    </g>
    <g id="line2d_41"/>
    <g id="text_21">
     <!-- Balance -->
     <defs>
      <path d="M 9.421875 75.984375 
L 18.40625 75.984375 
L 18.40625 0 
L 9.421875 0 
z
" id="DejaVuSans-6c"/>
      <path d="M 48.78125 52.59375 
L 48.78125 44.1875 
Q 44.96875 46.296875 41.140625 47.34375 
Q 37.3125 48.390625 33.40625 48.390625 
Q 24.65625 48.390625 19.8125 42.84375 
Q 14.984375 37.3125 14.984375 27.296875 
Q 14.984375 17.28125 19.8125 11.734375 
Q 24.65625 6.203125 33.40625 6.203125 
Q 37.3125 6.203125 41.140625 7.25 
Q 44.96875 8.296875 48.78125 10.40625 
L 48.78125 2.09375 
Q 45.015625 0.34375 40.984375 -0.53125 
Q 36.96875 -1.421875 32.421875 -1.421875 
Q 20.0625 -1.421875 12.78125 6.34375 
Q 5.515625 14.109375 5.515625 27.296875 
Q 5.515625 40.671875 12.859375 48.328125 
Q 20.21875 56 33.015625 56 
Q 37.15625 56 41.109375 55.140625 
Q 45.0625 54.296875 48.78125 52.59375 
z
" id="DejaVuSans-63"/>
     </defs>
     <g transform="translate(94.6 72.748562)scale(0.1 -0.1)">
      <use xlink:href="#DejaVuSans-42"/>
      <use x="68.603516" xlink:href="#DejaVuSans-61"/>
      <use x="129.882812" xlink:href="#DejaVuSans-6c"/>
      <use x="157.666016" xlink:href="#DejaVuSans-61"/>
      <use x="218.945312" xlink:href="#DejaVuSans-6e"/>
      <use x="282.324219" xlink:href="#DejaVuSans-63"/>
      <use x="337.304688" xlink:href="#DejaVuSans-65"/>
     </g>
    </g>
    <g id="line2d_42">
     <path d="M 66.6 83.926687 
L 86.6 83.926687 
" style="fill:none;stroke:#008000;stroke-linecap:square;stroke-width:1.5;"/>
    </g>
    <g id="line2d_43"/>
    <g id="text_22">
     <!-- Investments -->
     <defs>
      <path d="M 2.984375 54.6875 
L 12.5 54.6875 
L 29.59375 8.796875 
L 46.6875 54.6875 
L 56.203125 54.6875 
L 35.6875 0 
L 23.484375 0 
z
" id="DejaVuSans-76"/>
      <path d="M 52 44.1875 
Q 55.375 50.25 60.0625 53.125 
Q 64.75 56 71.09375 56 
Q 79.640625 56 84.28125 50.015625 
Q 88.921875 44.046875 88.921875 33.015625 
L 88.921875 0 
L 79.890625 0 
L 79.890625 32.71875 
Q 79.890625 40.578125 77.09375 44.375 
Q 74.3125 48.1875 68.609375 48.1875 
Q 61.625 48.1875 57.5625 43.546875 
Q 53.515625 38.921875 53.515625 30.90625 
L 53.515625 0 
L 44.484375 0 
L 44.484375 32.71875 
Q 44.484375 40.625 41.703125 44.40625 
Q 38.921875 48.1875 33.109375 48.1875 
Q 26.21875 48.1875 22.15625 43.53125 
Q 18.109375 38.875 18.109375 30.90625 
L 18.109375 0 
L 9.078125 0 
L 9.078125 54.6875 
L 18.109375 54.6875 
L 18.109375 46.1875 
Q 21.1875 51.21875 25.484375 53.609375 
Q 29.78125 56 35.6875 56 
Q 41.65625 56 45.828125 52.96875 
Q 50 49.953125 52 44.1875 
z
" id="DejaVuSans-6d"/>
     </defs>
     <g transform="translate(94.6 87.426687)scale(0.1 -0.1)">
      <use xlink:href="#DejaVuSans-49"/>
      <use x="29.492188" xlink:href="#DejaVuSans-6e"/>
      <use x="92.871094" xlink:href="#DejaVuSans-76"/>
      <use x="152.050781" xlink:href="#DejaVuSans-65"/>
      <use x="213.574219" xlink:href="#DejaVuSans-73"/>
      <use x="265.673828" xlink:href="#DejaVuSans-74"/>
      <use x="304.882812" xlink:href="#DejaVuSans-6d"/>
      <use x="402.294922" xlink:href="#DejaVuSans-65"/>
      <use x="463.818359" xlink:href="#DejaVuSans-6e"/>
      <use x="527.197266" xlink:href="#DejaVuSans-74"/>
      <use x="566.40625" xlink:href="#DejaVuSans-73"/>
     </g>
    </g>
    <g id="line2d_44"/>
    <g id="line2d_45">
     <g>
      <use style="fill:#bfbf00;stroke:#bfbf00;" x="76.6" xlink:href="#mc1949d5fa0" y="98.604812"/>
     </g>
    </g>
    <g id="text_23">
     <!-- Deposits -->
     <defs>
      <path d="M 19.671875 64.796875 
L 19.671875 8.109375 
L 31.59375 8.109375 
Q 46.6875 8.109375 53.6875 14.9375 
Q 60.6875 21.78125 60.6875 36.53125 
Q 60.6875 51.171875 53.6875 57.984375 
Q 46.6875 64.796875 31.59375 64.796875 
z
M 9.8125 72.90625 
L 30.078125 72.90625 
Q 51.265625 72.90625 61.171875 64.09375 
Q 71.09375 55.28125 71.09375 36.53125 
Q 71.09375 17.671875 61.125 8.828125 
Q 51.171875 0 30.078125 0 
L 9.8125 0 
z
" id="DejaVuSans-44"/>
      <path d="M 18.109375 8.203125 
L 18.109375 -20.796875 
L 9.078125 -20.796875 
L 9.078125 54.6875 
L 18.109375 54.6875 
L 18.109375 46.390625 
Q 20.953125 51.265625 25.265625 53.625 
Q 29.59375 56 35.59375 56 
Q 45.5625 56 51.78125 48.09375 
Q 58.015625 40.1875 58.015625 27.296875 
Q 58.015625 14.40625 51.78125 6.484375 
Q 45.5625 -1.421875 35.59375 -1.421875 
Q 29.59375 -1.421875 25.265625 0.953125 
Q 20.953125 3.328125 18.109375 8.203125 
z
M 48.6875 27.296875 
Q 48.6875 37.203125 44.609375 42.84375 
Q 40.53125 48.484375 33.40625 48.484375 
Q 26.265625 48.484375 22.1875 42.84375 
Q 18.109375 37.203125 18.109375 27.296875 
Q 18.109375 17.390625 22.1875 11.75 
Q 26.265625 6.109375 33.40625 6.109375 
Q 40.53125 6.109375 44.609375 11.75 
Q 48.6875 17.390625 48.6875 27.296875 
z
" id="DejaVuSans-70"/>
     </defs>
     <g transform="translate(94.6 102.104812)scale(0.1 -0.1)">
      <use xlink:href="#DejaVuSans-44"/>
      <use x="77.001953" xlink:href="#DejaVuSans-65"/>
      <use x="138.525391" xlink:href="#DejaVuSans-70"/>
      <use x="202.001953" xlink:href="#DejaVuSans-6f"/>
      <use x="263.183594" xlink:href="#DejaVuSans-73"/>
      <use x="315.283203" xlink:href="#DejaVuSans-69"/>
      <use x="343.066406" xlink:href="#DejaVuSans-74"/>
      <use x="382.275391" xlink:href="#DejaVuSans-73"/>
     </g>
    </g>
    <g id="line2d_46"/>
    <g id="line2d_47">
     <g>
      <use style="fill:#008000;stroke:#008000;" x="76.6" xlink:href="#m1352066677" y="113.282937"/>
     </g>
    </g>
    <g id="text_24">
     <!-- Commission -->
     <defs>
      <path d="M 64.40625 67.28125 
L 64.40625 56.890625 
Q 59.421875 61.53125 53.78125 63.8125 
Q 48.140625 66.109375 41.796875 66.109375 
Q 29.296875 66.109375 22.65625 58.46875 
Q 16.015625 50.828125 16.015625 36.375 
Q 16.015625 21.96875 22.65625 14.328125 
Q 29.296875 6.6875 41.796875 6.6875 
Q 48.140625 6.6875 53.78125 8.984375 
Q 59.421875 11.28125 64.40625 15.921875 
L 64.40625 5.609375 
Q 59.234375 2.09375 53.4375 0.328125 
Q 47.65625 -1.421875 41.21875 -1.421875 
Q 24.65625 -1.421875 15.125 8.703125 
Q 5.609375 18.84375 5.609375 36.375 
Q 5.609375 53.953125 15.125 64.078125 
Q 24.65625 74.21875 41.21875 74.21875 
Q 47.75 74.21875 53.53125 72.484375 
Q 59.328125 70.75 64.40625 67.28125 
z
" id="DejaVuSans-43"/>
     </defs>
     <g transform="translate(94.6 116.782937)scale(0.1 -0.1)">
      <use xlink:href="#DejaVuSans-43"/>
      <use x="69.824219" xlink:href="#DejaVuSans-6f"/>
      <use x="131.005859" xlink:href="#DejaVuSans-6d"/>
      <use x="228.417969" xlink:href="#DejaVuSans-6d"/>
      <use x="325.830078" xlink:href="#DejaVuSans-69"/>
      <use x="353.613281" xlink:href="#DejaVuSans-73"/>
      <use x="405.712891" xlink:href="#DejaVuSans-73"/>
      <use x="457.8125" xlink:href="#DejaVuSans-69"/>
      <use x="485.595703" xlink:href="#DejaVuSans-6f"/>
      <use x="546.777344" xlink:href="#DejaVuSans-6e"/>
     </g>
    </g>
   </g>
  </g>
 </g>
 <defs>
  <clipPath id="p7fabac1e5f">
   <rect height="235.008" width="357.12" x="57.6" y="41.472"/>
  </clipPath>
 </defs>
</svg>
