<?xml version="1.0" encoding="utf-8" standalone="no"?>
<!DOCTYPE svg PUBLIC "-//W3C//DTD SVG 1.1//EN"
  "http://www.w3.org/Graphics/SVG/1.1/DTD/svg11.dtd">
<!-- Created with matplotlib (http://matplotlib.org/) -->
<svg height="345.6pt" version="1.1" viewBox="0 0 460.8 345.6" width="460.8pt" xmlns="http://www.w3.org/2000/svg" xmlns:xlink="http://www.w3.org/1999/xlink">
 <defs>
  <style type="text/css">
*{stroke-linecap:butt;stroke-linejoin:round;}
  </style>
 </defs>
 <g id="figure_1">
  <g id="patch_1">
   <path d="M 0 345.6 
L 460.8 345.6 
L 460.8 0 
L 0 0 
z
" style="fill:#ffffff;"/>
  </g>
  <g id="axes_1">
   <g id="patch_2">
    <path d="M 57.6 276.48 
L 414.72 276.48 
L 414.72 41.472 
L 57.6 41.472 
z
" style="fill:#ffffff;"/>
   </g>
   <g id="matplotlib.axis_1">
    <g id="xtick_1">
     <g id="line2d_1">
      <path clip-path="url(#p943eb6d6e6)" d="M 73.832727 276.48 
L 73.832727 41.472 
" style="fill:none;stroke:#b0b0b0;stroke-linecap:square;stroke-width:0.8;"/>
     </g>
     <g id="line2d_2">
      <defs>
       <path d="M 0 0 
L 0 3.5 
" id="ma4f03829f5" style="stroke:#000000;stroke-width:0.8;"/>
      </defs>
      <g>
       <use style="stroke:#000000;stroke-width:0.8;" x="73.832727" xlink:href="#ma4f03829f5" y="276.48"/>
      </g>
     </g>
     <g id="text_1">
      <!-- 2019-01 -->
      <defs>
       <path d="M 19.1875 8.296875 
L 53.609375 8.296875 
L 53.609375 0 
L 7.328125 0 
L 7.328125 8.296875 
Q 12.9375 14.109375 22.625 23.890625 
Q 32.328125 33.6875 34.8125 36.53125 
Q 39.546875 41.84375 41.421875 45.53125 
Q 43.3125 49.21875 43.3125 52.78125 
Q 43.3125 58.59375 39.234375 62.25 
Q 35.15625 65.921875 28.609375 65.921875 
Q 23.96875 65.921875 18.8125 64.3125 
Q 13.671875 62.703125 7.8125 59.421875 
L 7.8125 69.390625 
Q 13.765625 71.78125 18.9375 73 
Q 24.125 74.21875 28.421875 74.21875 
Q 39.75 74.21875 46.484375 68.546875 
Q 53.21875 62.890625 53.21875 53.421875 
Q 53.21875 48.921875 51.53125 44.890625 
Q 49.859375 40.875 45.40625 35.40625 
Q 44.1875 33.984375 37.640625 27.21875 
Q 31.109375 20.453125 19.1875 8.296875 
z
" id="DejaVuSans-32"/>
       <path d="M 31.78125 66.40625 
Q 24.171875 66.40625 20.328125 58.90625 
Q 16.5 51.421875 16.5 36.375 
Q 16.5 21.390625 20.328125 13.890625 
Q 24.171875 6.390625 31.78125 6.390625 
Q 39.453125 6.390625 43.28125 13.890625 
Q 47.125 21.390625 47.125 36.375 
Q 47.125 51.421875 43.28125 58.90625 
Q 39.453125 66.40625 31.78125 66.40625 
z
M 31.78125 74.21875 
Q 44.046875 74.21875 50.515625 64.515625 
Q 56.984375 54.828125 56.984375 36.375 
Q 56.984375 17.96875 50.515625 8.265625 
Q 44.046875 -1.421875 31.78125 -1.421875 
Q 19.53125 -1.421875 13.0625 8.265625 
Q 6.59375 17.96875 6.59375 36.375 
Q 6.59375 54.828125 13.0625 64.515625 
Q 19.53125 74.21875 31.78125 74.21875 
z
" id="DejaVuSans-30"/>
       <path d="M 12.40625 8.296875 
L 28.515625 8.296875 
L 28.515625 63.921875 
L 10.984375 60.40625 
L 10.984375 69.390625 
L 28.421875 72.90625 
L 38.28125 72.90625 
L 38.28125 8.296875 
L 54.390625 8.296875 
L 54.390625 0 
L 12.40625 0 
z
" id="DejaVuSans-31"/>
       <path d="M 10.984375 1.515625 
L 10.984375 10.5 
Q 14.703125 8.734375 18.5 7.8125 
Q 22.3125 6.890625 25.984375 6.890625 
Q 35.75 6.890625 40.890625 13.453125 
Q 46.046875 20.015625 46.78125 33.40625 
Q 43.953125 29.203125 39.59375 26.953125 
Q 35.25 24.703125 29.984375 24.703125 
Q 19.046875 24.703125 12.671875 31.3125 
Q 6.296875 37.9375 6.296875 49.421875 
Q 6.296875 60.640625 12.9375 67.421875 
Q 19.578125 74.21875 30.609375 74.21875 
Q 43.265625 74.21875 49.921875 64.515625 
Q 56.59375 54.828125 56.59375 36.375 
Q 56.59375 19.140625 48.40625 8.859375 
Q 40.234375 -1.421875 26.421875 -1.421875 
Q 22.703125 -1.421875 18.890625 -0.6875 
Q 15.09375 0.046875 10.984375 1.515625 
z
M 30.609375 32.421875 
Q 37.25 32.421875 41.125 36.953125 
Q 45.015625 41.5 45.015625 49.421875 
Q 45.015625 57.28125 41.125 61.84375 
Q 37.25 66.40625 30.609375 66.40625 
Q 23.96875 66.40625 20.09375 61.84375 
Q 16.21875 57.28125 16.21875 49.421875 
Q 16.21875 41.5 20.09375 36.953125 
Q 23.96875 32.421875 30.609375 32.421875 
z
" id="DejaVuSans-39"/>
       <path d="M 4.890625 31.390625 
L 31.203125 31.390625 
L 31.203125 23.390625 
L 4.890625 23.390625 
z
" id="DejaVuSans-2d"/>
      </defs>
      <g transform="translate(36.607906 310.951846)rotate(-30)scale(0.1 -0.1)">
       <use xlink:href="#DejaVuSans-32"/>
       <use x="63.623047" xlink:href="#DejaVuSans-30"/>
       <use x="127.246094" xlink:href="#DejaVuSans-31"/>
       <use x="190.869141" xlink:href="#DejaVuSans-39"/>
       <use x="254.492188" xlink:href="#DejaVuSans-2d"/>
       <use x="290.576172" xlink:href="#DejaVuSans-30"/>
       <use x="354.199219" xlink:href="#DejaVuSans-31"/>
      </g>
     </g>
    </g>
    <g id="xtick_2">
     <g id="line2d_3">
      <path clip-path="url(#p943eb6d6e6)" d="M 128.578248 276.48 
L 128.578248 41.472 
" style="fill:none;stroke:#b0b0b0;stroke-linecap:square;stroke-width:0.8;"/>
     </g>
     <g id="line2d_4">
      <g>
       <use style="stroke:#000000;stroke-width:0.8;" x="128.578248" xlink:href="#ma4f03829f5" y="276.48"/>
      </g>
     </g>
     <g id="text_2">
      <!-- 2019-03 -->
      <defs>
       <path d="M 40.578125 39.3125 
Q 47.65625 37.796875 51.625 33 
Q 55.609375 28.21875 55.609375 21.1875 
Q 55.609375 10.40625 48.1875 4.484375 
Q 40.765625 -1.421875 27.09375 -1.421875 
Q 22.515625 -1.421875 17.65625 -0.515625 
Q 12.796875 0.390625 7.625 2.203125 
L 7.625 11.71875 
Q 11.71875 9.328125 16.59375 8.109375 
Q 21.484375 6.890625 26.8125 6.890625 
Q 36.078125 6.890625 40.9375 10.546875 
Q 45.796875 14.203125 45.796875 21.1875 
Q 45.796875 27.640625 41.28125 31.265625 
Q 36.765625 34.90625 28.71875 34.90625 
L 20.21875 34.90625 
L 20.21875 43.015625 
L 29.109375 43.015625 
Q 36.375 43.015625 40.234375 45.921875 
Q 44.09375 48.828125 44.09375 54.296875 
Q 44.09375 59.90625 40.109375 62.90625 
Q 36.140625 65.921875 28.71875 65.921875 
Q 24.65625 65.921875 20.015625 65.03125 
Q 15.375 64.15625 9.8125 62.3125 
L 9.8125 71.09375 
Q 15.4375 72.65625 20.34375 73.4375 
Q 25.25 74.21875 29.59375 74.21875 
Q 40.828125 74.21875 47.359375 69.109375 
Q 53.90625 64.015625 53.90625 55.328125 
Q 53.90625 49.265625 50.4375 45.09375 
Q 46.96875 40.921875 40.578125 39.3125 
z
" id="DejaVuSans-33"/>
      </defs>
      <g transform="translate(91.353427 310.951846)rotate(-30)scale(0.1 -0.1)">
       <use xlink:href="#DejaVuSans-32"/>
       <use x="63.623047" xlink:href="#DejaVuSans-30"/>
       <use x="127.246094" xlink:href="#DejaVuSans-31"/>
       <use x="190.869141" xlink:href="#DejaVuSans-39"/>
       <use x="254.492188" xlink:href="#DejaVuSans-2d"/>
       <use x="290.576172" xlink:href="#DejaVuSans-30"/>
       <use x="354.199219" xlink:href="#DejaVuSans-33"/>
      </g>
     </g>
    </g>
    <g id="xtick_3">
     <g id="line2d_5">
      <path clip-path="url(#p943eb6d6e6)" d="M 185.179549 276.48 
L 185.179549 41.472 
" style="fill:none;stroke:#b0b0b0;stroke-linecap:square;stroke-width:0.8;"/>
     </g>
     <g id="line2d_6">
      <g>
       <use style="stroke:#000000;stroke-width:0.8;" x="185.179549" xlink:href="#ma4f03829f5" y="276.48"/>
      </g>
     </g>
     <g id="text_3">
      <!-- 2019-05 -->
      <defs>
       <path d="M 10.796875 72.90625 
L 49.515625 72.90625 
L 49.515625 64.59375 
L 19.828125 64.59375 
L 19.828125 46.734375 
Q 21.96875 47.46875 24.109375 47.828125 
Q 26.265625 48.1875 28.421875 48.1875 
Q 40.625 48.1875 47.75 41.5 
Q 54.890625 34.8125 54.890625 23.390625 
Q 54.890625 11.625 47.5625 5.09375 
Q 40.234375 -1.421875 26.90625 -1.421875 
Q 22.3125 -1.421875 17.546875 -0.640625 
Q 12.796875 0.140625 7.71875 1.703125 
L 7.71875 11.625 
Q 12.109375 9.234375 16.796875 8.0625 
Q 21.484375 6.890625 26.703125 6.890625 
Q 35.15625 6.890625 40.078125 11.328125 
Q 45.015625 15.765625 45.015625 23.390625 
Q 45.015625 31 40.078125 35.4375 
Q 35.15625 39.890625 26.703125 39.890625 
Q 22.75 39.890625 18.8125 39.015625 
Q 14.890625 38.140625 10.796875 36.28125 
z
" id="DejaVuSans-35"/>
      </defs>
      <g transform="translate(147.954728 310.951846)rotate(-30)scale(0.1 -0.1)">
       <use xlink:href="#DejaVuSans-32"/>
       <use x="63.623047" xlink:href="#DejaVuSans-30"/>
       <use x="127.246094" xlink:href="#DejaVuSans-31"/>
       <use x="190.869141" xlink:href="#DejaVuSans-39"/>
       <use x="254.492188" xlink:href="#DejaVuSans-2d"/>
       <use x="290.576172" xlink:href="#DejaVuSans-30"/>
       <use x="354.199219" xlink:href="#DejaVuSans-35"/>
      </g>
     </g>
    </g>
    <g id="xtick_4">
     <g id="line2d_7">
      <path clip-path="url(#p943eb6d6e6)" d="M 241.780851 276.48 
L 241.780851 41.472 
" style="fill:none;stroke:#b0b0b0;stroke-linecap:square;stroke-width:0.8;"/>
     </g>
     <g id="line2d_8">
      <g>
       <use style="stroke:#000000;stroke-width:0.8;" x="241.780851" xlink:href="#ma4f03829f5" y="276.48"/>
      </g>
     </g>
     <g id="text_4">
      <!-- 2019-07 -->
      <defs>
       <path d="M 8.203125 72.90625 
L 55.078125 72.90625 
L 55.078125 68.703125 
L 28.609375 0 
L 18.3125 0 
L 43.21875 64.59375 
L 8.203125 64.59375 
z
" id="DejaVuSans-37"/>
      </defs>
      <g transform="translate(204.55603 310.951846)rotate(-30)scale(0.1 -0.1)">
       <use xlink:href="#DejaVuSans-32"/>
       <use x="63.623047" xlink:href="#DejaVuSans-30"/>
       <use x="127.246094" xlink:href="#DejaVuSans-31"/>
       <use x="190.869141" xlink:href="#DejaVuSans-39"/>
       <use x="254.492188" xlink:href="#DejaVuSans-2d"/>
       <use x="290.576172" xlink:href="#DejaVuSans-30"/>
       <use x="354.199219" xlink:href="#DejaVuSans-37"/>
      </g>
     </g>
    </g>
    <g id="xtick_5">
     <g id="line2d_9">
      <path clip-path="url(#p943eb6d6e6)" d="M 299.310042 276.48 
L 299.310042 41.472 
" style="fill:none;stroke:#b0b0b0;stroke-linecap:square;stroke-width:0.8;"/>
     </g>
     <g id="line2d_10">
      <g>
       <use style="stroke:#000000;stroke-width:0.8;" x="299.310042" xlink:href="#ma4f03829f5" y="276.48"/>
      </g>
     </g>
     <g id="text_5">
      <!-- 2019-09 -->
      <g transform="translate(262.085221 310.951846)rotate(-30)scale(0.1 -0.1)">
       <use xlink:href="#DejaVuSans-32"/>
       <use x="63.623047" xlink:href="#DejaVuSans-30"/>
       <use x="127.246094" xlink:href="#DejaVuSans-31"/>
       <use x="190.869141" xlink:href="#DejaVuSans-39"/>
       <use x="254.492188" xlink:href="#DejaVuSans-2d"/>
       <use x="290.576172" xlink:href="#DejaVuSans-30"/>
       <use x="354.199219" xlink:href="#DejaVuSans-39"/>
      </g>
     </g>
    </g>
    <g id="xtick_6">
     <g id="line2d_11">
      <path clip-path="url(#p943eb6d6e6)" d="M 355.911343 276.48 
L 355.911343 41.472 
" style="fill:none;stroke:#b0b0b0;stroke-linecap:square;stroke-width:0.8;"/>
     </g>
     <g id="line2d_12">
      <g>
       <use style="stroke:#000000;stroke-width:0.8;" x="355.911343" xlink:href="#ma4f03829f5" y="276.48"/>
      </g>
     </g>
     <g id="text_6">
      <!-- 2019-11 -->
      <g transform="translate(318.686522 310.951846)rotate(-30)scale(0.1 -0.1)">
       <use xlink:href="#DejaVuSans-32"/>
       <use x="63.623047" xlink:href="#DejaVuSans-30"/>
       <use x="127.246094" xlink:href="#DejaVuSans-31"/>
       <use x="190.869141" xlink:href="#DejaVuSans-39"/>
       <use x="254.492188" xlink:href="#DejaVuSans-2d"/>
       <use x="290.576172" xlink:href="#DejaVuSans-31"/>
       <use x="354.199219" xlink:href="#DejaVuSans-31"/>
      </g>
     </g>
    </g>
    <g id="xtick_7">
     <g id="line2d_13">
      <path clip-path="url(#p943eb6d6e6)" d="M 412.512644 276.48 
L 412.512644 41.472 
" style="fill:none;stroke:#b0b0b0;stroke-linecap:square;stroke-width:0.8;"/>
     </g>
     <g id="line2d_14">
      <g>
       <use style="stroke:#000000;stroke-width:0.8;" x="412.512644" xlink:href="#ma4f03829f5" y="276.48"/>
      </g>
     </g>
     <g id="text_7">
      <!-- 2020-01 -->
      <g transform="translate(375.287823 310.951846)rotate(-30)scale(0.1 -0.1)">
       <use xlink:href="#DejaVuSans-32"/>
       <use x="63.623047" xlink:href="#DejaVuSans-30"/>
       <use x="127.246094" xlink:href="#DejaVuSans-32"/>
       <use x="190.869141" xlink:href="#DejaVuSans-30"/>
       <use x="254.492188" xlink:href="#DejaVuSans-2d"/>
       <use x="290.576172" xlink:href="#DejaVuSans-30"/>
       <use x="354.199219" xlink:href="#DejaVuSans-31"/>
      </g>
     </g>
    </g>
    <g id="text_8">
     <!-- date -->
     <defs>
      <path d="M 45.40625 46.390625 
L 45.40625 75.984375 
L 54.390625 75.984375 
L 54.390625 0 
L 45.40625 0 
L 45.40625 8.203125 
Q 42.578125 3.328125 38.25 0.953125 
Q 33.9375 -1.421875 27.875 -1.421875 
Q 17.96875 -1.421875 11.734375 6.484375 
Q 5.515625 14.40625 5.515625 27.296875 
Q 5.515625 40.1875 11.734375 48.09375 
Q 17.96875 56 27.875 56 
Q 33.9375 56 38.25 53.625 
Q 42.578125 51.265625 45.40625 46.390625 
z
M 14.796875 27.296875 
Q 14.796875 17.390625 18.875 11.75 
Q 22.953125 6.109375 30.078125 6.109375 
Q 37.203125 6.109375 41.296875 11.75 
Q 45.40625 17.390625 45.40625 27.296875 
Q 45.40625 37.203125 41.296875 42.84375 
Q 37.203125 48.484375 30.078125 48.484375 
Q 22.953125 48.484375 18.875 42.84375 
Q 14.796875 37.203125 14.796875 27.296875 
z
" id="DejaVuSans-64"/>
      <path d="M 34.28125 27.484375 
Q 23.390625 27.484375 19.1875 25 
Q 14.984375 22.515625 14.984375 16.5 
Q 14.984375 11.71875 18.140625 8.90625 
Q 21.296875 6.109375 26.703125 6.109375 
Q 34.1875 6.109375 38.703125 11.40625 
Q 43.21875 16.703125 43.21875 25.484375 
L 43.21875 27.484375 
z
M 52.203125 31.203125 
L 52.203125 0 
L 43.21875 0 
L 43.21875 8.296875 
Q 40.140625 3.328125 35.546875 0.953125 
Q 30.953125 -1.421875 24.3125 -1.421875 
Q 15.921875 -1.421875 10.953125 3.296875 
Q 6 8.015625 6 15.921875 
Q 6 25.140625 12.171875 29.828125 
Q 18.359375 34.515625 30.609375 34.515625 
L 43.21875 34.515625 
L 43.21875 35.40625 
Q 43.21875 41.609375 39.140625 45 
Q 35.0625 48.390625 27.6875 48.390625 
Q 23 48.390625 18.546875 47.265625 
Q 14.109375 46.140625 10.015625 43.890625 
L 10.015625 52.203125 
Q 14.9375 54.109375 19.578125 55.046875 
Q 24.21875 56 28.609375 56 
Q 40.484375 56 46.34375 49.84375 
Q 52.203125 43.703125 52.203125 31.203125 
z
" id="DejaVuSans-61"/>
      <path d="M 18.3125 70.21875 
L 18.3125 54.6875 
L 36.8125 54.6875 
L 36.8125 47.703125 
L 18.3125 47.703125 
L 18.3125 18.015625 
Q 18.3125 11.328125 20.140625 9.421875 
Q 21.96875 7.515625 27.59375 7.515625 
L 36.8125 7.515625 
L 36.8125 0 
L 27.59375 0 
Q 17.1875 0 13.234375 3.875 
Q 9.28125 7.765625 9.28125 18.015625 
L 9.28125 47.703125 
L 2.6875 47.703125 
L 2.6875 54.6875 
L 9.28125 54.6875 
L 9.28125 70.21875 
z
" id="DejaVuSans-74"/>
      <path d="M 56.203125 29.59375 
L 56.203125 25.203125 
L 14.890625 25.203125 
Q 15.484375 15.921875 20.484375 11.0625 
Q 25.484375 6.203125 34.421875 6.203125 
Q 39.59375 6.203125 44.453125 7.46875 
Q 49.3125 8.734375 54.109375 11.28125 
L 54.109375 2.78125 
Q 49.265625 0.734375 44.1875 -0.34375 
Q 39.109375 -1.421875 33.890625 -1.421875 
Q 20.796875 -1.421875 13.15625 6.1875 
Q 5.515625 13.8125 5.515625 26.8125 
Q 5.515625 40.234375 12.765625 48.109375 
Q 20.015625 56 32.328125 56 
Q 43.359375 56 49.78125 48.890625 
Q 56.203125 41.796875 56.203125 29.59375 
z
M 47.21875 32.234375 
Q 47.125 39.59375 43.09375 43.984375 
Q 39.0625 48.390625 32.421875 48.390625 
Q 24.90625 48.390625 20.390625 44.140625 
Q 15.875 39.890625 15.1875 32.171875 
z
" id="DejaVuSans-65"/>
     </defs>
     <g transform="translate(224.885 324.351346)scale(0.1 -0.1)">
      <use xlink:href="#DejaVuSans-64"/>
      <use x="63.476562" xlink:href="#DejaVuSans-61"/>
      <use x="124.755859" xlink:href="#DejaVuSans-74"/>
      <use x="163.964844" xlink:href="#DejaVuSans-65"/>
     </g>
    </g>
   </g>
   <g id="matplotlib.axis_2">
    <g id="ytick_1">
     <g id="line2d_15">
      <path clip-path="url(#p943eb6d6e6)" d="M 57.6 265.797818 
L 414.72 265.797818 
" style="fill:none;stroke:#b0b0b0;stroke-linecap:square;stroke-width:0.8;"/>
     </g>
     <g id="line2d_16">
      <defs>
       <path d="M 0 0 
L -3.5 0 
" id="mcf573414a8" style="stroke:#000000;stroke-width:0.8;"/>
      </defs>
      <g>
       <use style="stroke:#000000;stroke-width:0.8;" x="57.6" xlink:href="#mcf573414a8" y="265.797818"/>
      </g>
     </g>
     <g id="text_9">
      <!-- 0 -->
      <g transform="translate(44.2375 269.597037)scale(0.1 -0.1)">
       <use xlink:href="#DejaVuSans-30"/>
      </g>
     </g>
    </g>
    <g id="ytick_2">
     <g id="line2d_17">
      <path clip-path="url(#p943eb6d6e6)" d="M 57.6 226.264264 
L 414.72 226.264264 
" style="fill:none;stroke:#b0b0b0;stroke-linecap:square;stroke-width:0.8;"/>
     </g>
     <g id="line2d_18">
      <g>
       <use style="stroke:#000000;stroke-width:0.8;" x="57.6" xlink:href="#mcf573414a8" y="226.264264"/>
      </g>
     </g>
     <g id="text_10">
      <!-- 2000 -->
      <g transform="translate(25.15 230.063483)scale(0.1 -0.1)">
       <use xlink:href="#DejaVuSans-32"/>
       <use x="63.623047" xlink:href="#DejaVuSans-30"/>
       <use x="127.246094" xlink:href="#DejaVuSans-30"/>
       <use x="190.869141" xlink:href="#DejaVuSans-30"/>
      </g>
     </g>
    </g>
    <g id="ytick_3">
     <g id="line2d_19">
      <path clip-path="url(#p943eb6d6e6)" d="M 57.6 186.730711 
L 414.72 186.730711 
" style="fill:none;stroke:#b0b0b0;stroke-linecap:square;stroke-width:0.8;"/>
     </g>
     <g id="line2d_20">
      <g>
       <use style="stroke:#000000;stroke-width:0.8;" x="57.6" xlink:href="#mcf573414a8" y="186.730711"/>
      </g>
     </g>
     <g id="text_11">
      <!-- 4000 -->
      <defs>
       <path d="M 37.796875 64.3125 
L 12.890625 25.390625 
L 37.796875 25.390625 
z
M 35.203125 72.90625 
L 47.609375 72.90625 
L 47.609375 25.390625 
L 58.015625 25.390625 
L 58.015625 17.1875 
L 47.609375 17.1875 
L 47.609375 0 
L 37.796875 0 
L 37.796875 17.1875 
L 4.890625 17.1875 
L 4.890625 26.703125 
z
" id="DejaVuSans-34"/>
      </defs>
      <g transform="translate(25.15 190.529929)scale(0.1 -0.1)">
       <use xlink:href="#DejaVuSans-34"/>
       <use x="63.623047" xlink:href="#DejaVuSans-30"/>
       <use x="127.246094" xlink:href="#DejaVuSans-30"/>
       <use x="190.869141" xlink:href="#DejaVuSans-30"/>
      </g>
     </g>
    </g>
    <g id="ytick_4">
     <g id="line2d_21">
      <path clip-path="url(#p943eb6d6e6)" d="M 57.6 147.197157 
L 414.72 147.197157 
" style="fill:none;stroke:#b0b0b0;stroke-linecap:square;stroke-width:0.8;"/>
     </g>
     <g id="line2d_22">
      <g>
       <use style="stroke:#000000;stroke-width:0.8;" x="57.6" xlink:href="#mcf573414a8" y="147.197157"/>
      </g>
     </g>
     <g id="text_12">
      <!-- 6000 -->
      <defs>
       <path d="M 33.015625 40.375 
Q 26.375 40.375 22.484375 35.828125 
Q 18.609375 31.296875 18.609375 23.390625 
Q 18.609375 15.53125 22.484375 10.953125 
Q 26.375 6.390625 33.015625 6.390625 
Q 39.65625 6.390625 43.53125 10.953125 
Q 47.40625 15.53125 47.40625 23.390625 
Q 47.40625 31.296875 43.53125 35.828125 
Q 39.65625 40.375 33.015625 40.375 
z
M 52.59375 71.296875 
L 52.59375 62.3125 
Q 48.875 64.0625 45.09375 64.984375 
Q 41.3125 65.921875 37.59375 65.921875 
Q 27.828125 65.921875 22.671875 59.328125 
Q 17.53125 52.734375 16.796875 39.40625 
Q 19.671875 43.65625 24.015625 45.921875 
Q 28.375 48.1875 33.59375 48.1875 
Q 44.578125 48.1875 50.953125 41.515625 
Q 57.328125 34.859375 57.328125 23.390625 
Q 57.328125 12.15625 50.6875 5.359375 
Q 44.046875 -1.421875 33.015625 -1.421875 
Q 20.359375 -1.421875 13.671875 8.265625 
Q 6.984375 17.96875 6.984375 36.375 
Q 6.984375 53.65625 15.1875 63.9375 
Q 23.390625 74.21875 37.203125 74.21875 
Q 40.921875 74.21875 44.703125 73.484375 
Q 48.484375 72.75 52.59375 71.296875 
z
" id="DejaVuSans-36"/>
      </defs>
      <g transform="translate(25.15 150.996376)scale(0.1 -0.1)">
       <use xlink:href="#DejaVuSans-36"/>
       <use x="63.623047" xlink:href="#DejaVuSans-30"/>
       <use x="127.246094" xlink:href="#DejaVuSans-30"/>
       <use x="190.869141" xlink:href="#DejaVuSans-30"/>
      </g>
     </g>
    </g>
    <g id="ytick_5">
     <g id="line2d_23">
      <path clip-path="url(#p943eb6d6e6)" d="M 57.6 107.663603 
L 414.72 107.663603 
" style="fill:none;stroke:#b0b0b0;stroke-linecap:square;stroke-width:0.8;"/>
     </g>
     <g id="line2d_24">
      <g>
       <use style="stroke:#000000;stroke-width:0.8;" x="57.6" xlink:href="#mcf573414a8" y="107.663603"/>
      </g>
     </g>
     <g id="text_13">
      <!-- 8000 -->
      <defs>
       <path d="M 31.78125 34.625 
Q 24.75 34.625 20.71875 30.859375 
Q 16.703125 27.09375 16.703125 20.515625 
Q 16.703125 13.921875 20.71875 10.15625 
Q 24.75 6.390625 31.78125 6.390625 
Q 38.8125 6.390625 42.859375 10.171875 
Q 46.921875 13.96875 46.921875 20.515625 
Q 46.921875 27.09375 42.890625 30.859375 
Q 38.875 34.625 31.78125 34.625 
z
M 21.921875 38.8125 
Q 15.578125 40.375 12.03125 44.71875 
Q 8.5 49.078125 8.5 55.328125 
Q 8.5 64.0625 14.71875 69.140625 
Q 20.953125 74.21875 31.78125 74.21875 
Q 42.671875 74.21875 48.875 69.140625 
Q 55.078125 64.0625 55.078125 55.328125 
Q 55.078125 49.078125 51.53125 44.71875 
Q 48 40.375 41.703125 38.8125 
Q 48.828125 37.15625 52.796875 32.3125 
Q 56.78125 27.484375 56.78125 20.515625 
Q 56.78125 9.90625 50.3125 4.234375 
Q 43.84375 -1.421875 31.78125 -1.421875 
Q 19.734375 -1.421875 13.25 4.234375 
Q 6.78125 9.90625 6.78125 20.515625 
Q 6.78125 27.484375 10.78125 32.3125 
Q 14.796875 37.15625 21.921875 38.8125 
z
M 18.3125 54.390625 
Q 18.3125 48.734375 21.84375 45.5625 
Q 25.390625 42.390625 31.78125 42.390625 
Q 38.140625 42.390625 41.71875 45.5625 
Q 45.3125 48.734375 45.3125 54.390625 
Q 45.3125 60.0625 41.71875 63.234375 
Q 38.140625 66.40625 31.78125 66.40625 
Q 25.390625 66.40625 21.84375 63.234375 
Q 18.3125 60.0625 18.3125 54.390625 
z
" id="DejaVuSans-38"/>
      </defs>
      <g transform="translate(25.15 111.462822)scale(0.1 -0.1)">
       <use xlink:href="#DejaVuSans-38"/>
       <use x="63.623047" xlink:href="#DejaVuSans-30"/>
       <use x="127.246094" xlink:href="#DejaVuSans-30"/>
       <use x="190.869141" xlink:href="#DejaVuSans-30"/>
      </g>
     </g>
    </g>
    <g id="ytick_6">
     <g id="line2d_25">
      <path clip-path="url(#p943eb6d6e6)" d="M 57.6 68.13005 
L 414.72 68.13005 
" style="fill:none;stroke:#b0b0b0;stroke-linecap:square;stroke-width:0.8;"/>
     </g>
     <g id="line2d_26">
      <g>
       <use style="stroke:#000000;stroke-width:0.8;" x="57.6" xlink:href="#mcf573414a8" y="68.13005"/>
      </g>
     </g>
     <g id="text_14">
      <!-- 10000 -->
      <g transform="translate(18.7875 71.929268)scale(0.1 -0.1)">
       <use xlink:href="#DejaVuSans-31"/>
       <use x="63.623047" xlink:href="#DejaVuSans-30"/>
       <use x="127.246094" xlink:href="#DejaVuSans-30"/>
       <use x="190.869141" xlink:href="#DejaVuSans-30"/>
       <use x="254.492188" xlink:href="#DejaVuSans-30"/>
      </g>
     </g>
    </g>
    <g id="text_15">
     <!-- EUR -->
     <defs>
      <path d="M 9.8125 72.90625 
L 55.90625 72.90625 
L 55.90625 64.59375 
L 19.671875 64.59375 
L 19.671875 43.015625 
L 54.390625 43.015625 
L 54.390625 34.71875 
L 19.671875 34.71875 
L 19.671875 8.296875 
L 56.78125 8.296875 
L 56.78125 0 
L 9.8125 0 
z
" id="DejaVuSans-45"/>
      <path d="M 8.6875 72.90625 
L 18.609375 72.90625 
L 18.609375 28.609375 
Q 18.609375 16.890625 22.84375 11.734375 
Q 27.09375 6.59375 36.625 6.59375 
Q 46.09375 6.59375 50.34375 11.734375 
Q 54.59375 16.890625 54.59375 28.609375 
L 54.59375 72.90625 
L 64.5 72.90625 
L 64.5 27.390625 
Q 64.5 13.140625 57.4375 5.859375 
Q 50.390625 -1.421875 36.625 -1.421875 
Q 22.796875 -1.421875 15.734375 5.859375 
Q 8.6875 13.140625 8.6875 27.390625 
z
" id="DejaVuSans-55"/>
      <path d="M 44.390625 34.1875 
Q 47.5625 33.109375 50.5625 29.59375 
Q 53.5625 26.078125 56.59375 19.921875 
L 66.609375 0 
L 56 0 
L 46.6875 18.703125 
Q 43.0625 26.03125 39.671875 28.421875 
Q 36.28125 30.8125 30.421875 30.8125 
L 19.671875 30.8125 
L 19.671875 0 
L 9.8125 0 
L 9.8125 72.90625 
L 32.078125 72.90625 
Q 44.578125 72.90625 50.734375 67.671875 
Q 56.890625 62.453125 56.890625 51.90625 
Q 56.890625 45.015625 53.6875 40.46875 
Q 50.484375 35.9375 44.390625 34.1875 
z
M 19.671875 64.796875 
L 19.671875 38.921875 
L 32.078125 38.921875 
Q 39.203125 38.921875 42.84375 42.21875 
Q 46.484375 45.515625 46.484375 51.90625 
Q 46.484375 58.296875 42.84375 61.546875 
Q 39.203125 64.796875 32.078125 64.796875 
z
" id="DejaVuSans-52"/>
     </defs>
     <g transform="translate(12.707813 169.268969)rotate(-90)scale(0.1 -0.1)">
      <use xlink:href="#DejaVuSans-45"/>
      <use x="63.183594" xlink:href="#DejaVuSans-55"/>
      <use x="136.376953" xlink:href="#DejaVuSans-52"/>
     </g>
    </g>
   </g>
   <g id="line2d_27">
    <path clip-path="url(#p943eb6d6e6)" d="M 73.832727 265.797818 
L 106.308884 265.709365 
L 106.308884 265.690696 
L 111.876225 265.542124 
L 111.876225 265.421927 
L 111.876225 265.421927 
L 113.732005 265.353153 
L 113.732005 265.311968 
L 113.732005 265.149263 
L 118.371456 264.992905 
L 118.371456 264.809556 
L 121.155127 264.687603 
L 121.155127 264.670115 
L 121.155127 264.670115 
L 125.794578 264.557575 
L 125.794578 264.536765 
L 130.434028 264.429182 
L 130.434028 264.42878 
L 131.361919 264.314943 
L 131.361919 264.137808 
L 133.217699 264.031267 
L 133.217699 263.987758 
L 135.073479 263.87696 
L 135.073479 263.832028 
L 138.78504 263.717797 
L 138.78504 263.668919 
L 139.71293 263.553509 
L 139.71293 263.505465 
L 139.71293 263.505465 
L 144.352381 263.372455 
L 144.352381 263.372455 
L 144.352381 263.26524 
L 148.063942 263.160739 
L 148.063942 263.133175 
L 154.559173 263.003803 
L 154.559173 262.984815 
L 159.198624 262.872027 
L 159.198624 262.735 
L 160.126514 262.626862 
L 160.126514 262.606403 
L 163.838075 262.484465 
L 163.838075 262.420614 
L 166.621746 262.299911 
L 166.621746 262.254873 
L 170.333306 262.181711 
L 170.333306 262.145007 
L 170.333306 261.926833 
L 173.116977 261.802411 
L 173.116977 261.603365 
L 177.756428 261.488753 
L 177.756428 261.479101 
L 183.323769 261.340354 
L 183.323769 261.308331 
L 187.03533 261.154994 
L 187.03533 261.154994 
L 187.03533 261.075738 
L 187.03533 261.075738 
L 189.819 260.954655 
L 189.819 260.889738 
L 191.674781 260.768021 
L 191.674781 260.764919 
L 196.314232 260.632518 
L 196.314232 260.486707 
L 198.170012 260.380583 
L 198.170012 260.334627 
L 202.809463 260.177478 
L 202.809463 260.067491 
L 206.521024 259.915406 
L 206.521024 259.913446 
L 215.799925 259.796702 
L 215.799925 259.664137 
L 216.727816 259.548761 
L 219.511486 259.41668 
L 219.511486 259.383381 
L 222.295157 259.259063 
L 222.295157 259.207643 
L 224.150937 259.108447 
L 224.150937 259.007372 
L 225.078827 258.897263 
L 225.078827 258.862691 
L 225.078827 258.862691 
L 228.790388 258.744279 
L 228.790388 258.713073 
L 228.790388 258.713073 
L 229.718278 258.603731 
L 229.718278 258.501172 
L 232.501949 258.391422 
L 232.501949 258.382263 
L 238.99718 258.249833 
L 238.99718 258.236877 
L 241.780851 258.122319 
L 241.780851 258.050239 
L 241.780851 258.050239 
L 242.708741 257.938432 
L 242.708741 257.910981 
L 243.636631 257.795522 
L 243.636631 257.298829 
L 244.564521 257.184986 
L 244.564521 256.701975 
L 245.492411 256.701975 
L 245.492411 256.596116 
L 245.492411 256.496151 
L 248.276082 256.373037 
L 248.276082 255.645674 
L 249.203972 255.534407 
L 249.203972 255.496449 
L 250.131862 255.496449 
L 250.131862 255.449183 
L 250.131862 255.1578 
L 251.987643 255.043869 
L 251.987643 254.836957 
L 251.987643 254.836957 
L 254.771313 254.724564 
L 254.771313 254.724564 
L 254.771313 254.498429 
L 255.699203 254.388454 
L 255.699203 254.258332 
L 256.627093 254.150507 
L 256.627093 253.908937 
L 257.554984 253.799559 
L 257.554984 253.366947 
L 258.482874 253.309829 
L 258.482874 253.101268 
L 261.266544 252.868906 
L 261.266544 252.803237 
L 262.194435 252.705957 
L 262.194435 252.49568 
L 264.978105 252.376039 
L 264.978105 252.376039 
L 264.978105 252.308703 
L 267.761776 252.197836 
L 267.761776 252.197081 
L 269.617556 252.113198 
L 269.617556 252.020068 
L 270.545446 251.907081 
L 270.545446 251.698945 
L 271.473336 251.587257 
L 271.473336 251.56067 
L 274.257007 251.455356 
L 274.257007 251.455356 
L 274.257007 250.278338 
L 275.184897 250.16653 
L 275.184897 249.712687 
L 276.112787 249.60494 
L 276.112787 249.482806 
L 277.040677 249.482806 
L 277.040677 249.372518 
L 277.040677 249.229706 
L 277.968568 249.119617 
L 277.968568 249.07118 
L 280.752238 248.955107 
L 280.752238 248.955107 
L 280.752238 248.753996 
L 281.680128 248.647529 
L 281.680128 248.554194 
L 282.608019 248.442267 
L 282.608019 248.426509 
L 282.608019 248.426509 
L 283.535909 248.426509 
L 283.535909 248.33665 
L 283.535909 248.207325 
L 284.463799 248.098631 
L 284.463799 247.834229 
L 287.24747 247.708772 
L 287.24747 247.023949 
L 288.17536 247.023949 
L 288.17536 246.914428 
L 288.17536 246.841727 
L 289.10325 246.730894 
L 289.10325 246.697581 
L 290.95903 246.58878 
L 290.95903 246.455664 
L 293.742701 246.362589 
L 293.742701 246.254494 
L 295.598481 246.164404 
L 295.598481 246.147368 
L 295.598481 246.047401 
L 295.598481 246.047401 
L 298.382152 245.948685 
L 298.382152 245.867217 
L 300.237932 245.753114 
L 300.237932 245.60735 
L 300.237932 245.60735 
L 301.165822 245.496346 
L 301.165822 245.184717 
L 302.093712 245.062941 
L 302.093712 244.59656 
L 303.021603 244.485241 
L 303.021603 244.18178 
L 303.949493 244.071071 
L 303.949493 243.645776 
L 306.733163 243.53027 
L 306.733163 243.231209 
L 307.661054 243.122949 
L 307.661054 243.000318 
L 308.588944 242.888923 
L 308.588944 242.882704 
L 310.444724 242.776223 
L 310.444724 242.515111 
L 313.228395 242.401287 
L 313.228395 241.890142 
L 314.156285 241.779821 
L 314.156285 241.636367 
L 315.084175 241.636367 
L 315.084175 241.525434 
L 315.084175 241.194168 
L 316.012065 241.083602 
L 316.012065 241.049379 
L 316.939955 240.943412 
L 316.939955 240.860477 
L 319.723626 240.747709 
L 319.723626 240.747709 
L 319.723626 240.686944 
L 320.651516 240.649817 
L 320.651516 240.417713 
L 322.507296 240.309908 
L 322.507296 240.147094 
L 325.290967 240.039285 
L 325.290967 240.03664 
L 325.290967 240.027849 
L 327.146747 239.942766 
L 327.146747 239.661163 
L 329.002528 239.548146 
L 329.002528 239.248394 
L 329.930418 239.115201 
L 329.930418 238.635936 
L 332.714089 238.520399 
L 332.714089 237.995504 
L 333.641979 237.865045 
L 333.641979 237.738518 
L 335.497759 237.644817 
L 335.497759 237.627844 
L 335.497759 237.445338 
L 339.20932 237.332071 
L 339.20932 237.008495 
L 340.13721 236.898189 
L 340.13721 236.761177 
L 341.0651 236.645733 
L 341.0651 236.275765 
L 341.99299 236.163237 
L 341.99299 235.999132 
L 342.920881 235.888064 
L 342.920881 235.557051 
L 345.704551 235.46935 
L 345.704551 235.154062 
L 346.632441 235.044394 
L 347.560331 234.955823 
L 347.560331 234.835556 
L 348.488222 234.835556 
L 348.488222 234.724502 
L 348.488222 234.698399 
L 349.416112 234.586369 
L 349.416112 234.579246 
L 353.127673 234.465787 
L 353.127673 234.350765 
L 353.127673 234.350765 
L 354.983453 234.262203 
L 354.983453 234.220633 
L 355.911343 234.110453 
L 355.911343 234.081036 
L 358.695014 233.974943 
L 358.695014 233.208287 
L 358.695014 233.208287 
L 359.622904 233.113717 
L 359.622904 232.717305 
L 360.550794 232.618913 
L 360.550794 232.409714 
L 360.550794 232.409714 
L 361.478684 232.298891 
L 361.478684 232.184029 
L 361.478684 232.184029 
L 362.406574 232.072455 
L 362.406574 232.034481 
L 365.190245 231.91837 
L 365.190245 231.724603 
L 365.190245 231.724603 
L 367.046025 231.61597 
L 367.046025 231.419903 
L 368.901806 231.308867 
L 368.901806 231.189901 
L 371.685476 231.069877 
L 371.685476 231.069877 
L 371.685476 230.277693 
L 373.541257 230.184453 
L 373.541257 230.111588 
L 374.469147 230.000807 
L 374.469147 229.958507 
L 377.252817 229.845443 
L 377.252817 229.842526 
L 379.108598 229.734033 
L 379.108598 229.649483 
L 380.964378 229.542683 
L 380.964378 229.538395 
L 380.964378 229.499627 
L 383.748049 229.395154 
L 384.675939 229.294067 
L 384.675939 228.952698 
L 385.603829 228.839053 
L 385.603829 228.599139 
L 386.531719 228.464945 
L 386.531719 228.190883 
L 387.459609 228.080521 
L 387.459609 228.01213 
L 390.24328 227.904277 
L 391.17117 227.789519 
L 391.17117 227.487883 
L 392.09906 227.376145 
L 392.09906 227.197034 
L 393.02695 227.088027 
L 393.02695 227.081633 
L 393.02695 227.081633 
L 393.954841 226.976391 
L 393.954841 226.958858 
L 394.882731 226.861424 
L 394.882731 226.699828 
L 397.666401 226.587379 
L 397.666401 226.161984 
L 397.666401 226.161984 
" style="fill:none;stroke:#0000ff;stroke-linecap:square;stroke-width:1.5;"/>
   </g>
   <g id="line2d_28">
    <path clip-path="url(#p943eb6d6e6)" d="M 73.832727 265.797818 
L 76.499713 265.718751 
L 76.648917 255.835363 
L 76.868518 255.97373 
L 77.368451 259.334082 
L 77.471077 260.263121 
L 77.913081 261.231693 
L 78.280371 263.386271 
L 78.36706 263.504872 
L 78.505224 263.900208 
L 78.654287 264.196709 
L 78.888311 264.473444 
L 78.943082 264.849013 
L 79.130712 265.026914 
L 79.217122 265.204815 
L 79.314067 265.402483 
L 79.804034 265.501076 
L 79.804678 225.967522 
L 79.895029 227.588398 
L 79.944441 228.55697 
L 80.043738 246.702871 
L 80.153227 249.153488 
L 80.168155 249.766258 
L 80.340964 255.850529 
L 80.510089 256.044693 
L 80.609913 258.013126 
L 80.62628 258.007868 
L 80.680557 258.086935 
L 80.787812 260.834517 
L 81.019494 263.463499 
L 81.079496 263.265522 
L 81.101265 263.482957 
L 81.358293 264.21381 
L 81.720546 264.371944 
L 81.763095 265.004481 
L 81.893784 265.044015 
L 81.956191 265.202149 
L 82.07817 265.597485 
L 82.691523 265.696086 
L 82.78603 265.735619 
L 83.430548 265.768893 
L 83.546921 265.569913 
L 83.600372 265.688246 
L 83.700238 265.747545 
L 86.554145 265.787079 
L 87.252554 265.586787 
L 87.257107 265.685621 
L 87.263401 265.744921 
L 88.186555 265.784455 
L 89.395228 265.5847 
L 89.398171 265.604467 
L 89.407085 265.782368 
L 92.765897 265.762486 
L 92.765897 265.573632 
L 92.768141 265.7713 
L 92.972009 265.759259 
L 105.696605 265.783946 
L 105.696605 265.748718 
L 105.696605 265.72149 
L 105.709084 265.78079 
L 105.763362 265.769886 
L 105.855904 265.789653 
L 106.710228 265.78593 
L 107.107095 265.580893 
L 107.527115 265.561716 
L 107.527115 265.457963 
L 107.557304 265.556797 
L 109.760206 265.796815 
L 112.454964 265.685085 
L 112.4809 265.515961 
L 112.472802 265.718438 
L 112.546819 265.634562 
L 114.034547 265.495162 
L 114.071426 265.447797 
L 114.121569 265.501899 
L 114.133436 265.491619 
L 114.163163 265.462511 
L 114.381271 265.709912 
L 114.432208 265.604519 
L 114.465973 265.683586 
L 115.978455 265.767551 
L 116.019426 265.785468 
L 116.019426 265.779262 
L 118.680216 265.635299 
L 118.695971 265.603665 
L 118.744406 265.662965 
L 118.789125 265.660922 
L 118.871357 265.73896 
L 118.937673 265.662003 
L 118.998308 265.74184 
L 120.713251 265.790577 
L 120.768549 257.371511 
L 120.849342 261.986753 
L 120.904876 264.277604 
L 121.600868 264.35842 
L 121.611565 263.863843 
L 121.628995 264.338246 
L 121.721516 264.358013 
L 121.783117 265.10915 
L 121.827815 265.096048 
L 121.847318 265.115815 
L 122.40432 265.106321 
L 122.443036 264.903603 
L 122.454925 265.121038 
L 122.481698 265.119957 
L 122.675019 265.154728 
L 122.794936 265.606794 
L 122.794936 265.605436 
L 123.487697 265.617921 
L 123.609944 265.756288 
L 125.582226 265.650513 
L 125.635655 265.638568 
L 125.639403 265.697868 
L 131.69161 265.589017 
L 131.770598 265.524375 
L 131.800669 265.662742 
L 131.925086 265.706307 
L 132.076802 265.721425 
L 132.076802 265.717652 
L 132.076802 265.517395 
L 132.178355 265.73483 
L 133.49118 265.734862 
L 133.49118 265.702754 
L 133.49118 265.695801 
L 133.557947 265.735335 
L 133.59387 265.730133 
L 138.731525 265.754699 
L 138.751017 265.560678 
L 138.775525 265.699046 
L 139.121164 265.663059 
L 139.153737 265.573456 
L 139.226948 265.698022 
L 139.457073 265.699652 
L 139.457073 265.690302 
L 139.48084 265.710069 
L 140.044264 265.749069 
L 140.044264 265.65837 
L 140.077718 265.569158 
L 140.13308 265.727293 
L 155.381784 265.589623 
L 155.381784 265.262785 
L 155.396444 265.796488 
L 158.624277 265.74687 
L 158.709678 265.641733 
L 158.748554 265.755398 
L 158.907477 265.641073 
L 158.939717 265.119912 
L 158.939857 264.399655 
L 158.982406 265.363668 
L 159.196154 265.350302 
L 159.256607 265.569021 
L 159.4883 265.459478 
L 159.564625 265.413878 
L 159.864761 265.448921 
L 159.864761 265.44407 
L 160.714135 265.311271 
L 160.714135 265.307982 
L 160.812197 265.781344 
L 160.832076 265.772131 
L 160.83504 265.791898 
L 160.948041 265.417543 
L 160.961347 265.615211 
L 161.8017 265.57706 
L 161.861583 265.774728 
L 171.04311 265.65396 
L 171.04311 265.582699 
L 171.108438 265.679182 
L 171.147949 265.674406 
L 171.890304 265.72482 
L 171.985026 265.751681 
L 171.985026 265.750549 
L 172.044319 265.768684 
L 172.044319 265.763114 
L 173.417414 265.664698 
L 173.443886 265.555182 
L 173.502212 265.681368 
L 173.639033 265.743039 
L 173.639033 265.737452 
L 175.476825 265.796822 
L 187.33712 265.690351 
L 187.33712 265.645096 
L 187.442581 265.756461 
L 194.859151 265.769443 
L 194.862642 265.78921 
L 196.631422 265.676463 
L 196.65638 265.594855 
L 196.737592 265.661146 
L 197.134791 265.722805 
L 199.911546 265.76654 
L 203.110254 265.653749 
L 203.110254 265.608811 
L 203.210464 265.717431 
L 203.318557 265.724522 
L 203.318557 265.724105 
L 209.790999 265.7797 
L 209.846221 263.80836 
L 209.89863 264.591867 
L 211.130834 264.610202 
L 211.517787 264.608189 
L 211.710045 265.794195 
L 211.828018 264.59915 
L 212.485972 264.599344 
L 212.660961 264.836545 
L 212.675663 265.785351 
L 216.115043 265.677947 
L 216.170115 265.655668 
L 216.199144 265.714968 
L 216.21013 265.708535 
L 220.923737 265.777368 
L 222.640656 265.711555 
L 222.640656 265.704024 
L 222.662629 265.679088 
L 222.70737 265.726298 
L 222.735282 265.714936 
L 224.790215 265.64043 
L 224.829113 265.440256 
L 224.851215 265.661644 
L 225.393827 265.54684 
L 225.428333 265.47662 
L 225.499514 265.517798 
L 225.685231 265.698731 
L 233.760056 265.776047 
L 233.799427 265.795814 
L 238.469571 265.784536 
L 238.487109 265.667029 
L 238.547733 265.706178 
L 238.737961 265.665344 
L 238.737961 265.71492 
L 238.741452 265.168437 
L 238.743728 265.710856 
L 238.894854 265.702048 
L 238.901212 265.416217 
L 238.904412 265.712719 
L 239.783459 265.643091 
L 239.806485 264.513543 
L 239.810276 265.652807 
L 239.821799 265.652033 
L 240.547863 265.714089 
L 240.548088 262.215453 
L 240.646848 265.780605 
L 240.660735 265.743504 
L 240.664869 264.021842 
L 240.668628 265.789742 
L 240.75638 265.233242 
L 240.8059 265.794026 
L 240.807855 264.693043 
L 240.807908 263.613488 
L 240.864237 265.797129 
L 240.906099 265.793829 
L 242.075445 265.696447 
L 242.075445 265.6049 
L 242.156968 265.797118 
L 242.184021 265.796709 
L 242.205092 216.379767 
L 242.303841 234.001159 
L 242.323462 236.4466 
L 242.586826 264.609871 
L 242.605867 264.606329 
L 243.291271 264.689342 
L 243.291378 265.785451 
L 243.37941 265.781645 
L 243.928863 265.694863 
L 243.968083 216.378383 
L 243.937497 265.795325 
L 244.035366 223.025293 
L 244.045117 223.286373 
L 244.152823 232.498853 
L 244.162575 232.721198 
L 244.270356 247.887867 
L 244.280108 249.085734 
L 244.30948 252.202962 
L 244.382863 241.964997 
L 244.387728 242.604495 
L 244.397458 242.81331 
L 244.5051 256.48741 
L 244.514872 256.753235 
L 244.622471 265.782212 
L 244.852038 265.674415 
L 244.852038 265.392927 
L 244.925657 265.793969 
L 244.962118 265.777974 
L 245.03956 265.794089 
L 245.043147 265.789735 
L 245.116626 265.672035 
L 245.122458 261.828665 
L 245.225471 265.797604 
L 246.023435 265.688225 
L 246.023435 265.668122 
L 246.028397 265.793839 
L 246.100394 265.781201 
L 246.27505 265.794834 
L 248.577474 265.676846 
L 248.577474 265.401775 
L 248.671638 265.795192 
L 254.589773 265.795562 
L 255.07785 265.684733 
L 255.07785 265.652993 
L 255.083488 265.772079 
L 255.176556 265.755329 
L 255.38691 265.726189 
L 255.38691 265.525188 
L 255.475113 265.765461 
L 255.480891 265.699413 
L 255.500147 265.521478 
L 255.563166 265.777931 
L 255.98425 265.691856 
L 255.98425 265.581375 
L 256.062187 265.792714 
L 256.079209 265.760842 
L 256.910368 265.648803 
L 256.910368 265.574171 
L 256.981893 265.793924 
L 257.011255 265.762293 
L 257.25299 265.79423 
L 257.25299 265.783709 
L 257.290943 265.766377 
L 257.359257 265.793107 
L 257.847065 265.684597 
L 257.847065 265.392575 
L 257.852907 265.790725 
L 257.952237 265.649305 
L 258.029035 265.790864 
L 258.453781 265.761463 
L 258.764957 265.31487 
L 258.773011 265.513346 
L 258.78287 265.752032 
L 258.878301 265.726157 
L 258.957419 265.766464 
L 258.957419 264.549197 
L 258.968899 265.776677 
L 259.066747 265.774988 
L 263.814043 265.678858 
L 263.814043 265.458261 
L 263.832988 265.784616 
L 263.835726 265.783574 
L 268.962019 265.792218 
L 268.962019 265.711535 
L 268.962019 265.665025 
L 269.001336 265.78405 
L 269.060575 265.78253 
L 270.063534 265.783542 
L 270.063534 265.486062 
L 270.137711 265.788768 
L 270.833146 265.667932 
L 270.833146 265.513437 
L 270.905508 265.78605 
L 270.924141 265.782859 
L 274.551924 265.662101 
L 274.551924 264.969416 
L 274.616994 265.789782 
L 274.656129 265.788294 
L 274.976541 265.675803 
L 274.976541 265.63564 
L 275.002423 265.797103 
L 275.070898 265.794632 
L 275.466164 265.693081 
L 275.466164 265.538164 
L 275.560252 265.79776 
L 275.574471 265.779166 
L 276.078238 265.787297 
L 276.394902 265.584021 
L 276.494865 265.783189 
L 276.509654 265.710765 
L 276.547908 265.792745 
L 276.619067 265.768083 
L 276.6377 265.574864 
L 276.660404 265.797342 
L 276.696724 265.780743 
L 276.904909 265.787153 
L 277.735833 265.679526 
L 277.735833 265.550263 
L 277.840929 265.79545 
L 278.816127 265.735224 
L 278.816137 265.225478 
L 278.821507 265.78343 
L 281.965573 265.784373 
L 281.965573 265.715302 
L 281.965573 265.664571 
L 282.003429 265.789537 
L 282.075964 265.78379 
L 282.242136 265.794185 
L 282.242136 265.791102 
L 283.110153 265.687067 
L 283.110153 265.613667 
L 283.119797 265.792314 
L 284.762163 265.796294 
L 284.762163 265.68636 
L 284.762163 265.46113 
L 284.772215 265.797668 
L 284.868086 265.780753 
L 285.110337 265.770849 
L 285.114976 265.790697 
L 285.281373 265.792813 
L 285.281373 265.796622 
L 285.819657 265.797047 
L 285.822976 265.611094 
L 285.927374 265.786102 
L 287.541334 265.626997 
L 287.541344 265.231633 
L 287.553276 265.795541 
L 287.651649 265.671847 
L 287.767743 265.78359 
L 287.767743 265.780696 
L 291.260788 265.665017 
L 291.260788 265.631586 
L 291.30918 265.796939 
L 291.338756 265.790536 
L 295.101254 265.780091 
L 295.157057 265.60805 
L 295.198801 265.790765 
L 296.143262 265.681102 
L 296.143262 265.647244 
L 296.1486 265.78747 
L 296.22049 265.780728 
L 300.527006 265.666117 
L 300.527006 265.641702 
L 300.60418 265.797115 
L 300.634487 265.779978 
L 301.471672 265.660266 
L 301.471672 265.469769 
L 301.486342 265.792653 
L 301.556642 265.790461 
L 302.38312 265.676823 
L 302.38312 265.301405 
L 302.388275 265.782348 
L 302.485306 265.719278 
L 302.642489 265.748558 
L 302.642489 265.746377 
L 302.717794 265.505902 
L 302.717794 265.486486 
L 302.80067 265.577039 
L 302.987677 265.67341 
L 303.004151 265.693177 
L 303.305672 265.599271 
L 303.305672 265.439748 
L 303.397677 265.710395 
L 303.406774 265.681361 
L 303.534692 265.701955 
L 304.234142 265.597758 
L 304.283018 265.39794 
L 304.286573 265.714208 
L 304.342804 265.619028 
L 304.476575 265.557984 
L 304.535105 265.389287 
L 304.586998 265.453025 
L 304.690656 265.483797 
L 304.805461 265.598365 
L 304.805461 265.594938 
L 305.694646 265.751281 
L 305.694646 265.749331 
L 307.020992 265.638098 
L 307.11391 265.582049 
L 307.209856 265.672597 
L 307.249173 265.630989 
L 307.249173 265.533424 
L 307.268408 265.671792 
L 307.330235 265.623042 
L 307.437522 265.493481 
L 307.475239 265.530315 
L 307.590817 265.569103 
L 307.590817 265.56616 
L 308.02278 265.454474 
L 308.06577 265.419646 
L 308.089118 265.538247 
L 308.131195 265.520212 
L 308.177622 265.616232 
L 308.218153 265.655722 
L 308.266663 265.638979 
L 310.075136 265.707022 
L 310.233715 265.747475 
L 310.743979 265.635915 
L 310.832784 265.522363 
L 310.845049 265.54213 
L 311.119356 265.698801 
L 311.157911 265.656432 
L 312.66236 265.738098 
L 312.687705 265.757865 
L 313.536489 265.647616 
L 313.554477 265.401058 
L 313.628075 265.697559 
L 313.757088 265.586224 
L 313.86561 265.510592 
L 314.015458 265.458066 
L 314.093126 265.258252 
L 314.443362 265.147028 
L 314.525025 265.046438 
L 314.548372 265.362706 
L 315.059807 265.334328 
L 315.386652 265.227146 
L 315.461807 264.921024 
L 315.494519 265.012093 
L 315.5336 265.11012 
L 315.608487 265.088191 
L 315.8595 265.15727 
L 315.983187 265.413385 
L 316.323649 265.381532 
L 316.536506 265.756402 
L 316.536506 265.712263 
L 316.536506 265.614318 
L 316.548255 265.752686 
L 316.633429 265.739153 
L 317.319649 265.627315 
L 317.319649 265.604946 
L 317.332215 265.743314 
L 317.386943 265.738837 
L 323.363017 265.685015 
L 323.363017 265.487623 
L 323.391692 265.714851 
L 327.611208 265.646429 
L 327.611208 263.894755 
L 327.710065 265.512344 
L 328.524288 265.519572 
L 328.643314 265.794324 
L 328.675779 265.710757 
L 328.753834 265.788153 
L 329.282474 265.677555 
L 329.282484 265.494353 
L 329.362901 265.791249 
L 329.377582 265.780614 
L 330.231993 265.652004 
L 330.232004 265.484606 
L 330.3082 265.789814 
L 330.336606 265.788997 
L 333.020271 265.668891 
L 333.020271 265.464533 
L 333.020786 265.783684 
L 333.118709 265.783065 
L 333.159927 265.760628 
L 333.159927 265.642227 
L 333.206783 265.785595 
L 334.201516 265.682943 
L 334.277702 265.608236 
L 334.30048 265.726836 
L 335.010789 265.736087 
L 335.028412 264.778326 
L 335.089079 265.722256 
L 335.126388 265.649794 
L 335.126388 265.577456 
L 335.167456 265.759311 
L 339.875478 265.634621 
L 339.875478 265.605331 
L 339.917921 265.755766 
L 339.986503 265.755428 
L 339.994235 265.73699 
L 340.015951 265.757536 
L 340.523498 265.647405 
L 340.523498 265.607693 
L 340.525657 265.729144 
L 340.619348 265.682939 
L 341.356226 265.567478 
L 341.356226 265.421789 
L 341.358008 265.776249 
L 341.467132 265.763244 
L 341.58517 265.789221 
L 341.58517 265.776069 
L 341.740409 265.79631 
L 341.740409 265.793146 
L 342.288777 265.684396 
L 342.288777 265.578493 
L 342.32978 265.772121 
L 342.395055 265.768683 
L 342.472551 265.785887 
L 342.472551 265.784909 
L 343.221038 265.697867 
L 343.221038 265.408917 
L 343.221747 265.794671 
L 343.318628 265.781845 
L 343.54131 265.782771 
L 346.435426 265.676619 
L 346.435426 265.479326 
L 346.43825 265.783728 
L 346.493601 265.782798 
L 346.57114 265.708589 
L 346.57114 265.609447 
L 346.585166 265.797795 
L 346.609738 265.793175 
L 347.905412 265.767011 
L 347.905412 265.727963 
L 347.905412 265.669392 
L 347.919803 265.788332 
L 348.009929 265.785447 
L 348.040762 265.595822 
L 348.045498 265.793485 
L 348.119965 265.778013 
L 348.196924 265.705491 
L 348.203303 265.797072 
L 349.786355 265.686088 
L 349.849514 265.388409 
L 349.854121 265.791437 
L 349.887897 265.790369 
L 353.879672 265.739025 
L 353.879672 262.797916 
L 353.889595 265.777608 
L 353.918592 265.776567 
L 356.356107 265.693939 
L 356.356107 265.635112 
L 356.367942 265.793246 
L 356.433636 265.791081 
L 356.665286 265.695223 
L 356.665286 265.493378 
L 356.666747 265.791751 
L 359.01679 265.680397 
L 359.031879 265.260212 
L 359.144289 265.359045 
L 359.155372 265.57648 
L 359.332251 265.470451 
L 359.383585 264.516885 
L 359.426028 265.247175 
L 359.45699 265.214771 
L 359.566532 265.658941 
L 359.566532 265.65595 
L 359.919936 265.541316 
L 359.950651 265.516981 
L 360.00306 265.65536 
L 360.028781 265.642758 
L 360.188004 265.615561 
L 360.224583 265.754967 
L 360.281309 265.744585 
L 360.309779 265.684461 
L 360.378726 265.750391 
L 360.844851 265.636372 
L 360.880324 265.564589 
L 360.935901 265.755896 
L 361.808407 265.645372 
L 361.837425 265.72444 
L 361.9303 265.670561 
L 362.041196 265.698712 
L 362.160297 265.590354 
L 362.160297 265.473623 
L 362.268229 265.736819 
L 363.661761 265.616547 
L 364.009891 265.68932 
L 365.825485 265.658227 
L 365.890254 265.074123 
L 365.932525 265.09389 
L 365.960039 265.197847 
L 366.015165 265.73155 
L 366.099062 265.715227 
L 369.313331 265.61635 
L 369.313331 265.546024 
L 369.416763 265.777178 
L 371.988276 265.631932 
L 372.097474 265.089747 
L 372.138768 265.007967 
L 372.225618 265.616941 
L 372.274611 265.598098 
L 372.369505 265.617582 
L 372.369505 265.606425 
L 372.475536 265.505228 
L 373.055736 265.500463 
L 373.09472 265.697772 
L 373.17518 265.659604 
L 373.327767 265.676661 
L 373.382774 265.775156 
L 373.382774 265.775152 
L 373.509038 265.77489 
L 374.218466 265.700625 
L 374.233619 265.492493 
L 374.283161 265.749461 
L 374.293213 265.737029 
L 374.408855 265.756337 
L 374.408855 265.751082 
L 378.048902 265.710175 
L 378.048902 265.612326 
L 378.06006 265.790227 
L 378.146513 265.773575 
L 378.173512 265.793342 
L 378.676098 265.689012 
L 378.736776 265.572273 
L 378.754442 265.76994 
L 381.529693 265.660643 
L 381.624941 265.619921 
L 382.437243 265.616824 
L 382.630854 265.791386 
L 384.964122 265.648375 
L 385.042273 265.553641 
L 385.055794 265.573408 
L 385.122475 265.571448 
L 385.13039 265.788883 
L 385.201861 265.783612 
L 385.574553 265.681494 
L 385.574553 265.628443 
L 385.616104 265.786577 
L 385.90796 265.681351 
L 385.974373 265.512475 
L 385.994026 265.769444 
L 386.830105 265.660602 
L 386.830115 265.456198 
L 386.918319 265.766451 
L 386.935255 265.757673 
L 387.136781 265.771011 
L 391.504201 265.650871 
L 391.606033 265.577959 
L 391.670061 265.604192 
L 391.778616 265.757729 
L 391.778616 265.741372 
L 395.383287 265.634202 
L 395.383287 265.620761 
L 395.428242 265.778895 
L 395.482348 265.739742 
L 398.467781 265.628505 
L 398.487273 265.354508 
L 398.487273 265.354508 
" style="fill:none;stroke:#ff0000;stroke-linecap:square;stroke-width:1.5;"/>
   </g>
   <g id="line2d_29">
    <path clip-path="url(#p943eb6d6e6)" d="M 73.832727 265.797818 
L 76.616398 265.659451 
L 76.616398 261.290993 
L 77.544288 261.093325 
L 77.544288 257.891107 
L 78.472178 257.75274 
L 78.472178 256.329532 
L 79.400068 256.131864 
L 79.400068 245.991508 
L 79.400068 246.327543 
L 80.022721 246.129875 
L 80.043835 230.316454 
L 80.248959 230.118786 
L 80.327959 219.40909 
L 80.327959 219.707589 
L 80.510089 219.513425 
L 80.588638 218.335663 
L 81.255849 218.039161 
L 81.255849 216.813621 
L 82.183739 216.457819 
L 82.183739 216.438052 
L 82.183739 216.438311 
L 83.111629 216.339477 
L 83.111629 216.161576 
L 83.111629 216.459808 
L 86.82319 216.281907 
L 86.82319 216.26214 
L 86.82319 216.459808 
L 88.67897 216.400508 
L 88.67897 216.222607 
L 88.67897 216.420274 
L 92.390531 216.222607 
L 92.390531 216.242373 
L 92.390531 216.440041 
L 106.308884 216.327559 
L 106.308884 216.33098 
L 106.308884 216.530212 
L 107.236774 216.431378 
L 107.236774 216.194177 
L 107.236774 216.295249 
L 108.164664 216.176648 
L 108.164664 216.156881 
L 108.164664 216.286795 
L 109.092554 216.168194 
L 109.092554 216.148427 
L 109.092554 216.194097 
L 111.876225 216.059144 
L 111.876225 215.940543 
L 111.876225 216.218884 
L 112.804115 216.100283 
L 112.804115 216.06075 
L 112.804115 216.109163 
L 113.732005 215.990562 
L 113.732005 215.654527 
L 113.732005 215.886086 
L 114.659895 215.767486 
L 114.659895 215.708185 
L 114.659895 215.753677 
L 115.587786 215.635077 
L 115.587786 215.556009 
L 115.587786 215.718018 
L 118.371456 215.563023 
L 118.371456 215.345589 
L 118.371456 215.460266 
L 120.227236 215.329463 
L 120.227236 212.443513 
L 120.227236 212.454888 
L 120.836304 212.25722 
L 120.85048 208.363165 
L 121.155127 208.284098 
L 121.155127 207.058558 
L 121.155127 207.575411 
L 122.083017 207.476577 
L 122.083017 206.962641 
L 122.083017 207.168918 
L 123.938797 206.913861 
L 124.866687 206.79526 
L 124.866687 206.73596 
L 124.866687 206.922618 
L 126.722468 206.772473 
L 126.722468 206.868848 
L 126.722468 206.888615 
L 127.650358 206.770014 
L 127.650358 206.750247 
L 127.650358 206.79767 
L 127.650358 206.79767 
L 128.578248 206.679069 
L 128.578248 206.659303 
L 128.578248 206.697024 
L 131.361919 206.53908 
L 131.361919 206.203045 
L 131.361919 206.443855 
L 133.217699 206.299644 
L 133.217699 206.240344 
L 133.217699 206.246479 
L 135.073479 206.09683 
L 135.073479 206.077063 
L 135.073479 206.104559 
L 137.85715 205.967076 
L 137.85715 205.828708 
L 137.85715 206.072266 
L 138.78504 205.953666 
L 138.78504 205.854832 
L 138.78504 205.960727 
L 139.71293 205.842127 
L 139.71293 205.743293 
L 139.71293 205.823185 
L 141.568711 205.68532 
L 141.568711 205.62602 
L 141.568711 205.675043 
L 145.280271 205.499415 
L 145.280271 205.479648 
L 145.280271 205.485048 
L 154.559173 205.248346 
L 154.559173 204.714643 
L 154.559173 205.229204 
L 158.270734 205.172707 
L 158.270734 205.15294 
L 158.270734 204.876205 
L 158.270734 205.013501 
L 158.907477 205.128057 
L 158.939717 205.68827 
L 158.939857 206.389241 
L 158.940136 205.59857 
L 159.198624 205.336559 
L 159.198624 205.367119 
L 160.126514 205.248519 
L 160.126514 204.655515 
L 160.126514 205.079194 
L 161.054405 205.039661 
L 161.054405 204.841993 
L 161.054405 204.860775 
L 163.838075 204.824638 
L 163.838075 204.765338 
L 163.838075 204.706038 
L 163.838075 204.739278 
L 165.693855 204.601813 
L 165.693855 204.582046 
L 165.693855 204.607525 
L 169.405416 204.479322 
L 169.405416 204.483045 
L 170.333306 204.285377 
L 170.333306 204.107476 
L 170.333306 204.264281 
L 173.116977 204.094545 
L 173.116977 203.896877 
L 173.116977 203.976398 
L 179.612208 203.738615 
L 179.612208 203.699082 
L 179.612208 203.743784 
L 186.107439 203.513241 
L 186.107439 203.493475 
L 186.107439 203.552194 
L 187.03533 203.433593 
L 187.03533 203.413826 
L 187.03533 203.442031 
L 189.819 203.286923 
L 189.819 203.247389 
L 189.819 203.284584 
L 191.674781 203.138747 
L 191.674781 203.11898 
L 191.674781 203.147429 
L 196.314232 202.947125 
L 196.314232 202.769224 
L 196.314232 202.874463 
L 197.242122 202.755863 
L 197.242122 202.736096 
L 197.242122 202.779123 
L 199.097902 202.663905 
L 199.097902 202.584838 
L 199.097902 202.643897 
L 202.809463 202.471631 
L 202.809463 202.41233 
L 202.809463 202.470432 
L 205.593133 202.337774 
L 205.593133 202.278474 
L 205.593133 202.327548 
L 209.304694 202.233346 
L 209.304694 201.422909 
L 209.304694 201.556816 
L 211.160474 201.508428 
L 211.160474 201.508804 
L 211.160474 202.69481 
L 212.088365 202.675043 
L 212.088365 201.489037 
L 212.088365 201.508139 
L 215.799925 201.33101 
L 215.799925 201.311244 
L 215.799925 201.368817 
L 218.583596 201.206543 
L 218.583596 201.087943 
L 218.583596 201.116621 
L 222.295157 200.958456 
L 222.295157 200.918923 
L 222.295157 200.983137 
L 224.150937 200.845788 
L 224.150937 200.806255 
L 224.150937 201.033527 
L 225.078827 200.796325 
L 225.078827 200.519591 
L 225.078827 200.738452 
L 226.006717 200.706268 
L 226.006717 200.666734 
L 226.006717 200.548133 
L 226.006717 200.689889 
L 226.934608 200.551637 
L 226.934608 200.53187 
L 226.934608 200.535349 
L 229.718278 200.377642 
L 229.718278 200.298575 
L 229.718278 200.344917 
L 231.574058 200.194477 
L 231.574058 200.154943 
L 231.574058 200.167784 
L 238.06929 199.981142 
L 238.06929 199.68464 
L 238.156032 199.828282 
L 238.73736 199.884251 
L 238.737961 199.820416 
L 238.740807 200.354945 
L 238.743728 199.882109 
L 238.99718 200.169237 
L 238.99718 200.169237 
L 239.609437 200.212403 
L 239.805067 200.401344 
L 239.806485 201.34195 
L 239.810276 200.269822 
L 240.547863 200.208946 
L 240.548088 203.707583 
L 240.646848 200.640847 
L 240.660745 200.771218 
L 240.664869 202.430578 
L 240.661658 200.670793 
L 240.75638 201.287363 
L 240.8059 200.75366 
L 240.807855 201.801494 
L 240.807908 202.934198 
L 240.864237 200.836909 
L 240.906099 200.84712 
L 241.780851 200.412251 
L 241.780851 198.890209 
L 241.780851 198.917651 
L 242.07886 198.801318 
L 242.156968 198.722882 
L 242.206015 198.624627 
L 242.313603 180.321881 
L 242.323355 180.08536 
L 242.430792 168.232332 
L 242.45036 166.955758 
L 242.537897 153.239352 
L 242.708741 153.259848 
L 243.291271 153.147628 
L 243.37941 151.99679 
L 243.447938 151.974607 
L 243.636631 150.7886 
L 243.712333 150.855728 
L 243.937454 150.737359 
L 244.04515 143.323369 
L 244.054901 143.066401 
L 244.162607 134.096472 
L 244.172348 133.664721 
L 244.280129 117.809698 
L 244.289902 116.584553 
L 244.397512 105.937419 
L 244.407274 105.445489 
L 244.514883 92.871527 
L 244.563802 89.064722 
L 244.622471 84.582208 
L 244.857193 84.542957 
L 244.964803 84.11576 
L 245.121556 84.018413 
L 245.225471 80.324982 
L 245.492411 80.285505 
L 245.492411 80.381737 
L 245.492411 80.505578 
L 246.028364 80.329224 
L 246.047964 80.230447 
L 246.165357 80.12432 
L 246.20447 80.084787 
L 247.348192 80.016889 
L 248.58351 79.858241 
L 248.691216 79.585767 
L 248.847948 79.364985 
L 250.492859 78.994147 
L 250.571171 78.856066 
L 251.987643 78.756273 
L 251.987643 78.89322 
L 251.987643 78.921126 
L 252.48967 78.819689 
L 252.665786 78.542765 
L 254.771313 78.498893 
L 254.771313 78.637211 
L 254.771313 79.148061 
L 255.36745 78.917112 
L 255.504486 78.257304 
L 257.554984 77.639008 
L 257.554984 77.676579 
L 257.554984 77.832177 
L 257.618014 77.827265 
L 257.852907 77.630162 
L 257.960581 77.2534 
L 258.107454 77.141692 
L 258.482874 77.121925 
L 258.482874 77.209978 
L 258.482874 78.692486 
L 258.773011 78.495974 
L 258.851291 78.240453 
L 258.89048 78.201275 
L 258.959008 77.808874 
L 259.066747 76.966424 
L 260.270727 76.850661 
L 260.270727 76.831205 
L 260.338654 76.846434 
L 261.748274 76.685564 
L 261.885234 76.607051 
L 262.609365 76.440377 
L 263.122325 76.30434 
L 263.122325 76.309436 
L 263.122325 76.6508 
L 263.138144 76.637383 
L 263.82315 76.530303 
L 263.832988 76.238014 
L 265.271894 76.156573 
L 265.350206 76.117153 
L 268.689666 76.004501 
L 268.689666 76.168204 
L 268.689666 76.284479 
L 268.689666 76.284479 
L 269.001336 76.167404 
L 269.177463 76.122682 
L 269.529858 75.986024 
L 269.608127 75.949717 
L 269.617556 75.960096 
L 269.617556 76.298226 
L 270.069172 76.198793 
L 270.137711 75.94545 
L 270.545446 75.843535 
L 270.545446 75.889172 
L 271.003517 75.595477 
L 274.257007 75.401665 
L 274.257007 75.437825 
L 274.257007 75.754944 
L 274.558142 75.499921 
L 274.656129 74.717296 
L 274.734623 74.625883 
L 275.002423 74.216205 
L 275.472113 74.098204 
L 275.560252 73.962226 
L 275.81467 73.746059 
L 276.010408 73.64919 
L 276.112787 73.64919 
L 276.112787 73.649799 
L 276.112787 74.149433 
L 276.640826 73.716562 
L 276.738651 73.502223 
L 277.040677 73.445874 
L 277.040677 73.488322 
L 277.040677 73.728888 
L 277.040677 73.728888 
L 277.448831 73.600791 
L 277.556526 73.509461 
L 277.74276 73.375208 
L 277.840929 73.198986 
L 277.968568 73.265592 
L 277.968568 73.760913 
L 278.821453 73.595546 
L 278.896458 73.069803 
L 278.896458 73.070069 
L 281.278859 72.931133 
L 281.552973 72.773575 
L 282.02305 72.653886 
L 282.111275 72.607175 
L 282.608019 72.542523 
L 282.608019 72.653845 
L 282.608019 72.739081 
L 283.119787 72.652018 
L 283.119797 72.52583 
L 283.854345 72.424263 
L 284.050286 72.366189 
L 284.463799 72.247981 
L 284.463799 72.266766 
L 284.463799 72.443799 
L 284.762345 72.317392 
L 284.840744 72.096453 
L 285.391689 71.886515 
L 285.391689 71.891648 
L 285.391689 72.090287 
L 285.819657 72.085319 
L 285.927374 71.90712 
L 287.54332 71.952772 
L 287.64134 71.350979 
L 287.729403 71.214569 
L 289.747414 70.873574 
L 289.786602 70.834397 
L 291.475738 70.737393 
L 292.298339 70.612652 
L 294.179056 70.504023 
L 294.57196 70.425018 
L 294.670591 70.43372 
L 294.670591 70.62135 
L 294.689374 70.618088 
L 295.159602 70.474594 
L 295.198801 70.374844 
L 295.598481 70.340222 
L 295.598481 70.409896 
L 295.598481 70.47687 
L 295.649128 70.476457 
L 296.148557 70.376102 
L 296.18767 70.28411 
L 296.526371 70.243236 
L 296.526371 70.259575 
L 297.454262 70.186783 
L 297.454262 70.068182 
L 297.454262 70.194726 
L 300.237932 70.011572 
L 300.237932 70.049855 
L 300.237932 70.231586 
L 301.074558 69.844718 
L 301.165822 69.726361 
L 301.165822 69.879236 
L 301.476569 69.681568 
L 301.545065 69.524089 
L 302.093712 69.361152 
L 302.093712 69.163484 
L 302.093712 69.607249 
L 302.388242 69.488826 
L 302.388275 69.133024 
L 302.662915 69.03039 
L 303.309496 68.705765 
L 303.397677 68.610663 
L 303.59334 68.498549 
L 303.949493 68.043914 
L 303.949493 67.786946 
L 303.949493 68.070944 
L 304.877383 68.051178 
L 304.877383 67.91281 
L 304.877383 67.914879 
L 306.733163 67.739456 
L 306.733163 67.462721 
L 306.733163 67.707544 
L 307.661054 67.628477 
L 307.661054 67.312208 
L 307.661054 67.357166 
L 308.588944 67.258332 
L 308.588944 67.119965 
L 308.588944 67.292726 
L 309.516834 67.213659 
L 309.516834 67.075291 
L 309.516834 67.087524 
L 310.444724 67.008457 
L 310.444724 66.830556 
L 310.444724 66.9049 
L 312.300504 66.76505 
L 312.300504 66.745283 
L 312.300504 66.745999 
L 313.228395 66.429731 
L 313.228395 66.409964 
L 313.228395 66.671625 
L 314.156285 66.315823 
L 314.156285 66.341774 
L 315.084175 66.144106 
L 315.084175 65.729004 
L 315.084175 65.820518 
L 316.012065 65.603084 
L 316.012065 65.168215 
L 316.012065 65.334157 
L 317.867846 65.100301 
L 317.867846 65.100561 
L 319.723626 64.982701 
L 319.723626 64.883867 
L 319.723626 64.966004 
L 322.507296 64.512013 
L 322.507296 64.432946 
L 322.507296 64.699206 
L 323.381865 64.595684 
L 323.435187 64.418107 
L 323.435187 64.575862 
L 323.802992 64.440005 
L 324.363077 64.343337 
L 324.363077 64.349307 
L 327.146747 64.262995 
L 327.146747 62.859554 
L 327.146747 64.719762 
L 327.45743 64.601924 
L 327.555341 64.562747 
L 327.614247 64.427317 
L 327.643716 64.263614 
L 328.074638 64.163575 
L 328.074638 64.268619 
L 328.54537 64.184326 
L 328.643314 63.931017 
L 329.28954 63.828116 
L 329.377582 63.710094 
L 330.239607 63.456793 
L 330.3082 63.378316 
L 330.611719 63.180163 
L 330.858308 63.084083 
L 330.858308 63.085167 
L 332.714089 63.028282 
L 332.714089 63.059118 
L 332.714089 63.244356 
L 333.020754 63.144655 
L 333.118709 62.75969 
L 333.353699 62.4853 
L 333.641979 62.426 
L 333.641979 62.228332 
L 333.641979 62.472768 
L 334.569869 62.257249 
L 334.569869 62.217716 
L 334.569869 63.32191 
L 335.010789 63.259732 
L 335.167456 62.330952 
L 335.497759 62.238843 
L 335.497759 62.219076 
L 335.497759 62.276519 
L 336.789127 62.140244 
L 339.20932 61.964488 
L 339.20932 61.70752 
L 339.20932 61.992155 
L 339.662848 61.880417 
L 339.986503 61.748634 
L 340.13721 61.650283 
L 340.13721 61.715181 
L 340.447387 61.663576 
L 340.711589 61.487426 
L 341.0651 61.412771 
L 341.0651 61.555039 
L 341.0651 61.567962 
L 341.357987 61.548439 
L 341.446072 61.107526 
L 341.99299 60.970393 
L 341.99299 61.061762 
L 342.290538 60.944633 
L 342.378774 60.854294 
L 343.221747 60.539051 
L 343.221747 60.382438 
L 343.78007 60.337916 
L 343.848771 60.337916 
L 343.848771 60.435748 
L 343.848771 60.452239 
L 344.741693 60.349638 
L 344.776661 60.329871 
L 344.776661 60.33673 
L 345.704551 60.236827 
L 345.704551 60.364858 
L 345.704551 60.614609 
L 346.428509 60.445915 
L 346.43825 60.159714 
L 346.722148 60.016081 
L 347.560331 59.81766 
L 347.560331 59.822323 
L 347.560331 60.141269 
L 347.652669 60.138417 
L 347.859071 60.111601 
L 348.045498 59.79231 
L 348.28168 59.703182 
L 349.05097 59.596052 
L 349.416112 59.576529 
L 349.416112 59.609223 
L 349.416112 60.206348 
L 349.795365 60.049555 
L 349.854121 59.578446 
L 351.084617 59.472707 
L 352.199782 59.453031 
L 352.199782 59.334431 
L 352.199782 59.526814 
L 352.761854 59.420915 
L 353.127673 59.396755 
L 353.127673 59.423631 
L 353.127673 62.302816 
L 353.87979 62.235539 
L 353.889595 59.502457 
L 355.911343 59.217792 
L 355.911343 59.366536 
L 355.911343 59.530447 
L 356.525233 59.526611 
L 356.839233 59.232573 
L 356.839233 59.232766 
L 358.695014 59.19324 
L 358.695014 58.165367 
L 358.695014 58.978718 
L 359.622904 58.800817 
L 359.622904 58.286881 
L 359.622904 58.401645 
L 360.550794 58.12491 
L 360.550794 58.026076 
L 360.550794 58.090321 
L 361.478684 57.971721 
L 361.478684 57.596152 
L 361.478684 57.891808 
L 362.406574 57.792974 
L 362.406574 57.63484 
L 362.406574 57.828904 
L 365.190245 57.439838 
L 365.190245 56.827068 
L 365.190245 57.446692 
L 366.118135 57.308325 
L 366.118135 57.323188 
L 367.046025 57.105754 
L 367.046025 57.00692 
L 367.046025 57.082819 
L 368.901806 56.956262 
L 368.901806 56.699294 
L 368.901806 56.874145 
L 371.685476 56.800675 
L 371.685476 55.990237 
L 371.685476 56.220501 
L 372.613366 56.200734 
L 372.613366 55.844932 
L 372.613366 55.903012 
L 373.541257 55.823945 
L 373.541257 55.54721 
L 373.541257 55.797823 
L 374.469147 55.679222 
L 374.469147 55.540855 
L 374.469147 55.627355 
L 375.397037 55.508754 
L 375.397037 55.40992 
L 375.397037 55.511637 
L 377.252817 55.472334 
L 377.252817 55.274667 
L 377.252817 55.4865 
L 378.180708 55.427199 
L 378.180708 55.170231 
L 378.180708 55.402317 
L 379.108598 55.32325 
L 379.108598 55.165115 
L 379.108598 55.288999 
L 380.964378 55.131234 
L 380.964378 55.270526 
L 380.964378 55.306132 
L 381.892268 55.266599 
L 381.892268 54.989864 
L 381.892268 55.059635 
L 383.748049 55.041843 
L 383.748049 55.042072 
L 384.675939 54.804871 
L 384.675939 54.528136 
L 384.675939 54.761571 
L 385.603829 54.58367 
L 385.603829 54.188335 
L 385.603829 54.257422 
L 386.531719 54.119055 
L 386.531719 53.763253 
L 386.531719 53.866111 
L 387.459609 53.74751 
L 387.459609 53.62891 
L 387.459609 53.688537 
L 389.31539 53.574452 
L 389.31539 53.534919 
L 389.31539 53.572278 
L 391.17117 53.43465 
L 391.17117 53.098615 
L 391.17117 53.186382 
L 392.09906 53.087548 
L 392.09906 52.751513 
L 392.09906 52.851343 
L 393.02695 52.712975 
L 393.02695 52.673442 
L 393.02695 52.7362 
L 393.954841 52.657133 
L 393.954841 52.558299 
L 393.954841 52.617952 
L 394.882731 52.519118 
L 394.882731 52.281917 
L 394.882731 52.365179 
L 395.810621 52.305879 
L 395.810621 52.312316 
L 396.738511 52.154182 
L 396.738511 52.2534 
L 396.738511 52.287111 
L 396.738511 52.287111 
L 397.666401 52.343626 
L 397.666401 52.343626 
" style="fill:none;stroke:#008000;stroke-linecap:square;stroke-width:1.5;"/>
   </g>
   <g id="line2d_30">
    <defs>
     <path d="M 0 3 
C 0.795609 3 1.55874 2.683901 2.12132 2.12132 
C 2.683901 1.55874 3 0.795609 3 0 
C 3 -0.795609 2.683901 -1.55874 2.12132 -2.12132 
C 1.55874 -2.683901 0.795609 -3 0 -3 
C -0.795609 -3 -1.55874 -2.683901 -2.12132 -2.12132 
C -2.683901 -1.55874 -3 -0.795609 -3 0 
C -3 0.795609 -2.683901 1.55874 -2.12132 2.12132 
C -1.55874 2.683901 -0.795609 3 0 3 
z
" id="m3d61731fce" style="stroke:#bfbf00;"/>
    </defs>
    <g clip-path="url(#p943eb6d6e6)">
     <use style="fill:#bfbf00;stroke:#bfbf00;" x="76.648917" xlink:href="#m3d61731fce" y="255.91443"/>
     <use style="fill:#bfbf00;stroke:#bfbf00;" x="79.804678" xlink:href="#m3d61731fce" y="226.264264"/>
     <use style="fill:#bfbf00;stroke:#bfbf00;" x="242.205092" xlink:href="#m3d61731fce" y="216.380876"/>
     <use style="fill:#bfbf00;stroke:#bfbf00;" x="243.968083" xlink:href="#m3d61731fce" y="216.380876"/>
     <use style="fill:#bfbf00;stroke:#bfbf00;" x="244.317739" xlink:href="#m3d61731fce" y="255.91443"/>
     <use style="fill:#bfbf00;stroke:#bfbf00;" x="244.382863" xlink:href="#m3d61731fce" y="255.91443"/>
     <use style="fill:#bfbf00;stroke:#bfbf00;" x="245.122458" xlink:href="#m3d61731fce" y="261.844463"/>
    </g>
   </g>
   <g id="line2d_31">
    <defs>
     <path d="M 0 3 
C 0.795609 3 1.55874 2.683901 2.12132 2.12132 
C 2.683901 1.55874 3 0.795609 3 0 
C 3 -0.795609 2.683901 -1.55874 2.12132 -2.12132 
C 1.55874 -2.683901 0.795609 -3 0 -3 
C -0.795609 -3 -1.55874 -2.683901 -2.12132 -2.12132 
C -2.683901 -1.55874 -3 -0.795609 -3 0 
C -3 0.795609 -2.683901 1.55874 -2.12132 2.12132 
C -1.55874 2.683901 -0.795609 3 0 3 
z
" id="m9870cddecd" style="stroke:#008000;"/>
    </defs>
    <g clip-path="url(#p943eb6d6e6)">
     <use style="fill:#008000;stroke:#008000;" x="120.768549" xlink:href="#m9870cddecd" y="257.378753"/>
     <use style="fill:#008000;stroke:#008000;" x="209.846221" xlink:href="#m9870cddecd" y="263.826478"/>
    </g>
   </g>
   <g id="patch_3">
    <path d="M 57.6 276.48 
L 57.6 41.472 
" style="fill:none;stroke:#000000;stroke-linecap:square;stroke-linejoin:miter;stroke-width:0.8;"/>
   </g>
   <g id="patch_4">
    <path d="M 414.72 276.48 
L 414.72 41.472 
" style="fill:none;stroke:#000000;stroke-linecap:square;stroke-linejoin:miter;stroke-width:0.8;"/>
   </g>
   <g id="patch_5">
    <path d="M 57.6 276.48 
L 414.72 276.48 
" style="fill:none;stroke:#000000;stroke-linecap:square;stroke-linejoin:miter;stroke-width:0.8;"/>
   </g>
   <g id="patch_6">
    <path d="M 57.6 41.472 
L 414.72 41.472 
" style="fill:none;stroke:#000000;stroke-linecap:square;stroke-linejoin:miter;stroke-width:0.8;"/>
   </g>
   <g id="text_16">
    <!-- My Bondora earnings -->
    <defs>
     <path d="M 9.8125 72.90625 
L 24.515625 72.90625 
L 43.109375 23.296875 
L 61.8125 72.90625 
L 76.515625 72.90625 
L 76.515625 0 
L 66.890625 0 
L 66.890625 64.015625 
L 48.09375 14.015625 
L 38.1875 14.015625 
L 19.390625 64.015625 
L 19.390625 0 
L 9.8125 0 
z
" id="DejaVuSans-4d"/>
     <path d="M 32.171875 -5.078125 
Q 28.375 -14.84375 24.75 -17.8125 
Q 21.140625 -20.796875 15.09375 -20.796875 
L 7.90625 -20.796875 
L 7.90625 -13.28125 
L 13.1875 -13.28125 
Q 16.890625 -13.28125 18.9375 -11.515625 
Q 21 -9.765625 23.484375 -3.21875 
L 25.09375 0.875 
L 2.984375 54.6875 
L 12.5 54.6875 
L 29.59375 11.921875 
L 46.6875 54.6875 
L 56.203125 54.6875 
z
" id="DejaVuSans-79"/>
     <path id="DejaVuSans-20"/>
     <path d="M 19.671875 34.8125 
L 19.671875 8.109375 
L 35.5 8.109375 
Q 43.453125 8.109375 47.28125 11.40625 
Q 51.125 14.703125 51.125 21.484375 
Q 51.125 28.328125 47.28125 31.5625 
Q 43.453125 34.8125 35.5 34.8125 
z
M 19.671875 64.796875 
L 19.671875 42.828125 
L 34.28125 42.828125 
Q 41.5 42.828125 45.03125 45.53125 
Q 48.578125 48.25 48.578125 53.8125 
Q 48.578125 59.328125 45.03125 62.0625 
Q 41.5 64.796875 34.28125 64.796875 
z
M 9.8125 72.90625 
L 35.015625 72.90625 
Q 46.296875 72.90625 52.390625 68.21875 
Q 58.5 63.53125 58.5 54.890625 
Q 58.5 48.1875 55.375 44.234375 
Q 52.25 40.28125 46.1875 39.3125 
Q 53.46875 37.75 57.5 32.78125 
Q 61.53125 27.828125 61.53125 20.40625 
Q 61.53125 10.640625 54.890625 5.3125 
Q 48.25 0 35.984375 0 
L 9.8125 0 
z
" id="DejaVuSans-42"/>
     <path d="M 30.609375 48.390625 
Q 23.390625 48.390625 19.1875 42.75 
Q 14.984375 37.109375 14.984375 27.296875 
Q 14.984375 17.484375 19.15625 11.84375 
Q 23.34375 6.203125 30.609375 6.203125 
Q 37.796875 6.203125 41.984375 11.859375 
Q 46.1875 17.53125 46.1875 27.296875 
Q 46.1875 37.015625 41.984375 42.703125 
Q 37.796875 48.390625 30.609375 48.390625 
z
M 30.609375 56 
Q 42.328125 56 49.015625 48.375 
Q 55.71875 40.765625 55.71875 27.296875 
Q 55.71875 13.875 49.015625 6.21875 
Q 42.328125 -1.421875 30.609375 -1.421875 
Q 18.84375 -1.421875 12.171875 6.21875 
Q 5.515625 13.875 5.515625 27.296875 
Q 5.515625 40.765625 12.171875 48.375 
Q 18.84375 56 30.609375 56 
z
" id="DejaVuSans-6f"/>
     <path d="M 54.890625 33.015625 
L 54.890625 0 
L 45.90625 0 
L 45.90625 32.71875 
Q 45.90625 40.484375 42.875 44.328125 
Q 39.84375 48.1875 33.796875 48.1875 
Q 26.515625 48.1875 22.3125 43.546875 
Q 18.109375 38.921875 18.109375 30.90625 
L 18.109375 0 
L 9.078125 0 
L 9.078125 54.6875 
L 18.109375 54.6875 
L 18.109375 46.1875 
Q 21.34375 51.125 25.703125 53.5625 
Q 30.078125 56 35.796875 56 
Q 45.21875 56 50.046875 50.171875 
Q 54.890625 44.34375 54.890625 33.015625 
z
" id="DejaVuSans-6e"/>
     <path d="M 41.109375 46.296875 
Q 39.59375 47.171875 37.8125 47.578125 
Q 36.03125 48 33.890625 48 
Q 26.265625 48 22.1875 43.046875 
Q 18.109375 38.09375 18.109375 28.8125 
L 18.109375 0 
L 9.078125 0 
L 9.078125 54.6875 
L 18.109375 54.6875 
L 18.109375 46.1875 
Q 20.953125 51.171875 25.484375 53.578125 
Q 30.03125 56 36.53125 56 
Q 37.453125 56 38.578125 55.875 
Q 39.703125 55.765625 41.0625 55.515625 
z
" id="DejaVuSans-72"/>
     <path d="M 9.421875 54.6875 
L 18.40625 54.6875 
L 18.40625 0 
L 9.421875 0 
z
M 9.421875 75.984375 
L 18.40625 75.984375 
L 18.40625 64.59375 
L 9.421875 64.59375 
z
" id="DejaVuSans-69"/>
     <path d="M 45.40625 27.984375 
Q 45.40625 37.75 41.375 43.109375 
Q 37.359375 48.484375 30.078125 48.484375 
Q 22.859375 48.484375 18.828125 43.109375 
Q 14.796875 37.75 14.796875 27.984375 
Q 14.796875 18.265625 18.828125 12.890625 
Q 22.859375 7.515625 30.078125 7.515625 
Q 37.359375 7.515625 41.375 12.890625 
Q 45.40625 18.265625 45.40625 27.984375 
z
M 54.390625 6.78125 
Q 54.390625 -7.171875 48.1875 -13.984375 
Q 42 -20.796875 29.203125 -20.796875 
Q 24.46875 -20.796875 20.265625 -20.09375 
Q 16.0625 -19.390625 12.109375 -17.921875 
L 12.109375 -9.1875 
Q 16.0625 -11.328125 19.921875 -12.34375 
Q 23.78125 -13.375 27.78125 -13.375 
Q 36.625 -13.375 41.015625 -8.765625 
Q 45.40625 -4.15625 45.40625 5.171875 
L 45.40625 9.625 
Q 42.625 4.78125 38.28125 2.390625 
Q 33.9375 0 27.875 0 
Q 17.828125 0 11.671875 7.65625 
Q 5.515625 15.328125 5.515625 27.984375 
Q 5.515625 40.671875 11.671875 48.328125 
Q 17.828125 56 27.875 56 
Q 33.9375 56 38.28125 53.609375 
Q 42.625 51.21875 45.40625 46.390625 
L 45.40625 54.6875 
L 54.390625 54.6875 
z
" id="DejaVuSans-67"/>
     <path d="M 44.28125 53.078125 
L 44.28125 44.578125 
Q 40.484375 46.53125 36.375 47.5 
Q 32.28125 48.484375 27.875 48.484375 
Q 21.1875 48.484375 17.84375 46.4375 
Q 14.5 44.390625 14.5 40.28125 
Q 14.5 37.15625 16.890625 35.375 
Q 19.28125 33.59375 26.515625 31.984375 
L 29.59375 31.296875 
Q 39.15625 29.25 43.1875 25.515625 
Q 47.21875 21.78125 47.21875 15.09375 
Q 47.21875 7.46875 41.1875 3.015625 
Q 35.15625 -1.421875 24.609375 -1.421875 
Q 20.21875 -1.421875 15.453125 -0.5625 
Q 10.6875 0.296875 5.421875 2 
L 5.421875 11.28125 
Q 10.40625 8.6875 15.234375 7.390625 
Q 20.0625 6.109375 24.8125 6.109375 
Q 31.15625 6.109375 34.5625 8.28125 
Q 37.984375 10.453125 37.984375 14.40625 
Q 37.984375 18.0625 35.515625 20.015625 
Q 33.0625 21.96875 24.703125 23.78125 
L 21.578125 24.515625 
Q 13.234375 26.265625 9.515625 29.90625 
Q 5.8125 33.546875 5.8125 39.890625 
Q 5.8125 47.609375 11.28125 51.796875 
Q 16.75 56 26.8125 56 
Q 31.78125 56 36.171875 55.265625 
Q 40.578125 54.546875 44.28125 53.078125 
z
" id="DejaVuSans-73"/>
    </defs>
    <g transform="translate(172.363125 35.472)scale(0.12 -0.12)">
     <use xlink:href="#DejaVuSans-4d"/>
     <use x="86.279297" xlink:href="#DejaVuSans-79"/>
     <use x="145.458984" xlink:href="#DejaVuSans-20"/>
     <use x="177.246094" xlink:href="#DejaVuSans-42"/>
     <use x="245.849609" xlink:href="#DejaVuSans-6f"/>
     <use x="307.03125" xlink:href="#DejaVuSans-6e"/>
     <use x="370.410156" xlink:href="#DejaVuSans-64"/>
     <use x="433.886719" xlink:href="#DejaVuSans-6f"/>
     <use x="495.068359" xlink:href="#DejaVuSans-72"/>
     <use x="536.181641" xlink:href="#DejaVuSans-61"/>
     <use x="597.460938" xlink:href="#DejaVuSans-20"/>
     <use x="629.248047" xlink:href="#DejaVuSans-65"/>
     <use x="690.771484" xlink:href="#DejaVuSans-61"/>
     <use x="752.050781" xlink:href="#DejaVuSans-72"/>
     <use x="793.148438" xlink:href="#DejaVuSans-6e"/>
     <use x="856.527344" xlink:href="#DejaVuSans-69"/>
     <use x="884.310547" xlink:href="#DejaVuSans-6e"/>
     <use x="947.689453" xlink:href="#DejaVuSans-67"/>
     <use x="1011.166016" xlink:href="#DejaVuSans-73"/>
    </g>
   </g>
   <g id="legend_1">
    <g id="patch_7">
     <path d="M 64.6 122.862625 
L 158.45 122.862625 
Q 160.45 122.862625 160.45 120.862625 
L 160.45 48.472 
Q 160.45 46.472 158.45 46.472 
L 64.6 46.472 
Q 62.6 46.472 62.6 48.472 
L 62.6 120.862625 
Q 62.6 122.862625 64.6 122.862625 
z
" style="fill:#ffffff;opacity:0.8;stroke:#cccccc;stroke-linejoin:miter;"/>
    </g>
    <g id="line2d_32">
     <path d="M 66.6 54.570437 
L 86.6 54.570437 
" style="fill:none;stroke:#0000ff;stroke-linecap:square;stroke-width:1.5;"/>
    </g>
    <g id="line2d_33"/>
    <g id="text_17">
     <!-- Interest -->
     <defs>
      <path d="M 9.8125 72.90625 
L 19.671875 72.90625 
L 19.671875 0 
L 9.8125 0 
z
" id="DejaVuSans-49"/>
     </defs>
     <g transform="translate(94.6 58.070437)scale(0.1 -0.1)">
      <use xlink:href="#DejaVuSans-49"/>
      <use x="29.492188" xlink:href="#DejaVuSans-6e"/>
      <use x="92.871094" xlink:href="#DejaVuSans-74"/>
      <use x="132.080078" xlink:href="#DejaVuSans-65"/>
      <use x="193.603516" xlink:href="#DejaVuSans-72"/>
      <use x="234.685547" xlink:href="#DejaVuSans-65"/>
      <use x="296.208984" xlink:href="#DejaVuSans-73"/>
      <use x="348.308594" xlink:href="#DejaVuSans-74"/>
     </g>
    </g>
    <g id="line2d_34">
     <path d="M 66.6 69.248562 
L 86.6 69.248562 
" style="fill:none;stroke:#ff0000;stroke-linecap:square;stroke-width:1.5;"/>
    </g>
    <g id="line2d_35"/>
    <g id="text_18">
     <!-- Balance -->
     <defs>
      <path d="M 9.421875 75.984375 
L 18.40625 75.984375 
L 18.40625 0 
L 9.421875 0 
z
" id="DejaVuSans-6c"/>
      <path d="M 48.78125 52.59375 
L 48.78125 44.1875 
Q 44.96875 46.296875 41.140625 47.34375 
Q 37.3125 48.390625 33.40625 48.390625 
Q 24.65625 48.390625 19.8125 42.84375 
Q 14.984375 37.3125 14.984375 27.296875 
Q 14.984375 17.28125 19.8125 11.734375 
Q 24.65625 6.203125 33.40625 6.203125 
Q 37.3125 6.203125 41.140625 7.25 
Q 44.96875 8.296875 48.78125 10.40625 
L 48.78125 2.09375 
Q 45.015625 0.34375 40.984375 -0.53125 
Q 36.96875 -1.421875 32.421875 -1.421875 
Q 20.0625 -1.421875 12.78125 6.34375 
Q 5.515625 14.109375 5.515625 27.296875 
Q 5.515625 40.671875 12.859375 48.328125 
Q 20.21875 56 33.015625 56 
Q 37.15625 56 41.109375 55.140625 
Q 45.0625 54.296875 48.78125 52.59375 
z
" id="DejaVuSans-63"/>
     </defs>
     <g transform="translate(94.6 72.748562)scale(0.1 -0.1)">
      <use xlink:href="#DejaVuSans-42"/>
      <use x="68.603516" xlink:href="#DejaVuSans-61"/>
      <use x="129.882812" xlink:href="#DejaVuSans-6c"/>
      <use x="157.666016" xlink:href="#DejaVuSans-61"/>
      <use x="218.945312" xlink:href="#DejaVuSans-6e"/>
      <use x="282.324219" xlink:href="#DejaVuSans-63"/>
      <use x="337.304688" xlink:href="#DejaVuSans-65"/>
     </g>
    </g>
    <g id="line2d_36">
     <path d="M 66.6 83.926687 
L 86.6 83.926687 
" style="fill:none;stroke:#008000;stroke-linecap:square;stroke-width:1.5;"/>
    </g>
    <g id="line2d_37"/>
    <g id="text_19">
     <!-- Investments -->
     <defs>
      <path d="M 2.984375 54.6875 
L 12.5 54.6875 
L 29.59375 8.796875 
L 46.6875 54.6875 
L 56.203125 54.6875 
L 35.6875 0 
L 23.484375 0 
z
" id="DejaVuSans-76"/>
      <path d="M 52 44.1875 
Q 55.375 50.25 60.0625 53.125 
Q 64.75 56 71.09375 56 
Q 79.640625 56 84.28125 50.015625 
Q 88.921875 44.046875 88.921875 33.015625 
L 88.921875 0 
L 79.890625 0 
L 79.890625 32.71875 
Q 79.890625 40.578125 77.09375 44.375 
Q 74.3125 48.1875 68.609375 48.1875 
Q 61.625 48.1875 57.5625 43.546875 
Q 53.515625 38.921875 53.515625 30.90625 
L 53.515625 0 
L 44.484375 0 
L 44.484375 32.71875 
Q 44.484375 40.625 41.703125 44.40625 
Q 38.921875 48.1875 33.109375 48.1875 
Q 26.21875 48.1875 22.15625 43.53125 
Q 18.109375 38.875 18.109375 30.90625 
L 18.109375 0 
L 9.078125 0 
L 9.078125 54.6875 
L 18.109375 54.6875 
L 18.109375 46.1875 
Q 21.1875 51.21875 25.484375 53.609375 
Q 29.78125 56 35.6875 56 
Q 41.65625 56 45.828125 52.96875 
Q 50 49.953125 52 44.1875 
z
" id="DejaVuSans-6d"/>
     </defs>
     <g transform="translate(94.6 87.426687)scale(0.1 -0.1)">
      <use xlink:href="#DejaVuSans-49"/>
      <use x="29.492188" xlink:href="#DejaVuSans-6e"/>
      <use x="92.871094" xlink:href="#DejaVuSans-76"/>
      <use x="152.050781" xlink:href="#DejaVuSans-65"/>
      <use x="213.574219" xlink:href="#DejaVuSans-73"/>
      <use x="265.673828" xlink:href="#DejaVuSans-74"/>
      <use x="304.882812" xlink:href="#DejaVuSans-6d"/>
      <use x="402.294922" xlink:href="#DejaVuSans-65"/>
      <use x="463.818359" xlink:href="#DejaVuSans-6e"/>
      <use x="527.197266" xlink:href="#DejaVuSans-74"/>
      <use x="566.40625" xlink:href="#DejaVuSans-73"/>
     </g>
    </g>
    <g id="line2d_38"/>
    <g id="line2d_39">
     <g>
      <use style="fill:#bfbf00;stroke:#bfbf00;" x="76.6" xlink:href="#m3d61731fce" y="98.604812"/>
     </g>
    </g>
    <g id="text_20">
     <!-- Deposits -->
     <defs>
      <path d="M 19.671875 64.796875 
L 19.671875 8.109375 
L 31.59375 8.109375 
Q 46.6875 8.109375 53.6875 14.9375 
Q 60.6875 21.78125 60.6875 36.53125 
Q 60.6875 51.171875 53.6875 57.984375 
Q 46.6875 64.796875 31.59375 64.796875 
z
M 9.8125 72.90625 
L 30.078125 72.90625 
Q 51.265625 72.90625 61.171875 64.09375 
Q 71.09375 55.28125 71.09375 36.53125 
Q 71.09375 17.671875 61.125 8.828125 
Q 51.171875 0 30.078125 0 
L 9.8125 0 
z
" id="DejaVuSans-44"/>
      <path d="M 18.109375 8.203125 
L 18.109375 -20.796875 
L 9.078125 -20.796875 
L 9.078125 54.6875 
L 18.109375 54.6875 
L 18.109375 46.390625 
Q 20.953125 51.265625 25.265625 53.625 
Q 29.59375 56 35.59375 56 
Q 45.5625 56 51.78125 48.09375 
Q 58.015625 40.1875 58.015625 27.296875 
Q 58.015625 14.40625 51.78125 6.484375 
Q 45.5625 -1.421875 35.59375 -1.421875 
Q 29.59375 -1.421875 25.265625 0.953125 
Q 20.953125 3.328125 18.109375 8.203125 
z
M 48.6875 27.296875 
Q 48.6875 37.203125 44.609375 42.84375 
Q 40.53125 48.484375 33.40625 48.484375 
Q 26.265625 48.484375 22.1875 42.84375 
Q 18.109375 37.203125 18.109375 27.296875 
Q 18.109375 17.390625 22.1875 11.75 
Q 26.265625 6.109375 33.40625 6.109375 
Q 40.53125 6.109375 44.609375 11.75 
Q 48.6875 17.390625 48.6875 27.296875 
z
" id="DejaVuSans-70"/>
     </defs>
     <g transform="translate(94.6 102.104812)scale(0.1 -0.1)">
      <use xlink:href="#DejaVuSans-44"/>
      <use x="77.001953" xlink:href="#DejaVuSans-65"/>
      <use x="138.525391" xlink:href="#DejaVuSans-70"/>
      <use x="202.001953" xlink:href="#DejaVuSans-6f"/>
      <use x="263.183594" xlink:href="#DejaVuSans-73"/>
      <use x="315.283203" xlink:href="#DejaVuSans-69"/>
      <use x="343.066406" xlink:href="#DejaVuSans-74"/>
      <use x="382.275391" xlink:href="#DejaVuSans-73"/>
     </g>
    </g>
    <g id="line2d_40"/>
    <g id="line2d_41">
     <g>
      <use style="fill:#008000;stroke:#008000;" x="76.6" xlink:href="#m9870cddecd" y="113.282937"/>
     </g>
    </g>
    <g id="text_21">
     <!-- Commission -->
     <defs>
      <path d="M 64.40625 67.28125 
L 64.40625 56.890625 
Q 59.421875 61.53125 53.78125 63.8125 
Q 48.140625 66.109375 41.796875 66.109375 
Q 29.296875 66.109375 22.65625 58.46875 
Q 16.015625 50.828125 16.015625 36.375 
Q 16.015625 21.96875 22.65625 14.328125 
Q 29.296875 6.6875 41.796875 6.6875 
Q 48.140625 6.6875 53.78125 8.984375 
Q 59.421875 11.28125 64.40625 15.921875 
L 64.40625 5.609375 
Q 59.234375 2.09375 53.4375 0.328125 
Q 47.65625 -1.421875 41.21875 -1.421875 
Q 24.65625 -1.421875 15.125 8.703125 
Q 5.609375 18.84375 5.609375 36.375 
Q 5.609375 53.953125 15.125 64.078125 
Q 24.65625 74.21875 41.21875 74.21875 
Q 47.75 74.21875 53.53125 72.484375 
Q 59.328125 70.75 64.40625 67.28125 
z
" id="DejaVuSans-43"/>
     </defs>
     <g transform="translate(94.6 116.782937)scale(0.1 -0.1)">
      <use xlink:href="#DejaVuSans-43"/>
      <use x="69.824219" xlink:href="#DejaVuSans-6f"/>
      <use x="131.005859" xlink:href="#DejaVuSans-6d"/>
      <use x="228.417969" xlink:href="#DejaVuSans-6d"/>
      <use x="325.830078" xlink:href="#DejaVuSans-69"/>
      <use x="353.613281" xlink:href="#DejaVuSans-73"/>
      <use x="405.712891" xlink:href="#DejaVuSans-73"/>
      <use x="457.8125" xlink:href="#DejaVuSans-69"/>
      <use x="485.595703" xlink:href="#DejaVuSans-6f"/>
      <use x="546.777344" xlink:href="#DejaVuSans-6e"/>
     </g>
    </g>
   </g>
  </g>
 </g>
 <defs>
  <clipPath id="p943eb6d6e6">
   <rect height="235.008" width="357.12" x="57.6" y="41.472"/>
  </clipPath>
 </defs>
</svg>
