<?xml version="1.0" encoding="utf-8" standalone="no"?>
<!DOCTYPE svg PUBLIC "-//W3C//DTD SVG 1.1//EN"
  "http://www.w3.org/Graphics/SVG/1.1/DTD/svg11.dtd">
<!-- Created with matplotlib (http://matplotlib.org/) -->
<svg height="345.6pt" version="1.1" viewBox="0 0 460.8 345.6" width="460.8pt" xmlns="http://www.w3.org/2000/svg" xmlns:xlink="http://www.w3.org/1999/xlink">
 <defs>
  <style type="text/css">
*{stroke-linecap:butt;stroke-linejoin:round;}
  </style>
 </defs>
 <g id="figure_1">
  <g id="patch_1">
   <path d="M 0 345.6 
L 460.8 345.6 
L 460.8 0 
L 0 0 
z
" style="fill:#ffffff;"/>
  </g>
  <g id="axes_1">
   <g id="patch_2">
    <path d="M 57.6 276.48 
L 414.72 276.48 
L 414.72 41.472 
L 57.6 41.472 
z
" style="fill:#ffffff;"/>
   </g>
   <g id="matplotlib.axis_1">
    <g id="xtick_1">
     <g id="line2d_1">
      <path clip-path="url(#pebea541618)" d="M 95.21476 276.48 
L 95.21476 41.472 
" style="fill:none;stroke:#b0b0b0;stroke-linecap:square;stroke-width:0.8;"/>
     </g>
     <g id="line2d_2">
      <defs>
       <path d="M 0 0 
L 0 3.5 
" id="ma416c623b4" style="stroke:#000000;stroke-width:0.8;"/>
      </defs>
      <g>
       <use style="stroke:#000000;stroke-width:0.8;" x="95.21476" xlink:href="#ma416c623b4" y="276.48"/>
      </g>
     </g>
     <g id="text_1">
      <!-- 2019-01-10 -->
      <defs>
       <path d="M 19.1875 8.296875 
L 53.609375 8.296875 
L 53.609375 0 
L 7.328125 0 
L 7.328125 8.296875 
Q 12.9375 14.109375 22.625 23.890625 
Q 32.328125 33.6875 34.8125 36.53125 
Q 39.546875 41.84375 41.421875 45.53125 
Q 43.3125 49.21875 43.3125 52.78125 
Q 43.3125 58.59375 39.234375 62.25 
Q 35.15625 65.921875 28.609375 65.921875 
Q 23.96875 65.921875 18.8125 64.3125 
Q 13.671875 62.703125 7.8125 59.421875 
L 7.8125 69.390625 
Q 13.765625 71.78125 18.9375 73 
Q 24.125 74.21875 28.421875 74.21875 
Q 39.75 74.21875 46.484375 68.546875 
Q 53.21875 62.890625 53.21875 53.421875 
Q 53.21875 48.921875 51.53125 44.890625 
Q 49.859375 40.875 45.40625 35.40625 
Q 44.1875 33.984375 37.640625 27.21875 
Q 31.109375 20.453125 19.1875 8.296875 
z
" id="DejaVuSans-32"/>
       <path d="M 31.78125 66.40625 
Q 24.171875 66.40625 20.328125 58.90625 
Q 16.5 51.421875 16.5 36.375 
Q 16.5 21.390625 20.328125 13.890625 
Q 24.171875 6.390625 31.78125 6.390625 
Q 39.453125 6.390625 43.28125 13.890625 
Q 47.125 21.390625 47.125 36.375 
Q 47.125 51.421875 43.28125 58.90625 
Q 39.453125 66.40625 31.78125 66.40625 
z
M 31.78125 74.21875 
Q 44.046875 74.21875 50.515625 64.515625 
Q 56.984375 54.828125 56.984375 36.375 
Q 56.984375 17.96875 50.515625 8.265625 
Q 44.046875 -1.421875 31.78125 -1.421875 
Q 19.53125 -1.421875 13.0625 8.265625 
Q 6.59375 17.96875 6.59375 36.375 
Q 6.59375 54.828125 13.0625 64.515625 
Q 19.53125 74.21875 31.78125 74.21875 
z
" id="DejaVuSans-30"/>
       <path d="M 12.40625 8.296875 
L 28.515625 8.296875 
L 28.515625 63.921875 
L 10.984375 60.40625 
L 10.984375 69.390625 
L 28.421875 72.90625 
L 38.28125 72.90625 
L 38.28125 8.296875 
L 54.390625 8.296875 
L 54.390625 0 
L 12.40625 0 
z
" id="DejaVuSans-31"/>
       <path d="M 10.984375 1.515625 
L 10.984375 10.5 
Q 14.703125 8.734375 18.5 7.8125 
Q 22.3125 6.890625 25.984375 6.890625 
Q 35.75 6.890625 40.890625 13.453125 
Q 46.046875 20.015625 46.78125 33.40625 
Q 43.953125 29.203125 39.59375 26.953125 
Q 35.25 24.703125 29.984375 24.703125 
Q 19.046875 24.703125 12.671875 31.3125 
Q 6.296875 37.9375 6.296875 49.421875 
Q 6.296875 60.640625 12.9375 67.421875 
Q 19.578125 74.21875 30.609375 74.21875 
Q 43.265625 74.21875 49.921875 64.515625 
Q 56.59375 54.828125 56.59375 36.375 
Q 56.59375 19.140625 48.40625 8.859375 
Q 40.234375 -1.421875 26.421875 -1.421875 
Q 22.703125 -1.421875 18.890625 -0.6875 
Q 15.09375 0.046875 10.984375 1.515625 
z
M 30.609375 32.421875 
Q 37.25 32.421875 41.125 36.953125 
Q 45.015625 41.5 45.015625 49.421875 
Q 45.015625 57.28125 41.125 61.84375 
Q 37.25 66.40625 30.609375 66.40625 
Q 23.96875 66.40625 20.09375 61.84375 
Q 16.21875 57.28125 16.21875 49.421875 
Q 16.21875 41.5 20.09375 36.953125 
Q 23.96875 32.421875 30.609375 32.421875 
z
" id="DejaVuSans-39"/>
       <path d="M 4.890625 31.390625 
L 31.203125 31.390625 
L 31.203125 23.390625 
L 4.890625 23.390625 
z
" id="DejaVuSans-2d"/>
      </defs>
      <g transform="translate(43.845309 319.118252)rotate(-30)scale(0.1 -0.1)">
       <use xlink:href="#DejaVuSans-32"/>
       <use x="63.623047" xlink:href="#DejaVuSans-30"/>
       <use x="127.246094" xlink:href="#DejaVuSans-31"/>
       <use x="190.869141" xlink:href="#DejaVuSans-39"/>
       <use x="254.492188" xlink:href="#DejaVuSans-2d"/>
       <use x="290.576172" xlink:href="#DejaVuSans-30"/>
       <use x="354.199219" xlink:href="#DejaVuSans-31"/>
       <use x="417.822266" xlink:href="#DejaVuSans-2d"/>
       <use x="453.90625" xlink:href="#DejaVuSans-31"/>
       <use x="517.529297" xlink:href="#DejaVuSans-30"/>
      </g>
     </g>
    </g>
    <g id="xtick_2">
     <g id="line2d_3">
      <path clip-path="url(#pebea541618)" d="M 145.10617 276.48 
L 145.10617 41.472 
" style="fill:none;stroke:#b0b0b0;stroke-linecap:square;stroke-width:0.8;"/>
     </g>
     <g id="line2d_4">
      <g>
       <use style="stroke:#000000;stroke-width:0.8;" x="145.10617" xlink:href="#ma416c623b4" y="276.48"/>
      </g>
     </g>
     <g id="text_2">
      <!-- 2019-01-31 -->
      <defs>
       <path d="M 40.578125 39.3125 
Q 47.65625 37.796875 51.625 33 
Q 55.609375 28.21875 55.609375 21.1875 
Q 55.609375 10.40625 48.1875 4.484375 
Q 40.765625 -1.421875 27.09375 -1.421875 
Q 22.515625 -1.421875 17.65625 -0.515625 
Q 12.796875 0.390625 7.625 2.203125 
L 7.625 11.71875 
Q 11.71875 9.328125 16.59375 8.109375 
Q 21.484375 6.890625 26.8125 6.890625 
Q 36.078125 6.890625 40.9375 10.546875 
Q 45.796875 14.203125 45.796875 21.1875 
Q 45.796875 27.640625 41.28125 31.265625 
Q 36.765625 34.90625 28.71875 34.90625 
L 20.21875 34.90625 
L 20.21875 43.015625 
L 29.109375 43.015625 
Q 36.375 43.015625 40.234375 45.921875 
Q 44.09375 48.828125 44.09375 54.296875 
Q 44.09375 59.90625 40.109375 62.90625 
Q 36.140625 65.921875 28.71875 65.921875 
Q 24.65625 65.921875 20.015625 65.03125 
Q 15.375 64.15625 9.8125 62.3125 
L 9.8125 71.09375 
Q 15.4375 72.65625 20.34375 73.4375 
Q 25.25 74.21875 29.59375 74.21875 
Q 40.828125 74.21875 47.359375 69.109375 
Q 53.90625 64.015625 53.90625 55.328125 
Q 53.90625 49.265625 50.4375 45.09375 
Q 46.96875 40.921875 40.578125 39.3125 
z
" id="DejaVuSans-33"/>
      </defs>
      <g transform="translate(93.736718 319.118252)rotate(-30)scale(0.1 -0.1)">
       <use xlink:href="#DejaVuSans-32"/>
       <use x="63.623047" xlink:href="#DejaVuSans-30"/>
       <use x="127.246094" xlink:href="#DejaVuSans-31"/>
       <use x="190.869141" xlink:href="#DejaVuSans-39"/>
       <use x="254.492188" xlink:href="#DejaVuSans-2d"/>
       <use x="290.576172" xlink:href="#DejaVuSans-30"/>
       <use x="354.199219" xlink:href="#DejaVuSans-31"/>
       <use x="417.822266" xlink:href="#DejaVuSans-2d"/>
       <use x="453.90625" xlink:href="#DejaVuSans-33"/>
       <use x="517.529297" xlink:href="#DejaVuSans-31"/>
      </g>
     </g>
    </g>
    <g id="xtick_3">
     <g id="line2d_5">
      <path clip-path="url(#pebea541618)" d="M 194.99758 276.48 
L 194.99758 41.472 
" style="fill:none;stroke:#b0b0b0;stroke-linecap:square;stroke-width:0.8;"/>
     </g>
     <g id="line2d_6">
      <g>
       <use style="stroke:#000000;stroke-width:0.8;" x="194.99758" xlink:href="#ma416c623b4" y="276.48"/>
      </g>
     </g>
     <g id="text_3">
      <!-- 2019-02-21 -->
      <g transform="translate(143.628128 319.118252)rotate(-30)scale(0.1 -0.1)">
       <use xlink:href="#DejaVuSans-32"/>
       <use x="63.623047" xlink:href="#DejaVuSans-30"/>
       <use x="127.246094" xlink:href="#DejaVuSans-31"/>
       <use x="190.869141" xlink:href="#DejaVuSans-39"/>
       <use x="254.492188" xlink:href="#DejaVuSans-2d"/>
       <use x="290.576172" xlink:href="#DejaVuSans-30"/>
       <use x="354.199219" xlink:href="#DejaVuSans-32"/>
       <use x="417.822266" xlink:href="#DejaVuSans-2d"/>
       <use x="453.90625" xlink:href="#DejaVuSans-32"/>
       <use x="517.529297" xlink:href="#DejaVuSans-31"/>
      </g>
     </g>
    </g>
    <g id="xtick_4">
     <g id="line2d_7">
      <path clip-path="url(#pebea541618)" d="M 244.888989 276.48 
L 244.888989 41.472 
" style="fill:none;stroke:#b0b0b0;stroke-linecap:square;stroke-width:0.8;"/>
     </g>
     <g id="line2d_8">
      <g>
       <use style="stroke:#000000;stroke-width:0.8;" x="244.888989" xlink:href="#ma416c623b4" y="276.48"/>
      </g>
     </g>
     <g id="text_4">
      <!-- 2019-03-14 -->
      <defs>
       <path d="M 37.796875 64.3125 
L 12.890625 25.390625 
L 37.796875 25.390625 
z
M 35.203125 72.90625 
L 47.609375 72.90625 
L 47.609375 25.390625 
L 58.015625 25.390625 
L 58.015625 17.1875 
L 47.609375 17.1875 
L 47.609375 0 
L 37.796875 0 
L 37.796875 17.1875 
L 4.890625 17.1875 
L 4.890625 26.703125 
z
" id="DejaVuSans-34"/>
      </defs>
      <g transform="translate(193.519538 319.118252)rotate(-30)scale(0.1 -0.1)">
       <use xlink:href="#DejaVuSans-32"/>
       <use x="63.623047" xlink:href="#DejaVuSans-30"/>
       <use x="127.246094" xlink:href="#DejaVuSans-31"/>
       <use x="190.869141" xlink:href="#DejaVuSans-39"/>
       <use x="254.492188" xlink:href="#DejaVuSans-2d"/>
       <use x="290.576172" xlink:href="#DejaVuSans-30"/>
       <use x="354.199219" xlink:href="#DejaVuSans-33"/>
       <use x="417.822266" xlink:href="#DejaVuSans-2d"/>
       <use x="453.90625" xlink:href="#DejaVuSans-31"/>
       <use x="517.529297" xlink:href="#DejaVuSans-34"/>
      </g>
     </g>
    </g>
    <g id="xtick_5">
     <g id="line2d_9">
      <path clip-path="url(#pebea541618)" d="M 294.780399 276.48 
L 294.780399 41.472 
" style="fill:none;stroke:#b0b0b0;stroke-linecap:square;stroke-width:0.8;"/>
     </g>
     <g id="line2d_10">
      <g>
       <use style="stroke:#000000;stroke-width:0.8;" x="294.780399" xlink:href="#ma416c623b4" y="276.48"/>
      </g>
     </g>
     <g id="text_5">
      <!-- 2019-04-04 -->
      <g transform="translate(243.410948 319.118252)rotate(-30)scale(0.1 -0.1)">
       <use xlink:href="#DejaVuSans-32"/>
       <use x="63.623047" xlink:href="#DejaVuSans-30"/>
       <use x="127.246094" xlink:href="#DejaVuSans-31"/>
       <use x="190.869141" xlink:href="#DejaVuSans-39"/>
       <use x="254.492188" xlink:href="#DejaVuSans-2d"/>
       <use x="290.576172" xlink:href="#DejaVuSans-30"/>
       <use x="354.199219" xlink:href="#DejaVuSans-34"/>
       <use x="417.822266" xlink:href="#DejaVuSans-2d"/>
       <use x="453.90625" xlink:href="#DejaVuSans-30"/>
       <use x="517.529297" xlink:href="#DejaVuSans-34"/>
      </g>
     </g>
    </g>
    <g id="xtick_6">
     <g id="line2d_11">
      <path clip-path="url(#pebea541618)" d="M 344.671809 276.48 
L 344.671809 41.472 
" style="fill:none;stroke:#b0b0b0;stroke-linecap:square;stroke-width:0.8;"/>
     </g>
     <g id="line2d_12">
      <g>
       <use style="stroke:#000000;stroke-width:0.8;" x="344.671809" xlink:href="#ma416c623b4" y="276.48"/>
      </g>
     </g>
     <g id="text_6">
      <!-- 2019-04-25 -->
      <defs>
       <path d="M 10.796875 72.90625 
L 49.515625 72.90625 
L 49.515625 64.59375 
L 19.828125 64.59375 
L 19.828125 46.734375 
Q 21.96875 47.46875 24.109375 47.828125 
Q 26.265625 48.1875 28.421875 48.1875 
Q 40.625 48.1875 47.75 41.5 
Q 54.890625 34.8125 54.890625 23.390625 
Q 54.890625 11.625 47.5625 5.09375 
Q 40.234375 -1.421875 26.90625 -1.421875 
Q 22.3125 -1.421875 17.546875 -0.640625 
Q 12.796875 0.140625 7.71875 1.703125 
L 7.71875 11.625 
Q 12.109375 9.234375 16.796875 8.0625 
Q 21.484375 6.890625 26.703125 6.890625 
Q 35.15625 6.890625 40.078125 11.328125 
Q 45.015625 15.765625 45.015625 23.390625 
Q 45.015625 31 40.078125 35.4375 
Q 35.15625 39.890625 26.703125 39.890625 
Q 22.75 39.890625 18.8125 39.015625 
Q 14.890625 38.140625 10.796875 36.28125 
z
" id="DejaVuSans-35"/>
      </defs>
      <g transform="translate(293.302358 319.118252)rotate(-30)scale(0.1 -0.1)">
       <use xlink:href="#DejaVuSans-32"/>
       <use x="63.623047" xlink:href="#DejaVuSans-30"/>
       <use x="127.246094" xlink:href="#DejaVuSans-31"/>
       <use x="190.869141" xlink:href="#DejaVuSans-39"/>
       <use x="254.492188" xlink:href="#DejaVuSans-2d"/>
       <use x="290.576172" xlink:href="#DejaVuSans-30"/>
       <use x="354.199219" xlink:href="#DejaVuSans-34"/>
       <use x="417.822266" xlink:href="#DejaVuSans-2d"/>
       <use x="453.90625" xlink:href="#DejaVuSans-32"/>
       <use x="517.529297" xlink:href="#DejaVuSans-35"/>
      </g>
     </g>
    </g>
    <g id="xtick_7">
     <g id="line2d_13">
      <path clip-path="url(#pebea541618)" d="M 394.563219 276.48 
L 394.563219 41.472 
" style="fill:none;stroke:#b0b0b0;stroke-linecap:square;stroke-width:0.8;"/>
     </g>
     <g id="line2d_14">
      <g>
       <use style="stroke:#000000;stroke-width:0.8;" x="394.563219" xlink:href="#ma416c623b4" y="276.48"/>
      </g>
     </g>
     <g id="text_7">
      <!-- 2019-05-16 -->
      <defs>
       <path d="M 33.015625 40.375 
Q 26.375 40.375 22.484375 35.828125 
Q 18.609375 31.296875 18.609375 23.390625 
Q 18.609375 15.53125 22.484375 10.953125 
Q 26.375 6.390625 33.015625 6.390625 
Q 39.65625 6.390625 43.53125 10.953125 
Q 47.40625 15.53125 47.40625 23.390625 
Q 47.40625 31.296875 43.53125 35.828125 
Q 39.65625 40.375 33.015625 40.375 
z
M 52.59375 71.296875 
L 52.59375 62.3125 
Q 48.875 64.0625 45.09375 64.984375 
Q 41.3125 65.921875 37.59375 65.921875 
Q 27.828125 65.921875 22.671875 59.328125 
Q 17.53125 52.734375 16.796875 39.40625 
Q 19.671875 43.65625 24.015625 45.921875 
Q 28.375 48.1875 33.59375 48.1875 
Q 44.578125 48.1875 50.953125 41.515625 
Q 57.328125 34.859375 57.328125 23.390625 
Q 57.328125 12.15625 50.6875 5.359375 
Q 44.046875 -1.421875 33.015625 -1.421875 
Q 20.359375 -1.421875 13.671875 8.265625 
Q 6.984375 17.96875 6.984375 36.375 
Q 6.984375 53.65625 15.1875 63.9375 
Q 23.390625 74.21875 37.203125 74.21875 
Q 40.921875 74.21875 44.703125 73.484375 
Q 48.484375 72.75 52.59375 71.296875 
z
" id="DejaVuSans-36"/>
      </defs>
      <g transform="translate(343.193767 319.118252)rotate(-30)scale(0.1 -0.1)">
       <use xlink:href="#DejaVuSans-32"/>
       <use x="63.623047" xlink:href="#DejaVuSans-30"/>
       <use x="127.246094" xlink:href="#DejaVuSans-31"/>
       <use x="190.869141" xlink:href="#DejaVuSans-39"/>
       <use x="254.492188" xlink:href="#DejaVuSans-2d"/>
       <use x="290.576172" xlink:href="#DejaVuSans-30"/>
       <use x="354.199219" xlink:href="#DejaVuSans-35"/>
       <use x="417.822266" xlink:href="#DejaVuSans-2d"/>
       <use x="453.90625" xlink:href="#DejaVuSans-31"/>
       <use x="517.529297" xlink:href="#DejaVuSans-36"/>
      </g>
     </g>
    </g>
    <g id="text_8">
     <!-- date -->
     <defs>
      <path d="M 45.40625 46.390625 
L 45.40625 75.984375 
L 54.390625 75.984375 
L 54.390625 0 
L 45.40625 0 
L 45.40625 8.203125 
Q 42.578125 3.328125 38.25 0.953125 
Q 33.9375 -1.421875 27.875 -1.421875 
Q 17.96875 -1.421875 11.734375 6.484375 
Q 5.515625 14.40625 5.515625 27.296875 
Q 5.515625 40.1875 11.734375 48.09375 
Q 17.96875 56 27.875 56 
Q 33.9375 56 38.25 53.625 
Q 42.578125 51.265625 45.40625 46.390625 
z
M 14.796875 27.296875 
Q 14.796875 17.390625 18.875 11.75 
Q 22.953125 6.109375 30.078125 6.109375 
Q 37.203125 6.109375 41.296875 11.75 
Q 45.40625 17.390625 45.40625 27.296875 
Q 45.40625 37.203125 41.296875 42.84375 
Q 37.203125 48.484375 30.078125 48.484375 
Q 22.953125 48.484375 18.875 42.84375 
Q 14.796875 37.203125 14.796875 27.296875 
z
" id="DejaVuSans-64"/>
      <path d="M 34.28125 27.484375 
Q 23.390625 27.484375 19.1875 25 
Q 14.984375 22.515625 14.984375 16.5 
Q 14.984375 11.71875 18.140625 8.90625 
Q 21.296875 6.109375 26.703125 6.109375 
Q 34.1875 6.109375 38.703125 11.40625 
Q 43.21875 16.703125 43.21875 25.484375 
L 43.21875 27.484375 
z
M 52.203125 31.203125 
L 52.203125 0 
L 43.21875 0 
L 43.21875 8.296875 
Q 40.140625 3.328125 35.546875 0.953125 
Q 30.953125 -1.421875 24.3125 -1.421875 
Q 15.921875 -1.421875 10.953125 3.296875 
Q 6 8.015625 6 15.921875 
Q 6 25.140625 12.171875 29.828125 
Q 18.359375 34.515625 30.609375 34.515625 
L 43.21875 34.515625 
L 43.21875 35.40625 
Q 43.21875 41.609375 39.140625 45 
Q 35.0625 48.390625 27.6875 48.390625 
Q 23 48.390625 18.546875 47.265625 
Q 14.109375 46.140625 10.015625 43.890625 
L 10.015625 52.203125 
Q 14.9375 54.109375 19.578125 55.046875 
Q 24.21875 56 28.609375 56 
Q 40.484375 56 46.34375 49.84375 
Q 52.203125 43.703125 52.203125 31.203125 
z
" id="DejaVuSans-61"/>
      <path d="M 18.3125 70.21875 
L 18.3125 54.6875 
L 36.8125 54.6875 
L 36.8125 47.703125 
L 18.3125 47.703125 
L 18.3125 18.015625 
Q 18.3125 11.328125 20.140625 9.421875 
Q 21.96875 7.515625 27.59375 7.515625 
L 36.8125 7.515625 
L 36.8125 0 
L 27.59375 0 
Q 17.1875 0 13.234375 3.875 
Q 9.28125 7.765625 9.28125 18.015625 
L 9.28125 47.703125 
L 2.6875 47.703125 
L 2.6875 54.6875 
L 9.28125 54.6875 
L 9.28125 70.21875 
z
" id="DejaVuSans-74"/>
      <path d="M 56.203125 29.59375 
L 56.203125 25.203125 
L 14.890625 25.203125 
Q 15.484375 15.921875 20.484375 11.0625 
Q 25.484375 6.203125 34.421875 6.203125 
Q 39.59375 6.203125 44.453125 7.46875 
Q 49.3125 8.734375 54.109375 11.28125 
L 54.109375 2.78125 
Q 49.265625 0.734375 44.1875 -0.34375 
Q 39.109375 -1.421875 33.890625 -1.421875 
Q 20.796875 -1.421875 13.15625 6.1875 
Q 5.515625 13.8125 5.515625 26.8125 
Q 5.515625 40.234375 12.765625 48.109375 
Q 20.015625 56 32.328125 56 
Q 43.359375 56 49.78125 48.890625 
Q 56.203125 41.796875 56.203125 29.59375 
z
M 47.21875 32.234375 
Q 47.125 39.59375 43.09375 43.984375 
Q 39.0625 48.390625 32.421875 48.390625 
Q 24.90625 48.390625 20.390625 44.140625 
Q 15.875 39.890625 15.1875 32.171875 
z
" id="DejaVuSans-65"/>
     </defs>
     <g transform="translate(224.885 332.517752)scale(0.1 -0.1)">
      <use xlink:href="#DejaVuSans-64"/>
      <use x="63.476562" xlink:href="#DejaVuSans-61"/>
      <use x="124.755859" xlink:href="#DejaVuSans-74"/>
      <use x="163.964844" xlink:href="#DejaVuSans-65"/>
     </g>
    </g>
   </g>
   <g id="matplotlib.axis_2">
    <g id="ytick_1">
     <g id="line2d_15">
      <path clip-path="url(#pebea541618)" d="M 57.6 265.797818 
L 414.72 265.797818 
" style="fill:none;stroke:#b0b0b0;stroke-linecap:square;stroke-width:0.8;"/>
     </g>
     <g id="line2d_16">
      <defs>
       <path d="M 0 0 
L -3.5 0 
" id="m0ff90f91d9" style="stroke:#000000;stroke-width:0.8;"/>
      </defs>
      <g>
       <use style="stroke:#000000;stroke-width:0.8;" x="57.6" xlink:href="#m0ff90f91d9" y="265.797818"/>
      </g>
     </g>
     <g id="text_9">
      <!-- 0 -->
      <g transform="translate(44.2375 269.597037)scale(0.1 -0.1)">
       <use xlink:href="#DejaVuSans-30"/>
      </g>
     </g>
    </g>
    <g id="ytick_2">
     <g id="line2d_17">
      <path clip-path="url(#pebea541618)" d="M 57.6 232.394504 
L 414.72 232.394504 
" style="fill:none;stroke:#b0b0b0;stroke-linecap:square;stroke-width:0.8;"/>
     </g>
     <g id="line2d_18">
      <g>
       <use style="stroke:#000000;stroke-width:0.8;" x="57.6" xlink:href="#m0ff90f91d9" y="232.394504"/>
      </g>
     </g>
     <g id="text_10">
      <!-- 500 -->
      <g transform="translate(31.5125 236.193723)scale(0.1 -0.1)">
       <use xlink:href="#DejaVuSans-35"/>
       <use x="63.623047" xlink:href="#DejaVuSans-30"/>
       <use x="127.246094" xlink:href="#DejaVuSans-30"/>
      </g>
     </g>
    </g>
    <g id="ytick_3">
     <g id="line2d_19">
      <path clip-path="url(#pebea541618)" d="M 57.6 198.99119 
L 414.72 198.99119 
" style="fill:none;stroke:#b0b0b0;stroke-linecap:square;stroke-width:0.8;"/>
     </g>
     <g id="line2d_20">
      <g>
       <use style="stroke:#000000;stroke-width:0.8;" x="57.6" xlink:href="#m0ff90f91d9" y="198.99119"/>
      </g>
     </g>
     <g id="text_11">
      <!-- 1000 -->
      <g transform="translate(25.15 202.790409)scale(0.1 -0.1)">
       <use xlink:href="#DejaVuSans-31"/>
       <use x="63.623047" xlink:href="#DejaVuSans-30"/>
       <use x="127.246094" xlink:href="#DejaVuSans-30"/>
       <use x="190.869141" xlink:href="#DejaVuSans-30"/>
      </g>
     </g>
    </g>
    <g id="ytick_4">
     <g id="line2d_21">
      <path clip-path="url(#pebea541618)" d="M 57.6 165.587876 
L 414.72 165.587876 
" style="fill:none;stroke:#b0b0b0;stroke-linecap:square;stroke-width:0.8;"/>
     </g>
     <g id="line2d_22">
      <g>
       <use style="stroke:#000000;stroke-width:0.8;" x="57.6" xlink:href="#m0ff90f91d9" y="165.587876"/>
      </g>
     </g>
     <g id="text_12">
      <!-- 1500 -->
      <g transform="translate(25.15 169.387095)scale(0.1 -0.1)">
       <use xlink:href="#DejaVuSans-31"/>
       <use x="63.623047" xlink:href="#DejaVuSans-35"/>
       <use x="127.246094" xlink:href="#DejaVuSans-30"/>
       <use x="190.869141" xlink:href="#DejaVuSans-30"/>
      </g>
     </g>
    </g>
    <g id="ytick_5">
     <g id="line2d_23">
      <path clip-path="url(#pebea541618)" d="M 57.6 132.184562 
L 414.72 132.184562 
" style="fill:none;stroke:#b0b0b0;stroke-linecap:square;stroke-width:0.8;"/>
     </g>
     <g id="line2d_24">
      <g>
       <use style="stroke:#000000;stroke-width:0.8;" x="57.6" xlink:href="#m0ff90f91d9" y="132.184562"/>
      </g>
     </g>
     <g id="text_13">
      <!-- 2000 -->
      <g transform="translate(25.15 135.983781)scale(0.1 -0.1)">
       <use xlink:href="#DejaVuSans-32"/>
       <use x="63.623047" xlink:href="#DejaVuSans-30"/>
       <use x="127.246094" xlink:href="#DejaVuSans-30"/>
       <use x="190.869141" xlink:href="#DejaVuSans-30"/>
      </g>
     </g>
    </g>
    <g id="ytick_6">
     <g id="line2d_25">
      <path clip-path="url(#pebea541618)" d="M 57.6 98.781248 
L 414.72 98.781248 
" style="fill:none;stroke:#b0b0b0;stroke-linecap:square;stroke-width:0.8;"/>
     </g>
     <g id="line2d_26">
      <g>
       <use style="stroke:#000000;stroke-width:0.8;" x="57.6" xlink:href="#m0ff90f91d9" y="98.781248"/>
      </g>
     </g>
     <g id="text_14">
      <!-- 2500 -->
      <g transform="translate(25.15 102.580467)scale(0.1 -0.1)">
       <use xlink:href="#DejaVuSans-32"/>
       <use x="63.623047" xlink:href="#DejaVuSans-35"/>
       <use x="127.246094" xlink:href="#DejaVuSans-30"/>
       <use x="190.869141" xlink:href="#DejaVuSans-30"/>
      </g>
     </g>
    </g>
    <g id="ytick_7">
     <g id="line2d_27">
      <path clip-path="url(#pebea541618)" d="M 57.6 65.377934 
L 414.72 65.377934 
" style="fill:none;stroke:#b0b0b0;stroke-linecap:square;stroke-width:0.8;"/>
     </g>
     <g id="line2d_28">
      <g>
       <use style="stroke:#000000;stroke-width:0.8;" x="57.6" xlink:href="#m0ff90f91d9" y="65.377934"/>
      </g>
     </g>
     <g id="text_15">
      <!-- 3000 -->
      <g transform="translate(25.15 69.177153)scale(0.1 -0.1)">
       <use xlink:href="#DejaVuSans-33"/>
       <use x="63.623047" xlink:href="#DejaVuSans-30"/>
       <use x="127.246094" xlink:href="#DejaVuSans-30"/>
       <use x="190.869141" xlink:href="#DejaVuSans-30"/>
      </g>
     </g>
    </g>
    <g id="text_16">
     <!-- EUR -->
     <defs>
      <path d="M 9.8125 72.90625 
L 55.90625 72.90625 
L 55.90625 64.59375 
L 19.671875 64.59375 
L 19.671875 43.015625 
L 54.390625 43.015625 
L 54.390625 34.71875 
L 19.671875 34.71875 
L 19.671875 8.296875 
L 56.78125 8.296875 
L 56.78125 0 
L 9.8125 0 
z
" id="DejaVuSans-45"/>
      <path d="M 8.6875 72.90625 
L 18.609375 72.90625 
L 18.609375 28.609375 
Q 18.609375 16.890625 22.84375 11.734375 
Q 27.09375 6.59375 36.625 6.59375 
Q 46.09375 6.59375 50.34375 11.734375 
Q 54.59375 16.890625 54.59375 28.609375 
L 54.59375 72.90625 
L 64.5 72.90625 
L 64.5 27.390625 
Q 64.5 13.140625 57.4375 5.859375 
Q 50.390625 -1.421875 36.625 -1.421875 
Q 22.796875 -1.421875 15.734375 5.859375 
Q 8.6875 13.140625 8.6875 27.390625 
z
" id="DejaVuSans-55"/>
      <path d="M 44.390625 34.1875 
Q 47.5625 33.109375 50.5625 29.59375 
Q 53.5625 26.078125 56.59375 19.921875 
L 66.609375 0 
L 56 0 
L 46.6875 18.703125 
Q 43.0625 26.03125 39.671875 28.421875 
Q 36.28125 30.8125 30.421875 30.8125 
L 19.671875 30.8125 
L 19.671875 0 
L 9.8125 0 
L 9.8125 72.90625 
L 32.078125 72.90625 
Q 44.578125 72.90625 50.734375 67.671875 
Q 56.890625 62.453125 56.890625 51.90625 
Q 56.890625 45.015625 53.6875 40.46875 
Q 50.484375 35.9375 44.390625 34.1875 
z
M 19.671875 64.796875 
L 19.671875 38.921875 
L 32.078125 38.921875 
Q 39.203125 38.921875 42.84375 42.21875 
Q 46.484375 45.515625 46.484375 51.90625 
Q 46.484375 58.296875 42.84375 61.546875 
Q 39.203125 64.796875 32.078125 64.796875 
z
" id="DejaVuSans-52"/>
     </defs>
     <g transform="translate(19.070312 169.268969)rotate(-90)scale(0.1 -0.1)">
      <use xlink:href="#DejaVuSans-45"/>
      <use x="63.183594" xlink:href="#DejaVuSans-55"/>
      <use x="136.376953" xlink:href="#DejaVuSans-52"/>
     </g>
    </g>
   </g>
   <g id="line2d_29">
    <path clip-path="url(#pebea541618)" d="M 73.832727 265.797818 
L 154.609295 265.690583 
L 154.609295 265.523217 
L 159.360858 265.371392 
L 159.360858 265.354766 
L 164.112421 265.211466 
L 164.112421 265.02955 
L 171.239765 264.887191 
L 171.239765 264.527403 
L 171.239765 264.527403 
L 173.615547 264.527403 
L 173.615547 264.420363 
L 173.615547 264.294964 
L 175.991328 264.294964 
L 175.991328 264.191988 
L 175.991328 263.605867 
L 178.36711 263.473176 
L 178.36711 263.370605 
L 180.742891 263.239248 
L 180.742891 263.207726 
L 187.870235 263.095383 
L 187.870235 262.457745 
L 190.246017 262.329568 
L 190.246017 262.247468 
L 194.99758 262.094348 
L 194.99758 261.986472 
L 194.99758 261.986472 
L 204.500705 261.847028 
L 204.500705 261.680583 
L 204.500705 261.680583 
L 206.876487 261.543476 
L 206.876487 261.535784 
L 211.62805 261.48009 
L 211.62805 261.43292 
L 214.003831 261.310691 
L 214.003831 261.172222 
L 221.131175 261.074781 
L 221.131175 260.187409 
L 223.506957 260.078057 
L 223.506957 259.90154 
L 225.882738 259.777043 
L 225.882738 259.680281 
L 228.258519 259.593148 
L 228.258519 259.467856 
L 230.634301 259.346118 
L 230.634301 259.153951 
L 237.761645 259.03514 
L 237.761645 258.810592 
L 240.137427 258.810592 
L 240.137427 258.708194 
L 240.137427 258.602687 
L 242.513208 258.476106 
L 242.513208 258.050255 
L 242.513208 258.050255 
L 244.888989 257.933246 
L 244.888989 257.896508 
L 247.264771 257.788058 
L 247.264771 257.666445 
L 254.392115 257.55361 
L 254.392115 257.238354 
L 256.767896 257.149679 
L 256.767896 257.100313 
L 261.519459 256.986471 
L 261.519459 256.986471 
L 261.519459 256.899072 
L 268.646804 256.747641 
L 273.398366 256.618331 
L 273.398366 256.52701 
L 273.398366 256.52701 
L 280.525711 256.417249 
L 280.525711 256.290589 
L 287.653055 256.214293 
L 287.653055 256.005883 
L 292.404618 255.873134 
L 292.404618 255.44628 
L 294.780399 255.334983 
L 294.780399 255.011656 
L 297.156181 254.911065 
L 297.156181 254.81258 
L 304.283525 254.796255 
L 304.283525 254.710752 
L 304.283525 254.383735 
L 306.659306 254.265264 
L 306.659306 254.213144 
L 309.035088 254.106053 
L 309.035088 254.106053 
L 309.035088 254.00391 
L 311.410869 254.00391 
L 311.410869 253.92644 
L 311.410869 253.823575 
L 313.786651 253.823575 
L 313.786651 253.747702 
L 313.786651 253.624538 
L 320.913995 253.514816 
L 320.913995 252.714883 
L 325.665558 252.576578 
L 325.665558 252.451179 
L 328.041339 252.329472 
L 328.041339 251.621644 
L 337.544465 251.507986 
L 339.920246 251.387461 
L 339.920246 251.201663 
L 344.671809 251.10073 
L 344.671809 250.968431 
L 354.174935 250.832634 
L 354.174935 250.624505 
L 361.302279 250.413547 
L 361.302279 250.253399 
L 363.67806 250.151009 
L 363.67806 249.8384 
L 363.67806 249.8384 
L 370.805405 249.684195 
L 370.805405 249.209766 
L 373.181186 249.082611 
L 373.181186 249.024706 
L 375.556967 248.91564 
L 375.556967 248.91564 
L 375.556967 248.787913 
L 380.30853 248.658925 
L 380.30853 248.458516 
L 387.435875 248.35154 
L 387.435875 248.35154 
L 387.435875 247.847626 
L 389.811656 247.737278 
L 389.811656 247.683243 
L 392.187437 247.565963 
L 392.187437 247.333635 
L 394.563219 247.198615 
L 394.563219 247.158817 
L 394.563219 247.158817 
L 396.939 247.158817 
L 396.939 247.074158 
" style="fill:none;stroke:#0000ff;stroke-linecap:square;stroke-width:1.5;"/>
   </g>
   <g id="line2d_30">
    <path clip-path="url(#pebea541618)" d="M 73.832727 265.797818 
L 80.661312 265.530592 
L 81.043334 232.127278 
L 81.531469 232.260891 
L 81.623695 232.728537 
L 81.818955 232.795344 
L 81.900732 233.46341 
L 81.993179 233.730637 
L 82.150794 236.202482 
L 82.209309 236.402902 
L 83.148403 247.091962 
L 83.537162 248.094062 
L 83.939862 248.695321 
L 84.121896 249.897841 
L 84.2615 249.964647 
L 84.379052 252.102459 
L 84.459537 252.302879 
L 84.680892 253.839432 
L 84.795446 254.507498 
L 84.910606 255.442791 
L 85.098276 256.511697 
L 85.22053 257.64741 
L 85.343278 257.714216 
L 85.460445 258.382282 
L 85.631039 259.050349 
L 85.852504 259.718415 
L 85.951632 260.052448 
L 86.451179 260.720514 
L 86.730938 260.987741 
L 86.917343 262.5911 
L 87.354361 262.858327 
L 87.481427 263.259166 
L 87.867216 264.461686 
L 89.016555 264.862525 
L 89.07595 264.996139 
L 89.10287 264.661291 
L 89.110184 264.728098 
L 89.121733 264.794904 
L 89.123383 131.181648 
L 89.218359 132.584587 
L 89.28614 134.521979 
L 89.354719 136.659792 
L 89.457505 138.597184 
L 89.682379 147.749692 
L 89.798281 205.270199 
L 89.904586 206.9388 
L 90.043201 210.947198 
L 90.168562 215.623662 
L 90.260926 216.692568 
L 90.283501 230.174337 
L 90.386809 230.241143 
L 90.496497 232.178535 
L 90.929527 232.834762 
L 90.933899 233.474962 
L 91.083788 233.742189 
L 91.127179 235.746388 
L 91.185116 239.487559 
L 91.227022 239.469789 
L 91.365994 239.737015 
L 91.472602 240.872728 
L 91.483958 241.607601 
L 91.618558 248.288264 
L 91.753076 251.628595 
L 92.086318 254.768507 
L 92.233814 257.908418 
L 92.387443 257.239308 
L 92.488798 258.241408 
L 92.589082 258.375021 
L 92.734681 259.308565 
L 92.839749 259.642598 
L 92.876733 260.310665 
L 93.101277 260.444278 
L 93.868979 260.644698 
L 94.058189 261.379571 
L 94.137739 263.116543 
L 94.472356 263.250156 
L 94.474666 263.717803 
L 94.632144 263.784609 
L 94.94446 265.120742 
L 96.336354 265.186763 
L 96.508076 265.387183 
L 96.543713 265.520796 
L 97.318262 265.721128 
L 98.407106 265.700058 
L 98.705069 265.027558 
L 98.732951 265.161171 
L 98.904866 265.627912 
L 101.158586 265.694714 
L 106.404801 265.761521 
L 108.193016 265.084587 
L 108.220788 265.61904 
L 110.584443 265.752653 
L 113.679146 265.077535 
L 113.686681 265.144341 
L 113.709503 265.745601 
L 122.309447 265.678403 
L 122.309447 265.040127 
L 122.315194 265.708193 
L 122.837179 265.667499 
L 132.41958 265.733323 
L 141.785465 265.774596 
L 155.417391 265.660875 
L 155.417391 265.539849 
L 155.449343 265.740269 
L 155.488637 265.723342 
L 155.588315 265.703416 
L 155.825261 265.770222 
L 158.012685 265.757638 
L 159.028826 265.064668 
L 160.104252 264.999854 
L 160.104252 264.649195 
L 160.181548 264.983228 
L 161.160595 265.115568 
L 161.160595 265.109712 
L 161.427431 265.510551 
L 162.530134 265.488518 
L 162.667539 265.763307 
L 162.693744 265.488938 
L 162.785476 265.689358 
L 165.144236 265.686294 
L 165.212705 265.753096 
L 165.821884 265.794429 
L 171.966634 265.679095 
L 172.00876 265.724165 
L 172.019676 265.656519 
L 172.396721 265.550983 
L 172.396721 265.488284 
L 172.476244 265.621897 
L 172.721577 265.558637 
L 172.787983 264.845215 
L 172.800742 264.912022 
L 172.897698 265.112441 
L 172.956762 265.246055 
L 174.37159 265.095284 
L 174.37159 265.030979 
L 174.384156 265.097786 
L 174.447758 265.097782 
L 175.1548 265.187815 
L 175.337081 265.38145 
L 175.337081 265.378773 
L 175.732632 265.346897 
L 176.765959 265.240125 
L 176.860386 264.614836 
L 177.057873 264.896558 
L 177.095269 264.664566 
L 177.132226 265.065406 
L 177.393424 265.457668 
L 177.393424 265.439307 
L 177.653715 265.500718 
L 177.784136 265.144516 
L 177.842458 265.211322 
L 177.870588 265.411742 
L 179.999799 265.483895 
L 180.09758 265.590498 
L 180.476771 265.651944 
L 180.526211 265.557183 
L 180.543012 265.623989 
L 181.556624 265.513661 
L 181.556624 265.50047 
L 181.59479 265.567277 
L 181.848069 265.756077 
L 181.848069 265.735102 
L 182.345169 265.688608 
L 182.446029 265.520303 
L 182.497505 265.653917 
L 182.517963 265.720723 
L 182.586926 265.38669 
L 182.646651 265.520303 
L 182.738685 265.586632 
L 182.738685 265.584393 
L 184.444573 265.648437 
L 184.618934 265.714689 
L 184.618934 265.71293 
L 185.034834 265.779737 
L 188.660788 265.694301 
L 188.701126 265.14163 
L 188.749632 265.208437 
L 188.971509 265.40195 
L 189.145156 265.46528 
L 189.150188 265.598893 
L 189.319984 265.338798 
L 189.349104 265.472412 
L 189.393678 265.65853 
L 189.579066 265.564743 
L 189.579066 265.54202 
L 190.063984 265.56917 
L 190.176311 265.702783 
L 190.984599 265.611291 
L 190.984599 265.565846 
L 191.069319 265.699459 
L 193.866196 265.773345 
L 194.007781 237.319066 
L 194.078724 239.358488 
L 194.212169 248.909 
L 194.254873 259.994379 
L 194.335743 259.991817 
L 194.356834 260.659883 
L 194.546676 260.708094 
L 194.576786 260.7749 
L 194.882365 260.97532 
L 196.138862 260.933021 
L 196.16625 259.26148 
L 196.210878 260.864839 
L 196.447769 260.931645 
L 196.533148 262.935844 
L 196.589931 263.069458 
L 196.605494 263.470297 
L 198.19603 263.460737 
L 198.295159 262.775601 
L 198.30701 263.109635 
L 198.39415 263.509866 
L 198.39415 263.506821 
L 198.889132 263.624338 
L 199.097975 265.15706 
L 199.706879 265.190406 
L 200.96992 265.189811 
L 201.282924 265.657457 
L 206.332779 265.700803 
L 206.332779 265.269569 
L 206.40705 265.403182 
L 206.469579 265.259593 
L 206.479176 265.460013 
L 208.507967 265.369275 
L 208.507967 265.327969 
L 208.636902 265.394775 
L 208.76746 265.728808 
L 208.804004 265.689052 
L 210.152233 265.725368 
L 210.91977 265.405299 
L 213.261097 265.467758 
L 213.317549 265.601371 
L 214.758527 265.477343 
L 214.758527 265.331841 
L 214.863787 265.465454 
L 214.975289 265.636622 
L 215.769883 265.714101 
L 221.97532 265.776769 
L 221.97532 264.938966 
L 222.198655 265.007263 
L 222.309937 265.380586 
L 222.480669 265.432136 
L 222.489743 265.565749 
L 222.573115 265.488533 
L 222.961572 265.539629 
L 222.961572 265.526877 
L 222.961572 264.85006 
L 223.029518 265.117287 
L 223.221588 265.584933 
L 224.289755 265.650372 
L 224.289755 265.558939 
L 224.289755 265.478788 
L 224.360891 265.612401 
L 226.582961 265.513112 
L 226.582961 265.453028 
L 226.845892 265.58564 
L 226.845892 265.569059 
L 227.177429 265.637579 
L 227.357895 265.704386 
L 231.387732 265.58855 
L 231.387732 265.399895 
L 231.425843 265.466701 
L 231.780588 265.703424 
L 231.780588 265.699227 
L 232.172977 265.631108 
L 232.172977 265.564597 
L 232.191098 265.631404 
L 232.554779 265.69821 
L 236.914998 265.762028 
L 236.914998 265.755407 
L 237.068269 265.753634 
L 238.580272 265.652813 
L 238.580272 265.63101 
L 238.620199 265.764623 
L 239.488211 265.630447 
L 239.488211 265.595604 
L 239.522583 265.729217 
L 239.873698 265.614962 
L 239.926301 265.58528 
L 240.000407 265.652086 
L 240.050315 264.996346 
L 240.113064 265.463992 
L 240.879721 265.356409 
L 240.879721 265.345883 
L 240.998042 265.342368 
L 241.081442 265.039531 
L 241.086914 265.306757 
L 241.268892 265.460532 
L 241.361311 265.527339 
L 243.36156 265.435231 
L 243.447215 265.025007 
L 243.46902 265.091813 
L 243.588964 265.55946 
L 244.216704 265.455081 
L 244.216704 265.388621 
L 244.235979 265.455427 
L 244.836222 265.545487 
L 244.933948 265.612294 
L 245.69417 265.501157 
L 245.69417 265.485409 
L 245.752932 265.552216 
L 246.008494 265.601896 
L 248.292874 265.660349 
L 248.464568 265.727156 
L 248.955343 265.673178 
L 248.955343 265.500237 
L 248.993922 265.63385 
L 251.061044 265.600374 
L 251.954602 265.732418 
L 251.954602 265.731771 
L 255.25878 265.620918 
L 255.25878 265.429625 
L 255.26461 265.496431 
L 255.816402 265.628792 
L 255.816402 265.549671 
L 255.816402 265.430395 
L 255.844201 265.630815 
L 257.694919 265.67553 
L 257.744552 265.742336 
L 282.434228 265.762238 
L 282.631934 265.094172 
L 282.631934 263.989545 
L 282.669468 265.793324 
L 288.579252 265.696976 
L 288.579252 265.648594 
L 288.614064 265.715401 
L 288.683358 265.68728 
L 288.781111 265.743095 
L 288.781111 265.721502 
L 289.463708 265.632757 
L 290.934053 265.625626 
L 291.152713 265.270289 
L 291.171246 265.337096 
L 291.197231 265.671129 
L 291.252254 265.65445 
L 291.653497 265.527243 
L 291.742066 261.072387 
L 291.745806 263.796048 
L 291.851011 264.330501 
L 292.398293 264.28533 
L 292.398293 264.957737 
L 292.553077 265.024544 
L 293.146307 264.916373 
L 293.241586 264.525161 
L 293.638347 264.563989 
L 293.662929 264.630796 
L 295.505645 264.469733 
L 295.505645 264.286144 
L 296.284951 264.142297 
L 296.346573 264.47633 
L 296.365216 265.678849 
L 296.594517 265.77781 
L 296.781913 265.112368 
L 296.792389 265.179175 
L 296.883846 264.512587 
L 296.917915 265.180653 
L 297.885908 265.069753 
L 297.885908 265.031766 
L 297.956632 265.098573 
L 297.971123 265.095669 
L 299.069565 265.051713 
L 299.22289 265.719779 
L 305.091648 265.597976 
L 305.134957 265.418283 
L 305.253003 265.527621 
L 305.326889 265.660902 
L 305.326889 265.622351 
L 307.895538 265.653626 
L 308.09143 265.71385 
L 308.09143 265.696173 
L 308.186928 265.670114 
L 308.666099 265.728341 
L 309.850718 265.619986 
L 309.88047 265.519653 
L 309.947234 265.667708 
L 310.26098 265.72391 
L 310.561252 265.785716 
L 314.545993 265.658863 
L 314.625378 265.564732 
L 314.645149 265.698345 
L 314.821848 265.751126 
L 314.821848 265.740064 
L 319.47321 265.727142 
L 319.573493 265.787466 
L 319.573493 265.77559 
L 321.736252 265.665672 
L 321.828368 265.396883 
L 321.843107 265.46369 
L 321.879788 265.353295 
L 321.879788 265.332304 
L 321.942648 265.683286 
L 321.977047 265.597779 
L 322.16084 265.731393 
L 322.731385 265.618092 
L 322.731385 265.070771 
L 322.823804 265.263244 
L 322.919193 265.392385 
L 322.919193 265.376298 
L 322.966626 265.313908 
L 323.019256 265.37594 
L 323.214708 265.370852 
L 323.368776 265.638079 
L 327.477036 265.68162 
L 327.868957 265.747619 
L 328.810553 265.655776 
L 328.878362 264.97777 
L 328.894311 265.178189 
L 329.378019 265.612678 
L 329.477174 265.558754 
L 329.572563 265.624263 
L 329.572563 265.62205 
L 330.283593 265.584615 
L 334.083523 265.794453 
L 340.654099 265.682914 
L 340.654099 265.625916 
L 340.691028 265.692723 
L 345.580463 265.727333 
L 345.678299 265.793518 
L 345.678299 265.792103 
L 346.570179 265.715423 
L 346.668593 265.650773 
L 346.672085 265.71758 
L 355.901913 265.670252 
L 355.901913 265.573655 
L 355.954818 265.707268 
L 358.939201 265.775188 
L 362.059697 265.662964 
L 362.12844 265.572997 
L 362.348668 265.723552 
L 363.21789 265.660043 
L 363.265681 265.597729 
L 363.280777 265.664535 
L 364.450767 265.556094 
L 364.450767 265.281655 
L 364.555835 265.548882 
L 364.71257 265.591235 
L 364.814228 265.656509 
L 364.814228 265.655746 
L 369.367974 265.7087 
L 369.760418 265.775119 
L 369.760418 265.771866 
L 371.56538 265.642168 
L 371.56538 265.369741 
L 372.150608 265.514793 
L 373.905277 265.384737 
L 373.989227 265.348848 
L 374.098942 265.410778 
L 374.280315 265.475343 
L 374.318041 265.608956 
L 374.38805 265.591447 
L 374.487151 265.653258 
L 374.487151 265.651791 
L 376.28543 265.537412 
L 376.375292 265.449875 
L 376.525841 265.566828 
L 376.525841 265.53445 
L 377.066798 265.599963 
L 377.066798 265.593842 
L 378.65057 265.485879 
L 378.65057 265.444642 
L 378.890183 265.576095 
L 381.075985 265.440981 
L 381.136947 265.402756 
L 381.252518 265.45387 
L 381.332756 265.581156 
L 381.332756 265.549959 
L 382.417091 265.635112 
L 385.783442 265.765881 
L 385.783442 265.764522 
L 388.248012 265.654509 
L 388.311916 265.111855 
L 388.355307 265.178662 
L 388.417892 265.377763 
L 388.507148 265.27346 
L 388.507148 265.269094 
L 388.519852 265.335901 
L 388.606827 265.283069 
L 388.805908 265.589424 
L 388.805908 265.550755 
L 390.834837 265.588295 
L 390.921646 265.652239 
L 391.082671 265.706577 
L 391.222276 265.771178 
L 391.222276 265.765904 
L 392.94667 265.604348 
L 392.94667 265.454048 
L 393.056742 265.587661 
L 393.145147 265.650074 
L 393.145147 265.600986 
L 396.500691 265.627694 
L 396.646482 265.693059 
L 396.646482 265.692105 
L 398.487273 265.789287 
L 398.487273 265.789287 
" style="fill:none;stroke:#ff0000;stroke-linecap:square;stroke-width:1.5;"/>
   </g>
   <g id="line2d_31">
    <path clip-path="url(#pebea541618)" d="M 73.832727 265.797818 
L 78.58429 265.731012 
L 78.58429 265.463785 
L 80.960072 265.330172 
L 80.960072 250.565907 
L 82.575878 250.231874 
L 83.335853 249.897841 
L 83.335853 239.075167 
L 85.711634 238.941554 
L 85.711634 233.797443 
L 88.087416 233.396604 
L 88.087416 198.857577 
L 88.087416 199.993289 
L 89.681664 199.325223 
L 89.735724 145.879921 
L 90.260926 145.211854 
L 90.273437 132.531765 
L 90.463197 131.863699 
L 90.463197 109.015832 
L 90.463197 110.024683 
L 90.929527 109.368457 
L 90.933899 108.728256 
L 91.127041 108.06019 
L 91.130643 105.387925 
L 92.838979 104.719859 
L 92.838979 100.243815 
L 95.21476 99.375328 
L 95.21476 98.974489 
L 95.21476 98.975363 
L 97.590541 98.841749 
L 97.590541 98.04007 
L 97.590541 99.048018 
L 104.717886 98.914404 
L 107.093667 98.513565 
L 107.093667 98.379951 
L 107.093667 99.048018 
L 111.84523 98.847598 
L 111.84523 98.246338 
L 111.84523 98.914404 
L 121.348356 98.246338 
L 121.348356 98.313145 
L 121.348356 98.981211 
L 140.354607 98.780791 
L 140.354607 98.860984 
L 154.609295 98.800275 
L 154.609295 98.599855 
L 154.609295 98.667856 
L 156.985077 98.60105 
L 156.985077 98.612613 
L 156.985077 99.285965 
L 159.360858 99.219158 
L 159.360858 98.150252 
L 159.360858 98.49185 
L 161.73664 98.358236 
L 161.73664 98.024203 
L 161.73664 98.463277 
L 164.112421 98.329664 
L 164.112421 97.995631 
L 164.112421 98.149983 
L 171.239765 97.961102 
L 171.239765 97.293036 
L 171.239765 98.233757 
L 173.615547 98.100143 
L 173.615547 97.699304 
L 173.615547 97.862928 
L 175.991328 97.729315 
L 175.991328 96.326375 
L 175.991328 97.108986 
L 178.36711 96.975372 
L 178.36711 96.507726 
L 178.36711 96.661477 
L 180.742891 96.527864 
L 180.742891 95.993411 
L 180.742891 96.540957 
L 183.118673 96.407344 
L 183.118673 96.340537 
L 183.118673 96.341092 
L 187.870235 96.150728 
L 187.870235 95.282242 
L 187.870235 95.669823 
L 190.246017 95.53621 
L 190.246017 95.33579 
L 190.246017 95.428161 
L 192.621798 95.294548 
L 192.621798 85.473973 
L 192.621798 85.512416 
L 194.181262 84.844349 
L 194.217559 71.683444 
L 194.99758 71.54983 
L 194.99758 67.274206 
L 194.99758 69.021038 
L 197.373361 68.687005 
L 197.373361 66.950032 
L 197.373361 67.647195 
L 198.965822 67.246356 
L 199.749142 66.778709 
L 199.749142 66.778709 
L 202.124924 66.785168 
L 204.500705 66.584748 
L 204.500705 66.183908 
L 204.500705 66.814765 
L 206.876487 66.480732 
L 206.876487 66.413926 
L 206.876487 66.440927 
L 209.252268 66.307314 
L 209.252268 66.699843 
L 211.62805 66.56623 
L 211.62805 66.232197 
L 211.62805 66.392473 
L 214.003831 66.25886 
L 214.003831 65.924827 
L 214.003831 66.052316 
L 221.131175 65.785731 
L 221.131175 64.382792 
L 221.131175 65.196671 
L 223.506957 65.063058 
L 223.506957 64.862638 
L 223.506957 64.909693 
L 225.882738 64.709274 
L 225.882738 64.508854 
L 225.882738 64.52959 
L 230.634301 64.291041 
L 230.634301 63.957008 
L 230.634301 64.049936 
L 237.761645 63.785698 
L 237.761645 63.117632 
L 237.761645 63.940795 
L 240.137427 63.807182 
L 240.137427 63.205922 
L 240.137427 63.563822 
L 242.513208 63.430209 
L 242.513208 62.828949 
L 242.513208 63.098963 
L 244.888989 62.96535 
L 244.888989 62.76493 
L 244.888989 62.833435 
L 247.264771 62.699822 
L 247.264771 62.432596 
L 247.264771 62.598281 
L 254.392115 62.348966 
L 254.392115 62.081739 
L 254.392115 62.205123 
L 256.767896 62.07151 
L 256.767896 61.937897 
L 256.767896 61.956148 
L 263.895241 61.694516 
L 263.895241 61.627709 
L 263.895241 61.652796 
L 273.398366 61.319765 
L 273.398366 61.252958 
L 273.398366 61.336337 
L 280.525711 61.156155 
L 280.525711 59.352376 
L 280.525711 61.091461 
L 287.653055 61.024654 
L 287.653055 60.891041 
L 287.653055 60.967322 
L 290.028836 60.833708 
L 290.028836 59.898416 
L 290.028836 60.362441 
L 291.653497 60.489648 
L 291.742066 65.012088 
L 291.742781 62.339823 
L 292.398293 62.321883 
L 292.404618 61.454293 
L 292.404618 61.557579 
L 294.780399 61.156739 
L 294.780399 59.15254 
L 294.780399 60.584466 
L 297.156181 60.450853 
L 297.156181 59.782787 
L 297.156181 59.846265 
L 301.907743 59.79094 
L 304.283525 59.657326 
L 304.283525 59.323293 
L 304.283525 59.435638 
L 306.659306 59.302025 
L 306.659306 59.034799 
L 306.659306 59.238267 
L 309.035088 59.104654 
L 309.035088 58.904234 
L 309.035088 58.990345 
L 311.410869 58.856732 
L 311.410869 58.789925 
L 311.410869 58.846015 
L 313.786651 58.712401 
L 313.786651 58.511981 
L 313.786651 58.60318 
L 318.538213 58.569634 
L 320.913995 58.168794 
L 320.913995 57.300308 
L 320.913995 57.830268 
L 323.289776 57.696655 
L 323.289776 57.629848 
L 323.289776 57.745983 
L 325.665558 57.61237 
L 325.665558 57.41195 
L 325.665558 57.52383 
L 328.041339 57.256604 
L 328.041339 56.588538 
L 328.041339 56.8573 
L 330.41712 56.723686 
L 330.41712 56.65688 
L 330.41712 56.661421 
L 337.544465 56.52853 
L 337.544465 56.569542 
L 337.544465 56.574887 
L 337.544465 56.574887 
L 339.920246 56.441274 
L 339.920246 56.30766 
L 339.920246 56.367486 
L 342.296028 56.233872 
L 342.296028 56.167066 
L 342.296028 56.187267 
L 344.671809 56.053654 
L 344.671809 55.920041 
L 344.671809 56.071122 
L 347.04759 55.937509 
L 347.04759 55.870702 
L 347.04759 55.904147 
L 354.174935 55.840401 
L 354.174935 55.706787 
L 354.174935 55.738704 
L 361.302279 55.492368 
L 361.302279 55.225142 
L 361.302279 55.423597 
L 363.67806 55.289984 
L 363.67806 54.955951 
L 363.67806 55.051277 
L 368.429623 54.853469 
L 368.429623 54.786662 
L 368.429623 54.794276 
L 370.805405 54.660663 
L 370.805405 54.393437 
L 370.805405 54.519145 
L 373.181186 54.385532 
L 373.181186 54.185112 
L 373.181186 54.226674 
L 375.556967 54.09306 
L 375.556967 53.959447 
L 375.556967 54.055596 
L 377.932749 53.921982 
L 377.932749 53.855176 
L 377.932749 53.963362 
L 380.30853 53.829749 
L 380.30853 53.562522 
L 380.30853 53.643675 
L 387.435875 53.37862 
L 387.435875 52.77736 
L 387.435875 53.133042 
L 389.811656 52.999429 
L 389.811656 52.665396 
L 389.811656 52.810817 
L 392.187437 52.677203 
L 392.187437 52.409977 
L 392.187437 52.555022 
L 394.563219 52.421408 
L 394.563219 52.154182 
L 394.563219 52.353789 
L 396.939 52.439174 
L 396.939 52.439174 
" style="fill:none;stroke:#008000;stroke-linecap:square;stroke-width:1.5;"/>
   </g>
   <g id="line2d_32">
    <defs>
     <path d="M 0 3 
C 0.795609 3 1.55874 2.683901 2.12132 2.12132 
C 2.683901 1.55874 3 0.795609 3 0 
C 3 -0.795609 2.683901 -1.55874 2.12132 -2.12132 
C 1.55874 -2.683901 0.795609 -3 0 -3 
C -0.795609 -3 -1.55874 -2.683901 -2.12132 -2.12132 
C -2.683901 -1.55874 -3 -0.795609 -3 0 
C -3 0.795609 -2.683901 1.55874 -2.12132 2.12132 
C -1.55874 2.683901 -0.795609 3 0 3 
z
" id="mcf4b978303" style="stroke:#bfbf00;"/>
    </defs>
    <g clip-path="url(#pebea541618)">
     <use style="fill:#bfbf00;stroke:#bfbf00;" x="81.043334" xlink:href="#mcf4b978303" y="232.394504"/>
     <use style="fill:#bfbf00;stroke:#bfbf00;" x="89.123383" xlink:href="#mcf4b978303" y="132.184562"/>
    </g>
   </g>
   <g id="line2d_33">
    <defs>
     <path d="M 0 3 
C 0.795609 3 1.55874 2.683901 2.12132 2.12132 
C 2.683901 1.55874 3 0.795609 3 0 
C 3 -0.795609 2.683901 -1.55874 2.12132 -2.12132 
C 1.55874 -2.683901 0.795609 -3 0 -3 
C -0.795609 -3 -1.55874 -2.683901 -2.12132 -2.12132 
C -2.683901 -1.55874 -3 -0.795609 -3 0 
C -3 0.795609 -2.683901 1.55874 -2.12132 2.12132 
C -1.55874 2.683901 -0.795609 3 0 3 
z
" id="mcc021f9892" style="stroke:#008000;"/>
    </defs>
    <g clip-path="url(#pebea541618)">
     <use style="fill:#008000;stroke:#008000;" x="194.007781" xlink:href="#mcc021f9892" y="237.343539"/>
    </g>
   </g>
   <g id="patch_3">
    <path d="M 57.6 276.48 
L 57.6 41.472 
" style="fill:none;stroke:#000000;stroke-linecap:square;stroke-linejoin:miter;stroke-width:0.8;"/>
   </g>
   <g id="patch_4">
    <path d="M 414.72 276.48 
L 414.72 41.472 
" style="fill:none;stroke:#000000;stroke-linecap:square;stroke-linejoin:miter;stroke-width:0.8;"/>
   </g>
   <g id="patch_5">
    <path d="M 57.6 276.48 
L 414.72 276.48 
" style="fill:none;stroke:#000000;stroke-linecap:square;stroke-linejoin:miter;stroke-width:0.8;"/>
   </g>
   <g id="patch_6">
    <path d="M 57.6 41.472 
L 414.72 41.472 
" style="fill:none;stroke:#000000;stroke-linecap:square;stroke-linejoin:miter;stroke-width:0.8;"/>
   </g>
   <g id="text_17">
    <!-- My Bondora earnings -->
    <defs>
     <path d="M 9.8125 72.90625 
L 24.515625 72.90625 
L 43.109375 23.296875 
L 61.8125 72.90625 
L 76.515625 72.90625 
L 76.515625 0 
L 66.890625 0 
L 66.890625 64.015625 
L 48.09375 14.015625 
L 38.1875 14.015625 
L 19.390625 64.015625 
L 19.390625 0 
L 9.8125 0 
z
" id="DejaVuSans-4d"/>
     <path d="M 32.171875 -5.078125 
Q 28.375 -14.84375 24.75 -17.8125 
Q 21.140625 -20.796875 15.09375 -20.796875 
L 7.90625 -20.796875 
L 7.90625 -13.28125 
L 13.1875 -13.28125 
Q 16.890625 -13.28125 18.9375 -11.515625 
Q 21 -9.765625 23.484375 -3.21875 
L 25.09375 0.875 
L 2.984375 54.6875 
L 12.5 54.6875 
L 29.59375 11.921875 
L 46.6875 54.6875 
L 56.203125 54.6875 
z
" id="DejaVuSans-79"/>
     <path id="DejaVuSans-20"/>
     <path d="M 19.671875 34.8125 
L 19.671875 8.109375 
L 35.5 8.109375 
Q 43.453125 8.109375 47.28125 11.40625 
Q 51.125 14.703125 51.125 21.484375 
Q 51.125 28.328125 47.28125 31.5625 
Q 43.453125 34.8125 35.5 34.8125 
z
M 19.671875 64.796875 
L 19.671875 42.828125 
L 34.28125 42.828125 
Q 41.5 42.828125 45.03125 45.53125 
Q 48.578125 48.25 48.578125 53.8125 
Q 48.578125 59.328125 45.03125 62.0625 
Q 41.5 64.796875 34.28125 64.796875 
z
M 9.8125 72.90625 
L 35.015625 72.90625 
Q 46.296875 72.90625 52.390625 68.21875 
Q 58.5 63.53125 58.5 54.890625 
Q 58.5 48.1875 55.375 44.234375 
Q 52.25 40.28125 46.1875 39.3125 
Q 53.46875 37.75 57.5 32.78125 
Q 61.53125 27.828125 61.53125 20.40625 
Q 61.53125 10.640625 54.890625 5.3125 
Q 48.25 0 35.984375 0 
L 9.8125 0 
z
" id="DejaVuSans-42"/>
     <path d="M 30.609375 48.390625 
Q 23.390625 48.390625 19.1875 42.75 
Q 14.984375 37.109375 14.984375 27.296875 
Q 14.984375 17.484375 19.15625 11.84375 
Q 23.34375 6.203125 30.609375 6.203125 
Q 37.796875 6.203125 41.984375 11.859375 
Q 46.1875 17.53125 46.1875 27.296875 
Q 46.1875 37.015625 41.984375 42.703125 
Q 37.796875 48.390625 30.609375 48.390625 
z
M 30.609375 56 
Q 42.328125 56 49.015625 48.375 
Q 55.71875 40.765625 55.71875 27.296875 
Q 55.71875 13.875 49.015625 6.21875 
Q 42.328125 -1.421875 30.609375 -1.421875 
Q 18.84375 -1.421875 12.171875 6.21875 
Q 5.515625 13.875 5.515625 27.296875 
Q 5.515625 40.765625 12.171875 48.375 
Q 18.84375 56 30.609375 56 
z
" id="DejaVuSans-6f"/>
     <path d="M 54.890625 33.015625 
L 54.890625 0 
L 45.90625 0 
L 45.90625 32.71875 
Q 45.90625 40.484375 42.875 44.328125 
Q 39.84375 48.1875 33.796875 48.1875 
Q 26.515625 48.1875 22.3125 43.546875 
Q 18.109375 38.921875 18.109375 30.90625 
L 18.109375 0 
L 9.078125 0 
L 9.078125 54.6875 
L 18.109375 54.6875 
L 18.109375 46.1875 
Q 21.34375 51.125 25.703125 53.5625 
Q 30.078125 56 35.796875 56 
Q 45.21875 56 50.046875 50.171875 
Q 54.890625 44.34375 54.890625 33.015625 
z
" id="DejaVuSans-6e"/>
     <path d="M 41.109375 46.296875 
Q 39.59375 47.171875 37.8125 47.578125 
Q 36.03125 48 33.890625 48 
Q 26.265625 48 22.1875 43.046875 
Q 18.109375 38.09375 18.109375 28.8125 
L 18.109375 0 
L 9.078125 0 
L 9.078125 54.6875 
L 18.109375 54.6875 
L 18.109375 46.1875 
Q 20.953125 51.171875 25.484375 53.578125 
Q 30.03125 56 36.53125 56 
Q 37.453125 56 38.578125 55.875 
Q 39.703125 55.765625 41.0625 55.515625 
z
" id="DejaVuSans-72"/>
     <path d="M 9.421875 54.6875 
L 18.40625 54.6875 
L 18.40625 0 
L 9.421875 0 
z
M 9.421875 75.984375 
L 18.40625 75.984375 
L 18.40625 64.59375 
L 9.421875 64.59375 
z
" id="DejaVuSans-69"/>
     <path d="M 45.40625 27.984375 
Q 45.40625 37.75 41.375 43.109375 
Q 37.359375 48.484375 30.078125 48.484375 
Q 22.859375 48.484375 18.828125 43.109375 
Q 14.796875 37.75 14.796875 27.984375 
Q 14.796875 18.265625 18.828125 12.890625 
Q 22.859375 7.515625 30.078125 7.515625 
Q 37.359375 7.515625 41.375 12.890625 
Q 45.40625 18.265625 45.40625 27.984375 
z
M 54.390625 6.78125 
Q 54.390625 -7.171875 48.1875 -13.984375 
Q 42 -20.796875 29.203125 -20.796875 
Q 24.46875 -20.796875 20.265625 -20.09375 
Q 16.0625 -19.390625 12.109375 -17.921875 
L 12.109375 -9.1875 
Q 16.0625 -11.328125 19.921875 -12.34375 
Q 23.78125 -13.375 27.78125 -13.375 
Q 36.625 -13.375 41.015625 -8.765625 
Q 45.40625 -4.15625 45.40625 5.171875 
L 45.40625 9.625 
Q 42.625 4.78125 38.28125 2.390625 
Q 33.9375 0 27.875 0 
Q 17.828125 0 11.671875 7.65625 
Q 5.515625 15.328125 5.515625 27.984375 
Q 5.515625 40.671875 11.671875 48.328125 
Q 17.828125 56 27.875 56 
Q 33.9375 56 38.28125 53.609375 
Q 42.625 51.21875 45.40625 46.390625 
L 45.40625 54.6875 
L 54.390625 54.6875 
z
" id="DejaVuSans-67"/>
     <path d="M 44.28125 53.078125 
L 44.28125 44.578125 
Q 40.484375 46.53125 36.375 47.5 
Q 32.28125 48.484375 27.875 48.484375 
Q 21.1875 48.484375 17.84375 46.4375 
Q 14.5 44.390625 14.5 40.28125 
Q 14.5 37.15625 16.890625 35.375 
Q 19.28125 33.59375 26.515625 31.984375 
L 29.59375 31.296875 
Q 39.15625 29.25 43.1875 25.515625 
Q 47.21875 21.78125 47.21875 15.09375 
Q 47.21875 7.46875 41.1875 3.015625 
Q 35.15625 -1.421875 24.609375 -1.421875 
Q 20.21875 -1.421875 15.453125 -0.5625 
Q 10.6875 0.296875 5.421875 2 
L 5.421875 11.28125 
Q 10.40625 8.6875 15.234375 7.390625 
Q 20.0625 6.109375 24.8125 6.109375 
Q 31.15625 6.109375 34.5625 8.28125 
Q 37.984375 10.453125 37.984375 14.40625 
Q 37.984375 18.0625 35.515625 20.015625 
Q 33.0625 21.96875 24.703125 23.78125 
L 21.578125 24.515625 
Q 13.234375 26.265625 9.515625 29.90625 
Q 5.8125 33.546875 5.8125 39.890625 
Q 5.8125 47.609375 11.28125 51.796875 
Q 16.75 56 26.8125 56 
Q 31.78125 56 36.171875 55.265625 
Q 40.578125 54.546875 44.28125 53.078125 
z
" id="DejaVuSans-73"/>
    </defs>
    <g transform="translate(172.363125 35.472)scale(0.12 -0.12)">
     <use xlink:href="#DejaVuSans-4d"/>
     <use x="86.279297" xlink:href="#DejaVuSans-79"/>
     <use x="145.458984" xlink:href="#DejaVuSans-20"/>
     <use x="177.246094" xlink:href="#DejaVuSans-42"/>
     <use x="245.849609" xlink:href="#DejaVuSans-6f"/>
     <use x="307.03125" xlink:href="#DejaVuSans-6e"/>
     <use x="370.410156" xlink:href="#DejaVuSans-64"/>
     <use x="433.886719" xlink:href="#DejaVuSans-6f"/>
     <use x="495.068359" xlink:href="#DejaVuSans-72"/>
     <use x="536.181641" xlink:href="#DejaVuSans-61"/>
     <use x="597.460938" xlink:href="#DejaVuSans-20"/>
     <use x="629.248047" xlink:href="#DejaVuSans-65"/>
     <use x="690.771484" xlink:href="#DejaVuSans-61"/>
     <use x="752.050781" xlink:href="#DejaVuSans-72"/>
     <use x="793.148438" xlink:href="#DejaVuSans-6e"/>
     <use x="856.527344" xlink:href="#DejaVuSans-69"/>
     <use x="884.310547" xlink:href="#DejaVuSans-6e"/>
     <use x="947.689453" xlink:href="#DejaVuSans-67"/>
     <use x="1011.166016" xlink:href="#DejaVuSans-73"/>
    </g>
   </g>
   <g id="legend_1">
    <g id="patch_7">
     <path d="M 313.87 197.171312 
L 407.72 197.171312 
Q 409.72 197.171312 409.72 195.171312 
L 409.72 122.780687 
Q 409.72 120.780687 407.72 120.780687 
L 313.87 120.780687 
Q 311.87 120.780687 311.87 122.780687 
L 311.87 195.171312 
Q 311.87 197.171312 313.87 197.171312 
z
" style="fill:#ffffff;opacity:0.8;stroke:#cccccc;stroke-linejoin:miter;"/>
    </g>
    <g id="line2d_34">
     <path d="M 315.87 128.879125 
L 335.87 128.879125 
" style="fill:none;stroke:#0000ff;stroke-linecap:square;stroke-width:1.5;"/>
    </g>
    <g id="line2d_35"/>
    <g id="text_18">
     <!-- Interest -->
     <defs>
      <path d="M 9.8125 72.90625 
L 19.671875 72.90625 
L 19.671875 0 
L 9.8125 0 
z
" id="DejaVuSans-49"/>
     </defs>
     <g transform="translate(343.87 132.379125)scale(0.1 -0.1)">
      <use xlink:href="#DejaVuSans-49"/>
      <use x="29.492188" xlink:href="#DejaVuSans-6e"/>
      <use x="92.871094" xlink:href="#DejaVuSans-74"/>
      <use x="132.080078" xlink:href="#DejaVuSans-65"/>
      <use x="193.603516" xlink:href="#DejaVuSans-72"/>
      <use x="234.685547" xlink:href="#DejaVuSans-65"/>
      <use x="296.208984" xlink:href="#DejaVuSans-73"/>
      <use x="348.308594" xlink:href="#DejaVuSans-74"/>
     </g>
    </g>
    <g id="line2d_36">
     <path d="M 315.87 143.55725 
L 335.87 143.55725 
" style="fill:none;stroke:#ff0000;stroke-linecap:square;stroke-width:1.5;"/>
    </g>
    <g id="line2d_37"/>
    <g id="text_19">
     <!-- Balance -->
     <defs>
      <path d="M 9.421875 75.984375 
L 18.40625 75.984375 
L 18.40625 0 
L 9.421875 0 
z
" id="DejaVuSans-6c"/>
      <path d="M 48.78125 52.59375 
L 48.78125 44.1875 
Q 44.96875 46.296875 41.140625 47.34375 
Q 37.3125 48.390625 33.40625 48.390625 
Q 24.65625 48.390625 19.8125 42.84375 
Q 14.984375 37.3125 14.984375 27.296875 
Q 14.984375 17.28125 19.8125 11.734375 
Q 24.65625 6.203125 33.40625 6.203125 
Q 37.3125 6.203125 41.140625 7.25 
Q 44.96875 8.296875 48.78125 10.40625 
L 48.78125 2.09375 
Q 45.015625 0.34375 40.984375 -0.53125 
Q 36.96875 -1.421875 32.421875 -1.421875 
Q 20.0625 -1.421875 12.78125 6.34375 
Q 5.515625 14.109375 5.515625 27.296875 
Q 5.515625 40.671875 12.859375 48.328125 
Q 20.21875 56 33.015625 56 
Q 37.15625 56 41.109375 55.140625 
Q 45.0625 54.296875 48.78125 52.59375 
z
" id="DejaVuSans-63"/>
     </defs>
     <g transform="translate(343.87 147.05725)scale(0.1 -0.1)">
      <use xlink:href="#DejaVuSans-42"/>
      <use x="68.603516" xlink:href="#DejaVuSans-61"/>
      <use x="129.882812" xlink:href="#DejaVuSans-6c"/>
      <use x="157.666016" xlink:href="#DejaVuSans-61"/>
      <use x="218.945312" xlink:href="#DejaVuSans-6e"/>
      <use x="282.324219" xlink:href="#DejaVuSans-63"/>
      <use x="337.304688" xlink:href="#DejaVuSans-65"/>
     </g>
    </g>
    <g id="line2d_38">
     <path d="M 315.87 158.235375 
L 335.87 158.235375 
" style="fill:none;stroke:#008000;stroke-linecap:square;stroke-width:1.5;"/>
    </g>
    <g id="line2d_39"/>
    <g id="text_20">
     <!-- Investments -->
     <defs>
      <path d="M 2.984375 54.6875 
L 12.5 54.6875 
L 29.59375 8.796875 
L 46.6875 54.6875 
L 56.203125 54.6875 
L 35.6875 0 
L 23.484375 0 
z
" id="DejaVuSans-76"/>
      <path d="M 52 44.1875 
Q 55.375 50.25 60.0625 53.125 
Q 64.75 56 71.09375 56 
Q 79.640625 56 84.28125 50.015625 
Q 88.921875 44.046875 88.921875 33.015625 
L 88.921875 0 
L 79.890625 0 
L 79.890625 32.71875 
Q 79.890625 40.578125 77.09375 44.375 
Q 74.3125 48.1875 68.609375 48.1875 
Q 61.625 48.1875 57.5625 43.546875 
Q 53.515625 38.921875 53.515625 30.90625 
L 53.515625 0 
L 44.484375 0 
L 44.484375 32.71875 
Q 44.484375 40.625 41.703125 44.40625 
Q 38.921875 48.1875 33.109375 48.1875 
Q 26.21875 48.1875 22.15625 43.53125 
Q 18.109375 38.875 18.109375 30.90625 
L 18.109375 0 
L 9.078125 0 
L 9.078125 54.6875 
L 18.109375 54.6875 
L 18.109375 46.1875 
Q 21.1875 51.21875 25.484375 53.609375 
Q 29.78125 56 35.6875 56 
Q 41.65625 56 45.828125 52.96875 
Q 50 49.953125 52 44.1875 
z
" id="DejaVuSans-6d"/>
     </defs>
     <g transform="translate(343.87 161.735375)scale(0.1 -0.1)">
      <use xlink:href="#DejaVuSans-49"/>
      <use x="29.492188" xlink:href="#DejaVuSans-6e"/>
      <use x="92.871094" xlink:href="#DejaVuSans-76"/>
      <use x="152.050781" xlink:href="#DejaVuSans-65"/>
      <use x="213.574219" xlink:href="#DejaVuSans-73"/>
      <use x="265.673828" xlink:href="#DejaVuSans-74"/>
      <use x="304.882812" xlink:href="#DejaVuSans-6d"/>
      <use x="402.294922" xlink:href="#DejaVuSans-65"/>
      <use x="463.818359" xlink:href="#DejaVuSans-6e"/>
      <use x="527.197266" xlink:href="#DejaVuSans-74"/>
      <use x="566.40625" xlink:href="#DejaVuSans-73"/>
     </g>
    </g>
    <g id="line2d_40"/>
    <g id="line2d_41">
     <g>
      <use style="fill:#bfbf00;stroke:#bfbf00;" x="325.87" xlink:href="#mcf4b978303" y="172.9135"/>
     </g>
    </g>
    <g id="text_21">
     <!-- Deposits -->
     <defs>
      <path d="M 19.671875 64.796875 
L 19.671875 8.109375 
L 31.59375 8.109375 
Q 46.6875 8.109375 53.6875 14.9375 
Q 60.6875 21.78125 60.6875 36.53125 
Q 60.6875 51.171875 53.6875 57.984375 
Q 46.6875 64.796875 31.59375 64.796875 
z
M 9.8125 72.90625 
L 30.078125 72.90625 
Q 51.265625 72.90625 61.171875 64.09375 
Q 71.09375 55.28125 71.09375 36.53125 
Q 71.09375 17.671875 61.125 8.828125 
Q 51.171875 0 30.078125 0 
L 9.8125 0 
z
" id="DejaVuSans-44"/>
      <path d="M 18.109375 8.203125 
L 18.109375 -20.796875 
L 9.078125 -20.796875 
L 9.078125 54.6875 
L 18.109375 54.6875 
L 18.109375 46.390625 
Q 20.953125 51.265625 25.265625 53.625 
Q 29.59375 56 35.59375 56 
Q 45.5625 56 51.78125 48.09375 
Q 58.015625 40.1875 58.015625 27.296875 
Q 58.015625 14.40625 51.78125 6.484375 
Q 45.5625 -1.421875 35.59375 -1.421875 
Q 29.59375 -1.421875 25.265625 0.953125 
Q 20.953125 3.328125 18.109375 8.203125 
z
M 48.6875 27.296875 
Q 48.6875 37.203125 44.609375 42.84375 
Q 40.53125 48.484375 33.40625 48.484375 
Q 26.265625 48.484375 22.1875 42.84375 
Q 18.109375 37.203125 18.109375 27.296875 
Q 18.109375 17.390625 22.1875 11.75 
Q 26.265625 6.109375 33.40625 6.109375 
Q 40.53125 6.109375 44.609375 11.75 
Q 48.6875 17.390625 48.6875 27.296875 
z
" id="DejaVuSans-70"/>
     </defs>
     <g transform="translate(343.87 176.4135)scale(0.1 -0.1)">
      <use xlink:href="#DejaVuSans-44"/>
      <use x="77.001953" xlink:href="#DejaVuSans-65"/>
      <use x="138.525391" xlink:href="#DejaVuSans-70"/>
      <use x="202.001953" xlink:href="#DejaVuSans-6f"/>
      <use x="263.183594" xlink:href="#DejaVuSans-73"/>
      <use x="315.283203" xlink:href="#DejaVuSans-69"/>
      <use x="343.066406" xlink:href="#DejaVuSans-74"/>
      <use x="382.275391" xlink:href="#DejaVuSans-73"/>
     </g>
    </g>
    <g id="line2d_42"/>
    <g id="line2d_43">
     <g>
      <use style="fill:#008000;stroke:#008000;" x="325.87" xlink:href="#mcc021f9892" y="187.591625"/>
     </g>
    </g>
    <g id="text_22">
     <!-- Commission -->
     <defs>
      <path d="M 64.40625 67.28125 
L 64.40625 56.890625 
Q 59.421875 61.53125 53.78125 63.8125 
Q 48.140625 66.109375 41.796875 66.109375 
Q 29.296875 66.109375 22.65625 58.46875 
Q 16.015625 50.828125 16.015625 36.375 
Q 16.015625 21.96875 22.65625 14.328125 
Q 29.296875 6.6875 41.796875 6.6875 
Q 48.140625 6.6875 53.78125 8.984375 
Q 59.421875 11.28125 64.40625 15.921875 
L 64.40625 5.609375 
Q 59.234375 2.09375 53.4375 0.328125 
Q 47.65625 -1.421875 41.21875 -1.421875 
Q 24.65625 -1.421875 15.125 8.703125 
Q 5.609375 18.84375 5.609375 36.375 
Q 5.609375 53.953125 15.125 64.078125 
Q 24.65625 74.21875 41.21875 74.21875 
Q 47.75 74.21875 53.53125 72.484375 
Q 59.328125 70.75 64.40625 67.28125 
z
" id="DejaVuSans-43"/>
     </defs>
     <g transform="translate(343.87 191.091625)scale(0.1 -0.1)">
      <use xlink:href="#DejaVuSans-43"/>
      <use x="69.824219" xlink:href="#DejaVuSans-6f"/>
      <use x="131.005859" xlink:href="#DejaVuSans-6d"/>
      <use x="228.417969" xlink:href="#DejaVuSans-6d"/>
      <use x="325.830078" xlink:href="#DejaVuSans-69"/>
      <use x="353.613281" xlink:href="#DejaVuSans-73"/>
      <use x="405.712891" xlink:href="#DejaVuSans-73"/>
      <use x="457.8125" xlink:href="#DejaVuSans-69"/>
      <use x="485.595703" xlink:href="#DejaVuSans-6f"/>
      <use x="546.777344" xlink:href="#DejaVuSans-6e"/>
     </g>
    </g>
   </g>
  </g>
 </g>
 <defs>
  <clipPath id="pebea541618">
   <rect height="235.008" width="357.12" x="57.6" y="41.472"/>
  </clipPath>
 </defs>
</svg>
