<?xml version="1.0" encoding="utf-8" standalone="no"?>
<!DOCTYPE svg PUBLIC "-//W3C//DTD SVG 1.1//EN"
  "http://www.w3.org/Graphics/SVG/1.1/DTD/svg11.dtd">
<!-- Created with matplotlib (http://matplotlib.org/) -->
<svg height="345.6pt" version="1.1" viewBox="0 0 460.8 345.6" width="460.8pt" xmlns="http://www.w3.org/2000/svg" xmlns:xlink="http://www.w3.org/1999/xlink">
 <defs>
  <style type="text/css">
*{stroke-linecap:butt;stroke-linejoin:round;}
  </style>
 </defs>
 <g id="figure_1">
  <g id="patch_1">
   <path d="M 0 345.6 
L 460.8 345.6 
L 460.8 0 
L 0 0 
z
" style="fill:#ffffff;"/>
  </g>
  <g id="axes_1">
   <g id="patch_2">
    <path d="M 57.6 276.48 
L 414.72 276.48 
L 414.72 41.472 
L 57.6 41.472 
z
" style="fill:#ffffff;"/>
   </g>
   <g id="matplotlib.axis_1">
    <g id="xtick_1">
     <g id="line2d_1">
      <path clip-path="url(#p999c0daf9f)" d="M 73.832727 276.48 
L 73.832727 41.472 
" style="fill:none;stroke:#b0b0b0;stroke-linecap:square;stroke-width:0.8;"/>
     </g>
     <g id="line2d_2">
      <defs>
       <path d="M 0 0 
L 0 3.5 
" id="m1773d9d567" style="stroke:#000000;stroke-width:0.8;"/>
      </defs>
      <g>
       <use style="stroke:#000000;stroke-width:0.8;" x="73.832727" xlink:href="#m1773d9d567" y="276.48"/>
      </g>
     </g>
     <g id="text_1">
      <!-- 2019-01 -->
      <defs>
       <path d="M 19.1875 8.296875 
L 53.609375 8.296875 
L 53.609375 0 
L 7.328125 0 
L 7.328125 8.296875 
Q 12.9375 14.109375 22.625 23.890625 
Q 32.328125 33.6875 34.8125 36.53125 
Q 39.546875 41.84375 41.421875 45.53125 
Q 43.3125 49.21875 43.3125 52.78125 
Q 43.3125 58.59375 39.234375 62.25 
Q 35.15625 65.921875 28.609375 65.921875 
Q 23.96875 65.921875 18.8125 64.3125 
Q 13.671875 62.703125 7.8125 59.421875 
L 7.8125 69.390625 
Q 13.765625 71.78125 18.9375 73 
Q 24.125 74.21875 28.421875 74.21875 
Q 39.75 74.21875 46.484375 68.546875 
Q 53.21875 62.890625 53.21875 53.421875 
Q 53.21875 48.921875 51.53125 44.890625 
Q 49.859375 40.875 45.40625 35.40625 
Q 44.1875 33.984375 37.640625 27.21875 
Q 31.109375 20.453125 19.1875 8.296875 
z
" id="DejaVuSans-32"/>
       <path d="M 31.78125 66.40625 
Q 24.171875 66.40625 20.328125 58.90625 
Q 16.5 51.421875 16.5 36.375 
Q 16.5 21.390625 20.328125 13.890625 
Q 24.171875 6.390625 31.78125 6.390625 
Q 39.453125 6.390625 43.28125 13.890625 
Q 47.125 21.390625 47.125 36.375 
Q 47.125 51.421875 43.28125 58.90625 
Q 39.453125 66.40625 31.78125 66.40625 
z
M 31.78125 74.21875 
Q 44.046875 74.21875 50.515625 64.515625 
Q 56.984375 54.828125 56.984375 36.375 
Q 56.984375 17.96875 50.515625 8.265625 
Q 44.046875 -1.421875 31.78125 -1.421875 
Q 19.53125 -1.421875 13.0625 8.265625 
Q 6.59375 17.96875 6.59375 36.375 
Q 6.59375 54.828125 13.0625 64.515625 
Q 19.53125 74.21875 31.78125 74.21875 
z
" id="DejaVuSans-30"/>
       <path d="M 12.40625 8.296875 
L 28.515625 8.296875 
L 28.515625 63.921875 
L 10.984375 60.40625 
L 10.984375 69.390625 
L 28.421875 72.90625 
L 38.28125 72.90625 
L 38.28125 8.296875 
L 54.390625 8.296875 
L 54.390625 0 
L 12.40625 0 
z
" id="DejaVuSans-31"/>
       <path d="M 10.984375 1.515625 
L 10.984375 10.5 
Q 14.703125 8.734375 18.5 7.8125 
Q 22.3125 6.890625 25.984375 6.890625 
Q 35.75 6.890625 40.890625 13.453125 
Q 46.046875 20.015625 46.78125 33.40625 
Q 43.953125 29.203125 39.59375 26.953125 
Q 35.25 24.703125 29.984375 24.703125 
Q 19.046875 24.703125 12.671875 31.3125 
Q 6.296875 37.9375 6.296875 49.421875 
Q 6.296875 60.640625 12.9375 67.421875 
Q 19.578125 74.21875 30.609375 74.21875 
Q 43.265625 74.21875 49.921875 64.515625 
Q 56.59375 54.828125 56.59375 36.375 
Q 56.59375 19.140625 48.40625 8.859375 
Q 40.234375 -1.421875 26.421875 -1.421875 
Q 22.703125 -1.421875 18.890625 -0.6875 
Q 15.09375 0.046875 10.984375 1.515625 
z
M 30.609375 32.421875 
Q 37.25 32.421875 41.125 36.953125 
Q 45.015625 41.5 45.015625 49.421875 
Q 45.015625 57.28125 41.125 61.84375 
Q 37.25 66.40625 30.609375 66.40625 
Q 23.96875 66.40625 20.09375 61.84375 
Q 16.21875 57.28125 16.21875 49.421875 
Q 16.21875 41.5 20.09375 36.953125 
Q 23.96875 32.421875 30.609375 32.421875 
z
" id="DejaVuSans-39"/>
       <path d="M 4.890625 31.390625 
L 31.203125 31.390625 
L 31.203125 23.390625 
L 4.890625 23.390625 
z
" id="DejaVuSans-2d"/>
      </defs>
      <g transform="translate(36.607906 310.951846)rotate(-30)scale(0.1 -0.1)">
       <use xlink:href="#DejaVuSans-32"/>
       <use x="63.623047" xlink:href="#DejaVuSans-30"/>
       <use x="127.246094" xlink:href="#DejaVuSans-31"/>
       <use x="190.869141" xlink:href="#DejaVuSans-39"/>
       <use x="254.492188" xlink:href="#DejaVuSans-2d"/>
       <use x="290.576172" xlink:href="#DejaVuSans-30"/>
       <use x="354.199219" xlink:href="#DejaVuSans-31"/>
      </g>
     </g>
    </g>
    <g id="xtick_2">
     <g id="line2d_3">
      <path clip-path="url(#p999c0daf9f)" d="M 125.634184 276.48 
L 125.634184 41.472 
" style="fill:none;stroke:#b0b0b0;stroke-linecap:square;stroke-width:0.8;"/>
     </g>
     <g id="line2d_4">
      <g>
       <use style="stroke:#000000;stroke-width:0.8;" x="125.634184" xlink:href="#m1773d9d567" y="276.48"/>
      </g>
     </g>
     <g id="text_2">
      <!-- 2019-03 -->
      <defs>
       <path d="M 40.578125 39.3125 
Q 47.65625 37.796875 51.625 33 
Q 55.609375 28.21875 55.609375 21.1875 
Q 55.609375 10.40625 48.1875 4.484375 
Q 40.765625 -1.421875 27.09375 -1.421875 
Q 22.515625 -1.421875 17.65625 -0.515625 
Q 12.796875 0.390625 7.625 2.203125 
L 7.625 11.71875 
Q 11.71875 9.328125 16.59375 8.109375 
Q 21.484375 6.890625 26.8125 6.890625 
Q 36.078125 6.890625 40.9375 10.546875 
Q 45.796875 14.203125 45.796875 21.1875 
Q 45.796875 27.640625 41.28125 31.265625 
Q 36.765625 34.90625 28.71875 34.90625 
L 20.21875 34.90625 
L 20.21875 43.015625 
L 29.109375 43.015625 
Q 36.375 43.015625 40.234375 45.921875 
Q 44.09375 48.828125 44.09375 54.296875 
Q 44.09375 59.90625 40.109375 62.90625 
Q 36.140625 65.921875 28.71875 65.921875 
Q 24.65625 65.921875 20.015625 65.03125 
Q 15.375 64.15625 9.8125 62.3125 
L 9.8125 71.09375 
Q 15.4375 72.65625 20.34375 73.4375 
Q 25.25 74.21875 29.59375 74.21875 
Q 40.828125 74.21875 47.359375 69.109375 
Q 53.90625 64.015625 53.90625 55.328125 
Q 53.90625 49.265625 50.4375 45.09375 
Q 46.96875 40.921875 40.578125 39.3125 
z
" id="DejaVuSans-33"/>
      </defs>
      <g transform="translate(88.409364 310.951846)rotate(-30)scale(0.1 -0.1)">
       <use xlink:href="#DejaVuSans-32"/>
       <use x="63.623047" xlink:href="#DejaVuSans-30"/>
       <use x="127.246094" xlink:href="#DejaVuSans-31"/>
       <use x="190.869141" xlink:href="#DejaVuSans-39"/>
       <use x="254.492188" xlink:href="#DejaVuSans-2d"/>
       <use x="290.576172" xlink:href="#DejaVuSans-30"/>
       <use x="354.199219" xlink:href="#DejaVuSans-33"/>
      </g>
     </g>
    </g>
    <g id="xtick_3">
     <g id="line2d_5">
      <path clip-path="url(#p999c0daf9f)" d="M 179.191623 276.48 
L 179.191623 41.472 
" style="fill:none;stroke:#b0b0b0;stroke-linecap:square;stroke-width:0.8;"/>
     </g>
     <g id="line2d_6">
      <g>
       <use style="stroke:#000000;stroke-width:0.8;" x="179.191623" xlink:href="#m1773d9d567" y="276.48"/>
      </g>
     </g>
     <g id="text_3">
      <!-- 2019-05 -->
      <defs>
       <path d="M 10.796875 72.90625 
L 49.515625 72.90625 
L 49.515625 64.59375 
L 19.828125 64.59375 
L 19.828125 46.734375 
Q 21.96875 47.46875 24.109375 47.828125 
Q 26.265625 48.1875 28.421875 48.1875 
Q 40.625 48.1875 47.75 41.5 
Q 54.890625 34.8125 54.890625 23.390625 
Q 54.890625 11.625 47.5625 5.09375 
Q 40.234375 -1.421875 26.90625 -1.421875 
Q 22.3125 -1.421875 17.546875 -0.640625 
Q 12.796875 0.140625 7.71875 1.703125 
L 7.71875 11.625 
Q 12.109375 9.234375 16.796875 8.0625 
Q 21.484375 6.890625 26.703125 6.890625 
Q 35.15625 6.890625 40.078125 11.328125 
Q 45.015625 15.765625 45.015625 23.390625 
Q 45.015625 31 40.078125 35.4375 
Q 35.15625 39.890625 26.703125 39.890625 
Q 22.75 39.890625 18.8125 39.015625 
Q 14.890625 38.140625 10.796875 36.28125 
z
" id="DejaVuSans-35"/>
      </defs>
      <g transform="translate(141.966802 310.951846)rotate(-30)scale(0.1 -0.1)">
       <use xlink:href="#DejaVuSans-32"/>
       <use x="63.623047" xlink:href="#DejaVuSans-30"/>
       <use x="127.246094" xlink:href="#DejaVuSans-31"/>
       <use x="190.869141" xlink:href="#DejaVuSans-39"/>
       <use x="254.492188" xlink:href="#DejaVuSans-2d"/>
       <use x="290.576172" xlink:href="#DejaVuSans-30"/>
       <use x="354.199219" xlink:href="#DejaVuSans-35"/>
      </g>
     </g>
    </g>
    <g id="xtick_4">
     <g id="line2d_7">
      <path clip-path="url(#p999c0daf9f)" d="M 232.749062 276.48 
L 232.749062 41.472 
" style="fill:none;stroke:#b0b0b0;stroke-linecap:square;stroke-width:0.8;"/>
     </g>
     <g id="line2d_8">
      <g>
       <use style="stroke:#000000;stroke-width:0.8;" x="232.749062" xlink:href="#m1773d9d567" y="276.48"/>
      </g>
     </g>
     <g id="text_4">
      <!-- 2019-07 -->
      <defs>
       <path d="M 8.203125 72.90625 
L 55.078125 72.90625 
L 55.078125 68.703125 
L 28.609375 0 
L 18.3125 0 
L 43.21875 64.59375 
L 8.203125 64.59375 
z
" id="DejaVuSans-37"/>
      </defs>
      <g transform="translate(195.524241 310.951846)rotate(-30)scale(0.1 -0.1)">
       <use xlink:href="#DejaVuSans-32"/>
       <use x="63.623047" xlink:href="#DejaVuSans-30"/>
       <use x="127.246094" xlink:href="#DejaVuSans-31"/>
       <use x="190.869141" xlink:href="#DejaVuSans-39"/>
       <use x="254.492188" xlink:href="#DejaVuSans-2d"/>
       <use x="290.576172" xlink:href="#DejaVuSans-30"/>
       <use x="354.199219" xlink:href="#DejaVuSans-37"/>
      </g>
     </g>
    </g>
    <g id="xtick_5">
     <g id="line2d_9">
      <path clip-path="url(#p999c0daf9f)" d="M 287.184491 276.48 
L 287.184491 41.472 
" style="fill:none;stroke:#b0b0b0;stroke-linecap:square;stroke-width:0.8;"/>
     </g>
     <g id="line2d_10">
      <g>
       <use style="stroke:#000000;stroke-width:0.8;" x="287.184491" xlink:href="#m1773d9d567" y="276.48"/>
      </g>
     </g>
     <g id="text_5">
      <!-- 2019-09 -->
      <g transform="translate(249.95967 310.951846)rotate(-30)scale(0.1 -0.1)">
       <use xlink:href="#DejaVuSans-32"/>
       <use x="63.623047" xlink:href="#DejaVuSans-30"/>
       <use x="127.246094" xlink:href="#DejaVuSans-31"/>
       <use x="190.869141" xlink:href="#DejaVuSans-39"/>
       <use x="254.492188" xlink:href="#DejaVuSans-2d"/>
       <use x="290.576172" xlink:href="#DejaVuSans-30"/>
       <use x="354.199219" xlink:href="#DejaVuSans-39"/>
      </g>
     </g>
    </g>
    <g id="xtick_6">
     <g id="line2d_11">
      <path clip-path="url(#p999c0daf9f)" d="M 340.74193 276.48 
L 340.74193 41.472 
" style="fill:none;stroke:#b0b0b0;stroke-linecap:square;stroke-width:0.8;"/>
     </g>
     <g id="line2d_12">
      <g>
       <use style="stroke:#000000;stroke-width:0.8;" x="340.74193" xlink:href="#m1773d9d567" y="276.48"/>
      </g>
     </g>
     <g id="text_6">
      <!-- 2019-11 -->
      <g transform="translate(303.517109 310.951846)rotate(-30)scale(0.1 -0.1)">
       <use xlink:href="#DejaVuSans-32"/>
       <use x="63.623047" xlink:href="#DejaVuSans-30"/>
       <use x="127.246094" xlink:href="#DejaVuSans-31"/>
       <use x="190.869141" xlink:href="#DejaVuSans-39"/>
       <use x="254.492188" xlink:href="#DejaVuSans-2d"/>
       <use x="290.576172" xlink:href="#DejaVuSans-31"/>
       <use x="354.199219" xlink:href="#DejaVuSans-31"/>
      </g>
     </g>
    </g>
    <g id="xtick_7">
     <g id="line2d_13">
      <path clip-path="url(#p999c0daf9f)" d="M 394.299368 276.48 
L 394.299368 41.472 
" style="fill:none;stroke:#b0b0b0;stroke-linecap:square;stroke-width:0.8;"/>
     </g>
     <g id="line2d_14">
      <g>
       <use style="stroke:#000000;stroke-width:0.8;" x="394.299368" xlink:href="#m1773d9d567" y="276.48"/>
      </g>
     </g>
     <g id="text_7">
      <!-- 2020-01 -->
      <g transform="translate(357.074548 310.951846)rotate(-30)scale(0.1 -0.1)">
       <use xlink:href="#DejaVuSans-32"/>
       <use x="63.623047" xlink:href="#DejaVuSans-30"/>
       <use x="127.246094" xlink:href="#DejaVuSans-32"/>
       <use x="190.869141" xlink:href="#DejaVuSans-30"/>
       <use x="254.492188" xlink:href="#DejaVuSans-2d"/>
       <use x="290.576172" xlink:href="#DejaVuSans-30"/>
       <use x="354.199219" xlink:href="#DejaVuSans-31"/>
      </g>
     </g>
    </g>
    <g id="text_8">
     <!-- date -->
     <defs>
      <path d="M 45.40625 46.390625 
L 45.40625 75.984375 
L 54.390625 75.984375 
L 54.390625 0 
L 45.40625 0 
L 45.40625 8.203125 
Q 42.578125 3.328125 38.25 0.953125 
Q 33.9375 -1.421875 27.875 -1.421875 
Q 17.96875 -1.421875 11.734375 6.484375 
Q 5.515625 14.40625 5.515625 27.296875 
Q 5.515625 40.1875 11.734375 48.09375 
Q 17.96875 56 27.875 56 
Q 33.9375 56 38.25 53.625 
Q 42.578125 51.265625 45.40625 46.390625 
z
M 14.796875 27.296875 
Q 14.796875 17.390625 18.875 11.75 
Q 22.953125 6.109375 30.078125 6.109375 
Q 37.203125 6.109375 41.296875 11.75 
Q 45.40625 17.390625 45.40625 27.296875 
Q 45.40625 37.203125 41.296875 42.84375 
Q 37.203125 48.484375 30.078125 48.484375 
Q 22.953125 48.484375 18.875 42.84375 
Q 14.796875 37.203125 14.796875 27.296875 
z
" id="DejaVuSans-64"/>
      <path d="M 34.28125 27.484375 
Q 23.390625 27.484375 19.1875 25 
Q 14.984375 22.515625 14.984375 16.5 
Q 14.984375 11.71875 18.140625 8.90625 
Q 21.296875 6.109375 26.703125 6.109375 
Q 34.1875 6.109375 38.703125 11.40625 
Q 43.21875 16.703125 43.21875 25.484375 
L 43.21875 27.484375 
z
M 52.203125 31.203125 
L 52.203125 0 
L 43.21875 0 
L 43.21875 8.296875 
Q 40.140625 3.328125 35.546875 0.953125 
Q 30.953125 -1.421875 24.3125 -1.421875 
Q 15.921875 -1.421875 10.953125 3.296875 
Q 6 8.015625 6 15.921875 
Q 6 25.140625 12.171875 29.828125 
Q 18.359375 34.515625 30.609375 34.515625 
L 43.21875 34.515625 
L 43.21875 35.40625 
Q 43.21875 41.609375 39.140625 45 
Q 35.0625 48.390625 27.6875 48.390625 
Q 23 48.390625 18.546875 47.265625 
Q 14.109375 46.140625 10.015625 43.890625 
L 10.015625 52.203125 
Q 14.9375 54.109375 19.578125 55.046875 
Q 24.21875 56 28.609375 56 
Q 40.484375 56 46.34375 49.84375 
Q 52.203125 43.703125 52.203125 31.203125 
z
" id="DejaVuSans-61"/>
      <path d="M 18.3125 70.21875 
L 18.3125 54.6875 
L 36.8125 54.6875 
L 36.8125 47.703125 
L 18.3125 47.703125 
L 18.3125 18.015625 
Q 18.3125 11.328125 20.140625 9.421875 
Q 21.96875 7.515625 27.59375 7.515625 
L 36.8125 7.515625 
L 36.8125 0 
L 27.59375 0 
Q 17.1875 0 13.234375 3.875 
Q 9.28125 7.765625 9.28125 18.015625 
L 9.28125 47.703125 
L 2.6875 47.703125 
L 2.6875 54.6875 
L 9.28125 54.6875 
L 9.28125 70.21875 
z
" id="DejaVuSans-74"/>
      <path d="M 56.203125 29.59375 
L 56.203125 25.203125 
L 14.890625 25.203125 
Q 15.484375 15.921875 20.484375 11.0625 
Q 25.484375 6.203125 34.421875 6.203125 
Q 39.59375 6.203125 44.453125 7.46875 
Q 49.3125 8.734375 54.109375 11.28125 
L 54.109375 2.78125 
Q 49.265625 0.734375 44.1875 -0.34375 
Q 39.109375 -1.421875 33.890625 -1.421875 
Q 20.796875 -1.421875 13.15625 6.1875 
Q 5.515625 13.8125 5.515625 26.8125 
Q 5.515625 40.234375 12.765625 48.109375 
Q 20.015625 56 32.328125 56 
Q 43.359375 56 49.78125 48.890625 
Q 56.203125 41.796875 56.203125 29.59375 
z
M 47.21875 32.234375 
Q 47.125 39.59375 43.09375 43.984375 
Q 39.0625 48.390625 32.421875 48.390625 
Q 24.90625 48.390625 20.390625 44.140625 
Q 15.875 39.890625 15.1875 32.171875 
z
" id="DejaVuSans-65"/>
     </defs>
     <g transform="translate(224.885 324.351346)scale(0.1 -0.1)">
      <use xlink:href="#DejaVuSans-64"/>
      <use x="63.476562" xlink:href="#DejaVuSans-61"/>
      <use x="124.755859" xlink:href="#DejaVuSans-74"/>
      <use x="163.964844" xlink:href="#DejaVuSans-65"/>
     </g>
    </g>
   </g>
   <g id="matplotlib.axis_2">
    <g id="ytick_1">
     <g id="line2d_15">
      <path clip-path="url(#p999c0daf9f)" d="M 57.6 265.797818 
L 414.72 265.797818 
" style="fill:none;stroke:#b0b0b0;stroke-linecap:square;stroke-width:0.8;"/>
     </g>
     <g id="line2d_16">
      <defs>
       <path d="M 0 0 
L -3.5 0 
" id="md4e0d4bda5" style="stroke:#000000;stroke-width:0.8;"/>
      </defs>
      <g>
       <use style="stroke:#000000;stroke-width:0.8;" x="57.6" xlink:href="#md4e0d4bda5" y="265.797818"/>
      </g>
     </g>
     <g id="text_9">
      <!-- 0 -->
      <g transform="translate(44.2375 269.597037)scale(0.1 -0.1)">
       <use xlink:href="#DejaVuSans-30"/>
      </g>
     </g>
    </g>
    <g id="ytick_2">
     <g id="line2d_17">
      <path clip-path="url(#p999c0daf9f)" d="M 57.6 226.753092 
L 414.72 226.753092 
" style="fill:none;stroke:#b0b0b0;stroke-linecap:square;stroke-width:0.8;"/>
     </g>
     <g id="line2d_18">
      <g>
       <use style="stroke:#000000;stroke-width:0.8;" x="57.6" xlink:href="#md4e0d4bda5" y="226.753092"/>
      </g>
     </g>
     <g id="text_10">
      <!-- 2000 -->
      <g transform="translate(25.15 230.55231)scale(0.1 -0.1)">
       <use xlink:href="#DejaVuSans-32"/>
       <use x="63.623047" xlink:href="#DejaVuSans-30"/>
       <use x="127.246094" xlink:href="#DejaVuSans-30"/>
       <use x="190.869141" xlink:href="#DejaVuSans-30"/>
      </g>
     </g>
    </g>
    <g id="ytick_3">
     <g id="line2d_19">
      <path clip-path="url(#p999c0daf9f)" d="M 57.6 187.708365 
L 414.72 187.708365 
" style="fill:none;stroke:#b0b0b0;stroke-linecap:square;stroke-width:0.8;"/>
     </g>
     <g id="line2d_20">
      <g>
       <use style="stroke:#000000;stroke-width:0.8;" x="57.6" xlink:href="#md4e0d4bda5" y="187.708365"/>
      </g>
     </g>
     <g id="text_11">
      <!-- 4000 -->
      <defs>
       <path d="M 37.796875 64.3125 
L 12.890625 25.390625 
L 37.796875 25.390625 
z
M 35.203125 72.90625 
L 47.609375 72.90625 
L 47.609375 25.390625 
L 58.015625 25.390625 
L 58.015625 17.1875 
L 47.609375 17.1875 
L 47.609375 0 
L 37.796875 0 
L 37.796875 17.1875 
L 4.890625 17.1875 
L 4.890625 26.703125 
z
" id="DejaVuSans-34"/>
      </defs>
      <g transform="translate(25.15 191.507584)scale(0.1 -0.1)">
       <use xlink:href="#DejaVuSans-34"/>
       <use x="63.623047" xlink:href="#DejaVuSans-30"/>
       <use x="127.246094" xlink:href="#DejaVuSans-30"/>
       <use x="190.869141" xlink:href="#DejaVuSans-30"/>
      </g>
     </g>
    </g>
    <g id="ytick_4">
     <g id="line2d_21">
      <path clip-path="url(#p999c0daf9f)" d="M 57.6 148.663639 
L 414.72 148.663639 
" style="fill:none;stroke:#b0b0b0;stroke-linecap:square;stroke-width:0.8;"/>
     </g>
     <g id="line2d_22">
      <g>
       <use style="stroke:#000000;stroke-width:0.8;" x="57.6" xlink:href="#md4e0d4bda5" y="148.663639"/>
      </g>
     </g>
     <g id="text_12">
      <!-- 6000 -->
      <defs>
       <path d="M 33.015625 40.375 
Q 26.375 40.375 22.484375 35.828125 
Q 18.609375 31.296875 18.609375 23.390625 
Q 18.609375 15.53125 22.484375 10.953125 
Q 26.375 6.390625 33.015625 6.390625 
Q 39.65625 6.390625 43.53125 10.953125 
Q 47.40625 15.53125 47.40625 23.390625 
Q 47.40625 31.296875 43.53125 35.828125 
Q 39.65625 40.375 33.015625 40.375 
z
M 52.59375 71.296875 
L 52.59375 62.3125 
Q 48.875 64.0625 45.09375 64.984375 
Q 41.3125 65.921875 37.59375 65.921875 
Q 27.828125 65.921875 22.671875 59.328125 
Q 17.53125 52.734375 16.796875 39.40625 
Q 19.671875 43.65625 24.015625 45.921875 
Q 28.375 48.1875 33.59375 48.1875 
Q 44.578125 48.1875 50.953125 41.515625 
Q 57.328125 34.859375 57.328125 23.390625 
Q 57.328125 12.15625 50.6875 5.359375 
Q 44.046875 -1.421875 33.015625 -1.421875 
Q 20.359375 -1.421875 13.671875 8.265625 
Q 6.984375 17.96875 6.984375 36.375 
Q 6.984375 53.65625 15.1875 63.9375 
Q 23.390625 74.21875 37.203125 74.21875 
Q 40.921875 74.21875 44.703125 73.484375 
Q 48.484375 72.75 52.59375 71.296875 
z
" id="DejaVuSans-36"/>
      </defs>
      <g transform="translate(25.15 152.462857)scale(0.1 -0.1)">
       <use xlink:href="#DejaVuSans-36"/>
       <use x="63.623047" xlink:href="#DejaVuSans-30"/>
       <use x="127.246094" xlink:href="#DejaVuSans-30"/>
       <use x="190.869141" xlink:href="#DejaVuSans-30"/>
      </g>
     </g>
    </g>
    <g id="ytick_5">
     <g id="line2d_23">
      <path clip-path="url(#p999c0daf9f)" d="M 57.6 109.618912 
L 414.72 109.618912 
" style="fill:none;stroke:#b0b0b0;stroke-linecap:square;stroke-width:0.8;"/>
     </g>
     <g id="line2d_24">
      <g>
       <use style="stroke:#000000;stroke-width:0.8;" x="57.6" xlink:href="#md4e0d4bda5" y="109.618912"/>
      </g>
     </g>
     <g id="text_13">
      <!-- 8000 -->
      <defs>
       <path d="M 31.78125 34.625 
Q 24.75 34.625 20.71875 30.859375 
Q 16.703125 27.09375 16.703125 20.515625 
Q 16.703125 13.921875 20.71875 10.15625 
Q 24.75 6.390625 31.78125 6.390625 
Q 38.8125 6.390625 42.859375 10.171875 
Q 46.921875 13.96875 46.921875 20.515625 
Q 46.921875 27.09375 42.890625 30.859375 
Q 38.875 34.625 31.78125 34.625 
z
M 21.921875 38.8125 
Q 15.578125 40.375 12.03125 44.71875 
Q 8.5 49.078125 8.5 55.328125 
Q 8.5 64.0625 14.71875 69.140625 
Q 20.953125 74.21875 31.78125 74.21875 
Q 42.671875 74.21875 48.875 69.140625 
Q 55.078125 64.0625 55.078125 55.328125 
Q 55.078125 49.078125 51.53125 44.71875 
Q 48 40.375 41.703125 38.8125 
Q 48.828125 37.15625 52.796875 32.3125 
Q 56.78125 27.484375 56.78125 20.515625 
Q 56.78125 9.90625 50.3125 4.234375 
Q 43.84375 -1.421875 31.78125 -1.421875 
Q 19.734375 -1.421875 13.25 4.234375 
Q 6.78125 9.90625 6.78125 20.515625 
Q 6.78125 27.484375 10.78125 32.3125 
Q 14.796875 37.15625 21.921875 38.8125 
z
M 18.3125 54.390625 
Q 18.3125 48.734375 21.84375 45.5625 
Q 25.390625 42.390625 31.78125 42.390625 
Q 38.140625 42.390625 41.71875 45.5625 
Q 45.3125 48.734375 45.3125 54.390625 
Q 45.3125 60.0625 41.71875 63.234375 
Q 38.140625 66.40625 31.78125 66.40625 
Q 25.390625 66.40625 21.84375 63.234375 
Q 18.3125 60.0625 18.3125 54.390625 
z
" id="DejaVuSans-38"/>
      </defs>
      <g transform="translate(25.15 113.418131)scale(0.1 -0.1)">
       <use xlink:href="#DejaVuSans-38"/>
       <use x="63.623047" xlink:href="#DejaVuSans-30"/>
       <use x="127.246094" xlink:href="#DejaVuSans-30"/>
       <use x="190.869141" xlink:href="#DejaVuSans-30"/>
      </g>
     </g>
    </g>
    <g id="ytick_6">
     <g id="line2d_25">
      <path clip-path="url(#p999c0daf9f)" d="M 57.6 70.574186 
L 414.72 70.574186 
" style="fill:none;stroke:#b0b0b0;stroke-linecap:square;stroke-width:0.8;"/>
     </g>
     <g id="line2d_26">
      <g>
       <use style="stroke:#000000;stroke-width:0.8;" x="57.6" xlink:href="#md4e0d4bda5" y="70.574186"/>
      </g>
     </g>
     <g id="text_14">
      <!-- 10000 -->
      <g transform="translate(18.7875 74.373404)scale(0.1 -0.1)">
       <use xlink:href="#DejaVuSans-31"/>
       <use x="63.623047" xlink:href="#DejaVuSans-30"/>
       <use x="127.246094" xlink:href="#DejaVuSans-30"/>
       <use x="190.869141" xlink:href="#DejaVuSans-30"/>
       <use x="254.492188" xlink:href="#DejaVuSans-30"/>
      </g>
     </g>
    </g>
    <g id="text_15">
     <!-- EUR -->
     <defs>
      <path d="M 9.8125 72.90625 
L 55.90625 72.90625 
L 55.90625 64.59375 
L 19.671875 64.59375 
L 19.671875 43.015625 
L 54.390625 43.015625 
L 54.390625 34.71875 
L 19.671875 34.71875 
L 19.671875 8.296875 
L 56.78125 8.296875 
L 56.78125 0 
L 9.8125 0 
z
" id="DejaVuSans-45"/>
      <path d="M 8.6875 72.90625 
L 18.609375 72.90625 
L 18.609375 28.609375 
Q 18.609375 16.890625 22.84375 11.734375 
Q 27.09375 6.59375 36.625 6.59375 
Q 46.09375 6.59375 50.34375 11.734375 
Q 54.59375 16.890625 54.59375 28.609375 
L 54.59375 72.90625 
L 64.5 72.90625 
L 64.5 27.390625 
Q 64.5 13.140625 57.4375 5.859375 
Q 50.390625 -1.421875 36.625 -1.421875 
Q 22.796875 -1.421875 15.734375 5.859375 
Q 8.6875 13.140625 8.6875 27.390625 
z
" id="DejaVuSans-55"/>
      <path d="M 44.390625 34.1875 
Q 47.5625 33.109375 50.5625 29.59375 
Q 53.5625 26.078125 56.59375 19.921875 
L 66.609375 0 
L 56 0 
L 46.6875 18.703125 
Q 43.0625 26.03125 39.671875 28.421875 
Q 36.28125 30.8125 30.421875 30.8125 
L 19.671875 30.8125 
L 19.671875 0 
L 9.8125 0 
L 9.8125 72.90625 
L 32.078125 72.90625 
Q 44.578125 72.90625 50.734375 67.671875 
Q 56.890625 62.453125 56.890625 51.90625 
Q 56.890625 45.015625 53.6875 40.46875 
Q 50.484375 35.9375 44.390625 34.1875 
z
M 19.671875 64.796875 
L 19.671875 38.921875 
L 32.078125 38.921875 
Q 39.203125 38.921875 42.84375 42.21875 
Q 46.484375 45.515625 46.484375 51.90625 
Q 46.484375 58.296875 42.84375 61.546875 
Q 39.203125 64.796875 32.078125 64.796875 
z
" id="DejaVuSans-52"/>
     </defs>
     <g transform="translate(12.707813 169.268969)rotate(-90)scale(0.1 -0.1)">
      <use xlink:href="#DejaVuSans-45"/>
      <use x="63.183594" xlink:href="#DejaVuSans-55"/>
      <use x="136.376953" xlink:href="#DejaVuSans-52"/>
     </g>
    </g>
   </g>
   <g id="line2d_27">
    <path clip-path="url(#p999c0daf9f)" d="M 73.832727 265.797818 
L 104.562405 265.710459 
L 104.562405 265.69202 
L 109.83035 265.545286 
L 109.83035 265.426575 
L 109.83035 265.426575 
L 111.586332 265.358651 
L 111.586332 265.317976 
L 111.586332 265.157282 
L 115.976286 265.002858 
L 115.976286 264.821775 
L 118.610258 264.701331 
L 118.610258 264.684059 
L 118.610258 264.684059 
L 123.000212 264.572911 
L 123.000212 264.552358 
L 128.268157 264.442582 
L 128.268157 264.158333 
L 130.024138 264.053111 
L 130.024138 264.01014 
L 131.78012 263.900711 
L 131.78012 263.856334 
L 135.292083 263.743516 
L 135.292083 263.695243 
L 136.170074 263.579485 
L 136.170074 263.53381 
L 136.170074 263.53381 
L 140.560028 263.402444 
L 140.560028 263.402444 
L 140.560028 263.296555 
L 144.071991 263.193346 
L 144.071991 263.166123 
L 150.217927 263.038351 
L 150.217927 263.019597 
L 154.607881 262.908204 
L 154.607881 262.772871 
L 155.485871 262.659852 
L 155.485871 262.645865 
L 158.997835 262.525434 
L 158.997835 262.462372 
L 161.631807 262.338433 
L 161.631807 262.298681 
L 165.14377 262.226423 
L 165.14377 262.190174 
L 165.14377 261.974697 
L 167.777743 261.851814 
L 167.777743 261.655229 
L 172.167697 261.542034 
L 172.167697 261.532501 
L 177.435641 261.39547 
L 177.435641 261.363843 
L 180.947605 261.212402 
L 180.947605 261.212402 
L 180.947605 261.134126 
L 180.947605 261.134126 
L 183.581577 261.01454 
L 183.581577 260.950425 
L 185.337559 260.829245 
L 185.337559 260.827151 
L 189.727513 260.696386 
L 189.727513 260.552378 
L 191.483494 260.44139 
L 191.483494 260.402179 
L 195.873448 260.246973 
L 195.873448 260.138346 
L 199.385411 259.987175 
L 199.385411 259.986206 
L 208.165319 259.870905 
L 208.165319 259.739979 
L 209.921301 259.618452 
L 209.921301 259.583312 
L 211.677282 259.463148 
L 211.677282 259.462695 
L 214.311255 259.335408 
L 214.311255 259.289129 
L 216.067236 259.19116 
L 216.067236 259.091335 
L 216.945227 258.982588 
L 216.945227 258.948442 
L 216.945227 258.948442 
L 220.45719 258.831495 
L 220.45719 258.800675 
L 220.45719 258.800675 
L 221.335181 258.686989 
L 221.335181 258.591394 
L 223.969154 258.483001 
L 223.969154 258.473955 
L 230.115089 258.343163 
L 230.115089 258.330367 
L 232.749062 258.217226 
L 232.749062 258.146036 
L 232.749062 258.146036 
L 233.627052 258.034046 
L 233.627052 258.0085 
L 234.505043 257.893501 
L 234.505043 257.403918 
L 235.383034 257.291482 
L 235.383034 256.814444 
L 236.261025 256.814444 
L 236.261025 256.709894 
L 236.261025 256.611165 
L 238.894997 256.489573 
L 238.894997 255.771204 
L 239.772988 255.659375 
L 239.772988 255.623824 
L 240.650979 255.623824 
L 240.650979 255.577143 
L 240.650979 255.289363 
L 242.40696 255.174903 
L 242.40696 254.972487 
L 242.40696 254.972487 
L 245.040933 254.858906 
L 245.040933 254.638144 
L 245.918924 254.527104 
L 245.918924 254.401016 
L 246.796914 254.294524 
L 246.796914 254.055942 
L 247.674905 253.947916 
L 247.674905 253.520653 
L 248.552896 253.464242 
L 248.552896 253.258259 
L 251.186868 253.028771 
L 251.186868 252.963913 
L 252.064859 252.853368 
L 252.064859 252.660159 
L 254.698832 252.541997 
L 254.698832 252.541997 
L 254.698832 252.475494 
L 257.332804 252.365252 
L 259.088786 252.282406 
L 259.088786 252.190428 
L 259.966776 252.078838 
L 259.966776 251.873276 
L 260.844767 251.762013 
L 260.844767 251.73671 
L 263.47874 251.632699 
L 263.47874 251.632699 
L 263.47874 250.470234 
L 264.35673 250.358852 
L 264.35673 249.911578 
L 265.234721 249.805163 
L 265.234721 249.684539 
L 266.112712 249.684539 
L 266.112712 249.57441 
L 266.112712 249.434569 
L 266.990703 249.32584 
L 266.990703 249.278003 
L 269.624675 249.157478 
L 269.624675 248.964741 
L 270.502666 248.85959 
L 270.502666 248.76741 
L 271.380657 248.6559 
L 271.380657 248.641303 
L 271.380657 248.641303 
L 272.258648 248.641303 
L 272.258648 248.552555 
L 272.258648 248.424829 
L 273.136638 248.317479 
L 273.136638 248.056347 
L 275.770611 247.93163 
L 275.770611 247.256085 
L 276.648602 247.256085 
L 276.648602 247.147918 
L 276.648602 247.076117 
L 277.526592 246.965687 
L 277.526592 246.933753 
L 279.282574 246.826298 
L 279.282574 246.694827 
L 281.916546 246.602903 
L 281.916546 246.496145 
L 283.672528 246.407168 
L 283.672528 246.390344 
L 283.672528 246.291613 
L 283.672528 246.291613 
L 286.3065 246.194117 
L 286.3065 246.113657 
L 288.062482 246.000964 
L 288.062482 245.857003 
L 288.062482 245.857003 
L 288.940473 245.747371 
L 288.940473 245.439595 
L 289.818463 245.319325 
L 289.818463 244.858711 
L 290.696454 244.747812 
L 290.696454 244.449059 
L 291.574445 244.338805 
L 291.574445 243.919683 
L 294.208417 243.805605 
L 294.208417 243.510242 
L 295.086408 243.403321 
L 295.086408 243.282206 
L 295.964399 243.170986 
L 295.964399 243.166046 
L 297.720381 243.055818 
L 297.720381 242.802999 
L 300.354353 242.688651 
L 300.354353 242.185758 
L 301.232344 242.074874 
L 301.232344 242.074874 
L 301.232344 241.93512 
L 302.110335 241.93512 
L 302.110335 241.824603 
L 302.110335 241.498389 
L 302.988325 241.38919 
L 302.988325 241.35539 
L 303.866316 241.250734 
L 303.866316 241.168824 
L 306.500289 241.05745 
L 306.500289 241.05745 
L 306.500289 240.997437 
L 307.378279 240.960769 
L 307.378279 240.731534 
L 309.134261 240.625062 
L 309.134261 240.464262 
L 311.768233 240.357786 
L 311.768233 240.353244 
L 311.768233 240.346491 
L 313.524215 240.262461 
L 313.524215 239.984339 
L 315.280197 239.87272 
L 315.280197 239.576674 
L 316.158187 239.443794 
L 316.158187 238.971789 
L 318.79216 238.855833 
L 318.79216 238.855833 
L 318.79216 238.339276 
L 319.670151 238.208504 
L 319.670151 238.085468 
L 321.426132 237.992926 
L 321.426132 237.976162 
L 321.426132 237.795913 
L 324.938095 237.682882 
L 324.938095 237.682882 
L 324.938095 237.364471 
L 325.816086 237.253694 
L 325.816086 237.120211 
L 326.694077 237.005232 
L 326.694077 236.640801 
L 327.572068 236.529665 
L 327.572068 236.367589 
L 328.450059 236.256937 
L 328.450059 235.930974 
L 331.084031 235.844357 
L 331.084031 235.532968 
L 331.962022 235.424656 
L 332.840013 235.337181 
L 332.840013 235.2184 
L 333.718003 235.2184 
L 333.718003 235.107376 
L 333.718003 235.082939 
L 334.595994 234.971471 
L 334.595994 234.96526 
L 338.107957 234.85104 
L 338.107957 234.739604 
L 338.107957 234.739604 
L 339.863939 234.628282 
L 339.863939 234.611081 
L 340.74193 234.502264 
L 340.74193 234.47321 
L 343.375902 234.368429 
L 343.375902 233.611252 
L 343.375902 233.611252 
L 344.253893 233.517852 
L 344.253893 233.126341 
L 345.131884 233.029165 
L 345.131884 232.822553 
L 345.131884 232.822553 
L 346.009875 232.712141 
L 346.009875 232.599659 
L 346.009875 232.599659 
L 346.887865 232.488024 
L 346.887865 232.45196 
L 349.521838 232.337284 
L 349.521838 232.145914 
L 349.521838 232.145914 
L 351.277819 232.033668 
L 351.277819 231.844981 
L 353.033801 231.734265 
L 353.033801 231.617823 
L 355.667773 231.499284 
L 355.667773 231.499284 
L 355.667773 230.716895 
L 357.423755 230.624808 
L 357.423755 230.552844 
L 358.301746 230.439635 
L 358.301746 230.401656 
L 360.935718 230.289029 
L 360.935718 230.287108 
L 362.6917 230.179957 
L 362.6917 230.096453 
L 364.447681 229.990973 
L 364.447681 229.986738 
L 364.447681 229.948449 
L 367.959644 229.837732 
L 367.959644 229.408283 
L 368.837635 229.294145 
L 368.837635 229.059095 
L 369.715626 228.925369 
L 369.715626 228.655888 
L 370.593617 228.544905 
L 370.593617 228.479345 
L 374.10558 228.3677 
L 374.10558 227.961581 
L 374.983571 227.851224 
L 374.983571 227.674327 
L 375.861562 227.566668 
L 375.861562 227.560354 
L 375.861562 227.560354 
L 376.739552 227.449044 
L 376.739552 227.439097 
L 377.617543 227.342867 
L 377.617543 227.18327 
L 380.251516 227.072211 
L 380.251516 226.652076 
L 381.129506 226.540658 
L 381.129506 226.516924 
L 382.007497 226.408911 
L 382.007497 226.191954 
L 382.007497 226.191954 
L 382.885488 226.080984 
L 382.885488 226.074458 
L 383.763479 226.074458 
L 383.763479 225.966927 
L 383.763479 225.938717 
L 386.397451 225.809235 
L 386.397451 225.783091 
L 386.397451 225.783091 
L 389.909414 225.684158 
L 389.909414 225.610065 
L 392.543387 225.603191 
L 392.543387 225.499406 
L 392.543387 225.491092 
L 395.177359 225.384346 
L 395.177359 225.033406 
L 396.05535 224.922726 
L 396.05535 224.922726 
L 396.05535 224.729498 
L 397.811332 224.689732 
L 397.811332 224.689732 
" style="fill:none;stroke:#0000ff;stroke-linecap:square;stroke-width:1.5;"/>
   </g>
   <g id="line2d_28">
    <path clip-path="url(#p999c0daf9f)" d="M 73.832727 265.797818 
L 76.35629 265.719729 
L 76.49747 255.958547 
L 76.705261 256.095204 
L 77.202058 259.628751 
L 77.419086 260.624392 
L 77.604064 260.93675 
L 77.686772 261.171018 
L 77.826173 262.244748 
L 77.884096 262.498539 
L 77.999129 263.181822 
L 78.495986 264.314119 
L 78.599374 264.392208 
L 78.668262 264.860745 
L 78.845801 265.036446 
L 78.927564 265.212147 
L 79.019295 265.407371 
L 79.482913 265.504745 
L 79.483523 226.460018 
L 79.592723 228.236553 
L 79.68984 231.106341 
L 79.82345 249.769263 
L 79.990969 255.973526 
L 80.150999 256.165289 
L 80.245454 258.109383 
L 80.260941 258.10419 
L 80.312299 258.18228 
L 80.426235 261.091112 
L 80.444028 261.110634 
L 80.542487 262.301498 
L 80.578501 262.574811 
L 80.746346 263.609192 
L 80.764302 263.628714 
L 80.870606 264.194351 
L 81.307223 264.506709 
L 81.336622 265.014291 
L 81.460282 265.053335 
L 81.519333 265.209514 
L 81.634753 265.599962 
L 82.215121 265.697344 
L 82.304546 265.736389 
L 82.914404 265.769251 
L 83.024519 265.572731 
L 83.075095 265.689601 
L 83.16959 265.748167 
L 85.870022 265.787211 
L 86.530872 265.589396 
L 86.535181 265.687008 
L 86.541136 265.745575 
L 87.414645 265.78462 
L 88.55832 265.587336 
L 88.561104 265.606858 
L 88.569539 265.782559 
L 91.747723 265.762923 
L 91.747723 265.576404 
L 91.749847 265.771628 
L 91.942751 265.759736 
L 103.983053 265.784117 
L 103.983053 265.749325 
L 103.983053 265.722434 
L 103.994861 265.781001 
L 104.04622 265.770232 
L 104.133785 265.789754 
L 104.942167 265.786077 
L 105.317691 265.583576 
L 105.715124 265.564636 
L 105.715124 265.462165 
L 105.743689 265.559777 
L 107.828124 265.796828 
L 110.377966 265.686479 
L 110.402507 265.519447 
L 110.394845 265.71942 
L 110.464881 265.636581 
L 111.872603 265.492759 
L 112.000674 265.486179 
L 112.00667 265.564269 
L 112.104488 265.698419 
L 112.104488 265.693053 
L 114.774739 265.773012 
L 115.652445 265.790875 
L 115.652445 265.785992 
L 116.268441 265.673908 
L 116.283349 265.606066 
L 116.371493 265.662615 
L 116.449303 265.739688 
L 116.512053 265.663683 
L 116.569427 265.742532 
L 118.192145 265.790666 
L 118.244469 257.475702 
L 118.321486 262.814771 
L 118.373465 264.296401 
L 119.032029 264.376218 
L 119.04215 263.887757 
L 119.058643 264.356293 
L 119.146188 264.375816 
L 119.204477 265.117665 
L 119.246771 265.104726 
L 119.265225 265.124248 
L 119.792273 265.114872 
L 119.828907 264.91466 
L 119.840156 265.129406 
L 119.86549 265.128339 
L 120.048415 265.16268 
L 120.161883 265.609156 
L 120.161883 265.607815 
L 120.817389 265.620145 
L 120.933062 265.756802 
L 122.849836 265.643452 
L 122.849836 265.640537 
L 122.853382 265.699104 
L 128.580118 265.591599 
L 128.654859 265.527756 
L 128.683312 265.664412 
L 128.801038 265.707438 
L 128.944596 265.72237 
L 128.944596 265.718643 
L 128.944596 265.520863 
L 129.040687 265.735609 
L 130.282912 265.73564 
L 130.282912 265.70393 
L 130.282912 265.697063 
L 130.346089 265.736108 
L 130.38008 265.73097 
L 135.241446 265.755232 
L 135.25989 265.56361 
L 135.28308 265.700267 
L 135.610131 265.664726 
L 135.640952 265.57623 
L 135.710226 265.699256 
L 135.927976 265.700866 
L 135.927976 265.691631 
L 135.950464 265.711154 
L 136.48359 265.749672 
L 136.48359 265.660095 
L 136.515244 265.571986 
L 136.567629 265.728165 
L 150.9963 265.592197 
L 150.9963 265.269401 
L 151.010171 265.796505 
L 154.064421 265.7475 
L 154.145228 265.643663 
L 154.182014 265.755923 
L 154.332391 265.643011 
L 154.362897 265.033105 
L 154.363029 264.416944 
L 154.403291 265.369036 
L 154.605543 265.355836 
L 154.662745 265.57185 
L 154.881978 265.463661 
L 154.954199 265.418626 
L 155.238195 265.453235 
L 155.238195 265.448444 
L 156.041892 265.317287 
L 156.041892 265.314038 
L 156.13468 265.781548 
L 156.15349 265.772449 
L 156.156295 265.791971 
L 156.263218 265.422245 
L 156.275809 265.617469 
L 157.07097 265.57979 
L 157.127633 265.775013 
L 165.815403 265.652098 
L 165.815403 265.585359 
L 165.877218 265.680649 
L 165.921788 265.674536 
L 167.569199 265.763862 
L 167.714037 265.783149 
L 168.062023 265.674793 
L 168.087072 265.558182 
L 168.142261 265.682808 
L 168.271724 265.743716 
L 168.271724 265.738199 
L 170.010685 265.796835 
L 181.233165 265.69168 
L 181.233165 265.646984 
L 181.332955 265.756972 
L 188.350683 265.769794 
L 188.353985 265.789316 
L 190.027645 265.675179 
L 190.051262 265.597365 
L 190.080619 265.675454 
L 190.128106 265.662836 
L 190.503945 265.723732 
L 193.131373 265.766926 
L 196.158063 265.65553 
L 196.158063 265.611148 
L 196.263311 265.737947 
L 202.479536 265.779924 
L 202.531789 263.832959 
L 202.581379 264.606779 
L 203.747318 264.624886 
L 204.113463 264.622898 
L 204.295382 265.79424 
L 204.407011 264.613971 
L 205.029581 264.614163 
L 205.19516 264.848431 
L 205.209071 265.785505 
L 208.463491 265.679429 
L 208.515601 265.657425 
L 208.543069 265.715992 
L 208.553464 265.709639 
L 213.013587 265.777621 
L 214.638174 265.712622 
L 214.638174 265.701371 
L 214.658966 265.680556 
L 214.7013 265.727183 
L 214.727711 265.715961 
L 216.672136 265.642376 
L 216.708942 265.444677 
L 216.729855 265.663328 
L 216.78033 265.662607 
L 217.243287 265.55262 
L 217.275937 265.480592 
L 217.354042 265.638395 
L 217.420165 265.742245 
L 217.487315 265.636591 
L 217.549151 265.694692 
L 219.369214 265.787632 
L 221.625752 265.676794 
L 221.625752 265.588016 
L 221.725023 265.642057 
L 221.925 265.693551 
L 221.925 265.688752 
L 229.869811 265.666982 
L 229.869811 265.715945 
L 229.873113 265.176219 
L 229.875268 265.711932 
L 230.018266 265.703232 
L 230.024282 265.420935 
L 230.02731 265.713771 
L 230.859085 265.645004 
L 230.880872 264.529423 
L 230.884459 265.6546 
L 230.895363 265.653836 
L 231.582381 265.715124 
L 231.582594 262.259748 
L 231.690056 265.781827 
L 231.693308 265.068804 
L 231.696651 265.789842 
L 231.779685 265.240223 
L 231.826541 265.794072 
L 231.828391 264.706704 
L 231.828442 263.640497 
L 231.881741 265.797138 
L 231.921352 265.793879 
L 233.027814 265.6977 
L 233.027814 265.607285 
L 233.104953 265.797127 
L 233.130551 265.796723 
L 233.150488 216.990815 
L 233.253165 236.332412 
L 233.262392 236.572765 
L 233.373289 250.467662 
L 233.382546 250.783095 
L 233.465396 264.623234 
L 233.493443 264.622519 
L 233.578174 264.619532 
L 234.178256 264.703049 
L 234.178357 265.785604 
L 234.261655 265.781845 
L 234.78156 265.696136 
L 234.818671 216.989448 
L 234.78973 265.795356 
L 234.891593 224.149563 
L 234.90083 224.430685 
L 235.011941 233.854884 
L 235.123193 251.268694 
L 235.141709 252.371061 
L 235.211145 242.259687 
L 235.252768 247.808919 
L 235.262005 248.070386 
L 235.373096 260.616936 
L 235.382333 260.899921 
L 235.437868 265.782405 
L 235.655089 265.675941 
L 235.655089 265.397934 
L 235.76179 265.797742 
L 235.905449 265.686332 
L 235.910967 261.877743 
L 236.00844 265.797606 
L 236.015706 265.794523 
L 236.763492 265.68958 
L 236.763492 265.669726 
L 236.768186 265.793888 
L 236.873139 265.761193 
L 237.513462 265.785036 
L 237.513462 265.775228 
L 237.513462 265.771374 
L 237.518452 265.792068 
L 237.623476 265.773169 
L 237.740704 265.786508 
L 239.180182 265.674844 
L 239.180182 265.406672 
L 239.269281 265.795225 
L 239.287807 265.784865 
L 242.858038 265.763062 
L 242.965267 265.772133 
L 242.965267 265.664211 
L 242.965338 265.794036 
L 243.048636 265.782038 
L 245.330985 265.671362 
L 245.330985 265.654784 
L 245.33632 265.772397 
L 245.441262 265.690315 
L 245.623425 265.727075 
L 245.706885 265.765861 
L 245.730572 265.524895 
L 245.819113 265.778053 
L 245.819113 265.777522 
L 246.188642 265.64952 
L 246.188642 265.584051 
L 246.262387 265.792777 
L 246.296338 265.759072 
L 246.404613 265.770356 
L 246.910515 265.785738 
L 247.064956 265.673157 
L 247.064956 265.576936 
L 247.132634 265.793972 
L 247.160417 265.762732 
L 247.389152 265.794275 
L 247.389152 265.780829 
L 247.425064 265.766766 
L 247.489704 265.793165 
L 247.951279 265.680398 
L 247.951279 265.397586 
L 247.956807 265.790812 
L 248.058691 265.748829 
L 248.525367 265.761912 
L 248.819809 265.320841 
L 248.827431 265.516864 
L 248.836759 265.752598 
L 248.927058 265.727043 
L 249.001921 265.766851 
L 249.001921 264.564636 
L 249.012784 265.776938 
L 249.11042 265.768721 
L 249.207182 265.7114 
L 249.256315 265.767537 
L 249.32943 265.77481 
L 251.532374 265.663099 
L 251.532374 265.658854 
L 251.605743 265.769252 
L 251.642692 265.751225 
L 251.772287 265.777637 
L 253.59737 265.680329 
L 253.59737 265.462459 
L 253.615295 265.784779 
L 253.617887 265.78375 
L 258.468501 265.792287 
L 258.468501 265.712601 
L 258.468501 265.666667 
L 258.505704 265.78422 
L 258.561757 265.782719 
L 259.51078 265.783719 
L 259.51078 265.489917 
L 259.580969 265.78888 
L 260.239004 265.669538 
L 260.239004 265.516953 
L 260.307475 265.786196 
L 260.325106 265.783044 
L 263.757796 265.663779 
L 263.757796 264.979659 
L 263.819367 265.789882 
L 263.856398 265.788412 
L 264.159579 265.677311 
L 264.159579 265.637646 
L 264.184069 265.797112 
L 264.248861 265.794671 
L 264.622871 265.694376 
L 264.622871 265.541374 
L 264.7119 265.797761 
L 264.725354 265.779397 
L 265.20203 265.787427 
L 265.501665 265.586665 
L 265.613995 265.792863 
L 265.713775 265.76845 
L 265.731406 265.577621 
L 265.752888 265.797348 
L 265.787256 265.780954 
L 265.984245 265.787285 
L 266.770484 265.680988 
L 266.770484 265.553324 
L 266.869928 265.795479 
L 267.792682 265.735998 
L 267.792692 265.232555 
L 267.797773 265.783608 
L 270.77276 265.784539 
L 270.77276 265.716322 
L 270.77276 265.666219 
L 270.808581 265.789639 
L 270.882712 265.788802 
L 271.855788 265.788035 
L 271.855788 265.707844 
L 271.855788 265.615944 
L 271.864913 265.792382 
L 273.418957 265.796313 
L 273.418957 265.687738 
L 273.418957 265.465293 
L 273.428469 265.79767 
L 273.519184 265.780964 
L 273.748407 265.771182 
L 273.752797 265.790785 
L 273.910246 265.792875 
L 273.910246 265.796637 
L 274.419582 265.797056 
L 274.422722 265.613403 
L 274.521506 265.786247 
L 276.048672 265.629109 
L 276.048682 265.238634 
L 276.059972 265.795569 
L 276.153055 265.673405 
L 276.262905 265.783766 
L 276.262905 265.780908 
L 279.568104 265.66569 
L 279.568104 265.633641 
L 279.613893 265.79695 
L 279.641879 265.790626 
L 283.202041 265.78031 
L 283.254842 265.610396 
L 283.311515 265.78382 
L 284.081911 265.789379 
L 284.188012 265.781764 
L 284.188012 265.682545 
L 284.188012 265.649106 
L 284.193063 265.787598 
L 284.298706 265.778904 
L 289.229874 265.585155 
L 289.229874 265.473825 
L 289.243756 265.792717 
L 289.310276 265.790552 
L 290.092307 265.678319 
L 290.092307 265.307543 
L 290.097185 265.78254 
L 290.188998 265.72025 
L 290.337728 265.749167 
L 290.337728 265.747013 
L 290.554685 265.570099 
L 290.679941 265.694471 
L 290.965248 265.601726 
L 290.965248 265.444176 
L 291.052305 265.711476 
L 291.071175 265.702324 
L 291.843787 265.600232 
L 291.890034 265.402884 
L 291.893398 265.715242 
L 291.946605 265.621238 
L 292.073182 265.560949 
L 292.128565 265.394338 
L 292.177667 265.457288 
L 292.27575 265.48768 
L 292.384381 265.600831 
L 292.384381 265.597446 
L 293.225749 265.751857 
L 293.225749 265.74993 
L 294.480767 265.638864 
L 294.568688 265.584716 
L 294.589358 265.643284 
L 295.545341 265.510724 
L 295.545931 265.549768 
L 295.728358 265.695782 
L 296.345055 265.588736 
L 296.501213 265.613112 
L 296.571392 265.649995 
L 296.599743 265.600915 
L 296.782628 265.631792 
L 296.782628 265.631791 
L 297.370668 265.708145 
L 297.520719 265.748097 
L 298.003543 265.636954 
L 298.087572 265.525769 
L 298.099177 265.545292 
L 298.358733 265.700025 
L 298.395214 265.65818 
L 299.818758 265.738837 
L 299.842741 265.758359 
L 300.645879 265.649474 
L 300.6629 265.405964 
L 300.732539 265.698799 
L 300.854615 265.587136 
L 300.957301 265.514144 
L 301.09909 265.462267 
L 301.172582 265.264924 
L 301.503982 265.153143 
L 301.581254 265.055728 
L 301.603346 265.368086 
L 302.087277 265.340059 
L 302.396545 265.234202 
L 302.467659 264.931866 
L 302.503225 265.11942 
L 302.843965 265.165191 
L 302.961 265.418138 
L 303.283154 265.38668 
L 303.484563 265.756914 
L 303.484563 265.693975 
L 303.484563 265.616587 
L 303.49568 265.753244 
L 303.594454 265.736936 
L 304.225591 265.607726 
L 304.225591 265.607331 
L 304.237481 265.743988 
L 304.289266 265.739567 
L 309.943964 265.68641 
L 309.943964 265.491458 
L 309.971096 265.715877 
L 313.963698 265.648301 
L 313.963698 263.918287 
L 314.057239 265.515874 
L 314.827676 265.523012 
L 314.9403 265.794367 
L 314.97102 265.711834 
L 315.044877 265.788273 
L 315.545088 265.679042 
L 315.545098 265.498105 
L 315.62119 265.79133 
L 315.653333 265.780008 
L 316.443545 265.659636 
L 316.443555 265.488479 
L 316.515654 265.789913 
L 316.542532 265.789106 
L 319.081876 265.670485 
L 319.081876 265.468654 
L 319.082364 265.783858 
L 319.175021 265.783247 
L 319.214022 265.761088 
L 319.214022 265.644151 
L 319.323273 265.790878 
L 320.213519 265.648057 
L 320.271686 265.61058 
L 320.29324 265.727714 
L 320.320311 265.722988 
L 320.345462 265.738044 
L 320.345462 265.731926 
L 320.96535 265.736851 
L 320.982025 264.790932 
L 321.076572 265.704406 
L 321.225343 265.770008 
L 321.225343 265.765359 
L 325.56843 265.650955 
L 325.56843 265.607711 
L 325.60859 265.756286 
L 325.673484 265.755952 
L 325.6808 265.737742 
L 325.701348 265.758034 
L 326.181601 265.649265 
L 326.181601 265.610044 
L 326.183643 265.729993 
L 326.272296 265.68436 
L 326.969547 265.570327 
L 326.969547 265.426439 
L 326.971233 265.776516 
L 327.074489 265.763671 
L 327.204562 265.79586 
L 327.851948 265.685798 
L 327.851948 265.581205 
L 327.957876 265.788566 
L 328.734074 265.699103 
L 328.734074 265.413725 
L 328.734745 265.79471 
L 328.826416 265.782043 
L 329.037123 265.782957 
L 331.775601 265.678118 
L 331.775601 265.483264 
L 331.778274 265.783902 
L 331.830648 265.782983 
L 331.904017 265.709692 
L 331.904017 265.611776 
L 331.917289 265.797795 
L 331.940539 265.793233 
L 333.166536 265.767391 
L 333.166536 265.728827 
L 333.166536 265.67098 
L 333.180153 265.788449 
L 333.265432 265.7856 
L 333.294607 265.59832 
L 333.299088 265.793538 
L 333.371766 265.79778 
L 334.946327 265.68747 
L 335.006089 265.393472 
L 335.010449 265.791516 
L 335.042408 265.790461 
L 338.819516 265.739752 
L 338.819516 262.835009 
L 338.828906 265.777858 
L 338.856343 265.77683 
L 341.162776 265.695224 
L 341.162776 265.637124 
L 341.173974 265.793303 
L 341.273013 265.762521 
L 341.455328 265.657928 
L 341.455328 265.497143 
L 341.45671 265.791826 
L 343.680374 265.681849 
L 343.694651 265.266859 
L 343.801016 265.364471 
L 343.811503 265.579217 
L 343.97887 265.467409 
L 344.027444 264.532723 
L 344.067604 265.253983 
L 344.096901 265.221981 
L 344.200553 265.660658 
L 344.200553 265.657704 
L 344.534952 265.542571 
L 344.564015 265.520453 
L 344.613605 265.657121 
L 344.644172 265.556314 
L 344.753799 265.751579 
L 344.788604 265.64289 
L 344.788604 265.617815 
L 344.807159 265.755605 
L 344.87689 265.745243 
L 345.005449 265.735952 
L 345.041402 265.755322 
L 345.041402 265.75353 
L 345.410128 265.643777 
L 345.443692 265.567473 
L 345.49628 265.756415 
L 345.517935 265.754781 
L 345.628416 265.738928 
L 345.630946 265.75845 
L 346.321866 265.647257 
L 346.349324 265.725347 
L 346.437204 265.672135 
L 346.542136 265.699938 
L 346.654832 265.592919 
L 346.654832 265.477631 
L 346.756959 265.737573 
L 348.075551 265.618788 
L 348.40496 265.690662 
L 350.122916 265.659953 
L 350.184203 265.083071 
L 350.233193 265.107653 
L 350.340737 265.727629 
L 350.381781 265.716248 
L 353.423196 265.618593 
L 353.423196 265.549138 
L 353.521065 265.777433 
L 353.530252 265.757527 
L 355.954289 265.642383 
L 356.057615 265.098503 
L 356.096688 265.017733 
L 356.232096 265.62009 
L 356.451573 265.508606 
L 356.481236 265.520338 
L 356.526294 265.498259 
L 357.773854 265.728549 
L 357.773854 265.727387 
L 357.807998 265.709583 
L 357.8125 265.729105 
L 357.8797 265.726876 
L 357.989744 265.718876 
L 358.064546 265.756806 
L 358.064546 265.701827 
L 358.078884 265.496268 
L 358.125761 265.750059 
L 358.135273 265.73778 
L 358.244697 265.75685 
L 358.244697 265.751659 
L 361.688992 265.711259 
L 361.688992 265.61462 
L 361.69955 265.790321 
L 361.781353 265.773875 
L 361.8069 265.793398 
L 362.282458 265.690357 
L 362.339873 265.575062 
L 362.35659 265.770285 
L 364.982595 265.662339 
L 365.072721 265.622121 
L 365.841339 265.619062 
L 366.024539 265.791465 
L 368.23233 265.650222 
L 368.306278 265.556661 
L 368.340768 265.574738 
L 368.382167 265.574247 
L 368.389657 265.788993 
L 368.457284 265.783787 
L 368.809934 265.682932 
L 368.809934 265.630537 
L 368.84925 265.786716 
L 369.125411 265.682791 
L 369.188252 265.516004 
L 369.206849 265.769794 
L 369.234652 265.722131 
L 369.325215 265.766309 
L 369.325215 265.762601 
L 369.997965 265.651898 
L 369.997975 265.460422 
L 370.081435 265.766839 
L 370.097461 265.75817 
L 370.317781 265.771271 
L 370.317781 265.771129 
L 370.391598 265.738687 
L 370.398264 265.777732 
L 374.402989 265.658852 
L 374.452244 265.602435 
L 374.577642 265.606586 
L 374.680359 265.758224 
L 374.680359 265.74207 
L 378.091181 265.631395 
L 378.091181 265.62295 
L 378.133719 265.779129 
L 378.184914 265.74046 
L 381.009799 265.630599 
L 381.028243 265.359989 
L 381.486312 265.446367 
L 381.579589 265.79366 
L 381.613885 265.782217 
L 382.351286 265.581703 
L 382.437459 265.494734 
L 382.459337 265.748525 
L 384.110387 265.652486 
L 384.141848 265.545937 
L 384.146086 265.760683 
L 387.565575 265.700924 
L 387.593114 265.630335 
L 387.600858 265.727947 
L 387.631343 265.721762 
L 395.480032 265.590238 
L 395.519867 265.552007 
L 395.576876 265.786275 
L 396.394027 265.624749 
L 396.429207 265.495826 
L 396.447804 265.769139 
L 396.466431 265.740543 
L 396.509944 265.736261 
L 396.523144 265.413618 
L 396.559707 265.753122 
L 396.612244 265.721336 
L 396.72308 265.751584 
L 396.730763 265.705622 
L 396.730763 265.684931 
L 396.749979 265.743498 
L 398.487273 265.786475 
L 398.487273 265.786475 
" style="fill:none;stroke:#ff0000;stroke-linecap:square;stroke-width:1.5;"/>
   </g>
   <g id="line2d_29">
    <path clip-path="url(#p999c0daf9f)" d="M 73.832727 265.797818 
L 76.4667 265.661162 
L 76.4667 261.346719 
L 77.34469 261.151496 
L 77.34469 257.988873 
L 78.222681 257.852216 
L 78.222681 256.446606 
L 79.100672 256.251383 
L 79.100672 246.23641 
L 79.100672 246.56829 
L 79.68984 246.373067 
L 79.709819 230.755176 
L 79.903912 230.559952 
L 79.978663 219.98268 
L 79.978663 220.277489 
L 80.150999 220.085725 
L 80.225323 218.922526 
L 80.856654 218.629691 
L 80.856654 217.419304 
L 81.734644 217.067902 
L 81.734644 217.048379 
L 81.734644 217.048635 
L 82.612635 216.951023 
L 82.612635 216.775322 
L 82.612635 217.069866 
L 86.124598 216.894165 
L 86.124598 216.874642 
L 86.124598 217.069866 
L 87.88058 217.011299 
L 87.88058 216.835598 
L 87.88058 217.030821 
L 91.392543 216.835598 
L 91.392543 216.85512 
L 91.392543 217.050344 
L 104.562405 216.939252 
L 104.562405 216.942631 
L 104.562405 217.139399 
L 105.440396 217.041788 
L 105.440396 216.807519 
L 105.440396 216.907341 
L 106.318387 216.790207 
L 106.318387 216.770685 
L 106.318387 216.898992 
L 107.196378 216.781858 
L 107.196378 216.762336 
L 107.196378 216.807441 
L 109.83035 216.674156 
L 109.83035 216.557022 
L 109.83035 216.831921 
L 110.708341 216.714787 
L 110.708341 216.675742 
L 110.708341 216.723557 
L 111.586332 216.606423 
L 111.586332 216.274542 
L 111.586332 216.503238 
L 112.464322 216.386104 
L 112.464322 216.327537 
L 112.464322 216.372466 
L 113.342313 216.255332 
L 113.342313 216.177243 
L 113.342313 216.337248 
L 115.976286 216.18417 
L 115.976286 215.969424 
L 115.976286 216.082683 
L 117.732267 215.953497 
L 117.732267 213.103232 
L 117.732267 213.114466 
L 118.308581 212.919242 
L 118.321994 209.073337 
L 118.610258 208.956203 
L 118.610258 207.784861 
L 118.610258 208.295323 
L 119.488249 208.197712 
L 119.488249 207.69013 
L 119.488249 207.893856 
L 121.24423 207.641953 
L 122.122221 207.524819 
L 122.122221 207.466252 
L 122.122221 207.650602 
L 123.878203 207.502314 
L 123.878203 207.597497 
L 123.878203 207.617019 
L 124.756194 207.499885 
L 124.756194 207.480363 
L 124.756194 207.527199 
L 124.756194 207.527199 
L 125.634184 207.410065 
L 125.634184 207.390543 
L 125.634184 207.427798 
L 128.268157 207.271806 
L 128.268157 206.939926 
L 128.268157 207.177759 
L 130.024138 207.035331 
L 130.024138 206.976764 
L 130.024138 206.982824 
L 131.78012 206.835025 
L 131.78012 206.815503 
L 131.78012 206.842658 
L 134.414092 206.706875 
L 134.414092 206.570219 
L 134.414092 206.810765 
L 135.292083 206.693631 
L 135.292083 206.596019 
L 135.292083 206.700605 
L 136.170074 206.583471 
L 136.170074 206.485859 
L 136.170074 206.564763 
L 137.926055 206.428603 
L 137.926055 206.370036 
L 137.926055 206.418453 
L 141.438019 206.244996 
L 141.438019 206.225474 
L 141.438019 206.230808 
L 150.217927 205.997032 
L 150.217927 205.469928 
L 150.217927 205.978127 
L 153.72989 205.922328 
L 153.72989 205.902806 
L 153.72989 205.629493 
L 153.72989 205.765091 
L 154.332391 205.87823 
L 154.362897 206.431516 
L 154.363029 207.12382 
L 154.363293 206.342926 
L 154.605543 206.337683 
L 154.607881 206.084154 
L 154.607881 206.114337 
L 155.485871 205.997203 
L 155.485871 205.411532 
L 155.485871 205.829972 
L 156.363862 205.790927 
L 156.363862 205.595704 
L 156.363862 205.614253 
L 158.997835 205.578564 
L 158.997835 205.519997 
L 158.997835 205.461429 
L 158.997835 205.494259 
L 160.753816 205.358494 
L 160.753816 205.338971 
L 160.753816 205.364135 
L 164.265779 205.237518 
L 164.265779 205.241194 
L 165.14377 205.04597 
L 165.14377 204.870269 
L 165.14377 205.025135 
L 167.777743 204.857497 
L 167.777743 204.662274 
L 167.777743 204.740812 
L 173.923678 204.505969 
L 173.923678 204.466924 
L 173.923678 204.511074 
L 180.947605 204.243763 
L 180.947605 204.185196 
L 180.947605 204.213053 
L 183.581577 204.059862 
L 183.581577 204.020817 
L 183.581577 204.057552 
L 185.337559 203.913518 
L 185.337559 203.893996 
L 185.337559 203.922093 
L 189.727513 203.724265 
L 189.727513 203.548564 
L 189.727513 203.652502 
L 190.605503 203.535368 
L 190.605503 203.515846 
L 190.605503 203.558341 
L 192.361485 203.444547 
L 192.361485 203.366458 
L 192.361485 203.424787 
L 195.873448 203.254651 
L 195.873448 203.196083 
L 195.873448 203.253467 
L 198.507421 203.122449 
L 198.507421 203.063882 
L 198.507421 203.112349 
L 202.019384 203.019313 
L 202.019384 202.218896 
L 202.019384 202.351148 
L 203.775365 202.303358 
L 203.775365 202.303729 
L 203.775365 203.475071 
L 204.653356 203.455548 
L 204.653356 202.284206 
L 204.653356 202.303072 
L 208.165319 202.128134 
L 208.165319 202.108612 
L 208.165319 202.165473 
L 210.799292 202.005206 
L 210.799292 201.888072 
L 210.799292 201.916396 
L 214.311255 201.760186 
L 214.311255 201.721142 
L 214.311255 201.784562 
L 216.067236 201.648912 
L 216.067236 201.609867 
L 216.067236 201.834329 
L 216.945227 201.60006 
L 216.945227 201.326747 
L 216.945227 201.542902 
L 217.823218 201.511116 
L 217.823218 201.472071 
L 217.823218 201.354937 
L 217.823218 201.49494 
L 218.701209 201.358397 
L 218.701209 201.338875 
L 218.701209 201.342311 
L 221.335181 201.186554 
L 221.335181 201.108465 
L 221.335181 201.154233 
L 223.091163 201.005654 
L 223.091163 200.966609 
L 223.091163 200.979291 
L 229.237098 200.794956 
L 229.237098 200.502121 
L 229.319176 200.643987 
L 229.869242 200.699264 
L 229.869811 200.636218 
L 229.872504 201.164138 
L 229.875268 200.697148 
L 230.115089 200.980726 
L 230.115089 200.980726 
L 230.694421 201.023358 
L 230.879531 201.209963 
L 230.880872 202.138939 
L 230.884459 201.080067 
L 231.582381 201.019944 
L 231.582594 204.47532 
L 231.693308 202.238099 
L 231.696641 201.55493 
L 231.696651 201.535408 
L 231.779685 202.085027 
L 231.826541 201.557923 
L 231.828391 202.5928 
L 231.828442 203.711498 
L 231.881741 201.640142 
L 231.921352 201.650227 
L 232.749062 201.220735 
L 232.749062 199.717513 
L 232.749062 199.744615 
L 233.031045 199.629721 
L 233.104953 199.552255 
L 233.151362 199.455214 
L 233.262473 180.931449 
L 233.382577 167.943658 
L 233.391773 167.689923 
L 233.465396 154.631123 
L 233.627052 154.651365 
L 234.178256 154.540533 
L 234.261655 153.403925 
L 234.326498 153.382016 
L 234.505043 152.210674 
L 234.576675 152.276972 
L 234.789689 152.160066 
L 234.90085 144.42778 
L 234.910077 144.154467 
L 235.021249 134.402991 
L 235.030517 134.130645 
L 235.141709 117.321712 
L 235.150915 117.185167 
L 235.262026 103.308886 
L 235.271232 103.035801 
L 235.383034 90.078662 
L 235.383034 90.234481 
L 235.437868 86.822915 
L 235.659957 86.803548 
L 235.76179 86.362235 
L 235.910113 86.246569 
L 236.00844 82.618329 
L 236.261025 82.57934 
L 236.261025 82.674382 
L 236.261025 82.796692 
L 236.768156 82.622519 
L 236.879297 82.500865 
L 236.934791 82.381104 
L 238.017006 82.314046 
L 239.185893 82.157359 
L 239.287807 81.888254 
L 239.43611 81.670202 
L 240.992562 81.30395 
L 241.066663 81.167576 
L 242.40696 81.069017 
L 242.40696 81.204271 
L 242.40696 81.231832 
L 242.88199 81.131649 
L 243.048636 80.858149 
L 245.040933 80.81482 
L 245.040933 80.951428 
L 245.040933 81.455961 
L 245.605011 81.227868 
L 245.734678 80.576218 
L 247.674905 79.965567 
L 247.674905 80.002673 
L 247.674905 80.156348 
L 247.734546 80.151497 
L 247.956807 79.95683 
L 248.058691 79.584727 
L 248.197665 79.4744 
L 248.552896 79.454878 
L 248.552896 79.541842 
L 248.552896 81.006019 
L 248.827431 80.811937 
L 248.901501 80.559575 
L 248.938582 80.520882 
L 249.003425 80.133333 
L 249.10537 79.3013 
L 250.244603 79.186967 
L 250.244603 79.167753 
L 250.308878 79.182793 
L 251.642692 79.023912 
L 251.772287 78.94637 
L 252.457476 78.781757 
L 252.94285 78.647402 
L 252.94285 78.653903 
L 252.94285 78.989578 
L 252.957819 78.976327 
L 253.605987 78.870571 
L 253.615295 78.581897 
L 254.976821 78.501462 
L 255.050922 78.462529 
L 258.210795 78.35127 
L 258.210795 78.51295 
L 258.210795 78.627787 
L 258.505704 78.512159 
L 258.67236 78.46799 
L 259.005803 78.333022 
L 259.079863 78.297164 
L 259.088786 78.307414 
L 259.088786 78.641363 
L 259.516115 78.54316 
L 259.580969 78.29295 
L 259.966776 78.192295 
L 259.966776 78.237367 
L 260.400213 77.947304 
L 263.47874 77.755888 
L 263.47874 77.792961 
L 263.47874 78.104799 
L 263.76367 78.065983 
L 263.856398 77.079981 
L 263.930671 76.989699 
L 264.184069 76.585086 
L 264.628501 76.546981 
L 264.7119 76.334248 
L 264.952636 76.120754 
L 265.137847 76.025082 
L 265.234721 76.025082 
L 265.234721 76.025684 
L 265.234721 76.51914 
L 265.734363 76.091622 
L 265.826928 75.879933 
L 266.112712 75.824281 
L 266.112712 75.866204 
L 266.112712 76.103795 
L 266.112712 76.103795 
L 266.535936 75.937745 
L 266.60082 75.887081 
L 266.777038 75.754489 
L 266.869928 75.580445 
L 266.990703 75.646227 
L 266.990703 76.135424 
L 267.797723 75.972102 
L 267.868694 75.452859 
L 267.868694 75.453123 
L 270.122976 75.315904 
L 270.382349 75.160295 
L 270.827147 75.042085 
L 270.910627 74.995952 
L 271.380657 74.932099 
L 271.380657 75.042044 
L 271.380657 75.126227 
L 271.864903 75.040241 
L 271.864913 74.915613 
L 272.559959 74.815301 
L 272.791803 74.699721 
L 273.136638 74.641199 
L 273.136638 74.679218 
L 273.136638 74.834596 
L 273.41913 74.709752 
L 273.493312 74.491545 
L 274.014629 74.284203 
L 274.014629 74.289273 
L 274.014629 74.485456 
L 274.419582 74.480549 
L 274.521506 74.304553 
L 275.770611 74.368022 
L 276.161815 73.659435 
L 276.226627 73.620565 
L 278.136115 73.283787 
L 278.173196 73.245094 
L 279.771495 73.14929 
L 280.549858 73.026091 
L 282.329436 72.918805 
L 282.70121 72.840777 
L 282.794537 72.849372 
L 282.794537 73.034681 
L 282.81231 73.03146 
L 283.25725 72.889741 
L 283.294341 72.791223 
L 283.672528 72.75703 
L 283.672528 72.825842 
L 283.672528 72.891988 
L 283.720452 72.89158 
L 284.193022 72.792466 
L 284.230032 72.701611 
L 284.550519 72.661243 
L 284.550519 72.677379 
L 285.428509 72.605488 
L 285.428509 72.488353 
L 285.428509 72.613333 
L 288.062482 72.432444 
L 288.062482 72.470252 
L 288.062482 72.649737 
L 288.854117 72.267652 
L 288.940473 72.150759 
L 288.940473 72.301743 
L 289.234508 72.106519 
L 289.299321 71.950987 
L 289.818463 71.790065 
L 289.818463 71.594842 
L 289.818463 72.03312 
L 290.097154 71.916161 
L 290.097185 71.564758 
L 290.412693 71.444041 
L 290.468299 71.37914 
L 290.968855 71.211563 
L 291.052305 71.048857 
L 291.237445 70.938129 
L 291.574445 70.489115 
L 291.574445 70.235324 
L 291.574445 70.515811 
L 292.452436 70.496289 
L 292.452436 70.359632 
L 292.452436 70.361675 
L 294.208417 70.188422 
L 294.208417 69.915109 
L 294.208417 70.156904 
L 295.086408 70.078815 
L 295.086408 69.766457 
L 295.086408 69.810859 
L 295.964399 69.713247 
L 295.964399 69.57659 
L 295.964399 69.747215 
L 296.84239 69.669126 
L 296.84239 69.532469 
L 296.84239 69.544551 
L 297.720381 69.466461 
L 297.720381 69.29076 
L 297.720381 69.364185 
L 299.476362 69.226064 
L 299.476362 69.206542 
L 299.476362 69.207249 
L 300.354353 68.894891 
L 300.354353 68.875369 
L 300.354353 69.133794 
L 301.232344 68.782392 
L 301.232344 68.808021 
L 302.110335 68.612798 
L 302.110335 68.202828 
L 302.110335 68.293211 
L 302.988325 68.078465 
L 302.988325 67.648973 
L 302.988325 67.812864 
L 304.744307 67.581899 
L 304.744307 67.582156 
L 306.500289 67.465754 
L 306.500289 67.368142 
L 306.500289 67.449263 
L 309.134261 67.000885 
L 309.134261 66.922796 
L 309.134261 67.185764 
L 309.961798 67.083522 
L 310.012252 66.90814 
L 310.012252 67.063945 
L 310.360278 66.929768 
L 310.890243 66.834295 
L 310.890243 66.840191 
L 313.524215 66.754947 
L 313.524215 65.368859 
L 313.524215 67.206065 
L 313.81819 67.089685 
L 313.910836 67.050992 
L 313.966574 66.917237 
L 313.994458 66.755558 
L 314.402206 66.656756 
L 314.402206 66.760501 
L 314.791367 66.696597 
L 314.9403 66.427073 
L 315.551774 66.325445 
L 315.635082 66.208882 
L 316.450749 65.958713 
L 316.515654 65.881206 
L 316.80285 65.685504 
L 317.036178 65.590611 
L 317.036178 65.591682 
L 318.79216 65.535501 
L 318.79216 65.565956 
L 318.79216 65.748903 
L 319.082334 65.650435 
L 319.175021 65.27023 
L 319.397374 64.999233 
L 319.670151 64.940666 
L 319.670151 64.745442 
L 319.670151 64.986856 
L 320.548141 64.774002 
L 320.548141 64.734957 
L 320.548141 65.825498 
L 320.96535 65.764089 
L 321.113592 64.846793 
L 321.734709 64.735022 
L 321.827376 64.647879 
L 322.304123 64.61115 
L 322.304123 64.677909 
L 324.938095 64.48486 
L 324.938095 64.23107 
L 324.938095 64.512185 
L 325.367234 64.401829 
L 325.673484 64.271676 
L 325.816086 64.17454 
L 325.816086 64.238636 
L 326.109583 64.187669 
L 326.359577 64.013698 
L 326.694077 63.939965 
L 326.694077 64.082092 
L 326.694077 64.093238 
L 326.971223 63.97756 
L 327.054561 63.638494 
L 328.734745 63.077049 
L 328.734745 62.922372 
L 329.263044 62.878401 
L 329.328049 62.878401 
L 329.328049 62.975023 
L 329.328049 62.99131 
L 330.172953 62.889978 
L 330.20604 62.870455 
L 330.20604 62.87723 
L 331.084031 62.778562 
L 331.084031 62.905009 
L 331.084031 63.151672 
L 331.769057 62.985064 
L 331.778274 62.702402 
L 332.046904 62.560545 
L 332.840013 62.364577 
L 332.840013 62.369183 
L 332.840013 62.684185 
L 332.927385 62.681368 
L 333.122687 62.654884 
L 333.299088 62.339541 
L 333.522569 62.251515 
L 334.250489 62.14571 
L 334.595994 62.126428 
L 334.595994 62.158718 
L 334.595994 62.74846 
L 334.954853 62.593605 
L 335.010449 62.128321 
L 336.174772 62.02389 
L 337.229967 62.004457 
L 337.229967 61.887323 
L 337.229967 62.077328 
L 337.761812 61.972738 
L 338.107957 61.948877 
L 338.107957 61.975421 
L 338.107957 64.819005 
L 338.819628 64.75256 
L 338.828906 62.053272 
L 340.74193 61.772127 
L 340.74193 61.919032 
L 340.74193 62.080916 
L 341.322806 62.077128 
L 341.619921 61.786725 
L 341.619921 61.786916 
L 343.375902 61.747878 
L 343.375902 60.732715 
L 343.375902 61.536009 
L 344.253893 61.360308 
L 344.253893 60.852727 
L 344.253893 60.966072 
L 345.131884 60.692759 
L 345.131884 60.595147 
L 345.131884 60.658597 
L 346.009875 60.541463 
L 346.009875 60.170538 
L 346.009875 60.462539 
L 346.887865 60.364927 
L 346.887865 60.208748 
L 346.887865 60.400412 
L 349.521838 60.016157 
L 349.521838 59.410964 
L 349.521838 60.022927 
L 350.399829 59.88627 
L 350.399829 59.90095 
L 351.277819 59.686204 
L 351.277819 59.588592 
L 351.277819 59.663553 
L 353.033801 59.538561 
L 353.033801 59.28477 
L 353.033801 59.457459 
L 355.667773 59.384897 
L 355.667773 58.58448 
L 355.667773 58.811897 
L 356.545764 58.792374 
L 356.545764 58.440972 
L 356.545764 58.498334 
L 357.423755 58.420244 
L 357.423755 58.146931 
L 357.423755 58.394445 
L 358.301746 58.277311 
L 358.301746 58.140654 
L 358.301746 58.226085 
L 359.179736 58.108951 
L 359.179736 58.011339 
L 359.179736 58.111798 
L 360.935718 58.072981 
L 360.935718 57.877758 
L 360.935718 58.086971 
L 361.813709 58.028404 
L 361.813709 57.774614 
L 361.813709 58.003829 
L 362.6917 57.92574 
L 362.6917 57.769561 
L 362.6917 57.891913 
L 364.447681 57.736098 
L 364.447681 57.873668 
L 364.447681 57.908834 
L 365.325672 57.86979 
L 365.325672 57.596477 
L 365.325672 57.665385 
L 367.081654 57.647813 
L 367.081654 57.648039 
L 367.959644 57.413771 
L 367.959644 57.140458 
L 367.959644 57.371007 
L 368.837635 57.195305 
L 368.837635 56.804858 
L 368.837635 56.873092 
L 369.715626 56.736435 
L 369.715626 56.385033 
L 369.715626 56.486619 
L 370.593617 56.369485 
L 370.593617 56.252351 
L 370.593617 56.311241 
L 372.349598 56.198566 
L 372.349598 56.159521 
L 372.349598 56.196419 
L 374.10558 56.060493 
L 374.10558 55.728613 
L 374.10558 55.815294 
L 374.983571 55.717682 
L 374.983571 55.385802 
L 374.983571 55.484398 
L 375.861562 55.347742 
L 375.861562 55.308697 
L 375.861562 55.370679 
L 376.739552 55.292589 
L 376.739552 55.194977 
L 376.739552 55.253893 
L 377.617543 55.156282 
L 377.617543 54.922013 
L 377.617543 55.004246 
L 378.495534 54.945679 
L 378.495534 54.952036 
L 379.373525 54.795857 
L 379.373525 54.893849 
L 379.373525 54.927143 
L 379.373525 54.927143 
L 380.251516 54.829531 
L 380.251516 54.885348 
L 381.129506 54.690124 
L 381.129506 54.280154 
L 381.129506 54.355721 
L 382.007497 54.316676 
L 382.007497 53.945751 
L 382.007497 54.075442 
L 382.885488 53.860696 
L 382.885488 53.841173 
L 382.885488 53.93193 
L 383.763479 53.658617 
L 383.763479 53.815397 
L 386.397451 53.701775 
L 386.397451 53.66273 
L 386.397451 53.713081 
L 387.275442 53.615469 
L 387.275442 53.689715 
L 389.909414 53.463985 
L 389.909414 53.42494 
L 389.909414 53.46876 
L 389.909414 53.46876 
L 392.543387 53.458592 
L 392.543387 53.185279 
L 392.543387 53.411696 
L 393.421378 53.294562 
L 393.421378 53.255517 
L 393.421378 53.363728 
L 394.299368 53.324683 
L 394.299368 53.148982 
L 394.299368 53.278574 
L 395.177359 53.200484 
L 395.177359 52.849082 
L 395.177359 52.896032 
L 396.05535 52.876509 
L 396.05535 52.154182 
L 396.05535 52.618845 
L 397.811332 52.571818 
L 397.811332 52.574607 
" style="fill:none;stroke:#008000;stroke-linecap:square;stroke-width:1.5;"/>
   </g>
   <g id="line2d_30">
    <defs>
     <path d="M 0 3 
C 0.795609 3 1.55874 2.683901 2.12132 2.12132 
C 2.683901 1.55874 3 0.795609 3 0 
C 3 -0.795609 2.683901 -1.55874 2.12132 -2.12132 
C 1.55874 -2.683901 0.795609 -3 0 -3 
C -0.795609 -3 -1.55874 -2.683901 -2.12132 -2.12132 
C -2.683901 -1.55874 -3 -0.795609 -3 0 
C -3 0.795609 -2.683901 1.55874 -2.12132 2.12132 
C -1.55874 2.683901 -0.795609 3 0 3 
z
" id="mad42279ff6" style="stroke:#bfbf00;"/>
    </defs>
    <g clip-path="url(#p999c0daf9f)">
     <use style="fill:#bfbf00;stroke:#bfbf00;" x="76.49747" xlink:href="#mad42279ff6" y="256.036637"/>
     <use style="fill:#bfbf00;stroke:#bfbf00;" x="79.483523" xlink:href="#mad42279ff6" y="226.753092"/>
     <use style="fill:#bfbf00;stroke:#bfbf00;" x="233.150488" xlink:href="#mad42279ff6" y="216.99191"/>
     <use style="fill:#bfbf00;stroke:#bfbf00;" x="234.818671" xlink:href="#mad42279ff6" y="216.99191"/>
     <use style="fill:#bfbf00;stroke:#bfbf00;" x="235.149523" xlink:href="#mad42279ff6" y="256.036637"/>
     <use style="fill:#bfbf00;stroke:#bfbf00;" x="235.211145" xlink:href="#mad42279ff6" y="256.036637"/>
     <use style="fill:#bfbf00;stroke:#bfbf00;" x="235.910967" xlink:href="#mad42279ff6" y="261.893346"/>
    </g>
   </g>
   <g id="line2d_31">
    <defs>
     <path d="M 0 3 
C 0.795609 3 1.55874 2.683901 2.12132 2.12132 
C 2.683901 1.55874 3 0.795609 3 0 
C 3 -0.795609 2.683901 -1.55874 2.12132 -2.12132 
C 1.55874 -2.683901 0.795609 -3 0 -3 
C -0.795609 -3 -1.55874 -2.683901 -2.12132 -2.12132 
C -2.683901 -1.55874 -3 -0.795609 -3 0 
C -3 0.795609 -2.683901 1.55874 -2.12132 2.12132 
C -1.55874 2.683901 -0.795609 3 0 3 
z
" id="m81d0cb89a5" style="stroke:#008000;"/>
    </defs>
    <g clip-path="url(#p999c0daf9f)">
     <use style="fill:#008000;stroke:#008000;" x="118.244469" xlink:href="#m81d0cb89a5" y="257.482853"/>
     <use style="fill:#008000;stroke:#008000;" x="202.531789" xlink:href="#m81d0cb89a5" y="263.850853"/>
    </g>
   </g>
   <g id="patch_3">
    <path d="M 57.6 276.48 
L 57.6 41.472 
" style="fill:none;stroke:#000000;stroke-linecap:square;stroke-linejoin:miter;stroke-width:0.8;"/>
   </g>
   <g id="patch_4">
    <path d="M 414.72 276.48 
L 414.72 41.472 
" style="fill:none;stroke:#000000;stroke-linecap:square;stroke-linejoin:miter;stroke-width:0.8;"/>
   </g>
   <g id="patch_5">
    <path d="M 57.6 276.48 
L 414.72 276.48 
" style="fill:none;stroke:#000000;stroke-linecap:square;stroke-linejoin:miter;stroke-width:0.8;"/>
   </g>
   <g id="patch_6">
    <path d="M 57.6 41.472 
L 414.72 41.472 
" style="fill:none;stroke:#000000;stroke-linecap:square;stroke-linejoin:miter;stroke-width:0.8;"/>
   </g>
   <g id="text_16">
    <!-- My Bondora earnings -->
    <defs>
     <path d="M 9.8125 72.90625 
L 24.515625 72.90625 
L 43.109375 23.296875 
L 61.8125 72.90625 
L 76.515625 72.90625 
L 76.515625 0 
L 66.890625 0 
L 66.890625 64.015625 
L 48.09375 14.015625 
L 38.1875 14.015625 
L 19.390625 64.015625 
L 19.390625 0 
L 9.8125 0 
z
" id="DejaVuSans-4d"/>
     <path d="M 32.171875 -5.078125 
Q 28.375 -14.84375 24.75 -17.8125 
Q 21.140625 -20.796875 15.09375 -20.796875 
L 7.90625 -20.796875 
L 7.90625 -13.28125 
L 13.1875 -13.28125 
Q 16.890625 -13.28125 18.9375 -11.515625 
Q 21 -9.765625 23.484375 -3.21875 
L 25.09375 0.875 
L 2.984375 54.6875 
L 12.5 54.6875 
L 29.59375 11.921875 
L 46.6875 54.6875 
L 56.203125 54.6875 
z
" id="DejaVuSans-79"/>
     <path id="DejaVuSans-20"/>
     <path d="M 19.671875 34.8125 
L 19.671875 8.109375 
L 35.5 8.109375 
Q 43.453125 8.109375 47.28125 11.40625 
Q 51.125 14.703125 51.125 21.484375 
Q 51.125 28.328125 47.28125 31.5625 
Q 43.453125 34.8125 35.5 34.8125 
z
M 19.671875 64.796875 
L 19.671875 42.828125 
L 34.28125 42.828125 
Q 41.5 42.828125 45.03125 45.53125 
Q 48.578125 48.25 48.578125 53.8125 
Q 48.578125 59.328125 45.03125 62.0625 
Q 41.5 64.796875 34.28125 64.796875 
z
M 9.8125 72.90625 
L 35.015625 72.90625 
Q 46.296875 72.90625 52.390625 68.21875 
Q 58.5 63.53125 58.5 54.890625 
Q 58.5 48.1875 55.375 44.234375 
Q 52.25 40.28125 46.1875 39.3125 
Q 53.46875 37.75 57.5 32.78125 
Q 61.53125 27.828125 61.53125 20.40625 
Q 61.53125 10.640625 54.890625 5.3125 
Q 48.25 0 35.984375 0 
L 9.8125 0 
z
" id="DejaVuSans-42"/>
     <path d="M 30.609375 48.390625 
Q 23.390625 48.390625 19.1875 42.75 
Q 14.984375 37.109375 14.984375 27.296875 
Q 14.984375 17.484375 19.15625 11.84375 
Q 23.34375 6.203125 30.609375 6.203125 
Q 37.796875 6.203125 41.984375 11.859375 
Q 46.1875 17.53125 46.1875 27.296875 
Q 46.1875 37.015625 41.984375 42.703125 
Q 37.796875 48.390625 30.609375 48.390625 
z
M 30.609375 56 
Q 42.328125 56 49.015625 48.375 
Q 55.71875 40.765625 55.71875 27.296875 
Q 55.71875 13.875 49.015625 6.21875 
Q 42.328125 -1.421875 30.609375 -1.421875 
Q 18.84375 -1.421875 12.171875 6.21875 
Q 5.515625 13.875 5.515625 27.296875 
Q 5.515625 40.765625 12.171875 48.375 
Q 18.84375 56 30.609375 56 
z
" id="DejaVuSans-6f"/>
     <path d="M 54.890625 33.015625 
L 54.890625 0 
L 45.90625 0 
L 45.90625 32.71875 
Q 45.90625 40.484375 42.875 44.328125 
Q 39.84375 48.1875 33.796875 48.1875 
Q 26.515625 48.1875 22.3125 43.546875 
Q 18.109375 38.921875 18.109375 30.90625 
L 18.109375 0 
L 9.078125 0 
L 9.078125 54.6875 
L 18.109375 54.6875 
L 18.109375 46.1875 
Q 21.34375 51.125 25.703125 53.5625 
Q 30.078125 56 35.796875 56 
Q 45.21875 56 50.046875 50.171875 
Q 54.890625 44.34375 54.890625 33.015625 
z
" id="DejaVuSans-6e"/>
     <path d="M 41.109375 46.296875 
Q 39.59375 47.171875 37.8125 47.578125 
Q 36.03125 48 33.890625 48 
Q 26.265625 48 22.1875 43.046875 
Q 18.109375 38.09375 18.109375 28.8125 
L 18.109375 0 
L 9.078125 0 
L 9.078125 54.6875 
L 18.109375 54.6875 
L 18.109375 46.1875 
Q 20.953125 51.171875 25.484375 53.578125 
Q 30.03125 56 36.53125 56 
Q 37.453125 56 38.578125 55.875 
Q 39.703125 55.765625 41.0625 55.515625 
z
" id="DejaVuSans-72"/>
     <path d="M 9.421875 54.6875 
L 18.40625 54.6875 
L 18.40625 0 
L 9.421875 0 
z
M 9.421875 75.984375 
L 18.40625 75.984375 
L 18.40625 64.59375 
L 9.421875 64.59375 
z
" id="DejaVuSans-69"/>
     <path d="M 45.40625 27.984375 
Q 45.40625 37.75 41.375 43.109375 
Q 37.359375 48.484375 30.078125 48.484375 
Q 22.859375 48.484375 18.828125 43.109375 
Q 14.796875 37.75 14.796875 27.984375 
Q 14.796875 18.265625 18.828125 12.890625 
Q 22.859375 7.515625 30.078125 7.515625 
Q 37.359375 7.515625 41.375 12.890625 
Q 45.40625 18.265625 45.40625 27.984375 
z
M 54.390625 6.78125 
Q 54.390625 -7.171875 48.1875 -13.984375 
Q 42 -20.796875 29.203125 -20.796875 
Q 24.46875 -20.796875 20.265625 -20.09375 
Q 16.0625 -19.390625 12.109375 -17.921875 
L 12.109375 -9.1875 
Q 16.0625 -11.328125 19.921875 -12.34375 
Q 23.78125 -13.375 27.78125 -13.375 
Q 36.625 -13.375 41.015625 -8.765625 
Q 45.40625 -4.15625 45.40625 5.171875 
L 45.40625 9.625 
Q 42.625 4.78125 38.28125 2.390625 
Q 33.9375 0 27.875 0 
Q 17.828125 0 11.671875 7.65625 
Q 5.515625 15.328125 5.515625 27.984375 
Q 5.515625 40.671875 11.671875 48.328125 
Q 17.828125 56 27.875 56 
Q 33.9375 56 38.28125 53.609375 
Q 42.625 51.21875 45.40625 46.390625 
L 45.40625 54.6875 
L 54.390625 54.6875 
z
" id="DejaVuSans-67"/>
     <path d="M 44.28125 53.078125 
L 44.28125 44.578125 
Q 40.484375 46.53125 36.375 47.5 
Q 32.28125 48.484375 27.875 48.484375 
Q 21.1875 48.484375 17.84375 46.4375 
Q 14.5 44.390625 14.5 40.28125 
Q 14.5 37.15625 16.890625 35.375 
Q 19.28125 33.59375 26.515625 31.984375 
L 29.59375 31.296875 
Q 39.15625 29.25 43.1875 25.515625 
Q 47.21875 21.78125 47.21875 15.09375 
Q 47.21875 7.46875 41.1875 3.015625 
Q 35.15625 -1.421875 24.609375 -1.421875 
Q 20.21875 -1.421875 15.453125 -0.5625 
Q 10.6875 0.296875 5.421875 2 
L 5.421875 11.28125 
Q 10.40625 8.6875 15.234375 7.390625 
Q 20.0625 6.109375 24.8125 6.109375 
Q 31.15625 6.109375 34.5625 8.28125 
Q 37.984375 10.453125 37.984375 14.40625 
Q 37.984375 18.0625 35.515625 20.015625 
Q 33.0625 21.96875 24.703125 23.78125 
L 21.578125 24.515625 
Q 13.234375 26.265625 9.515625 29.90625 
Q 5.8125 33.546875 5.8125 39.890625 
Q 5.8125 47.609375 11.28125 51.796875 
Q 16.75 56 26.8125 56 
Q 31.78125 56 36.171875 55.265625 
Q 40.578125 54.546875 44.28125 53.078125 
z
" id="DejaVuSans-73"/>
    </defs>
    <g transform="translate(172.363125 35.472)scale(0.12 -0.12)">
     <use xlink:href="#DejaVuSans-4d"/>
     <use x="86.279297" xlink:href="#DejaVuSans-79"/>
     <use x="145.458984" xlink:href="#DejaVuSans-20"/>
     <use x="177.246094" xlink:href="#DejaVuSans-42"/>
     <use x="245.849609" xlink:href="#DejaVuSans-6f"/>
     <use x="307.03125" xlink:href="#DejaVuSans-6e"/>
     <use x="370.410156" xlink:href="#DejaVuSans-64"/>
     <use x="433.886719" xlink:href="#DejaVuSans-6f"/>
     <use x="495.068359" xlink:href="#DejaVuSans-72"/>
     <use x="536.181641" xlink:href="#DejaVuSans-61"/>
     <use x="597.460938" xlink:href="#DejaVuSans-20"/>
     <use x="629.248047" xlink:href="#DejaVuSans-65"/>
     <use x="690.771484" xlink:href="#DejaVuSans-61"/>
     <use x="752.050781" xlink:href="#DejaVuSans-72"/>
     <use x="793.148438" xlink:href="#DejaVuSans-6e"/>
     <use x="856.527344" xlink:href="#DejaVuSans-69"/>
     <use x="884.310547" xlink:href="#DejaVuSans-6e"/>
     <use x="947.689453" xlink:href="#DejaVuSans-67"/>
     <use x="1011.166016" xlink:href="#DejaVuSans-73"/>
    </g>
   </g>
   <g id="legend_1">
    <g id="patch_7">
     <path d="M 64.6 122.862625 
L 158.45 122.862625 
Q 160.45 122.862625 160.45 120.862625 
L 160.45 48.472 
Q 160.45 46.472 158.45 46.472 
L 64.6 46.472 
Q 62.6 46.472 62.6 48.472 
L 62.6 120.862625 
Q 62.6 122.862625 64.6 122.862625 
z
" style="fill:#ffffff;opacity:0.8;stroke:#cccccc;stroke-linejoin:miter;"/>
    </g>
    <g id="line2d_32">
     <path d="M 66.6 54.570437 
L 86.6 54.570437 
" style="fill:none;stroke:#0000ff;stroke-linecap:square;stroke-width:1.5;"/>
    </g>
    <g id="line2d_33"/>
    <g id="text_17">
     <!-- Interest -->
     <defs>
      <path d="M 9.8125 72.90625 
L 19.671875 72.90625 
L 19.671875 0 
L 9.8125 0 
z
" id="DejaVuSans-49"/>
     </defs>
     <g transform="translate(94.6 58.070437)scale(0.1 -0.1)">
      <use xlink:href="#DejaVuSans-49"/>
      <use x="29.492188" xlink:href="#DejaVuSans-6e"/>
      <use x="92.871094" xlink:href="#DejaVuSans-74"/>
      <use x="132.080078" xlink:href="#DejaVuSans-65"/>
      <use x="193.603516" xlink:href="#DejaVuSans-72"/>
      <use x="234.685547" xlink:href="#DejaVuSans-65"/>
      <use x="296.208984" xlink:href="#DejaVuSans-73"/>
      <use x="348.308594" xlink:href="#DejaVuSans-74"/>
     </g>
    </g>
    <g id="line2d_34">
     <path d="M 66.6 69.248562 
L 86.6 69.248562 
" style="fill:none;stroke:#ff0000;stroke-linecap:square;stroke-width:1.5;"/>
    </g>
    <g id="line2d_35"/>
    <g id="text_18">
     <!-- Balance -->
     <defs>
      <path d="M 9.421875 75.984375 
L 18.40625 75.984375 
L 18.40625 0 
L 9.421875 0 
z
" id="DejaVuSans-6c"/>
      <path d="M 48.78125 52.59375 
L 48.78125 44.1875 
Q 44.96875 46.296875 41.140625 47.34375 
Q 37.3125 48.390625 33.40625 48.390625 
Q 24.65625 48.390625 19.8125 42.84375 
Q 14.984375 37.3125 14.984375 27.296875 
Q 14.984375 17.28125 19.8125 11.734375 
Q 24.65625 6.203125 33.40625 6.203125 
Q 37.3125 6.203125 41.140625 7.25 
Q 44.96875 8.296875 48.78125 10.40625 
L 48.78125 2.09375 
Q 45.015625 0.34375 40.984375 -0.53125 
Q 36.96875 -1.421875 32.421875 -1.421875 
Q 20.0625 -1.421875 12.78125 6.34375 
Q 5.515625 14.109375 5.515625 27.296875 
Q 5.515625 40.671875 12.859375 48.328125 
Q 20.21875 56 33.015625 56 
Q 37.15625 56 41.109375 55.140625 
Q 45.0625 54.296875 48.78125 52.59375 
z
" id="DejaVuSans-63"/>
     </defs>
     <g transform="translate(94.6 72.748562)scale(0.1 -0.1)">
      <use xlink:href="#DejaVuSans-42"/>
      <use x="68.603516" xlink:href="#DejaVuSans-61"/>
      <use x="129.882812" xlink:href="#DejaVuSans-6c"/>
      <use x="157.666016" xlink:href="#DejaVuSans-61"/>
      <use x="218.945312" xlink:href="#DejaVuSans-6e"/>
      <use x="282.324219" xlink:href="#DejaVuSans-63"/>
      <use x="337.304688" xlink:href="#DejaVuSans-65"/>
     </g>
    </g>
    <g id="line2d_36">
     <path d="M 66.6 83.926687 
L 86.6 83.926687 
" style="fill:none;stroke:#008000;stroke-linecap:square;stroke-width:1.5;"/>
    </g>
    <g id="line2d_37"/>
    <g id="text_19">
     <!-- Investments -->
     <defs>
      <path d="M 2.984375 54.6875 
L 12.5 54.6875 
L 29.59375 8.796875 
L 46.6875 54.6875 
L 56.203125 54.6875 
L 35.6875 0 
L 23.484375 0 
z
" id="DejaVuSans-76"/>
      <path d="M 52 44.1875 
Q 55.375 50.25 60.0625 53.125 
Q 64.75 56 71.09375 56 
Q 79.640625 56 84.28125 50.015625 
Q 88.921875 44.046875 88.921875 33.015625 
L 88.921875 0 
L 79.890625 0 
L 79.890625 32.71875 
Q 79.890625 40.578125 77.09375 44.375 
Q 74.3125 48.1875 68.609375 48.1875 
Q 61.625 48.1875 57.5625 43.546875 
Q 53.515625 38.921875 53.515625 30.90625 
L 53.515625 0 
L 44.484375 0 
L 44.484375 32.71875 
Q 44.484375 40.625 41.703125 44.40625 
Q 38.921875 48.1875 33.109375 48.1875 
Q 26.21875 48.1875 22.15625 43.53125 
Q 18.109375 38.875 18.109375 30.90625 
L 18.109375 0 
L 9.078125 0 
L 9.078125 54.6875 
L 18.109375 54.6875 
L 18.109375 46.1875 
Q 21.1875 51.21875 25.484375 53.609375 
Q 29.78125 56 35.6875 56 
Q 41.65625 56 45.828125 52.96875 
Q 50 49.953125 52 44.1875 
z
" id="DejaVuSans-6d"/>
     </defs>
     <g transform="translate(94.6 87.426687)scale(0.1 -0.1)">
      <use xlink:href="#DejaVuSans-49"/>
      <use x="29.492188" xlink:href="#DejaVuSans-6e"/>
      <use x="92.871094" xlink:href="#DejaVuSans-76"/>
      <use x="152.050781" xlink:href="#DejaVuSans-65"/>
      <use x="213.574219" xlink:href="#DejaVuSans-73"/>
      <use x="265.673828" xlink:href="#DejaVuSans-74"/>
      <use x="304.882812" xlink:href="#DejaVuSans-6d"/>
      <use x="402.294922" xlink:href="#DejaVuSans-65"/>
      <use x="463.818359" xlink:href="#DejaVuSans-6e"/>
      <use x="527.197266" xlink:href="#DejaVuSans-74"/>
      <use x="566.40625" xlink:href="#DejaVuSans-73"/>
     </g>
    </g>
    <g id="line2d_38"/>
    <g id="line2d_39">
     <g>
      <use style="fill:#bfbf00;stroke:#bfbf00;" x="76.6" xlink:href="#mad42279ff6" y="98.604812"/>
     </g>
    </g>
    <g id="text_20">
     <!-- Deposits -->
     <defs>
      <path d="M 19.671875 64.796875 
L 19.671875 8.109375 
L 31.59375 8.109375 
Q 46.6875 8.109375 53.6875 14.9375 
Q 60.6875 21.78125 60.6875 36.53125 
Q 60.6875 51.171875 53.6875 57.984375 
Q 46.6875 64.796875 31.59375 64.796875 
z
M 9.8125 72.90625 
L 30.078125 72.90625 
Q 51.265625 72.90625 61.171875 64.09375 
Q 71.09375 55.28125 71.09375 36.53125 
Q 71.09375 17.671875 61.125 8.828125 
Q 51.171875 0 30.078125 0 
L 9.8125 0 
z
" id="DejaVuSans-44"/>
      <path d="M 18.109375 8.203125 
L 18.109375 -20.796875 
L 9.078125 -20.796875 
L 9.078125 54.6875 
L 18.109375 54.6875 
L 18.109375 46.390625 
Q 20.953125 51.265625 25.265625 53.625 
Q 29.59375 56 35.59375 56 
Q 45.5625 56 51.78125 48.09375 
Q 58.015625 40.1875 58.015625 27.296875 
Q 58.015625 14.40625 51.78125 6.484375 
Q 45.5625 -1.421875 35.59375 -1.421875 
Q 29.59375 -1.421875 25.265625 0.953125 
Q 20.953125 3.328125 18.109375 8.203125 
z
M 48.6875 27.296875 
Q 48.6875 37.203125 44.609375 42.84375 
Q 40.53125 48.484375 33.40625 48.484375 
Q 26.265625 48.484375 22.1875 42.84375 
Q 18.109375 37.203125 18.109375 27.296875 
Q 18.109375 17.390625 22.1875 11.75 
Q 26.265625 6.109375 33.40625 6.109375 
Q 40.53125 6.109375 44.609375 11.75 
Q 48.6875 17.390625 48.6875 27.296875 
z
" id="DejaVuSans-70"/>
     </defs>
     <g transform="translate(94.6 102.104812)scale(0.1 -0.1)">
      <use xlink:href="#DejaVuSans-44"/>
      <use x="77.001953" xlink:href="#DejaVuSans-65"/>
      <use x="138.525391" xlink:href="#DejaVuSans-70"/>
      <use x="202.001953" xlink:href="#DejaVuSans-6f"/>
      <use x="263.183594" xlink:href="#DejaVuSans-73"/>
      <use x="315.283203" xlink:href="#DejaVuSans-69"/>
      <use x="343.066406" xlink:href="#DejaVuSans-74"/>
      <use x="382.275391" xlink:href="#DejaVuSans-73"/>
     </g>
    </g>
    <g id="line2d_40"/>
    <g id="line2d_41">
     <g>
      <use style="fill:#008000;stroke:#008000;" x="76.6" xlink:href="#m81d0cb89a5" y="113.282937"/>
     </g>
    </g>
    <g id="text_21">
     <!-- Commission -->
     <defs>
      <path d="M 64.40625 67.28125 
L 64.40625 56.890625 
Q 59.421875 61.53125 53.78125 63.8125 
Q 48.140625 66.109375 41.796875 66.109375 
Q 29.296875 66.109375 22.65625 58.46875 
Q 16.015625 50.828125 16.015625 36.375 
Q 16.015625 21.96875 22.65625 14.328125 
Q 29.296875 6.6875 41.796875 6.6875 
Q 48.140625 6.6875 53.78125 8.984375 
Q 59.421875 11.28125 64.40625 15.921875 
L 64.40625 5.609375 
Q 59.234375 2.09375 53.4375 0.328125 
Q 47.65625 -1.421875 41.21875 -1.421875 
Q 24.65625 -1.421875 15.125 8.703125 
Q 5.609375 18.84375 5.609375 36.375 
Q 5.609375 53.953125 15.125 64.078125 
Q 24.65625 74.21875 41.21875 74.21875 
Q 47.75 74.21875 53.53125 72.484375 
Q 59.328125 70.75 64.40625 67.28125 
z
" id="DejaVuSans-43"/>
     </defs>
     <g transform="translate(94.6 116.782937)scale(0.1 -0.1)">
      <use xlink:href="#DejaVuSans-43"/>
      <use x="69.824219" xlink:href="#DejaVuSans-6f"/>
      <use x="131.005859" xlink:href="#DejaVuSans-6d"/>
      <use x="228.417969" xlink:href="#DejaVuSans-6d"/>
      <use x="325.830078" xlink:href="#DejaVuSans-69"/>
      <use x="353.613281" xlink:href="#DejaVuSans-73"/>
      <use x="405.712891" xlink:href="#DejaVuSans-73"/>
      <use x="457.8125" xlink:href="#DejaVuSans-69"/>
      <use x="485.595703" xlink:href="#DejaVuSans-6f"/>
      <use x="546.777344" xlink:href="#DejaVuSans-6e"/>
     </g>
    </g>
   </g>
  </g>
 </g>
 <defs>
  <clipPath id="p999c0daf9f">
   <rect height="235.008" width="357.12" x="57.6" y="41.472"/>
  </clipPath>
 </defs>
</svg>
