<?xml version="1.0" encoding="utf-8" standalone="no"?>
<!DOCTYPE svg PUBLIC "-//W3C//DTD SVG 1.1//EN"
  "http://www.w3.org/Graphics/SVG/1.1/DTD/svg11.dtd">
<!-- Created with matplotlib (http://matplotlib.org/) -->
<svg height="345.6pt" version="1.1" viewBox="0 0 460.8 345.6" width="460.8pt" xmlns="http://www.w3.org/2000/svg" xmlns:xlink="http://www.w3.org/1999/xlink">
 <defs>
  <style type="text/css">
*{stroke-linecap:butt;stroke-linejoin:round;}
  </style>
 </defs>
 <g id="figure_1">
  <g id="patch_1">
   <path d="M 0 345.6 
L 460.8 345.6 
L 460.8 0 
L 0 0 
z
" style="fill:#ffffff;"/>
  </g>
  <g id="axes_1">
   <g id="patch_2">
    <path d="M 57.6 276.48 
L 414.72 276.48 
L 414.72 41.472 
L 57.6 41.472 
z
" style="fill:#ffffff;"/>
   </g>
   <g id="matplotlib.axis_1">
    <g id="xtick_1">
     <g id="line2d_1">
      <path clip-path="url(#p4640ee50ca)" d="M 73.832727 276.48 
L 73.832727 41.472 
" style="fill:none;stroke:#b0b0b0;stroke-linecap:square;stroke-width:0.8;"/>
     </g>
     <g id="line2d_2">
      <defs>
       <path d="M 0 0 
L 0 3.5 
" id="mf369853215" style="stroke:#000000;stroke-width:0.8;"/>
      </defs>
      <g>
       <use style="stroke:#000000;stroke-width:0.8;" x="73.832727" xlink:href="#mf369853215" y="276.48"/>
      </g>
     </g>
     <g id="text_1">
      <!-- 2019-01 -->
      <defs>
       <path d="M 19.1875 8.296875 
L 53.609375 8.296875 
L 53.609375 0 
L 7.328125 0 
L 7.328125 8.296875 
Q 12.9375 14.109375 22.625 23.890625 
Q 32.328125 33.6875 34.8125 36.53125 
Q 39.546875 41.84375 41.421875 45.53125 
Q 43.3125 49.21875 43.3125 52.78125 
Q 43.3125 58.59375 39.234375 62.25 
Q 35.15625 65.921875 28.609375 65.921875 
Q 23.96875 65.921875 18.8125 64.3125 
Q 13.671875 62.703125 7.8125 59.421875 
L 7.8125 69.390625 
Q 13.765625 71.78125 18.9375 73 
Q 24.125 74.21875 28.421875 74.21875 
Q 39.75 74.21875 46.484375 68.546875 
Q 53.21875 62.890625 53.21875 53.421875 
Q 53.21875 48.921875 51.53125 44.890625 
Q 49.859375 40.875 45.40625 35.40625 
Q 44.1875 33.984375 37.640625 27.21875 
Q 31.109375 20.453125 19.1875 8.296875 
z
" id="DejaVuSans-32"/>
       <path d="M 31.78125 66.40625 
Q 24.171875 66.40625 20.328125 58.90625 
Q 16.5 51.421875 16.5 36.375 
Q 16.5 21.390625 20.328125 13.890625 
Q 24.171875 6.390625 31.78125 6.390625 
Q 39.453125 6.390625 43.28125 13.890625 
Q 47.125 21.390625 47.125 36.375 
Q 47.125 51.421875 43.28125 58.90625 
Q 39.453125 66.40625 31.78125 66.40625 
z
M 31.78125 74.21875 
Q 44.046875 74.21875 50.515625 64.515625 
Q 56.984375 54.828125 56.984375 36.375 
Q 56.984375 17.96875 50.515625 8.265625 
Q 44.046875 -1.421875 31.78125 -1.421875 
Q 19.53125 -1.421875 13.0625 8.265625 
Q 6.59375 17.96875 6.59375 36.375 
Q 6.59375 54.828125 13.0625 64.515625 
Q 19.53125 74.21875 31.78125 74.21875 
z
" id="DejaVuSans-30"/>
       <path d="M 12.40625 8.296875 
L 28.515625 8.296875 
L 28.515625 63.921875 
L 10.984375 60.40625 
L 10.984375 69.390625 
L 28.421875 72.90625 
L 38.28125 72.90625 
L 38.28125 8.296875 
L 54.390625 8.296875 
L 54.390625 0 
L 12.40625 0 
z
" id="DejaVuSans-31"/>
       <path d="M 10.984375 1.515625 
L 10.984375 10.5 
Q 14.703125 8.734375 18.5 7.8125 
Q 22.3125 6.890625 25.984375 6.890625 
Q 35.75 6.890625 40.890625 13.453125 
Q 46.046875 20.015625 46.78125 33.40625 
Q 43.953125 29.203125 39.59375 26.953125 
Q 35.25 24.703125 29.984375 24.703125 
Q 19.046875 24.703125 12.671875 31.3125 
Q 6.296875 37.9375 6.296875 49.421875 
Q 6.296875 60.640625 12.9375 67.421875 
Q 19.578125 74.21875 30.609375 74.21875 
Q 43.265625 74.21875 49.921875 64.515625 
Q 56.59375 54.828125 56.59375 36.375 
Q 56.59375 19.140625 48.40625 8.859375 
Q 40.234375 -1.421875 26.421875 -1.421875 
Q 22.703125 -1.421875 18.890625 -0.6875 
Q 15.09375 0.046875 10.984375 1.515625 
z
M 30.609375 32.421875 
Q 37.25 32.421875 41.125 36.953125 
Q 45.015625 41.5 45.015625 49.421875 
Q 45.015625 57.28125 41.125 61.84375 
Q 37.25 66.40625 30.609375 66.40625 
Q 23.96875 66.40625 20.09375 61.84375 
Q 16.21875 57.28125 16.21875 49.421875 
Q 16.21875 41.5 20.09375 36.953125 
Q 23.96875 32.421875 30.609375 32.421875 
z
" id="DejaVuSans-39"/>
       <path d="M 4.890625 31.390625 
L 31.203125 31.390625 
L 31.203125 23.390625 
L 4.890625 23.390625 
z
" id="DejaVuSans-2d"/>
      </defs>
      <g transform="translate(36.607906 310.951846)rotate(-30)scale(0.1 -0.1)">
       <use xlink:href="#DejaVuSans-32"/>
       <use x="63.623047" xlink:href="#DejaVuSans-30"/>
       <use x="127.246094" xlink:href="#DejaVuSans-31"/>
       <use x="190.869141" xlink:href="#DejaVuSans-39"/>
       <use x="254.492188" xlink:href="#DejaVuSans-2d"/>
       <use x="290.576172" xlink:href="#DejaVuSans-30"/>
       <use x="354.199219" xlink:href="#DejaVuSans-31"/>
      </g>
     </g>
    </g>
    <g id="xtick_2">
     <g id="line2d_3">
      <path clip-path="url(#p4640ee50ca)" d="M 129.376665 276.48 
L 129.376665 41.472 
" style="fill:none;stroke:#b0b0b0;stroke-linecap:square;stroke-width:0.8;"/>
     </g>
     <g id="line2d_4">
      <g>
       <use style="stroke:#000000;stroke-width:0.8;" x="129.376665" xlink:href="#mf369853215" y="276.48"/>
      </g>
     </g>
     <g id="text_2">
      <!-- 2019-03 -->
      <defs>
       <path d="M 40.578125 39.3125 
Q 47.65625 37.796875 51.625 33 
Q 55.609375 28.21875 55.609375 21.1875 
Q 55.609375 10.40625 48.1875 4.484375 
Q 40.765625 -1.421875 27.09375 -1.421875 
Q 22.515625 -1.421875 17.65625 -0.515625 
Q 12.796875 0.390625 7.625 2.203125 
L 7.625 11.71875 
Q 11.71875 9.328125 16.59375 8.109375 
Q 21.484375 6.890625 26.8125 6.890625 
Q 36.078125 6.890625 40.9375 10.546875 
Q 45.796875 14.203125 45.796875 21.1875 
Q 45.796875 27.640625 41.28125 31.265625 
Q 36.765625 34.90625 28.71875 34.90625 
L 20.21875 34.90625 
L 20.21875 43.015625 
L 29.109375 43.015625 
Q 36.375 43.015625 40.234375 45.921875 
Q 44.09375 48.828125 44.09375 54.296875 
Q 44.09375 59.90625 40.109375 62.90625 
Q 36.140625 65.921875 28.71875 65.921875 
Q 24.65625 65.921875 20.015625 65.03125 
Q 15.375 64.15625 9.8125 62.3125 
L 9.8125 71.09375 
Q 15.4375 72.65625 20.34375 73.4375 
Q 25.25 74.21875 29.59375 74.21875 
Q 40.828125 74.21875 47.359375 69.109375 
Q 53.90625 64.015625 53.90625 55.328125 
Q 53.90625 49.265625 50.4375 45.09375 
Q 46.96875 40.921875 40.578125 39.3125 
z
" id="DejaVuSans-33"/>
      </defs>
      <g transform="translate(92.151844 310.951846)rotate(-30)scale(0.1 -0.1)">
       <use xlink:href="#DejaVuSans-32"/>
       <use x="63.623047" xlink:href="#DejaVuSans-30"/>
       <use x="127.246094" xlink:href="#DejaVuSans-31"/>
       <use x="190.869141" xlink:href="#DejaVuSans-39"/>
       <use x="254.492188" xlink:href="#DejaVuSans-2d"/>
       <use x="290.576172" xlink:href="#DejaVuSans-30"/>
       <use x="354.199219" xlink:href="#DejaVuSans-33"/>
      </g>
     </g>
    </g>
    <g id="xtick_3">
     <g id="line2d_5">
      <path clip-path="url(#p4640ee50ca)" d="M 186.803448 276.48 
L 186.803448 41.472 
" style="fill:none;stroke:#b0b0b0;stroke-linecap:square;stroke-width:0.8;"/>
     </g>
     <g id="line2d_6">
      <g>
       <use style="stroke:#000000;stroke-width:0.8;" x="186.803448" xlink:href="#mf369853215" y="276.48"/>
      </g>
     </g>
     <g id="text_3">
      <!-- 2019-05 -->
      <defs>
       <path d="M 10.796875 72.90625 
L 49.515625 72.90625 
L 49.515625 64.59375 
L 19.828125 64.59375 
L 19.828125 46.734375 
Q 21.96875 47.46875 24.109375 47.828125 
Q 26.265625 48.1875 28.421875 48.1875 
Q 40.625 48.1875 47.75 41.5 
Q 54.890625 34.8125 54.890625 23.390625 
Q 54.890625 11.625 47.5625 5.09375 
Q 40.234375 -1.421875 26.90625 -1.421875 
Q 22.3125 -1.421875 17.546875 -0.640625 
Q 12.796875 0.140625 7.71875 1.703125 
L 7.71875 11.625 
Q 12.109375 9.234375 16.796875 8.0625 
Q 21.484375 6.890625 26.703125 6.890625 
Q 35.15625 6.890625 40.078125 11.328125 
Q 45.015625 15.765625 45.015625 23.390625 
Q 45.015625 31 40.078125 35.4375 
Q 35.15625 39.890625 26.703125 39.890625 
Q 22.75 39.890625 18.8125 39.015625 
Q 14.890625 38.140625 10.796875 36.28125 
z
" id="DejaVuSans-35"/>
      </defs>
      <g transform="translate(149.578627 310.951846)rotate(-30)scale(0.1 -0.1)">
       <use xlink:href="#DejaVuSans-32"/>
       <use x="63.623047" xlink:href="#DejaVuSans-30"/>
       <use x="127.246094" xlink:href="#DejaVuSans-31"/>
       <use x="190.869141" xlink:href="#DejaVuSans-39"/>
       <use x="254.492188" xlink:href="#DejaVuSans-2d"/>
       <use x="290.576172" xlink:href="#DejaVuSans-30"/>
       <use x="354.199219" xlink:href="#DejaVuSans-35"/>
      </g>
     </g>
    </g>
    <g id="xtick_4">
     <g id="line2d_7">
      <path clip-path="url(#p4640ee50ca)" d="M 244.230231 276.48 
L 244.230231 41.472 
" style="fill:none;stroke:#b0b0b0;stroke-linecap:square;stroke-width:0.8;"/>
     </g>
     <g id="line2d_8">
      <g>
       <use style="stroke:#000000;stroke-width:0.8;" x="244.230231" xlink:href="#mf369853215" y="276.48"/>
      </g>
     </g>
     <g id="text_4">
      <!-- 2019-07 -->
      <defs>
       <path d="M 8.203125 72.90625 
L 55.078125 72.90625 
L 55.078125 68.703125 
L 28.609375 0 
L 18.3125 0 
L 43.21875 64.59375 
L 8.203125 64.59375 
z
" id="DejaVuSans-37"/>
      </defs>
      <g transform="translate(207.005411 310.951846)rotate(-30)scale(0.1 -0.1)">
       <use xlink:href="#DejaVuSans-32"/>
       <use x="63.623047" xlink:href="#DejaVuSans-30"/>
       <use x="127.246094" xlink:href="#DejaVuSans-31"/>
       <use x="190.869141" xlink:href="#DejaVuSans-39"/>
       <use x="254.492188" xlink:href="#DejaVuSans-2d"/>
       <use x="290.576172" xlink:href="#DejaVuSans-30"/>
       <use x="354.199219" xlink:href="#DejaVuSans-37"/>
      </g>
     </g>
    </g>
    <g id="xtick_5">
     <g id="line2d_9">
      <path clip-path="url(#p4640ee50ca)" d="M 302.598437 276.48 
L 302.598437 41.472 
" style="fill:none;stroke:#b0b0b0;stroke-linecap:square;stroke-width:0.8;"/>
     </g>
     <g id="line2d_10">
      <g>
       <use style="stroke:#000000;stroke-width:0.8;" x="302.598437" xlink:href="#mf369853215" y="276.48"/>
      </g>
     </g>
     <g id="text_5">
      <!-- 2019-09 -->
      <g transform="translate(265.373617 310.951846)rotate(-30)scale(0.1 -0.1)">
       <use xlink:href="#DejaVuSans-32"/>
       <use x="63.623047" xlink:href="#DejaVuSans-30"/>
       <use x="127.246094" xlink:href="#DejaVuSans-31"/>
       <use x="190.869141" xlink:href="#DejaVuSans-39"/>
       <use x="254.492188" xlink:href="#DejaVuSans-2d"/>
       <use x="290.576172" xlink:href="#DejaVuSans-30"/>
       <use x="354.199219" xlink:href="#DejaVuSans-39"/>
      </g>
     </g>
    </g>
    <g id="xtick_6">
     <g id="line2d_11">
      <path clip-path="url(#p4640ee50ca)" d="M 360.025221 276.48 
L 360.025221 41.472 
" style="fill:none;stroke:#b0b0b0;stroke-linecap:square;stroke-width:0.8;"/>
     </g>
     <g id="line2d_12">
      <g>
       <use style="stroke:#000000;stroke-width:0.8;" x="360.025221" xlink:href="#mf369853215" y="276.48"/>
      </g>
     </g>
     <g id="text_6">
      <!-- 2019-11 -->
      <g transform="translate(322.8004 310.951846)rotate(-30)scale(0.1 -0.1)">
       <use xlink:href="#DejaVuSans-32"/>
       <use x="63.623047" xlink:href="#DejaVuSans-30"/>
       <use x="127.246094" xlink:href="#DejaVuSans-31"/>
       <use x="190.869141" xlink:href="#DejaVuSans-39"/>
       <use x="254.492188" xlink:href="#DejaVuSans-2d"/>
       <use x="290.576172" xlink:href="#DejaVuSans-31"/>
       <use x="354.199219" xlink:href="#DejaVuSans-31"/>
      </g>
     </g>
    </g>
    <g id="text_7">
     <!-- date -->
     <defs>
      <path d="M 45.40625 46.390625 
L 45.40625 75.984375 
L 54.390625 75.984375 
L 54.390625 0 
L 45.40625 0 
L 45.40625 8.203125 
Q 42.578125 3.328125 38.25 0.953125 
Q 33.9375 -1.421875 27.875 -1.421875 
Q 17.96875 -1.421875 11.734375 6.484375 
Q 5.515625 14.40625 5.515625 27.296875 
Q 5.515625 40.1875 11.734375 48.09375 
Q 17.96875 56 27.875 56 
Q 33.9375 56 38.25 53.625 
Q 42.578125 51.265625 45.40625 46.390625 
z
M 14.796875 27.296875 
Q 14.796875 17.390625 18.875 11.75 
Q 22.953125 6.109375 30.078125 6.109375 
Q 37.203125 6.109375 41.296875 11.75 
Q 45.40625 17.390625 45.40625 27.296875 
Q 45.40625 37.203125 41.296875 42.84375 
Q 37.203125 48.484375 30.078125 48.484375 
Q 22.953125 48.484375 18.875 42.84375 
Q 14.796875 37.203125 14.796875 27.296875 
z
" id="DejaVuSans-64"/>
      <path d="M 34.28125 27.484375 
Q 23.390625 27.484375 19.1875 25 
Q 14.984375 22.515625 14.984375 16.5 
Q 14.984375 11.71875 18.140625 8.90625 
Q 21.296875 6.109375 26.703125 6.109375 
Q 34.1875 6.109375 38.703125 11.40625 
Q 43.21875 16.703125 43.21875 25.484375 
L 43.21875 27.484375 
z
M 52.203125 31.203125 
L 52.203125 0 
L 43.21875 0 
L 43.21875 8.296875 
Q 40.140625 3.328125 35.546875 0.953125 
Q 30.953125 -1.421875 24.3125 -1.421875 
Q 15.921875 -1.421875 10.953125 3.296875 
Q 6 8.015625 6 15.921875 
Q 6 25.140625 12.171875 29.828125 
Q 18.359375 34.515625 30.609375 34.515625 
L 43.21875 34.515625 
L 43.21875 35.40625 
Q 43.21875 41.609375 39.140625 45 
Q 35.0625 48.390625 27.6875 48.390625 
Q 23 48.390625 18.546875 47.265625 
Q 14.109375 46.140625 10.015625 43.890625 
L 10.015625 52.203125 
Q 14.9375 54.109375 19.578125 55.046875 
Q 24.21875 56 28.609375 56 
Q 40.484375 56 46.34375 49.84375 
Q 52.203125 43.703125 52.203125 31.203125 
z
" id="DejaVuSans-61"/>
      <path d="M 18.3125 70.21875 
L 18.3125 54.6875 
L 36.8125 54.6875 
L 36.8125 47.703125 
L 18.3125 47.703125 
L 18.3125 18.015625 
Q 18.3125 11.328125 20.140625 9.421875 
Q 21.96875 7.515625 27.59375 7.515625 
L 36.8125 7.515625 
L 36.8125 0 
L 27.59375 0 
Q 17.1875 0 13.234375 3.875 
Q 9.28125 7.765625 9.28125 18.015625 
L 9.28125 47.703125 
L 2.6875 47.703125 
L 2.6875 54.6875 
L 9.28125 54.6875 
L 9.28125 70.21875 
z
" id="DejaVuSans-74"/>
      <path d="M 56.203125 29.59375 
L 56.203125 25.203125 
L 14.890625 25.203125 
Q 15.484375 15.921875 20.484375 11.0625 
Q 25.484375 6.203125 34.421875 6.203125 
Q 39.59375 6.203125 44.453125 7.46875 
Q 49.3125 8.734375 54.109375 11.28125 
L 54.109375 2.78125 
Q 49.265625 0.734375 44.1875 -0.34375 
Q 39.109375 -1.421875 33.890625 -1.421875 
Q 20.796875 -1.421875 13.15625 6.1875 
Q 5.515625 13.8125 5.515625 26.8125 
Q 5.515625 40.234375 12.765625 48.109375 
Q 20.015625 56 32.328125 56 
Q 43.359375 56 49.78125 48.890625 
Q 56.203125 41.796875 56.203125 29.59375 
z
M 47.21875 32.234375 
Q 47.125 39.59375 43.09375 43.984375 
Q 39.0625 48.390625 32.421875 48.390625 
Q 24.90625 48.390625 20.390625 44.140625 
Q 15.875 39.890625 15.1875 32.171875 
z
" id="DejaVuSans-65"/>
     </defs>
     <g transform="translate(224.885 324.351346)scale(0.1 -0.1)">
      <use xlink:href="#DejaVuSans-64"/>
      <use x="63.476562" xlink:href="#DejaVuSans-61"/>
      <use x="124.755859" xlink:href="#DejaVuSans-74"/>
      <use x="163.964844" xlink:href="#DejaVuSans-65"/>
     </g>
    </g>
   </g>
   <g id="matplotlib.axis_2">
    <g id="ytick_1">
     <g id="line2d_13">
      <path clip-path="url(#p4640ee50ca)" d="M 57.6 265.797818 
L 414.72 265.797818 
" style="fill:none;stroke:#b0b0b0;stroke-linecap:square;stroke-width:0.8;"/>
     </g>
     <g id="line2d_14">
      <defs>
       <path d="M 0 0 
L -3.5 0 
" id="m8a655310cd" style="stroke:#000000;stroke-width:0.8;"/>
      </defs>
      <g>
       <use style="stroke:#000000;stroke-width:0.8;" x="57.6" xlink:href="#m8a655310cd" y="265.797818"/>
      </g>
     </g>
     <g id="text_8">
      <!-- 0 -->
      <g transform="translate(44.2375 269.597037)scale(0.1 -0.1)">
       <use xlink:href="#DejaVuSans-30"/>
      </g>
     </g>
    </g>
    <g id="ytick_2">
     <g id="line2d_15">
      <path clip-path="url(#p4640ee50ca)" d="M 57.6 226.153422 
L 414.72 226.153422 
" style="fill:none;stroke:#b0b0b0;stroke-linecap:square;stroke-width:0.8;"/>
     </g>
     <g id="line2d_16">
      <g>
       <use style="stroke:#000000;stroke-width:0.8;" x="57.6" xlink:href="#m8a655310cd" y="226.153422"/>
      </g>
     </g>
     <g id="text_9">
      <!-- 2000 -->
      <g transform="translate(25.15 229.952641)scale(0.1 -0.1)">
       <use xlink:href="#DejaVuSans-32"/>
       <use x="63.623047" xlink:href="#DejaVuSans-30"/>
       <use x="127.246094" xlink:href="#DejaVuSans-30"/>
       <use x="190.869141" xlink:href="#DejaVuSans-30"/>
      </g>
     </g>
    </g>
    <g id="ytick_3">
     <g id="line2d_17">
      <path clip-path="url(#p4640ee50ca)" d="M 57.6 186.509026 
L 414.72 186.509026 
" style="fill:none;stroke:#b0b0b0;stroke-linecap:square;stroke-width:0.8;"/>
     </g>
     <g id="line2d_18">
      <g>
       <use style="stroke:#000000;stroke-width:0.8;" x="57.6" xlink:href="#m8a655310cd" y="186.509026"/>
      </g>
     </g>
     <g id="text_10">
      <!-- 4000 -->
      <defs>
       <path d="M 37.796875 64.3125 
L 12.890625 25.390625 
L 37.796875 25.390625 
z
M 35.203125 72.90625 
L 47.609375 72.90625 
L 47.609375 25.390625 
L 58.015625 25.390625 
L 58.015625 17.1875 
L 47.609375 17.1875 
L 47.609375 0 
L 37.796875 0 
L 37.796875 17.1875 
L 4.890625 17.1875 
L 4.890625 26.703125 
z
" id="DejaVuSans-34"/>
      </defs>
      <g transform="translate(25.15 190.308244)scale(0.1 -0.1)">
       <use xlink:href="#DejaVuSans-34"/>
       <use x="63.623047" xlink:href="#DejaVuSans-30"/>
       <use x="127.246094" xlink:href="#DejaVuSans-30"/>
       <use x="190.869141" xlink:href="#DejaVuSans-30"/>
      </g>
     </g>
    </g>
    <g id="ytick_4">
     <g id="line2d_19">
      <path clip-path="url(#p4640ee50ca)" d="M 57.6 146.864629 
L 414.72 146.864629 
" style="fill:none;stroke:#b0b0b0;stroke-linecap:square;stroke-width:0.8;"/>
     </g>
     <g id="line2d_20">
      <g>
       <use style="stroke:#000000;stroke-width:0.8;" x="57.6" xlink:href="#m8a655310cd" y="146.864629"/>
      </g>
     </g>
     <g id="text_11">
      <!-- 6000 -->
      <defs>
       <path d="M 33.015625 40.375 
Q 26.375 40.375 22.484375 35.828125 
Q 18.609375 31.296875 18.609375 23.390625 
Q 18.609375 15.53125 22.484375 10.953125 
Q 26.375 6.390625 33.015625 6.390625 
Q 39.65625 6.390625 43.53125 10.953125 
Q 47.40625 15.53125 47.40625 23.390625 
Q 47.40625 31.296875 43.53125 35.828125 
Q 39.65625 40.375 33.015625 40.375 
z
M 52.59375 71.296875 
L 52.59375 62.3125 
Q 48.875 64.0625 45.09375 64.984375 
Q 41.3125 65.921875 37.59375 65.921875 
Q 27.828125 65.921875 22.671875 59.328125 
Q 17.53125 52.734375 16.796875 39.40625 
Q 19.671875 43.65625 24.015625 45.921875 
Q 28.375 48.1875 33.59375 48.1875 
Q 44.578125 48.1875 50.953125 41.515625 
Q 57.328125 34.859375 57.328125 23.390625 
Q 57.328125 12.15625 50.6875 5.359375 
Q 44.046875 -1.421875 33.015625 -1.421875 
Q 20.359375 -1.421875 13.671875 8.265625 
Q 6.984375 17.96875 6.984375 36.375 
Q 6.984375 53.65625 15.1875 63.9375 
Q 23.390625 74.21875 37.203125 74.21875 
Q 40.921875 74.21875 44.703125 73.484375 
Q 48.484375 72.75 52.59375 71.296875 
z
" id="DejaVuSans-36"/>
      </defs>
      <g transform="translate(25.15 150.663848)scale(0.1 -0.1)">
       <use xlink:href="#DejaVuSans-36"/>
       <use x="63.623047" xlink:href="#DejaVuSans-30"/>
       <use x="127.246094" xlink:href="#DejaVuSans-30"/>
       <use x="190.869141" xlink:href="#DejaVuSans-30"/>
      </g>
     </g>
    </g>
    <g id="ytick_5">
     <g id="line2d_21">
      <path clip-path="url(#p4640ee50ca)" d="M 57.6 107.220233 
L 414.72 107.220233 
" style="fill:none;stroke:#b0b0b0;stroke-linecap:square;stroke-width:0.8;"/>
     </g>
     <g id="line2d_22">
      <g>
       <use style="stroke:#000000;stroke-width:0.8;" x="57.6" xlink:href="#m8a655310cd" y="107.220233"/>
      </g>
     </g>
     <g id="text_12">
      <!-- 8000 -->
      <defs>
       <path d="M 31.78125 34.625 
Q 24.75 34.625 20.71875 30.859375 
Q 16.703125 27.09375 16.703125 20.515625 
Q 16.703125 13.921875 20.71875 10.15625 
Q 24.75 6.390625 31.78125 6.390625 
Q 38.8125 6.390625 42.859375 10.171875 
Q 46.921875 13.96875 46.921875 20.515625 
Q 46.921875 27.09375 42.890625 30.859375 
Q 38.875 34.625 31.78125 34.625 
z
M 21.921875 38.8125 
Q 15.578125 40.375 12.03125 44.71875 
Q 8.5 49.078125 8.5 55.328125 
Q 8.5 64.0625 14.71875 69.140625 
Q 20.953125 74.21875 31.78125 74.21875 
Q 42.671875 74.21875 48.875 69.140625 
Q 55.078125 64.0625 55.078125 55.328125 
Q 55.078125 49.078125 51.53125 44.71875 
Q 48 40.375 41.703125 38.8125 
Q 48.828125 37.15625 52.796875 32.3125 
Q 56.78125 27.484375 56.78125 20.515625 
Q 56.78125 9.90625 50.3125 4.234375 
Q 43.84375 -1.421875 31.78125 -1.421875 
Q 19.734375 -1.421875 13.25 4.234375 
Q 6.78125 9.90625 6.78125 20.515625 
Q 6.78125 27.484375 10.78125 32.3125 
Q 14.796875 37.15625 21.921875 38.8125 
z
M 18.3125 54.390625 
Q 18.3125 48.734375 21.84375 45.5625 
Q 25.390625 42.390625 31.78125 42.390625 
Q 38.140625 42.390625 41.71875 45.5625 
Q 45.3125 48.734375 45.3125 54.390625 
Q 45.3125 60.0625 41.71875 63.234375 
Q 38.140625 66.40625 31.78125 66.40625 
Q 25.390625 66.40625 21.84375 63.234375 
Q 18.3125 60.0625 18.3125 54.390625 
z
" id="DejaVuSans-38"/>
      </defs>
      <g transform="translate(25.15 111.019452)scale(0.1 -0.1)">
       <use xlink:href="#DejaVuSans-38"/>
       <use x="63.623047" xlink:href="#DejaVuSans-30"/>
       <use x="127.246094" xlink:href="#DejaVuSans-30"/>
       <use x="190.869141" xlink:href="#DejaVuSans-30"/>
      </g>
     </g>
    </g>
    <g id="ytick_6">
     <g id="line2d_23">
      <path clip-path="url(#p4640ee50ca)" d="M 57.6 67.575837 
L 414.72 67.575837 
" style="fill:none;stroke:#b0b0b0;stroke-linecap:square;stroke-width:0.8;"/>
     </g>
     <g id="line2d_24">
      <g>
       <use style="stroke:#000000;stroke-width:0.8;" x="57.6" xlink:href="#m8a655310cd" y="67.575837"/>
      </g>
     </g>
     <g id="text_13">
      <!-- 10000 -->
      <g transform="translate(18.7875 71.375055)scale(0.1 -0.1)">
       <use xlink:href="#DejaVuSans-31"/>
       <use x="63.623047" xlink:href="#DejaVuSans-30"/>
       <use x="127.246094" xlink:href="#DejaVuSans-30"/>
       <use x="190.869141" xlink:href="#DejaVuSans-30"/>
       <use x="254.492188" xlink:href="#DejaVuSans-30"/>
      </g>
     </g>
    </g>
    <g id="text_14">
     <!-- EUR -->
     <defs>
      <path d="M 9.8125 72.90625 
L 55.90625 72.90625 
L 55.90625 64.59375 
L 19.671875 64.59375 
L 19.671875 43.015625 
L 54.390625 43.015625 
L 54.390625 34.71875 
L 19.671875 34.71875 
L 19.671875 8.296875 
L 56.78125 8.296875 
L 56.78125 0 
L 9.8125 0 
z
" id="DejaVuSans-45"/>
      <path d="M 8.6875 72.90625 
L 18.609375 72.90625 
L 18.609375 28.609375 
Q 18.609375 16.890625 22.84375 11.734375 
Q 27.09375 6.59375 36.625 6.59375 
Q 46.09375 6.59375 50.34375 11.734375 
Q 54.59375 16.890625 54.59375 28.609375 
L 54.59375 72.90625 
L 64.5 72.90625 
L 64.5 27.390625 
Q 64.5 13.140625 57.4375 5.859375 
Q 50.390625 -1.421875 36.625 -1.421875 
Q 22.796875 -1.421875 15.734375 5.859375 
Q 8.6875 13.140625 8.6875 27.390625 
z
" id="DejaVuSans-55"/>
      <path d="M 44.390625 34.1875 
Q 47.5625 33.109375 50.5625 29.59375 
Q 53.5625 26.078125 56.59375 19.921875 
L 66.609375 0 
L 56 0 
L 46.6875 18.703125 
Q 43.0625 26.03125 39.671875 28.421875 
Q 36.28125 30.8125 30.421875 30.8125 
L 19.671875 30.8125 
L 19.671875 0 
L 9.8125 0 
L 9.8125 72.90625 
L 32.078125 72.90625 
Q 44.578125 72.90625 50.734375 67.671875 
Q 56.890625 62.453125 56.890625 51.90625 
Q 56.890625 45.015625 53.6875 40.46875 
Q 50.484375 35.9375 44.390625 34.1875 
z
M 19.671875 64.796875 
L 19.671875 38.921875 
L 32.078125 38.921875 
Q 39.203125 38.921875 42.84375 42.21875 
Q 46.484375 45.515625 46.484375 51.90625 
Q 46.484375 58.296875 42.84375 61.546875 
Q 39.203125 64.796875 32.078125 64.796875 
z
" id="DejaVuSans-52"/>
     </defs>
     <g transform="translate(12.707813 169.268969)rotate(-90)scale(0.1 -0.1)">
      <use xlink:href="#DejaVuSans-45"/>
      <use x="63.183594" xlink:href="#DejaVuSans-55"/>
      <use x="136.376953" xlink:href="#DejaVuSans-52"/>
     </g>
    </g>
   </g>
   <g id="line2d_25">
    <path clip-path="url(#p4640ee50ca)" d="M 73.832727 265.797818 
L 106.782521 265.709117 
L 106.782521 265.690395 
L 112.431057 265.541408 
L 112.431057 265.420873 
L 112.431057 265.420873 
L 114.313902 265.351906 
L 114.313902 265.310606 
L 114.313902 265.147444 
L 119.021016 264.990648 
L 119.021016 264.806785 
L 121.845284 264.68449 
L 121.845284 264.666953 
L 121.845284 264.666953 
L 126.552397 264.554098 
L 126.552397 264.53323 
L 131.25951 264.425345 
L 131.25951 264.424942 
L 132.200933 264.310785 
L 132.200933 264.133153 
L 134.083778 264.026314 
L 134.083778 263.982683 
L 135.966624 263.871575 
L 135.966624 263.826516 
L 139.732315 263.711965 
L 139.732315 263.66295 
L 140.673737 263.547216 
L 140.673737 263.499038 
L 140.673737 263.499038 
L 145.380851 263.365654 
L 145.380851 263.365654 
L 145.380851 263.258139 
L 149.146541 263.153345 
L 149.146541 263.125704 
L 155.7365 262.99597 
L 155.7365 262.976928 
L 160.443613 262.863824 
L 160.443613 262.726413 
L 161.385036 262.617971 
L 161.385036 262.597455 
L 165.150727 262.475175 
L 165.150727 262.411145 
L 167.974995 262.290104 
L 167.974995 262.24494 
L 171.740685 262.171572 
L 171.740685 262.134766 
L 171.740685 261.91598 
L 174.564954 261.791209 
L 174.564954 261.591605 
L 179.272067 261.476671 
L 179.272067 261.466992 
L 184.920603 261.327857 
L 184.920603 261.295744 
L 188.686294 261.141976 
L 188.686294 261.141976 
L 188.686294 261.062498 
L 188.686294 261.062498 
L 191.510562 260.941076 
L 191.510562 260.875976 
L 193.393407 260.754902 
L 193.393407 260.750808 
L 198.10052 260.618036 
L 198.10052 260.471816 
L 199.983366 260.365395 
L 199.983366 260.319309 
L 204.690479 260.16172 
L 204.690479 260.051425 
L 208.45617 259.908695 
L 208.45617 259.896948 
L 217.870397 259.779877 
L 217.870397 259.64694 
L 218.811819 259.53124 
L 221.636087 259.398789 
L 221.636087 259.365397 
L 224.460355 259.24073 
L 224.460355 259.189166 
L 226.343201 259.089692 
L 226.343201 258.988333 
L 227.284623 258.877916 
L 227.284623 258.843246 
L 227.284623 258.843246 
L 231.050314 258.724502 
L 231.050314 258.693209 
L 231.050314 258.693209 
L 231.991737 258.583561 
L 231.991737 258.480714 
L 234.816005 258.370656 
L 234.816005 258.361472 
L 241.405963 258.228671 
L 241.405963 258.215678 
L 244.230231 258.100799 
L 244.230231 258.028516 
L 244.230231 258.028516 
L 245.171654 257.916396 
L 245.171654 257.888868 
L 246.113077 257.773086 
L 246.113077 257.275 
L 247.054499 257.160837 
L 247.054499 256.676472 
L 247.995922 256.676472 
L 247.995922 256.570317 
L 247.995922 256.470072 
L 250.82019 256.346612 
L 250.82019 255.61721 
L 251.761613 255.505631 
L 251.761613 255.467566 
L 252.703036 255.467566 
L 252.703036 255.420168 
L 252.703036 255.127968 
L 254.585881 255.013718 
L 254.585881 254.806225 
L 254.585881 254.806225 
L 257.410149 254.693518 
L 257.410149 254.693518 
L 257.410149 254.466748 
L 258.351572 254.356465 
L 258.351572 254.225978 
L 259.292994 254.117851 
L 259.292994 253.875604 
L 260.234417 253.765918 
L 260.234417 253.332094 
L 261.17584 253.274816 
L 261.17584 253.065669 
L 264.000108 252.832657 
L 264.000108 252.766803 
L 264.94153 252.66925 
L 264.94153 252.458384 
L 267.765798 252.341859 
L 267.765798 252.270882 
L 270.590066 252.160463 
L 270.590066 252.158948 
L 272.472912 252.074829 
L 272.472912 251.981439 
L 273.414334 251.868135 
L 273.414334 251.659416 
L 274.355757 251.547414 
L 274.355757 251.520752 
L 277.180025 251.415143 
L 277.180025 251.415143 
L 277.180025 250.234825 
L 278.121448 250.124733 
L 278.121448 249.667588 
L 279.06287 249.559539 
L 279.06287 249.437063 
L 280.004293 249.437063 
L 280.004293 249.326465 
L 280.004293 249.183253 
L 280.945716 249.072855 
L 280.945716 249.024283 
L 283.769984 248.907884 
L 283.769984 248.907884 
L 283.769984 248.706209 
L 284.711407 248.599444 
L 284.711407 248.505847 
L 285.652829 248.393607 
L 285.652829 248.377804 
L 285.652829 248.377804 
L 286.594252 248.377804 
L 286.594252 248.287693 
L 286.594252 248.158006 
L 287.535675 248.049006 
L 287.535675 247.783864 
L 290.359943 247.658878 
L 290.359943 246.971311 
L 291.301365 246.971311 
L 291.301365 246.861483 
L 291.301365 246.788579 
L 292.242788 246.677435 
L 292.242788 246.644029 
L 294.125633 246.534923 
L 294.125633 246.401433 
L 296.949901 246.308097 
L 296.949901 246.1997 
L 298.832747 246.109356 
L 298.832747 246.092273 
L 298.832747 245.992026 
L 298.832747 245.992026 
L 301.657015 245.893033 
L 301.657015 245.811337 
L 303.53986 245.696913 
L 303.53986 245.550741 
L 303.53986 245.550741 
L 304.481283 245.444637 
L 304.481283 245.126923 
L 305.422705 245.004806 
L 305.422705 244.537117 
L 306.364128 244.425486 
L 306.364128 244.121174 
L 307.305551 244.010154 
L 307.305551 243.583667 
L 310.129819 243.467837 
L 310.129819 243.167937 
L 311.071241 243.059374 
L 311.071241 242.936399 
L 312.012664 242.830578 
L 312.012664 242.818455 
L 313.895509 242.711676 
L 313.895509 242.449832 
L 316.719777 242.335688 
L 316.719777 241.823111 
L 317.6612 241.71248 
L 317.6612 241.568624 
L 318.602623 241.568624 
L 318.602623 241.458352 
L 318.602623 241.125186 
L 319.544045 241.01431 
L 319.544045 240.97999 
L 320.485468 240.873727 
L 320.485468 240.790559 
L 323.309736 240.678332 
L 323.309736 240.61654 
L 324.251159 240.579308 
L 324.251159 240.346553 
L 326.134004 240.238446 
L 326.134004 240.075176 
L 328.958272 239.967065 
L 328.958272 239.964412 
L 328.958272 239.955596 
L 330.841118 239.870275 
L 330.841118 239.587882 
L 332.723963 239.474548 
L 332.723963 239.173956 
L 333.665386 239.041743 
L 333.665386 238.559781 
L 336.489654 238.44392 
L 336.489654 237.917553 
L 337.431076 237.786728 
L 337.431076 237.659846 
L 339.313922 237.565883 
L 339.313922 237.548862 
L 339.313922 237.365845 
L 343.079612 237.25318 
L 343.079612 236.927777 
L 344.021035 236.817161 
L 344.021035 236.679765 
L 344.962458 236.563998 
L 344.962458 236.192992 
L 345.90388 236.080149 
L 345.90388 235.915584 
L 346.845303 235.805175 
L 346.845303 235.472263 
L 349.669571 235.384316 
L 349.669571 235.068144 
L 350.610994 234.958168 
L 351.552416 234.86935 
L 351.552416 234.748745 
L 352.493839 234.748745 
L 352.493839 234.638143 
L 352.493839 234.611204 
L 353.435262 234.503045 
L 353.435262 234.491717 
L 357.200952 234.377939 
L 357.200952 234.262595 
L 357.200952 234.262595 
L 359.083798 234.173785 
L 359.083798 234.132098 
L 360.025221 234.02161 
L 360.025221 233.992109 
L 362.849489 233.885719 
L 362.849489 233.116914 
L 362.849489 233.116914 
L 363.790911 233.022079 
L 363.790911 232.624555 
L 364.732334 232.525887 
L 364.732334 232.316102 
L 364.732334 232.316102 
L 365.673757 232.204968 
L 365.673757 232.089784 
L 365.673757 232.089784 
L 366.615179 231.978871 
L 366.615179 231.978871 
L 366.615179 231.939816 
L 369.439447 231.824351 
L 369.439447 231.62907 
L 369.439447 231.62907 
L 371.322293 231.520133 
L 371.322293 231.323515 
L 373.205138 231.213296 
L 373.205138 231.213296 
L 373.205138 231.092869 
L 376.029406 230.972509 
L 376.029406 230.972509 
L 376.029406 230.178103 
L 377.912251 230.084602 
L 377.912251 230.011532 
L 378.853674 229.900441 
L 378.853674 229.858023 
L 381.677942 229.744641 
L 381.677942 229.741716 
L 383.560787 229.632919 
L 383.560787 229.548132 
L 385.443633 229.441032 
L 385.443633 229.437886 
L 385.443633 229.397856 
L 388.267901 229.29309 
L 389.209323 229.191719 
L 389.209323 228.849393 
L 390.150746 228.735429 
L 390.150746 228.494843 
L 391.092169 228.360748 
L 391.092169 228.085442 
L 392.033591 227.974771 
L 392.033591 227.906188 
L 394.857859 227.798033 
L 395.799282 227.682953 
L 395.799282 227.380472 
L 396.740705 227.26842 
L 396.740705 227.088806 
L 397.682128 226.979494 
L 397.682128 226.973082 
L 397.682128 226.973082 
" style="fill:none;stroke:#0000ff;stroke-linecap:square;stroke-width:1.5;"/>
   </g>
   <g id="line2d_26">
    <path clip-path="url(#p4640ee50ca)" d="M 73.832727 265.797818 
L 76.538609 265.718529 
L 76.689989 255.80743 
L 76.912792 255.946186 
L 77.357658 258.998804 
L 77.475063 259.870981 
L 77.678188 260.544936 
L 77.842338 260.76298 
L 77.992072 261.516223 
L 78.253371 262.864133 
L 78.440305 263.597554 
L 78.634942 264.093109 
L 79.013897 264.667953 
L 79.017613 264.846353 
L 79.207978 265.024752 
L 79.295648 265.203152 
L 79.394007 265.401374 
L 79.89112 265.500244 
L 79.891774 225.855847 
L 79.983443 227.481267 
L 80.033576 228.452555 
L 80.134255 246.451111 
L 80.245407 249.106822 
L 80.260552 249.72131 
L 80.435881 255.822639 
L 80.607473 256.017348 
L 80.708752 257.9913 
L 80.725358 257.986027 
L 80.780427 258.065316 
L 80.889246 260.820602 
L 81.124307 263.456954 
L 81.185184 263.258422 
L 81.20727 263.476466 
L 81.468047 264.209369 
L 81.835583 264.367947 
L 81.878753 265.002257 
L 82.011348 265.041901 
L 82.074665 265.200479 
L 82.198423 265.596923 
L 82.820721 265.695801 
L 82.916606 265.735445 
L 83.570524 265.768812 
L 83.688595 265.569274 
L 83.742824 265.687939 
L 83.844147 265.747404 
L 86.739676 265.787048 
L 87.448271 265.586195 
L 87.452891 265.685306 
L 87.459276 265.744773 
L 88.395893 265.784417 
L 89.622194 265.584103 
L 89.62518 265.603925 
L 89.634224 265.782325 
L 93.042021 265.762387 
L 93.042021 265.573004 
L 93.044298 265.771225 
L 93.251139 265.759151 
L 106.161313 265.783907 
L 106.161313 265.74858 
L 106.161313 265.721276 
L 106.173974 265.780743 
L 106.229043 265.769808 
L 106.322934 265.78963 
L 107.189719 265.785896 
L 107.592373 265.580285 
L 108.01852 265.561054 
L 108.01852 265.45701 
L 108.049148 265.556121 
L 110.284177 265.796812 
L 113.018237 265.684769 
L 113.044551 265.515171 
L 113.036335 265.718216 
L 113.111431 265.634104 
L 114.620856 265.494314 
L 114.658273 265.446815 
L 114.709147 265.501069 
L 114.721187 265.490761 
L 114.751348 265.461571 
L 114.972637 265.709665 
L 115.024317 265.603977 
L 115.058574 265.683266 
L 116.593115 265.767466 
L 116.634684 265.785433 
L 116.634684 265.77921 
L 119.334278 265.634843 
L 119.350263 265.603121 
L 119.399404 265.662587 
L 119.444776 265.660538 
L 119.528207 265.738795 
L 119.595491 265.661622 
L 119.65701 265.741683 
L 121.396964 265.790557 
L 121.453068 257.347886 
L 121.534985 261.579624 
L 121.591383 264.273341 
L 122.297526 264.354384 
L 122.308379 263.858421 
L 122.326063 264.334154 
L 122.419933 264.353976 
L 122.482433 265.107219 
L 122.527782 265.094081 
L 122.54757 265.113903 
L 123.112696 265.104383 
L 123.151976 264.901096 
L 123.164038 265.11914 
L 123.191202 265.118056 
L 123.387343 265.152925 
L 123.509009 265.606259 
L 123.509009 265.604897 
L 124.211872 265.617416 
L 124.335902 265.756172 
L 126.336949 265.6501 
L 126.391157 265.638121 
L 126.394959 265.697588 
L 132.535432 265.588432 
L 132.615573 265.523608 
L 132.646082 265.662363 
L 132.772313 265.70605 
L 132.926243 265.721211 
L 132.926243 265.717427 
L 132.926243 265.516609 
L 133.029276 265.734653 
L 134.361248 265.734685 
L 134.361248 265.702488 
L 134.361248 265.695515 
L 134.428989 265.73516 
L 134.465436 265.729943 
L 139.678019 265.754578 
L 139.697796 265.560013 
L 139.722661 265.698769 
L 140.073341 265.662681 
L 140.106388 265.572827 
L 140.180667 265.697742 
L 140.414149 265.699377 
L 140.414149 265.69 
L 140.438262 265.709823 
L 141.009904 265.748932 
L 141.009904 265.658374 
L 141.043845 265.568517 
L 141.100014 265.727095 
L 156.571108 265.589039 
L 156.571108 265.261285 
L 156.585981 265.796485 
L 159.86089 265.746727 
L 159.947536 265.641295 
L 159.98698 265.755279 
L 160.14822 265.640634 
L 160.18093 265.118011 
L 160.181072 264.395735 
L 160.224242 265.362451 
L 160.441107 265.349048 
L 160.502441 265.56838 
L 160.737514 265.458529 
L 160.814952 265.412802 
L 161.119466 265.447943 
L 161.119466 265.443078 
L 161.981227 265.309907 
L 161.981227 265.306608 
L 162.080719 265.781298 
L 162.100888 265.772059 
L 162.103895 265.791882 
L 162.218544 265.416477 
L 162.232044 265.614699 
L 163.084653 265.576441 
L 163.145409 265.774663 
L 172.460841 265.653556 
L 172.460841 265.582096 
L 172.527122 265.678849 
L 172.567209 265.674059 
L 173.320391 265.724615 
L 173.416494 265.751551 
L 173.416494 265.750416 
L 173.476651 265.768603 
L 173.476651 265.763017 
L 174.869772 265.664325 
L 174.896631 265.554502 
L 174.955807 265.681041 
L 175.094624 265.742885 
L 175.094624 265.737283 
L 176.959218 265.79682 
L 188.992485 265.69005 
L 188.992485 265.644667 
L 189.099484 265.756345 
L 196.624219 265.769364 
L 196.627761 265.789186 
L 198.422337 265.676122 
L 198.447659 265.594286 
L 198.530055 265.660763 
L 198.933047 265.722594 
L 201.750298 265.766452 
L 204.995657 265.653345 
L 204.995657 265.608281 
L 205.097328 265.717206 
L 205.206998 265.724316 
L 205.206998 265.723898 
L 211.773835 265.77965 
L 211.829863 263.802782 
L 211.883036 264.588486 
L 213.13321 264.606872 
L 213.525807 264.604853 
L 213.720869 265.794185 
L 213.840563 264.595789 
L 214.508112 264.595984 
L 214.685653 264.83385 
L 214.70057 265.785316 
L 218.19011 265.677611 
L 218.245985 265.655269 
L 218.275437 265.714736 
L 218.286584 265.708285 
L 223.068935 265.777311 
L 224.810894 265.711313 
L 224.810894 265.703761 
L 224.833187 265.678755 
L 224.87858 265.726098 
L 224.906899 265.714703 
L 226.991802 265.639989 
L 227.031267 265.439254 
L 227.053691 265.661262 
L 227.604217 265.546137 
L 227.639226 265.47572 
L 227.711445 265.517013 
L 227.899871 265.698454 
L 236.092461 265.775986 
L 236.132406 265.795809 
L 240.87066 265.784499 
L 240.888453 265.666662 
L 240.949962 265.705921 
L 241.142964 265.664972 
L 241.142964 265.714688 
L 241.146506 265.166672 
L 241.148816 265.710613 
L 241.302145 265.70178 
L 241.308596 265.415147 
L 241.311843 265.71248 
L 242.20371 265.642657 
L 242.227071 264.509943 
L 242.230918 265.6524 
L 242.242609 265.651625 
L 242.979262 265.713854 
L 242.97949 262.205409 
L 243.079691 265.780557 
L 243.09378 265.743352 
L 243.097975 264.016862 
L 243.101788 265.78972 
L 243.19082 265.231659 
L 243.241062 265.794015 
L 243.243045 264.689946 
L 243.2431 263.607364 
L 243.30025 265.797127 
L 243.342723 265.793818 
L 244.529122 265.696162 
L 244.529122 265.604359 
L 244.611835 265.797116 
L 244.639282 265.796706 
L 244.66066 216.241211 
L 244.76085 233.912009 
L 244.780757 236.364306 
L 245.047962 264.60654 
L 245.06728 264.602988 
L 245.76268 264.686234 
L 245.762789 265.785417 
L 245.852104 265.7816 
L 246.40957 265.694575 
L 246.449363 216.239823 
L 246.418331 265.795318 
L 246.517627 222.905369 
L 246.527521 223.167181 
L 246.636798 232.405491 
L 246.646691 232.628459 
L 246.756045 247.837652 
L 246.765938 249.038877 
L 246.795739 252.164846 
L 246.870192 241.898176 
L 246.875128 242.539467 
L 246.885 242.748867 
L 246.994211 256.461306 
L 247.004127 256.727876 
L 247.113295 265.782168 
L 247.34621 265.674069 
L 247.34621 265.391792 
L 247.420903 265.793958 
L 247.614657 265.68462 
L 247.620573 261.817536 
L 247.725089 265.797603 
L 248.288177 265.68836 
L 248.288177 265.686386 
L 248.370998 265.793249 
L 248.534691 265.687917 
L 248.534691 265.667758 
L 248.539725 265.793827 
L 248.612772 265.781154 
L 248.789975 265.794825 
L 251.125978 265.676507 
L 251.125978 265.400664 
L 251.221515 265.795185 
L 257.225961 265.795555 
L 257.721156 265.685399 
L 257.721156 265.652587 
L 257.726877 265.772007 
L 257.821302 265.75521 
L 258.034724 265.725988 
L 258.034724 265.524424 
L 258.124214 265.76537 
L 258.130076 265.699138 
L 258.149612 265.520703 
L 258.213551 265.777875 
L 258.640776 265.691559 
L 258.640776 265.580768 
L 258.719849 265.792699 
L 258.737119 265.760739 
L 259.580401 265.648385 
L 259.580401 265.573544 
L 259.652969 265.793913 
L 259.682759 265.762193 
L 259.928019 265.79422 
L 259.928019 265.784653 
L 259.966526 265.766289 
L 260.035836 265.793093 
L 260.530758 265.684279 
L 260.530758 265.391439 
L 260.536686 265.790705 
L 260.637464 265.648889 
L 260.715382 265.790845 
L 261.146322 265.761361 
L 261.462036 265.313516 
L 261.470209 265.512549 
L 261.480211 265.751904 
L 261.577034 265.725956 
L 261.657305 265.766376 
L 261.657305 264.545696 
L 261.668953 265.776618 
L 261.768228 265.774924 
L 266.58476 265.678525 
L 266.58476 265.457309 
L 266.60398 265.784579 
L 266.606759 265.783534 
L 271.807814 265.792202 
L 271.807814 265.711293 
L 271.807814 265.664652 
L 271.847705 265.784011 
L 271.907808 265.782487 
L 272.925394 265.783502 
L 272.925394 265.485188 
L 273.000653 265.788743 
L 273.70623 265.667567 
L 273.70623 265.512639 
L 273.779648 265.786017 
L 273.798553 265.782817 
L 277.479243 265.661721 
L 277.479243 264.967093 
L 277.545262 265.78976 
L 277.584968 265.788267 
L 277.910053 265.675461 
L 277.910053 265.635186 
L 277.936312 265.797101 
L 278.005786 265.794623 
L 278.406817 265.692788 
L 278.406817 265.537436 
L 278.502277 265.79776 
L 278.516704 265.779114 
L 279.027818 265.787267 
L 279.3491 265.583422 
L 279.450521 265.783148 
L 279.465525 265.730295 
L 279.465525 265.710521 
L 279.469545 265.792787 
L 279.576534 265.767999 
L 279.595439 265.574239 
L 279.618473 265.79734 
L 279.655324 265.780695 
L 279.866545 265.787123 
L 280.709587 265.679194 
L 280.709587 265.549569 
L 280.816216 265.795443 
L 281.805636 265.735048 
L 281.805647 265.223874 
L 281.811095 265.78339 
L 285.001014 265.784335 
L 285.001014 265.715189 
L 285.001014 265.664198 
L 285.039423 265.789514 
L 285.099057 265.785839 
L 286.162287 265.66705 
L 286.162287 265.613151 
L 286.172072 265.792298 
L 287.83839 265.79629 
L 287.83839 265.686048 
L 287.83839 265.460186 
L 287.848589 265.797667 
L 287.945858 265.780706 
L 288.191641 265.770773 
L 288.196348 265.790677 
L 288.365173 265.792799 
L 288.365173 265.796619 
L 288.911307 265.797045 
L 288.914674 265.61057 
L 289.020594 265.786069 
L 290.658092 265.626518 
L 290.658103 265.230046 
L 290.670209 265.795535 
L 290.759557 265.795491 
L 290.770017 265.780638 
L 290.770017 265.671494 
L 290.77941 265.791786 
L 290.848905 265.783764 
L 294.431792 265.654881 
L 294.431792 265.63112 
L 294.48089 265.796937 
L 294.510897 265.790516 
L 298.328268 265.780041 
L 298.384884 265.607518 
L 298.427238 265.790745 
L 299.385473 265.680774 
L 299.385473 265.646822 
L 299.390888 265.787441 
L 299.463827 265.78068 
L 303.83315 265.665748 
L 303.83315 265.641264 
L 303.91145 265.797113 
L 303.942198 265.779928 
L 304.791593 265.659881 
L 304.791593 265.468849 
L 304.806477 265.792638 
L 304.877803 265.79044 
L 305.716333 265.677465 
L 305.716333 265.300013 
L 305.721563 265.782305 
L 305.82001 265.719058 
L 305.979485 265.74842 
L 305.979485 265.746232 
L 306.055888 265.505083 
L 306.055888 265.485613 
L 306.139974 265.57642 
L 306.329707 265.673061 
L 306.346422 265.692883 
L 306.652341 265.598714 
L 306.652341 265.438745 
L 306.745688 265.71015 
L 306.754917 265.681035 
L 306.8847 265.701686 
L 307.594352 265.597197 
L 307.64394 265.396819 
L 307.647546 265.713974 
L 307.704598 265.618526 
L 307.84032 265.557311 
L 307.899704 265.388141 
L 307.942122 265.392591 
L 308.057523 265.483455 
L 308.057523 265.482916 
L 308.174002 265.597806 
L 308.174002 265.594369 
L 309.076155 265.751151 
L 309.076155 265.749195 
L 310.421845 265.638628 
L 310.516118 265.581444 
L 310.613464 265.672246 
L 310.653354 265.635421 
L 310.653354 265.532683 
L 310.672869 265.671438 
L 310.735598 265.622552 
L 310.84445 265.492628 
L 310.882717 265.529565 
L 310.999981 265.568462 
L 310.999981 265.56551 
L 311.438244 265.453511 
L 311.481861 265.418586 
L 311.505549 265.537519 
L 311.54824 265.519433 
L 311.595344 265.615723 
L 311.636465 265.655324 
L 311.685683 265.638533 
L 313.520531 265.706768 
L 313.681423 265.747334 
L 314.199129 265.635461 
L 314.289229 265.521591 
L 314.301672 265.541413 
L 314.57998 265.698523 
L 314.619097 265.656036 
L 316.145488 265.737931 
L 316.171203 265.757753 
L 317.032365 265.647195 
L 317.050616 265.399945 
L 317.125287 265.697278 
L 317.256181 265.58563 
L 317.366286 265.509787 
L 317.51832 265.457113 
L 317.59712 265.256739 
L 317.952464 265.145204 
L 318.035318 265.044331 
L 318.059006 265.361486 
L 318.5779 265.333028 
L 318.909511 265.225546 
L 318.985762 264.918566 
L 319.018952 265.00989 
L 319.058603 265.108192 
L 319.114641 265.088757 
L 319.389256 265.155474 
L 319.514746 265.412307 
L 319.860174 265.380365 
L 320.076135 265.756286 
L 320.076135 265.731668 
L 320.076135 265.613804 
L 320.088055 265.752559 
L 320.174472 265.738988 
L 320.8707 265.626837 
L 320.8707 265.604406 
L 320.883448 265.743161 
L 320.938975 265.738672 
L 327.002205 265.684699 
L 327.002205 265.486753 
L 327.031298 265.714619 
L 331.312352 265.646004 
L 331.312352 263.88942 
L 331.41265 265.511544 
L 332.238749 265.518791 
L 332.35951 265.794314 
L 332.392449 265.710513 
L 332.471642 265.788126 
L 333.007991 265.677217 
L 333.008002 265.493502 
L 333.089592 265.79123 
L 333.104487 265.780566 
L 333.971359 265.65257 
L 333.97137 265.483728 
L 334.048678 265.789792 
L 334.077498 265.788972 
L 336.800301 265.668529 
L 336.800301 265.463599 
L 336.800824 265.783644 
L 336.900175 265.783023 
L 336.941994 265.760524 
L 336.941994 265.641791 
L 336.989534 265.78556 
L 337.998774 265.682621 
L 338.076071 265.607704 
L 338.099181 265.726637 
L 338.819849 265.735914 
L 338.83773 264.775468 
L 338.899282 265.722044 
L 338.937135 265.649379 
L 338.937135 265.576838 
L 338.978801 265.759203 
L 343.755486 265.634163 
L 343.755486 265.604791 
L 343.798548 265.755648 
L 343.838362 265.748229 
L 344.330473 265.757286 
L 344.330473 265.751223 
L 344.412957 265.60716 
L 344.335736 265.75618 
L 344.434978 265.720621 
L 345.257829 265.61075 
L 345.257829 265.420735 
L 345.259638 265.776189 
L 345.348986 265.766277 
L 346.203981 265.652563 
L 346.203981 265.577878 
L 346.245582 265.772049 
L 346.311808 265.768601 
L 346.390435 265.785854 
L 346.390435 265.784873 
L 347.149838 265.697587 
L 347.149838 265.407826 
L 347.150557 265.794662 
L 347.248851 265.781801 
L 347.474781 265.782729 
L 350.411105 265.67628 
L 350.411105 265.478433 
L 350.413971 265.783688 
L 350.470129 265.782756 
L 350.548799 265.708338 
L 350.548799 265.608919 
L 350.563029 265.797795 
L 350.587959 265.793162 
L 351.90253 265.766924 
L 351.90253 265.727767 
L 351.90253 265.669032 
L 351.917131 265.788305 
L 352.008571 265.785413 
L 352.039853 265.595256 
L 352.044658 265.793473 
L 352.120212 265.777957 
L 352.198293 265.705233 
L 352.204766 265.79707 
L 353.810905 265.685775 
L 353.874985 265.387261 
L 353.879659 265.791419 
L 353.913927 265.790348 
L 357.963919 265.73886 
L 357.963919 262.789505 
L 357.973987 265.777551 
L 358.003406 265.776508 
L 360.476471 265.693648 
L 360.476471 265.634656 
L 360.488479 265.793234 
L 360.55513 265.791062 
L 360.790159 265.694936 
L 360.790159 265.492525 
L 360.791641 265.791734 
L 363.175957 265.680068 
L 363.191266 265.258704 
L 363.305316 265.357815 
L 363.316561 265.575859 
L 363.496019 265.469533 
L 363.548103 264.513293 
L 363.591164 265.245631 
L 363.622577 265.213136 
L 363.733718 265.658552 
L 363.733718 265.655552 
L 364.092275 265.540597 
L 364.123438 265.516193 
L 364.176611 265.65496 
L 364.202707 265.642323 
L 364.364253 265.61505 
L 364.401365 265.754847 
L 364.458918 265.744436 
L 364.487804 265.684143 
L 364.557757 265.750258 
L 365.03068 265.636057 
L 365.06667 265.563935 
L 365.123057 265.755779 
L 366.008288 265.644945 
L 366.03773 265.724234 
L 366.131959 265.670205 
L 366.244472 265.698434 
L 366.36531 265.589772 
L 366.36531 265.472714 
L 366.474816 265.736648 
L 367.850884 265.620857 
L 368.137527 265.691048 
L 370.083951 265.657836 
L 370.149666 265.072094 
L 370.192553 265.091916 
L 370.220469 265.196165 
L 370.276398 265.731364 
L 370.361518 265.714995 
L 373.622665 265.615841 
L 373.622665 265.545319 
L 373.727606 265.77712 
L 376.336621 265.631467 
L 376.447413 265.087762 
L 376.489308 265.005752 
L 376.577425 265.616434 
L 376.627133 265.597538 
L 376.723411 265.617077 
L 376.723411 265.605889 
L 376.830988 265.504407 
L 377.41965 265.49963 
L 377.459203 265.697491 
L 377.540836 265.659216 
L 377.695648 265.676321 
L 377.751458 265.775092 
L 377.751458 265.775089 
L 377.879563 265.774825 
L 378.599337 265.700353 
L 378.614712 265.491637 
L 378.664975 265.749325 
L 378.675174 265.736858 
L 378.792503 265.756221 
L 378.792503 265.750951 
L 382.485637 265.709929 
L 382.485637 265.611806 
L 382.496958 265.790206 
L 382.584672 265.773507 
L 382.612064 265.79333 
L 383.12198 265.688707 
L 383.183543 265.57164 
L 383.201467 265.769862 
L 386.017192 265.660258 
L 386.11383 265.619422 
L 386.937978 265.616317 
L 387.134413 265.791367 
L 389.501709 265.647956 
L 389.581 265.552957 
L 389.594718 265.572779 
L 389.662372 265.570814 
L 389.670403 265.788858 
L 389.742916 265.783572 
L 390.121043 265.681168 
L 390.121043 265.627968 
L 390.1632 265.786545 
L 390.459313 265.681024 
L 390.526694 265.511675 
L 390.546634 265.769364 
L 391.394906 265.660218 
L 391.394917 265.45524 
L 391.484406 265.766363 
L 391.50159 265.757561 
L 391.706055 265.770936 
L 396.13717 265.650459 
L 396.240487 265.577343 
L 396.305449 265.603649 
L 396.415587 265.757616 
L 396.415587 265.741213 
L 398.487273 265.782707 
L 398.487273 265.782707 
" style="fill:none;stroke:#ff0000;stroke-linecap:square;stroke-width:1.5;"/>
   </g>
   <g id="line2d_27">
    <path clip-path="url(#p4640ee50ca)" d="M 73.832727 265.797818 
L 76.656995 265.659063 
L 76.656995 261.278357 
L 77.598418 261.080135 
L 77.598418 257.868939 
L 78.539841 257.730184 
L 78.539841 256.302985 
L 79.481263 256.104763 
L 79.481263 245.935976 
L 79.481263 246.272953 
L 80.112997 246.074731 
L 80.134419 230.216972 
L 80.342534 230.018751 
L 80.422686 219.279027 
L 80.422686 219.578363 
L 80.607473 219.383654 
L 80.687167 218.20259 
L 81.364109 217.905257 
L 81.364109 216.676281 
L 82.305531 216.319481 
L 82.305531 216.299659 
L 82.305531 216.299919 
L 83.246954 216.200808 
L 83.246954 216.022408 
L 83.246954 216.321476 
L 87.012645 216.143076 
L 87.012645 216.123254 
L 87.012645 216.321476 
L 88.89549 216.262009 
L 88.89549 216.08361 
L 88.89549 216.281832 
L 92.661181 216.08361 
L 92.661181 216.103432 
L 92.661181 216.301654 
L 106.782521 216.188856 
L 106.782521 216.192287 
L 106.782521 216.392077 
L 107.723944 216.292966 
L 107.723944 216.0551 
L 107.723944 216.156455 
L 108.665366 216.037522 
L 108.665366 216.0177 
L 108.665366 216.147978 
L 109.606789 216.029045 
L 109.606789 216.009222 
L 109.606789 216.05502 
L 112.431057 215.919689 
L 112.431057 215.800755 
L 112.431057 216.079877 
L 113.37248 215.960943 
L 113.37248 215.921299 
L 113.37248 215.969848 
L 114.313902 215.850915 
L 114.313902 215.513937 
L 114.313902 215.746146 
L 115.255325 215.627213 
L 115.255325 215.567746 
L 115.255325 215.613365 
L 116.196748 215.494432 
L 116.196748 215.415143 
L 116.196748 215.577606 
L 119.021016 215.422177 
L 119.021016 215.204133 
L 119.021016 215.319132 
L 120.903861 215.187962 
L 120.903861 212.293921 
L 120.903861 212.305327 
L 121.521811 212.107105 
L 121.536194 208.202132 
L 121.845284 208.122843 
L 121.845284 206.893867 
L 121.845284 207.412169 
L 122.786706 207.313058 
L 122.786706 206.797681 
L 122.786706 207.004536 
L 124.669552 206.748764 
L 125.610974 206.629831 
L 125.610974 206.570364 
L 125.610974 206.757546 
L 127.49382 206.60698 
L 127.49382 206.703625 
L 127.49382 206.723448 
L 128.435242 206.604514 
L 128.435242 206.584692 
L 128.435242 206.632248 
L 128.435242 206.632248 
L 129.376665 206.513315 
L 129.376665 206.493492 
L 129.376665 206.53132 
L 132.200933 206.372932 
L 132.200933 206.035955 
L 132.200933 206.277441 
L 134.083778 206.132825 
L 134.083778 206.073359 
L 134.083778 206.079512 
L 135.966624 205.929443 
L 135.966624 205.909621 
L 135.966624 205.937193 
L 138.790892 205.799325 
L 138.790892 205.660569 
L 138.790892 205.90481 
L 139.732315 205.785877 
L 139.732315 205.686766 
L 139.732315 205.792959 
L 140.673737 205.674025 
L 140.673737 205.574914 
L 140.673737 205.65503 
L 142.556583 205.516779 
L 142.556583 205.457312 
L 142.556583 205.506473 
L 146.322273 205.330352 
L 146.322273 205.31053 
L 146.322273 205.315946 
L 155.7365 205.078579 
L 155.7365 204.54338 
L 155.7365 205.059384 
L 159.502191 205.002729 
L 159.502191 204.982906 
L 159.502191 204.705396 
L 159.502191 204.843077 
L 160.14822 204.957953 
L 160.18093 205.519737 
L 160.181072 206.222674 
L 160.181355 205.429786 
L 160.441107 205.424463 
L 160.443613 205.16704 
L 160.443613 205.197686 
L 161.385036 205.078753 
L 161.385036 204.484087 
L 161.385036 204.908954 
L 162.326459 204.869309 
L 162.326459 204.671087 
L 162.326459 204.689922 
L 165.150727 204.653684 
L 165.150727 204.594218 
L 165.150727 204.534751 
L 165.150727 204.568085 
L 167.033572 204.430234 
L 167.033572 204.410412 
L 167.033572 204.435962 
L 170.799263 204.3074 
L 170.799263 204.311133 
L 171.740685 204.112911 
L 171.740685 203.934511 
L 171.740685 204.091755 
L 174.564954 203.921543 
L 174.564954 203.723321 
L 174.564954 203.803066 
L 181.154912 203.564616 
L 181.154912 203.524972 
L 181.154912 203.569799 
L 187.744871 203.33861 
L 187.744871 203.318788 
L 187.744871 203.377672 
L 188.686294 203.258739 
L 188.686294 203.238916 
L 188.686294 203.267201 
L 191.510562 203.111657 
L 191.510562 203.072013 
L 191.510562 203.109312 
L 193.393407 202.963066 
L 193.393407 202.943244 
L 193.393407 202.971772 
L 198.10052 202.770907 
L 198.10052 202.592507 
L 198.10052 202.698041 
L 199.041943 202.579108 
L 199.041943 202.559286 
L 199.041943 202.602434 
L 200.924788 202.486892 
L 200.924788 202.407604 
L 200.924788 202.466829 
L 204.690479 202.294079 
L 204.690479 202.234613 
L 204.690479 202.292878 
L 207.514747 202.159848 
L 207.514747 202.100381 
L 207.514747 202.149592 
L 211.280438 202.055127 
L 211.280438 201.242417 
L 211.280438 201.3767 
L 213.163283 201.328176 
L 213.163283 201.328553 
L 213.163283 202.517885 
L 214.104706 202.498062 
L 214.104706 201.30873 
L 214.104706 201.327886 
L 217.870397 201.150261 
L 217.870397 201.130439 
L 217.870397 201.188173 
L 220.694665 201.025445 
L 220.694665 200.906512 
L 220.694665 200.935271 
L 224.460355 200.776662 
L 224.460355 200.737018 
L 224.460355 200.801413 
L 226.343201 200.663678 
L 226.343201 200.624034 
L 226.343201 200.851943 
L 227.284623 200.614077 
L 227.284623 200.336566 
L 227.284623 200.556041 
L 228.226046 200.523767 
L 228.226046 200.484122 
L 228.226046 200.365189 
L 228.226046 200.507342 
L 229.167469 200.368702 
L 229.167469 200.34888 
L 229.167469 200.352369 
L 231.991737 200.19422 
L 231.991737 200.114931 
L 231.991737 200.161403 
L 233.874582 200.030363 
L 233.874582 199.970896 
L 233.874582 199.983774 
L 240.464541 199.796608 
L 240.464541 199.499275 
L 240.552549 199.64332 
L 241.142354 199.699445 
L 241.142964 199.635431 
L 241.145852 200.171459 
L 241.148816 199.697298 
L 241.405963 199.98523 
L 241.405963 199.98523 
L 242.02715 200.028517 
L 242.225633 200.217988 
L 242.227071 201.161232 
L 242.230918 200.086097 
L 242.979262 200.025051 
L 242.97949 203.533496 
L 243.079691 200.458162 
L 243.09379 200.588899 
L 243.097975 202.252911 
L 243.094717 200.488192 
L 243.19082 201.106492 
L 243.241062 200.571292 
L 243.243045 201.622064 
L 243.2431 202.757943 
L 243.30025 200.654774 
L 243.342723 200.665014 
L 244.230231 200.228926 
L 244.230231 198.702616 
L 244.230231 198.730135 
L 244.532587 198.613476 
L 244.611835 198.53482 
L 244.661586 198.475702 
L 244.770754 180.082227 
L 244.780648 179.845099 
L 244.889652 167.958782 
L 244.899502 167.734644 
L 244.998319 152.923765 
L 245.171654 152.944319 
L 245.76268 152.831784 
L 245.852104 151.677719 
L 245.921632 151.655474 
L 246.113077 150.466142 
L 246.189883 150.533458 
L 246.418287 150.414757 
L 246.527553 142.97998 
L 246.537447 142.722292 
L 246.646724 133.727213 
L 246.666566 132.424604 
L 246.775886 116.106842 
L 246.785758 115.851408 
L 246.894981 104.857427 
L 246.904863 104.66282 
L 247.014064 91.5947 
L 247.023969 91.337747 
L 247.113295 84.074123 
L 247.35144 83.957204 
L 247.460619 83.606367 
L 247.619658 83.508747 
L 247.725089 79.804961 
L 247.995922 79.765373 
L 247.995922 79.861875 
L 247.995922 79.986063 
L 248.539692 79.809215 
L 248.559577 79.71016 
L 248.678682 79.603736 
L 248.718366 79.564092 
L 249.878768 79.496004 
L 251.132102 79.336911 
L 251.241379 79.063673 
L 251.400396 78.842272 
L 253.069297 78.470395 
L 253.148751 78.331926 
L 254.585881 78.231853 
L 254.585881 78.369184 
L 254.585881 78.397169 
L 255.09523 78.295448 
L 255.273915 78.017747 
L 257.410149 77.973752 
L 257.410149 78.112458 
L 257.410149 78.62474 
L 258.01498 78.393144 
L 258.154014 77.731485 
L 260.234417 77.111455 
L 260.234417 77.149132 
L 260.234417 77.305167 
L 260.298366 77.300241 
L 260.536686 77.102585 
L 260.64593 76.724767 
L 260.794945 76.612745 
L 261.17584 76.592923 
L 261.17584 76.681223 
L 261.17584 78.167888 
L 261.470209 77.970825 
L 261.54963 77.714587 
L 261.58939 77.6753 
L 261.658918 77.281798 
L 261.768228 76.436987 
L 262.989767 76.320898 
L 262.989767 76.301388 
L 263.058685 76.316659 
L 264.488863 76.155339 
L 264.627821 76.076605 
L 265.362512 75.909464 
L 265.882953 75.773046 
L 265.882953 75.777362 
L 265.882953 76.120477 
L 265.899003 76.107022 
L 266.594 75.999642 
L 266.60398 75.706534 
L 268.063872 75.624865 
L 268.143326 75.585334 
L 271.531489 75.472366 
L 271.531489 75.636528 
L 271.531489 75.75313 
L 271.531489 75.75313 
L 272.244889 75.542975 
L 272.324376 75.473347 
L 272.472912 75.423742 
L 272.472912 75.427836 
L 272.472912 75.766914 
L 272.931114 75.667203 
L 273.000653 75.41315 
L 273.414334 75.310949 
L 273.414334 75.356713 
L 273.879086 75.062196 
L 277.180025 74.867839 
L 277.180025 74.90295 
L 277.180025 75.22211 
L 277.485541 75.143166 
L 277.584968 74.181552 
L 277.664607 74.089883 
L 277.936312 73.679056 
L 278.412853 73.640365 
L 278.502277 73.424365 
L 278.760406 73.207592 
L 278.958998 73.110451 
L 279.06287 73.110514 
L 279.06287 73.111063 
L 279.06287 73.612097 
L 279.59861 73.178012 
L 279.697862 72.963073 
L 280.004293 72.906565 
L 280.004293 72.949132 
L 280.004293 73.190373 
L 280.004293 73.190373 
L 280.418399 73.061916 
L 280.527665 72.97033 
L 280.716614 72.835702 
L 280.816216 72.658985 
L 280.945716 72.725777 
L 280.945716 73.222488 
L 281.81104 73.056657 
L 281.887138 72.52944 
L 281.887138 72.529707 
L 284.304285 72.390381 
L 284.582397 72.232381 
L 285.039423 72.130975 
L 285.258173 72.054609 
L 285.652829 72.000682 
L 285.652829 72.112315 
L 285.652829 72.197791 
L 286.172061 72.102112 
L 286.172072 71.983942 
L 286.917332 71.88209 
L 287.116131 71.823853 
L 287.535675 71.705314 
L 287.535675 71.724151 
L 287.535675 71.901681 
L 287.838575 71.774919 
L 287.918117 71.553361 
L 288.477097 71.342834 
L 288.477097 71.347982 
L 288.477097 71.547178 
L 288.911307 71.542196 
L 289.020594 71.363497 
L 290.359943 71.42794 
L 290.77941 70.74757 
L 290.848905 70.669004 
L 292.896347 70.327054 
L 292.936106 70.287766 
L 294.649877 70.190491 
L 295.484474 70.065399 
L 297.392621 69.956466 
L 297.791254 69.87724 
L 297.891324 69.885966 
L 297.891324 70.074122 
L 297.910381 70.070851 
L 298.387467 69.926955 
L 298.427238 69.826924 
L 298.832747 69.792206 
L 298.832747 69.862075 
L 298.832747 69.929237 
L 298.884133 69.928823 
L 299.390845 69.828187 
L 299.430528 69.735936 
L 299.774169 69.694948 
L 299.774169 69.711332 
L 300.715592 69.638336 
L 300.715592 69.519403 
L 300.715592 69.646302 
L 303.53986 69.462635 
L 303.53986 69.501024 
L 303.53986 69.683265 
L 304.388688 69.295312 
L 304.481283 69.176624 
L 304.481283 69.329927 
L 304.796561 69.131705 
L 304.866057 68.973784 
L 305.422705 68.810391 
L 305.422705 68.612169 
L 305.422705 69.057178 
L 305.721531 68.938423 
L 305.721563 68.581623 
L 306.000209 68.478701 
L 306.65622 68.150911 
L 306.745688 68.057798 
L 306.944203 67.94537 
L 307.305551 67.489459 
L 307.305551 67.231771 
L 307.305551 67.516566 
L 308.246973 67.496744 
L 308.246973 67.357988 
L 308.246973 67.360063 
L 310.129819 67.184148 
L 310.129819 66.906637 
L 310.129819 67.152146 
L 311.071241 67.072857 
L 311.071241 66.755702 
L 311.071241 66.800786 
L 312.012664 66.701675 
L 312.012664 66.56292 
L 312.012664 66.736165 
L 312.954087 66.656876 
L 312.954087 66.518121 
L 312.954087 66.530388 
L 313.895509 66.451099 
L 313.895509 66.2727 
L 313.895509 66.347252 
L 315.778355 66.20701 
L 315.778355 66.187188 
L 315.778355 66.187906 
L 316.719777 65.870751 
L 316.719777 65.850929 
L 316.719777 66.113323 
L 317.6612 65.756523 
L 317.6612 65.782547 
L 318.602623 65.584325 
L 318.602623 65.168059 
L 318.602623 65.25983 
L 319.544045 65.041786 
L 319.544045 64.605697 
L 319.544045 64.772105 
L 321.426891 64.537593 
L 321.426891 64.537854 
L 323.309736 64.419664 
L 323.309736 64.320553 
L 323.309736 64.40292 
L 326.134004 63.947656 
L 326.134004 63.868367 
L 326.134004 64.135374 
L 327.021328 64.031561 
L 327.075427 63.853486 
L 327.075427 64.011684 
L 327.448596 63.875446 
L 328.01685 63.778507 
L 328.01685 63.784493 
L 330.841118 63.69794 
L 330.841118 62.290564 
L 330.841118 64.155987 
L 331.156331 64.037819 
L 331.25567 63.998532 
L 331.315436 63.862722 
L 331.345334 63.698561 
L 331.78254 63.598241 
L 331.78254 63.70358 
L 332.199817 63.638694 
L 332.35951 63.365031 
L 333.015161 63.261842 
L 333.104487 63.143488 
L 333.979084 62.889477 
L 334.048678 62.81078 
L 334.356623 62.612072 
L 334.606808 62.515722 
L 334.606808 62.516809 
L 336.489654 62.459765 
L 336.489654 62.490688 
L 336.489654 62.676444 
L 336.800792 62.576464 
L 336.900175 62.19042 
L 337.138592 61.915261 
L 337.431076 61.855794 
L 337.431076 61.657572 
L 337.431076 61.902694 
L 338.372499 61.68657 
L 338.372499 61.646926 
L 338.372499 62.754216 
L 338.819849 62.691864 
L 338.978801 61.760479 
L 339.313922 61.668112 
L 339.313922 61.64829 
L 339.313922 61.705894 
L 340.624123 61.569237 
L 343.079612 61.392988 
L 343.079612 61.1353 
L 343.079612 61.420732 
L 343.539754 61.308681 
L 343.86813 61.176529 
L 344.021035 61.077902 
L 344.021035 61.142982 
L 344.335736 61.091233 
L 344.603791 60.914589 
L 344.962458 60.839724 
L 344.962458 60.982063 
L 344.962458 60.995351 
L 345.259627 60.877897 
L 345.348986 60.533623 
L 345.90388 60.396106 
L 345.90388 60.487732 
L 346.205768 60.370274 
L 346.29529 60.279682 
L 347.150557 60.000122 
L 347.150557 59.806503 
L 347.717023 59.761856 
L 347.786726 59.761856 
L 347.786726 59.859962 
L 347.786726 59.8765 
L 348.692671 59.77361 
L 348.728148 59.753788 
L 348.728148 59.760667 
L 349.669571 59.660484 
L 349.669571 59.788873 
L 349.669571 60.039324 
L 350.404088 59.870158 
L 350.413971 59.583154 
L 350.702009 59.439118 
L 351.552416 59.240141 
L 351.552416 59.244818 
L 351.552416 59.564658 
L 351.646101 59.561797 
L 351.855513 59.534906 
L 352.044658 59.21472 
L 352.284285 59.125342 
L 353.064795 59.017911 
L 353.435262 58.998334 
L 353.435262 59.03112 
L 353.435262 59.629919 
L 353.820047 59.472686 
L 353.879659 59.000256 
L 355.128101 58.894221 
L 356.25953 58.87449 
L 356.25953 58.755557 
L 356.25953 58.94848 
L 356.829799 58.842283 
L 357.200952 58.818056 
L 357.200952 58.845008 
L 357.200952 61.732265 
L 357.964039 61.664799 
L 357.973987 58.924054 
L 360.025221 58.638592 
L 360.025221 58.787752 
L 360.025221 58.952123 
L 360.648063 58.948276 
L 360.966643 58.653414 
L 360.966643 58.653608 
L 362.849489 58.61397 
L 362.849489 57.583216 
L 362.849489 58.398847 
L 363.790911 58.220448 
L 363.790911 57.70507 
L 363.790911 57.820156 
L 364.732334 57.542645 
L 364.732334 57.443534 
L 364.732334 57.507959 
L 365.673757 57.389026 
L 365.673757 57.012404 
L 365.673757 57.30889 
L 366.615179 57.209779 
L 366.615179 57.051201 
L 366.615179 57.245809 
L 369.439447 56.855652 
L 369.439447 56.241164 
L 369.439447 56.862526 
L 370.38087 56.723771 
L 370.38087 56.738676 
L 371.322293 56.520631 
L 371.322293 56.42152 
L 371.322293 56.497633 
L 373.205138 56.370721 
L 373.205138 56.113032 
L 373.205138 56.288373 
L 376.029406 56.214697 
L 376.029406 55.401987 
L 376.029406 55.632896 
L 376.970829 55.613074 
L 376.970829 55.256274 
L 376.970829 55.314517 
L 377.912251 55.235229 
L 377.912251 54.957718 
L 377.912251 55.209033 
L 378.853674 55.0901 
L 378.853674 54.951344 
L 378.853674 55.038087 
L 379.795097 54.919154 
L 379.795097 54.820043 
L 379.795097 54.922045 
L 381.677942 54.882632 
L 381.677942 54.68441 
L 381.677942 54.896837 
L 382.619365 54.83737 
L 382.619365 54.579682 
L 382.619365 54.812418 
L 383.560787 54.733129 
L 383.560787 54.574552 
L 383.560787 54.698782 
L 385.443633 54.540575 
L 385.443633 54.680258 
L 385.443633 54.715964 
L 386.385055 54.67632 
L 386.385055 54.398809 
L 386.385055 54.468776 
L 388.267901 54.450934 
L 388.267901 54.451163 
L 389.209323 54.213297 
L 389.209323 53.935786 
L 389.209323 54.169876 
L 390.150746 53.991477 
L 390.150746 53.595033 
L 390.150746 53.664314 
L 391.092169 53.525559 
L 391.092169 53.168759 
L 391.092169 53.271905 
L 392.033591 53.152972 
L 392.033591 53.034039 
L 392.033591 53.093834 
L 393.916437 52.979429 
L 393.916437 52.939784 
L 393.916437 52.977248 
L 395.799282 52.839235 
L 395.799282 52.502257 
L 395.799282 52.59027 
L 396.740705 52.491159 
L 396.740705 52.154182 
L 396.740705 52.254292 
L 397.682128 52.317226 
L 397.682128 52.317226 
" style="fill:none;stroke:#008000;stroke-linecap:square;stroke-width:1.5;"/>
   </g>
   <g id="line2d_28">
    <defs>
     <path d="M 0 3 
C 0.795609 3 1.55874 2.683901 2.12132 2.12132 
C 2.683901 1.55874 3 0.795609 3 0 
C 3 -0.795609 2.683901 -1.55874 2.12132 -2.12132 
C 1.55874 -2.683901 0.795609 -3 0 -3 
C -0.795609 -3 -1.55874 -2.683901 -2.12132 -2.12132 
C -2.683901 -1.55874 -3 -0.795609 -3 0 
C -3 0.795609 -2.683901 1.55874 -2.12132 2.12132 
C -1.55874 2.683901 -0.795609 3 0 3 
z
" id="mabb4bea031" style="stroke:#bfbf00;"/>
    </defs>
    <g clip-path="url(#p4640ee50ca)">
     <use style="fill:#bfbf00;stroke:#bfbf00;" x="76.689989" xlink:href="#mabb4bea031" y="255.886719"/>
     <use style="fill:#bfbf00;stroke:#bfbf00;" x="79.891774" xlink:href="#mabb4bea031" y="226.153422"/>
     <use style="fill:#bfbf00;stroke:#bfbf00;" x="244.66066" xlink:href="#mabb4bea031" y="216.242323"/>
     <use style="fill:#bfbf00;stroke:#bfbf00;" x="246.449363" xlink:href="#mabb4bea031" y="216.242323"/>
     <use style="fill:#bfbf00;stroke:#bfbf00;" x="246.804118" xlink:href="#mabb4bea031" y="255.886719"/>
     <use style="fill:#bfbf00;stroke:#bfbf00;" x="246.870192" xlink:href="#mabb4bea031" y="255.886719"/>
     <use style="fill:#bfbf00;stroke:#bfbf00;" x="247.620573" xlink:href="#mabb4bea031" y="261.833379"/>
    </g>
   </g>
   <g id="line2d_29">
    <defs>
     <path d="M 0 3 
C 0.795609 3 1.55874 2.683901 2.12132 2.12132 
C 2.683901 1.55874 3 0.795609 3 0 
C 3 -0.795609 2.683901 -1.55874 2.12132 -2.12132 
C 1.55874 -2.683901 0.795609 -3 0 -3 
C -0.795609 -3 -1.55874 -2.683901 -2.12132 -2.12132 
C -2.683901 -1.55874 -3 -0.795609 -3 0 
C -3 0.795609 -2.683901 1.55874 -2.12132 2.12132 
C -1.55874 2.683901 -0.795609 3 0 3 
z
" id="mf6056a8ec6" style="stroke:#008000;"/>
    </defs>
    <g clip-path="url(#p4640ee50ca)">
     <use style="fill:#008000;stroke:#008000;" x="121.453068" xlink:href="#mf6056a8ec6" y="257.355148"/>
     <use style="fill:#008000;stroke:#008000;" x="211.829863" xlink:href="#mf6056a8ec6" y="263.82095"/>
    </g>
   </g>
   <g id="patch_3">
    <path d="M 57.6 276.48 
L 57.6 41.472 
" style="fill:none;stroke:#000000;stroke-linecap:square;stroke-linejoin:miter;stroke-width:0.8;"/>
   </g>
   <g id="patch_4">
    <path d="M 414.72 276.48 
L 414.72 41.472 
" style="fill:none;stroke:#000000;stroke-linecap:square;stroke-linejoin:miter;stroke-width:0.8;"/>
   </g>
   <g id="patch_5">
    <path d="M 57.6 276.48 
L 414.72 276.48 
" style="fill:none;stroke:#000000;stroke-linecap:square;stroke-linejoin:miter;stroke-width:0.8;"/>
   </g>
   <g id="patch_6">
    <path d="M 57.6 41.472 
L 414.72 41.472 
" style="fill:none;stroke:#000000;stroke-linecap:square;stroke-linejoin:miter;stroke-width:0.8;"/>
   </g>
   <g id="text_15">
    <!-- My Bondora earnings -->
    <defs>
     <path d="M 9.8125 72.90625 
L 24.515625 72.90625 
L 43.109375 23.296875 
L 61.8125 72.90625 
L 76.515625 72.90625 
L 76.515625 0 
L 66.890625 0 
L 66.890625 64.015625 
L 48.09375 14.015625 
L 38.1875 14.015625 
L 19.390625 64.015625 
L 19.390625 0 
L 9.8125 0 
z
" id="DejaVuSans-4d"/>
     <path d="M 32.171875 -5.078125 
Q 28.375 -14.84375 24.75 -17.8125 
Q 21.140625 -20.796875 15.09375 -20.796875 
L 7.90625 -20.796875 
L 7.90625 -13.28125 
L 13.1875 -13.28125 
Q 16.890625 -13.28125 18.9375 -11.515625 
Q 21 -9.765625 23.484375 -3.21875 
L 25.09375 0.875 
L 2.984375 54.6875 
L 12.5 54.6875 
L 29.59375 11.921875 
L 46.6875 54.6875 
L 56.203125 54.6875 
z
" id="DejaVuSans-79"/>
     <path id="DejaVuSans-20"/>
     <path d="M 19.671875 34.8125 
L 19.671875 8.109375 
L 35.5 8.109375 
Q 43.453125 8.109375 47.28125 11.40625 
Q 51.125 14.703125 51.125 21.484375 
Q 51.125 28.328125 47.28125 31.5625 
Q 43.453125 34.8125 35.5 34.8125 
z
M 19.671875 64.796875 
L 19.671875 42.828125 
L 34.28125 42.828125 
Q 41.5 42.828125 45.03125 45.53125 
Q 48.578125 48.25 48.578125 53.8125 
Q 48.578125 59.328125 45.03125 62.0625 
Q 41.5 64.796875 34.28125 64.796875 
z
M 9.8125 72.90625 
L 35.015625 72.90625 
Q 46.296875 72.90625 52.390625 68.21875 
Q 58.5 63.53125 58.5 54.890625 
Q 58.5 48.1875 55.375 44.234375 
Q 52.25 40.28125 46.1875 39.3125 
Q 53.46875 37.75 57.5 32.78125 
Q 61.53125 27.828125 61.53125 20.40625 
Q 61.53125 10.640625 54.890625 5.3125 
Q 48.25 0 35.984375 0 
L 9.8125 0 
z
" id="DejaVuSans-42"/>
     <path d="M 30.609375 48.390625 
Q 23.390625 48.390625 19.1875 42.75 
Q 14.984375 37.109375 14.984375 27.296875 
Q 14.984375 17.484375 19.15625 11.84375 
Q 23.34375 6.203125 30.609375 6.203125 
Q 37.796875 6.203125 41.984375 11.859375 
Q 46.1875 17.53125 46.1875 27.296875 
Q 46.1875 37.015625 41.984375 42.703125 
Q 37.796875 48.390625 30.609375 48.390625 
z
M 30.609375 56 
Q 42.328125 56 49.015625 48.375 
Q 55.71875 40.765625 55.71875 27.296875 
Q 55.71875 13.875 49.015625 6.21875 
Q 42.328125 -1.421875 30.609375 -1.421875 
Q 18.84375 -1.421875 12.171875 6.21875 
Q 5.515625 13.875 5.515625 27.296875 
Q 5.515625 40.765625 12.171875 48.375 
Q 18.84375 56 30.609375 56 
z
" id="DejaVuSans-6f"/>
     <path d="M 54.890625 33.015625 
L 54.890625 0 
L 45.90625 0 
L 45.90625 32.71875 
Q 45.90625 40.484375 42.875 44.328125 
Q 39.84375 48.1875 33.796875 48.1875 
Q 26.515625 48.1875 22.3125 43.546875 
Q 18.109375 38.921875 18.109375 30.90625 
L 18.109375 0 
L 9.078125 0 
L 9.078125 54.6875 
L 18.109375 54.6875 
L 18.109375 46.1875 
Q 21.34375 51.125 25.703125 53.5625 
Q 30.078125 56 35.796875 56 
Q 45.21875 56 50.046875 50.171875 
Q 54.890625 44.34375 54.890625 33.015625 
z
" id="DejaVuSans-6e"/>
     <path d="M 41.109375 46.296875 
Q 39.59375 47.171875 37.8125 47.578125 
Q 36.03125 48 33.890625 48 
Q 26.265625 48 22.1875 43.046875 
Q 18.109375 38.09375 18.109375 28.8125 
L 18.109375 0 
L 9.078125 0 
L 9.078125 54.6875 
L 18.109375 54.6875 
L 18.109375 46.1875 
Q 20.953125 51.171875 25.484375 53.578125 
Q 30.03125 56 36.53125 56 
Q 37.453125 56 38.578125 55.875 
Q 39.703125 55.765625 41.0625 55.515625 
z
" id="DejaVuSans-72"/>
     <path d="M 9.421875 54.6875 
L 18.40625 54.6875 
L 18.40625 0 
L 9.421875 0 
z
M 9.421875 75.984375 
L 18.40625 75.984375 
L 18.40625 64.59375 
L 9.421875 64.59375 
z
" id="DejaVuSans-69"/>
     <path d="M 45.40625 27.984375 
Q 45.40625 37.75 41.375 43.109375 
Q 37.359375 48.484375 30.078125 48.484375 
Q 22.859375 48.484375 18.828125 43.109375 
Q 14.796875 37.75 14.796875 27.984375 
Q 14.796875 18.265625 18.828125 12.890625 
Q 22.859375 7.515625 30.078125 7.515625 
Q 37.359375 7.515625 41.375 12.890625 
Q 45.40625 18.265625 45.40625 27.984375 
z
M 54.390625 6.78125 
Q 54.390625 -7.171875 48.1875 -13.984375 
Q 42 -20.796875 29.203125 -20.796875 
Q 24.46875 -20.796875 20.265625 -20.09375 
Q 16.0625 -19.390625 12.109375 -17.921875 
L 12.109375 -9.1875 
Q 16.0625 -11.328125 19.921875 -12.34375 
Q 23.78125 -13.375 27.78125 -13.375 
Q 36.625 -13.375 41.015625 -8.765625 
Q 45.40625 -4.15625 45.40625 5.171875 
L 45.40625 9.625 
Q 42.625 4.78125 38.28125 2.390625 
Q 33.9375 0 27.875 0 
Q 17.828125 0 11.671875 7.65625 
Q 5.515625 15.328125 5.515625 27.984375 
Q 5.515625 40.671875 11.671875 48.328125 
Q 17.828125 56 27.875 56 
Q 33.9375 56 38.28125 53.609375 
Q 42.625 51.21875 45.40625 46.390625 
L 45.40625 54.6875 
L 54.390625 54.6875 
z
" id="DejaVuSans-67"/>
     <path d="M 44.28125 53.078125 
L 44.28125 44.578125 
Q 40.484375 46.53125 36.375 47.5 
Q 32.28125 48.484375 27.875 48.484375 
Q 21.1875 48.484375 17.84375 46.4375 
Q 14.5 44.390625 14.5 40.28125 
Q 14.5 37.15625 16.890625 35.375 
Q 19.28125 33.59375 26.515625 31.984375 
L 29.59375 31.296875 
Q 39.15625 29.25 43.1875 25.515625 
Q 47.21875 21.78125 47.21875 15.09375 
Q 47.21875 7.46875 41.1875 3.015625 
Q 35.15625 -1.421875 24.609375 -1.421875 
Q 20.21875 -1.421875 15.453125 -0.5625 
Q 10.6875 0.296875 5.421875 2 
L 5.421875 11.28125 
Q 10.40625 8.6875 15.234375 7.390625 
Q 20.0625 6.109375 24.8125 6.109375 
Q 31.15625 6.109375 34.5625 8.28125 
Q 37.984375 10.453125 37.984375 14.40625 
Q 37.984375 18.0625 35.515625 20.015625 
Q 33.0625 21.96875 24.703125 23.78125 
L 21.578125 24.515625 
Q 13.234375 26.265625 9.515625 29.90625 
Q 5.8125 33.546875 5.8125 39.890625 
Q 5.8125 47.609375 11.28125 51.796875 
Q 16.75 56 26.8125 56 
Q 31.78125 56 36.171875 55.265625 
Q 40.578125 54.546875 44.28125 53.078125 
z
" id="DejaVuSans-73"/>
    </defs>
    <g transform="translate(172.363125 35.472)scale(0.12 -0.12)">
     <use xlink:href="#DejaVuSans-4d"/>
     <use x="86.279297" xlink:href="#DejaVuSans-79"/>
     <use x="145.458984" xlink:href="#DejaVuSans-20"/>
     <use x="177.246094" xlink:href="#DejaVuSans-42"/>
     <use x="245.849609" xlink:href="#DejaVuSans-6f"/>
     <use x="307.03125" xlink:href="#DejaVuSans-6e"/>
     <use x="370.410156" xlink:href="#DejaVuSans-64"/>
     <use x="433.886719" xlink:href="#DejaVuSans-6f"/>
     <use x="495.068359" xlink:href="#DejaVuSans-72"/>
     <use x="536.181641" xlink:href="#DejaVuSans-61"/>
     <use x="597.460938" xlink:href="#DejaVuSans-20"/>
     <use x="629.248047" xlink:href="#DejaVuSans-65"/>
     <use x="690.771484" xlink:href="#DejaVuSans-61"/>
     <use x="752.050781" xlink:href="#DejaVuSans-72"/>
     <use x="793.148438" xlink:href="#DejaVuSans-6e"/>
     <use x="856.527344" xlink:href="#DejaVuSans-69"/>
     <use x="884.310547" xlink:href="#DejaVuSans-6e"/>
     <use x="947.689453" xlink:href="#DejaVuSans-67"/>
     <use x="1011.166016" xlink:href="#DejaVuSans-73"/>
    </g>
   </g>
   <g id="legend_1">
    <g id="patch_7">
     <path d="M 64.6 122.862625 
L 158.45 122.862625 
Q 160.45 122.862625 160.45 120.862625 
L 160.45 48.472 
Q 160.45 46.472 158.45 46.472 
L 64.6 46.472 
Q 62.6 46.472 62.6 48.472 
L 62.6 120.862625 
Q 62.6 122.862625 64.6 122.862625 
z
" style="fill:#ffffff;opacity:0.8;stroke:#cccccc;stroke-linejoin:miter;"/>
    </g>
    <g id="line2d_30">
     <path d="M 66.6 54.570437 
L 86.6 54.570437 
" style="fill:none;stroke:#0000ff;stroke-linecap:square;stroke-width:1.5;"/>
    </g>
    <g id="line2d_31"/>
    <g id="text_16">
     <!-- Interest -->
     <defs>
      <path d="M 9.8125 72.90625 
L 19.671875 72.90625 
L 19.671875 0 
L 9.8125 0 
z
" id="DejaVuSans-49"/>
     </defs>
     <g transform="translate(94.6 58.070437)scale(0.1 -0.1)">
      <use xlink:href="#DejaVuSans-49"/>
      <use x="29.492188" xlink:href="#DejaVuSans-6e"/>
      <use x="92.871094" xlink:href="#DejaVuSans-74"/>
      <use x="132.080078" xlink:href="#DejaVuSans-65"/>
      <use x="193.603516" xlink:href="#DejaVuSans-72"/>
      <use x="234.685547" xlink:href="#DejaVuSans-65"/>
      <use x="296.208984" xlink:href="#DejaVuSans-73"/>
      <use x="348.308594" xlink:href="#DejaVuSans-74"/>
     </g>
    </g>
    <g id="line2d_32">
     <path d="M 66.6 69.248562 
L 86.6 69.248562 
" style="fill:none;stroke:#ff0000;stroke-linecap:square;stroke-width:1.5;"/>
    </g>
    <g id="line2d_33"/>
    <g id="text_17">
     <!-- Balance -->
     <defs>
      <path d="M 9.421875 75.984375 
L 18.40625 75.984375 
L 18.40625 0 
L 9.421875 0 
z
" id="DejaVuSans-6c"/>
      <path d="M 48.78125 52.59375 
L 48.78125 44.1875 
Q 44.96875 46.296875 41.140625 47.34375 
Q 37.3125 48.390625 33.40625 48.390625 
Q 24.65625 48.390625 19.8125 42.84375 
Q 14.984375 37.3125 14.984375 27.296875 
Q 14.984375 17.28125 19.8125 11.734375 
Q 24.65625 6.203125 33.40625 6.203125 
Q 37.3125 6.203125 41.140625 7.25 
Q 44.96875 8.296875 48.78125 10.40625 
L 48.78125 2.09375 
Q 45.015625 0.34375 40.984375 -0.53125 
Q 36.96875 -1.421875 32.421875 -1.421875 
Q 20.0625 -1.421875 12.78125 6.34375 
Q 5.515625 14.109375 5.515625 27.296875 
Q 5.515625 40.671875 12.859375 48.328125 
Q 20.21875 56 33.015625 56 
Q 37.15625 56 41.109375 55.140625 
Q 45.0625 54.296875 48.78125 52.59375 
z
" id="DejaVuSans-63"/>
     </defs>
     <g transform="translate(94.6 72.748562)scale(0.1 -0.1)">
      <use xlink:href="#DejaVuSans-42"/>
      <use x="68.603516" xlink:href="#DejaVuSans-61"/>
      <use x="129.882812" xlink:href="#DejaVuSans-6c"/>
      <use x="157.666016" xlink:href="#DejaVuSans-61"/>
      <use x="218.945312" xlink:href="#DejaVuSans-6e"/>
      <use x="282.324219" xlink:href="#DejaVuSans-63"/>
      <use x="337.304688" xlink:href="#DejaVuSans-65"/>
     </g>
    </g>
    <g id="line2d_34">
     <path d="M 66.6 83.926687 
L 86.6 83.926687 
" style="fill:none;stroke:#008000;stroke-linecap:square;stroke-width:1.5;"/>
    </g>
    <g id="line2d_35"/>
    <g id="text_18">
     <!-- Investments -->
     <defs>
      <path d="M 2.984375 54.6875 
L 12.5 54.6875 
L 29.59375 8.796875 
L 46.6875 54.6875 
L 56.203125 54.6875 
L 35.6875 0 
L 23.484375 0 
z
" id="DejaVuSans-76"/>
      <path d="M 52 44.1875 
Q 55.375 50.25 60.0625 53.125 
Q 64.75 56 71.09375 56 
Q 79.640625 56 84.28125 50.015625 
Q 88.921875 44.046875 88.921875 33.015625 
L 88.921875 0 
L 79.890625 0 
L 79.890625 32.71875 
Q 79.890625 40.578125 77.09375 44.375 
Q 74.3125 48.1875 68.609375 48.1875 
Q 61.625 48.1875 57.5625 43.546875 
Q 53.515625 38.921875 53.515625 30.90625 
L 53.515625 0 
L 44.484375 0 
L 44.484375 32.71875 
Q 44.484375 40.625 41.703125 44.40625 
Q 38.921875 48.1875 33.109375 48.1875 
Q 26.21875 48.1875 22.15625 43.53125 
Q 18.109375 38.875 18.109375 30.90625 
L 18.109375 0 
L 9.078125 0 
L 9.078125 54.6875 
L 18.109375 54.6875 
L 18.109375 46.1875 
Q 21.1875 51.21875 25.484375 53.609375 
Q 29.78125 56 35.6875 56 
Q 41.65625 56 45.828125 52.96875 
Q 50 49.953125 52 44.1875 
z
" id="DejaVuSans-6d"/>
     </defs>
     <g transform="translate(94.6 87.426687)scale(0.1 -0.1)">
      <use xlink:href="#DejaVuSans-49"/>
      <use x="29.492188" xlink:href="#DejaVuSans-6e"/>
      <use x="92.871094" xlink:href="#DejaVuSans-76"/>
      <use x="152.050781" xlink:href="#DejaVuSans-65"/>
      <use x="213.574219" xlink:href="#DejaVuSans-73"/>
      <use x="265.673828" xlink:href="#DejaVuSans-74"/>
      <use x="304.882812" xlink:href="#DejaVuSans-6d"/>
      <use x="402.294922" xlink:href="#DejaVuSans-65"/>
      <use x="463.818359" xlink:href="#DejaVuSans-6e"/>
      <use x="527.197266" xlink:href="#DejaVuSans-74"/>
      <use x="566.40625" xlink:href="#DejaVuSans-73"/>
     </g>
    </g>
    <g id="line2d_36"/>
    <g id="line2d_37">
     <g>
      <use style="fill:#bfbf00;stroke:#bfbf00;" x="76.6" xlink:href="#mabb4bea031" y="98.604812"/>
     </g>
    </g>
    <g id="text_19">
     <!-- Deposits -->
     <defs>
      <path d="M 19.671875 64.796875 
L 19.671875 8.109375 
L 31.59375 8.109375 
Q 46.6875 8.109375 53.6875 14.9375 
Q 60.6875 21.78125 60.6875 36.53125 
Q 60.6875 51.171875 53.6875 57.984375 
Q 46.6875 64.796875 31.59375 64.796875 
z
M 9.8125 72.90625 
L 30.078125 72.90625 
Q 51.265625 72.90625 61.171875 64.09375 
Q 71.09375 55.28125 71.09375 36.53125 
Q 71.09375 17.671875 61.125 8.828125 
Q 51.171875 0 30.078125 0 
L 9.8125 0 
z
" id="DejaVuSans-44"/>
      <path d="M 18.109375 8.203125 
L 18.109375 -20.796875 
L 9.078125 -20.796875 
L 9.078125 54.6875 
L 18.109375 54.6875 
L 18.109375 46.390625 
Q 20.953125 51.265625 25.265625 53.625 
Q 29.59375 56 35.59375 56 
Q 45.5625 56 51.78125 48.09375 
Q 58.015625 40.1875 58.015625 27.296875 
Q 58.015625 14.40625 51.78125 6.484375 
Q 45.5625 -1.421875 35.59375 -1.421875 
Q 29.59375 -1.421875 25.265625 0.953125 
Q 20.953125 3.328125 18.109375 8.203125 
z
M 48.6875 27.296875 
Q 48.6875 37.203125 44.609375 42.84375 
Q 40.53125 48.484375 33.40625 48.484375 
Q 26.265625 48.484375 22.1875 42.84375 
Q 18.109375 37.203125 18.109375 27.296875 
Q 18.109375 17.390625 22.1875 11.75 
Q 26.265625 6.109375 33.40625 6.109375 
Q 40.53125 6.109375 44.609375 11.75 
Q 48.6875 17.390625 48.6875 27.296875 
z
" id="DejaVuSans-70"/>
     </defs>
     <g transform="translate(94.6 102.104812)scale(0.1 -0.1)">
      <use xlink:href="#DejaVuSans-44"/>
      <use x="77.001953" xlink:href="#DejaVuSans-65"/>
      <use x="138.525391" xlink:href="#DejaVuSans-70"/>
      <use x="202.001953" xlink:href="#DejaVuSans-6f"/>
      <use x="263.183594" xlink:href="#DejaVuSans-73"/>
      <use x="315.283203" xlink:href="#DejaVuSans-69"/>
      <use x="343.066406" xlink:href="#DejaVuSans-74"/>
      <use x="382.275391" xlink:href="#DejaVuSans-73"/>
     </g>
    </g>
    <g id="line2d_38"/>
    <g id="line2d_39">
     <g>
      <use style="fill:#008000;stroke:#008000;" x="76.6" xlink:href="#mf6056a8ec6" y="113.282937"/>
     </g>
    </g>
    <g id="text_20">
     <!-- Commission -->
     <defs>
      <path d="M 64.40625 67.28125 
L 64.40625 56.890625 
Q 59.421875 61.53125 53.78125 63.8125 
Q 48.140625 66.109375 41.796875 66.109375 
Q 29.296875 66.109375 22.65625 58.46875 
Q 16.015625 50.828125 16.015625 36.375 
Q 16.015625 21.96875 22.65625 14.328125 
Q 29.296875 6.6875 41.796875 6.6875 
Q 48.140625 6.6875 53.78125 8.984375 
Q 59.421875 11.28125 64.40625 15.921875 
L 64.40625 5.609375 
Q 59.234375 2.09375 53.4375 0.328125 
Q 47.65625 -1.421875 41.21875 -1.421875 
Q 24.65625 -1.421875 15.125 8.703125 
Q 5.609375 18.84375 5.609375 36.375 
Q 5.609375 53.953125 15.125 64.078125 
Q 24.65625 74.21875 41.21875 74.21875 
Q 47.75 74.21875 53.53125 72.484375 
Q 59.328125 70.75 64.40625 67.28125 
z
" id="DejaVuSans-43"/>
     </defs>
     <g transform="translate(94.6 116.782937)scale(0.1 -0.1)">
      <use xlink:href="#DejaVuSans-43"/>
      <use x="69.824219" xlink:href="#DejaVuSans-6f"/>
      <use x="131.005859" xlink:href="#DejaVuSans-6d"/>
      <use x="228.417969" xlink:href="#DejaVuSans-6d"/>
      <use x="325.830078" xlink:href="#DejaVuSans-69"/>
      <use x="353.613281" xlink:href="#DejaVuSans-73"/>
      <use x="405.712891" xlink:href="#DejaVuSans-73"/>
      <use x="457.8125" xlink:href="#DejaVuSans-69"/>
      <use x="485.595703" xlink:href="#DejaVuSans-6f"/>
      <use x="546.777344" xlink:href="#DejaVuSans-6e"/>
     </g>
    </g>
   </g>
  </g>
 </g>
 <defs>
  <clipPath id="p4640ee50ca">
   <rect height="235.008" width="357.12" x="57.6" y="41.472"/>
  </clipPath>
 </defs>
</svg>
