<?xml version="1.0" encoding="utf-8" standalone="no"?>
<!DOCTYPE svg PUBLIC "-//W3C//DTD SVG 1.1//EN"
  "http://www.w3.org/Graphics/SVG/1.1/DTD/svg11.dtd">
<!-- Created with matplotlib (http://matplotlib.org/) -->
<svg height="345.6pt" version="1.1" viewBox="0 0 460.8 345.6" width="460.8pt" xmlns="http://www.w3.org/2000/svg" xmlns:xlink="http://www.w3.org/1999/xlink">
 <defs>
  <style type="text/css">
*{stroke-linecap:butt;stroke-linejoin:round;}
  </style>
 </defs>
 <g id="figure_1">
  <g id="patch_1">
   <path d="M 0 345.6 
L 460.8 345.6 
L 460.8 0 
L 0 0 
z
" style="fill:#ffffff;"/>
  </g>
  <g id="axes_1">
   <g id="patch_2">
    <path d="M 57.6 276.48 
L 414.72 276.48 
L 414.72 41.472 
L 57.6 41.472 
z
" style="fill:#ffffff;"/>
   </g>
   <g id="matplotlib.axis_1">
    <g id="xtick_1">
     <g id="line2d_1">
      <path clip-path="url(#p74dd910540)" d="M 73.832727 276.48 
L 73.832727 41.472 
" style="fill:none;stroke:#b0b0b0;stroke-linecap:square;stroke-width:0.8;"/>
     </g>
     <g id="line2d_2">
      <defs>
       <path d="M 0 0 
L 0 3.5 
" id="m1e956973bb" style="stroke:#000000;stroke-width:0.8;"/>
      </defs>
      <g>
       <use style="stroke:#000000;stroke-width:0.8;" x="73.832727" xlink:href="#m1e956973bb" y="276.48"/>
      </g>
     </g>
     <g id="text_1">
      <!-- 2019-01 -->
      <defs>
       <path d="M 19.1875 8.296875 
L 53.609375 8.296875 
L 53.609375 0 
L 7.328125 0 
L 7.328125 8.296875 
Q 12.9375 14.109375 22.625 23.890625 
Q 32.328125 33.6875 34.8125 36.53125 
Q 39.546875 41.84375 41.421875 45.53125 
Q 43.3125 49.21875 43.3125 52.78125 
Q 43.3125 58.59375 39.234375 62.25 
Q 35.15625 65.921875 28.609375 65.921875 
Q 23.96875 65.921875 18.8125 64.3125 
Q 13.671875 62.703125 7.8125 59.421875 
L 7.8125 69.390625 
Q 13.765625 71.78125 18.9375 73 
Q 24.125 74.21875 28.421875 74.21875 
Q 39.75 74.21875 46.484375 68.546875 
Q 53.21875 62.890625 53.21875 53.421875 
Q 53.21875 48.921875 51.53125 44.890625 
Q 49.859375 40.875 45.40625 35.40625 
Q 44.1875 33.984375 37.640625 27.21875 
Q 31.109375 20.453125 19.1875 8.296875 
z
" id="DejaVuSans-32"/>
       <path d="M 31.78125 66.40625 
Q 24.171875 66.40625 20.328125 58.90625 
Q 16.5 51.421875 16.5 36.375 
Q 16.5 21.390625 20.328125 13.890625 
Q 24.171875 6.390625 31.78125 6.390625 
Q 39.453125 6.390625 43.28125 13.890625 
Q 47.125 21.390625 47.125 36.375 
Q 47.125 51.421875 43.28125 58.90625 
Q 39.453125 66.40625 31.78125 66.40625 
z
M 31.78125 74.21875 
Q 44.046875 74.21875 50.515625 64.515625 
Q 56.984375 54.828125 56.984375 36.375 
Q 56.984375 17.96875 50.515625 8.265625 
Q 44.046875 -1.421875 31.78125 -1.421875 
Q 19.53125 -1.421875 13.0625 8.265625 
Q 6.59375 17.96875 6.59375 36.375 
Q 6.59375 54.828125 13.0625 64.515625 
Q 19.53125 74.21875 31.78125 74.21875 
z
" id="DejaVuSans-30"/>
       <path d="M 12.40625 8.296875 
L 28.515625 8.296875 
L 28.515625 63.921875 
L 10.984375 60.40625 
L 10.984375 69.390625 
L 28.421875 72.90625 
L 38.28125 72.90625 
L 38.28125 8.296875 
L 54.390625 8.296875 
L 54.390625 0 
L 12.40625 0 
z
" id="DejaVuSans-31"/>
       <path d="M 10.984375 1.515625 
L 10.984375 10.5 
Q 14.703125 8.734375 18.5 7.8125 
Q 22.3125 6.890625 25.984375 6.890625 
Q 35.75 6.890625 40.890625 13.453125 
Q 46.046875 20.015625 46.78125 33.40625 
Q 43.953125 29.203125 39.59375 26.953125 
Q 35.25 24.703125 29.984375 24.703125 
Q 19.046875 24.703125 12.671875 31.3125 
Q 6.296875 37.9375 6.296875 49.421875 
Q 6.296875 60.640625 12.9375 67.421875 
Q 19.578125 74.21875 30.609375 74.21875 
Q 43.265625 74.21875 49.921875 64.515625 
Q 56.59375 54.828125 56.59375 36.375 
Q 56.59375 19.140625 48.40625 8.859375 
Q 40.234375 -1.421875 26.421875 -1.421875 
Q 22.703125 -1.421875 18.890625 -0.6875 
Q 15.09375 0.046875 10.984375 1.515625 
z
M 30.609375 32.421875 
Q 37.25 32.421875 41.125 36.953125 
Q 45.015625 41.5 45.015625 49.421875 
Q 45.015625 57.28125 41.125 61.84375 
Q 37.25 66.40625 30.609375 66.40625 
Q 23.96875 66.40625 20.09375 61.84375 
Q 16.21875 57.28125 16.21875 49.421875 
Q 16.21875 41.5 20.09375 36.953125 
Q 23.96875 32.421875 30.609375 32.421875 
z
" id="DejaVuSans-39"/>
       <path d="M 4.890625 31.390625 
L 31.203125 31.390625 
L 31.203125 23.390625 
L 4.890625 23.390625 
z
" id="DejaVuSans-2d"/>
      </defs>
      <g transform="translate(36.607906 310.951846)rotate(-30)scale(0.1 -0.1)">
       <use xlink:href="#DejaVuSans-32"/>
       <use x="63.623047" xlink:href="#DejaVuSans-30"/>
       <use x="127.246094" xlink:href="#DejaVuSans-31"/>
       <use x="190.869141" xlink:href="#DejaVuSans-39"/>
       <use x="254.492188" xlink:href="#DejaVuSans-2d"/>
       <use x="290.576172" xlink:href="#DejaVuSans-30"/>
       <use x="354.199219" xlink:href="#DejaVuSans-31"/>
      </g>
     </g>
    </g>
    <g id="xtick_2">
     <g id="line2d_3">
      <path clip-path="url(#p74dd910540)" d="M 129.050311 276.48 
L 129.050311 41.472 
" style="fill:none;stroke:#b0b0b0;stroke-linecap:square;stroke-width:0.8;"/>
     </g>
     <g id="line2d_4">
      <g>
       <use style="stroke:#000000;stroke-width:0.8;" x="129.050311" xlink:href="#m1e956973bb" y="276.48"/>
      </g>
     </g>
     <g id="text_2">
      <!-- 2019-03 -->
      <defs>
       <path d="M 40.578125 39.3125 
Q 47.65625 37.796875 51.625 33 
Q 55.609375 28.21875 55.609375 21.1875 
Q 55.609375 10.40625 48.1875 4.484375 
Q 40.765625 -1.421875 27.09375 -1.421875 
Q 22.515625 -1.421875 17.65625 -0.515625 
Q 12.796875 0.390625 7.625 2.203125 
L 7.625 11.71875 
Q 11.71875 9.328125 16.59375 8.109375 
Q 21.484375 6.890625 26.8125 6.890625 
Q 36.078125 6.890625 40.9375 10.546875 
Q 45.796875 14.203125 45.796875 21.1875 
Q 45.796875 27.640625 41.28125 31.265625 
Q 36.765625 34.90625 28.71875 34.90625 
L 20.21875 34.90625 
L 20.21875 43.015625 
L 29.109375 43.015625 
Q 36.375 43.015625 40.234375 45.921875 
Q 44.09375 48.828125 44.09375 54.296875 
Q 44.09375 59.90625 40.109375 62.90625 
Q 36.140625 65.921875 28.71875 65.921875 
Q 24.65625 65.921875 20.015625 65.03125 
Q 15.375 64.15625 9.8125 62.3125 
L 9.8125 71.09375 
Q 15.4375 72.65625 20.34375 73.4375 
Q 25.25 74.21875 29.59375 74.21875 
Q 40.828125 74.21875 47.359375 69.109375 
Q 53.90625 64.015625 53.90625 55.328125 
Q 53.90625 49.265625 50.4375 45.09375 
Q 46.96875 40.921875 40.578125 39.3125 
z
" id="DejaVuSans-33"/>
      </defs>
      <g transform="translate(91.825491 310.951846)rotate(-30)scale(0.1 -0.1)">
       <use xlink:href="#DejaVuSans-32"/>
       <use x="63.623047" xlink:href="#DejaVuSans-30"/>
       <use x="127.246094" xlink:href="#DejaVuSans-31"/>
       <use x="190.869141" xlink:href="#DejaVuSans-39"/>
       <use x="254.492188" xlink:href="#DejaVuSans-2d"/>
       <use x="290.576172" xlink:href="#DejaVuSans-30"/>
       <use x="354.199219" xlink:href="#DejaVuSans-33"/>
      </g>
     </g>
    </g>
    <g id="xtick_3">
     <g id="line2d_5">
      <path clip-path="url(#p74dd910540)" d="M 186.139678 276.48 
L 186.139678 41.472 
" style="fill:none;stroke:#b0b0b0;stroke-linecap:square;stroke-width:0.8;"/>
     </g>
     <g id="line2d_6">
      <g>
       <use style="stroke:#000000;stroke-width:0.8;" x="186.139678" xlink:href="#m1e956973bb" y="276.48"/>
      </g>
     </g>
     <g id="text_3">
      <!-- 2019-05 -->
      <defs>
       <path d="M 10.796875 72.90625 
L 49.515625 72.90625 
L 49.515625 64.59375 
L 19.828125 64.59375 
L 19.828125 46.734375 
Q 21.96875 47.46875 24.109375 47.828125 
Q 26.265625 48.1875 28.421875 48.1875 
Q 40.625 48.1875 47.75 41.5 
Q 54.890625 34.8125 54.890625 23.390625 
Q 54.890625 11.625 47.5625 5.09375 
Q 40.234375 -1.421875 26.90625 -1.421875 
Q 22.3125 -1.421875 17.546875 -0.640625 
Q 12.796875 0.140625 7.71875 1.703125 
L 7.71875 11.625 
Q 12.109375 9.234375 16.796875 8.0625 
Q 21.484375 6.890625 26.703125 6.890625 
Q 35.15625 6.890625 40.078125 11.328125 
Q 45.015625 15.765625 45.015625 23.390625 
Q 45.015625 31 40.078125 35.4375 
Q 35.15625 39.890625 26.703125 39.890625 
Q 22.75 39.890625 18.8125 39.015625 
Q 14.890625 38.140625 10.796875 36.28125 
z
" id="DejaVuSans-35"/>
      </defs>
      <g transform="translate(148.914857 310.951846)rotate(-30)scale(0.1 -0.1)">
       <use xlink:href="#DejaVuSans-32"/>
       <use x="63.623047" xlink:href="#DejaVuSans-30"/>
       <use x="127.246094" xlink:href="#DejaVuSans-31"/>
       <use x="190.869141" xlink:href="#DejaVuSans-39"/>
       <use x="254.492188" xlink:href="#DejaVuSans-2d"/>
       <use x="290.576172" xlink:href="#DejaVuSans-30"/>
       <use x="354.199219" xlink:href="#DejaVuSans-35"/>
      </g>
     </g>
    </g>
    <g id="xtick_4">
     <g id="line2d_7">
      <path clip-path="url(#p74dd910540)" d="M 243.229044 276.48 
L 243.229044 41.472 
" style="fill:none;stroke:#b0b0b0;stroke-linecap:square;stroke-width:0.8;"/>
     </g>
     <g id="line2d_8">
      <g>
       <use style="stroke:#000000;stroke-width:0.8;" x="243.229044" xlink:href="#m1e956973bb" y="276.48"/>
      </g>
     </g>
     <g id="text_4">
      <!-- 2019-07 -->
      <defs>
       <path d="M 8.203125 72.90625 
L 55.078125 72.90625 
L 55.078125 68.703125 
L 28.609375 0 
L 18.3125 0 
L 43.21875 64.59375 
L 8.203125 64.59375 
z
" id="DejaVuSans-37"/>
      </defs>
      <g transform="translate(206.004224 310.951846)rotate(-30)scale(0.1 -0.1)">
       <use xlink:href="#DejaVuSans-32"/>
       <use x="63.623047" xlink:href="#DejaVuSans-30"/>
       <use x="127.246094" xlink:href="#DejaVuSans-31"/>
       <use x="190.869141" xlink:href="#DejaVuSans-39"/>
       <use x="254.492188" xlink:href="#DejaVuSans-2d"/>
       <use x="290.576172" xlink:href="#DejaVuSans-30"/>
       <use x="354.199219" xlink:href="#DejaVuSans-37"/>
      </g>
     </g>
    </g>
    <g id="xtick_5">
     <g id="line2d_9">
      <path clip-path="url(#p74dd910540)" d="M 301.254302 276.48 
L 301.254302 41.472 
" style="fill:none;stroke:#b0b0b0;stroke-linecap:square;stroke-width:0.8;"/>
     </g>
     <g id="line2d_10">
      <g>
       <use style="stroke:#000000;stroke-width:0.8;" x="301.254302" xlink:href="#m1e956973bb" y="276.48"/>
      </g>
     </g>
     <g id="text_5">
      <!-- 2019-09 -->
      <g transform="translate(264.029481 310.951846)rotate(-30)scale(0.1 -0.1)">
       <use xlink:href="#DejaVuSans-32"/>
       <use x="63.623047" xlink:href="#DejaVuSans-30"/>
       <use x="127.246094" xlink:href="#DejaVuSans-31"/>
       <use x="190.869141" xlink:href="#DejaVuSans-39"/>
       <use x="254.492188" xlink:href="#DejaVuSans-2d"/>
       <use x="290.576172" xlink:href="#DejaVuSans-30"/>
       <use x="354.199219" xlink:href="#DejaVuSans-39"/>
      </g>
     </g>
    </g>
    <g id="xtick_6">
     <g id="line2d_11">
      <path clip-path="url(#p74dd910540)" d="M 358.343669 276.48 
L 358.343669 41.472 
" style="fill:none;stroke:#b0b0b0;stroke-linecap:square;stroke-width:0.8;"/>
     </g>
     <g id="line2d_12">
      <g>
       <use style="stroke:#000000;stroke-width:0.8;" x="358.343669" xlink:href="#m1e956973bb" y="276.48"/>
      </g>
     </g>
     <g id="text_6">
      <!-- 2019-11 -->
      <g transform="translate(321.118848 310.951846)rotate(-30)scale(0.1 -0.1)">
       <use xlink:href="#DejaVuSans-32"/>
       <use x="63.623047" xlink:href="#DejaVuSans-30"/>
       <use x="127.246094" xlink:href="#DejaVuSans-31"/>
       <use x="190.869141" xlink:href="#DejaVuSans-39"/>
       <use x="254.492188" xlink:href="#DejaVuSans-2d"/>
       <use x="290.576172" xlink:href="#DejaVuSans-31"/>
       <use x="354.199219" xlink:href="#DejaVuSans-31"/>
      </g>
     </g>
    </g>
    <g id="text_7">
     <!-- date -->
     <defs>
      <path d="M 45.40625 46.390625 
L 45.40625 75.984375 
L 54.390625 75.984375 
L 54.390625 0 
L 45.40625 0 
L 45.40625 8.203125 
Q 42.578125 3.328125 38.25 0.953125 
Q 33.9375 -1.421875 27.875 -1.421875 
Q 17.96875 -1.421875 11.734375 6.484375 
Q 5.515625 14.40625 5.515625 27.296875 
Q 5.515625 40.1875 11.734375 48.09375 
Q 17.96875 56 27.875 56 
Q 33.9375 56 38.25 53.625 
Q 42.578125 51.265625 45.40625 46.390625 
z
M 14.796875 27.296875 
Q 14.796875 17.390625 18.875 11.75 
Q 22.953125 6.109375 30.078125 6.109375 
Q 37.203125 6.109375 41.296875 11.75 
Q 45.40625 17.390625 45.40625 27.296875 
Q 45.40625 37.203125 41.296875 42.84375 
Q 37.203125 48.484375 30.078125 48.484375 
Q 22.953125 48.484375 18.875 42.84375 
Q 14.796875 37.203125 14.796875 27.296875 
z
" id="DejaVuSans-64"/>
      <path d="M 34.28125 27.484375 
Q 23.390625 27.484375 19.1875 25 
Q 14.984375 22.515625 14.984375 16.5 
Q 14.984375 11.71875 18.140625 8.90625 
Q 21.296875 6.109375 26.703125 6.109375 
Q 34.1875 6.109375 38.703125 11.40625 
Q 43.21875 16.703125 43.21875 25.484375 
L 43.21875 27.484375 
z
M 52.203125 31.203125 
L 52.203125 0 
L 43.21875 0 
L 43.21875 8.296875 
Q 40.140625 3.328125 35.546875 0.953125 
Q 30.953125 -1.421875 24.3125 -1.421875 
Q 15.921875 -1.421875 10.953125 3.296875 
Q 6 8.015625 6 15.921875 
Q 6 25.140625 12.171875 29.828125 
Q 18.359375 34.515625 30.609375 34.515625 
L 43.21875 34.515625 
L 43.21875 35.40625 
Q 43.21875 41.609375 39.140625 45 
Q 35.0625 48.390625 27.6875 48.390625 
Q 23 48.390625 18.546875 47.265625 
Q 14.109375 46.140625 10.015625 43.890625 
L 10.015625 52.203125 
Q 14.9375 54.109375 19.578125 55.046875 
Q 24.21875 56 28.609375 56 
Q 40.484375 56 46.34375 49.84375 
Q 52.203125 43.703125 52.203125 31.203125 
z
" id="DejaVuSans-61"/>
      <path d="M 18.3125 70.21875 
L 18.3125 54.6875 
L 36.8125 54.6875 
L 36.8125 47.703125 
L 18.3125 47.703125 
L 18.3125 18.015625 
Q 18.3125 11.328125 20.140625 9.421875 
Q 21.96875 7.515625 27.59375 7.515625 
L 36.8125 7.515625 
L 36.8125 0 
L 27.59375 0 
Q 17.1875 0 13.234375 3.875 
Q 9.28125 7.765625 9.28125 18.015625 
L 9.28125 47.703125 
L 2.6875 47.703125 
L 2.6875 54.6875 
L 9.28125 54.6875 
L 9.28125 70.21875 
z
" id="DejaVuSans-74"/>
      <path d="M 56.203125 29.59375 
L 56.203125 25.203125 
L 14.890625 25.203125 
Q 15.484375 15.921875 20.484375 11.0625 
Q 25.484375 6.203125 34.421875 6.203125 
Q 39.59375 6.203125 44.453125 7.46875 
Q 49.3125 8.734375 54.109375 11.28125 
L 54.109375 2.78125 
Q 49.265625 0.734375 44.1875 -0.34375 
Q 39.109375 -1.421875 33.890625 -1.421875 
Q 20.796875 -1.421875 13.15625 6.1875 
Q 5.515625 13.8125 5.515625 26.8125 
Q 5.515625 40.234375 12.765625 48.109375 
Q 20.015625 56 32.328125 56 
Q 43.359375 56 49.78125 48.890625 
Q 56.203125 41.796875 56.203125 29.59375 
z
M 47.21875 32.234375 
Q 47.125 39.59375 43.09375 43.984375 
Q 39.0625 48.390625 32.421875 48.390625 
Q 24.90625 48.390625 20.390625 44.140625 
Q 15.875 39.890625 15.1875 32.171875 
z
" id="DejaVuSans-65"/>
     </defs>
     <g transform="translate(224.885 324.351346)scale(0.1 -0.1)">
      <use xlink:href="#DejaVuSans-64"/>
      <use x="63.476562" xlink:href="#DejaVuSans-61"/>
      <use x="124.755859" xlink:href="#DejaVuSans-74"/>
      <use x="163.964844" xlink:href="#DejaVuSans-65"/>
     </g>
    </g>
   </g>
   <g id="matplotlib.axis_2">
    <g id="ytick_1">
     <g id="line2d_13">
      <path clip-path="url(#p74dd910540)" d="M 57.6 265.797818 
L 414.72 265.797818 
" style="fill:none;stroke:#b0b0b0;stroke-linecap:square;stroke-width:0.8;"/>
     </g>
     <g id="line2d_14">
      <defs>
       <path d="M 0 0 
L -3.5 0 
" id="m6cffda215a" style="stroke:#000000;stroke-width:0.8;"/>
      </defs>
      <g>
       <use style="stroke:#000000;stroke-width:0.8;" x="57.6" xlink:href="#m6cffda215a" y="265.797818"/>
      </g>
     </g>
     <g id="text_8">
      <!-- 0 -->
      <g transform="translate(44.2375 269.597037)scale(0.1 -0.1)">
       <use xlink:href="#DejaVuSans-30"/>
      </g>
     </g>
    </g>
    <g id="ytick_2">
     <g id="line2d_15">
      <path clip-path="url(#p74dd910540)" d="M 57.6 226.189343 
L 414.72 226.189343 
" style="fill:none;stroke:#b0b0b0;stroke-linecap:square;stroke-width:0.8;"/>
     </g>
     <g id="line2d_16">
      <g>
       <use style="stroke:#000000;stroke-width:0.8;" x="57.6" xlink:href="#m6cffda215a" y="226.189343"/>
      </g>
     </g>
     <g id="text_9">
      <!-- 2000 -->
      <g transform="translate(25.15 229.988562)scale(0.1 -0.1)">
       <use xlink:href="#DejaVuSans-32"/>
       <use x="63.623047" xlink:href="#DejaVuSans-30"/>
       <use x="127.246094" xlink:href="#DejaVuSans-30"/>
       <use x="190.869141" xlink:href="#DejaVuSans-30"/>
      </g>
     </g>
    </g>
    <g id="ytick_3">
     <g id="line2d_17">
      <path clip-path="url(#p74dd910540)" d="M 57.6 186.580868 
L 414.72 186.580868 
" style="fill:none;stroke:#b0b0b0;stroke-linecap:square;stroke-width:0.8;"/>
     </g>
     <g id="line2d_18">
      <g>
       <use style="stroke:#000000;stroke-width:0.8;" x="57.6" xlink:href="#m6cffda215a" y="186.580868"/>
      </g>
     </g>
     <g id="text_10">
      <!-- 4000 -->
      <defs>
       <path d="M 37.796875 64.3125 
L 12.890625 25.390625 
L 37.796875 25.390625 
z
M 35.203125 72.90625 
L 47.609375 72.90625 
L 47.609375 25.390625 
L 58.015625 25.390625 
L 58.015625 17.1875 
L 47.609375 17.1875 
L 47.609375 0 
L 37.796875 0 
L 37.796875 17.1875 
L 4.890625 17.1875 
L 4.890625 26.703125 
z
" id="DejaVuSans-34"/>
      </defs>
      <g transform="translate(25.15 190.380087)scale(0.1 -0.1)">
       <use xlink:href="#DejaVuSans-34"/>
       <use x="63.623047" xlink:href="#DejaVuSans-30"/>
       <use x="127.246094" xlink:href="#DejaVuSans-30"/>
       <use x="190.869141" xlink:href="#DejaVuSans-30"/>
      </g>
     </g>
    </g>
    <g id="ytick_4">
     <g id="line2d_19">
      <path clip-path="url(#p74dd910540)" d="M 57.6 146.972393 
L 414.72 146.972393 
" style="fill:none;stroke:#b0b0b0;stroke-linecap:square;stroke-width:0.8;"/>
     </g>
     <g id="line2d_20">
      <g>
       <use style="stroke:#000000;stroke-width:0.8;" x="57.6" xlink:href="#m6cffda215a" y="146.972393"/>
      </g>
     </g>
     <g id="text_11">
      <!-- 6000 -->
      <defs>
       <path d="M 33.015625 40.375 
Q 26.375 40.375 22.484375 35.828125 
Q 18.609375 31.296875 18.609375 23.390625 
Q 18.609375 15.53125 22.484375 10.953125 
Q 26.375 6.390625 33.015625 6.390625 
Q 39.65625 6.390625 43.53125 10.953125 
Q 47.40625 15.53125 47.40625 23.390625 
Q 47.40625 31.296875 43.53125 35.828125 
Q 39.65625 40.375 33.015625 40.375 
z
M 52.59375 71.296875 
L 52.59375 62.3125 
Q 48.875 64.0625 45.09375 64.984375 
Q 41.3125 65.921875 37.59375 65.921875 
Q 27.828125 65.921875 22.671875 59.328125 
Q 17.53125 52.734375 16.796875 39.40625 
Q 19.671875 43.65625 24.015625 45.921875 
Q 28.375 48.1875 33.59375 48.1875 
Q 44.578125 48.1875 50.953125 41.515625 
Q 57.328125 34.859375 57.328125 23.390625 
Q 57.328125 12.15625 50.6875 5.359375 
Q 44.046875 -1.421875 33.015625 -1.421875 
Q 20.359375 -1.421875 13.671875 8.265625 
Q 6.984375 17.96875 6.984375 36.375 
Q 6.984375 53.65625 15.1875 63.9375 
Q 23.390625 74.21875 37.203125 74.21875 
Q 40.921875 74.21875 44.703125 73.484375 
Q 48.484375 72.75 52.59375 71.296875 
z
" id="DejaVuSans-36"/>
      </defs>
      <g transform="translate(25.15 150.771612)scale(0.1 -0.1)">
       <use xlink:href="#DejaVuSans-36"/>
       <use x="63.623047" xlink:href="#DejaVuSans-30"/>
       <use x="127.246094" xlink:href="#DejaVuSans-30"/>
       <use x="190.869141" xlink:href="#DejaVuSans-30"/>
      </g>
     </g>
    </g>
    <g id="ytick_5">
     <g id="line2d_21">
      <path clip-path="url(#p74dd910540)" d="M 57.6 107.363918 
L 414.72 107.363918 
" style="fill:none;stroke:#b0b0b0;stroke-linecap:square;stroke-width:0.8;"/>
     </g>
     <g id="line2d_22">
      <g>
       <use style="stroke:#000000;stroke-width:0.8;" x="57.6" xlink:href="#m6cffda215a" y="107.363918"/>
      </g>
     </g>
     <g id="text_12">
      <!-- 8000 -->
      <defs>
       <path d="M 31.78125 34.625 
Q 24.75 34.625 20.71875 30.859375 
Q 16.703125 27.09375 16.703125 20.515625 
Q 16.703125 13.921875 20.71875 10.15625 
Q 24.75 6.390625 31.78125 6.390625 
Q 38.8125 6.390625 42.859375 10.171875 
Q 46.921875 13.96875 46.921875 20.515625 
Q 46.921875 27.09375 42.890625 30.859375 
Q 38.875 34.625 31.78125 34.625 
z
M 21.921875 38.8125 
Q 15.578125 40.375 12.03125 44.71875 
Q 8.5 49.078125 8.5 55.328125 
Q 8.5 64.0625 14.71875 69.140625 
Q 20.953125 74.21875 31.78125 74.21875 
Q 42.671875 74.21875 48.875 69.140625 
Q 55.078125 64.0625 55.078125 55.328125 
Q 55.078125 49.078125 51.53125 44.71875 
Q 48 40.375 41.703125 38.8125 
Q 48.828125 37.15625 52.796875 32.3125 
Q 56.78125 27.484375 56.78125 20.515625 
Q 56.78125 9.90625 50.3125 4.234375 
Q 43.84375 -1.421875 31.78125 -1.421875 
Q 19.734375 -1.421875 13.25 4.234375 
Q 6.78125 9.90625 6.78125 20.515625 
Q 6.78125 27.484375 10.78125 32.3125 
Q 14.796875 37.15625 21.921875 38.8125 
z
M 18.3125 54.390625 
Q 18.3125 48.734375 21.84375 45.5625 
Q 25.390625 42.390625 31.78125 42.390625 
Q 38.140625 42.390625 41.71875 45.5625 
Q 45.3125 48.734375 45.3125 54.390625 
Q 45.3125 60.0625 41.71875 63.234375 
Q 38.140625 66.40625 31.78125 66.40625 
Q 25.390625 66.40625 21.84375 63.234375 
Q 18.3125 60.0625 18.3125 54.390625 
z
" id="DejaVuSans-38"/>
      </defs>
      <g transform="translate(25.15 111.163137)scale(0.1 -0.1)">
       <use xlink:href="#DejaVuSans-38"/>
       <use x="63.623047" xlink:href="#DejaVuSans-30"/>
       <use x="127.246094" xlink:href="#DejaVuSans-30"/>
       <use x="190.869141" xlink:href="#DejaVuSans-30"/>
      </g>
     </g>
    </g>
    <g id="ytick_6">
     <g id="line2d_23">
      <path clip-path="url(#p74dd910540)" d="M 57.6 67.755443 
L 414.72 67.755443 
" style="fill:none;stroke:#b0b0b0;stroke-linecap:square;stroke-width:0.8;"/>
     </g>
     <g id="line2d_24">
      <g>
       <use style="stroke:#000000;stroke-width:0.8;" x="57.6" xlink:href="#m6cffda215a" y="67.755443"/>
      </g>
     </g>
     <g id="text_13">
      <!-- 10000 -->
      <g transform="translate(18.7875 71.554662)scale(0.1 -0.1)">
       <use xlink:href="#DejaVuSans-31"/>
       <use x="63.623047" xlink:href="#DejaVuSans-30"/>
       <use x="127.246094" xlink:href="#DejaVuSans-30"/>
       <use x="190.869141" xlink:href="#DejaVuSans-30"/>
       <use x="254.492188" xlink:href="#DejaVuSans-30"/>
      </g>
     </g>
    </g>
    <g id="text_14">
     <!-- EUR -->
     <defs>
      <path d="M 9.8125 72.90625 
L 55.90625 72.90625 
L 55.90625 64.59375 
L 19.671875 64.59375 
L 19.671875 43.015625 
L 54.390625 43.015625 
L 54.390625 34.71875 
L 19.671875 34.71875 
L 19.671875 8.296875 
L 56.78125 8.296875 
L 56.78125 0 
L 9.8125 0 
z
" id="DejaVuSans-45"/>
      <path d="M 8.6875 72.90625 
L 18.609375 72.90625 
L 18.609375 28.609375 
Q 18.609375 16.890625 22.84375 11.734375 
Q 27.09375 6.59375 36.625 6.59375 
Q 46.09375 6.59375 50.34375 11.734375 
Q 54.59375 16.890625 54.59375 28.609375 
L 54.59375 72.90625 
L 64.5 72.90625 
L 64.5 27.390625 
Q 64.5 13.140625 57.4375 5.859375 
Q 50.390625 -1.421875 36.625 -1.421875 
Q 22.796875 -1.421875 15.734375 5.859375 
Q 8.6875 13.140625 8.6875 27.390625 
z
" id="DejaVuSans-55"/>
      <path d="M 44.390625 34.1875 
Q 47.5625 33.109375 50.5625 29.59375 
Q 53.5625 26.078125 56.59375 19.921875 
L 66.609375 0 
L 56 0 
L 46.6875 18.703125 
Q 43.0625 26.03125 39.671875 28.421875 
Q 36.28125 30.8125 30.421875 30.8125 
L 19.671875 30.8125 
L 19.671875 0 
L 9.8125 0 
L 9.8125 72.90625 
L 32.078125 72.90625 
Q 44.578125 72.90625 50.734375 67.671875 
Q 56.890625 62.453125 56.890625 51.90625 
Q 56.890625 45.015625 53.6875 40.46875 
Q 50.484375 35.9375 44.390625 34.1875 
z
M 19.671875 64.796875 
L 19.671875 38.921875 
L 32.078125 38.921875 
Q 39.203125 38.921875 42.84375 42.21875 
Q 46.484375 45.515625 46.484375 51.90625 
Q 46.484375 58.296875 42.84375 61.546875 
Q 39.203125 64.796875 32.078125 64.796875 
z
" id="DejaVuSans-52"/>
     </defs>
     <g transform="translate(12.707813 169.268969)rotate(-90)scale(0.1 -0.1)">
      <use xlink:href="#DejaVuSans-45"/>
      <use x="63.183594" xlink:href="#DejaVuSans-55"/>
      <use x="136.376953" xlink:href="#DejaVuSans-52"/>
     </g>
    </g>
   </g>
   <g id="line2d_25">
    <path clip-path="url(#p74dd910540)" d="M 73.832727 265.797818 
L 106.588921 265.709198 
L 106.588921 265.690493 
L 112.204269 265.54164 
L 112.204269 265.421215 
L 112.204269 265.421215 
L 114.076051 265.35231 
L 114.076051 265.311048 
L 114.076051 265.148033 
L 118.755508 264.99138 
L 118.755508 264.807683 
L 121.563181 264.685499 
L 121.563181 264.667978 
L 121.563181 264.667978 
L 126.242638 264.555225 
L 126.242638 264.534376 
L 130.922094 264.426588 
L 130.922094 264.426186 
L 131.857985 264.312133 
L 131.857985 264.134662 
L 133.729768 264.02792 
L 133.729768 263.984328 
L 135.60155 263.87332 
L 135.60155 263.828302 
L 139.345115 263.713855 
L 139.345115 263.664885 
L 140.281006 263.549255 
L 140.281006 263.501121 
L 140.281006 263.501121 
L 144.960463 263.367858 
L 144.960463 263.367858 
L 144.960463 263.26044 
L 148.704028 263.155741 
L 148.704028 263.128125 
L 155.255266 262.998508 
L 155.255266 262.979484 
L 159.934723 262.866483 
L 159.934723 262.729196 
L 160.870614 262.61896 
L 160.870614 262.600355 
L 164.614179 262.478185 
L 164.614179 262.414213 
L 167.421853 262.293282 
L 167.421853 262.248159 
L 171.165418 262.174858 
L 171.165418 262.138085 
L 171.165418 261.919497 
L 173.973092 261.794839 
L 173.973092 261.595416 
L 178.652548 261.480587 
L 178.652548 261.470916 
L 184.267895 261.331907 
L 184.267895 261.299823 
L 188.01146 261.146195 
L 188.01146 261.146195 
L 188.01146 261.066789 
L 188.01146 261.066789 
L 190.819134 260.945476 
L 190.819134 260.880436 
L 192.690917 260.759472 
L 192.690917 260.755381 
L 197.370373 260.622729 
L 197.370373 260.476641 
L 199.242155 260.370317 
L 199.242155 260.324273 
L 203.921612 260.166827 
L 203.921612 260.056632 
L 207.665177 259.914031 
L 207.665177 259.902294 
L 217.024089 259.785329 
L 217.024089 259.652513 
L 217.959981 259.536918 
L 220.767654 259.404587 
L 220.767654 259.371225 
L 223.575328 259.246671 
L 223.575328 259.195154 
L 225.447111 259.09577 
L 225.447111 258.994503 
L 226.383002 258.884186 
L 226.383002 258.849548 
L 226.383002 258.849548 
L 230.126567 258.730911 
L 230.126567 258.699646 
L 230.126567 258.699646 
L 231.062458 258.590097 
L 231.062458 258.487344 
L 233.870132 258.377386 
L 233.870132 258.36821 
L 240.421371 258.235529 
L 240.421371 258.222548 
L 243.229044 258.107773 
L 243.229044 258.035556 
L 243.229044 258.035556 
L 244.164936 257.923537 
L 244.164936 257.896034 
L 245.100827 257.780357 
L 245.100827 257.282723 
L 246.036718 257.161501 
L 246.036718 256.684737 
L 246.972609 256.684737 
L 246.972609 256.578678 
L 246.972609 256.478523 
L 249.780283 256.355175 
L 249.780283 255.626435 
L 250.716174 255.514957 
L 250.716174 255.476926 
L 251.652066 255.476926 
L 251.652066 255.423051 
L 251.652066 255.137636 
L 253.523848 255.023489 
L 253.523848 254.816185 
L 253.523848 254.816185 
L 256.331522 254.703579 
L 256.331522 254.703579 
L 256.331522 254.477015 
L 257.267413 254.366832 
L 257.267413 254.236463 
L 258.203305 254.128434 
L 258.203305 253.886406 
L 259.139196 253.77682 
L 259.139196 253.343389 
L 260.075087 253.286163 
L 260.075087 253.077206 
L 262.882761 252.844404 
L 262.882761 252.77861 
L 263.818652 252.681146 
L 263.818652 252.47047 
L 266.626326 252.350603 
L 266.626326 252.350603 
L 266.626326 252.283139 
L 269.434 252.172062 
L 269.434 252.171306 
L 271.305782 252.087264 
L 271.305782 251.993958 
L 272.241673 251.880756 
L 272.241673 251.672226 
L 273.177565 251.560326 
L 273.177565 251.533688 
L 275.985238 251.428175 
L 275.985238 251.428175 
L 275.985238 250.248927 
L 276.92113 250.138935 
L 276.92113 249.682204 
L 277.857021 249.574253 
L 277.857021 249.451887 
L 278.792912 249.451887 
L 278.792912 249.341389 
L 278.792912 249.198308 
L 279.728803 249.088009 
L 279.728803 249.039481 
L 282.536477 248.923188 
L 282.536477 248.923188 
L 282.536477 248.721696 
L 283.472368 248.615027 
L 283.472368 248.521516 
L 284.40826 248.409376 
L 284.40826 248.393588 
L 284.40826 248.393588 
L 285.344151 248.393588 
L 285.344151 248.303559 
L 285.344151 248.173989 
L 286.280042 248.065088 
L 286.280042 247.800186 
L 289.087716 247.675313 
L 289.087716 246.98837 
L 290.023607 246.98837 
L 290.023607 246.878641 
L 290.023607 246.805803 
L 290.959498 246.694759 
L 290.959498 246.661384 
L 292.831281 246.552377 
L 292.831281 246.419008 
L 295.638955 246.325757 
L 295.638955 246.217457 
L 297.510737 246.127196 
L 297.510737 246.110128 
L 297.510737 246.009972 
L 297.510737 246.009972 
L 300.318411 245.911069 
L 300.318411 245.829446 
L 302.190194 245.715126 
L 302.190194 245.569087 
L 302.190194 245.569087 
L 303.126085 245.463078 
L 303.126085 245.145652 
L 304.061976 245.043184 
L 304.061976 244.556381 
L 304.997867 244.444851 
L 304.997867 244.140815 
L 305.933759 244.029895 
L 305.933759 243.603795 
L 308.741432 243.487095 
L 308.741432 243.188442 
L 309.677324 243.079977 
L 309.677324 242.957113 
L 310.613215 242.851389 
L 310.613215 242.839276 
L 312.484997 242.732594 
L 312.484997 242.470987 
L 315.292671 242.356947 
L 315.292671 241.844834 
L 316.228562 241.734304 
L 316.228562 241.590578 
L 317.164454 241.590578 
L 317.164454 241.480405 
L 317.164454 241.147541 
L 318.100345 241.036766 
L 318.100345 241.002477 
L 319.036236 240.89631 
L 319.036236 240.813218 
L 321.84391 240.701092 
L 321.84391 240.639356 
L 322.779801 240.570419 
L 322.779801 240.369614 
L 324.651584 240.261605 
L 324.651584 240.098483 
L 327.459257 239.99047 
L 327.459257 239.987819 
L 327.459257 239.979011 
L 329.33104 239.893768 
L 329.33104 239.611631 
L 331.202822 239.498399 
L 331.202822 239.198079 
L 332.138714 239.065986 
L 332.138714 238.584461 
L 334.946387 238.468705 
L 334.946387 237.942815 
L 335.882279 237.812109 
L 335.882279 237.685342 
L 337.754061 237.591464 
L 337.754061 237.574458 
L 337.754061 237.391606 
L 341.497626 237.279044 
L 341.497626 236.953935 
L 342.433517 236.84342 
L 342.433517 236.706148 
L 343.369409 236.589509 
L 343.369409 236.219817 
L 344.3053 236.108049 
L 344.3053 235.94266 
L 345.241191 235.832351 
L 345.241191 235.499741 
L 348.048865 235.411873 
L 348.048865 235.095988 
L 348.984756 234.986112 
L 349.920648 234.895389 
L 349.920648 234.776878 
L 350.856539 234.776878 
L 350.856539 234.666376 
L 350.856539 234.639461 
L 351.79243 234.528056 
L 351.79243 234.520083 
L 355.535995 234.406409 
L 355.535995 234.291169 
L 355.535995 234.291169 
L 357.407778 234.197599 
L 357.407778 234.16079 
L 358.343669 234.050402 
L 358.343669 234.020928 
L 361.151343 233.914635 
L 361.151343 233.146526 
L 361.151343 233.146526 
L 362.087234 233.051777 
L 362.087234 232.654613 
L 363.023125 232.556034 
L 363.023125 232.346439 
L 363.023125 232.346439 
L 363.959016 232.235406 
L 363.959016 232.120327 
L 363.959016 232.120327 
L 364.894908 232.008541 
L 364.894908 231.970495 
L 367.702581 231.855134 
L 367.702581 231.66003 
L 367.702581 231.66003 
L 369.574364 231.551191 
L 369.574364 231.354752 
L 371.446146 231.244351 
L 371.446146 231.124314 
L 374.25382 231.004063 
L 374.25382 231.004063 
L 374.25382 230.210378 
L 376.125603 230.102332 
L 376.125603 230.043958 
L 377.061494 229.932967 
L 377.061494 229.890587 
L 379.869168 229.777308 
L 379.869168 229.774386 
L 381.74095 229.665688 
L 381.74095 229.580978 
L 383.612733 229.473975 
L 383.612733 229.470831 
L 383.612733 229.430837 
L 386.420406 229.326166 
L 387.356298 229.224887 
L 387.356298 228.882871 
L 388.292189 228.769011 
L 388.292189 228.528642 
L 389.22808 228.394289 
L 389.22808 228.119613 
L 390.163972 228.009042 
L 390.163972 227.940521 
L 392.971645 227.832464 
L 393.907537 227.717488 
L 393.907537 227.415281 
L 394.843428 227.303331 
L 394.843428 227.12388 
L 395.779319 227.014667 
L 395.779319 227.008261 
L 395.779319 227.008261 
L 396.71521 226.902819 
L 396.71521 226.885253 
L 397.651102 226.787634 
L 397.651102 226.625733 
L 397.651102 226.625733 
" style="fill:none;stroke:#0000ff;stroke-linecap:square;stroke-width:1.5;"/>
   </g>
   <g id="line2d_26">
    <path clip-path="url(#p74dd910540)" d="M 73.832727 265.797818 
L 76.522711 265.718601 
L 76.673201 255.816482 
L 76.894695 255.955112 
L 77.336947 259.004965 
L 77.453662 259.876351 
L 77.655594 260.549695 
L 77.818779 260.767542 
L 77.967633 261.520103 
L 78.227397 262.866791 
L 78.413233 263.599548 
L 78.606726 264.094654 
L 78.983455 264.668977 
L 78.987148 264.847215 
L 79.176396 265.025453 
L 79.26355 265.203691 
L 79.361332 265.401733 
L 79.855523 265.500513 
L 79.856173 225.892038 
L 79.947303 227.515986 
L 79.997142 228.486393 
L 80.097295 246.666683 
L 80.207728 249.121945 
L 80.222785 249.735876 
L 80.397084 255.831677 
L 80.567667 256.02621 
L 80.668351 257.998373 
L 80.684859 257.993105 
L 80.739605 258.072322 
L 80.847785 260.825111 
L 81.081465 263.459075 
L 81.141984 263.260723 
L 81.16394 263.47857 
L 81.423184 264.210808 
L 81.788561 264.369242 
L 81.831478 265.002978 
L 81.963293 265.042586 
L 82.026239 265.20102 
L 82.149269 265.597105 
L 82.767911 265.695893 
L 82.863233 265.735502 
L 83.513309 265.768838 
L 83.630685 265.569481 
L 83.684597 265.688038 
L 83.785324 265.74745 
L 86.66384 265.787058 
L 87.368271 265.586387 
L 87.372864 265.685408 
L 87.379212 265.744821 
L 88.310326 265.784429 
L 89.529422 265.584297 
L 89.53239 265.604101 
L 89.54138 265.782339 
L 92.929155 265.762419 
L 92.929155 265.573207 
L 92.931419 265.77125 
L 93.137044 265.759186 
L 105.971363 265.783919 
L 105.971363 265.748625 
L 105.971363 265.721345 
L 105.98395 265.780758 
L 106.038695 265.769833 
L 106.132035 265.789638 
L 106.993727 265.785907 
L 107.394015 265.580482 
L 107.817658 265.561269 
L 107.817658 265.457319 
L 107.848107 265.55634 
L 110.070003 265.796813 
L 112.787998 265.684871 
L 112.814158 265.515427 
L 112.80599 265.718288 
L 112.880645 265.634253 
L 114.381202 265.494589 
L 114.418399 265.447134 
L 114.468974 265.501338 
L 114.480943 265.491039 
L 114.510927 265.461876 
L 114.730915 265.709745 
L 114.782292 265.604152 
L 114.816348 265.683369 
L 116.341872 265.767494 
L 116.383197 265.785444 
L 116.383197 265.779226 
L 119.06693 265.634991 
L 119.08282 265.603297 
L 119.131673 265.66271 
L 119.176778 265.660662 
L 119.259719 265.738849 
L 119.326607 265.661746 
L 119.387765 265.741734 
L 121.117496 265.790563 
L 121.17327 257.355542 
L 121.25476 261.781488 
L 121.310772 264.274723 
L 122.012767 264.355692 
L 122.023555 263.860178 
L 122.041136 264.33548 
L 122.134454 264.355284 
L 122.196587 265.107845 
L 122.24167 265.094718 
L 122.261341 265.114523 
L 122.823147 265.105011 
L 122.862196 264.901909 
L 122.874187 265.119755 
L 122.901192 265.118672 
L 123.09618 265.153509 
L 123.217131 265.606432 
L 123.217131 265.605072 
L 123.915865 265.61758 
L 124.039166 265.756209 
L 126.028455 265.650233 
L 126.082345 265.638266 
L 126.086125 265.697679 
L 132.190519 265.588621 
L 132.270189 265.523856 
L 132.300519 265.662486 
L 132.426008 265.706133 
L 132.579033 265.72128 
L 132.579033 265.7175 
L 132.579033 265.516864 
L 132.681461 265.73471 
L 134.005606 265.734742 
L 134.005606 265.702574 
L 134.005606 265.695608 
L 134.072949 265.735217 
L 134.109183 265.730005 
L 139.291139 265.754617 
L 139.310799 265.560229 
L 139.335518 265.698858 
L 139.684137 265.662804 
L 139.716991 265.573031 
L 139.790833 265.697833 
L 140.022943 265.699466 
L 140.022943 265.690098 
L 140.046914 265.709902 
L 140.615198 265.748976 
L 140.615198 265.658501 
L 140.648939 265.568725 
L 140.704779 265.727159 
L 156.084971 265.589228 
L 156.084971 265.261771 
L 156.099757 265.796486 
L 159.355423 265.746773 
L 159.44156 265.641437 
L 159.480772 265.755318 
L 159.641065 265.640776 
L 159.673583 265.118627 
L 159.673724 264.397006 
L 159.716641 265.362845 
L 159.932231 265.349454 
L 159.993205 265.568588 
L 160.226896 265.458836 
L 160.30388 265.413151 
L 160.606604 265.44826 
L 160.606604 265.4434 
L 161.463302 265.310349 
L 161.463302 265.307053 
L 161.562209 265.781313 
L 161.58226 265.772083 
L 161.585249 265.791887 
L 161.699224 265.416823 
L 161.712645 265.614865 
L 162.560244 265.576642 
L 162.620644 265.774684 
L 171.881342 265.653687 
L 171.881342 265.582291 
L 171.947234 265.678957 
L 171.987085 265.674172 
L 172.735841 265.724682 
L 172.83138 265.751593 
L 172.83138 265.750459 
L 172.891184 265.768629 
L 172.891184 265.763048 
L 174.276119 265.664446 
L 174.30282 265.554722 
L 174.361649 265.681147 
L 174.49965 265.742935 
L 174.49965 265.737338 
L 176.353288 265.796821 
L 188.315853 265.690148 
L 188.315853 265.644806 
L 188.422224 265.756383 
L 195.902746 265.769389 
L 195.906266 265.789194 
L 197.690298 265.676233 
L 197.715472 265.59447 
L 197.797384 265.660887 
L 198.198008 265.722663 
L 200.998706 265.76648 
L 204.224996 265.653476 
L 204.224996 265.608453 
L 204.326071 265.717279 
L 204.435095 265.724383 
L 204.435095 265.723965 
L 210.963349 265.779666 
L 211.019047 263.80459 
L 211.071908 264.589582 
L 212.314737 264.607951 
L 212.705027 264.605934 
L 212.898943 265.794189 
L 213.017933 264.596878 
L 213.68156 264.597073 
L 213.858058 264.834723 
L 213.872887 265.785327 
L 217.341924 265.67772 
L 217.397471 265.655398 
L 217.42675 265.714811 
L 217.437831 265.708366 
L 222.192083 265.777329 
L 223.923807 265.711391 
L 223.923807 265.703847 
L 223.945969 265.678863 
L 223.991096 265.726163 
L 224.019248 265.714779 
L 226.091901 265.640132 
L 226.131134 265.439578 
L 226.153427 265.661386 
L 226.700717 265.546365 
L 226.735521 265.476011 
L 226.807316 265.517267 
L 226.994635 265.698544 
L 235.139088 265.776006 
L 235.178798 265.79581 
L 239.889213 265.784511 
L 239.906901 265.666781 
L 239.968048 265.706004 
L 240.159917 265.665093 
L 240.159917 265.714763 
L 240.163437 265.167244 
L 240.165734 265.710692 
L 240.318163 265.701867 
L 240.324575 265.415494 
L 240.327803 265.712557 
L 241.21443 265.642798 
L 241.237654 264.511109 
L 241.241478 265.652532 
L 241.253101 265.651757 
L 241.985425 265.713931 
L 241.985652 262.208664 
L 242.085264 265.780572 
L 242.09927 265.743401 
L 242.10344 264.018476 
L 242.107231 265.789727 
L 242.19574 265.232172 
L 242.245687 265.794018 
L 242.247658 264.69095 
L 242.247713 263.609349 
L 242.304527 265.797128 
L 242.34675 265.793822 
L 243.526179 265.696255 
L 243.526179 265.604534 
L 243.608405 265.797117 
L 243.635691 265.796707 
L 243.656944 216.286113 
L 243.756545 233.9409 
L 243.776335 236.390975 
L 244.04197 264.60762 
L 244.061175 264.604071 
L 244.752489 264.687242 
L 244.752597 265.785428 
L 244.841388 265.781615 
L 245.395579 265.694668 
L 245.435137 216.284727 
L 245.404288 265.79532 
L 245.503 222.944234 
L 245.512836 223.205809 
L 245.621471 232.435747 
L 245.631306 232.658513 
L 245.740017 247.853925 
L 245.749852 249.054062 
L 245.779478 252.177198 
L 245.853494 241.919831 
L 245.858401 242.560541 
L 245.868214 242.769752 
L 245.976784 256.469766 
L 245.986642 256.736094 
L 246.095168 265.782182 
L 246.326715 265.674181 
L 246.326715 265.39216 
L 246.400968 265.793961 
L 246.437743 265.777937 
L 246.515853 265.794082 
L 246.519471 265.78972 
L 246.593584 265.671797 
L 246.599466 261.821143 
L 246.703367 265.797603 
L 247.508212 265.688017 
L 247.508212 265.667876 
L 247.513217 265.793831 
L 247.585835 265.781169 
L 247.761997 265.794828 
L 250.084275 265.676617 
L 250.084275 265.401024 
L 250.17925 265.795187 
L 256.148417 265.795557 
L 256.640702 265.684518 
L 256.640702 265.652718 
L 256.646389 265.77203 
L 256.74026 265.755248 
L 256.952427 265.726054 
L 256.952427 265.524672 
L 257.041391 265.7654 
L 257.047219 265.699227 
L 257.066641 265.520954 
L 257.130203 265.777893 
L 257.554918 265.691655 
L 257.554918 265.580964 
L 257.633527 265.792704 
L 257.650695 265.760772 
L 258.489022 265.648521 
L 258.489022 265.573747 
L 258.561164 265.793917 
L 258.590779 265.762225 
L 258.834598 265.794224 
L 258.834598 265.783682 
L 258.872878 265.766318 
L 258.941781 265.793098 
L 259.433796 265.684382 
L 259.433796 265.391807 
L 259.439688 265.790711 
L 259.539874 265.649024 
L 259.617334 265.790851 
L 260.045743 265.761394 
L 260.359602 265.313954 
L 260.367726 265.512807 
L 260.37767 265.751945 
L 260.473924 265.726021 
L 260.553724 265.766404 
L 260.553724 264.54683 
L 260.565303 265.776637 
L 260.663994 265.774945 
L 265.452226 265.678633 
L 265.452226 265.457617 
L 265.471334 265.784591 
L 265.474096 265.783547 
L 270.644592 265.792207 
L 270.644592 265.711371 
L 270.644592 265.664773 
L 270.684248 265.784024 
L 270.743998 265.782501 
L 271.755606 265.783515 
L 271.755606 265.485471 
L 271.830423 265.788751 
L 272.531854 265.667685 
L 272.531854 265.512898 
L 272.60484 265.786028 
L 272.623634 265.782831 
L 276.282698 265.661844 
L 276.282698 264.967846 
L 276.34833 265.789767 
L 276.387802 265.788276 
L 276.710977 265.675571 
L 276.710977 265.635333 
L 276.737082 265.797102 
L 276.806147 265.794626 
L 277.204822 265.692883 
L 277.204822 265.537672 
L 277.299721 265.79776 
L 277.314063 265.779131 
L 277.822174 265.787277 
L 278.141569 265.583616 
L 278.242394 265.783162 
L 278.257309 265.7106 
L 278.295893 265.792736 
L 278.367667 265.768026 
L 278.38646 265.574442 
L 278.409359 265.797341 
L 278.445993 265.78071 
L 278.655973 265.787133 
L 279.494062 265.679302 
L 279.494062 265.549794 
L 279.600064 265.795445 
L 280.583671 265.735105 
L 280.583682 265.224394 
L 280.589098 265.783403 
L 283.760274 265.784347 
L 283.760274 265.715146 
L 283.760274 265.664319 
L 283.798457 265.789521 
L 283.857741 265.78585 
L 284.914724 265.667169 
L 284.914724 265.613318 
L 284.924451 265.792303 
L 286.580979 265.796291 
L 286.580979 265.686149 
L 286.580979 265.460491 
L 286.591118 265.797667 
L 286.687816 265.780721 
L 286.932155 265.770798 
L 286.936834 265.790683 
L 287.104666 265.792804 
L 287.104666 265.79662 
L 287.647592 265.797045 
L 287.650939 265.61074 
L 287.756237 265.78608 
L 289.384114 265.626673 
L 289.384125 265.23056 
L 289.396159 265.795537 
L 289.484982 265.795493 
L 289.495381 265.780653 
L 289.495381 265.671608 
L 289.504718 265.791792 
L 289.573805 265.783777 
L 293.135641 265.655011 
L 293.135641 265.631271 
L 293.18445 265.796938 
L 293.214281 265.790522 
L 297.009223 265.780057 
L 297.065506 265.60769 
L 297.107611 265.790751 
L 298.060216 265.680881 
L 298.060216 265.646959 
L 298.065599 265.787451 
L 298.138109 265.780695 
L 302.48176 265.665868 
L 302.48176 265.641406 
L 302.5596 265.797113 
L 302.590168 265.779944 
L 303.434571 265.660006 
L 303.434571 265.469148 
L 303.449368 265.792643 
L 303.520275 265.790447 
L 304.353879 265.676594 
L 304.353879 265.300464 
L 304.359078 265.782319 
L 304.456946 265.71913 
L 304.615484 265.748465 
L 304.615484 265.746279 
L 304.691439 265.505349 
L 304.691439 265.485896 
L 304.77503 265.576621 
L 304.963649 265.673174 
L 304.980265 265.692978 
L 305.284387 265.598895 
L 305.284387 265.43907 
L 305.377185 265.710229 
L 305.38636 265.681141 
L 305.51538 265.701773 
L 306.220863 265.597379 
L 306.270159 265.397182 
L 306.273745 265.71405 
L 306.330462 265.618689 
L 306.465386 265.557529 
L 306.524421 265.388512 
L 306.56659 265.392958 
L 306.681313 265.48374 
L 306.681313 265.483202 
L 306.797107 265.597987 
L 306.797107 265.594553 
L 307.69396 265.751193 
L 307.69396 265.749239 
L 309.031743 265.638772 
L 309.125462 265.58164 
L 309.222236 265.67236 
L 309.261892 265.630672 
L 309.261892 265.532923 
L 309.281292 265.671553 
L 309.343652 265.622711 
L 309.451865 265.492904 
L 309.489907 265.529808 
L 309.606482 265.56867 
L 309.606482 265.565721 
L 310.04217 265.453823 
L 310.08553 265.418929 
L 310.109079 265.537755 
L 310.151519 265.519686 
L 310.198346 265.615888 
L 310.239227 265.655453 
L 310.288155 265.638678 
L 312.112222 265.70685 
L 312.272169 265.74738 
L 312.786833 265.635609 
L 312.876404 265.521841 
L 312.888774 265.541646 
L 313.165447 265.698613 
L 313.204334 265.656164 
L 314.721756 265.737985 
L 314.747319 265.757789 
L 315.603422 265.647332 
L 315.621565 265.400306 
L 315.695798 265.697369 
L 315.825923 265.585823 
L 315.935381 265.510048 
L 316.086521 265.457422 
L 316.164859 265.257229 
L 316.518115 265.145795 
L 316.600482 265.045014 
L 316.624031 265.361881 
L 317.139876 265.333449 
L 317.469539 265.226064 
L 317.545342 264.919363 
L 317.578336 265.010604 
L 317.617754 265.108816 
L 317.693286 265.086846 
L 317.946464 265.156056 
L 318.071217 265.412656 
L 318.414616 265.380743 
L 318.629308 265.756324 
L 318.629308 265.712101 
L 318.629308 265.613971 
L 318.641158 265.7526 
L 318.727067 265.739041 
L 319.419204 265.626992 
L 319.419204 265.604581 
L 319.431878 265.743211 
L 319.487078 265.738726 
L 325.514683 265.684801 
L 325.514683 265.487035 
L 325.543605 265.714694 
L 329.799505 265.646142 
L 329.799505 263.891149 
L 329.899215 265.511803 
L 330.720459 265.519044 
L 330.840511 265.794317 
L 330.873257 265.710592 
L 330.951984 265.788135 
L 331.485182 265.677327 
L 331.485193 265.493778 
L 331.566304 265.791236 
L 331.581111 265.780582 
L 332.442889 265.651728 
L 332.4429 265.484013 
L 332.519754 265.789799 
L 332.548404 265.78898 
L 335.25521 265.668647 
L 335.25521 265.463902 
L 335.25573 265.783657 
L 335.354497 265.783037 
L 335.39607 265.760557 
L 335.39607 265.641932 
L 335.443331 265.785572 
L 336.446641 265.682726 
L 336.523483 265.607876 
L 336.546458 265.726702 
L 337.262892 265.73597 
L 337.280667 264.776394 
L 337.341857 265.722113 
L 337.379488 265.649513 
L 337.379488 265.577038 
L 337.42091 265.759238 
L 342.169529 265.634311 
L 342.169529 265.604966 
L 342.212337 265.755686 
L 342.251918 265.748274 
L 342.741138 265.757323 
L 342.741138 265.751265 
L 342.823136 265.607333 
L 342.746369 265.756217 
L 342.845028 265.720691 
L 343.663045 265.61092 
L 343.663045 265.421077 
L 343.664843 265.776208 
L 343.753666 265.766306 
L 344.603637 265.652694 
L 344.603637 265.578077 
L 344.644994 265.772072 
L 344.710831 265.768628 
L 344.788995 265.785865 
L 344.788995 265.784884 
L 345.543937 265.697678 
L 345.543937 265.40818 
L 345.544652 265.794665 
L 345.642368 265.781815 
L 345.866971 265.782742 
L 348.786042 265.67639 
L 348.786042 265.478722 
L 348.788891 265.783701 
L 348.844719 265.782769 
L 348.922927 265.708419 
L 348.922927 265.60909 
L 348.937073 265.797795 
L 348.961857 265.793167 
L 350.268704 265.766952 
L 350.268704 265.727831 
L 350.268704 265.669149 
L 350.283219 265.788314 
L 350.374122 265.785424 
L 350.40522 265.595439 
L 350.409997 265.793477 
L 350.485107 265.777975 
L 350.56273 265.705316 
L 350.569164 265.797071 
L 352.165866 265.685876 
L 352.229569 265.387633 
L 352.234216 265.791425 
L 352.268283 265.790355 
L 356.294479 265.738913 
L 356.294479 262.79223 
L 356.304487 265.777569 
L 356.333734 265.776527 
L 358.792268 265.693743 
L 358.792268 265.634804 
L 358.804205 265.793238 
L 358.870465 265.791069 
L 359.104113 265.695029 
L 359.104113 265.492801 
L 359.105586 265.79174 
L 361.475893 265.680175 
L 361.491112 265.259193 
L 361.604492 265.358214 
L 361.61567 265.57606 
L 361.794075 265.46983 
L 361.845852 264.514457 
L 361.88866 265.246131 
L 361.919889 265.213666 
L 362.030376 265.658678 
L 362.030376 265.655681 
L 362.386827 265.54083 
L 362.417807 265.516448 
L 362.470668 265.65509 
L 362.49661 265.642464 
L 362.657207 265.615216 
L 362.694101 265.754886 
L 362.751316 265.744484 
L 362.780032 265.684246 
L 362.849574 265.750302 
L 363.319718 265.636204 
L 363.355496 265.564147 
L 363.411552 265.755817 
L 364.291583 265.645084 
L 364.320851 265.7243 
L 364.414527 265.67032 
L 364.526379 265.698525 
L 364.646506 265.589961 
L 364.646506 265.473008 
L 364.755369 265.736703 
L 366.123352 265.621017 
L 366.408311 265.691145 
L 368.343299 265.657963 
L 368.408627 265.072751 
L 368.451262 265.092556 
L 368.479014 265.19671 
L 368.534615 265.731424 
L 368.619235 265.71507 
L 371.861221 265.616006 
L 371.861221 265.545547 
L 371.965544 265.777139 
L 374.559231 265.631618 
L 374.669371 265.088406 
L 374.71102 265.00647 
L 374.798619 265.616598 
L 374.848035 265.59772 
L 374.943748 265.617241 
L 374.943748 265.606062 
L 375.050693 265.504673 
L 375.635895 265.4999 
L 375.675216 265.697582 
L 375.75637 265.659342 
L 375.910272 265.676432 
L 375.965754 265.775113 
L 375.965754 265.77511 
L 376.093106 265.774846 
L 376.808652 265.700441 
L 376.823936 265.491914 
L 376.873904 265.749369 
L 376.884043 265.736914 
L 377.000683 265.756259 
L 377.000683 265.750993 
L 380.672117 265.710009 
L 380.672117 265.611974 
L 380.683371 265.790213 
L 380.77057 265.773529 
L 380.797801 265.793334 
L 381.304721 265.688806 
L 381.365922 265.571845 
L 381.383741 265.769888 
L 384.182922 265.660383 
L 384.278992 265.619584 
L 385.098298 265.616481 
L 385.293578 265.791373 
L 387.646966 265.648091 
L 387.725791 265.553179 
L 387.739428 265.572983 
L 387.806685 265.571019 
L 387.814668 265.788866 
L 387.886755 265.783585 
L 388.262661 265.681273 
L 388.262661 265.628122 
L 388.30457 265.786555 
L 388.598943 265.68113 
L 388.665928 265.511935 
L 388.685751 265.76939 
L 389.529039 265.660342 
L 389.529049 265.45555 
L 389.618013 265.766392 
L 389.635095 265.757597 
L 389.838359 265.77096 
L 394.243439 265.650592 
L 394.346149 265.577542 
L 394.41073 265.603825 
L 394.52022 265.757653 
L 394.52022 265.741265 
L 398.155974 265.633892 
L 398.155974 265.620425 
L 398.201317 265.778859 
L 398.255889 265.739632 
L 398.487273 265.771916 
L 398.487273 265.771916 
" style="fill:none;stroke:#ff0000;stroke-linecap:square;stroke-width:1.5;"/>
   </g>
   <g id="line2d_27">
    <path clip-path="url(#p74dd910540)" d="M 73.832727 265.797818 
L 76.640401 265.659189 
L 76.640401 261.282452 
L 77.576292 261.08441 
L 77.576292 257.876123 
L 78.512184 257.737494 
L 78.512184 256.311588 
L 79.448075 256.113546 
L 79.448075 245.953972 
L 79.448075 246.290644 
L 80.076097 246.092602 
L 80.097393 230.249212 
L 80.304285 230.051169 
L 80.383966 219.321177 
L 80.383966 219.620242 
L 80.567667 219.42571 
L 80.646893 218.245716 
L 81.319857 217.948652 
L 81.319857 216.720789 
L 82.255749 216.364313 
L 82.255749 216.344509 
L 82.255749 216.344768 
L 83.19164 216.245747 
L 83.19164 216.067509 
L 83.19164 216.366306 
L 86.935205 216.188068 
L 86.935205 216.168264 
L 86.935205 216.366306 
L 88.806987 216.306893 
L 88.806987 216.128655 
L 88.806987 216.326697 
L 92.550552 216.128655 
L 92.550552 216.148459 
L 92.550552 216.346502 
L 106.588921 216.233806 
L 106.588921 216.237234 
L 106.588921 216.436843 
L 107.524812 216.337822 
L 107.524812 216.100171 
L 107.524812 216.201435 
L 108.460704 216.082609 
L 108.460704 216.062805 
L 108.460704 216.192965 
L 109.396595 216.074139 
L 109.396595 216.054335 
L 109.396595 216.100091 
L 112.204269 215.964882 
L 112.204269 215.846057 
L 112.204269 216.124925 
L 113.14016 216.0061 
L 113.14016 215.966492 
L 113.14016 216.014997 
L 114.076051 215.896171 
L 114.076051 215.559499 
L 114.076051 215.791497 
L 115.011942 215.672672 
L 115.011942 215.613259 
L 115.011942 215.658837 
L 115.947834 215.540012 
L 115.947834 215.460795 
L 115.947834 215.62311 
L 118.755508 215.467822 
L 118.755508 215.249975 
L 118.755508 215.36487 
L 120.62729 215.233819 
L 120.62729 212.3424 
L 120.62729 212.353796 
L 121.241609 212.155753 
L 121.255908 208.254319 
L 121.563181 208.135493 
L 121.563181 206.947239 
L 121.563181 207.465072 
L 122.499073 207.366051 
L 122.499073 206.85114 
L 122.499073 207.057808 
L 124.370855 206.802268 
L 125.306746 206.683442 
L 125.306746 206.62403 
L 125.306746 206.811042 
L 127.178529 206.660612 
L 127.178529 206.75717 
L 127.178529 206.776974 
L 128.11442 206.658149 
L 128.11442 206.638344 
L 128.11442 206.685857 
L 128.11442 206.685857 
L 129.050311 206.567032 
L 129.050311 206.547227 
L 129.050311 206.58502 
L 131.857985 206.426777 
L 131.857985 206.090105 
L 131.857985 206.331372 
L 133.729768 206.186887 
L 133.729768 206.127474 
L 133.729768 206.133622 
L 135.60155 205.983689 
L 135.60155 205.963885 
L 135.60155 205.991432 
L 138.409224 205.853689 
L 138.409224 205.715059 
L 138.409224 205.959079 
L 139.345115 205.840253 
L 139.345115 205.741232 
L 139.345115 205.847328 
L 140.281006 205.728503 
L 140.281006 205.629482 
L 140.281006 205.709525 
L 142.152789 205.571399 
L 142.152789 205.511986 
L 142.152789 205.561102 
L 145.896354 205.385141 
L 145.896354 205.365337 
L 145.896354 205.370747 
L 155.255266 205.133596 
L 155.255266 204.598882 
L 155.255266 205.114418 
L 158.998831 205.057814 
L 158.998831 205.03801 
L 158.998831 204.760751 
L 158.998831 204.898307 
L 159.641065 205.013079 
L 159.673583 205.574354 
L 159.673724 206.276654 
L 159.674006 205.484484 
L 159.932231 205.479166 
L 159.934723 205.221977 
L 159.934723 205.252595 
L 160.870614 205.13377 
L 160.870614 204.539643 
L 160.870614 204.964124 
L 161.806505 204.924516 
L 161.806505 204.726474 
L 161.806505 204.745291 
L 164.614179 204.709086 
L 164.614179 204.649673 
L 164.614179 204.590261 
L 164.614179 204.623564 
L 166.485962 204.485839 
L 166.485962 204.466034 
L 166.485962 204.491561 
L 170.229527 204.363116 
L 170.229527 204.366845 
L 171.165418 204.168803 
L 171.165418 203.990565 
L 171.165418 204.147666 
L 173.973092 203.977609 
L 173.973092 203.779566 
L 173.973092 203.859239 
L 180.52433 203.621005 
L 180.52433 203.581396 
L 180.52433 203.626183 
L 187.075569 203.395204 
L 187.075569 203.3754 
L 187.075569 203.43423 
L 188.01146 203.315405 
L 188.01146 203.2956 
L 188.01146 203.323859 
L 190.819134 203.168456 
L 190.819134 203.128848 
L 190.819134 203.166113 
L 192.690917 203.02 
L 192.690917 203.000196 
L 192.690917 203.028698 
L 197.370373 202.828015 
L 197.370373 202.649776 
L 197.370373 202.755215 
L 198.306264 202.63639 
L 198.306264 202.616585 
L 198.306264 202.659694 
L 200.178047 202.544258 
L 200.178047 202.465041 
L 200.178047 202.524212 
L 203.921612 202.351619 
L 203.921612 202.292206 
L 203.921612 202.350419 
L 206.729286 202.217509 
L 206.729286 202.158097 
L 206.729286 202.207263 
L 210.472851 202.112883 
L 210.472851 201.30091 
L 210.472851 201.435071 
L 212.344633 201.386591 
L 212.344633 201.386967 
L 212.344633 202.575222 
L 213.280524 202.555417 
L 213.280524 201.367163 
L 213.280524 201.386301 
L 217.024089 201.208837 
L 217.024089 201.189033 
L 217.024089 201.246715 
L 219.831763 201.084134 
L 219.831763 200.965309 
L 219.831763 200.994042 
L 223.575328 200.835577 
L 223.575328 200.795969 
L 223.575328 200.860305 
L 225.447111 200.722696 
L 225.447111 200.683087 
L 225.447111 200.91079 
L 226.383002 200.673139 
L 226.383002 200.39588 
L 226.383002 200.615156 
L 227.318893 200.582911 
L 227.318893 200.543302 
L 227.318893 200.424477 
L 227.318893 200.566501 
L 228.254784 200.427987 
L 228.254784 200.408183 
L 228.254784 200.411668 
L 231.062458 200.253662 
L 231.062458 200.174445 
L 231.062458 200.220875 
L 232.934241 200.07015 
L 232.934241 200.030541 
L 232.934241 200.043407 
L 239.485479 199.856411 
L 239.485479 199.559347 
L 239.57297 199.703261 
L 240.159917 199.740535 
L 240.159917 199.69538 
L 240.162787 200.230923 
L 240.165734 199.75719 
L 240.421371 200.044862 
L 240.421371 200.044862 
L 241.038907 200.08811 
L 241.236224 200.277409 
L 241.237654 201.219798 
L 241.241478 200.145637 
L 241.985425 200.084646 
L 241.985652 203.589913 
L 242.085264 200.517366 
L 242.099281 200.647984 
L 242.10344 202.310488 
L 242.100201 200.547368 
L 242.19574 201.165108 
L 242.245687 200.630393 
L 242.247658 201.680213 
L 242.247713 202.815063 
L 242.304527 200.713799 
L 242.34675 200.72403 
L 243.229044 200.288337 
L 243.229044 198.763411 
L 243.229044 198.790904 
L 243.529624 198.674351 
L 243.608405 198.595767 
L 243.657865 198.536701 
L 243.766391 180.159893 
L 243.776216 179.942727 
L 243.884591 168.047433 
L 243.894383 167.841782 
L 243.992619 153.026039 
L 244.164936 153.046574 
L 244.535339 152.953702 
L 244.7525 152.769698 
L 244.841388 151.781122 
L 244.910507 151.758897 
L 245.100827 150.570642 
L 245.177182 150.637898 
L 245.404244 150.519304 
L 245.512868 143.091264 
L 245.522704 142.833809 
L 245.631339 133.846881 
L 245.641153 133.669193 
L 245.749874 117.529241 
L 245.759731 116.321522 
L 245.868269 105.634463 
L 245.878115 105.1416 
L 245.986652 92.543809 
L 245.996466 92.325962 
L 246.095168 84.23878 
L 246.331903 84.219134 
L 246.440451 83.771449 
L 246.598556 83.673625 
L 246.703367 79.973487 
L 246.972609 79.933934 
L 246.972609 80.030349 
L 246.972609 80.154424 
L 247.513184 79.977737 
L 247.532953 79.878772 
L 247.651358 79.772445 
L 247.690809 79.732836 
L 248.844392 79.66481 
L 250.090362 79.505861 
L 250.198997 79.23287 
L 250.35708 79.01167 
L 252.016175 78.64013 
L 252.095163 78.501786 
L 253.523848 78.401805 
L 253.523848 78.539011 
L 253.523848 78.56697 
L 254.030204 78.465341 
L 254.20784 78.187892 
L 256.331522 78.143937 
L 256.331522 78.278424 
L 256.331522 78.794335 
L 256.9328 78.562949 
L 257.071017 77.90189 
L 259.139196 77.282422 
L 259.139196 77.320064 
L 259.139196 77.475958 
L 259.202769 77.471037 
L 259.439688 77.273559 
L 259.548291 76.896084 
L 259.69643 76.784163 
L 260.075087 76.764359 
L 260.075087 76.852579 
L 260.075087 78.337897 
L 260.367726 78.141013 
L 260.446681 77.885007 
L 260.486208 77.845755 
L 260.555327 77.45261 
L 260.663994 76.608564 
L 261.878357 76.492581 
L 261.878357 76.473089 
L 261.94687 76.488346 
L 263.368644 76.327172 
L 263.506786 76.248509 
L 264.23716 76.08152 
L 264.754543 75.945225 
L 264.754543 75.949537 
L 264.754543 76.292342 
L 264.770499 76.278899 
L 265.461412 76.171616 
L 265.471334 75.878774 
L 266.922648 75.797178 
L 267.001636 75.757683 
L 270.369891 75.644817 
L 270.369891 75.808831 
L 270.369891 75.925327 
L 270.369891 75.925327 
L 271.079099 75.715363 
L 271.158119 75.645798 
L 271.305782 75.596237 
L 271.305782 75.600328 
L 271.305782 75.939099 
L 271.761293 75.839478 
L 271.830423 75.585655 
L 272.241673 75.483547 
L 272.241673 75.52927 
L 272.703694 75.235019 
L 275.985238 75.040839 
L 275.985238 75.075917 
L 275.985238 75.394788 
L 276.28897 75.158907 
L 276.387802 74.355173 
L 276.466973 74.263587 
L 276.737082 73.853132 
L 277.210823 73.734908 
L 277.299721 73.598672 
L 277.556333 73.382095 
L 277.753759 73.285043 
L 277.857021 73.285043 
L 277.857021 73.285654 
L 277.857021 73.786234 
L 278.389612 73.352543 
L 278.488282 73.137798 
L 278.792912 73.081342 
L 278.792912 73.12387 
L 278.792912 73.364892 
L 278.792912 73.364892 
L 279.204585 73.236552 
L 279.313209 73.145049 
L 279.501048 73.010542 
L 279.600064 72.833986 
L 279.728803 72.900718 
L 279.728803 73.396978 
L 280.589043 73.231298 
L 280.664695 72.704558 
L 280.664695 72.704825 
L 283.067639 72.565625 
L 283.344117 72.407769 
L 283.798457 72.306454 
L 284.015922 72.230157 
L 284.40826 72.176279 
L 284.40826 72.287811 
L 284.40826 72.37321 
L 284.924441 72.277617 
L 284.924451 72.159554 
L 285.665333 72.057794 
L 285.862964 71.999611 
L 286.280042 71.881178 
L 286.280042 71.899999 
L 286.280042 72.077368 
L 286.581163 71.950721 
L 286.660237 71.729363 
L 287.215933 71.519028 
L 287.215933 71.524171 
L 287.215933 71.723186 
L 287.647592 71.718208 
L 287.756237 71.539672 
L 289.087716 71.604056 
L 289.504718 70.885239 
L 289.573805 70.845808 
L 291.609217 70.504167 
L 291.648743 70.464915 
L 293.352445 70.367728 
L 294.182138 70.24275 
L 296.079073 70.133916 
L 296.475364 70.054761 
L 296.574846 70.06348 
L 296.574846 70.251464 
L 296.593791 70.248197 
L 297.068074 70.104431 
L 297.107611 70.004491 
L 297.510737 69.969805 
L 297.510737 70.006059 
L 297.510737 70.106711 
L 297.561821 70.106298 
L 298.065556 70.005753 
L 298.105007 69.913586 
L 298.446629 69.872635 
L 298.446629 69.889004 
L 299.38252 69.816074 
L 299.38252 69.697249 
L 299.38252 69.824032 
L 302.190194 69.640532 
L 302.190194 69.678886 
L 302.190194 69.860962 
L 303.034034 69.473361 
L 303.126085 69.35478 
L 303.126085 69.507944 
L 303.439511 69.309902 
L 303.508598 69.152124 
L 304.061976 68.988878 
L 304.061976 68.790836 
L 304.061976 69.235442 
L 304.359046 69.116795 
L 304.359078 68.760318 
L 304.636087 68.65749 
L 305.288243 68.33225 
L 305.377185 68.236968 
L 305.574534 68.124641 
L 305.933759 67.669144 
L 305.933759 67.411689 
L 305.933759 67.696226 
L 306.86965 67.676422 
L 306.86965 67.537792 
L 306.86965 67.539865 
L 308.741432 67.36411 
L 308.741432 67.08685 
L 308.741432 67.332137 
L 309.677324 67.25292 
L 309.677324 66.936052 
L 309.677324 66.981095 
L 310.613215 66.882074 
L 310.613215 66.743444 
L 310.613215 66.916533 
L 311.549106 66.837316 
L 311.549106 66.698686 
L 311.549106 66.710942 
L 312.484997 66.631725 
L 312.484997 66.453487 
L 312.484997 66.527972 
L 314.35678 66.387857 
L 314.35678 66.368053 
L 314.35678 66.36877 
L 315.292671 66.051902 
L 315.292671 66.032098 
L 315.292671 66.294255 
L 316.228562 65.937778 
L 316.228562 65.963778 
L 317.164454 65.765736 
L 317.164454 65.349847 
L 317.164454 65.441535 
L 318.100345 65.223688 
L 318.100345 64.787995 
L 318.100345 64.954252 
L 319.972127 64.719953 
L 319.972127 64.720213 
L 321.84391 64.60213 
L 321.84391 64.503109 
L 321.84391 64.585402 
L 324.651584 64.13055 
L 324.651584 64.051333 
L 324.651584 64.318097 
L 325.533694 64.214379 
L 325.587475 64.036466 
L 325.587475 64.19452 
L 325.958452 64.058406 
L 326.523366 63.961554 
L 326.523366 63.967535 
L 329.33104 63.88106 
L 329.33104 62.474959 
L 329.33104 64.338692 
L 329.644401 64.220632 
L 329.743157 64.18138 
L 329.802571 64.045693 
L 329.832294 63.881681 
L 330.266931 63.781451 
L 330.266931 63.886695 
L 330.741723 63.802241 
L 330.840511 63.548453 
L 331.492299 63.465101 
L 331.581111 63.327111 
L 332.450569 63.07333 
L 332.519754 62.994704 
L 332.82589 62.796176 
L 333.074605 62.699913 
L 333.074605 62.701 
L 334.946387 62.644007 
L 334.946387 62.674902 
L 334.946387 62.86049 
L 335.255697 62.7606 
L 335.354497 62.374906 
L 335.591513 62.099996 
L 335.882279 62.040584 
L 335.882279 61.842541 
L 335.882279 62.087441 
L 336.81817 61.871513 
L 336.81817 61.831905 
L 336.81817 62.938191 
L 337.262892 62.875896 
L 337.42091 61.945355 
L 337.754061 61.853072 
L 337.754061 61.833268 
L 337.754061 61.89082 
L 339.056564 61.754286 
L 341.497626 61.578197 
L 341.497626 61.320742 
L 341.497626 61.605916 
L 341.955065 61.493967 
L 342.281511 61.361934 
L 342.433517 61.263396 
L 342.433517 61.328418 
L 342.746369 61.276715 
L 343.012849 61.100231 
L 343.369409 61.025434 
L 343.369409 61.165676 
L 343.369409 61.18092 
L 343.664832 61.063572 
L 343.753666 60.719611 
L 344.3053 60.582218 
L 344.3053 60.673761 
L 344.605413 60.556409 
L 344.69441 60.465899 
L 345.544652 60.186593 
L 345.544652 59.993149 
L 346.10779 59.948543 
L 346.177083 59.948543 
L 346.177083 60.04656 
L 346.177083 60.063082 
L 347.077705 59.960287 
L 347.112974 59.940482 
L 347.112974 59.947354 
L 348.048865 59.847262 
L 348.048865 60.00848 
L 348.048865 60.22576 
L 348.779066 60.056746 
L 348.788891 59.770002 
L 349.075237 59.626097 
L 349.920648 59.4273 
L 349.920648 59.431973 
L 349.920648 59.751523 
L 350.013782 59.748665 
L 350.221963 59.721799 
L 350.409997 59.401903 
L 350.648216 59.312605 
L 351.42414 59.205272 
L 351.79243 59.185713 
L 351.79243 59.218468 
L 351.79243 59.816725 
L 352.174954 59.659635 
L 352.234216 59.187633 
L 353.475323 59.081694 
L 354.600104 59.061981 
L 354.600104 58.943155 
L 354.600104 59.135903 
L 355.167022 59.029803 
L 355.535995 59.005598 
L 355.535995 59.032525 
L 355.535995 61.917166 
L 356.294598 61.849762 
L 356.304487 59.1115 
L 358.343669 58.826296 
L 358.343669 58.975322 
L 358.343669 59.139543 
L 358.962852 59.1357 
L 359.27956 58.841105 
L 359.27956 58.841298 
L 361.151343 58.801697 
L 361.151343 57.771876 
L 361.151343 58.586769 
L 362.087234 58.408531 
L 362.087234 57.893621 
L 362.087234 58.008602 
L 363.023125 57.731343 
L 363.023125 57.632322 
L 363.023125 57.696688 
L 363.959016 57.577863 
L 363.959016 57.201582 
L 363.959016 57.497799 
L 364.894908 57.398778 
L 364.894908 57.240344 
L 364.894908 57.434775 
L 367.702581 57.044972 
L 367.702581 56.431041 
L 367.702581 57.05184 
L 368.638473 56.91321 
L 368.638473 56.928102 
L 369.574364 56.710255 
L 369.574364 56.611234 
L 369.574364 56.687277 
L 371.446146 56.56048 
L 371.446146 56.303025 
L 371.446146 56.478207 
L 374.25382 56.404598 
L 374.25382 55.592624 
L 374.25382 55.823324 
L 375.189711 55.80352 
L 375.189711 55.447044 
L 375.189711 55.505234 
L 376.125603 55.426017 
L 376.125603 55.148757 
L 376.125603 55.399845 
L 377.061494 55.28102 
L 377.061494 55.14239 
L 377.061494 55.229054 
L 377.997385 55.110229 
L 377.997385 55.011208 
L 377.997385 55.113117 
L 379.869168 55.07374 
L 379.869168 54.875698 
L 379.869168 55.087932 
L 380.805059 55.028519 
L 380.805059 54.771064 
L 380.805059 55.003589 
L 381.74095 54.924373 
L 381.74095 54.765939 
L 381.74095 54.890057 
L 383.612733 54.731993 
L 383.612733 54.871549 
L 383.612733 54.907223 
L 384.548624 54.867614 
L 384.548624 54.590355 
L 384.548624 54.660259 
L 386.420406 54.642433 
L 386.420406 54.642662 
L 387.356298 54.405011 
L 387.356298 54.127752 
L 387.356298 54.36163 
L 388.292189 54.183392 
L 388.292189 53.787307 
L 388.292189 53.856526 
L 389.22808 53.717896 
L 389.22808 53.36142 
L 389.22808 53.464473 
L 390.163972 53.345647 
L 390.163972 53.226822 
L 390.163972 53.286562 
L 392.035754 53.172261 
L 392.035754 53.132652 
L 392.035754 53.170082 
L 393.907537 53.032194 
L 393.907537 52.695522 
L 393.907537 52.783455 
L 394.843428 52.684434 
L 394.843428 52.347762 
L 394.843428 52.447781 
L 395.779319 52.309152 
L 395.779319 52.269543 
L 395.779319 52.33242 
L 396.71521 52.253203 
L 396.71521 52.154182 
L 396.71521 52.213948 
L 397.651102 52.297368 
L 397.651102 52.297368 
" style="fill:none;stroke:#008000;stroke-linecap:square;stroke-width:1.5;"/>
   </g>
   <g id="line2d_28">
    <defs>
     <path d="M 0 3 
C 0.795609 3 1.55874 2.683901 2.12132 2.12132 
C 2.683901 1.55874 3 0.795609 3 0 
C 3 -0.795609 2.683901 -1.55874 2.12132 -2.12132 
C 1.55874 -2.683901 0.795609 -3 0 -3 
C -0.795609 -3 -1.55874 -2.683901 -2.12132 -2.12132 
C -2.683901 -1.55874 -3 -0.795609 -3 0 
C -3 0.795609 -2.683901 1.55874 -2.12132 2.12132 
C -1.55874 2.683901 -0.795609 3 0 3 
z
" id="me86343fa3f" style="stroke:#bfbf00;"/>
    </defs>
    <g clip-path="url(#p74dd910540)">
     <use style="fill:#bfbf00;stroke:#bfbf00;" x="76.673201" xlink:href="#me86343fa3f" y="255.895699"/>
     <use style="fill:#bfbf00;stroke:#bfbf00;" x="79.856173" xlink:href="#me86343fa3f" y="226.189343"/>
     <use style="fill:#bfbf00;stroke:#bfbf00;" x="243.656944" xlink:href="#me86343fa3f" y="216.287224"/>
     <use style="fill:#bfbf00;stroke:#bfbf00;" x="245.435137" xlink:href="#me86343fa3f" y="216.287224"/>
     <use style="fill:#bfbf00;stroke:#bfbf00;" x="245.787808" xlink:href="#me86343fa3f" y="255.895699"/>
     <use style="fill:#bfbf00;stroke:#bfbf00;" x="245.853494" xlink:href="#me86343fa3f" y="255.895699"/>
     <use style="fill:#bfbf00;stroke:#bfbf00;" x="246.599466" xlink:href="#me86343fa3f" y="261.836971"/>
    </g>
   </g>
   <g id="line2d_29">
    <defs>
     <path d="M 0 3 
C 0.795609 3 1.55874 2.683901 2.12132 2.12132 
C 2.683901 1.55874 3 0.795609 3 0 
C 3 -0.795609 2.683901 -1.55874 2.12132 -2.12132 
C 1.55874 -2.683901 0.795609 -3 0 -3 
C -0.795609 -3 -1.55874 -2.683901 -2.12132 -2.12132 
C -2.683901 -1.55874 -3 -0.795609 -3 0 
C -3 0.795609 -2.683901 1.55874 -2.12132 2.12132 
C -1.55874 2.683901 -0.795609 3 0 3 
z
" id="mfd7e05e184" style="stroke:#008000;"/>
    </defs>
    <g clip-path="url(#p74dd910540)">
     <use style="fill:#008000;stroke:#008000;" x="121.17327" xlink:href="#mfd7e05e184" y="257.362797"/>
     <use style="fill:#008000;stroke:#008000;" x="211.019047" xlink:href="#mfd7e05e184" y="263.822742"/>
    </g>
   </g>
   <g id="patch_3">
    <path d="M 57.6 276.48 
L 57.6 41.472 
" style="fill:none;stroke:#000000;stroke-linecap:square;stroke-linejoin:miter;stroke-width:0.8;"/>
   </g>
   <g id="patch_4">
    <path d="M 414.72 276.48 
L 414.72 41.472 
" style="fill:none;stroke:#000000;stroke-linecap:square;stroke-linejoin:miter;stroke-width:0.8;"/>
   </g>
   <g id="patch_5">
    <path d="M 57.6 276.48 
L 414.72 276.48 
" style="fill:none;stroke:#000000;stroke-linecap:square;stroke-linejoin:miter;stroke-width:0.8;"/>
   </g>
   <g id="patch_6">
    <path d="M 57.6 41.472 
L 414.72 41.472 
" style="fill:none;stroke:#000000;stroke-linecap:square;stroke-linejoin:miter;stroke-width:0.8;"/>
   </g>
   <g id="text_15">
    <!-- My Bondora earnings -->
    <defs>
     <path d="M 9.8125 72.90625 
L 24.515625 72.90625 
L 43.109375 23.296875 
L 61.8125 72.90625 
L 76.515625 72.90625 
L 76.515625 0 
L 66.890625 0 
L 66.890625 64.015625 
L 48.09375 14.015625 
L 38.1875 14.015625 
L 19.390625 64.015625 
L 19.390625 0 
L 9.8125 0 
z
" id="DejaVuSans-4d"/>
     <path d="M 32.171875 -5.078125 
Q 28.375 -14.84375 24.75 -17.8125 
Q 21.140625 -20.796875 15.09375 -20.796875 
L 7.90625 -20.796875 
L 7.90625 -13.28125 
L 13.1875 -13.28125 
Q 16.890625 -13.28125 18.9375 -11.515625 
Q 21 -9.765625 23.484375 -3.21875 
L 25.09375 0.875 
L 2.984375 54.6875 
L 12.5 54.6875 
L 29.59375 11.921875 
L 46.6875 54.6875 
L 56.203125 54.6875 
z
" id="DejaVuSans-79"/>
     <path id="DejaVuSans-20"/>
     <path d="M 19.671875 34.8125 
L 19.671875 8.109375 
L 35.5 8.109375 
Q 43.453125 8.109375 47.28125 11.40625 
Q 51.125 14.703125 51.125 21.484375 
Q 51.125 28.328125 47.28125 31.5625 
Q 43.453125 34.8125 35.5 34.8125 
z
M 19.671875 64.796875 
L 19.671875 42.828125 
L 34.28125 42.828125 
Q 41.5 42.828125 45.03125 45.53125 
Q 48.578125 48.25 48.578125 53.8125 
Q 48.578125 59.328125 45.03125 62.0625 
Q 41.5 64.796875 34.28125 64.796875 
z
M 9.8125 72.90625 
L 35.015625 72.90625 
Q 46.296875 72.90625 52.390625 68.21875 
Q 58.5 63.53125 58.5 54.890625 
Q 58.5 48.1875 55.375 44.234375 
Q 52.25 40.28125 46.1875 39.3125 
Q 53.46875 37.75 57.5 32.78125 
Q 61.53125 27.828125 61.53125 20.40625 
Q 61.53125 10.640625 54.890625 5.3125 
Q 48.25 0 35.984375 0 
L 9.8125 0 
z
" id="DejaVuSans-42"/>
     <path d="M 30.609375 48.390625 
Q 23.390625 48.390625 19.1875 42.75 
Q 14.984375 37.109375 14.984375 27.296875 
Q 14.984375 17.484375 19.15625 11.84375 
Q 23.34375 6.203125 30.609375 6.203125 
Q 37.796875 6.203125 41.984375 11.859375 
Q 46.1875 17.53125 46.1875 27.296875 
Q 46.1875 37.015625 41.984375 42.703125 
Q 37.796875 48.390625 30.609375 48.390625 
z
M 30.609375 56 
Q 42.328125 56 49.015625 48.375 
Q 55.71875 40.765625 55.71875 27.296875 
Q 55.71875 13.875 49.015625 6.21875 
Q 42.328125 -1.421875 30.609375 -1.421875 
Q 18.84375 -1.421875 12.171875 6.21875 
Q 5.515625 13.875 5.515625 27.296875 
Q 5.515625 40.765625 12.171875 48.375 
Q 18.84375 56 30.609375 56 
z
" id="DejaVuSans-6f"/>
     <path d="M 54.890625 33.015625 
L 54.890625 0 
L 45.90625 0 
L 45.90625 32.71875 
Q 45.90625 40.484375 42.875 44.328125 
Q 39.84375 48.1875 33.796875 48.1875 
Q 26.515625 48.1875 22.3125 43.546875 
Q 18.109375 38.921875 18.109375 30.90625 
L 18.109375 0 
L 9.078125 0 
L 9.078125 54.6875 
L 18.109375 54.6875 
L 18.109375 46.1875 
Q 21.34375 51.125 25.703125 53.5625 
Q 30.078125 56 35.796875 56 
Q 45.21875 56 50.046875 50.171875 
Q 54.890625 44.34375 54.890625 33.015625 
z
" id="DejaVuSans-6e"/>
     <path d="M 41.109375 46.296875 
Q 39.59375 47.171875 37.8125 47.578125 
Q 36.03125 48 33.890625 48 
Q 26.265625 48 22.1875 43.046875 
Q 18.109375 38.09375 18.109375 28.8125 
L 18.109375 0 
L 9.078125 0 
L 9.078125 54.6875 
L 18.109375 54.6875 
L 18.109375 46.1875 
Q 20.953125 51.171875 25.484375 53.578125 
Q 30.03125 56 36.53125 56 
Q 37.453125 56 38.578125 55.875 
Q 39.703125 55.765625 41.0625 55.515625 
z
" id="DejaVuSans-72"/>
     <path d="M 9.421875 54.6875 
L 18.40625 54.6875 
L 18.40625 0 
L 9.421875 0 
z
M 9.421875 75.984375 
L 18.40625 75.984375 
L 18.40625 64.59375 
L 9.421875 64.59375 
z
" id="DejaVuSans-69"/>
     <path d="M 45.40625 27.984375 
Q 45.40625 37.75 41.375 43.109375 
Q 37.359375 48.484375 30.078125 48.484375 
Q 22.859375 48.484375 18.828125 43.109375 
Q 14.796875 37.75 14.796875 27.984375 
Q 14.796875 18.265625 18.828125 12.890625 
Q 22.859375 7.515625 30.078125 7.515625 
Q 37.359375 7.515625 41.375 12.890625 
Q 45.40625 18.265625 45.40625 27.984375 
z
M 54.390625 6.78125 
Q 54.390625 -7.171875 48.1875 -13.984375 
Q 42 -20.796875 29.203125 -20.796875 
Q 24.46875 -20.796875 20.265625 -20.09375 
Q 16.0625 -19.390625 12.109375 -17.921875 
L 12.109375 -9.1875 
Q 16.0625 -11.328125 19.921875 -12.34375 
Q 23.78125 -13.375 27.78125 -13.375 
Q 36.625 -13.375 41.015625 -8.765625 
Q 45.40625 -4.15625 45.40625 5.171875 
L 45.40625 9.625 
Q 42.625 4.78125 38.28125 2.390625 
Q 33.9375 0 27.875 0 
Q 17.828125 0 11.671875 7.65625 
Q 5.515625 15.328125 5.515625 27.984375 
Q 5.515625 40.671875 11.671875 48.328125 
Q 17.828125 56 27.875 56 
Q 33.9375 56 38.28125 53.609375 
Q 42.625 51.21875 45.40625 46.390625 
L 45.40625 54.6875 
L 54.390625 54.6875 
z
" id="DejaVuSans-67"/>
     <path d="M 44.28125 53.078125 
L 44.28125 44.578125 
Q 40.484375 46.53125 36.375 47.5 
Q 32.28125 48.484375 27.875 48.484375 
Q 21.1875 48.484375 17.84375 46.4375 
Q 14.5 44.390625 14.5 40.28125 
Q 14.5 37.15625 16.890625 35.375 
Q 19.28125 33.59375 26.515625 31.984375 
L 29.59375 31.296875 
Q 39.15625 29.25 43.1875 25.515625 
Q 47.21875 21.78125 47.21875 15.09375 
Q 47.21875 7.46875 41.1875 3.015625 
Q 35.15625 -1.421875 24.609375 -1.421875 
Q 20.21875 -1.421875 15.453125 -0.5625 
Q 10.6875 0.296875 5.421875 2 
L 5.421875 11.28125 
Q 10.40625 8.6875 15.234375 7.390625 
Q 20.0625 6.109375 24.8125 6.109375 
Q 31.15625 6.109375 34.5625 8.28125 
Q 37.984375 10.453125 37.984375 14.40625 
Q 37.984375 18.0625 35.515625 20.015625 
Q 33.0625 21.96875 24.703125 23.78125 
L 21.578125 24.515625 
Q 13.234375 26.265625 9.515625 29.90625 
Q 5.8125 33.546875 5.8125 39.890625 
Q 5.8125 47.609375 11.28125 51.796875 
Q 16.75 56 26.8125 56 
Q 31.78125 56 36.171875 55.265625 
Q 40.578125 54.546875 44.28125 53.078125 
z
" id="DejaVuSans-73"/>
    </defs>
    <g transform="translate(172.363125 35.472)scale(0.12 -0.12)">
     <use xlink:href="#DejaVuSans-4d"/>
     <use x="86.279297" xlink:href="#DejaVuSans-79"/>
     <use x="145.458984" xlink:href="#DejaVuSans-20"/>
     <use x="177.246094" xlink:href="#DejaVuSans-42"/>
     <use x="245.849609" xlink:href="#DejaVuSans-6f"/>
     <use x="307.03125" xlink:href="#DejaVuSans-6e"/>
     <use x="370.410156" xlink:href="#DejaVuSans-64"/>
     <use x="433.886719" xlink:href="#DejaVuSans-6f"/>
     <use x="495.068359" xlink:href="#DejaVuSans-72"/>
     <use x="536.181641" xlink:href="#DejaVuSans-61"/>
     <use x="597.460938" xlink:href="#DejaVuSans-20"/>
     <use x="629.248047" xlink:href="#DejaVuSans-65"/>
     <use x="690.771484" xlink:href="#DejaVuSans-61"/>
     <use x="752.050781" xlink:href="#DejaVuSans-72"/>
     <use x="793.148438" xlink:href="#DejaVuSans-6e"/>
     <use x="856.527344" xlink:href="#DejaVuSans-69"/>
     <use x="884.310547" xlink:href="#DejaVuSans-6e"/>
     <use x="947.689453" xlink:href="#DejaVuSans-67"/>
     <use x="1011.166016" xlink:href="#DejaVuSans-73"/>
    </g>
   </g>
   <g id="legend_1">
    <g id="patch_7">
     <path d="M 64.6 122.862625 
L 158.45 122.862625 
Q 160.45 122.862625 160.45 120.862625 
L 160.45 48.472 
Q 160.45 46.472 158.45 46.472 
L 64.6 46.472 
Q 62.6 46.472 62.6 48.472 
L 62.6 120.862625 
Q 62.6 122.862625 64.6 122.862625 
z
" style="fill:#ffffff;opacity:0.8;stroke:#cccccc;stroke-linejoin:miter;"/>
    </g>
    <g id="line2d_30">
     <path d="M 66.6 54.570437 
L 86.6 54.570437 
" style="fill:none;stroke:#0000ff;stroke-linecap:square;stroke-width:1.5;"/>
    </g>
    <g id="line2d_31"/>
    <g id="text_16">
     <!-- Interest -->
     <defs>
      <path d="M 9.8125 72.90625 
L 19.671875 72.90625 
L 19.671875 0 
L 9.8125 0 
z
" id="DejaVuSans-49"/>
     </defs>
     <g transform="translate(94.6 58.070437)scale(0.1 -0.1)">
      <use xlink:href="#DejaVuSans-49"/>
      <use x="29.492188" xlink:href="#DejaVuSans-6e"/>
      <use x="92.871094" xlink:href="#DejaVuSans-74"/>
      <use x="132.080078" xlink:href="#DejaVuSans-65"/>
      <use x="193.603516" xlink:href="#DejaVuSans-72"/>
      <use x="234.685547" xlink:href="#DejaVuSans-65"/>
      <use x="296.208984" xlink:href="#DejaVuSans-73"/>
      <use x="348.308594" xlink:href="#DejaVuSans-74"/>
     </g>
    </g>
    <g id="line2d_32">
     <path d="M 66.6 69.248562 
L 86.6 69.248562 
" style="fill:none;stroke:#ff0000;stroke-linecap:square;stroke-width:1.5;"/>
    </g>
    <g id="line2d_33"/>
    <g id="text_17">
     <!-- Balance -->
     <defs>
      <path d="M 9.421875 75.984375 
L 18.40625 75.984375 
L 18.40625 0 
L 9.421875 0 
z
" id="DejaVuSans-6c"/>
      <path d="M 48.78125 52.59375 
L 48.78125 44.1875 
Q 44.96875 46.296875 41.140625 47.34375 
Q 37.3125 48.390625 33.40625 48.390625 
Q 24.65625 48.390625 19.8125 42.84375 
Q 14.984375 37.3125 14.984375 27.296875 
Q 14.984375 17.28125 19.8125 11.734375 
Q 24.65625 6.203125 33.40625 6.203125 
Q 37.3125 6.203125 41.140625 7.25 
Q 44.96875 8.296875 48.78125 10.40625 
L 48.78125 2.09375 
Q 45.015625 0.34375 40.984375 -0.53125 
Q 36.96875 -1.421875 32.421875 -1.421875 
Q 20.0625 -1.421875 12.78125 6.34375 
Q 5.515625 14.109375 5.515625 27.296875 
Q 5.515625 40.671875 12.859375 48.328125 
Q 20.21875 56 33.015625 56 
Q 37.15625 56 41.109375 55.140625 
Q 45.0625 54.296875 48.78125 52.59375 
z
" id="DejaVuSans-63"/>
     </defs>
     <g transform="translate(94.6 72.748562)scale(0.1 -0.1)">
      <use xlink:href="#DejaVuSans-42"/>
      <use x="68.603516" xlink:href="#DejaVuSans-61"/>
      <use x="129.882812" xlink:href="#DejaVuSans-6c"/>
      <use x="157.666016" xlink:href="#DejaVuSans-61"/>
      <use x="218.945312" xlink:href="#DejaVuSans-6e"/>
      <use x="282.324219" xlink:href="#DejaVuSans-63"/>
      <use x="337.304688" xlink:href="#DejaVuSans-65"/>
     </g>
    </g>
    <g id="line2d_34">
     <path d="M 66.6 83.926687 
L 86.6 83.926687 
" style="fill:none;stroke:#008000;stroke-linecap:square;stroke-width:1.5;"/>
    </g>
    <g id="line2d_35"/>
    <g id="text_18">
     <!-- Investments -->
     <defs>
      <path d="M 2.984375 54.6875 
L 12.5 54.6875 
L 29.59375 8.796875 
L 46.6875 54.6875 
L 56.203125 54.6875 
L 35.6875 0 
L 23.484375 0 
z
" id="DejaVuSans-76"/>
      <path d="M 52 44.1875 
Q 55.375 50.25 60.0625 53.125 
Q 64.75 56 71.09375 56 
Q 79.640625 56 84.28125 50.015625 
Q 88.921875 44.046875 88.921875 33.015625 
L 88.921875 0 
L 79.890625 0 
L 79.890625 32.71875 
Q 79.890625 40.578125 77.09375 44.375 
Q 74.3125 48.1875 68.609375 48.1875 
Q 61.625 48.1875 57.5625 43.546875 
Q 53.515625 38.921875 53.515625 30.90625 
L 53.515625 0 
L 44.484375 0 
L 44.484375 32.71875 
Q 44.484375 40.625 41.703125 44.40625 
Q 38.921875 48.1875 33.109375 48.1875 
Q 26.21875 48.1875 22.15625 43.53125 
Q 18.109375 38.875 18.109375 30.90625 
L 18.109375 0 
L 9.078125 0 
L 9.078125 54.6875 
L 18.109375 54.6875 
L 18.109375 46.1875 
Q 21.1875 51.21875 25.484375 53.609375 
Q 29.78125 56 35.6875 56 
Q 41.65625 56 45.828125 52.96875 
Q 50 49.953125 52 44.1875 
z
" id="DejaVuSans-6d"/>
     </defs>
     <g transform="translate(94.6 87.426687)scale(0.1 -0.1)">
      <use xlink:href="#DejaVuSans-49"/>
      <use x="29.492188" xlink:href="#DejaVuSans-6e"/>
      <use x="92.871094" xlink:href="#DejaVuSans-76"/>
      <use x="152.050781" xlink:href="#DejaVuSans-65"/>
      <use x="213.574219" xlink:href="#DejaVuSans-73"/>
      <use x="265.673828" xlink:href="#DejaVuSans-74"/>
      <use x="304.882812" xlink:href="#DejaVuSans-6d"/>
      <use x="402.294922" xlink:href="#DejaVuSans-65"/>
      <use x="463.818359" xlink:href="#DejaVuSans-6e"/>
      <use x="527.197266" xlink:href="#DejaVuSans-74"/>
      <use x="566.40625" xlink:href="#DejaVuSans-73"/>
     </g>
    </g>
    <g id="line2d_36"/>
    <g id="line2d_37">
     <g>
      <use style="fill:#bfbf00;stroke:#bfbf00;" x="76.6" xlink:href="#me86343fa3f" y="98.604812"/>
     </g>
    </g>
    <g id="text_19">
     <!-- Deposits -->
     <defs>
      <path d="M 19.671875 64.796875 
L 19.671875 8.109375 
L 31.59375 8.109375 
Q 46.6875 8.109375 53.6875 14.9375 
Q 60.6875 21.78125 60.6875 36.53125 
Q 60.6875 51.171875 53.6875 57.984375 
Q 46.6875 64.796875 31.59375 64.796875 
z
M 9.8125 72.90625 
L 30.078125 72.90625 
Q 51.265625 72.90625 61.171875 64.09375 
Q 71.09375 55.28125 71.09375 36.53125 
Q 71.09375 17.671875 61.125 8.828125 
Q 51.171875 0 30.078125 0 
L 9.8125 0 
z
" id="DejaVuSans-44"/>
      <path d="M 18.109375 8.203125 
L 18.109375 -20.796875 
L 9.078125 -20.796875 
L 9.078125 54.6875 
L 18.109375 54.6875 
L 18.109375 46.390625 
Q 20.953125 51.265625 25.265625 53.625 
Q 29.59375 56 35.59375 56 
Q 45.5625 56 51.78125 48.09375 
Q 58.015625 40.1875 58.015625 27.296875 
Q 58.015625 14.40625 51.78125 6.484375 
Q 45.5625 -1.421875 35.59375 -1.421875 
Q 29.59375 -1.421875 25.265625 0.953125 
Q 20.953125 3.328125 18.109375 8.203125 
z
M 48.6875 27.296875 
Q 48.6875 37.203125 44.609375 42.84375 
Q 40.53125 48.484375 33.40625 48.484375 
Q 26.265625 48.484375 22.1875 42.84375 
Q 18.109375 37.203125 18.109375 27.296875 
Q 18.109375 17.390625 22.1875 11.75 
Q 26.265625 6.109375 33.40625 6.109375 
Q 40.53125 6.109375 44.609375 11.75 
Q 48.6875 17.390625 48.6875 27.296875 
z
" id="DejaVuSans-70"/>
     </defs>
     <g transform="translate(94.6 102.104812)scale(0.1 -0.1)">
      <use xlink:href="#DejaVuSans-44"/>
      <use x="77.001953" xlink:href="#DejaVuSans-65"/>
      <use x="138.525391" xlink:href="#DejaVuSans-70"/>
      <use x="202.001953" xlink:href="#DejaVuSans-6f"/>
      <use x="263.183594" xlink:href="#DejaVuSans-73"/>
      <use x="315.283203" xlink:href="#DejaVuSans-69"/>
      <use x="343.066406" xlink:href="#DejaVuSans-74"/>
      <use x="382.275391" xlink:href="#DejaVuSans-73"/>
     </g>
    </g>
    <g id="line2d_38"/>
    <g id="line2d_39">
     <g>
      <use style="fill:#008000;stroke:#008000;" x="76.6" xlink:href="#mfd7e05e184" y="113.282937"/>
     </g>
    </g>
    <g id="text_20">
     <!-- Commission -->
     <defs>
      <path d="M 64.40625 67.28125 
L 64.40625 56.890625 
Q 59.421875 61.53125 53.78125 63.8125 
Q 48.140625 66.109375 41.796875 66.109375 
Q 29.296875 66.109375 22.65625 58.46875 
Q 16.015625 50.828125 16.015625 36.375 
Q 16.015625 21.96875 22.65625 14.328125 
Q 29.296875 6.6875 41.796875 6.6875 
Q 48.140625 6.6875 53.78125 8.984375 
Q 59.421875 11.28125 64.40625 15.921875 
L 64.40625 5.609375 
Q 59.234375 2.09375 53.4375 0.328125 
Q 47.65625 -1.421875 41.21875 -1.421875 
Q 24.65625 -1.421875 15.125 8.703125 
Q 5.609375 18.84375 5.609375 36.375 
Q 5.609375 53.953125 15.125 64.078125 
Q 24.65625 74.21875 41.21875 74.21875 
Q 47.75 74.21875 53.53125 72.484375 
Q 59.328125 70.75 64.40625 67.28125 
z
" id="DejaVuSans-43"/>
     </defs>
     <g transform="translate(94.6 116.782937)scale(0.1 -0.1)">
      <use xlink:href="#DejaVuSans-43"/>
      <use x="69.824219" xlink:href="#DejaVuSans-6f"/>
      <use x="131.005859" xlink:href="#DejaVuSans-6d"/>
      <use x="228.417969" xlink:href="#DejaVuSans-6d"/>
      <use x="325.830078" xlink:href="#DejaVuSans-69"/>
      <use x="353.613281" xlink:href="#DejaVuSans-73"/>
      <use x="405.712891" xlink:href="#DejaVuSans-73"/>
      <use x="457.8125" xlink:href="#DejaVuSans-69"/>
      <use x="485.595703" xlink:href="#DejaVuSans-6f"/>
      <use x="546.777344" xlink:href="#DejaVuSans-6e"/>
     </g>
    </g>
   </g>
  </g>
 </g>
 <defs>
  <clipPath id="p74dd910540">
   <rect height="235.008" width="357.12" x="57.6" y="41.472"/>
  </clipPath>
 </defs>
</svg>
