<?xml version="1.0" encoding="utf-8" standalone="no"?>
<!DOCTYPE svg PUBLIC "-//W3C//DTD SVG 1.1//EN"
  "http://www.w3.org/Graphics/SVG/1.1/DTD/svg11.dtd">
<!-- Created with matplotlib (http://matplotlib.org/) -->
<svg height="345.6pt" version="1.1" viewBox="0 0 460.8 345.6" width="460.8pt" xmlns="http://www.w3.org/2000/svg" xmlns:xlink="http://www.w3.org/1999/xlink">
 <defs>
  <style type="text/css">
*{stroke-linecap:butt;stroke-linejoin:round;}
  </style>
 </defs>
 <g id="figure_1">
  <g id="patch_1">
   <path d="M 0 345.6 
L 460.8 345.6 
L 460.8 0 
L 0 0 
z
" style="fill:#ffffff;"/>
  </g>
  <g id="axes_1">
   <g id="patch_2">
    <path d="M 57.6 276.48 
L 414.72 276.48 
L 414.72 41.472 
L 57.6 41.472 
z
" style="fill:#ffffff;"/>
   </g>
   <g id="matplotlib.axis_1">
    <g id="xtick_1">
     <g id="line2d_1">
      <path clip-path="url(#p0234dcb1aa)" d="M 92.664969 276.48 
L 92.664969 41.472 
" style="fill:none;stroke:#b0b0b0;stroke-linecap:square;stroke-width:0.8;"/>
     </g>
     <g id="line2d_2">
      <defs>
       <path d="M 0 0 
L 0 3.5 
" id="m3253dcb235" style="stroke:#000000;stroke-width:0.8;"/>
      </defs>
      <g>
       <use style="stroke:#000000;stroke-width:0.8;" x="92.664969" xlink:href="#m3253dcb235" y="276.48"/>
      </g>
     </g>
     <g id="text_1">
      <!-- 2019-01-07 -->
      <defs>
       <path d="M 19.1875 8.296875 
L 53.609375 8.296875 
L 53.609375 0 
L 7.328125 0 
L 7.328125 8.296875 
Q 12.9375 14.109375 22.625 23.890625 
Q 32.328125 33.6875 34.8125 36.53125 
Q 39.546875 41.84375 41.421875 45.53125 
Q 43.3125 49.21875 43.3125 52.78125 
Q 43.3125 58.59375 39.234375 62.25 
Q 35.15625 65.921875 28.609375 65.921875 
Q 23.96875 65.921875 18.8125 64.3125 
Q 13.671875 62.703125 7.8125 59.421875 
L 7.8125 69.390625 
Q 13.765625 71.78125 18.9375 73 
Q 24.125 74.21875 28.421875 74.21875 
Q 39.75 74.21875 46.484375 68.546875 
Q 53.21875 62.890625 53.21875 53.421875 
Q 53.21875 48.921875 51.53125 44.890625 
Q 49.859375 40.875 45.40625 35.40625 
Q 44.1875 33.984375 37.640625 27.21875 
Q 31.109375 20.453125 19.1875 8.296875 
z
" id="DejaVuSans-32"/>
       <path d="M 31.78125 66.40625 
Q 24.171875 66.40625 20.328125 58.90625 
Q 16.5 51.421875 16.5 36.375 
Q 16.5 21.390625 20.328125 13.890625 
Q 24.171875 6.390625 31.78125 6.390625 
Q 39.453125 6.390625 43.28125 13.890625 
Q 47.125 21.390625 47.125 36.375 
Q 47.125 51.421875 43.28125 58.90625 
Q 39.453125 66.40625 31.78125 66.40625 
z
M 31.78125 74.21875 
Q 44.046875 74.21875 50.515625 64.515625 
Q 56.984375 54.828125 56.984375 36.375 
Q 56.984375 17.96875 50.515625 8.265625 
Q 44.046875 -1.421875 31.78125 -1.421875 
Q 19.53125 -1.421875 13.0625 8.265625 
Q 6.59375 17.96875 6.59375 36.375 
Q 6.59375 54.828125 13.0625 64.515625 
Q 19.53125 74.21875 31.78125 74.21875 
z
" id="DejaVuSans-30"/>
       <path d="M 12.40625 8.296875 
L 28.515625 8.296875 
L 28.515625 63.921875 
L 10.984375 60.40625 
L 10.984375 69.390625 
L 28.421875 72.90625 
L 38.28125 72.90625 
L 38.28125 8.296875 
L 54.390625 8.296875 
L 54.390625 0 
L 12.40625 0 
z
" id="DejaVuSans-31"/>
       <path d="M 10.984375 1.515625 
L 10.984375 10.5 
Q 14.703125 8.734375 18.5 7.8125 
Q 22.3125 6.890625 25.984375 6.890625 
Q 35.75 6.890625 40.890625 13.453125 
Q 46.046875 20.015625 46.78125 33.40625 
Q 43.953125 29.203125 39.59375 26.953125 
Q 35.25 24.703125 29.984375 24.703125 
Q 19.046875 24.703125 12.671875 31.3125 
Q 6.296875 37.9375 6.296875 49.421875 
Q 6.296875 60.640625 12.9375 67.421875 
Q 19.578125 74.21875 30.609375 74.21875 
Q 43.265625 74.21875 49.921875 64.515625 
Q 56.59375 54.828125 56.59375 36.375 
Q 56.59375 19.140625 48.40625 8.859375 
Q 40.234375 -1.421875 26.421875 -1.421875 
Q 22.703125 -1.421875 18.890625 -0.6875 
Q 15.09375 0.046875 10.984375 1.515625 
z
M 30.609375 32.421875 
Q 37.25 32.421875 41.125 36.953125 
Q 45.015625 41.5 45.015625 49.421875 
Q 45.015625 57.28125 41.125 61.84375 
Q 37.25 66.40625 30.609375 66.40625 
Q 23.96875 66.40625 20.09375 61.84375 
Q 16.21875 57.28125 16.21875 49.421875 
Q 16.21875 41.5 20.09375 36.953125 
Q 23.96875 32.421875 30.609375 32.421875 
z
" id="DejaVuSans-39"/>
       <path d="M 4.890625 31.390625 
L 31.203125 31.390625 
L 31.203125 23.390625 
L 4.890625 23.390625 
z
" id="DejaVuSans-2d"/>
       <path d="M 8.203125 72.90625 
L 55.078125 72.90625 
L 55.078125 68.703125 
L 28.609375 0 
L 18.3125 0 
L 43.21875 64.59375 
L 8.203125 64.59375 
z
" id="DejaVuSans-37"/>
      </defs>
      <g transform="translate(41.295517 319.118252)rotate(-30)scale(0.1 -0.1)">
       <use xlink:href="#DejaVuSans-32"/>
       <use x="63.623047" xlink:href="#DejaVuSans-30"/>
       <use x="127.246094" xlink:href="#DejaVuSans-31"/>
       <use x="190.869141" xlink:href="#DejaVuSans-39"/>
       <use x="254.492188" xlink:href="#DejaVuSans-2d"/>
       <use x="290.576172" xlink:href="#DejaVuSans-30"/>
       <use x="354.199219" xlink:href="#DejaVuSans-31"/>
       <use x="417.822266" xlink:href="#DejaVuSans-2d"/>
       <use x="453.90625" xlink:href="#DejaVuSans-30"/>
       <use x="517.529297" xlink:href="#DejaVuSans-37"/>
      </g>
     </g>
    </g>
    <g id="xtick_2">
     <g id="line2d_3">
      <path clip-path="url(#p0234dcb1aa)" d="M 136.606865 276.48 
L 136.606865 41.472 
" style="fill:none;stroke:#b0b0b0;stroke-linecap:square;stroke-width:0.8;"/>
     </g>
     <g id="line2d_4">
      <g>
       <use style="stroke:#000000;stroke-width:0.8;" x="136.606865" xlink:href="#m3253dcb235" y="276.48"/>
      </g>
     </g>
     <g id="text_2">
      <!-- 2019-01-21 -->
      <g transform="translate(85.237414 319.118252)rotate(-30)scale(0.1 -0.1)">
       <use xlink:href="#DejaVuSans-32"/>
       <use x="63.623047" xlink:href="#DejaVuSans-30"/>
       <use x="127.246094" xlink:href="#DejaVuSans-31"/>
       <use x="190.869141" xlink:href="#DejaVuSans-39"/>
       <use x="254.492188" xlink:href="#DejaVuSans-2d"/>
       <use x="290.576172" xlink:href="#DejaVuSans-30"/>
       <use x="354.199219" xlink:href="#DejaVuSans-31"/>
       <use x="417.822266" xlink:href="#DejaVuSans-2d"/>
       <use x="453.90625" xlink:href="#DejaVuSans-32"/>
       <use x="517.529297" xlink:href="#DejaVuSans-31"/>
      </g>
     </g>
    </g>
    <g id="xtick_3">
     <g id="line2d_5">
      <path clip-path="url(#p0234dcb1aa)" d="M 180.548762 276.48 
L 180.548762 41.472 
" style="fill:none;stroke:#b0b0b0;stroke-linecap:square;stroke-width:0.8;"/>
     </g>
     <g id="line2d_6">
      <g>
       <use style="stroke:#000000;stroke-width:0.8;" x="180.548762" xlink:href="#m3253dcb235" y="276.48"/>
      </g>
     </g>
     <g id="text_3">
      <!-- 2019-02-04 -->
      <defs>
       <path d="M 37.796875 64.3125 
L 12.890625 25.390625 
L 37.796875 25.390625 
z
M 35.203125 72.90625 
L 47.609375 72.90625 
L 47.609375 25.390625 
L 58.015625 25.390625 
L 58.015625 17.1875 
L 47.609375 17.1875 
L 47.609375 0 
L 37.796875 0 
L 37.796875 17.1875 
L 4.890625 17.1875 
L 4.890625 26.703125 
z
" id="DejaVuSans-34"/>
      </defs>
      <g transform="translate(129.17931 319.118252)rotate(-30)scale(0.1 -0.1)">
       <use xlink:href="#DejaVuSans-32"/>
       <use x="63.623047" xlink:href="#DejaVuSans-30"/>
       <use x="127.246094" xlink:href="#DejaVuSans-31"/>
       <use x="190.869141" xlink:href="#DejaVuSans-39"/>
       <use x="254.492188" xlink:href="#DejaVuSans-2d"/>
       <use x="290.576172" xlink:href="#DejaVuSans-30"/>
       <use x="354.199219" xlink:href="#DejaVuSans-32"/>
       <use x="417.822266" xlink:href="#DejaVuSans-2d"/>
       <use x="453.90625" xlink:href="#DejaVuSans-30"/>
       <use x="517.529297" xlink:href="#DejaVuSans-34"/>
      </g>
     </g>
    </g>
    <g id="xtick_4">
     <g id="line2d_7">
      <path clip-path="url(#p0234dcb1aa)" d="M 224.490658 276.48 
L 224.490658 41.472 
" style="fill:none;stroke:#b0b0b0;stroke-linecap:square;stroke-width:0.8;"/>
     </g>
     <g id="line2d_8">
      <g>
       <use style="stroke:#000000;stroke-width:0.8;" x="224.490658" xlink:href="#m3253dcb235" y="276.48"/>
      </g>
     </g>
     <g id="text_4">
      <!-- 2019-02-18 -->
      <defs>
       <path d="M 31.78125 34.625 
Q 24.75 34.625 20.71875 30.859375 
Q 16.703125 27.09375 16.703125 20.515625 
Q 16.703125 13.921875 20.71875 10.15625 
Q 24.75 6.390625 31.78125 6.390625 
Q 38.8125 6.390625 42.859375 10.171875 
Q 46.921875 13.96875 46.921875 20.515625 
Q 46.921875 27.09375 42.890625 30.859375 
Q 38.875 34.625 31.78125 34.625 
z
M 21.921875 38.8125 
Q 15.578125 40.375 12.03125 44.71875 
Q 8.5 49.078125 8.5 55.328125 
Q 8.5 64.0625 14.71875 69.140625 
Q 20.953125 74.21875 31.78125 74.21875 
Q 42.671875 74.21875 48.875 69.140625 
Q 55.078125 64.0625 55.078125 55.328125 
Q 55.078125 49.078125 51.53125 44.71875 
Q 48 40.375 41.703125 38.8125 
Q 48.828125 37.15625 52.796875 32.3125 
Q 56.78125 27.484375 56.78125 20.515625 
Q 56.78125 9.90625 50.3125 4.234375 
Q 43.84375 -1.421875 31.78125 -1.421875 
Q 19.734375 -1.421875 13.25 4.234375 
Q 6.78125 9.90625 6.78125 20.515625 
Q 6.78125 27.484375 10.78125 32.3125 
Q 14.796875 37.15625 21.921875 38.8125 
z
M 18.3125 54.390625 
Q 18.3125 48.734375 21.84375 45.5625 
Q 25.390625 42.390625 31.78125 42.390625 
Q 38.140625 42.390625 41.71875 45.5625 
Q 45.3125 48.734375 45.3125 54.390625 
Q 45.3125 60.0625 41.71875 63.234375 
Q 38.140625 66.40625 31.78125 66.40625 
Q 25.390625 66.40625 21.84375 63.234375 
Q 18.3125 60.0625 18.3125 54.390625 
z
" id="DejaVuSans-38"/>
      </defs>
      <g transform="translate(173.121207 319.118252)rotate(-30)scale(0.1 -0.1)">
       <use xlink:href="#DejaVuSans-32"/>
       <use x="63.623047" xlink:href="#DejaVuSans-30"/>
       <use x="127.246094" xlink:href="#DejaVuSans-31"/>
       <use x="190.869141" xlink:href="#DejaVuSans-39"/>
       <use x="254.492188" xlink:href="#DejaVuSans-2d"/>
       <use x="290.576172" xlink:href="#DejaVuSans-30"/>
       <use x="354.199219" xlink:href="#DejaVuSans-32"/>
       <use x="417.822266" xlink:href="#DejaVuSans-2d"/>
       <use x="453.90625" xlink:href="#DejaVuSans-31"/>
       <use x="517.529297" xlink:href="#DejaVuSans-38"/>
      </g>
     </g>
    </g>
    <g id="xtick_5">
     <g id="line2d_9">
      <path clip-path="url(#p0234dcb1aa)" d="M 268.432555 276.48 
L 268.432555 41.472 
" style="fill:none;stroke:#b0b0b0;stroke-linecap:square;stroke-width:0.8;"/>
     </g>
     <g id="line2d_10">
      <g>
       <use style="stroke:#000000;stroke-width:0.8;" x="268.432555" xlink:href="#m3253dcb235" y="276.48"/>
      </g>
     </g>
     <g id="text_5">
      <!-- 2019-03-04 -->
      <defs>
       <path d="M 40.578125 39.3125 
Q 47.65625 37.796875 51.625 33 
Q 55.609375 28.21875 55.609375 21.1875 
Q 55.609375 10.40625 48.1875 4.484375 
Q 40.765625 -1.421875 27.09375 -1.421875 
Q 22.515625 -1.421875 17.65625 -0.515625 
Q 12.796875 0.390625 7.625 2.203125 
L 7.625 11.71875 
Q 11.71875 9.328125 16.59375 8.109375 
Q 21.484375 6.890625 26.8125 6.890625 
Q 36.078125 6.890625 40.9375 10.546875 
Q 45.796875 14.203125 45.796875 21.1875 
Q 45.796875 27.640625 41.28125 31.265625 
Q 36.765625 34.90625 28.71875 34.90625 
L 20.21875 34.90625 
L 20.21875 43.015625 
L 29.109375 43.015625 
Q 36.375 43.015625 40.234375 45.921875 
Q 44.09375 48.828125 44.09375 54.296875 
Q 44.09375 59.90625 40.109375 62.90625 
Q 36.140625 65.921875 28.71875 65.921875 
Q 24.65625 65.921875 20.015625 65.03125 
Q 15.375 64.15625 9.8125 62.3125 
L 9.8125 71.09375 
Q 15.4375 72.65625 20.34375 73.4375 
Q 25.25 74.21875 29.59375 74.21875 
Q 40.828125 74.21875 47.359375 69.109375 
Q 53.90625 64.015625 53.90625 55.328125 
Q 53.90625 49.265625 50.4375 45.09375 
Q 46.96875 40.921875 40.578125 39.3125 
z
" id="DejaVuSans-33"/>
      </defs>
      <g transform="translate(217.063103 319.118252)rotate(-30)scale(0.1 -0.1)">
       <use xlink:href="#DejaVuSans-32"/>
       <use x="63.623047" xlink:href="#DejaVuSans-30"/>
       <use x="127.246094" xlink:href="#DejaVuSans-31"/>
       <use x="190.869141" xlink:href="#DejaVuSans-39"/>
       <use x="254.492188" xlink:href="#DejaVuSans-2d"/>
       <use x="290.576172" xlink:href="#DejaVuSans-30"/>
       <use x="354.199219" xlink:href="#DejaVuSans-33"/>
       <use x="417.822266" xlink:href="#DejaVuSans-2d"/>
       <use x="453.90625" xlink:href="#DejaVuSans-30"/>
       <use x="517.529297" xlink:href="#DejaVuSans-34"/>
      </g>
     </g>
    </g>
    <g id="xtick_6">
     <g id="line2d_11">
      <path clip-path="url(#p0234dcb1aa)" d="M 312.374451 276.48 
L 312.374451 41.472 
" style="fill:none;stroke:#b0b0b0;stroke-linecap:square;stroke-width:0.8;"/>
     </g>
     <g id="line2d_12">
      <g>
       <use style="stroke:#000000;stroke-width:0.8;" x="312.374451" xlink:href="#m3253dcb235" y="276.48"/>
      </g>
     </g>
     <g id="text_6">
      <!-- 2019-03-18 -->
      <g transform="translate(261.005 319.118252)rotate(-30)scale(0.1 -0.1)">
       <use xlink:href="#DejaVuSans-32"/>
       <use x="63.623047" xlink:href="#DejaVuSans-30"/>
       <use x="127.246094" xlink:href="#DejaVuSans-31"/>
       <use x="190.869141" xlink:href="#DejaVuSans-39"/>
       <use x="254.492188" xlink:href="#DejaVuSans-2d"/>
       <use x="290.576172" xlink:href="#DejaVuSans-30"/>
       <use x="354.199219" xlink:href="#DejaVuSans-33"/>
       <use x="417.822266" xlink:href="#DejaVuSans-2d"/>
       <use x="453.90625" xlink:href="#DejaVuSans-31"/>
       <use x="517.529297" xlink:href="#DejaVuSans-38"/>
      </g>
     </g>
    </g>
    <g id="xtick_7">
     <g id="line2d_13">
      <path clip-path="url(#p0234dcb1aa)" d="M 356.316348 276.48 
L 356.316348 41.472 
" style="fill:none;stroke:#b0b0b0;stroke-linecap:square;stroke-width:0.8;"/>
     </g>
     <g id="line2d_14">
      <g>
       <use style="stroke:#000000;stroke-width:0.8;" x="356.316348" xlink:href="#m3253dcb235" y="276.48"/>
      </g>
     </g>
     <g id="text_7">
      <!-- 2019-04-01 -->
      <g transform="translate(304.946897 319.118252)rotate(-30)scale(0.1 -0.1)">
       <use xlink:href="#DejaVuSans-32"/>
       <use x="63.623047" xlink:href="#DejaVuSans-30"/>
       <use x="127.246094" xlink:href="#DejaVuSans-31"/>
       <use x="190.869141" xlink:href="#DejaVuSans-39"/>
       <use x="254.492188" xlink:href="#DejaVuSans-2d"/>
       <use x="290.576172" xlink:href="#DejaVuSans-30"/>
       <use x="354.199219" xlink:href="#DejaVuSans-34"/>
       <use x="417.822266" xlink:href="#DejaVuSans-2d"/>
       <use x="453.90625" xlink:href="#DejaVuSans-30"/>
       <use x="517.529297" xlink:href="#DejaVuSans-31"/>
      </g>
     </g>
    </g>
    <g id="xtick_8">
     <g id="line2d_15">
      <path clip-path="url(#p0234dcb1aa)" d="M 400.258245 276.48 
L 400.258245 41.472 
" style="fill:none;stroke:#b0b0b0;stroke-linecap:square;stroke-width:0.8;"/>
     </g>
     <g id="line2d_16">
      <g>
       <use style="stroke:#000000;stroke-width:0.8;" x="400.258245" xlink:href="#m3253dcb235" y="276.48"/>
      </g>
     </g>
     <g id="text_8">
      <!-- 2019-04-15 -->
      <defs>
       <path d="M 10.796875 72.90625 
L 49.515625 72.90625 
L 49.515625 64.59375 
L 19.828125 64.59375 
L 19.828125 46.734375 
Q 21.96875 47.46875 24.109375 47.828125 
Q 26.265625 48.1875 28.421875 48.1875 
Q 40.625 48.1875 47.75 41.5 
Q 54.890625 34.8125 54.890625 23.390625 
Q 54.890625 11.625 47.5625 5.09375 
Q 40.234375 -1.421875 26.90625 -1.421875 
Q 22.3125 -1.421875 17.546875 -0.640625 
Q 12.796875 0.140625 7.71875 1.703125 
L 7.71875 11.625 
Q 12.109375 9.234375 16.796875 8.0625 
Q 21.484375 6.890625 26.703125 6.890625 
Q 35.15625 6.890625 40.078125 11.328125 
Q 45.015625 15.765625 45.015625 23.390625 
Q 45.015625 31 40.078125 35.4375 
Q 35.15625 39.890625 26.703125 39.890625 
Q 22.75 39.890625 18.8125 39.015625 
Q 14.890625 38.140625 10.796875 36.28125 
z
" id="DejaVuSans-35"/>
      </defs>
      <g transform="translate(348.888793 319.118252)rotate(-30)scale(0.1 -0.1)">
       <use xlink:href="#DejaVuSans-32"/>
       <use x="63.623047" xlink:href="#DejaVuSans-30"/>
       <use x="127.246094" xlink:href="#DejaVuSans-31"/>
       <use x="190.869141" xlink:href="#DejaVuSans-39"/>
       <use x="254.492188" xlink:href="#DejaVuSans-2d"/>
       <use x="290.576172" xlink:href="#DejaVuSans-30"/>
       <use x="354.199219" xlink:href="#DejaVuSans-34"/>
       <use x="417.822266" xlink:href="#DejaVuSans-2d"/>
       <use x="453.90625" xlink:href="#DejaVuSans-31"/>
       <use x="517.529297" xlink:href="#DejaVuSans-35"/>
      </g>
     </g>
    </g>
    <g id="text_9">
     <!-- date -->
     <defs>
      <path d="M 45.40625 46.390625 
L 45.40625 75.984375 
L 54.390625 75.984375 
L 54.390625 0 
L 45.40625 0 
L 45.40625 8.203125 
Q 42.578125 3.328125 38.25 0.953125 
Q 33.9375 -1.421875 27.875 -1.421875 
Q 17.96875 -1.421875 11.734375 6.484375 
Q 5.515625 14.40625 5.515625 27.296875 
Q 5.515625 40.1875 11.734375 48.09375 
Q 17.96875 56 27.875 56 
Q 33.9375 56 38.25 53.625 
Q 42.578125 51.265625 45.40625 46.390625 
z
M 14.796875 27.296875 
Q 14.796875 17.390625 18.875 11.75 
Q 22.953125 6.109375 30.078125 6.109375 
Q 37.203125 6.109375 41.296875 11.75 
Q 45.40625 17.390625 45.40625 27.296875 
Q 45.40625 37.203125 41.296875 42.84375 
Q 37.203125 48.484375 30.078125 48.484375 
Q 22.953125 48.484375 18.875 42.84375 
Q 14.796875 37.203125 14.796875 27.296875 
z
" id="DejaVuSans-64"/>
      <path d="M 34.28125 27.484375 
Q 23.390625 27.484375 19.1875 25 
Q 14.984375 22.515625 14.984375 16.5 
Q 14.984375 11.71875 18.140625 8.90625 
Q 21.296875 6.109375 26.703125 6.109375 
Q 34.1875 6.109375 38.703125 11.40625 
Q 43.21875 16.703125 43.21875 25.484375 
L 43.21875 27.484375 
z
M 52.203125 31.203125 
L 52.203125 0 
L 43.21875 0 
L 43.21875 8.296875 
Q 40.140625 3.328125 35.546875 0.953125 
Q 30.953125 -1.421875 24.3125 -1.421875 
Q 15.921875 -1.421875 10.953125 3.296875 
Q 6 8.015625 6 15.921875 
Q 6 25.140625 12.171875 29.828125 
Q 18.359375 34.515625 30.609375 34.515625 
L 43.21875 34.515625 
L 43.21875 35.40625 
Q 43.21875 41.609375 39.140625 45 
Q 35.0625 48.390625 27.6875 48.390625 
Q 23 48.390625 18.546875 47.265625 
Q 14.109375 46.140625 10.015625 43.890625 
L 10.015625 52.203125 
Q 14.9375 54.109375 19.578125 55.046875 
Q 24.21875 56 28.609375 56 
Q 40.484375 56 46.34375 49.84375 
Q 52.203125 43.703125 52.203125 31.203125 
z
" id="DejaVuSans-61"/>
      <path d="M 18.3125 70.21875 
L 18.3125 54.6875 
L 36.8125 54.6875 
L 36.8125 47.703125 
L 18.3125 47.703125 
L 18.3125 18.015625 
Q 18.3125 11.328125 20.140625 9.421875 
Q 21.96875 7.515625 27.59375 7.515625 
L 36.8125 7.515625 
L 36.8125 0 
L 27.59375 0 
Q 17.1875 0 13.234375 3.875 
Q 9.28125 7.765625 9.28125 18.015625 
L 9.28125 47.703125 
L 2.6875 47.703125 
L 2.6875 54.6875 
L 9.28125 54.6875 
L 9.28125 70.21875 
z
" id="DejaVuSans-74"/>
      <path d="M 56.203125 29.59375 
L 56.203125 25.203125 
L 14.890625 25.203125 
Q 15.484375 15.921875 20.484375 11.0625 
Q 25.484375 6.203125 34.421875 6.203125 
Q 39.59375 6.203125 44.453125 7.46875 
Q 49.3125 8.734375 54.109375 11.28125 
L 54.109375 2.78125 
Q 49.265625 0.734375 44.1875 -0.34375 
Q 39.109375 -1.421875 33.890625 -1.421875 
Q 20.796875 -1.421875 13.15625 6.1875 
Q 5.515625 13.8125 5.515625 26.8125 
Q 5.515625 40.234375 12.765625 48.109375 
Q 20.015625 56 32.328125 56 
Q 43.359375 56 49.78125 48.890625 
Q 56.203125 41.796875 56.203125 29.59375 
z
M 47.21875 32.234375 
Q 47.125 39.59375 43.09375 43.984375 
Q 39.0625 48.390625 32.421875 48.390625 
Q 24.90625 48.390625 20.390625 44.140625 
Q 15.875 39.890625 15.1875 32.171875 
z
" id="DejaVuSans-65"/>
     </defs>
     <g transform="translate(224.885 332.517752)scale(0.1 -0.1)">
      <use xlink:href="#DejaVuSans-64"/>
      <use x="63.476562" xlink:href="#DejaVuSans-61"/>
      <use x="124.755859" xlink:href="#DejaVuSans-74"/>
      <use x="163.964844" xlink:href="#DejaVuSans-65"/>
     </g>
    </g>
   </g>
   <g id="matplotlib.axis_2">
    <g id="ytick_1">
     <g id="line2d_17">
      <path clip-path="url(#p0234dcb1aa)" d="M 57.6 265.797818 
L 414.72 265.797818 
" style="fill:none;stroke:#b0b0b0;stroke-linecap:square;stroke-width:0.8;"/>
     </g>
     <g id="line2d_18">
      <defs>
       <path d="M 0 0 
L -3.5 0 
" id="m14d6fc4cac" style="stroke:#000000;stroke-width:0.8;"/>
      </defs>
      <g>
       <use style="stroke:#000000;stroke-width:0.8;" x="57.6" xlink:href="#m14d6fc4cac" y="265.797818"/>
      </g>
     </g>
     <g id="text_10">
      <!-- 0 -->
      <g transform="translate(44.2375 269.597037)scale(0.1 -0.1)">
       <use xlink:href="#DejaVuSans-30"/>
      </g>
     </g>
    </g>
    <g id="ytick_2">
     <g id="line2d_19">
      <path clip-path="url(#p0234dcb1aa)" d="M 57.6 231.369969 
L 414.72 231.369969 
" style="fill:none;stroke:#b0b0b0;stroke-linecap:square;stroke-width:0.8;"/>
     </g>
     <g id="line2d_20">
      <g>
       <use style="stroke:#000000;stroke-width:0.8;" x="57.6" xlink:href="#m14d6fc4cac" y="231.369969"/>
      </g>
     </g>
     <g id="text_11">
      <!-- 500 -->
      <g transform="translate(31.5125 235.169188)scale(0.1 -0.1)">
       <use xlink:href="#DejaVuSans-35"/>
       <use x="63.623047" xlink:href="#DejaVuSans-30"/>
       <use x="127.246094" xlink:href="#DejaVuSans-30"/>
      </g>
     </g>
    </g>
    <g id="ytick_3">
     <g id="line2d_21">
      <path clip-path="url(#p0234dcb1aa)" d="M 57.6 196.94212 
L 414.72 196.94212 
" style="fill:none;stroke:#b0b0b0;stroke-linecap:square;stroke-width:0.8;"/>
     </g>
     <g id="line2d_22">
      <g>
       <use style="stroke:#000000;stroke-width:0.8;" x="57.6" xlink:href="#m14d6fc4cac" y="196.94212"/>
      </g>
     </g>
     <g id="text_12">
      <!-- 1000 -->
      <g transform="translate(25.15 200.741339)scale(0.1 -0.1)">
       <use xlink:href="#DejaVuSans-31"/>
       <use x="63.623047" xlink:href="#DejaVuSans-30"/>
       <use x="127.246094" xlink:href="#DejaVuSans-30"/>
       <use x="190.869141" xlink:href="#DejaVuSans-30"/>
      </g>
     </g>
    </g>
    <g id="ytick_4">
     <g id="line2d_23">
      <path clip-path="url(#p0234dcb1aa)" d="M 57.6 162.514271 
L 414.72 162.514271 
" style="fill:none;stroke:#b0b0b0;stroke-linecap:square;stroke-width:0.8;"/>
     </g>
     <g id="line2d_24">
      <g>
       <use style="stroke:#000000;stroke-width:0.8;" x="57.6" xlink:href="#m14d6fc4cac" y="162.514271"/>
      </g>
     </g>
     <g id="text_13">
      <!-- 1500 -->
      <g transform="translate(25.15 166.31349)scale(0.1 -0.1)">
       <use xlink:href="#DejaVuSans-31"/>
       <use x="63.623047" xlink:href="#DejaVuSans-35"/>
       <use x="127.246094" xlink:href="#DejaVuSans-30"/>
       <use x="190.869141" xlink:href="#DejaVuSans-30"/>
      </g>
     </g>
    </g>
    <g id="ytick_5">
     <g id="line2d_25">
      <path clip-path="url(#p0234dcb1aa)" d="M 57.6 128.086422 
L 414.72 128.086422 
" style="fill:none;stroke:#b0b0b0;stroke-linecap:square;stroke-width:0.8;"/>
     </g>
     <g id="line2d_26">
      <g>
       <use style="stroke:#000000;stroke-width:0.8;" x="57.6" xlink:href="#m14d6fc4cac" y="128.086422"/>
      </g>
     </g>
     <g id="text_14">
      <!-- 2000 -->
      <g transform="translate(25.15 131.885641)scale(0.1 -0.1)">
       <use xlink:href="#DejaVuSans-32"/>
       <use x="63.623047" xlink:href="#DejaVuSans-30"/>
       <use x="127.246094" xlink:href="#DejaVuSans-30"/>
       <use x="190.869141" xlink:href="#DejaVuSans-30"/>
      </g>
     </g>
    </g>
    <g id="ytick_6">
     <g id="line2d_27">
      <path clip-path="url(#p0234dcb1aa)" d="M 57.6 93.658573 
L 414.72 93.658573 
" style="fill:none;stroke:#b0b0b0;stroke-linecap:square;stroke-width:0.8;"/>
     </g>
     <g id="line2d_28">
      <g>
       <use style="stroke:#000000;stroke-width:0.8;" x="57.6" xlink:href="#m14d6fc4cac" y="93.658573"/>
      </g>
     </g>
     <g id="text_15">
      <!-- 2500 -->
      <g transform="translate(25.15 97.457792)scale(0.1 -0.1)">
       <use xlink:href="#DejaVuSans-32"/>
       <use x="63.623047" xlink:href="#DejaVuSans-35"/>
       <use x="127.246094" xlink:href="#DejaVuSans-30"/>
       <use x="190.869141" xlink:href="#DejaVuSans-30"/>
      </g>
     </g>
    </g>
    <g id="ytick_7">
     <g id="line2d_29">
      <path clip-path="url(#p0234dcb1aa)" d="M 57.6 59.230724 
L 414.72 59.230724 
" style="fill:none;stroke:#b0b0b0;stroke-linecap:square;stroke-width:0.8;"/>
     </g>
     <g id="line2d_30">
      <g>
       <use style="stroke:#000000;stroke-width:0.8;" x="57.6" xlink:href="#m14d6fc4cac" y="59.230724"/>
      </g>
     </g>
     <g id="text_16">
      <!-- 3000 -->
      <g transform="translate(25.15 63.029943)scale(0.1 -0.1)">
       <use xlink:href="#DejaVuSans-33"/>
       <use x="63.623047" xlink:href="#DejaVuSans-30"/>
       <use x="127.246094" xlink:href="#DejaVuSans-30"/>
       <use x="190.869141" xlink:href="#DejaVuSans-30"/>
      </g>
     </g>
    </g>
    <g id="text_17">
     <!-- EUR -->
     <defs>
      <path d="M 9.8125 72.90625 
L 55.90625 72.90625 
L 55.90625 64.59375 
L 19.671875 64.59375 
L 19.671875 43.015625 
L 54.390625 43.015625 
L 54.390625 34.71875 
L 19.671875 34.71875 
L 19.671875 8.296875 
L 56.78125 8.296875 
L 56.78125 0 
L 9.8125 0 
z
" id="DejaVuSans-45"/>
      <path d="M 8.6875 72.90625 
L 18.609375 72.90625 
L 18.609375 28.609375 
Q 18.609375 16.890625 22.84375 11.734375 
Q 27.09375 6.59375 36.625 6.59375 
Q 46.09375 6.59375 50.34375 11.734375 
Q 54.59375 16.890625 54.59375 28.609375 
L 54.59375 72.90625 
L 64.5 72.90625 
L 64.5 27.390625 
Q 64.5 13.140625 57.4375 5.859375 
Q 50.390625 -1.421875 36.625 -1.421875 
Q 22.796875 -1.421875 15.734375 5.859375 
Q 8.6875 13.140625 8.6875 27.390625 
z
" id="DejaVuSans-55"/>
      <path d="M 44.390625 34.1875 
Q 47.5625 33.109375 50.5625 29.59375 
Q 53.5625 26.078125 56.59375 19.921875 
L 66.609375 0 
L 56 0 
L 46.6875 18.703125 
Q 43.0625 26.03125 39.671875 28.421875 
Q 36.28125 30.8125 30.421875 30.8125 
L 19.671875 30.8125 
L 19.671875 0 
L 9.8125 0 
L 9.8125 72.90625 
L 32.078125 72.90625 
Q 44.578125 72.90625 50.734375 67.671875 
Q 56.890625 62.453125 56.890625 51.90625 
Q 56.890625 45.015625 53.6875 40.46875 
Q 50.484375 35.9375 44.390625 34.1875 
z
M 19.671875 64.796875 
L 19.671875 38.921875 
L 32.078125 38.921875 
Q 39.203125 38.921875 42.84375 42.21875 
Q 46.484375 45.515625 46.484375 51.90625 
Q 46.484375 58.296875 42.84375 61.546875 
Q 39.203125 64.796875 32.078125 64.796875 
z
" id="DejaVuSans-52"/>
     </defs>
     <g transform="translate(19.070312 169.268969)rotate(-90)scale(0.1 -0.1)">
      <use xlink:href="#DejaVuSans-45"/>
      <use x="63.183594" xlink:href="#DejaVuSans-55"/>
      <use x="136.376953" xlink:href="#DejaVuSans-52"/>
     </g>
    </g>
   </g>
   <g id="line2d_31">
    <path clip-path="url(#p0234dcb1aa)" d="M 73.832727 265.797818 
L 180.548762 265.687294 
L 180.548762 265.514795 
L 186.826176 265.358313 
L 186.826176 265.341177 
L 193.103589 265.193482 
L 193.103589 265.005986 
L 202.51971 264.859261 
L 202.51971 264.488438 
L 202.51971 264.488438 
L 205.658417 264.488438 
L 205.658417 264.378114 
L 205.658417 264.248869 
L 208.797124 264.248869 
L 208.797124 264.142734 
L 208.797124 263.538636 
L 211.935831 263.401875 
L 211.935831 263.296159 
L 215.074538 263.173067 
L 215.074538 263.128283 
L 224.490658 263.012494 
L 224.490658 262.355299 
L 227.629365 262.251296 
L 227.629365 262.138572 
L 233.906779 261.980757 
L 233.906779 261.869572 
L 233.906779 261.869572 
L 246.461607 261.72585 
L 246.461607 261.554301 
L 246.461607 261.554301 
L 249.600313 261.41831 
L 249.600313 261.40506 
L 255.877727 261.347658 
L 255.877727 261.299041 
L 259.016434 261.173064 
L 259.016434 261.030347 
L 268.432555 260.929917 
L 268.432555 260.015328 
L 271.571262 259.922158 
L 271.571262 259.720691 
L 274.709969 259.592376 
L 274.709969 259.492646 
L 277.848676 259.40284 
L 277.848676 259.273706 
L 280.987382 259.162109 
L 280.987382 258.950172 
L 290.403503 258.844553 
L 290.403503 258.596283 
L 293.54221 258.596283 
L 293.54221 258.490744 
L 293.54221 258.382 
L 296.680917 258.263489 
L 296.680917 257.812624 
L 296.680917 257.812624 
L 299.819624 257.692027 
L 299.819624 257.654161 
L 302.958331 257.542385 
L 302.958331 257.417042 
L 312.374451 257.318348 
L 312.374451 256.975821 
L 315.513158 256.884426 
L 315.513158 256.833546 
L 321.790572 256.716213 
L 321.790572 256.716213 
L 321.790572 256.626133 
L 331.206693 256.479412 
L 331.206693 256.470057 
L 334.3454 256.342887 
L 334.3454 256.342887 
L 334.3454 256.341039 
L 340.622813 256.226671 
L 340.622813 256.226671 
L 340.622813 256.150726 
L 346.900227 256.130358 
L 346.900227 256.065132 
L 346.900227 255.998987 
L 356.316348 255.92035 
L 356.316348 255.705548 
L 362.593762 255.589099 
L 362.593762 255.128781 
L 365.732469 255.01407 
L 365.732469 254.680826 
L 368.871176 254.57715 
L 368.871176 254.475645 
L 378.287296 254.458819 
L 378.287296 254.370693 
L 378.287296 254.033646 
L 381.426003 253.911541 
L 381.426003 253.857823 
L 384.56471 253.747448 
L 384.56471 253.747448 
L 384.56471 253.642171 
L 387.703417 253.642171 
L 387.703417 253.562326 
L 387.703417 253.456305 
L 390.842124 253.456305 
L 390.842124 253.378105 
L 390.842124 253.251164 
L 397.119538 253.21738 
L 397.119538 253.21738 
" style="fill:none;stroke:#0000ff;stroke-linecap:square;stroke-width:1.5;"/>
   </g>
   <g id="line2d_32">
    <path clip-path="url(#p0234dcb1aa)" d="M 73.832727 265.797818 
L 82.854148 265.522395 
L 83.358848 231.094546 
L 84.003736 231.232258 
L 84.125579 231.714248 
L 84.383541 231.783103 
L 84.49158 232.47166 
L 84.613713 232.747083 
L 84.764981 235.225888 
L 84.899248 235.501311 
L 86.139909 246.518223 
L 86.653509 247.551058 
L 87.185527 248.17076 
L 87.314781 248.652749 
L 87.363642 248.721605 
L 87.426016 249.410162 
L 87.610452 249.479018 
L 87.765752 251.6824 
L 87.872083 251.888967 
L 88.057064 252.64638 
L 88.090776 253.059514 
L 88.206915 253.61036 
L 88.318041 254.505484 
L 88.571172 255.607175 
L 88.715938 256.226876 
L 88.775152 257.053145 
L 88.87745 257.397423 
L 89.039617 257.466279 
L 89.194409 258.154836 
L 89.250717 258.499114 
L 90.142269 260.220507 
L 90.503293 260.564785 
L 90.832022 260.702497 
L 90.933885 261.184486 
L 90.957243 261.528765 
L 91.076943 261.597621 
L 91.119156 262.492745 
L 91.69651 262.768167 
L 91.86438 263.181302 
L 92.374057 264.420704 
L 93.892479 264.833838 
L 93.970947 264.97155 
L 94.006512 264.626432 
L 94.031432 264.764143 
L 94.033612 127.052747 
L 94.132895 127.741304 
L 94.153929 128.154438 
L 94.330445 132.630059 
L 94.473939 134.007173 
L 94.579289 138.551649 
L 94.593057 138.620505 
L 94.749266 142.751846 
L 94.773606 146.883188 
L 94.938497 204.102273 
L 94.947506 203.756383 
L 94.982962 203.825239 
L 95.118646 205.822054 
L 95.224541 207.887725 
L 95.414425 214.084738 
L 95.504917 214.497872 
L 95.539319 217.2521 
L 95.566275 229.081705 
L 95.702757 229.150561 
L 95.847668 231.147376 
L 96.419756 231.82373 
L 96.425532 232.483567 
L 96.623554 232.75899 
L 96.680879 234.824661 
L 96.757421 238.68058 
L 96.887583 238.73112 
L 96.996384 238.937687 
L 97.095014 240.039379 
L 97.147798 240.17709 
L 97.291038 247.613505 
L 97.330053 247.751217 
L 97.507768 251.194002 
L 97.718941 252.639971 
L 97.819278 253.46624 
L 97.944499 253.741663 
L 98.070229 256.97788 
L 98.142884 257.666437 
L 98.345846 256.976805 
L 98.47975 258.00964 
L 98.612237 258.147351 
L 98.697026 258.834106 
L 98.9434 259.453808 
L 98.99226 260.142365 
L 99.288912 260.280076 
L 100.303143 260.486643 
L 100.553113 261.244056 
L 100.658209 263.034304 
L 101.10028 263.172015 
L 101.103331 263.654005 
L 101.31138 263.722861 
L 101.723989 265.099975 
L 103.562857 265.168021 
L 103.789723 265.374588 
L 103.836804 265.512299 
L 104.86008 265.718775 
L 106.298581 265.69706 
L 106.692228 265.003932 
L 106.729064 265.141644 
L 106.78123 265.554778 
L 106.87303 265.416133 
L 106.956184 265.622701 
L 109.933633 265.691552 
L 116.864544 265.760408 
L 119.227002 265.062711 
L 119.263693 265.613557 
L 122.38638 265.751268 
L 126.474872 265.055443 
L 126.484826 265.124298 
L 126.514978 265.744 
L 137.876588 265.674741 
L 137.876588 265.016887 
L 137.884181 265.705444 
L 138.573788 265.663502 
L 151.233348 265.731345 
L 163.606865 265.773884 
L 181.616358 265.656675 
L 181.616358 265.531937 
L 181.658571 265.738504 
L 181.710483 265.721058 
L 181.842171 265.70052 
L 182.155206 265.769376 
L 185.045068 265.756405 
L 186.387519 265.042181 
L 187.808293 264.975379 
L 187.808293 264.613964 
L 187.91041 264.958243 
L 189.203855 265.094642 
L 189.203855 265.088606 
L 189.556378 265.50174 
L 191.013189 265.479031 
L 191.194718 265.762249 
L 191.229338 265.479464 
L 191.326696 265.54832 
L 191.350527 265.686031 
L 194.466747 265.682874 
L 194.557203 265.751724 
L 195.362005 265.794325 
L 203.479994 265.676436 
L 203.535648 265.721906 
L 203.55007 265.652185 
L 204.048195 265.543412 
L 204.048195 265.47879 
L 204.153254 265.616501 
L 204.477369 265.551301 
L 204.565101 264.815997 
L 204.581957 264.884853 
L 204.710048 265.09142 
L 204.78808 265.229131 
L 206.657245 265.081179 
L 206.657245 265.007459 
L 206.757873 265.07631 
L 207.691965 265.169105 
L 207.838983 265.375672 
L 209.820509 265.123477 
L 209.884809 264.675091 
L 210.112438 264.698155 
L 210.206163 264.868915 
L 210.255569 264.629807 
L 210.298399 264.90523 
L 210.374033 265.249509 
L 210.454027 265.31306 
L 210.477567 265.450772 
L 210.993347 265.491605 
L 211.165649 265.124478 
L 211.2427 265.193334 
L 211.279863 265.399901 
L 214.09282 265.474266 
L 214.222001 265.58414 
L 214.722959 265.64747 
L 214.788276 265.549802 
L 214.810472 265.618658 
L 216.149581 265.522253 
L 216.149581 265.49135 
L 216.200004 265.560206 
L 216.534618 265.754797 
L 216.534618 265.733178 
L 217.191348 265.685258 
L 217.324598 265.511792 
L 217.336368 265.580647 
L 217.419631 265.718359 
L 217.510741 265.37408 
L 217.554843 265.442936 
L 217.711233 265.580155 
L 217.711233 265.577847 
L 219.964926 265.643855 
L 220.19528 265.712139 
L 220.19528 265.710327 
L 220.744735 265.779182 
L 225.535078 265.691126 
L 225.58837 265.121503 
L 225.94558 265.389808 
L 226.174989 265.455081 
L 226.181637 265.592792 
L 226.40596 265.32472 
L 226.416095 265.393575 
L 226.611066 265.652792 
L 226.611066 265.602823 
L 227.537275 265.699868 
L 228.605125 265.60557 
L 228.605125 265.558731 
L 228.641053 265.627587 
L 228.911403 265.740895 
L 232.38051 265.703738 
L 232.412079 265.772594 
L 232.59913 236.445575 
L 232.692855 238.54755 
L 232.861996 247.013878 
L 233.060273 260.502294 
L 233.311079 260.551983 
L 233.350857 260.620839 
L 233.754566 260.827406 
L 235.414557 260.783809 
L 235.450739 259.060999 
L 235.509699 260.713536 
L 235.822662 260.782392 
L 235.935459 262.848063 
L 236.010475 262.985774 
L 236.031037 263.398908 
L 238.132336 263.389055 
L 238.263297 262.682905 
L 238.278954 263.027184 
L 238.394076 263.43969 
L 238.394076 263.436553 
L 239.04801 263.557674 
L 239.212501 265.068551 
L 239.453644 265.132405 
L 239.453644 265.127674 
L 241.796994 265.171162 
L 242.210511 265.653152 
L 248.882007 265.697827 
L 248.882007 265.253367 
L 248.980128 265.391078 
L 249.062737 265.243085 
L 249.075416 265.449652 
L 251.755704 265.356131 
L 251.755704 265.313558 
L 251.926044 265.382413 
L 251.9712 265.657836 
L 252.146807 265.714578 
L 252.146807 265.685716 
L 253.927987 265.723146 
L 254.942 265.39326 
L 258.035189 265.457634 
L 258.109769 265.595345 
L 260.013482 265.511936 
L 260.013482 265.317549 
L 260.103974 265.386405 
L 260.299853 265.631678 
L 261.349612 265.711534 
L 268.227667 265.779684 
L 268.227667 265.778285 
L 269.547777 265.713918 
L 269.547777 264.912624 
L 269.84283 264.983015 
L 269.989848 265.367789 
L 270.215406 265.420919 
L 270.337539 265.549557 
L 270.337539 265.479046 
L 270.85074 265.53171 
L 270.85074 265.518567 
L 270.85074 264.820991 
L 270.940505 265.096414 
L 271.006694 265.509548 
L 271.194254 265.578404 
L 272.605437 265.645849 
L 272.605437 265.564188 
L 272.605437 265.469002 
L 272.699416 265.606714 
L 275.635052 265.50438 
L 275.635052 265.442452 
L 275.982416 265.579132 
L 275.982416 265.562043 
L 276.420419 265.632664 
L 276.658837 265.70152 
L 281.982759 265.593486 
L 281.982759 265.38769 
L 282.033109 265.456545 
L 282.501772 265.700529 
L 282.501772 265.696203 
L 283.020167 265.625995 
L 283.020167 265.557444 
L 283.044107 265.6263 
L 283.524577 265.695155 
L 289.284976 265.76093 
L 289.284976 265.754107 
L 289.487466 265.752279 
L 291.485013 265.648365 
L 291.485013 265.625894 
L 291.537761 265.763605 
L 292.684515 265.625313 
L 292.684515 265.589402 
L 292.729924 265.727113 
L 293.193792 265.614814 
L 293.263287 265.578761 
L 293.361189 265.647617 
L 293.427124 264.971764 
L 293.510024 265.453754 
L 294.522874 265.34287 
L 294.522874 265.332021 
L 294.679192 265.328398 
L 294.789374 265.016273 
L 294.832967 265.360552 
L 295.037019 265.450187 
L 295.159116 265.519043 
L 297.801697 265.42411 
L 297.801733 265.035888 
L 297.96419 265.139015 
L 298.102126 265.552149 
L 298.93145 265.444569 
L 298.93145 265.37607 
L 298.956915 265.444926 
L 299.749911 265.537748 
L 299.879019 265.606604 
L 300.883369 265.504606 
L 300.883369 265.475827 
L 300.961002 265.544683 
L 301.15085 265.600766 
L 301.15085 265.527031 
L 301.29863 265.595887 
L 304.316584 265.656133 
L 304.543414 265.724989 
L 305.191789 265.669355 
L 305.191789 265.49111 
L 305.242757 265.628821 
L 307.973686 265.594318 
L 309.154189 265.730412 
L 309.154189 265.729745 
L 313.519426 265.625927 
L 313.519426 265.418332 
L 313.527127 265.487187 
L 314.256113 265.623608 
L 314.256113 265.54206 
L 314.256113 265.419125 
L 314.292841 265.625692 
L 316.737872 265.671779 
L 316.803443 265.740635 
L 349.421619 265.761147 
L 349.682814 265.07259 
L 349.682814 263.934082 
L 349.732402 265.793186 
L 357.539971 265.693883 
L 357.539971 265.644017 
L 357.585962 265.712873 
L 357.936669 265.649684 
L 358.065886 265.716228 
L 358.065886 265.7062 
L 360.426056 265.594319 
L 360.426056 265.551489 
L 360.65096 265.620344 
L 360.939838 265.254109 
L 360.964322 265.322965 
L 360.998652 265.667243 
L 361.071344 265.650053 
L 361.601436 265.518944 
L 361.633114 264.976388 
L 361.63424 265.045244 
L 361.717866 264.84193 
L 361.718448 260.927451 
L 361.723388 263.734651 
L 361.862378 264.285496 
L 362.585406 264.238939 
L 362.585406 264.93197 
L 362.789895 265.000826 
L 363.573627 264.892288 
L 363.573663 264.504245 
L 365.037884 264.543437 
L 365.103419 264.611233 
L 365.103419 264.609845 
L 366.69061 264.495583 
L 366.69061 264.239778 
L 367.720171 264.091519 
L 367.801581 264.435797 
L 367.826211 265.6752 
L 368.129147 265.777196 
L 368.247321 265.109465 
L 368.390561 265.1602 
L 368.511387 264.473167 
L 368.556397 265.161724 
L 369.835238 265.054298 
L 369.835238 265.00827 
L 369.928673 265.077126 
L 371.398997 265.028828 
L 371.60156 265.717385 
L 379.354929 265.598748 
L 379.412145 265.406642 
L 379.555276 265.450478 
L 379.665712 265.656702 
L 379.665712 265.61697 
L 383.059221 265.649204 
L 383.318019 265.711274 
L 383.318019 265.669371 
L 385.64226 265.551376 
L 385.681567 265.511121 
L 385.729337 265.648832 
L 386.184268 265.721643 
L 386.580966 265.785345 
L 391.845311 265.654601 
L 391.950189 265.557583 
L 392.051253 265.76415 
L 392.996897 265.784894 
L 398.487273 265.774908 
L 398.487273 265.774908 
" style="fill:none;stroke:#ff0000;stroke-linecap:square;stroke-width:1.5;"/>
   </g>
   <g id="line2d_33">
    <path clip-path="url(#p0234dcb1aa)" d="M 73.832727 265.797818 
L 80.110141 265.728962 
L 80.110141 265.45354 
L 83.248848 265.315828 
L 83.248848 250.098719 
L 85.383532 249.754441 
L 86.387555 249.410162 
L 86.387555 238.255539 
L 89.526262 238.117828 
L 89.526262 232.815939 
L 92.664969 232.402805 
L 92.664969 196.804409 
L 92.664969 197.974956 
L 94.771172 197.286399 
L 94.842592 142.20184 
L 95.53645 141.513283 
L 95.552979 128.444275 
L 95.803676 127.755718 
L 95.803676 104.207069 
L 95.803676 105.246864 
L 96.419756 104.57051 
L 96.425532 103.910673 
L 96.680697 103.222116 
L 96.685456 100.467888 
L 98.942382 99.779331 
L 98.942382 95.165999 
L 102.081089 94.270875 
L 102.081089 93.857741 
L 102.081089 93.858642 
L 105.219796 93.72093 
L 105.219796 92.894662 
L 105.219796 93.933525 
L 114.635917 93.795814 
L 117.774624 93.38268 
L 117.774624 93.244968 
L 117.774624 93.933525 
L 124.052038 93.726958 
L 124.052038 93.107257 
L 124.052038 93.795814 
L 136.606865 93.107257 
L 136.606865 93.176113 
L 136.606865 93.86467 
L 161.71652 93.658102 
L 161.71652 93.740755 
L 180.548762 93.678184 
L 180.548762 93.471617 
L 180.548762 93.541704 
L 183.687469 93.472848 
L 183.687469 93.484766 
L 183.687469 94.178771 
L 186.826176 94.109915 
L 186.826176 93.008224 
L 186.826176 93.360299 
L 189.964882 93.222587 
L 189.964882 92.878309 
L 189.964882 93.33085 
L 193.103589 93.193139 
L 193.103589 92.84886 
L 193.103589 93.007946 
L 202.51971 92.813272 
L 202.51971 92.124715 
L 202.51971 93.09429 
L 205.658417 92.956578 
L 205.658417 92.543444 
L 205.658417 92.712087 
L 208.797124 92.574375 
L 208.797124 91.128406 
L 208.797124 91.93502 
L 211.935831 91.797309 
L 211.935831 91.315319 
L 211.935831 91.473786 
L 215.074538 91.336074 
L 215.074538 90.785229 
L 215.074538 91.349569 
L 218.213245 91.211858 
L 218.213245 91.143002 
L 218.213245 91.143573 
L 224.490658 90.947371 
L 224.490658 90.052247 
L 224.490658 90.451716 
L 227.629365 90.314004 
L 227.629365 90.107437 
L 227.629365 90.202642 
L 230.768072 90.06493 
L 230.768072 79.943143 
L 230.768072 79.982764 
L 232.828321 79.294207 
L 232.876273 65.729635 
L 233.906779 65.591923 
L 233.906779 61.185158 
L 233.906779 62.985568 
L 237.045486 62.64129 
L 237.045486 60.851042 
L 237.045486 61.569588 
L 239.149328 61.156454 
L 240.184193 60.674464 
L 240.184193 60.674464 
L 243.3229 60.681121 
L 246.461607 60.474554 
L 246.461607 60.06142 
L 246.461607 60.711626 
L 249.600313 60.367347 
L 249.600313 60.298492 
L 249.600313 60.326322 
L 252.73902 60.18861 
L 252.73902 60.593179 
L 255.877727 60.455468 
L 255.877727 60.111189 
L 255.877727 60.276382 
L 259.016434 60.13867 
L 259.016434 59.794392 
L 259.016434 59.925791 
L 268.432555 59.651029 
L 268.432555 58.20506 
L 268.432555 59.043902 
L 271.571262 58.90619 
L 271.571262 58.699623 
L 271.571262 58.748122 
L 274.709969 58.541555 
L 274.709969 58.334988 
L 274.709969 58.35636 
L 280.987382 58.110495 
L 280.987382 57.766216 
L 280.987382 57.861994 
L 290.403503 57.589652 
L 290.403503 56.901095 
L 290.403503 57.749506 
L 293.54221 57.611795 
L 293.54221 56.992094 
L 293.54221 57.360971 
L 296.680917 57.223259 
L 296.680917 56.603558 
L 296.680917 56.881854 
L 299.819624 56.744142 
L 299.819624 56.537575 
L 299.819624 56.608182 
L 302.958331 56.470471 
L 302.958331 56.195048 
L 302.958331 56.365815 
L 312.374451 56.108853 
L 312.374451 55.83343 
L 312.374451 55.960598 
L 315.513158 55.822887 
L 315.513158 55.685176 
L 315.513158 55.703987 
L 324.929279 55.43433 
L 324.929279 55.365474 
L 324.929279 55.391331 
L 337.484107 55.048085 
L 337.484107 54.979229 
L 337.484107 55.065165 
L 346.900227 54.879456 
L 346.900227 53.020352 
L 346.900227 54.812778 
L 356.316348 54.743922 
L 356.316348 54.606211 
L 356.316348 54.684831 
L 359.455055 54.54712 
L 359.455055 53.58314 
L 359.455055 54.061398 
L 361.601436 54.192507 
L 361.633114 54.735864 
L 361.71783 54.873575 
L 361.718448 58.853657 
L 361.719392 56.099429 
L 362.585406 56.080939 
L 362.593762 55.186739 
L 362.593762 55.293193 
L 365.732469 54.880059 
L 365.732469 52.814388 
L 365.732469 54.290233 
L 368.871176 54.152522 
L 368.871176 53.463965 
L 368.871176 53.52939 
L 375.148589 53.472368 
L 378.287296 53.334656 
L 378.287296 52.990378 
L 378.287296 53.106169 
L 381.426003 52.968458 
L 381.426003 52.693035 
L 381.426003 52.902744 
L 384.56471 52.765033 
L 384.56471 52.558466 
L 384.56471 52.647218 
L 387.703417 52.509506 
L 387.703417 52.440651 
L 387.703417 52.49846 
L 390.842124 52.360749 
L 390.842124 52.154182 
L 390.842124 52.248178 
L 397.119538 52.282459 
L 397.119538 52.282459 
" style="fill:none;stroke:#008000;stroke-linecap:square;stroke-width:1.5;"/>
   </g>
   <g id="line2d_34">
    <defs>
     <path d="M 0 3 
C 0.795609 3 1.55874 2.683901 2.12132 2.12132 
C 2.683901 1.55874 3 0.795609 3 0 
C 3 -0.795609 2.683901 -1.55874 2.12132 -2.12132 
C 1.55874 -2.683901 0.795609 -3 0 -3 
C -0.795609 -3 -1.55874 -2.683901 -2.12132 -2.12132 
C -2.683901 -1.55874 -3 -0.795609 -3 0 
C -3 0.795609 -2.683901 1.55874 -2.12132 2.12132 
C -1.55874 2.683901 -0.795609 3 0 3 
z
" id="m50d4e37987" style="stroke:#bfbf00;"/>
    </defs>
    <g clip-path="url(#p0234dcb1aa)">
     <use style="fill:#bfbf00;stroke:#bfbf00;" x="83.358848" xlink:href="#m50d4e37987" y="231.369969"/>
     <use style="fill:#bfbf00;stroke:#bfbf00;" x="94.033612" xlink:href="#m50d4e37987" y="128.086422"/>
    </g>
   </g>
   <g id="line2d_35">
    <defs>
     <path d="M 0 3 
C 0.795609 3 1.55874 2.683901 2.12132 2.12132 
C 2.683901 1.55874 3 0.795609 3 0 
C 3 -0.795609 2.683901 -1.55874 2.12132 -2.12132 
C 1.55874 -2.683901 0.795609 -3 0 -3 
C -0.795609 -3 -1.55874 -2.683901 -2.12132 -2.12132 
C -2.683901 -1.55874 -3 -0.795609 -3 0 
C -3 0.795609 -2.683901 1.55874 -2.12132 2.12132 
C -1.55874 2.683901 -0.795609 3 0 3 
z
" id="m070bf79c8a" style="stroke:#008000;"/>
    </defs>
    <g clip-path="url(#p0234dcb1aa)">
     <use style="fill:#008000;stroke:#008000;" x="232.59913" xlink:href="#m070bf79c8a" y="236.470799"/>
    </g>
   </g>
   <g id="patch_3">
    <path d="M 57.6 276.48 
L 57.6 41.472 
" style="fill:none;stroke:#000000;stroke-linecap:square;stroke-linejoin:miter;stroke-width:0.8;"/>
   </g>
   <g id="patch_4">
    <path d="M 414.72 276.48 
L 414.72 41.472 
" style="fill:none;stroke:#000000;stroke-linecap:square;stroke-linejoin:miter;stroke-width:0.8;"/>
   </g>
   <g id="patch_5">
    <path d="M 57.6 276.48 
L 414.72 276.48 
" style="fill:none;stroke:#000000;stroke-linecap:square;stroke-linejoin:miter;stroke-width:0.8;"/>
   </g>
   <g id="patch_6">
    <path d="M 57.6 41.472 
L 414.72 41.472 
" style="fill:none;stroke:#000000;stroke-linecap:square;stroke-linejoin:miter;stroke-width:0.8;"/>
   </g>
   <g id="text_18">
    <!-- My Bondora earnings -->
    <defs>
     <path d="M 9.8125 72.90625 
L 24.515625 72.90625 
L 43.109375 23.296875 
L 61.8125 72.90625 
L 76.515625 72.90625 
L 76.515625 0 
L 66.890625 0 
L 66.890625 64.015625 
L 48.09375 14.015625 
L 38.1875 14.015625 
L 19.390625 64.015625 
L 19.390625 0 
L 9.8125 0 
z
" id="DejaVuSans-4d"/>
     <path d="M 32.171875 -5.078125 
Q 28.375 -14.84375 24.75 -17.8125 
Q 21.140625 -20.796875 15.09375 -20.796875 
L 7.90625 -20.796875 
L 7.90625 -13.28125 
L 13.1875 -13.28125 
Q 16.890625 -13.28125 18.9375 -11.515625 
Q 21 -9.765625 23.484375 -3.21875 
L 25.09375 0.875 
L 2.984375 54.6875 
L 12.5 54.6875 
L 29.59375 11.921875 
L 46.6875 54.6875 
L 56.203125 54.6875 
z
" id="DejaVuSans-79"/>
     <path id="DejaVuSans-20"/>
     <path d="M 19.671875 34.8125 
L 19.671875 8.109375 
L 35.5 8.109375 
Q 43.453125 8.109375 47.28125 11.40625 
Q 51.125 14.703125 51.125 21.484375 
Q 51.125 28.328125 47.28125 31.5625 
Q 43.453125 34.8125 35.5 34.8125 
z
M 19.671875 64.796875 
L 19.671875 42.828125 
L 34.28125 42.828125 
Q 41.5 42.828125 45.03125 45.53125 
Q 48.578125 48.25 48.578125 53.8125 
Q 48.578125 59.328125 45.03125 62.0625 
Q 41.5 64.796875 34.28125 64.796875 
z
M 9.8125 72.90625 
L 35.015625 72.90625 
Q 46.296875 72.90625 52.390625 68.21875 
Q 58.5 63.53125 58.5 54.890625 
Q 58.5 48.1875 55.375 44.234375 
Q 52.25 40.28125 46.1875 39.3125 
Q 53.46875 37.75 57.5 32.78125 
Q 61.53125 27.828125 61.53125 20.40625 
Q 61.53125 10.640625 54.890625 5.3125 
Q 48.25 0 35.984375 0 
L 9.8125 0 
z
" id="DejaVuSans-42"/>
     <path d="M 30.609375 48.390625 
Q 23.390625 48.390625 19.1875 42.75 
Q 14.984375 37.109375 14.984375 27.296875 
Q 14.984375 17.484375 19.15625 11.84375 
Q 23.34375 6.203125 30.609375 6.203125 
Q 37.796875 6.203125 41.984375 11.859375 
Q 46.1875 17.53125 46.1875 27.296875 
Q 46.1875 37.015625 41.984375 42.703125 
Q 37.796875 48.390625 30.609375 48.390625 
z
M 30.609375 56 
Q 42.328125 56 49.015625 48.375 
Q 55.71875 40.765625 55.71875 27.296875 
Q 55.71875 13.875 49.015625 6.21875 
Q 42.328125 -1.421875 30.609375 -1.421875 
Q 18.84375 -1.421875 12.171875 6.21875 
Q 5.515625 13.875 5.515625 27.296875 
Q 5.515625 40.765625 12.171875 48.375 
Q 18.84375 56 30.609375 56 
z
" id="DejaVuSans-6f"/>
     <path d="M 54.890625 33.015625 
L 54.890625 0 
L 45.90625 0 
L 45.90625 32.71875 
Q 45.90625 40.484375 42.875 44.328125 
Q 39.84375 48.1875 33.796875 48.1875 
Q 26.515625 48.1875 22.3125 43.546875 
Q 18.109375 38.921875 18.109375 30.90625 
L 18.109375 0 
L 9.078125 0 
L 9.078125 54.6875 
L 18.109375 54.6875 
L 18.109375 46.1875 
Q 21.34375 51.125 25.703125 53.5625 
Q 30.078125 56 35.796875 56 
Q 45.21875 56 50.046875 50.171875 
Q 54.890625 44.34375 54.890625 33.015625 
z
" id="DejaVuSans-6e"/>
     <path d="M 41.109375 46.296875 
Q 39.59375 47.171875 37.8125 47.578125 
Q 36.03125 48 33.890625 48 
Q 26.265625 48 22.1875 43.046875 
Q 18.109375 38.09375 18.109375 28.8125 
L 18.109375 0 
L 9.078125 0 
L 9.078125 54.6875 
L 18.109375 54.6875 
L 18.109375 46.1875 
Q 20.953125 51.171875 25.484375 53.578125 
Q 30.03125 56 36.53125 56 
Q 37.453125 56 38.578125 55.875 
Q 39.703125 55.765625 41.0625 55.515625 
z
" id="DejaVuSans-72"/>
     <path d="M 9.421875 54.6875 
L 18.40625 54.6875 
L 18.40625 0 
L 9.421875 0 
z
M 9.421875 75.984375 
L 18.40625 75.984375 
L 18.40625 64.59375 
L 9.421875 64.59375 
z
" id="DejaVuSans-69"/>
     <path d="M 45.40625 27.984375 
Q 45.40625 37.75 41.375 43.109375 
Q 37.359375 48.484375 30.078125 48.484375 
Q 22.859375 48.484375 18.828125 43.109375 
Q 14.796875 37.75 14.796875 27.984375 
Q 14.796875 18.265625 18.828125 12.890625 
Q 22.859375 7.515625 30.078125 7.515625 
Q 37.359375 7.515625 41.375 12.890625 
Q 45.40625 18.265625 45.40625 27.984375 
z
M 54.390625 6.78125 
Q 54.390625 -7.171875 48.1875 -13.984375 
Q 42 -20.796875 29.203125 -20.796875 
Q 24.46875 -20.796875 20.265625 -20.09375 
Q 16.0625 -19.390625 12.109375 -17.921875 
L 12.109375 -9.1875 
Q 16.0625 -11.328125 19.921875 -12.34375 
Q 23.78125 -13.375 27.78125 -13.375 
Q 36.625 -13.375 41.015625 -8.765625 
Q 45.40625 -4.15625 45.40625 5.171875 
L 45.40625 9.625 
Q 42.625 4.78125 38.28125 2.390625 
Q 33.9375 0 27.875 0 
Q 17.828125 0 11.671875 7.65625 
Q 5.515625 15.328125 5.515625 27.984375 
Q 5.515625 40.671875 11.671875 48.328125 
Q 17.828125 56 27.875 56 
Q 33.9375 56 38.28125 53.609375 
Q 42.625 51.21875 45.40625 46.390625 
L 45.40625 54.6875 
L 54.390625 54.6875 
z
" id="DejaVuSans-67"/>
     <path d="M 44.28125 53.078125 
L 44.28125 44.578125 
Q 40.484375 46.53125 36.375 47.5 
Q 32.28125 48.484375 27.875 48.484375 
Q 21.1875 48.484375 17.84375 46.4375 
Q 14.5 44.390625 14.5 40.28125 
Q 14.5 37.15625 16.890625 35.375 
Q 19.28125 33.59375 26.515625 31.984375 
L 29.59375 31.296875 
Q 39.15625 29.25 43.1875 25.515625 
Q 47.21875 21.78125 47.21875 15.09375 
Q 47.21875 7.46875 41.1875 3.015625 
Q 35.15625 -1.421875 24.609375 -1.421875 
Q 20.21875 -1.421875 15.453125 -0.5625 
Q 10.6875 0.296875 5.421875 2 
L 5.421875 11.28125 
Q 10.40625 8.6875 15.234375 7.390625 
Q 20.0625 6.109375 24.8125 6.109375 
Q 31.15625 6.109375 34.5625 8.28125 
Q 37.984375 10.453125 37.984375 14.40625 
Q 37.984375 18.0625 35.515625 20.015625 
Q 33.0625 21.96875 24.703125 23.78125 
L 21.578125 24.515625 
Q 13.234375 26.265625 9.515625 29.90625 
Q 5.8125 33.546875 5.8125 39.890625 
Q 5.8125 47.609375 11.28125 51.796875 
Q 16.75 56 26.8125 56 
Q 31.78125 56 36.171875 55.265625 
Q 40.578125 54.546875 44.28125 53.078125 
z
" id="DejaVuSans-73"/>
    </defs>
    <g transform="translate(172.363125 35.472)scale(0.12 -0.12)">
     <use xlink:href="#DejaVuSans-4d"/>
     <use x="86.279297" xlink:href="#DejaVuSans-79"/>
     <use x="145.458984" xlink:href="#DejaVuSans-20"/>
     <use x="177.246094" xlink:href="#DejaVuSans-42"/>
     <use x="245.849609" xlink:href="#DejaVuSans-6f"/>
     <use x="307.03125" xlink:href="#DejaVuSans-6e"/>
     <use x="370.410156" xlink:href="#DejaVuSans-64"/>
     <use x="433.886719" xlink:href="#DejaVuSans-6f"/>
     <use x="495.068359" xlink:href="#DejaVuSans-72"/>
     <use x="536.181641" xlink:href="#DejaVuSans-61"/>
     <use x="597.460938" xlink:href="#DejaVuSans-20"/>
     <use x="629.248047" xlink:href="#DejaVuSans-65"/>
     <use x="690.771484" xlink:href="#DejaVuSans-61"/>
     <use x="752.050781" xlink:href="#DejaVuSans-72"/>
     <use x="793.148438" xlink:href="#DejaVuSans-6e"/>
     <use x="856.527344" xlink:href="#DejaVuSans-69"/>
     <use x="884.310547" xlink:href="#DejaVuSans-6e"/>
     <use x="947.689453" xlink:href="#DejaVuSans-67"/>
     <use x="1011.166016" xlink:href="#DejaVuSans-73"/>
    </g>
   </g>
   <g id="legend_1">
    <g id="patch_7">
     <path d="M 313.87 197.171312 
L 407.72 197.171312 
Q 409.72 197.171312 409.72 195.171312 
L 409.72 122.780687 
Q 409.72 120.780687 407.72 120.780687 
L 313.87 120.780687 
Q 311.87 120.780687 311.87 122.780687 
L 311.87 195.171312 
Q 311.87 197.171312 313.87 197.171312 
z
" style="fill:#ffffff;opacity:0.8;stroke:#cccccc;stroke-linejoin:miter;"/>
    </g>
    <g id="line2d_36">
     <path d="M 315.87 128.879125 
L 335.87 128.879125 
" style="fill:none;stroke:#0000ff;stroke-linecap:square;stroke-width:1.5;"/>
    </g>
    <g id="line2d_37"/>
    <g id="text_19">
     <!-- Interest -->
     <defs>
      <path d="M 9.8125 72.90625 
L 19.671875 72.90625 
L 19.671875 0 
L 9.8125 0 
z
" id="DejaVuSans-49"/>
     </defs>
     <g transform="translate(343.87 132.379125)scale(0.1 -0.1)">
      <use xlink:href="#DejaVuSans-49"/>
      <use x="29.492188" xlink:href="#DejaVuSans-6e"/>
      <use x="92.871094" xlink:href="#DejaVuSans-74"/>
      <use x="132.080078" xlink:href="#DejaVuSans-65"/>
      <use x="193.603516" xlink:href="#DejaVuSans-72"/>
      <use x="234.685547" xlink:href="#DejaVuSans-65"/>
      <use x="296.208984" xlink:href="#DejaVuSans-73"/>
      <use x="348.308594" xlink:href="#DejaVuSans-74"/>
     </g>
    </g>
    <g id="line2d_38">
     <path d="M 315.87 143.55725 
L 335.87 143.55725 
" style="fill:none;stroke:#ff0000;stroke-linecap:square;stroke-width:1.5;"/>
    </g>
    <g id="line2d_39"/>
    <g id="text_20">
     <!-- Balance -->
     <defs>
      <path d="M 9.421875 75.984375 
L 18.40625 75.984375 
L 18.40625 0 
L 9.421875 0 
z
" id="DejaVuSans-6c"/>
      <path d="M 48.78125 52.59375 
L 48.78125 44.1875 
Q 44.96875 46.296875 41.140625 47.34375 
Q 37.3125 48.390625 33.40625 48.390625 
Q 24.65625 48.390625 19.8125 42.84375 
Q 14.984375 37.3125 14.984375 27.296875 
Q 14.984375 17.28125 19.8125 11.734375 
Q 24.65625 6.203125 33.40625 6.203125 
Q 37.3125 6.203125 41.140625 7.25 
Q 44.96875 8.296875 48.78125 10.40625 
L 48.78125 2.09375 
Q 45.015625 0.34375 40.984375 -0.53125 
Q 36.96875 -1.421875 32.421875 -1.421875 
Q 20.0625 -1.421875 12.78125 6.34375 
Q 5.515625 14.109375 5.515625 27.296875 
Q 5.515625 40.671875 12.859375 48.328125 
Q 20.21875 56 33.015625 56 
Q 37.15625 56 41.109375 55.140625 
Q 45.0625 54.296875 48.78125 52.59375 
z
" id="DejaVuSans-63"/>
     </defs>
     <g transform="translate(343.87 147.05725)scale(0.1 -0.1)">
      <use xlink:href="#DejaVuSans-42"/>
      <use x="68.603516" xlink:href="#DejaVuSans-61"/>
      <use x="129.882812" xlink:href="#DejaVuSans-6c"/>
      <use x="157.666016" xlink:href="#DejaVuSans-61"/>
      <use x="218.945312" xlink:href="#DejaVuSans-6e"/>
      <use x="282.324219" xlink:href="#DejaVuSans-63"/>
      <use x="337.304688" xlink:href="#DejaVuSans-65"/>
     </g>
    </g>
    <g id="line2d_40">
     <path d="M 315.87 158.235375 
L 335.87 158.235375 
" style="fill:none;stroke:#008000;stroke-linecap:square;stroke-width:1.5;"/>
    </g>
    <g id="line2d_41"/>
    <g id="text_21">
     <!-- Investments -->
     <defs>
      <path d="M 2.984375 54.6875 
L 12.5 54.6875 
L 29.59375 8.796875 
L 46.6875 54.6875 
L 56.203125 54.6875 
L 35.6875 0 
L 23.484375 0 
z
" id="DejaVuSans-76"/>
      <path d="M 52 44.1875 
Q 55.375 50.25 60.0625 53.125 
Q 64.75 56 71.09375 56 
Q 79.640625 56 84.28125 50.015625 
Q 88.921875 44.046875 88.921875 33.015625 
L 88.921875 0 
L 79.890625 0 
L 79.890625 32.71875 
Q 79.890625 40.578125 77.09375 44.375 
Q 74.3125 48.1875 68.609375 48.1875 
Q 61.625 48.1875 57.5625 43.546875 
Q 53.515625 38.921875 53.515625 30.90625 
L 53.515625 0 
L 44.484375 0 
L 44.484375 32.71875 
Q 44.484375 40.625 41.703125 44.40625 
Q 38.921875 48.1875 33.109375 48.1875 
Q 26.21875 48.1875 22.15625 43.53125 
Q 18.109375 38.875 18.109375 30.90625 
L 18.109375 0 
L 9.078125 0 
L 9.078125 54.6875 
L 18.109375 54.6875 
L 18.109375 46.1875 
Q 21.1875 51.21875 25.484375 53.609375 
Q 29.78125 56 35.6875 56 
Q 41.65625 56 45.828125 52.96875 
Q 50 49.953125 52 44.1875 
z
" id="DejaVuSans-6d"/>
     </defs>
     <g transform="translate(343.87 161.735375)scale(0.1 -0.1)">
      <use xlink:href="#DejaVuSans-49"/>
      <use x="29.492188" xlink:href="#DejaVuSans-6e"/>
      <use x="92.871094" xlink:href="#DejaVuSans-76"/>
      <use x="152.050781" xlink:href="#DejaVuSans-65"/>
      <use x="213.574219" xlink:href="#DejaVuSans-73"/>
      <use x="265.673828" xlink:href="#DejaVuSans-74"/>
      <use x="304.882812" xlink:href="#DejaVuSans-6d"/>
      <use x="402.294922" xlink:href="#DejaVuSans-65"/>
      <use x="463.818359" xlink:href="#DejaVuSans-6e"/>
      <use x="527.197266" xlink:href="#DejaVuSans-74"/>
      <use x="566.40625" xlink:href="#DejaVuSans-73"/>
     </g>
    </g>
    <g id="line2d_42"/>
    <g id="line2d_43">
     <g>
      <use style="fill:#bfbf00;stroke:#bfbf00;" x="325.87" xlink:href="#m50d4e37987" y="172.9135"/>
     </g>
    </g>
    <g id="text_22">
     <!-- Deposits -->
     <defs>
      <path d="M 19.671875 64.796875 
L 19.671875 8.109375 
L 31.59375 8.109375 
Q 46.6875 8.109375 53.6875 14.9375 
Q 60.6875 21.78125 60.6875 36.53125 
Q 60.6875 51.171875 53.6875 57.984375 
Q 46.6875 64.796875 31.59375 64.796875 
z
M 9.8125 72.90625 
L 30.078125 72.90625 
Q 51.265625 72.90625 61.171875 64.09375 
Q 71.09375 55.28125 71.09375 36.53125 
Q 71.09375 17.671875 61.125 8.828125 
Q 51.171875 0 30.078125 0 
L 9.8125 0 
z
" id="DejaVuSans-44"/>
      <path d="M 18.109375 8.203125 
L 18.109375 -20.796875 
L 9.078125 -20.796875 
L 9.078125 54.6875 
L 18.109375 54.6875 
L 18.109375 46.390625 
Q 20.953125 51.265625 25.265625 53.625 
Q 29.59375 56 35.59375 56 
Q 45.5625 56 51.78125 48.09375 
Q 58.015625 40.1875 58.015625 27.296875 
Q 58.015625 14.40625 51.78125 6.484375 
Q 45.5625 -1.421875 35.59375 -1.421875 
Q 29.59375 -1.421875 25.265625 0.953125 
Q 20.953125 3.328125 18.109375 8.203125 
z
M 48.6875 27.296875 
Q 48.6875 37.203125 44.609375 42.84375 
Q 40.53125 48.484375 33.40625 48.484375 
Q 26.265625 48.484375 22.1875 42.84375 
Q 18.109375 37.203125 18.109375 27.296875 
Q 18.109375 17.390625 22.1875 11.75 
Q 26.265625 6.109375 33.40625 6.109375 
Q 40.53125 6.109375 44.609375 11.75 
Q 48.6875 17.390625 48.6875 27.296875 
z
" id="DejaVuSans-70"/>
     </defs>
     <g transform="translate(343.87 176.4135)scale(0.1 -0.1)">
      <use xlink:href="#DejaVuSans-44"/>
      <use x="77.001953" xlink:href="#DejaVuSans-65"/>
      <use x="138.525391" xlink:href="#DejaVuSans-70"/>
      <use x="202.001953" xlink:href="#DejaVuSans-6f"/>
      <use x="263.183594" xlink:href="#DejaVuSans-73"/>
      <use x="315.283203" xlink:href="#DejaVuSans-69"/>
      <use x="343.066406" xlink:href="#DejaVuSans-74"/>
      <use x="382.275391" xlink:href="#DejaVuSans-73"/>
     </g>
    </g>
    <g id="line2d_44"/>
    <g id="line2d_45">
     <g>
      <use style="fill:#008000;stroke:#008000;" x="325.87" xlink:href="#m070bf79c8a" y="187.591625"/>
     </g>
    </g>
    <g id="text_23">
     <!-- Commission -->
     <defs>
      <path d="M 64.40625 67.28125 
L 64.40625 56.890625 
Q 59.421875 61.53125 53.78125 63.8125 
Q 48.140625 66.109375 41.796875 66.109375 
Q 29.296875 66.109375 22.65625 58.46875 
Q 16.015625 50.828125 16.015625 36.375 
Q 16.015625 21.96875 22.65625 14.328125 
Q 29.296875 6.6875 41.796875 6.6875 
Q 48.140625 6.6875 53.78125 8.984375 
Q 59.421875 11.28125 64.40625 15.921875 
L 64.40625 5.609375 
Q 59.234375 2.09375 53.4375 0.328125 
Q 47.65625 -1.421875 41.21875 -1.421875 
Q 24.65625 -1.421875 15.125 8.703125 
Q 5.609375 18.84375 5.609375 36.375 
Q 5.609375 53.953125 15.125 64.078125 
Q 24.65625 74.21875 41.21875 74.21875 
Q 47.75 74.21875 53.53125 72.484375 
Q 59.328125 70.75 64.40625 67.28125 
z
" id="DejaVuSans-43"/>
     </defs>
     <g transform="translate(343.87 191.091625)scale(0.1 -0.1)">
      <use xlink:href="#DejaVuSans-43"/>
      <use x="69.824219" xlink:href="#DejaVuSans-6f"/>
      <use x="131.005859" xlink:href="#DejaVuSans-6d"/>
      <use x="228.417969" xlink:href="#DejaVuSans-6d"/>
      <use x="325.830078" xlink:href="#DejaVuSans-69"/>
      <use x="353.613281" xlink:href="#DejaVuSans-73"/>
      <use x="405.712891" xlink:href="#DejaVuSans-73"/>
      <use x="457.8125" xlink:href="#DejaVuSans-69"/>
      <use x="485.595703" xlink:href="#DejaVuSans-6f"/>
      <use x="546.777344" xlink:href="#DejaVuSans-6e"/>
     </g>
    </g>
   </g>
  </g>
 </g>
 <defs>
  <clipPath id="p0234dcb1aa">
   <rect height="235.008" width="357.12" x="57.6" y="41.472"/>
  </clipPath>
 </defs>
</svg>
