<?xml version="1.0" encoding="utf-8" standalone="no"?>
<!DOCTYPE svg PUBLIC "-//W3C//DTD SVG 1.1//EN"
  "http://www.w3.org/Graphics/SVG/1.1/DTD/svg11.dtd">
<!-- Created with matplotlib (http://matplotlib.org/) -->
<svg height="345.6pt" version="1.1" viewBox="0 0 460.8 345.6" width="460.8pt" xmlns="http://www.w3.org/2000/svg" xmlns:xlink="http://www.w3.org/1999/xlink">
 <defs>
  <style type="text/css">
*{stroke-linecap:butt;stroke-linejoin:round;}
  </style>
 </defs>
 <g id="figure_1">
  <g id="patch_1">
   <path d="M 0 345.6 
L 460.8 345.6 
L 460.8 0 
L 0 0 
z
" style="fill:#ffffff;"/>
  </g>
  <g id="axes_1">
   <g id="patch_2">
    <path d="M 57.6 276.48 
L 414.72 276.48 
L 414.72 41.472 
L 57.6 41.472 
z
" style="fill:#ffffff;"/>
   </g>
   <g id="matplotlib.axis_1">
    <g id="xtick_1">
     <g id="line2d_1">
      <path clip-path="url(#p3bc5bcd372)" d="M 73.832727 276.48 
L 73.832727 41.472 
" style="fill:none;stroke:#b0b0b0;stroke-linecap:square;stroke-width:0.8;"/>
     </g>
     <g id="line2d_2">
      <defs>
       <path d="M 0 0 
L 0 3.5 
" id="m2e80be558f" style="stroke:#000000;stroke-width:0.8;"/>
      </defs>
      <g>
       <use style="stroke:#000000;stroke-width:0.8;" x="73.832727" xlink:href="#m2e80be558f" y="276.48"/>
      </g>
     </g>
     <g id="text_1">
      <!-- 2019-01 -->
      <defs>
       <path d="M 19.1875 8.296875 
L 53.609375 8.296875 
L 53.609375 0 
L 7.328125 0 
L 7.328125 8.296875 
Q 12.9375 14.109375 22.625 23.890625 
Q 32.328125 33.6875 34.8125 36.53125 
Q 39.546875 41.84375 41.421875 45.53125 
Q 43.3125 49.21875 43.3125 52.78125 
Q 43.3125 58.59375 39.234375 62.25 
Q 35.15625 65.921875 28.609375 65.921875 
Q 23.96875 65.921875 18.8125 64.3125 
Q 13.671875 62.703125 7.8125 59.421875 
L 7.8125 69.390625 
Q 13.765625 71.78125 18.9375 73 
Q 24.125 74.21875 28.421875 74.21875 
Q 39.75 74.21875 46.484375 68.546875 
Q 53.21875 62.890625 53.21875 53.421875 
Q 53.21875 48.921875 51.53125 44.890625 
Q 49.859375 40.875 45.40625 35.40625 
Q 44.1875 33.984375 37.640625 27.21875 
Q 31.109375 20.453125 19.1875 8.296875 
z
" id="DejaVuSans-32"/>
       <path d="M 31.78125 66.40625 
Q 24.171875 66.40625 20.328125 58.90625 
Q 16.5 51.421875 16.5 36.375 
Q 16.5 21.390625 20.328125 13.890625 
Q 24.171875 6.390625 31.78125 6.390625 
Q 39.453125 6.390625 43.28125 13.890625 
Q 47.125 21.390625 47.125 36.375 
Q 47.125 51.421875 43.28125 58.90625 
Q 39.453125 66.40625 31.78125 66.40625 
z
M 31.78125 74.21875 
Q 44.046875 74.21875 50.515625 64.515625 
Q 56.984375 54.828125 56.984375 36.375 
Q 56.984375 17.96875 50.515625 8.265625 
Q 44.046875 -1.421875 31.78125 -1.421875 
Q 19.53125 -1.421875 13.0625 8.265625 
Q 6.59375 17.96875 6.59375 36.375 
Q 6.59375 54.828125 13.0625 64.515625 
Q 19.53125 74.21875 31.78125 74.21875 
z
" id="DejaVuSans-30"/>
       <path d="M 12.40625 8.296875 
L 28.515625 8.296875 
L 28.515625 63.921875 
L 10.984375 60.40625 
L 10.984375 69.390625 
L 28.421875 72.90625 
L 38.28125 72.90625 
L 38.28125 8.296875 
L 54.390625 8.296875 
L 54.390625 0 
L 12.40625 0 
z
" id="DejaVuSans-31"/>
       <path d="M 10.984375 1.515625 
L 10.984375 10.5 
Q 14.703125 8.734375 18.5 7.8125 
Q 22.3125 6.890625 25.984375 6.890625 
Q 35.75 6.890625 40.890625 13.453125 
Q 46.046875 20.015625 46.78125 33.40625 
Q 43.953125 29.203125 39.59375 26.953125 
Q 35.25 24.703125 29.984375 24.703125 
Q 19.046875 24.703125 12.671875 31.3125 
Q 6.296875 37.9375 6.296875 49.421875 
Q 6.296875 60.640625 12.9375 67.421875 
Q 19.578125 74.21875 30.609375 74.21875 
Q 43.265625 74.21875 49.921875 64.515625 
Q 56.59375 54.828125 56.59375 36.375 
Q 56.59375 19.140625 48.40625 8.859375 
Q 40.234375 -1.421875 26.421875 -1.421875 
Q 22.703125 -1.421875 18.890625 -0.6875 
Q 15.09375 0.046875 10.984375 1.515625 
z
M 30.609375 32.421875 
Q 37.25 32.421875 41.125 36.953125 
Q 45.015625 41.5 45.015625 49.421875 
Q 45.015625 57.28125 41.125 61.84375 
Q 37.25 66.40625 30.609375 66.40625 
Q 23.96875 66.40625 20.09375 61.84375 
Q 16.21875 57.28125 16.21875 49.421875 
Q 16.21875 41.5 20.09375 36.953125 
Q 23.96875 32.421875 30.609375 32.421875 
z
" id="DejaVuSans-39"/>
       <path d="M 4.890625 31.390625 
L 31.203125 31.390625 
L 31.203125 23.390625 
L 4.890625 23.390625 
z
" id="DejaVuSans-2d"/>
      </defs>
      <g transform="translate(36.607906 310.951846)rotate(-30)scale(0.1 -0.1)">
       <use xlink:href="#DejaVuSans-32"/>
       <use x="63.623047" xlink:href="#DejaVuSans-30"/>
       <use x="127.246094" xlink:href="#DejaVuSans-31"/>
       <use x="190.869141" xlink:href="#DejaVuSans-39"/>
       <use x="254.492188" xlink:href="#DejaVuSans-2d"/>
       <use x="290.576172" xlink:href="#DejaVuSans-30"/>
       <use x="354.199219" xlink:href="#DejaVuSans-31"/>
      </g>
     </g>
    </g>
    <g id="xtick_2">
     <g id="line2d_3">
      <path clip-path="url(#p3bc5bcd372)" d="M 128.724913 276.48 
L 128.724913 41.472 
" style="fill:none;stroke:#b0b0b0;stroke-linecap:square;stroke-width:0.8;"/>
     </g>
     <g id="line2d_4">
      <g>
       <use style="stroke:#000000;stroke-width:0.8;" x="128.724913" xlink:href="#m2e80be558f" y="276.48"/>
      </g>
     </g>
     <g id="text_2">
      <!-- 2019-03 -->
      <defs>
       <path d="M 40.578125 39.3125 
Q 47.65625 37.796875 51.625 33 
Q 55.609375 28.21875 55.609375 21.1875 
Q 55.609375 10.40625 48.1875 4.484375 
Q 40.765625 -1.421875 27.09375 -1.421875 
Q 22.515625 -1.421875 17.65625 -0.515625 
Q 12.796875 0.390625 7.625 2.203125 
L 7.625 11.71875 
Q 11.71875 9.328125 16.59375 8.109375 
Q 21.484375 6.890625 26.8125 6.890625 
Q 36.078125 6.890625 40.9375 10.546875 
Q 45.796875 14.203125 45.796875 21.1875 
Q 45.796875 27.640625 41.28125 31.265625 
Q 36.765625 34.90625 28.71875 34.90625 
L 20.21875 34.90625 
L 20.21875 43.015625 
L 29.109375 43.015625 
Q 36.375 43.015625 40.234375 45.921875 
Q 44.09375 48.828125 44.09375 54.296875 
Q 44.09375 59.90625 40.109375 62.90625 
Q 36.140625 65.921875 28.71875 65.921875 
Q 24.65625 65.921875 20.015625 65.03125 
Q 15.375 64.15625 9.8125 62.3125 
L 9.8125 71.09375 
Q 15.4375 72.65625 20.34375 73.4375 
Q 25.25 74.21875 29.59375 74.21875 
Q 40.828125 74.21875 47.359375 69.109375 
Q 53.90625 64.015625 53.90625 55.328125 
Q 53.90625 49.265625 50.4375 45.09375 
Q 46.96875 40.921875 40.578125 39.3125 
z
" id="DejaVuSans-33"/>
      </defs>
      <g transform="translate(91.500093 310.951846)rotate(-30)scale(0.1 -0.1)">
       <use xlink:href="#DejaVuSans-32"/>
       <use x="63.623047" xlink:href="#DejaVuSans-30"/>
       <use x="127.246094" xlink:href="#DejaVuSans-31"/>
       <use x="190.869141" xlink:href="#DejaVuSans-39"/>
       <use x="254.492188" xlink:href="#DejaVuSans-2d"/>
       <use x="290.576172" xlink:href="#DejaVuSans-30"/>
       <use x="354.199219" xlink:href="#DejaVuSans-33"/>
      </g>
     </g>
    </g>
    <g id="xtick_3">
     <g id="line2d_5">
      <path clip-path="url(#p3bc5bcd372)" d="M 185.477852 276.48 
L 185.477852 41.472 
" style="fill:none;stroke:#b0b0b0;stroke-linecap:square;stroke-width:0.8;"/>
     </g>
     <g id="line2d_6">
      <g>
       <use style="stroke:#000000;stroke-width:0.8;" x="185.477852" xlink:href="#m2e80be558f" y="276.48"/>
      </g>
     </g>
     <g id="text_3">
      <!-- 2019-05 -->
      <defs>
       <path d="M 10.796875 72.90625 
L 49.515625 72.90625 
L 49.515625 64.59375 
L 19.828125 64.59375 
L 19.828125 46.734375 
Q 21.96875 47.46875 24.109375 47.828125 
Q 26.265625 48.1875 28.421875 48.1875 
Q 40.625 48.1875 47.75 41.5 
Q 54.890625 34.8125 54.890625 23.390625 
Q 54.890625 11.625 47.5625 5.09375 
Q 40.234375 -1.421875 26.90625 -1.421875 
Q 22.3125 -1.421875 17.546875 -0.640625 
Q 12.796875 0.140625 7.71875 1.703125 
L 7.71875 11.625 
Q 12.109375 9.234375 16.796875 8.0625 
Q 21.484375 6.890625 26.703125 6.890625 
Q 35.15625 6.890625 40.078125 11.328125 
Q 45.015625 15.765625 45.015625 23.390625 
Q 45.015625 31 40.078125 35.4375 
Q 35.15625 39.890625 26.703125 39.890625 
Q 22.75 39.890625 18.8125 39.015625 
Q 14.890625 38.140625 10.796875 36.28125 
z
" id="DejaVuSans-35"/>
      </defs>
      <g transform="translate(148.253031 310.951846)rotate(-30)scale(0.1 -0.1)">
       <use xlink:href="#DejaVuSans-32"/>
       <use x="63.623047" xlink:href="#DejaVuSans-30"/>
       <use x="127.246094" xlink:href="#DejaVuSans-31"/>
       <use x="190.869141" xlink:href="#DejaVuSans-39"/>
       <use x="254.492188" xlink:href="#DejaVuSans-2d"/>
       <use x="290.576172" xlink:href="#DejaVuSans-30"/>
       <use x="354.199219" xlink:href="#DejaVuSans-35"/>
      </g>
     </g>
    </g>
    <g id="xtick_4">
     <g id="line2d_7">
      <path clip-path="url(#p3bc5bcd372)" d="M 242.23079 276.48 
L 242.23079 41.472 
" style="fill:none;stroke:#b0b0b0;stroke-linecap:square;stroke-width:0.8;"/>
     </g>
     <g id="line2d_8">
      <g>
       <use style="stroke:#000000;stroke-width:0.8;" x="242.23079" xlink:href="#m2e80be558f" y="276.48"/>
      </g>
     </g>
     <g id="text_4">
      <!-- 2019-07 -->
      <defs>
       <path d="M 8.203125 72.90625 
L 55.078125 72.90625 
L 55.078125 68.703125 
L 28.609375 0 
L 18.3125 0 
L 43.21875 64.59375 
L 8.203125 64.59375 
z
" id="DejaVuSans-37"/>
      </defs>
      <g transform="translate(205.005969 310.951846)rotate(-30)scale(0.1 -0.1)">
       <use xlink:href="#DejaVuSans-32"/>
       <use x="63.623047" xlink:href="#DejaVuSans-30"/>
       <use x="127.246094" xlink:href="#DejaVuSans-31"/>
       <use x="190.869141" xlink:href="#DejaVuSans-39"/>
       <use x="254.492188" xlink:href="#DejaVuSans-2d"/>
       <use x="290.576172" xlink:href="#DejaVuSans-30"/>
       <use x="354.199219" xlink:href="#DejaVuSans-37"/>
      </g>
     </g>
    </g>
    <g id="xtick_5">
     <g id="line2d_9">
      <path clip-path="url(#p3bc5bcd372)" d="M 299.914104 276.48 
L 299.914104 41.472 
" style="fill:none;stroke:#b0b0b0;stroke-linecap:square;stroke-width:0.8;"/>
     </g>
     <g id="line2d_10">
      <g>
       <use style="stroke:#000000;stroke-width:0.8;" x="299.914104" xlink:href="#m2e80be558f" y="276.48"/>
      </g>
     </g>
     <g id="text_5">
      <!-- 2019-09 -->
      <g transform="translate(262.689283 310.951846)rotate(-30)scale(0.1 -0.1)">
       <use xlink:href="#DejaVuSans-32"/>
       <use x="63.623047" xlink:href="#DejaVuSans-30"/>
       <use x="127.246094" xlink:href="#DejaVuSans-31"/>
       <use x="190.869141" xlink:href="#DejaVuSans-39"/>
       <use x="254.492188" xlink:href="#DejaVuSans-2d"/>
       <use x="290.576172" xlink:href="#DejaVuSans-30"/>
       <use x="354.199219" xlink:href="#DejaVuSans-39"/>
      </g>
     </g>
    </g>
    <g id="xtick_6">
     <g id="line2d_11">
      <path clip-path="url(#p3bc5bcd372)" d="M 356.667042 276.48 
L 356.667042 41.472 
" style="fill:none;stroke:#b0b0b0;stroke-linecap:square;stroke-width:0.8;"/>
     </g>
     <g id="line2d_12">
      <g>
       <use style="stroke:#000000;stroke-width:0.8;" x="356.667042" xlink:href="#m2e80be558f" y="276.48"/>
      </g>
     </g>
     <g id="text_6">
      <!-- 2019-11 -->
      <g transform="translate(319.442221 310.951846)rotate(-30)scale(0.1 -0.1)">
       <use xlink:href="#DejaVuSans-32"/>
       <use x="63.623047" xlink:href="#DejaVuSans-30"/>
       <use x="127.246094" xlink:href="#DejaVuSans-31"/>
       <use x="190.869141" xlink:href="#DejaVuSans-39"/>
       <use x="254.492188" xlink:href="#DejaVuSans-2d"/>
       <use x="290.576172" xlink:href="#DejaVuSans-31"/>
       <use x="354.199219" xlink:href="#DejaVuSans-31"/>
      </g>
     </g>
    </g>
    <g id="xtick_7">
     <g id="line2d_13">
      <path clip-path="url(#p3bc5bcd372)" d="M 413.41998 276.48 
L 413.41998 41.472 
" style="fill:none;stroke:#b0b0b0;stroke-linecap:square;stroke-width:0.8;"/>
     </g>
     <g id="line2d_14">
      <g>
       <use style="stroke:#000000;stroke-width:0.8;" x="413.41998" xlink:href="#m2e80be558f" y="276.48"/>
      </g>
     </g>
     <g id="text_7">
      <!-- 2020-01 -->
      <g transform="translate(376.19516 310.951846)rotate(-30)scale(0.1 -0.1)">
       <use xlink:href="#DejaVuSans-32"/>
       <use x="63.623047" xlink:href="#DejaVuSans-30"/>
       <use x="127.246094" xlink:href="#DejaVuSans-32"/>
       <use x="190.869141" xlink:href="#DejaVuSans-30"/>
       <use x="254.492188" xlink:href="#DejaVuSans-2d"/>
       <use x="290.576172" xlink:href="#DejaVuSans-30"/>
       <use x="354.199219" xlink:href="#DejaVuSans-31"/>
      </g>
     </g>
    </g>
    <g id="text_8">
     <!-- date -->
     <defs>
      <path d="M 45.40625 46.390625 
L 45.40625 75.984375 
L 54.390625 75.984375 
L 54.390625 0 
L 45.40625 0 
L 45.40625 8.203125 
Q 42.578125 3.328125 38.25 0.953125 
Q 33.9375 -1.421875 27.875 -1.421875 
Q 17.96875 -1.421875 11.734375 6.484375 
Q 5.515625 14.40625 5.515625 27.296875 
Q 5.515625 40.1875 11.734375 48.09375 
Q 17.96875 56 27.875 56 
Q 33.9375 56 38.25 53.625 
Q 42.578125 51.265625 45.40625 46.390625 
z
M 14.796875 27.296875 
Q 14.796875 17.390625 18.875 11.75 
Q 22.953125 6.109375 30.078125 6.109375 
Q 37.203125 6.109375 41.296875 11.75 
Q 45.40625 17.390625 45.40625 27.296875 
Q 45.40625 37.203125 41.296875 42.84375 
Q 37.203125 48.484375 30.078125 48.484375 
Q 22.953125 48.484375 18.875 42.84375 
Q 14.796875 37.203125 14.796875 27.296875 
z
" id="DejaVuSans-64"/>
      <path d="M 34.28125 27.484375 
Q 23.390625 27.484375 19.1875 25 
Q 14.984375 22.515625 14.984375 16.5 
Q 14.984375 11.71875 18.140625 8.90625 
Q 21.296875 6.109375 26.703125 6.109375 
Q 34.1875 6.109375 38.703125 11.40625 
Q 43.21875 16.703125 43.21875 25.484375 
L 43.21875 27.484375 
z
M 52.203125 31.203125 
L 52.203125 0 
L 43.21875 0 
L 43.21875 8.296875 
Q 40.140625 3.328125 35.546875 0.953125 
Q 30.953125 -1.421875 24.3125 -1.421875 
Q 15.921875 -1.421875 10.953125 3.296875 
Q 6 8.015625 6 15.921875 
Q 6 25.140625 12.171875 29.828125 
Q 18.359375 34.515625 30.609375 34.515625 
L 43.21875 34.515625 
L 43.21875 35.40625 
Q 43.21875 41.609375 39.140625 45 
Q 35.0625 48.390625 27.6875 48.390625 
Q 23 48.390625 18.546875 47.265625 
Q 14.109375 46.140625 10.015625 43.890625 
L 10.015625 52.203125 
Q 14.9375 54.109375 19.578125 55.046875 
Q 24.21875 56 28.609375 56 
Q 40.484375 56 46.34375 49.84375 
Q 52.203125 43.703125 52.203125 31.203125 
z
" id="DejaVuSans-61"/>
      <path d="M 18.3125 70.21875 
L 18.3125 54.6875 
L 36.8125 54.6875 
L 36.8125 47.703125 
L 18.3125 47.703125 
L 18.3125 18.015625 
Q 18.3125 11.328125 20.140625 9.421875 
Q 21.96875 7.515625 27.59375 7.515625 
L 36.8125 7.515625 
L 36.8125 0 
L 27.59375 0 
Q 17.1875 0 13.234375 3.875 
Q 9.28125 7.765625 9.28125 18.015625 
L 9.28125 47.703125 
L 2.6875 47.703125 
L 2.6875 54.6875 
L 9.28125 54.6875 
L 9.28125 70.21875 
z
" id="DejaVuSans-74"/>
      <path d="M 56.203125 29.59375 
L 56.203125 25.203125 
L 14.890625 25.203125 
Q 15.484375 15.921875 20.484375 11.0625 
Q 25.484375 6.203125 34.421875 6.203125 
Q 39.59375 6.203125 44.453125 7.46875 
Q 49.3125 8.734375 54.109375 11.28125 
L 54.109375 2.78125 
Q 49.265625 0.734375 44.1875 -0.34375 
Q 39.109375 -1.421875 33.890625 -1.421875 
Q 20.796875 -1.421875 13.15625 6.1875 
Q 5.515625 13.8125 5.515625 26.8125 
Q 5.515625 40.234375 12.765625 48.109375 
Q 20.015625 56 32.328125 56 
Q 43.359375 56 49.78125 48.890625 
Q 56.203125 41.796875 56.203125 29.59375 
z
M 47.21875 32.234375 
Q 47.125 39.59375 43.09375 43.984375 
Q 39.0625 48.390625 32.421875 48.390625 
Q 24.90625 48.390625 20.390625 44.140625 
Q 15.875 39.890625 15.1875 32.171875 
z
" id="DejaVuSans-65"/>
     </defs>
     <g transform="translate(224.885 324.351346)scale(0.1 -0.1)">
      <use xlink:href="#DejaVuSans-64"/>
      <use x="63.476562" xlink:href="#DejaVuSans-61"/>
      <use x="124.755859" xlink:href="#DejaVuSans-74"/>
      <use x="163.964844" xlink:href="#DejaVuSans-65"/>
     </g>
    </g>
   </g>
   <g id="matplotlib.axis_2">
    <g id="ytick_1">
     <g id="line2d_15">
      <path clip-path="url(#p3bc5bcd372)" d="M 57.6 265.797818 
L 414.72 265.797818 
" style="fill:none;stroke:#b0b0b0;stroke-linecap:square;stroke-width:0.8;"/>
     </g>
     <g id="line2d_16">
      <defs>
       <path d="M 0 0 
L -3.5 0 
" id="m929478e597" style="stroke:#000000;stroke-width:0.8;"/>
      </defs>
      <g>
       <use style="stroke:#000000;stroke-width:0.8;" x="57.6" xlink:href="#m929478e597" y="265.797818"/>
      </g>
     </g>
     <g id="text_9">
      <!-- 0 -->
      <g transform="translate(44.2375 269.597037)scale(0.1 -0.1)">
       <use xlink:href="#DejaVuSans-30"/>
      </g>
     </g>
    </g>
    <g id="ytick_2">
     <g id="line2d_17">
      <path clip-path="url(#p3bc5bcd372)" d="M 57.6 226.240614 
L 414.72 226.240614 
" style="fill:none;stroke:#b0b0b0;stroke-linecap:square;stroke-width:0.8;"/>
     </g>
     <g id="line2d_18">
      <g>
       <use style="stroke:#000000;stroke-width:0.8;" x="57.6" xlink:href="#m929478e597" y="226.240614"/>
      </g>
     </g>
     <g id="text_10">
      <!-- 2000 -->
      <g transform="translate(25.15 230.039832)scale(0.1 -0.1)">
       <use xlink:href="#DejaVuSans-32"/>
       <use x="63.623047" xlink:href="#DejaVuSans-30"/>
       <use x="127.246094" xlink:href="#DejaVuSans-30"/>
       <use x="190.869141" xlink:href="#DejaVuSans-30"/>
      </g>
     </g>
    </g>
    <g id="ytick_3">
     <g id="line2d_19">
      <path clip-path="url(#p3bc5bcd372)" d="M 57.6 186.683409 
L 414.72 186.683409 
" style="fill:none;stroke:#b0b0b0;stroke-linecap:square;stroke-width:0.8;"/>
     </g>
     <g id="line2d_20">
      <g>
       <use style="stroke:#000000;stroke-width:0.8;" x="57.6" xlink:href="#m929478e597" y="186.683409"/>
      </g>
     </g>
     <g id="text_11">
      <!-- 4000 -->
      <defs>
       <path d="M 37.796875 64.3125 
L 12.890625 25.390625 
L 37.796875 25.390625 
z
M 35.203125 72.90625 
L 47.609375 72.90625 
L 47.609375 25.390625 
L 58.015625 25.390625 
L 58.015625 17.1875 
L 47.609375 17.1875 
L 47.609375 0 
L 37.796875 0 
L 37.796875 17.1875 
L 4.890625 17.1875 
L 4.890625 26.703125 
z
" id="DejaVuSans-34"/>
      </defs>
      <g transform="translate(25.15 190.482628)scale(0.1 -0.1)">
       <use xlink:href="#DejaVuSans-34"/>
       <use x="63.623047" xlink:href="#DejaVuSans-30"/>
       <use x="127.246094" xlink:href="#DejaVuSans-30"/>
       <use x="190.869141" xlink:href="#DejaVuSans-30"/>
      </g>
     </g>
    </g>
    <g id="ytick_4">
     <g id="line2d_21">
      <path clip-path="url(#p3bc5bcd372)" d="M 57.6 147.126205 
L 414.72 147.126205 
" style="fill:none;stroke:#b0b0b0;stroke-linecap:square;stroke-width:0.8;"/>
     </g>
     <g id="line2d_22">
      <g>
       <use style="stroke:#000000;stroke-width:0.8;" x="57.6" xlink:href="#m929478e597" y="147.126205"/>
      </g>
     </g>
     <g id="text_12">
      <!-- 6000 -->
      <defs>
       <path d="M 33.015625 40.375 
Q 26.375 40.375 22.484375 35.828125 
Q 18.609375 31.296875 18.609375 23.390625 
Q 18.609375 15.53125 22.484375 10.953125 
Q 26.375 6.390625 33.015625 6.390625 
Q 39.65625 6.390625 43.53125 10.953125 
Q 47.40625 15.53125 47.40625 23.390625 
Q 47.40625 31.296875 43.53125 35.828125 
Q 39.65625 40.375 33.015625 40.375 
z
M 52.59375 71.296875 
L 52.59375 62.3125 
Q 48.875 64.0625 45.09375 64.984375 
Q 41.3125 65.921875 37.59375 65.921875 
Q 27.828125 65.921875 22.671875 59.328125 
Q 17.53125 52.734375 16.796875 39.40625 
Q 19.671875 43.65625 24.015625 45.921875 
Q 28.375 48.1875 33.59375 48.1875 
Q 44.578125 48.1875 50.953125 41.515625 
Q 57.328125 34.859375 57.328125 23.390625 
Q 57.328125 12.15625 50.6875 5.359375 
Q 44.046875 -1.421875 33.015625 -1.421875 
Q 20.359375 -1.421875 13.671875 8.265625 
Q 6.984375 17.96875 6.984375 36.375 
Q 6.984375 53.65625 15.1875 63.9375 
Q 23.390625 74.21875 37.203125 74.21875 
Q 40.921875 74.21875 44.703125 73.484375 
Q 48.484375 72.75 52.59375 71.296875 
z
" id="DejaVuSans-36"/>
      </defs>
      <g transform="translate(25.15 150.925423)scale(0.1 -0.1)">
       <use xlink:href="#DejaVuSans-36"/>
       <use x="63.623047" xlink:href="#DejaVuSans-30"/>
       <use x="127.246094" xlink:href="#DejaVuSans-30"/>
       <use x="190.869141" xlink:href="#DejaVuSans-30"/>
      </g>
     </g>
    </g>
    <g id="ytick_5">
     <g id="line2d_23">
      <path clip-path="url(#p3bc5bcd372)" d="M 57.6 107.569 
L 414.72 107.569 
" style="fill:none;stroke:#b0b0b0;stroke-linecap:square;stroke-width:0.8;"/>
     </g>
     <g id="line2d_24">
      <g>
       <use style="stroke:#000000;stroke-width:0.8;" x="57.6" xlink:href="#m929478e597" y="107.569"/>
      </g>
     </g>
     <g id="text_13">
      <!-- 8000 -->
      <defs>
       <path d="M 31.78125 34.625 
Q 24.75 34.625 20.71875 30.859375 
Q 16.703125 27.09375 16.703125 20.515625 
Q 16.703125 13.921875 20.71875 10.15625 
Q 24.75 6.390625 31.78125 6.390625 
Q 38.8125 6.390625 42.859375 10.171875 
Q 46.921875 13.96875 46.921875 20.515625 
Q 46.921875 27.09375 42.890625 30.859375 
Q 38.875 34.625 31.78125 34.625 
z
M 21.921875 38.8125 
Q 15.578125 40.375 12.03125 44.71875 
Q 8.5 49.078125 8.5 55.328125 
Q 8.5 64.0625 14.71875 69.140625 
Q 20.953125 74.21875 31.78125 74.21875 
Q 42.671875 74.21875 48.875 69.140625 
Q 55.078125 64.0625 55.078125 55.328125 
Q 55.078125 49.078125 51.53125 44.71875 
Q 48 40.375 41.703125 38.8125 
Q 48.828125 37.15625 52.796875 32.3125 
Q 56.78125 27.484375 56.78125 20.515625 
Q 56.78125 9.90625 50.3125 4.234375 
Q 43.84375 -1.421875 31.78125 -1.421875 
Q 19.734375 -1.421875 13.25 4.234375 
Q 6.78125 9.90625 6.78125 20.515625 
Q 6.78125 27.484375 10.78125 32.3125 
Q 14.796875 37.15625 21.921875 38.8125 
z
M 18.3125 54.390625 
Q 18.3125 48.734375 21.84375 45.5625 
Q 25.390625 42.390625 31.78125 42.390625 
Q 38.140625 42.390625 41.71875 45.5625 
Q 45.3125 48.734375 45.3125 54.390625 
Q 45.3125 60.0625 41.71875 63.234375 
Q 38.140625 66.40625 31.78125 66.40625 
Q 25.390625 66.40625 21.84375 63.234375 
Q 18.3125 60.0625 18.3125 54.390625 
z
" id="DejaVuSans-38"/>
      </defs>
      <g transform="translate(25.15 111.368219)scale(0.1 -0.1)">
       <use xlink:href="#DejaVuSans-38"/>
       <use x="63.623047" xlink:href="#DejaVuSans-30"/>
       <use x="127.246094" xlink:href="#DejaVuSans-30"/>
       <use x="190.869141" xlink:href="#DejaVuSans-30"/>
      </g>
     </g>
    </g>
    <g id="ytick_6">
     <g id="line2d_25">
      <path clip-path="url(#p3bc5bcd372)" d="M 57.6 68.011795 
L 414.72 68.011795 
" style="fill:none;stroke:#b0b0b0;stroke-linecap:square;stroke-width:0.8;"/>
     </g>
     <g id="line2d_26">
      <g>
       <use style="stroke:#000000;stroke-width:0.8;" x="57.6" xlink:href="#m929478e597" y="68.011795"/>
      </g>
     </g>
     <g id="text_14">
      <!-- 10000 -->
      <g transform="translate(18.7875 71.811014)scale(0.1 -0.1)">
       <use xlink:href="#DejaVuSans-31"/>
       <use x="63.623047" xlink:href="#DejaVuSans-30"/>
       <use x="127.246094" xlink:href="#DejaVuSans-30"/>
       <use x="190.869141" xlink:href="#DejaVuSans-30"/>
       <use x="254.492188" xlink:href="#DejaVuSans-30"/>
      </g>
     </g>
    </g>
    <g id="text_15">
     <!-- EUR -->
     <defs>
      <path d="M 9.8125 72.90625 
L 55.90625 72.90625 
L 55.90625 64.59375 
L 19.671875 64.59375 
L 19.671875 43.015625 
L 54.390625 43.015625 
L 54.390625 34.71875 
L 19.671875 34.71875 
L 19.671875 8.296875 
L 56.78125 8.296875 
L 56.78125 0 
L 9.8125 0 
z
" id="DejaVuSans-45"/>
      <path d="M 8.6875 72.90625 
L 18.609375 72.90625 
L 18.609375 28.609375 
Q 18.609375 16.890625 22.84375 11.734375 
Q 27.09375 6.59375 36.625 6.59375 
Q 46.09375 6.59375 50.34375 11.734375 
Q 54.59375 16.890625 54.59375 28.609375 
L 54.59375 72.90625 
L 64.5 72.90625 
L 64.5 27.390625 
Q 64.5 13.140625 57.4375 5.859375 
Q 50.390625 -1.421875 36.625 -1.421875 
Q 22.796875 -1.421875 15.734375 5.859375 
Q 8.6875 13.140625 8.6875 27.390625 
z
" id="DejaVuSans-55"/>
      <path d="M 44.390625 34.1875 
Q 47.5625 33.109375 50.5625 29.59375 
Q 53.5625 26.078125 56.59375 19.921875 
L 66.609375 0 
L 56 0 
L 46.6875 18.703125 
Q 43.0625 26.03125 39.671875 28.421875 
Q 36.28125 30.8125 30.421875 30.8125 
L 19.671875 30.8125 
L 19.671875 0 
L 9.8125 0 
L 9.8125 72.90625 
L 32.078125 72.90625 
Q 44.578125 72.90625 50.734375 67.671875 
Q 56.890625 62.453125 56.890625 51.90625 
Q 56.890625 45.015625 53.6875 40.46875 
Q 50.484375 35.9375 44.390625 34.1875 
z
M 19.671875 64.796875 
L 19.671875 38.921875 
L 32.078125 38.921875 
Q 39.203125 38.921875 42.84375 42.21875 
Q 46.484375 45.515625 46.484375 51.90625 
Q 46.484375 58.296875 42.84375 61.546875 
Q 39.203125 64.796875 32.078125 64.796875 
z
" id="DejaVuSans-52"/>
     </defs>
     <g transform="translate(12.707813 169.268969)rotate(-90)scale(0.1 -0.1)">
      <use xlink:href="#DejaVuSans-45"/>
      <use x="63.183594" xlink:href="#DejaVuSans-55"/>
      <use x="136.376953" xlink:href="#DejaVuSans-52"/>
     </g>
    </g>
   </g>
   <g id="line2d_27">
    <path clip-path="url(#p3bc5bcd372)" d="M 73.832727 265.797818 
L 106.395889 265.709312 
L 106.395889 265.690632 
L 111.978145 265.541971 
L 111.978145 265.421702 
L 111.978145 265.421702 
L 113.838897 265.352887 
L 113.838897 265.311678 
L 113.838897 265.148875 
L 118.490777 264.992424 
L 118.490777 264.808965 
L 121.281905 264.686939 
L 121.281905 264.669441 
L 121.281905 264.669441 
L 125.933785 264.556833 
L 125.933785 264.536011 
L 130.585665 264.428363 
L 130.585665 264.427961 
L 131.516042 264.314056 
L 131.516042 264.136814 
L 133.376794 264.030211 
L 133.376794 263.986676 
L 135.237546 263.875811 
L 135.237546 263.830852 
L 138.95905 263.716553 
L 138.95905 263.667646 
L 139.889426 263.552166 
L 139.889426 263.504094 
L 139.889426 263.504094 
L 144.541306 263.371004 
L 144.541306 263.371004 
L 144.541306 263.263725 
L 148.26281 263.159161 
L 148.26281 263.131581 
L 154.775442 263.002132 
L 154.775442 262.983132 
L 159.427323 262.870277 
L 159.427323 262.733168 
L 160.357699 262.624965 
L 160.357699 262.604494 
L 164.079203 262.482482 
L 164.079203 262.418593 
L 166.870331 262.297819 
L 166.870331 262.252754 
L 170.591835 262.179547 
L 170.591835 262.142822 
L 170.591835 261.924517 
L 173.382963 261.800021 
L 173.382963 261.600856 
L 178.034843 261.486175 
L 178.034843 261.476517 
L 183.6171 261.337688 
L 183.6171 261.305645 
L 187.338604 261.152216 
L 187.338604 261.152216 
L 187.338604 261.072913 
L 187.338604 261.072913 
L 190.129732 260.951757 
L 190.129732 260.886801 
L 191.990484 260.765012 
L 191.990484 260.761909 
L 196.642364 260.629428 
L 196.642364 260.483529 
L 198.503116 260.377343 
L 198.503116 260.331359 
L 203.154996 260.174116 
L 203.154996 260.064063 
L 206.8765 259.921647 
L 206.8765 259.909926 
L 216.180261 259.793112 
L 216.180261 259.660468 
L 217.110637 259.545022 
L 219.901765 259.412863 
L 219.901765 259.379544 
L 222.692893 259.255151 
L 222.692893 259.2037 
L 224.553645 259.104445 
L 224.553645 259.00331 
L 225.484021 258.893135 
L 225.484021 258.858542 
L 225.484021 258.858542 
L 229.205525 258.740059 
L 229.205525 258.708834 
L 229.205525 258.708834 
L 230.135901 258.599427 
L 230.135901 258.496807 
L 232.927029 258.386991 
L 232.927029 258.377827 
L 239.439662 258.245318 
L 239.439662 258.232353 
L 242.23079 258.117728 
L 242.23079 258.045604 
L 242.23079 258.045604 
L 243.161166 257.93373 
L 243.161166 257.906262 
L 244.091542 257.790735 
L 244.091542 257.293745 
L 245.021918 257.179833 
L 245.021918 256.696533 
L 245.952294 256.696533 
L 245.952294 256.590611 
L 245.952294 256.490587 
L 248.743422 256.367398 
L 248.743422 255.639601 
L 249.673798 255.528267 
L 249.673798 255.490286 
L 250.604174 255.490286 
L 250.604174 255.442992 
L 250.604174 255.151435 
L 252.464926 255.037436 
L 252.464926 254.8304 
L 252.464926 254.8304 
L 255.256054 254.71794 
L 255.256054 254.71794 
L 255.256054 254.491669 
L 256.18643 254.381628 
L 256.18643 254.251428 
L 257.116806 254.143539 
L 257.116806 253.901825 
L 258.047182 253.792381 
L 258.047182 253.35951 
L 258.977558 253.302358 
L 258.977558 253.093672 
L 261.768687 252.861172 
L 261.768687 252.795463 
L 262.699063 252.698125 
L 262.699063 252.487722 
L 265.490191 252.368009 
L 265.490191 252.368009 
L 265.490191 252.300633 
L 268.281319 252.1897 
L 268.281319 252.188944 
L 270.142071 252.105011 
L 270.142071 252.011826 
L 271.072447 251.898771 
L 271.072447 251.690511 
L 272.002823 251.578755 
L 272.002823 251.552152 
L 274.793951 251.446776 
L 274.793951 251.446776 
L 274.793951 250.269054 
L 275.724327 250.157178 
L 275.724327 249.703064 
L 276.654703 249.595253 
L 276.654703 249.473046 
L 277.585079 249.473046 
L 277.585079 249.362691 
L 277.585079 249.219795 
L 278.515455 249.109639 
L 278.515455 249.061174 
L 281.306583 248.945031 
L 281.306583 248.945031 
L 281.306583 248.7438 
L 282.236959 248.637269 
L 282.236959 248.543879 
L 283.167335 248.431884 
L 283.167335 248.416117 
L 283.167335 248.416117 
L 284.097711 248.416117 
L 284.097711 248.326204 
L 284.097711 248.196802 
L 285.028087 248.088042 
L 285.028087 247.823483 
L 287.819216 247.69795 
L 287.819216 247.012717 
L 288.749592 247.012717 
L 288.749592 246.903131 
L 288.749592 246.830387 
L 289.679968 246.719487 
L 289.679968 246.686155 
L 291.54072 246.577289 
L 291.54072 246.444092 
L 294.331848 246.350962 
L 294.331848 246.242803 
L 296.1926 246.152658 
L 296.1926 246.135613 
L 296.1926 246.035586 
L 296.1926 246.035586 
L 298.983728 245.936811 
L 298.983728 245.855294 
L 300.84448 245.741122 
L 300.84448 245.595271 
L 300.84448 245.595271 
L 301.774856 245.4842 
L 301.774856 245.172385 
L 302.705232 245.050537 
L 302.705232 244.583876 
L 303.635608 244.472491 
L 303.635608 244.168848 
L 304.565984 244.058073 
L 304.565984 243.632524 
L 307.357112 243.516948 
L 307.357112 243.217708 
L 308.287488 243.109384 
L 308.287488 242.986679 
L 309.217864 242.875218 
L 309.217864 242.868995 
L 311.078616 242.76245 
L 311.078616 242.501182 
L 313.869745 242.38729 
L 313.869745 241.87584 
L 314.800121 241.765452 
L 314.800121 241.621913 
L 315.730497 241.621913 
L 315.730497 241.510914 
L 315.730497 241.179449 
L 316.660873 241.068817 
L 316.660873 241.034573 
L 317.591249 240.928543 
L 317.591249 240.845559 
L 320.382377 240.732722 
L 320.382377 240.732722 
L 320.382377 240.671922 
L 321.312753 240.634773 
L 321.312753 240.402529 
L 323.173505 240.294659 
L 323.173505 240.131749 
L 325.964633 240.023875 
L 325.964633 240.021228 
L 325.964633 240.012432 
L 327.825385 239.927299 
L 327.825385 239.645527 
L 329.686137 239.532442 
L 329.686137 239.232511 
L 330.616513 239.099238 
L 330.616513 238.619687 
L 333.407641 238.50408 
L 333.407641 237.978871 
L 334.338017 237.848334 
L 334.338017 237.721732 
L 336.198769 237.627975 
L 336.198769 237.610992 
L 336.198769 237.428376 
L 339.920274 237.315042 
L 339.920274 236.991272 
L 340.85065 236.8809 
L 340.85065 236.743806 
L 341.781026 236.628293 
L 341.781026 236.258104 
L 342.711402 236.145508 
L 342.711402 235.981305 
L 343.641778 235.87017 
L 343.641778 235.53896 
L 346.432906 235.451206 
L 346.432906 235.135729 
L 347.363282 235.025995 
L 348.293658 234.937372 
L 348.293658 234.817032 
L 349.224034 234.817032 
L 349.224034 234.706674 
L 349.224034 234.679794 
L 350.15441 234.567697 
L 350.15441 234.56057 
L 353.875914 234.447043 
L 353.875914 234.331952 
L 353.875914 234.331952 
L 355.736666 234.243337 
L 355.736666 234.201742 
L 356.667042 234.091497 
L 356.667042 234.062061 
L 359.45817 233.955905 
L 359.45817 233.188791 
L 359.45817 233.188791 
L 360.388546 233.094164 
L 360.388546 232.697514 
L 361.318922 232.599063 
L 361.318922 232.38974 
L 361.318922 232.38974 
L 362.249298 232.27885 
L 362.249298 232.16392 
L 362.249298 232.16392 
L 363.179674 232.052278 
L 363.179674 232.014282 
L 365.970803 231.898101 
L 365.970803 231.704219 
L 365.970803 231.704219 
L 367.831555 231.595521 
L 367.831555 231.399336 
L 369.692307 231.288234 
L 369.692307 231.169197 
L 372.483435 231.049102 
L 372.483435 231.049102 
L 372.483435 230.256443 
L 374.344187 230.163148 
L 374.344187 230.090239 
L 375.274563 229.979392 
L 375.274563 229.937067 
L 378.065691 229.823934 
L 378.065691 229.821015 
L 379.926443 229.712458 
L 379.926443 229.627858 
L 381.787195 229.520993 
L 381.787195 229.517854 
L 381.787195 229.477912 
L 384.578323 229.373376 
L 385.508699 229.272228 
L 385.508699 228.930655 
L 386.439075 228.816942 
L 386.439075 228.576885 
L 387.369451 228.442611 
L 387.369451 228.168385 
L 388.299827 228.057957 
L 388.299827 227.989525 
L 391.090956 227.881607 
L 392.021332 227.766781 
L 392.021332 227.464965 
L 392.951708 227.353159 
L 392.951708 227.173941 
L 393.882084 227.064869 
L 393.882084 227.058471 
L 393.882084 227.058471 
L 394.81246 226.953166 
L 394.81246 226.935623 
L 395.742836 226.83813 
L 395.742836 226.676438 
L 397.603588 226.617586 
L 397.603588 226.617586 
" style="fill:none;stroke:#0000ff;stroke-linecap:square;stroke-width:1.5;"/>
   </g>
   <g id="line2d_28">
    <path clip-path="url(#p3bc5bcd372)" d="M 73.832727 265.797818 
L 76.506858 265.718704 
L 76.656462 255.829403 
L 76.876651 255.967853 
L 77.377923 259.330215 
L 77.480824 260.25981 
L 77.924013 261.228961 
L 78.292287 263.384829 
L 78.379208 263.5035 
L 78.517741 263.899072 
L 78.667205 264.195751 
L 78.901855 264.472652 
L 78.956773 264.848445 
L 79.144905 265.026453 
L 79.231547 265.20446 
L 79.328751 265.402246 
L 79.820031 265.500898 
L 79.820677 225.943693 
L 79.91127 227.565539 
L 79.960815 228.53469 
L 80.060378 246.691447 
L 80.17016 249.143531 
L 80.185128 249.756668 
L 80.3584 255.844578 
L 80.527978 256.038859 
L 80.628069 258.008469 
L 80.64448 258.003208 
L 80.698902 258.082322 
L 80.806445 260.831548 
L 81.038748 263.462102 
L 81.09891 263.264007 
L 81.120737 263.481572 
L 81.378454 264.212863 
L 81.741677 264.371091 
L 81.784341 265.004007 
L 81.91538 265.043564 
L 81.977954 265.201793 
L 82.10026 265.597365 
L 82.715256 265.696025 
L 82.810016 265.735582 
L 83.456261 265.768876 
L 83.572946 265.569777 
L 83.62654 265.68818 
L 83.726673 265.747515 
L 86.588226 265.787072 
L 87.288506 265.586661 
L 87.293072 265.685554 
L 87.299382 265.74489 
L 88.225009 265.784447 
L 89.436921 265.584573 
L 89.439871 265.604352 
L 89.448809 265.782359 
L 92.81662 265.762465 
L 92.81662 265.573498 
L 92.81887 265.771284 
L 93.023284 265.759236 
L 105.78197 265.783937 
L 105.78197 265.748689 
L 105.78197 265.721444 
L 105.794482 265.78078 
L 105.848905 265.76987 
L 105.941695 265.789648 
L 106.798308 265.785922 
L 107.196238 265.580764 
L 107.617384 265.561575 
L 107.617384 265.45776 
L 107.647653 265.556653 
L 109.856457 265.796815 
L 112.558434 265.685018 
L 112.58444 265.515793 
L 112.576321 265.718391 
L 112.650535 265.634464 
L 114.142249 265.494981 
L 114.179227 265.447587 
L 114.229504 265.501722 
L 114.241403 265.491436 
L 114.271209 265.46231 
L 114.489902 265.709859 
L 114.540975 265.604403 
L 114.574831 265.683518 
L 116.091365 265.767533 
L 116.132446 265.78546 
L 116.132446 265.77925 
L 118.800364 265.635202 
L 118.816161 265.603549 
L 118.864726 265.662885 
L 118.909565 265.66084 
L 118.992017 265.738925 
L 119.058511 265.661922 
L 119.119308 265.741806 
L 120.838846 265.790573 
L 120.894291 257.36647 
L 120.975301 261.786687 
L 121.030984 264.276694 
L 121.728841 264.357559 
L 121.739566 263.862686 
L 121.757043 264.337373 
L 121.849811 264.357151 
L 121.911578 265.108738 
L 121.956395 265.095629 
L 121.975951 265.115407 
L 122.534445 265.105908 
L 122.573265 264.903068 
L 122.585185 265.120633 
L 122.612031 265.119551 
L 122.80587 265.154343 
L 122.926108 265.60668 
L 122.926108 265.605321 
L 123.620724 265.617813 
L 123.743299 265.756263 
L 125.720865 265.650424 
L 125.774437 265.638473 
L 125.778195 265.697808 
L 131.846616 265.588892 
L 131.925816 265.524211 
L 131.955967 265.662661 
L 132.080717 265.706252 
L 132.23284 265.721379 
L 132.23284 265.717604 
L 132.23284 265.517227 
L 132.334665 265.734792 
L 133.651007 265.734824 
L 133.651007 265.702697 
L 133.651007 265.69574 
L 133.717953 265.735298 
L 133.753973 265.730092 
L 138.905392 265.754673 
L 138.924936 265.560536 
L 138.949509 265.698987 
L 139.296074 265.662979 
L 139.328734 265.573322 
L 139.402141 265.697962 
L 139.632883 265.699594 
L 139.632883 265.690237 
L 139.656713 265.710016 
L 140.221648 265.74904 
L 140.221648 265.658681 
L 140.255191 265.569022 
L 140.310701 265.72725 
L 155.600257 265.589498 
L 155.600257 265.262465 
L 155.614956 265.796488 
L 158.851437 265.746839 
L 158.937066 265.641639 
L 158.976047 265.755373 
L 159.135396 265.640979 
L 159.167722 265.119506 
L 159.167862 264.398819 
L 159.210526 265.363408 
L 159.424846 265.350035 
L 159.48546 265.568884 
L 159.717774 265.459275 
L 159.794304 265.413649 
L 160.095244 265.448713 
L 160.095244 265.443859 
L 160.946894 265.31098 
L 160.946894 265.307689 
L 161.045219 265.781334 
L 161.065151 265.772116 
L 161.068123 265.791895 
L 161.181426 265.417316 
L 161.194768 265.615102 
L 162.037372 265.576928 
L 162.097416 265.774714 
L 171.30354 265.653873 
L 171.30354 265.58257 
L 171.369044 265.679111 
L 171.40866 265.674332 
L 172.153004 265.724776 
L 172.24798 265.751653 
L 172.24798 265.75052 
L 172.307431 265.768667 
L 172.307431 265.763093 
L 173.684205 265.664619 
L 173.710748 265.555037 
L 173.769231 265.681298 
L 173.906418 265.743006 
L 173.906418 265.737416 
L 175.749133 265.796822 
L 187.641202 265.690287 
L 187.641202 265.645004 
L 187.746946 265.756436 
L 195.183386 265.769426 
L 195.186885 265.789205 
L 196.960404 265.67639 
L 196.985429 265.594734 
L 197.066859 265.661064 
L 197.465122 265.72276 
L 200.249316 265.766521 
L 203.456593 265.653662 
L 203.456593 265.608698 
L 203.557072 265.717383 
L 203.665454 265.724478 
L 203.665454 265.724061 
L 210.155236 265.77969 
L 210.210606 263.80717 
L 210.263155 264.591146 
L 211.49866 264.609491 
L 211.886651 264.607477 
L 212.079424 265.794193 
L 212.197713 264.598433 
L 212.857429 264.598627 
L 213.032887 264.83597 
L 213.047629 265.785343 
L 216.496223 265.677875 
L 216.551442 265.655583 
L 216.580549 265.714918 
L 216.591565 265.708481 
L 221.317799 265.777356 
L 223.039318 265.711503 
L 223.039318 265.703968 
L 223.06135 265.679017 
L 223.10621 265.726256 
L 223.134197 265.714886 
L 225.194635 265.640336 
L 225.233638 265.440042 
L 225.255799 265.661562 
L 225.799864 265.54669 
L 225.834463 265.476428 
L 225.905835 265.51763 
L 226.09205 265.698672 
L 234.188507 265.776034 
L 234.227984 265.795813 
L 238.91064 265.784528 
L 238.928224 265.66695 
L 238.989011 265.706123 
L 239.179749 265.665264 
L 239.179749 265.714871 
L 239.183248 265.16806 
L 239.185531 265.710804 
L 239.337062 265.701991 
L 239.343437 265.415989 
L 239.346646 265.712668 
L 240.228048 265.642999 
L 240.251135 264.512775 
L 240.254936 265.65272 
L 240.26649 265.651946 
L 240.994499 265.714039 
L 240.994725 262.213309 
L 241.09375 265.780595 
L 241.107673 265.743472 
L 241.111819 264.020779 
L 241.115588 265.789737 
L 241.203575 265.232904 
L 241.253227 265.794023 
L 241.255187 264.692382 
L 241.255241 263.612181 
L 241.31172 265.797129 
L 241.353695 265.793827 
L 242.526173 265.696386 
L 242.526173 265.604785 
L 242.607915 265.797118 
L 242.63504 265.796708 
L 242.656168 216.350203 
L 242.755182 233.982137 
L 242.774855 236.42904 
L 243.038925 264.609161 
L 243.058017 264.605616 
L 243.745257 264.688679 
L 243.745364 265.785444 
L 243.833632 265.781636 
L 244.384556 265.694802 
L 244.423882 216.348818 
L 244.393214 265.795323 
L 244.491345 222.999705 
L 244.501123 223.260941 
L 244.609117 232.478932 
L 244.618895 232.70141 
L 244.726965 247.877153 
L 244.736743 249.075736 
L 244.766194 252.194829 
L 244.839773 241.95074 
L 244.844651 242.59062 
L 244.854407 242.79956 
L 244.962337 256.48184 
L 244.972136 256.747824 
L 245.080023 265.782202 
L 245.310205 265.674341 
L 245.310205 265.392685 
L 245.384022 265.793966 
L 245.42058 265.777962 
L 245.498229 265.794087 
L 245.501826 265.78973 
L 245.575502 265.67196 
L 245.58135 261.82629 
L 245.684639 265.797603 
L 246.48474 265.688159 
L 246.48474 265.668044 
L 246.489715 265.793836 
L 246.561906 265.781191 
L 246.737029 265.794832 
L 249.045622 265.676774 
L 249.045622 265.401538 
L 249.140038 265.795191 
L 255.074028 265.79556 
L 255.563412 265.684665 
L 255.563412 265.652906 
L 255.569066 265.772063 
L 255.662383 265.755303 
L 255.873301 265.726146 
L 255.873301 265.525025 
L 255.96174 265.765442 
L 255.967534 265.699355 
L 255.986841 265.521313 
L 256.050029 265.777919 
L 256.472241 265.691792 
L 256.472241 265.581245 
L 256.550386 265.792711 
L 256.567454 265.76082 
L 257.40084 265.648714 
L 257.40084 265.574037 
L 257.472557 265.793922 
L 257.501997 265.762271 
L 257.744379 265.794228 
L 257.744379 265.7837 
L 257.782434 265.766359 
L 257.850931 265.793104 
L 258.340046 265.684529 
L 258.340046 265.392333 
L 258.345904 265.79072 
L 258.4455 265.649216 
L 258.522503 265.79086 
L 258.948387 265.761441 
L 259.260397 265.314581 
L 259.268473 265.513176 
L 259.278358 265.752005 
L 259.374045 265.726114 
L 259.453375 265.766445 
L 259.453375 264.54845 
L 259.464886 265.776664 
L 259.562995 265.774975 
L 264.32301 265.678787 
L 264.32301 265.458058 
L 264.342005 265.784608 
L 264.344751 265.783566 
L 269.484777 265.792215 
L 269.484777 265.711483 
L 269.484777 265.664945 
L 269.5242 265.784042 
L 269.583598 265.782521 
L 270.589244 265.783534 
L 270.589244 265.485875 
L 270.66362 265.788763 
L 271.360917 265.667854 
L 271.360917 265.513266 
L 271.433474 265.786043 
L 271.452157 265.78285 
L 275.089658 265.66202 
L 275.089658 264.96892 
L 275.154902 265.789778 
L 275.194142 265.788288 
L 275.515412 265.67573 
L 275.515412 265.635543 
L 275.541364 265.797103 
L 275.610022 265.79463 
L 276.006347 265.693019 
L 276.006347 265.538008 
L 276.100688 265.79776 
L 276.114945 265.779155 
L 276.620062 265.78729 
L 276.937574 265.583893 
L 277.037805 265.783181 
L 277.052633 265.710713 
L 277.090989 265.792742 
L 277.16234 265.768065 
L 277.181022 265.574731 
L 277.203786 265.797342 
L 277.240205 265.780732 
L 277.448947 265.787146 
L 278.282097 265.679455 
L 278.282097 265.550115 
L 278.387475 265.795449 
L 279.365285 265.735186 
L 279.365296 265.225136 
L 279.37068 265.783422 
L 282.523168 265.784365 
L 282.523168 265.715253 
L 282.523168 265.664492 
L 282.561126 265.789532 
L 282.633855 265.783781 
L 282.800472 265.794182 
L 282.800472 265.791098 
L 283.670815 265.687001 
L 283.670815 265.613557 
L 283.680485 265.792311 
L 285.327251 265.796293 
L 285.327251 265.686294 
L 285.327251 265.460928 
L 285.33733 265.797668 
L 285.433458 265.780743 
L 285.676357 265.770833 
L 285.681009 265.790692 
L 285.847852 265.79281 
L 285.847852 265.796622 
L 286.387578 265.797046 
L 286.390905 265.610982 
L 286.495583 265.786095 
L 288.113867 265.626895 
L 288.113878 265.231295 
L 288.125841 265.79554 
L 288.224478 265.671772 
L 288.340883 265.783582 
L 288.340883 265.780686 
L 291.843286 265.664937 
L 291.843286 265.631487 
L 291.891807 265.796939 
L 291.921463 265.790532 
L 295.694041 265.78008 
L 295.749993 265.607936 
L 295.791849 265.79076 
L 296.73884 265.681032 
L 296.73884 265.647154 
L 296.744192 265.787464 
L 296.816275 265.780717 
L 301.134329 265.666038 
L 301.134329 265.641608 
L 301.211709 265.797114 
L 301.242097 265.779967 
L 302.081525 265.660184 
L 302.081525 265.469573 
L 302.096234 265.79265 
L 302.166723 265.790456 
L 302.995415 265.676751 
L 302.995415 265.301108 
L 303.000583 265.782339 
L 303.097874 265.719231 
L 303.255478 265.748529 
L 303.255478 265.746346 
L 303.330985 265.505727 
L 303.330985 265.4863 
L 303.414084 265.576907 
L 303.601591 265.673335 
L 303.61811 265.693114 
L 303.920439 265.599152 
L 303.920439 265.439534 
L 304.01269 265.710343 
L 304.021811 265.681292 
L 304.150072 265.701898 
L 304.851396 265.597639 
L 304.900403 265.3977 
L 304.903967 265.714158 
L 304.960349 265.618921 
L 305.094479 265.55784 
L 305.153166 265.389042 
L 305.205198 265.452818 
L 305.309133 265.483609 
L 305.424245 265.598246 
L 305.424245 265.594816 
L 306.315813 265.751253 
L 306.315813 265.749302 
L 307.645712 265.638978 
L 307.738879 265.581919 
L 307.835082 265.672522 
L 307.874505 265.630889 
L 307.874505 265.533266 
L 307.893791 265.671716 
L 307.955783 265.622938 
L 308.063358 265.493299 
L 308.101176 265.530155 
L 308.217064 265.568967 
L 308.217064 265.566021 
L 308.650184 265.454269 
L 308.69329 265.41942 
L 308.7167 265.538091 
L 308.75889 265.520046 
L 308.805441 265.616123 
L 308.84608 265.655637 
L 308.89472 265.638884 
L 310.708038 265.706968 
L 310.867042 265.747445 
L 311.378673 265.635819 
L 311.467716 265.522199 
L 311.480013 265.541977 
L 311.755056 265.698742 
L 311.793714 265.656347 
L 313.302194 265.738063 
L 313.327607 265.757841 
L 314.178664 265.647526 
L 314.196701 265.40082 
L 314.270495 265.697499 
L 314.399854 265.586097 
L 314.508667 265.51042 
L 314.658917 265.457863 
L 314.736793 265.257929 
L 315.087966 265.146639 
L 315.169848 265.045988 
L 315.193258 265.362446 
L 315.706063 265.334051 
L 316.033784 265.226804 
L 316.10914 264.9205 
L 316.14194 265.011623 
L 316.181126 265.109708 
L 316.256213 265.087766 
L 316.507899 265.156887 
L 316.631917 265.413155 
L 316.973292 265.381283 
L 317.186718 265.756378 
L 317.186718 265.712212 
L 317.186718 265.614209 
L 317.198499 265.752659 
L 317.283902 265.739118 
L 317.97196 265.627213 
L 317.97196 265.604831 
L 317.984559 265.743281 
L 318.039434 265.738802 
L 324.031518 265.684948 
L 324.031518 265.487437 
L 324.06027 265.714802 
L 328.29109 265.646338 
L 328.29109 263.893617 
L 328.390212 265.512173 
L 329.206617 265.519405 
L 329.325961 265.794322 
L 329.358513 265.710705 
L 329.436777 265.788148 
L 329.966833 265.677483 
L 329.966844 265.494171 
L 330.047476 265.791245 
L 330.062196 265.780604 
L 330.918896 265.651917 
L 330.918907 265.484419 
L 330.995308 265.78981 
L 331.02379 265.788991 
L 333.714644 265.668814 
L 333.714644 265.464334 
L 333.715161 265.783675 
L 333.813346 265.783056 
L 333.854674 265.760606 
L 333.854674 265.642134 
L 333.901656 265.785587 
L 334.899053 265.682875 
L 334.975443 265.608122 
L 334.998283 265.726794 
L 335.710494 265.73605 
L 335.728165 264.777716 
L 335.788995 265.722211 
L 335.826404 265.649705 
L 335.826404 265.577324 
L 335.867581 265.759288 
L 340.588217 265.634523 
L 340.588217 265.605215 
L 340.630773 265.755741 
L 340.67012 265.748338 
L 341.156457 265.757376 
L 341.156457 265.751326 
L 341.237972 265.60758 
L 341.161658 265.756271 
L 341.259735 265.720791 
L 342.072931 265.611162 
L 342.072931 265.421564 
L 342.074719 265.776236 
L 342.163018 265.766346 
L 343.007981 265.652882 
L 343.007981 265.578361 
L 343.049094 265.772105 
L 343.114543 265.768665 
L 343.192247 265.78588 
L 343.192247 265.784901 
L 343.942739 265.697807 
L 343.942739 265.408684 
L 343.94345 265.794669 
L 344.04059 265.781836 
L 344.26387 265.782762 
L 347.165738 265.676547 
L 347.165738 265.479135 
L 347.168571 265.783719 
L 347.22407 265.782789 
L 347.301817 265.708535 
L 347.301817 265.609335 
L 347.31588 265.797795 
L 347.340518 265.793173 
L 348.639663 265.766992 
L 348.639663 265.727921 
L 348.639663 265.669315 
L 348.654092 265.788326 
L 348.74446 265.78544 
L 348.775375 265.595701 
L 348.780124 265.793482 
L 348.854791 265.778001 
L 348.931956 265.705436 
L 348.938352 265.797072 
L 350.525645 265.686021 
L 350.588973 265.388164 
L 350.593593 265.791433 
L 350.627459 265.790365 
L 354.629928 265.73899 
L 354.629928 262.796121 
L 354.639878 265.777596 
L 354.668952 265.776555 
L 357.112998 265.693877 
L 357.112998 265.635015 
L 357.124865 265.793244 
L 357.190734 265.791077 
L 357.423005 265.695162 
L 357.423005 265.493196 
L 357.42447 265.791747 
L 359.780808 265.680327 
L 359.795938 265.25989 
L 359.908649 265.358783 
L 359.919762 265.576348 
L 360.097115 265.470255 
L 360.148587 264.516119 
L 360.191143 265.246845 
L 360.222188 265.214422 
L 360.332024 265.658858 
L 360.332024 265.655865 
L 360.686374 265.541162 
L 360.717172 265.516813 
L 360.769721 265.655275 
L 360.79551 265.642665 
L 360.95516 265.615452 
L 360.991837 265.754942 
L 361.048715 265.744553 
L 361.077262 265.684393 
L 361.146394 265.750363 
L 361.613768 265.636276 
L 361.649335 265.564449 
L 361.705061 265.755871 
L 362.579905 265.645281 
L 362.609001 265.724396 
L 362.702124 265.670485 
L 362.813317 265.698653 
L 362.932737 265.59023 
L 362.932737 265.473429 
L 363.040958 265.736782 
L 364.400879 265.621246 
L 364.684159 265.691283 
L 366.607744 265.658144 
L 366.672687 265.07369 
L 366.715071 265.093468 
L 366.742659 265.197488 
L 366.797933 265.73151 
L 366.882054 265.715177 
L 370.104935 265.616241 
L 370.104935 265.545874 
L 370.208644 265.777165 
L 372.787045 265.631833 
L 372.896537 265.089324 
L 372.937941 265.007494 
L 373.025024 265.616833 
L 373.074148 265.597979 
L 373.169296 265.617475 
L 373.169296 265.606311 
L 373.275611 265.505053 
L 373.857365 265.500285 
L 373.896454 265.697712 
L 373.97713 265.659521 
L 374.130125 265.676589 
L 374.18528 265.775142 
L 374.18528 265.775139 
L 374.311882 265.774876 
L 375.023211 265.700567 
L 375.038405 265.49231 
L 375.088079 265.749432 
L 375.098158 265.736992 
L 375.21411 265.756312 
L 375.21411 265.751054 
L 378.863908 265.710122 
L 378.863908 265.612215 
L 378.875097 265.790222 
L 378.961781 265.773561 
L 378.988852 265.793339 
L 379.492784 265.688947 
L 379.553625 265.572138 
L 379.571339 265.769924 
L 382.354025 265.660561 
L 382.449528 265.619814 
L 383.264006 265.616716 
L 383.458135 265.791382 
L 385.797654 265.648285 
L 385.876015 265.553495 
L 385.889572 265.573274 
L 385.956432 265.571313 
L 385.964368 265.788877 
L 386.036031 265.783603 
L 386.409721 265.681424 
L 386.409721 265.628341 
L 386.451383 265.78657 
L 386.744021 265.681281 
L 386.810612 265.512305 
L 386.830318 265.769427 
L 387.668636 265.66052 
L 387.668647 265.455993 
L 387.757087 265.766432 
L 387.774068 265.757649 
L 387.976134 265.770995 
L 392.355255 265.650783 
L 392.457359 265.577828 
L 392.521559 265.604076 
L 392.630405 265.757705 
L 392.630405 265.741338 
L 396.244733 265.634104 
L 396.244733 265.620655 
L 396.289809 265.778884 
L 396.344059 265.739708 
L 398.487273 265.791212 
L 398.487273 265.791212 
" style="fill:none;stroke:#ff0000;stroke-linecap:square;stroke-width:1.5;"/>
   </g>
   <g id="line2d_29">
    <path clip-path="url(#p3bc5bcd372)" d="M 73.832727 265.797818 
L 76.623855 265.659368 
L 76.623855 261.288297 
L 77.554231 261.090511 
L 77.554231 257.886377 
L 78.484607 257.747927 
L 78.484607 256.323868 
L 79.414983 256.126082 
L 79.414983 245.979659 
L 79.414983 246.315895 
L 80.039305 246.118109 
L 80.060475 230.295227 
L 80.266148 230.097441 
L 80.34536 219.381338 
L 80.34536 219.680016 
L 80.527978 219.485735 
L 80.606737 218.307269 
L 81.275736 218.01059 
L 81.275736 216.784316 
L 82.206112 216.428301 
L 82.206112 216.408523 
L 82.206112 216.408782 
L 83.136488 216.309889 
L 83.136488 216.131881 
L 83.136488 216.430292 
L 86.857992 216.252284 
L 86.857992 216.232506 
L 86.857992 216.430292 
L 88.718744 216.370956 
L 88.718744 216.192948 
L 88.718744 216.390734 
L 92.440248 216.192948 
L 92.440248 216.212727 
L 92.440248 216.410513 
L 106.395889 216.297963 
L 106.395889 216.301387 
L 106.395889 216.500738 
L 107.326265 216.401845 
L 107.326265 216.164501 
L 107.326265 216.265634 
L 108.256641 216.146962 
L 108.256641 216.127184 
L 108.256641 216.257175 
L 109.187017 216.138503 
L 109.187017 216.118725 
L 109.187017 216.164422 
L 111.978145 216.029388 
L 111.978145 215.910716 
L 111.978145 216.189224 
L 112.908521 216.070552 
L 112.908521 216.030995 
L 112.908521 216.079437 
L 113.838897 215.960765 
L 113.838897 215.624529 
L 113.838897 215.856227 
L 114.769273 215.737555 
L 114.769273 215.678219 
L 114.769273 215.723738 
L 115.699649 215.605067 
L 115.699649 215.525952 
L 115.699649 215.688058 
L 118.490777 215.53297 
L 118.490777 215.315406 
L 118.490777 215.430152 
L 120.351529 215.29927 
L 120.351529 212.411594 
L 120.351529 212.422975 
L 120.962228 212.225189 
L 120.976442 208.328805 
L 121.281905 208.24969 
L 121.281905 207.023417 
L 121.281905 207.54058 
L 122.212281 207.441687 
L 122.212281 206.927443 
L 122.212281 207.133843 
L 124.073033 206.878634 
L 125.003409 206.759962 
L 125.003409 206.700626 
L 125.003409 206.887396 
L 126.864161 206.737161 
L 126.864161 206.833594 
L 126.864161 206.853373 
L 127.794537 206.734701 
L 127.794537 206.714922 
L 127.794537 206.762373 
L 127.794537 206.762373 
L 128.724913 206.643702 
L 128.724913 206.623923 
L 128.724913 206.661667 
L 131.516042 206.503628 
L 131.516042 206.167392 
L 131.516042 206.408347 
L 133.376794 206.264049 
L 133.376794 206.204714 
L 133.376794 206.210853 
L 135.237546 206.061114 
L 135.237546 206.041336 
L 135.237546 206.068848 
L 138.028674 205.931282 
L 138.028674 205.792832 
L 138.028674 206.036536 
L 138.95905 205.917864 
L 138.95905 205.818971 
L 138.95905 205.92493 
L 139.889426 205.806258 
L 139.889426 205.707365 
L 139.889426 205.787305 
L 141.750178 205.649358 
L 141.750178 205.590022 
L 141.750178 205.639074 
L 145.471682 205.463341 
L 145.471682 205.443563 
L 145.471682 205.448966 
L 154.775442 205.212122 
L 154.775442 204.6781 
L 154.775442 205.192969 
L 158.496947 205.136438 
L 158.496947 205.116659 
L 158.496947 204.839759 
L 158.496947 204.977137 
L 159.135396 205.091761 
L 159.167722 205.652309 
L 159.167862 206.3537 
L 159.168142 205.562556 
L 159.424846 205.557245 
L 159.427323 205.300388 
L 159.427323 205.330967 
L 160.357699 205.212295 
L 160.357699 204.618937 
L 160.357699 205.042869 
L 161.288075 205.003312 
L 161.288075 204.805526 
L 161.288075 204.824319 
L 164.079203 204.788161 
L 164.079203 204.728825 
L 164.079203 204.66949 
L 164.079203 204.70275 
L 165.939955 204.565203 
L 165.939955 204.545424 
L 165.939955 204.570918 
L 169.661459 204.442639 
L 169.661459 204.446363 
L 170.591835 204.248577 
L 170.591835 204.07057 
L 170.591835 204.227468 
L 173.382963 204.057631 
L 173.382963 203.859845 
L 173.382963 203.939414 
L 179.895595 203.701488 
L 179.895595 203.661931 
L 179.895595 203.70666 
L 186.408228 203.47598 
L 186.408228 203.456201 
L 186.408228 203.514955 
L 187.338604 203.396284 
L 187.338604 203.376505 
L 187.338604 203.404727 
L 190.129732 203.249526 
L 190.129732 203.209969 
L 190.129732 203.247186 
L 191.990484 203.101262 
L 191.990484 203.081483 
L 191.990484 203.109948 
L 196.642364 202.909525 
L 196.642364 202.731517 
L 196.642364 202.836819 
L 197.57274 202.718148 
L 197.57274 202.698369 
L 197.57274 202.741422 
L 199.433492 202.626135 
L 199.433492 202.547021 
L 199.433492 202.606116 
L 203.154996 202.433746 
L 203.154996 202.37441 
L 203.154996 202.432547 
L 205.946124 202.29981 
L 205.946124 202.240474 
L 205.946124 202.289577 
L 209.667629 202.195319 
L 209.667629 201.384397 
L 209.667629 201.518384 
L 211.528381 201.469967 
L 211.528381 201.470343 
L 211.528381 202.657059 
L 212.458757 202.63728 
L 212.458757 201.450564 
L 212.458757 201.469678 
L 216.180261 201.292443 
L 216.180261 201.272665 
L 216.180261 201.330272 
L 218.971389 201.167902 
L 218.971389 201.04923 
L 218.971389 201.077926 
L 222.692893 200.919666 
L 222.692893 200.880109 
L 222.692893 200.944362 
L 224.553645 200.806931 
L 224.553645 200.767374 
L 224.553645 200.994782 
L 225.484021 200.757439 
L 225.484021 200.480538 
L 225.484021 200.69953 
L 226.414397 200.667327 
L 226.414397 200.62777 
L 226.414397 200.509098 
L 226.414397 200.650938 
L 227.344773 200.512604 
L 227.344773 200.492825 
L 227.344773 200.496306 
L 230.135901 200.338505 
L 230.135901 200.25939 
L 230.135901 200.30576 
L 231.996653 200.15523 
L 231.996653 200.115673 
L 231.996653 200.128521 
L 238.509286 199.941767 
L 238.509286 199.645088 
L 238.596261 199.788816 
L 239.179146 199.844819 
L 239.179749 199.780945 
L 239.182602 200.315794 
L 239.185531 199.842675 
L 239.439662 200.129975 
L 239.439662 200.129975 
L 240.053559 200.173166 
L 240.249713 200.362221 
L 240.251135 201.30339 
L 240.254936 200.23062 
L 240.994499 200.169708 
L 240.994725 203.670437 
L 241.09375 200.601867 
L 241.107684 200.732316 
L 241.111819 202.392668 
L 241.108599 200.63183 
L 241.203575 201.24877 
L 241.253227 200.714748 
L 241.255187 201.763209 
L 241.255241 202.89659 
L 241.31172 200.798046 
L 241.353695 200.808264 
L 242.23079 200.373134 
L 242.23079 198.850182 
L 242.23079 198.87764 
L 242.529598 198.761238 
L 242.607915 198.682755 
L 242.657094 198.584441 
L 242.76497 180.270745 
L 242.774747 180.034082 
L 242.882473 168.173964 
L 242.902093 166.896626 
L 242.989865 153.172014 
L 243.161166 153.192522 
L 243.745257 153.060326 
L 243.833632 151.928709 
L 243.902344 151.906512 
L 244.091542 150.719796 
L 244.167447 150.786965 
L 244.393171 150.668524 
L 244.501155 143.250099 
L 244.510933 142.992977 
L 244.618927 134.017682 
L 244.638536 132.698159 
L 244.756384 115.806829 
L 244.766161 115.550571 
L 244.87407 103.04805 
L 244.913288 98.558409 
L 245.021918 87.772276 
L 245.021918 87.93014 
L 245.080023 84.473796 
L 245.315374 84.435989 
L 245.423272 84.007069 
L 245.580445 83.909205 
L 245.684639 80.214023 
L 245.952294 80.174522 
L 245.952294 80.270812 
L 245.952294 80.394727 
L 246.489683 80.218268 
L 246.509335 80.119432 
L 246.627043 80.013242 
L 246.666261 79.973685 
L 247.813046 79.905746 
L 249.051674 79.747003 
L 249.159668 79.474366 
L 249.31682 79.253452 
L 250.966138 78.882393 
L 251.04466 78.744228 
L 252.464926 78.644376 
L 252.464926 78.781405 
L 252.464926 78.809328 
L 252.968298 78.70783 
L 253.144887 78.43074 
L 255.256054 78.386842 
L 255.256054 78.525243 
L 255.256054 79.036399 
L 255.853789 78.805311 
L 255.991191 78.145108 
L 258.047182 77.526442 
L 258.047182 77.564036 
L 258.047182 77.719727 
L 258.110381 77.714813 
L 258.345904 77.517591 
L 258.453867 77.140604 
L 258.601133 77.028829 
L 258.977558 77.00905 
L 258.977558 77.097156 
L 258.977558 78.580551 
L 259.268473 78.383922 
L 259.346963 78.128248 
L 259.386256 78.089046 
L 259.454968 77.69641 
L 259.562995 76.853457 
L 260.770201 76.737623 
L 260.770201 76.718157 
L 260.83831 76.733394 
L 262.251707 76.572428 
L 262.389034 76.493868 
L 263.115104 76.327095 
L 263.629439 76.190976 
L 263.629439 76.195282 
L 263.629439 76.537643 
L 263.6453 76.524218 
L 264.332142 76.417074 
L 264.342005 76.124611 
L 265.784767 76.043121 
L 265.863289 76.003677 
L 269.211695 75.890957 
L 269.211695 76.054759 
L 269.211695 76.171104 
L 269.211695 76.171104 
L 269.5242 76.053958 
L 269.700799 76.009209 
L 270.054137 75.872469 
L 270.132616 75.836141 
L 270.142071 75.846526 
L 270.142071 76.184858 
L 270.594897 76.085366 
L 270.66362 75.831872 
L 271.072447 75.729895 
L 271.072447 75.775559 
L 271.531745 75.481689 
L 274.793951 75.287761 
L 274.793951 75.323882 
L 274.793951 75.641252 
L 275.095893 75.386075 
L 275.194142 74.602982 
L 275.272847 74.511515 
L 275.541364 74.101591 
L 276.012313 74.062986 
L 276.100688 73.847461 
L 276.355788 73.631164 
L 276.552049 73.534237 
L 276.654703 73.534237 
L 276.654703 73.534847 
L 276.654703 74.03478 
L 277.184156 73.60165 
L 277.282244 73.387183 
L 277.585079 73.3308 
L 277.585079 73.373273 
L 277.585079 73.613983 
L 277.585079 73.613983 
L 277.994326 73.46595 
L 278.10231 73.394425 
L 278.289042 73.260092 
L 278.387475 73.083764 
L 278.515455 73.15041 
L 278.515455 73.646027 
L 279.370626 73.480562 
L 279.445831 72.954504 
L 279.445831 72.954771 
L 281.834615 72.815751 
L 282.109463 72.658099 
L 282.5808 72.538338 
L 282.669261 72.491599 
L 283.167335 72.426909 
L 283.167335 72.538297 
L 283.167335 72.623585 
L 283.680474 72.536469 
L 283.680485 72.410206 
L 284.417001 72.308577 
L 284.613467 72.250469 
L 285.028087 72.13219 
L 285.028087 72.150986 
L 285.028087 72.328126 
L 285.327434 72.201643 
L 285.406042 71.980572 
L 285.958463 71.770508 
L 285.958463 71.775645 
L 285.958463 71.974402 
L 286.387578 71.969431 
L 286.495583 71.791126 
L 287.819216 71.855427 
L 288.233761 71.176553 
L 288.30244 71.09816 
L 290.325857 70.756962 
L 290.365151 70.71776 
L 292.058812 70.620699 
L 292.883616 70.495883 
L 294.769372 70.387189 
L 295.163328 70.308137 
L 295.262224 70.316844 
L 295.262224 70.504586 
L 295.281057 70.501322 
L 295.752545 70.357743 
L 295.791849 70.257932 
L 296.1926 70.223291 
L 296.1926 70.293006 
L 296.1926 70.36002 
L 296.243383 70.359607 
L 296.744149 70.259192 
L 296.783367 70.167144 
L 297.122976 70.126246 
L 297.122976 70.142595 
L 298.053352 70.069759 
L 298.053352 69.951087 
L 298.053352 70.077707 
L 300.84448 69.894444 
L 300.84448 69.932749 
L 300.84448 70.114589 
L 301.683348 69.727489 
L 301.774856 69.609062 
L 301.774856 69.762028 
L 302.086435 69.564242 
L 302.155115 69.406668 
L 302.705232 69.243634 
L 302.705232 69.045848 
L 302.705232 69.489878 
L 303.000551 69.371385 
L 303.000583 69.01537 
L 303.27596 68.912674 
L 303.924272 68.585605 
L 304.01269 68.492697 
L 304.208877 68.380516 
L 304.565984 67.925608 
L 304.565984 67.668486 
L 304.565984 67.952655 
L 305.49636 67.932876 
L 305.49636 67.794426 
L 305.49636 67.796496 
L 307.357112 67.620968 
L 307.357112 67.344068 
L 307.357112 67.589037 
L 308.287488 67.509922 
L 308.287488 67.193465 
L 308.287488 67.238449 
L 309.217864 67.139556 
L 309.217864 67.001106 
L 309.217864 67.173971 
L 310.14824 67.094856 
L 310.14824 66.956406 
L 310.14824 66.968646 
L 311.078616 66.889532 
L 311.078616 66.711525 
L 311.078616 66.785913 
L 312.939369 66.645979 
L 312.939369 66.626201 
L 312.939369 66.626917 
L 313.869745 66.31046 
L 313.869745 66.290681 
L 313.869745 66.552498 
L 314.800121 66.196483 
L 314.800121 66.22245 
L 315.730497 66.024664 
L 315.730497 65.609313 
L 315.730497 65.700882 
L 316.660873 65.483318 
L 316.660873 65.048189 
L 316.660873 65.21423 
L 318.521625 64.980234 
L 318.521625 64.980494 
L 320.382377 64.862564 
L 320.382377 64.763671 
L 320.382377 64.845857 
L 323.173505 64.391594 
L 323.173505 64.31248 
L 323.173505 64.578899 
L 324.050417 64.475315 
L 324.103881 64.297632 
L 324.103881 64.455482 
L 324.472672 64.319543 
L 325.034257 64.222817 
L 325.034257 64.228791 
L 327.825385 64.142428 
L 327.825385 62.738147 
L 327.825385 64.599467 
L 328.1369 64.48156 
L 328.235074 64.442358 
L 328.294137 64.306848 
L 328.323685 64.143047 
L 328.755761 64.042948 
L 328.755761 64.148055 
L 329.168142 64.083312 
L 329.325961 63.810251 
L 329.973918 63.707289 
L 330.062196 63.589196 
L 330.926531 63.335743 
L 330.995308 63.257219 
L 331.29964 63.058947 
L 331.546889 62.96281 
L 331.546889 62.963895 
L 333.407641 62.906976 
L 333.407641 62.93783 
L 333.407641 63.123179 
L 333.715128 63.10426 
L 333.813346 62.638223 
L 334.048965 62.363669 
L 334.338017 62.304333 
L 334.338017 62.106547 
L 334.338017 62.35113 
L 335.268393 62.135482 
L 335.268393 62.095924 
L 335.268393 63.200779 
L 335.710494 63.138564 
L 335.867581 62.209228 
L 336.198769 62.117064 
L 336.198769 62.097286 
L 336.198769 62.154763 
L 337.493597 62.018406 
L 339.920274 61.842545 
L 339.920274 61.585423 
L 339.920274 61.870228 
L 340.375016 61.758424 
L 340.699539 61.626562 
L 340.85065 61.528152 
L 340.85065 61.593089 
L 341.161658 61.541453 
L 341.426567 61.365198 
L 341.781026 61.290498 
L 341.781026 61.432852 
L 341.781026 61.445782 
L 342.074697 61.426247 
L 342.163018 60.98507 
L 343.94345 60.452743 
L 343.94345 60.259549 
L 344.503269 60.215 
L 344.572154 60.215 
L 344.572154 60.312891 
L 344.572154 60.329392 
L 345.467468 60.226729 
L 345.50253 60.20695 
L 345.50253 60.213814 
L 346.432906 60.113851 
L 346.432906 60.241958 
L 346.432906 60.491859 
L 347.158804 60.323064 
L 347.168571 60.036691 
L 347.453229 59.892972 
L 348.293658 59.694433 
L 348.293658 59.699099 
L 348.293658 60.018236 
L 348.386243 60.015381 
L 348.593198 59.98855 
L 348.780124 59.669068 
L 349.016939 59.579886 
L 349.78829 59.472692 
L 350.15441 59.453158 
L 350.15441 59.485871 
L 350.15441 60.083354 
L 350.53468 59.926467 
L 350.593593 59.455076 
L 351.827385 59.349273 
L 352.945538 59.329586 
L 352.945538 59.210914 
L 352.945538 59.403413 
L 353.509115 59.29745 
L 353.875914 59.273276 
L 353.875914 59.300169 
L 353.875914 62.181076 
L 354.630046 62.113759 
L 354.639878 59.379041 
L 356.667042 59.094206 
L 356.667042 59.243039 
L 356.667042 59.407048 
L 357.282576 59.40321 
L 357.597418 59.108996 
L 357.597418 59.10919 
L 359.45817 59.069639 
L 359.45817 58.041152 
L 359.45817 58.85499 
L 360.388546 58.676982 
L 360.388546 58.162738 
L 360.388546 58.277571 
L 361.318922 58.000671 
L 361.318922 57.901778 
L 361.318922 57.966061 
L 362.249298 57.847389 
L 362.249298 57.471596 
L 362.249298 57.767429 
L 363.179674 57.668536 
L 363.179674 57.510307 
L 363.179674 57.704487 
L 365.970803 57.315189 
L 365.970803 56.702052 
L 365.970803 57.322047 
L 366.901179 57.183597 
L 366.901179 57.198469 
L 367.831555 56.980904 
L 367.831555 56.882011 
L 367.831555 56.957956 
L 369.692307 56.831324 
L 369.692307 56.574202 
L 369.692307 56.749157 
L 372.483435 56.675643 
L 372.483435 55.86472 
L 372.483435 56.095122 
L 373.413811 56.075343 
L 373.413811 55.719328 
L 373.413811 55.777443 
L 374.344187 55.698329 
L 374.344187 55.421428 
L 374.344187 55.672191 
L 375.274563 55.553519 
L 375.274563 55.415069 
L 375.274563 55.501621 
L 376.204939 55.38295 
L 376.204939 55.284057 
L 376.204939 55.385834 
L 378.065691 55.346508 
L 378.065691 55.148722 
L 378.065691 55.360681 
L 378.996067 55.301346 
L 378.996067 55.044224 
L 378.996067 55.276448 
L 379.926443 55.197334 
L 379.926443 55.039105 
L 379.926443 55.163062 
L 381.787195 55.005203 
L 381.787195 55.144578 
L 381.787195 55.180206 
L 382.717571 55.140649 
L 382.717571 54.863749 
L 382.717571 54.933562 
L 384.578323 54.915759 
L 384.578323 54.915988 
L 385.508699 54.678645 
L 385.508699 54.401744 
L 385.508699 54.635319 
L 386.439075 54.457312 
L 386.439075 54.06174 
L 386.439075 54.130869 
L 387.369451 53.992419 
L 387.369451 53.636404 
L 387.369451 53.739324 
L 388.299827 53.620652 
L 388.299827 53.50198 
L 388.299827 53.561644 
L 390.160579 53.44749 
L 390.160579 53.407933 
L 390.160579 53.445314 
L 392.021332 53.307604 
L 392.021332 52.971368 
L 392.021332 53.059187 
L 392.951708 52.960294 
L 392.951708 52.624058 
L 392.951708 52.723948 
L 393.882084 52.585498 
L 393.882084 52.545941 
L 393.882084 52.608736 
L 394.81246 52.529622 
L 394.81246 52.430729 
L 394.81246 52.490418 
L 395.742836 52.391525 
L 395.742836 52.154182 
L 395.742836 52.237494 
L 397.603588 52.206661 
L 397.603588 52.305939 
L 397.603588 52.317608 
L 397.603588 52.317608 
" style="fill:none;stroke:#008000;stroke-linecap:square;stroke-width:1.5;"/>
   </g>
   <g id="line2d_30">
    <defs>
     <path d="M 0 3 
C 0.795609 3 1.55874 2.683901 2.12132 2.12132 
C 2.683901 1.55874 3 0.795609 3 0 
C 3 -0.795609 2.683901 -1.55874 2.12132 -2.12132 
C 1.55874 -2.683901 0.795609 -3 0 -3 
C -0.795609 -3 -1.55874 -2.683901 -2.12132 -2.12132 
C -2.683901 -1.55874 -3 -0.795609 -3 0 
C -3 0.795609 -2.683901 1.55874 -2.12132 2.12132 
C -1.55874 2.683901 -0.795609 3 0 3 
z
" id="mf889f9ab9a" style="stroke:#bfbf00;"/>
    </defs>
    <g clip-path="url(#p3bc5bcd372)">
     <use style="fill:#bfbf00;stroke:#bfbf00;" x="76.656462" xlink:href="#mf889f9ab9a" y="255.908517"/>
     <use style="fill:#bfbf00;stroke:#bfbf00;" x="79.820677" xlink:href="#mf889f9ab9a" y="226.240614"/>
     <use style="fill:#bfbf00;stroke:#bfbf00;" x="242.656168" xlink:href="#mf889f9ab9a" y="216.351312"/>
     <use style="fill:#bfbf00;stroke:#bfbf00;" x="244.423882" xlink:href="#mf889f9ab9a" y="216.351312"/>
     <use style="fill:#bfbf00;stroke:#bfbf00;" x="244.774474" xlink:href="#mf889f9ab9a" y="255.908517"/>
     <use style="fill:#bfbf00;stroke:#bfbf00;" x="244.839773" xlink:href="#mf889f9ab9a" y="255.908517"/>
     <use style="fill:#bfbf00;stroke:#bfbf00;" x="245.58135" xlink:href="#mf889f9ab9a" y="261.842098"/>
    </g>
   </g>
   <g id="line2d_31">
    <defs>
     <path d="M 0 3 
C 0.795609 3 1.55874 2.683901 2.12132 2.12132 
C 2.683901 1.55874 3 0.795609 3 0 
C 3 -0.795609 2.683901 -1.55874 2.12132 -2.12132 
C 1.55874 -2.683901 0.795609 -3 0 -3 
C -0.795609 -3 -1.55874 -2.683901 -2.12132 -2.12132 
C -2.683901 -1.55874 -3 -0.795609 -3 0 
C -3 0.795609 -2.683901 1.55874 -2.12132 2.12132 
C -1.55874 2.683901 -0.795609 3 0 3 
z
" id="m8dc0535a8d" style="stroke:#008000;"/>
    </defs>
    <g clip-path="url(#p3bc5bcd372)">
     <use style="fill:#008000;stroke:#008000;" x="120.894291" xlink:href="#m8dc0535a8d" y="257.373716"/>
     <use style="fill:#008000;stroke:#008000;" x="210.210606" xlink:href="#m8dc0535a8d" y="263.825298"/>
    </g>
   </g>
   <g id="patch_3">
    <path d="M 57.6 276.48 
L 57.6 41.472 
" style="fill:none;stroke:#000000;stroke-linecap:square;stroke-linejoin:miter;stroke-width:0.8;"/>
   </g>
   <g id="patch_4">
    <path d="M 414.72 276.48 
L 414.72 41.472 
" style="fill:none;stroke:#000000;stroke-linecap:square;stroke-linejoin:miter;stroke-width:0.8;"/>
   </g>
   <g id="patch_5">
    <path d="M 57.6 276.48 
L 414.72 276.48 
" style="fill:none;stroke:#000000;stroke-linecap:square;stroke-linejoin:miter;stroke-width:0.8;"/>
   </g>
   <g id="patch_6">
    <path d="M 57.6 41.472 
L 414.72 41.472 
" style="fill:none;stroke:#000000;stroke-linecap:square;stroke-linejoin:miter;stroke-width:0.8;"/>
   </g>
   <g id="text_16">
    <!-- My Bondora earnings -->
    <defs>
     <path d="M 9.8125 72.90625 
L 24.515625 72.90625 
L 43.109375 23.296875 
L 61.8125 72.90625 
L 76.515625 72.90625 
L 76.515625 0 
L 66.890625 0 
L 66.890625 64.015625 
L 48.09375 14.015625 
L 38.1875 14.015625 
L 19.390625 64.015625 
L 19.390625 0 
L 9.8125 0 
z
" id="DejaVuSans-4d"/>
     <path d="M 32.171875 -5.078125 
Q 28.375 -14.84375 24.75 -17.8125 
Q 21.140625 -20.796875 15.09375 -20.796875 
L 7.90625 -20.796875 
L 7.90625 -13.28125 
L 13.1875 -13.28125 
Q 16.890625 -13.28125 18.9375 -11.515625 
Q 21 -9.765625 23.484375 -3.21875 
L 25.09375 0.875 
L 2.984375 54.6875 
L 12.5 54.6875 
L 29.59375 11.921875 
L 46.6875 54.6875 
L 56.203125 54.6875 
z
" id="DejaVuSans-79"/>
     <path id="DejaVuSans-20"/>
     <path d="M 19.671875 34.8125 
L 19.671875 8.109375 
L 35.5 8.109375 
Q 43.453125 8.109375 47.28125 11.40625 
Q 51.125 14.703125 51.125 21.484375 
Q 51.125 28.328125 47.28125 31.5625 
Q 43.453125 34.8125 35.5 34.8125 
z
M 19.671875 64.796875 
L 19.671875 42.828125 
L 34.28125 42.828125 
Q 41.5 42.828125 45.03125 45.53125 
Q 48.578125 48.25 48.578125 53.8125 
Q 48.578125 59.328125 45.03125 62.0625 
Q 41.5 64.796875 34.28125 64.796875 
z
M 9.8125 72.90625 
L 35.015625 72.90625 
Q 46.296875 72.90625 52.390625 68.21875 
Q 58.5 63.53125 58.5 54.890625 
Q 58.5 48.1875 55.375 44.234375 
Q 52.25 40.28125 46.1875 39.3125 
Q 53.46875 37.75 57.5 32.78125 
Q 61.53125 27.828125 61.53125 20.40625 
Q 61.53125 10.640625 54.890625 5.3125 
Q 48.25 0 35.984375 0 
L 9.8125 0 
z
" id="DejaVuSans-42"/>
     <path d="M 30.609375 48.390625 
Q 23.390625 48.390625 19.1875 42.75 
Q 14.984375 37.109375 14.984375 27.296875 
Q 14.984375 17.484375 19.15625 11.84375 
Q 23.34375 6.203125 30.609375 6.203125 
Q 37.796875 6.203125 41.984375 11.859375 
Q 46.1875 17.53125 46.1875 27.296875 
Q 46.1875 37.015625 41.984375 42.703125 
Q 37.796875 48.390625 30.609375 48.390625 
z
M 30.609375 56 
Q 42.328125 56 49.015625 48.375 
Q 55.71875 40.765625 55.71875 27.296875 
Q 55.71875 13.875 49.015625 6.21875 
Q 42.328125 -1.421875 30.609375 -1.421875 
Q 18.84375 -1.421875 12.171875 6.21875 
Q 5.515625 13.875 5.515625 27.296875 
Q 5.515625 40.765625 12.171875 48.375 
Q 18.84375 56 30.609375 56 
z
" id="DejaVuSans-6f"/>
     <path d="M 54.890625 33.015625 
L 54.890625 0 
L 45.90625 0 
L 45.90625 32.71875 
Q 45.90625 40.484375 42.875 44.328125 
Q 39.84375 48.1875 33.796875 48.1875 
Q 26.515625 48.1875 22.3125 43.546875 
Q 18.109375 38.921875 18.109375 30.90625 
L 18.109375 0 
L 9.078125 0 
L 9.078125 54.6875 
L 18.109375 54.6875 
L 18.109375 46.1875 
Q 21.34375 51.125 25.703125 53.5625 
Q 30.078125 56 35.796875 56 
Q 45.21875 56 50.046875 50.171875 
Q 54.890625 44.34375 54.890625 33.015625 
z
" id="DejaVuSans-6e"/>
     <path d="M 41.109375 46.296875 
Q 39.59375 47.171875 37.8125 47.578125 
Q 36.03125 48 33.890625 48 
Q 26.265625 48 22.1875 43.046875 
Q 18.109375 38.09375 18.109375 28.8125 
L 18.109375 0 
L 9.078125 0 
L 9.078125 54.6875 
L 18.109375 54.6875 
L 18.109375 46.1875 
Q 20.953125 51.171875 25.484375 53.578125 
Q 30.03125 56 36.53125 56 
Q 37.453125 56 38.578125 55.875 
Q 39.703125 55.765625 41.0625 55.515625 
z
" id="DejaVuSans-72"/>
     <path d="M 9.421875 54.6875 
L 18.40625 54.6875 
L 18.40625 0 
L 9.421875 0 
z
M 9.421875 75.984375 
L 18.40625 75.984375 
L 18.40625 64.59375 
L 9.421875 64.59375 
z
" id="DejaVuSans-69"/>
     <path d="M 45.40625 27.984375 
Q 45.40625 37.75 41.375 43.109375 
Q 37.359375 48.484375 30.078125 48.484375 
Q 22.859375 48.484375 18.828125 43.109375 
Q 14.796875 37.75 14.796875 27.984375 
Q 14.796875 18.265625 18.828125 12.890625 
Q 22.859375 7.515625 30.078125 7.515625 
Q 37.359375 7.515625 41.375 12.890625 
Q 45.40625 18.265625 45.40625 27.984375 
z
M 54.390625 6.78125 
Q 54.390625 -7.171875 48.1875 -13.984375 
Q 42 -20.796875 29.203125 -20.796875 
Q 24.46875 -20.796875 20.265625 -20.09375 
Q 16.0625 -19.390625 12.109375 -17.921875 
L 12.109375 -9.1875 
Q 16.0625 -11.328125 19.921875 -12.34375 
Q 23.78125 -13.375 27.78125 -13.375 
Q 36.625 -13.375 41.015625 -8.765625 
Q 45.40625 -4.15625 45.40625 5.171875 
L 45.40625 9.625 
Q 42.625 4.78125 38.28125 2.390625 
Q 33.9375 0 27.875 0 
Q 17.828125 0 11.671875 7.65625 
Q 5.515625 15.328125 5.515625 27.984375 
Q 5.515625 40.671875 11.671875 48.328125 
Q 17.828125 56 27.875 56 
Q 33.9375 56 38.28125 53.609375 
Q 42.625 51.21875 45.40625 46.390625 
L 45.40625 54.6875 
L 54.390625 54.6875 
z
" id="DejaVuSans-67"/>
     <path d="M 44.28125 53.078125 
L 44.28125 44.578125 
Q 40.484375 46.53125 36.375 47.5 
Q 32.28125 48.484375 27.875 48.484375 
Q 21.1875 48.484375 17.84375 46.4375 
Q 14.5 44.390625 14.5 40.28125 
Q 14.5 37.15625 16.890625 35.375 
Q 19.28125 33.59375 26.515625 31.984375 
L 29.59375 31.296875 
Q 39.15625 29.25 43.1875 25.515625 
Q 47.21875 21.78125 47.21875 15.09375 
Q 47.21875 7.46875 41.1875 3.015625 
Q 35.15625 -1.421875 24.609375 -1.421875 
Q 20.21875 -1.421875 15.453125 -0.5625 
Q 10.6875 0.296875 5.421875 2 
L 5.421875 11.28125 
Q 10.40625 8.6875 15.234375 7.390625 
Q 20.0625 6.109375 24.8125 6.109375 
Q 31.15625 6.109375 34.5625 8.28125 
Q 37.984375 10.453125 37.984375 14.40625 
Q 37.984375 18.0625 35.515625 20.015625 
Q 33.0625 21.96875 24.703125 23.78125 
L 21.578125 24.515625 
Q 13.234375 26.265625 9.515625 29.90625 
Q 5.8125 33.546875 5.8125 39.890625 
Q 5.8125 47.609375 11.28125 51.796875 
Q 16.75 56 26.8125 56 
Q 31.78125 56 36.171875 55.265625 
Q 40.578125 54.546875 44.28125 53.078125 
z
" id="DejaVuSans-73"/>
    </defs>
    <g transform="translate(172.363125 35.472)scale(0.12 -0.12)">
     <use xlink:href="#DejaVuSans-4d"/>
     <use x="86.279297" xlink:href="#DejaVuSans-79"/>
     <use x="145.458984" xlink:href="#DejaVuSans-20"/>
     <use x="177.246094" xlink:href="#DejaVuSans-42"/>
     <use x="245.849609" xlink:href="#DejaVuSans-6f"/>
     <use x="307.03125" xlink:href="#DejaVuSans-6e"/>
     <use x="370.410156" xlink:href="#DejaVuSans-64"/>
     <use x="433.886719" xlink:href="#DejaVuSans-6f"/>
     <use x="495.068359" xlink:href="#DejaVuSans-72"/>
     <use x="536.181641" xlink:href="#DejaVuSans-61"/>
     <use x="597.460938" xlink:href="#DejaVuSans-20"/>
     <use x="629.248047" xlink:href="#DejaVuSans-65"/>
     <use x="690.771484" xlink:href="#DejaVuSans-61"/>
     <use x="752.050781" xlink:href="#DejaVuSans-72"/>
     <use x="793.148438" xlink:href="#DejaVuSans-6e"/>
     <use x="856.527344" xlink:href="#DejaVuSans-69"/>
     <use x="884.310547" xlink:href="#DejaVuSans-6e"/>
     <use x="947.689453" xlink:href="#DejaVuSans-67"/>
     <use x="1011.166016" xlink:href="#DejaVuSans-73"/>
    </g>
   </g>
   <g id="legend_1">
    <g id="patch_7">
     <path d="M 64.6 122.862625 
L 158.45 122.862625 
Q 160.45 122.862625 160.45 120.862625 
L 160.45 48.472 
Q 160.45 46.472 158.45 46.472 
L 64.6 46.472 
Q 62.6 46.472 62.6 48.472 
L 62.6 120.862625 
Q 62.6 122.862625 64.6 122.862625 
z
" style="fill:#ffffff;opacity:0.8;stroke:#cccccc;stroke-linejoin:miter;"/>
    </g>
    <g id="line2d_32">
     <path d="M 66.6 54.570437 
L 86.6 54.570437 
" style="fill:none;stroke:#0000ff;stroke-linecap:square;stroke-width:1.5;"/>
    </g>
    <g id="line2d_33"/>
    <g id="text_17">
     <!-- Interest -->
     <defs>
      <path d="M 9.8125 72.90625 
L 19.671875 72.90625 
L 19.671875 0 
L 9.8125 0 
z
" id="DejaVuSans-49"/>
     </defs>
     <g transform="translate(94.6 58.070437)scale(0.1 -0.1)">
      <use xlink:href="#DejaVuSans-49"/>
      <use x="29.492188" xlink:href="#DejaVuSans-6e"/>
      <use x="92.871094" xlink:href="#DejaVuSans-74"/>
      <use x="132.080078" xlink:href="#DejaVuSans-65"/>
      <use x="193.603516" xlink:href="#DejaVuSans-72"/>
      <use x="234.685547" xlink:href="#DejaVuSans-65"/>
      <use x="296.208984" xlink:href="#DejaVuSans-73"/>
      <use x="348.308594" xlink:href="#DejaVuSans-74"/>
     </g>
    </g>
    <g id="line2d_34">
     <path d="M 66.6 69.248562 
L 86.6 69.248562 
" style="fill:none;stroke:#ff0000;stroke-linecap:square;stroke-width:1.5;"/>
    </g>
    <g id="line2d_35"/>
    <g id="text_18">
     <!-- Balance -->
     <defs>
      <path d="M 9.421875 75.984375 
L 18.40625 75.984375 
L 18.40625 0 
L 9.421875 0 
z
" id="DejaVuSans-6c"/>
      <path d="M 48.78125 52.59375 
L 48.78125 44.1875 
Q 44.96875 46.296875 41.140625 47.34375 
Q 37.3125 48.390625 33.40625 48.390625 
Q 24.65625 48.390625 19.8125 42.84375 
Q 14.984375 37.3125 14.984375 27.296875 
Q 14.984375 17.28125 19.8125 11.734375 
Q 24.65625 6.203125 33.40625 6.203125 
Q 37.3125 6.203125 41.140625 7.25 
Q 44.96875 8.296875 48.78125 10.40625 
L 48.78125 2.09375 
Q 45.015625 0.34375 40.984375 -0.53125 
Q 36.96875 -1.421875 32.421875 -1.421875 
Q 20.0625 -1.421875 12.78125 6.34375 
Q 5.515625 14.109375 5.515625 27.296875 
Q 5.515625 40.671875 12.859375 48.328125 
Q 20.21875 56 33.015625 56 
Q 37.15625 56 41.109375 55.140625 
Q 45.0625 54.296875 48.78125 52.59375 
z
" id="DejaVuSans-63"/>
     </defs>
     <g transform="translate(94.6 72.748562)scale(0.1 -0.1)">
      <use xlink:href="#DejaVuSans-42"/>
      <use x="68.603516" xlink:href="#DejaVuSans-61"/>
      <use x="129.882812" xlink:href="#DejaVuSans-6c"/>
      <use x="157.666016" xlink:href="#DejaVuSans-61"/>
      <use x="218.945312" xlink:href="#DejaVuSans-6e"/>
      <use x="282.324219" xlink:href="#DejaVuSans-63"/>
      <use x="337.304688" xlink:href="#DejaVuSans-65"/>
     </g>
    </g>
    <g id="line2d_36">
     <path d="M 66.6 83.926687 
L 86.6 83.926687 
" style="fill:none;stroke:#008000;stroke-linecap:square;stroke-width:1.5;"/>
    </g>
    <g id="line2d_37"/>
    <g id="text_19">
     <!-- Investments -->
     <defs>
      <path d="M 2.984375 54.6875 
L 12.5 54.6875 
L 29.59375 8.796875 
L 46.6875 54.6875 
L 56.203125 54.6875 
L 35.6875 0 
L 23.484375 0 
z
" id="DejaVuSans-76"/>
      <path d="M 52 44.1875 
Q 55.375 50.25 60.0625 53.125 
Q 64.75 56 71.09375 56 
Q 79.640625 56 84.28125 50.015625 
Q 88.921875 44.046875 88.921875 33.015625 
L 88.921875 0 
L 79.890625 0 
L 79.890625 32.71875 
Q 79.890625 40.578125 77.09375 44.375 
Q 74.3125 48.1875 68.609375 48.1875 
Q 61.625 48.1875 57.5625 43.546875 
Q 53.515625 38.921875 53.515625 30.90625 
L 53.515625 0 
L 44.484375 0 
L 44.484375 32.71875 
Q 44.484375 40.625 41.703125 44.40625 
Q 38.921875 48.1875 33.109375 48.1875 
Q 26.21875 48.1875 22.15625 43.53125 
Q 18.109375 38.875 18.109375 30.90625 
L 18.109375 0 
L 9.078125 0 
L 9.078125 54.6875 
L 18.109375 54.6875 
L 18.109375 46.1875 
Q 21.1875 51.21875 25.484375 53.609375 
Q 29.78125 56 35.6875 56 
Q 41.65625 56 45.828125 52.96875 
Q 50 49.953125 52 44.1875 
z
" id="DejaVuSans-6d"/>
     </defs>
     <g transform="translate(94.6 87.426687)scale(0.1 -0.1)">
      <use xlink:href="#DejaVuSans-49"/>
      <use x="29.492188" xlink:href="#DejaVuSans-6e"/>
      <use x="92.871094" xlink:href="#DejaVuSans-76"/>
      <use x="152.050781" xlink:href="#DejaVuSans-65"/>
      <use x="213.574219" xlink:href="#DejaVuSans-73"/>
      <use x="265.673828" xlink:href="#DejaVuSans-74"/>
      <use x="304.882812" xlink:href="#DejaVuSans-6d"/>
      <use x="402.294922" xlink:href="#DejaVuSans-65"/>
      <use x="463.818359" xlink:href="#DejaVuSans-6e"/>
      <use x="527.197266" xlink:href="#DejaVuSans-74"/>
      <use x="566.40625" xlink:href="#DejaVuSans-73"/>
     </g>
    </g>
    <g id="line2d_38"/>
    <g id="line2d_39">
     <g>
      <use style="fill:#bfbf00;stroke:#bfbf00;" x="76.6" xlink:href="#mf889f9ab9a" y="98.604812"/>
     </g>
    </g>
    <g id="text_20">
     <!-- Deposits -->
     <defs>
      <path d="M 19.671875 64.796875 
L 19.671875 8.109375 
L 31.59375 8.109375 
Q 46.6875 8.109375 53.6875 14.9375 
Q 60.6875 21.78125 60.6875 36.53125 
Q 60.6875 51.171875 53.6875 57.984375 
Q 46.6875 64.796875 31.59375 64.796875 
z
M 9.8125 72.90625 
L 30.078125 72.90625 
Q 51.265625 72.90625 61.171875 64.09375 
Q 71.09375 55.28125 71.09375 36.53125 
Q 71.09375 17.671875 61.125 8.828125 
Q 51.171875 0 30.078125 0 
L 9.8125 0 
z
" id="DejaVuSans-44"/>
      <path d="M 18.109375 8.203125 
L 18.109375 -20.796875 
L 9.078125 -20.796875 
L 9.078125 54.6875 
L 18.109375 54.6875 
L 18.109375 46.390625 
Q 20.953125 51.265625 25.265625 53.625 
Q 29.59375 56 35.59375 56 
Q 45.5625 56 51.78125 48.09375 
Q 58.015625 40.1875 58.015625 27.296875 
Q 58.015625 14.40625 51.78125 6.484375 
Q 45.5625 -1.421875 35.59375 -1.421875 
Q 29.59375 -1.421875 25.265625 0.953125 
Q 20.953125 3.328125 18.109375 8.203125 
z
M 48.6875 27.296875 
Q 48.6875 37.203125 44.609375 42.84375 
Q 40.53125 48.484375 33.40625 48.484375 
Q 26.265625 48.484375 22.1875 42.84375 
Q 18.109375 37.203125 18.109375 27.296875 
Q 18.109375 17.390625 22.1875 11.75 
Q 26.265625 6.109375 33.40625 6.109375 
Q 40.53125 6.109375 44.609375 11.75 
Q 48.6875 17.390625 48.6875 27.296875 
z
" id="DejaVuSans-70"/>
     </defs>
     <g transform="translate(94.6 102.104812)scale(0.1 -0.1)">
      <use xlink:href="#DejaVuSans-44"/>
      <use x="77.001953" xlink:href="#DejaVuSans-65"/>
      <use x="138.525391" xlink:href="#DejaVuSans-70"/>
      <use x="202.001953" xlink:href="#DejaVuSans-6f"/>
      <use x="263.183594" xlink:href="#DejaVuSans-73"/>
      <use x="315.283203" xlink:href="#DejaVuSans-69"/>
      <use x="343.066406" xlink:href="#DejaVuSans-74"/>
      <use x="382.275391" xlink:href="#DejaVuSans-73"/>
     </g>
    </g>
    <g id="line2d_40"/>
    <g id="line2d_41">
     <g>
      <use style="fill:#008000;stroke:#008000;" x="76.6" xlink:href="#m8dc0535a8d" y="113.282937"/>
     </g>
    </g>
    <g id="text_21">
     <!-- Commission -->
     <defs>
      <path d="M 64.40625 67.28125 
L 64.40625 56.890625 
Q 59.421875 61.53125 53.78125 63.8125 
Q 48.140625 66.109375 41.796875 66.109375 
Q 29.296875 66.109375 22.65625 58.46875 
Q 16.015625 50.828125 16.015625 36.375 
Q 16.015625 21.96875 22.65625 14.328125 
Q 29.296875 6.6875 41.796875 6.6875 
Q 48.140625 6.6875 53.78125 8.984375 
Q 59.421875 11.28125 64.40625 15.921875 
L 64.40625 5.609375 
Q 59.234375 2.09375 53.4375 0.328125 
Q 47.65625 -1.421875 41.21875 -1.421875 
Q 24.65625 -1.421875 15.125 8.703125 
Q 5.609375 18.84375 5.609375 36.375 
Q 5.609375 53.953125 15.125 64.078125 
Q 24.65625 74.21875 41.21875 74.21875 
Q 47.75 74.21875 53.53125 72.484375 
Q 59.328125 70.75 64.40625 67.28125 
z
" id="DejaVuSans-43"/>
     </defs>
     <g transform="translate(94.6 116.782937)scale(0.1 -0.1)">
      <use xlink:href="#DejaVuSans-43"/>
      <use x="69.824219" xlink:href="#DejaVuSans-6f"/>
      <use x="131.005859" xlink:href="#DejaVuSans-6d"/>
      <use x="228.417969" xlink:href="#DejaVuSans-6d"/>
      <use x="325.830078" xlink:href="#DejaVuSans-69"/>
      <use x="353.613281" xlink:href="#DejaVuSans-73"/>
      <use x="405.712891" xlink:href="#DejaVuSans-73"/>
      <use x="457.8125" xlink:href="#DejaVuSans-69"/>
      <use x="485.595703" xlink:href="#DejaVuSans-6f"/>
      <use x="546.777344" xlink:href="#DejaVuSans-6e"/>
     </g>
    </g>
   </g>
  </g>
 </g>
 <defs>
  <clipPath id="p3bc5bcd372">
   <rect height="235.008" width="357.12" x="57.6" y="41.472"/>
  </clipPath>
 </defs>
</svg>
