<?xml version="1.0" encoding="utf-8" standalone="no"?>
<!DOCTYPE svg PUBLIC "-//W3C//DTD SVG 1.1//EN"
  "http://www.w3.org/Graphics/SVG/1.1/DTD/svg11.dtd">
<!-- Created with matplotlib (http://matplotlib.org/) -->
<svg height="345.6pt" version="1.1" viewBox="0 0 460.8 345.6" width="460.8pt" xmlns="http://www.w3.org/2000/svg" xmlns:xlink="http://www.w3.org/1999/xlink">
 <defs>
  <style type="text/css">
*{stroke-linecap:butt;stroke-linejoin:round;}
  </style>
 </defs>
 <g id="figure_1">
  <g id="patch_1">
   <path d="M 0 345.6 
L 460.8 345.6 
L 460.8 0 
L 0 0 
z
" style="fill:#ffffff;"/>
  </g>
  <g id="axes_1">
   <g id="patch_2">
    <path d="M 57.6 276.48 
L 414.72 276.48 
L 414.72 41.472 
L 57.6 41.472 
z
" style="fill:#ffffff;"/>
   </g>
   <g id="matplotlib.axis_1">
    <g id="xtick_1">
     <g id="line2d_1">
      <path clip-path="url(#p7c777f2678)" d="M 73.832727 276.48 
L 73.832727 41.472 
" style="fill:none;stroke:#b0b0b0;stroke-linecap:square;stroke-width:0.8;"/>
     </g>
     <g id="line2d_2">
      <defs>
       <path d="M 0 0 
L 0 3.5 
" id="m7932ee22c8" style="stroke:#000000;stroke-width:0.8;"/>
      </defs>
      <g>
       <use style="stroke:#000000;stroke-width:0.8;" x="73.832727" xlink:href="#m7932ee22c8" y="276.48"/>
      </g>
     </g>
     <g id="text_1">
      <!-- 2019-01 -->
      <defs>
       <path d="M 19.1875 8.296875 
L 53.609375 8.296875 
L 53.609375 0 
L 7.328125 0 
L 7.328125 8.296875 
Q 12.9375 14.109375 22.625 23.890625 
Q 32.328125 33.6875 34.8125 36.53125 
Q 39.546875 41.84375 41.421875 45.53125 
Q 43.3125 49.21875 43.3125 52.78125 
Q 43.3125 58.59375 39.234375 62.25 
Q 35.15625 65.921875 28.609375 65.921875 
Q 23.96875 65.921875 18.8125 64.3125 
Q 13.671875 62.703125 7.8125 59.421875 
L 7.8125 69.390625 
Q 13.765625 71.78125 18.9375 73 
Q 24.125 74.21875 28.421875 74.21875 
Q 39.75 74.21875 46.484375 68.546875 
Q 53.21875 62.890625 53.21875 53.421875 
Q 53.21875 48.921875 51.53125 44.890625 
Q 49.859375 40.875 45.40625 35.40625 
Q 44.1875 33.984375 37.640625 27.21875 
Q 31.109375 20.453125 19.1875 8.296875 
z
" id="DejaVuSans-32"/>
       <path d="M 31.78125 66.40625 
Q 24.171875 66.40625 20.328125 58.90625 
Q 16.5 51.421875 16.5 36.375 
Q 16.5 21.390625 20.328125 13.890625 
Q 24.171875 6.390625 31.78125 6.390625 
Q 39.453125 6.390625 43.28125 13.890625 
Q 47.125 21.390625 47.125 36.375 
Q 47.125 51.421875 43.28125 58.90625 
Q 39.453125 66.40625 31.78125 66.40625 
z
M 31.78125 74.21875 
Q 44.046875 74.21875 50.515625 64.515625 
Q 56.984375 54.828125 56.984375 36.375 
Q 56.984375 17.96875 50.515625 8.265625 
Q 44.046875 -1.421875 31.78125 -1.421875 
Q 19.53125 -1.421875 13.0625 8.265625 
Q 6.59375 17.96875 6.59375 36.375 
Q 6.59375 54.828125 13.0625 64.515625 
Q 19.53125 74.21875 31.78125 74.21875 
z
" id="DejaVuSans-30"/>
       <path d="M 12.40625 8.296875 
L 28.515625 8.296875 
L 28.515625 63.921875 
L 10.984375 60.40625 
L 10.984375 69.390625 
L 28.421875 72.90625 
L 38.28125 72.90625 
L 38.28125 8.296875 
L 54.390625 8.296875 
L 54.390625 0 
L 12.40625 0 
z
" id="DejaVuSans-31"/>
       <path d="M 10.984375 1.515625 
L 10.984375 10.5 
Q 14.703125 8.734375 18.5 7.8125 
Q 22.3125 6.890625 25.984375 6.890625 
Q 35.75 6.890625 40.890625 13.453125 
Q 46.046875 20.015625 46.78125 33.40625 
Q 43.953125 29.203125 39.59375 26.953125 
Q 35.25 24.703125 29.984375 24.703125 
Q 19.046875 24.703125 12.671875 31.3125 
Q 6.296875 37.9375 6.296875 49.421875 
Q 6.296875 60.640625 12.9375 67.421875 
Q 19.578125 74.21875 30.609375 74.21875 
Q 43.265625 74.21875 49.921875 64.515625 
Q 56.59375 54.828125 56.59375 36.375 
Q 56.59375 19.140625 48.40625 8.859375 
Q 40.234375 -1.421875 26.421875 -1.421875 
Q 22.703125 -1.421875 18.890625 -0.6875 
Q 15.09375 0.046875 10.984375 1.515625 
z
M 30.609375 32.421875 
Q 37.25 32.421875 41.125 36.953125 
Q 45.015625 41.5 45.015625 49.421875 
Q 45.015625 57.28125 41.125 61.84375 
Q 37.25 66.40625 30.609375 66.40625 
Q 23.96875 66.40625 20.09375 61.84375 
Q 16.21875 57.28125 16.21875 49.421875 
Q 16.21875 41.5 20.09375 36.953125 
Q 23.96875 32.421875 30.609375 32.421875 
z
" id="DejaVuSans-39"/>
       <path d="M 4.890625 31.390625 
L 31.203125 31.390625 
L 31.203125 23.390625 
L 4.890625 23.390625 
z
" id="DejaVuSans-2d"/>
      </defs>
      <g transform="translate(36.607906 310.951846)rotate(-30)scale(0.1 -0.1)">
       <use xlink:href="#DejaVuSans-32"/>
       <use x="63.623047" xlink:href="#DejaVuSans-30"/>
       <use x="127.246094" xlink:href="#DejaVuSans-31"/>
       <use x="190.869141" xlink:href="#DejaVuSans-39"/>
       <use x="254.492188" xlink:href="#DejaVuSans-2d"/>
       <use x="290.576172" xlink:href="#DejaVuSans-30"/>
       <use x="354.199219" xlink:href="#DejaVuSans-31"/>
      </g>
     </g>
    </g>
    <g id="xtick_2">
     <g id="line2d_3">
      <path clip-path="url(#p7c777f2678)" d="M 128.404537 276.48 
L 128.404537 41.472 
" style="fill:none;stroke:#b0b0b0;stroke-linecap:square;stroke-width:0.8;"/>
     </g>
     <g id="line2d_4">
      <g>
       <use style="stroke:#000000;stroke-width:0.8;" x="128.404537" xlink:href="#m7932ee22c8" y="276.48"/>
      </g>
     </g>
     <g id="text_2">
      <!-- 2019-03 -->
      <defs>
       <path d="M 40.578125 39.3125 
Q 47.65625 37.796875 51.625 33 
Q 55.609375 28.21875 55.609375 21.1875 
Q 55.609375 10.40625 48.1875 4.484375 
Q 40.765625 -1.421875 27.09375 -1.421875 
Q 22.515625 -1.421875 17.65625 -0.515625 
Q 12.796875 0.390625 7.625 2.203125 
L 7.625 11.71875 
Q 11.71875 9.328125 16.59375 8.109375 
Q 21.484375 6.890625 26.8125 6.890625 
Q 36.078125 6.890625 40.9375 10.546875 
Q 45.796875 14.203125 45.796875 21.1875 
Q 45.796875 27.640625 41.28125 31.265625 
Q 36.765625 34.90625 28.71875 34.90625 
L 20.21875 34.90625 
L 20.21875 43.015625 
L 29.109375 43.015625 
Q 36.375 43.015625 40.234375 45.921875 
Q 44.09375 48.828125 44.09375 54.296875 
Q 44.09375 59.90625 40.109375 62.90625 
Q 36.140625 65.921875 28.71875 65.921875 
Q 24.65625 65.921875 20.015625 65.03125 
Q 15.375 64.15625 9.8125 62.3125 
L 9.8125 71.09375 
Q 15.4375 72.65625 20.34375 73.4375 
Q 25.25 74.21875 29.59375 74.21875 
Q 40.828125 74.21875 47.359375 69.109375 
Q 53.90625 64.015625 53.90625 55.328125 
Q 53.90625 49.265625 50.4375 45.09375 
Q 46.96875 40.921875 40.578125 39.3125 
z
" id="DejaVuSans-33"/>
      </defs>
      <g transform="translate(91.179717 310.951846)rotate(-30)scale(0.1 -0.1)">
       <use xlink:href="#DejaVuSans-32"/>
       <use x="63.623047" xlink:href="#DejaVuSans-30"/>
       <use x="127.246094" xlink:href="#DejaVuSans-31"/>
       <use x="190.869141" xlink:href="#DejaVuSans-39"/>
       <use x="254.492188" xlink:href="#DejaVuSans-2d"/>
       <use x="290.576172" xlink:href="#DejaVuSans-30"/>
       <use x="354.199219" xlink:href="#DejaVuSans-33"/>
      </g>
     </g>
    </g>
    <g id="xtick_3">
     <g id="line2d_5">
      <path clip-path="url(#p7c777f2678)" d="M 184.826239 276.48 
L 184.826239 41.472 
" style="fill:none;stroke:#b0b0b0;stroke-linecap:square;stroke-width:0.8;"/>
     </g>
     <g id="line2d_6">
      <g>
       <use style="stroke:#000000;stroke-width:0.8;" x="184.826239" xlink:href="#m7932ee22c8" y="276.48"/>
      </g>
     </g>
     <g id="text_3">
      <!-- 2019-05 -->
      <defs>
       <path d="M 10.796875 72.90625 
L 49.515625 72.90625 
L 49.515625 64.59375 
L 19.828125 64.59375 
L 19.828125 46.734375 
Q 21.96875 47.46875 24.109375 47.828125 
Q 26.265625 48.1875 28.421875 48.1875 
Q 40.625 48.1875 47.75 41.5 
Q 54.890625 34.8125 54.890625 23.390625 
Q 54.890625 11.625 47.5625 5.09375 
Q 40.234375 -1.421875 26.90625 -1.421875 
Q 22.3125 -1.421875 17.546875 -0.640625 
Q 12.796875 0.140625 7.71875 1.703125 
L 7.71875 11.625 
Q 12.109375 9.234375 16.796875 8.0625 
Q 21.484375 6.890625 26.703125 6.890625 
Q 35.15625 6.890625 40.078125 11.328125 
Q 45.015625 15.765625 45.015625 23.390625 
Q 45.015625 31 40.078125 35.4375 
Q 35.15625 39.890625 26.703125 39.890625 
Q 22.75 39.890625 18.8125 39.015625 
Q 14.890625 38.140625 10.796875 36.28125 
z
" id="DejaVuSans-35"/>
      </defs>
      <g transform="translate(147.601419 310.951846)rotate(-30)scale(0.1 -0.1)">
       <use xlink:href="#DejaVuSans-32"/>
       <use x="63.623047" xlink:href="#DejaVuSans-30"/>
       <use x="127.246094" xlink:href="#DejaVuSans-31"/>
       <use x="190.869141" xlink:href="#DejaVuSans-39"/>
       <use x="254.492188" xlink:href="#DejaVuSans-2d"/>
       <use x="290.576172" xlink:href="#DejaVuSans-30"/>
       <use x="354.199219" xlink:href="#DejaVuSans-35"/>
      </g>
     </g>
    </g>
    <g id="xtick_4">
     <g id="line2d_7">
      <path clip-path="url(#p7c777f2678)" d="M 241.247941 276.48 
L 241.247941 41.472 
" style="fill:none;stroke:#b0b0b0;stroke-linecap:square;stroke-width:0.8;"/>
     </g>
     <g id="line2d_8">
      <g>
       <use style="stroke:#000000;stroke-width:0.8;" x="241.247941" xlink:href="#m7932ee22c8" y="276.48"/>
      </g>
     </g>
     <g id="text_4">
      <!-- 2019-07 -->
      <defs>
       <path d="M 8.203125 72.90625 
L 55.078125 72.90625 
L 55.078125 68.703125 
L 28.609375 0 
L 18.3125 0 
L 43.21875 64.59375 
L 8.203125 64.59375 
z
" id="DejaVuSans-37"/>
      </defs>
      <g transform="translate(204.02312 310.951846)rotate(-30)scale(0.1 -0.1)">
       <use xlink:href="#DejaVuSans-32"/>
       <use x="63.623047" xlink:href="#DejaVuSans-30"/>
       <use x="127.246094" xlink:href="#DejaVuSans-31"/>
       <use x="190.869141" xlink:href="#DejaVuSans-39"/>
       <use x="254.492188" xlink:href="#DejaVuSans-2d"/>
       <use x="290.576172" xlink:href="#DejaVuSans-30"/>
       <use x="354.199219" xlink:href="#DejaVuSans-37"/>
      </g>
     </g>
    </g>
    <g id="xtick_5">
     <g id="line2d_9">
      <path clip-path="url(#p7c777f2678)" d="M 298.594589 276.48 
L 298.594589 41.472 
" style="fill:none;stroke:#b0b0b0;stroke-linecap:square;stroke-width:0.8;"/>
     </g>
     <g id="line2d_10">
      <g>
       <use style="stroke:#000000;stroke-width:0.8;" x="298.594589" xlink:href="#m7932ee22c8" y="276.48"/>
      </g>
     </g>
     <g id="text_5">
      <!-- 2019-09 -->
      <g transform="translate(261.369768 310.951846)rotate(-30)scale(0.1 -0.1)">
       <use xlink:href="#DejaVuSans-32"/>
       <use x="63.623047" xlink:href="#DejaVuSans-30"/>
       <use x="127.246094" xlink:href="#DejaVuSans-31"/>
       <use x="190.869141" xlink:href="#DejaVuSans-39"/>
       <use x="254.492188" xlink:href="#DejaVuSans-2d"/>
       <use x="290.576172" xlink:href="#DejaVuSans-30"/>
       <use x="354.199219" xlink:href="#DejaVuSans-39"/>
      </g>
     </g>
    </g>
    <g id="xtick_6">
     <g id="line2d_11">
      <path clip-path="url(#p7c777f2678)" d="M 355.016291 276.48 
L 355.016291 41.472 
" style="fill:none;stroke:#b0b0b0;stroke-linecap:square;stroke-width:0.8;"/>
     </g>
     <g id="line2d_12">
      <g>
       <use style="stroke:#000000;stroke-width:0.8;" x="355.016291" xlink:href="#m7932ee22c8" y="276.48"/>
      </g>
     </g>
     <g id="text_6">
      <!-- 2019-11 -->
      <g transform="translate(317.79147 310.951846)rotate(-30)scale(0.1 -0.1)">
       <use xlink:href="#DejaVuSans-32"/>
       <use x="63.623047" xlink:href="#DejaVuSans-30"/>
       <use x="127.246094" xlink:href="#DejaVuSans-31"/>
       <use x="190.869141" xlink:href="#DejaVuSans-39"/>
       <use x="254.492188" xlink:href="#DejaVuSans-2d"/>
       <use x="290.576172" xlink:href="#DejaVuSans-31"/>
       <use x="354.199219" xlink:href="#DejaVuSans-31"/>
      </g>
     </g>
    </g>
    <g id="xtick_7">
     <g id="line2d_13">
      <path clip-path="url(#p7c777f2678)" d="M 411.437993 276.48 
L 411.437993 41.472 
" style="fill:none;stroke:#b0b0b0;stroke-linecap:square;stroke-width:0.8;"/>
     </g>
     <g id="line2d_14">
      <g>
       <use style="stroke:#000000;stroke-width:0.8;" x="411.437993" xlink:href="#m7932ee22c8" y="276.48"/>
      </g>
     </g>
     <g id="text_7">
      <!-- 2020-01 -->
      <g transform="translate(374.213172 310.951846)rotate(-30)scale(0.1 -0.1)">
       <use xlink:href="#DejaVuSans-32"/>
       <use x="63.623047" xlink:href="#DejaVuSans-30"/>
       <use x="127.246094" xlink:href="#DejaVuSans-32"/>
       <use x="190.869141" xlink:href="#DejaVuSans-30"/>
       <use x="254.492188" xlink:href="#DejaVuSans-2d"/>
       <use x="290.576172" xlink:href="#DejaVuSans-30"/>
       <use x="354.199219" xlink:href="#DejaVuSans-31"/>
      </g>
     </g>
    </g>
    <g id="text_8">
     <!-- date -->
     <defs>
      <path d="M 45.40625 46.390625 
L 45.40625 75.984375 
L 54.390625 75.984375 
L 54.390625 0 
L 45.40625 0 
L 45.40625 8.203125 
Q 42.578125 3.328125 38.25 0.953125 
Q 33.9375 -1.421875 27.875 -1.421875 
Q 17.96875 -1.421875 11.734375 6.484375 
Q 5.515625 14.40625 5.515625 27.296875 
Q 5.515625 40.1875 11.734375 48.09375 
Q 17.96875 56 27.875 56 
Q 33.9375 56 38.25 53.625 
Q 42.578125 51.265625 45.40625 46.390625 
z
M 14.796875 27.296875 
Q 14.796875 17.390625 18.875 11.75 
Q 22.953125 6.109375 30.078125 6.109375 
Q 37.203125 6.109375 41.296875 11.75 
Q 45.40625 17.390625 45.40625 27.296875 
Q 45.40625 37.203125 41.296875 42.84375 
Q 37.203125 48.484375 30.078125 48.484375 
Q 22.953125 48.484375 18.875 42.84375 
Q 14.796875 37.203125 14.796875 27.296875 
z
" id="DejaVuSans-64"/>
      <path d="M 34.28125 27.484375 
Q 23.390625 27.484375 19.1875 25 
Q 14.984375 22.515625 14.984375 16.5 
Q 14.984375 11.71875 18.140625 8.90625 
Q 21.296875 6.109375 26.703125 6.109375 
Q 34.1875 6.109375 38.703125 11.40625 
Q 43.21875 16.703125 43.21875 25.484375 
L 43.21875 27.484375 
z
M 52.203125 31.203125 
L 52.203125 0 
L 43.21875 0 
L 43.21875 8.296875 
Q 40.140625 3.328125 35.546875 0.953125 
Q 30.953125 -1.421875 24.3125 -1.421875 
Q 15.921875 -1.421875 10.953125 3.296875 
Q 6 8.015625 6 15.921875 
Q 6 25.140625 12.171875 29.828125 
Q 18.359375 34.515625 30.609375 34.515625 
L 43.21875 34.515625 
L 43.21875 35.40625 
Q 43.21875 41.609375 39.140625 45 
Q 35.0625 48.390625 27.6875 48.390625 
Q 23 48.390625 18.546875 47.265625 
Q 14.109375 46.140625 10.015625 43.890625 
L 10.015625 52.203125 
Q 14.9375 54.109375 19.578125 55.046875 
Q 24.21875 56 28.609375 56 
Q 40.484375 56 46.34375 49.84375 
Q 52.203125 43.703125 52.203125 31.203125 
z
" id="DejaVuSans-61"/>
      <path d="M 18.3125 70.21875 
L 18.3125 54.6875 
L 36.8125 54.6875 
L 36.8125 47.703125 
L 18.3125 47.703125 
L 18.3125 18.015625 
Q 18.3125 11.328125 20.140625 9.421875 
Q 21.96875 7.515625 27.59375 7.515625 
L 36.8125 7.515625 
L 36.8125 0 
L 27.59375 0 
Q 17.1875 0 13.234375 3.875 
Q 9.28125 7.765625 9.28125 18.015625 
L 9.28125 47.703125 
L 2.6875 47.703125 
L 2.6875 54.6875 
L 9.28125 54.6875 
L 9.28125 70.21875 
z
" id="DejaVuSans-74"/>
      <path d="M 56.203125 29.59375 
L 56.203125 25.203125 
L 14.890625 25.203125 
Q 15.484375 15.921875 20.484375 11.0625 
Q 25.484375 6.203125 34.421875 6.203125 
Q 39.59375 6.203125 44.453125 7.46875 
Q 49.3125 8.734375 54.109375 11.28125 
L 54.109375 2.78125 
Q 49.265625 0.734375 44.1875 -0.34375 
Q 39.109375 -1.421875 33.890625 -1.421875 
Q 20.796875 -1.421875 13.15625 6.1875 
Q 5.515625 13.8125 5.515625 26.8125 
Q 5.515625 40.234375 12.765625 48.109375 
Q 20.015625 56 32.328125 56 
Q 43.359375 56 49.78125 48.890625 
Q 56.203125 41.796875 56.203125 29.59375 
z
M 47.21875 32.234375 
Q 47.125 39.59375 43.09375 43.984375 
Q 39.0625 48.390625 32.421875 48.390625 
Q 24.90625 48.390625 20.390625 44.140625 
Q 15.875 39.890625 15.1875 32.171875 
z
" id="DejaVuSans-65"/>
     </defs>
     <g transform="translate(224.885 324.351346)scale(0.1 -0.1)">
      <use xlink:href="#DejaVuSans-64"/>
      <use x="63.476562" xlink:href="#DejaVuSans-61"/>
      <use x="124.755859" xlink:href="#DejaVuSans-74"/>
      <use x="163.964844" xlink:href="#DejaVuSans-65"/>
     </g>
    </g>
   </g>
   <g id="matplotlib.axis_2">
    <g id="ytick_1">
     <g id="line2d_15">
      <path clip-path="url(#p7c777f2678)" d="M 57.6 265.797818 
L 414.72 265.797818 
" style="fill:none;stroke:#b0b0b0;stroke-linecap:square;stroke-width:0.8;"/>
     </g>
     <g id="line2d_16">
      <defs>
       <path d="M 0 0 
L -3.5 0 
" id="m938e1450c6" style="stroke:#000000;stroke-width:0.8;"/>
      </defs>
      <g>
       <use style="stroke:#000000;stroke-width:0.8;" x="57.6" xlink:href="#m938e1450c6" y="265.797818"/>
      </g>
     </g>
     <g id="text_9">
      <!-- 0 -->
      <g transform="translate(44.2375 269.597037)scale(0.1 -0.1)">
       <use xlink:href="#DejaVuSans-30"/>
      </g>
     </g>
    </g>
    <g id="ytick_2">
     <g id="line2d_17">
      <path clip-path="url(#p7c777f2678)" d="M 57.6 226.264264 
L 414.72 226.264264 
" style="fill:none;stroke:#b0b0b0;stroke-linecap:square;stroke-width:0.8;"/>
     </g>
     <g id="line2d_18">
      <g>
       <use style="stroke:#000000;stroke-width:0.8;" x="57.6" xlink:href="#m938e1450c6" y="226.264264"/>
      </g>
     </g>
     <g id="text_10">
      <!-- 2000 -->
      <g transform="translate(25.15 230.063483)scale(0.1 -0.1)">
       <use xlink:href="#DejaVuSans-32"/>
       <use x="63.623047" xlink:href="#DejaVuSans-30"/>
       <use x="127.246094" xlink:href="#DejaVuSans-30"/>
       <use x="190.869141" xlink:href="#DejaVuSans-30"/>
      </g>
     </g>
    </g>
    <g id="ytick_3">
     <g id="line2d_19">
      <path clip-path="url(#p7c777f2678)" d="M 57.6 186.730711 
L 414.72 186.730711 
" style="fill:none;stroke:#b0b0b0;stroke-linecap:square;stroke-width:0.8;"/>
     </g>
     <g id="line2d_20">
      <g>
       <use style="stroke:#000000;stroke-width:0.8;" x="57.6" xlink:href="#m938e1450c6" y="186.730711"/>
      </g>
     </g>
     <g id="text_11">
      <!-- 4000 -->
      <defs>
       <path d="M 37.796875 64.3125 
L 12.890625 25.390625 
L 37.796875 25.390625 
z
M 35.203125 72.90625 
L 47.609375 72.90625 
L 47.609375 25.390625 
L 58.015625 25.390625 
L 58.015625 17.1875 
L 47.609375 17.1875 
L 47.609375 0 
L 37.796875 0 
L 37.796875 17.1875 
L 4.890625 17.1875 
L 4.890625 26.703125 
z
" id="DejaVuSans-34"/>
      </defs>
      <g transform="translate(25.15 190.529929)scale(0.1 -0.1)">
       <use xlink:href="#DejaVuSans-34"/>
       <use x="63.623047" xlink:href="#DejaVuSans-30"/>
       <use x="127.246094" xlink:href="#DejaVuSans-30"/>
       <use x="190.869141" xlink:href="#DejaVuSans-30"/>
      </g>
     </g>
    </g>
    <g id="ytick_4">
     <g id="line2d_21">
      <path clip-path="url(#p7c777f2678)" d="M 57.6 147.197157 
L 414.72 147.197157 
" style="fill:none;stroke:#b0b0b0;stroke-linecap:square;stroke-width:0.8;"/>
     </g>
     <g id="line2d_22">
      <g>
       <use style="stroke:#000000;stroke-width:0.8;" x="57.6" xlink:href="#m938e1450c6" y="147.197157"/>
      </g>
     </g>
     <g id="text_12">
      <!-- 6000 -->
      <defs>
       <path d="M 33.015625 40.375 
Q 26.375 40.375 22.484375 35.828125 
Q 18.609375 31.296875 18.609375 23.390625 
Q 18.609375 15.53125 22.484375 10.953125 
Q 26.375 6.390625 33.015625 6.390625 
Q 39.65625 6.390625 43.53125 10.953125 
Q 47.40625 15.53125 47.40625 23.390625 
Q 47.40625 31.296875 43.53125 35.828125 
Q 39.65625 40.375 33.015625 40.375 
z
M 52.59375 71.296875 
L 52.59375 62.3125 
Q 48.875 64.0625 45.09375 64.984375 
Q 41.3125 65.921875 37.59375 65.921875 
Q 27.828125 65.921875 22.671875 59.328125 
Q 17.53125 52.734375 16.796875 39.40625 
Q 19.671875 43.65625 24.015625 45.921875 
Q 28.375 48.1875 33.59375 48.1875 
Q 44.578125 48.1875 50.953125 41.515625 
Q 57.328125 34.859375 57.328125 23.390625 
Q 57.328125 12.15625 50.6875 5.359375 
Q 44.046875 -1.421875 33.015625 -1.421875 
Q 20.359375 -1.421875 13.671875 8.265625 
Q 6.984375 17.96875 6.984375 36.375 
Q 6.984375 53.65625 15.1875 63.9375 
Q 23.390625 74.21875 37.203125 74.21875 
Q 40.921875 74.21875 44.703125 73.484375 
Q 48.484375 72.75 52.59375 71.296875 
z
" id="DejaVuSans-36"/>
      </defs>
      <g transform="translate(25.15 150.996376)scale(0.1 -0.1)">
       <use xlink:href="#DejaVuSans-36"/>
       <use x="63.623047" xlink:href="#DejaVuSans-30"/>
       <use x="127.246094" xlink:href="#DejaVuSans-30"/>
       <use x="190.869141" xlink:href="#DejaVuSans-30"/>
      </g>
     </g>
    </g>
    <g id="ytick_5">
     <g id="line2d_23">
      <path clip-path="url(#p7c777f2678)" d="M 57.6 107.663603 
L 414.72 107.663603 
" style="fill:none;stroke:#b0b0b0;stroke-linecap:square;stroke-width:0.8;"/>
     </g>
     <g id="line2d_24">
      <g>
       <use style="stroke:#000000;stroke-width:0.8;" x="57.6" xlink:href="#m938e1450c6" y="107.663603"/>
      </g>
     </g>
     <g id="text_13">
      <!-- 8000 -->
      <defs>
       <path d="M 31.78125 34.625 
Q 24.75 34.625 20.71875 30.859375 
Q 16.703125 27.09375 16.703125 20.515625 
Q 16.703125 13.921875 20.71875 10.15625 
Q 24.75 6.390625 31.78125 6.390625 
Q 38.8125 6.390625 42.859375 10.171875 
Q 46.921875 13.96875 46.921875 20.515625 
Q 46.921875 27.09375 42.890625 30.859375 
Q 38.875 34.625 31.78125 34.625 
z
M 21.921875 38.8125 
Q 15.578125 40.375 12.03125 44.71875 
Q 8.5 49.078125 8.5 55.328125 
Q 8.5 64.0625 14.71875 69.140625 
Q 20.953125 74.21875 31.78125 74.21875 
Q 42.671875 74.21875 48.875 69.140625 
Q 55.078125 64.0625 55.078125 55.328125 
Q 55.078125 49.078125 51.53125 44.71875 
Q 48 40.375 41.703125 38.8125 
Q 48.828125 37.15625 52.796875 32.3125 
Q 56.78125 27.484375 56.78125 20.515625 
Q 56.78125 9.90625 50.3125 4.234375 
Q 43.84375 -1.421875 31.78125 -1.421875 
Q 19.734375 -1.421875 13.25 4.234375 
Q 6.78125 9.90625 6.78125 20.515625 
Q 6.78125 27.484375 10.78125 32.3125 
Q 14.796875 37.15625 21.921875 38.8125 
z
M 18.3125 54.390625 
Q 18.3125 48.734375 21.84375 45.5625 
Q 25.390625 42.390625 31.78125 42.390625 
Q 38.140625 42.390625 41.71875 45.5625 
Q 45.3125 48.734375 45.3125 54.390625 
Q 45.3125 60.0625 41.71875 63.234375 
Q 38.140625 66.40625 31.78125 66.40625 
Q 25.390625 66.40625 21.84375 63.234375 
Q 18.3125 60.0625 18.3125 54.390625 
z
" id="DejaVuSans-38"/>
      </defs>
      <g transform="translate(25.15 111.462822)scale(0.1 -0.1)">
       <use xlink:href="#DejaVuSans-38"/>
       <use x="63.623047" xlink:href="#DejaVuSans-30"/>
       <use x="127.246094" xlink:href="#DejaVuSans-30"/>
       <use x="190.869141" xlink:href="#DejaVuSans-30"/>
      </g>
     </g>
    </g>
    <g id="ytick_6">
     <g id="line2d_25">
      <path clip-path="url(#p7c777f2678)" d="M 57.6 68.13005 
L 414.72 68.13005 
" style="fill:none;stroke:#b0b0b0;stroke-linecap:square;stroke-width:0.8;"/>
     </g>
     <g id="line2d_26">
      <g>
       <use style="stroke:#000000;stroke-width:0.8;" x="57.6" xlink:href="#m938e1450c6" y="68.13005"/>
      </g>
     </g>
     <g id="text_14">
      <!-- 10000 -->
      <g transform="translate(18.7875 71.929268)scale(0.1 -0.1)">
       <use xlink:href="#DejaVuSans-31"/>
       <use x="63.623047" xlink:href="#DejaVuSans-30"/>
       <use x="127.246094" xlink:href="#DejaVuSans-30"/>
       <use x="190.869141" xlink:href="#DejaVuSans-30"/>
       <use x="254.492188" xlink:href="#DejaVuSans-30"/>
      </g>
     </g>
    </g>
    <g id="text_15">
     <!-- EUR -->
     <defs>
      <path d="M 9.8125 72.90625 
L 55.90625 72.90625 
L 55.90625 64.59375 
L 19.671875 64.59375 
L 19.671875 43.015625 
L 54.390625 43.015625 
L 54.390625 34.71875 
L 19.671875 34.71875 
L 19.671875 8.296875 
L 56.78125 8.296875 
L 56.78125 0 
L 9.8125 0 
z
" id="DejaVuSans-45"/>
      <path d="M 8.6875 72.90625 
L 18.609375 72.90625 
L 18.609375 28.609375 
Q 18.609375 16.890625 22.84375 11.734375 
Q 27.09375 6.59375 36.625 6.59375 
Q 46.09375 6.59375 50.34375 11.734375 
Q 54.59375 16.890625 54.59375 28.609375 
L 54.59375 72.90625 
L 64.5 72.90625 
L 64.5 27.390625 
Q 64.5 13.140625 57.4375 5.859375 
Q 50.390625 -1.421875 36.625 -1.421875 
Q 22.796875 -1.421875 15.734375 5.859375 
Q 8.6875 13.140625 8.6875 27.390625 
z
" id="DejaVuSans-55"/>
      <path d="M 44.390625 34.1875 
Q 47.5625 33.109375 50.5625 29.59375 
Q 53.5625 26.078125 56.59375 19.921875 
L 66.609375 0 
L 56 0 
L 46.6875 18.703125 
Q 43.0625 26.03125 39.671875 28.421875 
Q 36.28125 30.8125 30.421875 30.8125 
L 19.671875 30.8125 
L 19.671875 0 
L 9.8125 0 
L 9.8125 72.90625 
L 32.078125 72.90625 
Q 44.578125 72.90625 50.734375 67.671875 
Q 56.890625 62.453125 56.890625 51.90625 
Q 56.890625 45.015625 53.6875 40.46875 
Q 50.484375 35.9375 44.390625 34.1875 
z
M 19.671875 64.796875 
L 19.671875 38.921875 
L 32.078125 38.921875 
Q 39.203125 38.921875 42.84375 42.21875 
Q 46.484375 45.515625 46.484375 51.90625 
Q 46.484375 58.296875 42.84375 61.546875 
Q 39.203125 64.796875 32.078125 64.796875 
z
" id="DejaVuSans-52"/>
     </defs>
     <g transform="translate(12.707813 169.268969)rotate(-90)scale(0.1 -0.1)">
      <use xlink:href="#DejaVuSans-45"/>
      <use x="63.183594" xlink:href="#DejaVuSans-55"/>
      <use x="136.376953" xlink:href="#DejaVuSans-52"/>
     </g>
    </g>
   </g>
   <g id="line2d_27">
    <path clip-path="url(#p7c777f2678)" d="M 73.832727 265.797818 
L 106.205835 265.709365 
L 106.205835 265.690696 
L 111.755511 265.542124 
L 111.755511 265.421927 
L 111.755511 265.421927 
L 113.605402 265.353153 
L 113.605402 265.311968 
L 113.605402 265.149263 
L 118.230132 264.992905 
L 118.230132 264.809556 
L 121.00497 264.687603 
L 121.00497 264.670115 
L 121.00497 264.670115 
L 125.6297 264.557575 
L 125.6297 264.536765 
L 130.254429 264.429182 
L 130.254429 264.42878 
L 131.179375 264.314943 
L 131.179375 264.137808 
L 133.029267 264.031267 
L 133.029267 263.987758 
L 134.879159 263.87696 
L 134.879159 263.832028 
L 138.578943 263.717797 
L 138.578943 263.668919 
L 139.503889 263.553509 
L 139.503889 263.505465 
L 139.503889 263.505465 
L 144.128618 263.372455 
L 144.128618 263.372455 
L 144.128618 263.26524 
L 147.828402 263.160739 
L 147.828402 263.133175 
L 154.303024 263.003803 
L 154.303024 262.984815 
L 158.927753 262.872027 
L 158.927753 262.735 
L 159.852699 262.624973 
L 159.852699 262.606403 
L 163.552483 262.484465 
L 163.552483 262.420614 
L 166.327321 262.299911 
L 166.327321 262.254873 
L 170.027104 262.181711 
L 170.027104 262.145007 
L 170.027104 261.926833 
L 172.801942 261.802411 
L 172.801942 261.603365 
L 177.426672 261.488753 
L 177.426672 261.479101 
L 182.976347 261.340354 
L 182.976347 261.308331 
L 186.676131 261.154994 
L 186.676131 261.154994 
L 186.676131 261.075738 
L 186.676131 261.075738 
L 189.450969 260.954655 
L 189.450969 260.889738 
L 191.300861 260.768021 
L 191.300861 260.764919 
L 195.925591 260.632518 
L 195.925591 260.486707 
L 197.775482 260.380583 
L 197.775482 260.334627 
L 202.400212 260.177478 
L 202.400212 260.067491 
L 206.099996 259.915406 
L 206.099996 259.913446 
L 215.349455 259.796702 
L 215.349455 259.664137 
L 216.274401 259.548761 
L 219.049239 259.41668 
L 219.049239 259.383381 
L 221.824077 259.259063 
L 221.824077 259.207643 
L 223.673969 259.108447 
L 223.673969 259.007372 
L 224.598914 258.897263 
L 224.598914 258.862691 
L 224.598914 258.862691 
L 228.298698 258.744279 
L 228.298698 258.713073 
L 228.298698 258.713073 
L 229.223644 258.603731 
L 229.223644 258.501172 
L 231.998482 258.391422 
L 231.998482 258.382263 
L 238.473104 258.249833 
L 238.473104 258.236877 
L 241.247941 258.122319 
L 241.247941 258.050239 
L 241.247941 258.050239 
L 242.172887 257.938432 
L 242.172887 257.910981 
L 243.097833 257.795522 
L 243.097833 257.298829 
L 244.022779 257.177837 
L 244.022779 256.701975 
L 244.947725 256.701975 
L 244.947725 256.596116 
L 244.947725 256.496151 
L 247.722563 256.373037 
L 247.722563 255.645674 
L 248.647509 255.534407 
L 248.647509 255.496449 
L 249.572455 255.496449 
L 249.572455 255.442676 
L 249.572455 255.1578 
L 251.422347 255.043869 
L 251.422347 254.836957 
L 251.422347 254.836957 
L 254.197184 254.724564 
L 254.197184 254.724564 
L 254.197184 254.498429 
L 255.12213 254.388454 
L 255.12213 254.258332 
L 256.047076 254.150507 
L 256.047076 253.908937 
L 256.972022 253.799559 
L 256.972022 253.366947 
L 257.896968 253.309829 
L 257.896968 253.101268 
L 260.671806 252.868906 
L 260.671806 252.803237 
L 261.596752 252.705957 
L 261.596752 252.49568 
L 264.37159 252.376039 
L 264.37159 252.376039 
L 264.37159 252.308703 
L 267.146427 252.197836 
L 267.146427 252.197081 
L 268.996319 252.113198 
L 268.996319 252.020068 
L 269.921265 251.907081 
L 269.921265 251.698945 
L 270.846211 251.587257 
L 270.846211 251.56067 
L 273.621049 251.455356 
L 273.621049 251.455356 
L 273.621049 250.278338 
L 274.545995 250.16653 
L 274.545995 249.712687 
L 275.470941 249.60494 
L 275.470941 249.482806 
L 276.395887 249.482806 
L 276.395887 249.372518 
L 276.395887 249.229706 
L 277.320833 249.119617 
L 277.320833 249.07118 
L 280.095671 248.955107 
L 280.095671 248.955107 
L 280.095671 248.753996 
L 281.020616 248.647529 
L 281.020616 248.554194 
L 281.945562 248.442267 
L 281.945562 248.426509 
L 281.945562 248.426509 
L 282.870508 248.426509 
L 282.870508 248.33665 
L 282.870508 248.207325 
L 283.795454 248.098631 
L 283.795454 247.834229 
L 286.570292 247.708772 
L 286.570292 247.023949 
L 287.495238 247.023949 
L 287.495238 246.914428 
L 287.495238 246.841727 
L 288.420184 246.730894 
L 288.420184 246.697581 
L 290.270076 246.58878 
L 290.270076 246.455664 
L 293.044914 246.362589 
L 293.044914 246.254494 
L 294.894805 246.164404 
L 294.894805 246.147368 
L 294.894805 246.047401 
L 294.894805 246.047401 
L 297.669643 245.948685 
L 297.669643 245.867217 
L 299.519535 245.753114 
L 299.519535 245.60735 
L 299.519535 245.60735 
L 300.444481 245.496346 
L 300.444481 245.184717 
L 301.369427 245.082442 
L 301.369427 244.59656 
L 302.294373 244.485241 
L 302.294373 244.18178 
L 303.219319 244.071071 
L 303.219319 243.645776 
L 305.994157 243.529297 
L 305.994157 243.231209 
L 306.919103 243.122949 
L 306.919103 243.000318 
L 307.844049 242.888923 
L 307.844049 242.882704 
L 309.69394 242.776223 
L 309.69394 242.515111 
L 312.468778 242.401287 
L 312.468778 241.890142 
L 313.393724 241.779821 
L 313.393724 241.636367 
L 314.31867 241.636367 
L 314.31867 241.525434 
L 314.31867 241.194168 
L 315.243616 241.083602 
L 315.243616 241.049379 
L 316.168562 240.943412 
L 316.168562 240.860477 
L 318.9434 240.747709 
L 318.9434 240.747709 
L 318.9434 240.686944 
L 319.868346 240.618138 
L 319.868346 240.417713 
L 321.718238 240.309908 
L 321.718238 240.147094 
L 324.493075 240.039285 
L 324.493075 240.03664 
L 324.493075 240.027849 
L 326.342967 239.942766 
L 326.342967 239.661163 
L 328.192859 239.548146 
L 328.192859 239.248394 
L 329.117805 239.115201 
L 329.117805 238.635936 
L 331.892643 238.520399 
L 331.892643 237.995504 
L 332.817589 237.865045 
L 332.817589 237.738518 
L 334.667481 237.644817 
L 334.667481 237.627844 
L 334.667481 237.445338 
L 338.367264 237.332071 
L 338.367264 237.008495 
L 339.29221 236.898189 
L 339.29221 236.761177 
L 340.217156 236.644758 
L 340.217156 236.275765 
L 341.142102 236.164209 
L 341.142102 235.999132 
L 342.067048 235.888064 
L 342.067048 235.557051 
L 344.841886 235.46935 
L 344.841886 235.154062 
L 345.766832 235.044394 
L 346.691778 234.953843 
L 346.691778 234.835556 
L 347.616724 234.835556 
L 347.616724 234.724502 
L 347.616724 234.698399 
L 348.54167 234.586369 
L 348.54167 234.579246 
L 352.241453 234.465787 
L 352.241453 234.350765 
L 352.241453 234.350765 
L 354.091345 234.257372 
L 354.091345 234.220633 
L 355.016291 234.110453 
L 355.016291 234.081036 
L 357.791129 233.974943 
L 357.791129 233.208287 
L 357.791129 233.208287 
L 358.716075 233.113717 
L 358.716075 232.717305 
L 359.641021 232.618913 
L 359.641021 232.409714 
L 359.641021 232.409714 
L 360.565967 232.298891 
L 360.565967 232.184029 
L 360.565967 232.184029 
L 361.490913 232.072455 
L 361.490913 232.034481 
L 364.265751 231.91837 
L 364.265751 231.724603 
L 364.265751 231.724603 
L 366.115642 231.61597 
L 366.115642 231.419903 
L 367.965534 231.309711 
L 367.965534 231.189901 
L 370.740372 231.069877 
L 370.740372 231.069877 
L 370.740372 230.277693 
L 372.590264 230.169851 
L 372.590264 230.111588 
L 373.51521 230.000807 
L 373.51521 229.958507 
L 376.290048 229.845443 
L 376.290048 229.842526 
L 378.13994 229.734033 
L 378.13994 229.649483 
L 379.989831 229.542683 
L 379.989831 229.538395 
L 379.989831 229.499627 
L 382.764669 229.395154 
L 383.689615 229.294067 
L 383.689615 228.952698 
L 384.614561 228.839053 
L 384.614561 228.599139 
L 385.539507 228.464945 
L 385.539507 228.190883 
L 386.464453 228.080521 
L 386.464453 228.01213 
L 389.239291 227.904277 
L 390.164237 227.789519 
L 390.164237 227.487883 
L 391.089183 227.376145 
L 391.089183 227.197034 
L 392.014129 227.088027 
L 392.014129 227.081633 
L 392.014129 227.081633 
L 392.939074 226.976391 
L 392.939074 226.958858 
L 393.86402 226.861424 
L 393.86402 226.699828 
L 396.638858 226.587379 
L 396.638858 226.161984 
L 397.563804 226.05014 
L 397.563804 226.02514 
L 397.563804 226.02514 
" style="fill:none;stroke:#0000ff;stroke-linecap:square;stroke-width:1.5;"/>
   </g>
   <g id="line2d_28">
    <path clip-path="url(#p7c777f2678)" d="M 73.832727 265.797818 
L 76.491251 265.718751 
L 76.639981 255.835363 
L 76.858885 255.97373 
L 77.357232 259.334082 
L 77.459532 260.263121 
L 77.900134 261.231693 
L 78.266259 263.386271 
L 78.352673 263.504872 
L 78.490397 263.900208 
L 78.638988 264.196709 
L 78.87227 264.473444 
L 78.926867 264.849013 
L 79.113901 265.026914 
L 79.200037 265.204815 
L 79.296674 265.402483 
L 79.785086 265.501076 
L 79.785729 225.967522 
L 79.875793 227.588398 
L 79.925049 228.55697 
L 80.024031 246.702871 
L 80.133172 249.153488 
L 80.148053 249.766258 
L 80.320313 255.850529 
L 80.488902 256.044693 
L 80.588408 258.013126 
L 80.604723 258.007868 
L 80.658828 258.086935 
L 80.778857 261.032185 
L 80.797602 261.051952 
L 80.901327 262.257725 
L 80.939267 262.53446 
L 81.116088 263.581791 
L 81.135004 263.601557 
L 81.246993 264.174277 
L 81.706961 264.490545 
L 81.737932 265.004481 
L 81.868206 265.044015 
L 81.930415 265.202149 
L 82.052007 265.597485 
L 82.663413 265.696086 
L 82.757621 265.735619 
L 83.400094 265.768893 
L 83.516098 265.569913 
L 83.569378 265.688246 
L 83.668928 265.747545 
L 86.513779 265.787079 
L 87.209972 265.586787 
L 87.214511 265.685621 
L 87.220784 265.744921 
L 88.141009 265.784455 
L 89.345848 265.5847 
L 89.348781 265.604467 
L 89.357666 265.782368 
L 92.705821 265.762486 
L 92.705821 265.573632 
L 92.708058 265.7713 
L 92.911279 265.759259 
L 105.595499 265.783946 
L 105.595499 265.748718 
L 105.595499 265.72149 
L 105.607939 265.78079 
L 105.662044 265.769886 
L 105.754292 265.789653 
L 106.605906 265.78593 
L 107.001513 265.580893 
L 107.420201 265.561716 
L 107.420201 265.457963 
L 107.450294 265.556797 
L 109.646206 265.796815 
L 112.332413 265.685085 
L 112.358267 265.515961 
L 112.350195 265.718438 
L 112.423977 265.634562 
L 113.906984 265.495162 
L 113.943746 265.447797 
L 113.99373 265.501899 
L 114.005559 265.491619 
L 114.035192 265.462511 
L 114.252608 265.709912 
L 114.303383 265.604519 
L 114.337041 265.683586 
L 115.844724 265.767551 
L 115.885565 265.785468 
L 115.885565 265.779262 
L 118.537912 265.635299 
L 118.553617 265.603665 
L 118.601898 265.662965 
L 118.646476 265.660922 
L 118.728447 265.73896 
L 118.794553 265.662003 
L 118.854995 265.74184 
L 120.564497 265.790577 
L 120.619619 257.371511 
L 120.700155 261.986753 
L 120.755513 264.277604 
L 121.449297 264.35842 
L 121.45996 263.863843 
L 121.477335 264.338246 
L 121.569562 264.358013 
L 121.630968 265.10915 
L 121.675524 265.096048 
L 121.694965 265.115815 
L 122.2502 265.106321 
L 122.288793 264.903603 
L 122.300644 265.121038 
L 122.327332 265.119957 
L 122.52004 265.154728 
L 122.639576 265.606794 
L 122.639576 265.605436 
L 123.330138 265.617921 
L 123.451998 265.756288 
L 125.418022 265.650513 
L 125.471281 265.638568 
L 125.475017 265.697868 
L 131.50802 265.589017 
L 131.586758 265.524375 
L 131.616733 265.662742 
L 131.740755 265.706307 
L 131.89199 265.721425 
L 131.89199 265.717652 
L 131.89199 265.517395 
L 131.993221 265.73483 
L 133.30188 265.734862 
L 133.30188 265.702754 
L 133.30188 265.695801 
L 133.368435 265.735335 
L 133.404245 265.730133 
L 138.525598 265.754699 
L 138.545028 265.560678 
L 138.569458 265.699046 
L 138.914 265.663059 
L 138.946469 265.573456 
L 139.019448 265.698022 
L 139.248843 265.699652 
L 139.248843 265.690302 
L 139.272534 265.710069 
L 139.834171 265.749069 
L 139.834171 265.65837 
L 139.867519 265.569158 
L 139.922705 265.727293 
L 155.123024 265.589623 
L 155.123024 265.262785 
L 155.137637 265.796488 
L 158.355229 265.74687 
L 158.440358 265.641733 
L 158.479112 265.755398 
L 158.63753 265.641073 
L 158.669668 265.119912 
L 158.669807 264.399655 
L 158.712222 265.363668 
L 158.925291 265.350302 
L 158.985552 265.569021 
L 159.21651 265.459478 
L 159.292593 265.413878 
L 159.591777 265.448921 
L 159.591777 265.44407 
L 160.438455 265.311271 
L 160.438455 265.307982 
L 160.536206 265.781344 
L 160.556022 265.772131 
L 160.558977 265.791898 
L 160.671619 265.417543 
L 160.684883 265.615211 
L 161.522569 265.57706 
L 161.582262 265.774728 
L 170.734656 265.65396 
L 170.734656 265.582699 
L 170.799777 265.679182 
L 170.839162 265.674406 
L 171.579162 265.72482 
L 171.673583 265.751681 
L 171.673583 265.750549 
L 171.732688 265.768684 
L 171.732688 265.763114 
L 173.101426 265.664698 
L 173.127814 265.555182 
L 173.185955 265.681368 
L 173.322342 265.743039 
L 173.322342 265.737452 
L 175.154302 265.796822 
L 186.976963 265.690351 
L 186.976963 265.645096 
L 187.08209 265.756461 
L 194.475128 265.769443 
L 194.478607 265.78921 
L 196.241774 265.676463 
L 196.266654 265.594855 
L 196.347608 265.661146 
L 196.743547 265.722805 
L 199.51149 265.76654 
L 202.700049 265.653749 
L 202.700049 265.608811 
L 202.810924 265.737198 
L 209.359595 265.7797 
L 209.414642 263.80836 
L 209.466885 264.591867 
L 210.695179 264.610202 
L 211.080905 264.608189 
L 211.272553 265.794195 
L 211.390151 264.59915 
L 212.046017 264.599344 
L 212.220451 264.836545 
L 212.235107 265.785351 
L 215.663573 265.677947 
L 215.71847 265.655668 
L 215.747407 265.714968 
L 215.758358 265.708535 
L 220.457009 265.777368 
L 222.16848 265.711555 
L 222.16848 265.704024 
L 222.190383 265.679088 
L 222.234982 265.726298 
L 222.262805 265.714936 
L 224.311218 265.64043 
L 224.349993 265.440256 
L 224.372024 265.661644 
L 224.912914 265.54684 
L 224.947311 265.47662 
L 225.018266 265.517798 
L 225.203395 265.698731 
L 233.252597 265.776047 
L 233.291843 265.795814 
L 237.947169 265.784536 
L 237.964651 265.667029 
L 238.025083 265.706178 
L 238.214707 265.665344 
L 238.214707 265.71492 
L 238.218187 265.168437 
L 238.220456 265.710856 
L 238.371103 265.702048 
L 238.37744 265.416217 
L 238.38063 265.712719 
L 239.256888 265.643091 
L 239.27984 264.513543 
L 239.283619 265.652807 
L 239.295106 265.652033 
L 240.018866 265.714089 
L 240.019091 262.215453 
L 240.117537 265.780605 
L 240.13138 265.743504 
L 240.135501 264.021842 
L 240.139248 265.789742 
L 240.226722 265.233242 
L 240.276084 265.794026 
L 240.278033 264.693043 
L 240.278086 263.613488 
L 240.334236 265.797129 
L 240.375966 265.793829 
L 241.541601 265.696447 
L 241.541601 265.6049 
L 241.622866 265.797118 
L 241.649832 265.796709 
L 241.670836 216.379767 
L 241.769273 234.001159 
L 241.788831 236.4466 
L 242.05136 264.609871 
L 242.07034 264.606329 
L 242.753569 264.689342 
L 242.753676 265.785451 
L 242.841428 265.781645 
L 243.389138 265.694863 
L 243.428234 216.378383 
L 243.397745 265.795325 
L 243.495303 223.025293 
L 243.505023 223.286373 
L 243.612388 232.498853 
L 243.622108 232.721198 
L 243.729548 247.887867 
L 243.739268 249.085734 
L 243.768547 252.202962 
L 243.841697 241.964997 
L 243.846547 242.604495 
L 243.856246 242.81331 
L 243.963546 256.48741 
L 243.973288 256.753235 
L 244.080545 265.782212 
L 244.309384 265.674415 
L 244.309384 265.392927 
L 244.382769 265.793969 
L 244.419114 265.777974 
L 244.496311 265.794089 
L 244.499886 265.789735 
L 244.573133 265.672035 
L 244.578946 261.828665 
L 244.681632 265.797604 
L 245.477064 265.688225 
L 245.477064 265.668122 
L 245.48201 265.793839 
L 245.553779 265.781201 
L 245.727881 265.794834 
L 248.022999 265.676846 
L 248.022999 265.401775 
L 248.116864 265.795192 
L 254.01622 265.795562 
L 254.502748 265.684733 
L 254.502748 265.652993 
L 254.508369 265.772079 
L 254.601142 265.755329 
L 254.810828 265.726189 
L 254.810828 265.525188 
L 254.898752 265.765461 
L 254.904511 265.699413 
L 254.923706 265.521478 
L 254.986525 265.777931 
L 255.406273 265.691856 
L 255.406273 265.581375 
L 255.483962 265.792714 
L 255.50093 265.760842 
L 256.329452 265.648803 
L 256.329452 265.574171 
L 256.40075 265.793924 
L 256.430019 265.762293 
L 256.670987 265.79423 
L 256.670987 265.783709 
L 256.708819 265.766377 
L 256.776916 265.793107 
L 257.263177 265.684597 
L 257.263177 265.392575 
L 257.269 265.790725 
L 257.368015 265.649305 
L 257.444569 265.790864 
L 257.867967 265.761463 
L 258.178156 265.31487 
L 258.186185 265.513346 
L 258.196013 265.752032 
L 258.291141 265.726157 
L 258.370007 265.766464 
L 258.370007 264.549197 
L 258.381451 265.776677 
L 258.478988 265.774988 
L 263.211221 265.678858 
L 263.211221 265.458261 
L 263.230106 265.784616 
L 263.232836 265.783574 
L 268.342862 265.792218 
L 268.342862 265.711535 
L 268.342862 265.665025 
L 268.382055 265.78405 
L 268.441106 265.78253 
L 269.440882 265.783542 
L 269.440882 265.486062 
L 269.514824 265.788768 
L 270.208052 265.667932 
L 270.208052 265.513437 
L 270.280185 265.78605 
L 270.298759 265.782859 
L 273.91503 265.662101 
L 273.91503 264.969416 
L 273.979894 265.789782 
L 274.018904 265.788294 
L 274.3383 265.675803 
L 274.3383 265.63564 
L 274.3641 265.797103 
L 274.432357 265.794632 
L 274.826369 265.693081 
L 274.826369 265.538164 
L 274.920159 265.79776 
L 274.934333 265.779166 
L 275.436502 265.787297 
L 275.752161 265.584021 
L 275.870498 265.792801 
L 275.975614 265.768083 
L 275.994188 265.574864 
L 276.01682 265.797342 
L 276.053025 265.780743 
L 276.260549 265.787153 
L 277.088836 265.679526 
L 277.088836 265.550263 
L 277.193599 265.79545 
L 278.165702 265.735224 
L 278.165713 265.225478 
L 278.171066 265.78343 
L 281.305155 265.784373 
L 281.305155 265.715302 
L 281.305155 265.664571 
L 281.342892 265.789537 
L 281.415196 265.78379 
L 281.58084 265.794185 
L 281.58084 265.791102 
L 282.446104 265.687067 
L 282.446104 265.613667 
L 282.455717 265.792314 
L 284.092871 265.796294 
L 284.092871 265.68636 
L 284.092871 265.46113 
L 284.102892 265.797668 
L 284.198459 265.780753 
L 284.43994 265.770849 
L 284.444565 265.790697 
L 284.610434 265.792813 
L 284.610434 265.796622 
L 285.14701 265.797047 
L 285.150318 265.611094 
L 285.254385 265.786102 
L 286.863224 265.626997 
L 286.863234 265.231633 
L 286.875128 265.795541 
L 286.97319 265.671847 
L 287.088915 265.78359 
L 287.088915 265.780696 
L 290.570876 265.665017 
L 290.570876 265.631586 
L 290.619114 265.796939 
L 290.648597 265.790536 
L 294.399156 265.780091 
L 294.454782 265.60805 
L 294.496394 265.790765 
L 295.437858 265.681102 
L 295.437858 265.647244 
L 295.443179 265.78747 
L 295.51484 265.780728 
L 299.807692 265.666117 
L 299.807692 265.641702 
L 299.884621 265.797115 
L 299.914832 265.779978 
L 300.74936 265.660266 
L 300.74936 265.469769 
L 300.763984 265.792653 
L 300.834061 265.790461 
L 301.657916 265.676823 
L 301.657916 265.301405 
L 301.663055 265.782348 
L 301.759778 265.719278 
L 301.916462 265.748558 
L 301.916462 265.746377 
L 301.991528 265.505902 
L 301.991528 265.486486 
L 302.074142 265.577039 
L 302.260555 265.67341 
L 302.276977 265.693177 
L 302.577541 265.599271 
L 302.577541 265.439748 
L 302.669254 265.710395 
L 302.678322 265.681361 
L 302.805834 265.701955 
L 303.503065 265.597758 
L 303.551786 265.39794 
L 303.555329 265.714208 
L 303.611382 265.619028 
L 303.744729 265.557984 
L 303.803073 265.389287 
L 303.854802 265.453025 
L 303.95813 265.483797 
L 304.072571 265.598365 
L 304.072571 265.594938 
L 304.958934 265.751281 
L 304.958934 265.749331 
L 306.281072 265.638098 
L 306.373695 265.582049 
L 306.469337 265.672597 
L 306.508529 265.630989 
L 306.508529 265.533424 
L 306.527703 265.671792 
L 306.589334 265.623042 
L 306.696281 265.493481 
L 306.733878 265.530315 
L 306.849089 265.569103 
L 306.849089 265.56616 
L 307.279682 265.454474 
L 307.322535 265.419646 
L 307.345809 265.538247 
L 307.387753 265.520212 
L 307.434032 265.616232 
L 307.474434 265.655722 
L 307.52279 265.638979 
L 309.325525 265.707022 
L 309.483601 265.747475 
L 309.992246 265.635915 
L 310.080769 265.522363 
L 310.092995 265.54213 
L 310.366432 265.698801 
L 310.404864 265.656432 
L 311.90454 265.738098 
L 311.929805 265.757865 
L 312.775895 265.647616 
L 312.793826 265.401058 
L 312.86719 265.697559 
L 312.995794 265.586224 
L 313.103972 265.510592 
L 313.253344 265.458066 
L 313.330766 265.258252 
L 313.67989 265.147028 
L 313.761294 265.046438 
L 313.784567 265.362706 
L 314.29438 265.334328 
L 314.620187 265.227146 
L 314.695104 264.921024 
L 314.727712 265.012093 
L 314.766669 265.11012 
L 314.841318 265.088191 
L 315.091535 265.15727 
L 315.214829 265.413385 
L 315.554212 265.381532 
L 315.766392 265.756402 
L 315.766392 265.712263 
L 315.766392 265.614318 
L 315.778104 265.752686 
L 315.863009 265.739153 
L 316.547051 265.627315 
L 316.547051 265.604946 
L 316.559576 265.743314 
L 316.614131 265.738837 
L 322.571243 265.685015 
L 322.571243 265.487623 
L 322.599827 265.714851 
L 326.805954 265.646429 
L 326.805954 263.894755 
L 326.904497 265.512344 
L 327.716137 265.519572 
L 327.834785 265.794324 
L 327.867148 265.710757 
L 327.944954 265.788153 
L 328.471917 265.677555 
L 328.471927 265.494353 
L 328.552089 265.791249 
L 328.566724 265.780614 
L 329.418423 265.652004 
L 329.418434 265.484606 
L 329.494389 265.789814 
L 329.522704 265.788997 
L 332.197854 265.668891 
L 332.197854 265.464533 
L 332.198367 265.783684 
L 332.295979 265.783065 
L 332.337067 265.760628 
L 332.337067 265.642227 
L 332.383774 265.785595 
L 333.37535 265.682943 
L 333.451294 265.608236 
L 333.474001 265.726836 
L 334.182055 265.736087 
L 334.199623 264.778326 
L 334.260098 265.722256 
L 334.297288 265.649794 
L 334.297288 265.577456 
L 334.338226 265.759311 
L 339.031309 265.634621 
L 339.031309 265.605331 
L 339.073617 265.755766 
L 339.141982 265.755428 
L 339.149689 265.73699 
L 339.171336 265.757536 
L 339.677273 265.647405 
L 339.677273 265.607693 
L 339.679424 265.729144 
L 339.772818 265.682939 
L 340.507358 265.567478 
L 340.507358 265.421789 
L 340.509135 265.776249 
L 340.617913 265.763244 
L 340.735576 265.789221 
L 340.735576 265.776069 
L 340.890322 265.79631 
L 340.890322 265.793146 
L 341.43695 265.684396 
L 341.43695 265.578493 
L 341.477823 265.772121 
L 341.542891 265.768683 
L 341.620141 265.785887 
L 341.620141 265.784909 
L 342.366253 265.697867 
L 342.366253 265.408917 
L 342.36696 265.794671 
L 342.463533 265.781845 
L 342.685509 265.782771 
L 345.570441 265.676619 
L 345.570441 265.479326 
L 345.573257 265.783728 
L 345.628433 265.782798 
L 345.705725 265.708589 
L 345.705725 265.609447 
L 345.719707 265.797795 
L 345.744201 265.793175 
L 347.035763 265.767011 
L 347.035763 265.727963 
L 347.035763 265.669392 
L 347.050109 265.788332 
L 347.139948 265.785447 
L 347.170684 265.595822 
L 347.175405 265.793485 
L 347.249636 265.778013 
L 347.326351 265.705491 
L 347.33271 265.797072 
L 348.910738 265.686088 
L 348.973696 265.388409 
L 348.978289 265.791437 
L 349.011958 265.790369 
L 352.991066 265.739025 
L 352.991066 262.797916 
L 353.000958 265.777608 
L 353.029863 265.776567 
L 355.459644 265.693939 
L 355.459644 265.635112 
L 355.471442 265.793246 
L 355.536927 265.791081 
L 355.767842 265.695223 
L 355.767842 265.493378 
L 355.769298 265.791751 
L 358.111884 265.680397 
L 358.126925 265.260212 
L 358.238978 265.359045 
L 358.250026 265.57648 
L 358.426344 265.470451 
L 358.477516 264.516885 
L 358.519824 265.247175 
L 358.550687 265.214771 
L 358.659882 265.658941 
L 358.659882 265.65595 
L 359.012165 265.541316 
L 359.042782 265.516981 
L 359.095024 265.65536 
L 359.120664 265.642758 
L 359.279382 265.615561 
L 359.315845 265.754967 
L 359.37239 265.744585 
L 359.40077 265.684461 
L 359.469499 265.750391 
L 359.934145 265.636372 
L 359.969505 265.564589 
L 360.024906 265.755896 
L 360.894644 265.645372 
L 360.92357 265.72444 
L 361.01615 265.670561 
L 361.126694 265.698712 
L 361.245417 265.590354 
L 361.245417 265.473623 
L 361.353006 265.736819 
L 362.742116 265.616547 
L 363.089142 265.68932 
L 364.898974 265.658227 
L 364.963539 265.074123 
L 365.005675 265.09389 
L 365.033102 265.197847 
L 365.088053 265.73155 
L 365.171684 265.715227 
L 368.375754 265.61635 
L 368.375754 265.546024 
L 368.478858 265.777178 
L 371.042211 265.631932 
L 371.151063 265.089747 
L 371.192225 265.007967 
L 371.2788 265.616941 
L 371.327638 265.598098 
L 371.422231 265.617582 
L 371.422231 265.606425 
L 371.527925 265.505228 
L 372.106284 265.500463 
L 372.145144 265.697772 
L 372.225349 265.659604 
L 372.377451 265.676661 
L 372.432284 265.775156 
L 372.432284 265.775152 
L 372.558148 265.77489 
L 373.265325 265.700625 
L 373.28043 265.492493 
L 373.329814 265.749461 
L 373.339834 265.737029 
L 373.45511 265.756337 
L 373.45511 265.751082 
L 377.083606 265.710175 
L 377.083606 265.612326 
L 377.094729 265.790227 
L 377.180908 265.773575 
L 377.207821 265.793342 
L 377.708812 265.689012 
L 377.769297 265.572273 
L 377.786908 265.76994 
L 380.553353 265.660643 
L 380.648299 265.619921 
L 381.458022 265.616824 
L 381.651019 265.791386 
L 383.976884 265.648375 
L 384.054787 265.553641 
L 384.068265 265.573408 
L 384.134735 265.571448 
L 384.142625 265.788883 
L 384.213869 265.783612 
L 384.585378 265.681494 
L 384.585378 265.628443 
L 384.626797 265.786577 
L 384.917727 265.681351 
L 384.983929 265.512475 
L 385.00352 265.769444 
L 385.836946 265.660602 
L 385.836956 265.456198 
L 385.92488 265.766451 
L 385.941762 265.757673 
L 386.142649 265.771011 
L 390.496211 265.650871 
L 390.597719 265.577959 
L 390.661545 265.604192 
L 390.769755 265.757729 
L 390.769755 265.741372 
L 394.362988 265.634202 
L 394.362988 265.620761 
L 394.407801 265.778895 
L 394.461735 265.739742 
L 397.437695 265.628505 
L 397.457125 265.354508 
L 397.939692 265.441967 
L 398.037957 265.793608 
L 398.074087 265.782022 
L 398.487273 265.753922 
L 398.487273 265.753922 
" style="fill:none;stroke:#ff0000;stroke-linecap:square;stroke-width:1.5;"/>
   </g>
   <g id="line2d_29">
    <path clip-path="url(#p7c777f2678)" d="M 73.832727 265.797818 
L 76.607565 265.659451 
L 76.607565 261.290993 
L 77.532511 261.093325 
L 77.532511 257.891107 
L 78.457457 257.75274 
L 78.457457 256.329532 
L 79.382403 256.131864 
L 79.382403 245.991508 
L 79.382403 246.327543 
L 80.00308 246.129875 
L 80.024127 230.316454 
L 80.2286 230.118786 
L 80.307349 219.40909 
L 80.307349 219.707589 
L 80.488902 219.513425 
L 80.567201 218.335663 
L 81.232295 218.039161 
L 81.232295 216.813621 
L 82.157241 216.457819 
L 82.157241 216.438052 
L 82.157241 216.438311 
L 83.082187 216.339477 
L 83.082187 216.161576 
L 83.082187 216.459808 
L 86.78197 216.281907 
L 86.78197 216.26214 
L 86.78197 216.459808 
L 88.631862 216.400508 
L 88.631862 216.222607 
L 88.631862 216.420274 
L 92.331646 216.222607 
L 92.331646 216.242373 
L 92.331646 216.440041 
L 106.205835 216.327559 
L 106.205835 216.33098 
L 106.205835 216.530212 
L 107.130781 216.431378 
L 107.130781 216.194177 
L 107.130781 216.295249 
L 108.055727 216.176648 
L 108.055727 216.156881 
L 108.055727 216.286795 
L 108.980673 216.168194 
L 108.980673 216.148427 
L 108.980673 216.194097 
L 111.755511 216.059144 
L 111.755511 215.940543 
L 111.755511 216.218884 
L 112.680456 216.100283 
L 112.680456 216.06075 
L 112.680456 216.109163 
L 113.605402 215.990562 
L 113.605402 215.654527 
L 113.605402 215.886086 
L 114.530348 215.767486 
L 114.530348 215.708185 
L 114.530348 215.753677 
L 115.455294 215.635077 
L 115.455294 215.556009 
L 115.455294 215.718018 
L 118.230132 215.563023 
L 118.230132 215.345589 
L 118.230132 215.460266 
L 120.080024 215.329463 
L 120.080024 212.443513 
L 120.080024 212.454888 
L 120.687159 212.25722 
L 120.70129 208.363165 
L 121.00497 208.284098 
L 121.00497 207.058558 
L 121.00497 207.575411 
L 121.929916 207.476577 
L 121.929916 206.962641 
L 121.929916 207.168918 
L 123.779808 206.913861 
L 124.704754 206.79526 
L 124.704754 206.73596 
L 124.704754 206.922618 
L 126.554646 206.772473 
L 126.554646 206.868848 
L 126.554646 206.888615 
L 127.479591 206.770014 
L 127.479591 206.750247 
L 127.479591 206.79767 
L 127.479591 206.79767 
L 128.404537 206.679069 
L 128.404537 206.659303 
L 128.404537 206.697024 
L 131.179375 206.53908 
L 131.179375 206.203045 
L 131.179375 206.443855 
L 133.029267 206.299644 
L 133.029267 206.240344 
L 133.029267 206.246479 
L 134.879159 206.09683 
L 134.879159 206.077063 
L 134.879159 206.104559 
L 137.653997 205.967076 
L 137.653997 205.828708 
L 137.653997 206.072266 
L 138.578943 205.953666 
L 138.578943 205.854832 
L 138.578943 205.960727 
L 139.503889 205.842127 
L 139.503889 205.743293 
L 139.503889 205.823185 
L 141.35378 205.68532 
L 141.35378 205.62602 
L 141.35378 205.675043 
L 145.053564 205.499415 
L 145.053564 205.479648 
L 145.053564 205.485048 
L 154.303024 205.248346 
L 154.303024 204.714643 
L 154.303024 205.229204 
L 158.002807 205.172707 
L 158.002807 205.15294 
L 158.002807 204.876205 
L 158.002807 205.013501 
L 158.63753 205.128057 
L 158.669668 205.68827 
L 158.669807 206.389241 
L 158.670085 205.59857 
L 158.927753 205.336559 
L 158.927753 205.367119 
L 159.852699 205.248519 
L 159.852699 204.655515 
L 159.852699 205.079194 
L 160.777645 205.039661 
L 160.777645 204.841993 
L 160.777645 204.860775 
L 163.552483 204.824638 
L 163.552483 204.765338 
L 163.552483 204.706038 
L 163.552483 204.739278 
L 165.402375 204.601813 
L 165.402375 204.582046 
L 165.402375 204.607525 
L 169.102158 204.479322 
L 169.102158 204.483045 
L 170.027104 204.285377 
L 170.027104 204.107476 
L 170.027104 204.264281 
L 172.801942 204.094545 
L 172.801942 203.896877 
L 172.801942 203.976398 
L 179.276564 203.738615 
L 179.276564 203.699082 
L 179.276564 203.743784 
L 185.751185 203.513241 
L 185.751185 203.493475 
L 185.751185 203.552194 
L 186.676131 203.433593 
L 186.676131 203.413826 
L 186.676131 203.442031 
L 189.450969 203.286923 
L 189.450969 203.247389 
L 189.450969 203.284584 
L 191.300861 203.138747 
L 191.300861 203.11898 
L 191.300861 203.147429 
L 195.925591 202.947125 
L 195.925591 202.769224 
L 195.925591 202.874463 
L 196.850536 202.755863 
L 196.850536 202.736096 
L 196.850536 202.779123 
L 198.700428 202.663905 
L 198.700428 202.584838 
L 198.700428 202.643897 
L 202.400212 202.471631 
L 202.400212 202.41233 
L 202.400212 202.470432 
L 205.17505 202.337774 
L 205.17505 202.278474 
L 205.17505 202.327548 
L 208.874834 202.233346 
L 208.874834 201.422909 
L 208.874834 201.556816 
L 210.724725 201.508428 
L 210.724725 201.508804 
L 210.724725 202.69481 
L 211.649671 202.675043 
L 211.649671 201.489037 
L 211.649671 201.508139 
L 215.349455 201.33101 
L 215.349455 201.311244 
L 215.349455 201.368817 
L 218.124293 201.206543 
L 218.124293 201.087943 
L 218.124293 201.116621 
L 221.824077 200.958456 
L 221.824077 200.918923 
L 221.824077 200.983137 
L 223.673969 200.845788 
L 223.673969 200.806255 
L 223.673969 201.033527 
L 224.598914 200.796325 
L 224.598914 200.519591 
L 224.598914 200.738452 
L 225.52386 200.706268 
L 225.52386 200.666734 
L 225.52386 200.548133 
L 225.52386 200.689889 
L 226.448806 200.551637 
L 226.448806 200.53187 
L 226.448806 200.535349 
L 229.223644 200.377642 
L 229.223644 200.298575 
L 229.223644 200.344917 
L 231.073536 200.194477 
L 231.073536 200.154943 
L 231.073536 200.167784 
L 237.548158 199.981142 
L 237.548158 199.68464 
L 237.634625 199.828282 
L 238.214108 199.884251 
L 238.214707 199.820416 
L 238.217544 200.354945 
L 238.220456 199.882109 
L 238.473104 200.169237 
L 238.473104 200.169237 
L 239.083418 200.212403 
L 239.278427 200.401344 
L 239.27984 201.34195 
L 239.283619 200.269822 
L 240.018866 200.208946 
L 240.019091 203.707583 
L 240.117537 200.640847 
L 240.13139 200.771218 
L 240.135501 202.430578 
L 240.1323 200.670793 
L 240.226722 201.287363 
L 240.276084 200.75366 
L 240.278033 201.801494 
L 240.278086 202.934198 
L 240.334236 200.836909 
L 240.375966 200.84712 
L 241.247941 200.412251 
L 241.247941 198.890209 
L 241.247941 198.917651 
L 241.545005 198.801318 
L 241.622866 198.722882 
L 241.671757 198.624627 
L 241.779004 180.321881 
L 241.788714 180.105126 
L 241.895821 168.232332 
L 241.905499 168.008821 
L 242.002586 153.239352 
L 242.172887 153.259848 
L 242.753569 153.127731 
L 242.841428 151.99679 
L 242.909739 151.974607 
L 243.097833 150.7886 
L 243.173295 150.855728 
L 243.397702 150.737359 
L 243.505056 143.323369 
L 243.514776 143.066401 
L 243.62214 134.096472 
L 243.641635 132.777738 
L 243.758795 115.896508 
L 243.768515 115.660056 
L 243.875794 103.145356 
L 243.914783 98.559848 
L 244.022779 87.878715 
L 244.022779 88.036485 
L 244.080545 84.582208 
L 244.314522 84.542957 
L 244.421791 84.11576 
L 244.578046 84.018413 
L 244.681632 80.324982 
L 244.947725 80.285505 
L 244.947725 80.381737 
L 244.947725 80.505578 
L 245.481978 80.329224 
L 245.501515 80.230447 
L 245.618536 80.12432 
L 245.657525 80.084787 
L 246.797617 80.016889 
L 248.029015 79.858241 
L 248.13638 79.585767 
L 248.292614 79.364985 
L 249.932306 78.994147 
L 250.01037 78.856066 
L 251.422347 78.756273 
L 251.422347 78.89322 
L 251.422347 78.921126 
L 251.922781 78.819689 
L 252.098339 78.542765 
L 254.197184 78.498893 
L 254.197184 78.633126 
L 254.197184 79.148061 
L 254.79143 78.917112 
L 254.928031 78.257304 
L 256.972022 77.639008 
L 256.972022 77.676579 
L 256.972022 77.832177 
L 257.034852 77.827265 
L 257.269 77.630162 
L 257.376333 77.2534 
L 257.52274 77.141692 
L 257.896968 77.121925 
L 257.896968 77.209978 
L 257.896968 78.692486 
L 258.186185 78.495974 
L 258.264217 78.240453 
L 258.303281 78.201275 
L 258.371592 77.808874 
L 258.478988 76.966424 
L 259.679148 76.850661 
L 259.679148 76.831205 
L 259.74686 76.846434 
L 261.152007 76.685564 
L 261.288533 76.607051 
L 262.010365 76.440377 
L 262.521698 76.30434 
L 262.521698 76.309436 
L 262.521698 76.6508 
L 262.537467 76.637383 
L 263.2203 76.530303 
L 263.230106 76.238014 
L 264.664446 76.156573 
L 264.74251 76.117153 
L 268.071373 76.004501 
L 268.071373 76.168204 
L 268.071373 76.284479 
L 268.071373 76.284479 
L 268.382055 76.167404 
L 268.557623 76.122682 
L 268.908899 75.986024 
L 268.98692 75.949717 
L 268.996319 75.960096 
L 268.996319 76.298226 
L 269.446503 76.198793 
L 269.514824 75.94545 
L 269.921265 75.843535 
L 269.921265 75.889172 
L 270.377882 75.595477 
L 273.621049 75.401665 
L 273.621049 75.437825 
L 273.621049 75.754944 
L 273.921218 75.715642 
L 274.018904 74.717296 
L 274.09715 74.625883 
L 274.3641 74.216205 
L 274.8323 74.098204 
L 274.920159 73.962226 
L 275.17377 73.746059 
L 275.368886 73.64919 
L 275.470941 73.64919 
L 275.470941 73.649799 
L 275.470941 74.149433 
L 275.997304 73.716562 
L 276.094819 73.502223 
L 276.395887 73.445874 
L 276.395887 73.488322 
L 276.395887 73.728888 
L 276.395887 73.728888 
L 276.802745 73.580944 
L 276.910099 73.509461 
L 277.095741 73.375208 
L 277.193599 73.198986 
L 277.320833 73.265592 
L 277.320833 73.760913 
L 278.171012 73.595546 
L 278.245779 73.069803 
L 278.245779 73.070069 
L 280.62062 72.931133 
L 280.893865 72.773575 
L 281.36245 72.653886 
L 281.450395 72.607175 
L 281.945562 72.542523 
L 281.945562 72.653845 
L 281.945562 72.739081 
L 282.455706 72.643669 
L 282.455717 72.52583 
L 283.187934 72.424263 
L 283.383254 72.366189 
L 283.795454 72.247981 
L 283.795454 72.266766 
L 283.795454 72.443799 
L 284.093053 72.317392 
L 284.171203 72.096453 
L 284.7204 71.886515 
L 284.7204 71.891648 
L 284.7204 72.090287 
L 285.14701 72.085319 
L 285.254385 71.90712 
L 286.865204 71.952772 
L 286.962912 71.350979 
L 287.050697 71.214569 
L 289.062304 70.873574 
L 289.101368 70.834397 
L 290.785144 70.737393 
L 291.605135 70.612652 
L 293.479884 70.504023 
L 293.871541 70.425018 
L 293.96986 70.43372 
L 293.96986 70.62135 
L 293.988583 70.618088 
L 294.457319 70.474594 
L 294.496394 70.374844 
L 294.894805 70.340222 
L 294.894805 70.376409 
L 294.894805 70.47687 
L 294.945292 70.476457 
L 295.443136 70.376102 
L 295.482125 70.28411 
L 295.819751 70.243236 
L 295.819751 70.259575 
L 296.744697 70.186783 
L 296.744697 70.068182 
L 296.744697 70.194726 
L 299.519535 70.011572 
L 299.519535 70.049855 
L 299.519535 70.231586 
L 300.353507 69.844718 
L 300.444481 69.726361 
L 300.444481 69.879236 
L 300.754242 69.681568 
L 300.822521 69.524089 
L 301.369427 69.361152 
L 301.369427 69.163484 
L 301.369427 69.607249 
L 301.663022 69.488826 
L 301.663055 69.133024 
L 301.936824 69.03039 
L 302.581352 68.705765 
L 302.669254 68.610663 
L 302.864296 68.498549 
L 303.219319 68.043914 
L 303.219319 67.786946 
L 303.219319 68.070944 
L 304.144265 68.051178 
L 304.144265 67.91281 
L 304.144265 67.914879 
L 305.994157 67.739456 
L 305.994157 67.462721 
L 305.994157 67.707544 
L 306.919103 67.628477 
L 306.919103 67.312208 
L 306.919103 67.357166 
L 307.844049 67.258332 
L 307.844049 67.119965 
L 307.844049 67.292726 
L 308.768994 67.213659 
L 308.768994 67.075291 
L 308.768994 67.087524 
L 309.69394 67.008457 
L 309.69394 66.830556 
L 309.69394 66.9049 
L 311.543832 66.76505 
L 311.543832 66.745283 
L 311.543832 66.745999 
L 312.468778 66.429731 
L 312.468778 66.409964 
L 312.468778 66.671625 
L 313.393724 66.315823 
L 313.393724 66.341774 
L 314.31867 66.144106 
L 314.31867 65.729004 
L 314.31867 65.820518 
L 315.243616 65.603084 
L 315.243616 65.168215 
L 315.243616 65.334157 
L 317.093508 65.100301 
L 317.093508 65.100561 
L 318.9434 64.982701 
L 318.9434 64.883867 
L 318.9434 64.966004 
L 321.718238 64.512013 
L 321.718238 64.432946 
L 321.718238 64.699206 
L 322.590031 64.595684 
L 322.643183 64.418107 
L 322.643183 64.575862 
L 323.009822 64.440005 
L 323.568129 64.343337 
L 323.568129 64.349307 
L 326.342967 64.262995 
L 326.342967 62.859554 
L 326.342967 64.719762 
L 326.652664 64.601924 
L 326.750265 64.562747 
L 326.808984 64.427317 
L 326.838359 64.263614 
L 327.267913 64.163575 
L 327.267913 64.268619 
L 327.737152 64.184326 
L 327.834785 63.931017 
L 328.478961 63.828116 
L 328.566724 63.710094 
L 329.426013 63.456793 
L 329.494389 63.378316 
L 329.796944 63.180163 
L 330.042751 63.084083 
L 330.042751 63.085167 
L 331.892643 63.028282 
L 331.892643 63.059118 
L 331.892643 63.244356 
L 332.198335 63.144655 
L 332.295979 62.75969 
L 332.530224 62.4853 
L 332.817589 62.426 
L 332.817589 62.228332 
L 332.817589 62.472768 
L 333.742535 62.257249 
L 333.742535 62.217716 
L 333.742535 63.32191 
L 334.182055 63.259732 
L 334.338226 62.330952 
L 334.667481 62.238843 
L 334.667481 62.219076 
L 334.667481 62.276519 
L 335.954751 62.140244 
L 338.367264 61.964488 
L 338.367264 61.70752 
L 338.367264 61.992155 
L 338.819353 61.880417 
L 339.141982 61.748634 
L 339.29221 61.650283 
L 339.29221 61.715181 
L 339.601403 61.663576 
L 339.864767 61.487426 
L 340.217156 61.412771 
L 340.217156 61.552747 
L 340.217156 61.567962 
L 340.509124 61.450836 
L 340.596919 61.107526 
L 342.36696 60.575516 
L 342.36696 60.382438 
L 342.923512 60.337916 
L 342.991994 60.337916 
L 342.991994 60.435748 
L 342.991994 60.452239 
L 343.882083 60.349638 
L 343.91694 60.329871 
L 343.91694 60.33673 
L 344.841886 60.236827 
L 344.841886 60.39774 
L 344.841886 60.614609 
L 345.563547 60.445915 
L 345.573257 60.159714 
L 345.856254 60.016081 
L 346.691778 59.81766 
L 346.691778 59.822323 
L 346.691778 60.141269 
L 346.783823 60.138417 
L 346.98957 60.111601 
L 347.175405 59.79231 
L 347.410838 59.703182 
L 348.177686 59.596052 
L 348.54167 59.576529 
L 348.54167 59.609223 
L 348.54167 60.206348 
L 348.91972 60.049555 
L 348.978289 59.578446 
L 350.204881 59.472707 
L 351.316507 59.453031 
L 351.316507 59.334431 
L 351.316507 59.526814 
L 351.876796 59.420915 
L 352.241453 59.396755 
L 352.241453 59.423631 
L 352.241453 62.302816 
L 352.991184 62.235539 
L 353.000958 59.502457 
L 355.016291 59.217792 
L 355.016291 59.366536 
L 355.016291 59.530447 
L 355.628233 59.526611 
L 355.941237 59.232573 
L 355.941237 59.232766 
L 357.791129 59.19324 
L 357.791129 58.165367 
L 357.791129 58.978718 
L 358.716075 58.800817 
L 358.716075 58.286881 
L 358.716075 58.401645 
L 359.641021 58.12491 
L 359.641021 58.026076 
L 359.641021 58.090321 
L 360.565967 57.971721 
L 360.565967 57.596152 
L 360.565967 57.891808 
L 361.490913 57.792974 
L 361.490913 57.63484 
L 361.490913 57.828904 
L 364.265751 57.439838 
L 364.265751 56.827068 
L 364.265751 57.446692 
L 365.190696 57.308325 
L 365.190696 57.323188 
L 366.115642 57.105754 
L 366.115642 57.00692 
L 366.115642 57.082819 
L 367.965534 56.956262 
L 367.965534 56.699294 
L 367.965534 56.874145 
L 370.740372 56.800675 
L 370.740372 55.990237 
L 370.740372 56.220501 
L 371.665318 56.200734 
L 371.665318 55.844932 
L 371.665318 55.903012 
L 372.590264 55.823945 
L 372.590264 55.54721 
L 372.590264 55.797823 
L 373.51521 55.679222 
L 373.51521 55.540855 
L 373.51521 55.627355 
L 374.440156 55.508754 
L 374.440156 55.40992 
L 374.440156 55.511637 
L 376.290048 55.472334 
L 376.290048 55.274667 
L 376.290048 55.4865 
L 377.214994 55.427199 
L 377.214994 55.170231 
L 377.214994 55.402317 
L 378.13994 55.32325 
L 378.13994 55.165115 
L 378.13994 55.288999 
L 379.989831 55.131234 
L 379.989831 55.270526 
L 379.989831 55.306132 
L 380.914777 55.266599 
L 380.914777 54.989864 
L 380.914777 55.059635 
L 382.764669 55.041843 
L 382.764669 55.042072 
L 383.689615 54.804871 
L 383.689615 54.528136 
L 383.689615 54.761571 
L 384.614561 54.58367 
L 384.614561 54.188335 
L 384.614561 54.257422 
L 385.539507 54.119055 
L 385.539507 53.763253 
L 385.539507 53.866111 
L 386.464453 53.74751 
L 386.464453 53.62891 
L 386.464453 53.688537 
L 388.314345 53.574452 
L 388.314345 53.534919 
L 388.314345 53.572278 
L 390.164237 53.43465 
L 390.164237 53.098615 
L 390.164237 53.186382 
L 391.089183 53.087548 
L 391.089183 52.751513 
L 391.089183 52.851343 
L 392.014129 52.712975 
L 392.014129 52.673442 
L 392.014129 52.7362 
L 392.939074 52.657133 
L 392.939074 52.558299 
L 392.939074 52.617952 
L 393.86402 52.519118 
L 393.86402 52.281917 
L 393.86402 52.365179 
L 394.788966 52.305879 
L 394.788966 52.312316 
L 395.713912 52.154182 
L 395.713912 52.264425 
L 395.713912 52.287111 
L 395.713912 52.287111 
L 397.563804 52.245019 
L 397.563804 52.318877 
L 397.563804 52.321305 
L 397.563804 52.321305 
" style="fill:none;stroke:#008000;stroke-linecap:square;stroke-width:1.5;"/>
   </g>
   <g id="line2d_30">
    <defs>
     <path d="M 0 3 
C 0.795609 3 1.55874 2.683901 2.12132 2.12132 
C 2.683901 1.55874 3 0.795609 3 0 
C 3 -0.795609 2.683901 -1.55874 2.12132 -2.12132 
C 1.55874 -2.683901 0.795609 -3 0 -3 
C -0.795609 -3 -1.55874 -2.683901 -2.12132 -2.12132 
C -2.683901 -1.55874 -3 -0.795609 -3 0 
C -3 0.795609 -2.683901 1.55874 -2.12132 2.12132 
C -1.55874 2.683901 -0.795609 3 0 3 
z
" id="m6576248334" style="stroke:#bfbf00;"/>
    </defs>
    <g clip-path="url(#p7c777f2678)">
     <use style="fill:#bfbf00;stroke:#bfbf00;" x="76.639981" xlink:href="#m6576248334" y="255.91443"/>
     <use style="fill:#bfbf00;stroke:#bfbf00;" x="79.785729" xlink:href="#m6576248334" y="226.264264"/>
     <use style="fill:#bfbf00;stroke:#bfbf00;" x="241.670836" xlink:href="#m6576248334" y="216.380876"/>
     <use style="fill:#bfbf00;stroke:#bfbf00;" x="243.428234" xlink:href="#m6576248334" y="216.380876"/>
     <use style="fill:#bfbf00;stroke:#bfbf00;" x="243.77678" xlink:href="#m6576248334" y="255.91443"/>
     <use style="fill:#bfbf00;stroke:#bfbf00;" x="243.841697" xlink:href="#m6576248334" y="255.91443"/>
     <use style="fill:#bfbf00;stroke:#bfbf00;" x="244.578946" xlink:href="#m6576248334" y="261.844463"/>
    </g>
   </g>
   <g id="line2d_31">
    <defs>
     <path d="M 0 3 
C 0.795609 3 1.55874 2.683901 2.12132 2.12132 
C 2.683901 1.55874 3 0.795609 3 0 
C 3 -0.795609 2.683901 -1.55874 2.12132 -2.12132 
C 1.55874 -2.683901 0.795609 -3 0 -3 
C -0.795609 -3 -1.55874 -2.683901 -2.12132 -2.12132 
C -2.683901 -1.55874 -3 -0.795609 -3 0 
C -3 0.795609 -2.683901 1.55874 -2.12132 2.12132 
C -1.55874 2.683901 -0.795609 3 0 3 
z
" id="m74deab3ec8" style="stroke:#008000;"/>
    </defs>
    <g clip-path="url(#p7c777f2678)">
     <use style="fill:#008000;stroke:#008000;" x="120.619619" xlink:href="#m74deab3ec8" y="257.378753"/>
     <use style="fill:#008000;stroke:#008000;" x="209.414642" xlink:href="#m74deab3ec8" y="263.826478"/>
    </g>
   </g>
   <g id="patch_3">
    <path d="M 57.6 276.48 
L 57.6 41.472 
" style="fill:none;stroke:#000000;stroke-linecap:square;stroke-linejoin:miter;stroke-width:0.8;"/>
   </g>
   <g id="patch_4">
    <path d="M 414.72 276.48 
L 414.72 41.472 
" style="fill:none;stroke:#000000;stroke-linecap:square;stroke-linejoin:miter;stroke-width:0.8;"/>
   </g>
   <g id="patch_5">
    <path d="M 57.6 276.48 
L 414.72 276.48 
" style="fill:none;stroke:#000000;stroke-linecap:square;stroke-linejoin:miter;stroke-width:0.8;"/>
   </g>
   <g id="patch_6">
    <path d="M 57.6 41.472 
L 414.72 41.472 
" style="fill:none;stroke:#000000;stroke-linecap:square;stroke-linejoin:miter;stroke-width:0.8;"/>
   </g>
   <g id="text_16">
    <!-- My Bondora earnings -->
    <defs>
     <path d="M 9.8125 72.90625 
L 24.515625 72.90625 
L 43.109375 23.296875 
L 61.8125 72.90625 
L 76.515625 72.90625 
L 76.515625 0 
L 66.890625 0 
L 66.890625 64.015625 
L 48.09375 14.015625 
L 38.1875 14.015625 
L 19.390625 64.015625 
L 19.390625 0 
L 9.8125 0 
z
" id="DejaVuSans-4d"/>
     <path d="M 32.171875 -5.078125 
Q 28.375 -14.84375 24.75 -17.8125 
Q 21.140625 -20.796875 15.09375 -20.796875 
L 7.90625 -20.796875 
L 7.90625 -13.28125 
L 13.1875 -13.28125 
Q 16.890625 -13.28125 18.9375 -11.515625 
Q 21 -9.765625 23.484375 -3.21875 
L 25.09375 0.875 
L 2.984375 54.6875 
L 12.5 54.6875 
L 29.59375 11.921875 
L 46.6875 54.6875 
L 56.203125 54.6875 
z
" id="DejaVuSans-79"/>
     <path id="DejaVuSans-20"/>
     <path d="M 19.671875 34.8125 
L 19.671875 8.109375 
L 35.5 8.109375 
Q 43.453125 8.109375 47.28125 11.40625 
Q 51.125 14.703125 51.125 21.484375 
Q 51.125 28.328125 47.28125 31.5625 
Q 43.453125 34.8125 35.5 34.8125 
z
M 19.671875 64.796875 
L 19.671875 42.828125 
L 34.28125 42.828125 
Q 41.5 42.828125 45.03125 45.53125 
Q 48.578125 48.25 48.578125 53.8125 
Q 48.578125 59.328125 45.03125 62.0625 
Q 41.5 64.796875 34.28125 64.796875 
z
M 9.8125 72.90625 
L 35.015625 72.90625 
Q 46.296875 72.90625 52.390625 68.21875 
Q 58.5 63.53125 58.5 54.890625 
Q 58.5 48.1875 55.375 44.234375 
Q 52.25 40.28125 46.1875 39.3125 
Q 53.46875 37.75 57.5 32.78125 
Q 61.53125 27.828125 61.53125 20.40625 
Q 61.53125 10.640625 54.890625 5.3125 
Q 48.25 0 35.984375 0 
L 9.8125 0 
z
" id="DejaVuSans-42"/>
     <path d="M 30.609375 48.390625 
Q 23.390625 48.390625 19.1875 42.75 
Q 14.984375 37.109375 14.984375 27.296875 
Q 14.984375 17.484375 19.15625 11.84375 
Q 23.34375 6.203125 30.609375 6.203125 
Q 37.796875 6.203125 41.984375 11.859375 
Q 46.1875 17.53125 46.1875 27.296875 
Q 46.1875 37.015625 41.984375 42.703125 
Q 37.796875 48.390625 30.609375 48.390625 
z
M 30.609375 56 
Q 42.328125 56 49.015625 48.375 
Q 55.71875 40.765625 55.71875 27.296875 
Q 55.71875 13.875 49.015625 6.21875 
Q 42.328125 -1.421875 30.609375 -1.421875 
Q 18.84375 -1.421875 12.171875 6.21875 
Q 5.515625 13.875 5.515625 27.296875 
Q 5.515625 40.765625 12.171875 48.375 
Q 18.84375 56 30.609375 56 
z
" id="DejaVuSans-6f"/>
     <path d="M 54.890625 33.015625 
L 54.890625 0 
L 45.90625 0 
L 45.90625 32.71875 
Q 45.90625 40.484375 42.875 44.328125 
Q 39.84375 48.1875 33.796875 48.1875 
Q 26.515625 48.1875 22.3125 43.546875 
Q 18.109375 38.921875 18.109375 30.90625 
L 18.109375 0 
L 9.078125 0 
L 9.078125 54.6875 
L 18.109375 54.6875 
L 18.109375 46.1875 
Q 21.34375 51.125 25.703125 53.5625 
Q 30.078125 56 35.796875 56 
Q 45.21875 56 50.046875 50.171875 
Q 54.890625 44.34375 54.890625 33.015625 
z
" id="DejaVuSans-6e"/>
     <path d="M 41.109375 46.296875 
Q 39.59375 47.171875 37.8125 47.578125 
Q 36.03125 48 33.890625 48 
Q 26.265625 48 22.1875 43.046875 
Q 18.109375 38.09375 18.109375 28.8125 
L 18.109375 0 
L 9.078125 0 
L 9.078125 54.6875 
L 18.109375 54.6875 
L 18.109375 46.1875 
Q 20.953125 51.171875 25.484375 53.578125 
Q 30.03125 56 36.53125 56 
Q 37.453125 56 38.578125 55.875 
Q 39.703125 55.765625 41.0625 55.515625 
z
" id="DejaVuSans-72"/>
     <path d="M 9.421875 54.6875 
L 18.40625 54.6875 
L 18.40625 0 
L 9.421875 0 
z
M 9.421875 75.984375 
L 18.40625 75.984375 
L 18.40625 64.59375 
L 9.421875 64.59375 
z
" id="DejaVuSans-69"/>
     <path d="M 45.40625 27.984375 
Q 45.40625 37.75 41.375 43.109375 
Q 37.359375 48.484375 30.078125 48.484375 
Q 22.859375 48.484375 18.828125 43.109375 
Q 14.796875 37.75 14.796875 27.984375 
Q 14.796875 18.265625 18.828125 12.890625 
Q 22.859375 7.515625 30.078125 7.515625 
Q 37.359375 7.515625 41.375 12.890625 
Q 45.40625 18.265625 45.40625 27.984375 
z
M 54.390625 6.78125 
Q 54.390625 -7.171875 48.1875 -13.984375 
Q 42 -20.796875 29.203125 -20.796875 
Q 24.46875 -20.796875 20.265625 -20.09375 
Q 16.0625 -19.390625 12.109375 -17.921875 
L 12.109375 -9.1875 
Q 16.0625 -11.328125 19.921875 -12.34375 
Q 23.78125 -13.375 27.78125 -13.375 
Q 36.625 -13.375 41.015625 -8.765625 
Q 45.40625 -4.15625 45.40625 5.171875 
L 45.40625 9.625 
Q 42.625 4.78125 38.28125 2.390625 
Q 33.9375 0 27.875 0 
Q 17.828125 0 11.671875 7.65625 
Q 5.515625 15.328125 5.515625 27.984375 
Q 5.515625 40.671875 11.671875 48.328125 
Q 17.828125 56 27.875 56 
Q 33.9375 56 38.28125 53.609375 
Q 42.625 51.21875 45.40625 46.390625 
L 45.40625 54.6875 
L 54.390625 54.6875 
z
" id="DejaVuSans-67"/>
     <path d="M 44.28125 53.078125 
L 44.28125 44.578125 
Q 40.484375 46.53125 36.375 47.5 
Q 32.28125 48.484375 27.875 48.484375 
Q 21.1875 48.484375 17.84375 46.4375 
Q 14.5 44.390625 14.5 40.28125 
Q 14.5 37.15625 16.890625 35.375 
Q 19.28125 33.59375 26.515625 31.984375 
L 29.59375 31.296875 
Q 39.15625 29.25 43.1875 25.515625 
Q 47.21875 21.78125 47.21875 15.09375 
Q 47.21875 7.46875 41.1875 3.015625 
Q 35.15625 -1.421875 24.609375 -1.421875 
Q 20.21875 -1.421875 15.453125 -0.5625 
Q 10.6875 0.296875 5.421875 2 
L 5.421875 11.28125 
Q 10.40625 8.6875 15.234375 7.390625 
Q 20.0625 6.109375 24.8125 6.109375 
Q 31.15625 6.109375 34.5625 8.28125 
Q 37.984375 10.453125 37.984375 14.40625 
Q 37.984375 18.0625 35.515625 20.015625 
Q 33.0625 21.96875 24.703125 23.78125 
L 21.578125 24.515625 
Q 13.234375 26.265625 9.515625 29.90625 
Q 5.8125 33.546875 5.8125 39.890625 
Q 5.8125 47.609375 11.28125 51.796875 
Q 16.75 56 26.8125 56 
Q 31.78125 56 36.171875 55.265625 
Q 40.578125 54.546875 44.28125 53.078125 
z
" id="DejaVuSans-73"/>
    </defs>
    <g transform="translate(172.363125 35.472)scale(0.12 -0.12)">
     <use xlink:href="#DejaVuSans-4d"/>
     <use x="86.279297" xlink:href="#DejaVuSans-79"/>
     <use x="145.458984" xlink:href="#DejaVuSans-20"/>
     <use x="177.246094" xlink:href="#DejaVuSans-42"/>
     <use x="245.849609" xlink:href="#DejaVuSans-6f"/>
     <use x="307.03125" xlink:href="#DejaVuSans-6e"/>
     <use x="370.410156" xlink:href="#DejaVuSans-64"/>
     <use x="433.886719" xlink:href="#DejaVuSans-6f"/>
     <use x="495.068359" xlink:href="#DejaVuSans-72"/>
     <use x="536.181641" xlink:href="#DejaVuSans-61"/>
     <use x="597.460938" xlink:href="#DejaVuSans-20"/>
     <use x="629.248047" xlink:href="#DejaVuSans-65"/>
     <use x="690.771484" xlink:href="#DejaVuSans-61"/>
     <use x="752.050781" xlink:href="#DejaVuSans-72"/>
     <use x="793.148438" xlink:href="#DejaVuSans-6e"/>
     <use x="856.527344" xlink:href="#DejaVuSans-69"/>
     <use x="884.310547" xlink:href="#DejaVuSans-6e"/>
     <use x="947.689453" xlink:href="#DejaVuSans-67"/>
     <use x="1011.166016" xlink:href="#DejaVuSans-73"/>
    </g>
   </g>
   <g id="legend_1">
    <g id="patch_7">
     <path d="M 64.6 122.862625 
L 158.45 122.862625 
Q 160.45 122.862625 160.45 120.862625 
L 160.45 48.472 
Q 160.45 46.472 158.45 46.472 
L 64.6 46.472 
Q 62.6 46.472 62.6 48.472 
L 62.6 120.862625 
Q 62.6 122.862625 64.6 122.862625 
z
" style="fill:#ffffff;opacity:0.8;stroke:#cccccc;stroke-linejoin:miter;"/>
    </g>
    <g id="line2d_32">
     <path d="M 66.6 54.570437 
L 86.6 54.570437 
" style="fill:none;stroke:#0000ff;stroke-linecap:square;stroke-width:1.5;"/>
    </g>
    <g id="line2d_33"/>
    <g id="text_17">
     <!-- Interest -->
     <defs>
      <path d="M 9.8125 72.90625 
L 19.671875 72.90625 
L 19.671875 0 
L 9.8125 0 
z
" id="DejaVuSans-49"/>
     </defs>
     <g transform="translate(94.6 58.070437)scale(0.1 -0.1)">
      <use xlink:href="#DejaVuSans-49"/>
      <use x="29.492188" xlink:href="#DejaVuSans-6e"/>
      <use x="92.871094" xlink:href="#DejaVuSans-74"/>
      <use x="132.080078" xlink:href="#DejaVuSans-65"/>
      <use x="193.603516" xlink:href="#DejaVuSans-72"/>
      <use x="234.685547" xlink:href="#DejaVuSans-65"/>
      <use x="296.208984" xlink:href="#DejaVuSans-73"/>
      <use x="348.308594" xlink:href="#DejaVuSans-74"/>
     </g>
    </g>
    <g id="line2d_34">
     <path d="M 66.6 69.248562 
L 86.6 69.248562 
" style="fill:none;stroke:#ff0000;stroke-linecap:square;stroke-width:1.5;"/>
    </g>
    <g id="line2d_35"/>
    <g id="text_18">
     <!-- Balance -->
     <defs>
      <path d="M 9.421875 75.984375 
L 18.40625 75.984375 
L 18.40625 0 
L 9.421875 0 
z
" id="DejaVuSans-6c"/>
      <path d="M 48.78125 52.59375 
L 48.78125 44.1875 
Q 44.96875 46.296875 41.140625 47.34375 
Q 37.3125 48.390625 33.40625 48.390625 
Q 24.65625 48.390625 19.8125 42.84375 
Q 14.984375 37.3125 14.984375 27.296875 
Q 14.984375 17.28125 19.8125 11.734375 
Q 24.65625 6.203125 33.40625 6.203125 
Q 37.3125 6.203125 41.140625 7.25 
Q 44.96875 8.296875 48.78125 10.40625 
L 48.78125 2.09375 
Q 45.015625 0.34375 40.984375 -0.53125 
Q 36.96875 -1.421875 32.421875 -1.421875 
Q 20.0625 -1.421875 12.78125 6.34375 
Q 5.515625 14.109375 5.515625 27.296875 
Q 5.515625 40.671875 12.859375 48.328125 
Q 20.21875 56 33.015625 56 
Q 37.15625 56 41.109375 55.140625 
Q 45.0625 54.296875 48.78125 52.59375 
z
" id="DejaVuSans-63"/>
     </defs>
     <g transform="translate(94.6 72.748562)scale(0.1 -0.1)">
      <use xlink:href="#DejaVuSans-42"/>
      <use x="68.603516" xlink:href="#DejaVuSans-61"/>
      <use x="129.882812" xlink:href="#DejaVuSans-6c"/>
      <use x="157.666016" xlink:href="#DejaVuSans-61"/>
      <use x="218.945312" xlink:href="#DejaVuSans-6e"/>
      <use x="282.324219" xlink:href="#DejaVuSans-63"/>
      <use x="337.304688" xlink:href="#DejaVuSans-65"/>
     </g>
    </g>
    <g id="line2d_36">
     <path d="M 66.6 83.926687 
L 86.6 83.926687 
" style="fill:none;stroke:#008000;stroke-linecap:square;stroke-width:1.5;"/>
    </g>
    <g id="line2d_37"/>
    <g id="text_19">
     <!-- Investments -->
     <defs>
      <path d="M 2.984375 54.6875 
L 12.5 54.6875 
L 29.59375 8.796875 
L 46.6875 54.6875 
L 56.203125 54.6875 
L 35.6875 0 
L 23.484375 0 
z
" id="DejaVuSans-76"/>
      <path d="M 52 44.1875 
Q 55.375 50.25 60.0625 53.125 
Q 64.75 56 71.09375 56 
Q 79.640625 56 84.28125 50.015625 
Q 88.921875 44.046875 88.921875 33.015625 
L 88.921875 0 
L 79.890625 0 
L 79.890625 32.71875 
Q 79.890625 40.578125 77.09375 44.375 
Q 74.3125 48.1875 68.609375 48.1875 
Q 61.625 48.1875 57.5625 43.546875 
Q 53.515625 38.921875 53.515625 30.90625 
L 53.515625 0 
L 44.484375 0 
L 44.484375 32.71875 
Q 44.484375 40.625 41.703125 44.40625 
Q 38.921875 48.1875 33.109375 48.1875 
Q 26.21875 48.1875 22.15625 43.53125 
Q 18.109375 38.875 18.109375 30.90625 
L 18.109375 0 
L 9.078125 0 
L 9.078125 54.6875 
L 18.109375 54.6875 
L 18.109375 46.1875 
Q 21.1875 51.21875 25.484375 53.609375 
Q 29.78125 56 35.6875 56 
Q 41.65625 56 45.828125 52.96875 
Q 50 49.953125 52 44.1875 
z
" id="DejaVuSans-6d"/>
     </defs>
     <g transform="translate(94.6 87.426687)scale(0.1 -0.1)">
      <use xlink:href="#DejaVuSans-49"/>
      <use x="29.492188" xlink:href="#DejaVuSans-6e"/>
      <use x="92.871094" xlink:href="#DejaVuSans-76"/>
      <use x="152.050781" xlink:href="#DejaVuSans-65"/>
      <use x="213.574219" xlink:href="#DejaVuSans-73"/>
      <use x="265.673828" xlink:href="#DejaVuSans-74"/>
      <use x="304.882812" xlink:href="#DejaVuSans-6d"/>
      <use x="402.294922" xlink:href="#DejaVuSans-65"/>
      <use x="463.818359" xlink:href="#DejaVuSans-6e"/>
      <use x="527.197266" xlink:href="#DejaVuSans-74"/>
      <use x="566.40625" xlink:href="#DejaVuSans-73"/>
     </g>
    </g>
    <g id="line2d_38"/>
    <g id="line2d_39">
     <g>
      <use style="fill:#bfbf00;stroke:#bfbf00;" x="76.6" xlink:href="#m6576248334" y="98.604812"/>
     </g>
    </g>
    <g id="text_20">
     <!-- Deposits -->
     <defs>
      <path d="M 19.671875 64.796875 
L 19.671875 8.109375 
L 31.59375 8.109375 
Q 46.6875 8.109375 53.6875 14.9375 
Q 60.6875 21.78125 60.6875 36.53125 
Q 60.6875 51.171875 53.6875 57.984375 
Q 46.6875 64.796875 31.59375 64.796875 
z
M 9.8125 72.90625 
L 30.078125 72.90625 
Q 51.265625 72.90625 61.171875 64.09375 
Q 71.09375 55.28125 71.09375 36.53125 
Q 71.09375 17.671875 61.125 8.828125 
Q 51.171875 0 30.078125 0 
L 9.8125 0 
z
" id="DejaVuSans-44"/>
      <path d="M 18.109375 8.203125 
L 18.109375 -20.796875 
L 9.078125 -20.796875 
L 9.078125 54.6875 
L 18.109375 54.6875 
L 18.109375 46.390625 
Q 20.953125 51.265625 25.265625 53.625 
Q 29.59375 56 35.59375 56 
Q 45.5625 56 51.78125 48.09375 
Q 58.015625 40.1875 58.015625 27.296875 
Q 58.015625 14.40625 51.78125 6.484375 
Q 45.5625 -1.421875 35.59375 -1.421875 
Q 29.59375 -1.421875 25.265625 0.953125 
Q 20.953125 3.328125 18.109375 8.203125 
z
M 48.6875 27.296875 
Q 48.6875 37.203125 44.609375 42.84375 
Q 40.53125 48.484375 33.40625 48.484375 
Q 26.265625 48.484375 22.1875 42.84375 
Q 18.109375 37.203125 18.109375 27.296875 
Q 18.109375 17.390625 22.1875 11.75 
Q 26.265625 6.109375 33.40625 6.109375 
Q 40.53125 6.109375 44.609375 11.75 
Q 48.6875 17.390625 48.6875 27.296875 
z
" id="DejaVuSans-70"/>
     </defs>
     <g transform="translate(94.6 102.104812)scale(0.1 -0.1)">
      <use xlink:href="#DejaVuSans-44"/>
      <use x="77.001953" xlink:href="#DejaVuSans-65"/>
      <use x="138.525391" xlink:href="#DejaVuSans-70"/>
      <use x="202.001953" xlink:href="#DejaVuSans-6f"/>
      <use x="263.183594" xlink:href="#DejaVuSans-73"/>
      <use x="315.283203" xlink:href="#DejaVuSans-69"/>
      <use x="343.066406" xlink:href="#DejaVuSans-74"/>
      <use x="382.275391" xlink:href="#DejaVuSans-73"/>
     </g>
    </g>
    <g id="line2d_40"/>
    <g id="line2d_41">
     <g>
      <use style="fill:#008000;stroke:#008000;" x="76.6" xlink:href="#m74deab3ec8" y="113.282937"/>
     </g>
    </g>
    <g id="text_21">
     <!-- Commission -->
     <defs>
      <path d="M 64.40625 67.28125 
L 64.40625 56.890625 
Q 59.421875 61.53125 53.78125 63.8125 
Q 48.140625 66.109375 41.796875 66.109375 
Q 29.296875 66.109375 22.65625 58.46875 
Q 16.015625 50.828125 16.015625 36.375 
Q 16.015625 21.96875 22.65625 14.328125 
Q 29.296875 6.6875 41.796875 6.6875 
Q 48.140625 6.6875 53.78125 8.984375 
Q 59.421875 11.28125 64.40625 15.921875 
L 64.40625 5.609375 
Q 59.234375 2.09375 53.4375 0.328125 
Q 47.65625 -1.421875 41.21875 -1.421875 
Q 24.65625 -1.421875 15.125 8.703125 
Q 5.609375 18.84375 5.609375 36.375 
Q 5.609375 53.953125 15.125 64.078125 
Q 24.65625 74.21875 41.21875 74.21875 
Q 47.75 74.21875 53.53125 72.484375 
Q 59.328125 70.75 64.40625 67.28125 
z
" id="DejaVuSans-43"/>
     </defs>
     <g transform="translate(94.6 116.782937)scale(0.1 -0.1)">
      <use xlink:href="#DejaVuSans-43"/>
      <use x="69.824219" xlink:href="#DejaVuSans-6f"/>
      <use x="131.005859" xlink:href="#DejaVuSans-6d"/>
      <use x="228.417969" xlink:href="#DejaVuSans-6d"/>
      <use x="325.830078" xlink:href="#DejaVuSans-69"/>
      <use x="353.613281" xlink:href="#DejaVuSans-73"/>
      <use x="405.712891" xlink:href="#DejaVuSans-73"/>
      <use x="457.8125" xlink:href="#DejaVuSans-69"/>
      <use x="485.595703" xlink:href="#DejaVuSans-6f"/>
      <use x="546.777344" xlink:href="#DejaVuSans-6e"/>
     </g>
    </g>
   </g>
  </g>
 </g>
 <defs>
  <clipPath id="p7c777f2678">
   <rect height="235.008" width="357.12" x="57.6" y="41.472"/>
  </clipPath>
 </defs>
</svg>
