<?xml version="1.0" encoding="utf-8" standalone="no"?>
<!DOCTYPE svg PUBLIC "-//W3C//DTD SVG 1.1//EN"
  "http://www.w3.org/Graphics/SVG/1.1/DTD/svg11.dtd">
<!-- Created with matplotlib (http://matplotlib.org/) -->
<svg height="345.6pt" version="1.1" viewBox="0 0 460.8 345.6" width="460.8pt" xmlns="http://www.w3.org/2000/svg" xmlns:xlink="http://www.w3.org/1999/xlink">
 <defs>
  <style type="text/css">
*{stroke-linecap:butt;stroke-linejoin:round;}
  </style>
 </defs>
 <g id="figure_1">
  <g id="patch_1">
   <path d="M 0 345.6 
L 460.8 345.6 
L 460.8 0 
L 0 0 
z
" style="fill:#ffffff;"/>
  </g>
  <g id="axes_1">
   <g id="patch_2">
    <path d="M 57.6 276.48 
L 414.72 276.48 
L 414.72 41.472 
L 57.6 41.472 
z
" style="fill:#ffffff;"/>
   </g>
   <g id="matplotlib.axis_1">
    <g id="xtick_1">
     <g id="line2d_1">
      <path clip-path="url(#pf6a14b4fba)" d="M 100.53327 276.48 
L 100.53327 41.472 
" style="fill:none;stroke:#b0b0b0;stroke-linecap:square;stroke-width:0.8;"/>
     </g>
     <g id="line2d_2">
      <defs>
       <path d="M 0 0 
L 0 3.5 
" id="m50776d4f4c" style="stroke:#000000;stroke-width:0.8;"/>
      </defs>
      <g>
       <use style="stroke:#000000;stroke-width:0.8;" x="100.53327" xlink:href="#m50776d4f4c" y="276.48"/>
      </g>
     </g>
     <g id="text_1">
      <!-- 2019-02 -->
      <defs>
       <path d="M 19.1875 8.296875 
L 53.609375 8.296875 
L 53.609375 0 
L 7.328125 0 
L 7.328125 8.296875 
Q 12.9375 14.109375 22.625 23.890625 
Q 32.328125 33.6875 34.8125 36.53125 
Q 39.546875 41.84375 41.421875 45.53125 
Q 43.3125 49.21875 43.3125 52.78125 
Q 43.3125 58.59375 39.234375 62.25 
Q 35.15625 65.921875 28.609375 65.921875 
Q 23.96875 65.921875 18.8125 64.3125 
Q 13.671875 62.703125 7.8125 59.421875 
L 7.8125 69.390625 
Q 13.765625 71.78125 18.9375 73 
Q 24.125 74.21875 28.421875 74.21875 
Q 39.75 74.21875 46.484375 68.546875 
Q 53.21875 62.890625 53.21875 53.421875 
Q 53.21875 48.921875 51.53125 44.890625 
Q 49.859375 40.875 45.40625 35.40625 
Q 44.1875 33.984375 37.640625 27.21875 
Q 31.109375 20.453125 19.1875 8.296875 
z
" id="DejaVuSans-32"/>
       <path d="M 31.78125 66.40625 
Q 24.171875 66.40625 20.328125 58.90625 
Q 16.5 51.421875 16.5 36.375 
Q 16.5 21.390625 20.328125 13.890625 
Q 24.171875 6.390625 31.78125 6.390625 
Q 39.453125 6.390625 43.28125 13.890625 
Q 47.125 21.390625 47.125 36.375 
Q 47.125 51.421875 43.28125 58.90625 
Q 39.453125 66.40625 31.78125 66.40625 
z
M 31.78125 74.21875 
Q 44.046875 74.21875 50.515625 64.515625 
Q 56.984375 54.828125 56.984375 36.375 
Q 56.984375 17.96875 50.515625 8.265625 
Q 44.046875 -1.421875 31.78125 -1.421875 
Q 19.53125 -1.421875 13.0625 8.265625 
Q 6.59375 17.96875 6.59375 36.375 
Q 6.59375 54.828125 13.0625 64.515625 
Q 19.53125 74.21875 31.78125 74.21875 
z
" id="DejaVuSans-30"/>
       <path d="M 12.40625 8.296875 
L 28.515625 8.296875 
L 28.515625 63.921875 
L 10.984375 60.40625 
L 10.984375 69.390625 
L 28.421875 72.90625 
L 38.28125 72.90625 
L 38.28125 8.296875 
L 54.390625 8.296875 
L 54.390625 0 
L 12.40625 0 
z
" id="DejaVuSans-31"/>
       <path d="M 10.984375 1.515625 
L 10.984375 10.5 
Q 14.703125 8.734375 18.5 7.8125 
Q 22.3125 6.890625 25.984375 6.890625 
Q 35.75 6.890625 40.890625 13.453125 
Q 46.046875 20.015625 46.78125 33.40625 
Q 43.953125 29.203125 39.59375 26.953125 
Q 35.25 24.703125 29.984375 24.703125 
Q 19.046875 24.703125 12.671875 31.3125 
Q 6.296875 37.9375 6.296875 49.421875 
Q 6.296875 60.640625 12.9375 67.421875 
Q 19.578125 74.21875 30.609375 74.21875 
Q 43.265625 74.21875 49.921875 64.515625 
Q 56.59375 54.828125 56.59375 36.375 
Q 56.59375 19.140625 48.40625 8.859375 
Q 40.234375 -1.421875 26.421875 -1.421875 
Q 22.703125 -1.421875 18.890625 -0.6875 
Q 15.09375 0.046875 10.984375 1.515625 
z
M 30.609375 32.421875 
Q 37.25 32.421875 41.125 36.953125 
Q 45.015625 41.5 45.015625 49.421875 
Q 45.015625 57.28125 41.125 61.84375 
Q 37.25 66.40625 30.609375 66.40625 
Q 23.96875 66.40625 20.09375 61.84375 
Q 16.21875 57.28125 16.21875 49.421875 
Q 16.21875 41.5 20.09375 36.953125 
Q 23.96875 32.421875 30.609375 32.421875 
z
" id="DejaVuSans-39"/>
       <path d="M 4.890625 31.390625 
L 31.203125 31.390625 
L 31.203125 23.390625 
L 4.890625 23.390625 
z
" id="DejaVuSans-2d"/>
      </defs>
      <g transform="translate(63.308449 310.951846)rotate(-30)scale(0.1 -0.1)">
       <use xlink:href="#DejaVuSans-32"/>
       <use x="63.623047" xlink:href="#DejaVuSans-30"/>
       <use x="127.246094" xlink:href="#DejaVuSans-31"/>
       <use x="190.869141" xlink:href="#DejaVuSans-39"/>
       <use x="254.492188" xlink:href="#DejaVuSans-2d"/>
       <use x="290.576172" xlink:href="#DejaVuSans-30"/>
       <use x="354.199219" xlink:href="#DejaVuSans-32"/>
      </g>
     </g>
    </g>
    <g id="xtick_2">
     <g id="line2d_3">
      <path clip-path="url(#pf6a14b4fba)" d="M 151.350432 276.48 
L 151.350432 41.472 
" style="fill:none;stroke:#b0b0b0;stroke-linecap:square;stroke-width:0.8;"/>
     </g>
     <g id="line2d_4">
      <g>
       <use style="stroke:#000000;stroke-width:0.8;" x="151.350432" xlink:href="#m50776d4f4c" y="276.48"/>
      </g>
     </g>
     <g id="text_2">
      <!-- 2019-04 -->
      <defs>
       <path d="M 37.796875 64.3125 
L 12.890625 25.390625 
L 37.796875 25.390625 
z
M 35.203125 72.90625 
L 47.609375 72.90625 
L 47.609375 25.390625 
L 58.015625 25.390625 
L 58.015625 17.1875 
L 47.609375 17.1875 
L 47.609375 0 
L 37.796875 0 
L 37.796875 17.1875 
L 4.890625 17.1875 
L 4.890625 26.703125 
z
" id="DejaVuSans-34"/>
      </defs>
      <g transform="translate(114.125611 310.951846)rotate(-30)scale(0.1 -0.1)">
       <use xlink:href="#DejaVuSans-32"/>
       <use x="63.623047" xlink:href="#DejaVuSans-30"/>
       <use x="127.246094" xlink:href="#DejaVuSans-31"/>
       <use x="190.869141" xlink:href="#DejaVuSans-39"/>
       <use x="254.492188" xlink:href="#DejaVuSans-2d"/>
       <use x="290.576172" xlink:href="#DejaVuSans-30"/>
       <use x="354.199219" xlink:href="#DejaVuSans-34"/>
      </g>
     </g>
    </g>
    <g id="xtick_3">
     <g id="line2d_5">
      <path clip-path="url(#pf6a14b4fba)" d="M 203.89021 276.48 
L 203.89021 41.472 
" style="fill:none;stroke:#b0b0b0;stroke-linecap:square;stroke-width:0.8;"/>
     </g>
     <g id="line2d_6">
      <g>
       <use style="stroke:#000000;stroke-width:0.8;" x="203.89021" xlink:href="#m50776d4f4c" y="276.48"/>
      </g>
     </g>
     <g id="text_3">
      <!-- 2019-06 -->
      <defs>
       <path d="M 33.015625 40.375 
Q 26.375 40.375 22.484375 35.828125 
Q 18.609375 31.296875 18.609375 23.390625 
Q 18.609375 15.53125 22.484375 10.953125 
Q 26.375 6.390625 33.015625 6.390625 
Q 39.65625 6.390625 43.53125 10.953125 
Q 47.40625 15.53125 47.40625 23.390625 
Q 47.40625 31.296875 43.53125 35.828125 
Q 39.65625 40.375 33.015625 40.375 
z
M 52.59375 71.296875 
L 52.59375 62.3125 
Q 48.875 64.0625 45.09375 64.984375 
Q 41.3125 65.921875 37.59375 65.921875 
Q 27.828125 65.921875 22.671875 59.328125 
Q 17.53125 52.734375 16.796875 39.40625 
Q 19.671875 43.65625 24.015625 45.921875 
Q 28.375 48.1875 33.59375 48.1875 
Q 44.578125 48.1875 50.953125 41.515625 
Q 57.328125 34.859375 57.328125 23.390625 
Q 57.328125 12.15625 50.6875 5.359375 
Q 44.046875 -1.421875 33.015625 -1.421875 
Q 20.359375 -1.421875 13.671875 8.265625 
Q 6.984375 17.96875 6.984375 36.375 
Q 6.984375 53.65625 15.1875 63.9375 
Q 23.390625 74.21875 37.203125 74.21875 
Q 40.921875 74.21875 44.703125 73.484375 
Q 48.484375 72.75 52.59375 71.296875 
z
" id="DejaVuSans-36"/>
      </defs>
      <g transform="translate(166.665389 310.951846)rotate(-30)scale(0.1 -0.1)">
       <use xlink:href="#DejaVuSans-32"/>
       <use x="63.623047" xlink:href="#DejaVuSans-30"/>
       <use x="127.246094" xlink:href="#DejaVuSans-31"/>
       <use x="190.869141" xlink:href="#DejaVuSans-39"/>
       <use x="254.492188" xlink:href="#DejaVuSans-2d"/>
       <use x="290.576172" xlink:href="#DejaVuSans-30"/>
       <use x="354.199219" xlink:href="#DejaVuSans-36"/>
      </g>
     </g>
    </g>
    <g id="xtick_4">
     <g id="line2d_7">
      <path clip-path="url(#pf6a14b4fba)" d="M 256.429988 276.48 
L 256.429988 41.472 
" style="fill:none;stroke:#b0b0b0;stroke-linecap:square;stroke-width:0.8;"/>
     </g>
     <g id="line2d_8">
      <g>
       <use style="stroke:#000000;stroke-width:0.8;" x="256.429988" xlink:href="#m50776d4f4c" y="276.48"/>
      </g>
     </g>
     <g id="text_4">
      <!-- 2019-08 -->
      <defs>
       <path d="M 31.78125 34.625 
Q 24.75 34.625 20.71875 30.859375 
Q 16.703125 27.09375 16.703125 20.515625 
Q 16.703125 13.921875 20.71875 10.15625 
Q 24.75 6.390625 31.78125 6.390625 
Q 38.8125 6.390625 42.859375 10.171875 
Q 46.921875 13.96875 46.921875 20.515625 
Q 46.921875 27.09375 42.890625 30.859375 
Q 38.875 34.625 31.78125 34.625 
z
M 21.921875 38.8125 
Q 15.578125 40.375 12.03125 44.71875 
Q 8.5 49.078125 8.5 55.328125 
Q 8.5 64.0625 14.71875 69.140625 
Q 20.953125 74.21875 31.78125 74.21875 
Q 42.671875 74.21875 48.875 69.140625 
Q 55.078125 64.0625 55.078125 55.328125 
Q 55.078125 49.078125 51.53125 44.71875 
Q 48 40.375 41.703125 38.8125 
Q 48.828125 37.15625 52.796875 32.3125 
Q 56.78125 27.484375 56.78125 20.515625 
Q 56.78125 9.90625 50.3125 4.234375 
Q 43.84375 -1.421875 31.78125 -1.421875 
Q 19.734375 -1.421875 13.25 4.234375 
Q 6.78125 9.90625 6.78125 20.515625 
Q 6.78125 27.484375 10.78125 32.3125 
Q 14.796875 37.15625 21.921875 38.8125 
z
M 18.3125 54.390625 
Q 18.3125 48.734375 21.84375 45.5625 
Q 25.390625 42.390625 31.78125 42.390625 
Q 38.140625 42.390625 41.71875 45.5625 
Q 45.3125 48.734375 45.3125 54.390625 
Q 45.3125 60.0625 41.71875 63.234375 
Q 38.140625 66.40625 31.78125 66.40625 
Q 25.390625 66.40625 21.84375 63.234375 
Q 18.3125 60.0625 18.3125 54.390625 
z
" id="DejaVuSans-38"/>
      </defs>
      <g transform="translate(219.205167 310.951846)rotate(-30)scale(0.1 -0.1)">
       <use xlink:href="#DejaVuSans-32"/>
       <use x="63.623047" xlink:href="#DejaVuSans-30"/>
       <use x="127.246094" xlink:href="#DejaVuSans-31"/>
       <use x="190.869141" xlink:href="#DejaVuSans-39"/>
       <use x="254.492188" xlink:href="#DejaVuSans-2d"/>
       <use x="290.576172" xlink:href="#DejaVuSans-30"/>
       <use x="354.199219" xlink:href="#DejaVuSans-38"/>
      </g>
     </g>
    </g>
    <g id="xtick_5">
     <g id="line2d_9">
      <path clip-path="url(#pf6a14b4fba)" d="M 308.969765 276.48 
L 308.969765 41.472 
" style="fill:none;stroke:#b0b0b0;stroke-linecap:square;stroke-width:0.8;"/>
     </g>
     <g id="line2d_10">
      <g>
       <use style="stroke:#000000;stroke-width:0.8;" x="308.969765" xlink:href="#m50776d4f4c" y="276.48"/>
      </g>
     </g>
     <g id="text_5">
      <!-- 2019-10 -->
      <g transform="translate(271.744945 310.951846)rotate(-30)scale(0.1 -0.1)">
       <use xlink:href="#DejaVuSans-32"/>
       <use x="63.623047" xlink:href="#DejaVuSans-30"/>
       <use x="127.246094" xlink:href="#DejaVuSans-31"/>
       <use x="190.869141" xlink:href="#DejaVuSans-39"/>
       <use x="254.492188" xlink:href="#DejaVuSans-2d"/>
       <use x="290.576172" xlink:href="#DejaVuSans-31"/>
       <use x="354.199219" xlink:href="#DejaVuSans-30"/>
      </g>
     </g>
    </g>
    <g id="xtick_6">
     <g id="line2d_11">
      <path clip-path="url(#pf6a14b4fba)" d="M 361.509543 276.48 
L 361.509543 41.472 
" style="fill:none;stroke:#b0b0b0;stroke-linecap:square;stroke-width:0.8;"/>
     </g>
     <g id="line2d_12">
      <g>
       <use style="stroke:#000000;stroke-width:0.8;" x="361.509543" xlink:href="#m50776d4f4c" y="276.48"/>
      </g>
     </g>
     <g id="text_6">
      <!-- 2019-12 -->
      <g transform="translate(324.284722 310.951846)rotate(-30)scale(0.1 -0.1)">
       <use xlink:href="#DejaVuSans-32"/>
       <use x="63.623047" xlink:href="#DejaVuSans-30"/>
       <use x="127.246094" xlink:href="#DejaVuSans-31"/>
       <use x="190.869141" xlink:href="#DejaVuSans-39"/>
       <use x="254.492188" xlink:href="#DejaVuSans-2d"/>
       <use x="290.576172" xlink:href="#DejaVuSans-31"/>
       <use x="354.199219" xlink:href="#DejaVuSans-32"/>
      </g>
     </g>
    </g>
    <g id="text_7">
     <!-- date -->
     <defs>
      <path d="M 45.40625 46.390625 
L 45.40625 75.984375 
L 54.390625 75.984375 
L 54.390625 0 
L 45.40625 0 
L 45.40625 8.203125 
Q 42.578125 3.328125 38.25 0.953125 
Q 33.9375 -1.421875 27.875 -1.421875 
Q 17.96875 -1.421875 11.734375 6.484375 
Q 5.515625 14.40625 5.515625 27.296875 
Q 5.515625 40.1875 11.734375 48.09375 
Q 17.96875 56 27.875 56 
Q 33.9375 56 38.25 53.625 
Q 42.578125 51.265625 45.40625 46.390625 
z
M 14.796875 27.296875 
Q 14.796875 17.390625 18.875 11.75 
Q 22.953125 6.109375 30.078125 6.109375 
Q 37.203125 6.109375 41.296875 11.75 
Q 45.40625 17.390625 45.40625 27.296875 
Q 45.40625 37.203125 41.296875 42.84375 
Q 37.203125 48.484375 30.078125 48.484375 
Q 22.953125 48.484375 18.875 42.84375 
Q 14.796875 37.203125 14.796875 27.296875 
z
" id="DejaVuSans-64"/>
      <path d="M 34.28125 27.484375 
Q 23.390625 27.484375 19.1875 25 
Q 14.984375 22.515625 14.984375 16.5 
Q 14.984375 11.71875 18.140625 8.90625 
Q 21.296875 6.109375 26.703125 6.109375 
Q 34.1875 6.109375 38.703125 11.40625 
Q 43.21875 16.703125 43.21875 25.484375 
L 43.21875 27.484375 
z
M 52.203125 31.203125 
L 52.203125 0 
L 43.21875 0 
L 43.21875 8.296875 
Q 40.140625 3.328125 35.546875 0.953125 
Q 30.953125 -1.421875 24.3125 -1.421875 
Q 15.921875 -1.421875 10.953125 3.296875 
Q 6 8.015625 6 15.921875 
Q 6 25.140625 12.171875 29.828125 
Q 18.359375 34.515625 30.609375 34.515625 
L 43.21875 34.515625 
L 43.21875 35.40625 
Q 43.21875 41.609375 39.140625 45 
Q 35.0625 48.390625 27.6875 48.390625 
Q 23 48.390625 18.546875 47.265625 
Q 14.109375 46.140625 10.015625 43.890625 
L 10.015625 52.203125 
Q 14.9375 54.109375 19.578125 55.046875 
Q 24.21875 56 28.609375 56 
Q 40.484375 56 46.34375 49.84375 
Q 52.203125 43.703125 52.203125 31.203125 
z
" id="DejaVuSans-61"/>
      <path d="M 18.3125 70.21875 
L 18.3125 54.6875 
L 36.8125 54.6875 
L 36.8125 47.703125 
L 18.3125 47.703125 
L 18.3125 18.015625 
Q 18.3125 11.328125 20.140625 9.421875 
Q 21.96875 7.515625 27.59375 7.515625 
L 36.8125 7.515625 
L 36.8125 0 
L 27.59375 0 
Q 17.1875 0 13.234375 3.875 
Q 9.28125 7.765625 9.28125 18.015625 
L 9.28125 47.703125 
L 2.6875 47.703125 
L 2.6875 54.6875 
L 9.28125 54.6875 
L 9.28125 70.21875 
z
" id="DejaVuSans-74"/>
      <path d="M 56.203125 29.59375 
L 56.203125 25.203125 
L 14.890625 25.203125 
Q 15.484375 15.921875 20.484375 11.0625 
Q 25.484375 6.203125 34.421875 6.203125 
Q 39.59375 6.203125 44.453125 7.46875 
Q 49.3125 8.734375 54.109375 11.28125 
L 54.109375 2.78125 
Q 49.265625 0.734375 44.1875 -0.34375 
Q 39.109375 -1.421875 33.890625 -1.421875 
Q 20.796875 -1.421875 13.15625 6.1875 
Q 5.515625 13.8125 5.515625 26.8125 
Q 5.515625 40.234375 12.765625 48.109375 
Q 20.015625 56 32.328125 56 
Q 43.359375 56 49.78125 48.890625 
Q 56.203125 41.796875 56.203125 29.59375 
z
M 47.21875 32.234375 
Q 47.125 39.59375 43.09375 43.984375 
Q 39.0625 48.390625 32.421875 48.390625 
Q 24.90625 48.390625 20.390625 44.140625 
Q 15.875 39.890625 15.1875 32.171875 
z
" id="DejaVuSans-65"/>
     </defs>
     <g transform="translate(224.885 324.351346)scale(0.1 -0.1)">
      <use xlink:href="#DejaVuSans-64"/>
      <use x="63.476562" xlink:href="#DejaVuSans-61"/>
      <use x="124.755859" xlink:href="#DejaVuSans-74"/>
      <use x="163.964844" xlink:href="#DejaVuSans-65"/>
     </g>
    </g>
   </g>
   <g id="matplotlib.axis_2">
    <g id="ytick_1">
     <g id="line2d_13">
      <path clip-path="url(#pf6a14b4fba)" d="M 57.6 265.797818 
L 414.72 265.797818 
" style="fill:none;stroke:#b0b0b0;stroke-linecap:square;stroke-width:0.8;"/>
     </g>
     <g id="line2d_14">
      <defs>
       <path d="M 0 0 
L -3.5 0 
" id="m130dddd79f" style="stroke:#000000;stroke-width:0.8;"/>
      </defs>
      <g>
       <use style="stroke:#000000;stroke-width:0.8;" x="57.6" xlink:href="#m130dddd79f" y="265.797818"/>
      </g>
     </g>
     <g id="text_8">
      <!-- 0 -->
      <g transform="translate(44.2375 269.597037)scale(0.1 -0.1)">
       <use xlink:href="#DejaVuSans-30"/>
      </g>
     </g>
    </g>
    <g id="ytick_2">
     <g id="line2d_15">
      <path clip-path="url(#pf6a14b4fba)" d="M 57.6 226.995755 
L 414.72 226.995755 
" style="fill:none;stroke:#b0b0b0;stroke-linecap:square;stroke-width:0.8;"/>
     </g>
     <g id="line2d_16">
      <g>
       <use style="stroke:#000000;stroke-width:0.8;" x="57.6" xlink:href="#m130dddd79f" y="226.995755"/>
      </g>
     </g>
     <g id="text_9">
      <!-- 2000 -->
      <g transform="translate(25.15 230.794973)scale(0.1 -0.1)">
       <use xlink:href="#DejaVuSans-32"/>
       <use x="63.623047" xlink:href="#DejaVuSans-30"/>
       <use x="127.246094" xlink:href="#DejaVuSans-30"/>
       <use x="190.869141" xlink:href="#DejaVuSans-30"/>
      </g>
     </g>
    </g>
    <g id="ytick_3">
     <g id="line2d_17">
      <path clip-path="url(#pf6a14b4fba)" d="M 57.6 188.193691 
L 414.72 188.193691 
" style="fill:none;stroke:#b0b0b0;stroke-linecap:square;stroke-width:0.8;"/>
     </g>
     <g id="line2d_18">
      <g>
       <use style="stroke:#000000;stroke-width:0.8;" x="57.6" xlink:href="#m130dddd79f" y="188.193691"/>
      </g>
     </g>
     <g id="text_10">
      <!-- 4000 -->
      <g transform="translate(25.15 191.99291)scale(0.1 -0.1)">
       <use xlink:href="#DejaVuSans-34"/>
       <use x="63.623047" xlink:href="#DejaVuSans-30"/>
       <use x="127.246094" xlink:href="#DejaVuSans-30"/>
       <use x="190.869141" xlink:href="#DejaVuSans-30"/>
      </g>
     </g>
    </g>
    <g id="ytick_4">
     <g id="line2d_19">
      <path clip-path="url(#pf6a14b4fba)" d="M 57.6 149.391628 
L 414.72 149.391628 
" style="fill:none;stroke:#b0b0b0;stroke-linecap:square;stroke-width:0.8;"/>
     </g>
     <g id="line2d_20">
      <g>
       <use style="stroke:#000000;stroke-width:0.8;" x="57.6" xlink:href="#m130dddd79f" y="149.391628"/>
      </g>
     </g>
     <g id="text_11">
      <!-- 6000 -->
      <g transform="translate(25.15 153.190846)scale(0.1 -0.1)">
       <use xlink:href="#DejaVuSans-36"/>
       <use x="63.623047" xlink:href="#DejaVuSans-30"/>
       <use x="127.246094" xlink:href="#DejaVuSans-30"/>
       <use x="190.869141" xlink:href="#DejaVuSans-30"/>
      </g>
     </g>
    </g>
    <g id="ytick_5">
     <g id="line2d_21">
      <path clip-path="url(#pf6a14b4fba)" d="M 57.6 110.589564 
L 414.72 110.589564 
" style="fill:none;stroke:#b0b0b0;stroke-linecap:square;stroke-width:0.8;"/>
     </g>
     <g id="line2d_22">
      <g>
       <use style="stroke:#000000;stroke-width:0.8;" x="57.6" xlink:href="#m130dddd79f" y="110.589564"/>
      </g>
     </g>
     <g id="text_12">
      <!-- 8000 -->
      <g transform="translate(25.15 114.388783)scale(0.1 -0.1)">
       <use xlink:href="#DejaVuSans-38"/>
       <use x="63.623047" xlink:href="#DejaVuSans-30"/>
       <use x="127.246094" xlink:href="#DejaVuSans-30"/>
       <use x="190.869141" xlink:href="#DejaVuSans-30"/>
      </g>
     </g>
    </g>
    <g id="ytick_6">
     <g id="line2d_23">
      <path clip-path="url(#pf6a14b4fba)" d="M 57.6 71.787501 
L 414.72 71.787501 
" style="fill:none;stroke:#b0b0b0;stroke-linecap:square;stroke-width:0.8;"/>
     </g>
     <g id="line2d_24">
      <g>
       <use style="stroke:#000000;stroke-width:0.8;" x="57.6" xlink:href="#m130dddd79f" y="71.787501"/>
      </g>
     </g>
     <g id="text_13">
      <!-- 10000 -->
      <g transform="translate(18.7875 75.586719)scale(0.1 -0.1)">
       <use xlink:href="#DejaVuSans-31"/>
       <use x="63.623047" xlink:href="#DejaVuSans-30"/>
       <use x="127.246094" xlink:href="#DejaVuSans-30"/>
       <use x="190.869141" xlink:href="#DejaVuSans-30"/>
       <use x="254.492188" xlink:href="#DejaVuSans-30"/>
      </g>
     </g>
    </g>
    <g id="text_14">
     <!-- EUR -->
     <defs>
      <path d="M 9.8125 72.90625 
L 55.90625 72.90625 
L 55.90625 64.59375 
L 19.671875 64.59375 
L 19.671875 43.015625 
L 54.390625 43.015625 
L 54.390625 34.71875 
L 19.671875 34.71875 
L 19.671875 8.296875 
L 56.78125 8.296875 
L 56.78125 0 
L 9.8125 0 
z
" id="DejaVuSans-45"/>
      <path d="M 8.6875 72.90625 
L 18.609375 72.90625 
L 18.609375 28.609375 
Q 18.609375 16.890625 22.84375 11.734375 
Q 27.09375 6.59375 36.625 6.59375 
Q 46.09375 6.59375 50.34375 11.734375 
Q 54.59375 16.890625 54.59375 28.609375 
L 54.59375 72.90625 
L 64.5 72.90625 
L 64.5 27.390625 
Q 64.5 13.140625 57.4375 5.859375 
Q 50.390625 -1.421875 36.625 -1.421875 
Q 22.796875 -1.421875 15.734375 5.859375 
Q 8.6875 13.140625 8.6875 27.390625 
z
" id="DejaVuSans-55"/>
      <path d="M 44.390625 34.1875 
Q 47.5625 33.109375 50.5625 29.59375 
Q 53.5625 26.078125 56.59375 19.921875 
L 66.609375 0 
L 56 0 
L 46.6875 18.703125 
Q 43.0625 26.03125 39.671875 28.421875 
Q 36.28125 30.8125 30.421875 30.8125 
L 19.671875 30.8125 
L 19.671875 0 
L 9.8125 0 
L 9.8125 72.90625 
L 32.078125 72.90625 
Q 44.578125 72.90625 50.734375 67.671875 
Q 56.890625 62.453125 56.890625 51.90625 
Q 56.890625 45.015625 53.6875 40.46875 
Q 50.484375 35.9375 44.390625 34.1875 
z
M 19.671875 64.796875 
L 19.671875 38.921875 
L 32.078125 38.921875 
Q 39.203125 38.921875 42.84375 42.21875 
Q 46.484375 45.515625 46.484375 51.90625 
Q 46.484375 58.296875 42.84375 61.546875 
Q 39.203125 64.796875 32.078125 64.796875 
z
" id="DejaVuSans-52"/>
     </defs>
     <g transform="translate(12.707813 169.268969)rotate(-90)scale(0.1 -0.1)">
      <use xlink:href="#DejaVuSans-45"/>
      <use x="63.183594" xlink:href="#DejaVuSans-55"/>
      <use x="136.376953" xlink:href="#DejaVuSans-52"/>
     </g>
    </g>
   </g>
   <g id="line2d_25">
    <path clip-path="url(#pf6a14b4fba)" d="M 73.832727 265.797818 
L 103.978501 265.711002 
L 103.978501 265.692678 
L 109.146348 265.546856 
L 109.146348 265.428882 
L 109.146348 265.428882 
L 110.868964 265.361381 
L 110.868964 265.320958 
L 110.868964 265.161263 
L 115.175503 265.007799 
L 115.175503 264.827842 
L 117.759427 264.708146 
L 117.759427 264.690981 
L 117.759427 264.690981 
L 122.065966 264.565394 
L 122.065966 264.560099 
L 127.233813 264.451005 
L 127.233813 264.168523 
L 128.956429 264.063954 
L 128.956429 264.02125 
L 130.679044 263.912502 
L 130.679044 263.868401 
L 134.124275 263.756284 
L 134.124275 263.70831 
L 134.985583 263.59246 
L 134.985583 263.547881 
L 134.985583 263.547881 
L 139.292122 263.417331 
L 139.292122 263.417331 
L 139.292122 263.3121 
L 142.737354 263.209533 
L 142.737354 263.182479 
L 148.766509 263.055501 
L 148.766509 263.036864 
L 153.073048 262.926163 
L 153.073048 262.791671 
L 153.934356 262.6775 
L 153.934356 262.665454 
L 157.379587 262.545772 
L 157.379587 262.483102 
L 159.96351 262.359933 
L 159.96351 262.320429 
L 163.408742 262.248619 
L 163.408742 262.212595 
L 163.408742 261.998458 
L 165.992665 261.871536 
L 165.992665 261.680975 
L 170.299204 261.564644 
L 170.299204 261.55901 
L 175.467051 261.422831 
L 175.467051 261.3914 
L 178.912283 261.2409 
L 178.912283 261.2409 
L 178.912283 261.163111 
L 178.912283 261.163111 
L 181.496206 261.044268 
L 181.496206 260.980552 
L 183.218822 260.860124 
L 183.218822 260.858043 
L 187.525361 260.728092 
L 187.525361 260.584978 
L 189.247977 260.474305 
L 189.247977 260.435712 
L 193.554516 260.281472 
L 193.554516 260.17352 
L 199.583671 259.995102 
L 199.583671 259.97507 
L 199.583671 259.97507 
L 205.612826 259.921758 
L 205.612826 259.864827 
L 205.612826 259.777629 
L 207.335441 259.656857 
L 207.335441 259.621935 
L 209.058057 259.502068 
L 211.64198 259.375572 
L 211.64198 259.329581 
L 213.364596 259.232221 
L 213.364596 259.133016 
L 214.225904 259.021894 
L 214.225904 258.991011 
L 214.225904 258.991011 
L 217.671135 258.874791 
L 217.671135 258.844162 
L 217.671135 258.844162 
L 218.532443 258.731183 
L 218.532443 258.636182 
L 221.116367 258.524568 
L 221.116367 258.519473 
L 227.145521 258.389494 
L 227.145521 258.376777 
L 229.729445 258.264339 
L 229.729445 258.193592 
L 229.729445 258.193592 
L 230.590753 258.082298 
L 230.590753 258.056911 
L 231.45206 257.942626 
L 231.45206 257.456086 
L 232.313368 257.337332 
L 232.313368 256.870275 
L 233.174676 256.870275 
L 233.174676 256.766375 
L 233.174676 256.66826 
L 235.7586 256.547423 
L 235.7586 255.83352 
L 236.619907 255.721861 
L 236.619907 255.687055 
L 237.481215 255.687055 
L 237.481215 255.634277 
L 237.481215 255.354673 
L 239.203831 255.240925 
L 239.203831 255.039766 
L 239.203831 255.039766 
L 241.787754 254.926891 
L 241.787754 254.707502 
L 242.649062 254.597152 
L 242.649062 254.471847 
L 243.51037 254.366017 
L 243.51037 254.128918 
L 244.371678 254.021563 
L 244.371678 253.596956 
L 245.232986 253.540895 
L 245.232986 253.336192 
L 247.816909 253.10813 
L 247.816909 253.043676 
L 248.678217 252.933086 
L 248.678217 252.74181 
L 251.262141 252.624382 
L 251.262141 252.624382 
L 251.262141 252.558292 
L 253.846064 252.448736 
L 255.56868 252.366405 
L 255.56868 252.274998 
L 256.429988 252.164102 
L 256.429988 251.959817 
L 257.291295 251.848295 
L 257.291295 251.8241 
L 259.875219 251.720735 
L 259.875219 251.720735 
L 259.875219 250.565495 
L 260.736527 250.453855 
L 260.736527 250.010311 
L 261.597835 249.904557 
L 261.597835 249.784683 
L 262.459142 249.784683 
L 262.459142 249.675239 
L 262.459142 249.536267 
L 263.32045 249.425323 
L 263.32045 249.380674 
L 265.904374 249.260898 
L 265.904374 249.069358 
L 266.765682 248.964862 
L 266.765682 248.873254 
L 267.626989 248.761477 
L 267.626989 248.747931 
L 267.626989 248.747931 
L 268.488297 248.747931 
L 268.488297 248.659735 
L 268.488297 248.532803 
L 269.349605 248.421313 
L 269.349605 248.16661 
L 271.933529 248.043474 
L 271.933529 247.371322 
L 272.794836 247.371322 
L 272.794836 247.263827 
L 272.794836 247.192472 
L 273.656144 247.082729 
L 273.656144 247.050993 
L 275.37876 246.934668 
L 275.37876 246.813552 
L 277.962683 246.722199 
L 277.962683 246.616105 
L 279.685299 246.527681 
L 279.685299 246.505435 
L 279.685299 246.412844 
L 279.685299 246.412844 
L 282.269223 246.315954 
L 282.269223 246.302845 
L 282.269223 246.235994 
L 283.991838 246.124001 
L 283.991838 245.980935 
L 283.991838 245.980935 
L 284.853146 245.871984 
L 284.853146 245.566121 
L 285.714454 245.465739 
L 285.714454 244.988847 
L 286.575762 244.876846 
L 286.575762 244.581742 
L 287.43707 244.470677 
L 287.43707 244.055656 
L 290.020993 243.941332 
L 290.020993 243.648759 
L 290.882301 243.542503 
L 290.882301 243.42214 
L 291.743609 243.310652 
L 291.743609 243.306702 
L 293.466224 243.197159 
L 293.466224 242.945912 
L 296.050148 242.833238 
L 296.050148 242.332507 
L 296.911456 242.221355 
L 296.911456 242.083427 
L 297.772764 242.083427 
L 297.772764 241.972646 
L 297.772764 241.64941 
L 298.634071 241.537842 
L 298.634071 241.5073 
L 299.495379 241.403294 
L 299.495379 241.321894 
L 302.079303 241.211211 
L 302.079303 241.211211 
L 302.079303 241.151571 
L 302.940611 241.084038 
L 302.940611 240.887321 
L 304.663226 240.781511 
L 304.663226 240.62171 
L 307.24715 240.515896 
L 307.24715 240.511382 
L 307.24715 240.504671 
L 308.969765 240.421163 
L 308.969765 240.14477 
L 310.692381 240.033844 
L 310.692381 239.739639 
L 311.553689 239.60891 
L 311.553689 239.138513 
L 314.137612 239.023277 
L 314.137612 239.023277 
L 314.137612 238.509931 
L 314.99892 238.380929 
L 314.99892 238.2577 
L 316.721536 238.165733 
L 316.721536 238.149074 
L 316.721536 237.969945 
L 320.166767 237.857616 
L 320.166767 237.857616 
L 320.166767 237.541184 
L 321.028075 237.430183 
L 321.028075 237.298442 
L 321.889383 237.184178 
L 321.889383 236.822012 
L 322.750691 236.71252 
L 322.750691 236.550498 
L 323.611998 236.439931 
L 323.611998 236.116597 
L 326.195922 236.030518 
L 326.195922 235.721064 
L 327.05723 235.613425 
L 327.918538 235.524549 
L 327.918538 235.408451 
L 328.779845 235.408451 
L 328.779845 235.298117 
L 328.779845 235.273832 
L 329.641153 235.163876 
L 329.641153 235.156884 
L 333.086385 235.042419 
L 333.086385 234.932631 
L 333.086385 234.932631 
L 334.809 234.840966 
L 334.809 234.804906 
L 335.670308 234.696765 
L 335.670308 234.667892 
L 338.254232 234.556004 
L 338.254232 233.811292 
L 338.254232 233.811292 
L 339.115539 233.718472 
L 339.115539 233.329394 
L 339.976847 233.232823 
L 339.976847 233.027495 
L 339.976847 233.027495 
L 340.838155 232.916814 
L 340.838155 232.805986 
L 340.838155 232.805986 
L 341.699463 232.695045 
L 341.699463 232.659204 
L 344.283386 232.545242 
L 344.283386 232.355061 
L 344.283386 232.355061 
L 346.006002 232.243061 
L 346.006002 232.243061 
L 346.006002 232.055998 
L 347.728618 231.945458 
L 347.728618 231.830252 
L 350.312541 231.707727 
L 350.312541 230.934923 
L 352.035157 230.829076 
L 352.035157 230.771891 
L 352.896465 230.658442 
L 352.896465 230.621643 
L 355.480388 230.508762 
L 355.480388 230.507807 
L 357.203004 230.401322 
L 357.203004 230.318337 
L 358.92562 230.213512 
L 358.92562 230.209304 
L 358.92562 230.171253 
L 362.370851 230.061224 
L 362.370851 229.634444 
L 363.232159 229.520132 
L 363.232159 229.287427 
L 364.093467 229.154531 
L 364.093467 228.886725 
L 364.954774 228.776432 
L 364.954774 228.71128 
L 368.400006 228.600328 
L 368.400006 228.196733 
L 369.261314 228.087062 
L 369.261314 227.911265 
L 370.122621 227.79965 
L 370.122621 227.798 
L 370.122621 227.798 
L 370.983929 227.686626 
L 370.983929 227.677496 
L 371.845237 227.581865 
L 371.845237 227.423259 
L 374.429161 227.31289 
L 374.429161 226.895367 
L 375.290468 226.783691 
L 375.290468 226.761055 
L 376.151776 226.653714 
L 376.151776 226.438105 
L 376.151776 226.438105 
L 377.013084 226.327824 
L 377.013084 226.321339 
L 377.874392 226.321339 
L 377.874392 226.214476 
L 377.874392 226.186441 
L 380.458315 226.057764 
L 380.458315 226.031783 
L 380.458315 226.031783 
L 383.903547 225.933464 
L 383.903547 225.859832 
L 386.48747 225.853001 
L 386.48747 225.748872 
L 386.48747 225.741599 
L 389.071394 225.635516 
L 389.071394 225.286757 
L 389.932702 225.176765 
L 389.932702 225.176765 
L 389.932702 224.984738 
L 392.516625 224.858732 
L 392.516625 224.858732 
L 392.516625 224.81353 
L 393.377933 224.707671 
L 393.377933 223.987218 
L 394.239241 223.876445 
L 394.239241 223.705975 
L 395.100549 223.589262 
L 395.100549 223.469912 
L 395.961856 223.36009 
L 395.961856 223.261681 
L 397.684472 223.239496 
L 397.684472 223.236861 
" style="fill:none;stroke:#0000ff;stroke-linecap:square;stroke-width:1.5;"/>
   </g>
   <g id="line2d_26">
    <path clip-path="url(#pf6a14b4fba)" d="M 73.832727 265.797818 
L 76.308339 265.720214 
L 76.446836 256.019698 
L 76.650679 256.155505 
L 77.150048 259.764097 
L 77.260274 260.462534 
L 77.741998 262.111622 
L 77.877176 262.926465 
L 78.048201 263.644304 
L 78.226274 264.129329 
L 78.572981 264.691959 
L 78.57638 264.866569 
L 78.750546 265.041178 
L 78.830755 265.215787 
L 78.920744 265.409798 
L 79.375552 265.506566 
L 79.37615 226.704503 
L 79.483275 228.469997 
L 79.578548 231.321948 
L 79.713546 250.062891 
L 79.873954 256.034584 
L 80.030944 256.225156 
L 80.123604 258.157167 
L 80.138797 258.152006 
L 80.189179 258.22961 
L 80.30095 261.120364 
L 80.318405 261.139765 
L 80.414993 262.323228 
L 80.450323 262.594842 
L 80.614978 263.622794 
L 80.632593 263.642195 
L 80.736877 264.204317 
L 81.165198 264.514734 
L 81.194038 265.01916 
L 81.315349 265.057962 
L 81.427618 265.407181 
L 81.486504 265.601191 
L 82.055844 265.697968 
L 82.14357 265.73677 
L 82.74184 265.769428 
L 82.849863 265.57413 
L 82.899478 265.690273 
L 82.992178 265.748475 
L 85.641298 265.787277 
L 86.289591 265.590692 
L 86.293818 265.687697 
L 86.29966 265.7459 
L 87.156571 265.784702 
L 88.278514 265.588644 
L 88.281246 265.608045 
L 88.28952 265.782654 
L 91.407315 265.763139 
L 91.407315 265.57778 
L 91.409398 265.771791 
L 91.598637 265.759973 
L 103.410158 265.784202 
L 103.410158 265.74471 
L 103.410158 265.722902 
L 103.421742 265.781106 
L 103.472124 265.770403 
L 103.558026 265.789804 
L 104.351047 265.78615 
L 104.719435 265.584907 
L 105.109317 265.566085 
L 105.109317 265.464251 
L 105.137339 265.561256 
L 107.182168 265.796834 
L 109.683559 265.687171 
L 109.707634 265.521177 
L 109.700117 265.719907 
L 109.768823 265.637583 
L 111.149796 265.494655 
L 111.275434 265.488116 
L 111.281315 265.56572 
L 111.377275 265.699037 
L 111.377275 265.693705 
L 113.996787 265.773166 
L 114.857816 265.790918 
L 114.857816 265.786065 
L 115.462107 265.674678 
L 115.476732 265.607257 
L 115.563201 265.663455 
L 115.639533 265.740049 
L 115.70109 265.664516 
L 115.757374 265.742876 
L 117.349259 265.790711 
L 117.400588 257.527423 
L 117.476282 263.221331 
L 117.527133 264.305732 
L 118.173183 264.385053 
L 118.183112 263.899628 
L 118.199292 264.365252 
L 118.285173 264.384653 
L 118.342355 265.121893 
L 118.383845 265.109033 
L 118.401948 265.128434 
L 118.918982 265.119116 
L 118.95492 264.920149 
L 118.965955 265.13356 
L 118.990808 265.132499 
L 119.170257 265.166627 
L 119.281569 265.610329 
L 119.281569 265.608996 
L 119.924619 265.621249 
L 120.038094 265.757057 
L 121.918447 265.644412 
L 121.918447 265.641515 
L 121.921926 265.699718 
L 127.539846 265.59288 
L 127.613167 265.529434 
L 127.64108 265.665241 
L 127.649204 265.657251 
L 127.756569 265.727867 
L 127.756569 265.708 
L 127.897399 265.722838 
L 127.897399 265.719135 
L 127.897399 265.522584 
L 127.991664 265.735995 
L 129.210285 265.736027 
L 129.210285 265.704513 
L 129.210285 265.697689 
L 129.272261 265.736491 
L 129.305607 265.731385 
L 134.074601 265.755497 
L 134.092694 265.565066 
L 134.115443 265.700873 
L 134.43628 265.665553 
L 134.466516 265.577607 
L 134.534473 265.699868 
L 134.748086 265.701469 
L 134.748086 265.692291 
L 134.770147 265.711692 
L 135.293142 265.749971 
L 135.293142 265.660951 
L 135.324195 265.573389 
L 135.375584 265.728597 
L 149.530092 265.593475 
L 149.530092 265.272685 
L 149.543699 265.796513 
L 152.539914 265.747813 
L 152.619186 265.644621 
L 152.655274 265.756183 
L 152.802793 265.643973 
L 152.832729 265.018456 
L 152.832849 264.425526 
L 152.872345 265.371701 
L 153.070755 265.358583 
L 153.12687 265.573255 
L 153.341937 265.462595 
L 153.412786 265.420983 
L 153.451654 265.440384 
L 154.502151 265.41405 
L 154.59204 265.792008 
L 154.696932 265.42458 
L 154.709283 265.61859 
L 155.489335 265.581145 
L 155.544922 265.775155 
L 164.067612 265.653003 
L 164.067612 265.586679 
L 164.128253 265.681377 
L 164.171976 265.675302 
L 165.788085 265.764073 
L 165.930171 265.78324 
L 166.271544 265.675558 
L 166.296117 265.559671 
L 166.350258 265.683523 
L 166.477261 265.744052 
L 166.477261 265.738569 
L 168.183178 265.796841 
L 179.192417 265.69234 
L 179.192417 265.647922 
L 179.290311 265.757226 
L 186.174693 265.769968 
L 186.177933 265.789369 
L 187.819791 265.675306 
L 187.842958 265.59861 
L 187.871758 265.676215 
L 187.929059 265.64907 
L 188.843541 265.75192 
L 188.89807 265.790082 
L 188.89807 265.78855 
L 192.264767 265.794429 
L 193.833723 265.683655 
L 193.833723 265.612308 
L 193.93697 265.738319 
L 200.03508 265.780036 
L 200.08634 263.845171 
L 200.134987 264.614181 
L 201.278772 264.632176 
L 201.63796 264.630201 
L 201.816422 265.794262 
L 201.92593 264.621329 
L 202.536671 264.621519 
L 202.699103 264.854332 
L 202.71275 265.785581 
L 205.905331 265.680165 
L 205.956451 265.658298 
L 205.983397 265.716501 
L 205.993595 265.710187 
L 211.290349 265.797148 
L 211.983084 265.686054 
L 211.983084 265.681285 
L 212.024614 265.727622 
L 212.091485 265.707844 
L 213.958001 265.643343 
L 213.994108 265.446872 
L 214.014624 265.664164 
L 214.064139 265.663447 
L 214.5183 265.554144 
L 214.55033 265.482563 
L 214.62695 265.639385 
L 214.691818 265.742591 
L 214.746566 265.656527 
L 214.757692 265.637593 
L 214.788794 265.700565 
L 214.818352 265.695332 
L 216.603831 265.787696 
L 218.817492 265.677547 
L 218.817492 265.58932 
L 218.914878 265.643025 
L 219.111054 265.694199 
L 219.111054 265.68943 
L 226.904903 265.667795 
L 226.904903 265.716454 
L 226.908143 265.180082 
L 226.910257 265.712465 
L 227.050538 265.70382 
L 227.05644 265.423278 
L 227.05941 265.714293 
L 227.87538 265.645954 
L 227.896753 264.537306 
L 227.900272 265.65549 
L 227.910969 265.654731 
L 228.584932 265.715638 
L 228.585142 262.281737 
L 228.690562 265.781926 
L 228.693752 265.073334 
L 228.697032 265.789892 
L 228.778487 265.243688 
L 228.824454 265.794096 
L 228.826268 264.713485 
L 228.826318 263.653905 
L 228.878604 265.797142 
L 228.917463 265.793903 
L 230.0029 265.698322 
L 230.0029 265.60847 
L 230.078574 265.797131 
L 230.103685 265.79673 
L 230.123244 217.29415 
L 230.223969 236.51554 
L 230.233021 236.754399 
L 230.341811 250.562939 
L 230.350892 250.876411 
L 230.432168 264.630534 
L 230.459682 264.629823 
L 230.542803 264.626855 
L 231.131483 264.709852 
L 231.131582 265.78568 
L 231.213297 265.781945 
L 231.723323 265.696768 
L 231.759729 217.292792 
L 231.731338 265.795371 
L 231.831265 224.408407 
L 231.840327 224.687782 
L 231.949386 234.67124 
L 231.958438 234.969118 
L 232.067547 252.015129 
L 232.076568 252.028481 
L 232.076578 252.109874 
L 232.076628 252.454508 
L 232.144745 242.405977 
L 232.185578 247.920721 
L 232.194639 248.180562 
L 232.303619 260.649135 
L 232.31268 260.930361 
L 232.36716 265.7825 
L 232.580254 265.676698 
L 232.580254 265.400419 
L 232.684927 265.797743 
L 232.825856 265.687025 
L 232.83127 261.902106 
L 232.926891 265.797607 
L 232.934018 265.794543 
L 233.667595 265.690252 
L 233.667595 265.670522 
L 233.672201 265.793912 
L 233.775159 265.761421 
L 234.403316 265.785116 
L 234.403316 265.775368 
L 234.403316 265.771539 
L 234.408211 265.792104 
L 234.511238 265.773322 
L 234.626239 265.786579 
L 236.038365 265.675608 
L 236.038365 265.409103 
L 236.125772 265.795241 
L 236.143945 265.784946 
L 239.681249 265.752981 
L 239.790388 265.794004 
L 239.751529 265.665042 
L 239.790388 265.779895 
L 242.072295 265.665408 
L 242.072295 265.655672 
L 242.077529 265.772555 
L 242.180477 265.690983 
L 242.359178 265.727515 
L 242.46429 265.526591 
L 242.441052 265.76606 
L 242.468317 265.741892 
L 242.913655 265.628754 
L 242.913655 265.585379 
L 242.985999 265.792808 
L 243.019305 265.759313 
L 243.125523 265.770527 
L 243.621812 265.785813 
L 243.773318 265.673821 
L 243.773318 265.578309 
L 243.839711 265.793996 
L 243.866966 265.76295 
L 244.091354 265.794297 
L 244.091354 265.779008 
L 244.126584 265.766959 
L 244.189996 265.793194 
L 244.642801 265.680945 
L 244.642801 265.400073 
L 244.648224 265.790856 
L 244.748171 265.749134 
L 245.20598 265.762135 
L 245.494827 265.323806 
L 245.502304 265.51861 
L 245.611343 265.77055 
L 245.673479 265.767044 
L 245.673479 264.5723 
L 245.684136 265.777068 
L 245.779916 265.768902 
L 245.87484 265.711937 
L 245.923039 265.767725 
L 245.994765 265.774953 
L 248.15585 265.663586 
L 248.15585 265.659718 
L 248.227825 265.76943 
L 248.264072 265.751515 
L 248.391204 265.777763 
L 250.181608 265.681059 
L 250.181608 265.464544 
L 250.199193 265.78486 
L 250.201735 265.783838 
L 254.960182 265.792322 
L 254.960182 265.713131 
L 254.960182 265.667482 
L 254.996678 265.784305 
L 255.051666 265.782813 
L 255.982656 265.783806 
L 255.982656 265.49183 
L 256.051511 265.788936 
L 256.697043 265.670335 
L 256.697043 265.518698 
L 256.764213 265.786268 
L 256.781509 265.783136 
L 260.148973 265.664612 
L 260.148973 264.984744 
L 260.209374 265.789931 
L 260.259388 265.765664 
L 260.401604 265.79374 
L 260.401604 265.735744 
L 260.43468 265.698249 
L 260.421601 265.797523 
L 260.50835 265.789757 
L 260.543121 265.67806 
L 260.543121 265.638641 
L 260.567146 265.797117 
L 260.630708 265.794691 
L 260.997611 265.695019 
L 260.997611 265.542968 
L 261.084948 265.797761 
L 261.098146 265.779511 
L 261.565765 265.787491 
L 261.859706 265.587977 
L 261.969902 265.792894 
L 262.067786 265.768633 
L 262.085082 265.57899 
L 262.106156 265.797351 
L 262.13987 265.781059 
L 262.333116 265.78735 
L 263.104416 265.681714 
L 263.104416 265.554844 
L 263.201971 265.795494 
L 264.107191 265.736382 
L 264.107201 265.236068 
L 264.112186 265.783697 
L 267.030643 265.784622 
L 267.030643 265.714903 
L 267.030643 265.667037 
L 267.065784 265.78969 
L 267.138506 265.788858 
L 268.093093 265.788096 
L 268.093093 265.708404 
L 268.093093 265.617074 
L 268.102045 265.792416 
L 269.626559 265.796322 
L 269.626559 265.688423 
L 269.626559 265.467359 
L 269.63589 265.79767 
L 269.724882 265.781069 
L 269.968431 265.786908 
L 270.608171 265.797061 
L 270.611252 265.614549 
L 270.708159 265.786319 
L 272.206306 265.630158 
L 272.206316 265.24211 
L 272.217391 265.795583 
L 272.317299 265.791914 
L 275.658864 265.641748 
L 275.658864 265.634662 
L 275.703784 265.796956 
L 275.731238 265.790671 
L 279.223752 265.780419 
L 279.27555 265.611561 
L 279.331146 265.783907 
L 280.086904 265.789431 
L 280.190988 265.781864 
L 280.190988 265.683261 
L 280.190988 265.65003 
L 280.195943 265.787662 
L 280.299579 265.779022 
L 285.137049 265.586477 
L 285.137049 265.475839 
L 285.150666 265.792748 
L 285.215922 265.790597 
L 285.983094 265.677294 
L 285.983094 265.31059 
L 285.987879 265.782635 
L 286.077948 265.720732 
L 286.223852 265.74947 
L 286.223852 265.747328 
L 286.436686 265.571514 
L 286.559562 265.695113 
L 286.839448 265.602945 
L 286.839448 265.446374 
L 286.924851 265.712012 
L 286.943363 265.702917 
L 287.701294 265.60146 
L 287.746662 265.405339 
L 287.749962 265.715755 
L 287.802158 265.622336 
L 287.92633 265.562421 
L 287.98066 265.396846 
L 288.02883 265.459404 
L 288.125049 265.489607 
L 288.231616 265.602056 
L 288.231616 265.598692 
L 289.056996 265.752142 
L 289.056996 265.750228 
L 290.288168 265.639852 
L 290.374418 265.586041 
L 290.394695 265.644244 
L 291.332514 265.512508 
L 291.333092 265.55131 
L 291.512052 265.696416 
L 292.117032 265.590036 
L 292.270223 265.61426 
L 292.339068 265.650914 
L 292.366881 265.602138 
L 292.54629 265.632823 
L 292.54629 265.632823 
L 293.123157 265.708702 
L 293.270357 265.748406 
L 293.744006 265.636997 
L 293.826438 265.52746 
L 293.853783 265.566262 
L 293.970199 265.713565 
L 296.336134 265.640813 
L 296.352832 265.408399 
L 296.421148 265.699415 
L 296.540904 265.588445 
L 296.641639 265.515907 
L 296.780734 265.464352 
L 296.852829 265.268235 
L 297.177933 265.15619 
L 297.253736 265.06034 
L 297.275408 265.370757 
L 297.750144 265.342904 
L 298.053536 265.237705 
L 298.123298 264.937248 
L 298.158189 265.123636 
L 298.492454 265.169122 
L 298.607265 265.420498 
L 298.923297 265.389235 
L 299.12088 265.757169 
L 299.12088 265.69462 
L 299.12088 265.617714 
L 299.131786 265.753521 
L 299.228683 265.737314 
L 301.077763 265.777841 
L 301.185008 265.797117 
L 301.185008 265.796523 
L 303.268197 265.739272 
L 303.268197 265.650982 
L 303.345076 265.774255 
L 303.375571 265.767608 
L 304.064518 265.659993 
L 304.131129 265.616436 
L 304.13417 265.655238 
L 304.595398 265.687185 
L 304.725781 265.78419 
L 304.99166 265.688867 
L 304.99166 265.63663 
L 305.100659 265.716784 
L 305.457543 265.687102 
L 305.457543 265.493362 
L 305.48416 265.716386 
L 309.400898 265.64923 
L 309.400898 263.929968 
L 309.492661 265.517626 
L 310.248459 265.52472 
L 310.358943 265.794389 
L 310.389079 265.712368 
L 310.461533 265.788332 
L 310.952239 265.67978 
L 310.952249 265.499968 
L 311.026895 265.79137 
L 311.058427 265.780119 
L 311.833624 265.659808 
L 311.833634 265.490402 
L 311.904363 265.789962 
L 311.93073 265.78916 
L 314.421824 265.671276 
L 314.421824 265.4707 
L 314.422302 265.783945 
L 314.531352 265.779041 
L 314.727798 265.777764 
L 314.833627 265.796114 
L 314.833627 265.795086 
L 315.486416 265.779778 
L 315.589026 265.611743 
L 315.592515 265.631144 
L 315.661399 265.738416 
L 315.661399 265.732335 
L 316.269509 265.737229 
L 316.285868 264.79719 
L 316.378618 265.704986 
L 316.524562 265.77018 
L 316.524562 265.765561 
L 320.785124 265.651868 
L 320.785124 265.608892 
L 320.824521 265.756544 
L 320.89536 265.738116 
L 320.915517 265.758282 
L 321.386644 265.650188 
L 321.386644 265.611211 
L 321.388648 265.730415 
L 321.475616 265.685065 
L 322.159618 265.57174 
L 322.159618 265.428747 
L 322.270392 265.783285 
L 323.025252 265.671227 
L 323.025252 265.582551 
L 323.129168 265.788623 
L 323.890618 265.699717 
L 323.890618 265.416113 
L 323.891276 265.794729 
L 323.981204 265.782141 
L 324.187908 265.783049 
L 326.874351 265.678862 
L 326.874351 265.485219 
L 326.876973 265.783988 
L 326.928353 265.783076 
L 327.000328 265.71024 
L 327.000328 265.612933 
L 327.013347 265.797795 
L 327.036156 265.793261 
L 328.238856 265.767581 
L 328.238856 265.729256 
L 328.238856 265.671768 
L 328.252215 265.788507 
L 328.335873 265.785676 
L 328.364494 265.59956 
L 328.36889 265.793565 
L 328.440187 265.79778 
L 329.984829 265.688155 
L 330.043456 265.395985 
L 330.047732 265.791555 
L 330.079084 265.790507 
L 333.784423 265.740113 
L 333.784423 262.853423 
L 333.793634 265.777982 
L 333.82055 265.776961 
L 336.083158 265.695861 
L 336.083158 265.638123 
L 336.094143 265.793331 
L 336.1913 265.762741 
L 336.370151 265.658797 
L 336.370151 265.499011 
L 336.371506 265.791863 
L 338.552918 265.680614 
L 338.566924 265.270159 
L 338.671268 265.367164 
L 338.681556 265.580575 
L 338.845743 265.469463 
L 338.893394 264.540586 
L 338.932791 265.257363 
L 338.961531 265.225559 
L 339.063213 265.661511 
L 339.063213 265.658575 
L 339.391258 265.543493 
L 339.419769 265.522177 
L 339.468416 265.657996 
L 339.498403 265.557815 
L 339.605947 265.751866 
L 339.64009 265.643853 
L 339.64009 265.618933 
L 339.658293 265.755868 
L 339.726699 265.74557 
L 339.852815 265.736337 
L 339.888085 265.755586 
L 339.888085 265.753805 
L 340.249804 265.644734 
L 340.282731 265.568904 
L 340.33432 265.756672 
L 340.355564 265.755049 
L 340.463945 265.739294 
L 340.466427 265.758695 
L 341.144218 265.648193 
L 341.171154 265.725797 
L 341.257365 265.672916 
L 341.360303 265.700546 
L 341.470858 265.594192 
L 341.470858 265.479621 
L 341.571044 265.737948 
L 342.864581 265.619901 
L 343.187731 265.691328 
L 344.873043 265.66081 
L 344.933165 265.087513 
L 344.981225 265.111943 
L 345.086725 265.728065 
L 345.12699 265.716755 
L 348.110614 265.619707 
L 348.110614 265.550683 
L 348.206624 265.77756 
L 348.215636 265.757777 
L 350.593613 265.642392 
L 350.694976 265.102849 
L 350.733306 265.022581 
L 350.866141 265.621194 
L 351.081448 265.510403 
L 351.110547 265.522062 
L 351.154749 265.500121 
L 352.378603 265.728979 
L 352.378603 265.724949 
L 352.412099 265.710131 
L 352.416515 265.729532 
L 352.482439 265.727317 
L 352.590391 265.719367 
L 352.663772 265.757061 
L 352.663772 265.702424 
L 352.677838 265.498142 
L 352.723824 265.750356 
L 352.733155 265.738154 
L 352.8405 265.757105 
L 352.8405 265.751946 
L 356.219349 265.711797 
L 356.219349 265.615758 
L 356.229706 265.790367 
L 356.309955 265.774024 
L 356.335017 265.793425 
L 356.801539 265.691025 
L 356.857863 265.576446 
L 356.874261 265.770456 
L 359.450369 265.663181 
L 359.538783 265.623212 
L 360.292796 265.620173 
L 360.472515 265.791505 
L 362.638355 265.65114 
L 362.710898 265.558159 
L 362.744732 265.576124 
L 362.785345 265.575637 
L 362.792692 265.789048 
L 362.859035 265.783875 
L 363.204984 265.683646 
L 363.204984 265.631576 
L 363.243553 265.786785 
L 363.514466 265.683506 
L 363.576114 265.517755 
L 363.594357 265.769969 
L 363.621631 265.722601 
L 363.710474 265.766505 
L 363.710474 265.76282 
L 364.370441 265.652805 
L 364.370451 265.462519 
L 364.452325 265.767031 
L 364.468046 265.758416 
L 364.68418 265.771436 
L 364.68418 265.770344 
L 364.756594 265.739054 
L 364.763133 265.777856 
L 368.691764 265.659716 
L 368.740083 265.603649 
L 368.863098 265.607775 
L 368.963863 265.75847 
L 368.983193 265.725801 
L 369.060322 265.68565 
L 368.989673 265.744187 
L 369.073281 265.743854 
L 373.288426 265.75799 
L 373.359135 265.795853 
L 374.372238 265.696291 
L 374.372238 265.63613 
L 374.385936 265.791338 
L 375.173035 265.679071 
L 375.191129 265.36271 
L 375.640494 265.448551 
L 375.731998 265.793686 
L 375.765643 265.782314 
L 376.489032 265.583047 
L 376.573568 265.496618 
L 376.595031 265.748831 
L 378.214708 265.653389 
L 378.245572 265.547502 
L 378.249729 265.760914 
L 381.604244 265.701526 
L 381.631259 265.631376 
L 381.638855 265.728381 
L 381.668762 265.722235 
L 389.368316 265.590518 
L 389.407393 265.553534 
L 389.463319 265.786347 
L 390.264943 265.625824 
L 390.299455 265.497703 
L 390.317698 265.769317 
L 390.335971 265.740899 
L 390.378658 265.736643 
L 390.391607 265.416006 
L 390.427475 265.7534 
L 390.479014 265.721812 
L 390.587744 265.751871 
L 390.595281 265.697018 
L 390.595281 265.685633 
L 390.614132 265.743836 
L 393.639924 265.62591 
L 393.724819 265.355266 
L 393.747438 265.529876 
L 393.752283 265.522452 
L 393.851802 265.792678 
L 393.997736 265.681467 
L 394.005332 265.423585 
L 394.067488 265.793951 
L 394.075183 265.79293 
L 394.831081 265.680653 
L 394.831081 265.391504 
L 394.89845 265.789901 
L 394.934498 265.783353 
L 395.492842 265.767045 
L 398.487273 265.791424 
L 398.487273 265.791424 
" style="fill:none;stroke:#ff0000;stroke-linecap:square;stroke-width:1.5;"/>
   </g>
   <g id="line2d_27">
    <path clip-path="url(#pf6a14b4fba)" d="M 73.832727 265.797818 
L 76.416651 265.662011 
L 76.416651 261.374383 
L 77.277959 261.180373 
L 77.277959 258.037405 
L 78.139266 257.901598 
L 78.139266 256.504724 
L 79.000574 256.310714 
L 79.000574 246.357984 
L 79.000574 246.687802 
L 79.578548 246.493792 
L 79.598146 230.972966 
L 79.788551 230.778956 
L 79.861882 220.267421 
L 79.861882 220.560398 
L 80.030944 220.369826 
L 80.103856 219.213856 
L 80.72319 218.922841 
L 80.72319 217.719977 
L 81.584498 217.370758 
L 81.584498 217.351357 
L 81.584498 217.351611 
L 82.445806 217.254606 
L 82.445806 217.079996 
L 82.445806 217.37271 
L 85.891037 217.198101 
L 85.891037 217.1787 
L 85.891037 217.37271 
L 87.613653 217.314507 
L 87.613653 217.139898 
L 87.613653 217.333908 
L 91.058884 217.139898 
L 91.058884 217.159299 
L 91.058884 217.353309 
L 103.978501 217.242908 
L 103.978501 217.246266 
L 103.978501 217.441812 
L 104.839809 217.344806 
L 104.839809 217.111994 
L 104.839809 217.211196 
L 105.701117 217.09479 
L 105.701117 217.075389 
L 105.701117 217.202898 
L 106.562425 217.086492 
L 106.562425 217.067091 
L 106.562425 217.111916 
L 109.146348 216.97946 
L 109.146348 216.863053 
L 109.146348 217.136244 
L 110.007656 217.019838 
L 110.007656 216.981036 
L 110.007656 217.028553 
L 110.868964 216.912147 
L 110.868964 216.58233 
L 110.868964 216.809604 
L 111.730272 216.693198 
L 111.730272 216.634995 
L 111.730272 216.679645 
L 112.59158 216.563239 
L 112.59158 216.485635 
L 112.59158 216.644645 
L 115.175503 216.492519 
L 115.175503 216.279107 
L 115.175503 216.391663 
L 116.898119 216.26328 
L 116.898119 213.430729 
L 116.898119 213.441893 
L 117.463482 213.247883 
L 117.476641 209.425879 
L 117.759427 209.348275 
L 117.759427 208.145411 
L 117.759427 208.652701 
L 118.620735 208.555696 
L 118.620735 208.051269 
L 118.620735 208.25373 
L 120.34335 208.003392 
L 121.204658 207.886986 
L 121.204658 207.828783 
L 121.204658 208.011987 
L 122.927274 207.86462 
L 122.927274 207.959212 
L 122.927274 207.978613 
L 123.788582 207.862207 
L 123.788582 207.842806 
L 123.788582 207.889351 
L 123.788582 207.889351 
L 124.649889 207.772945 
L 124.649889 207.753544 
L 124.649889 207.790567 
L 127.233813 207.635545 
L 127.233813 207.305728 
L 127.233813 207.542083 
L 128.956429 207.40054 
L 128.956429 207.342337 
L 128.956429 207.348359 
L 130.679044 207.201479 
L 130.679044 207.182078 
L 130.679044 207.209065 
L 133.262968 207.074125 
L 133.262968 206.938318 
L 133.262968 207.17737 
L 134.124275 207.060963 
L 134.124275 206.963958 
L 134.124275 207.067894 
L 134.985583 206.951488 
L 134.985583 206.854483 
L 134.985583 206.932897 
L 136.708199 206.797583 
L 136.708199 206.73938 
L 136.708199 206.787496 
L 140.15343 206.615117 
L 140.15343 206.595716 
L 140.15343 206.601017 
L 148.766509 206.368694 
L 148.766509 205.844866 
L 148.766509 206.349906 
L 152.21174 206.294455 
L 152.21174 206.275054 
L 152.21174 206.003439 
L 152.21174 206.138195 
L 152.802793 206.250631 
L 152.832719 206.876147 
L 152.832849 207.488479 
L 152.833108 206.712438 
L 153.070755 206.707228 
L 153.073048 206.455275 
L 153.073048 206.48527 
L 153.934356 206.368864 
L 153.934356 205.786833 
L 153.934356 206.202672 
L 154.795663 206.16387 
L 154.795663 205.96986 
L 154.795663 205.988294 
L 157.379587 205.952826 
L 157.379587 205.894623 
L 157.379587 205.83642 
L 157.379587 205.869046 
L 159.102203 205.734124 
L 159.102203 205.714723 
L 159.102203 205.73973 
L 162.547434 205.6139 
L 162.547434 205.617553 
L 163.408742 205.423543 
L 163.408742 205.248934 
L 163.408742 205.402837 
L 165.992665 205.236242 
L 165.992665 205.042231 
L 165.992665 205.120281 
L 172.02182 204.886898 
L 172.02182 204.848096 
L 172.02182 204.891971 
L 178.912283 204.626322 
L 178.912283 204.568119 
L 178.912283 204.595802 
L 181.496206 204.443563 
L 181.496206 204.404761 
L 181.496206 204.441268 
L 183.218822 204.298129 
L 183.218822 204.278728 
L 183.218822 204.30665 
L 187.525361 204.110053 
L 187.525361 203.935443 
L 187.525361 204.038735 
L 188.386669 203.922329 
L 188.386669 203.902928 
L 188.386669 203.945159 
L 190.109285 203.832073 
L 190.109285 203.754469 
L 190.109285 203.812436 
L 193.554516 203.623955 
L 193.554516 203.585153 
L 193.554516 203.64218 
L 196.138439 203.473175 
L 196.138439 203.453774 
L 196.138439 203.501939 
L 199.583671 203.409481 
L 199.583671 202.614039 
L 199.583671 202.745469 
L 201.306286 202.697976 
L 201.306286 202.698345 
L 201.306286 203.862407 
L 202.167594 203.843005 
L 202.167594 202.678944 
L 202.167594 202.697692 
L 205.612826 202.523841 
L 205.612826 202.50444 
L 205.612826 202.560948 
L 208.196749 202.401677 
L 208.196749 202.285271 
L 208.196749 202.313419 
L 211.64198 202.15818 
L 211.64198 202.119378 
L 211.64198 202.182405 
L 213.364596 202.047597 
L 213.364596 202.008795 
L 213.364596 202.231862 
L 214.225904 201.99905 
L 214.225904 201.727435 
L 214.225904 201.942247 
L 215.087212 201.910658 
L 215.087212 201.871856 
L 215.087212 201.75545 
L 215.087212 201.894582 
L 215.94852 201.758888 
L 215.94852 201.739487 
L 215.94852 201.742902 
L 218.532443 201.588113 
L 218.532443 201.510509 
L 218.532443 201.555993 
L 220.255059 201.408337 
L 220.255059 201.369535 
L 220.255059 201.382138 
L 226.284213 201.198949 
L 226.284213 200.907934 
L 226.364732 201.048918 
L 226.904345 201.103851 
L 226.904903 201.041197 
L 226.907545 201.565836 
L 226.910257 201.101749 
L 227.145521 201.383564 
L 227.145521 201.383564 
L 227.713845 201.425931 
L 227.895437 201.611376 
L 227.896753 202.534579 
L 227.900272 201.482288 
L 228.584932 201.422538 
L 228.585142 204.85644 
L 228.693752 202.633122 
L 228.697032 201.934799 
L 228.778487 202.481002 
L 228.824454 201.957174 
L 228.826268 202.98562 
L 228.826318 204.097365 
L 228.878604 202.038882 
L 228.917463 202.048904 
L 229.729445 201.622082 
L 229.729445 200.128202 
L 229.729445 200.155136 
L 230.00607 200.040956 
L 230.078574 199.963971 
L 230.124091 199.906109 
L 230.23312 181.439548 
L 230.242073 181.16816 
L 230.350922 168.551822 
L 230.359944 168.299609 
L 230.432168 155.322024 
L 230.469063 155.359185 
L 230.590753 155.320414 
L 230.590753 155.342141 
L 231.131483 155.212468 
L 231.213297 154.102453 
L 231.276908 154.08068 
L 231.45206 152.916618 
L 231.522331 152.982504 
L 231.731298 152.866325 
L 231.840347 145.182095 
L 231.849399 144.910481 
L 231.958458 135.21961 
L 231.967549 134.948957 
L 232.0857 116.462148 
L 232.094772 115.16906 
L 232.203741 103.002983 
L 232.212783 102.577838 
L 232.321772 89.968366 
L 232.358059 88.380637 
L 232.36716 87.935244 
L 232.585039 87.898159 
L 232.684927 87.477427 
L 232.830432 87.36248 
L 232.926891 83.75679 
L 233.174676 83.718043 
L 233.174676 83.812495 
L 233.174676 83.934044 
L 233.672171 83.760954 
L 233.7812 83.640055 
L 233.83564 83.521039 
L 234.897292 83.454398 
L 236.043968 83.298685 
L 236.143945 83.031252 
L 236.380237 82.797519 
L 237.816308 82.45058 
L 237.889001 82.315053 
L 239.203831 82.217107 
L 239.203831 82.35152 
L 239.203831 82.378909 
L 239.669834 82.27935 
L 239.833313 82.007549 
L 241.787754 81.964489 
L 241.787754 82.096238 
L 241.787754 82.601646 
L 242.341115 82.37497 
L 242.468317 81.72737 
L 244.371678 81.120514 
L 244.371678 81.15739 
L 244.371678 81.31011 
L 244.430185 81.305289 
L 244.648224 81.111832 
L 244.748171 80.742042 
L 244.884505 80.6324 
L 245.232986 80.612999 
L 245.232986 80.699423 
L 245.232986 82.1545 
L 245.502304 81.961625 
L 245.611343 81.672378 
L 245.674954 81.287238 
L 245.774962 80.460376 
L 246.892549 80.346754 
L 246.892549 80.327659 
L 246.955601 80.342605 
L 248.264072 80.184712 
L 248.391204 80.107652 
L 249.09975 79.924947 
L 249.345182 79.809502 
L 249.539525 79.919022 
L 249.539525 80.150591 
L 249.554209 80.137423 
L 250.190062 80.032324 
L 250.199193 79.745444 
L 251.534848 79.665509 
L 251.607541 79.626818 
L 254.707372 79.516251 
L 254.707372 79.676925 
L 254.707372 79.791049 
L 254.707372 79.791049 
L 255.360062 79.58536 
L 255.432785 79.517211 
L 255.56868 79.46866 
L 255.56868 79.472667 
L 255.56868 79.804541 
L 255.987889 79.706948 
L 256.051511 79.458293 
L 256.429988 79.358263 
L 256.429988 79.403055 
L 256.855189 79.114795 
L 259.875219 78.924569 
L 259.875219 78.962099 
L 259.875219 79.271312 
L 260.154735 79.194045 
L 260.263924 78.223506 
L 260.421601 78.02581 
L 260.567146 77.761043 
L 261.003133 77.723175 
L 261.084948 77.511764 
L 261.32111 77.299597 
L 261.502802 77.20452 
L 261.597835 77.20452 
L 261.597835 77.205118 
L 261.597835 77.695507 
L 262.087983 77.270646 
L 262.178789 77.060273 
L 262.459142 77.004966 
L 262.459142 77.046629 
L 262.459142 77.282743 
L 262.459142 77.282743 
L 262.874325 77.117725 
L 262.937976 77.067376 
L 263.110845 76.935608 
L 263.201971 76.762646 
L 263.32045 76.82802 
L 263.32045 77.314176 
L 264.112136 77.151869 
L 264.181758 76.635853 
L 264.181758 76.636115 
L 266.393206 76.499749 
L 266.647651 76.345107 
L 267.083997 76.227632 
L 267.165891 76.181785 
L 267.626989 76.11833 
L 267.626989 76.227592 
L 267.626989 76.311251 
L 268.102035 76.217605 
L 268.102045 76.101946 
L 268.783883 76.002258 
L 269.011322 75.887396 
L 269.349605 75.829238 
L 269.349605 75.867021 
L 269.349605 76.021433 
L 269.626729 75.897364 
L 269.699501 75.680513 
L 270.210913 75.47446 
L 270.210913 75.479498 
L 270.210913 75.674462 
L 270.608171 75.669586 
L 270.708159 75.494684 
L 271.933529 75.557758 
L 272.317299 74.891843 
L 272.38088 74.814947 
L 274.254085 74.480262 
L 274.290462 74.441809 
L 275.858391 74.346601 
L 276.621964 74.224167 
L 278.367727 74.117549 
L 278.732437 74.040005 
L 278.823991 74.048547 
L 278.823991 74.232704 
L 278.841427 74.229503 
L 279.277912 74.088664 
L 279.314299 73.990759 
L 279.685299 73.956779 
L 279.685299 73.992295 
L 279.685299 74.090898 
L 279.732312 74.090493 
L 280.195903 73.991995 
L 280.23221 73.901704 
L 280.546607 73.861587 
L 280.546607 73.877623 
L 281.407915 73.806178 
L 281.407915 73.689772 
L 281.407915 73.813974 
L 283.991838 73.63421 
L 283.991838 73.671783 
L 283.991838 73.850152 
L 284.768431 73.470442 
L 284.853146 73.354276 
L 284.853146 73.504321 
L 285.141594 73.310311 
L 285.205176 73.155746 
L 285.714454 72.995824 
L 285.714454 72.801813 
L 285.714454 73.237367 
L 285.987849 73.121136 
L 285.987879 72.771917 
L 286.297392 72.65195 
L 286.351941 72.587453 
L 286.842986 72.420917 
L 286.924851 72.259221 
L 287.106473 72.149182 
L 287.43707 71.702958 
L 287.43707 71.450745 
L 287.43707 71.729489 
L 288.298377 71.710088 
L 288.298377 71.574281 
L 288.298377 71.576311 
L 290.020993 71.404134 
L 290.020993 71.13252 
L 290.020993 71.372812 
L 290.882301 71.295208 
L 290.882301 70.984792 
L 290.882301 71.028918 
L 291.743609 70.931912 
L 291.743609 70.796105 
L 291.743609 70.96567 
L 292.604917 70.888066 
L 292.604917 70.752259 
L 292.604917 70.764265 
L 293.466224 70.686661 
L 293.466224 70.512052 
L 293.466224 70.58502 
L 295.18884 70.447758 
L 295.18884 70.428357 
L 295.18884 70.42906 
L 296.050148 70.118643 
L 296.050148 70.099242 
L 296.050148 70.356061 
L 296.911456 70.006843 
L 296.911456 70.032313 
L 297.772764 69.838303 
L 297.772764 69.430881 
L 297.772764 69.520703 
L 298.634071 69.307291 
L 298.634071 68.880469 
L 298.634071 69.04334 
L 300.356687 68.813811 
L 300.356687 68.814067 
L 302.079303 68.698388 
L 302.079303 68.601383 
L 302.079303 68.682 
L 304.663226 68.236408 
L 304.663226 68.158804 
L 304.663226 68.420138 
L 305.475039 68.318531 
L 305.524534 68.14424 
L 305.524534 68.299076 
L 305.865947 68.165733 
L 306.385842 68.070853 
L 306.385842 68.076713 
L 308.969765 67.991998 
L 308.969765 66.614525 
L 308.969765 68.440313 
L 309.258154 68.324656 
L 309.34904 68.286203 
L 309.403719 68.15328 
L 309.431073 67.992606 
L 309.831073 67.894417 
L 309.831073 67.997518 
L 310.21284 67.934011 
L 310.358943 67.666163 
L 310.958798 67.565166 
L 311.040523 67.449327 
L 311.840692 67.200713 
L 311.904363 67.123688 
L 312.186102 66.929202 
L 312.414997 66.834899 
L 312.414997 66.835964 
L 314.137612 66.780131 
L 314.137612 66.810397 
L 314.137612 66.992207 
L 314.422273 66.878526 
L 314.531352 66.497163 
L 314.594943 66.324335 
L 314.658634 66.266359 
L 314.99892 66.072587 
L 314.99892 65.994983 
L 314.99892 66.234896 
L 315.860228 66.023365 
L 315.860228 65.984563 
L 315.860228 67.068326 
L 316.269509 67.007299 
L 316.414934 66.095703 
L 317.02425 65.984628 
L 317.115156 65.898026 
L 317.582844 65.861525 
L 317.582844 65.92787 
L 320.166767 65.73602 
L 320.166767 65.483807 
L 320.166767 65.763175 
L 320.587751 65.653505 
L 320.888182 65.524161 
L 321.028075 65.427629 
L 321.028075 65.491326 
L 321.315995 65.440677 
L 321.561238 65.267786 
L 321.889383 65.194512 
L 321.889383 65.336398 
L 321.889383 65.346832 
L 322.161263 65.231873 
L 322.243017 64.894915 
L 323.891276 64.372749 
L 323.891276 64.183243 
L 324.409536 64.139545 
L 324.473306 64.139545 
L 324.473306 64.235567 
L 324.473306 64.251753 
L 325.729709 64.137093 
L 326.195922 64.040327 
L 326.195922 64.133714 
L 326.195922 64.411118 
L 326.867932 64.245546 
L 326.876973 63.96464 
L 327.1405 63.823665 
L 327.918538 63.628915 
L 327.918538 63.633492 
L 327.918538 63.946537 
L 328.00425 63.943737 
L 328.195841 63.917418 
L 328.36889 63.604035 
L 328.588125 63.516555 
L 329.302213 63.411407 
L 329.641153 63.392246 
L 329.641153 63.424335 
L 329.641153 64.010412 
L 329.993193 63.85652 
L 330.047732 63.394127 
L 331.189932 63.290345 
L 332.225077 63.271033 
L 332.225077 63.154627 
L 332.225077 63.343451 
L 332.746816 63.239511 
L 333.086385 63.215798 
L 333.086385 63.242177 
L 333.086385 66.068088 
L 333.784532 66.002056 
L 333.793634 63.319545 
L 335.670308 63.040147 
L 335.670308 63.186138 
L 335.670308 63.347017 
L 336.240147 63.343252 
L 336.531616 63.054654 
L 336.531616 63.054844 
L 338.254232 63.016049 
L 338.254232 62.007195 
L 338.254232 62.805497 
L 339.115539 62.630887 
L 339.115539 62.126461 
L 339.115539 62.239101 
L 339.976847 61.967487 
L 339.976847 61.870481 
L 339.976847 61.933538 
L 340.838155 61.817131 
L 340.838155 61.448512 
L 340.838155 61.738698 
L 341.699463 61.641692 
L 341.699463 61.486484 
L 341.699463 61.676957 
L 344.283386 61.29509 
L 344.283386 60.693658 
L 344.283386 61.301818 
L 345.144694 61.166011 
L 345.144694 61.180599 
L 346.006002 60.967188 
L 346.006002 60.870182 
L 346.006002 60.944678 
L 347.728618 60.820462 
L 347.728618 60.568249 
L 347.728618 60.739865 
L 350.312541 60.667754 
L 350.312541 59.872311 
L 350.312541 60.098314 
L 351.173849 60.078913 
L 351.173849 59.729695 
L 351.173849 59.7867 
L 352.035157 59.709096 
L 352.035157 59.437482 
L 352.035157 59.683457 
L 352.896465 59.567051 
L 352.896465 59.431244 
L 352.896465 59.516144 
L 353.757773 59.399737 
L 353.757773 59.302732 
L 353.757773 59.402567 
L 355.480388 59.363991 
L 355.480388 59.169981 
L 355.480388 59.377894 
L 356.341696 59.319691 
L 356.341696 59.067478 
L 356.341696 59.295269 
L 357.203004 59.217665 
L 357.203004 59.062457 
L 357.203004 59.184048 
L 358.92562 59.029202 
L 358.92562 59.165917 
L 358.92562 59.200865 
L 359.786927 59.162063 
L 359.786927 58.890448 
L 359.786927 58.958929 
L 361.509543 58.941466 
L 361.509543 58.94169 
L 362.370851 58.708878 
L 362.370851 58.437263 
L 362.370851 58.66638 
L 363.232159 58.49177 
L 363.232159 58.10375 
L 363.232159 58.171559 
L 364.093467 58.035752 
L 364.093467 57.686533 
L 364.093467 57.787488 
L 364.954774 57.671082 
L 364.954774 57.554676 
L 364.954774 57.6132 
L 366.67739 57.501226 
L 366.67739 57.462424 
L 366.67739 57.499091 
L 368.400006 57.36401 
L 368.400006 57.034193 
L 368.400006 57.120336 
L 369.261314 57.02333 
L 369.261314 56.693513 
L 369.261314 56.791496 
L 370.122621 56.655689 
L 370.122621 56.616887 
L 370.122621 56.678484 
L 370.983929 56.600879 
L 370.983929 56.503874 
L 370.983929 56.562424 
L 371.845237 56.465419 
L 371.845237 56.232606 
L 371.845237 56.314328 
L 372.706545 56.256125 
L 372.706545 56.262443 
L 373.567853 56.107235 
L 373.567853 56.215438 
L 373.567853 56.237704 
L 373.567853 56.237704 
L 374.429161 56.140699 
L 374.429161 56.196169 
L 375.290468 56.002159 
L 375.290468 55.594737 
L 375.290468 55.669834 
L 376.151776 55.631032 
L 376.151776 55.262412 
L 376.151776 55.391296 
L 377.013084 55.177885 
L 377.013084 55.158484 
L 377.013084 55.248677 
L 377.874392 54.977062 
L 377.874392 55.132868 
L 380.458315 55.019952 
L 380.458315 54.98115 
L 380.458315 55.031188 
L 381.319623 54.934183 
L 381.319623 55.007967 
L 383.903547 54.783639 
L 383.903547 54.744837 
L 383.903547 54.788385 
L 383.903547 54.788385 
L 386.48747 54.778281 
L 386.48747 54.506666 
L 386.48747 54.731676 
L 387.348778 54.615269 
L 387.348778 54.576467 
L 387.348778 54.684006 
L 388.210086 54.645204 
L 388.210086 54.470594 
L 388.210086 54.599381 
L 389.071394 54.521777 
L 389.071394 54.172558 
L 389.071394 54.219216 
L 389.932702 54.199815 
L 389.932702 53.481977 
L 389.932702 53.943753 
L 392.516625 53.822186 
L 392.516625 53.686378 
L 392.516625 53.739975 
L 393.377933 53.701173 
L 393.377933 52.769924 
L 393.377933 52.919226 
L 394.239241 52.764018 
L 394.239241 52.220789 
L 394.239241 52.639674 
L 395.100549 52.503867 
L 395.100549 52.309857 
L 395.100549 52.425796 
L 395.961856 52.328791 
L 395.961856 52.154182 
L 395.961856 52.198339 
L 397.684472 52.185883 
L 397.684472 52.186554 
" style="fill:none;stroke:#008000;stroke-linecap:square;stroke-width:1.5;"/>
   </g>
   <g id="line2d_28">
    <defs>
     <path d="M 0 3 
C 0.795609 3 1.55874 2.683901 2.12132 2.12132 
C 2.683901 1.55874 3 0.795609 3 0 
C 3 -0.795609 2.683901 -1.55874 2.12132 -2.12132 
C 1.55874 -2.683901 0.795609 -3 0 -3 
C -0.795609 -3 -1.55874 -2.683901 -2.12132 -2.12132 
C -2.683901 -1.55874 -3 -0.795609 -3 0 
C -3 0.795609 -2.683901 1.55874 -2.12132 2.12132 
C -1.55874 2.683901 -0.795609 3 0 3 
z
" id="m473cd6fbbe" style="stroke:#bfbf00;"/>
    </defs>
    <g clip-path="url(#pf6a14b4fba)">
     <use style="fill:#bfbf00;stroke:#bfbf00;" x="76.446836" xlink:href="#m473cd6fbbe" y="256.097302"/>
     <use style="fill:#bfbf00;stroke:#bfbf00;" x="79.37615" xlink:href="#m473cd6fbbe" y="226.995755"/>
     <use style="fill:#bfbf00;stroke:#bfbf00;" x="230.123244" xlink:href="#m473cd6fbbe" y="217.295239"/>
     <use style="fill:#bfbf00;stroke:#bfbf00;" x="231.759729" xlink:href="#m473cd6fbbe" y="217.295239"/>
     <use style="fill:#bfbf00;stroke:#bfbf00;" x="232.084294" xlink:href="#m473cd6fbbe" y="256.097302"/>
     <use style="fill:#bfbf00;stroke:#bfbf00;" x="232.144745" xlink:href="#m473cd6fbbe" y="256.097302"/>
     <use style="fill:#bfbf00;stroke:#bfbf00;" x="232.83127" xlink:href="#m473cd6fbbe" y="261.917612"/>
    </g>
   </g>
   <g id="line2d_29">
    <defs>
     <path d="M 0 3 
C 0.795609 3 1.55874 2.683901 2.12132 2.12132 
C 2.683901 1.55874 3 0.795609 3 0 
C 3 -0.795609 2.683901 -1.55874 2.12132 -2.12132 
C 1.55874 -2.683901 0.795609 -3 0 -3 
C -0.795609 -3 -1.55874 -2.683901 -2.12132 -2.12132 
C -2.683901 -1.55874 -3 -0.795609 -3 0 
C -3 0.795609 -2.683901 1.55874 -2.12132 2.12132 
C -1.55874 2.683901 -0.795609 3 0 3 
z
" id="m6082720257" style="stroke:#008000;"/>
    </defs>
    <g clip-path="url(#pf6a14b4fba)">
     <use style="fill:#008000;stroke:#008000;" x="117.400588" xlink:href="#m6082720257" y="257.534531"/>
     <use style="fill:#008000;stroke:#008000;" x="200.08634" xlink:href="#m6082720257" y="263.862953"/>
    </g>
   </g>
   <g id="patch_3">
    <path d="M 57.6 276.48 
L 57.6 41.472 
" style="fill:none;stroke:#000000;stroke-linecap:square;stroke-linejoin:miter;stroke-width:0.8;"/>
   </g>
   <g id="patch_4">
    <path d="M 414.72 276.48 
L 414.72 41.472 
" style="fill:none;stroke:#000000;stroke-linecap:square;stroke-linejoin:miter;stroke-width:0.8;"/>
   </g>
   <g id="patch_5">
    <path d="M 57.6 276.48 
L 414.72 276.48 
" style="fill:none;stroke:#000000;stroke-linecap:square;stroke-linejoin:miter;stroke-width:0.8;"/>
   </g>
   <g id="patch_6">
    <path d="M 57.6 41.472 
L 414.72 41.472 
" style="fill:none;stroke:#000000;stroke-linecap:square;stroke-linejoin:miter;stroke-width:0.8;"/>
   </g>
   <g id="text_15">
    <!-- My Bondora earnings -->
    <defs>
     <path d="M 9.8125 72.90625 
L 24.515625 72.90625 
L 43.109375 23.296875 
L 61.8125 72.90625 
L 76.515625 72.90625 
L 76.515625 0 
L 66.890625 0 
L 66.890625 64.015625 
L 48.09375 14.015625 
L 38.1875 14.015625 
L 19.390625 64.015625 
L 19.390625 0 
L 9.8125 0 
z
" id="DejaVuSans-4d"/>
     <path d="M 32.171875 -5.078125 
Q 28.375 -14.84375 24.75 -17.8125 
Q 21.140625 -20.796875 15.09375 -20.796875 
L 7.90625 -20.796875 
L 7.90625 -13.28125 
L 13.1875 -13.28125 
Q 16.890625 -13.28125 18.9375 -11.515625 
Q 21 -9.765625 23.484375 -3.21875 
L 25.09375 0.875 
L 2.984375 54.6875 
L 12.5 54.6875 
L 29.59375 11.921875 
L 46.6875 54.6875 
L 56.203125 54.6875 
z
" id="DejaVuSans-79"/>
     <path id="DejaVuSans-20"/>
     <path d="M 19.671875 34.8125 
L 19.671875 8.109375 
L 35.5 8.109375 
Q 43.453125 8.109375 47.28125 11.40625 
Q 51.125 14.703125 51.125 21.484375 
Q 51.125 28.328125 47.28125 31.5625 
Q 43.453125 34.8125 35.5 34.8125 
z
M 19.671875 64.796875 
L 19.671875 42.828125 
L 34.28125 42.828125 
Q 41.5 42.828125 45.03125 45.53125 
Q 48.578125 48.25 48.578125 53.8125 
Q 48.578125 59.328125 45.03125 62.0625 
Q 41.5 64.796875 34.28125 64.796875 
z
M 9.8125 72.90625 
L 35.015625 72.90625 
Q 46.296875 72.90625 52.390625 68.21875 
Q 58.5 63.53125 58.5 54.890625 
Q 58.5 48.1875 55.375 44.234375 
Q 52.25 40.28125 46.1875 39.3125 
Q 53.46875 37.75 57.5 32.78125 
Q 61.53125 27.828125 61.53125 20.40625 
Q 61.53125 10.640625 54.890625 5.3125 
Q 48.25 0 35.984375 0 
L 9.8125 0 
z
" id="DejaVuSans-42"/>
     <path d="M 30.609375 48.390625 
Q 23.390625 48.390625 19.1875 42.75 
Q 14.984375 37.109375 14.984375 27.296875 
Q 14.984375 17.484375 19.15625 11.84375 
Q 23.34375 6.203125 30.609375 6.203125 
Q 37.796875 6.203125 41.984375 11.859375 
Q 46.1875 17.53125 46.1875 27.296875 
Q 46.1875 37.015625 41.984375 42.703125 
Q 37.796875 48.390625 30.609375 48.390625 
z
M 30.609375 56 
Q 42.328125 56 49.015625 48.375 
Q 55.71875 40.765625 55.71875 27.296875 
Q 55.71875 13.875 49.015625 6.21875 
Q 42.328125 -1.421875 30.609375 -1.421875 
Q 18.84375 -1.421875 12.171875 6.21875 
Q 5.515625 13.875 5.515625 27.296875 
Q 5.515625 40.765625 12.171875 48.375 
Q 18.84375 56 30.609375 56 
z
" id="DejaVuSans-6f"/>
     <path d="M 54.890625 33.015625 
L 54.890625 0 
L 45.90625 0 
L 45.90625 32.71875 
Q 45.90625 40.484375 42.875 44.328125 
Q 39.84375 48.1875 33.796875 48.1875 
Q 26.515625 48.1875 22.3125 43.546875 
Q 18.109375 38.921875 18.109375 30.90625 
L 18.109375 0 
L 9.078125 0 
L 9.078125 54.6875 
L 18.109375 54.6875 
L 18.109375 46.1875 
Q 21.34375 51.125 25.703125 53.5625 
Q 30.078125 56 35.796875 56 
Q 45.21875 56 50.046875 50.171875 
Q 54.890625 44.34375 54.890625 33.015625 
z
" id="DejaVuSans-6e"/>
     <path d="M 41.109375 46.296875 
Q 39.59375 47.171875 37.8125 47.578125 
Q 36.03125 48 33.890625 48 
Q 26.265625 48 22.1875 43.046875 
Q 18.109375 38.09375 18.109375 28.8125 
L 18.109375 0 
L 9.078125 0 
L 9.078125 54.6875 
L 18.109375 54.6875 
L 18.109375 46.1875 
Q 20.953125 51.171875 25.484375 53.578125 
Q 30.03125 56 36.53125 56 
Q 37.453125 56 38.578125 55.875 
Q 39.703125 55.765625 41.0625 55.515625 
z
" id="DejaVuSans-72"/>
     <path d="M 9.421875 54.6875 
L 18.40625 54.6875 
L 18.40625 0 
L 9.421875 0 
z
M 9.421875 75.984375 
L 18.40625 75.984375 
L 18.40625 64.59375 
L 9.421875 64.59375 
z
" id="DejaVuSans-69"/>
     <path d="M 45.40625 27.984375 
Q 45.40625 37.75 41.375 43.109375 
Q 37.359375 48.484375 30.078125 48.484375 
Q 22.859375 48.484375 18.828125 43.109375 
Q 14.796875 37.75 14.796875 27.984375 
Q 14.796875 18.265625 18.828125 12.890625 
Q 22.859375 7.515625 30.078125 7.515625 
Q 37.359375 7.515625 41.375 12.890625 
Q 45.40625 18.265625 45.40625 27.984375 
z
M 54.390625 6.78125 
Q 54.390625 -7.171875 48.1875 -13.984375 
Q 42 -20.796875 29.203125 -20.796875 
Q 24.46875 -20.796875 20.265625 -20.09375 
Q 16.0625 -19.390625 12.109375 -17.921875 
L 12.109375 -9.1875 
Q 16.0625 -11.328125 19.921875 -12.34375 
Q 23.78125 -13.375 27.78125 -13.375 
Q 36.625 -13.375 41.015625 -8.765625 
Q 45.40625 -4.15625 45.40625 5.171875 
L 45.40625 9.625 
Q 42.625 4.78125 38.28125 2.390625 
Q 33.9375 0 27.875 0 
Q 17.828125 0 11.671875 7.65625 
Q 5.515625 15.328125 5.515625 27.984375 
Q 5.515625 40.671875 11.671875 48.328125 
Q 17.828125 56 27.875 56 
Q 33.9375 56 38.28125 53.609375 
Q 42.625 51.21875 45.40625 46.390625 
L 45.40625 54.6875 
L 54.390625 54.6875 
z
" id="DejaVuSans-67"/>
     <path d="M 44.28125 53.078125 
L 44.28125 44.578125 
Q 40.484375 46.53125 36.375 47.5 
Q 32.28125 48.484375 27.875 48.484375 
Q 21.1875 48.484375 17.84375 46.4375 
Q 14.5 44.390625 14.5 40.28125 
Q 14.5 37.15625 16.890625 35.375 
Q 19.28125 33.59375 26.515625 31.984375 
L 29.59375 31.296875 
Q 39.15625 29.25 43.1875 25.515625 
Q 47.21875 21.78125 47.21875 15.09375 
Q 47.21875 7.46875 41.1875 3.015625 
Q 35.15625 -1.421875 24.609375 -1.421875 
Q 20.21875 -1.421875 15.453125 -0.5625 
Q 10.6875 0.296875 5.421875 2 
L 5.421875 11.28125 
Q 10.40625 8.6875 15.234375 7.390625 
Q 20.0625 6.109375 24.8125 6.109375 
Q 31.15625 6.109375 34.5625 8.28125 
Q 37.984375 10.453125 37.984375 14.40625 
Q 37.984375 18.0625 35.515625 20.015625 
Q 33.0625 21.96875 24.703125 23.78125 
L 21.578125 24.515625 
Q 13.234375 26.265625 9.515625 29.90625 
Q 5.8125 33.546875 5.8125 39.890625 
Q 5.8125 47.609375 11.28125 51.796875 
Q 16.75 56 26.8125 56 
Q 31.78125 56 36.171875 55.265625 
Q 40.578125 54.546875 44.28125 53.078125 
z
" id="DejaVuSans-73"/>
    </defs>
    <g transform="translate(172.363125 35.472)scale(0.12 -0.12)">
     <use xlink:href="#DejaVuSans-4d"/>
     <use x="86.279297" xlink:href="#DejaVuSans-79"/>
     <use x="145.458984" xlink:href="#DejaVuSans-20"/>
     <use x="177.246094" xlink:href="#DejaVuSans-42"/>
     <use x="245.849609" xlink:href="#DejaVuSans-6f"/>
     <use x="307.03125" xlink:href="#DejaVuSans-6e"/>
     <use x="370.410156" xlink:href="#DejaVuSans-64"/>
     <use x="433.886719" xlink:href="#DejaVuSans-6f"/>
     <use x="495.068359" xlink:href="#DejaVuSans-72"/>
     <use x="536.181641" xlink:href="#DejaVuSans-61"/>
     <use x="597.460938" xlink:href="#DejaVuSans-20"/>
     <use x="629.248047" xlink:href="#DejaVuSans-65"/>
     <use x="690.771484" xlink:href="#DejaVuSans-61"/>
     <use x="752.050781" xlink:href="#DejaVuSans-72"/>
     <use x="793.148438" xlink:href="#DejaVuSans-6e"/>
     <use x="856.527344" xlink:href="#DejaVuSans-69"/>
     <use x="884.310547" xlink:href="#DejaVuSans-6e"/>
     <use x="947.689453" xlink:href="#DejaVuSans-67"/>
     <use x="1011.166016" xlink:href="#DejaVuSans-73"/>
    </g>
   </g>
   <g id="legend_1">
    <g id="patch_7">
     <path d="M 64.6 122.862625 
L 158.45 122.862625 
Q 160.45 122.862625 160.45 120.862625 
L 160.45 48.472 
Q 160.45 46.472 158.45 46.472 
L 64.6 46.472 
Q 62.6 46.472 62.6 48.472 
L 62.6 120.862625 
Q 62.6 122.862625 64.6 122.862625 
z
" style="fill:#ffffff;opacity:0.8;stroke:#cccccc;stroke-linejoin:miter;"/>
    </g>
    <g id="line2d_30">
     <path d="M 66.6 54.570437 
L 86.6 54.570437 
" style="fill:none;stroke:#0000ff;stroke-linecap:square;stroke-width:1.5;"/>
    </g>
    <g id="line2d_31"/>
    <g id="text_16">
     <!-- Interest -->
     <defs>
      <path d="M 9.8125 72.90625 
L 19.671875 72.90625 
L 19.671875 0 
L 9.8125 0 
z
" id="DejaVuSans-49"/>
     </defs>
     <g transform="translate(94.6 58.070437)scale(0.1 -0.1)">
      <use xlink:href="#DejaVuSans-49"/>
      <use x="29.492188" xlink:href="#DejaVuSans-6e"/>
      <use x="92.871094" xlink:href="#DejaVuSans-74"/>
      <use x="132.080078" xlink:href="#DejaVuSans-65"/>
      <use x="193.603516" xlink:href="#DejaVuSans-72"/>
      <use x="234.685547" xlink:href="#DejaVuSans-65"/>
      <use x="296.208984" xlink:href="#DejaVuSans-73"/>
      <use x="348.308594" xlink:href="#DejaVuSans-74"/>
     </g>
    </g>
    <g id="line2d_32">
     <path d="M 66.6 69.248562 
L 86.6 69.248562 
" style="fill:none;stroke:#ff0000;stroke-linecap:square;stroke-width:1.5;"/>
    </g>
    <g id="line2d_33"/>
    <g id="text_17">
     <!-- Balance -->
     <defs>
      <path d="M 9.421875 75.984375 
L 18.40625 75.984375 
L 18.40625 0 
L 9.421875 0 
z
" id="DejaVuSans-6c"/>
      <path d="M 48.78125 52.59375 
L 48.78125 44.1875 
Q 44.96875 46.296875 41.140625 47.34375 
Q 37.3125 48.390625 33.40625 48.390625 
Q 24.65625 48.390625 19.8125 42.84375 
Q 14.984375 37.3125 14.984375 27.296875 
Q 14.984375 17.28125 19.8125 11.734375 
Q 24.65625 6.203125 33.40625 6.203125 
Q 37.3125 6.203125 41.140625 7.25 
Q 44.96875 8.296875 48.78125 10.40625 
L 48.78125 2.09375 
Q 45.015625 0.34375 40.984375 -0.53125 
Q 36.96875 -1.421875 32.421875 -1.421875 
Q 20.0625 -1.421875 12.78125 6.34375 
Q 5.515625 14.109375 5.515625 27.296875 
Q 5.515625 40.671875 12.859375 48.328125 
Q 20.21875 56 33.015625 56 
Q 37.15625 56 41.109375 55.140625 
Q 45.0625 54.296875 48.78125 52.59375 
z
" id="DejaVuSans-63"/>
     </defs>
     <g transform="translate(94.6 72.748562)scale(0.1 -0.1)">
      <use xlink:href="#DejaVuSans-42"/>
      <use x="68.603516" xlink:href="#DejaVuSans-61"/>
      <use x="129.882812" xlink:href="#DejaVuSans-6c"/>
      <use x="157.666016" xlink:href="#DejaVuSans-61"/>
      <use x="218.945312" xlink:href="#DejaVuSans-6e"/>
      <use x="282.324219" xlink:href="#DejaVuSans-63"/>
      <use x="337.304688" xlink:href="#DejaVuSans-65"/>
     </g>
    </g>
    <g id="line2d_34">
     <path d="M 66.6 83.926687 
L 86.6 83.926687 
" style="fill:none;stroke:#008000;stroke-linecap:square;stroke-width:1.5;"/>
    </g>
    <g id="line2d_35"/>
    <g id="text_18">
     <!-- Investments -->
     <defs>
      <path d="M 2.984375 54.6875 
L 12.5 54.6875 
L 29.59375 8.796875 
L 46.6875 54.6875 
L 56.203125 54.6875 
L 35.6875 0 
L 23.484375 0 
z
" id="DejaVuSans-76"/>
      <path d="M 52 44.1875 
Q 55.375 50.25 60.0625 53.125 
Q 64.75 56 71.09375 56 
Q 79.640625 56 84.28125 50.015625 
Q 88.921875 44.046875 88.921875 33.015625 
L 88.921875 0 
L 79.890625 0 
L 79.890625 32.71875 
Q 79.890625 40.578125 77.09375 44.375 
Q 74.3125 48.1875 68.609375 48.1875 
Q 61.625 48.1875 57.5625 43.546875 
Q 53.515625 38.921875 53.515625 30.90625 
L 53.515625 0 
L 44.484375 0 
L 44.484375 32.71875 
Q 44.484375 40.625 41.703125 44.40625 
Q 38.921875 48.1875 33.109375 48.1875 
Q 26.21875 48.1875 22.15625 43.53125 
Q 18.109375 38.875 18.109375 30.90625 
L 18.109375 0 
L 9.078125 0 
L 9.078125 54.6875 
L 18.109375 54.6875 
L 18.109375 46.1875 
Q 21.1875 51.21875 25.484375 53.609375 
Q 29.78125 56 35.6875 56 
Q 41.65625 56 45.828125 52.96875 
Q 50 49.953125 52 44.1875 
z
" id="DejaVuSans-6d"/>
     </defs>
     <g transform="translate(94.6 87.426687)scale(0.1 -0.1)">
      <use xlink:href="#DejaVuSans-49"/>
      <use x="29.492188" xlink:href="#DejaVuSans-6e"/>
      <use x="92.871094" xlink:href="#DejaVuSans-76"/>
      <use x="152.050781" xlink:href="#DejaVuSans-65"/>
      <use x="213.574219" xlink:href="#DejaVuSans-73"/>
      <use x="265.673828" xlink:href="#DejaVuSans-74"/>
      <use x="304.882812" xlink:href="#DejaVuSans-6d"/>
      <use x="402.294922" xlink:href="#DejaVuSans-65"/>
      <use x="463.818359" xlink:href="#DejaVuSans-6e"/>
      <use x="527.197266" xlink:href="#DejaVuSans-74"/>
      <use x="566.40625" xlink:href="#DejaVuSans-73"/>
     </g>
    </g>
    <g id="line2d_36"/>
    <g id="line2d_37">
     <g>
      <use style="fill:#bfbf00;stroke:#bfbf00;" x="76.6" xlink:href="#m473cd6fbbe" y="98.604812"/>
     </g>
    </g>
    <g id="text_19">
     <!-- Deposits -->
     <defs>
      <path d="M 19.671875 64.796875 
L 19.671875 8.109375 
L 31.59375 8.109375 
Q 46.6875 8.109375 53.6875 14.9375 
Q 60.6875 21.78125 60.6875 36.53125 
Q 60.6875 51.171875 53.6875 57.984375 
Q 46.6875 64.796875 31.59375 64.796875 
z
M 9.8125 72.90625 
L 30.078125 72.90625 
Q 51.265625 72.90625 61.171875 64.09375 
Q 71.09375 55.28125 71.09375 36.53125 
Q 71.09375 17.671875 61.125 8.828125 
Q 51.171875 0 30.078125 0 
L 9.8125 0 
z
" id="DejaVuSans-44"/>
      <path d="M 18.109375 8.203125 
L 18.109375 -20.796875 
L 9.078125 -20.796875 
L 9.078125 54.6875 
L 18.109375 54.6875 
L 18.109375 46.390625 
Q 20.953125 51.265625 25.265625 53.625 
Q 29.59375 56 35.59375 56 
Q 45.5625 56 51.78125 48.09375 
Q 58.015625 40.1875 58.015625 27.296875 
Q 58.015625 14.40625 51.78125 6.484375 
Q 45.5625 -1.421875 35.59375 -1.421875 
Q 29.59375 -1.421875 25.265625 0.953125 
Q 20.953125 3.328125 18.109375 8.203125 
z
M 48.6875 27.296875 
Q 48.6875 37.203125 44.609375 42.84375 
Q 40.53125 48.484375 33.40625 48.484375 
Q 26.265625 48.484375 22.1875 42.84375 
Q 18.109375 37.203125 18.109375 27.296875 
Q 18.109375 17.390625 22.1875 11.75 
Q 26.265625 6.109375 33.40625 6.109375 
Q 40.53125 6.109375 44.609375 11.75 
Q 48.6875 17.390625 48.6875 27.296875 
z
" id="DejaVuSans-70"/>
     </defs>
     <g transform="translate(94.6 102.104812)scale(0.1 -0.1)">
      <use xlink:href="#DejaVuSans-44"/>
      <use x="77.001953" xlink:href="#DejaVuSans-65"/>
      <use x="138.525391" xlink:href="#DejaVuSans-70"/>
      <use x="202.001953" xlink:href="#DejaVuSans-6f"/>
      <use x="263.183594" xlink:href="#DejaVuSans-73"/>
      <use x="315.283203" xlink:href="#DejaVuSans-69"/>
      <use x="343.066406" xlink:href="#DejaVuSans-74"/>
      <use x="382.275391" xlink:href="#DejaVuSans-73"/>
     </g>
    </g>
    <g id="line2d_38"/>
    <g id="line2d_39">
     <g>
      <use style="fill:#008000;stroke:#008000;" x="76.6" xlink:href="#m6082720257" y="113.282937"/>
     </g>
    </g>
    <g id="text_20">
     <!-- Commission -->
     <defs>
      <path d="M 64.40625 67.28125 
L 64.40625 56.890625 
Q 59.421875 61.53125 53.78125 63.8125 
Q 48.140625 66.109375 41.796875 66.109375 
Q 29.296875 66.109375 22.65625 58.46875 
Q 16.015625 50.828125 16.015625 36.375 
Q 16.015625 21.96875 22.65625 14.328125 
Q 29.296875 6.6875 41.796875 6.6875 
Q 48.140625 6.6875 53.78125 8.984375 
Q 59.421875 11.28125 64.40625 15.921875 
L 64.40625 5.609375 
Q 59.234375 2.09375 53.4375 0.328125 
Q 47.65625 -1.421875 41.21875 -1.421875 
Q 24.65625 -1.421875 15.125 8.703125 
Q 5.609375 18.84375 5.609375 36.375 
Q 5.609375 53.953125 15.125 64.078125 
Q 24.65625 74.21875 41.21875 74.21875 
Q 47.75 74.21875 53.53125 72.484375 
Q 59.328125 70.75 64.40625 67.28125 
z
" id="DejaVuSans-43"/>
     </defs>
     <g transform="translate(94.6 116.782937)scale(0.1 -0.1)">
      <use xlink:href="#DejaVuSans-43"/>
      <use x="69.824219" xlink:href="#DejaVuSans-6f"/>
      <use x="131.005859" xlink:href="#DejaVuSans-6d"/>
      <use x="228.417969" xlink:href="#DejaVuSans-6d"/>
      <use x="325.830078" xlink:href="#DejaVuSans-69"/>
      <use x="353.613281" xlink:href="#DejaVuSans-73"/>
      <use x="405.712891" xlink:href="#DejaVuSans-73"/>
      <use x="457.8125" xlink:href="#DejaVuSans-69"/>
      <use x="485.595703" xlink:href="#DejaVuSans-6f"/>
      <use x="546.777344" xlink:href="#DejaVuSans-6e"/>
     </g>
    </g>
   </g>
  </g>
 </g>
 <defs>
  <clipPath id="pf6a14b4fba">
   <rect height="235.008" width="357.12" x="57.6" y="41.472"/>
  </clipPath>
 </defs>
</svg>
