<?xml version="1.0" encoding="utf-8" standalone="no"?>
<!DOCTYPE svg PUBLIC "-//W3C//DTD SVG 1.1//EN"
  "http://www.w3.org/Graphics/SVG/1.1/DTD/svg11.dtd">
<!-- Created with matplotlib (http://matplotlib.org/) -->
<svg height="345.6pt" version="1.1" viewBox="0 0 460.8 345.6" width="460.8pt" xmlns="http://www.w3.org/2000/svg" xmlns:xlink="http://www.w3.org/1999/xlink">
 <defs>
  <style type="text/css">
*{stroke-linecap:butt;stroke-linejoin:round;}
  </style>
 </defs>
 <g id="figure_1">
  <g id="patch_1">
   <path d="M 0 345.6 
L 460.8 345.6 
L 460.8 0 
L 0 0 
z
" style="fill:#ffffff;"/>
  </g>
  <g id="axes_1">
   <g id="patch_2">
    <path d="M 57.6 276.48 
L 414.72 276.48 
L 414.72 41.472 
L 57.6 41.472 
z
" style="fill:#ffffff;"/>
   </g>
   <g id="matplotlib.axis_1">
    <g id="xtick_1">
     <g id="line2d_1">
      <path clip-path="url(#p6484ce7057)" d="M 73.832727 276.48 
L 73.832727 41.472 
" style="fill:none;stroke:#b0b0b0;stroke-linecap:square;stroke-width:0.8;"/>
     </g>
     <g id="line2d_2">
      <defs>
       <path d="M 0 0 
L 0 3.5 
" id="md457577fe9" style="stroke:#000000;stroke-width:0.8;"/>
      </defs>
      <g>
       <use style="stroke:#000000;stroke-width:0.8;" x="73.832727" xlink:href="#md457577fe9" y="276.48"/>
      </g>
     </g>
     <g id="text_1">
      <!-- 2019-01 -->
      <defs>
       <path d="M 19.1875 8.296875 
L 53.609375 8.296875 
L 53.609375 0 
L 7.328125 0 
L 7.328125 8.296875 
Q 12.9375 14.109375 22.625 23.890625 
Q 32.328125 33.6875 34.8125 36.53125 
Q 39.546875 41.84375 41.421875 45.53125 
Q 43.3125 49.21875 43.3125 52.78125 
Q 43.3125 58.59375 39.234375 62.25 
Q 35.15625 65.921875 28.609375 65.921875 
Q 23.96875 65.921875 18.8125 64.3125 
Q 13.671875 62.703125 7.8125 59.421875 
L 7.8125 69.390625 
Q 13.765625 71.78125 18.9375 73 
Q 24.125 74.21875 28.421875 74.21875 
Q 39.75 74.21875 46.484375 68.546875 
Q 53.21875 62.890625 53.21875 53.421875 
Q 53.21875 48.921875 51.53125 44.890625 
Q 49.859375 40.875 45.40625 35.40625 
Q 44.1875 33.984375 37.640625 27.21875 
Q 31.109375 20.453125 19.1875 8.296875 
z
" id="DejaVuSans-32"/>
       <path d="M 31.78125 66.40625 
Q 24.171875 66.40625 20.328125 58.90625 
Q 16.5 51.421875 16.5 36.375 
Q 16.5 21.390625 20.328125 13.890625 
Q 24.171875 6.390625 31.78125 6.390625 
Q 39.453125 6.390625 43.28125 13.890625 
Q 47.125 21.390625 47.125 36.375 
Q 47.125 51.421875 43.28125 58.90625 
Q 39.453125 66.40625 31.78125 66.40625 
z
M 31.78125 74.21875 
Q 44.046875 74.21875 50.515625 64.515625 
Q 56.984375 54.828125 56.984375 36.375 
Q 56.984375 17.96875 50.515625 8.265625 
Q 44.046875 -1.421875 31.78125 -1.421875 
Q 19.53125 -1.421875 13.0625 8.265625 
Q 6.59375 17.96875 6.59375 36.375 
Q 6.59375 54.828125 13.0625 64.515625 
Q 19.53125 74.21875 31.78125 74.21875 
z
" id="DejaVuSans-30"/>
       <path d="M 12.40625 8.296875 
L 28.515625 8.296875 
L 28.515625 63.921875 
L 10.984375 60.40625 
L 10.984375 69.390625 
L 28.421875 72.90625 
L 38.28125 72.90625 
L 38.28125 8.296875 
L 54.390625 8.296875 
L 54.390625 0 
L 12.40625 0 
z
" id="DejaVuSans-31"/>
       <path d="M 10.984375 1.515625 
L 10.984375 10.5 
Q 14.703125 8.734375 18.5 7.8125 
Q 22.3125 6.890625 25.984375 6.890625 
Q 35.75 6.890625 40.890625 13.453125 
Q 46.046875 20.015625 46.78125 33.40625 
Q 43.953125 29.203125 39.59375 26.953125 
Q 35.25 24.703125 29.984375 24.703125 
Q 19.046875 24.703125 12.671875 31.3125 
Q 6.296875 37.9375 6.296875 49.421875 
Q 6.296875 60.640625 12.9375 67.421875 
Q 19.578125 74.21875 30.609375 74.21875 
Q 43.265625 74.21875 49.921875 64.515625 
Q 56.59375 54.828125 56.59375 36.375 
Q 56.59375 19.140625 48.40625 8.859375 
Q 40.234375 -1.421875 26.421875 -1.421875 
Q 22.703125 -1.421875 18.890625 -0.6875 
Q 15.09375 0.046875 10.984375 1.515625 
z
M 30.609375 32.421875 
Q 37.25 32.421875 41.125 36.953125 
Q 45.015625 41.5 45.015625 49.421875 
Q 45.015625 57.28125 41.125 61.84375 
Q 37.25 66.40625 30.609375 66.40625 
Q 23.96875 66.40625 20.09375 61.84375 
Q 16.21875 57.28125 16.21875 49.421875 
Q 16.21875 41.5 20.09375 36.953125 
Q 23.96875 32.421875 30.609375 32.421875 
z
" id="DejaVuSans-39"/>
       <path d="M 4.890625 31.390625 
L 31.203125 31.390625 
L 31.203125 23.390625 
L 4.890625 23.390625 
z
" id="DejaVuSans-2d"/>
      </defs>
      <g transform="translate(36.607906 310.951846)rotate(-30)scale(0.1 -0.1)">
       <use xlink:href="#DejaVuSans-32"/>
       <use x="63.623047" xlink:href="#DejaVuSans-30"/>
       <use x="127.246094" xlink:href="#DejaVuSans-31"/>
       <use x="190.869141" xlink:href="#DejaVuSans-39"/>
       <use x="254.492188" xlink:href="#DejaVuSans-2d"/>
       <use x="290.576172" xlink:href="#DejaVuSans-30"/>
       <use x="354.199219" xlink:href="#DejaVuSans-31"/>
      </g>
     </g>
    </g>
    <g id="xtick_2">
     <g id="line2d_3">
      <path clip-path="url(#p6484ce7057)" d="M 108.669754 276.48 
L 108.669754 41.472 
" style="fill:none;stroke:#b0b0b0;stroke-linecap:square;stroke-width:0.8;"/>
     </g>
     <g id="line2d_4">
      <g>
       <use style="stroke:#000000;stroke-width:0.8;" x="108.669754" xlink:href="#md457577fe9" y="276.48"/>
      </g>
     </g>
     <g id="text_2">
      <!-- 2019-02 -->
      <g transform="translate(71.444933 310.951846)rotate(-30)scale(0.1 -0.1)">
       <use xlink:href="#DejaVuSans-32"/>
       <use x="63.623047" xlink:href="#DejaVuSans-30"/>
       <use x="127.246094" xlink:href="#DejaVuSans-31"/>
       <use x="190.869141" xlink:href="#DejaVuSans-39"/>
       <use x="254.492188" xlink:href="#DejaVuSans-2d"/>
       <use x="290.576172" xlink:href="#DejaVuSans-30"/>
       <use x="354.199219" xlink:href="#DejaVuSans-32"/>
      </g>
     </g>
    </g>
    <g id="xtick_3">
     <g id="line2d_5">
      <path clip-path="url(#p6484ce7057)" d="M 140.135456 276.48 
L 140.135456 41.472 
" style="fill:none;stroke:#b0b0b0;stroke-linecap:square;stroke-width:0.8;"/>
     </g>
     <g id="line2d_6">
      <g>
       <use style="stroke:#000000;stroke-width:0.8;" x="140.135456" xlink:href="#md457577fe9" y="276.48"/>
      </g>
     </g>
     <g id="text_3">
      <!-- 2019-03 -->
      <defs>
       <path d="M 40.578125 39.3125 
Q 47.65625 37.796875 51.625 33 
Q 55.609375 28.21875 55.609375 21.1875 
Q 55.609375 10.40625 48.1875 4.484375 
Q 40.765625 -1.421875 27.09375 -1.421875 
Q 22.515625 -1.421875 17.65625 -0.515625 
Q 12.796875 0.390625 7.625 2.203125 
L 7.625 11.71875 
Q 11.71875 9.328125 16.59375 8.109375 
Q 21.484375 6.890625 26.8125 6.890625 
Q 36.078125 6.890625 40.9375 10.546875 
Q 45.796875 14.203125 45.796875 21.1875 
Q 45.796875 27.640625 41.28125 31.265625 
Q 36.765625 34.90625 28.71875 34.90625 
L 20.21875 34.90625 
L 20.21875 43.015625 
L 29.109375 43.015625 
Q 36.375 43.015625 40.234375 45.921875 
Q 44.09375 48.828125 44.09375 54.296875 
Q 44.09375 59.90625 40.109375 62.90625 
Q 36.140625 65.921875 28.71875 65.921875 
Q 24.65625 65.921875 20.015625 65.03125 
Q 15.375 64.15625 9.8125 62.3125 
L 9.8125 71.09375 
Q 15.4375 72.65625 20.34375 73.4375 
Q 25.25 74.21875 29.59375 74.21875 
Q 40.828125 74.21875 47.359375 69.109375 
Q 53.90625 64.015625 53.90625 55.328125 
Q 53.90625 49.265625 50.4375 45.09375 
Q 46.96875 40.921875 40.578125 39.3125 
z
" id="DejaVuSans-33"/>
      </defs>
      <g transform="translate(102.910635 310.951846)rotate(-30)scale(0.1 -0.1)">
       <use xlink:href="#DejaVuSans-32"/>
       <use x="63.623047" xlink:href="#DejaVuSans-30"/>
       <use x="127.246094" xlink:href="#DejaVuSans-31"/>
       <use x="190.869141" xlink:href="#DejaVuSans-39"/>
       <use x="254.492188" xlink:href="#DejaVuSans-2d"/>
       <use x="290.576172" xlink:href="#DejaVuSans-30"/>
       <use x="354.199219" xlink:href="#DejaVuSans-33"/>
      </g>
     </g>
    </g>
    <g id="xtick_4">
     <g id="line2d_7">
      <path clip-path="url(#p6484ce7057)" d="M 174.972483 276.48 
L 174.972483 41.472 
" style="fill:none;stroke:#b0b0b0;stroke-linecap:square;stroke-width:0.8;"/>
     </g>
     <g id="line2d_8">
      <g>
       <use style="stroke:#000000;stroke-width:0.8;" x="174.972483" xlink:href="#md457577fe9" y="276.48"/>
      </g>
     </g>
     <g id="text_4">
      <!-- 2019-04 -->
      <defs>
       <path d="M 37.796875 64.3125 
L 12.890625 25.390625 
L 37.796875 25.390625 
z
M 35.203125 72.90625 
L 47.609375 72.90625 
L 47.609375 25.390625 
L 58.015625 25.390625 
L 58.015625 17.1875 
L 47.609375 17.1875 
L 47.609375 0 
L 37.796875 0 
L 37.796875 17.1875 
L 4.890625 17.1875 
L 4.890625 26.703125 
z
" id="DejaVuSans-34"/>
      </defs>
      <g transform="translate(137.747662 310.951846)rotate(-30)scale(0.1 -0.1)">
       <use xlink:href="#DejaVuSans-32"/>
       <use x="63.623047" xlink:href="#DejaVuSans-30"/>
       <use x="127.246094" xlink:href="#DejaVuSans-31"/>
       <use x="190.869141" xlink:href="#DejaVuSans-39"/>
       <use x="254.492188" xlink:href="#DejaVuSans-2d"/>
       <use x="290.576172" xlink:href="#DejaVuSans-30"/>
       <use x="354.199219" xlink:href="#DejaVuSans-34"/>
      </g>
     </g>
    </g>
    <g id="xtick_5">
     <g id="line2d_9">
      <path clip-path="url(#p6484ce7057)" d="M 208.685735 276.48 
L 208.685735 41.472 
" style="fill:none;stroke:#b0b0b0;stroke-linecap:square;stroke-width:0.8;"/>
     </g>
     <g id="line2d_10">
      <g>
       <use style="stroke:#000000;stroke-width:0.8;" x="208.685735" xlink:href="#md457577fe9" y="276.48"/>
      </g>
     </g>
     <g id="text_5">
      <!-- 2019-05 -->
      <defs>
       <path d="M 10.796875 72.90625 
L 49.515625 72.90625 
L 49.515625 64.59375 
L 19.828125 64.59375 
L 19.828125 46.734375 
Q 21.96875 47.46875 24.109375 47.828125 
Q 26.265625 48.1875 28.421875 48.1875 
Q 40.625 48.1875 47.75 41.5 
Q 54.890625 34.8125 54.890625 23.390625 
Q 54.890625 11.625 47.5625 5.09375 
Q 40.234375 -1.421875 26.90625 -1.421875 
Q 22.3125 -1.421875 17.546875 -0.640625 
Q 12.796875 0.140625 7.71875 1.703125 
L 7.71875 11.625 
Q 12.109375 9.234375 16.796875 8.0625 
Q 21.484375 6.890625 26.703125 6.890625 
Q 35.15625 6.890625 40.078125 11.328125 
Q 45.015625 15.765625 45.015625 23.390625 
Q 45.015625 31 40.078125 35.4375 
Q 35.15625 39.890625 26.703125 39.890625 
Q 22.75 39.890625 18.8125 39.015625 
Q 14.890625 38.140625 10.796875 36.28125 
z
" id="DejaVuSans-35"/>
      </defs>
      <g transform="translate(171.460914 310.951846)rotate(-30)scale(0.1 -0.1)">
       <use xlink:href="#DejaVuSans-32"/>
       <use x="63.623047" xlink:href="#DejaVuSans-30"/>
       <use x="127.246094" xlink:href="#DejaVuSans-31"/>
       <use x="190.869141" xlink:href="#DejaVuSans-39"/>
       <use x="254.492188" xlink:href="#DejaVuSans-2d"/>
       <use x="290.576172" xlink:href="#DejaVuSans-30"/>
       <use x="354.199219" xlink:href="#DejaVuSans-35"/>
      </g>
     </g>
    </g>
    <g id="xtick_6">
     <g id="line2d_11">
      <path clip-path="url(#p6484ce7057)" d="M 243.522762 276.48 
L 243.522762 41.472 
" style="fill:none;stroke:#b0b0b0;stroke-linecap:square;stroke-width:0.8;"/>
     </g>
     <g id="line2d_12">
      <g>
       <use style="stroke:#000000;stroke-width:0.8;" x="243.522762" xlink:href="#md457577fe9" y="276.48"/>
      </g>
     </g>
     <g id="text_6">
      <!-- 2019-06 -->
      <defs>
       <path d="M 33.015625 40.375 
Q 26.375 40.375 22.484375 35.828125 
Q 18.609375 31.296875 18.609375 23.390625 
Q 18.609375 15.53125 22.484375 10.953125 
Q 26.375 6.390625 33.015625 6.390625 
Q 39.65625 6.390625 43.53125 10.953125 
Q 47.40625 15.53125 47.40625 23.390625 
Q 47.40625 31.296875 43.53125 35.828125 
Q 39.65625 40.375 33.015625 40.375 
z
M 52.59375 71.296875 
L 52.59375 62.3125 
Q 48.875 64.0625 45.09375 64.984375 
Q 41.3125 65.921875 37.59375 65.921875 
Q 27.828125 65.921875 22.671875 59.328125 
Q 17.53125 52.734375 16.796875 39.40625 
Q 19.671875 43.65625 24.015625 45.921875 
Q 28.375 48.1875 33.59375 48.1875 
Q 44.578125 48.1875 50.953125 41.515625 
Q 57.328125 34.859375 57.328125 23.390625 
Q 57.328125 12.15625 50.6875 5.359375 
Q 44.046875 -1.421875 33.015625 -1.421875 
Q 20.359375 -1.421875 13.671875 8.265625 
Q 6.984375 17.96875 6.984375 36.375 
Q 6.984375 53.65625 15.1875 63.9375 
Q 23.390625 74.21875 37.203125 74.21875 
Q 40.921875 74.21875 44.703125 73.484375 
Q 48.484375 72.75 52.59375 71.296875 
z
" id="DejaVuSans-36"/>
      </defs>
      <g transform="translate(206.297941 310.951846)rotate(-30)scale(0.1 -0.1)">
       <use xlink:href="#DejaVuSans-32"/>
       <use x="63.623047" xlink:href="#DejaVuSans-30"/>
       <use x="127.246094" xlink:href="#DejaVuSans-31"/>
       <use x="190.869141" xlink:href="#DejaVuSans-39"/>
       <use x="254.492188" xlink:href="#DejaVuSans-2d"/>
       <use x="290.576172" xlink:href="#DejaVuSans-30"/>
       <use x="354.199219" xlink:href="#DejaVuSans-36"/>
      </g>
     </g>
    </g>
    <g id="xtick_7">
     <g id="line2d_13">
      <path clip-path="url(#p6484ce7057)" d="M 277.236014 276.48 
L 277.236014 41.472 
" style="fill:none;stroke:#b0b0b0;stroke-linecap:square;stroke-width:0.8;"/>
     </g>
     <g id="line2d_14">
      <g>
       <use style="stroke:#000000;stroke-width:0.8;" x="277.236014" xlink:href="#md457577fe9" y="276.48"/>
      </g>
     </g>
     <g id="text_7">
      <!-- 2019-07 -->
      <defs>
       <path d="M 8.203125 72.90625 
L 55.078125 72.90625 
L 55.078125 68.703125 
L 28.609375 0 
L 18.3125 0 
L 43.21875 64.59375 
L 8.203125 64.59375 
z
" id="DejaVuSans-37"/>
      </defs>
      <g transform="translate(240.011193 310.951846)rotate(-30)scale(0.1 -0.1)">
       <use xlink:href="#DejaVuSans-32"/>
       <use x="63.623047" xlink:href="#DejaVuSans-30"/>
       <use x="127.246094" xlink:href="#DejaVuSans-31"/>
       <use x="190.869141" xlink:href="#DejaVuSans-39"/>
       <use x="254.492188" xlink:href="#DejaVuSans-2d"/>
       <use x="290.576172" xlink:href="#DejaVuSans-30"/>
       <use x="354.199219" xlink:href="#DejaVuSans-37"/>
      </g>
     </g>
    </g>
    <g id="xtick_8">
     <g id="line2d_15">
      <path clip-path="url(#p6484ce7057)" d="M 312.073041 276.48 
L 312.073041 41.472 
" style="fill:none;stroke:#b0b0b0;stroke-linecap:square;stroke-width:0.8;"/>
     </g>
     <g id="line2d_16">
      <g>
       <use style="stroke:#000000;stroke-width:0.8;" x="312.073041" xlink:href="#md457577fe9" y="276.48"/>
      </g>
     </g>
     <g id="text_8">
      <!-- 2019-08 -->
      <defs>
       <path d="M 31.78125 34.625 
Q 24.75 34.625 20.71875 30.859375 
Q 16.703125 27.09375 16.703125 20.515625 
Q 16.703125 13.921875 20.71875 10.15625 
Q 24.75 6.390625 31.78125 6.390625 
Q 38.8125 6.390625 42.859375 10.171875 
Q 46.921875 13.96875 46.921875 20.515625 
Q 46.921875 27.09375 42.890625 30.859375 
Q 38.875 34.625 31.78125 34.625 
z
M 21.921875 38.8125 
Q 15.578125 40.375 12.03125 44.71875 
Q 8.5 49.078125 8.5 55.328125 
Q 8.5 64.0625 14.71875 69.140625 
Q 20.953125 74.21875 31.78125 74.21875 
Q 42.671875 74.21875 48.875 69.140625 
Q 55.078125 64.0625 55.078125 55.328125 
Q 55.078125 49.078125 51.53125 44.71875 
Q 48 40.375 41.703125 38.8125 
Q 48.828125 37.15625 52.796875 32.3125 
Q 56.78125 27.484375 56.78125 20.515625 
Q 56.78125 9.90625 50.3125 4.234375 
Q 43.84375 -1.421875 31.78125 -1.421875 
Q 19.734375 -1.421875 13.25 4.234375 
Q 6.78125 9.90625 6.78125 20.515625 
Q 6.78125 27.484375 10.78125 32.3125 
Q 14.796875 37.15625 21.921875 38.8125 
z
M 18.3125 54.390625 
Q 18.3125 48.734375 21.84375 45.5625 
Q 25.390625 42.390625 31.78125 42.390625 
Q 38.140625 42.390625 41.71875 45.5625 
Q 45.3125 48.734375 45.3125 54.390625 
Q 45.3125 60.0625 41.71875 63.234375 
Q 38.140625 66.40625 31.78125 66.40625 
Q 25.390625 66.40625 21.84375 63.234375 
Q 18.3125 60.0625 18.3125 54.390625 
z
" id="DejaVuSans-38"/>
      </defs>
      <g transform="translate(274.84822 310.951846)rotate(-30)scale(0.1 -0.1)">
       <use xlink:href="#DejaVuSans-32"/>
       <use x="63.623047" xlink:href="#DejaVuSans-30"/>
       <use x="127.246094" xlink:href="#DejaVuSans-31"/>
       <use x="190.869141" xlink:href="#DejaVuSans-39"/>
       <use x="254.492188" xlink:href="#DejaVuSans-2d"/>
       <use x="290.576172" xlink:href="#DejaVuSans-30"/>
       <use x="354.199219" xlink:href="#DejaVuSans-38"/>
      </g>
     </g>
    </g>
    <g id="xtick_9">
     <g id="line2d_17">
      <path clip-path="url(#p6484ce7057)" d="M 346.910068 276.48 
L 346.910068 41.472 
" style="fill:none;stroke:#b0b0b0;stroke-linecap:square;stroke-width:0.8;"/>
     </g>
     <g id="line2d_18">
      <g>
       <use style="stroke:#000000;stroke-width:0.8;" x="346.910068" xlink:href="#md457577fe9" y="276.48"/>
      </g>
     </g>
     <g id="text_9">
      <!-- 2019-09 -->
      <g transform="translate(309.685247 310.951846)rotate(-30)scale(0.1 -0.1)">
       <use xlink:href="#DejaVuSans-32"/>
       <use x="63.623047" xlink:href="#DejaVuSans-30"/>
       <use x="127.246094" xlink:href="#DejaVuSans-31"/>
       <use x="190.869141" xlink:href="#DejaVuSans-39"/>
       <use x="254.492188" xlink:href="#DejaVuSans-2d"/>
       <use x="290.576172" xlink:href="#DejaVuSans-30"/>
       <use x="354.199219" xlink:href="#DejaVuSans-39"/>
      </g>
     </g>
    </g>
    <g id="xtick_10">
     <g id="line2d_19">
      <path clip-path="url(#p6484ce7057)" d="M 380.62332 276.48 
L 380.62332 41.472 
" style="fill:none;stroke:#b0b0b0;stroke-linecap:square;stroke-width:0.8;"/>
     </g>
     <g id="line2d_20">
      <g>
       <use style="stroke:#000000;stroke-width:0.8;" x="380.62332" xlink:href="#md457577fe9" y="276.48"/>
      </g>
     </g>
     <g id="text_10">
      <!-- 2019-10 -->
      <g transform="translate(343.398499 310.951846)rotate(-30)scale(0.1 -0.1)">
       <use xlink:href="#DejaVuSans-32"/>
       <use x="63.623047" xlink:href="#DejaVuSans-30"/>
       <use x="127.246094" xlink:href="#DejaVuSans-31"/>
       <use x="190.869141" xlink:href="#DejaVuSans-39"/>
       <use x="254.492188" xlink:href="#DejaVuSans-2d"/>
       <use x="290.576172" xlink:href="#DejaVuSans-31"/>
       <use x="354.199219" xlink:href="#DejaVuSans-30"/>
      </g>
     </g>
    </g>
    <g id="text_11">
     <!-- date -->
     <defs>
      <path d="M 45.40625 46.390625 
L 45.40625 75.984375 
L 54.390625 75.984375 
L 54.390625 0 
L 45.40625 0 
L 45.40625 8.203125 
Q 42.578125 3.328125 38.25 0.953125 
Q 33.9375 -1.421875 27.875 -1.421875 
Q 17.96875 -1.421875 11.734375 6.484375 
Q 5.515625 14.40625 5.515625 27.296875 
Q 5.515625 40.1875 11.734375 48.09375 
Q 17.96875 56 27.875 56 
Q 33.9375 56 38.25 53.625 
Q 42.578125 51.265625 45.40625 46.390625 
z
M 14.796875 27.296875 
Q 14.796875 17.390625 18.875 11.75 
Q 22.953125 6.109375 30.078125 6.109375 
Q 37.203125 6.109375 41.296875 11.75 
Q 45.40625 17.390625 45.40625 27.296875 
Q 45.40625 37.203125 41.296875 42.84375 
Q 37.203125 48.484375 30.078125 48.484375 
Q 22.953125 48.484375 18.875 42.84375 
Q 14.796875 37.203125 14.796875 27.296875 
z
" id="DejaVuSans-64"/>
      <path d="M 34.28125 27.484375 
Q 23.390625 27.484375 19.1875 25 
Q 14.984375 22.515625 14.984375 16.5 
Q 14.984375 11.71875 18.140625 8.90625 
Q 21.296875 6.109375 26.703125 6.109375 
Q 34.1875 6.109375 38.703125 11.40625 
Q 43.21875 16.703125 43.21875 25.484375 
L 43.21875 27.484375 
z
M 52.203125 31.203125 
L 52.203125 0 
L 43.21875 0 
L 43.21875 8.296875 
Q 40.140625 3.328125 35.546875 0.953125 
Q 30.953125 -1.421875 24.3125 -1.421875 
Q 15.921875 -1.421875 10.953125 3.296875 
Q 6 8.015625 6 15.921875 
Q 6 25.140625 12.171875 29.828125 
Q 18.359375 34.515625 30.609375 34.515625 
L 43.21875 34.515625 
L 43.21875 35.40625 
Q 43.21875 41.609375 39.140625 45 
Q 35.0625 48.390625 27.6875 48.390625 
Q 23 48.390625 18.546875 47.265625 
Q 14.109375 46.140625 10.015625 43.890625 
L 10.015625 52.203125 
Q 14.9375 54.109375 19.578125 55.046875 
Q 24.21875 56 28.609375 56 
Q 40.484375 56 46.34375 49.84375 
Q 52.203125 43.703125 52.203125 31.203125 
z
" id="DejaVuSans-61"/>
      <path d="M 18.3125 70.21875 
L 18.3125 54.6875 
L 36.8125 54.6875 
L 36.8125 47.703125 
L 18.3125 47.703125 
L 18.3125 18.015625 
Q 18.3125 11.328125 20.140625 9.421875 
Q 21.96875 7.515625 27.59375 7.515625 
L 36.8125 7.515625 
L 36.8125 0 
L 27.59375 0 
Q 17.1875 0 13.234375 3.875 
Q 9.28125 7.765625 9.28125 18.015625 
L 9.28125 47.703125 
L 2.6875 47.703125 
L 2.6875 54.6875 
L 9.28125 54.6875 
L 9.28125 70.21875 
z
" id="DejaVuSans-74"/>
      <path d="M 56.203125 29.59375 
L 56.203125 25.203125 
L 14.890625 25.203125 
Q 15.484375 15.921875 20.484375 11.0625 
Q 25.484375 6.203125 34.421875 6.203125 
Q 39.59375 6.203125 44.453125 7.46875 
Q 49.3125 8.734375 54.109375 11.28125 
L 54.109375 2.78125 
Q 49.265625 0.734375 44.1875 -0.34375 
Q 39.109375 -1.421875 33.890625 -1.421875 
Q 20.796875 -1.421875 13.15625 6.1875 
Q 5.515625 13.8125 5.515625 26.8125 
Q 5.515625 40.234375 12.765625 48.109375 
Q 20.015625 56 32.328125 56 
Q 43.359375 56 49.78125 48.890625 
Q 56.203125 41.796875 56.203125 29.59375 
z
M 47.21875 32.234375 
Q 47.125 39.59375 43.09375 43.984375 
Q 39.0625 48.390625 32.421875 48.390625 
Q 24.90625 48.390625 20.390625 44.140625 
Q 15.875 39.890625 15.1875 32.171875 
z
" id="DejaVuSans-65"/>
     </defs>
     <g transform="translate(224.885 324.351346)scale(0.1 -0.1)">
      <use xlink:href="#DejaVuSans-64"/>
      <use x="63.476562" xlink:href="#DejaVuSans-61"/>
      <use x="124.755859" xlink:href="#DejaVuSans-74"/>
      <use x="163.964844" xlink:href="#DejaVuSans-65"/>
     </g>
    </g>
   </g>
   <g id="matplotlib.axis_2">
    <g id="ytick_1">
     <g id="line2d_21">
      <path clip-path="url(#p6484ce7057)" d="M 57.6 265.797818 
L 414.72 265.797818 
" style="fill:none;stroke:#b0b0b0;stroke-linecap:square;stroke-width:0.8;"/>
     </g>
     <g id="line2d_22">
      <defs>
       <path d="M 0 0 
L -3.5 0 
" id="m01cdb8d981" style="stroke:#000000;stroke-width:0.8;"/>
      </defs>
      <g>
       <use style="stroke:#000000;stroke-width:0.8;" x="57.6" xlink:href="#m01cdb8d981" y="265.797818"/>
      </g>
     </g>
     <g id="text_12">
      <!-- 0 -->
      <g transform="translate(44.2375 269.597037)scale(0.1 -0.1)">
       <use xlink:href="#DejaVuSans-30"/>
      </g>
     </g>
    </g>
    <g id="ytick_2">
     <g id="line2d_23">
      <path clip-path="url(#p6484ce7057)" d="M 57.6 224.542749 
L 414.72 224.542749 
" style="fill:none;stroke:#b0b0b0;stroke-linecap:square;stroke-width:0.8;"/>
     </g>
     <g id="line2d_24">
      <g>
       <use style="stroke:#000000;stroke-width:0.8;" x="57.6" xlink:href="#m01cdb8d981" y="224.542749"/>
      </g>
     </g>
     <g id="text_13">
      <!-- 2000 -->
      <g transform="translate(25.15 228.341968)scale(0.1 -0.1)">
       <use xlink:href="#DejaVuSans-32"/>
       <use x="63.623047" xlink:href="#DejaVuSans-30"/>
       <use x="127.246094" xlink:href="#DejaVuSans-30"/>
       <use x="190.869141" xlink:href="#DejaVuSans-30"/>
      </g>
     </g>
    </g>
    <g id="ytick_3">
     <g id="line2d_25">
      <path clip-path="url(#p6484ce7057)" d="M 57.6 183.28768 
L 414.72 183.28768 
" style="fill:none;stroke:#b0b0b0;stroke-linecap:square;stroke-width:0.8;"/>
     </g>
     <g id="line2d_26">
      <g>
       <use style="stroke:#000000;stroke-width:0.8;" x="57.6" xlink:href="#m01cdb8d981" y="183.28768"/>
      </g>
     </g>
     <g id="text_14">
      <!-- 4000 -->
      <g transform="translate(25.15 187.086899)scale(0.1 -0.1)">
       <use xlink:href="#DejaVuSans-34"/>
       <use x="63.623047" xlink:href="#DejaVuSans-30"/>
       <use x="127.246094" xlink:href="#DejaVuSans-30"/>
       <use x="190.869141" xlink:href="#DejaVuSans-30"/>
      </g>
     </g>
    </g>
    <g id="ytick_4">
     <g id="line2d_27">
      <path clip-path="url(#p6484ce7057)" d="M 57.6 142.032611 
L 414.72 142.032611 
" style="fill:none;stroke:#b0b0b0;stroke-linecap:square;stroke-width:0.8;"/>
     </g>
     <g id="line2d_28">
      <g>
       <use style="stroke:#000000;stroke-width:0.8;" x="57.6" xlink:href="#m01cdb8d981" y="142.032611"/>
      </g>
     </g>
     <g id="text_15">
      <!-- 6000 -->
      <g transform="translate(25.15 145.83183)scale(0.1 -0.1)">
       <use xlink:href="#DejaVuSans-36"/>
       <use x="63.623047" xlink:href="#DejaVuSans-30"/>
       <use x="127.246094" xlink:href="#DejaVuSans-30"/>
       <use x="190.869141" xlink:href="#DejaVuSans-30"/>
      </g>
     </g>
    </g>
    <g id="ytick_5">
     <g id="line2d_29">
      <path clip-path="url(#p6484ce7057)" d="M 57.6 100.777542 
L 414.72 100.777542 
" style="fill:none;stroke:#b0b0b0;stroke-linecap:square;stroke-width:0.8;"/>
     </g>
     <g id="line2d_30">
      <g>
       <use style="stroke:#000000;stroke-width:0.8;" x="57.6" xlink:href="#m01cdb8d981" y="100.777542"/>
      </g>
     </g>
     <g id="text_16">
      <!-- 8000 -->
      <g transform="translate(25.15 104.576761)scale(0.1 -0.1)">
       <use xlink:href="#DejaVuSans-38"/>
       <use x="63.623047" xlink:href="#DejaVuSans-30"/>
       <use x="127.246094" xlink:href="#DejaVuSans-30"/>
       <use x="190.869141" xlink:href="#DejaVuSans-30"/>
      </g>
     </g>
    </g>
    <g id="ytick_6">
     <g id="line2d_31">
      <path clip-path="url(#p6484ce7057)" d="M 57.6 59.522473 
L 414.72 59.522473 
" style="fill:none;stroke:#b0b0b0;stroke-linecap:square;stroke-width:0.8;"/>
     </g>
     <g id="line2d_32">
      <g>
       <use style="stroke:#000000;stroke-width:0.8;" x="57.6" xlink:href="#m01cdb8d981" y="59.522473"/>
      </g>
     </g>
     <g id="text_17">
      <!-- 10000 -->
      <g transform="translate(18.7875 63.321692)scale(0.1 -0.1)">
       <use xlink:href="#DejaVuSans-31"/>
       <use x="63.623047" xlink:href="#DejaVuSans-30"/>
       <use x="127.246094" xlink:href="#DejaVuSans-30"/>
       <use x="190.869141" xlink:href="#DejaVuSans-30"/>
       <use x="254.492188" xlink:href="#DejaVuSans-30"/>
      </g>
     </g>
    </g>
    <g id="text_18">
     <!-- EUR -->
     <defs>
      <path d="M 9.8125 72.90625 
L 55.90625 72.90625 
L 55.90625 64.59375 
L 19.671875 64.59375 
L 19.671875 43.015625 
L 54.390625 43.015625 
L 54.390625 34.71875 
L 19.671875 34.71875 
L 19.671875 8.296875 
L 56.78125 8.296875 
L 56.78125 0 
L 9.8125 0 
z
" id="DejaVuSans-45"/>
      <path d="M 8.6875 72.90625 
L 18.609375 72.90625 
L 18.609375 28.609375 
Q 18.609375 16.890625 22.84375 11.734375 
Q 27.09375 6.59375 36.625 6.59375 
Q 46.09375 6.59375 50.34375 11.734375 
Q 54.59375 16.890625 54.59375 28.609375 
L 54.59375 72.90625 
L 64.5 72.90625 
L 64.5 27.390625 
Q 64.5 13.140625 57.4375 5.859375 
Q 50.390625 -1.421875 36.625 -1.421875 
Q 22.796875 -1.421875 15.734375 5.859375 
Q 8.6875 13.140625 8.6875 27.390625 
z
" id="DejaVuSans-55"/>
      <path d="M 44.390625 34.1875 
Q 47.5625 33.109375 50.5625 29.59375 
Q 53.5625 26.078125 56.59375 19.921875 
L 66.609375 0 
L 56 0 
L 46.6875 18.703125 
Q 43.0625 26.03125 39.671875 28.421875 
Q 36.28125 30.8125 30.421875 30.8125 
L 19.671875 30.8125 
L 19.671875 0 
L 9.8125 0 
L 9.8125 72.90625 
L 32.078125 72.90625 
Q 44.578125 72.90625 50.734375 67.671875 
Q 56.890625 62.453125 56.890625 51.90625 
Q 56.890625 45.015625 53.6875 40.46875 
Q 50.484375 35.9375 44.390625 34.1875 
z
M 19.671875 64.796875 
L 19.671875 38.921875 
L 32.078125 38.921875 
Q 39.203125 38.921875 42.84375 42.21875 
Q 46.484375 45.515625 46.484375 51.90625 
Q 46.484375 58.296875 42.84375 61.546875 
Q 39.203125 64.796875 32.078125 64.796875 
z
" id="DejaVuSans-52"/>
     </defs>
     <g transform="translate(12.707813 169.268969)rotate(-90)scale(0.1 -0.1)">
      <use xlink:href="#DejaVuSans-45"/>
      <use x="63.183594" xlink:href="#DejaVuSans-55"/>
      <use x="136.376953" xlink:href="#DejaVuSans-52"/>
     </g>
    </g>
   </g>
   <g id="line2d_33">
    <path clip-path="url(#p6484ce7057)" d="M 73.832727 265.797818 
L 113.164855 265.705514 
L 113.164855 265.690214 
L 113.164855 265.686031 
L 119.907505 265.539926 
L 119.907505 265.405559 
L 119.907505 265.405559 
L 122.155055 265.33379 
L 122.155055 265.295806 
L 122.155055 265.121021 
L 127.77393 264.963401 
L 127.77393 264.766521 
L 131.145256 264.639258 
L 131.145256 264.621009 
L 131.145256 264.621009 
L 136.764131 264.503568 
L 136.764131 264.481852 
L 140.135456 264.443112 
L 140.135456 264.371176 
L 140.135456 264.369597 
L 143.506781 264.265147 
L 143.506781 264.065521 
L 145.754331 263.954342 
L 145.754331 263.908938 
L 148.001882 263.793315 
L 148.001882 263.746426 
L 152.496982 263.632543 
L 152.496982 263.576215 
L 153.620757 263.46066 
L 153.620757 263.405643 
L 153.620757 263.405643 
L 159.239632 263.270409 
L 159.239632 263.154957 
L 163.734733 263.045905 
L 163.734733 263.017141 
L 171.601158 262.882136 
L 171.601158 262.862321 
L 176.096258 262.749684 
L 177.220033 262.64138 
L 177.220033 262.601628 
L 178.343808 262.48878 
L 178.343808 262.467431 
L 182.838909 262.345286 
L 182.838909 262.273551 
L 186.210234 262.149761 
L 186.210234 262.100593 
L 190.705334 262.024245 
L 190.705334 261.993593 
L 190.705334 261.758268 
L 194.076659 261.634052 
L 194.076659 261.420715 
L 199.695535 261.311721 
L 199.695535 261.291039 
L 206.438185 261.177096 
L 206.438185 261.112833 
L 210.933285 260.966634 
L 210.933285 260.870112 
L 210.933285 260.870112 
L 214.304611 260.743756 
L 214.304611 260.676012 
L 216.552161 260.557641 
L 216.552161 260.545758 
L 222.171036 260.412671 
L 222.171036 260.255431 
L 224.418586 260.144686 
L 224.418586 260.096729 
L 230.037461 259.940686 
L 230.037461 259.81796 
L 234.532562 259.669431 
L 234.532562 259.657207 
L 245.770312 259.54106 
L 245.770312 259.397042 
L 246.894087 259.281198 
L 246.894087 259.276641 
L 250.265413 259.142866 
L 250.265413 259.10406 
L 253.636738 258.978008 
L 253.636738 258.920669 
L 255.884288 258.817154 
L 255.884288 258.711677 
L 257.008063 258.60053 
L 257.008063 258.560696 
L 257.008063 258.560696 
L 261.503163 258.439197 
L 261.503163 258.404563 
L 261.503163 258.404563 
L 262.626938 258.29046 
L 262.626938 258.183435 
L 265.998264 258.0761 
L 265.998264 258.059348 
L 273.864689 257.932344 
L 273.864689 257.90763 
L 277.236014 257.795751 
L 277.236014 257.712865 
L 277.236014 257.712865 
L 278.359789 257.637927 
L 278.359789 257.567543 
L 279.483564 257.4532 
L 279.483564 256.928735 
L 280.607339 256.809934 
L 280.607339 256.30589 
L 281.731114 256.30589 
L 281.731114 256.195422 
L 281.731114 256.091104 
L 285.10244 255.968976 
L 285.10244 255.203593 
L 286.226215 255.092374 
L 286.226215 255.047869 
L 287.34999 255.047869 
L 287.34999 254.998545 
L 287.34999 254.694473 
L 289.59754 254.579249 
L 289.59754 254.359659 
L 289.59754 254.359659 
L 292.968865 254.245434 
L 292.968865 254.006389 
L 294.09264 253.89675 
L 294.09264 253.755837 
L 295.216415 253.644856 
L 295.216415 253.391228 
L 296.34019 253.277086 
L 296.34019 252.825636 
L 297.463965 252.766031 
L 297.463965 252.548388 
L 300.835291 252.308982 
L 300.835291 252.237379 
L 301.959066 252.135863 
L 301.959066 251.916429 
L 305.330391 251.797313 
L 305.330391 251.797313 
L 305.330391 251.72131 
L 308.701716 251.610345 
L 308.701716 251.604828 
L 310.949266 251.517292 
L 310.949266 251.420107 
L 312.073041 251.305404 
L 312.073041 251.085001 
L 313.196816 250.973512 
L 313.196816 250.940703 
L 316.568142 250.830804 
L 316.568142 250.830804 
L 316.568142 249.602532 
L 317.691917 249.493665 
L 317.691917 249.012249 
L 318.815692 248.90493 
L 318.815692 248.772358 
L 319.939467 248.772358 
L 319.939467 248.661853 
L 319.939467 248.508237 
L 321.063242 248.40773 
L 321.063242 248.342807 
L 324.434567 248.22168 
L 324.434567 248.22168 
L 324.434567 248.011811 
L 325.558342 247.900708 
L 325.558342 247.803309 
L 326.682117 247.691612 
L 326.682117 247.670064 
L 326.682117 247.670064 
L 327.805892 247.670064 
L 327.805892 247.576292 
L 327.805892 247.441335 
L 328.929667 247.333017 
L 328.929667 247.051993 
L 332.300992 246.926369 
L 332.300992 246.206428 
L 333.424767 246.206428 
L 333.424767 246.097249 
L 333.424767 246.016272 
L 334.548543 245.907762 
L 334.548543 245.865849 
L 336.796093 245.75231 
L 336.796093 245.613397 
L 340.167418 245.516269 
L 340.167418 245.403467 
L 342.414968 245.309454 
L 342.414968 245.292821 
L 342.414968 245.187356 
L 342.414968 245.187356 
L 345.786293 245.084342 
L 345.786293 244.999326 
L 348.033843 244.889941 
L 348.033843 244.728143 
L 348.033843 244.728143 
L 349.157618 244.617728 
L 349.157618 244.287105 
L 350.281393 244.180377 
L 350.281393 243.673337 
L 351.405169 243.562234 
L 351.405169 243.240495 
L 352.528944 243.131186 
L 352.528944 242.681151 
L 355.900269 242.563785 
L 355.900269 242.563785 
L 355.900269 242.24853 
L 357.024044 242.138841 
L 357.024044 242.007585 
L 358.147819 241.897465 
L 358.147819 241.884849 
L 360.395369 241.773732 
L 360.395369 241.50125 
L 363.766694 241.398933 
L 363.766694 240.849066 
L 364.890469 240.738011 
L 364.890469 240.58424 
L 366.014244 240.58424 
L 366.014244 240.482625 
L 366.014244 240.122786 
L 367.138019 240.014549 
L 367.138019 239.971691 
L 368.261795 239.86111 
L 368.261795 239.774564 
L 371.63312 239.670392 
L 371.63312 239.593474 
L 372.756895 239.554731 
L 372.756895 239.312519 
L 375.004445 239.200019 
L 375.004445 239.030116 
L 377.251995 238.949204 
L 377.251995 238.921805 
L 380.62332 238.816891 
L 380.62332 238.523025 
L 382.87087 238.413187 
L 382.87087 238.092281 
L 383.994645 237.958526 
L 383.994645 237.958526 
L 383.994645 237.453154 
L 387.365971 237.342672 
L 387.365971 236.784833 
L 388.489746 236.654798 
L 388.489746 236.516657 
L 390.737296 236.418876 
L 390.737296 236.408716 
L 390.737296 236.21071 
L 395.232396 236.097291 
L 395.232396 235.754844 
L 396.356171 235.657563 
L 396.356171 235.657563 
L 396.356171 235.496757 
L 397.479946 235.381399 
L 397.479946 234.990207 
L 397.479946 234.990207 
" style="fill:none;stroke:#0000ff;stroke-linecap:square;stroke-width:1.5;"/>
   </g>
   <g id="line2d_34">
    <path clip-path="url(#p6484ce7057)" d="M 73.832727 265.797818 
L 77.062735 265.715308 
L 77.243437 255.401541 
L 77.509397 255.545934 
L 78.01533 258.495671 
L 78.196707 259.815833 
L 78.423049 260.331522 
L 78.618995 260.558424 
L 78.796366 261.239133 
L 78.91037 261.796076 
L 79.41348 263.714437 
L 80.017483 264.622049 
L 80.021918 264.807697 
L 80.228633 264.890207 
L 80.380954 265.28213 
L 80.47122 265.385267 
L 81.064623 265.488154 
L 81.065403 224.233085 
L 81.174828 225.924543 
L 81.234672 226.935292 
L 81.353995 244.01489 
L 81.463758 248.160542 
L 81.500489 248.861878 
L 81.714904 255.417367 
L 81.919733 255.619987 
L 82.040629 257.674137 
L 82.126187 257.75116 
L 82.245653 260.391484 
L 82.38489 261.856039 
L 82.536677 263.361849 
L 82.609346 263.155252 
L 82.63571 263.382155 
L 82.946998 264.144833 
L 83.381512 264.289226 
L 83.671118 265.17621 
L 83.818847 265.588761 
L 84.561684 265.691656 
L 84.676142 265.732911 
L 85.456724 265.767633 
L 85.597664 265.559989 
L 85.61772 265.642499 
L 85.645216 265.621592 
L 85.69217 265.745357 
L 89.239735 265.786611 
L 90.085584 265.577598 
L 90.091099 265.680735 
L 90.098721 265.742618 
L 91.21676 265.783873 
L 92.684158 265.596048 
L 92.694954 265.781695 
L 96.762837 265.760947 
L 96.762837 265.56387 
L 96.765556 265.770145 
L 97.012461 265.75758 
L 112.423319 265.783341 
L 112.423319 265.748641 
L 112.423319 265.718166 
L 112.438433 265.780049 
L 112.504168 265.76867 
L 112.616247 265.789298 
L 113.650926 265.785412 
L 114.131574 265.571447 
L 114.640265 265.551435 
L 114.640265 265.443164 
L 114.676826 265.546301 
L 117.344778 265.796772 
L 120.608421 265.723968 
L 120.639832 265.503688 
L 120.696138 265.606826 
L 120.719667 265.627453 
L 122.521466 265.481983 
L 122.56613 265.432555 
L 122.626859 265.489013 
L 122.685388 265.468537 
L 122.694714 265.571675 
L 122.941385 265.706084 
L 123.003076 265.596101 
L 123.043969 265.678612 
L 124.875748 265.766233 
L 124.925369 265.78493 
L 124.925369 265.778453 
L 128.147872 265.632435 
L 128.166953 265.59521 
L 128.225613 265.657093 
L 128.241598 265.656321 
L 128.812655 265.747847 
L 128.864734 265.768475 
L 130.610097 265.790262 
L 130.677068 257.004582 
L 130.761689 259.943692 
L 130.771184 260.170595 
L 130.926054 264.211326 
L 130.926054 264.205663 
L 130.946215 264.246918 
L 131.090758 264.308801 
L 131.685097 264.29574 
L 131.698052 263.779627 
L 131.719161 264.274688 
L 131.831214 264.295315 
L 131.90582 265.079162 
L 132.658164 265.07621 
L 132.705053 264.864664 
L 132.719451 265.091567 
L 132.751877 265.090439 
L 132.98601 265.126724 
L 133.131242 265.598476 
L 133.131242 265.597059 
L 133.970249 265.610087 
L 134.118304 265.75448 
L 136.50695 265.644098 
L 136.571658 265.631633 
L 136.576198 265.693516 
L 143.906073 265.590144 
L 144.001737 265.512467 
L 144.016811 265.594978 
L 144.101667 265.668933 
L 144.101667 265.643653 
L 144.372582 265.718098 
L 144.372582 265.714161 
L 144.372582 265.505184 
L 144.42842 265.711459 
L 144.898064 265.752714 
L 152.43217 265.752821 
L 152.455777 265.550352 
L 152.485458 265.694745 
L 152.904064 265.657191 
L 152.943513 265.563686 
L 152.997543 265.673049 
L 153.171 265.714302 
L 153.171 265.695672 
L 154.022038 265.585612 
L 154.062554 265.559201 
L 154.129603 265.724221 
L 172.042916 265.775226 
L 172.130867 265.795321 
L 172.503911 265.786832 
L 172.597429 265.580557 
L 172.597429 265.239487 
L 172.615183 265.79643 
L 176.524437 265.744651 
L 176.627866 265.634936 
L 176.648924 265.758701 
L 176.867423 265.634247 
L 176.906469 265.090392 
L 176.906638 264.338772 
L 176.95817 265.344762 
L 177.217042 265.330815 
L 177.290256 265.559058 
L 177.570862 265.448469 
L 177.6633 265.39716 
L 178.026797 265.433728 
L 178.026797 265.428666 
L 179.055481 265.298961 
L 179.055481 265.286651 
L 179.093447 265.761085 
L 179.153746 265.759999 
L 179.20191 265.79164 
L 179.338766 265.400984 
L 179.354881 265.607259 
L 180.372639 265.567447 
L 180.445164 265.773722 
L 191.564983 265.650008 
L 191.564983 265.573332 
L 191.644103 265.674016 
L 191.653818 265.667668 
L 191.793601 265.665986 
L 191.866477 265.748496 
L 194.440521 265.639195 
L 194.472582 265.544616 
L 194.543221 265.676297 
L 194.708926 265.740653 
L 194.708926 265.734823 
L 196.889219 265.797021 
L 220.408777 265.768208 
L 220.413004 265.788835 
L 222.555188 265.674767 
L 222.585415 265.586017 
L 222.653921 265.656031 
L 223.778789 265.733125 
L 223.962052 265.789593 
L 223.962052 265.787964 
L 228.354686 265.794215 
L 230.401752 265.685284 
L 230.401752 265.600581 
L 230.501435 265.672675 
L 230.654029 265.72133 
L 230.654029 265.720895 
L 238.492854 265.778912 
L 238.559735 263.721727 
L 238.623207 264.539353 
L 239.975535 264.558982 
L 240.584181 264.556386 
L 240.817027 265.794038 
L 240.841492 264.556386 
L 241.756758 264.547156 
L 241.968688 264.794686 
L 241.986494 265.784808 
L 246.151954 265.674188 
L 246.218652 265.649477 
L 246.253809 265.71136 
L 246.90007 265.750458 
L 246.90007 265.773305 
L 256.658522 265.633577 
L 256.705632 265.424686 
L 256.7324 265.655714 
L 257.389561 265.54057 
L 257.431352 265.462633 
L 257.477629 265.494248 
L 257.527523 265.526232 
L 257.615955 265.739099 
L 257.781049 265.688853 
L 260.027233 265.766428 
L 260.110619 265.787056 
L 262.998851 265.680084 
L 262.998851 265.576139 
L 263.09272 265.634243 
L 264.413259 265.70828 
L 264.647548 265.745841 
L 264.647548 265.744705 
L 273.550747 265.659575 
L 273.550747 265.711311 
L 273.554975 265.14103 
L 273.557732 265.70707 
L 273.740762 265.697878 
L 273.748462 265.3996 
L 273.752338 265.709013 
L 274.816958 265.636353 
L 274.84478 264.705076 
L 274.844845 264.457619 
L 274.849436 265.646492 
L 274.863392 265.645685 
L 275.742733 265.710443 
L 275.743006 262.059456 
L 275.833168 265.77757 
L 275.836628 265.716777 
L 275.879433 265.759775 
L 275.879433 265.741139 
L 275.884441 263.944505 
L 275.888993 265.78939 
L 275.890333 265.591165 
L 275.99527 265.208657 
L 276.055244 265.79386 
L 276.057598 264.89859 
L 276.057676 263.51837 
L 276.125896 265.797099 
L 276.166308 265.559782 
L 276.176596 265.793656 
L 277.5928 265.692032 
L 277.5928 265.596499 
L 277.691533 265.797088 
L 277.724297 265.796661 
L 277.749816 214.227825 
L 277.852634 229.195874 
L 277.857524 229.342878 
L 277.964023 241.312498 
L 277.975794 241.542793 
L 278.064226 260.843977 
L 278.10547 260.843688 
L 278.212138 264.558141 
L 278.978074 264.546509 
L 279.065309 264.746999 
L 279.065426 265.784913 
L 279.172042 265.780941 
L 279.837488 265.69038 
L 279.884989 214.22638 
L 279.847946 265.795216 
L 279.942816 220.004515 
L 279.978272 221.30907 
L 280.085057 228.769336 
L 280.096828 228.894961 
L 280.203561 237.992298 
L 280.215358 238.140175 
L 280.298457 251.610965 
L 280.322142 244.94306 
L 280.333926 245.172378 
L 280.381375 251.294785 
L 280.387332 240.927181 
L 280.440607 246.790558 
L 280.45243 247.023697 
L 280.559072 257.37456 
L 280.570895 257.609865 
L 280.677523 265.781532 
L 280.955554 265.673068 
L 280.955554 265.375296 
L 281.044714 265.793801 
L 281.275999 265.688875 
L 281.283061 261.655825 
L 281.364899 265.797523 
L 281.368944 265.777025 
L 281.601191 265.781496 
L 281.601191 265.777848 
L 281.601191 265.761375 
L 281.609801 265.78324 
L 281.694969 265.777811 
L 282.374242 265.683452 
L 282.374242 265.662474 
L 282.380251 265.793665 
L 282.467447 265.780477 
L 282.678975 265.794704 
L 285.467458 265.678971 
L 285.467458 265.384529 
L 285.47482 265.785438 
L 285.574152 265.774631 
L 285.693514 265.78667 
L 285.602962 265.684322 
L 285.693514 265.786611 
L 285.715417 265.730053 
L 285.700135 265.796836 
L 285.795031 265.795981 
L 290.220442 265.750146 
L 290.312139 265.656648 
L 290.31223 265.793822 
L 293.340114 265.679808 
L 293.340114 265.646686 
L 293.346943 265.770958 
L 293.412977 265.760968 
L 293.71442 265.72307 
L 293.71442 265.513316 
L 293.821243 265.764052 
L 293.828241 265.695128 
L 293.851562 265.509444 
L 293.904967 265.757328 
L 293.919613 265.755942 
L 293.964889 265.776934 
L 293.964889 265.776374 
L 294.437863 265.646249 
L 294.437863 265.571949 
L 294.532252 265.792491 
L 295.559492 265.674503 
L 295.559492 265.564432 
L 295.646116 265.793754 
L 296.693932 265.621589 
L 296.693932 265.374929 
L 296.701008 265.790416 
L 296.796308 265.726124 
L 296.821307 265.642838 
L 296.914317 265.790562 
L 297.42873 265.75988 
L 297.805598 265.402627 
L 297.805598 265.293839 
L 297.827293 265.750038 
L 297.910159 265.724207 
L 298.03869 265.765098 
L 298.03869 264.494825 
L 298.052595 265.775756 
L 298.132755 265.753417 
L 298.272082 265.715507 
L 298.272082 265.705402 
L 301.277517 265.785382 
L 301.277517 265.774455 
L 301.277517 265.650988 
L 301.372544 265.746687 
L 301.651432 265.768365 
L 301.651432 265.768118 
L 301.651432 265.762058 
L 303.920586 265.673678 
L 303.920586 265.443475 
L 303.94353 265.784041 
L 303.946847 265.782954 
L 310.15534 265.791974 
L 310.15534 265.707777 
L 310.15534 265.659242 
L 310.202957 265.78345 
L 310.226603 265.782875 
L 311.489394 265.78292 
L 311.489394 265.472486 
L 311.579231 265.788374 
L 312.421477 265.662744 
L 312.421477 265.501053 
L 312.509115 265.785538 
L 312.531682 265.782208 
L 316.925317 265.656191 
L 316.925317 264.933343 
L 317.004125 265.789433 
L 317.027784 265.788824 
L 317.439574 265.676157 
L 317.439574 265.628578 
L 317.47092 265.797072 
L 317.530426 265.795065 
L 318.032561 265.68852 
L 318.032561 265.526857 
L 318.122788 265.784362 
L 318.143117 265.755316 
L 318.252373 265.794171 
L 318.252373 265.782322 
L 318.773849 265.786839 
L 319.157363 265.574711 
L 319.253743 265.78269 
L 319.428851 265.766788 
L 319.451418 265.565155 
L 319.478914 265.797321 
L 319.522903 265.779999 
L 319.775037 265.786688 
L 320.781375 265.69488 
L 320.781375 265.539484 
L 320.789829 265.787207 
L 320.825415 265.783 
L 322.089727 265.732498 
L 322.08974 265.200555 
L 322.096243 265.782804 
L 324.816429 265.782533 
L 324.816429 265.703573 
L 324.816429 265.701467 
L 324.823401 265.795314 
L 324.917153 265.777925 
L 328.19154 265.716497 
L 328.191553 265.776588 
L 328.261801 265.797298 
L 328.262777 265.778697 
L 329.291018 265.671288 
L 329.291018 265.446468 
L 329.303192 265.797661 
L 329.386188 265.780835 
L 329.565537 265.752361 
L 329.565537 265.645526 
L 329.575968 265.79051 
L 329.650717 265.785136 
L 329.919838 265.79657 
L 330.571758 265.797013 
L 330.575777 265.602963 
L 330.624083 265.783185 
L 332.656894 265.782108 
L 332.656894 265.697196 
L 332.656907 265.206979 
L 332.671357 265.795442 
L 332.766449 265.774563 
L 332.88265 265.790515 
L 332.790498 265.666362 
L 332.884666 265.783193 
L 337.161554 265.652067 
L 337.161554 265.624347 
L 337.220162 265.796901 
L 337.255982 265.790219 
L 341.812773 265.779319 
L 341.880355 265.599786 
L 341.883503 265.788506 
L 343.074757 265.780856 
L 343.074757 265.769207 
L 343.074757 265.640688 
L 343.081221 265.78702 
L 343.168288 265.779983 
L 348.383944 265.660382 
L 348.383944 265.634904 
L 348.477409 265.797084 
L 349.136405 265.788064 
L 349.528035 265.681651 
L 349.528035 265.455484 
L 349.545802 265.792428 
L 349.630944 265.79014 
L 350.631897 265.677774 
L 350.631897 265.279788 
L 350.63814 265.781675 
L 350.73569 265.751549 
L 350.85193 265.726468 
L 350.852165 265.748807 
L 350.966805 265.621484 
L 350.970759 265.708365 
L 351.037223 265.472929 
L 351.132016 265.546797 
L 351.274608 265.680973 
L 351.749208 265.535582 
L 351.749208 265.424156 
L 351.836807 265.685754 
L 351.862652 265.655663 
L 351.979191 265.702567 
L 352.115176 265.749905 
L 352.873685 265.636662 
L 352.932878 265.380527 
L 352.937184 265.710567 
L 352.982798 265.615576 
L 353.167297 265.54754 
L 353.238184 265.371497 
L 353.266265 265.392124 
L 353.426572 265.470123 
L 353.565613 265.58968 
L 353.565613 265.586103 
L 354.642512 265.749255 
L 354.642512 265.747219 
L 356.24886 265.636928 
L 356.315142 265.582809 
L 357.402199 265.470606 
L 357.488941 265.430611 
L 357.612205 265.535726 
L 357.791944 265.631419 
L 357.791944 265.621297 
L 357.8457 265.690005 
L 357.888739 265.686802 
L 358.635035 265.5769 
L 358.834909 265.602656 
L 358.924733 265.641627 
L 359.148603 265.622761 
L 359.947758 265.703068 
L 360.139814 265.745283 
L 360.7578 265.638286 
L 360.865352 265.510369 
L 361.117525 265.70784 
L 361.117525 265.696335 
L 364.139829 265.630887 
L 364.161615 265.383781 
L 364.25075 265.693194 
L 364.370606 265.581238 
L 364.46467 265.556939 
L 364.719913 265.462835 
L 364.813977 265.234756 
L 365.23815 265.122772 
L 365.337053 265.013718 
L 365.365329 265.343759 
L 365.431546 265.329414 
L 366.380577 265.219416 
L 366.471597 264.882844 
L 366.476878 264.985981 
L 366.649242 265.05729 
L 366.953247 265.129377 
L 367.103045 265.396644 
L 367.515382 265.363405 
L 367.7132 265.748772 
L 367.750243 265.734358 
L 367.890559 265.743257 
L 367.773173 265.606328 
L 367.890559 265.736598 
L 368.721645 265.624059 
L 368.721645 265.596548 
L 368.736863 265.74094 
L 368.803145 265.736269 
L 376.040815 265.680103 
L 376.040815 265.474115 
L 376.075543 265.711238 
L 381.185832 265.639837 
L 381.185832 263.811885 
L 381.256861 265.50121 
L 382.291671 265.507455 
L 382.435824 265.794172 
L 382.475143 265.706966 
L 382.522084 265.78839 
L 383.209915 265.675808 
L 383.209928 265.481138 
L 383.307322 265.790962 
L 383.441407 265.733467 
L 383.443905 265.791842 
L 384.359885 265.656094 
L 384.359898 265.470967 
L 384.452181 265.789466 
L 387.73679 265.601743 
L 387.73679 265.45002 
L 387.737415 265.783068 
L 387.820371 265.782983 
L 387.853395 265.691311 
L 387.905929 265.635451 
L 387.962677 265.785062 
L 389.167406 265.677941 
L 389.259675 265.59998 
L 389.264227 265.620608 
L 389.354103 265.73466 
L 389.354103 265.728196 
L 390.147522 265.733399 
L 390.168866 264.733932 
L 390.242341 265.718966 
L 390.287526 265.643348 
L 390.287526 265.56786 
L 390.337263 265.757634 
L 396.039186 265.632556 
L 396.039186 265.596949 
L 396.090588 265.753934 
L 396.138115 265.746215 
L 396.725547 265.75564 
L 396.725547 265.755051 
L 396.824008 265.599414 
L 396.826622 265.726154 
L 397.832531 265.613306 
L 397.832531 265.405415 
L 397.83469 265.77531 
L 397.941344 265.764995 
L 398.487273 265.782992 
L 398.487273 265.782992 
" style="fill:none;stroke:#ff0000;stroke-linecap:square;stroke-width:1.5;"/>
   </g>
   <g id="line2d_35">
    <path clip-path="url(#p6484ce7057)" d="M 73.832727 265.797818 
L 77.204052 265.674053 
L 77.204052 261.09474 
L 78.327828 260.888465 
L 78.327828 257.546804 
L 79.451603 257.402412 
L 79.451603 255.917229 
L 80.575378 255.710954 
L 80.575378 245.129029 
L 80.575378 245.479697 
L 81.329478 245.273421 
L 81.355049 228.771394 
L 81.603476 228.565118 
L 81.699153 217.389061 
L 81.699153 217.700559 
L 81.919733 217.497939 
L 82.014863 216.268891 
L 82.822928 215.959478 
L 82.822928 214.680571 
L 83.946703 214.329903 
L 83.946703 214.288648 
L 83.946703 214.288918 
L 85.070478 214.18578 
L 85.070478 214.000132 
L 85.070478 214.311351 
L 89.565578 214.125703 
L 89.565578 214.105076 
L 89.565578 214.311351 
L 91.813128 214.249468 
L 91.813128 214.063821 
L 91.813128 214.270096 
L 96.308229 214.063821 
L 96.308229 214.084448 
L 96.308229 214.290724 
L 113.164855 214.173343 
L 113.164855 214.176913 
L 113.164855 214.384821 
L 114.28863 214.281683 
L 114.28863 214.034153 
L 114.28863 214.139626 
L 115.412405 214.015861 
L 115.412405 213.995233 
L 115.412405 214.130804 
L 116.53618 214.007039 
L 116.53618 213.986411 
L 116.53618 214.03407 
L 119.907505 213.89324 
L 119.907505 213.769474 
L 119.907505 214.059936 
L 121.03128 213.936171 
L 121.03128 213.894916 
L 121.03128 213.945437 
L 122.155055 213.821672 
L 122.155055 213.471004 
L 122.155055 213.712646 
L 123.27883 213.588881 
L 123.27883 213.526998 
L 123.27883 213.574471 
L 124.402605 213.450706 
L 124.402605 213.368196 
L 124.402605 213.537259 
L 127.77393 213.375515 
L 127.77393 213.148612 
L 127.77393 213.268283 
L 130.021481 213.131784 
L 130.021481 210.120164 
L 130.021481 210.132034 
L 130.759127 209.925758 
L 130.776296 205.862134 
L 131.145256 205.779624 
L 131.145256 204.500717 
L 131.145256 205.040077 
L 132.269031 204.936939 
L 132.269031 204.400623 
L 132.269031 204.615883 
L 134.516581 204.349719 
L 135.640356 204.225954 
L 135.640356 204.164071 
L 135.640356 204.358858 
L 137.887906 204.202175 
L 137.887906 204.302746 
L 137.887906 204.323374 
L 139.011681 204.199609 
L 139.011681 204.178981 
L 139.011681 204.228469 
L 139.011681 204.228469 
L 140.135456 204.104704 
L 140.135456 204.084076 
L 140.135456 204.12344 
L 143.506781 203.958618 
L 143.506781 203.60795 
L 143.506781 203.859247 
L 145.754331 203.708756 
L 145.754331 203.646873 
L 145.754331 203.653276 
L 148.001882 203.517738 
L 148.001882 203.476483 
L 148.001882 203.505176 
L 151.373207 203.361706 
L 151.373207 203.217313 
L 151.373207 203.471477 
L 152.496982 203.347712 
L 152.496982 203.244574 
L 152.496982 203.355081 
L 153.620757 203.231316 
L 153.620757 203.128178 
L 153.620757 203.211549 
L 155.868307 203.067681 
L 155.868307 203.005798 
L 155.868307 203.056956 
L 160.363407 202.87368 
L 160.363407 202.853052 
L 160.363407 202.858688 
L 171.601158 202.611678 
L 171.601158 202.054735 
L 171.601158 202.591703 
L 176.096258 202.532745 
L 176.096258 202.512118 
L 176.096258 202.223332 
L 176.096258 202.366607 
L 176.867423 202.486151 
L 176.906469 202.970192 
L 176.906638 203.802254 
L 176.906976 202.977153 
L 177.220033 202.703732 
L 177.220033 202.735624 
L 178.343808 202.611858 
L 178.343808 201.993032 
L 178.343808 202.435161 
L 179.467583 202.393906 
L 179.467583 202.18763 
L 179.467583 202.20723 
L 182.838909 202.16952 
L 182.838909 202.107637 
L 182.838909 202.045755 
L 182.838909 202.080443 
L 185.086459 201.936992 
L 185.086459 201.916364 
L 185.086459 201.942952 
L 189.581559 201.809167 
L 189.581559 201.813051 
L 190.705334 201.606776 
L 190.705334 201.421128 
L 190.705334 201.584761 
L 194.076659 201.428261 
L 194.076659 201.201359 
L 194.076659 201.284343 
L 201.943085 201.036205 
L 201.943085 200.99495 
L 201.943085 201.041599 
L 209.80951 200.801018 
L 209.80951 200.78039 
L 209.80951 200.841666 
L 210.933285 200.717901 
L 210.933285 200.697273 
L 210.933285 200.726707 
L 214.304611 200.564844 
L 214.304611 200.523589 
L 214.304611 200.562403 
L 216.552161 200.410216 
L 216.552161 200.389588 
L 216.552161 200.419275 
L 222.171036 200.210249 
L 222.171036 200.024601 
L 222.171036 200.134423 
L 223.294811 200.010658 
L 223.294811 199.990031 
L 223.294811 200.034931 
L 225.542361 199.914696 
L 225.542361 199.832186 
L 225.542361 199.893817 
L 230.037461 199.714049 
L 230.037461 199.652166 
L 230.037461 199.712799 
L 233.408787 199.574364 
L 233.408787 199.512481 
L 233.408787 199.563692 
L 237.903887 199.465389 
L 237.903887 198.61966 
L 237.903887 198.759399 
L 240.151437 198.708903 
L 240.151437 198.709295 
L 240.151437 199.946947 
L 241.275212 199.92632 
L 241.275212 198.688668 
L 241.275212 198.708601 
L 245.770312 198.52376 
L 245.770312 198.503132 
L 245.770312 198.563212 
L 249.141638 198.393873 
L 249.141638 198.270107 
L 249.141638 198.300035 
L 253.636738 198.134982 
L 253.636738 198.093727 
L 253.636738 198.160738 
L 255.884288 198.017408 
L 255.884288 197.976153 
L 255.884288 198.213322 
L 257.008063 197.965792 
L 257.008063 197.677006 
L 257.008063 197.905398 
L 258.131838 197.871812 
L 258.131838 197.830557 
L 258.131838 197.706792 
L 258.131838 197.85472 
L 259.255613 197.710448 
L 259.255613 197.68982 
L 259.255613 197.693451 
L 262.626938 197.528876 
L 262.626938 197.446366 
L 262.626938 197.494726 
L 264.874488 197.358363 
L 264.874488 197.29648 
L 264.874488 197.30988 
L 272.740914 197.11511 
L 272.740914 196.805697 
L 272.845969 196.955594 
L 273.550019 197.014001 
L 273.550747 196.947385 
L 273.554194 197.505191 
L 273.557732 197.011765 
L 273.864689 197.311396 
L 273.864689 197.311396 
L 274.606198 197.356442 
L 274.843128 197.55361 
L 274.844845 198.535176 
L 274.849436 197.416361 
L 275.742733 197.352834 
L 275.743006 201.003821 
L 275.836628 197.865184 
L 275.879433 197.822178 
L 275.879446 197.939591 
L 275.884441 199.671208 
L 275.880552 197.834792 
L 275.890333 198.095705 
L 275.99527 198.478212 
L 276.055244 197.921269 
L 276.057598 198.816539 
L 276.057676 200.196759 
L 276.125896 198.008142 
L 276.166308 198.24546 
L 276.176596 198.018798 
L 277.236014 197.564993 
L 277.236014 195.976672 
L 277.236014 196.005309 
L 277.596936 195.883911 
L 277.691533 195.802059 
L 277.750922 195.740539 
L 277.857589 179.375294 
L 277.86936 179.148391 
L 277.975846 170.73622 
L 277.987643 170.387504 
L 278.064226 151.93398 
L 278.105483 151.892146 
L 278.212138 148.336173 
L 278.804552 148.262573 
L 279.065309 148.091223 
L 279.172042 147.041248 
L 279.255037 147.018098 
L 279.483564 145.780446 
L 279.575248 145.850498 
L 279.847894 145.726974 
L 279.954626 139.062205 
L 279.966436 138.835627 
L 280.073182 132.038157 
L 280.084992 131.72984 
L 280.191712 122.592983 
L 280.203535 122.367048 
L 280.310293 107.021382 
L 280.322116 105.976293 
L 280.428758 96.062545 
L 280.476115 91.992738 
L 280.58277 82.82772 
L 280.594619 81.780072 
L 280.677523 76.691052 
L 280.961797 76.650092 
L 281.044714 76.22492 
L 281.281995 76.062532 
L 281.407821 72.248442 
L 281.731114 72.207246 
L 281.731114 72.307669 
L 281.731114 72.436902 
L 282.380212 72.252869 
L 282.403949 72.14979 
L 282.546125 72.039043 
L 282.593495 71.997788 
L 283.978665 71.926933 
L 285.474768 71.761376 
L 285.581501 71.576847 
L 285.795031 71.246641 
L 287.787196 70.859655 
L 287.88204 70.715561 
L 289.59754 70.611423 
L 289.59754 70.754333 
L 289.59754 70.783454 
L 290.205549 70.677601 
L 290.418845 70.388618 
L 292.968865 70.342835 
L 292.968865 70.487176 
L 292.968865 71.020272 
L 293.690852 70.779266 
L 293.856817 70.090726 
L 295.216415 69.746397 
L 295.216415 69.774543 
L 295.56316 69.670259 
L 295.646116 69.526984 
L 295.977864 69.465699 
L 296.025351 69.44513 
L 296.34019 69.550768 
L 296.34019 69.647087 
L 296.416526 69.641961 
L 296.701008 69.436274 
L 296.807689 69.145303 
L 296.914317 68.942877 
L 297.463965 68.905906 
L 297.463965 68.94714 
L 297.463965 70.544858 
L 297.815353 70.339789 
L 297.910159 70.073141 
L 297.95762 70.032257 
L 298.040615 69.622769 
L 298.052595 68.764008 
L 299.036444 68.643132 
L 301.418717 68.450544 
L 301.584591 68.368611 
L 302.461591 68.19468 
L 302.829276 68.051613 
L 303.082841 68.14755 
L 303.082841 68.414266 
L 303.102 68.400264 
L 303.931616 68.288521 
L 303.94353 67.983505 
L 305.686201 67.898517 
L 305.781045 67.85738 
L 309.825491 67.739823 
L 309.825491 67.910655 
L 309.825491 68.031993 
L 309.825491 68.031993 
L 310.226603 67.889251 
L 310.226603 67.868682 
L 310.771933 67.760909 
L 310.878588 67.69927 
L 310.949266 67.689223 
L 310.949266 67.693484 
L 310.949266 68.046338 
L 311.496222 67.942576 
L 311.579231 67.678201 
L 312.073041 67.571848 
L 312.073041 67.619471 
L 312.627814 67.312988 
L 316.568142 67.110736 
L 316.568142 67.143007 
L 316.568142 67.479399 
L 316.932835 67.397248 
L 317.027784 66.417134 
L 317.447144 65.912175 
L 317.47092 65.873654 
L 318.039767 65.750515 
L 318.146512 65.608616 
L 318.454627 65.424173 
L 318.52576 65.322516 
L 318.815692 65.281948 
L 318.815692 65.282584 
L 318.815692 65.803975 
L 319.455203 65.352254 
L 319.514448 65.145505 
L 319.939467 65.069779 
L 319.939467 65.134582 
L 319.939467 65.365117 
L 319.939467 65.365117 
L 320.433785 65.21073 
L 320.493082 65.149369 
L 320.789764 64.996036 
L 320.825415 64.832247 
L 321.063242 64.813385 
L 321.063242 64.881646 
L 321.063242 65.398536 
L 321.977636 65.245838 
L 322.096191 65.126622 
L 322.096243 64.677331 
L 322.187017 64.67761 
L 325.036814 64.5531 
L 325.558342 64.36239 
L 325.558342 64.379443 
L 325.558342 64.402913 
L 325.91436 64.283185 
L 326.211016 64.183209 
L 326.682117 64.127091 
L 326.682117 64.24326 
L 326.682117 64.332209 
L 327.301923 64.241354 
L 327.301936 64.109671 
L 328.191553 64.003681 
L 328.428859 63.943079 
L 328.929667 63.819723 
L 328.929667 63.839325 
L 328.929667 64.024068 
L 329.291239 63.892156 
L 329.386188 63.661596 
L 330.053442 63.442517 
L 330.053442 63.447873 
L 330.053442 63.655162 
L 330.571758 63.649978 
L 330.607344 63.466346 
L 332.300992 63.448977 
L 332.300992 63.53108 
L 332.801645 62.843695 
L 332.884666 62.74131 
L 335.233811 62.405909 
L 335.672318 62.344583 
L 335.672318 62.407051 
L 335.672318 62.427802 
L 337.504968 62.223165 
L 337.765661 62.128331 
L 340.612415 62.02027 
L 341.291193 61.917419 
L 341.291193 61.926459 
L 341.291193 62.122259 
L 341.313942 62.118855 
L 341.883438 61.988098 
L 341.930912 61.865018 
L 342.414968 61.82889 
L 342.414968 61.901597 
L 342.414968 61.971488 
L 342.476307 61.971057 
L 343.081169 61.866332 
L 343.128539 61.770334 
L 343.538743 61.72768 
L 343.538743 61.74473 
L 344.662518 61.668768 
L 344.662518 61.545003 
L 344.662518 61.677058 
L 348.033843 61.485928 
L 348.033843 61.525878 
L 348.033843 61.715522 
L 349.047088 61.311808 
L 349.157618 61.188297 
L 349.157618 61.347829 
L 349.533966 61.141553 
L 349.616922 60.977217 
L 350.281393 60.807185 
L 350.281393 60.600909 
L 350.281393 61.063998 
L 350.638101 60.940419 
L 350.63814 60.569123 
L 350.970759 60.46202 
L 351.753838 60.139072 
L 351.860636 60.024016 
L 352.097604 59.90702 
L 352.528944 59.556352 
L 352.528944 59.164429 
L 352.528944 59.460794 
L 353.652719 59.440167 
L 353.652719 59.295774 
L 353.652719 59.297933 
L 355.900269 59.114871 
L 355.900269 58.826086 
L 355.900269 59.081569 
L 357.024044 58.999059 
L 357.024044 58.669019 
L 357.024044 58.715934 
L 358.147819 58.612796 
L 358.147819 58.468404 
L 358.147819 58.648688 
L 359.271594 58.566178 
L 359.271594 58.421785 
L 359.271594 58.43455 
L 360.395369 58.35204 
L 360.395369 58.166393 
L 360.395369 58.243974 
L 362.642919 58.098034 
L 362.642919 58.077406 
L 362.642919 58.078154 
L 363.766694 57.748113 
L 363.766694 57.727486 
L 363.766694 58.000541 
L 364.890469 57.629245 
L 364.890469 57.656326 
L 366.014244 57.45005 
L 366.014244 57.016872 
L 366.014244 57.112372 
L 367.138019 56.885469 
L 367.138019 56.431663 
L 367.138019 56.604832 
L 369.38557 56.360792 
L 369.38557 56.361063 
L 371.63312 56.238072 
L 371.63312 56.134934 
L 371.63312 56.220648 
L 375.004445 55.746887 
L 375.004445 55.664377 
L 375.004445 55.942231 
L 376.063642 55.834201 
L 376.12822 55.648891 
L 376.12822 55.813516 
L 376.478671 55.772486 
L 376.573672 55.671743 
L 377.251995 55.570866 
L 377.251995 55.577095 
L 380.62332 55.487025 
L 380.62332 54.02247 
L 380.62332 55.963682 
L 380.99959 55.840714 
L 380.999603 55.820272 
L 381.189513 55.678905 
L 381.225203 55.487672 
L 381.747095 55.383276 
L 381.747095 55.492894 
L 382.317203 55.40493 
L 382.388297 55.161107 
L 382.435824 55.140591 
L 383.218473 55.03321 
L 383.325102 54.910048 
L 384.369107 54.645717 
L 384.452181 54.563822 
L 384.819762 54.377499 
L 384.86734 54.316795 
L 386.883541 54.219174 
L 387.365971 54.198546 
L 387.365971 54.230725 
L 387.365971 54.424029 
L 387.737376 54.404298 
L 387.820371 54.040761 
L 388.045764 53.652294 
L 388.489746 53.446272 
L 388.489746 53.363762 
L 388.489746 53.618842 
L 389.552988 53.435193 
L 389.613521 53.352683 
L 389.613521 53.473608 
L 389.613521 54.50496 
L 390.147522 54.440075 
L 390.28988 53.511987 
L 390.737296 53.354103 
L 390.737296 53.414047 
L 392.301281 53.271837 
L 395.232396 53.088428 
L 395.232396 52.82027 
L 395.232396 53.1173 
L 395.781667 53.000696 
L 396.138115 52.868842 
L 396.826622 52.651365 
L 397.051806 52.590593 
L 397.478581 52.574568 
L 397.479946 52.637454 
L 397.479946 52.736518 
L 397.834677 52.614292 
L 397.941344 52.256031 
L 398.487273 52.154182 
L 398.487273 52.154182 
" style="fill:none;stroke:#008000;stroke-linecap:square;stroke-width:1.5;"/>
   </g>
   <g id="line2d_36">
    <defs>
     <path d="M 0 3 
C 0.795609 3 1.55874 2.683901 2.12132 2.12132 
C 2.683901 1.55874 3 0.795609 3 0 
C 3 -0.795609 2.683901 -1.55874 2.12132 -2.12132 
C 1.55874 -2.683901 0.795609 -3 0 -3 
C -0.795609 -3 -1.55874 -2.683901 -2.12132 -2.12132 
C -2.683901 -1.55874 -3 -0.795609 -3 0 
C -3 0.795609 -2.683901 1.55874 -2.12132 2.12132 
C -1.55874 2.683901 -0.795609 3 0 3 
z
" id="mf7c56fc0f5" style="stroke:#bfbf00;"/>
    </defs>
    <g clip-path="url(#p6484ce7057)">
     <use style="fill:#bfbf00;stroke:#bfbf00;" x="77.243437" xlink:href="#mf7c56fc0f5" y="255.484051"/>
     <use style="fill:#bfbf00;stroke:#bfbf00;" x="81.065403" xlink:href="#mf7c56fc0f5" y="224.542749"/>
     <use style="fill:#bfbf00;stroke:#bfbf00;" x="277.749816" xlink:href="#mf7c56fc0f5" y="214.228982"/>
     <use style="fill:#bfbf00;stroke:#bfbf00;" x="279.884989" xlink:href="#mf7c56fc0f5" y="214.228982"/>
     <use style="fill:#bfbf00;stroke:#bfbf00;" x="280.308459" xlink:href="#mf7c56fc0f5" y="255.484051"/>
     <use style="fill:#bfbf00;stroke:#bfbf00;" x="280.387332" xlink:href="#mf7c56fc0f5" y="255.484051"/>
     <use style="fill:#bfbf00;stroke:#bfbf00;" x="281.283061" xlink:href="#mf7c56fc0f5" y="261.672311"/>
    </g>
   </g>
   <g id="line2d_37">
    <defs>
     <path d="M 0 3 
C 0.795609 3 1.55874 2.683901 2.12132 2.12132 
C 2.683901 1.55874 3 0.795609 3 0 
C 3 -0.795609 2.683901 -1.55874 2.12132 -2.12132 
C 1.55874 -2.683901 0.795609 -3 0 -3 
C -0.795609 -3 -1.55874 -2.683901 -2.12132 -2.12132 
C -2.683901 -1.55874 -3 -0.795609 -3 0 
C -3 0.795609 -2.683901 1.55874 -2.12132 2.12132 
C -1.55874 2.683901 -0.795609 3 0 3 
z
" id="m81c927054f" style="stroke:#008000;"/>
    </defs>
    <g clip-path="url(#p6484ce7057)">
     <use style="fill:#008000;stroke:#008000;" x="130.677068" xlink:href="#m81c927054f" y="257.012139"/>
     <use style="fill:#008000;stroke:#008000;" x="238.559735" xlink:href="#m81c927054f" y="263.740634"/>
    </g>
   </g>
   <g id="patch_3">
    <path d="M 57.6 276.48 
L 57.6 41.472 
" style="fill:none;stroke:#000000;stroke-linecap:square;stroke-linejoin:miter;stroke-width:0.8;"/>
   </g>
   <g id="patch_4">
    <path d="M 414.72 276.48 
L 414.72 41.472 
" style="fill:none;stroke:#000000;stroke-linecap:square;stroke-linejoin:miter;stroke-width:0.8;"/>
   </g>
   <g id="patch_5">
    <path d="M 57.6 276.48 
L 414.72 276.48 
" style="fill:none;stroke:#000000;stroke-linecap:square;stroke-linejoin:miter;stroke-width:0.8;"/>
   </g>
   <g id="patch_6">
    <path d="M 57.6 41.472 
L 414.72 41.472 
" style="fill:none;stroke:#000000;stroke-linecap:square;stroke-linejoin:miter;stroke-width:0.8;"/>
   </g>
   <g id="text_19">
    <!-- My Bondora earnings -->
    <defs>
     <path d="M 9.8125 72.90625 
L 24.515625 72.90625 
L 43.109375 23.296875 
L 61.8125 72.90625 
L 76.515625 72.90625 
L 76.515625 0 
L 66.890625 0 
L 66.890625 64.015625 
L 48.09375 14.015625 
L 38.1875 14.015625 
L 19.390625 64.015625 
L 19.390625 0 
L 9.8125 0 
z
" id="DejaVuSans-4d"/>
     <path d="M 32.171875 -5.078125 
Q 28.375 -14.84375 24.75 -17.8125 
Q 21.140625 -20.796875 15.09375 -20.796875 
L 7.90625 -20.796875 
L 7.90625 -13.28125 
L 13.1875 -13.28125 
Q 16.890625 -13.28125 18.9375 -11.515625 
Q 21 -9.765625 23.484375 -3.21875 
L 25.09375 0.875 
L 2.984375 54.6875 
L 12.5 54.6875 
L 29.59375 11.921875 
L 46.6875 54.6875 
L 56.203125 54.6875 
z
" id="DejaVuSans-79"/>
     <path id="DejaVuSans-20"/>
     <path d="M 19.671875 34.8125 
L 19.671875 8.109375 
L 35.5 8.109375 
Q 43.453125 8.109375 47.28125 11.40625 
Q 51.125 14.703125 51.125 21.484375 
Q 51.125 28.328125 47.28125 31.5625 
Q 43.453125 34.8125 35.5 34.8125 
z
M 19.671875 64.796875 
L 19.671875 42.828125 
L 34.28125 42.828125 
Q 41.5 42.828125 45.03125 45.53125 
Q 48.578125 48.25 48.578125 53.8125 
Q 48.578125 59.328125 45.03125 62.0625 
Q 41.5 64.796875 34.28125 64.796875 
z
M 9.8125 72.90625 
L 35.015625 72.90625 
Q 46.296875 72.90625 52.390625 68.21875 
Q 58.5 63.53125 58.5 54.890625 
Q 58.5 48.1875 55.375 44.234375 
Q 52.25 40.28125 46.1875 39.3125 
Q 53.46875 37.75 57.5 32.78125 
Q 61.53125 27.828125 61.53125 20.40625 
Q 61.53125 10.640625 54.890625 5.3125 
Q 48.25 0 35.984375 0 
L 9.8125 0 
z
" id="DejaVuSans-42"/>
     <path d="M 30.609375 48.390625 
Q 23.390625 48.390625 19.1875 42.75 
Q 14.984375 37.109375 14.984375 27.296875 
Q 14.984375 17.484375 19.15625 11.84375 
Q 23.34375 6.203125 30.609375 6.203125 
Q 37.796875 6.203125 41.984375 11.859375 
Q 46.1875 17.53125 46.1875 27.296875 
Q 46.1875 37.015625 41.984375 42.703125 
Q 37.796875 48.390625 30.609375 48.390625 
z
M 30.609375 56 
Q 42.328125 56 49.015625 48.375 
Q 55.71875 40.765625 55.71875 27.296875 
Q 55.71875 13.875 49.015625 6.21875 
Q 42.328125 -1.421875 30.609375 -1.421875 
Q 18.84375 -1.421875 12.171875 6.21875 
Q 5.515625 13.875 5.515625 27.296875 
Q 5.515625 40.765625 12.171875 48.375 
Q 18.84375 56 30.609375 56 
z
" id="DejaVuSans-6f"/>
     <path d="M 54.890625 33.015625 
L 54.890625 0 
L 45.90625 0 
L 45.90625 32.71875 
Q 45.90625 40.484375 42.875 44.328125 
Q 39.84375 48.1875 33.796875 48.1875 
Q 26.515625 48.1875 22.3125 43.546875 
Q 18.109375 38.921875 18.109375 30.90625 
L 18.109375 0 
L 9.078125 0 
L 9.078125 54.6875 
L 18.109375 54.6875 
L 18.109375 46.1875 
Q 21.34375 51.125 25.703125 53.5625 
Q 30.078125 56 35.796875 56 
Q 45.21875 56 50.046875 50.171875 
Q 54.890625 44.34375 54.890625 33.015625 
z
" id="DejaVuSans-6e"/>
     <path d="M 41.109375 46.296875 
Q 39.59375 47.171875 37.8125 47.578125 
Q 36.03125 48 33.890625 48 
Q 26.265625 48 22.1875 43.046875 
Q 18.109375 38.09375 18.109375 28.8125 
L 18.109375 0 
L 9.078125 0 
L 9.078125 54.6875 
L 18.109375 54.6875 
L 18.109375 46.1875 
Q 20.953125 51.171875 25.484375 53.578125 
Q 30.03125 56 36.53125 56 
Q 37.453125 56 38.578125 55.875 
Q 39.703125 55.765625 41.0625 55.515625 
z
" id="DejaVuSans-72"/>
     <path d="M 9.421875 54.6875 
L 18.40625 54.6875 
L 18.40625 0 
L 9.421875 0 
z
M 9.421875 75.984375 
L 18.40625 75.984375 
L 18.40625 64.59375 
L 9.421875 64.59375 
z
" id="DejaVuSans-69"/>
     <path d="M 45.40625 27.984375 
Q 45.40625 37.75 41.375 43.109375 
Q 37.359375 48.484375 30.078125 48.484375 
Q 22.859375 48.484375 18.828125 43.109375 
Q 14.796875 37.75 14.796875 27.984375 
Q 14.796875 18.265625 18.828125 12.890625 
Q 22.859375 7.515625 30.078125 7.515625 
Q 37.359375 7.515625 41.375 12.890625 
Q 45.40625 18.265625 45.40625 27.984375 
z
M 54.390625 6.78125 
Q 54.390625 -7.171875 48.1875 -13.984375 
Q 42 -20.796875 29.203125 -20.796875 
Q 24.46875 -20.796875 20.265625 -20.09375 
Q 16.0625 -19.390625 12.109375 -17.921875 
L 12.109375 -9.1875 
Q 16.0625 -11.328125 19.921875 -12.34375 
Q 23.78125 -13.375 27.78125 -13.375 
Q 36.625 -13.375 41.015625 -8.765625 
Q 45.40625 -4.15625 45.40625 5.171875 
L 45.40625 9.625 
Q 42.625 4.78125 38.28125 2.390625 
Q 33.9375 0 27.875 0 
Q 17.828125 0 11.671875 7.65625 
Q 5.515625 15.328125 5.515625 27.984375 
Q 5.515625 40.671875 11.671875 48.328125 
Q 17.828125 56 27.875 56 
Q 33.9375 56 38.28125 53.609375 
Q 42.625 51.21875 45.40625 46.390625 
L 45.40625 54.6875 
L 54.390625 54.6875 
z
" id="DejaVuSans-67"/>
     <path d="M 44.28125 53.078125 
L 44.28125 44.578125 
Q 40.484375 46.53125 36.375 47.5 
Q 32.28125 48.484375 27.875 48.484375 
Q 21.1875 48.484375 17.84375 46.4375 
Q 14.5 44.390625 14.5 40.28125 
Q 14.5 37.15625 16.890625 35.375 
Q 19.28125 33.59375 26.515625 31.984375 
L 29.59375 31.296875 
Q 39.15625 29.25 43.1875 25.515625 
Q 47.21875 21.78125 47.21875 15.09375 
Q 47.21875 7.46875 41.1875 3.015625 
Q 35.15625 -1.421875 24.609375 -1.421875 
Q 20.21875 -1.421875 15.453125 -0.5625 
Q 10.6875 0.296875 5.421875 2 
L 5.421875 11.28125 
Q 10.40625 8.6875 15.234375 7.390625 
Q 20.0625 6.109375 24.8125 6.109375 
Q 31.15625 6.109375 34.5625 8.28125 
Q 37.984375 10.453125 37.984375 14.40625 
Q 37.984375 18.0625 35.515625 20.015625 
Q 33.0625 21.96875 24.703125 23.78125 
L 21.578125 24.515625 
Q 13.234375 26.265625 9.515625 29.90625 
Q 5.8125 33.546875 5.8125 39.890625 
Q 5.8125 47.609375 11.28125 51.796875 
Q 16.75 56 26.8125 56 
Q 31.78125 56 36.171875 55.265625 
Q 40.578125 54.546875 44.28125 53.078125 
z
" id="DejaVuSans-73"/>
    </defs>
    <g transform="translate(172.363125 35.472)scale(0.12 -0.12)">
     <use xlink:href="#DejaVuSans-4d"/>
     <use x="86.279297" xlink:href="#DejaVuSans-79"/>
     <use x="145.458984" xlink:href="#DejaVuSans-20"/>
     <use x="177.246094" xlink:href="#DejaVuSans-42"/>
     <use x="245.849609" xlink:href="#DejaVuSans-6f"/>
     <use x="307.03125" xlink:href="#DejaVuSans-6e"/>
     <use x="370.410156" xlink:href="#DejaVuSans-64"/>
     <use x="433.886719" xlink:href="#DejaVuSans-6f"/>
     <use x="495.068359" xlink:href="#DejaVuSans-72"/>
     <use x="536.181641" xlink:href="#DejaVuSans-61"/>
     <use x="597.460938" xlink:href="#DejaVuSans-20"/>
     <use x="629.248047" xlink:href="#DejaVuSans-65"/>
     <use x="690.771484" xlink:href="#DejaVuSans-61"/>
     <use x="752.050781" xlink:href="#DejaVuSans-72"/>
     <use x="793.148438" xlink:href="#DejaVuSans-6e"/>
     <use x="856.527344" xlink:href="#DejaVuSans-69"/>
     <use x="884.310547" xlink:href="#DejaVuSans-6e"/>
     <use x="947.689453" xlink:href="#DejaVuSans-67"/>
     <use x="1011.166016" xlink:href="#DejaVuSans-73"/>
    </g>
   </g>
   <g id="legend_1">
    <g id="patch_7">
     <path d="M 64.6 122.862625 
L 158.45 122.862625 
Q 160.45 122.862625 160.45 120.862625 
L 160.45 48.472 
Q 160.45 46.472 158.45 46.472 
L 64.6 46.472 
Q 62.6 46.472 62.6 48.472 
L 62.6 120.862625 
Q 62.6 122.862625 64.6 122.862625 
z
" style="fill:#ffffff;opacity:0.8;stroke:#cccccc;stroke-linejoin:miter;"/>
    </g>
    <g id="line2d_38">
     <path d="M 66.6 54.570437 
L 86.6 54.570437 
" style="fill:none;stroke:#0000ff;stroke-linecap:square;stroke-width:1.5;"/>
    </g>
    <g id="line2d_39"/>
    <g id="text_20">
     <!-- Interest -->
     <defs>
      <path d="M 9.8125 72.90625 
L 19.671875 72.90625 
L 19.671875 0 
L 9.8125 0 
z
" id="DejaVuSans-49"/>
     </defs>
     <g transform="translate(94.6 58.070437)scale(0.1 -0.1)">
      <use xlink:href="#DejaVuSans-49"/>
      <use x="29.492188" xlink:href="#DejaVuSans-6e"/>
      <use x="92.871094" xlink:href="#DejaVuSans-74"/>
      <use x="132.080078" xlink:href="#DejaVuSans-65"/>
      <use x="193.603516" xlink:href="#DejaVuSans-72"/>
      <use x="234.685547" xlink:href="#DejaVuSans-65"/>
      <use x="296.208984" xlink:href="#DejaVuSans-73"/>
      <use x="348.308594" xlink:href="#DejaVuSans-74"/>
     </g>
    </g>
    <g id="line2d_40">
     <path d="M 66.6 69.248562 
L 86.6 69.248562 
" style="fill:none;stroke:#ff0000;stroke-linecap:square;stroke-width:1.5;"/>
    </g>
    <g id="line2d_41"/>
    <g id="text_21">
     <!-- Balance -->
     <defs>
      <path d="M 9.421875 75.984375 
L 18.40625 75.984375 
L 18.40625 0 
L 9.421875 0 
z
" id="DejaVuSans-6c"/>
      <path d="M 48.78125 52.59375 
L 48.78125 44.1875 
Q 44.96875 46.296875 41.140625 47.34375 
Q 37.3125 48.390625 33.40625 48.390625 
Q 24.65625 48.390625 19.8125 42.84375 
Q 14.984375 37.3125 14.984375 27.296875 
Q 14.984375 17.28125 19.8125 11.734375 
Q 24.65625 6.203125 33.40625 6.203125 
Q 37.3125 6.203125 41.140625 7.25 
Q 44.96875 8.296875 48.78125 10.40625 
L 48.78125 2.09375 
Q 45.015625 0.34375 40.984375 -0.53125 
Q 36.96875 -1.421875 32.421875 -1.421875 
Q 20.0625 -1.421875 12.78125 6.34375 
Q 5.515625 14.109375 5.515625 27.296875 
Q 5.515625 40.671875 12.859375 48.328125 
Q 20.21875 56 33.015625 56 
Q 37.15625 56 41.109375 55.140625 
Q 45.0625 54.296875 48.78125 52.59375 
z
" id="DejaVuSans-63"/>
     </defs>
     <g transform="translate(94.6 72.748562)scale(0.1 -0.1)">
      <use xlink:href="#DejaVuSans-42"/>
      <use x="68.603516" xlink:href="#DejaVuSans-61"/>
      <use x="129.882812" xlink:href="#DejaVuSans-6c"/>
      <use x="157.666016" xlink:href="#DejaVuSans-61"/>
      <use x="218.945312" xlink:href="#DejaVuSans-6e"/>
      <use x="282.324219" xlink:href="#DejaVuSans-63"/>
      <use x="337.304688" xlink:href="#DejaVuSans-65"/>
     </g>
    </g>
    <g id="line2d_42">
     <path d="M 66.6 83.926687 
L 86.6 83.926687 
" style="fill:none;stroke:#008000;stroke-linecap:square;stroke-width:1.5;"/>
    </g>
    <g id="line2d_43"/>
    <g id="text_22">
     <!-- Investments -->
     <defs>
      <path d="M 2.984375 54.6875 
L 12.5 54.6875 
L 29.59375 8.796875 
L 46.6875 54.6875 
L 56.203125 54.6875 
L 35.6875 0 
L 23.484375 0 
z
" id="DejaVuSans-76"/>
      <path d="M 52 44.1875 
Q 55.375 50.25 60.0625 53.125 
Q 64.75 56 71.09375 56 
Q 79.640625 56 84.28125 50.015625 
Q 88.921875 44.046875 88.921875 33.015625 
L 88.921875 0 
L 79.890625 0 
L 79.890625 32.71875 
Q 79.890625 40.578125 77.09375 44.375 
Q 74.3125 48.1875 68.609375 48.1875 
Q 61.625 48.1875 57.5625 43.546875 
Q 53.515625 38.921875 53.515625 30.90625 
L 53.515625 0 
L 44.484375 0 
L 44.484375 32.71875 
Q 44.484375 40.625 41.703125 44.40625 
Q 38.921875 48.1875 33.109375 48.1875 
Q 26.21875 48.1875 22.15625 43.53125 
Q 18.109375 38.875 18.109375 30.90625 
L 18.109375 0 
L 9.078125 0 
L 9.078125 54.6875 
L 18.109375 54.6875 
L 18.109375 46.1875 
Q 21.1875 51.21875 25.484375 53.609375 
Q 29.78125 56 35.6875 56 
Q 41.65625 56 45.828125 52.96875 
Q 50 49.953125 52 44.1875 
z
" id="DejaVuSans-6d"/>
     </defs>
     <g transform="translate(94.6 87.426687)scale(0.1 -0.1)">
      <use xlink:href="#DejaVuSans-49"/>
      <use x="29.492188" xlink:href="#DejaVuSans-6e"/>
      <use x="92.871094" xlink:href="#DejaVuSans-76"/>
      <use x="152.050781" xlink:href="#DejaVuSans-65"/>
      <use x="213.574219" xlink:href="#DejaVuSans-73"/>
      <use x="265.673828" xlink:href="#DejaVuSans-74"/>
      <use x="304.882812" xlink:href="#DejaVuSans-6d"/>
      <use x="402.294922" xlink:href="#DejaVuSans-65"/>
      <use x="463.818359" xlink:href="#DejaVuSans-6e"/>
      <use x="527.197266" xlink:href="#DejaVuSans-74"/>
      <use x="566.40625" xlink:href="#DejaVuSans-73"/>
     </g>
    </g>
    <g id="line2d_44"/>
    <g id="line2d_45">
     <g>
      <use style="fill:#bfbf00;stroke:#bfbf00;" x="76.6" xlink:href="#mf7c56fc0f5" y="98.604812"/>
     </g>
    </g>
    <g id="text_23">
     <!-- Deposits -->
     <defs>
      <path d="M 19.671875 64.796875 
L 19.671875 8.109375 
L 31.59375 8.109375 
Q 46.6875 8.109375 53.6875 14.9375 
Q 60.6875 21.78125 60.6875 36.53125 
Q 60.6875 51.171875 53.6875 57.984375 
Q 46.6875 64.796875 31.59375 64.796875 
z
M 9.8125 72.90625 
L 30.078125 72.90625 
Q 51.265625 72.90625 61.171875 64.09375 
Q 71.09375 55.28125 71.09375 36.53125 
Q 71.09375 17.671875 61.125 8.828125 
Q 51.171875 0 30.078125 0 
L 9.8125 0 
z
" id="DejaVuSans-44"/>
      <path d="M 18.109375 8.203125 
L 18.109375 -20.796875 
L 9.078125 -20.796875 
L 9.078125 54.6875 
L 18.109375 54.6875 
L 18.109375 46.390625 
Q 20.953125 51.265625 25.265625 53.625 
Q 29.59375 56 35.59375 56 
Q 45.5625 56 51.78125 48.09375 
Q 58.015625 40.1875 58.015625 27.296875 
Q 58.015625 14.40625 51.78125 6.484375 
Q 45.5625 -1.421875 35.59375 -1.421875 
Q 29.59375 -1.421875 25.265625 0.953125 
Q 20.953125 3.328125 18.109375 8.203125 
z
M 48.6875 27.296875 
Q 48.6875 37.203125 44.609375 42.84375 
Q 40.53125 48.484375 33.40625 48.484375 
Q 26.265625 48.484375 22.1875 42.84375 
Q 18.109375 37.203125 18.109375 27.296875 
Q 18.109375 17.390625 22.1875 11.75 
Q 26.265625 6.109375 33.40625 6.109375 
Q 40.53125 6.109375 44.609375 11.75 
Q 48.6875 17.390625 48.6875 27.296875 
z
" id="DejaVuSans-70"/>
     </defs>
     <g transform="translate(94.6 102.104812)scale(0.1 -0.1)">
      <use xlink:href="#DejaVuSans-44"/>
      <use x="77.001953" xlink:href="#DejaVuSans-65"/>
      <use x="138.525391" xlink:href="#DejaVuSans-70"/>
      <use x="202.001953" xlink:href="#DejaVuSans-6f"/>
      <use x="263.183594" xlink:href="#DejaVuSans-73"/>
      <use x="315.283203" xlink:href="#DejaVuSans-69"/>
      <use x="343.066406" xlink:href="#DejaVuSans-74"/>
      <use x="382.275391" xlink:href="#DejaVuSans-73"/>
     </g>
    </g>
    <g id="line2d_46"/>
    <g id="line2d_47">
     <g>
      <use style="fill:#008000;stroke:#008000;" x="76.6" xlink:href="#m81c927054f" y="113.282937"/>
     </g>
    </g>
    <g id="text_24">
     <!-- Commission -->
     <defs>
      <path d="M 64.40625 67.28125 
L 64.40625 56.890625 
Q 59.421875 61.53125 53.78125 63.8125 
Q 48.140625 66.109375 41.796875 66.109375 
Q 29.296875 66.109375 22.65625 58.46875 
Q 16.015625 50.828125 16.015625 36.375 
Q 16.015625 21.96875 22.65625 14.328125 
Q 29.296875 6.6875 41.796875 6.6875 
Q 48.140625 6.6875 53.78125 8.984375 
Q 59.421875 11.28125 64.40625 15.921875 
L 64.40625 5.609375 
Q 59.234375 2.09375 53.4375 0.328125 
Q 47.65625 -1.421875 41.21875 -1.421875 
Q 24.65625 -1.421875 15.125 8.703125 
Q 5.609375 18.84375 5.609375 36.375 
Q 5.609375 53.953125 15.125 64.078125 
Q 24.65625 74.21875 41.21875 74.21875 
Q 47.75 74.21875 53.53125 72.484375 
Q 59.328125 70.75 64.40625 67.28125 
z
" id="DejaVuSans-43"/>
     </defs>
     <g transform="translate(94.6 116.782937)scale(0.1 -0.1)">
      <use xlink:href="#DejaVuSans-43"/>
      <use x="69.824219" xlink:href="#DejaVuSans-6f"/>
      <use x="131.005859" xlink:href="#DejaVuSans-6d"/>
      <use x="228.417969" xlink:href="#DejaVuSans-6d"/>
      <use x="325.830078" xlink:href="#DejaVuSans-69"/>
      <use x="353.613281" xlink:href="#DejaVuSans-73"/>
      <use x="405.712891" xlink:href="#DejaVuSans-73"/>
      <use x="457.8125" xlink:href="#DejaVuSans-69"/>
      <use x="485.595703" xlink:href="#DejaVuSans-6f"/>
      <use x="546.777344" xlink:href="#DejaVuSans-6e"/>
     </g>
    </g>
   </g>
  </g>
 </g>
 <defs>
  <clipPath id="p6484ce7057">
   <rect height="235.008" width="357.12" x="57.6" y="41.472"/>
  </clipPath>
 </defs>
</svg>
