<?xml version="1.0" encoding="utf-8" standalone="no"?>
<!DOCTYPE svg PUBLIC "-//W3C//DTD SVG 1.1//EN"
  "http://www.w3.org/Graphics/SVG/1.1/DTD/svg11.dtd">
<!-- Created with matplotlib (http://matplotlib.org/) -->
<svg height="345.6pt" version="1.1" viewBox="0 0 460.8 345.6" width="460.8pt" xmlns="http://www.w3.org/2000/svg" xmlns:xlink="http://www.w3.org/1999/xlink">
 <defs>
  <style type="text/css">
*{stroke-linecap:butt;stroke-linejoin:round;}
  </style>
 </defs>
 <g id="figure_1">
  <g id="patch_1">
   <path d="M 0 345.6 
L 460.8 345.6 
L 460.8 0 
L 0 0 
z
" style="fill:#ffffff;"/>
  </g>
  <g id="axes_1">
   <g id="patch_2">
    <path d="M 57.6 276.48 
L 414.72 276.48 
L 414.72 41.472 
L 57.6 41.472 
z
" style="fill:#ffffff;"/>
   </g>
   <g id="matplotlib.axis_1">
    <g id="xtick_1">
     <g id="line2d_1">
      <path clip-path="url(#pe26aaa6540)" d="M 103.533919 276.48 
L 103.533919 41.472 
" style="fill:none;stroke:#b0b0b0;stroke-linecap:square;stroke-width:0.8;"/>
     </g>
     <g id="line2d_2">
      <defs>
       <path d="M 0 0 
L 0 3.5 
" id="m134bcada25" style="stroke:#000000;stroke-width:0.8;"/>
      </defs>
      <g>
       <use style="stroke:#000000;stroke-width:0.8;" x="103.533919" xlink:href="#m134bcada25" y="276.48"/>
      </g>
     </g>
     <g id="text_1">
      <!-- 2019-02 -->
      <defs>
       <path d="M 19.1875 8.296875 
L 53.609375 8.296875 
L 53.609375 0 
L 7.328125 0 
L 7.328125 8.296875 
Q 12.9375 14.109375 22.625 23.890625 
Q 32.328125 33.6875 34.8125 36.53125 
Q 39.546875 41.84375 41.421875 45.53125 
Q 43.3125 49.21875 43.3125 52.78125 
Q 43.3125 58.59375 39.234375 62.25 
Q 35.15625 65.921875 28.609375 65.921875 
Q 23.96875 65.921875 18.8125 64.3125 
Q 13.671875 62.703125 7.8125 59.421875 
L 7.8125 69.390625 
Q 13.765625 71.78125 18.9375 73 
Q 24.125 74.21875 28.421875 74.21875 
Q 39.75 74.21875 46.484375 68.546875 
Q 53.21875 62.890625 53.21875 53.421875 
Q 53.21875 48.921875 51.53125 44.890625 
Q 49.859375 40.875 45.40625 35.40625 
Q 44.1875 33.984375 37.640625 27.21875 
Q 31.109375 20.453125 19.1875 8.296875 
z
" id="DejaVuSans-32"/>
       <path d="M 31.78125 66.40625 
Q 24.171875 66.40625 20.328125 58.90625 
Q 16.5 51.421875 16.5 36.375 
Q 16.5 21.390625 20.328125 13.890625 
Q 24.171875 6.390625 31.78125 6.390625 
Q 39.453125 6.390625 43.28125 13.890625 
Q 47.125 21.390625 47.125 36.375 
Q 47.125 51.421875 43.28125 58.90625 
Q 39.453125 66.40625 31.78125 66.40625 
z
M 31.78125 74.21875 
Q 44.046875 74.21875 50.515625 64.515625 
Q 56.984375 54.828125 56.984375 36.375 
Q 56.984375 17.96875 50.515625 8.265625 
Q 44.046875 -1.421875 31.78125 -1.421875 
Q 19.53125 -1.421875 13.0625 8.265625 
Q 6.59375 17.96875 6.59375 36.375 
Q 6.59375 54.828125 13.0625 64.515625 
Q 19.53125 74.21875 31.78125 74.21875 
z
" id="DejaVuSans-30"/>
       <path d="M 12.40625 8.296875 
L 28.515625 8.296875 
L 28.515625 63.921875 
L 10.984375 60.40625 
L 10.984375 69.390625 
L 28.421875 72.90625 
L 38.28125 72.90625 
L 38.28125 8.296875 
L 54.390625 8.296875 
L 54.390625 0 
L 12.40625 0 
z
" id="DejaVuSans-31"/>
       <path d="M 10.984375 1.515625 
L 10.984375 10.5 
Q 14.703125 8.734375 18.5 7.8125 
Q 22.3125 6.890625 25.984375 6.890625 
Q 35.75 6.890625 40.890625 13.453125 
Q 46.046875 20.015625 46.78125 33.40625 
Q 43.953125 29.203125 39.59375 26.953125 
Q 35.25 24.703125 29.984375 24.703125 
Q 19.046875 24.703125 12.671875 31.3125 
Q 6.296875 37.9375 6.296875 49.421875 
Q 6.296875 60.640625 12.9375 67.421875 
Q 19.578125 74.21875 30.609375 74.21875 
Q 43.265625 74.21875 49.921875 64.515625 
Q 56.59375 54.828125 56.59375 36.375 
Q 56.59375 19.140625 48.40625 8.859375 
Q 40.234375 -1.421875 26.421875 -1.421875 
Q 22.703125 -1.421875 18.890625 -0.6875 
Q 15.09375 0.046875 10.984375 1.515625 
z
M 30.609375 32.421875 
Q 37.25 32.421875 41.125 36.953125 
Q 45.015625 41.5 45.015625 49.421875 
Q 45.015625 57.28125 41.125 61.84375 
Q 37.25 66.40625 30.609375 66.40625 
Q 23.96875 66.40625 20.09375 61.84375 
Q 16.21875 57.28125 16.21875 49.421875 
Q 16.21875 41.5 20.09375 36.953125 
Q 23.96875 32.421875 30.609375 32.421875 
z
" id="DejaVuSans-39"/>
       <path d="M 4.890625 31.390625 
L 31.203125 31.390625 
L 31.203125 23.390625 
L 4.890625 23.390625 
z
" id="DejaVuSans-2d"/>
      </defs>
      <g transform="translate(66.309099 310.951846)rotate(-30)scale(0.1 -0.1)">
       <use xlink:href="#DejaVuSans-32"/>
       <use x="63.623047" xlink:href="#DejaVuSans-30"/>
       <use x="127.246094" xlink:href="#DejaVuSans-31"/>
       <use x="190.869141" xlink:href="#DejaVuSans-39"/>
       <use x="254.492188" xlink:href="#DejaVuSans-2d"/>
       <use x="290.576172" xlink:href="#DejaVuSans-30"/>
       <use x="354.199219" xlink:href="#DejaVuSans-32"/>
      </g>
     </g>
    </g>
    <g id="xtick_2">
     <g id="line2d_3">
      <path clip-path="url(#pe26aaa6540)" d="M 160.061995 276.48 
L 160.061995 41.472 
" style="fill:none;stroke:#b0b0b0;stroke-linecap:square;stroke-width:0.8;"/>
     </g>
     <g id="line2d_4">
      <g>
       <use style="stroke:#000000;stroke-width:0.8;" x="160.061995" xlink:href="#m134bcada25" y="276.48"/>
      </g>
     </g>
     <g id="text_2">
      <!-- 2019-04 -->
      <defs>
       <path d="M 37.796875 64.3125 
L 12.890625 25.390625 
L 37.796875 25.390625 
z
M 35.203125 72.90625 
L 47.609375 72.90625 
L 47.609375 25.390625 
L 58.015625 25.390625 
L 58.015625 17.1875 
L 47.609375 17.1875 
L 47.609375 0 
L 37.796875 0 
L 37.796875 17.1875 
L 4.890625 17.1875 
L 4.890625 26.703125 
z
" id="DejaVuSans-34"/>
      </defs>
      <g transform="translate(122.837174 310.951846)rotate(-30)scale(0.1 -0.1)">
       <use xlink:href="#DejaVuSans-32"/>
       <use x="63.623047" xlink:href="#DejaVuSans-30"/>
       <use x="127.246094" xlink:href="#DejaVuSans-31"/>
       <use x="190.869141" xlink:href="#DejaVuSans-39"/>
       <use x="254.492188" xlink:href="#DejaVuSans-2d"/>
       <use x="290.576172" xlink:href="#DejaVuSans-30"/>
       <use x="354.199219" xlink:href="#DejaVuSans-34"/>
      </g>
     </g>
    </g>
    <g id="xtick_3">
     <g id="line2d_5">
      <path clip-path="url(#pe26aaa6540)" d="M 218.506276 276.48 
L 218.506276 41.472 
" style="fill:none;stroke:#b0b0b0;stroke-linecap:square;stroke-width:0.8;"/>
     </g>
     <g id="line2d_6">
      <g>
       <use style="stroke:#000000;stroke-width:0.8;" x="218.506276" xlink:href="#m134bcada25" y="276.48"/>
      </g>
     </g>
     <g id="text_3">
      <!-- 2019-06 -->
      <defs>
       <path d="M 33.015625 40.375 
Q 26.375 40.375 22.484375 35.828125 
Q 18.609375 31.296875 18.609375 23.390625 
Q 18.609375 15.53125 22.484375 10.953125 
Q 26.375 6.390625 33.015625 6.390625 
Q 39.65625 6.390625 43.53125 10.953125 
Q 47.40625 15.53125 47.40625 23.390625 
Q 47.40625 31.296875 43.53125 35.828125 
Q 39.65625 40.375 33.015625 40.375 
z
M 52.59375 71.296875 
L 52.59375 62.3125 
Q 48.875 64.0625 45.09375 64.984375 
Q 41.3125 65.921875 37.59375 65.921875 
Q 27.828125 65.921875 22.671875 59.328125 
Q 17.53125 52.734375 16.796875 39.40625 
Q 19.671875 43.65625 24.015625 45.921875 
Q 28.375 48.1875 33.59375 48.1875 
Q 44.578125 48.1875 50.953125 41.515625 
Q 57.328125 34.859375 57.328125 23.390625 
Q 57.328125 12.15625 50.6875 5.359375 
Q 44.046875 -1.421875 33.015625 -1.421875 
Q 20.359375 -1.421875 13.671875 8.265625 
Q 6.984375 17.96875 6.984375 36.375 
Q 6.984375 53.65625 15.1875 63.9375 
Q 23.390625 74.21875 37.203125 74.21875 
Q 40.921875 74.21875 44.703125 73.484375 
Q 48.484375 72.75 52.59375 71.296875 
z
" id="DejaVuSans-36"/>
      </defs>
      <g transform="translate(181.281455 310.951846)rotate(-30)scale(0.1 -0.1)">
       <use xlink:href="#DejaVuSans-32"/>
       <use x="63.623047" xlink:href="#DejaVuSans-30"/>
       <use x="127.246094" xlink:href="#DejaVuSans-31"/>
       <use x="190.869141" xlink:href="#DejaVuSans-39"/>
       <use x="254.492188" xlink:href="#DejaVuSans-2d"/>
       <use x="290.576172" xlink:href="#DejaVuSans-30"/>
       <use x="354.199219" xlink:href="#DejaVuSans-36"/>
      </g>
     </g>
    </g>
    <g id="xtick_4">
     <g id="line2d_7">
      <path clip-path="url(#pe26aaa6540)" d="M 276.950558 276.48 
L 276.950558 41.472 
" style="fill:none;stroke:#b0b0b0;stroke-linecap:square;stroke-width:0.8;"/>
     </g>
     <g id="line2d_8">
      <g>
       <use style="stroke:#000000;stroke-width:0.8;" x="276.950558" xlink:href="#m134bcada25" y="276.48"/>
      </g>
     </g>
     <g id="text_4">
      <!-- 2019-08 -->
      <defs>
       <path d="M 31.78125 34.625 
Q 24.75 34.625 20.71875 30.859375 
Q 16.703125 27.09375 16.703125 20.515625 
Q 16.703125 13.921875 20.71875 10.15625 
Q 24.75 6.390625 31.78125 6.390625 
Q 38.8125 6.390625 42.859375 10.171875 
Q 46.921875 13.96875 46.921875 20.515625 
Q 46.921875 27.09375 42.890625 30.859375 
Q 38.875 34.625 31.78125 34.625 
z
M 21.921875 38.8125 
Q 15.578125 40.375 12.03125 44.71875 
Q 8.5 49.078125 8.5 55.328125 
Q 8.5 64.0625 14.71875 69.140625 
Q 20.953125 74.21875 31.78125 74.21875 
Q 42.671875 74.21875 48.875 69.140625 
Q 55.078125 64.0625 55.078125 55.328125 
Q 55.078125 49.078125 51.53125 44.71875 
Q 48 40.375 41.703125 38.8125 
Q 48.828125 37.15625 52.796875 32.3125 
Q 56.78125 27.484375 56.78125 20.515625 
Q 56.78125 9.90625 50.3125 4.234375 
Q 43.84375 -1.421875 31.78125 -1.421875 
Q 19.734375 -1.421875 13.25 4.234375 
Q 6.78125 9.90625 6.78125 20.515625 
Q 6.78125 27.484375 10.78125 32.3125 
Q 14.796875 37.15625 21.921875 38.8125 
z
M 18.3125 54.390625 
Q 18.3125 48.734375 21.84375 45.5625 
Q 25.390625 42.390625 31.78125 42.390625 
Q 38.140625 42.390625 41.71875 45.5625 
Q 45.3125 48.734375 45.3125 54.390625 
Q 45.3125 60.0625 41.71875 63.234375 
Q 38.140625 66.40625 31.78125 66.40625 
Q 25.390625 66.40625 21.84375 63.234375 
Q 18.3125 60.0625 18.3125 54.390625 
z
" id="DejaVuSans-38"/>
      </defs>
      <g transform="translate(239.725737 310.951846)rotate(-30)scale(0.1 -0.1)">
       <use xlink:href="#DejaVuSans-32"/>
       <use x="63.623047" xlink:href="#DejaVuSans-30"/>
       <use x="127.246094" xlink:href="#DejaVuSans-31"/>
       <use x="190.869141" xlink:href="#DejaVuSans-39"/>
       <use x="254.492188" xlink:href="#DejaVuSans-2d"/>
       <use x="290.576172" xlink:href="#DejaVuSans-30"/>
       <use x="354.199219" xlink:href="#DejaVuSans-38"/>
      </g>
     </g>
    </g>
    <g id="xtick_5">
     <g id="line2d_9">
      <path clip-path="url(#pe26aaa6540)" d="M 335.394839 276.48 
L 335.394839 41.472 
" style="fill:none;stroke:#b0b0b0;stroke-linecap:square;stroke-width:0.8;"/>
     </g>
     <g id="line2d_10">
      <g>
       <use style="stroke:#000000;stroke-width:0.8;" x="335.394839" xlink:href="#m134bcada25" y="276.48"/>
      </g>
     </g>
     <g id="text_5">
      <!-- 2019-10 -->
      <g transform="translate(298.170018 310.951846)rotate(-30)scale(0.1 -0.1)">
       <use xlink:href="#DejaVuSans-32"/>
       <use x="63.623047" xlink:href="#DejaVuSans-30"/>
       <use x="127.246094" xlink:href="#DejaVuSans-31"/>
       <use x="190.869141" xlink:href="#DejaVuSans-39"/>
       <use x="254.492188" xlink:href="#DejaVuSans-2d"/>
       <use x="290.576172" xlink:href="#DejaVuSans-31"/>
       <use x="354.199219" xlink:href="#DejaVuSans-30"/>
      </g>
     </g>
    </g>
    <g id="xtick_6">
     <g id="line2d_11">
      <path clip-path="url(#pe26aaa6540)" d="M 393.83912 276.48 
L 393.83912 41.472 
" style="fill:none;stroke:#b0b0b0;stroke-linecap:square;stroke-width:0.8;"/>
     </g>
     <g id="line2d_12">
      <g>
       <use style="stroke:#000000;stroke-width:0.8;" x="393.83912" xlink:href="#m134bcada25" y="276.48"/>
      </g>
     </g>
     <g id="text_6">
      <!-- 2019-12 -->
      <g transform="translate(356.6143 310.951846)rotate(-30)scale(0.1 -0.1)">
       <use xlink:href="#DejaVuSans-32"/>
       <use x="63.623047" xlink:href="#DejaVuSans-30"/>
       <use x="127.246094" xlink:href="#DejaVuSans-31"/>
       <use x="190.869141" xlink:href="#DejaVuSans-39"/>
       <use x="254.492188" xlink:href="#DejaVuSans-2d"/>
       <use x="290.576172" xlink:href="#DejaVuSans-31"/>
       <use x="354.199219" xlink:href="#DejaVuSans-32"/>
      </g>
     </g>
    </g>
    <g id="text_7">
     <!-- date -->
     <defs>
      <path d="M 45.40625 46.390625 
L 45.40625 75.984375 
L 54.390625 75.984375 
L 54.390625 0 
L 45.40625 0 
L 45.40625 8.203125 
Q 42.578125 3.328125 38.25 0.953125 
Q 33.9375 -1.421875 27.875 -1.421875 
Q 17.96875 -1.421875 11.734375 6.484375 
Q 5.515625 14.40625 5.515625 27.296875 
Q 5.515625 40.1875 11.734375 48.09375 
Q 17.96875 56 27.875 56 
Q 33.9375 56 38.25 53.625 
Q 42.578125 51.265625 45.40625 46.390625 
z
M 14.796875 27.296875 
Q 14.796875 17.390625 18.875 11.75 
Q 22.953125 6.109375 30.078125 6.109375 
Q 37.203125 6.109375 41.296875 11.75 
Q 45.40625 17.390625 45.40625 27.296875 
Q 45.40625 37.203125 41.296875 42.84375 
Q 37.203125 48.484375 30.078125 48.484375 
Q 22.953125 48.484375 18.875 42.84375 
Q 14.796875 37.203125 14.796875 27.296875 
z
" id="DejaVuSans-64"/>
      <path d="M 34.28125 27.484375 
Q 23.390625 27.484375 19.1875 25 
Q 14.984375 22.515625 14.984375 16.5 
Q 14.984375 11.71875 18.140625 8.90625 
Q 21.296875 6.109375 26.703125 6.109375 
Q 34.1875 6.109375 38.703125 11.40625 
Q 43.21875 16.703125 43.21875 25.484375 
L 43.21875 27.484375 
z
M 52.203125 31.203125 
L 52.203125 0 
L 43.21875 0 
L 43.21875 8.296875 
Q 40.140625 3.328125 35.546875 0.953125 
Q 30.953125 -1.421875 24.3125 -1.421875 
Q 15.921875 -1.421875 10.953125 3.296875 
Q 6 8.015625 6 15.921875 
Q 6 25.140625 12.171875 29.828125 
Q 18.359375 34.515625 30.609375 34.515625 
L 43.21875 34.515625 
L 43.21875 35.40625 
Q 43.21875 41.609375 39.140625 45 
Q 35.0625 48.390625 27.6875 48.390625 
Q 23 48.390625 18.546875 47.265625 
Q 14.109375 46.140625 10.015625 43.890625 
L 10.015625 52.203125 
Q 14.9375 54.109375 19.578125 55.046875 
Q 24.21875 56 28.609375 56 
Q 40.484375 56 46.34375 49.84375 
Q 52.203125 43.703125 52.203125 31.203125 
z
" id="DejaVuSans-61"/>
      <path d="M 18.3125 70.21875 
L 18.3125 54.6875 
L 36.8125 54.6875 
L 36.8125 47.703125 
L 18.3125 47.703125 
L 18.3125 18.015625 
Q 18.3125 11.328125 20.140625 9.421875 
Q 21.96875 7.515625 27.59375 7.515625 
L 36.8125 7.515625 
L 36.8125 0 
L 27.59375 0 
Q 17.1875 0 13.234375 3.875 
Q 9.28125 7.765625 9.28125 18.015625 
L 9.28125 47.703125 
L 2.6875 47.703125 
L 2.6875 54.6875 
L 9.28125 54.6875 
L 9.28125 70.21875 
z
" id="DejaVuSans-74"/>
      <path d="M 56.203125 29.59375 
L 56.203125 25.203125 
L 14.890625 25.203125 
Q 15.484375 15.921875 20.484375 11.0625 
Q 25.484375 6.203125 34.421875 6.203125 
Q 39.59375 6.203125 44.453125 7.46875 
Q 49.3125 8.734375 54.109375 11.28125 
L 54.109375 2.78125 
Q 49.265625 0.734375 44.1875 -0.34375 
Q 39.109375 -1.421875 33.890625 -1.421875 
Q 20.796875 -1.421875 13.15625 6.1875 
Q 5.515625 13.8125 5.515625 26.8125 
Q 5.515625 40.234375 12.765625 48.109375 
Q 20.015625 56 32.328125 56 
Q 43.359375 56 49.78125 48.890625 
Q 56.203125 41.796875 56.203125 29.59375 
z
M 47.21875 32.234375 
Q 47.125 39.59375 43.09375 43.984375 
Q 39.0625 48.390625 32.421875 48.390625 
Q 24.90625 48.390625 20.390625 44.140625 
Q 15.875 39.890625 15.1875 32.171875 
z
" id="DejaVuSans-65"/>
     </defs>
     <g transform="translate(224.885 324.351346)scale(0.1 -0.1)">
      <use xlink:href="#DejaVuSans-64"/>
      <use x="63.476562" xlink:href="#DejaVuSans-61"/>
      <use x="124.755859" xlink:href="#DejaVuSans-74"/>
      <use x="163.964844" xlink:href="#DejaVuSans-65"/>
     </g>
    </g>
   </g>
   <g id="matplotlib.axis_2">
    <g id="ytick_1">
     <g id="line2d_13">
      <path clip-path="url(#pe26aaa6540)" d="M 57.6 265.797818 
L 414.72 265.797818 
" style="fill:none;stroke:#b0b0b0;stroke-linecap:square;stroke-width:0.8;"/>
     </g>
     <g id="line2d_14">
      <defs>
       <path d="M 0 0 
L -3.5 0 
" id="mfb507b11f9" style="stroke:#000000;stroke-width:0.8;"/>
      </defs>
      <g>
       <use style="stroke:#000000;stroke-width:0.8;" x="57.6" xlink:href="#mfb507b11f9" y="265.797818"/>
      </g>
     </g>
     <g id="text_8">
      <!-- 0 -->
      <g transform="translate(44.2375 269.597037)scale(0.1 -0.1)">
       <use xlink:href="#DejaVuSans-30"/>
      </g>
     </g>
    </g>
    <g id="ytick_2">
     <g id="line2d_15">
      <path clip-path="url(#pe26aaa6540)" d="M 57.6 225.964255 
L 414.72 225.964255 
" style="fill:none;stroke:#b0b0b0;stroke-linecap:square;stroke-width:0.8;"/>
     </g>
     <g id="line2d_16">
      <g>
       <use style="stroke:#000000;stroke-width:0.8;" x="57.6" xlink:href="#mfb507b11f9" y="225.964255"/>
      </g>
     </g>
     <g id="text_9">
      <!-- 2000 -->
      <g transform="translate(25.15 229.763474)scale(0.1 -0.1)">
       <use xlink:href="#DejaVuSans-32"/>
       <use x="63.623047" xlink:href="#DejaVuSans-30"/>
       <use x="127.246094" xlink:href="#DejaVuSans-30"/>
       <use x="190.869141" xlink:href="#DejaVuSans-30"/>
      </g>
     </g>
    </g>
    <g id="ytick_3">
     <g id="line2d_17">
      <path clip-path="url(#pe26aaa6540)" d="M 57.6 186.130693 
L 414.72 186.130693 
" style="fill:none;stroke:#b0b0b0;stroke-linecap:square;stroke-width:0.8;"/>
     </g>
     <g id="line2d_18">
      <g>
       <use style="stroke:#000000;stroke-width:0.8;" x="57.6" xlink:href="#mfb507b11f9" y="186.130693"/>
      </g>
     </g>
     <g id="text_10">
      <!-- 4000 -->
      <g transform="translate(25.15 189.929911)scale(0.1 -0.1)">
       <use xlink:href="#DejaVuSans-34"/>
       <use x="63.623047" xlink:href="#DejaVuSans-30"/>
       <use x="127.246094" xlink:href="#DejaVuSans-30"/>
       <use x="190.869141" xlink:href="#DejaVuSans-30"/>
      </g>
     </g>
    </g>
    <g id="ytick_4">
     <g id="line2d_19">
      <path clip-path="url(#pe26aaa6540)" d="M 57.6 146.29713 
L 414.72 146.29713 
" style="fill:none;stroke:#b0b0b0;stroke-linecap:square;stroke-width:0.8;"/>
     </g>
     <g id="line2d_20">
      <g>
       <use style="stroke:#000000;stroke-width:0.8;" x="57.6" xlink:href="#mfb507b11f9" y="146.29713"/>
      </g>
     </g>
     <g id="text_11">
      <!-- 6000 -->
      <g transform="translate(25.15 150.096348)scale(0.1 -0.1)">
       <use xlink:href="#DejaVuSans-36"/>
       <use x="63.623047" xlink:href="#DejaVuSans-30"/>
       <use x="127.246094" xlink:href="#DejaVuSans-30"/>
       <use x="190.869141" xlink:href="#DejaVuSans-30"/>
      </g>
     </g>
    </g>
    <g id="ytick_5">
     <g id="line2d_21">
      <path clip-path="url(#pe26aaa6540)" d="M 57.6 106.463567 
L 414.72 106.463567 
" style="fill:none;stroke:#b0b0b0;stroke-linecap:square;stroke-width:0.8;"/>
     </g>
     <g id="line2d_22">
      <g>
       <use style="stroke:#000000;stroke-width:0.8;" x="57.6" xlink:href="#mfb507b11f9" y="106.463567"/>
      </g>
     </g>
     <g id="text_12">
      <!-- 8000 -->
      <g transform="translate(25.15 110.262786)scale(0.1 -0.1)">
       <use xlink:href="#DejaVuSans-38"/>
       <use x="63.623047" xlink:href="#DejaVuSans-30"/>
       <use x="127.246094" xlink:href="#DejaVuSans-30"/>
       <use x="190.869141" xlink:href="#DejaVuSans-30"/>
      </g>
     </g>
    </g>
    <g id="ytick_6">
     <g id="line2d_23">
      <path clip-path="url(#pe26aaa6540)" d="M 57.6 66.630004 
L 414.72 66.630004 
" style="fill:none;stroke:#b0b0b0;stroke-linecap:square;stroke-width:0.8;"/>
     </g>
     <g id="line2d_24">
      <g>
       <use style="stroke:#000000;stroke-width:0.8;" x="57.6" xlink:href="#mfb507b11f9" y="66.630004"/>
      </g>
     </g>
     <g id="text_13">
      <!-- 10000 -->
      <g transform="translate(18.7875 70.429223)scale(0.1 -0.1)">
       <use xlink:href="#DejaVuSans-31"/>
       <use x="63.623047" xlink:href="#DejaVuSans-30"/>
       <use x="127.246094" xlink:href="#DejaVuSans-30"/>
       <use x="190.869141" xlink:href="#DejaVuSans-30"/>
       <use x="254.492188" xlink:href="#DejaVuSans-30"/>
      </g>
     </g>
    </g>
    <g id="text_14">
     <!-- EUR -->
     <defs>
      <path d="M 9.8125 72.90625 
L 55.90625 72.90625 
L 55.90625 64.59375 
L 19.671875 64.59375 
L 19.671875 43.015625 
L 54.390625 43.015625 
L 54.390625 34.71875 
L 19.671875 34.71875 
L 19.671875 8.296875 
L 56.78125 8.296875 
L 56.78125 0 
L 9.8125 0 
z
" id="DejaVuSans-45"/>
      <path d="M 8.6875 72.90625 
L 18.609375 72.90625 
L 18.609375 28.609375 
Q 18.609375 16.890625 22.84375 11.734375 
Q 27.09375 6.59375 36.625 6.59375 
Q 46.09375 6.59375 50.34375 11.734375 
Q 54.59375 16.890625 54.59375 28.609375 
L 54.59375 72.90625 
L 64.5 72.90625 
L 64.5 27.390625 
Q 64.5 13.140625 57.4375 5.859375 
Q 50.390625 -1.421875 36.625 -1.421875 
Q 22.796875 -1.421875 15.734375 5.859375 
Q 8.6875 13.140625 8.6875 27.390625 
z
" id="DejaVuSans-55"/>
      <path d="M 44.390625 34.1875 
Q 47.5625 33.109375 50.5625 29.59375 
Q 53.5625 26.078125 56.59375 19.921875 
L 66.609375 0 
L 56 0 
L 46.6875 18.703125 
Q 43.0625 26.03125 39.671875 28.421875 
Q 36.28125 30.8125 30.421875 30.8125 
L 19.671875 30.8125 
L 19.671875 0 
L 9.8125 0 
L 9.8125 72.90625 
L 32.078125 72.90625 
Q 44.578125 72.90625 50.734375 67.671875 
Q 56.890625 62.453125 56.890625 51.90625 
Q 56.890625 45.015625 53.6875 40.46875 
Q 50.484375 35.9375 44.390625 34.1875 
z
M 19.671875 64.796875 
L 19.671875 38.921875 
L 32.078125 38.921875 
Q 39.203125 38.921875 42.84375 42.21875 
Q 46.484375 45.515625 46.484375 51.90625 
Q 46.484375 58.296875 42.84375 61.546875 
Q 39.203125 64.796875 32.078125 64.796875 
z
" id="DejaVuSans-52"/>
     </defs>
     <g transform="translate(12.707813 169.268969)rotate(-90)scale(0.1 -0.1)">
      <use xlink:href="#DejaVuSans-45"/>
      <use x="63.183594" xlink:href="#DejaVuSans-55"/>
      <use x="136.376953" xlink:href="#DejaVuSans-52"/>
     </g>
    </g>
   </g>
   <g id="line2d_25">
    <path clip-path="url(#pe26aaa6540)" d="M 73.832727 265.797818 
L 107.366331 265.708694 
L 107.366331 265.689883 
L 113.114949 265.540184 
L 113.114949 265.419075 
L 113.114949 265.419075 
L 115.031155 265.349779 
L 115.031155 265.308281 
L 115.031155 265.144341 
L 119.82167 264.992152 
L 119.82167 264.802056 
L 122.695979 264.679178 
L 122.695979 264.661557 
L 122.695979 264.661557 
L 127.486494 264.548163 
L 127.486494 264.527196 
L 132.277009 264.418796 
L 132.277009 264.418391 
L 133.235112 264.304374 
L 133.235112 264.12521 
L 135.151318 264.017862 
L 135.151318 263.974022 
L 137.067524 263.862383 
L 137.067524 263.81711 
L 140.899935 263.707151 
L 140.899935 263.652764 
L 141.858038 263.536973 
L 141.858038 263.488069 
L 141.858038 263.488069 
L 146.648553 263.354049 
L 146.648553 263.354049 
L 146.648553 263.246021 
L 150.480965 263.140727 
L 150.480965 263.112954 
L 157.187686 262.9826 
L 157.187686 262.963468 
L 161.978201 262.849824 
L 161.978201 262.711757 
L 162.936304 262.600895 
L 162.936304 262.582185 
L 166.768716 262.459321 
L 166.768716 262.394985 
L 169.643025 262.273366 
L 169.643025 262.227987 
L 173.475437 262.154269 
L 173.475437 262.117287 
L 173.475437 261.897457 
L 176.349745 261.772091 
L 176.349745 261.571534 
L 181.14026 261.456053 
L 181.14026 261.446327 
L 186.888878 261.306528 
L 186.888878 261.274262 
L 190.72129 261.119761 
L 190.72129 261.119761 
L 190.72129 261.039903 
L 190.72129 261.039903 
L 193.595599 260.917901 
L 193.595599 260.852491 
L 195.511805 260.73084 
L 195.511805 260.726726 
L 200.30232 260.596632 
L 200.30232 260.596632 
L 200.30232 260.446402 
L 202.218526 260.339473 
L 202.218526 260.293168 
L 207.009041 260.134827 
L 207.009041 260.024005 
L 210.841452 259.880594 
L 210.841452 259.868791 
L 220.422482 259.751161 
L 220.422482 259.61759 
L 221.380585 259.501338 
L 224.254894 259.368256 
L 224.254894 259.334704 
L 227.129203 259.209442 
L 227.129203 259.157632 
L 229.045409 259.057683 
L 229.045409 258.955841 
L 230.003512 258.844897 
L 230.003512 258.810062 
L 230.003512 258.810062 
L 233.835924 258.690752 
L 233.835924 258.659309 
L 233.835924 258.659309 
L 234.794027 258.549137 
L 234.794027 258.4458 
L 237.668336 258.335217 
L 237.668336 258.325988 
L 244.375057 258.203361 
L 244.375057 258.179499 
L 247.249365 258.064072 
L 247.249365 257.991444 
L 247.249365 257.991444 
L 248.207468 257.919089 
L 248.207468 257.85113 
L 249.165571 257.735783 
L 249.165571 257.234333 
L 250.123674 257.112422 
L 250.123674 256.632949 
L 251.081777 256.632949 
L 251.081777 256.526287 
L 251.081777 256.425564 
L 253.956086 256.301515 
L 253.956086 255.568633 
L 254.914189 255.458074 
L 254.914189 255.418275 
L 255.872292 255.418275 
L 255.872292 255.364093 
L 255.872292 255.077056 
L 257.788498 254.96226 
L 257.788498 254.753778 
L 257.788498 254.753778 
L 260.662807 254.640533 
L 260.662807 254.640533 
L 260.662807 254.412681 
L 261.62091 254.301871 
L 261.62091 254.170762 
L 262.579013 254.062119 
L 262.579013 253.818716 
L 263.537116 253.708507 
L 263.537116 253.272613 
L 264.495219 253.215061 
L 264.495219 253.004917 
L 267.369528 252.770792 
L 267.369528 252.704624 
L 268.327631 252.606606 
L 268.327631 252.394734 
L 271.20194 252.277653 
L 271.20194 252.206337 
L 274.076249 252.095391 
L 274.076249 252.093869 
L 275.992455 252.009349 
L 275.992455 251.915513 
L 276.950558 251.801668 
L 276.950558 251.591953 
L 277.908661 251.480392 
L 277.908661 251.452628 
L 280.78297 251.346515 
L 280.78297 251.346515 
L 280.78297 250.160565 
L 281.741073 250.049948 
L 281.741073 249.590622 
L 282.699176 249.482057 
L 282.699176 249.358996 
L 283.657278 249.358996 
L 283.657278 249.249099 
L 283.657278 249.103976 
L 284.615381 248.99305 
L 284.615381 248.944246 
L 287.48969 248.827292 
L 287.48969 248.827292 
L 287.48969 248.624655 
L 288.447793 248.517381 
L 288.447793 248.423337 
L 289.405896 248.311546 
L 289.405896 248.294683 
L 289.405896 248.294683 
L 290.363999 248.294683 
L 290.363999 248.204142 
L 290.363999 248.073836 
L 291.322102 247.964316 
L 291.322102 247.697909 
L 294.196411 247.572326 
L 294.196411 246.881479 
L 295.154514 246.881479 
L 295.154514 246.771127 
L 295.154514 246.697875 
L 296.112617 246.587317 
L 296.112617 246.552635 
L 298.028823 246.443008 
L 298.028823 246.308882 
L 300.903132 246.2151 
L 300.903132 246.106186 
L 302.819338 246.015411 
L 302.819338 245.998247 
L 302.819338 245.897521 
L 302.819338 245.897521 
L 305.693647 245.798056 
L 305.693647 245.715969 
L 307.609853 245.601 
L 307.609853 245.45413 
L 307.609853 245.45413 
L 308.567956 245.34752 
L 308.567956 245.02829 
L 309.526059 244.925239 
L 309.526059 244.435669 
L 310.484162 244.323506 
L 310.484162 244.017742 
L 311.442265 243.907065 
L 311.442265 243.477671 
L 314.316574 243.360308 
L 314.316574 243.059957 
L 315.274677 242.950876 
L 315.274677 242.827314 
L 316.23278 242.720988 
L 316.23278 242.708807 
L 318.148986 242.601518 
L 318.148986 242.338425 
L 321.023294 242.224467 
L 321.023294 241.708714 
L 321.981397 241.597555 
L 321.981397 241.453013 
L 322.9395 241.453013 
L 322.9395 241.342214 
L 322.9395 241.007458 
L 323.897603 240.896053 
L 323.897603 240.86157 
L 324.855706 240.754799 
L 324.855706 240.671235 
L 327.730015 240.558472 
L 327.730015 240.496385 
L 328.688118 240.427057 
L 328.688118 240.22511 
L 330.604324 240.116487 
L 330.604324 239.952438 
L 333.478633 239.843811 
L 333.478633 239.84213 
L 333.478633 239.832287 
L 335.394839 239.74656 
L 335.394839 239.462819 
L 337.311045 239.352094 
L 337.311045 239.352094 
L 337.311045 239.046918 
L 338.269148 238.914074 
L 338.269148 238.429812 
L 341.143457 238.313398 
L 341.143457 237.78452 
L 342.10156 237.654053 
L 342.10156 237.525584 
L 344.017766 237.431172 
L 344.017766 237.415713 
L 344.017766 237.230179 
L 347.850178 237.116977 
L 347.850178 236.790021 
L 348.808281 236.678878 
L 348.808281 236.540826 
L 349.766384 236.423524 
L 349.766384 236.05173 
L 350.724487 235.939327 
L 350.724487 235.772998 
L 351.68259 235.662062 
L 351.68259 235.327562 
L 354.556899 235.239195 
L 354.556899 234.921515 
L 355.515001 234.811014 
L 356.473104 234.719776 
L 356.473104 234.600592 
L 357.431207 234.600592 
L 357.431207 234.49146 
L 357.431207 234.462394 
L 358.38931 234.350355 
L 358.38931 234.342337 
L 362.221722 234.228017 
L 362.221722 234.112122 
L 362.221722 234.112122 
L 364.137928 234.018021 
L 364.137928 233.981003 
L 365.096031 233.869987 
L 365.096031 233.840346 
L 367.97034 233.733448 
L 367.97034 232.960974 
L 367.97034 232.960974 
L 368.928443 232.865687 
L 368.928443 232.466266 
L 369.886546 232.367127 
L 369.886546 232.156341 
L 369.886546 232.156341 
L 370.844649 232.045656 
L 370.844649 231.928944 
L 370.844649 231.928944 
L 371.802752 231.817501 
L 371.802752 231.817501 
L 371.802752 231.77826 
L 374.677061 231.662244 
L 374.677061 231.466031 
L 374.677061 231.466031 
L 376.593267 231.356574 
L 376.593267 231.159018 
L 378.509473 231.04799 
L 378.509473 230.927271 
L 381.383782 230.806337 
L 381.383782 230.806337 
L 381.383782 230.008141 
L 383.299988 229.899481 
L 383.299988 229.840775 
L 384.258091 229.729154 
L 384.258091 229.686533 
L 387.1324 229.57359 
L 387.1324 229.569671 
L 389.048606 229.460355 
L 389.048606 229.375164 
L 390.964812 229.267553 
L 390.964812 229.264392 
L 390.964812 229.22417 
L 393.83912 229.118904 
L 394.797223 229.01705 
L 394.797223 228.67309 
L 395.755326 228.558583 
L 395.755326 228.316848 
L 396.713429 228.183164 
L 396.713429 227.905494 
L 397.671532 227.794295 
L 397.671532 227.725385 
L 397.671532 227.725385 
" style="fill:none;stroke:#0000ff;stroke-linecap:square;stroke-width:1.5;"/>
   </g>
   <g id="line2d_26">
    <path clip-path="url(#pe26aaa6540)" d="M 73.832727 265.797818 
L 76.586553 265.718151 
L 76.740614 255.75976 
L 76.967365 255.899178 
L 77.420113 258.966362 
L 77.536982 259.743117 
L 77.645467 260.320703 
L 78.181328 262.01363 
L 78.315219 262.750551 
L 78.59074 263.786223 
L 79.105698 264.662562 
L 79.109479 264.841813 
L 79.303218 265.021064 
L 79.392441 265.200315 
L 79.492543 265.399483 
L 79.998464 265.498824 
L 79.999129 225.665261 
L 80.092422 227.298437 
L 80.143443 228.274359 
L 80.245907 246.358797 
L 80.348881 249.007262 
L 80.367311 249.246264 
L 80.552877 255.775042 
L 80.727509 255.97068 
L 80.830583 257.95405 
L 80.847483 257.948753 
L 80.903527 258.02842 
L 81.014275 260.796852 
L 81.253501 263.445784 
L 81.315456 263.246305 
L 81.337934 263.46539 
L 81.603331 264.20179 
L 81.977379 264.361124 
L 82.021314 264.998461 
L 82.156258 265.038294 
L 82.220697 265.197629 
L 82.346648 265.595964 
L 82.979971 265.695314 
L 83.077556 265.735147 
L 83.743061 265.768673 
L 83.863223 265.568184 
L 83.918413 265.687414 
L 84.021531 265.747163 
L 86.968363 265.786997 
L 87.689513 265.585186 
L 87.694215 265.684769 
L 87.700713 265.74452 
L 88.653926 265.784353 
L 89.901955 265.583083 
L 89.904993 265.603 
L 89.914197 265.782251 
L 93.382375 265.762218 
L 93.382375 265.571931 
L 93.384693 265.771099 
L 93.595198 265.758967 
L 106.734116 265.78384 
L 106.734116 265.748345 
L 106.734116 265.720911 
L 106.747002 265.780661 
L 106.803047 265.769674 
L 106.898602 265.789591 
L 107.780744 265.785839 
L 108.190533 265.579247 
L 108.62423 265.559924 
L 108.62423 265.455384 
L 108.655401 265.554968 
L 110.930031 265.796808 
L 113.712533 265.68423 
L 113.739313 265.513823 
L 113.730952 265.717836 
L 113.807378 265.633323 
L 115.343548 265.492865 
L 115.381628 265.445141 
L 115.433403 265.499653 
L 115.445657 265.489296 
L 115.476351 265.459966 
L 115.701561 265.709245 
L 115.754157 265.603052 
L 115.789021 265.682719 
L 117.350751 265.767321 
L 117.393056 265.785374 
L 117.393056 265.779121 
L 120.140483 265.634066 
L 120.156751 265.602191 
L 120.206763 265.661942 
L 120.220392 265.661196 
L 121.149707 265.761436 
L 121.269869 265.795769 
L 121.625155 265.778842 
L 122.239716 265.790522 
L 122.296814 257.307566 
L 122.379772 261.360329 
L 122.437579 264.266067 
L 123.156234 264.347496 
L 123.167279 263.849167 
L 123.185277 264.32717 
L 123.28081 264.347086 
L 123.344417 265.103924 
L 123.39057 265.090723 
L 123.410708 265.11064 
L 123.985847 265.101074 
L 124.025824 264.896817 
L 124.038099 265.115902 
L 124.065745 265.114813 
L 124.26536 265.149848 
L 124.389182 265.605345 
L 124.389182 265.603976 
L 125.104499 265.616556 
L 125.230727 265.755973 
L 127.267228 265.649395 
L 127.322396 265.637359 
L 127.326267 265.69711 
L 133.575538 265.587432 
L 133.657098 265.5223 
L 133.68094 265.6418 
L 133.816616 265.726008 
L 133.816616 265.705612 
L 133.973272 265.720845 
L 133.973272 265.717044 
L 133.973272 265.515267 
L 134.078131 265.734352 
L 135.433703 265.734384 
L 135.433703 265.702033 
L 135.433703 265.695027 
L 135.502644 265.734861 
L 135.539737 265.729619 
L 140.844678 265.754372 
L 140.864805 265.558879 
L 140.89011 265.698296 
L 141.247004 265.662037 
L 141.280637 265.571753 
L 141.356232 265.697264 
L 141.59385 265.698907 
L 141.59385 265.689486 
L 141.618391 265.709403 
L 142.200161 265.748699 
L 142.200161 265.662558 
L 142.234704 265.567423 
L 142.291868 265.726757 
L 158.037082 265.588043 
L 158.037082 265.258725 
L 158.052219 265.796478 
L 161.385153 265.746483 
L 161.473334 265.640548 
L 161.513477 265.755076 
L 161.677574 265.639884 
L 161.710863 265.114767 
L 161.711008 264.389045 
L 161.754943 265.360373 
L 161.97565 265.346906 
L 162.038071 265.567285 
L 162.277309 265.45691 
L 162.356119 265.410965 
L 162.666028 265.446274 
L 162.666028 265.441386 
L 163.543058 265.307579 
L 163.543058 265.304264 
L 163.644313 265.781219 
L 163.6679 265.791853 
L 163.78458 265.414658 
L 163.798319 265.613825 
L 164.666035 265.575385 
L 164.727868 265.774553 
L 174.208352 265.652868 
L 174.208352 265.581067 
L 174.275807 265.678281 
L 174.316604 265.673469 
L 175.083131 265.724266 
L 175.180937 265.751331 
L 175.180937 265.75019 
L 175.242161 265.768463 
L 175.242161 265.76285 
L 176.659965 265.663688 
L 176.687299 265.553341 
L 176.747525 265.680484 
L 176.8888 265.742623 
L 176.8888 265.736994 
L 178.786432 265.796815 
L 191.032906 265.689536 
L 191.032906 265.643937 
L 191.141802 265.756147 
L 198.799861 265.769228 
L 198.803465 265.789145 
L 200.629838 265.675542 
L 200.655609 265.593315 
L 200.739465 265.660109 
L 201.030179 265.722891 
L 214.217901 265.779563 
L 214.274921 263.793262 
L 214.329036 264.582716 
L 215.601361 264.601189 
L 216.000915 264.599161 
L 216.199433 265.794168 
L 216.321247 264.590054 
L 217.000624 264.590249 
L 217.181311 264.82925 
L 217.196492 265.785256 
L 220.74786 265.677037 
L 220.804725 265.654589 
L 220.834699 265.714339 
L 220.846044 265.707857 
L 225.713129 265.777213 
L 227.485952 265.7109 
L 227.485952 265.703313 
L 227.508641 265.678187 
L 227.554838 265.725756 
L 227.583659 265.714307 
L 229.705502 265.639236 
L 229.745667 265.437543 
L 229.768488 265.660611 
L 230.328768 265.547667 
L 230.364397 265.474183 
L 230.437896 265.515673 
L 230.629661 265.697979 
L 238.967408 265.775882 
L 239.008061 265.795799 
L 243.830269 265.784435 
L 243.848377 265.666036 
L 243.910975 265.705482 
L 244.107398 265.664338 
L 244.107398 265.714291 
L 244.111002 265.163661 
L 244.113353 265.710196 
L 244.269399 265.701321 
L 244.275964 265.413321 
L 244.279268 265.712073 
L 245.186938 265.641917 
L 245.210713 264.503797 
L 245.214628 265.651706 
L 245.226526 265.650927 
L 245.976231 265.713454 
L 245.976464 262.188267 
L 246.078439 265.780474 
L 246.092778 265.743092 
L 246.097047 264.008364 
L 246.100928 265.789681 
L 246.191538 265.228958 
L 246.24267 265.793997 
L 246.244688 264.684659 
L 246.244744 263.596912 
L 246.302906 265.797124 
L 246.346132 265.793799 
L 247.553552 265.695677 
L 247.553552 265.603436 
L 247.63773 265.797113 
L 247.665663 265.796701 
L 247.68742 216.004747 
L 247.789385 233.759863 
L 247.809645 236.223861 
L 248.081584 264.600856 
L 248.101245 264.597287 
L 248.808966 264.68093 
L 248.809077 265.785357 
L 248.899975 265.781523 
L 249.467318 265.694082 
L 249.507816 216.003353 
L 249.476234 265.795306 
L 249.57729 222.700704 
L 249.587359 222.963766 
L 249.698572 232.246156 
L 249.708641 232.470189 
L 249.809774 244.180717 
L 249.813721 244.180466 
L 249.860329 252.099795 
L 249.868857 242.141404 
L 249.933429 251.742528 
L 249.936101 241.784137 
L 250.042125 254.079937 
L 250.062296 255.222576 
L 250.173398 264.130228 
L 250.183511 265.782093 
L 250.420553 265.673478 
L 250.420553 265.389855 
L 250.496569 265.79394 
L 250.693757 265.68408 
L 250.699778 261.798544 
L 250.769551 265.797533 
L 250.773 265.777742 
L 250.971008 265.782059 
L 250.971008 265.770156 
L 250.971008 265.762631 
L 250.978349 265.783742 
L 251.050961 265.7785 
L 254.267292 265.672359 
L 254.267292 265.398769 
L 254.364522 265.795172 
L 260.419112 265.717189 
L 260.419112 265.737263 
L 260.475356 265.796772 
L 260.475356 265.795544 
L 260.979325 265.684863 
L 260.979325 265.651894 
L 260.985147 265.771883 
L 261.081245 265.755006 
L 261.298449 265.725646 
L 261.298449 265.523119 
L 261.389524 265.765215 
L 261.39549 265.698667 
L 261.415373 265.519381 
L 261.480444 265.77778 
L 261.915238 265.691051 
L 261.915238 265.579732 
L 261.995712 265.792675 
L 262.013289 265.760562 
L 262.871512 265.647672 
L 262.871512 265.572473 
L 262.945365 265.793894 
L 262.975683 265.762023 
L 263.225289 265.794203 
L 263.225289 265.785579 
L 263.264478 265.766139 
L 263.335016 265.793071 
L 263.838708 265.683738 
L 263.838708 265.3895 
L 263.84474 265.790671 
L 263.947304 265.648178 
L 264.026602 265.790812 
L 264.465178 265.761187 
L 264.786487 265.311205 
L 264.794804 265.511187 
L 264.804983 265.751685 
L 264.903522 265.725613 
L 264.985215 265.766226 
L 264.985215 264.539721 
L 264.99707 265.776517 
L 265.065412 265.754947 
L 265.184199 265.718343 
L 265.184199 265.708586 
L 267.746559 265.78581 
L 267.746559 265.77526 
L 267.746559 265.656047 
L 267.856907 265.765945 
L 269.999975 265.677955 
L 269.999975 265.455684 
L 270.019537 265.784515 
L 270.022364 265.783466 
L 275.315573 265.792175 
L 275.315573 265.71088 
L 275.315573 265.664017 
L 275.35617 265.783946 
L 275.417338 265.782414 
L 276.452954 265.783434 
L 276.452954 265.483696 
L 276.529547 265.7887 
L 277.247625 265.666946 
L 277.247625 265.511278 
L 277.322344 265.785961 
L 277.341583 265.782746 
L 281.087489 265.661071 
L 281.087489 264.96313 
L 281.154678 265.789721 
L 281.195087 265.788222 
L 281.525932 265.674877 
L 281.525932 265.63441 
L 281.552657 265.797098 
L 281.623361 265.794608 
L 282.031497 265.692286 
L 282.031497 265.536193 
L 282.12865 265.797759 
L 283.108964 265.710105 
L 283.148464 265.792707 
L 283.22194 265.767857 
L 283.24118 265.573172 
L 283.264623 265.797338 
L 283.302126 265.780613 
L 283.517089 265.787072 
L 284.375068 265.678628 
L 284.375068 265.548385 
L 284.483587 265.795432 
L 285.490538 265.734749 
L 285.490549 265.221135 
L 285.496093 265.783321 
L 288.742532 265.784271 
L 288.742532 265.715382 
L 288.742532 265.66356 
L 288.781621 265.789474 
L 288.842312 265.785782 
L 289.924381 265.666426 
L 289.924381 265.612269 
L 289.934339 265.792272 
L 291.630181 265.796283 
L 291.630181 265.685514 
L 291.630181 265.458574 
L 291.640561 265.797667 
L 291.739553 265.780624 
L 291.989692 265.770644 
L 292.095637 265.790885 
L 292.722108 265.797041 
L 292.725535 265.609677 
L 292.833332 265.786013 
L 294.499844 265.6257 
L 294.499855 265.227337 
L 294.512175 265.795524 
L 294.603106 265.79548 
L 294.613752 265.780556 
L 294.613752 265.670891 
L 294.62331 265.791757 
L 294.694037 265.783697 
L 298.340406 265.654199 
L 298.340406 265.630325 
L 298.390374 265.796933 
L 298.420913 265.790481 
L 302.305921 265.779956 
L 302.36354 265.60661 
L 302.406644 265.790711 
L 303.381857 265.680216 
L 303.381857 265.646102 
L 303.387369 265.787392 
L 303.4616 265.780598 
L 307.90834 265.665118 
L 307.90834 265.640517 
L 307.988026 265.797109 
L 308.01932 265.779843 
L 308.883764 265.659599 
L 308.883764 265.46728 
L 308.898912 265.792614 
L 308.971501 265.790405 
L 309.824889 265.67689 
L 309.824889 265.297638 
L 309.830212 265.782231 
L 309.930403 265.718682 
L 310.092703 265.748184 
L 310.092703 265.745986 
L 310.170461 265.503686 
L 310.170461 265.484124 
L 310.256036 265.575364 
L 310.449131 265.672466 
L 310.466142 265.692383 
L 310.777481 265.597764 
L 310.777481 265.437031 
L 310.872482 265.709731 
L 310.881874 265.680478 
L 311.010719 265.686577 
L 311.010719 265.685755 
L 311.010719 265.680912 
L 311.074515 265.754456 
L 311.089497 265.751555 
L 311.736183 265.639621 
L 311.786649 265.394905 
L 311.79032 265.713574 
L 311.82921 265.621856 
L 311.986509 265.556164 
L 312.046945 265.386186 
L 312.090115 265.390658 
L 312.207561 265.481955 
L 312.207561 265.481414 
L 312.326104 265.596852 
L 312.326104 265.593398 
L 313.244241 265.750928 
L 313.244241 265.748963 
L 314.613774 265.637868 
L 314.709717 265.580411 
L 314.808788 265.671647 
L 314.849385 265.636611 
L 314.849385 265.531418 
L 314.869246 265.670835 
L 314.933086 265.621716 
L 315.043867 265.491171 
L 315.082812 265.528285 
L 315.202154 265.567368 
L 315.202154 265.564402 
L 315.648182 265.451869 
L 315.692571 265.416776 
L 315.716679 265.536277 
L 315.736185 265.498188 
L 316.132323 265.690468 
L 316.132323 265.690467 
L 316.690673 265.564829 
L 316.690673 265.54095 
L 316.755134 265.59761 
L 316.780052 265.592365 
L 316.970585 265.6347 
L 317.767363 265.706333 
L 317.931106 265.747093 
L 318.457985 265.635669 
L 318.549681 265.520273 
L 318.562345 265.54019 
L 318.845584 265.69805 
L 318.885394 265.655359 
L 320.438829 265.737645 
L 320.465 265.757562 
L 321.34142 265.646476 
L 321.359994 265.398047 
L 321.435988 265.696799 
L 321.569202 265.584618 
L 321.634229 265.540244 
L 321.835985 265.455488 
L 321.916182 265.254157 
L 322.277822 265.14209 
L 322.362144 265.040736 
L 322.386251 265.359404 
L 322.914339 265.330811 
L 323.251826 265.222815 
L 323.329428 264.91437 
L 323.333931 265.013954 
L 323.561535 265.075317 
L 323.867785 265.410467 
L 324.219333 265.378373 
L 324.43912 265.756088 
L 324.43912 265.731352 
L 324.43912 265.612926 
L 324.451252 265.752343 
L 324.5392 265.738707 
L 325.247763 265.626021 
L 325.247763 265.603483 
L 325.260738 265.7429 
L 325.317248 265.73839 
L 331.487908 265.684159 
L 331.487908 265.485269 
L 331.517516 265.714222 
L 335.874423 265.64528 
L 335.874423 263.880314 
L 335.976498 265.510178 
L 336.817234 265.51746 
L 336.940135 265.794298 
L 336.973657 265.710097 
L 337.054253 265.78808 
L 337.600106 265.676642 
L 337.600117 265.49205 
L 337.683153 265.791199 
L 337.698312 265.780484 
L 338.580543 265.651877 
L 338.580554 265.482229 
L 338.659231 265.789754 
L 338.688562 265.78893 
L 341.459609 265.667912 
L 341.459609 265.462004 
L 341.460141 265.783576 
L 341.561252 265.782953 
L 341.603812 265.760346 
L 341.603812 265.641046 
L 341.652194 265.785502 
L 342.679316 265.682072 
L 342.757982 265.606797 
L 342.761864 265.626714 
L 342.83849 265.736836 
L 342.83849 265.730595 
L 343.514939 265.735619 
L 343.533136 264.77059 
L 343.595779 265.721683 
L 343.634303 265.64867 
L 343.634303 265.575783 
L 343.676708 265.759019 
L 348.538027 265.633382 
L 348.538027 265.60387 
L 348.581851 265.755447 
L 348.622371 265.747993 
L 349.123202 265.757093 
L 349.123202 265.751463 
L 349.207146 265.60625 
L 349.128558 265.755981 
L 349.229558 265.720253 
L 350.066988 265.609858 
L 350.066988 265.418936 
L 350.068829 265.776085 
L 350.15976 265.766126 
L 351.029904 265.652849 
L 351.029904 265.576828 
L 351.072243 265.771926 
L 351.139642 265.768462 
L 351.219662 265.785797 
L 351.219662 265.784811 
L 351.99252 265.697109 
L 351.99252 265.405965 
L 351.993252 265.794647 
L 352.093288 265.781724 
L 352.323221 265.782657 
L 355.311571 265.6757 
L 355.311571 265.476909 
L 355.314487 265.783621 
L 355.371641 265.782684 
L 355.451705 265.707911 
L 355.451705 265.608018 
L 355.466187 265.797794 
L 355.491559 265.79314 
L 356.829421 265.766777 
L 356.829421 265.727433 
L 356.829421 265.668417 
L 356.844281 265.78826 
L 356.937341 265.785354 
L 356.969178 265.594289 
L 356.974068 265.793452 
L 357.012581 265.790448 
L 358.771609 265.68524 
L 358.836824 265.385302 
L 358.841582 265.791389 
L 358.876457 265.790313 
L 362.998207 265.738579 
L 362.998207 262.77515 
L 363.008453 265.777454 
L 363.038394 265.776406 
L 365.555277 265.693151 
L 365.555277 265.633877 
L 365.567498 265.793212 
L 365.63533 265.79103 
L 365.874523 265.694445 
L 365.874523 265.491068 
L 365.876031 265.791705 
L 368.302593 265.680462 
L 368.318174 265.256132 
L 368.434244 265.355716 
L 368.445688 265.5748 
L 368.628326 265.467967 
L 368.681332 264.507164 
L 368.725157 265.242996 
L 368.757127 265.210347 
L 368.870236 265.657887 
L 368.870236 265.654873 
L 369.235147 265.539369 
L 369.266862 265.514849 
L 369.320977 265.654279 
L 369.325878 265.621665 
L 369.511943 265.749604 
L 369.354333 265.551435 
L 369.511943 265.656194 
L 369.511943 265.614178 
L 369.532192 265.754752 
L 369.608286 265.744181 
L 369.637683 265.6836 
L 369.708876 265.750032 
L 370.190178 265.640665 
L 370.226806 265.562819 
L 370.284192 265.755578 
L 371.185108 265.644216 
L 371.215071 265.723883 
L 371.31097 265.669596 
L 371.424545 265.68745 
L 371.424556 265.678994 
L 371.424556 265.678043 
L 371.425477 265.69796 
L 371.505252 265.694814 
L 371.548456 265.588779 
L 371.548456 265.471163 
L 371.566387 265.730081 
L 371.625159 265.676606 
L 371.767866 265.729019 
L 373.060351 265.620013 
L 373.352073 265.690539 
L 375.332984 265.657168 
L 375.399863 265.068631 
L 375.44351 265.088548 
L 375.47192 265.193294 
L 375.528841 265.731047 
L 375.61547 265.7146 
L 378.934398 265.614972 
L 378.934398 265.544114 
L 379.041198 265.777021 
L 381.69644 265.631594 
L 381.771847 265.085868 
L 381.792728 265.105784 
L 381.851833 265.001973 
L 381.941511 265.615568 
L 381.9921 265.600703 
L 381.999596 265.616499 
L 382.090083 265.504954 
L 382.798658 265.498207 
L 382.838912 265.697012 
L 382.921992 265.658555 
L 383.079546 265.675742 
L 383.136345 265.774984 
L 383.136345 265.77498 
L 383.26672 265.774716 
L 383.999248 265.699888 
L 384.014894 265.490176 
L 384.066049 265.749094 
L 384.076428 265.736568 
L 384.195836 265.756022 
L 384.195836 265.750727 
L 387.954405 265.70951 
L 387.954405 265.610918 
L 387.965927 265.790169 
L 388.055195 265.773391 
L 388.083073 265.793308 
L 388.602023 265.688186 
L 388.664677 265.570561 
L 388.682919 265.769729 
L 391.548534 265.659602 
L 391.646883 265.618571 
L 392.485634 265.615451 
L 392.685549 265.791337 
L 395.09479 265.647241 
L 395.175486 265.551788 
L 395.189447 265.571705 
L 395.258299 265.56973 
L 395.266472 265.788815 
L 395.34027 265.783504 
L 395.725097 265.680611 
L 395.725097 265.627157 
L 395.768001 265.786491 
L 396.06936 265.680467 
L 396.137935 265.51031 
L 396.158229 265.769228 
L 397.02153 265.659561 
L 397.021542 265.453605 
L 397.112617 265.766213 
L 397.130104 265.757369 
L 397.338192 265.770807 
L 398.487273 265.760629 
L 398.487273 265.760629 
" style="fill:none;stroke:#ff0000;stroke-linecap:square;stroke-width:1.5;"/>
   </g>
   <g id="line2d_27">
    <path clip-path="url(#pe26aaa6540)" d="M 73.832727 265.797818 
L 76.707036 265.658401 
L 76.707036 261.256792 
L 77.665139 261.057624 
L 77.665139 257.831106 
L 78.623242 257.691688 
L 78.623242 256.25768 
L 79.581345 256.058512 
L 79.581345 245.841203 
L 79.581345 246.179788 
L 80.224272 245.980621 
L 80.246073 230.047196 
L 80.457876 229.848028 
L 80.539448 219.057059 
L 80.539448 219.357823 
L 80.727509 219.162185 
L 80.808615 217.975486 
L 81.497551 217.676734 
L 81.497551 216.441894 
L 82.455654 216.103308 
L 82.455654 216.063475 
L 82.455654 216.063735 
L 83.413757 215.964151 
L 83.413757 215.7849 
L 83.413757 216.085396 
L 87.246169 215.906145 
L 87.246169 215.886228 
L 87.246169 216.085396 
L 89.162375 216.025645 
L 89.162375 215.846394 
L 89.162375 216.045562 
L 92.994787 215.846394 
L 92.994787 215.866311 
L 92.994787 216.065479 
L 107.366331 215.952143 
L 107.366331 215.95559 
L 107.366331 216.156334 
L 108.324434 216.05675 
L 108.324434 215.817749 
L 108.324434 215.919588 
L 109.282537 215.800087 
L 109.282537 215.78017 
L 109.282537 215.911069 
L 110.24064 215.791569 
L 110.24064 215.771652 
L 110.24064 215.817668 
L 113.114949 215.681691 
L 113.114949 215.56219 
L 113.114949 215.842643 
L 114.073052 215.723143 
L 114.073052 215.683309 
L 114.073052 215.73209 
L 115.031155 215.612589 
L 115.031155 215.274004 
L 115.031155 215.50732 
L 115.989258 215.387819 
L 115.989258 215.328069 
L 115.989258 215.373906 
L 116.947361 215.254405 
L 116.947361 215.174738 
L 116.947361 215.337976 
L 119.82167 215.181805 
L 119.82167 214.962721 
L 119.82167 215.078268 
L 121.737876 214.946472 
L 121.737876 212.038622 
L 121.737876 212.050083 
L 122.366775 211.850915 
L 122.381413 207.927309 
L 122.695979 207.847642 
L 122.695979 206.612802 
L 122.695979 207.133577 
L 123.654082 207.033993 
L 123.654082 206.516157 
L 123.654082 206.723999 
L 125.570288 206.467007 
L 126.528391 206.347506 
L 126.528391 206.287756 
L 126.528391 206.475831 
L 128.444597 206.324546 
L 128.444597 206.421653 
L 128.444597 206.441569 
L 129.4027 206.322069 
L 129.4027 206.302152 
L 129.4027 206.349934 
L 129.4027 206.349934 
L 130.360803 206.230434 
L 130.360803 206.210517 
L 130.360803 206.248525 
L 133.235112 206.089382 
L 133.235112 205.750796 
L 133.235112 205.993435 
L 135.151318 205.848129 
L 135.151318 205.788379 
L 135.151318 205.794561 
L 137.067524 205.643776 
L 137.067524 205.623859 
L 137.067524 205.651563 
L 139.941832 205.513037 
L 139.941832 205.37362 
L 139.941832 205.619026 
L 140.899935 205.499525 
L 140.899935 205.399941 
L 140.899935 205.50664 
L 141.858038 205.38714 
L 141.858038 205.287556 
L 141.858038 205.368054 
L 143.774244 205.229143 
L 143.774244 205.169393 
L 143.774244 205.218788 
L 147.606656 205.041827 
L 147.606656 205.02191 
L 147.606656 205.027351 
L 157.187686 204.788853 
L 157.187686 204.251099 
L 157.187686 204.769566 
L 161.020098 204.71264 
L 161.020098 204.692723 
L 161.020098 204.413888 
L 161.020098 204.552226 
L 161.677574 204.667651 
L 161.710863 205.232115 
L 161.711008 205.938406 
L 161.711296 205.141735 
L 161.978201 204.877735 
L 161.978201 204.908527 
L 162.936304 204.789027 
L 162.936304 204.191523 
L 162.936304 204.618417 
L 163.894407 204.578584 
L 163.894407 204.379416 
L 163.894407 204.398341 
L 166.768716 204.36193 
L 166.768716 204.302179 
L 166.768716 204.242429 
L 166.768716 204.275922 
L 168.684922 204.137414 
L 168.684922 204.117497 
L 168.684922 204.143169 
L 172.517334 204.013994 
L 172.517334 204.017744 
L 173.475437 203.818576 
L 173.475437 203.639325 
L 173.475437 203.79732 
L 176.349745 203.646212 
L 176.349745 203.427128 
L 176.349745 203.507253 
L 183.056466 203.267665 
L 183.056466 203.227832 
L 183.056466 203.272873 
L 189.763187 203.040581 
L 189.763187 203.020664 
L 189.763187 203.079829 
L 190.72129 202.960328 
L 190.72129 202.940412 
L 190.72129 202.968831 
L 193.595599 202.812545 
L 193.595599 202.772712 
L 193.595599 202.810189 
L 195.511805 202.663245 
L 195.511805 202.643328 
L 195.511805 202.671992 
L 200.30232 202.470168 
L 200.30232 202.290917 
L 200.30232 202.396955 
L 201.260423 202.277455 
L 201.260423 202.257538 
L 201.260423 202.300892 
L 203.176629 202.184799 
L 203.176629 202.105132 
L 203.176629 202.16464 
L 207.009041 201.991066 
L 207.009041 201.931315 
L 207.009041 201.989859 
L 209.88335 201.856194 
L 209.88335 201.796443 
L 209.88335 201.845889 
L 213.715761 201.750973 
L 213.715761 200.934385 
L 213.715761 201.069309 
L 215.631967 201.020553 
L 215.631967 201.020932 
L 215.631967 202.215939 
L 216.59007 202.196022 
L 216.59007 201.001015 
L 216.59007 201.020262 
L 220.422482 200.84179 
L 220.422482 200.821873 
L 220.422482 200.879883 
L 223.296791 200.716378 
L 223.296791 200.596877 
L 223.296791 200.625774 
L 227.129203 200.466408 
L 227.129203 200.426575 
L 227.129203 200.491277 
L 229.045409 200.352885 
L 229.045409 200.313052 
L 229.045409 200.542049 
L 230.003512 200.303047 
L 230.003512 200.024212 
L 230.003512 200.244735 
L 230.961615 200.212306 
L 230.961615 200.172472 
L 230.961615 200.052972 
L 230.961615 200.195803 
L 231.919718 200.056502 
L 231.919718 200.036585 
L 231.919718 200.040091 
L 234.794027 199.881187 
L 234.794027 199.80152 
L 234.794027 199.848213 
L 236.710233 199.716548 
L 236.710233 199.656798 
L 236.710233 199.669736 
L 243.416954 199.481677 
L 243.416954 199.182926 
L 243.506521 199.327658 
L 244.106777 199.384052 
L 244.107398 199.319731 
L 244.110336 199.858318 
L 244.113353 199.381893 
L 244.375057 199.6712 
L 244.375057 199.6712 
L 245.007249 199.714693 
L 245.209249 199.905068 
L 245.210713 200.852813 
L 245.214628 199.772548 
L 245.976231 199.71121 
L 245.976464 203.236397 
L 246.078439 200.146389 
L 246.092789 200.277749 
L 246.097047 201.949701 
L 246.093731 200.176562 
L 246.191538 200.797812 
L 246.24267 200.260058 
L 246.244688 201.315844 
L 246.244744 202.457143 
L 246.302906 200.343938 
L 246.346132 200.354228 
L 247.249365 199.916058 
L 247.249365 198.382466 
L 247.249365 198.410116 
L 247.557078 198.292901 
L 247.63773 198.213869 
L 247.688363 198.154469 
L 247.799465 179.673228 
L 247.809534 179.415052 
L 247.92047 167.491935 
L 247.940663 166.265423 
L 248.031062 152.385177 
L 248.207468 152.405829 
L 248.808966 152.292757 
L 248.899975 151.133186 
L 248.970735 151.110834 
L 249.165571 149.915827 
L 249.243739 149.983465 
L 249.47619 149.864197 
L 249.587392 142.393945 
L 249.597461 142.135027 
L 249.708674 133.097027 
L 249.718743 132.622794 
L 249.819931 118.578752 
L 249.83 117.383745 
L 249.941125 105.438947 
L 249.951172 105.240269 
L 250.062274 93.260787 
L 250.173431 83.445787 
L 250.617885 82.734284 
L 250.698869 82.60015 
L 250.806145 78.91748 
L 251.081777 78.877703 
L 251.081777 78.974666 
L 251.081777 79.099447 
L 251.635182 78.921755 
L 251.655419 78.822228 
L 251.776635 78.715296 
L 251.817022 78.675462 
L 252.997983 78.607049 
L 254.273524 78.447197 
L 254.364522 78.269026 
L 254.546573 77.950198 
L 256.245043 77.576546 
L 256.325905 77.437417 
L 257.788498 77.336867 
L 257.788498 77.474853 
L 257.788498 77.502971 
L 258.306872 77.400765 
L 258.488723 77.121739 
L 260.662807 77.077534 
L 260.662807 77.212785 
L 260.662807 77.731628 
L 261.278355 77.498927 
L 261.419853 76.834111 
L 263.537116 76.211123 
L 263.537116 76.248979 
L 263.537116 76.405758 
L 263.602198 76.400809 
L 263.84474 76.20221 
L 263.935694 75.921264 
L 264.026602 75.725814 
L 264.495219 75.690116 
L 264.495219 75.72993 
L 264.495219 77.272596 
L 264.794804 77.074593 
L 264.875632 76.817133 
L 264.916097 76.777657 
L 264.986857 76.382278 
L 264.99707 75.553107 
L 265.835876 75.436396 
L 267.866943 75.250444 
L 268.008363 75.171335 
L 268.756071 75.003396 
L 269.285734 74.866327 
L 269.285734 75.215416 
L 269.302068 75.201897 
L 270.009379 75.093836 
L 270.019537 74.799498 
L 271.505295 74.717439 
L 271.586157 74.677719 
L 275.034352 74.564212 
L 275.034352 74.729158 
L 275.034352 74.846316 
L 275.034352 74.846316 
L 275.760392 74.635158 
L 275.841287 74.565198 
L 275.992455 74.515356 
L 275.992455 74.51947 
L 275.992455 74.860166 
L 276.458776 74.759979 
L 276.529547 74.504714 
L 276.950558 74.402025 
L 276.950558 74.448008 
L 277.423543 74.152085 
L 280.78297 73.956801 
L 280.78297 73.992079 
L 280.78297 74.312762 
L 281.093909 74.055803 
L 281.195087 73.267239 
L 281.276138 73.175133 
L 281.552657 72.762345 
L 282.037641 72.72347 
L 282.12865 72.506439 
L 282.391352 72.288632 
L 282.593463 72.191027 
L 282.699176 72.191027 
L 282.699176 72.191642 
L 282.699176 72.695067 
L 283.244407 72.258911 
L 283.345418 72.042946 
L 283.657278 71.986169 
L 283.657278 72.028939 
L 283.657278 72.27133 
L 283.657278 72.27133 
L 284.078722 72.142261 
L 284.129277 72.063016 
L 284.382221 71.914967 
L 284.483587 71.737407 
L 284.615381 71.804518 
L 284.615381 72.303598 
L 285.496038 72.136977 
L 285.573484 71.607244 
L 285.573484 71.607512 
L 288.033458 71.467522 
L 288.316498 71.308768 
L 288.781621 71.206877 
L 289.004247 71.130147 
L 289.405896 71.075962 
L 289.405896 71.188129 
L 289.405896 71.274012 
L 289.934328 71.186289 
L 289.934339 71.059143 
L 290.692804 70.956805 
L 290.895125 70.898291 
L 291.322102 70.779185 
L 291.322102 70.798112 
L 291.322102 70.97649 
L 291.63037 70.849123 
L 291.711321 70.626507 
L 292.280205 70.414976 
L 292.280205 70.420148 
L 292.280205 70.620295 
L 292.722108 70.615289 
L 292.833332 70.435738 
L 294.501895 70.481736 
L 294.603106 69.875376 
L 294.694037 69.737931 
L 296.777756 69.394349 
L 296.81822 69.354873 
L 298.562356 69.257134 
L 299.41174 69.131446 
L 301.353695 69.021993 
L 301.759392 68.942389 
L 301.861235 68.951157 
L 301.861235 69.14021 
L 301.88063 69.136924 
L 302.366169 68.992341 
L 302.406644 68.891833 
L 302.819338 68.856949 
L 302.819338 68.89341 
L 302.819338 68.994634 
L 302.871634 68.994218 
L 303.387324 68.893101 
L 303.427711 68.800411 
L 303.777441 68.759227 
L 303.777441 68.77569 
L 304.735544 68.702345 
L 304.735544 68.582844 
L 304.735544 68.710349 
L 307.609853 68.525805 
L 307.609853 68.564378 
L 307.609853 68.747488 
L 308.47372 68.357684 
L 308.567956 68.23843 
L 308.567956 68.392464 
L 308.88882 68.193296 
L 308.959547 68.034622 
L 309.526059 67.870449 
L 309.526059 67.671281 
L 309.526059 68.118413 
L 309.830179 67.999092 
L 309.830212 67.64059 
L 310.113795 67.537177 
L 310.781429 67.207823 
L 310.872482 67.114265 
L 311.074515 67.0013 
L 311.442265 66.543214 
L 311.442265 66.284296 
L 311.442265 66.57045 
L 312.400368 66.550534 
L 312.400368 66.411116 
L 312.400368 66.4132 
L 314.316574 66.236447 
L 314.316574 65.957612 
L 314.316574 66.204292 
L 315.274677 66.124625 
L 315.274677 65.805956 
L 315.274677 65.851255 
L 316.23278 65.751671 
L 316.23278 65.612254 
L 316.23278 65.786326 
L 317.190883 65.706659 
L 317.190883 65.567242 
L 317.190883 65.579567 
L 318.148986 65.4999 
L 318.148986 65.320649 
L 318.148986 65.395557 
L 320.065191 65.254646 
L 320.065191 65.234729 
L 320.065191 65.235451 
L 321.023294 64.916782 
L 321.023294 64.896865 
L 321.023294 65.160512 
L 321.981397 64.80201 
L 321.981397 64.828157 
L 322.9395 64.62899 
L 322.9395 64.210737 
L 322.9395 64.302946 
L 323.897603 64.083862 
L 323.897603 63.645693 
L 323.897603 63.812894 
L 325.813809 63.577263 
L 325.813809 63.577525 
L 327.730015 63.458771 
L 327.730015 63.359188 
L 327.730015 63.441948 
L 330.604324 62.984511 
L 330.604324 62.904844 
L 330.604324 63.173125 
L 331.507369 63.068817 
L 331.562427 62.889892 
L 331.562427 63.048845 
L 331.861213 63.009229 
L 332.114146 62.834472 
L 334.436736 62.770747 
L 334.436736 62.829075 
L 334.436736 62.87218 
L 334.532824 62.868737 
L 335.341567 62.75352 
L 335.394839 62.733604 
L 335.394839 61.319512 
L 335.394839 63.193836 
L 335.715637 63.075105 
L 335.816737 63.03563 
L 335.877561 62.899172 
L 335.90799 62.734228 
L 336.352942 62.633429 
L 336.352942 62.73927 
L 336.777612 62.674075 
L 336.940135 62.399106 
L 337.607392 62.315281 
L 337.698312 62.176507 
L 338.588405 61.921283 
L 338.659231 61.842211 
L 338.972633 61.642554 
L 339.227251 61.545745 
L 339.227251 61.546837 
L 341.143457 61.489521 
L 341.143457 61.520591 
L 341.143457 61.707234 
L 341.460108 61.606776 
L 341.561252 61.218891 
L 341.803894 60.942418 
L 342.10156 60.882668 
L 342.10156 60.6835 
L 342.10156 60.929791 
L 343.059663 60.712637 
L 343.059663 60.672803 
L 343.059663 61.785377 
L 343.514939 61.722727 
L 343.676708 60.786898 
L 344.017766 60.694091 
L 344.017766 60.674174 
L 344.017766 60.732053 
L 345.351181 60.594743 
L 347.850178 60.417654 
L 347.850178 60.158735 
L 347.850178 60.44553 
L 348.318473 60.332945 
L 348.652667 60.200162 
L 348.808281 60.101064 
L 348.808281 60.166455 
L 349.128558 60.114458 
L 349.401362 59.936972 
L 349.766384 59.861749 
L 349.766384 60.002788 
L 349.766384 60.018119 
L 350.068807 59.998447 
L 350.15976 59.554188 
L 351.993252 58.981399 
L 351.993252 58.823598 
L 352.569755 58.778738 
L 352.640693 58.778738 
L 352.640693 58.877313 
L 352.640693 58.893929 
L 353.562689 58.790549 
L 353.598796 58.770632 
L 353.598796 58.777543 
L 354.556899 58.676882 
L 354.556899 58.839016 
L 354.556899 59.057531 
L 355.30443 58.887557 
L 355.314487 58.599183 
L 355.607629 58.454461 
L 356.473104 58.254534 
L 356.473104 58.259233 
L 356.473104 58.580599 
L 356.568449 58.577725 
L 356.781571 58.550706 
L 356.974068 58.228992 
L 357.217941 58.139187 
L 358.012279 58.031244 
L 358.38931 58.011573 
L 358.38931 58.044515 
L 358.38931 58.646172 
L 358.780913 58.488189 
L 358.841582 58.013504 
L 360.112144 57.906963 
L 361.263619 57.887138 
L 361.263619 57.767637 
L 361.263619 57.961481 
L 361.843992 57.854778 
L 362.221722 57.830435 
L 362.221722 57.857515 
L 362.221722 60.758549 
L 362.998329 60.690762 
L 363.008453 57.936939 
L 364.524718 57.858428 
L 365.096031 57.769615 
L 365.096031 57.650114 
L 365.096031 57.965141 
L 365.729909 57.961277 
L 366.054134 57.665007 
L 366.054134 57.665202 
L 367.97034 57.625375 
L 367.97034 56.589702 
L 367.97034 57.409226 
L 368.928443 57.229975 
L 368.928443 56.712139 
L 368.928443 56.827773 
L 369.886546 56.548939 
L 369.886546 56.449355 
L 369.886546 56.514087 
L 370.844649 56.394586 
L 370.844649 56.016167 
L 370.844649 56.314067 
L 371.802752 56.214484 
L 371.802752 56.055149 
L 371.802752 56.250686 
L 374.677061 55.858667 
L 374.677061 55.241247 
L 374.677061 55.865574 
L 375.635164 55.726156 
L 375.635164 55.741133 
L 376.593267 55.522048 
L 376.593267 55.422464 
L 376.593267 55.49894 
L 378.509473 55.371422 
L 378.509473 55.112504 
L 378.509473 55.288682 
L 381.383782 55.214654 
L 381.383782 54.398066 
L 381.383782 54.630077 
L 382.341885 54.61016 
L 382.341885 54.251658 
L 382.341885 54.310179 
L 383.299988 54.230512 
L 383.299988 53.951677 
L 383.299988 54.204191 
L 384.258091 54.084691 
L 384.258091 53.945273 
L 384.258091 54.03243 
L 385.216194 53.912929 
L 385.216194 53.813345 
L 385.216194 53.915834 
L 387.1324 53.876233 
L 387.1324 53.677065 
L 387.1324 53.890506 
L 388.090503 53.830755 
L 388.090503 53.571837 
L 388.090503 53.805684 
L 389.048606 53.726017 
L 389.048606 53.566682 
L 389.048606 53.691506 
L 390.964812 53.532544 
L 390.964812 53.672893 
L 390.964812 53.70877 
L 391.922914 53.668936 
L 391.922914 53.390101 
L 391.922914 53.460402 
L 393.83912 53.442475 
L 393.83912 53.442705 
L 394.797223 53.203704 
L 394.797223 52.924869 
L 394.797223 53.160076 
L 395.755326 52.980825 
L 395.755326 52.582489 
L 395.755326 52.652101 
L 396.713429 52.512684 
L 396.713429 52.154182 
L 396.713429 52.257821 
L 397.671532 52.317901 
L 397.671532 52.317901 
" style="fill:none;stroke:#008000;stroke-linecap:square;stroke-width:1.5;"/>
   </g>
   <g id="line2d_28">
    <defs>
     <path d="M 0 3 
C 0.795609 3 1.55874 2.683901 2.12132 2.12132 
C 2.683901 1.55874 3 0.795609 3 0 
C 3 -0.795609 2.683901 -1.55874 2.12132 -2.12132 
C 1.55874 -2.683901 0.795609 -3 0 -3 
C -0.795609 -3 -1.55874 -2.683901 -2.12132 -2.12132 
C -2.683901 -1.55874 -3 -0.795609 -3 0 
C -3 0.795609 -2.683901 1.55874 -2.12132 2.12132 
C -1.55874 2.683901 -0.795609 3 0 3 
z
" id="m28ed94a7b7" style="stroke:#bfbf00;"/>
    </defs>
    <g clip-path="url(#pe26aaa6540)">
     <use style="fill:#bfbf00;stroke:#bfbf00;" x="76.740614" xlink:href="#m28ed94a7b7" y="255.839427"/>
     <use style="fill:#bfbf00;stroke:#bfbf00;" x="79.999129" xlink:href="#m28ed94a7b7" y="225.964255"/>
     <use style="fill:#bfbf00;stroke:#bfbf00;" x="247.68742" xlink:href="#m28ed94a7b7" y="216.005865"/>
     <use style="fill:#bfbf00;stroke:#bfbf00;" x="249.507816" xlink:href="#m28ed94a7b7" y="216.005865"/>
     <use style="fill:#bfbf00;stroke:#bfbf00;" x="249.868857" xlink:href="#m28ed94a7b7" y="255.839427"/>
     <use style="fill:#bfbf00;stroke:#bfbf00;" x="249.936101" xlink:href="#m28ed94a7b7" y="255.839427"/>
     <use style="fill:#bfbf00;stroke:#bfbf00;" x="250.699778" xlink:href="#m28ed94a7b7" y="261.814462"/>
    </g>
   </g>
   <g id="line2d_29">
    <defs>
     <path d="M 0 3 
C 0.795609 3 1.55874 2.683901 2.12132 2.12132 
C 2.683901 1.55874 3 0.795609 3 0 
C 3 -0.795609 2.683901 -1.55874 2.12132 -2.12132 
C 1.55874 -2.683901 0.795609 -3 0 -3 
C -0.795609 -3 -1.55874 -2.683901 -2.12132 -2.12132 
C -2.683901 -1.55874 -3 -0.795609 -3 0 
C -3 0.795609 -2.683901 1.55874 -2.12132 2.12132 
C -1.55874 2.683901 -0.795609 3 0 3 
z
" id="mee3eb2bbf0" style="stroke:#008000;"/>
    </defs>
    <g clip-path="url(#pe26aaa6540)">
     <use style="fill:#008000;stroke:#008000;" x="122.296814" xlink:href="#mee3eb2bbf0" y="257.314863"/>
     <use style="fill:#008000;stroke:#008000;" x="214.274921" xlink:href="#mee3eb2bbf0" y="263.811518"/>
    </g>
   </g>
   <g id="patch_3">
    <path d="M 57.6 276.48 
L 57.6 41.472 
" style="fill:none;stroke:#000000;stroke-linecap:square;stroke-linejoin:miter;stroke-width:0.8;"/>
   </g>
   <g id="patch_4">
    <path d="M 414.72 276.48 
L 414.72 41.472 
" style="fill:none;stroke:#000000;stroke-linecap:square;stroke-linejoin:miter;stroke-width:0.8;"/>
   </g>
   <g id="patch_5">
    <path d="M 57.6 276.48 
L 414.72 276.48 
" style="fill:none;stroke:#000000;stroke-linecap:square;stroke-linejoin:miter;stroke-width:0.8;"/>
   </g>
   <g id="patch_6">
    <path d="M 57.6 41.472 
L 414.72 41.472 
" style="fill:none;stroke:#000000;stroke-linecap:square;stroke-linejoin:miter;stroke-width:0.8;"/>
   </g>
   <g id="text_15">
    <!-- My Bondora earnings -->
    <defs>
     <path d="M 9.8125 72.90625 
L 24.515625 72.90625 
L 43.109375 23.296875 
L 61.8125 72.90625 
L 76.515625 72.90625 
L 76.515625 0 
L 66.890625 0 
L 66.890625 64.015625 
L 48.09375 14.015625 
L 38.1875 14.015625 
L 19.390625 64.015625 
L 19.390625 0 
L 9.8125 0 
z
" id="DejaVuSans-4d"/>
     <path d="M 32.171875 -5.078125 
Q 28.375 -14.84375 24.75 -17.8125 
Q 21.140625 -20.796875 15.09375 -20.796875 
L 7.90625 -20.796875 
L 7.90625 -13.28125 
L 13.1875 -13.28125 
Q 16.890625 -13.28125 18.9375 -11.515625 
Q 21 -9.765625 23.484375 -3.21875 
L 25.09375 0.875 
L 2.984375 54.6875 
L 12.5 54.6875 
L 29.59375 11.921875 
L 46.6875 54.6875 
L 56.203125 54.6875 
z
" id="DejaVuSans-79"/>
     <path id="DejaVuSans-20"/>
     <path d="M 19.671875 34.8125 
L 19.671875 8.109375 
L 35.5 8.109375 
Q 43.453125 8.109375 47.28125 11.40625 
Q 51.125 14.703125 51.125 21.484375 
Q 51.125 28.328125 47.28125 31.5625 
Q 43.453125 34.8125 35.5 34.8125 
z
M 19.671875 64.796875 
L 19.671875 42.828125 
L 34.28125 42.828125 
Q 41.5 42.828125 45.03125 45.53125 
Q 48.578125 48.25 48.578125 53.8125 
Q 48.578125 59.328125 45.03125 62.0625 
Q 41.5 64.796875 34.28125 64.796875 
z
M 9.8125 72.90625 
L 35.015625 72.90625 
Q 46.296875 72.90625 52.390625 68.21875 
Q 58.5 63.53125 58.5 54.890625 
Q 58.5 48.1875 55.375 44.234375 
Q 52.25 40.28125 46.1875 39.3125 
Q 53.46875 37.75 57.5 32.78125 
Q 61.53125 27.828125 61.53125 20.40625 
Q 61.53125 10.640625 54.890625 5.3125 
Q 48.25 0 35.984375 0 
L 9.8125 0 
z
" id="DejaVuSans-42"/>
     <path d="M 30.609375 48.390625 
Q 23.390625 48.390625 19.1875 42.75 
Q 14.984375 37.109375 14.984375 27.296875 
Q 14.984375 17.484375 19.15625 11.84375 
Q 23.34375 6.203125 30.609375 6.203125 
Q 37.796875 6.203125 41.984375 11.859375 
Q 46.1875 17.53125 46.1875 27.296875 
Q 46.1875 37.015625 41.984375 42.703125 
Q 37.796875 48.390625 30.609375 48.390625 
z
M 30.609375 56 
Q 42.328125 56 49.015625 48.375 
Q 55.71875 40.765625 55.71875 27.296875 
Q 55.71875 13.875 49.015625 6.21875 
Q 42.328125 -1.421875 30.609375 -1.421875 
Q 18.84375 -1.421875 12.171875 6.21875 
Q 5.515625 13.875 5.515625 27.296875 
Q 5.515625 40.765625 12.171875 48.375 
Q 18.84375 56 30.609375 56 
z
" id="DejaVuSans-6f"/>
     <path d="M 54.890625 33.015625 
L 54.890625 0 
L 45.90625 0 
L 45.90625 32.71875 
Q 45.90625 40.484375 42.875 44.328125 
Q 39.84375 48.1875 33.796875 48.1875 
Q 26.515625 48.1875 22.3125 43.546875 
Q 18.109375 38.921875 18.109375 30.90625 
L 18.109375 0 
L 9.078125 0 
L 9.078125 54.6875 
L 18.109375 54.6875 
L 18.109375 46.1875 
Q 21.34375 51.125 25.703125 53.5625 
Q 30.078125 56 35.796875 56 
Q 45.21875 56 50.046875 50.171875 
Q 54.890625 44.34375 54.890625 33.015625 
z
" id="DejaVuSans-6e"/>
     <path d="M 41.109375 46.296875 
Q 39.59375 47.171875 37.8125 47.578125 
Q 36.03125 48 33.890625 48 
Q 26.265625 48 22.1875 43.046875 
Q 18.109375 38.09375 18.109375 28.8125 
L 18.109375 0 
L 9.078125 0 
L 9.078125 54.6875 
L 18.109375 54.6875 
L 18.109375 46.1875 
Q 20.953125 51.171875 25.484375 53.578125 
Q 30.03125 56 36.53125 56 
Q 37.453125 56 38.578125 55.875 
Q 39.703125 55.765625 41.0625 55.515625 
z
" id="DejaVuSans-72"/>
     <path d="M 9.421875 54.6875 
L 18.40625 54.6875 
L 18.40625 0 
L 9.421875 0 
z
M 9.421875 75.984375 
L 18.40625 75.984375 
L 18.40625 64.59375 
L 9.421875 64.59375 
z
" id="DejaVuSans-69"/>
     <path d="M 45.40625 27.984375 
Q 45.40625 37.75 41.375 43.109375 
Q 37.359375 48.484375 30.078125 48.484375 
Q 22.859375 48.484375 18.828125 43.109375 
Q 14.796875 37.75 14.796875 27.984375 
Q 14.796875 18.265625 18.828125 12.890625 
Q 22.859375 7.515625 30.078125 7.515625 
Q 37.359375 7.515625 41.375 12.890625 
Q 45.40625 18.265625 45.40625 27.984375 
z
M 54.390625 6.78125 
Q 54.390625 -7.171875 48.1875 -13.984375 
Q 42 -20.796875 29.203125 -20.796875 
Q 24.46875 -20.796875 20.265625 -20.09375 
Q 16.0625 -19.390625 12.109375 -17.921875 
L 12.109375 -9.1875 
Q 16.0625 -11.328125 19.921875 -12.34375 
Q 23.78125 -13.375 27.78125 -13.375 
Q 36.625 -13.375 41.015625 -8.765625 
Q 45.40625 -4.15625 45.40625 5.171875 
L 45.40625 9.625 
Q 42.625 4.78125 38.28125 2.390625 
Q 33.9375 0 27.875 0 
Q 17.828125 0 11.671875 7.65625 
Q 5.515625 15.328125 5.515625 27.984375 
Q 5.515625 40.671875 11.671875 48.328125 
Q 17.828125 56 27.875 56 
Q 33.9375 56 38.28125 53.609375 
Q 42.625 51.21875 45.40625 46.390625 
L 45.40625 54.6875 
L 54.390625 54.6875 
z
" id="DejaVuSans-67"/>
     <path d="M 44.28125 53.078125 
L 44.28125 44.578125 
Q 40.484375 46.53125 36.375 47.5 
Q 32.28125 48.484375 27.875 48.484375 
Q 21.1875 48.484375 17.84375 46.4375 
Q 14.5 44.390625 14.5 40.28125 
Q 14.5 37.15625 16.890625 35.375 
Q 19.28125 33.59375 26.515625 31.984375 
L 29.59375 31.296875 
Q 39.15625 29.25 43.1875 25.515625 
Q 47.21875 21.78125 47.21875 15.09375 
Q 47.21875 7.46875 41.1875 3.015625 
Q 35.15625 -1.421875 24.609375 -1.421875 
Q 20.21875 -1.421875 15.453125 -0.5625 
Q 10.6875 0.296875 5.421875 2 
L 5.421875 11.28125 
Q 10.40625 8.6875 15.234375 7.390625 
Q 20.0625 6.109375 24.8125 6.109375 
Q 31.15625 6.109375 34.5625 8.28125 
Q 37.984375 10.453125 37.984375 14.40625 
Q 37.984375 18.0625 35.515625 20.015625 
Q 33.0625 21.96875 24.703125 23.78125 
L 21.578125 24.515625 
Q 13.234375 26.265625 9.515625 29.90625 
Q 5.8125 33.546875 5.8125 39.890625 
Q 5.8125 47.609375 11.28125 51.796875 
Q 16.75 56 26.8125 56 
Q 31.78125 56 36.171875 55.265625 
Q 40.578125 54.546875 44.28125 53.078125 
z
" id="DejaVuSans-73"/>
    </defs>
    <g transform="translate(172.363125 35.472)scale(0.12 -0.12)">
     <use xlink:href="#DejaVuSans-4d"/>
     <use x="86.279297" xlink:href="#DejaVuSans-79"/>
     <use x="145.458984" xlink:href="#DejaVuSans-20"/>
     <use x="177.246094" xlink:href="#DejaVuSans-42"/>
     <use x="245.849609" xlink:href="#DejaVuSans-6f"/>
     <use x="307.03125" xlink:href="#DejaVuSans-6e"/>
     <use x="370.410156" xlink:href="#DejaVuSans-64"/>
     <use x="433.886719" xlink:href="#DejaVuSans-6f"/>
     <use x="495.068359" xlink:href="#DejaVuSans-72"/>
     <use x="536.181641" xlink:href="#DejaVuSans-61"/>
     <use x="597.460938" xlink:href="#DejaVuSans-20"/>
     <use x="629.248047" xlink:href="#DejaVuSans-65"/>
     <use x="690.771484" xlink:href="#DejaVuSans-61"/>
     <use x="752.050781" xlink:href="#DejaVuSans-72"/>
     <use x="793.148438" xlink:href="#DejaVuSans-6e"/>
     <use x="856.527344" xlink:href="#DejaVuSans-69"/>
     <use x="884.310547" xlink:href="#DejaVuSans-6e"/>
     <use x="947.689453" xlink:href="#DejaVuSans-67"/>
     <use x="1011.166016" xlink:href="#DejaVuSans-73"/>
    </g>
   </g>
   <g id="legend_1">
    <g id="patch_7">
     <path d="M 64.6 122.862625 
L 158.45 122.862625 
Q 160.45 122.862625 160.45 120.862625 
L 160.45 48.472 
Q 160.45 46.472 158.45 46.472 
L 64.6 46.472 
Q 62.6 46.472 62.6 48.472 
L 62.6 120.862625 
Q 62.6 122.862625 64.6 122.862625 
z
" style="fill:#ffffff;opacity:0.8;stroke:#cccccc;stroke-linejoin:miter;"/>
    </g>
    <g id="line2d_30">
     <path d="M 66.6 54.570437 
L 86.6 54.570437 
" style="fill:none;stroke:#0000ff;stroke-linecap:square;stroke-width:1.5;"/>
    </g>
    <g id="line2d_31"/>
    <g id="text_16">
     <!-- Interest -->
     <defs>
      <path d="M 9.8125 72.90625 
L 19.671875 72.90625 
L 19.671875 0 
L 9.8125 0 
z
" id="DejaVuSans-49"/>
     </defs>
     <g transform="translate(94.6 58.070437)scale(0.1 -0.1)">
      <use xlink:href="#DejaVuSans-49"/>
      <use x="29.492188" xlink:href="#DejaVuSans-6e"/>
      <use x="92.871094" xlink:href="#DejaVuSans-74"/>
      <use x="132.080078" xlink:href="#DejaVuSans-65"/>
      <use x="193.603516" xlink:href="#DejaVuSans-72"/>
      <use x="234.685547" xlink:href="#DejaVuSans-65"/>
      <use x="296.208984" xlink:href="#DejaVuSans-73"/>
      <use x="348.308594" xlink:href="#DejaVuSans-74"/>
     </g>
    </g>
    <g id="line2d_32">
     <path d="M 66.6 69.248562 
L 86.6 69.248562 
" style="fill:none;stroke:#ff0000;stroke-linecap:square;stroke-width:1.5;"/>
    </g>
    <g id="line2d_33"/>
    <g id="text_17">
     <!-- Balance -->
     <defs>
      <path d="M 9.421875 75.984375 
L 18.40625 75.984375 
L 18.40625 0 
L 9.421875 0 
z
" id="DejaVuSans-6c"/>
      <path d="M 48.78125 52.59375 
L 48.78125 44.1875 
Q 44.96875 46.296875 41.140625 47.34375 
Q 37.3125 48.390625 33.40625 48.390625 
Q 24.65625 48.390625 19.8125 42.84375 
Q 14.984375 37.3125 14.984375 27.296875 
Q 14.984375 17.28125 19.8125 11.734375 
Q 24.65625 6.203125 33.40625 6.203125 
Q 37.3125 6.203125 41.140625 7.25 
Q 44.96875 8.296875 48.78125 10.40625 
L 48.78125 2.09375 
Q 45.015625 0.34375 40.984375 -0.53125 
Q 36.96875 -1.421875 32.421875 -1.421875 
Q 20.0625 -1.421875 12.78125 6.34375 
Q 5.515625 14.109375 5.515625 27.296875 
Q 5.515625 40.671875 12.859375 48.328125 
Q 20.21875 56 33.015625 56 
Q 37.15625 56 41.109375 55.140625 
Q 45.0625 54.296875 48.78125 52.59375 
z
" id="DejaVuSans-63"/>
     </defs>
     <g transform="translate(94.6 72.748562)scale(0.1 -0.1)">
      <use xlink:href="#DejaVuSans-42"/>
      <use x="68.603516" xlink:href="#DejaVuSans-61"/>
      <use x="129.882812" xlink:href="#DejaVuSans-6c"/>
      <use x="157.666016" xlink:href="#DejaVuSans-61"/>
      <use x="218.945312" xlink:href="#DejaVuSans-6e"/>
      <use x="282.324219" xlink:href="#DejaVuSans-63"/>
      <use x="337.304688" xlink:href="#DejaVuSans-65"/>
     </g>
    </g>
    <g id="line2d_34">
     <path d="M 66.6 83.926687 
L 86.6 83.926687 
" style="fill:none;stroke:#008000;stroke-linecap:square;stroke-width:1.5;"/>
    </g>
    <g id="line2d_35"/>
    <g id="text_18">
     <!-- Investments -->
     <defs>
      <path d="M 2.984375 54.6875 
L 12.5 54.6875 
L 29.59375 8.796875 
L 46.6875 54.6875 
L 56.203125 54.6875 
L 35.6875 0 
L 23.484375 0 
z
" id="DejaVuSans-76"/>
      <path d="M 52 44.1875 
Q 55.375 50.25 60.0625 53.125 
Q 64.75 56 71.09375 56 
Q 79.640625 56 84.28125 50.015625 
Q 88.921875 44.046875 88.921875 33.015625 
L 88.921875 0 
L 79.890625 0 
L 79.890625 32.71875 
Q 79.890625 40.578125 77.09375 44.375 
Q 74.3125 48.1875 68.609375 48.1875 
Q 61.625 48.1875 57.5625 43.546875 
Q 53.515625 38.921875 53.515625 30.90625 
L 53.515625 0 
L 44.484375 0 
L 44.484375 32.71875 
Q 44.484375 40.625 41.703125 44.40625 
Q 38.921875 48.1875 33.109375 48.1875 
Q 26.21875 48.1875 22.15625 43.53125 
Q 18.109375 38.875 18.109375 30.90625 
L 18.109375 0 
L 9.078125 0 
L 9.078125 54.6875 
L 18.109375 54.6875 
L 18.109375 46.1875 
Q 21.1875 51.21875 25.484375 53.609375 
Q 29.78125 56 35.6875 56 
Q 41.65625 56 45.828125 52.96875 
Q 50 49.953125 52 44.1875 
z
" id="DejaVuSans-6d"/>
     </defs>
     <g transform="translate(94.6 87.426687)scale(0.1 -0.1)">
      <use xlink:href="#DejaVuSans-49"/>
      <use x="29.492188" xlink:href="#DejaVuSans-6e"/>
      <use x="92.871094" xlink:href="#DejaVuSans-76"/>
      <use x="152.050781" xlink:href="#DejaVuSans-65"/>
      <use x="213.574219" xlink:href="#DejaVuSans-73"/>
      <use x="265.673828" xlink:href="#DejaVuSans-74"/>
      <use x="304.882812" xlink:href="#DejaVuSans-6d"/>
      <use x="402.294922" xlink:href="#DejaVuSans-65"/>
      <use x="463.818359" xlink:href="#DejaVuSans-6e"/>
      <use x="527.197266" xlink:href="#DejaVuSans-74"/>
      <use x="566.40625" xlink:href="#DejaVuSans-73"/>
     </g>
    </g>
    <g id="line2d_36"/>
    <g id="line2d_37">
     <g>
      <use style="fill:#bfbf00;stroke:#bfbf00;" x="76.6" xlink:href="#m28ed94a7b7" y="98.604812"/>
     </g>
    </g>
    <g id="text_19">
     <!-- Deposits -->
     <defs>
      <path d="M 19.671875 64.796875 
L 19.671875 8.109375 
L 31.59375 8.109375 
Q 46.6875 8.109375 53.6875 14.9375 
Q 60.6875 21.78125 60.6875 36.53125 
Q 60.6875 51.171875 53.6875 57.984375 
Q 46.6875 64.796875 31.59375 64.796875 
z
M 9.8125 72.90625 
L 30.078125 72.90625 
Q 51.265625 72.90625 61.171875 64.09375 
Q 71.09375 55.28125 71.09375 36.53125 
Q 71.09375 17.671875 61.125 8.828125 
Q 51.171875 0 30.078125 0 
L 9.8125 0 
z
" id="DejaVuSans-44"/>
      <path d="M 18.109375 8.203125 
L 18.109375 -20.796875 
L 9.078125 -20.796875 
L 9.078125 54.6875 
L 18.109375 54.6875 
L 18.109375 46.390625 
Q 20.953125 51.265625 25.265625 53.625 
Q 29.59375 56 35.59375 56 
Q 45.5625 56 51.78125 48.09375 
Q 58.015625 40.1875 58.015625 27.296875 
Q 58.015625 14.40625 51.78125 6.484375 
Q 45.5625 -1.421875 35.59375 -1.421875 
Q 29.59375 -1.421875 25.265625 0.953125 
Q 20.953125 3.328125 18.109375 8.203125 
z
M 48.6875 27.296875 
Q 48.6875 37.203125 44.609375 42.84375 
Q 40.53125 48.484375 33.40625 48.484375 
Q 26.265625 48.484375 22.1875 42.84375 
Q 18.109375 37.203125 18.109375 27.296875 
Q 18.109375 17.390625 22.1875 11.75 
Q 26.265625 6.109375 33.40625 6.109375 
Q 40.53125 6.109375 44.609375 11.75 
Q 48.6875 17.390625 48.6875 27.296875 
z
" id="DejaVuSans-70"/>
     </defs>
     <g transform="translate(94.6 102.104812)scale(0.1 -0.1)">
      <use xlink:href="#DejaVuSans-44"/>
      <use x="77.001953" xlink:href="#DejaVuSans-65"/>
      <use x="138.525391" xlink:href="#DejaVuSans-70"/>
      <use x="202.001953" xlink:href="#DejaVuSans-6f"/>
      <use x="263.183594" xlink:href="#DejaVuSans-73"/>
      <use x="315.283203" xlink:href="#DejaVuSans-69"/>
      <use x="343.066406" xlink:href="#DejaVuSans-74"/>
      <use x="382.275391" xlink:href="#DejaVuSans-73"/>
     </g>
    </g>
    <g id="line2d_38"/>
    <g id="line2d_39">
     <g>
      <use style="fill:#008000;stroke:#008000;" x="76.6" xlink:href="#mee3eb2bbf0" y="113.282937"/>
     </g>
    </g>
    <g id="text_20">
     <!-- Commission -->
     <defs>
      <path d="M 64.40625 67.28125 
L 64.40625 56.890625 
Q 59.421875 61.53125 53.78125 63.8125 
Q 48.140625 66.109375 41.796875 66.109375 
Q 29.296875 66.109375 22.65625 58.46875 
Q 16.015625 50.828125 16.015625 36.375 
Q 16.015625 21.96875 22.65625 14.328125 
Q 29.296875 6.6875 41.796875 6.6875 
Q 48.140625 6.6875 53.78125 8.984375 
Q 59.421875 11.28125 64.40625 15.921875 
L 64.40625 5.609375 
Q 59.234375 2.09375 53.4375 0.328125 
Q 47.65625 -1.421875 41.21875 -1.421875 
Q 24.65625 -1.421875 15.125 8.703125 
Q 5.609375 18.84375 5.609375 36.375 
Q 5.609375 53.953125 15.125 64.078125 
Q 24.65625 74.21875 41.21875 74.21875 
Q 47.75 74.21875 53.53125 72.484375 
Q 59.328125 70.75 64.40625 67.28125 
z
" id="DejaVuSans-43"/>
     </defs>
     <g transform="translate(94.6 116.782937)scale(0.1 -0.1)">
      <use xlink:href="#DejaVuSans-43"/>
      <use x="69.824219" xlink:href="#DejaVuSans-6f"/>
      <use x="131.005859" xlink:href="#DejaVuSans-6d"/>
      <use x="228.417969" xlink:href="#DejaVuSans-6d"/>
      <use x="325.830078" xlink:href="#DejaVuSans-69"/>
      <use x="353.613281" xlink:href="#DejaVuSans-73"/>
      <use x="405.712891" xlink:href="#DejaVuSans-73"/>
      <use x="457.8125" xlink:href="#DejaVuSans-69"/>
      <use x="485.595703" xlink:href="#DejaVuSans-6f"/>
      <use x="546.777344" xlink:href="#DejaVuSans-6e"/>
     </g>
    </g>
   </g>
  </g>
 </g>
 <defs>
  <clipPath id="pe26aaa6540">
   <rect height="235.008" width="357.12" x="57.6" y="41.472"/>
  </clipPath>
 </defs>
</svg>
