<?xml version="1.0" encoding="utf-8" standalone="no"?>
<!DOCTYPE svg PUBLIC "-//W3C//DTD SVG 1.1//EN"
  "http://www.w3.org/Graphics/SVG/1.1/DTD/svg11.dtd">
<!-- Created with matplotlib (http://matplotlib.org/) -->
<svg height="345.6pt" version="1.1" viewBox="0 0 460.8 345.6" width="460.8pt" xmlns="http://www.w3.org/2000/svg" xmlns:xlink="http://www.w3.org/1999/xlink">
 <defs>
  <style type="text/css">
*{stroke-linecap:butt;stroke-linejoin:round;}
  </style>
 </defs>
 <g id="figure_1">
  <g id="patch_1">
   <path d="M 0 345.6 
L 460.8 345.6 
L 460.8 0 
L 0 0 
z
" style="fill:#ffffff;"/>
  </g>
  <g id="axes_1">
   <g id="patch_2">
    <path d="M 57.6 276.48 
L 414.72 276.48 
L 414.72 41.472 
L 57.6 41.472 
z
" style="fill:#ffffff;"/>
   </g>
   <g id="matplotlib.axis_1">
    <g id="xtick_1">
     <g id="line2d_1">
      <path clip-path="url(#p9743509169)" d="M 73.832727 276.48 
L 73.832727 41.472 
" style="fill:none;stroke:#b0b0b0;stroke-linecap:square;stroke-width:0.8;"/>
     </g>
     <g id="line2d_2">
      <defs>
       <path d="M 0 0 
L 0 3.5 
" id="mf1f9ac26c7" style="stroke:#000000;stroke-width:0.8;"/>
      </defs>
      <g>
       <use style="stroke:#000000;stroke-width:0.8;" x="73.832727" xlink:href="#mf1f9ac26c7" y="276.48"/>
      </g>
     </g>
     <g id="text_1">
      <!-- 2019-01 -->
      <defs>
       <path d="M 19.1875 8.296875 
L 53.609375 8.296875 
L 53.609375 0 
L 7.328125 0 
L 7.328125 8.296875 
Q 12.9375 14.109375 22.625 23.890625 
Q 32.328125 33.6875 34.8125 36.53125 
Q 39.546875 41.84375 41.421875 45.53125 
Q 43.3125 49.21875 43.3125 52.78125 
Q 43.3125 58.59375 39.234375 62.25 
Q 35.15625 65.921875 28.609375 65.921875 
Q 23.96875 65.921875 18.8125 64.3125 
Q 13.671875 62.703125 7.8125 59.421875 
L 7.8125 69.390625 
Q 13.765625 71.78125 18.9375 73 
Q 24.125 74.21875 28.421875 74.21875 
Q 39.75 74.21875 46.484375 68.546875 
Q 53.21875 62.890625 53.21875 53.421875 
Q 53.21875 48.921875 51.53125 44.890625 
Q 49.859375 40.875 45.40625 35.40625 
Q 44.1875 33.984375 37.640625 27.21875 
Q 31.109375 20.453125 19.1875 8.296875 
z
" id="DejaVuSans-32"/>
       <path d="M 31.78125 66.40625 
Q 24.171875 66.40625 20.328125 58.90625 
Q 16.5 51.421875 16.5 36.375 
Q 16.5 21.390625 20.328125 13.890625 
Q 24.171875 6.390625 31.78125 6.390625 
Q 39.453125 6.390625 43.28125 13.890625 
Q 47.125 21.390625 47.125 36.375 
Q 47.125 51.421875 43.28125 58.90625 
Q 39.453125 66.40625 31.78125 66.40625 
z
M 31.78125 74.21875 
Q 44.046875 74.21875 50.515625 64.515625 
Q 56.984375 54.828125 56.984375 36.375 
Q 56.984375 17.96875 50.515625 8.265625 
Q 44.046875 -1.421875 31.78125 -1.421875 
Q 19.53125 -1.421875 13.0625 8.265625 
Q 6.59375 17.96875 6.59375 36.375 
Q 6.59375 54.828125 13.0625 64.515625 
Q 19.53125 74.21875 31.78125 74.21875 
z
" id="DejaVuSans-30"/>
       <path d="M 12.40625 8.296875 
L 28.515625 8.296875 
L 28.515625 63.921875 
L 10.984375 60.40625 
L 10.984375 69.390625 
L 28.421875 72.90625 
L 38.28125 72.90625 
L 38.28125 8.296875 
L 54.390625 8.296875 
L 54.390625 0 
L 12.40625 0 
z
" id="DejaVuSans-31"/>
       <path d="M 10.984375 1.515625 
L 10.984375 10.5 
Q 14.703125 8.734375 18.5 7.8125 
Q 22.3125 6.890625 25.984375 6.890625 
Q 35.75 6.890625 40.890625 13.453125 
Q 46.046875 20.015625 46.78125 33.40625 
Q 43.953125 29.203125 39.59375 26.953125 
Q 35.25 24.703125 29.984375 24.703125 
Q 19.046875 24.703125 12.671875 31.3125 
Q 6.296875 37.9375 6.296875 49.421875 
Q 6.296875 60.640625 12.9375 67.421875 
Q 19.578125 74.21875 30.609375 74.21875 
Q 43.265625 74.21875 49.921875 64.515625 
Q 56.59375 54.828125 56.59375 36.375 
Q 56.59375 19.140625 48.40625 8.859375 
Q 40.234375 -1.421875 26.421875 -1.421875 
Q 22.703125 -1.421875 18.890625 -0.6875 
Q 15.09375 0.046875 10.984375 1.515625 
z
M 30.609375 32.421875 
Q 37.25 32.421875 41.125 36.953125 
Q 45.015625 41.5 45.015625 49.421875 
Q 45.015625 57.28125 41.125 61.84375 
Q 37.25 66.40625 30.609375 66.40625 
Q 23.96875 66.40625 20.09375 61.84375 
Q 16.21875 57.28125 16.21875 49.421875 
Q 16.21875 41.5 20.09375 36.953125 
Q 23.96875 32.421875 30.609375 32.421875 
z
" id="DejaVuSans-39"/>
       <path d="M 4.890625 31.390625 
L 31.203125 31.390625 
L 31.203125 23.390625 
L 4.890625 23.390625 
z
" id="DejaVuSans-2d"/>
      </defs>
      <g transform="translate(36.607906 310.951846)rotate(-30)scale(0.1 -0.1)">
       <use xlink:href="#DejaVuSans-32"/>
       <use x="63.623047" xlink:href="#DejaVuSans-30"/>
       <use x="127.246094" xlink:href="#DejaVuSans-31"/>
       <use x="190.869141" xlink:href="#DejaVuSans-39"/>
       <use x="254.492188" xlink:href="#DejaVuSans-2d"/>
       <use x="290.576172" xlink:href="#DejaVuSans-30"/>
       <use x="354.199219" xlink:href="#DejaVuSans-31"/>
      </g>
     </g>
    </g>
    <g id="xtick_2">
     <g id="line2d_3">
      <path clip-path="url(#p9743509169)" d="M 136.750357 276.48 
L 136.750357 41.472 
" style="fill:none;stroke:#b0b0b0;stroke-linecap:square;stroke-width:0.8;"/>
     </g>
     <g id="line2d_4">
      <g>
       <use style="stroke:#000000;stroke-width:0.8;" x="136.750357" xlink:href="#mf1f9ac26c7" y="276.48"/>
      </g>
     </g>
     <g id="text_2">
      <!-- 2019-02 -->
      <g transform="translate(99.525536 310.951846)rotate(-30)scale(0.1 -0.1)">
       <use xlink:href="#DejaVuSans-32"/>
       <use x="63.623047" xlink:href="#DejaVuSans-30"/>
       <use x="127.246094" xlink:href="#DejaVuSans-31"/>
       <use x="190.869141" xlink:href="#DejaVuSans-39"/>
       <use x="254.492188" xlink:href="#DejaVuSans-2d"/>
       <use x="290.576172" xlink:href="#DejaVuSans-30"/>
       <use x="354.199219" xlink:href="#DejaVuSans-32"/>
      </g>
     </g>
    </g>
    <g id="xtick_3">
     <g id="line2d_5">
      <path clip-path="url(#p9743509169)" d="M 193.579183 276.48 
L 193.579183 41.472 
" style="fill:none;stroke:#b0b0b0;stroke-linecap:square;stroke-width:0.8;"/>
     </g>
     <g id="line2d_6">
      <g>
       <use style="stroke:#000000;stroke-width:0.8;" x="193.579183" xlink:href="#mf1f9ac26c7" y="276.48"/>
      </g>
     </g>
     <g id="text_3">
      <!-- 2019-03 -->
      <defs>
       <path d="M 40.578125 39.3125 
Q 47.65625 37.796875 51.625 33 
Q 55.609375 28.21875 55.609375 21.1875 
Q 55.609375 10.40625 48.1875 4.484375 
Q 40.765625 -1.421875 27.09375 -1.421875 
Q 22.515625 -1.421875 17.65625 -0.515625 
Q 12.796875 0.390625 7.625 2.203125 
L 7.625 11.71875 
Q 11.71875 9.328125 16.59375 8.109375 
Q 21.484375 6.890625 26.8125 6.890625 
Q 36.078125 6.890625 40.9375 10.546875 
Q 45.796875 14.203125 45.796875 21.1875 
Q 45.796875 27.640625 41.28125 31.265625 
Q 36.765625 34.90625 28.71875 34.90625 
L 20.21875 34.90625 
L 20.21875 43.015625 
L 29.109375 43.015625 
Q 36.375 43.015625 40.234375 45.921875 
Q 44.09375 48.828125 44.09375 54.296875 
Q 44.09375 59.90625 40.109375 62.90625 
Q 36.140625 65.921875 28.71875 65.921875 
Q 24.65625 65.921875 20.015625 65.03125 
Q 15.375 64.15625 9.8125 62.3125 
L 9.8125 71.09375 
Q 15.4375 72.65625 20.34375 73.4375 
Q 25.25 74.21875 29.59375 74.21875 
Q 40.828125 74.21875 47.359375 69.109375 
Q 53.90625 64.015625 53.90625 55.328125 
Q 53.90625 49.265625 50.4375 45.09375 
Q 46.96875 40.921875 40.578125 39.3125 
z
" id="DejaVuSans-33"/>
      </defs>
      <g transform="translate(156.354363 310.951846)rotate(-30)scale(0.1 -0.1)">
       <use xlink:href="#DejaVuSans-32"/>
       <use x="63.623047" xlink:href="#DejaVuSans-30"/>
       <use x="127.246094" xlink:href="#DejaVuSans-31"/>
       <use x="190.869141" xlink:href="#DejaVuSans-39"/>
       <use x="254.492188" xlink:href="#DejaVuSans-2d"/>
       <use x="290.576172" xlink:href="#DejaVuSans-30"/>
       <use x="354.199219" xlink:href="#DejaVuSans-33"/>
      </g>
     </g>
    </g>
    <g id="xtick_4">
     <g id="line2d_7">
      <path clip-path="url(#p9743509169)" d="M 256.496813 276.48 
L 256.496813 41.472 
" style="fill:none;stroke:#b0b0b0;stroke-linecap:square;stroke-width:0.8;"/>
     </g>
     <g id="line2d_8">
      <g>
       <use style="stroke:#000000;stroke-width:0.8;" x="256.496813" xlink:href="#mf1f9ac26c7" y="276.48"/>
      </g>
     </g>
     <g id="text_4">
      <!-- 2019-04 -->
      <defs>
       <path d="M 37.796875 64.3125 
L 12.890625 25.390625 
L 37.796875 25.390625 
z
M 35.203125 72.90625 
L 47.609375 72.90625 
L 47.609375 25.390625 
L 58.015625 25.390625 
L 58.015625 17.1875 
L 47.609375 17.1875 
L 47.609375 0 
L 37.796875 0 
L 37.796875 17.1875 
L 4.890625 17.1875 
L 4.890625 26.703125 
z
" id="DejaVuSans-34"/>
      </defs>
      <g transform="translate(219.271992 310.951846)rotate(-30)scale(0.1 -0.1)">
       <use xlink:href="#DejaVuSans-32"/>
       <use x="63.623047" xlink:href="#DejaVuSans-30"/>
       <use x="127.246094" xlink:href="#DejaVuSans-31"/>
       <use x="190.869141" xlink:href="#DejaVuSans-39"/>
       <use x="254.492188" xlink:href="#DejaVuSans-2d"/>
       <use x="290.576172" xlink:href="#DejaVuSans-30"/>
       <use x="354.199219" xlink:href="#DejaVuSans-34"/>
      </g>
     </g>
    </g>
    <g id="xtick_5">
     <g id="line2d_9">
      <path clip-path="url(#p9743509169)" d="M 317.384842 276.48 
L 317.384842 41.472 
" style="fill:none;stroke:#b0b0b0;stroke-linecap:square;stroke-width:0.8;"/>
     </g>
     <g id="line2d_10">
      <g>
       <use style="stroke:#000000;stroke-width:0.8;" x="317.384842" xlink:href="#mf1f9ac26c7" y="276.48"/>
      </g>
     </g>
     <g id="text_5">
      <!-- 2019-05 -->
      <defs>
       <path d="M 10.796875 72.90625 
L 49.515625 72.90625 
L 49.515625 64.59375 
L 19.828125 64.59375 
L 19.828125 46.734375 
Q 21.96875 47.46875 24.109375 47.828125 
Q 26.265625 48.1875 28.421875 48.1875 
Q 40.625 48.1875 47.75 41.5 
Q 54.890625 34.8125 54.890625 23.390625 
Q 54.890625 11.625 47.5625 5.09375 
Q 40.234375 -1.421875 26.90625 -1.421875 
Q 22.3125 -1.421875 17.546875 -0.640625 
Q 12.796875 0.140625 7.71875 1.703125 
L 7.71875 11.625 
Q 12.109375 9.234375 16.796875 8.0625 
Q 21.484375 6.890625 26.703125 6.890625 
Q 35.15625 6.890625 40.078125 11.328125 
Q 45.015625 15.765625 45.015625 23.390625 
Q 45.015625 31 40.078125 35.4375 
Q 35.15625 39.890625 26.703125 39.890625 
Q 22.75 39.890625 18.8125 39.015625 
Q 14.890625 38.140625 10.796875 36.28125 
z
" id="DejaVuSans-35"/>
      </defs>
      <g transform="translate(280.160021 310.951846)rotate(-30)scale(0.1 -0.1)">
       <use xlink:href="#DejaVuSans-32"/>
       <use x="63.623047" xlink:href="#DejaVuSans-30"/>
       <use x="127.246094" xlink:href="#DejaVuSans-31"/>
       <use x="190.869141" xlink:href="#DejaVuSans-39"/>
       <use x="254.492188" xlink:href="#DejaVuSans-2d"/>
       <use x="290.576172" xlink:href="#DejaVuSans-30"/>
       <use x="354.199219" xlink:href="#DejaVuSans-35"/>
      </g>
     </g>
    </g>
    <g id="xtick_6">
     <g id="line2d_11">
      <path clip-path="url(#p9743509169)" d="M 380.302471 276.48 
L 380.302471 41.472 
" style="fill:none;stroke:#b0b0b0;stroke-linecap:square;stroke-width:0.8;"/>
     </g>
     <g id="line2d_12">
      <g>
       <use style="stroke:#000000;stroke-width:0.8;" x="380.302471" xlink:href="#mf1f9ac26c7" y="276.48"/>
      </g>
     </g>
     <g id="text_6">
      <!-- 2019-06 -->
      <defs>
       <path d="M 33.015625 40.375 
Q 26.375 40.375 22.484375 35.828125 
Q 18.609375 31.296875 18.609375 23.390625 
Q 18.609375 15.53125 22.484375 10.953125 
Q 26.375 6.390625 33.015625 6.390625 
Q 39.65625 6.390625 43.53125 10.953125 
Q 47.40625 15.53125 47.40625 23.390625 
Q 47.40625 31.296875 43.53125 35.828125 
Q 39.65625 40.375 33.015625 40.375 
z
M 52.59375 71.296875 
L 52.59375 62.3125 
Q 48.875 64.0625 45.09375 64.984375 
Q 41.3125 65.921875 37.59375 65.921875 
Q 27.828125 65.921875 22.671875 59.328125 
Q 17.53125 52.734375 16.796875 39.40625 
Q 19.671875 43.65625 24.015625 45.921875 
Q 28.375 48.1875 33.59375 48.1875 
Q 44.578125 48.1875 50.953125 41.515625 
Q 57.328125 34.859375 57.328125 23.390625 
Q 57.328125 12.15625 50.6875 5.359375 
Q 44.046875 -1.421875 33.015625 -1.421875 
Q 20.359375 -1.421875 13.671875 8.265625 
Q 6.984375 17.96875 6.984375 36.375 
Q 6.984375 53.65625 15.1875 63.9375 
Q 23.390625 74.21875 37.203125 74.21875 
Q 40.921875 74.21875 44.703125 73.484375 
Q 48.484375 72.75 52.59375 71.296875 
z
" id="DejaVuSans-36"/>
      </defs>
      <g transform="translate(343.07765 310.951846)rotate(-30)scale(0.1 -0.1)">
       <use xlink:href="#DejaVuSans-32"/>
       <use x="63.623047" xlink:href="#DejaVuSans-30"/>
       <use x="127.246094" xlink:href="#DejaVuSans-31"/>
       <use x="190.869141" xlink:href="#DejaVuSans-39"/>
       <use x="254.492188" xlink:href="#DejaVuSans-2d"/>
       <use x="290.576172" xlink:href="#DejaVuSans-30"/>
       <use x="354.199219" xlink:href="#DejaVuSans-36"/>
      </g>
     </g>
    </g>
    <g id="text_7">
     <!-- date -->
     <defs>
      <path d="M 45.40625 46.390625 
L 45.40625 75.984375 
L 54.390625 75.984375 
L 54.390625 0 
L 45.40625 0 
L 45.40625 8.203125 
Q 42.578125 3.328125 38.25 0.953125 
Q 33.9375 -1.421875 27.875 -1.421875 
Q 17.96875 -1.421875 11.734375 6.484375 
Q 5.515625 14.40625 5.515625 27.296875 
Q 5.515625 40.1875 11.734375 48.09375 
Q 17.96875 56 27.875 56 
Q 33.9375 56 38.25 53.625 
Q 42.578125 51.265625 45.40625 46.390625 
z
M 14.796875 27.296875 
Q 14.796875 17.390625 18.875 11.75 
Q 22.953125 6.109375 30.078125 6.109375 
Q 37.203125 6.109375 41.296875 11.75 
Q 45.40625 17.390625 45.40625 27.296875 
Q 45.40625 37.203125 41.296875 42.84375 
Q 37.203125 48.484375 30.078125 48.484375 
Q 22.953125 48.484375 18.875 42.84375 
Q 14.796875 37.203125 14.796875 27.296875 
z
" id="DejaVuSans-64"/>
      <path d="M 34.28125 27.484375 
Q 23.390625 27.484375 19.1875 25 
Q 14.984375 22.515625 14.984375 16.5 
Q 14.984375 11.71875 18.140625 8.90625 
Q 21.296875 6.109375 26.703125 6.109375 
Q 34.1875 6.109375 38.703125 11.40625 
Q 43.21875 16.703125 43.21875 25.484375 
L 43.21875 27.484375 
z
M 52.203125 31.203125 
L 52.203125 0 
L 43.21875 0 
L 43.21875 8.296875 
Q 40.140625 3.328125 35.546875 0.953125 
Q 30.953125 -1.421875 24.3125 -1.421875 
Q 15.921875 -1.421875 10.953125 3.296875 
Q 6 8.015625 6 15.921875 
Q 6 25.140625 12.171875 29.828125 
Q 18.359375 34.515625 30.609375 34.515625 
L 43.21875 34.515625 
L 43.21875 35.40625 
Q 43.21875 41.609375 39.140625 45 
Q 35.0625 48.390625 27.6875 48.390625 
Q 23 48.390625 18.546875 47.265625 
Q 14.109375 46.140625 10.015625 43.890625 
L 10.015625 52.203125 
Q 14.9375 54.109375 19.578125 55.046875 
Q 24.21875 56 28.609375 56 
Q 40.484375 56 46.34375 49.84375 
Q 52.203125 43.703125 52.203125 31.203125 
z
" id="DejaVuSans-61"/>
      <path d="M 18.3125 70.21875 
L 18.3125 54.6875 
L 36.8125 54.6875 
L 36.8125 47.703125 
L 18.3125 47.703125 
L 18.3125 18.015625 
Q 18.3125 11.328125 20.140625 9.421875 
Q 21.96875 7.515625 27.59375 7.515625 
L 36.8125 7.515625 
L 36.8125 0 
L 27.59375 0 
Q 17.1875 0 13.234375 3.875 
Q 9.28125 7.765625 9.28125 18.015625 
L 9.28125 47.703125 
L 2.6875 47.703125 
L 2.6875 54.6875 
L 9.28125 54.6875 
L 9.28125 70.21875 
z
" id="DejaVuSans-74"/>
      <path d="M 56.203125 29.59375 
L 56.203125 25.203125 
L 14.890625 25.203125 
Q 15.484375 15.921875 20.484375 11.0625 
Q 25.484375 6.203125 34.421875 6.203125 
Q 39.59375 6.203125 44.453125 7.46875 
Q 49.3125 8.734375 54.109375 11.28125 
L 54.109375 2.78125 
Q 49.265625 0.734375 44.1875 -0.34375 
Q 39.109375 -1.421875 33.890625 -1.421875 
Q 20.796875 -1.421875 13.15625 6.1875 
Q 5.515625 13.8125 5.515625 26.8125 
Q 5.515625 40.234375 12.765625 48.109375 
Q 20.015625 56 32.328125 56 
Q 43.359375 56 49.78125 48.890625 
Q 56.203125 41.796875 56.203125 29.59375 
z
M 47.21875 32.234375 
Q 47.125 39.59375 43.09375 43.984375 
Q 39.0625 48.390625 32.421875 48.390625 
Q 24.90625 48.390625 20.390625 44.140625 
Q 15.875 39.890625 15.1875 32.171875 
z
" id="DejaVuSans-65"/>
     </defs>
     <g transform="translate(224.885 324.351346)scale(0.1 -0.1)">
      <use xlink:href="#DejaVuSans-64"/>
      <use x="63.476562" xlink:href="#DejaVuSans-61"/>
      <use x="124.755859" xlink:href="#DejaVuSans-74"/>
      <use x="163.964844" xlink:href="#DejaVuSans-65"/>
     </g>
    </g>
   </g>
   <g id="matplotlib.axis_2">
    <g id="ytick_1">
     <g id="line2d_13">
      <path clip-path="url(#p9743509169)" d="M 57.6 265.797818 
L 414.72 265.797818 
" style="fill:none;stroke:#b0b0b0;stroke-linecap:square;stroke-width:0.8;"/>
     </g>
     <g id="line2d_14">
      <defs>
       <path d="M 0 0 
L -3.5 0 
" id="m314a12c194" style="stroke:#000000;stroke-width:0.8;"/>
      </defs>
      <g>
       <use style="stroke:#000000;stroke-width:0.8;" x="57.6" xlink:href="#m314a12c194" y="265.797818"/>
      </g>
     </g>
     <g id="text_8">
      <!-- 0 -->
      <g transform="translate(44.2375 269.597037)scale(0.1 -0.1)">
       <use xlink:href="#DejaVuSans-30"/>
      </g>
     </g>
    </g>
    <g id="ytick_2">
     <g id="line2d_15">
      <path clip-path="url(#p9743509169)" d="M 57.6 233.183784 
L 414.72 233.183784 
" style="fill:none;stroke:#b0b0b0;stroke-linecap:square;stroke-width:0.8;"/>
     </g>
     <g id="line2d_16">
      <g>
       <use style="stroke:#000000;stroke-width:0.8;" x="57.6" xlink:href="#m314a12c194" y="233.183784"/>
      </g>
     </g>
     <g id="text_9">
      <!-- 500 -->
      <g transform="translate(31.5125 236.983003)scale(0.1 -0.1)">
       <use xlink:href="#DejaVuSans-35"/>
       <use x="63.623047" xlink:href="#DejaVuSans-30"/>
       <use x="127.246094" xlink:href="#DejaVuSans-30"/>
      </g>
     </g>
    </g>
    <g id="ytick_3">
     <g id="line2d_17">
      <path clip-path="url(#p9743509169)" d="M 57.6 200.569751 
L 414.72 200.569751 
" style="fill:none;stroke:#b0b0b0;stroke-linecap:square;stroke-width:0.8;"/>
     </g>
     <g id="line2d_18">
      <g>
       <use style="stroke:#000000;stroke-width:0.8;" x="57.6" xlink:href="#m314a12c194" y="200.569751"/>
      </g>
     </g>
     <g id="text_10">
      <!-- 1000 -->
      <g transform="translate(25.15 204.368969)scale(0.1 -0.1)">
       <use xlink:href="#DejaVuSans-31"/>
       <use x="63.623047" xlink:href="#DejaVuSans-30"/>
       <use x="127.246094" xlink:href="#DejaVuSans-30"/>
       <use x="190.869141" xlink:href="#DejaVuSans-30"/>
      </g>
     </g>
    </g>
    <g id="ytick_4">
     <g id="line2d_19">
      <path clip-path="url(#p9743509169)" d="M 57.6 167.955717 
L 414.72 167.955717 
" style="fill:none;stroke:#b0b0b0;stroke-linecap:square;stroke-width:0.8;"/>
     </g>
     <g id="line2d_20">
      <g>
       <use style="stroke:#000000;stroke-width:0.8;" x="57.6" xlink:href="#m314a12c194" y="167.955717"/>
      </g>
     </g>
     <g id="text_11">
      <!-- 1500 -->
      <g transform="translate(25.15 171.754935)scale(0.1 -0.1)">
       <use xlink:href="#DejaVuSans-31"/>
       <use x="63.623047" xlink:href="#DejaVuSans-35"/>
       <use x="127.246094" xlink:href="#DejaVuSans-30"/>
       <use x="190.869141" xlink:href="#DejaVuSans-30"/>
      </g>
     </g>
    </g>
    <g id="ytick_5">
     <g id="line2d_21">
      <path clip-path="url(#p9743509169)" d="M 57.6 135.341683 
L 414.72 135.341683 
" style="fill:none;stroke:#b0b0b0;stroke-linecap:square;stroke-width:0.8;"/>
     </g>
     <g id="line2d_22">
      <g>
       <use style="stroke:#000000;stroke-width:0.8;" x="57.6" xlink:href="#m314a12c194" y="135.341683"/>
      </g>
     </g>
     <g id="text_12">
      <!-- 2000 -->
      <g transform="translate(25.15 139.140902)scale(0.1 -0.1)">
       <use xlink:href="#DejaVuSans-32"/>
       <use x="63.623047" xlink:href="#DejaVuSans-30"/>
       <use x="127.246094" xlink:href="#DejaVuSans-30"/>
       <use x="190.869141" xlink:href="#DejaVuSans-30"/>
      </g>
     </g>
    </g>
    <g id="ytick_6">
     <g id="line2d_23">
      <path clip-path="url(#p9743509169)" d="M 57.6 102.727649 
L 414.72 102.727649 
" style="fill:none;stroke:#b0b0b0;stroke-linecap:square;stroke-width:0.8;"/>
     </g>
     <g id="line2d_24">
      <g>
       <use style="stroke:#000000;stroke-width:0.8;" x="57.6" xlink:href="#m314a12c194" y="102.727649"/>
      </g>
     </g>
     <g id="text_13">
      <!-- 2500 -->
      <g transform="translate(25.15 106.526868)scale(0.1 -0.1)">
       <use xlink:href="#DejaVuSans-32"/>
       <use x="63.623047" xlink:href="#DejaVuSans-35"/>
       <use x="127.246094" xlink:href="#DejaVuSans-30"/>
       <use x="190.869141" xlink:href="#DejaVuSans-30"/>
      </g>
     </g>
    </g>
    <g id="ytick_7">
     <g id="line2d_25">
      <path clip-path="url(#p9743509169)" d="M 57.6 70.113615 
L 414.72 70.113615 
" style="fill:none;stroke:#b0b0b0;stroke-linecap:square;stroke-width:0.8;"/>
     </g>
     <g id="line2d_26">
      <g>
       <use style="stroke:#000000;stroke-width:0.8;" x="57.6" xlink:href="#m314a12c194" y="70.113615"/>
      </g>
     </g>
     <g id="text_14">
      <!-- 3000 -->
      <g transform="translate(25.15 73.912834)scale(0.1 -0.1)">
       <use xlink:href="#DejaVuSans-33"/>
       <use x="63.623047" xlink:href="#DejaVuSans-30"/>
       <use x="127.246094" xlink:href="#DejaVuSans-30"/>
       <use x="190.869141" xlink:href="#DejaVuSans-30"/>
      </g>
     </g>
    </g>
    <g id="text_15">
     <!-- EUR -->
     <defs>
      <path d="M 9.8125 72.90625 
L 55.90625 72.90625 
L 55.90625 64.59375 
L 19.671875 64.59375 
L 19.671875 43.015625 
L 54.390625 43.015625 
L 54.390625 34.71875 
L 19.671875 34.71875 
L 19.671875 8.296875 
L 56.78125 8.296875 
L 56.78125 0 
L 9.8125 0 
z
" id="DejaVuSans-45"/>
      <path d="M 8.6875 72.90625 
L 18.609375 72.90625 
L 18.609375 28.609375 
Q 18.609375 16.890625 22.84375 11.734375 
Q 27.09375 6.59375 36.625 6.59375 
Q 46.09375 6.59375 50.34375 11.734375 
Q 54.59375 16.890625 54.59375 28.609375 
L 54.59375 72.90625 
L 64.5 72.90625 
L 64.5 27.390625 
Q 64.5 13.140625 57.4375 5.859375 
Q 50.390625 -1.421875 36.625 -1.421875 
Q 22.796875 -1.421875 15.734375 5.859375 
Q 8.6875 13.140625 8.6875 27.390625 
z
" id="DejaVuSans-55"/>
      <path d="M 44.390625 34.1875 
Q 47.5625 33.109375 50.5625 29.59375 
Q 53.5625 26.078125 56.59375 19.921875 
L 66.609375 0 
L 56 0 
L 46.6875 18.703125 
Q 43.0625 26.03125 39.671875 28.421875 
Q 36.28125 30.8125 30.421875 30.8125 
L 19.671875 30.8125 
L 19.671875 0 
L 9.8125 0 
L 9.8125 72.90625 
L 32.078125 72.90625 
Q 44.578125 72.90625 50.734375 67.671875 
Q 56.890625 62.453125 56.890625 51.90625 
Q 56.890625 45.015625 53.6875 40.46875 
Q 50.484375 35.9375 44.390625 34.1875 
z
M 19.671875 64.796875 
L 19.671875 38.921875 
L 32.078125 38.921875 
Q 39.203125 38.921875 42.84375 42.21875 
Q 46.484375 45.515625 46.484375 51.90625 
Q 46.484375 58.296875 42.84375 61.546875 
Q 39.203125 64.796875 32.078125 64.796875 
z
" id="DejaVuSans-52"/>
     </defs>
     <g transform="translate(19.070312 169.268969)rotate(-90)scale(0.1 -0.1)">
      <use xlink:href="#DejaVuSans-45"/>
      <use x="63.183594" xlink:href="#DejaVuSans-55"/>
      <use x="136.376953" xlink:href="#DejaVuSans-52"/>
     </g>
    </g>
   </g>
   <g id="line2d_27">
    <path clip-path="url(#p9743509169)" d="M 73.832727 265.797818 
L 142.83916 265.693116 
L 142.83916 265.529706 
L 146.898362 265.381468 
L 146.898362 265.365235 
L 150.957563 265.225321 
L 150.957563 265.047704 
L 157.046366 264.908708 
L 157.046366 264.557422 
L 157.046366 264.557422 
L 159.075967 264.557422 
L 159.075967 264.452911 
L 159.075967 264.330475 
L 161.105568 264.330475 
L 161.105568 264.229931 
L 161.105568 263.65766 
L 163.135169 263.528104 
L 163.135169 263.427957 
L 165.16477 263.298304 
L 165.16477 263.298304 
L 165.16477 263.268927 
L 171.253573 263.159238 
L 171.253573 262.536667 
L 173.283174 262.411519 
L 173.283174 262.331358 
L 177.342376 262.181857 
L 177.342376 262.07653 
L 177.342376 262.07653 
L 185.46078 261.94038 
L 185.46078 261.777868 
L 185.46078 261.777868 
L 187.490381 261.644001 
L 187.490381 261.636491 
L 191.549582 261.582112 
L 191.549582 261.536057 
L 193.579183 261.416717 
L 193.579183 261.281519 
L 199.667986 261.18638 
L 199.667986 260.319976 
L 201.697587 260.213208 
L 201.697587 260.040862 
L 203.727188 259.919306 
L 203.727188 259.824831 
L 205.756789 259.739757 
L 205.756789 259.617426 
L 207.78639 259.497083 
L 207.78639 259.310937 
L 213.875193 259.194934 
L 213.875193 258.975692 
L 215.904794 258.975692 
L 215.904794 258.875714 
L 215.904794 258.772699 
L 217.934395 258.649109 
L 217.934395 258.233321 
L 217.934395 258.233321 
L 219.963996 258.108658 
L 219.963996 258.083206 
L 221.993597 257.977319 
L 221.993597 257.858579 
L 228.0824 257.748411 
L 228.0824 257.440604 
L 230.112001 257.354024 
L 230.112001 257.305825 
L 234.171202 257.175174 
L 234.171202 257.175174 
L 234.171202 257.109339 
L 242.289606 256.946034 
L 242.289606 256.839265 
L 246.348808 256.730923 
L 246.348808 256.730923 
L 246.348808 256.658979 
L 250.40801 256.639684 
L 250.40801 256.577894 
L 250.40801 256.515233 
L 256.496813 256.44074 
L 256.496813 256.237255 
L 260.556015 256.107642 
L 260.556015 255.690874 
L 262.585616 255.582207 
L 262.585616 255.26652 
L 264.615217 255.147133 
L 264.615217 255.072148 
L 270.70402 255.056209 
L 270.70402 254.963043 
L 270.70402 254.653436 
L 272.733621 254.537764 
L 272.733621 254.486876 
L 274.763222 254.382316 
L 274.763222 254.382316 
L 274.763222 254.282586 
L 276.792822 254.282586 
L 276.792822 254.206947 
L 276.792822 254.106512 
L 278.822423 254.106512 
L 278.822423 254.032432 
L 278.822423 253.912178 
L 284.911226 253.805049 
L 284.911226 253.024017 
L 288.970428 252.88898 
L 288.970428 252.766544 
L 291.000029 252.644963 
L 291.000029 251.95661 
L 301.148034 251.828572 
L 301.148034 251.828572 
L 301.148034 251.546552 
L 305.207236 251.448005 
L 305.207236 251.318832 
L 313.32564 251.186243 
L 313.32564 250.983032 
L 319.414442 250.777059 
L 319.414442 250.620695 
L 321.444043 250.520724 
L 321.444043 250.215502 
L 321.444043 250.215502 
L 327.532846 250.058506 
L 327.532846 249.601722 
L 329.562447 249.473899 
L 329.562447 249.421034 
L 331.592048 249.299673 
L 331.592048 249.189837 
L 335.65125 249.063897 
L 335.65125 248.868223 
L 341.740053 248.763774 
L 341.740053 248.763774 
L 341.740053 248.271767 
L 343.769654 248.161204 
L 343.769654 248.111269 
L 345.799255 247.99676 
L 345.799255 247.769921 
L 347.828856 247.638092 
L 347.828856 247.599234 
L 347.828856 247.599234 
L 355.94726 247.502902 
L 355.94726 246.888405 
L 360.006462 246.711822 
L 360.006462 246.679087 
L 362.036062 246.557918 
L 362.036062 246.495131 
L 362.036062 246.495131 
L 370.154466 246.317822 
L 370.154466 246.221198 
L 370.154466 246.221198 
L 378.27287 246.112895 
L 378.27287 246.054738 
L 384.361673 245.940372 
L 384.361673 245.557383 
L 386.391274 245.429654 
L 386.391274 245.176654 
L 388.420875 245.043017 
L 388.420875 245.033926 
L 390.450476 244.909267 
L 390.450476 244.795319 
L 392.480077 244.795319 
L 392.480077 244.68645 
L 392.480077 244.630921 
L 396.539279 244.606015 
L 396.539279 244.606015 
" style="fill:none;stroke:#0000ff;stroke-linecap:square;stroke-width:1.5;"/>
   </g>
   <g id="line2d_28">
    <path clip-path="url(#p9743509169)" d="M 73.832727 265.797818 
L 79.666303 265.536906 
L 79.99266 232.922872 
L 80.409668 233.053328 
L 80.488456 233.509925 
L 80.655264 233.575153 
L 80.761348 234.292661 
L 80.811336 234.814486 
L 80.93875 236.901784 
L 80.988738 237.097468 
L 81.790995 247.533959 
L 82.596187 249.947398 
L 82.622638 250.273538 
L 82.7419 250.338766 
L 82.842323 252.426064 
L 82.911081 252.621749 
L 83.127595 254.25245 
L 83.206101 255.165643 
L 83.363137 256.144064 
L 83.456747 256.731117 
L 83.561187 257.839994 
L 83.66605 257.905222 
L 83.766144 258.557503 
L 83.911881 259.209783 
L 84.101075 259.862064 
L 84.379065 260.514345 
L 84.851511 261.101397 
L 85.010755 262.666871 
L 85.384093 262.927783 
L 85.560321 263.580064 
L 85.610168 263.840976 
L 85.659193 264.167116 
L 85.822219 264.493257 
L 86.804085 264.884625 
L 86.854826 265.015081 
L 86.877823 264.688146 
L 86.893938 264.818602 
L 86.895347 134.362467 
L 87.002512 136.254081 
L 87.263259 145.973063 
L 87.373008 151.191308 
L 87.480478 207.352674 
L 87.486304 207.025007 
L 87.553018 207.546831 
L 87.622057 210.090726 
L 87.876791 228.289357 
L 87.974677 231.081305 
L 88.068381 232.972919 
L 88.438314 233.613639 
L 88.442049 234.238713 
L 88.570097 234.499625 
L 88.607917 237.108748 
L 88.65666 240.109239 
L 88.69246 240.091889 
L 88.811182 240.352801 
L 88.91534 243.483748 
L 88.993635 246.875608 
L 89.074561 250.071783 
L 89.115693 250.137011 
L 89.220391 252.615678 
L 89.55255 258.094835 
L 89.683793 257.441536 
L 89.814543 258.485185 
L 89.856051 258.550413 
L 89.980434 259.461899 
L 90.070193 259.788039 
L 90.101788 260.44032 
L 90.293613 260.570776 
L 90.949451 260.76646 
L 91.111091 261.483969 
L 91.17905 263.179898 
L 91.464909 263.310355 
L 91.466882 263.766951 
L 91.601414 263.832179 
L 91.868222 265.13674 
L 93.0573 265.201201 
L 93.204 265.396886 
L 93.234444 265.527342 
L 93.896131 265.72294 
L 94.826318 265.702368 
L 95.080864 265.045758 
L 95.112999 265.241442 
L 95.229208 265.566698 
L 95.251548 265.631927 
L 97.176873 265.69715 
L 101.65865 265.762379 
L 103.186301 265.10144 
L 103.210027 265.623264 
L 105.229268 265.75372 
L 107.873035 265.094554 
L 107.879471 265.159782 
L 107.898968 265.746835 
L 115.245795 265.681225 
L 115.245795 265.05803 
L 115.250705 265.710311 
L 115.69663 265.670579 
L 123.882757 265.734847 
L 131.883919 265.775145 
L 143.529506 265.664111 
L 143.529506 265.545945 
L 143.556802 265.741629 
L 143.59037 265.725102 
L 143.877944 265.770874 
L 145.746633 265.758587 
L 146.614711 265.081992 
L 147.533434 265.018709 
L 147.533434 264.676335 
L 147.599467 265.002476 
L 148.435855 265.131689 
L 148.435855 265.125971 
L 148.663809 265.517339 
L 149.605835 265.495826 
L 149.723218 265.764123 
L 149.745605 265.496237 
L 149.82397 265.691921 
L 151.83903 265.688929 
L 151.897522 265.754153 
L 152.417937 265.794509 
L 157.667321 265.6819 
L 157.703309 265.725905 
L 157.769905 265.657375 
L 158.03474 265.503467 
L 158.03474 265.495598 
L 158.102675 265.626054 
L 158.312259 265.564289 
L 158.36899 264.867724 
L 158.379889 264.932952 
L 158.462718 265.128636 
L 158.513176 265.259092 
L 159.721845 265.111884 
L 159.721845 265.049099 
L 159.732581 265.114327 
L 159.786915 265.114323 
L 160.390933 265.202229 
L 160.546653 265.391288 
L 160.546653 265.388675 
L 160.884567 265.357552 
L 161.767326 265.246699 
L 161.847993 264.642788 
L 161.875525 264.773245 
L 162.015342 264.852626 
L 162.048651 264.691343 
L 162.125255 265.278396 
L 162.176981 265.3386 
L 162.192203 265.469056 
L 162.525725 265.507738 
L 162.637142 265.159953 
L 162.689033 265.355637 
L 162.710997 265.420865 
L 164.529956 265.491312 
L 164.613489 265.595397 
L 164.937427 265.655391 
L 164.937427 265.628313 
L 164.979663 265.562869 
L 164.994016 265.628097 
L 165.859932 265.517712 
L 165.859932 265.507496 
L 165.96362 265.637953 
L 166.019293 265.69794 
L 166.10891 265.757063 
L 166.10891 265.736583 
L 166.533576 265.691188 
L 166.61974 265.526861 
L 166.663715 265.657317 
L 166.681192 265.722545 
L 166.740107 265.396405 
L 166.803955 265.592089 
L 168.327072 265.651966 
L 168.476026 265.716653 
L 168.476026 265.714936 
L 168.831324 265.780164 
L 171.928932 265.696747 
L 171.963393 265.157135 
L 172.004831 265.222363 
L 172.34702 265.603594 
L 172.492076 265.349645 
L 172.516953 265.480101 
L 172.624705 265.660433 
L 172.624705 265.613096 
L 173.223625 265.705029 
L 173.914136 265.615699 
L 173.914136 265.571327 
L 173.986511 265.701783 
L 176.375849 265.773923 
L 176.496803 237.991984 
L 176.582497 242.657569 
L 176.672537 251.264904 
L 176.794994 260.781287 
L 176.957174 260.828358 
L 176.982897 260.893586 
L 177.24395 261.08927 
L 178.317359 261.04797 
L 178.340756 259.415926 
L 178.378882 260.981399 
L 178.581255 261.046627 
L 178.692977 263.068697 
L 178.856425 263.547287 
L 180.074773 263.515959 
L 180.159457 262.847013 
L 180.169582 263.173153 
L 180.244024 263.563927 
L 180.244024 263.560955 
L 180.666881 263.675695 
L 180.845293 265.1722 
L 181.365472 265.204759 
L 182.444473 265.204177 
L 182.711868 265.660774 
L 187.025898 265.703095 
L 187.025898 265.282051 
L 187.089346 265.412507 
L 187.142764 265.272311 
L 187.150963 265.467995 
L 188.884134 265.379401 
L 188.884134 265.339071 
L 188.994282 265.404299 
L 189.105816 265.730439 
L 189.137035 265.691622 
L 190.28881 265.72708 
L 190.944508 265.414574 
L 192.944675 265.475557 
L 192.992901 265.606013 
L 194.223911 265.481148 
L 194.223911 265.342852 
L 194.313833 265.473308 
L 194.409088 265.640431 
L 195.0879 265.716079 
L 200.389129 265.777266 
L 200.389129 265.772893 
L 200.389129 264.95926 
L 200.579921 265.025943 
L 200.674988 265.390445 
L 200.820842 265.440776 
L 200.828594 265.571232 
L 200.899818 265.495841 
L 201.231672 265.545729 
L 201.231672 265.533279 
L 201.231672 264.872455 
L 201.332517 265.524735 
L 201.4538 265.589963 
L 202.366322 265.653855 
L 202.366322 265.560759 
L 202.366322 265.486326 
L 202.427093 265.616782 
L 204.32538 265.519839 
L 204.32538 265.461175 
L 204.549999 265.590653 
L 204.549999 265.574465 
L 204.833227 265.641365 
L 204.987397 265.706594 
L 208.430037 265.593495 
L 208.430037 265.409297 
L 208.537202 265.539753 
L 208.679039 265.719307 
L 208.679039 265.7094 
L 209.100862 265.635047 
L 209.100862 265.570108 
L 209.116343 265.635336 
L 209.427031 265.700564 
L 213.151913 265.762874 
L 213.151913 265.756409 
L 213.236456 265.68945 
L 213.28285 265.754678 
L 214.574536 265.643922 
L 214.574536 265.634951 
L 214.608645 265.765408 
L 214.673409 265.725465 
L 215.787739 265.65553 
L 215.830375 265.015284 
L 215.883981 265.47188 
L 216.538927 265.366839 
L 216.640007 265.089694 
L 216.711255 265.057448 
L 216.808835 265.403274 
L 216.950344 265.53373 
L 218.659132 265.423985 
L 218.732305 265.043267 
L 218.764206 265.173723 
L 218.8534 265.565092 
L 219.38967 265.46318 
L 219.38967 265.398289 
L 219.406137 265.463518 
L 219.918917 265.55145 
L 220.002403 265.616678 
L 220.651852 265.508167 
L 220.651852 265.492791 
L 220.702052 265.558019 
L 220.920375 265.606526 
L 222.871892 265.663597 
L 223.018569 265.728826 
L 223.437832 265.676123 
L 223.437832 265.507268 
L 223.470789 265.637725 
L 225.236706 265.605039 
L 226.000062 265.733963 
L 226.000062 265.733332 
L 228.822781 265.625098 
L 228.822781 265.438325 
L 228.827761 265.503553 
L 229.29915 265.632786 
L 229.29915 265.555535 
L 229.29915 265.439076 
L 229.322899 265.634761 
L 230.903944 265.678419 
L 230.946345 265.743647 
L 252.038433 265.763079 
L 252.207331 265.110798 
L 252.207331 264.032272 
L 252.239396 265.79343 
L 257.288052 265.699358 
L 257.288052 265.65212 
L 257.317791 265.717348 
L 257.376988 265.689892 
L 257.460498 265.744388 
L 257.460498 265.723305 
L 258.043632 265.636657 
L 259.299729 265.629695 
L 259.486528 265.282754 
L 259.502361 265.347982 
L 259.524559 265.674122 
L 259.571564 265.657838 
L 259.914341 265.533636 
L 259.990005 261.184044 
L 259.9932 263.843348 
L 260.083076 264.365172 
L 260.550612 264.321068 
L 260.550612 264.977587 
L 260.682841 265.042815 
L 261.189631 264.937201 
L 261.271026 264.555233 
L 262.136473 264.609523 
L 262.177793 264.674751 
L 262.17885 264.672432 
L 263.205184 264.559364 
L 263.205184 264.321863 
L 263.870936 264.181415 
L 263.923579 264.507555 
L 264.048408 265.681465 
L 264.048408 265.678227 
L 264.135395 265.778283 
L 264.382564 264.542955 
L 264.411669 265.195236 
L 265.238614 265.086957 
L 265.238614 265.049867 
L 265.299033 265.115095 
L 265.311412 265.11226 
L 266.249797 265.069342 
L 266.380782 265.721623 
L 271.394389 265.602698 
L 271.431387 265.427251 
L 271.532233 265.534005 
L 271.595353 265.664137 
L 271.643579 265.625935 
L 272.26794 265.58013 
L 272.431506 265.699663 
L 272.431506 265.681157 
L 273.541585 265.60501 
L 273.618094 265.555781 
L 273.637968 265.621009 
L 273.701956 265.685222 
L 273.701956 265.684293 
L 274.214078 265.666632 
L 274.23475 265.73186 
L 274.447999 265.729982 
L 275.460004 265.620941 
L 275.485421 265.526226 
L 275.542457 265.670782 
L 275.810486 265.725656 
L 276.067005 265.786002 
L 279.471121 265.645326 
L 279.538938 265.570239 
L 279.555828 265.700696 
L 279.70678 265.75223 
L 279.70678 265.741429 
L 283.680381 265.728812 
L 283.766052 265.787711 
L 283.766052 265.776115 
L 285.61367 265.668794 
L 285.692364 265.406357 
L 285.704955 265.471585 
L 285.736292 265.343303 
L 285.789992 265.685992 
L 285.819379 265.602506 
L 285.976391 265.732962 
L 286.463801 265.619665 
L 286.463801 265.08795 
L 286.561264 265.341104 
L 286.709725 265.389149 
L 286.709725 265.385909 
L 286.876697 265.380941 
L 287.008316 265.641853 
L 291.657159 265.616524 
L 291.715088 264.997146 
L 291.728712 265.192831 
L 292.141938 265.617053 
L 292.141938 265.598617 
L 292.915559 265.589652 
L 296.161793 265.794532 
L 301.774955 265.683369 
L 301.774955 265.629978 
L 301.806503 265.695206 
L 308.898079 265.787065 
L 314.365787 265.731861 
L 314.365787 265.634322 
L 314.452867 265.6824 
L 316.195129 265.728343 
L 316.818456 265.789011 
L 316.818456 265.749318 
L 320.061495 265.630619 
L 320.120222 265.578309 
L 320.30836 265.725307 
L 321.050926 265.663298 
L 321.091753 265.602457 
L 321.104649 265.667685 
L 322.104157 265.545824 
L 322.104157 265.293852 
L 322.193915 265.554764 
L 322.327812 265.596116 
L 322.414658 265.659848 
L 322.414658 265.659103 
L 326.304867 265.710806 
L 326.640127 265.775655 
L 326.640127 265.772479 
L 328.182084 265.645845 
L 328.182084 265.379856 
L 328.682037 265.521481 
L 330.181029 265.394498 
L 330.252746 265.359457 
L 330.432404 265.418417 
L 330.432404 265.417734 
L 330.761744 265.655046 
L 330.761744 265.651808 
L 332.214365 265.527316 
L 332.291133 265.458097 
L 332.315845 265.523325 
L 334.741265 265.577291 
L 335.08174 265.576501 
L 335.08174 265.571149 
L 336.306877 265.45941 
L 336.358956 265.412091 
L 336.457688 265.461997 
L 336.526234 265.586276 
L 336.526234 265.555816 
L 337.452568 265.638956 
L 340.3284 265.766636 
L 340.3284 265.765309 
L 342.433852 265.652821 
L 342.488445 265.128063 
L 342.525513 265.193291 
L 342.578978 265.387689 
L 342.666082 265.346815 
L 342.820815 265.39885 
L 343.115061 265.568574 
L 343.196033 265.555252 
L 344.643745 265.593246 
L 344.802942 265.65121 
L 344.802942 265.580894 
L 344.855467 265.708733 
L 344.974729 265.771807 
L 344.974729 265.766658 
L 346.447858 265.60892 
L 346.447858 265.462171 
L 346.541891 265.592627 
L 346.617414 265.653565 
L 346.617414 265.605637 
L 349.484014 265.631713 
L 349.608562 265.695535 
L 349.608562 265.694603 
L 356.605189 265.57489 
L 356.605189 265.174116 
L 356.684658 265.239344 
L 356.727552 265.210494 
L 356.738076 265.275722 
L 356.848482 265.597778 
L 358.787949 265.579475 
L 358.787949 265.418324 
L 358.820085 265.679236 
L 358.866761 265.615039 
L 360.984452 265.643351 
L 361.068972 265.707296 
L 361.068972 265.687916 
L 361.656734 265.655351 
L 365.600573 265.569114 
L 367.290967 265.554731 
L 367.72113 265.750416 
L 370.810046 265.640858 
L 370.810046 265.624478 
L 370.897643 265.754934 
L 371.218174 265.738032 
L 371.338964 259.232837 
L 371.384912 261.81832 
L 371.425692 261.49218 
L 371.453599 261.81832 
L 371.654915 261.789981 
L 374.995229 261.872179 
L 375.41576 265.785863 
L 375.459947 261.872179 
L 377.112967 261.842992 
L 377.495726 262.625729 
L 377.527884 265.756676 
L 385.050939 265.687243 
L 385.050939 265.362234 
L 385.221129 265.459194 
L 385.258926 265.520558 
L 385.33614 265.501099 
L 385.850493 265.551016 
L 386.095784 265.694995 
L 386.095784 265.694215 
L 387.047347 265.598214 
L 387.047347 265.475271 
L 387.126135 265.670955 
L 387.219464 265.722785 
L 387.2905 265.783399 
L 387.2905 265.740455 
L 387.621414 265.628746 
L 387.621414 265.624087 
L 387.637059 265.689315 
L 389.071287 265.54678 
L 389.071287 265.525082 
L 390.532012 265.597442 
L 392.100584 265.659001 
L 392.270868 265.724034 
L 392.270868 265.720796 
L 398.487273 265.792506 
L 398.487273 265.792506 
" style="fill:none;stroke:#ff0000;stroke-linecap:square;stroke-width:1.5;"/>
   </g>
   <g id="line2d_29">
    <path clip-path="url(#p9743509169)" d="M 73.832727 265.797818 
L 77.891929 265.73259 
L 77.891929 265.471678 
L 79.92153 265.341222 
L 79.92153 250.925819 
L 81.301894 250.599678 
L 81.951131 250.273538 
L 81.951131 239.706591 
L 83.980732 239.576135 
L 83.980732 234.553574 
L 86.010333 234.162205 
L 86.010333 200.439294 
L 86.010333 201.548172 
L 87.37228 200.895891 
L 87.418463 148.713437 
L 87.867136 148.061156 
L 87.877824 135.680682 
L 88.039934 135.028402 
L 88.039934 112.720402 
L 88.039934 113.705416 
L 88.438314 113.064695 
L 88.442049 112.439622 
L 88.607048 111.787341 
L 88.610125 109.178218 
L 90.069535 108.525938 
L 90.069535 104.155657 
L 92.099136 103.242464 
L 92.099136 102.916324 
L 92.099136 102.917177 
L 94.128737 102.786721 
L 94.128737 102.003984 
L 94.128737 102.988115 
L 100.21754 102.857659 
L 102.247141 102.466291 
L 102.247141 102.335835 
L 102.247141 102.988115 
L 106.306343 102.792431 
L 106.306343 102.205378 
L 106.306343 102.857659 
L 114.424746 102.205378 
L 114.424746 102.270606 
L 114.424746 102.922887 
L 130.661554 102.727203 
L 130.661554 102.805501 
L 142.83916 102.746226 
L 142.83916 102.550542 
L 142.83916 102.616937 
L 144.868761 102.551709 
L 144.868761 102.562999 
L 144.868761 103.22044 
L 146.898362 103.155212 
L 146.898362 102.111563 
L 146.898362 102.445089 
L 148.927962 102.314633 
L 148.927962 101.988492 
L 148.927962 102.417192 
L 150.957563 102.286736 
L 150.957563 101.960595 
L 150.957563 102.1113 
L 157.046366 101.926882 
L 157.046366 101.274602 
L 157.046366 102.193094 
L 159.075967 102.062638 
L 159.075967 101.67127 
L 159.075967 101.831028 
L 161.105568 101.700572 
L 161.105568 100.330782 
L 161.105568 101.0949 
L 163.135169 100.964444 
L 163.135169 100.507848 
L 163.135169 100.657966 
L 165.16477 100.52751 
L 165.16477 100.005685 
L 165.16477 100.540294 
L 167.194371 100.409837 
L 167.194371 100.344609 
L 167.194371 100.345151 
L 171.253573 100.159286 
L 171.253573 99.311321 
L 171.253573 99.689743 
L 173.283174 99.559287 
L 173.283174 99.363603 
L 173.283174 99.453791 
L 175.312775 99.323335 
L 175.312775 89.734809 
L 175.312775 89.772343 
L 176.645006 89.120063 
L 176.676014 76.270133 
L 177.342376 76.139677 
L 177.342376 71.965081 
L 177.342376 73.670637 
L 179.371977 73.344497 
L 179.371977 71.648567 
L 179.371977 72.329257 
L 180.732397 71.937888 
L 181.401578 71.481292 
L 181.401578 71.481292 
L 183.431179 71.487598 
L 185.46078 71.291914 
L 185.46078 70.900546 
L 185.46078 71.516496 
L 187.490381 71.190356 
L 187.490381 71.125128 
L 187.490381 71.151492 
L 189.519982 71.021035 
L 189.519982 71.40429 
L 191.549582 71.273833 
L 191.549582 70.947693 
L 191.549582 71.104182 
L 193.579183 70.973726 
L 193.579183 70.647586 
L 193.579183 70.772062 
L 199.667986 70.511777 
L 199.667986 69.141987 
L 199.667986 69.936635 
L 201.697587 69.806179 
L 201.697587 69.610495 
L 201.697587 69.656439 
L 203.727188 69.460755 
L 203.727188 69.26507 
L 203.727188 69.285317 
L 207.78639 69.052404 
L 207.78639 68.726264 
L 207.78639 68.816996 
L 213.875193 68.559002 
L 213.875193 67.906722 
L 213.875193 68.710435 
L 215.904794 68.579978 
L 215.904794 67.992926 
L 215.904794 68.342369 
L 217.934395 68.211913 
L 217.934395 67.62486 
L 217.934395 67.888494 
L 219.963996 67.758037 
L 219.963996 67.562353 
L 219.963996 67.62924 
L 221.993597 67.498784 
L 221.993597 67.237872 
L 221.993597 67.399643 
L 228.0824 67.156218 
L 228.0824 66.895306 
L 228.0824 67.015774 
L 230.112001 66.885318 
L 230.112001 66.754862 
L 230.112001 66.772682 
L 236.200803 66.517232 
L 236.200803 66.452004 
L 236.200803 66.476498 
L 244.319207 66.151336 
L 244.319207 66.086108 
L 244.319207 66.167517 
L 250.40801 65.991592 
L 250.40801 64.230434 
L 250.40801 65.928426 
L 256.496813 65.863198 
L 256.496813 65.732742 
L 256.496813 65.80722 
L 258.526414 65.676764 
L 258.526414 64.763571 
L 258.526414 65.216632 
L 259.914341 65.340834 
L 259.990005 69.756414 
L 259.990616 67.147291 
L 260.556015 66.413141 
L 260.556015 66.282685 
L 260.556015 66.383531 
L 262.585616 65.992162 
L 262.585616 64.03532 
L 262.585616 65.433412 
L 264.615217 65.302955 
L 264.615217 64.650675 
L 264.615217 64.712653 
L 268.674419 64.658635 
L 270.70402 64.528179 
L 270.70402 64.202038 
L 270.70402 64.311729 
L 272.733621 64.181273 
L 272.733621 63.920361 
L 272.733621 64.119022 
L 274.763222 63.988566 
L 274.763222 63.792881 
L 274.763222 63.876957 
L 276.792822 63.746501 
L 276.792822 63.681273 
L 276.792822 63.736037 
L 278.822423 63.605581 
L 278.822423 63.409897 
L 278.822423 63.498941 
L 282.881625 63.466187 
L 284.911226 63.074819 
L 284.911226 62.226854 
L 284.911226 62.744291 
L 286.940827 62.613835 
L 286.940827 62.548607 
L 286.940827 62.661998 
L 288.970428 62.531542 
L 288.970428 62.335858 
L 288.970428 62.445095 
L 291.000029 62.184182 
L 291.000029 61.531902 
L 291.000029 61.794313 
L 293.02963 61.663857 
L 293.02963 61.598629 
L 293.02963 61.603063 
L 299.118433 61.473312 
L 299.118433 61.513355 
L 299.118433 61.518574 
L 299.118433 61.518574 
L 301.148034 61.388118 
L 301.148034 61.257661 
L 301.148034 61.316073 
L 303.177635 61.185617 
L 303.177635 61.120389 
L 303.177635 61.140113 
L 305.207236 61.009657 
L 305.207236 60.879201 
L 305.207236 61.026712 
L 307.236837 60.896256 
L 307.236837 60.831028 
L 307.236837 60.863682 
L 313.32564 60.801442 
L 313.32564 60.670986 
L 313.32564 60.702149 
L 319.414442 60.396406 
L 319.414442 60.200722 
L 319.414442 60.394487 
L 321.444043 60.264031 
L 321.444043 59.937891 
L 321.444043 60.030965 
L 325.503245 59.83783 
L 325.503245 59.772602 
L 325.503245 59.780037 
L 327.532846 59.649581 
L 327.532846 59.388668 
L 327.532846 59.511407 
L 329.562447 59.380951 
L 329.562447 59.185266 
L 329.562447 59.225846 
L 331.592048 59.09539 
L 331.592048 58.964934 
L 331.592048 59.05881 
L 333.621649 58.928354 
L 333.621649 58.863126 
L 333.621649 58.968756 
L 335.65125 58.8383 
L 335.65125 58.577388 
L 335.65125 58.656622 
L 341.740053 58.397831 
L 341.740053 57.810778 
L 341.740053 58.158055 
L 343.769654 58.027599 
L 343.769654 57.701459 
L 343.769654 57.843444 
L 345.799255 57.712988 
L 345.799255 57.452076 
L 345.799255 57.593693 
L 347.828856 57.463237 
L 347.828856 57.202325 
L 347.828856 57.397215 
L 349.858457 57.266759 
L 349.858457 57.136303 
L 349.858457 57.219671 
L 355.94726 57.154895 
L 355.94726 56.63307 
L 355.94726 56.824801 
L 357.976861 56.694345 
L 357.976861 56.498661 
L 357.976861 56.746139 
L 360.006462 56.615683 
L 360.006462 56.419998 
L 360.006462 56.582729 
L 362.036062 56.452273 
L 362.036062 56.191361 
L 362.036062 56.353298 
L 366.095264 56.173087 
L 366.095264 56.107859 
L 366.095264 56.172901 
L 370.154466 56.042445 
L 370.154466 53.368094 
L 370.154466 53.809974 
L 372.184067 53.679517 
L 372.184067 53.614289 
L 372.184067 53.637954 
L 374.213668 53.651537 
L 374.213668 57.565221 
L 376.243269 57.499993 
L 376.243269 53.586309 
L 376.243269 53.649344 
L 380.302471 53.586665 
L 384.361673 53.456209 
L 384.361673 52.999612 
L 384.361673 53.189597 
L 386.391274 53.05914 
L 386.391274 52.798228 
L 386.40208 52.856454 
L 390.450476 52.654113 
L 390.450476 52.262745 
L 390.450476 52.357381 
L 392.480077 52.226925 
L 392.480077 52.161697 
L 392.480077 52.21941 
L 396.539279 52.161595 
L 396.539279 52.161595 
L 396.539279 52.226823 
L 396.539279 52.226823 
" style="fill:none;stroke:#008000;stroke-linecap:square;stroke-width:1.5;"/>
   </g>
   <g id="line2d_30">
    <defs>
     <path d="M 0 3 
C 0.795609 3 1.55874 2.683901 2.12132 2.12132 
C 2.683901 1.55874 3 0.795609 3 0 
C 3 -0.795609 2.683901 -1.55874 2.12132 -2.12132 
C 1.55874 -2.683901 0.795609 -3 0 -3 
C -0.795609 -3 -1.55874 -2.683901 -2.12132 -2.12132 
C -2.683901 -1.55874 -3 -0.795609 -3 0 
C -3 0.795609 -2.683901 1.55874 -2.12132 2.12132 
C -1.55874 2.683901 -0.795609 3 0 3 
z
" id="m1cee955aa3" style="stroke:#bfbf00;"/>
    </defs>
    <g clip-path="url(#p9743509169)">
     <use style="fill:#bfbf00;stroke:#bfbf00;" x="79.99266" xlink:href="#m1cee955aa3" y="233.183784"/>
     <use style="fill:#bfbf00;stroke:#bfbf00;" x="86.895347" xlink:href="#m1cee955aa3" y="135.341683"/>
    </g>
   </g>
   <g id="line2d_31">
    <defs>
     <path d="M 0 3 
C 0.795609 3 1.55874 2.683901 2.12132 2.12132 
C 2.683901 1.55874 3 0.795609 3 0 
C 3 -0.795609 2.683901 -1.55874 2.12132 -2.12132 
C 1.55874 -2.683901 0.795609 -3 0 -3 
C -0.795609 -3 -1.55874 -2.683901 -2.12132 -2.12132 
C -2.683901 -1.55874 -3 -0.795609 -3 0 
C -3 0.795609 -2.683901 1.55874 -2.12132 2.12132 
C -1.55874 2.683901 -0.795609 3 0 3 
z
" id="m1b2f89cce3" style="stroke:#008000;"/>
    </defs>
    <g clip-path="url(#p9743509169)">
     <use style="fill:#008000;stroke:#008000;" x="176.496803" xlink:href="#m1b2f89cce3" y="238.01588"/>
     <use style="fill:#008000;stroke:#008000;" x="371.338964" xlink:href="#m1b2f89cce3" y="259.292623"/>
    </g>
   </g>
   <g id="patch_3">
    <path d="M 57.6 276.48 
L 57.6 41.472 
" style="fill:none;stroke:#000000;stroke-linecap:square;stroke-linejoin:miter;stroke-width:0.8;"/>
   </g>
   <g id="patch_4">
    <path d="M 414.72 276.48 
L 414.72 41.472 
" style="fill:none;stroke:#000000;stroke-linecap:square;stroke-linejoin:miter;stroke-width:0.8;"/>
   </g>
   <g id="patch_5">
    <path d="M 57.6 276.48 
L 414.72 276.48 
" style="fill:none;stroke:#000000;stroke-linecap:square;stroke-linejoin:miter;stroke-width:0.8;"/>
   </g>
   <g id="patch_6">
    <path d="M 57.6 41.472 
L 414.72 41.472 
" style="fill:none;stroke:#000000;stroke-linecap:square;stroke-linejoin:miter;stroke-width:0.8;"/>
   </g>
   <g id="text_16">
    <!-- My Bondora earnings -->
    <defs>
     <path d="M 9.8125 72.90625 
L 24.515625 72.90625 
L 43.109375 23.296875 
L 61.8125 72.90625 
L 76.515625 72.90625 
L 76.515625 0 
L 66.890625 0 
L 66.890625 64.015625 
L 48.09375 14.015625 
L 38.1875 14.015625 
L 19.390625 64.015625 
L 19.390625 0 
L 9.8125 0 
z
" id="DejaVuSans-4d"/>
     <path d="M 32.171875 -5.078125 
Q 28.375 -14.84375 24.75 -17.8125 
Q 21.140625 -20.796875 15.09375 -20.796875 
L 7.90625 -20.796875 
L 7.90625 -13.28125 
L 13.1875 -13.28125 
Q 16.890625 -13.28125 18.9375 -11.515625 
Q 21 -9.765625 23.484375 -3.21875 
L 25.09375 0.875 
L 2.984375 54.6875 
L 12.5 54.6875 
L 29.59375 11.921875 
L 46.6875 54.6875 
L 56.203125 54.6875 
z
" id="DejaVuSans-79"/>
     <path id="DejaVuSans-20"/>
     <path d="M 19.671875 34.8125 
L 19.671875 8.109375 
L 35.5 8.109375 
Q 43.453125 8.109375 47.28125 11.40625 
Q 51.125 14.703125 51.125 21.484375 
Q 51.125 28.328125 47.28125 31.5625 
Q 43.453125 34.8125 35.5 34.8125 
z
M 19.671875 64.796875 
L 19.671875 42.828125 
L 34.28125 42.828125 
Q 41.5 42.828125 45.03125 45.53125 
Q 48.578125 48.25 48.578125 53.8125 
Q 48.578125 59.328125 45.03125 62.0625 
Q 41.5 64.796875 34.28125 64.796875 
z
M 9.8125 72.90625 
L 35.015625 72.90625 
Q 46.296875 72.90625 52.390625 68.21875 
Q 58.5 63.53125 58.5 54.890625 
Q 58.5 48.1875 55.375 44.234375 
Q 52.25 40.28125 46.1875 39.3125 
Q 53.46875 37.75 57.5 32.78125 
Q 61.53125 27.828125 61.53125 20.40625 
Q 61.53125 10.640625 54.890625 5.3125 
Q 48.25 0 35.984375 0 
L 9.8125 0 
z
" id="DejaVuSans-42"/>
     <path d="M 30.609375 48.390625 
Q 23.390625 48.390625 19.1875 42.75 
Q 14.984375 37.109375 14.984375 27.296875 
Q 14.984375 17.484375 19.15625 11.84375 
Q 23.34375 6.203125 30.609375 6.203125 
Q 37.796875 6.203125 41.984375 11.859375 
Q 46.1875 17.53125 46.1875 27.296875 
Q 46.1875 37.015625 41.984375 42.703125 
Q 37.796875 48.390625 30.609375 48.390625 
z
M 30.609375 56 
Q 42.328125 56 49.015625 48.375 
Q 55.71875 40.765625 55.71875 27.296875 
Q 55.71875 13.875 49.015625 6.21875 
Q 42.328125 -1.421875 30.609375 -1.421875 
Q 18.84375 -1.421875 12.171875 6.21875 
Q 5.515625 13.875 5.515625 27.296875 
Q 5.515625 40.765625 12.171875 48.375 
Q 18.84375 56 30.609375 56 
z
" id="DejaVuSans-6f"/>
     <path d="M 54.890625 33.015625 
L 54.890625 0 
L 45.90625 0 
L 45.90625 32.71875 
Q 45.90625 40.484375 42.875 44.328125 
Q 39.84375 48.1875 33.796875 48.1875 
Q 26.515625 48.1875 22.3125 43.546875 
Q 18.109375 38.921875 18.109375 30.90625 
L 18.109375 0 
L 9.078125 0 
L 9.078125 54.6875 
L 18.109375 54.6875 
L 18.109375 46.1875 
Q 21.34375 51.125 25.703125 53.5625 
Q 30.078125 56 35.796875 56 
Q 45.21875 56 50.046875 50.171875 
Q 54.890625 44.34375 54.890625 33.015625 
z
" id="DejaVuSans-6e"/>
     <path d="M 41.109375 46.296875 
Q 39.59375 47.171875 37.8125 47.578125 
Q 36.03125 48 33.890625 48 
Q 26.265625 48 22.1875 43.046875 
Q 18.109375 38.09375 18.109375 28.8125 
L 18.109375 0 
L 9.078125 0 
L 9.078125 54.6875 
L 18.109375 54.6875 
L 18.109375 46.1875 
Q 20.953125 51.171875 25.484375 53.578125 
Q 30.03125 56 36.53125 56 
Q 37.453125 56 38.578125 55.875 
Q 39.703125 55.765625 41.0625 55.515625 
z
" id="DejaVuSans-72"/>
     <path d="M 9.421875 54.6875 
L 18.40625 54.6875 
L 18.40625 0 
L 9.421875 0 
z
M 9.421875 75.984375 
L 18.40625 75.984375 
L 18.40625 64.59375 
L 9.421875 64.59375 
z
" id="DejaVuSans-69"/>
     <path d="M 45.40625 27.984375 
Q 45.40625 37.75 41.375 43.109375 
Q 37.359375 48.484375 30.078125 48.484375 
Q 22.859375 48.484375 18.828125 43.109375 
Q 14.796875 37.75 14.796875 27.984375 
Q 14.796875 18.265625 18.828125 12.890625 
Q 22.859375 7.515625 30.078125 7.515625 
Q 37.359375 7.515625 41.375 12.890625 
Q 45.40625 18.265625 45.40625 27.984375 
z
M 54.390625 6.78125 
Q 54.390625 -7.171875 48.1875 -13.984375 
Q 42 -20.796875 29.203125 -20.796875 
Q 24.46875 -20.796875 20.265625 -20.09375 
Q 16.0625 -19.390625 12.109375 -17.921875 
L 12.109375 -9.1875 
Q 16.0625 -11.328125 19.921875 -12.34375 
Q 23.78125 -13.375 27.78125 -13.375 
Q 36.625 -13.375 41.015625 -8.765625 
Q 45.40625 -4.15625 45.40625 5.171875 
L 45.40625 9.625 
Q 42.625 4.78125 38.28125 2.390625 
Q 33.9375 0 27.875 0 
Q 17.828125 0 11.671875 7.65625 
Q 5.515625 15.328125 5.515625 27.984375 
Q 5.515625 40.671875 11.671875 48.328125 
Q 17.828125 56 27.875 56 
Q 33.9375 56 38.28125 53.609375 
Q 42.625 51.21875 45.40625 46.390625 
L 45.40625 54.6875 
L 54.390625 54.6875 
z
" id="DejaVuSans-67"/>
     <path d="M 44.28125 53.078125 
L 44.28125 44.578125 
Q 40.484375 46.53125 36.375 47.5 
Q 32.28125 48.484375 27.875 48.484375 
Q 21.1875 48.484375 17.84375 46.4375 
Q 14.5 44.390625 14.5 40.28125 
Q 14.5 37.15625 16.890625 35.375 
Q 19.28125 33.59375 26.515625 31.984375 
L 29.59375 31.296875 
Q 39.15625 29.25 43.1875 25.515625 
Q 47.21875 21.78125 47.21875 15.09375 
Q 47.21875 7.46875 41.1875 3.015625 
Q 35.15625 -1.421875 24.609375 -1.421875 
Q 20.21875 -1.421875 15.453125 -0.5625 
Q 10.6875 0.296875 5.421875 2 
L 5.421875 11.28125 
Q 10.40625 8.6875 15.234375 7.390625 
Q 20.0625 6.109375 24.8125 6.109375 
Q 31.15625 6.109375 34.5625 8.28125 
Q 37.984375 10.453125 37.984375 14.40625 
Q 37.984375 18.0625 35.515625 20.015625 
Q 33.0625 21.96875 24.703125 23.78125 
L 21.578125 24.515625 
Q 13.234375 26.265625 9.515625 29.90625 
Q 5.8125 33.546875 5.8125 39.890625 
Q 5.8125 47.609375 11.28125 51.796875 
Q 16.75 56 26.8125 56 
Q 31.78125 56 36.171875 55.265625 
Q 40.578125 54.546875 44.28125 53.078125 
z
" id="DejaVuSans-73"/>
    </defs>
    <g transform="translate(172.363125 35.472)scale(0.12 -0.12)">
     <use xlink:href="#DejaVuSans-4d"/>
     <use x="86.279297" xlink:href="#DejaVuSans-79"/>
     <use x="145.458984" xlink:href="#DejaVuSans-20"/>
     <use x="177.246094" xlink:href="#DejaVuSans-42"/>
     <use x="245.849609" xlink:href="#DejaVuSans-6f"/>
     <use x="307.03125" xlink:href="#DejaVuSans-6e"/>
     <use x="370.410156" xlink:href="#DejaVuSans-64"/>
     <use x="433.886719" xlink:href="#DejaVuSans-6f"/>
     <use x="495.068359" xlink:href="#DejaVuSans-72"/>
     <use x="536.181641" xlink:href="#DejaVuSans-61"/>
     <use x="597.460938" xlink:href="#DejaVuSans-20"/>
     <use x="629.248047" xlink:href="#DejaVuSans-65"/>
     <use x="690.771484" xlink:href="#DejaVuSans-61"/>
     <use x="752.050781" xlink:href="#DejaVuSans-72"/>
     <use x="793.148438" xlink:href="#DejaVuSans-6e"/>
     <use x="856.527344" xlink:href="#DejaVuSans-69"/>
     <use x="884.310547" xlink:href="#DejaVuSans-6e"/>
     <use x="947.689453" xlink:href="#DejaVuSans-67"/>
     <use x="1011.166016" xlink:href="#DejaVuSans-73"/>
    </g>
   </g>
   <g id="legend_1">
    <g id="patch_7">
     <path d="M 313.87 197.171312 
L 407.72 197.171312 
Q 409.72 197.171312 409.72 195.171312 
L 409.72 122.780687 
Q 409.72 120.780687 407.72 120.780687 
L 313.87 120.780687 
Q 311.87 120.780687 311.87 122.780687 
L 311.87 195.171312 
Q 311.87 197.171312 313.87 197.171312 
z
" style="fill:#ffffff;opacity:0.8;stroke:#cccccc;stroke-linejoin:miter;"/>
    </g>
    <g id="line2d_32">
     <path d="M 315.87 128.879125 
L 335.87 128.879125 
" style="fill:none;stroke:#0000ff;stroke-linecap:square;stroke-width:1.5;"/>
    </g>
    <g id="line2d_33"/>
    <g id="text_17">
     <!-- Interest -->
     <defs>
      <path d="M 9.8125 72.90625 
L 19.671875 72.90625 
L 19.671875 0 
L 9.8125 0 
z
" id="DejaVuSans-49"/>
     </defs>
     <g transform="translate(343.87 132.379125)scale(0.1 -0.1)">
      <use xlink:href="#DejaVuSans-49"/>
      <use x="29.492188" xlink:href="#DejaVuSans-6e"/>
      <use x="92.871094" xlink:href="#DejaVuSans-74"/>
      <use x="132.080078" xlink:href="#DejaVuSans-65"/>
      <use x="193.603516" xlink:href="#DejaVuSans-72"/>
      <use x="234.685547" xlink:href="#DejaVuSans-65"/>
      <use x="296.208984" xlink:href="#DejaVuSans-73"/>
      <use x="348.308594" xlink:href="#DejaVuSans-74"/>
     </g>
    </g>
    <g id="line2d_34">
     <path d="M 315.87 143.55725 
L 335.87 143.55725 
" style="fill:none;stroke:#ff0000;stroke-linecap:square;stroke-width:1.5;"/>
    </g>
    <g id="line2d_35"/>
    <g id="text_18">
     <!-- Balance -->
     <defs>
      <path d="M 9.421875 75.984375 
L 18.40625 75.984375 
L 18.40625 0 
L 9.421875 0 
z
" id="DejaVuSans-6c"/>
      <path d="M 48.78125 52.59375 
L 48.78125 44.1875 
Q 44.96875 46.296875 41.140625 47.34375 
Q 37.3125 48.390625 33.40625 48.390625 
Q 24.65625 48.390625 19.8125 42.84375 
Q 14.984375 37.3125 14.984375 27.296875 
Q 14.984375 17.28125 19.8125 11.734375 
Q 24.65625 6.203125 33.40625 6.203125 
Q 37.3125 6.203125 41.140625 7.25 
Q 44.96875 8.296875 48.78125 10.40625 
L 48.78125 2.09375 
Q 45.015625 0.34375 40.984375 -0.53125 
Q 36.96875 -1.421875 32.421875 -1.421875 
Q 20.0625 -1.421875 12.78125 6.34375 
Q 5.515625 14.109375 5.515625 27.296875 
Q 5.515625 40.671875 12.859375 48.328125 
Q 20.21875 56 33.015625 56 
Q 37.15625 56 41.109375 55.140625 
Q 45.0625 54.296875 48.78125 52.59375 
z
" id="DejaVuSans-63"/>
     </defs>
     <g transform="translate(343.87 147.05725)scale(0.1 -0.1)">
      <use xlink:href="#DejaVuSans-42"/>
      <use x="68.603516" xlink:href="#DejaVuSans-61"/>
      <use x="129.882812" xlink:href="#DejaVuSans-6c"/>
      <use x="157.666016" xlink:href="#DejaVuSans-61"/>
      <use x="218.945312" xlink:href="#DejaVuSans-6e"/>
      <use x="282.324219" xlink:href="#DejaVuSans-63"/>
      <use x="337.304688" xlink:href="#DejaVuSans-65"/>
     </g>
    </g>
    <g id="line2d_36">
     <path d="M 315.87 158.235375 
L 335.87 158.235375 
" style="fill:none;stroke:#008000;stroke-linecap:square;stroke-width:1.5;"/>
    </g>
    <g id="line2d_37"/>
    <g id="text_19">
     <!-- Investments -->
     <defs>
      <path d="M 2.984375 54.6875 
L 12.5 54.6875 
L 29.59375 8.796875 
L 46.6875 54.6875 
L 56.203125 54.6875 
L 35.6875 0 
L 23.484375 0 
z
" id="DejaVuSans-76"/>
      <path d="M 52 44.1875 
Q 55.375 50.25 60.0625 53.125 
Q 64.75 56 71.09375 56 
Q 79.640625 56 84.28125 50.015625 
Q 88.921875 44.046875 88.921875 33.015625 
L 88.921875 0 
L 79.890625 0 
L 79.890625 32.71875 
Q 79.890625 40.578125 77.09375 44.375 
Q 74.3125 48.1875 68.609375 48.1875 
Q 61.625 48.1875 57.5625 43.546875 
Q 53.515625 38.921875 53.515625 30.90625 
L 53.515625 0 
L 44.484375 0 
L 44.484375 32.71875 
Q 44.484375 40.625 41.703125 44.40625 
Q 38.921875 48.1875 33.109375 48.1875 
Q 26.21875 48.1875 22.15625 43.53125 
Q 18.109375 38.875 18.109375 30.90625 
L 18.109375 0 
L 9.078125 0 
L 9.078125 54.6875 
L 18.109375 54.6875 
L 18.109375 46.1875 
Q 21.1875 51.21875 25.484375 53.609375 
Q 29.78125 56 35.6875 56 
Q 41.65625 56 45.828125 52.96875 
Q 50 49.953125 52 44.1875 
z
" id="DejaVuSans-6d"/>
     </defs>
     <g transform="translate(343.87 161.735375)scale(0.1 -0.1)">
      <use xlink:href="#DejaVuSans-49"/>
      <use x="29.492188" xlink:href="#DejaVuSans-6e"/>
      <use x="92.871094" xlink:href="#DejaVuSans-76"/>
      <use x="152.050781" xlink:href="#DejaVuSans-65"/>
      <use x="213.574219" xlink:href="#DejaVuSans-73"/>
      <use x="265.673828" xlink:href="#DejaVuSans-74"/>
      <use x="304.882812" xlink:href="#DejaVuSans-6d"/>
      <use x="402.294922" xlink:href="#DejaVuSans-65"/>
      <use x="463.818359" xlink:href="#DejaVuSans-6e"/>
      <use x="527.197266" xlink:href="#DejaVuSans-74"/>
      <use x="566.40625" xlink:href="#DejaVuSans-73"/>
     </g>
    </g>
    <g id="line2d_38"/>
    <g id="line2d_39">
     <g>
      <use style="fill:#bfbf00;stroke:#bfbf00;" x="325.87" xlink:href="#m1cee955aa3" y="172.9135"/>
     </g>
    </g>
    <g id="text_20">
     <!-- Deposits -->
     <defs>
      <path d="M 19.671875 64.796875 
L 19.671875 8.109375 
L 31.59375 8.109375 
Q 46.6875 8.109375 53.6875 14.9375 
Q 60.6875 21.78125 60.6875 36.53125 
Q 60.6875 51.171875 53.6875 57.984375 
Q 46.6875 64.796875 31.59375 64.796875 
z
M 9.8125 72.90625 
L 30.078125 72.90625 
Q 51.265625 72.90625 61.171875 64.09375 
Q 71.09375 55.28125 71.09375 36.53125 
Q 71.09375 17.671875 61.125 8.828125 
Q 51.171875 0 30.078125 0 
L 9.8125 0 
z
" id="DejaVuSans-44"/>
      <path d="M 18.109375 8.203125 
L 18.109375 -20.796875 
L 9.078125 -20.796875 
L 9.078125 54.6875 
L 18.109375 54.6875 
L 18.109375 46.390625 
Q 20.953125 51.265625 25.265625 53.625 
Q 29.59375 56 35.59375 56 
Q 45.5625 56 51.78125 48.09375 
Q 58.015625 40.1875 58.015625 27.296875 
Q 58.015625 14.40625 51.78125 6.484375 
Q 45.5625 -1.421875 35.59375 -1.421875 
Q 29.59375 -1.421875 25.265625 0.953125 
Q 20.953125 3.328125 18.109375 8.203125 
z
M 48.6875 27.296875 
Q 48.6875 37.203125 44.609375 42.84375 
Q 40.53125 48.484375 33.40625 48.484375 
Q 26.265625 48.484375 22.1875 42.84375 
Q 18.109375 37.203125 18.109375 27.296875 
Q 18.109375 17.390625 22.1875 11.75 
Q 26.265625 6.109375 33.40625 6.109375 
Q 40.53125 6.109375 44.609375 11.75 
Q 48.6875 17.390625 48.6875 27.296875 
z
" id="DejaVuSans-70"/>
     </defs>
     <g transform="translate(343.87 176.4135)scale(0.1 -0.1)">
      <use xlink:href="#DejaVuSans-44"/>
      <use x="77.001953" xlink:href="#DejaVuSans-65"/>
      <use x="138.525391" xlink:href="#DejaVuSans-70"/>
      <use x="202.001953" xlink:href="#DejaVuSans-6f"/>
      <use x="263.183594" xlink:href="#DejaVuSans-73"/>
      <use x="315.283203" xlink:href="#DejaVuSans-69"/>
      <use x="343.066406" xlink:href="#DejaVuSans-74"/>
      <use x="382.275391" xlink:href="#DejaVuSans-73"/>
     </g>
    </g>
    <g id="line2d_40"/>
    <g id="line2d_41">
     <g>
      <use style="fill:#008000;stroke:#008000;" x="325.87" xlink:href="#m1b2f89cce3" y="187.591625"/>
     </g>
    </g>
    <g id="text_21">
     <!-- Commission -->
     <defs>
      <path d="M 64.40625 67.28125 
L 64.40625 56.890625 
Q 59.421875 61.53125 53.78125 63.8125 
Q 48.140625 66.109375 41.796875 66.109375 
Q 29.296875 66.109375 22.65625 58.46875 
Q 16.015625 50.828125 16.015625 36.375 
Q 16.015625 21.96875 22.65625 14.328125 
Q 29.296875 6.6875 41.796875 6.6875 
Q 48.140625 6.6875 53.78125 8.984375 
Q 59.421875 11.28125 64.40625 15.921875 
L 64.40625 5.609375 
Q 59.234375 2.09375 53.4375 0.328125 
Q 47.65625 -1.421875 41.21875 -1.421875 
Q 24.65625 -1.421875 15.125 8.703125 
Q 5.609375 18.84375 5.609375 36.375 
Q 5.609375 53.953125 15.125 64.078125 
Q 24.65625 74.21875 41.21875 74.21875 
Q 47.75 74.21875 53.53125 72.484375 
Q 59.328125 70.75 64.40625 67.28125 
z
" id="DejaVuSans-43"/>
     </defs>
     <g transform="translate(343.87 191.091625)scale(0.1 -0.1)">
      <use xlink:href="#DejaVuSans-43"/>
      <use x="69.824219" xlink:href="#DejaVuSans-6f"/>
      <use x="131.005859" xlink:href="#DejaVuSans-6d"/>
      <use x="228.417969" xlink:href="#DejaVuSans-6d"/>
      <use x="325.830078" xlink:href="#DejaVuSans-69"/>
      <use x="353.613281" xlink:href="#DejaVuSans-73"/>
      <use x="405.712891" xlink:href="#DejaVuSans-73"/>
      <use x="457.8125" xlink:href="#DejaVuSans-69"/>
      <use x="485.595703" xlink:href="#DejaVuSans-6f"/>
      <use x="546.777344" xlink:href="#DejaVuSans-6e"/>
     </g>
    </g>
   </g>
  </g>
 </g>
 <defs>
  <clipPath id="p9743509169">
   <rect height="235.008" width="357.12" x="57.6" y="41.472"/>
  </clipPath>
 </defs>
</svg>
