<?xml version="1.0" encoding="utf-8" standalone="no"?>
<!DOCTYPE svg PUBLIC "-//W3C//DTD SVG 1.1//EN"
  "http://www.w3.org/Graphics/SVG/1.1/DTD/svg11.dtd">
<!-- Created with matplotlib (http://matplotlib.org/) -->
<svg height="345.6pt" version="1.1" viewBox="0 0 460.8 345.6" width="460.8pt" xmlns="http://www.w3.org/2000/svg" xmlns:xlink="http://www.w3.org/1999/xlink">
 <defs>
  <style type="text/css">
*{stroke-linecap:butt;stroke-linejoin:round;}
  </style>
 </defs>
 <g id="figure_1">
  <g id="patch_1">
   <path d="M 0 345.6 
L 460.8 345.6 
L 460.8 0 
L 0 0 
z
" style="fill:#ffffff;"/>
  </g>
  <g id="axes_1">
   <g id="patch_2">
    <path d="M 57.6 276.48 
L 414.72 276.48 
L 414.72 41.472 
L 57.6 41.472 
z
" style="fill:#ffffff;"/>
   </g>
   <g id="matplotlib.axis_1">
    <g id="xtick_1">
     <g id="line2d_1">
      <path clip-path="url(#pfe52ac88eb)" d="M 103.373635 276.48 
L 103.373635 41.472 
" style="fill:none;stroke:#b0b0b0;stroke-linecap:square;stroke-width:0.8;"/>
     </g>
     <g id="line2d_2">
      <defs>
       <path d="M 0 0 
L 0 3.5 
" id="mba0c8a78a3" style="stroke:#000000;stroke-width:0.8;"/>
      </defs>
      <g>
       <use style="stroke:#000000;stroke-width:0.8;" x="103.373635" xlink:href="#mba0c8a78a3" y="276.48"/>
      </g>
     </g>
     <g id="text_1">
      <!-- 2019-02 -->
      <defs>
       <path d="M 19.1875 8.296875 
L 53.609375 8.296875 
L 53.609375 0 
L 7.328125 0 
L 7.328125 8.296875 
Q 12.9375 14.109375 22.625 23.890625 
Q 32.328125 33.6875 34.8125 36.53125 
Q 39.546875 41.84375 41.421875 45.53125 
Q 43.3125 49.21875 43.3125 52.78125 
Q 43.3125 58.59375 39.234375 62.25 
Q 35.15625 65.921875 28.609375 65.921875 
Q 23.96875 65.921875 18.8125 64.3125 
Q 13.671875 62.703125 7.8125 59.421875 
L 7.8125 69.390625 
Q 13.765625 71.78125 18.9375 73 
Q 24.125 74.21875 28.421875 74.21875 
Q 39.75 74.21875 46.484375 68.546875 
Q 53.21875 62.890625 53.21875 53.421875 
Q 53.21875 48.921875 51.53125 44.890625 
Q 49.859375 40.875 45.40625 35.40625 
Q 44.1875 33.984375 37.640625 27.21875 
Q 31.109375 20.453125 19.1875 8.296875 
z
" id="DejaVuSans-32"/>
       <path d="M 31.78125 66.40625 
Q 24.171875 66.40625 20.328125 58.90625 
Q 16.5 51.421875 16.5 36.375 
Q 16.5 21.390625 20.328125 13.890625 
Q 24.171875 6.390625 31.78125 6.390625 
Q 39.453125 6.390625 43.28125 13.890625 
Q 47.125 21.390625 47.125 36.375 
Q 47.125 51.421875 43.28125 58.90625 
Q 39.453125 66.40625 31.78125 66.40625 
z
M 31.78125 74.21875 
Q 44.046875 74.21875 50.515625 64.515625 
Q 56.984375 54.828125 56.984375 36.375 
Q 56.984375 17.96875 50.515625 8.265625 
Q 44.046875 -1.421875 31.78125 -1.421875 
Q 19.53125 -1.421875 13.0625 8.265625 
Q 6.59375 17.96875 6.59375 36.375 
Q 6.59375 54.828125 13.0625 64.515625 
Q 19.53125 74.21875 31.78125 74.21875 
z
" id="DejaVuSans-30"/>
       <path d="M 12.40625 8.296875 
L 28.515625 8.296875 
L 28.515625 63.921875 
L 10.984375 60.40625 
L 10.984375 69.390625 
L 28.421875 72.90625 
L 38.28125 72.90625 
L 38.28125 8.296875 
L 54.390625 8.296875 
L 54.390625 0 
L 12.40625 0 
z
" id="DejaVuSans-31"/>
       <path d="M 10.984375 1.515625 
L 10.984375 10.5 
Q 14.703125 8.734375 18.5 7.8125 
Q 22.3125 6.890625 25.984375 6.890625 
Q 35.75 6.890625 40.890625 13.453125 
Q 46.046875 20.015625 46.78125 33.40625 
Q 43.953125 29.203125 39.59375 26.953125 
Q 35.25 24.703125 29.984375 24.703125 
Q 19.046875 24.703125 12.671875 31.3125 
Q 6.296875 37.9375 6.296875 49.421875 
Q 6.296875 60.640625 12.9375 67.421875 
Q 19.578125 74.21875 30.609375 74.21875 
Q 43.265625 74.21875 49.921875 64.515625 
Q 56.59375 54.828125 56.59375 36.375 
Q 56.59375 19.140625 48.40625 8.859375 
Q 40.234375 -1.421875 26.421875 -1.421875 
Q 22.703125 -1.421875 18.890625 -0.6875 
Q 15.09375 0.046875 10.984375 1.515625 
z
M 30.609375 32.421875 
Q 37.25 32.421875 41.125 36.953125 
Q 45.015625 41.5 45.015625 49.421875 
Q 45.015625 57.28125 41.125 61.84375 
Q 37.25 66.40625 30.609375 66.40625 
Q 23.96875 66.40625 20.09375 61.84375 
Q 16.21875 57.28125 16.21875 49.421875 
Q 16.21875 41.5 20.09375 36.953125 
Q 23.96875 32.421875 30.609375 32.421875 
z
" id="DejaVuSans-39"/>
       <path d="M 4.890625 31.390625 
L 31.203125 31.390625 
L 31.203125 23.390625 
L 4.890625 23.390625 
z
" id="DejaVuSans-2d"/>
      </defs>
      <g transform="translate(66.148814 310.951846)rotate(-30)scale(0.1 -0.1)">
       <use xlink:href="#DejaVuSans-32"/>
       <use x="63.623047" xlink:href="#DejaVuSans-30"/>
       <use x="127.246094" xlink:href="#DejaVuSans-31"/>
       <use x="190.869141" xlink:href="#DejaVuSans-39"/>
       <use x="254.492188" xlink:href="#DejaVuSans-2d"/>
       <use x="290.576172" xlink:href="#DejaVuSans-30"/>
       <use x="354.199219" xlink:href="#DejaVuSans-32"/>
      </g>
     </g>
    </g>
    <g id="xtick_2">
     <g id="line2d_3">
      <path clip-path="url(#pfe52ac88eb)" d="M 159.596654 276.48 
L 159.596654 41.472 
" style="fill:none;stroke:#b0b0b0;stroke-linecap:square;stroke-width:0.8;"/>
     </g>
     <g id="line2d_4">
      <g>
       <use style="stroke:#000000;stroke-width:0.8;" x="159.596654" xlink:href="#mba0c8a78a3" y="276.48"/>
      </g>
     </g>
     <g id="text_2">
      <!-- 2019-04 -->
      <defs>
       <path d="M 37.796875 64.3125 
L 12.890625 25.390625 
L 37.796875 25.390625 
z
M 35.203125 72.90625 
L 47.609375 72.90625 
L 47.609375 25.390625 
L 58.015625 25.390625 
L 58.015625 17.1875 
L 47.609375 17.1875 
L 47.609375 0 
L 37.796875 0 
L 37.796875 17.1875 
L 4.890625 17.1875 
L 4.890625 26.703125 
z
" id="DejaVuSans-34"/>
      </defs>
      <g transform="translate(122.371833 310.951846)rotate(-30)scale(0.1 -0.1)">
       <use xlink:href="#DejaVuSans-32"/>
       <use x="63.623047" xlink:href="#DejaVuSans-30"/>
       <use x="127.246094" xlink:href="#DejaVuSans-31"/>
       <use x="190.869141" xlink:href="#DejaVuSans-39"/>
       <use x="254.492188" xlink:href="#DejaVuSans-2d"/>
       <use x="290.576172" xlink:href="#DejaVuSans-30"/>
       <use x="354.199219" xlink:href="#DejaVuSans-34"/>
      </g>
     </g>
    </g>
    <g id="xtick_3">
     <g id="line2d_5">
      <path clip-path="url(#pfe52ac88eb)" d="M 217.725537 276.48 
L 217.725537 41.472 
" style="fill:none;stroke:#b0b0b0;stroke-linecap:square;stroke-width:0.8;"/>
     </g>
     <g id="line2d_6">
      <g>
       <use style="stroke:#000000;stroke-width:0.8;" x="217.725537" xlink:href="#mba0c8a78a3" y="276.48"/>
      </g>
     </g>
     <g id="text_3">
      <!-- 2019-06 -->
      <defs>
       <path d="M 33.015625 40.375 
Q 26.375 40.375 22.484375 35.828125 
Q 18.609375 31.296875 18.609375 23.390625 
Q 18.609375 15.53125 22.484375 10.953125 
Q 26.375 6.390625 33.015625 6.390625 
Q 39.65625 6.390625 43.53125 10.953125 
Q 47.40625 15.53125 47.40625 23.390625 
Q 47.40625 31.296875 43.53125 35.828125 
Q 39.65625 40.375 33.015625 40.375 
z
M 52.59375 71.296875 
L 52.59375 62.3125 
Q 48.875 64.0625 45.09375 64.984375 
Q 41.3125 65.921875 37.59375 65.921875 
Q 27.828125 65.921875 22.671875 59.328125 
Q 17.53125 52.734375 16.796875 39.40625 
Q 19.671875 43.65625 24.015625 45.921875 
Q 28.375 48.1875 33.59375 48.1875 
Q 44.578125 48.1875 50.953125 41.515625 
Q 57.328125 34.859375 57.328125 23.390625 
Q 57.328125 12.15625 50.6875 5.359375 
Q 44.046875 -1.421875 33.015625 -1.421875 
Q 20.359375 -1.421875 13.671875 8.265625 
Q 6.984375 17.96875 6.984375 36.375 
Q 6.984375 53.65625 15.1875 63.9375 
Q 23.390625 74.21875 37.203125 74.21875 
Q 40.921875 74.21875 44.703125 73.484375 
Q 48.484375 72.75 52.59375 71.296875 
z
" id="DejaVuSans-36"/>
      </defs>
      <g transform="translate(180.500716 310.951846)rotate(-30)scale(0.1 -0.1)">
       <use xlink:href="#DejaVuSans-32"/>
       <use x="63.623047" xlink:href="#DejaVuSans-30"/>
       <use x="127.246094" xlink:href="#DejaVuSans-31"/>
       <use x="190.869141" xlink:href="#DejaVuSans-39"/>
       <use x="254.492188" xlink:href="#DejaVuSans-2d"/>
       <use x="290.576172" xlink:href="#DejaVuSans-30"/>
       <use x="354.199219" xlink:href="#DejaVuSans-36"/>
      </g>
     </g>
    </g>
    <g id="xtick_4">
     <g id="line2d_7">
      <path clip-path="url(#pfe52ac88eb)" d="M 275.85442 276.48 
L 275.85442 41.472 
" style="fill:none;stroke:#b0b0b0;stroke-linecap:square;stroke-width:0.8;"/>
     </g>
     <g id="line2d_8">
      <g>
       <use style="stroke:#000000;stroke-width:0.8;" x="275.85442" xlink:href="#mba0c8a78a3" y="276.48"/>
      </g>
     </g>
     <g id="text_4">
      <!-- 2019-08 -->
      <defs>
       <path d="M 31.78125 34.625 
Q 24.75 34.625 20.71875 30.859375 
Q 16.703125 27.09375 16.703125 20.515625 
Q 16.703125 13.921875 20.71875 10.15625 
Q 24.75 6.390625 31.78125 6.390625 
Q 38.8125 6.390625 42.859375 10.171875 
Q 46.921875 13.96875 46.921875 20.515625 
Q 46.921875 27.09375 42.890625 30.859375 
Q 38.875 34.625 31.78125 34.625 
z
M 21.921875 38.8125 
Q 15.578125 40.375 12.03125 44.71875 
Q 8.5 49.078125 8.5 55.328125 
Q 8.5 64.0625 14.71875 69.140625 
Q 20.953125 74.21875 31.78125 74.21875 
Q 42.671875 74.21875 48.875 69.140625 
Q 55.078125 64.0625 55.078125 55.328125 
Q 55.078125 49.078125 51.53125 44.71875 
Q 48 40.375 41.703125 38.8125 
Q 48.828125 37.15625 52.796875 32.3125 
Q 56.78125 27.484375 56.78125 20.515625 
Q 56.78125 9.90625 50.3125 4.234375 
Q 43.84375 -1.421875 31.78125 -1.421875 
Q 19.734375 -1.421875 13.25 4.234375 
Q 6.78125 9.90625 6.78125 20.515625 
Q 6.78125 27.484375 10.78125 32.3125 
Q 14.796875 37.15625 21.921875 38.8125 
z
M 18.3125 54.390625 
Q 18.3125 48.734375 21.84375 45.5625 
Q 25.390625 42.390625 31.78125 42.390625 
Q 38.140625 42.390625 41.71875 45.5625 
Q 45.3125 48.734375 45.3125 54.390625 
Q 45.3125 60.0625 41.71875 63.234375 
Q 38.140625 66.40625 31.78125 66.40625 
Q 25.390625 66.40625 21.84375 63.234375 
Q 18.3125 60.0625 18.3125 54.390625 
z
" id="DejaVuSans-38"/>
      </defs>
      <g transform="translate(238.6296 310.951846)rotate(-30)scale(0.1 -0.1)">
       <use xlink:href="#DejaVuSans-32"/>
       <use x="63.623047" xlink:href="#DejaVuSans-30"/>
       <use x="127.246094" xlink:href="#DejaVuSans-31"/>
       <use x="190.869141" xlink:href="#DejaVuSans-39"/>
       <use x="254.492188" xlink:href="#DejaVuSans-2d"/>
       <use x="290.576172" xlink:href="#DejaVuSans-30"/>
       <use x="354.199219" xlink:href="#DejaVuSans-38"/>
      </g>
     </g>
    </g>
    <g id="xtick_5">
     <g id="line2d_9">
      <path clip-path="url(#pfe52ac88eb)" d="M 333.983304 276.48 
L 333.983304 41.472 
" style="fill:none;stroke:#b0b0b0;stroke-linecap:square;stroke-width:0.8;"/>
     </g>
     <g id="line2d_10">
      <g>
       <use style="stroke:#000000;stroke-width:0.8;" x="333.983304" xlink:href="#mba0c8a78a3" y="276.48"/>
      </g>
     </g>
     <g id="text_5">
      <!-- 2019-10 -->
      <g transform="translate(296.758483 310.951846)rotate(-30)scale(0.1 -0.1)">
       <use xlink:href="#DejaVuSans-32"/>
       <use x="63.623047" xlink:href="#DejaVuSans-30"/>
       <use x="127.246094" xlink:href="#DejaVuSans-31"/>
       <use x="190.869141" xlink:href="#DejaVuSans-39"/>
       <use x="254.492188" xlink:href="#DejaVuSans-2d"/>
       <use x="290.576172" xlink:href="#DejaVuSans-31"/>
       <use x="354.199219" xlink:href="#DejaVuSans-30"/>
      </g>
     </g>
    </g>
    <g id="xtick_6">
     <g id="line2d_11">
      <path clip-path="url(#pfe52ac88eb)" d="M 392.112187 276.48 
L 392.112187 41.472 
" style="fill:none;stroke:#b0b0b0;stroke-linecap:square;stroke-width:0.8;"/>
     </g>
     <g id="line2d_12">
      <g>
       <use style="stroke:#000000;stroke-width:0.8;" x="392.112187" xlink:href="#mba0c8a78a3" y="276.48"/>
      </g>
     </g>
     <g id="text_6">
      <!-- 2019-12 -->
      <g transform="translate(354.887366 310.951846)rotate(-30)scale(0.1 -0.1)">
       <use xlink:href="#DejaVuSans-32"/>
       <use x="63.623047" xlink:href="#DejaVuSans-30"/>
       <use x="127.246094" xlink:href="#DejaVuSans-31"/>
       <use x="190.869141" xlink:href="#DejaVuSans-39"/>
       <use x="254.492188" xlink:href="#DejaVuSans-2d"/>
       <use x="290.576172" xlink:href="#DejaVuSans-31"/>
       <use x="354.199219" xlink:href="#DejaVuSans-32"/>
      </g>
     </g>
    </g>
    <g id="text_7">
     <!-- date -->
     <defs>
      <path d="M 45.40625 46.390625 
L 45.40625 75.984375 
L 54.390625 75.984375 
L 54.390625 0 
L 45.40625 0 
L 45.40625 8.203125 
Q 42.578125 3.328125 38.25 0.953125 
Q 33.9375 -1.421875 27.875 -1.421875 
Q 17.96875 -1.421875 11.734375 6.484375 
Q 5.515625 14.40625 5.515625 27.296875 
Q 5.515625 40.1875 11.734375 48.09375 
Q 17.96875 56 27.875 56 
Q 33.9375 56 38.25 53.625 
Q 42.578125 51.265625 45.40625 46.390625 
z
M 14.796875 27.296875 
Q 14.796875 17.390625 18.875 11.75 
Q 22.953125 6.109375 30.078125 6.109375 
Q 37.203125 6.109375 41.296875 11.75 
Q 45.40625 17.390625 45.40625 27.296875 
Q 45.40625 37.203125 41.296875 42.84375 
Q 37.203125 48.484375 30.078125 48.484375 
Q 22.953125 48.484375 18.875 42.84375 
Q 14.796875 37.203125 14.796875 27.296875 
z
" id="DejaVuSans-64"/>
      <path d="M 34.28125 27.484375 
Q 23.390625 27.484375 19.1875 25 
Q 14.984375 22.515625 14.984375 16.5 
Q 14.984375 11.71875 18.140625 8.90625 
Q 21.296875 6.109375 26.703125 6.109375 
Q 34.1875 6.109375 38.703125 11.40625 
Q 43.21875 16.703125 43.21875 25.484375 
L 43.21875 27.484375 
z
M 52.203125 31.203125 
L 52.203125 0 
L 43.21875 0 
L 43.21875 8.296875 
Q 40.140625 3.328125 35.546875 0.953125 
Q 30.953125 -1.421875 24.3125 -1.421875 
Q 15.921875 -1.421875 10.953125 3.296875 
Q 6 8.015625 6 15.921875 
Q 6 25.140625 12.171875 29.828125 
Q 18.359375 34.515625 30.609375 34.515625 
L 43.21875 34.515625 
L 43.21875 35.40625 
Q 43.21875 41.609375 39.140625 45 
Q 35.0625 48.390625 27.6875 48.390625 
Q 23 48.390625 18.546875 47.265625 
Q 14.109375 46.140625 10.015625 43.890625 
L 10.015625 52.203125 
Q 14.9375 54.109375 19.578125 55.046875 
Q 24.21875 56 28.609375 56 
Q 40.484375 56 46.34375 49.84375 
Q 52.203125 43.703125 52.203125 31.203125 
z
" id="DejaVuSans-61"/>
      <path d="M 18.3125 70.21875 
L 18.3125 54.6875 
L 36.8125 54.6875 
L 36.8125 47.703125 
L 18.3125 47.703125 
L 18.3125 18.015625 
Q 18.3125 11.328125 20.140625 9.421875 
Q 21.96875 7.515625 27.59375 7.515625 
L 36.8125 7.515625 
L 36.8125 0 
L 27.59375 0 
Q 17.1875 0 13.234375 3.875 
Q 9.28125 7.765625 9.28125 18.015625 
L 9.28125 47.703125 
L 2.6875 47.703125 
L 2.6875 54.6875 
L 9.28125 54.6875 
L 9.28125 70.21875 
z
" id="DejaVuSans-74"/>
      <path d="M 56.203125 29.59375 
L 56.203125 25.203125 
L 14.890625 25.203125 
Q 15.484375 15.921875 20.484375 11.0625 
Q 25.484375 6.203125 34.421875 6.203125 
Q 39.59375 6.203125 44.453125 7.46875 
Q 49.3125 8.734375 54.109375 11.28125 
L 54.109375 2.78125 
Q 49.265625 0.734375 44.1875 -0.34375 
Q 39.109375 -1.421875 33.890625 -1.421875 
Q 20.796875 -1.421875 13.15625 6.1875 
Q 5.515625 13.8125 5.515625 26.8125 
Q 5.515625 40.234375 12.765625 48.109375 
Q 20.015625 56 32.328125 56 
Q 43.359375 56 49.78125 48.890625 
Q 56.203125 41.796875 56.203125 29.59375 
z
M 47.21875 32.234375 
Q 47.125 39.59375 43.09375 43.984375 
Q 39.0625 48.390625 32.421875 48.390625 
Q 24.90625 48.390625 20.390625 44.140625 
Q 15.875 39.890625 15.1875 32.171875 
z
" id="DejaVuSans-65"/>
     </defs>
     <g transform="translate(224.885 324.351346)scale(0.1 -0.1)">
      <use xlink:href="#DejaVuSans-64"/>
      <use x="63.476562" xlink:href="#DejaVuSans-61"/>
      <use x="124.755859" xlink:href="#DejaVuSans-74"/>
      <use x="163.964844" xlink:href="#DejaVuSans-65"/>
     </g>
    </g>
   </g>
   <g id="matplotlib.axis_2">
    <g id="ytick_1">
     <g id="line2d_13">
      <path clip-path="url(#pfe52ac88eb)" d="M 57.6 265.797818 
L 414.72 265.797818 
" style="fill:none;stroke:#b0b0b0;stroke-linecap:square;stroke-width:0.8;"/>
     </g>
     <g id="line2d_14">
      <defs>
       <path d="M 0 0 
L -3.5 0 
" id="mf8e16f2b1e" style="stroke:#000000;stroke-width:0.8;"/>
      </defs>
      <g>
       <use style="stroke:#000000;stroke-width:0.8;" x="57.6" xlink:href="#mf8e16f2b1e" y="265.797818"/>
      </g>
     </g>
     <g id="text_8">
      <!-- 0 -->
      <g transform="translate(44.2375 269.597037)scale(0.1 -0.1)">
       <use xlink:href="#DejaVuSans-30"/>
      </g>
     </g>
    </g>
    <g id="ytick_2">
     <g id="line2d_15">
      <path clip-path="url(#pfe52ac88eb)" d="M 57.6 225.989478 
L 414.72 225.989478 
" style="fill:none;stroke:#b0b0b0;stroke-linecap:square;stroke-width:0.8;"/>
     </g>
     <g id="line2d_16">
      <g>
       <use style="stroke:#000000;stroke-width:0.8;" x="57.6" xlink:href="#mf8e16f2b1e" y="225.989478"/>
      </g>
     </g>
     <g id="text_9">
      <!-- 2000 -->
      <g transform="translate(25.15 229.788696)scale(0.1 -0.1)">
       <use xlink:href="#DejaVuSans-32"/>
       <use x="63.623047" xlink:href="#DejaVuSans-30"/>
       <use x="127.246094" xlink:href="#DejaVuSans-30"/>
       <use x="190.869141" xlink:href="#DejaVuSans-30"/>
      </g>
     </g>
    </g>
    <g id="ytick_3">
     <g id="line2d_17">
      <path clip-path="url(#pfe52ac88eb)" d="M 57.6 186.181137 
L 414.72 186.181137 
" style="fill:none;stroke:#b0b0b0;stroke-linecap:square;stroke-width:0.8;"/>
     </g>
     <g id="line2d_18">
      <g>
       <use style="stroke:#000000;stroke-width:0.8;" x="57.6" xlink:href="#mf8e16f2b1e" y="186.181137"/>
      </g>
     </g>
     <g id="text_10">
      <!-- 4000 -->
      <g transform="translate(25.15 189.980356)scale(0.1 -0.1)">
       <use xlink:href="#DejaVuSans-34"/>
       <use x="63.623047" xlink:href="#DejaVuSans-30"/>
       <use x="127.246094" xlink:href="#DejaVuSans-30"/>
       <use x="190.869141" xlink:href="#DejaVuSans-30"/>
      </g>
     </g>
    </g>
    <g id="ytick_4">
     <g id="line2d_19">
      <path clip-path="url(#pfe52ac88eb)" d="M 57.6 146.372796 
L 414.72 146.372796 
" style="fill:none;stroke:#b0b0b0;stroke-linecap:square;stroke-width:0.8;"/>
     </g>
     <g id="line2d_20">
      <g>
       <use style="stroke:#000000;stroke-width:0.8;" x="57.6" xlink:href="#mf8e16f2b1e" y="146.372796"/>
      </g>
     </g>
     <g id="text_11">
      <!-- 6000 -->
      <g transform="translate(25.15 150.172015)scale(0.1 -0.1)">
       <use xlink:href="#DejaVuSans-36"/>
       <use x="63.623047" xlink:href="#DejaVuSans-30"/>
       <use x="127.246094" xlink:href="#DejaVuSans-30"/>
       <use x="190.869141" xlink:href="#DejaVuSans-30"/>
      </g>
     </g>
    </g>
    <g id="ytick_5">
     <g id="line2d_21">
      <path clip-path="url(#pfe52ac88eb)" d="M 57.6 106.564456 
L 414.72 106.564456 
" style="fill:none;stroke:#b0b0b0;stroke-linecap:square;stroke-width:0.8;"/>
     </g>
     <g id="line2d_22">
      <g>
       <use style="stroke:#000000;stroke-width:0.8;" x="57.6" xlink:href="#mf8e16f2b1e" y="106.564456"/>
      </g>
     </g>
     <g id="text_12">
      <!-- 8000 -->
      <g transform="translate(25.15 110.363674)scale(0.1 -0.1)">
       <use xlink:href="#DejaVuSans-38"/>
       <use x="63.623047" xlink:href="#DejaVuSans-30"/>
       <use x="127.246094" xlink:href="#DejaVuSans-30"/>
       <use x="190.869141" xlink:href="#DejaVuSans-30"/>
      </g>
     </g>
    </g>
    <g id="ytick_6">
     <g id="line2d_23">
      <path clip-path="url(#pfe52ac88eb)" d="M 57.6 66.756115 
L 414.72 66.756115 
" style="fill:none;stroke:#b0b0b0;stroke-linecap:square;stroke-width:0.8;"/>
     </g>
     <g id="line2d_24">
      <g>
       <use style="stroke:#000000;stroke-width:0.8;" x="57.6" xlink:href="#mf8e16f2b1e" y="66.756115"/>
      </g>
     </g>
     <g id="text_13">
      <!-- 10000 -->
      <g transform="translate(18.7875 70.555334)scale(0.1 -0.1)">
       <use xlink:href="#DejaVuSans-31"/>
       <use x="63.623047" xlink:href="#DejaVuSans-30"/>
       <use x="127.246094" xlink:href="#DejaVuSans-30"/>
       <use x="190.869141" xlink:href="#DejaVuSans-30"/>
       <use x="254.492188" xlink:href="#DejaVuSans-30"/>
      </g>
     </g>
    </g>
    <g id="text_14">
     <!-- EUR -->
     <defs>
      <path d="M 9.8125 72.90625 
L 55.90625 72.90625 
L 55.90625 64.59375 
L 19.671875 64.59375 
L 19.671875 43.015625 
L 54.390625 43.015625 
L 54.390625 34.71875 
L 19.671875 34.71875 
L 19.671875 8.296875 
L 56.78125 8.296875 
L 56.78125 0 
L 9.8125 0 
z
" id="DejaVuSans-45"/>
      <path d="M 8.6875 72.90625 
L 18.609375 72.90625 
L 18.609375 28.609375 
Q 18.609375 16.890625 22.84375 11.734375 
Q 27.09375 6.59375 36.625 6.59375 
Q 46.09375 6.59375 50.34375 11.734375 
Q 54.59375 16.890625 54.59375 28.609375 
L 54.59375 72.90625 
L 64.5 72.90625 
L 64.5 27.390625 
Q 64.5 13.140625 57.4375 5.859375 
Q 50.390625 -1.421875 36.625 -1.421875 
Q 22.796875 -1.421875 15.734375 5.859375 
Q 8.6875 13.140625 8.6875 27.390625 
z
" id="DejaVuSans-55"/>
      <path d="M 44.390625 34.1875 
Q 47.5625 33.109375 50.5625 29.59375 
Q 53.5625 26.078125 56.59375 19.921875 
L 66.609375 0 
L 56 0 
L 46.6875 18.703125 
Q 43.0625 26.03125 39.671875 28.421875 
Q 36.28125 30.8125 30.421875 30.8125 
L 19.671875 30.8125 
L 19.671875 0 
L 9.8125 0 
L 9.8125 72.90625 
L 32.078125 72.90625 
Q 44.578125 72.90625 50.734375 67.671875 
Q 56.890625 62.453125 56.890625 51.90625 
Q 56.890625 45.015625 53.6875 40.46875 
Q 50.484375 35.9375 44.390625 34.1875 
z
M 19.671875 64.796875 
L 19.671875 38.921875 
L 32.078125 38.921875 
Q 39.203125 38.921875 42.84375 42.21875 
Q 46.484375 45.515625 46.484375 51.90625 
Q 46.484375 58.296875 42.84375 61.546875 
Q 39.203125 64.796875 32.078125 64.796875 
z
" id="DejaVuSans-52"/>
     </defs>
     <g transform="translate(12.707813 169.268969)rotate(-90)scale(0.1 -0.1)">
      <use xlink:href="#DejaVuSans-45"/>
      <use x="63.183594" xlink:href="#DejaVuSans-55"/>
      <use x="136.376953" xlink:href="#DejaVuSans-52"/>
     </g>
    </g>
   </g>
   <g id="line2d_25">
    <path clip-path="url(#pfe52ac88eb)" d="M 73.832727 265.797818 
L 107.185365 265.708751 
L 107.185365 265.689951 
L 112.90296 265.540347 
L 112.90296 265.419315 
L 112.90296 265.419315 
L 114.808825 265.350062 
L 114.808825 265.308591 
L 114.808825 265.144755 
L 119.573488 264.992662 
L 119.573488 264.802687 
L 122.432286 264.679886 
L 122.432286 264.662277 
L 122.432286 264.662277 
L 127.196948 264.548955 
L 127.196948 264.528 
L 131.961611 264.419669 
L 131.961611 264.419265 
L 132.914543 264.30532 
L 132.914543 264.126269 
L 134.820408 264.018989 
L 134.820408 263.975177 
L 136.726273 263.863609 
L 136.726273 263.818364 
L 140.538003 263.703339 
L 140.538003 263.654122 
L 141.490936 263.538404 
L 141.490936 263.489532 
L 141.490936 263.489532 
L 146.255598 263.355597 
L 146.255598 263.355597 
L 146.255598 263.247637 
L 150.067328 263.142409 
L 150.067328 263.114654 
L 156.737856 262.984383 
L 156.737856 262.965262 
L 161.502519 262.851691 
L 161.502519 262.713711 
L 162.455451 262.604821 
L 162.455451 262.584221 
L 166.267181 262.461434 
L 166.267181 262.39714 
L 169.125979 262.275598 
L 169.125979 262.230247 
L 172.937709 262.156576 
L 172.937709 262.119618 
L 172.937709 261.899927 
L 175.796506 261.77464 
L 175.796506 261.57421 
L 180.561169 261.458802 
L 180.561169 261.449082 
L 186.278764 261.309372 
L 186.278764 261.277126 
L 190.090494 261.122723 
L 190.090494 261.122723 
L 190.090494 261.042916 
L 190.090494 261.042916 
L 192.949292 260.920991 
L 192.949292 260.855623 
L 194.855157 260.734048 
L 194.855157 260.729937 
L 199.619819 260.599925 
L 199.619819 260.599925 
L 199.619819 260.449791 
L 201.525684 260.34293 
L 201.525684 260.296654 
L 206.290347 260.138413 
L 206.290347 260.027661 
L 210.102077 259.884341 
L 210.102077 259.872545 
L 219.631402 259.75499 
L 219.631402 259.621504 
L 220.584335 259.505325 
L 223.443132 259.372327 
L 223.443132 259.338796 
L 226.30193 259.213614 
L 226.30193 259.161836 
L 228.207795 259.061951 
L 228.207795 258.960173 
L 229.160727 258.8493 
L 229.160727 258.814486 
L 229.160727 258.814486 
L 232.972457 258.695252 
L 232.972457 258.663829 
L 232.972457 258.663829 
L 233.92539 258.553727 
L 233.92539 258.450455 
L 236.784187 258.339942 
L 236.784187 258.33072 
L 243.454715 258.208169 
L 243.454715 258.184323 
L 246.313512 258.068969 
L 246.313512 257.996387 
L 246.313512 257.996387 
L 247.266445 257.924077 
L 247.266445 257.856161 
L 248.219378 257.740888 
L 248.219378 257.239755 
L 249.17231 257.12512 
L 249.17231 256.638752 
L 250.125243 256.638752 
L 250.125243 256.532158 
L 250.125243 256.431498 
L 252.98404 256.307527 
L 252.98404 255.57511 
L 253.936973 255.463069 
L 253.936973 255.424847 
L 254.889905 255.424847 
L 254.889905 255.377253 
L 254.889905 255.083844 
L 256.79577 254.969121 
L 256.79577 254.760771 
L 256.79577 254.760771 
L 259.654568 254.647597 
L 259.654568 254.647597 
L 259.654568 254.41989 
L 260.6075 254.309151 
L 260.6075 254.178124 
L 261.560433 254.06955 
L 261.560433 253.826301 
L 262.513365 253.716162 
L 262.513365 253.280543 
L 263.466298 253.223029 
L 263.466298 253.013017 
L 266.325095 252.779041 
L 266.325095 252.712915 
L 267.278028 252.614959 
L 267.278028 252.40322 
L 270.136825 252.286214 
L 270.136825 252.214943 
L 272.995623 252.104067 
L 272.995623 252.102546 
L 274.901488 252.01808 
L 274.901488 251.924303 
L 275.85442 251.81053 
L 275.85442 251.600948 
L 276.807353 251.489458 
L 276.807353 251.461711 
L 279.666151 251.355665 
L 279.666151 251.355665 
L 279.666151 250.170467 
L 280.619083 250.059919 
L 280.619083 249.600884 
L 281.572016 249.492388 
L 281.572016 249.369405 
L 282.524948 249.369405 
L 282.524948 249.25835 
L 282.524948 249.114546 
L 283.477881 249.003691 
L 283.477881 248.954918 
L 286.336678 248.838038 
L 286.336678 248.838038 
L 286.336678 248.635529 
L 287.289611 248.528322 
L 287.289611 248.434339 
L 288.242543 248.322619 
L 288.242543 248.305766 
L 288.242543 248.305766 
L 289.195476 248.305766 
L 289.195476 248.215282 
L 289.195476 248.085059 
L 290.148408 247.975608 
L 290.148408 247.709369 
L 293.007206 247.583866 
L 293.007206 246.893457 
L 293.960138 246.893457 
L 293.960138 246.783174 
L 293.960138 246.709969 
L 294.913071 246.598365 
L 294.913071 246.564821 
L 296.818936 246.455264 
L 296.818936 246.321222 
L 299.677733 246.2275 
L 299.677733 246.118654 
L 301.583598 246.027937 
L 301.583598 246.010783 
L 301.583598 245.910122 
L 301.583598 245.910122 
L 304.442396 245.81072 
L 304.442396 245.728685 
L 306.348261 245.613788 
L 306.348261 245.467012 
L 306.348261 245.467012 
L 307.301193 245.360469 
L 307.301193 245.041441 
L 308.254126 244.918819 
L 308.254126 244.449196 
L 309.207058 244.337103 
L 309.207058 244.031533 
L 310.159991 243.920926 
L 310.159991 243.491804 
L 313.018789 243.375494 
L 313.018789 243.074354 
L 313.971721 242.965342 
L 313.971721 242.841859 
L 314.924654 242.7356 
L 314.924654 242.723427 
L 316.830519 242.616206 
L 316.830519 242.35328 
L 319.689316 242.239393 
L 319.689316 241.723967 
L 320.642249 241.612878 
L 320.642249 241.468427 
L 321.595181 241.468427 
L 321.595181 241.357699 
L 321.595181 241.023155 
L 322.548114 240.911821 
L 322.548114 240.877359 
L 323.501046 240.770656 
L 323.501046 240.687145 
L 326.359844 240.574453 
L 326.359844 240.512406 
L 327.312776 240.47502 
L 327.312776 240.241302 
L 329.218641 240.132748 
L 329.218641 239.968803 
L 332.077439 239.860245 
L 332.077439 239.858565 
L 332.077439 239.848729 
L 333.983304 239.763055 
L 333.983304 239.479494 
L 335.889169 239.368839 
L 335.889169 239.368839 
L 335.889169 239.063856 
L 336.842101 238.931097 
L 336.842101 238.447141 
L 339.700899 238.330801 
L 339.700899 237.802257 
L 340.653831 237.670892 
L 340.653831 237.543485 
L 342.559697 237.449134 
L 342.559697 237.433684 
L 342.559697 237.248268 
L 346.371427 237.135137 
L 346.371427 236.808388 
L 347.324359 236.697316 
L 347.324359 236.559351 
L 348.277292 236.444087 
L 348.277292 236.070565 
L 349.230224 235.958234 
L 349.230224 235.792009 
L 350.183157 235.681144 
L 350.183157 235.346856 
L 353.041954 235.258545 
L 353.041954 234.941065 
L 353.994887 234.830635 
L 354.947819 234.741449 
L 354.947819 234.620345 
L 355.900752 234.620345 
L 355.900752 234.509286 
L 355.900752 234.482235 
L 356.853684 234.373629 
L 356.853684 234.362254 
L 360.665414 234.248007 
L 360.665414 234.132185 
L 360.665414 234.132185 
L 362.571279 234.043008 
L 362.571279 234.001149 
L 363.524212 233.890203 
L 363.524212 233.860581 
L 366.383009 233.753751 
L 366.383009 232.981766 
L 366.383009 232.981766 
L 367.335942 232.886539 
L 367.335942 232.487371 
L 368.288874 232.388295 
L 368.288874 232.177642 
L 368.288874 232.177642 
L 369.241807 232.067028 
L 369.241807 231.950389 
L 369.241807 231.950389 
L 370.194739 231.839017 
L 370.194739 231.839017 
L 370.194739 231.799801 
L 373.053537 231.683858 
L 373.053537 231.48777 
L 373.053537 231.48777 
L 374.959402 231.378382 
L 374.959402 231.180951 
L 376.865267 231.070276 
L 376.865267 231.070276 
L 376.865267 230.949351 
L 379.724065 230.828493 
L 379.724065 230.828493 
L 379.724065 230.030803 
L 381.62993 229.936914 
L 381.62993 229.863543 
L 382.582862 229.751992 
L 382.582862 229.709398 
L 385.44166 229.596527 
L 385.44166 229.59261 
L 387.347525 229.483364 
L 387.347525 229.398226 
L 389.25339 229.290683 
L 389.25339 229.287524 
L 389.25339 229.247328 
L 392.112187 229.142129 
L 393.06512 229.040339 
L 393.06512 228.696597 
L 394.018052 228.582163 
L 394.018052 228.340581 
L 394.970985 228.206885 
L 394.970985 227.929487 
L 395.923917 227.818359 
L 395.923917 227.749492 
L 397.829782 227.653863 
L 397.829782 227.653863 
" style="fill:none;stroke:#0000ff;stroke-linecap:square;stroke-width:1.5;"/>
   </g>
   <g id="line2d_26">
    <path clip-path="url(#pfe52ac88eb)" d="M 73.832727 265.797818 
L 76.571691 265.718202 
L 76.724922 255.766116 
L 76.950449 255.905446 
L 77.400754 258.970688 
L 77.519594 259.846471 
L 77.725203 260.523213 
L 77.89136 260.742159 
L 78.042924 261.498517 
L 78.307418 262.852001 
L 78.496637 263.588455 
L 78.693654 264.08606 
L 79.077242 264.66328 
L 79.081003 264.842418 
L 79.273696 265.021556 
L 79.362438 265.200693 
L 79.462 265.399735 
L 79.96519 265.499013 
L 79.965852 225.690672 
L 80.058641 227.322814 
L 80.109387 228.298119 
L 80.211298 246.371105 
L 80.313716 249.017894 
L 80.332047 249.256744 
L 80.516611 255.781388 
L 80.690301 255.976902 
L 80.792818 257.959017 
L 80.809627 257.953723 
L 80.865369 258.033339 
L 80.975519 260.800019 
L 81.213454 263.447274 
L 81.275075 263.247921 
L 81.297431 263.466867 
L 81.561396 264.2028 
L 81.933426 264.362034 
L 81.977124 264.998967 
L 82.11134 265.038775 
L 82.175431 265.198009 
L 82.300702 265.596092 
L 82.930608 265.695379 
L 83.027666 265.735187 
L 83.689579 265.768692 
L 83.809092 265.568329 
L 83.863985 265.687484 
L 83.966547 265.747196 
L 86.897476 265.787004 
L 87.614734 265.58532 
L 87.619411 265.684841 
L 87.625874 265.744554 
L 88.573943 265.784362 
L 89.815236 265.583219 
L 89.818258 265.603123 
L 89.827413 265.782261 
L 93.276874 265.76224 
L 93.276874 265.572074 
L 93.279179 265.771116 
L 93.488549 265.758991 
L 106.556562 265.783849 
L 106.556562 265.748377 
L 106.556562 265.72096 
L 106.569378 265.780672 
L 106.62512 265.769692 
L 106.72016 265.789596 
L 107.597542 265.785847 
L 108.005119 265.579386 
L 108.436475 265.560075 
L 108.436475 265.455601 
L 108.467479 265.555122 
L 110.729833 265.796808 
L 113.497319 265.684301 
L 113.523955 265.514002 
L 113.515639 265.717887 
L 113.591653 265.633427 
L 115.119532 265.493058 
L 115.157407 265.445364 
L 115.208903 265.499842 
L 115.22109 265.489491 
L 115.251619 265.46018 
L 115.475613 265.709301 
L 115.527926 265.603175 
L 115.562602 265.682792 
L 117.115904 265.767341 
L 117.157981 265.785382 
L 117.157981 265.779133 
L 119.890581 265.634169 
L 119.906761 265.602315 
L 119.956503 265.662028 
L 119.970058 265.661283 
L 120.894358 265.761459 
L 121.013872 265.79577 
L 121.36724 265.778854 
L 121.978485 265.790527 
L 122.035274 257.312942 
L 122.117785 261.363138 
L 122.175281 264.267037 
L 122.890057 264.348415 
L 122.901042 263.850401 
L 122.918943 264.328101 
L 123.01396 264.348005 
L 123.077225 265.104363 
L 123.123129 265.091171 
L 123.143158 265.111075 
L 123.715193 265.101515 
L 123.754954 264.897388 
L 123.767163 265.116334 
L 123.794659 265.115245 
L 123.993198 265.150258 
L 124.116351 265.605467 
L 124.116351 265.604099 
L 124.827808 265.61667 
L 124.953355 265.755999 
L 126.978866 265.649489 
L 127.033736 265.637461 
L 127.037586 265.697174 
L 133.253132 265.587566 
L 133.334253 265.522474 
L 133.357966 265.641899 
L 133.492909 265.726053 
L 133.492909 265.705671 
L 133.64872 265.720894 
L 133.64872 265.717095 
L 133.64872 265.515446 
L 133.753014 265.734392 
L 135.10127 265.734424 
L 135.10127 265.702093 
L 135.10127 265.695092 
L 135.169839 265.734901 
L 135.206732 265.729662 
L 140.483044 265.754399 
L 140.503062 265.55903 
L 140.528231 265.698359 
L 140.883199 265.662123 
L 140.916651 265.571896 
L 140.991837 265.697328 
L 141.228174 265.69897 
L 141.228174 265.689554 
L 141.252581 265.709459 
L 141.831212 265.74873 
L 141.831212 265.662644 
L 141.865568 265.567569 
L 141.922425 265.726802 
L 157.582668 265.588176 
L 157.582668 265.259067 
L 157.597723 265.796479 
L 160.912671 265.746516 
L 161.000376 265.640648 
L 161.040302 265.755103 
L 161.203514 265.639984 
L 161.236624 265.1152 
L 161.236767 264.389937 
L 161.280466 265.36065 
L 161.499982 265.347192 
L 161.562066 265.567431 
L 161.800012 265.457126 
L 161.878398 265.41121 
L 162.186634 265.446496 
L 162.186634 265.441611 
L 163.058931 265.307889 
L 163.058931 265.304577 
L 163.15964 265.781229 
L 163.180055 265.771953 
L 163.183099 265.791857 
L 163.299149 265.4149 
L 163.312815 265.613942 
L 164.175847 265.575526 
L 164.237347 265.774567 
L 173.666669 265.65296 
L 173.666669 265.581204 
L 173.73376 265.678357 
L 173.774337 265.673548 
L 174.536727 265.724313 
L 174.634006 265.75136 
L 174.634006 265.75022 
L 174.694899 265.768482 
L 174.694899 265.762873 
L 176.105051 265.663773 
L 176.132239 265.553495 
L 176.192139 265.680559 
L 176.332652 265.742658 
L 176.332652 265.737033 
L 178.220043 265.796816 
L 190.400429 265.689604 
L 190.400429 265.644034 
L 190.508737 265.756174 
L 198.125469 265.769246 
L 198.129053 265.78915 
L 199.94557 265.675619 
L 199.971202 265.593444 
L 200.054606 265.660196 
L 200.34375 265.722939 
L 213.460304 265.779575 
L 213.517016 263.794532 
L 213.57084 264.583485 
L 214.836299 264.601947 
L 215.233696 264.59992 
L 215.431142 265.79417 
L 215.552299 264.590818 
L 216.22801 264.591014 
L 216.407722 264.829864 
L 216.422821 265.785264 
L 219.955024 265.677114 
L 220.011582 265.654679 
L 220.041395 265.714392 
L 220.052678 265.707914 
L 224.893498 265.777226 
L 226.656754 265.710955 
L 226.656754 265.703372 
L 226.67932 265.678263 
L 226.725268 265.725801 
L 226.753933 265.71436 
L 228.864326 265.639336 
L 228.904274 265.437771 
L 228.926972 265.660697 
L 229.484228 265.547825 
L 229.519665 265.474388 
L 229.592767 265.515852 
L 229.783497 265.698043 
L 238.076249 265.775896 
L 238.116683 265.7958 
L 242.912867 265.784444 
L 242.930878 265.66612 
L 242.993138 265.705541 
L 243.1885 265.664423 
L 243.1885 265.714344 
L 243.192085 265.164062 
L 243.194423 265.710252 
L 243.349628 265.701383 
L 243.356157 265.413565 
L 243.359444 265.712127 
L 244.262215 265.642016 
L 244.285862 264.504617 
L 244.289755 265.651799 
L 244.30159 265.65102 
L 245.047248 265.713507 
L 245.04748 262.190553 
L 245.148905 265.780485 
L 245.163166 265.743127 
L 245.167413 264.009497 
L 245.171273 265.789686 
L 245.261393 265.229318 
L 245.31225 265.793999 
L 245.314257 264.685364 
L 245.314312 263.598305 
L 245.372161 265.797125 
L 245.415153 265.793802 
L 246.616058 265.695742 
L 246.616058 265.603559 
L 246.699781 265.797113 
L 246.727564 265.796701 
L 246.749203 216.036276 
L 246.850618 233.780149 
L 246.870768 236.242587 
L 247.14124 264.601614 
L 247.160795 264.598047 
L 247.864697 264.681638 
L 247.864807 265.785365 
L 247.955214 265.781533 
L 248.519496 265.694148 
L 248.559775 216.034882 
L 248.528364 265.795308 
L 248.628874 222.727993 
L 248.638888 222.990888 
L 248.749501 232.267401 
L 248.759516 232.491291 
L 248.870206 247.76338 
L 248.880221 248.969573 
L 248.910386 252.108468 
L 248.985749 241.799342 
L 248.990734 242.256625 
L 249.101248 254.673754 
L 249.10277 254.672624 
L 249.121311 256.669727 
L 249.231824 265.782103 
L 249.467587 265.673557 
L 249.467587 265.390113 
L 249.543193 265.793942 
L 249.739316 265.684152 
L 249.745305 261.801076 
L 249.814701 265.797533 
L 249.818131 265.777755 
L 250.015071 265.782069 
L 250.015071 265.770174 
L 250.015071 265.762653 
L 250.022372 265.783751 
L 250.094592 265.778513 
L 253.293567 265.672438 
L 253.293567 265.399022 
L 253.390272 265.795174 
L 259.412188 265.71724 
L 259.412188 265.737301 
L 259.468128 265.796772 
L 259.468128 265.795546 
L 259.969377 265.684934 
L 259.969377 265.651986 
L 259.975168 265.7719 
L 260.070748 265.755034 
L 260.286779 265.725691 
L 260.286779 265.523293 
L 260.377363 265.765236 
L 260.383296 265.698729 
L 260.403072 265.519557 
L 260.467792 265.777792 
L 260.90024 265.691119 
L 260.90024 265.57987 
L 260.98028 265.792678 
L 260.997761 265.760585 
L 261.851353 265.647767 
L 261.851353 265.572616 
L 261.924808 265.793897 
L 261.954962 265.762046 
L 262.203221 265.794205 
L 262.203221 265.785587 
L 262.242199 265.766159 
L 262.312356 265.793074 
L 262.813329 265.68381 
L 262.813329 265.389759 
L 262.819329 265.790675 
L 262.921339 265.648273 
L 263.00021 265.790816 
L 263.436419 265.76121 
L 263.755994 265.311513 
L 263.764266 265.511369 
L 263.774391 265.751714 
L 263.872397 265.725659 
L 263.95365 265.766246 
L 263.95365 264.540518 
L 263.96544 265.77653 
L 264.033414 265.754974 
L 264.15156 265.718393 
L 264.15156 265.708643 
L 266.700092 265.785818 
L 266.700092 265.775274 
L 266.700092 265.656137 
L 266.809845 265.765965 
L 268.941347 265.678031 
L 268.941347 265.455901 
L 268.960803 265.784524 
L 268.963615 265.783475 
L 274.228259 265.792179 
L 274.228259 265.710935 
L 274.228259 265.664102 
L 274.268637 265.783954 
L 274.329475 265.782424 
L 275.359502 265.783443 
L 275.359502 265.483895 
L 275.435682 265.788705 
L 276.149885 265.667029 
L 276.149885 265.51146 
L 276.2242 265.785968 
L 276.243336 265.782755 
L 279.969026 265.661158 
L 279.969026 264.963658 
L 280.035853 265.789727 
L 280.076044 265.788228 
L 280.405103 265.674955 
L 280.405103 265.634513 
L 280.431684 265.797098 
L 280.502007 265.79461 
L 280.907941 265.692353 
L 280.907941 265.536359 
L 281.004568 265.797759 
L 281.979593 265.71016 
L 282.018879 265.79271 
L 282.091959 265.767876 
L 282.111095 265.573314 
L 282.134411 265.797338 
L 282.171712 265.780624 
L 282.385516 265.787079 
L 283.238864 265.678704 
L 283.238864 265.548543 
L 283.346797 265.795433 
L 284.348314 265.734789 
L 284.348325 265.2215 
L 284.35384 265.78333 
L 287.582759 265.784279 
L 287.582759 265.715434 
L 287.582759 265.663645 
L 287.621637 265.789479 
L 287.682 265.785789 
L 288.75823 265.666509 
L 288.75823 265.612387 
L 288.768134 265.792276 
L 290.454825 265.796284 
L 290.454825 265.685586 
L 290.454825 265.458789 
L 290.465148 265.797667 
L 290.563607 265.780635 
L 290.812395 265.770661 
L 290.817159 265.790647 
L 290.988048 265.792779 
L 290.988048 265.796614 
L 291.540859 265.797041 
L 291.544267 265.609796 
L 291.651483 265.78602 
L 293.309001 265.625809 
L 293.309012 265.227698 
L 293.321265 265.795525 
L 293.411706 265.795481 
L 293.422294 265.780566 
L 293.422294 265.670971 
L 293.431801 265.791761 
L 293.502146 265.783706 
L 297.128837 265.65429 
L 297.128837 265.630431 
L 297.178535 265.796933 
L 297.20891 265.790485 
L 301.072952 265.779968 
L 301.130261 265.606731 
L 301.173132 265.790716 
L 302.143082 265.68029 
L 302.143082 265.646198 
L 302.148564 265.787398 
L 302.222394 265.780609 
L 306.645137 265.665202 
L 306.645137 265.640617 
L 306.724394 265.79711 
L 306.755518 265.779854 
L 307.615297 265.659687 
L 307.615297 265.467489 
L 307.630363 265.792617 
L 307.702561 265.79041 
L 308.551344 265.676967 
L 308.551344 265.297954 
L 308.556638 265.782241 
L 308.656288 265.718732 
L 308.817713 265.748216 
L 308.817713 265.746019 
L 308.89505 265.503873 
L 308.89505 265.484322 
L 308.980163 265.575504 
L 309.172217 265.672545 
L 309.189136 265.692449 
L 309.498795 265.597891 
L 309.498795 265.43726 
L 309.593283 265.709787 
L 309.602625 265.680552 
L 309.730774 265.686647 
L 309.730774 265.685826 
L 309.730774 265.680986 
L 309.794226 265.754483 
L 309.809127 265.751585 
L 310.452323 265.639722 
L 310.502517 265.39516 
L 310.506168 265.713627 
L 310.544848 265.621967 
L 310.701299 265.556317 
L 310.761408 265.386447 
L 310.804345 265.390915 
L 310.921157 265.482155 
L 310.921157 265.481614 
L 311.03906 265.596979 
L 311.03906 265.593528 
L 311.952243 265.750958 
L 311.952243 265.748994 
L 313.314385 265.63797 
L 313.409811 265.580549 
L 313.508347 265.671727 
L 313.548725 265.634749 
L 313.548725 265.531586 
L 313.568478 265.670916 
L 313.631974 265.621827 
L 313.742157 265.491366 
L 313.780892 265.528456 
L 313.899589 265.567514 
L 313.899589 265.56455 
L 314.34321 265.452088 
L 314.387361 265.417017 
L 314.411338 265.536442 
L 314.430739 265.498378 
L 314.824739 265.690536 
L 314.824739 265.690535 
L 315.380076 265.564977 
L 315.380076 265.541113 
L 315.444189 265.597736 
L 315.468972 265.592495 
L 315.658478 265.634803 
L 316.450956 265.706391 
L 316.613815 265.747125 
L 317.13785 265.635772 
L 317.229052 265.520449 
L 317.241647 265.540353 
L 317.523358 265.698113 
L 317.562953 265.655449 
L 319.108005 265.737683 
L 319.134034 265.757587 
L 320.005725 265.646572 
L 320.024199 265.3983 
L 320.099783 265.696863 
L 320.232278 265.584753 
L 320.296954 265.540407 
L 320.497621 265.455704 
L 320.577385 265.254501 
L 320.937073 265.142505 
L 321.02094 265.041215 
L 321.044918 265.359682 
L 321.570156 265.331106 
L 321.905822 265.223179 
L 321.983005 264.91493 
L 322.0166 265.006632 
L 322.056736 265.10534 
L 322.11346 265.085825 
L 322.391431 265.152818 
L 322.518456 265.410712 
L 322.868107 265.378639 
L 323.086708 265.756115 
L 323.086708 265.731394 
L 323.086708 265.613043 
L 323.098774 265.752372 
L 323.186248 265.738745 
L 323.890988 265.62613 
L 323.890988 265.603606 
L 323.903892 265.742935 
L 323.960097 265.738427 
L 330.097457 265.684231 
L 330.097457 265.485467 
L 330.126905 265.714274 
L 334.4603 265.645377 
L 334.4603 263.881528 
L 334.561824 265.51036 
L 335.398023 265.517638 
L 335.52026 265.7943 
L 335.553602 265.710152 
L 335.633763 265.788086 
L 336.17667 265.676719 
L 336.176681 265.492244 
L 336.259268 265.791203 
L 336.274346 265.780495 
L 337.151816 265.651969 
L 337.151827 265.482429 
L 337.23008 265.789759 
L 337.259252 265.788935 
L 340.015345 265.667995 
L 340.015345 265.462217 
L 340.015874 265.783585 
L 340.116439 265.782962 
L 340.15877 265.760369 
L 340.15877 265.641145 
L 340.206891 265.78551 
L 341.22847 265.682145 
L 341.306712 265.606918 
L 341.330105 265.726343 
L 342.059583 265.735658 
L 342.077683 264.77124 
L 342.139987 265.721731 
L 342.178303 265.648765 
L 342.178303 265.575924 
L 342.220479 265.759043 
L 347.055564 265.633486 
L 347.055564 265.603993 
L 347.099152 265.755473 
L 347.139453 265.748024 
L 347.637581 265.757119 
L 347.637581 265.751492 
L 347.721072 265.606372 
L 347.642908 265.756007 
L 347.743363 265.720302 
L 348.576274 265.609977 
L 348.576274 265.419175 
L 348.578105 265.776099 
L 348.668545 265.766147 
L 349.533993 265.65294 
L 349.533993 265.576968 
L 349.576103 265.771942 
L 349.643139 265.76848 
L 349.722727 265.785805 
L 349.722727 265.784819 
L 350.491415 265.697172 
L 350.491415 265.406214 
L 350.492143 265.794649 
L 350.591638 265.781734 
L 350.820331 265.782666 
L 353.792554 265.675777 
L 353.792554 265.477112 
L 353.795455 265.78363 
L 353.8523 265.782693 
L 353.931931 265.707968 
L 353.931931 265.608138 
L 353.946336 265.797795 
L 353.971571 265.793143 
L 355.302213 265.766796 
L 355.302213 265.727478 
L 355.302213 265.668499 
L 355.316992 265.788266 
L 355.40955 265.785361 
L 355.441215 265.594418 
L 355.446079 265.793455 
L 355.484384 265.790453 
L 357.23392 265.685311 
L 357.298783 265.385564 
L 357.303515 265.791393 
L 357.338202 265.790317 
L 361.437709 265.738616 
L 361.437709 262.777064 
L 361.4479 265.777467 
L 361.477679 265.77642 
L 363.98098 265.693217 
L 363.98098 265.633981 
L 363.993134 265.793215 
L 364.0606 265.791034 
L 364.298503 265.69451 
L 364.298503 265.491262 
L 364.300003 265.791709 
L 366.71347 265.680536 
L 366.728966 265.256475 
L 366.84441 265.355996 
L 366.855792 265.574941 
L 367.037445 265.468175 
L 367.090165 264.507981 
L 367.133753 265.243347 
L 367.16555 265.210719 
L 367.278049 265.657976 
L 367.278049 265.654964 
L 367.640991 265.539533 
L 367.672534 265.515029 
L 367.726357 265.65437 
L 367.731232 265.621776 
L 367.916293 265.749634 
L 367.759534 265.551591 
L 367.916293 265.656284 
L 367.916293 265.614294 
L 367.936433 265.75478 
L 368.012116 265.744215 
L 368.041355 265.683673 
L 368.112163 265.750062 
L 368.590868 265.635871 
L 368.627298 265.562968 
L 368.684374 265.755605 
L 369.580429 265.644313 
L 369.61023 265.723929 
L 369.705612 265.669677 
L 369.8195 265.698023 
L 369.941815 265.588912 
L 369.941815 265.471369 
L 370.05266 265.736395 
L 371.445552 265.620125 
L 371.7357 265.690607 
L 373.705921 265.657257 
L 373.772439 265.069093 
L 373.81585 265.088997 
L 373.844107 265.193676 
L 373.90072 265.731089 
L 373.986881 265.714653 
L 377.287899 265.615088 
L 377.287899 265.544274 
L 377.394123 265.777034 
L 380.035036 265.6317 
L 380.110035 265.086318 
L 380.130804 265.106222 
L 380.18959 265.002477 
L 380.278784 265.615684 
L 380.3291 265.59671 
L 380.426555 265.61633 
L 380.426555 265.605095 
L 380.535447 265.503194 
L 381.131305 265.498397 
L 381.171342 265.697076 
L 381.253973 265.658643 
L 381.410678 265.675819 
L 381.46717 265.774998 
L 381.46717 265.774995 
L 381.596842 265.77473 
L 382.325416 265.69995 
L 382.340978 265.490371 
L 382.391857 265.749125 
L 382.40218 265.736606 
L 382.520944 265.756049 
L 382.520944 265.750757 
L 386.259229 265.709566 
L 386.259229 265.611037 
L 386.270689 265.790174 
L 386.359475 265.773407 
L 386.387203 265.793311 
L 386.903352 265.688256 
L 386.965668 265.570705 
L 386.983811 265.769747 
L 389.833962 265.659689 
L 389.931781 265.618684 
L 390.766005 265.615566 
L 390.964841 265.791341 
L 393.36108 265.647336 
L 393.441341 265.551944 
L 393.455227 265.571848 
L 393.523708 265.569875 
L 393.531836 265.788821 
L 393.605236 265.783513 
L 393.987986 265.680685 
L 393.987986 265.627265 
L 394.030659 265.786499 
L 394.330391 265.680541 
L 394.398597 265.510492 
L 394.41878 265.769246 
L 395.277423 265.659649 
L 395.277434 265.453823 
L 395.368018 265.766233 
L 395.385411 265.757394 
L 395.592376 265.770824 
L 398.487273 265.782091 
L 398.487273 265.782091 
" style="fill:none;stroke:#ff0000;stroke-linecap:square;stroke-width:1.5;"/>
   </g>
   <g id="line2d_27">
    <path clip-path="url(#pfe52ac88eb)" d="M 73.832727 265.797818 
L 76.691525 265.658489 
L 76.691525 261.259667 
L 77.644457 261.060626 
L 77.644457 257.83615 
L 78.59739 257.696821 
L 78.59739 256.263721 
L 79.550322 256.064679 
L 79.550322 245.85384 
L 79.550322 246.19221 
L 80.18978 245.993169 
L 80.211463 230.069832 
L 80.422123 229.870791 
L 80.503255 219.086654 
L 80.503255 219.387228 
L 80.690301 219.191714 
L 80.770969 218.005766 
L 81.456187 217.707204 
L 81.456187 216.473145 
L 82.40912 216.134774 
L 82.40912 216.094966 
L 82.40912 216.095226 
L 83.362052 215.995706 
L 83.362052 215.816568 
L 83.362052 216.116873 
L 87.173782 215.937735 
L 87.173782 215.917831 
L 87.173782 216.116873 
L 89.079648 216.05716 
L 89.079648 215.878023 
L 89.079648 216.077065 
L 92.891378 215.878023 
L 92.891378 215.897927 
L 92.891378 216.096969 
L 107.185365 215.983705 
L 107.185365 215.98715 
L 107.185365 216.187766 
L 108.138298 216.088245 
L 108.138298 215.849395 
L 108.138298 215.95117 
L 109.09123 215.831745 
L 109.09123 215.811841 
L 109.09123 215.942657 
L 110.044163 215.823232 
L 110.044163 215.803328 
L 110.044163 215.849315 
L 112.90296 215.713424 
L 112.90296 215.593999 
L 112.90296 215.874274 
L 113.855893 215.754849 
L 113.855893 215.715041 
L 113.855893 215.763791 
L 114.808825 215.644366 
L 114.808825 215.305995 
L 114.808825 215.539163 
L 115.761758 215.419738 
L 115.761758 215.360026 
L 115.761758 215.405834 
L 116.71469 215.286409 
L 116.71469 215.206792 
L 116.71469 215.369927 
L 119.573488 215.213855 
L 119.573488 214.994909 
L 119.573488 215.110384 
L 121.479353 214.978671 
L 121.479353 212.072662 
L 121.479353 212.084116 
L 122.104858 211.885074 
L 122.119417 207.963952 
L 122.432286 207.844527 
L 122.432286 206.650277 
L 122.432286 207.170723 
L 123.385218 207.071202 
L 123.385218 206.553694 
L 123.385218 206.761404 
L 125.291083 206.504574 
L 126.244016 206.385149 
L 126.244016 206.325437 
L 126.244016 206.513393 
L 128.149881 206.362204 
L 128.149881 206.459249 
L 128.149881 206.479153 
L 129.102813 206.359728 
L 129.102813 206.339824 
L 129.102813 206.387576 
L 129.102813 206.387576 
L 130.055746 206.268151 
L 130.055746 206.248247 
L 130.055746 206.286231 
L 132.914543 206.127188 
L 132.914543 205.788818 
L 132.914543 206.031302 
L 134.820408 205.886089 
L 134.820408 205.826376 
L 134.820408 205.832554 
L 136.726273 205.681865 
L 136.726273 205.661961 
L 136.726273 205.689647 
L 139.585071 205.551209 
L 139.585071 205.41188 
L 139.585071 205.65713 
L 140.538003 205.537705 
L 140.538003 205.438185 
L 140.538003 205.544816 
L 141.490936 205.425391 
L 141.490936 205.32587 
L 141.490936 205.406317 
L 143.396801 205.267494 
L 143.396801 205.207782 
L 143.396801 205.257146 
L 147.208531 205.080297 
L 147.208531 205.060393 
L 147.208531 205.06583 
L 156.737856 204.827483 
L 156.737856 204.29007 
L 156.737856 204.808208 
L 160.549586 204.751318 
L 160.549586 204.731414 
L 160.549586 204.452756 
L 160.549586 204.591006 
L 161.203514 204.706358 
L 161.236624 205.270465 
L 161.236767 205.976308 
L 161.237054 205.180141 
L 161.499982 205.174796 
L 161.502519 204.916309 
L 161.502519 204.947082 
L 162.455451 204.827657 
L 162.455451 204.230532 
L 162.455451 204.657156 
L 163.408384 204.617347 
L 163.408384 204.418306 
L 163.408384 204.437218 
L 166.267181 204.40083 
L 166.267181 204.341118 
L 166.267181 204.281405 
L 166.267181 204.314877 
L 168.173046 204.176456 
L 168.173046 204.156552 
L 168.173046 204.182208 
L 171.984776 204.053114 
L 171.984776 204.056862 
L 172.937709 203.857821 
L 172.937709 203.678683 
L 172.937709 203.836578 
L 175.796506 203.685566 
L 175.796506 203.46662 
L 175.796506 203.546695 
L 182.467034 203.307259 
L 182.467034 203.26745 
L 182.467034 203.312463 
L 189.137562 203.080318 
L 189.137562 203.060414 
L 189.137562 203.119541 
L 190.090494 203.000116 
L 190.090494 202.980212 
L 190.090494 203.008613 
L 192.949292 202.852427 
L 192.949292 202.812618 
L 192.949292 202.850072 
L 194.855157 202.703221 
L 194.855157 202.683317 
L 194.855157 202.711963 
L 199.619819 202.510267 
L 199.619819 202.331129 
L 199.619819 202.4371 
L 200.572752 202.317675 
L 200.572752 202.297771 
L 200.572752 202.341097 
L 202.478617 202.225078 
L 202.478617 202.145461 
L 202.478617 202.204932 
L 206.290347 202.031468 
L 206.290347 201.971755 
L 206.290347 202.030261 
L 209.149144 201.896681 
L 209.149144 201.836968 
L 209.149144 201.886383 
L 212.960874 201.791527 
L 212.960874 200.975456 
L 212.960874 201.110295 
L 214.866739 201.06157 
L 214.866739 201.061948 
L 214.866739 202.256198 
L 215.819672 202.236294 
L 215.819672 201.042044 
L 215.819672 201.061279 
L 219.631402 200.882919 
L 219.631402 200.863015 
L 219.631402 200.920988 
L 222.4902 200.757587 
L 222.4902 200.638162 
L 222.4902 200.66704 
L 226.30193 200.507776 
L 226.30193 200.467967 
L 226.30193 200.532628 
L 228.207795 200.394324 
L 228.207795 200.354516 
L 228.207795 200.583368 
L 229.160727 200.344518 
L 229.160727 200.06586 
L 229.160727 200.286242 
L 230.11366 200.253834 
L 230.11366 200.214026 
L 230.11366 200.094601 
L 230.11366 200.237341 
L 231.066592 200.098129 
L 231.066592 200.078224 
L 231.066592 200.081728 
L 233.92539 199.922924 
L 233.92539 199.843308 
L 233.92539 199.889972 
L 235.831255 199.75839 
L 235.831255 199.698678 
L 235.831255 199.711608 
L 242.501782 199.523668 
L 242.501782 199.225106 
L 242.590866 199.369746 
L 243.1885 199.407208 
L 243.1885 199.361825 
L 243.191423 199.90007 
L 243.194423 199.423947 
L 243.454715 199.713071 
L 243.454715 199.713071 
L 244.083496 199.756536 
L 244.284406 199.946791 
L 244.285862 200.893935 
L 244.289755 199.814354 
L 245.047248 199.753056 
L 245.04748 203.27601 
L 245.148905 200.187958 
L 245.163177 200.319236 
L 245.167413 201.990129 
L 245.164115 200.218112 
L 245.261393 200.838969 
L 245.31225 200.301556 
L 245.314257 201.356673 
L 245.314312 202.49725 
L 245.372161 200.385383 
L 245.415153 200.395666 
L 246.313512 199.957774 
L 246.313512 198.425153 
L 246.313512 198.452785 
L 246.619565 198.335644 
L 246.699781 198.256663 
L 246.750141 198.1973 
L 246.860644 179.727761 
L 246.870658 179.489653 
L 246.980995 167.554181 
L 247.00108 166.328446 
L 247.090991 152.456989 
L 247.266445 152.477627 
L 247.864697 152.364627 
L 247.955214 151.20579 
L 248.025593 151.183453 
L 248.219378 149.989202 
L 248.297123 150.056797 
L 248.52832 149.937605 
L 248.638922 142.472083 
L 248.648936 142.213329 
L 248.759549 133.181052 
L 248.769542 132.962774 
L 248.880243 116.781074 
L 248.89028 115.587107 
L 249.000793 104.826273 
L 249.010808 104.350771 
L 249.121333 91.669564 
L 249.16149 88.790049 
L 249.231824 83.322628 
L 249.472881 83.284581 
L 249.583395 82.852938 
L 249.744378 82.754621 
L 249.851098 79.035811 
L 250.125243 78.996059 
L 250.125243 79.09296 
L 250.125243 79.217662 
L 250.67566 79.040083 
L 250.695789 78.940619 
L 250.81635 78.833755 
L 250.856519 78.793946 
L 252.031108 78.725577 
L 253.299765 78.565826 
L 253.410378 78.291458 
L 253.57134 78.069141 
L 255.260644 77.695726 
L 255.34107 77.556685 
L 256.79577 77.456198 
L 256.79577 77.594097 
L 256.79577 77.622197 
L 257.311346 77.520056 
L 257.492216 77.241207 
L 259.654568 77.19703 
L 259.654568 77.336309 
L 259.654568 77.85071 
L 260.266794 77.618156 
L 260.407528 76.953761 
L 262.513365 76.331167 
L 262.513365 76.369 
L 262.513365 76.52568 
L 262.578096 76.520734 
L 262.819329 76.32226 
L 262.929909 75.94288 
L 263.080746 75.830395 
L 263.466298 75.81049 
L 263.466298 75.899155 
L 263.466298 77.391968 
L 263.764266 77.194091 
L 263.844658 76.936793 
L 263.884904 76.897343 
L 263.955282 76.502214 
L 264.065928 75.653909 
L 265.302402 75.537341 
L 265.302402 75.51775 
L 265.372163 75.533084 
L 266.819826 75.371097 
L 266.960483 75.292038 
L 267.704156 75.124206 
L 268.23096 74.987223 
L 268.23096 74.991033 
L 268.23096 75.336091 
L 268.247207 75.322581 
L 268.9507 75.214756 
L 268.960803 74.920436 
L 270.438543 74.838429 
L 270.518969 74.798734 
L 273.948555 74.685299 
L 273.948555 74.850141 
L 273.948555 74.967224 
L 273.948555 74.967224 
L 274.268637 74.849335 
L 274.449518 74.804302 
L 274.811423 74.666694 
L 274.891804 74.630135 
L 274.901488 74.640585 
L 274.901488 74.981066 
L 275.365293 74.880942 
L 275.435682 74.625838 
L 275.85442 74.523215 
L 275.85442 74.569169 
L 276.324854 74.273433 
L 279.666151 74.078273 
L 279.666151 74.113529 
L 279.666151 74.434008 
L 279.975401 74.354738 
L 280.076044 73.389147 
L 280.156657 73.2971 
L 280.431684 72.884573 
L 280.914051 72.765752 
L 281.004568 72.628829 
L 281.265853 72.41116 
L 281.466873 72.313617 
L 281.572016 72.313617 
L 281.572016 72.314231 
L 281.572016 72.817338 
L 282.114305 72.381458 
L 282.214771 72.165629 
L 282.524948 72.108888 
L 282.524948 72.151631 
L 282.524948 72.393869 
L 282.524948 72.393869 
L 282.944117 72.264882 
L 283.054719 72.172917 
L 283.245978 72.037732 
L 283.346797 71.860284 
L 283.477881 71.927353 
L 283.477881 72.426117 
L 284.353784 72.259601 
L 284.430813 71.730203 
L 284.430813 71.730472 
L 286.877511 71.590569 
L 287.159024 71.431916 
L 287.621637 71.33009 
L 287.843061 71.253409 
L 288.242543 71.199258 
L 288.242543 71.311354 
L 288.242543 71.397183 
L 288.768123 71.301108 
L 288.768134 71.182449 
L 289.522506 71.080176 
L 289.723736 71.021699 
L 290.148408 70.902669 
L 290.148408 70.921584 
L 290.148408 71.099848 
L 290.455012 70.972562 
L 290.535526 70.750088 
L 291.101341 70.538691 
L 291.101341 70.54386 
L 291.101341 70.743879 
L 291.540859 70.738876 
L 291.651483 70.559439 
L 293.007206 70.624149 
L 293.431801 69.901704 
L 293.502146 69.862074 
L 295.57462 69.518709 
L 295.614866 69.479259 
L 297.349589 69.381582 
L 298.19439 69.255973 
L 300.125865 69.14659 
L 300.529373 69.067035 
L 300.630666 69.075798 
L 300.630666 69.264731 
L 300.649956 69.261447 
L 301.132875 69.116956 
L 301.173132 69.016512 
L 301.583598 68.98165 
L 301.583598 69.051808 
L 301.583598 69.119248 
L 301.635613 69.118832 
L 302.14852 69.01778 
L 302.188688 68.925148 
L 302.536531 68.88399 
L 302.536531 68.900442 
L 303.489463 68.827144 
L 303.489463 68.707719 
L 303.489463 68.835143 
L 306.348261 68.650716 
L 306.348261 68.689264 
L 306.348261 68.872259 
L 307.207466 68.482701 
L 307.301193 68.363522 
L 307.301193 68.517459 
L 307.620327 68.318417 
L 307.690672 68.159844 
L 308.254126 67.995774 
L 308.254126 67.796733 
L 308.254126 68.243582 
L 308.556605 68.124336 
L 308.556638 67.766061 
L 308.838691 67.662714 
L 309.502721 67.335832 
L 309.593283 67.240069 
L 309.794226 67.127176 
L 310.159991 66.66938 
L 310.159991 66.410626 
L 310.159991 66.696599 
L 311.112924 66.676695 
L 311.112924 66.537366 
L 311.112924 66.539449 
L 313.018789 66.362807 
L 313.018789 66.084148 
L 313.018789 66.330673 
L 313.971721 66.251056 
L 313.971721 65.932589 
L 313.971721 65.977859 
L 314.924654 65.878338 
L 314.924654 65.739009 
L 314.924654 65.912971 
L 315.877586 65.833355 
L 315.877586 65.694025 
L 315.877586 65.706343 
L 316.830519 65.626727 
L 316.830519 65.447589 
L 316.830519 65.52245 
L 318.736384 65.381628 
L 318.736384 65.361724 
L 318.736384 65.362445 
L 319.689316 65.043978 
L 319.689316 65.024074 
L 319.689316 65.287553 
L 320.642249 64.929278 
L 320.642249 64.955409 
L 321.595181 64.756368 
L 321.595181 64.33838 
L 321.595181 64.430531 
L 322.548114 64.211585 
L 322.548114 63.773693 
L 322.548114 63.940789 
L 324.453979 63.705307 
L 324.453979 63.705569 
L 326.359844 63.58689 
L 326.359844 63.48737 
L 326.359844 63.570077 
L 329.218641 63.11293 
L 329.218641 63.033314 
L 329.218641 63.301424 
L 330.116813 63.197183 
L 330.171574 63.018371 
L 330.171574 63.177223 
L 330.468748 63.137632 
L 330.720315 62.962986 
L 333.030371 62.899302 
L 333.030371 62.957593 
L 333.030371 63.000671 
L 333.12594 62.99723 
L 333.930319 62.882086 
L 333.983304 62.862182 
L 333.983304 61.448986 
L 333.983304 63.322123 
L 334.302371 63.203467 
L 334.402925 63.164017 
L 334.463421 63.027646 
L 334.493685 62.862805 
L 334.936236 62.76207 
L 334.936236 62.867845 
L 335.358615 62.802691 
L 335.52026 62.527896 
L 336.183927 62.42428 
L 336.274346 62.305437 
L 337.159635 62.050376 
L 337.23008 61.971353 
L 337.54179 61.771823 
L 337.795034 61.675075 
L 337.795034 61.676167 
L 339.700899 61.618887 
L 339.700899 61.649937 
L 339.700899 61.836462 
L 340.015841 61.817423 
L 340.116439 61.348428 
L 340.357772 61.072131 
L 340.653831 61.012418 
L 340.653831 60.813377 
L 340.653831 61.059512 
L 341.606764 60.842494 
L 341.606764 60.802686 
L 341.606764 61.914555 
L 342.059583 61.851946 
L 342.220479 60.916709 
L 342.559697 60.82396 
L 342.559697 60.804056 
L 342.559697 60.861898 
L 343.885916 60.724676 
L 346.371427 60.547698 
L 346.371427 60.288944 
L 346.371427 60.575557 
L 346.837194 60.463043 
L 347.169585 60.330344 
L 347.324359 60.231309 
L 347.324359 60.296658 
L 347.642908 60.244695 
L 347.91424 60.067321 
L 348.277292 59.992146 
L 348.277292 60.134744 
L 348.277292 60.148417 
L 348.578094 60.030477 
L 348.668545 59.684779 
L 350.492143 59.112353 
L 350.492143 58.954652 
L 351.065535 58.909821 
L 351.136089 58.909821 
L 351.136089 59.008333 
L 351.136089 59.024938 
L 352.05311 58.921624 
L 352.089022 58.90172 
L 352.089022 58.908626 
L 353.041954 58.808029 
L 353.041954 58.936949 
L 353.041954 59.188437 
L 353.785451 59.01857 
L 353.795455 58.730379 
L 354.087015 58.585748 
L 354.947819 58.385948 
L 354.947819 58.390644 
L 354.947819 58.711807 
L 355.042649 58.708934 
L 355.254622 58.681933 
L 355.446079 58.360422 
L 355.688636 58.270674 
L 356.478688 58.1628 
L 356.853684 58.143141 
L 356.853684 58.176062 
L 356.853684 58.777338 
L 357.243173 58.619455 
L 357.303515 58.145071 
L 358.56722 58.038597 
L 359.712482 58.018785 
L 359.712482 57.89936 
L 359.712482 58.093081 
L 360.289723 57.986445 
L 360.665414 57.962118 
L 360.665414 57.989181 
L 360.665414 60.888378 
L 361.43783 60.820634 
L 361.4479 58.068555 
L 362.955982 57.990093 
L 363.524212 57.901336 
L 363.524212 57.781911 
L 363.524212 58.096739 
L 364.154669 58.092877 
L 364.477144 57.796795 
L 364.477144 57.796989 
L 366.383009 57.757188 
L 366.383009 56.722171 
L 366.383009 57.541175 
L 367.335942 57.362038 
L 367.335942 56.84453 
L 367.335942 56.960091 
L 368.288874 56.681433 
L 368.288874 56.581912 
L 368.288874 56.646603 
L 369.241807 56.527178 
L 369.241807 56.148999 
L 369.241807 56.44671 
L 370.194739 56.34719 
L 370.194739 56.187956 
L 370.194739 56.383369 
L 373.053537 55.991599 
L 373.053537 55.37457 
L 373.053537 55.998501 
L 374.00647 55.859172 
L 374.00647 55.874138 
L 374.959402 55.655192 
L 374.959402 55.555672 
L 374.959402 55.632099 
L 376.865267 55.504662 
L 376.865267 55.245908 
L 376.865267 55.421974 
L 379.724065 55.347993 
L 379.724065 54.531922 
L 379.724065 54.763786 
L 380.676997 54.743882 
L 380.676997 54.385607 
L 380.676997 54.444091 
L 381.62993 54.364474 
L 381.62993 54.085816 
L 381.62993 54.33817 
L 382.582862 54.218745 
L 382.582862 54.079416 
L 382.582862 54.166518 
L 383.535795 54.047093 
L 383.535795 53.947572 
L 383.535795 54.049996 
L 385.44166 54.01042 
L 385.44166 53.811378 
L 385.44166 54.024683 
L 386.394592 53.964971 
L 386.394592 53.706216 
L 386.394592 53.939915 
L 387.347525 53.860298 
L 387.347525 53.701065 
L 387.347525 53.825809 
L 389.25339 53.666948 
L 389.25339 53.807208 
L 389.25339 53.843062 
L 390.206322 53.803254 
L 390.206322 53.524596 
L 390.206322 53.594852 
L 392.112187 53.576936 
L 392.112187 53.577166 
L 393.06512 53.338316 
L 393.06512 53.059658 
L 393.06512 53.294716 
L 394.018052 53.115579 
L 394.018052 52.717495 
L 394.018052 52.787063 
L 394.970985 52.647734 
L 394.970985 52.289459 
L 394.970985 52.393032 
L 395.923917 52.273607 
L 395.923917 52.154182 
L 395.923917 52.214224 
L 397.829782 52.159058 
L 397.829782 52.196677 
" style="fill:none;stroke:#008000;stroke-linecap:square;stroke-width:1.5;"/>
   </g>
   <g id="line2d_28">
    <defs>
     <path d="M 0 3 
C 0.795609 3 1.55874 2.683901 2.12132 2.12132 
C 2.683901 1.55874 3 0.795609 3 0 
C 3 -0.795609 2.683901 -1.55874 2.12132 -2.12132 
C 1.55874 -2.683901 0.795609 -3 0 -3 
C -0.795609 -3 -1.55874 -2.683901 -2.12132 -2.12132 
C -2.683901 -1.55874 -3 -0.795609 -3 0 
C -3 0.795609 -2.683901 1.55874 -2.12132 2.12132 
C -1.55874 2.683901 -0.795609 3 0 3 
z
" id="m24dc561d4b" style="stroke:#bfbf00;"/>
    </defs>
    <g clip-path="url(#pfe52ac88eb)">
     <use style="fill:#bfbf00;stroke:#bfbf00;" x="76.724922" xlink:href="#m24dc561d4b" y="255.845733"/>
     <use style="fill:#bfbf00;stroke:#bfbf00;" x="79.965852" xlink:href="#m24dc561d4b" y="225.989478"/>
     <use style="fill:#bfbf00;stroke:#bfbf00;" x="246.749203" xlink:href="#m24dc561d4b" y="216.037392"/>
     <use style="fill:#bfbf00;stroke:#bfbf00;" x="248.559775" xlink:href="#m24dc561d4b" y="216.037392"/>
     <use style="fill:#bfbf00;stroke:#bfbf00;" x="248.918867" xlink:href="#m24dc561d4b" y="255.845733"/>
     <use style="fill:#bfbf00;stroke:#bfbf00;" x="248.985749" xlink:href="#m24dc561d4b" y="255.845733"/>
     <use style="fill:#bfbf00;stroke:#bfbf00;" x="249.745305" xlink:href="#m24dc561d4b" y="261.816984"/>
    </g>
   </g>
   <g id="line2d_29">
    <defs>
     <path d="M 0 3 
C 0.795609 3 1.55874 2.683901 2.12132 2.12132 
C 2.683901 1.55874 3 0.795609 3 0 
C 3 -0.795609 2.683901 -1.55874 2.12132 -2.12132 
C 1.55874 -2.683901 0.795609 -3 0 -3 
C -0.795609 -3 -1.55874 -2.683901 -2.12132 -2.12132 
C -2.683901 -1.55874 -3 -0.795609 -3 0 
C -3 0.795609 -2.683901 1.55874 -2.12132 2.12132 
C -1.55874 2.683901 -0.795609 3 0 3 
z
" id="mf58132a14b" style="stroke:#008000;"/>
    </defs>
    <g clip-path="url(#pfe52ac88eb)">
     <use style="fill:#008000;stroke:#008000;" x="122.035274" xlink:href="#mf58132a14b" y="257.320234"/>
     <use style="fill:#008000;stroke:#008000;" x="213.517016" xlink:href="#mf58132a14b" y="263.812775"/>
    </g>
   </g>
   <g id="patch_3">
    <path d="M 57.6 276.48 
L 57.6 41.472 
" style="fill:none;stroke:#000000;stroke-linecap:square;stroke-linejoin:miter;stroke-width:0.8;"/>
   </g>
   <g id="patch_4">
    <path d="M 414.72 276.48 
L 414.72 41.472 
" style="fill:none;stroke:#000000;stroke-linecap:square;stroke-linejoin:miter;stroke-width:0.8;"/>
   </g>
   <g id="patch_5">
    <path d="M 57.6 276.48 
L 414.72 276.48 
" style="fill:none;stroke:#000000;stroke-linecap:square;stroke-linejoin:miter;stroke-width:0.8;"/>
   </g>
   <g id="patch_6">
    <path d="M 57.6 41.472 
L 414.72 41.472 
" style="fill:none;stroke:#000000;stroke-linecap:square;stroke-linejoin:miter;stroke-width:0.8;"/>
   </g>
   <g id="text_15">
    <!-- My Bondora earnings -->
    <defs>
     <path d="M 9.8125 72.90625 
L 24.515625 72.90625 
L 43.109375 23.296875 
L 61.8125 72.90625 
L 76.515625 72.90625 
L 76.515625 0 
L 66.890625 0 
L 66.890625 64.015625 
L 48.09375 14.015625 
L 38.1875 14.015625 
L 19.390625 64.015625 
L 19.390625 0 
L 9.8125 0 
z
" id="DejaVuSans-4d"/>
     <path d="M 32.171875 -5.078125 
Q 28.375 -14.84375 24.75 -17.8125 
Q 21.140625 -20.796875 15.09375 -20.796875 
L 7.90625 -20.796875 
L 7.90625 -13.28125 
L 13.1875 -13.28125 
Q 16.890625 -13.28125 18.9375 -11.515625 
Q 21 -9.765625 23.484375 -3.21875 
L 25.09375 0.875 
L 2.984375 54.6875 
L 12.5 54.6875 
L 29.59375 11.921875 
L 46.6875 54.6875 
L 56.203125 54.6875 
z
" id="DejaVuSans-79"/>
     <path id="DejaVuSans-20"/>
     <path d="M 19.671875 34.8125 
L 19.671875 8.109375 
L 35.5 8.109375 
Q 43.453125 8.109375 47.28125 11.40625 
Q 51.125 14.703125 51.125 21.484375 
Q 51.125 28.328125 47.28125 31.5625 
Q 43.453125 34.8125 35.5 34.8125 
z
M 19.671875 64.796875 
L 19.671875 42.828125 
L 34.28125 42.828125 
Q 41.5 42.828125 45.03125 45.53125 
Q 48.578125 48.25 48.578125 53.8125 
Q 48.578125 59.328125 45.03125 62.0625 
Q 41.5 64.796875 34.28125 64.796875 
z
M 9.8125 72.90625 
L 35.015625 72.90625 
Q 46.296875 72.90625 52.390625 68.21875 
Q 58.5 63.53125 58.5 54.890625 
Q 58.5 48.1875 55.375 44.234375 
Q 52.25 40.28125 46.1875 39.3125 
Q 53.46875 37.75 57.5 32.78125 
Q 61.53125 27.828125 61.53125 20.40625 
Q 61.53125 10.640625 54.890625 5.3125 
Q 48.25 0 35.984375 0 
L 9.8125 0 
z
" id="DejaVuSans-42"/>
     <path d="M 30.609375 48.390625 
Q 23.390625 48.390625 19.1875 42.75 
Q 14.984375 37.109375 14.984375 27.296875 
Q 14.984375 17.484375 19.15625 11.84375 
Q 23.34375 6.203125 30.609375 6.203125 
Q 37.796875 6.203125 41.984375 11.859375 
Q 46.1875 17.53125 46.1875 27.296875 
Q 46.1875 37.015625 41.984375 42.703125 
Q 37.796875 48.390625 30.609375 48.390625 
z
M 30.609375 56 
Q 42.328125 56 49.015625 48.375 
Q 55.71875 40.765625 55.71875 27.296875 
Q 55.71875 13.875 49.015625 6.21875 
Q 42.328125 -1.421875 30.609375 -1.421875 
Q 18.84375 -1.421875 12.171875 6.21875 
Q 5.515625 13.875 5.515625 27.296875 
Q 5.515625 40.765625 12.171875 48.375 
Q 18.84375 56 30.609375 56 
z
" id="DejaVuSans-6f"/>
     <path d="M 54.890625 33.015625 
L 54.890625 0 
L 45.90625 0 
L 45.90625 32.71875 
Q 45.90625 40.484375 42.875 44.328125 
Q 39.84375 48.1875 33.796875 48.1875 
Q 26.515625 48.1875 22.3125 43.546875 
Q 18.109375 38.921875 18.109375 30.90625 
L 18.109375 0 
L 9.078125 0 
L 9.078125 54.6875 
L 18.109375 54.6875 
L 18.109375 46.1875 
Q 21.34375 51.125 25.703125 53.5625 
Q 30.078125 56 35.796875 56 
Q 45.21875 56 50.046875 50.171875 
Q 54.890625 44.34375 54.890625 33.015625 
z
" id="DejaVuSans-6e"/>
     <path d="M 41.109375 46.296875 
Q 39.59375 47.171875 37.8125 47.578125 
Q 36.03125 48 33.890625 48 
Q 26.265625 48 22.1875 43.046875 
Q 18.109375 38.09375 18.109375 28.8125 
L 18.109375 0 
L 9.078125 0 
L 9.078125 54.6875 
L 18.109375 54.6875 
L 18.109375 46.1875 
Q 20.953125 51.171875 25.484375 53.578125 
Q 30.03125 56 36.53125 56 
Q 37.453125 56 38.578125 55.875 
Q 39.703125 55.765625 41.0625 55.515625 
z
" id="DejaVuSans-72"/>
     <path d="M 9.421875 54.6875 
L 18.40625 54.6875 
L 18.40625 0 
L 9.421875 0 
z
M 9.421875 75.984375 
L 18.40625 75.984375 
L 18.40625 64.59375 
L 9.421875 64.59375 
z
" id="DejaVuSans-69"/>
     <path d="M 45.40625 27.984375 
Q 45.40625 37.75 41.375 43.109375 
Q 37.359375 48.484375 30.078125 48.484375 
Q 22.859375 48.484375 18.828125 43.109375 
Q 14.796875 37.75 14.796875 27.984375 
Q 14.796875 18.265625 18.828125 12.890625 
Q 22.859375 7.515625 30.078125 7.515625 
Q 37.359375 7.515625 41.375 12.890625 
Q 45.40625 18.265625 45.40625 27.984375 
z
M 54.390625 6.78125 
Q 54.390625 -7.171875 48.1875 -13.984375 
Q 42 -20.796875 29.203125 -20.796875 
Q 24.46875 -20.796875 20.265625 -20.09375 
Q 16.0625 -19.390625 12.109375 -17.921875 
L 12.109375 -9.1875 
Q 16.0625 -11.328125 19.921875 -12.34375 
Q 23.78125 -13.375 27.78125 -13.375 
Q 36.625 -13.375 41.015625 -8.765625 
Q 45.40625 -4.15625 45.40625 5.171875 
L 45.40625 9.625 
Q 42.625 4.78125 38.28125 2.390625 
Q 33.9375 0 27.875 0 
Q 17.828125 0 11.671875 7.65625 
Q 5.515625 15.328125 5.515625 27.984375 
Q 5.515625 40.671875 11.671875 48.328125 
Q 17.828125 56 27.875 56 
Q 33.9375 56 38.28125 53.609375 
Q 42.625 51.21875 45.40625 46.390625 
L 45.40625 54.6875 
L 54.390625 54.6875 
z
" id="DejaVuSans-67"/>
     <path d="M 44.28125 53.078125 
L 44.28125 44.578125 
Q 40.484375 46.53125 36.375 47.5 
Q 32.28125 48.484375 27.875 48.484375 
Q 21.1875 48.484375 17.84375 46.4375 
Q 14.5 44.390625 14.5 40.28125 
Q 14.5 37.15625 16.890625 35.375 
Q 19.28125 33.59375 26.515625 31.984375 
L 29.59375 31.296875 
Q 39.15625 29.25 43.1875 25.515625 
Q 47.21875 21.78125 47.21875 15.09375 
Q 47.21875 7.46875 41.1875 3.015625 
Q 35.15625 -1.421875 24.609375 -1.421875 
Q 20.21875 -1.421875 15.453125 -0.5625 
Q 10.6875 0.296875 5.421875 2 
L 5.421875 11.28125 
Q 10.40625 8.6875 15.234375 7.390625 
Q 20.0625 6.109375 24.8125 6.109375 
Q 31.15625 6.109375 34.5625 8.28125 
Q 37.984375 10.453125 37.984375 14.40625 
Q 37.984375 18.0625 35.515625 20.015625 
Q 33.0625 21.96875 24.703125 23.78125 
L 21.578125 24.515625 
Q 13.234375 26.265625 9.515625 29.90625 
Q 5.8125 33.546875 5.8125 39.890625 
Q 5.8125 47.609375 11.28125 51.796875 
Q 16.75 56 26.8125 56 
Q 31.78125 56 36.171875 55.265625 
Q 40.578125 54.546875 44.28125 53.078125 
z
" id="DejaVuSans-73"/>
    </defs>
    <g transform="translate(172.363125 35.472)scale(0.12 -0.12)">
     <use xlink:href="#DejaVuSans-4d"/>
     <use x="86.279297" xlink:href="#DejaVuSans-79"/>
     <use x="145.458984" xlink:href="#DejaVuSans-20"/>
     <use x="177.246094" xlink:href="#DejaVuSans-42"/>
     <use x="245.849609" xlink:href="#DejaVuSans-6f"/>
     <use x="307.03125" xlink:href="#DejaVuSans-6e"/>
     <use x="370.410156" xlink:href="#DejaVuSans-64"/>
     <use x="433.886719" xlink:href="#DejaVuSans-6f"/>
     <use x="495.068359" xlink:href="#DejaVuSans-72"/>
     <use x="536.181641" xlink:href="#DejaVuSans-61"/>
     <use x="597.460938" xlink:href="#DejaVuSans-20"/>
     <use x="629.248047" xlink:href="#DejaVuSans-65"/>
     <use x="690.771484" xlink:href="#DejaVuSans-61"/>
     <use x="752.050781" xlink:href="#DejaVuSans-72"/>
     <use x="793.148438" xlink:href="#DejaVuSans-6e"/>
     <use x="856.527344" xlink:href="#DejaVuSans-69"/>
     <use x="884.310547" xlink:href="#DejaVuSans-6e"/>
     <use x="947.689453" xlink:href="#DejaVuSans-67"/>
     <use x="1011.166016" xlink:href="#DejaVuSans-73"/>
    </g>
   </g>
   <g id="legend_1">
    <g id="patch_7">
     <path d="M 64.6 122.862625 
L 158.45 122.862625 
Q 160.45 122.862625 160.45 120.862625 
L 160.45 48.472 
Q 160.45 46.472 158.45 46.472 
L 64.6 46.472 
Q 62.6 46.472 62.6 48.472 
L 62.6 120.862625 
Q 62.6 122.862625 64.6 122.862625 
z
" style="fill:#ffffff;opacity:0.8;stroke:#cccccc;stroke-linejoin:miter;"/>
    </g>
    <g id="line2d_30">
     <path d="M 66.6 54.570437 
L 86.6 54.570437 
" style="fill:none;stroke:#0000ff;stroke-linecap:square;stroke-width:1.5;"/>
    </g>
    <g id="line2d_31"/>
    <g id="text_16">
     <!-- Interest -->
     <defs>
      <path d="M 9.8125 72.90625 
L 19.671875 72.90625 
L 19.671875 0 
L 9.8125 0 
z
" id="DejaVuSans-49"/>
     </defs>
     <g transform="translate(94.6 58.070437)scale(0.1 -0.1)">
      <use xlink:href="#DejaVuSans-49"/>
      <use x="29.492188" xlink:href="#DejaVuSans-6e"/>
      <use x="92.871094" xlink:href="#DejaVuSans-74"/>
      <use x="132.080078" xlink:href="#DejaVuSans-65"/>
      <use x="193.603516" xlink:href="#DejaVuSans-72"/>
      <use x="234.685547" xlink:href="#DejaVuSans-65"/>
      <use x="296.208984" xlink:href="#DejaVuSans-73"/>
      <use x="348.308594" xlink:href="#DejaVuSans-74"/>
     </g>
    </g>
    <g id="line2d_32">
     <path d="M 66.6 69.248562 
L 86.6 69.248562 
" style="fill:none;stroke:#ff0000;stroke-linecap:square;stroke-width:1.5;"/>
    </g>
    <g id="line2d_33"/>
    <g id="text_17">
     <!-- Balance -->
     <defs>
      <path d="M 9.421875 75.984375 
L 18.40625 75.984375 
L 18.40625 0 
L 9.421875 0 
z
" id="DejaVuSans-6c"/>
      <path d="M 48.78125 52.59375 
L 48.78125 44.1875 
Q 44.96875 46.296875 41.140625 47.34375 
Q 37.3125 48.390625 33.40625 48.390625 
Q 24.65625 48.390625 19.8125 42.84375 
Q 14.984375 37.3125 14.984375 27.296875 
Q 14.984375 17.28125 19.8125 11.734375 
Q 24.65625 6.203125 33.40625 6.203125 
Q 37.3125 6.203125 41.140625 7.25 
Q 44.96875 8.296875 48.78125 10.40625 
L 48.78125 2.09375 
Q 45.015625 0.34375 40.984375 -0.53125 
Q 36.96875 -1.421875 32.421875 -1.421875 
Q 20.0625 -1.421875 12.78125 6.34375 
Q 5.515625 14.109375 5.515625 27.296875 
Q 5.515625 40.671875 12.859375 48.328125 
Q 20.21875 56 33.015625 56 
Q 37.15625 56 41.109375 55.140625 
Q 45.0625 54.296875 48.78125 52.59375 
z
" id="DejaVuSans-63"/>
     </defs>
     <g transform="translate(94.6 72.748562)scale(0.1 -0.1)">
      <use xlink:href="#DejaVuSans-42"/>
      <use x="68.603516" xlink:href="#DejaVuSans-61"/>
      <use x="129.882812" xlink:href="#DejaVuSans-6c"/>
      <use x="157.666016" xlink:href="#DejaVuSans-61"/>
      <use x="218.945312" xlink:href="#DejaVuSans-6e"/>
      <use x="282.324219" xlink:href="#DejaVuSans-63"/>
      <use x="337.304688" xlink:href="#DejaVuSans-65"/>
     </g>
    </g>
    <g id="line2d_34">
     <path d="M 66.6 83.926687 
L 86.6 83.926687 
" style="fill:none;stroke:#008000;stroke-linecap:square;stroke-width:1.5;"/>
    </g>
    <g id="line2d_35"/>
    <g id="text_18">
     <!-- Investments -->
     <defs>
      <path d="M 2.984375 54.6875 
L 12.5 54.6875 
L 29.59375 8.796875 
L 46.6875 54.6875 
L 56.203125 54.6875 
L 35.6875 0 
L 23.484375 0 
z
" id="DejaVuSans-76"/>
      <path d="M 52 44.1875 
Q 55.375 50.25 60.0625 53.125 
Q 64.75 56 71.09375 56 
Q 79.640625 56 84.28125 50.015625 
Q 88.921875 44.046875 88.921875 33.015625 
L 88.921875 0 
L 79.890625 0 
L 79.890625 32.71875 
Q 79.890625 40.578125 77.09375 44.375 
Q 74.3125 48.1875 68.609375 48.1875 
Q 61.625 48.1875 57.5625 43.546875 
Q 53.515625 38.921875 53.515625 30.90625 
L 53.515625 0 
L 44.484375 0 
L 44.484375 32.71875 
Q 44.484375 40.625 41.703125 44.40625 
Q 38.921875 48.1875 33.109375 48.1875 
Q 26.21875 48.1875 22.15625 43.53125 
Q 18.109375 38.875 18.109375 30.90625 
L 18.109375 0 
L 9.078125 0 
L 9.078125 54.6875 
L 18.109375 54.6875 
L 18.109375 46.1875 
Q 21.1875 51.21875 25.484375 53.609375 
Q 29.78125 56 35.6875 56 
Q 41.65625 56 45.828125 52.96875 
Q 50 49.953125 52 44.1875 
z
" id="DejaVuSans-6d"/>
     </defs>
     <g transform="translate(94.6 87.426687)scale(0.1 -0.1)">
      <use xlink:href="#DejaVuSans-49"/>
      <use x="29.492188" xlink:href="#DejaVuSans-6e"/>
      <use x="92.871094" xlink:href="#DejaVuSans-76"/>
      <use x="152.050781" xlink:href="#DejaVuSans-65"/>
      <use x="213.574219" xlink:href="#DejaVuSans-73"/>
      <use x="265.673828" xlink:href="#DejaVuSans-74"/>
      <use x="304.882812" xlink:href="#DejaVuSans-6d"/>
      <use x="402.294922" xlink:href="#DejaVuSans-65"/>
      <use x="463.818359" xlink:href="#DejaVuSans-6e"/>
      <use x="527.197266" xlink:href="#DejaVuSans-74"/>
      <use x="566.40625" xlink:href="#DejaVuSans-73"/>
     </g>
    </g>
    <g id="line2d_36"/>
    <g id="line2d_37">
     <g>
      <use style="fill:#bfbf00;stroke:#bfbf00;" x="76.6" xlink:href="#m24dc561d4b" y="98.604812"/>
     </g>
    </g>
    <g id="text_19">
     <!-- Deposits -->
     <defs>
      <path d="M 19.671875 64.796875 
L 19.671875 8.109375 
L 31.59375 8.109375 
Q 46.6875 8.109375 53.6875 14.9375 
Q 60.6875 21.78125 60.6875 36.53125 
Q 60.6875 51.171875 53.6875 57.984375 
Q 46.6875 64.796875 31.59375 64.796875 
z
M 9.8125 72.90625 
L 30.078125 72.90625 
Q 51.265625 72.90625 61.171875 64.09375 
Q 71.09375 55.28125 71.09375 36.53125 
Q 71.09375 17.671875 61.125 8.828125 
Q 51.171875 0 30.078125 0 
L 9.8125 0 
z
" id="DejaVuSans-44"/>
      <path d="M 18.109375 8.203125 
L 18.109375 -20.796875 
L 9.078125 -20.796875 
L 9.078125 54.6875 
L 18.109375 54.6875 
L 18.109375 46.390625 
Q 20.953125 51.265625 25.265625 53.625 
Q 29.59375 56 35.59375 56 
Q 45.5625 56 51.78125 48.09375 
Q 58.015625 40.1875 58.015625 27.296875 
Q 58.015625 14.40625 51.78125 6.484375 
Q 45.5625 -1.421875 35.59375 -1.421875 
Q 29.59375 -1.421875 25.265625 0.953125 
Q 20.953125 3.328125 18.109375 8.203125 
z
M 48.6875 27.296875 
Q 48.6875 37.203125 44.609375 42.84375 
Q 40.53125 48.484375 33.40625 48.484375 
Q 26.265625 48.484375 22.1875 42.84375 
Q 18.109375 37.203125 18.109375 27.296875 
Q 18.109375 17.390625 22.1875 11.75 
Q 26.265625 6.109375 33.40625 6.109375 
Q 40.53125 6.109375 44.609375 11.75 
Q 48.6875 17.390625 48.6875 27.296875 
z
" id="DejaVuSans-70"/>
     </defs>
     <g transform="translate(94.6 102.104812)scale(0.1 -0.1)">
      <use xlink:href="#DejaVuSans-44"/>
      <use x="77.001953" xlink:href="#DejaVuSans-65"/>
      <use x="138.525391" xlink:href="#DejaVuSans-70"/>
      <use x="202.001953" xlink:href="#DejaVuSans-6f"/>
      <use x="263.183594" xlink:href="#DejaVuSans-73"/>
      <use x="315.283203" xlink:href="#DejaVuSans-69"/>
      <use x="343.066406" xlink:href="#DejaVuSans-74"/>
      <use x="382.275391" xlink:href="#DejaVuSans-73"/>
     </g>
    </g>
    <g id="line2d_38"/>
    <g id="line2d_39">
     <g>
      <use style="fill:#008000;stroke:#008000;" x="76.6" xlink:href="#mf58132a14b" y="113.282937"/>
     </g>
    </g>
    <g id="text_20">
     <!-- Commission -->
     <defs>
      <path d="M 64.40625 67.28125 
L 64.40625 56.890625 
Q 59.421875 61.53125 53.78125 63.8125 
Q 48.140625 66.109375 41.796875 66.109375 
Q 29.296875 66.109375 22.65625 58.46875 
Q 16.015625 50.828125 16.015625 36.375 
Q 16.015625 21.96875 22.65625 14.328125 
Q 29.296875 6.6875 41.796875 6.6875 
Q 48.140625 6.6875 53.78125 8.984375 
Q 59.421875 11.28125 64.40625 15.921875 
L 64.40625 5.609375 
Q 59.234375 2.09375 53.4375 0.328125 
Q 47.65625 -1.421875 41.21875 -1.421875 
Q 24.65625 -1.421875 15.125 8.703125 
Q 5.609375 18.84375 5.609375 36.375 
Q 5.609375 53.953125 15.125 64.078125 
Q 24.65625 74.21875 41.21875 74.21875 
Q 47.75 74.21875 53.53125 72.484375 
Q 59.328125 70.75 64.40625 67.28125 
z
" id="DejaVuSans-43"/>
     </defs>
     <g transform="translate(94.6 116.782937)scale(0.1 -0.1)">
      <use xlink:href="#DejaVuSans-43"/>
      <use x="69.824219" xlink:href="#DejaVuSans-6f"/>
      <use x="131.005859" xlink:href="#DejaVuSans-6d"/>
      <use x="228.417969" xlink:href="#DejaVuSans-6d"/>
      <use x="325.830078" xlink:href="#DejaVuSans-69"/>
      <use x="353.613281" xlink:href="#DejaVuSans-73"/>
      <use x="405.712891" xlink:href="#DejaVuSans-73"/>
      <use x="457.8125" xlink:href="#DejaVuSans-69"/>
      <use x="485.595703" xlink:href="#DejaVuSans-6f"/>
      <use x="546.777344" xlink:href="#DejaVuSans-6e"/>
     </g>
    </g>
   </g>
  </g>
 </g>
 <defs>
  <clipPath id="pfe52ac88eb">
   <rect height="235.008" width="357.12" x="57.6" y="41.472"/>
  </clipPath>
 </defs>
</svg>
