<?xml version="1.0" encoding="utf-8" standalone="no"?>
<!DOCTYPE svg PUBLIC "-//W3C//DTD SVG 1.1//EN"
  "http://www.w3.org/Graphics/SVG/1.1/DTD/svg11.dtd">
<!-- Created with matplotlib (http://matplotlib.org/) -->
<svg height="345.6pt" version="1.1" viewBox="0 0 460.8 345.6" width="460.8pt" xmlns="http://www.w3.org/2000/svg" xmlns:xlink="http://www.w3.org/1999/xlink">
 <defs>
  <style type="text/css">
*{stroke-linecap:butt;stroke-linejoin:round;}
  </style>
 </defs>
 <g id="figure_1">
  <g id="patch_1">
   <path d="M 0 345.6 
L 460.8 345.6 
L 460.8 0 
L 0 0 
z
" style="fill:#ffffff;"/>
  </g>
  <g id="axes_1">
   <g id="patch_2">
    <path d="M 57.6 276.48 
L 414.72 276.48 
L 414.72 41.472 
L 57.6 41.472 
z
" style="fill:#ffffff;"/>
   </g>
   <g id="matplotlib.axis_1">
    <g id="xtick_1">
     <g id="line2d_1">
      <path clip-path="url(#p26633f6c14)" d="M 103.707048 276.48 
L 103.707048 41.472 
" style="fill:none;stroke:#b0b0b0;stroke-linecap:square;stroke-width:0.8;"/>
     </g>
     <g id="line2d_2">
      <defs>
       <path d="M 0 0 
L 0 3.5 
" id="m59e7350825" style="stroke:#000000;stroke-width:0.8;"/>
      </defs>
      <g>
       <use style="stroke:#000000;stroke-width:0.8;" x="103.707048" xlink:href="#m59e7350825" y="276.48"/>
      </g>
     </g>
     <g id="text_1">
      <!-- 2019-02 -->
      <defs>
       <path d="M 19.1875 8.296875 
L 53.609375 8.296875 
L 53.609375 0 
L 7.328125 0 
L 7.328125 8.296875 
Q 12.9375 14.109375 22.625 23.890625 
Q 32.328125 33.6875 34.8125 36.53125 
Q 39.546875 41.84375 41.421875 45.53125 
Q 43.3125 49.21875 43.3125 52.78125 
Q 43.3125 58.59375 39.234375 62.25 
Q 35.15625 65.921875 28.609375 65.921875 
Q 23.96875 65.921875 18.8125 64.3125 
Q 13.671875 62.703125 7.8125 59.421875 
L 7.8125 69.390625 
Q 13.765625 71.78125 18.9375 73 
Q 24.125 74.21875 28.421875 74.21875 
Q 39.75 74.21875 46.484375 68.546875 
Q 53.21875 62.890625 53.21875 53.421875 
Q 53.21875 48.921875 51.53125 44.890625 
Q 49.859375 40.875 45.40625 35.40625 
Q 44.1875 33.984375 37.640625 27.21875 
Q 31.109375 20.453125 19.1875 8.296875 
z
" id="DejaVuSans-32"/>
       <path d="M 31.78125 66.40625 
Q 24.171875 66.40625 20.328125 58.90625 
Q 16.5 51.421875 16.5 36.375 
Q 16.5 21.390625 20.328125 13.890625 
Q 24.171875 6.390625 31.78125 6.390625 
Q 39.453125 6.390625 43.28125 13.890625 
Q 47.125 21.390625 47.125 36.375 
Q 47.125 51.421875 43.28125 58.90625 
Q 39.453125 66.40625 31.78125 66.40625 
z
M 31.78125 74.21875 
Q 44.046875 74.21875 50.515625 64.515625 
Q 56.984375 54.828125 56.984375 36.375 
Q 56.984375 17.96875 50.515625 8.265625 
Q 44.046875 -1.421875 31.78125 -1.421875 
Q 19.53125 -1.421875 13.0625 8.265625 
Q 6.59375 17.96875 6.59375 36.375 
Q 6.59375 54.828125 13.0625 64.515625 
Q 19.53125 74.21875 31.78125 74.21875 
z
" id="DejaVuSans-30"/>
       <path d="M 12.40625 8.296875 
L 28.515625 8.296875 
L 28.515625 63.921875 
L 10.984375 60.40625 
L 10.984375 69.390625 
L 28.421875 72.90625 
L 38.28125 72.90625 
L 38.28125 8.296875 
L 54.390625 8.296875 
L 54.390625 0 
L 12.40625 0 
z
" id="DejaVuSans-31"/>
       <path d="M 10.984375 1.515625 
L 10.984375 10.5 
Q 14.703125 8.734375 18.5 7.8125 
Q 22.3125 6.890625 25.984375 6.890625 
Q 35.75 6.890625 40.890625 13.453125 
Q 46.046875 20.015625 46.78125 33.40625 
Q 43.953125 29.203125 39.59375 26.953125 
Q 35.25 24.703125 29.984375 24.703125 
Q 19.046875 24.703125 12.671875 31.3125 
Q 6.296875 37.9375 6.296875 49.421875 
Q 6.296875 60.640625 12.9375 67.421875 
Q 19.578125 74.21875 30.609375 74.21875 
Q 43.265625 74.21875 49.921875 64.515625 
Q 56.59375 54.828125 56.59375 36.375 
Q 56.59375 19.140625 48.40625 8.859375 
Q 40.234375 -1.421875 26.421875 -1.421875 
Q 22.703125 -1.421875 18.890625 -0.6875 
Q 15.09375 0.046875 10.984375 1.515625 
z
M 30.609375 32.421875 
Q 37.25 32.421875 41.125 36.953125 
Q 45.015625 41.5 45.015625 49.421875 
Q 45.015625 57.28125 41.125 61.84375 
Q 37.25 66.40625 30.609375 66.40625 
Q 23.96875 66.40625 20.09375 61.84375 
Q 16.21875 57.28125 16.21875 49.421875 
Q 16.21875 41.5 20.09375 36.953125 
Q 23.96875 32.421875 30.609375 32.421875 
z
" id="DejaVuSans-39"/>
       <path d="M 4.890625 31.390625 
L 31.203125 31.390625 
L 31.203125 23.390625 
L 4.890625 23.390625 
z
" id="DejaVuSans-2d"/>
      </defs>
      <g transform="translate(66.482228 310.951846)rotate(-30)scale(0.1 -0.1)">
       <use xlink:href="#DejaVuSans-32"/>
       <use x="63.623047" xlink:href="#DejaVuSans-30"/>
       <use x="127.246094" xlink:href="#DejaVuSans-31"/>
       <use x="190.869141" xlink:href="#DejaVuSans-39"/>
       <use x="254.492188" xlink:href="#DejaVuSans-2d"/>
       <use x="290.576172" xlink:href="#DejaVuSans-30"/>
       <use x="354.199219" xlink:href="#DejaVuSans-32"/>
      </g>
     </g>
    </g>
    <g id="xtick_2">
     <g id="line2d_3">
      <path clip-path="url(#p26633f6c14)" d="M 160.564627 276.48 
L 160.564627 41.472 
" style="fill:none;stroke:#b0b0b0;stroke-linecap:square;stroke-width:0.8;"/>
     </g>
     <g id="line2d_4">
      <g>
       <use style="stroke:#000000;stroke-width:0.8;" x="160.564627" xlink:href="#m59e7350825" y="276.48"/>
      </g>
     </g>
     <g id="text_2">
      <!-- 2019-04 -->
      <defs>
       <path d="M 37.796875 64.3125 
L 12.890625 25.390625 
L 37.796875 25.390625 
z
M 35.203125 72.90625 
L 47.609375 72.90625 
L 47.609375 25.390625 
L 58.015625 25.390625 
L 58.015625 17.1875 
L 47.609375 17.1875 
L 47.609375 0 
L 37.796875 0 
L 37.796875 17.1875 
L 4.890625 17.1875 
L 4.890625 26.703125 
z
" id="DejaVuSans-34"/>
      </defs>
      <g transform="translate(123.339807 310.951846)rotate(-30)scale(0.1 -0.1)">
       <use xlink:href="#DejaVuSans-32"/>
       <use x="63.623047" xlink:href="#DejaVuSans-30"/>
       <use x="127.246094" xlink:href="#DejaVuSans-31"/>
       <use x="190.869141" xlink:href="#DejaVuSans-39"/>
       <use x="254.492188" xlink:href="#DejaVuSans-2d"/>
       <use x="290.576172" xlink:href="#DejaVuSans-30"/>
       <use x="354.199219" xlink:href="#DejaVuSans-34"/>
      </g>
     </g>
    </g>
    <g id="xtick_3">
     <g id="line2d_5">
      <path clip-path="url(#p26633f6c14)" d="M 219.349582 276.48 
L 219.349582 41.472 
" style="fill:none;stroke:#b0b0b0;stroke-linecap:square;stroke-width:0.8;"/>
     </g>
     <g id="line2d_6">
      <g>
       <use style="stroke:#000000;stroke-width:0.8;" x="219.349582" xlink:href="#m59e7350825" y="276.48"/>
      </g>
     </g>
     <g id="text_3">
      <!-- 2019-06 -->
      <defs>
       <path d="M 33.015625 40.375 
Q 26.375 40.375 22.484375 35.828125 
Q 18.609375 31.296875 18.609375 23.390625 
Q 18.609375 15.53125 22.484375 10.953125 
Q 26.375 6.390625 33.015625 6.390625 
Q 39.65625 6.390625 43.53125 10.953125 
Q 47.40625 15.53125 47.40625 23.390625 
Q 47.40625 31.296875 43.53125 35.828125 
Q 39.65625 40.375 33.015625 40.375 
z
M 52.59375 71.296875 
L 52.59375 62.3125 
Q 48.875 64.0625 45.09375 64.984375 
Q 41.3125 65.921875 37.59375 65.921875 
Q 27.828125 65.921875 22.671875 59.328125 
Q 17.53125 52.734375 16.796875 39.40625 
Q 19.671875 43.65625 24.015625 45.921875 
Q 28.375 48.1875 33.59375 48.1875 
Q 44.578125 48.1875 50.953125 41.515625 
Q 57.328125 34.859375 57.328125 23.390625 
Q 57.328125 12.15625 50.6875 5.359375 
Q 44.046875 -1.421875 33.015625 -1.421875 
Q 20.359375 -1.421875 13.671875 8.265625 
Q 6.984375 17.96875 6.984375 36.375 
Q 6.984375 53.65625 15.1875 63.9375 
Q 23.390625 74.21875 37.203125 74.21875 
Q 40.921875 74.21875 44.703125 73.484375 
Q 48.484375 72.75 52.59375 71.296875 
z
" id="DejaVuSans-36"/>
      </defs>
      <g transform="translate(182.124761 310.951846)rotate(-30)scale(0.1 -0.1)">
       <use xlink:href="#DejaVuSans-32"/>
       <use x="63.623047" xlink:href="#DejaVuSans-30"/>
       <use x="127.246094" xlink:href="#DejaVuSans-31"/>
       <use x="190.869141" xlink:href="#DejaVuSans-39"/>
       <use x="254.492188" xlink:href="#DejaVuSans-2d"/>
       <use x="290.576172" xlink:href="#DejaVuSans-30"/>
       <use x="354.199219" xlink:href="#DejaVuSans-36"/>
      </g>
     </g>
    </g>
    <g id="xtick_4">
     <g id="line2d_7">
      <path clip-path="url(#p26633f6c14)" d="M 278.134537 276.48 
L 278.134537 41.472 
" style="fill:none;stroke:#b0b0b0;stroke-linecap:square;stroke-width:0.8;"/>
     </g>
     <g id="line2d_8">
      <g>
       <use style="stroke:#000000;stroke-width:0.8;" x="278.134537" xlink:href="#m59e7350825" y="276.48"/>
      </g>
     </g>
     <g id="text_4">
      <!-- 2019-08 -->
      <defs>
       <path d="M 31.78125 34.625 
Q 24.75 34.625 20.71875 30.859375 
Q 16.703125 27.09375 16.703125 20.515625 
Q 16.703125 13.921875 20.71875 10.15625 
Q 24.75 6.390625 31.78125 6.390625 
Q 38.8125 6.390625 42.859375 10.171875 
Q 46.921875 13.96875 46.921875 20.515625 
Q 46.921875 27.09375 42.890625 30.859375 
Q 38.875 34.625 31.78125 34.625 
z
M 21.921875 38.8125 
Q 15.578125 40.375 12.03125 44.71875 
Q 8.5 49.078125 8.5 55.328125 
Q 8.5 64.0625 14.71875 69.140625 
Q 20.953125 74.21875 31.78125 74.21875 
Q 42.671875 74.21875 48.875 69.140625 
Q 55.078125 64.0625 55.078125 55.328125 
Q 55.078125 49.078125 51.53125 44.71875 
Q 48 40.375 41.703125 38.8125 
Q 48.828125 37.15625 52.796875 32.3125 
Q 56.78125 27.484375 56.78125 20.515625 
Q 56.78125 9.90625 50.3125 4.234375 
Q 43.84375 -1.421875 31.78125 -1.421875 
Q 19.734375 -1.421875 13.25 4.234375 
Q 6.78125 9.90625 6.78125 20.515625 
Q 6.78125 27.484375 10.78125 32.3125 
Q 14.796875 37.15625 21.921875 38.8125 
z
M 18.3125 54.390625 
Q 18.3125 48.734375 21.84375 45.5625 
Q 25.390625 42.390625 31.78125 42.390625 
Q 38.140625 42.390625 41.71875 45.5625 
Q 45.3125 48.734375 45.3125 54.390625 
Q 45.3125 60.0625 41.71875 63.234375 
Q 38.140625 66.40625 31.78125 66.40625 
Q 25.390625 66.40625 21.84375 63.234375 
Q 18.3125 60.0625 18.3125 54.390625 
z
" id="DejaVuSans-38"/>
      </defs>
      <g transform="translate(240.909716 310.951846)rotate(-30)scale(0.1 -0.1)">
       <use xlink:href="#DejaVuSans-32"/>
       <use x="63.623047" xlink:href="#DejaVuSans-30"/>
       <use x="127.246094" xlink:href="#DejaVuSans-31"/>
       <use x="190.869141" xlink:href="#DejaVuSans-39"/>
       <use x="254.492188" xlink:href="#DejaVuSans-2d"/>
       <use x="290.576172" xlink:href="#DejaVuSans-30"/>
       <use x="354.199219" xlink:href="#DejaVuSans-38"/>
      </g>
     </g>
    </g>
    <g id="xtick_5">
     <g id="line2d_9">
      <path clip-path="url(#p26633f6c14)" d="M 336.919491 276.48 
L 336.919491 41.472 
" style="fill:none;stroke:#b0b0b0;stroke-linecap:square;stroke-width:0.8;"/>
     </g>
     <g id="line2d_10">
      <g>
       <use style="stroke:#000000;stroke-width:0.8;" x="336.919491" xlink:href="#m59e7350825" y="276.48"/>
      </g>
     </g>
     <g id="text_5">
      <!-- 2019-10 -->
      <g transform="translate(299.69467 310.951846)rotate(-30)scale(0.1 -0.1)">
       <use xlink:href="#DejaVuSans-32"/>
       <use x="63.623047" xlink:href="#DejaVuSans-30"/>
       <use x="127.246094" xlink:href="#DejaVuSans-31"/>
       <use x="190.869141" xlink:href="#DejaVuSans-39"/>
       <use x="254.492188" xlink:href="#DejaVuSans-2d"/>
       <use x="290.576172" xlink:href="#DejaVuSans-31"/>
       <use x="354.199219" xlink:href="#DejaVuSans-30"/>
      </g>
     </g>
    </g>
    <g id="xtick_6">
     <g id="line2d_11">
      <path clip-path="url(#p26633f6c14)" d="M 395.704446 276.48 
L 395.704446 41.472 
" style="fill:none;stroke:#b0b0b0;stroke-linecap:square;stroke-width:0.8;"/>
     </g>
     <g id="line2d_12">
      <g>
       <use style="stroke:#000000;stroke-width:0.8;" x="395.704446" xlink:href="#m59e7350825" y="276.48"/>
      </g>
     </g>
     <g id="text_6">
      <!-- 2019-12 -->
      <g transform="translate(358.479625 310.951846)rotate(-30)scale(0.1 -0.1)">
       <use xlink:href="#DejaVuSans-32"/>
       <use x="63.623047" xlink:href="#DejaVuSans-30"/>
       <use x="127.246094" xlink:href="#DejaVuSans-31"/>
       <use x="190.869141" xlink:href="#DejaVuSans-39"/>
       <use x="254.492188" xlink:href="#DejaVuSans-2d"/>
       <use x="290.576172" xlink:href="#DejaVuSans-31"/>
       <use x="354.199219" xlink:href="#DejaVuSans-32"/>
      </g>
     </g>
    </g>
    <g id="text_7">
     <!-- date -->
     <defs>
      <path d="M 45.40625 46.390625 
L 45.40625 75.984375 
L 54.390625 75.984375 
L 54.390625 0 
L 45.40625 0 
L 45.40625 8.203125 
Q 42.578125 3.328125 38.25 0.953125 
Q 33.9375 -1.421875 27.875 -1.421875 
Q 17.96875 -1.421875 11.734375 6.484375 
Q 5.515625 14.40625 5.515625 27.296875 
Q 5.515625 40.1875 11.734375 48.09375 
Q 17.96875 56 27.875 56 
Q 33.9375 56 38.25 53.625 
Q 42.578125 51.265625 45.40625 46.390625 
z
M 14.796875 27.296875 
Q 14.796875 17.390625 18.875 11.75 
Q 22.953125 6.109375 30.078125 6.109375 
Q 37.203125 6.109375 41.296875 11.75 
Q 45.40625 17.390625 45.40625 27.296875 
Q 45.40625 37.203125 41.296875 42.84375 
Q 37.203125 48.484375 30.078125 48.484375 
Q 22.953125 48.484375 18.875 42.84375 
Q 14.796875 37.203125 14.796875 27.296875 
z
" id="DejaVuSans-64"/>
      <path d="M 34.28125 27.484375 
Q 23.390625 27.484375 19.1875 25 
Q 14.984375 22.515625 14.984375 16.5 
Q 14.984375 11.71875 18.140625 8.90625 
Q 21.296875 6.109375 26.703125 6.109375 
Q 34.1875 6.109375 38.703125 11.40625 
Q 43.21875 16.703125 43.21875 25.484375 
L 43.21875 27.484375 
z
M 52.203125 31.203125 
L 52.203125 0 
L 43.21875 0 
L 43.21875 8.296875 
Q 40.140625 3.328125 35.546875 0.953125 
Q 30.953125 -1.421875 24.3125 -1.421875 
Q 15.921875 -1.421875 10.953125 3.296875 
Q 6 8.015625 6 15.921875 
Q 6 25.140625 12.171875 29.828125 
Q 18.359375 34.515625 30.609375 34.515625 
L 43.21875 34.515625 
L 43.21875 35.40625 
Q 43.21875 41.609375 39.140625 45 
Q 35.0625 48.390625 27.6875 48.390625 
Q 23 48.390625 18.546875 47.265625 
Q 14.109375 46.140625 10.015625 43.890625 
L 10.015625 52.203125 
Q 14.9375 54.109375 19.578125 55.046875 
Q 24.21875 56 28.609375 56 
Q 40.484375 56 46.34375 49.84375 
Q 52.203125 43.703125 52.203125 31.203125 
z
" id="DejaVuSans-61"/>
      <path d="M 18.3125 70.21875 
L 18.3125 54.6875 
L 36.8125 54.6875 
L 36.8125 47.703125 
L 18.3125 47.703125 
L 18.3125 18.015625 
Q 18.3125 11.328125 20.140625 9.421875 
Q 21.96875 7.515625 27.59375 7.515625 
L 36.8125 7.515625 
L 36.8125 0 
L 27.59375 0 
Q 17.1875 0 13.234375 3.875 
Q 9.28125 7.765625 9.28125 18.015625 
L 9.28125 47.703125 
L 2.6875 47.703125 
L 2.6875 54.6875 
L 9.28125 54.6875 
L 9.28125 70.21875 
z
" id="DejaVuSans-74"/>
      <path d="M 56.203125 29.59375 
L 56.203125 25.203125 
L 14.890625 25.203125 
Q 15.484375 15.921875 20.484375 11.0625 
Q 25.484375 6.203125 34.421875 6.203125 
Q 39.59375 6.203125 44.453125 7.46875 
Q 49.3125 8.734375 54.109375 11.28125 
L 54.109375 2.78125 
Q 49.265625 0.734375 44.1875 -0.34375 
Q 39.109375 -1.421875 33.890625 -1.421875 
Q 20.796875 -1.421875 13.15625 6.1875 
Q 5.515625 13.8125 5.515625 26.8125 
Q 5.515625 40.234375 12.765625 48.109375 
Q 20.015625 56 32.328125 56 
Q 43.359375 56 49.78125 48.890625 
Q 56.203125 41.796875 56.203125 29.59375 
z
M 47.21875 32.234375 
Q 47.125 39.59375 43.09375 43.984375 
Q 39.0625 48.390625 32.421875 48.390625 
Q 24.90625 48.390625 20.390625 44.140625 
Q 15.875 39.890625 15.1875 32.171875 
z
" id="DejaVuSans-65"/>
     </defs>
     <g transform="translate(224.885 324.351346)scale(0.1 -0.1)">
      <use xlink:href="#DejaVuSans-64"/>
      <use x="63.476562" xlink:href="#DejaVuSans-61"/>
      <use x="124.755859" xlink:href="#DejaVuSans-74"/>
      <use x="163.964844" xlink:href="#DejaVuSans-65"/>
     </g>
    </g>
   </g>
   <g id="matplotlib.axis_2">
    <g id="ytick_1">
     <g id="line2d_13">
      <path clip-path="url(#p26633f6c14)" d="M 57.6 265.797818 
L 414.72 265.797818 
" style="fill:none;stroke:#b0b0b0;stroke-linecap:square;stroke-width:0.8;"/>
     </g>
     <g id="line2d_14">
      <defs>
       <path d="M 0 0 
L -3.5 0 
" id="m57864c499c" style="stroke:#000000;stroke-width:0.8;"/>
      </defs>
      <g>
       <use style="stroke:#000000;stroke-width:0.8;" x="57.6" xlink:href="#m57864c499c" y="265.797818"/>
      </g>
     </g>
     <g id="text_8">
      <!-- 0 -->
      <g transform="translate(44.2375 269.597037)scale(0.1 -0.1)">
       <use xlink:href="#DejaVuSans-30"/>
      </g>
     </g>
    </g>
    <g id="ytick_2">
     <g id="line2d_15">
      <path clip-path="url(#p26633f6c14)" d="M 57.6 225.820042 
L 414.72 225.820042 
" style="fill:none;stroke:#b0b0b0;stroke-linecap:square;stroke-width:0.8;"/>
     </g>
     <g id="line2d_16">
      <g>
       <use style="stroke:#000000;stroke-width:0.8;" x="57.6" xlink:href="#m57864c499c" y="225.820042"/>
      </g>
     </g>
     <g id="text_9">
      <!-- 2000 -->
      <g transform="translate(25.15 229.61926)scale(0.1 -0.1)">
       <use xlink:href="#DejaVuSans-32"/>
       <use x="63.623047" xlink:href="#DejaVuSans-30"/>
       <use x="127.246094" xlink:href="#DejaVuSans-30"/>
       <use x="190.869141" xlink:href="#DejaVuSans-30"/>
      </g>
     </g>
    </g>
    <g id="ytick_3">
     <g id="line2d_17">
      <path clip-path="url(#p26633f6c14)" d="M 57.6 185.842265 
L 414.72 185.842265 
" style="fill:none;stroke:#b0b0b0;stroke-linecap:square;stroke-width:0.8;"/>
     </g>
     <g id="line2d_18">
      <g>
       <use style="stroke:#000000;stroke-width:0.8;" x="57.6" xlink:href="#m57864c499c" y="185.842265"/>
      </g>
     </g>
     <g id="text_10">
      <!-- 4000 -->
      <g transform="translate(25.15 189.641484)scale(0.1 -0.1)">
       <use xlink:href="#DejaVuSans-34"/>
       <use x="63.623047" xlink:href="#DejaVuSans-30"/>
       <use x="127.246094" xlink:href="#DejaVuSans-30"/>
       <use x="190.869141" xlink:href="#DejaVuSans-30"/>
      </g>
     </g>
    </g>
    <g id="ytick_4">
     <g id="line2d_19">
      <path clip-path="url(#p26633f6c14)" d="M 57.6 145.864488 
L 414.72 145.864488 
" style="fill:none;stroke:#b0b0b0;stroke-linecap:square;stroke-width:0.8;"/>
     </g>
     <g id="line2d_20">
      <g>
       <use style="stroke:#000000;stroke-width:0.8;" x="57.6" xlink:href="#m57864c499c" y="145.864488"/>
      </g>
     </g>
     <g id="text_11">
      <!-- 6000 -->
      <g transform="translate(25.15 149.663707)scale(0.1 -0.1)">
       <use xlink:href="#DejaVuSans-36"/>
       <use x="63.623047" xlink:href="#DejaVuSans-30"/>
       <use x="127.246094" xlink:href="#DejaVuSans-30"/>
       <use x="190.869141" xlink:href="#DejaVuSans-30"/>
      </g>
     </g>
    </g>
    <g id="ytick_5">
     <g id="line2d_21">
      <path clip-path="url(#p26633f6c14)" d="M 57.6 105.886712 
L 414.72 105.886712 
" style="fill:none;stroke:#b0b0b0;stroke-linecap:square;stroke-width:0.8;"/>
     </g>
     <g id="line2d_22">
      <g>
       <use style="stroke:#000000;stroke-width:0.8;" x="57.6" xlink:href="#m57864c499c" y="105.886712"/>
      </g>
     </g>
     <g id="text_12">
      <!-- 8000 -->
      <g transform="translate(25.15 109.68593)scale(0.1 -0.1)">
       <use xlink:href="#DejaVuSans-38"/>
       <use x="63.623047" xlink:href="#DejaVuSans-30"/>
       <use x="127.246094" xlink:href="#DejaVuSans-30"/>
       <use x="190.869141" xlink:href="#DejaVuSans-30"/>
      </g>
     </g>
    </g>
    <g id="ytick_6">
     <g id="line2d_23">
      <path clip-path="url(#p26633f6c14)" d="M 57.6 65.908935 
L 414.72 65.908935 
" style="fill:none;stroke:#b0b0b0;stroke-linecap:square;stroke-width:0.8;"/>
     </g>
     <g id="line2d_24">
      <g>
       <use style="stroke:#000000;stroke-width:0.8;" x="57.6" xlink:href="#m57864c499c" y="65.908935"/>
      </g>
     </g>
     <g id="text_13">
      <!-- 10000 -->
      <g transform="translate(18.7875 69.708154)scale(0.1 -0.1)">
       <use xlink:href="#DejaVuSans-31"/>
       <use x="63.623047" xlink:href="#DejaVuSans-30"/>
       <use x="127.246094" xlink:href="#DejaVuSans-30"/>
       <use x="190.869141" xlink:href="#DejaVuSans-30"/>
       <use x="254.492188" xlink:href="#DejaVuSans-30"/>
      </g>
     </g>
    </g>
    <g id="text_14">
     <!-- EUR -->
     <defs>
      <path d="M 9.8125 72.90625 
L 55.90625 72.90625 
L 55.90625 64.59375 
L 19.671875 64.59375 
L 19.671875 43.015625 
L 54.390625 43.015625 
L 54.390625 34.71875 
L 19.671875 34.71875 
L 19.671875 8.296875 
L 56.78125 8.296875 
L 56.78125 0 
L 9.8125 0 
z
" id="DejaVuSans-45"/>
      <path d="M 8.6875 72.90625 
L 18.609375 72.90625 
L 18.609375 28.609375 
Q 18.609375 16.890625 22.84375 11.734375 
Q 27.09375 6.59375 36.625 6.59375 
Q 46.09375 6.59375 50.34375 11.734375 
Q 54.59375 16.890625 54.59375 28.609375 
L 54.59375 72.90625 
L 64.5 72.90625 
L 64.5 27.390625 
Q 64.5 13.140625 57.4375 5.859375 
Q 50.390625 -1.421875 36.625 -1.421875 
Q 22.796875 -1.421875 15.734375 5.859375 
Q 8.6875 13.140625 8.6875 27.390625 
z
" id="DejaVuSans-55"/>
      <path d="M 44.390625 34.1875 
Q 47.5625 33.109375 50.5625 29.59375 
Q 53.5625 26.078125 56.59375 19.921875 
L 66.609375 0 
L 56 0 
L 46.6875 18.703125 
Q 43.0625 26.03125 39.671875 28.421875 
Q 36.28125 30.8125 30.421875 30.8125 
L 19.671875 30.8125 
L 19.671875 0 
L 9.8125 0 
L 9.8125 72.90625 
L 32.078125 72.90625 
Q 44.578125 72.90625 50.734375 67.671875 
Q 56.890625 62.453125 56.890625 51.90625 
Q 56.890625 45.015625 53.6875 40.46875 
Q 50.484375 35.9375 44.390625 34.1875 
z
M 19.671875 64.796875 
L 19.671875 38.921875 
L 32.078125 38.921875 
Q 39.203125 38.921875 42.84375 42.21875 
Q 46.484375 45.515625 46.484375 51.90625 
Q 46.484375 58.296875 42.84375 61.546875 
Q 39.203125 64.796875 32.078125 64.796875 
z
" id="DejaVuSans-52"/>
     </defs>
     <g transform="translate(12.707813 169.268969)rotate(-90)scale(0.1 -0.1)">
      <use xlink:href="#DejaVuSans-45"/>
      <use x="63.183594" xlink:href="#DejaVuSans-55"/>
      <use x="136.376953" xlink:href="#DejaVuSans-52"/>
     </g>
    </g>
   </g>
   <g id="line2d_25">
    <path clip-path="url(#p26633f6c14)" d="M 73.832727 265.797818 
L 107.5618 265.708371 
L 107.5618 265.689492 
L 113.343926 265.539251 
L 113.343926 265.417704 
L 113.343926 265.417704 
L 115.271302 265.348156 
L 115.271302 265.311349 
L 115.271302 265.141975 
L 120.089741 264.989235 
L 120.089741 264.798451 
L 122.980804 264.675128 
L 122.980804 264.657444 
L 122.980804 264.657444 
L 127.799243 264.543639 
L 127.799243 264.522595 
L 132.617682 264.413803 
L 132.617682 264.413397 
L 133.58137 264.302816 
L 133.58137 264.119155 
L 135.508745 264.011417 
L 135.508745 263.96742 
L 137.436121 263.855376 
L 137.436121 263.809939 
L 141.290872 263.699582 
L 141.290872 263.644998 
L 142.25456 263.53302 
L 142.25456 263.479707 
L 142.25456 263.479707 
L 147.072999 263.345202 
L 147.072999 263.345202 
L 147.072999 263.236782 
L 150.92775 263.131107 
L 150.92775 263.103234 
L 157.673564 262.972408 
L 157.673564 262.953206 
L 161.528315 262.844057 
L 162.492003 262.739106 
L 162.492003 262.700584 
L 163.455691 262.591231 
L 163.455691 262.570543 
L 167.310442 262.45218 
L 167.310442 262.382665 
L 170.201505 262.260607 
L 170.201505 262.215063 
L 174.056256 262.141078 
L 174.056256 262.103962 
L 174.056256 261.883336 
L 176.94732 261.757516 
L 176.94732 261.556234 
L 181.765759 261.440334 
L 181.765759 261.430573 
L 187.547885 261.290267 
L 187.547885 261.257885 
L 191.402636 261.102824 
L 191.402636 261.102824 
L 191.402636 261.022678 
L 191.402636 261.022678 
L 194.2937 260.900234 
L 194.2937 260.834587 
L 196.221075 260.712916 
L 196.221075 260.708367 
L 201.039514 260.577802 
L 201.039514 260.577802 
L 201.039514 260.427028 
L 202.96689 260.319712 
L 202.96689 260.273239 
L 207.785329 260.114325 
L 207.785329 260.003102 
L 211.64008 259.859171 
L 211.64008 259.847326 
L 221.276958 259.72927 
L 221.276958 259.595215 
L 222.240645 259.479677 
L 222.240645 259.478542 
L 225.131709 259.344978 
L 225.131709 259.311305 
L 228.022772 259.18559 
L 228.022772 259.133592 
L 229.950148 259.033281 
L 229.950148 258.93107 
L 230.913835 258.822293 
L 230.913835 258.784763 
L 230.913835 258.784763 
L 234.768587 258.665021 
L 234.768587 258.633464 
L 234.768587 258.633464 
L 235.732274 258.522894 
L 235.732274 258.419182 
L 238.623338 258.308199 
L 238.623338 258.298937 
L 245.369152 258.175866 
L 245.369152 258.151917 
L 248.260215 258.036073 
L 248.260215 257.963182 
L 248.260215 257.963182 
L 249.223903 257.890564 
L 249.223903 257.822359 
L 250.187591 257.706596 
L 250.187591 257.20333 
L 251.151279 257.088207 
L 251.151279 256.599768 
L 252.114967 256.599768 
L 252.114967 256.49272 
L 252.114967 256.391632 
L 255.00603 256.268113 
L 255.00603 255.531599 
L 255.969718 255.42064 
L 255.969718 255.380696 
L 256.933405 255.380696 
L 256.933405 255.3329 
L 256.933405 255.038243 
L 258.860781 254.923031 
L 258.860781 254.713794 
L 258.860781 254.713794 
L 261.751844 254.600139 
L 261.751844 254.600139 
L 261.751844 254.371462 
L 262.715532 254.260251 
L 262.715532 254.128667 
L 263.67922 254.019631 
L 263.67922 253.775347 
L 264.642908 253.664739 
L 264.642908 253.227266 
L 265.606595 253.169507 
L 265.606595 252.958601 
L 268.497659 252.723629 
L 268.497659 252.657222 
L 269.461347 252.558849 
L 269.461347 252.346209 
L 272.35241 252.228704 
L 272.35241 252.157131 
L 275.243473 252.046546 
L 275.243473 252.044255 
L 277.170849 251.959429 
L 277.170849 251.865253 
L 278.134537 251.750996 
L 278.134537 251.540522 
L 279.098224 251.428557 
L 279.098224 251.400692 
L 281.989288 251.294195 
L 281.989288 251.294195 
L 281.989288 250.103952 
L 282.952976 249.992934 
L 282.952976 249.531945 
L 283.916663 249.422987 
L 283.916663 249.299481 
L 284.880351 249.299481 
L 284.880351 249.189186 
L 284.880351 249.043537 
L 285.844039 248.946142 
L 285.844039 248.88323 
L 288.735102 248.765852 
L 288.735102 248.765852 
L 288.735102 248.562481 
L 289.69879 248.454818 
L 289.69879 248.360435 
L 290.662478 248.248239 
L 290.662478 248.231314 
L 290.662478 248.231314 
L 291.626166 248.231314 
L 291.626166 248.140446 
L 291.626166 248.009668 
L 292.589853 247.899752 
L 292.589853 247.632379 
L 295.480917 247.509663 
L 295.480917 246.812994 
L 296.444604 246.812994 
L 296.444604 246.702242 
L 296.444604 246.628725 
L 297.408292 246.517767 
L 297.408292 246.482959 
L 299.335668 246.372936 
L 299.335668 246.238324 
L 302.226731 246.144203 
L 302.226731 246.034894 
L 304.154107 245.943791 
L 304.154107 245.926564 
L 304.154107 245.825474 
L 304.154107 245.825474 
L 307.04517 245.725649 
L 307.04517 245.643265 
L 308.972546 245.528603 
L 308.972546 245.380478 
L 308.972546 245.380478 
L 309.936233 245.273481 
L 309.936233 244.953096 
L 310.899921 244.829952 
L 310.899921 244.35833 
L 311.863609 244.246728 
L 311.863609 243.938889 
L 312.827297 243.827812 
L 312.827297 243.396863 
L 315.71836 243.280058 
L 315.71836 242.977636 
L 316.682048 242.868161 
L 316.682048 242.744151 
L 317.645736 242.637441 
L 317.645736 242.625215 
L 319.573111 242.517538 
L 319.573111 242.253493 
L 322.464175 242.139122 
L 322.464175 241.621501 
L 323.427862 241.510926 
L 323.427862 241.364874 
L 324.39155 241.364874 
L 324.39155 241.254654 
L 324.39155 240.917707 
L 325.355238 240.805898 
L 325.355238 240.77129 
L 326.318926 240.664133 
L 326.318926 240.580266 
L 329.209989 240.468078 
L 329.209989 240.404783 
L 330.173677 240.367239 
L 330.173677 240.132526 
L 332.101052 240.02351 
L 332.101052 239.858867 
L 334.992116 239.749847 
L 334.992116 239.748159 
L 334.992116 239.738282 
L 336.919491 239.652243 
L 336.919491 239.367476 
L 338.846867 239.256349 
L 338.846867 239.256349 
L 338.846867 238.950069 
L 339.810555 238.816744 
L 339.810555 238.330729 
L 342.701618 238.213893 
L 342.701618 237.6831 
L 343.665306 237.552161 
L 343.665306 237.423227 
L 345.592681 237.328473 
L 345.592681 237.312958 
L 345.592681 237.126753 
L 349.447432 237.013614 
L 349.447432 236.685001 
L 350.41112 236.574395 
L 350.41112 236.434903 
L 351.374808 236.319149 
L 351.374808 235.944037 
L 352.338496 235.831228 
L 352.338496 235.664296 
L 353.302183 235.555907 
L 353.302183 235.217248 
L 356.193247 235.128561 
L 356.193247 234.80973 
L 357.156935 234.698829 
L 358.120622 234.609264 
L 358.120622 234.487645 
L 359.08431 234.487645 
L 359.08431 234.378118 
L 359.08431 234.348947 
L 360.047998 234.239879 
L 360.047998 234.228455 
L 363.902749 234.114245 
L 363.902749 233.997407 
L 363.902749 233.997407 
L 365.830125 233.90785 
L 365.830125 233.865813 
L 366.793812 233.754395 
L 366.793812 233.724647 
L 369.684876 233.617362 
L 369.684876 232.842091 
L 369.684876 232.842091 
L 370.648564 232.746459 
L 370.648564 232.345592 
L 371.612251 232.246094 
L 371.612251 232.034545 
L 371.612251 232.034545 
L 372.575939 231.92346 
L 372.575939 231.806324 
L 372.575939 231.806324 
L 373.539627 231.695461 
L 373.539627 231.655095 
L 376.43069 231.539638 
L 376.43069 231.341736 
L 376.43069 231.341736 
L 378.358066 231.231882 
L 378.358066 231.033612 
L 380.285441 230.924425 
L 380.285441 230.801025 
L 383.176505 230.679653 
L 383.176505 230.679653 
L 383.176505 229.878568 
L 385.10388 229.78428 
L 385.10388 229.710596 
L 386.067568 229.59857 
L 386.067568 229.555795 
L 388.958631 229.442444 
L 388.958631 229.43851 
L 390.886007 229.328799 
L 390.886007 229.243299 
L 392.813382 229.135298 
L 392.813382 229.133296 
L 392.813382 229.091759 
L 395.704446 228.986112 
L 396.668134 228.883888 
L 396.668134 228.538684 
L 397.631821 228.424734 
L 397.631821 228.181152 
L 397.631821 228.181152 
" style="fill:none;stroke:#0000ff;stroke-linecap:square;stroke-width:1.5;"/>
   </g>
   <g id="line2d_26">
    <path clip-path="url(#p26633f6c14)" d="M 73.832727 265.797818 
L 76.602605 265.717863 
L 76.757564 255.723418 
L 76.985637 255.863341 
L 77.441024 258.941629 
L 77.558574 259.721196 
L 77.667692 260.300874 
L 78.206676 261.999929 
L 78.341347 262.739518 
L 78.618474 263.77894 
L 79.136434 264.658452 
L 79.140238 264.838352 
L 79.335106 265.018252 
L 79.424849 265.198152 
L 79.525534 265.39804 
L 80.034404 265.497741 
L 80.035073 225.519965 
L 80.12891 227.159053 
L 80.180229 228.138509 
L 80.283279 246.088531 
L 80.386864 248.946474 
L 80.405401 249.18634 
L 80.592049 255.738755 
L 80.767699 255.935101 
L 80.871373 257.925653 
L 80.888372 257.920336 
L 80.944743 258.000291 
L 81.056136 260.778747 
L 81.296757 263.437269 
L 81.359073 263.237068 
L 81.381682 263.456946 
L 81.648626 264.196011 
L 82.024854 264.355922 
L 82.069045 264.995567 
L 82.204776 265.035545 
L 82.269591 265.195456 
L 82.396276 265.595233 
L 83.033291 265.694943 
L 83.131444 265.734921 
L 83.800828 265.768568 
L 83.921691 265.567352 
L 83.977203 265.687015 
L 84.080922 265.74698 
L 87.044931 265.786958 
L 87.770285 265.584416 
L 87.775014 265.68436 
L 87.78155 265.744327 
L 88.740319 265.784305 
L 89.995623 265.582306 
L 89.998679 265.602295 
L 90.007937 265.782195 
L 93.49633 265.762089 
L 93.49633 265.571113 
L 93.498661 265.771002 
L 93.710394 265.758826 
L 106.925899 265.78379 
L 106.925899 265.748166 
L 106.925899 265.720632 
L 106.93886 265.780599 
L 106.995231 265.769572 
L 107.091344 265.789561 
L 107.978628 265.785796 
L 108.390805 265.578456 
L 108.82703 265.559063 
L 108.82703 265.454144 
L 108.858383 265.554089 
L 111.146272 265.796804 
L 113.944993 265.683818 
L 113.971929 265.512794 
L 113.963519 265.717546 
L 114.040391 265.632728 
L 115.585515 265.491761 
L 115.623817 265.443864 
L 115.675895 265.498574 
L 115.688219 265.488179 
L 115.719093 265.458743 
L 115.945616 265.708924 
L 115.998518 265.602347 
L 116.033586 265.682302 
L 117.604419 265.767211 
L 117.646971 265.785329 
L 117.646971 265.779053 
L 120.410412 265.637556 
L 120.426775 265.601483 
L 120.477079 265.66145 
L 120.490787 265.660701 
L 121.425519 265.761304 
L 121.546382 265.795761 
L 121.903738 265.778774 
L 122.521881 265.790496 
L 122.579312 257.276828 
L 122.662754 261.344263 
L 122.720898 264.260522 
L 123.443742 264.342246 
L 123.454851 263.842112 
L 123.472954 264.321845 
L 123.569044 264.341834 
L 123.633022 265.101412 
L 123.679444 265.088163 
L 123.6997 265.108152 
L 124.278191 265.098551 
L 124.3184 264.893555 
L 124.330748 265.113433 
L 124.358554 265.11234 
L 124.559334 265.147502 
L 124.683877 265.604648 
L 124.683877 265.603274 
L 125.403363 265.615899 
L 125.530327 265.755821 
L 127.578699 265.648857 
L 127.634189 265.636778 
L 127.638082 265.696745 
L 133.92378 265.586671 
L 134.005816 265.521302 
L 134.029797 265.641235 
L 134.166263 265.725748 
L 134.166263 265.705278 
L 134.323833 265.720567 
L 134.323833 265.716751 
L 134.323833 265.514244 
L 134.429303 265.734122 
L 135.792777 265.734154 
L 135.792777 265.703011 
L 135.792777 265.694655 
L 135.86212 265.734633 
L 135.899429 265.729372 
L 141.235293 265.754214 
L 141.255537 265.558014 
L 141.28099 265.697936 
L 141.639963 265.661545 
L 141.673793 265.570935 
L 141.749828 265.6969 
L 141.988832 265.698549 
L 141.988832 265.689094 
L 142.013515 265.709083 
L 142.598676 265.748521 
L 142.598676 265.662069 
L 142.633421 265.566589 
L 142.690918 265.7265 
L 158.527911 265.587284 
L 158.527911 265.256773 
L 158.543136 265.796473 
L 161.895498 265.746297 
L 161.984193 265.639979 
L 162.02457 265.754922 
L 162.189624 265.639312 
L 162.223107 265.112294 
L 162.223252 264.383945 
L 162.267444 265.358789 
L 162.489438 265.345274 
L 162.552222 265.56645 
L 162.792854 265.455676 
L 162.872124 265.409564 
L 163.183839 265.445001 
L 163.183839 265.440095 
L 164.065982 265.308039 
L 164.065982 265.302478 
L 164.167827 265.781159 
L 164.191551 265.791832 
L 164.308911 265.41327 
L 164.322731 265.613159 
L 165.195504 265.57458 
L 165.257698 265.774468 
L 174.793444 265.652343 
L 174.793444 265.580282 
L 174.861293 265.677849 
L 174.902327 265.673019 
L 175.673322 265.724 
L 175.771699 265.751162 
L 175.771699 265.750018 
L 175.833279 265.768357 
L 175.833279 265.762724 
L 177.259347 265.663203 
L 177.286841 265.552455 
L 177.347417 265.680059 
L 177.489517 265.742423 
L 177.489517 265.736774 
L 179.39821 265.796811 
L 191.716069 265.689144 
L 191.716069 265.64338 
L 191.825599 265.755996 
L 199.528298 265.769124 
L 199.531923 265.789113 
L 201.368942 265.675099 
L 201.394863 265.592574 
L 201.479208 265.65961 
L 201.771616 265.72262 
L 215.036209 265.779497 
L 215.093562 263.786005 
L 215.147993 264.578316 
L 216.427734 264.596857 
L 216.829617 264.594821 
L 217.029292 265.794155 
L 217.151816 264.585681 
L 217.835153 264.585877 
L 218.016893 264.825744 
L 218.032163 265.78521 
L 221.604232 265.6766 
L 221.661429 265.65407 
L 221.691578 265.714037 
L 221.702988 265.707532 
L 226.598444 265.777138 
L 228.381601 265.710586 
L 228.381601 265.702971 
L 228.404421 265.677754 
L 228.450888 265.725495 
L 228.479877 265.714005 
L 230.614088 265.638662 
L 230.654487 265.436238 
L 230.677442 265.660114 
L 231.240987 265.546761 
L 231.276824 265.473011 
L 231.350752 265.514652 
L 231.543634 265.697618 
L 239.929982 265.775803 
L 239.970872 265.795792 
L 244.821189 265.784387 
L 244.839403 265.665559 
L 244.902366 265.705148 
L 245.099933 265.663855 
L 245.099933 265.713989 
L 245.103558 265.161365 
L 245.105923 265.709879 
L 245.262879 265.700972 
L 245.269482 265.411929 
L 245.272806 265.711762 
L 246.185766 265.641353 
L 246.20968 264.499112 
L 246.213617 265.651177 
L 246.225585 265.650395 
L 246.97966 265.713148 
L 246.979894 262.175199 
L 247.082464 265.780412 
L 247.096886 265.742894 
L 247.10118 264.001886 
L 247.105084 265.789651 
L 247.196222 265.226898 
L 247.247652 265.793983 
L 247.249682 264.680629 
L 247.249738 263.588944 
L 247.308239 265.797122 
L 247.351717 265.793784 
L 248.566175 265.695308 
L 248.566175 265.602732 
L 248.650844 265.79711 
L 248.67894 265.796697 
L 248.700824 215.824476 
L 248.803383 233.643873 
L 248.823761 236.116792 
L 249.097285 264.596523 
L 249.117061 264.592941 
L 249.828907 264.676887 
L 249.829019 265.785312 
L 249.920447 265.781464 
L 250.491097 265.693707 
L 250.531831 215.823076 
L 250.500065 265.795297 
L 250.601709 222.544675 
L 250.611837 222.808689 
L 250.723698 232.124686 
L 250.733826 232.349529 
L 250.835548 244.102455 
L 250.839519 244.102202 
L 250.886399 252.050202 
L 250.894976 242.055758 
L 250.959924 251.691642 
L 250.962612 241.697198 
L 251.069254 254.037514 
L 251.089543 255.184289 
L 251.191165 263.937628 
L 251.201315 264.207107 
L 251.211465 265.782036 
L 251.449888 265.673028 
L 251.449888 265.388378 
L 251.526347 265.793926 
L 251.724684 265.683668 
L 251.730741 261.784065 
L 251.80092 265.797532 
L 251.804389 265.777669 
L 252.003551 265.782002 
L 252.003551 265.770056 
L 252.003551 265.762503 
L 252.010935 265.783691 
L 252.08397 265.77843 
L 252.666477 265.666731 
L 252.666477 265.666665 
L 252.67163 265.793794 
L 252.746405 265.781014 
L 252.927799 265.7948 
L 255.31905 265.68265 
L 255.31905 265.397325 
L 255.416846 265.795163 
L 261.506729 265.716897 
L 261.506729 265.737043 
L 261.563301 265.796768 
L 261.563301 265.795536 
L 262.070207 265.684454 
L 262.070207 265.651365 
L 262.076063 265.771789 
L 262.172722 265.754851 
L 262.391191 265.725384 
L 262.391191 265.522125 
L 262.482797 265.765097 
L 262.488798 265.698308 
L 262.508797 265.518373 
L 262.574247 265.777707 
L 263.011576 265.690665 
L 263.011576 265.578942 
L 263.092519 265.792656 
L 263.110198 265.760427 
L 263.973424 265.647129 
L 263.973424 265.571658 
L 264.047708 265.79388 
L 264.078202 265.761893 
L 264.329263 265.79419 
L 264.329263 265.785535 
L 264.368681 265.766024 
L 264.43963 265.793054 
L 264.946257 265.683325 
L 264.946257 265.388022 
L 264.952325 265.790645 
L 265.055487 265.647636 
L 265.135247 265.790786 
L 265.57638 265.761054 
L 265.899561 265.313742 
L 265.899561 265.309443 
L 265.918166 265.751518 
L 265.989226 265.726486 
L 266.099448 265.766111 
L 266.099448 264.535166 
L 266.111372 265.776439 
L 266.180112 265.754791 
L 266.299592 265.718055 
L 266.299592 265.708263 
L 268.876888 265.785767 
L 268.876888 265.775178 
L 268.876888 265.655534 
L 268.987879 265.765829 
L 271.143439 265.677521 
L 271.143439 265.454445 
L 271.163114 265.784467 
L 271.165959 265.783414 
L 276.490021 265.792155 
L 276.490021 265.710565 
L 276.490021 265.663532 
L 276.530855 265.783895 
L 276.59238 265.782358 
L 277.634032 265.783382 
L 277.634032 265.482559 
L 277.711072 265.788667 
L 278.433336 265.666472 
L 278.433336 265.510241 
L 278.50849 265.785918 
L 278.527842 265.782691 
L 282.295582 265.660576 
L 282.295582 264.960108 
L 282.363163 265.789692 
L 282.403807 265.788187 
L 282.736581 265.674432 
L 282.736581 265.633818 
L 282.763461 265.797095 
L 282.834578 265.794596 
L 283.245093 265.691904 
L 283.245093 265.535246 
L 283.342812 265.797759 
L 284.328841 265.709787 
L 284.36857 265.792688 
L 284.442475 265.767748 
L 284.461827 265.572359 
L 284.485406 265.797336 
L 284.523129 265.780551 
L 284.739345 265.787033 
L 285.602325 265.678197 
L 285.602325 265.547482 
L 285.711476 265.795423 
L 286.724296 265.73452 
L 286.724307 265.219047 
L 286.729884 265.783269 
L 289.995247 265.784222 
L 289.995247 265.715951 
L 289.995247 265.663074 
L 290.034564 265.789444 
L 290.095609 265.785738 
L 291.183985 265.66595 
L 291.183985 265.611598 
L 291.194001 265.792252 
L 292.899728 265.796277 
L 292.899728 265.685108 
L 292.899728 265.457346 
L 292.910168 265.797666 
L 293.009738 265.780562 
L 293.261334 265.770546 
L 293.367897 265.79086 
L 293.99802 265.797038 
L 294.001466 265.608996 
L 294.042892 265.783638 
L 295.786118 265.782594 
L 295.786118 265.6898 
L 295.786129 265.225271 
L 295.798521 265.795516 
L 295.889982 265.795471 
L 295.90069 265.780493 
L 295.90069 265.670432 
L 295.910304 265.791735 
L 295.981443 265.783646 
L 299.649067 265.653679 
L 299.649067 265.629718 
L 299.699326 265.796929 
L 299.730044 265.790454 
L 303.637697 265.779892 
L 303.695652 265.605918 
L 303.739007 265.790685 
L 304.719905 265.67979 
L 304.719905 265.645552 
L 304.725449 265.787354 
L 304.800112 265.780536 
L 309.272772 265.664637 
L 309.272772 265.639948 
L 309.352923 265.797107 
L 309.918042 265.788366 
L 310.253882 265.678339 
L 310.253882 265.466083 
L 310.269118 265.792595 
L 310.342131 265.790378 
L 311.200494 265.676453 
L 311.200494 265.295827 
L 311.205847 265.782175 
L 311.306622 265.718396 
L 311.469869 265.748005 
L 311.469869 265.745798 
L 311.548079 265.502622 
L 311.548079 265.482988 
L 311.634153 265.574558 
L 311.828374 265.672012 
L 311.845484 265.692001 
L 312.158638 265.59704 
L 312.158638 265.435725 
L 312.254192 265.709413 
L 312.26364 265.680053 
L 312.393236 265.686174 
L 312.393236 265.685349 
L 312.393236 265.680489 
L 312.457403 265.754299 
L 312.472472 265.751388 
L 313.122928 265.639049 
L 313.173689 265.393446 
L 313.177381 265.713269 
L 313.216497 265.621219 
L 313.374714 265.555289 
L 313.435502 265.384696 
L 313.478924 265.389184 
L 313.597053 265.480811 
L 313.597053 265.480268 
L 313.716288 265.596124 
L 313.716288 265.592658 
L 314.639777 265.750758 
L 314.639777 265.748786 
L 316.017293 265.640132 
L 316.113796 265.579624 
L 316.254278 265.655753 
L 316.254278 265.637123 
L 316.254278 265.530453 
L 316.274254 265.670375 
L 316.338466 265.621078 
L 316.449893 265.490061 
L 316.480253 265.530277 
L 316.648743 265.560905 
L 317.05773 265.450616 
L 317.102379 265.415397 
L 317.126627 265.53533 
L 317.146246 265.497104 
L 317.544693 265.690079 
L 317.544693 265.690079 
L 318.106298 265.563986 
L 318.106298 265.54002 
L 318.171135 265.596885 
L 318.196198 265.591621 
L 318.387842 265.634109 
L 319.189265 265.706002 
L 319.353961 265.746909 
L 319.883912 265.635082 
L 319.976142 265.519268 
L 319.98888 265.539257 
L 320.27377 265.697688 
L 320.313812 265.654843 
L 321.876303 265.737427 
L 321.902626 265.757416 
L 322.784155 265.645929 
L 322.802837 265.3966 
L 322.879274 265.696433 
L 322.982056 265.585591 
L 323.281603 265.473206 
L 323.362267 265.252189 
L 323.726014 265.140705 
L 323.810828 265.037995 
L 323.835076 265.357817 
L 324.366242 265.32912 
L 324.705697 265.220733 
L 324.783751 264.911172 
L 324.788279 265.011116 
L 325.017211 265.072702 
L 325.325245 265.409065 
L 325.678843 265.376855 
L 325.899911 265.755937 
L 325.899911 265.731111 
L 325.899911 265.612256 
L 325.912113 265.752179 
L 326.000574 265.738493 
L 326.713268 265.625399 
L 326.713268 265.602779 
L 326.726318 265.742701 
L 326.783158 265.738175 
L 332.989787 265.683748 
L 332.989787 265.484137 
L 333.019567 265.713919 
L 337.40187 265.644728 
L 337.40187 263.873371 
L 337.504541 265.509136 
L 338.350177 265.516445 
L 338.473795 265.794285 
L 338.507513 265.709779 
L 338.588578 265.788045 
L 339.137613 265.67655 
L 339.137624 265.490943 
L 339.221143 265.791175 
L 339.236391 265.780421 
L 340.123764 265.652331 
L 340.123775 265.481087 
L 340.202912 265.789724 
L 340.232413 265.788898 
L 343.019613 265.668206 
L 343.019613 265.460788 
L 343.020148 265.783525 
L 343.121848 265.782899 
L 343.164656 265.76021 
L 343.164656 265.640478 
L 343.21332 265.785457 
L 344.246429 265.681653 
L 344.325555 265.606105 
L 344.329458 265.626094 
L 344.406531 265.736616 
L 344.406531 265.730351 
L 345.086924 265.735394 
L 345.105227 264.766871 
L 345.168235 265.721407 
L 345.206983 265.64813 
L 345.206983 265.574979 
L 345.249635 265.758878 
L 350.139291 265.637673 
L 350.139291 265.603168 
L 350.183371 265.755293 
L 350.224127 265.747812 
L 350.727877 265.756946 
L 350.727877 265.751833 
L 350.812311 265.605557 
L 350.733264 265.755829 
L 350.834853 265.719972 
L 351.677165 265.609177 
L 351.677165 265.417564 
L 351.679016 265.776007 
L 351.770478 265.766012 
L 352.645693 265.652324 
L 352.645693 265.576028 
L 352.688279 265.771832 
L 352.756071 265.768356 
L 352.836557 265.785753 
L 352.836557 265.784764 
L 353.613921 265.696744 
L 353.613921 265.404547 
L 353.614657 265.794635 
L 353.715275 265.781666 
L 353.946549 265.782602 
L 356.952318 265.675257 
L 356.952318 265.475747 
L 356.955252 265.783569 
L 357.012738 265.782629 
L 357.093269 265.707586 
L 357.093269 265.607331 
L 357.107836 265.797794 
L 357.133355 265.793123 
L 358.479016 265.766664 
L 358.479016 265.727178 
L 358.479016 265.667949 
L 358.493962 265.788225 
L 358.587565 265.785308 
L 358.619587 265.593552 
L 358.624506 265.793436 
L 358.663243 265.790422 
L 360.432525 265.684833 
L 360.49812 265.383809 
L 360.502905 265.791365 
L 360.537984 265.790285 
L 364.68376 265.738364 
L 364.68376 262.764207 
L 364.694066 265.777381 
L 364.724181 265.776329 
L 367.255736 265.692772 
L 367.255736 265.633284 
L 367.268027 265.793195 
L 367.336255 265.791006 
L 367.576842 265.694071 
L 367.576842 265.489958 
L 367.578359 265.791683 
L 370.019066 265.680037 
L 370.034737 265.254171 
L 370.151484 265.354115 
L 370.162994 265.573993 
L 370.346697 265.466772 
L 370.400012 264.502492 
L 370.444092 265.240987 
L 370.476249 265.20822 
L 370.590017 265.65738 
L 370.590017 265.654356 
L 370.957055 265.539415 
L 370.988955 265.513825 
L 371.043386 265.653759 
L 371.048315 265.621027 
L 371.235465 265.749429 
L 371.076936 265.550543 
L 371.235465 265.655681 
L 371.235465 265.613513 
L 371.255832 265.754596 
L 371.332369 265.743987 
L 371.361938 265.683187 
L 371.433545 265.749858 
L 371.917653 265.640096 
L 371.954494 265.561968 
L 372.012215 265.755425 
L 372.918383 265.643659 
L 372.94852 265.723615 
L 373.044978 265.669132 
L 373.159216 265.687051 
L 373.159227 265.685918 
L 373.159227 265.67761 
L 373.160152 265.697599 
L 373.240393 265.694442 
L 373.283848 265.588023 
L 373.283848 265.46998 
L 373.301884 265.729836 
L 373.360999 265.676167 
L 373.504537 265.72877 
L 374.804556 265.619369 
L 375.097979 265.690151 
L 377.090437 265.656659 
L 377.157706 265.065991 
L 377.230183 265.191105 
L 377.287435 265.730805 
L 377.374569 265.714299 
L 380.712844 265.61431 
L 380.712844 265.543195 
L 380.820266 265.776946 
L 383.490986 265.630993 
L 383.566832 265.08329 
L 383.587834 265.103279 
L 383.647284 264.999091 
L 383.737485 265.614909 
L 383.776099 265.600062 
L 384.882154 265.6753 
L 384.939284 265.774901 
L 384.939284 265.774898 
L 385.070419 265.774632 
L 385.807216 265.699533 
L 385.822954 265.489062 
L 385.874407 265.748918 
L 385.884847 265.736346 
L 386.004951 265.755871 
L 386.004951 265.750556 
L 389.785429 265.70919 
L 389.785429 265.610242 
L 389.797017 265.790142 
L 389.886805 265.773303 
L 389.914846 265.793292 
L 390.436821 265.687789 
L 390.49984 265.569738 
L 390.518188 265.769627 
L 393.400507 265.659101 
L 393.49943 265.617922 
L 394.34307 265.61479 
L 394.54415 265.791313 
L 396.967434 265.646695 
L 397.048601 265.550898 
L 397.062643 265.570887 
L 397.131897 265.568905 
L 397.140118 265.788782 
L 397.214346 265.783452 
L 397.601416 265.680187 
L 397.601416 265.626539 
L 397.64457 265.78645 
L 397.947686 265.680042 
L 398.016661 265.509269 
L 398.037072 265.769125 
L 398.487273 265.778821 
L 398.487273 265.778821 
" style="fill:none;stroke:#ff0000;stroke-linecap:square;stroke-width:1.5;"/>
   </g>
   <g id="line2d_27">
    <path clip-path="url(#p26633f6c14)" d="M 73.832727 265.797818 
L 76.723791 265.657896 
L 76.723791 261.240352 
L 77.687478 261.040463 
L 77.687478 257.802263 
L 78.651166 257.662341 
L 78.651166 256.223141 
L 79.614854 256.023252 
L 79.614854 245.768952 
L 79.614854 246.108763 
L 80.261529 245.908874 
L 80.283457 229.917764 
L 80.496494 229.717875 
L 80.578542 218.887838 
L 80.578542 219.189691 
L 80.767699 218.993345 
L 80.849278 217.802349 
L 81.54223 217.502516 
L 81.54223 216.263205 
L 82.505917 215.923394 
L 82.505917 215.883416 
L 82.505917 215.883678 
L 83.469605 215.783733 
L 83.469605 215.603833 
L 83.469605 215.905416 
L 87.324356 215.725516 
L 87.324356 215.705527 
L 87.324356 215.905416 
L 89.251732 215.84545 
L 89.251732 215.66555 
L 89.251732 215.865438 
L 93.106483 215.66555 
L 93.106483 215.685538 
L 93.106483 215.885427 
L 107.5618 215.771681 
L 107.5618 215.775141 
L 107.5618 215.976611 
L 108.525487 215.876667 
L 108.525487 215.6368 
L 108.525487 215.739008 
L 109.489175 215.619075 
L 109.489175 215.599086 
L 109.489175 215.730459 
L 110.452863 215.610526 
L 110.452863 215.590537 
L 110.452863 215.63672 
L 113.343926 215.50025 
L 113.343926 215.380317 
L 113.343926 215.661785 
L 114.307614 215.541852 
L 114.307614 215.501874 
L 114.307614 215.550831 
L 115.271302 215.430898 
L 115.271302 215.091087 
L 115.271302 215.325248 
L 116.23499 215.205315 
L 116.23499 215.145348 
L 116.23499 215.191351 
L 117.198677 215.071418 
L 117.198677 214.991462 
L 117.198677 215.155291 
L 120.089741 214.998555 
L 120.089741 214.778677 
L 120.089741 214.894643 
L 122.017116 214.76237 
L 122.017116 211.843992 
L 122.017116 211.855494 
L 122.649681 211.655605 
L 122.664404 207.717794 
L 122.980804 207.637839 
L 122.980804 206.398528 
L 122.980804 206.921189 
L 123.944492 206.821244 
L 123.944492 206.301533 
L 123.944492 206.510128 
L 125.871867 206.252205 
L 126.835555 206.132272 
L 126.835555 206.072305 
L 126.835555 206.261061 
L 128.762931 206.109229 
L 128.762931 206.206686 
L 128.762931 206.226675 
L 129.726619 206.106742 
L 129.726619 206.086753 
L 129.726619 206.134709 
L 129.726619 206.134709 
L 130.690306 206.014775 
L 130.690306 205.994786 
L 130.690306 206.032932 
L 133.58137 205.873213 
L 133.58137 205.533402 
L 133.58137 205.776918 
L 135.508745 205.631087 
L 135.508745 205.57112 
L 135.508745 205.577324 
L 137.436121 205.445983 
L 137.436121 205.406005 
L 137.436121 205.433809 
L 140.327184 205.294781 
L 140.327184 205.154859 
L 140.327184 205.401154 
L 141.290872 205.281221 
L 141.290872 205.181276 
L 141.290872 205.288362 
L 142.25456 205.168428 
L 142.25456 205.068484 
L 142.25456 205.149273 
L 144.181935 205.009859 
L 144.181935 204.949893 
L 144.181935 204.999467 
L 148.036686 204.821865 
L 148.036686 204.801876 
L 148.036686 204.807337 
L 157.673564 204.567975 
L 157.673564 204.028275 
L 157.673564 204.548618 
L 161.528315 204.491486 
L 161.528315 204.471497 
L 161.528315 204.191653 
L 161.528315 204.330492 
L 162.189624 204.446334 
L 162.223107 205.012842 
L 162.223252 205.72169 
L 162.223542 204.922135 
L 162.489438 204.916767 
L 162.492003 204.65718 
L 162.492003 204.688083 
L 163.455691 204.56815 
L 163.455691 203.968483 
L 163.455691 204.396923 
L 164.419379 204.356945 
L 164.419379 204.157056 
L 164.419379 204.176049 
L 167.310442 204.139507 
L 167.310442 204.07954 
L 167.310442 204.019573 
L 167.310442 204.053188 
L 169.237817 203.914178 
L 169.237817 203.894189 
L 169.237817 203.919954 
L 173.092569 203.790311 
L 173.092569 203.794075 
L 174.056256 203.594186 
L 174.056256 203.414286 
L 174.056256 203.572853 
L 176.94732 203.421198 
L 176.94732 203.20132 
L 176.94732 203.281735 
L 183.693134 203.04128 
L 183.693134 203.001303 
L 183.693134 203.046507 
L 190.438949 202.813374 
L 190.438949 202.793385 
L 190.438949 202.852764 
L 191.402636 202.732831 
L 191.402636 202.712842 
L 191.402636 202.741364 
L 194.2937 202.584513 
L 194.2937 202.544535 
L 194.2937 202.582148 
L 196.221075 202.434672 
L 196.221075 202.414683 
L 196.221075 202.443451 
L 201.039514 202.240896 
L 201.039514 202.060996 
L 201.039514 202.167418 
L 202.003202 202.047485 
L 202.003202 202.027496 
L 202.003202 202.071007 
L 203.930578 201.954494 
L 203.930578 201.874538 
L 203.930578 201.934262 
L 207.785329 201.760059 
L 207.785329 201.700093 
L 207.785329 201.758848 
L 210.676392 201.624699 
L 210.676392 201.564732 
L 210.676392 201.614357 
L 214.531143 201.519098 
L 214.531143 200.699553 
L 214.531143 200.834966 
L 216.458519 200.786033 
L 216.458519 200.786413 
L 216.458519 201.985747 
L 217.422206 201.965758 
L 217.422206 200.766424 
L 217.422206 200.785741 
L 221.276958 200.606622 
L 221.276958 200.586633 
L 221.276958 200.644853 
L 224.168021 200.480757 
L 224.168021 200.360823 
L 224.168021 200.389824 
L 228.022772 200.229882 
L 228.022772 200.189904 
L 228.022772 200.254841 
L 229.950148 200.115948 
L 229.950148 200.07597 
L 229.950148 200.305796 
L 230.913835 200.065929 
L 230.913835 199.786085 
L 230.913835 200.007406 
L 231.877523 199.97486 
L 231.877523 199.934882 
L 231.877523 199.814949 
L 231.877523 199.958297 
L 232.841211 199.818491 
L 232.841211 199.798502 
L 232.841211 199.802021 
L 235.732274 199.642541 
L 235.732274 199.562586 
L 235.732274 199.609448 
L 237.65965 199.477307 
L 237.65965 199.41734 
L 237.65965 199.430326 
L 244.405464 199.241586 
L 244.405464 198.941753 
L 244.495554 199.087009 
L 245.099933 199.12463 
L 245.099933 199.079054 
L 245.102889 199.61959 
L 245.105923 199.141441 
L 245.369152 199.431795 
L 245.369152 199.431795 
L 246.00503 199.475445 
L 246.208207 199.66651 
L 246.20968 200.617685 
L 246.213617 199.533509 
L 246.97966 199.47195 
L 246.979894 203.009899 
L 247.082464 199.908703 
L 247.096897 200.04054 
L 247.10118 201.718545 
L 247.097845 199.938986 
L 247.196222 200.562485 
L 247.247652 200.022785 
L 247.249682 201.082393 
L 247.249738 202.227824 
L 247.308239 200.106969 
L 247.351717 200.117295 
L 248.260215 199.677539 
L 248.260215 198.138395 
L 248.260215 198.166145 
L 248.569722 198.048505 
L 248.650844 197.969188 
L 248.701783 197.869828 
L 248.803383 181.293814 
L 248.833788 178.523903 
L 248.935232 167.136027 
L 248.955543 165.905075 
L 249.046469 151.974577 
L 249.223903 151.995303 
L 249.605307 151.901565 
L 249.828907 151.755509 
L 249.920447 150.718053 
L 249.991619 150.69562 
L 250.187591 149.496287 
L 250.266214 149.564169 
L 250.50002 149.44447 
L 250.61187 141.947172 
L 250.621998 141.687317 
L 250.733859 132.616596 
L 250.75417 131.323022 
L 250.855915 116.146814 
L 250.866065 114.947766 
L 250.967665 104.858383 
L 250.97777 104.598527 
L 251.079415 92.989072 
L 251.089565 91.722983 
L 251.191165 83.164303 
L 251.201315 82.905189 
L 251.211465 82.545959 
L 251.455242 82.428058 
L 251.526347 82.094259 
L 251.729826 81.9369 
L 251.837728 78.240897 
L 252.114967 78.200976 
L 252.114967 78.29829 
L 252.114967 78.423522 
L 252.671597 78.245187 
L 252.691952 78.145299 
L 252.813874 78.037981 
L 252.854497 77.998003 
L 254.042342 77.929342 
L 255.325318 77.768911 
L 255.416846 77.590095 
L 255.599958 77.270112 
L 257.308329 76.895108 
L 257.389663 76.755475 
L 258.860781 76.654561 
L 258.860781 76.793047 
L 258.860781 76.821266 
L 259.382176 76.71869 
L 259.565087 76.438654 
L 261.751844 76.394289 
L 261.751844 76.534161 
L 261.751844 77.050752 
L 262.37098 76.817208 
L 262.513303 76.149985 
L 264.642908 75.524741 
L 264.642908 75.562735 
L 264.642908 75.720082 
L 264.708369 75.715115 
L 264.952325 75.515796 
L 265.043809 75.233833 
L 265.135247 75.037675 
L 265.606595 75.001848 
L 265.606595 75.041806 
L 265.606595 76.590057 
L 265.907926 76.391338 
L 265.989226 76.132945 
L 266.029927 76.093327 
L 266.101099 75.696517 
L 266.111372 74.864344 
L 266.955067 74.74721 
L 268.997973 74.560584 
L 269.140218 74.481189 
L 269.892285 74.312643 
L 270.425034 74.175076 
L 270.425034 74.52543 
L 270.441464 74.511862 
L 271.152898 74.403579 
L 271.163114 74.108006 
L 272.657533 74.02565 
L 272.738867 73.985786 
L 276.207161 73.871868 
L 276.207161 74.037411 
L 276.207161 74.154993 
L 276.207161 74.154993 
L 276.937433 73.943071 
L 277.0188 73.872857 
L 277.170849 73.822835 
L 277.170849 73.826964 
L 277.170849 74.168894 
L 277.639888 74.068344 
L 277.711072 73.812154 
L 278.134537 73.709094 
L 278.134537 73.755243 
L 278.610279 73.458249 
L 281.989288 73.262258 
L 281.989288 73.297522 
L 281.989288 73.619508 
L 282.302029 73.579764 
L 282.403807 72.570199 
L 282.48533 72.47776 
L 282.620938 72.238262 
L 282.743072 72.120606 
L 282.763461 72.063478 
L 283.251273 71.944151 
L 283.342812 71.806645 
L 283.607045 71.588049 
L 283.810334 71.490091 
L 283.916663 71.490091 
L 283.916663 71.490708 
L 283.916663 71.995956 
L 284.465073 71.558221 
L 284.566673 71.341474 
L 284.880351 71.284491 
L 284.880351 71.327416 
L 284.880351 71.570685 
L 284.880351 71.570685 
L 285.304251 71.421079 
L 285.355101 71.361617 
L 285.609519 71.213032 
L 285.711476 71.034829 
L 285.844039 71.102183 
L 285.844039 71.60307 
L 286.628173 71.455099 
L 286.72984 71.358829 
L 286.729884 70.904194 
L 286.807727 70.904464 
L 289.28204 70.763966 
L 289.566729 70.604638 
L 290.034564 70.502379 
L 290.258487 70.42537 
L 290.662478 70.37099 
L 290.662478 70.483562 
L 290.662478 70.569757 
L 291.19399 70.473273 
L 291.194001 70.354109 
L 291.956887 70.2514 
L 292.160388 70.192674 
L 292.589853 70.073138 
L 292.589853 70.092134 
L 292.589853 70.271157 
L 292.899918 70.143329 
L 292.98134 69.919907 
L 293.553541 69.70761 
L 293.553541 69.712801 
L 293.553541 69.913672 
L 293.99802 69.908648 
L 294.109892 69.728447 
L 295.480917 69.793432 
L 295.910249 69.127329 
L 295.981443 69.028114 
L 298.077308 68.683288 
L 298.118008 68.64367 
L 299.87231 68.545576 
L 300.726646 68.419433 
L 302.679921 68.309584 
L 303.087982 68.229691 
L 303.190419 68.238491 
L 303.190419 68.428229 
L 303.209927 68.424931 
L 303.698296 68.279825 
L 303.739007 68.178953 
L 304.154107 68.143943 
L 304.154107 68.214399 
L 304.154107 68.282126 
L 304.206708 68.281708 
L 304.725404 68.180226 
L 304.766026 68.0872 
L 305.117794 68.045867 
L 305.117794 68.062389 
L 306.081482 67.988779 
L 306.081482 67.868846 
L 306.081482 67.996811 
L 308.972546 67.8116 
L 308.972546 67.850312 
L 308.972546 68.034085 
L 309.841448 67.64287 
L 309.936233 67.523184 
L 309.936233 67.677776 
L 310.258968 67.477887 
L 310.330107 67.318638 
L 310.899921 67.153871 
L 310.899921 66.953982 
L 310.899921 67.402733 
L 311.205814 67.282979 
L 311.205847 66.923179 
L 311.491083 66.819392 
L 312.162609 66.488846 
L 312.254192 66.394949 
L 312.457403 66.281576 
L 312.827297 65.821831 
L 312.827297 65.561976 
L 312.827297 65.849166 
L 313.790984 65.829177 
L 313.790984 65.689255 
L 313.790984 65.691347 
L 315.71836 65.513953 
L 315.71836 65.234108 
L 315.71836 65.481682 
L 316.682048 65.401726 
L 316.682048 65.081904 
L 316.682048 65.127367 
L 317.645736 65.027422 
L 317.645736 64.8875 
L 317.645736 65.062203 
L 318.609423 64.982247 
L 318.609423 64.842325 
L 318.609423 64.854695 
L 319.573111 64.77474 
L 319.573111 64.59484 
L 319.573111 64.670019 
L 321.500487 64.528597 
L 321.500487 64.508609 
L 321.500487 64.509333 
L 322.464175 64.189511 
L 322.464175 64.169522 
L 322.464175 64.434123 
L 323.427862 64.074323 
L 323.427862 64.100565 
L 324.39155 63.900676 
L 324.39155 63.480909 
L 324.39155 63.573452 
L 325.355238 63.353575 
L 325.355238 62.913819 
L 325.355238 63.081626 
L 327.282613 62.845142 
L 327.282613 62.845405 
L 329.209989 62.726221 
L 329.209989 62.626277 
L 329.209989 62.709337 
L 332.101052 62.250244 
L 332.101052 62.170288 
L 332.101052 62.43954 
L 333.009362 62.334855 
L 333.06474 62.155282 
L 333.06474 62.31481 
L 333.365268 62.275051 
L 333.619675 62.099661 
L 335.955803 62.035706 
L 335.955803 62.094245 
L 335.955803 62.137506 
L 336.052451 62.134051 
L 336.865908 62.018417 
L 336.919491 61.998428 
L 336.919491 60.579217 
L 336.919491 62.460327 
L 337.242159 62.341166 
L 337.343848 62.301548 
L 337.405027 62.184367 
L 337.435633 61.999054 
L 337.883179 61.89789 
L 337.883179 62.004115 
L 338.310325 61.938684 
L 338.473795 61.662719 
L 339.144941 61.578591 
L 339.236391 61.439314 
L 340.131661 61.27402 
L 340.202912 61.103808 
L 340.51814 60.903428 
L 340.774242 60.806268 
L 340.774242 60.807365 
L 342.701618 60.749841 
L 342.701618 60.781024 
L 342.701618 60.968342 
L 343.020114 60.867521 
L 343.121848 60.478231 
L 343.365904 60.200758 
L 343.665306 60.140791 
L 343.665306 59.940902 
L 343.665306 60.188085 
L 344.577084 60.010122 
L 344.628993 59.930167 
L 344.628993 60.047348 
L 344.628993 61.046768 
L 345.086924 60.983892 
L 345.249635 60.044675 
L 345.592681 59.951531 
L 345.592681 59.931542 
L 345.592681 59.989631 
L 346.933869 59.851824 
L 349.447432 59.674093 
L 349.447432 59.414238 
L 349.447432 59.702071 
L 349.918457 59.589078 
L 350.254599 59.455814 
L 350.41112 59.356358 
L 350.41112 59.421985 
L 350.733264 59.3698 
L 351.007658 59.191671 
L 351.374808 59.116177 
L 351.374808 59.258719 
L 351.374808 59.273112 
L 351.679005 59.15467 
L 351.770478 58.807502 
L 353.614657 58.232639 
L 353.614657 58.074267 
L 354.19452 58.029244 
L 354.265871 58.029244 
L 354.265871 58.128176 
L 354.265871 58.144852 
L 355.193242 58.041098 
L 355.229559 58.021109 
L 355.229559 58.028045 
L 356.193247 57.92702 
L 356.193247 58.056489 
L 356.193247 58.309046 
L 356.945135 58.138457 
L 356.955252 57.84904 
L 357.250102 57.703793 
L 358.120622 57.503142 
L 358.120622 57.507858 
L 358.120622 57.830388 
L 358.216523 57.827503 
L 358.430887 57.800386 
L 358.624506 57.477508 
L 358.8698 57.387378 
L 359.668769 57.279044 
L 360.047998 57.259302 
L 360.047998 57.292363 
L 360.047998 57.896198 
L 360.441883 57.737643 
L 360.502905 57.26124 
L 361.780874 57.154313 
L 362.939061 57.134416 
L 362.939061 57.014483 
L 362.939061 57.209028 
L 363.522817 57.101939 
L 363.902749 57.077508 
L 363.902749 57.104686 
L 363.902749 60.016223 
L 364.683883 59.94819 
L 364.694066 57.184398 
L 366.219169 57.105602 
L 366.793812 57.016468 
L 366.793812 56.896534 
L 366.793812 57.212702 
L 367.431386 57.208823 
L 367.7575 56.911481 
L 367.7575 56.911677 
L 369.684876 56.871706 
L 369.684876 55.832283 
L 369.684876 56.654774 
L 370.648564 56.474874 
L 370.648564 55.955163 
L 370.648564 56.071216 
L 371.612251 55.791372 
L 371.612251 55.691427 
L 371.612251 55.756394 
L 372.575939 55.636461 
L 372.575939 55.256672 
L 372.575939 55.555651 
L 373.539627 55.455706 
L 373.539627 55.295795 
L 373.539627 55.492039 
L 376.43069 55.098602 
L 376.43069 54.478946 
L 376.43069 55.105533 
L 377.394378 54.965611 
L 377.394378 54.980641 
L 378.358066 54.760764 
L 378.358066 54.660819 
L 378.358066 54.737571 
L 380.285441 54.609592 
L 380.285441 54.349737 
L 380.285441 54.526553 
L 383.176505 54.452257 
L 383.176505 53.632712 
L 383.176505 53.865563 
L 384.140192 53.845574 
L 384.140192 53.485774 
L 384.140192 53.544507 
L 385.10388 53.464551 
L 385.10388 53.184707 
L 385.10388 53.438136 
L 386.067568 53.318202 
L 386.067568 53.17828 
L 386.067568 53.265753 
L 387.031256 53.145819 
L 387.031256 53.045875 
L 387.031256 53.148735 
L 388.958631 53.10899 
L 388.958631 52.909101 
L 388.958631 53.123314 
L 389.922319 53.063348 
L 389.922319 52.803492 
L 389.922319 53.038186 
L 390.886007 52.95823 
L 390.886007 52.798319 
L 390.886007 52.923594 
L 392.813382 52.764057 
L 392.813382 52.904914 
L 392.813382 52.940921 
L 393.77707 52.900943 
L 393.77707 52.621098 
L 393.77707 52.691654 
L 395.704446 52.673662 
L 395.704446 52.673893 
L 396.668134 52.434026 
L 396.668134 52.154182 
L 396.668134 52.39024 
L 397.631821 52.460104 
L 397.631821 52.460104 
" style="fill:none;stroke:#008000;stroke-linecap:square;stroke-width:1.5;"/>
   </g>
   <g id="line2d_28">
    <defs>
     <path d="M 0 3 
C 0.795609 3 1.55874 2.683901 2.12132 2.12132 
C 2.683901 1.55874 3 0.795609 3 0 
C 3 -0.795609 2.683901 -1.55874 2.12132 -2.12132 
C 1.55874 -2.683901 0.795609 -3 0 -3 
C -0.795609 -3 -1.55874 -2.683901 -2.12132 -2.12132 
C -2.683901 -1.55874 -3 -0.795609 -3 0 
C -3 0.795609 -2.683901 1.55874 -2.12132 2.12132 
C -1.55874 2.683901 -0.795609 3 0 3 
z
" id="m7f545e7bf4" style="stroke:#bfbf00;"/>
    </defs>
    <g clip-path="url(#p26633f6c14)">
     <use style="fill:#bfbf00;stroke:#bfbf00;" x="76.757564" xlink:href="#m7f545e7bf4" y="255.803374"/>
     <use style="fill:#bfbf00;stroke:#bfbf00;" x="80.035073" xlink:href="#m7f545e7bf4" y="225.820042"/>
     <use style="fill:#bfbf00;stroke:#bfbf00;" x="248.700824" xlink:href="#m7f545e7bf4" y="215.825597"/>
     <use style="fill:#bfbf00;stroke:#bfbf00;" x="250.531831" xlink:href="#m7f545e7bf4" y="215.825597"/>
     <use style="fill:#bfbf00;stroke:#bfbf00;" x="250.894976" xlink:href="#m7f545e7bf4" y="255.803374"/>
     <use style="fill:#bfbf00;stroke:#bfbf00;" x="250.962612" xlink:href="#m7f545e7bf4" y="255.803374"/>
     <use style="fill:#bfbf00;stroke:#bfbf00;" x="251.730741" xlink:href="#m7f545e7bf4" y="261.800041"/>
    </g>
   </g>
   <g id="line2d_29">
    <defs>
     <path d="M 0 3 
C 0.795609 3 1.55874 2.683901 2.12132 2.12132 
C 2.683901 1.55874 3 0.795609 3 0 
C 3 -0.795609 2.683901 -1.55874 2.12132 -2.12132 
C 1.55874 -2.683901 0.795609 -3 0 -3 
C -0.795609 -3 -1.55874 -2.683901 -2.12132 -2.12132 
C -2.683901 -1.55874 -3 -0.795609 -3 0 
C -3 0.795609 -2.683901 1.55874 -2.12132 2.12132 
C -1.55874 2.683901 -0.795609 3 0 3 
z
" id="mc18d2f8d32" style="stroke:#008000;"/>
    </defs>
    <g clip-path="url(#p26633f6c14)">
     <use style="fill:#008000;stroke:#008000;" x="122.579312" xlink:href="#mc18d2f8d32" y="257.284151"/>
     <use style="fill:#008000;stroke:#008000;" x="215.093562" xlink:href="#mc18d2f8d32" y="263.804326"/>
    </g>
   </g>
   <g id="patch_3">
    <path d="M 57.6 276.48 
L 57.6 41.472 
" style="fill:none;stroke:#000000;stroke-linecap:square;stroke-linejoin:miter;stroke-width:0.8;"/>
   </g>
   <g id="patch_4">
    <path d="M 414.72 276.48 
L 414.72 41.472 
" style="fill:none;stroke:#000000;stroke-linecap:square;stroke-linejoin:miter;stroke-width:0.8;"/>
   </g>
   <g id="patch_5">
    <path d="M 57.6 276.48 
L 414.72 276.48 
" style="fill:none;stroke:#000000;stroke-linecap:square;stroke-linejoin:miter;stroke-width:0.8;"/>
   </g>
   <g id="patch_6">
    <path d="M 57.6 41.472 
L 414.72 41.472 
" style="fill:none;stroke:#000000;stroke-linecap:square;stroke-linejoin:miter;stroke-width:0.8;"/>
   </g>
   <g id="text_15">
    <!-- My Bondora earnings -->
    <defs>
     <path d="M 9.8125 72.90625 
L 24.515625 72.90625 
L 43.109375 23.296875 
L 61.8125 72.90625 
L 76.515625 72.90625 
L 76.515625 0 
L 66.890625 0 
L 66.890625 64.015625 
L 48.09375 14.015625 
L 38.1875 14.015625 
L 19.390625 64.015625 
L 19.390625 0 
L 9.8125 0 
z
" id="DejaVuSans-4d"/>
     <path d="M 32.171875 -5.078125 
Q 28.375 -14.84375 24.75 -17.8125 
Q 21.140625 -20.796875 15.09375 -20.796875 
L 7.90625 -20.796875 
L 7.90625 -13.28125 
L 13.1875 -13.28125 
Q 16.890625 -13.28125 18.9375 -11.515625 
Q 21 -9.765625 23.484375 -3.21875 
L 25.09375 0.875 
L 2.984375 54.6875 
L 12.5 54.6875 
L 29.59375 11.921875 
L 46.6875 54.6875 
L 56.203125 54.6875 
z
" id="DejaVuSans-79"/>
     <path id="DejaVuSans-20"/>
     <path d="M 19.671875 34.8125 
L 19.671875 8.109375 
L 35.5 8.109375 
Q 43.453125 8.109375 47.28125 11.40625 
Q 51.125 14.703125 51.125 21.484375 
Q 51.125 28.328125 47.28125 31.5625 
Q 43.453125 34.8125 35.5 34.8125 
z
M 19.671875 64.796875 
L 19.671875 42.828125 
L 34.28125 42.828125 
Q 41.5 42.828125 45.03125 45.53125 
Q 48.578125 48.25 48.578125 53.8125 
Q 48.578125 59.328125 45.03125 62.0625 
Q 41.5 64.796875 34.28125 64.796875 
z
M 9.8125 72.90625 
L 35.015625 72.90625 
Q 46.296875 72.90625 52.390625 68.21875 
Q 58.5 63.53125 58.5 54.890625 
Q 58.5 48.1875 55.375 44.234375 
Q 52.25 40.28125 46.1875 39.3125 
Q 53.46875 37.75 57.5 32.78125 
Q 61.53125 27.828125 61.53125 20.40625 
Q 61.53125 10.640625 54.890625 5.3125 
Q 48.25 0 35.984375 0 
L 9.8125 0 
z
" id="DejaVuSans-42"/>
     <path d="M 30.609375 48.390625 
Q 23.390625 48.390625 19.1875 42.75 
Q 14.984375 37.109375 14.984375 27.296875 
Q 14.984375 17.484375 19.15625 11.84375 
Q 23.34375 6.203125 30.609375 6.203125 
Q 37.796875 6.203125 41.984375 11.859375 
Q 46.1875 17.53125 46.1875 27.296875 
Q 46.1875 37.015625 41.984375 42.703125 
Q 37.796875 48.390625 30.609375 48.390625 
z
M 30.609375 56 
Q 42.328125 56 49.015625 48.375 
Q 55.71875 40.765625 55.71875 27.296875 
Q 55.71875 13.875 49.015625 6.21875 
Q 42.328125 -1.421875 30.609375 -1.421875 
Q 18.84375 -1.421875 12.171875 6.21875 
Q 5.515625 13.875 5.515625 27.296875 
Q 5.515625 40.765625 12.171875 48.375 
Q 18.84375 56 30.609375 56 
z
" id="DejaVuSans-6f"/>
     <path d="M 54.890625 33.015625 
L 54.890625 0 
L 45.90625 0 
L 45.90625 32.71875 
Q 45.90625 40.484375 42.875 44.328125 
Q 39.84375 48.1875 33.796875 48.1875 
Q 26.515625 48.1875 22.3125 43.546875 
Q 18.109375 38.921875 18.109375 30.90625 
L 18.109375 0 
L 9.078125 0 
L 9.078125 54.6875 
L 18.109375 54.6875 
L 18.109375 46.1875 
Q 21.34375 51.125 25.703125 53.5625 
Q 30.078125 56 35.796875 56 
Q 45.21875 56 50.046875 50.171875 
Q 54.890625 44.34375 54.890625 33.015625 
z
" id="DejaVuSans-6e"/>
     <path d="M 41.109375 46.296875 
Q 39.59375 47.171875 37.8125 47.578125 
Q 36.03125 48 33.890625 48 
Q 26.265625 48 22.1875 43.046875 
Q 18.109375 38.09375 18.109375 28.8125 
L 18.109375 0 
L 9.078125 0 
L 9.078125 54.6875 
L 18.109375 54.6875 
L 18.109375 46.1875 
Q 20.953125 51.171875 25.484375 53.578125 
Q 30.03125 56 36.53125 56 
Q 37.453125 56 38.578125 55.875 
Q 39.703125 55.765625 41.0625 55.515625 
z
" id="DejaVuSans-72"/>
     <path d="M 9.421875 54.6875 
L 18.40625 54.6875 
L 18.40625 0 
L 9.421875 0 
z
M 9.421875 75.984375 
L 18.40625 75.984375 
L 18.40625 64.59375 
L 9.421875 64.59375 
z
" id="DejaVuSans-69"/>
     <path d="M 45.40625 27.984375 
Q 45.40625 37.75 41.375 43.109375 
Q 37.359375 48.484375 30.078125 48.484375 
Q 22.859375 48.484375 18.828125 43.109375 
Q 14.796875 37.75 14.796875 27.984375 
Q 14.796875 18.265625 18.828125 12.890625 
Q 22.859375 7.515625 30.078125 7.515625 
Q 37.359375 7.515625 41.375 12.890625 
Q 45.40625 18.265625 45.40625 27.984375 
z
M 54.390625 6.78125 
Q 54.390625 -7.171875 48.1875 -13.984375 
Q 42 -20.796875 29.203125 -20.796875 
Q 24.46875 -20.796875 20.265625 -20.09375 
Q 16.0625 -19.390625 12.109375 -17.921875 
L 12.109375 -9.1875 
Q 16.0625 -11.328125 19.921875 -12.34375 
Q 23.78125 -13.375 27.78125 -13.375 
Q 36.625 -13.375 41.015625 -8.765625 
Q 45.40625 -4.15625 45.40625 5.171875 
L 45.40625 9.625 
Q 42.625 4.78125 38.28125 2.390625 
Q 33.9375 0 27.875 0 
Q 17.828125 0 11.671875 7.65625 
Q 5.515625 15.328125 5.515625 27.984375 
Q 5.515625 40.671875 11.671875 48.328125 
Q 17.828125 56 27.875 56 
Q 33.9375 56 38.28125 53.609375 
Q 42.625 51.21875 45.40625 46.390625 
L 45.40625 54.6875 
L 54.390625 54.6875 
z
" id="DejaVuSans-67"/>
     <path d="M 44.28125 53.078125 
L 44.28125 44.578125 
Q 40.484375 46.53125 36.375 47.5 
Q 32.28125 48.484375 27.875 48.484375 
Q 21.1875 48.484375 17.84375 46.4375 
Q 14.5 44.390625 14.5 40.28125 
Q 14.5 37.15625 16.890625 35.375 
Q 19.28125 33.59375 26.515625 31.984375 
L 29.59375 31.296875 
Q 39.15625 29.25 43.1875 25.515625 
Q 47.21875 21.78125 47.21875 15.09375 
Q 47.21875 7.46875 41.1875 3.015625 
Q 35.15625 -1.421875 24.609375 -1.421875 
Q 20.21875 -1.421875 15.453125 -0.5625 
Q 10.6875 0.296875 5.421875 2 
L 5.421875 11.28125 
Q 10.40625 8.6875 15.234375 7.390625 
Q 20.0625 6.109375 24.8125 6.109375 
Q 31.15625 6.109375 34.5625 8.28125 
Q 37.984375 10.453125 37.984375 14.40625 
Q 37.984375 18.0625 35.515625 20.015625 
Q 33.0625 21.96875 24.703125 23.78125 
L 21.578125 24.515625 
Q 13.234375 26.265625 9.515625 29.90625 
Q 5.8125 33.546875 5.8125 39.890625 
Q 5.8125 47.609375 11.28125 51.796875 
Q 16.75 56 26.8125 56 
Q 31.78125 56 36.171875 55.265625 
Q 40.578125 54.546875 44.28125 53.078125 
z
" id="DejaVuSans-73"/>
    </defs>
    <g transform="translate(172.363125 35.472)scale(0.12 -0.12)">
     <use xlink:href="#DejaVuSans-4d"/>
     <use x="86.279297" xlink:href="#DejaVuSans-79"/>
     <use x="145.458984" xlink:href="#DejaVuSans-20"/>
     <use x="177.246094" xlink:href="#DejaVuSans-42"/>
     <use x="245.849609" xlink:href="#DejaVuSans-6f"/>
     <use x="307.03125" xlink:href="#DejaVuSans-6e"/>
     <use x="370.410156" xlink:href="#DejaVuSans-64"/>
     <use x="433.886719" xlink:href="#DejaVuSans-6f"/>
     <use x="495.068359" xlink:href="#DejaVuSans-72"/>
     <use x="536.181641" xlink:href="#DejaVuSans-61"/>
     <use x="597.460938" xlink:href="#DejaVuSans-20"/>
     <use x="629.248047" xlink:href="#DejaVuSans-65"/>
     <use x="690.771484" xlink:href="#DejaVuSans-61"/>
     <use x="752.050781" xlink:href="#DejaVuSans-72"/>
     <use x="793.148438" xlink:href="#DejaVuSans-6e"/>
     <use x="856.527344" xlink:href="#DejaVuSans-69"/>
     <use x="884.310547" xlink:href="#DejaVuSans-6e"/>
     <use x="947.689453" xlink:href="#DejaVuSans-67"/>
     <use x="1011.166016" xlink:href="#DejaVuSans-73"/>
    </g>
   </g>
   <g id="legend_1">
    <g id="patch_7">
     <path d="M 64.6 122.862625 
L 158.45 122.862625 
Q 160.45 122.862625 160.45 120.862625 
L 160.45 48.472 
Q 160.45 46.472 158.45 46.472 
L 64.6 46.472 
Q 62.6 46.472 62.6 48.472 
L 62.6 120.862625 
Q 62.6 122.862625 64.6 122.862625 
z
" style="fill:#ffffff;opacity:0.8;stroke:#cccccc;stroke-linejoin:miter;"/>
    </g>
    <g id="line2d_30">
     <path d="M 66.6 54.570437 
L 86.6 54.570437 
" style="fill:none;stroke:#0000ff;stroke-linecap:square;stroke-width:1.5;"/>
    </g>
    <g id="line2d_31"/>
    <g id="text_16">
     <!-- Interest -->
     <defs>
      <path d="M 9.8125 72.90625 
L 19.671875 72.90625 
L 19.671875 0 
L 9.8125 0 
z
" id="DejaVuSans-49"/>
     </defs>
     <g transform="translate(94.6 58.070437)scale(0.1 -0.1)">
      <use xlink:href="#DejaVuSans-49"/>
      <use x="29.492188" xlink:href="#DejaVuSans-6e"/>
      <use x="92.871094" xlink:href="#DejaVuSans-74"/>
      <use x="132.080078" xlink:href="#DejaVuSans-65"/>
      <use x="193.603516" xlink:href="#DejaVuSans-72"/>
      <use x="234.685547" xlink:href="#DejaVuSans-65"/>
      <use x="296.208984" xlink:href="#DejaVuSans-73"/>
      <use x="348.308594" xlink:href="#DejaVuSans-74"/>
     </g>
    </g>
    <g id="line2d_32">
     <path d="M 66.6 69.248562 
L 86.6 69.248562 
" style="fill:none;stroke:#ff0000;stroke-linecap:square;stroke-width:1.5;"/>
    </g>
    <g id="line2d_33"/>
    <g id="text_17">
     <!-- Balance -->
     <defs>
      <path d="M 9.421875 75.984375 
L 18.40625 75.984375 
L 18.40625 0 
L 9.421875 0 
z
" id="DejaVuSans-6c"/>
      <path d="M 48.78125 52.59375 
L 48.78125 44.1875 
Q 44.96875 46.296875 41.140625 47.34375 
Q 37.3125 48.390625 33.40625 48.390625 
Q 24.65625 48.390625 19.8125 42.84375 
Q 14.984375 37.3125 14.984375 27.296875 
Q 14.984375 17.28125 19.8125 11.734375 
Q 24.65625 6.203125 33.40625 6.203125 
Q 37.3125 6.203125 41.140625 7.25 
Q 44.96875 8.296875 48.78125 10.40625 
L 48.78125 2.09375 
Q 45.015625 0.34375 40.984375 -0.53125 
Q 36.96875 -1.421875 32.421875 -1.421875 
Q 20.0625 -1.421875 12.78125 6.34375 
Q 5.515625 14.109375 5.515625 27.296875 
Q 5.515625 40.671875 12.859375 48.328125 
Q 20.21875 56 33.015625 56 
Q 37.15625 56 41.109375 55.140625 
Q 45.0625 54.296875 48.78125 52.59375 
z
" id="DejaVuSans-63"/>
     </defs>
     <g transform="translate(94.6 72.748562)scale(0.1 -0.1)">
      <use xlink:href="#DejaVuSans-42"/>
      <use x="68.603516" xlink:href="#DejaVuSans-61"/>
      <use x="129.882812" xlink:href="#DejaVuSans-6c"/>
      <use x="157.666016" xlink:href="#DejaVuSans-61"/>
      <use x="218.945312" xlink:href="#DejaVuSans-6e"/>
      <use x="282.324219" xlink:href="#DejaVuSans-63"/>
      <use x="337.304688" xlink:href="#DejaVuSans-65"/>
     </g>
    </g>
    <g id="line2d_34">
     <path d="M 66.6 83.926687 
L 86.6 83.926687 
" style="fill:none;stroke:#008000;stroke-linecap:square;stroke-width:1.5;"/>
    </g>
    <g id="line2d_35"/>
    <g id="text_18">
     <!-- Investments -->
     <defs>
      <path d="M 2.984375 54.6875 
L 12.5 54.6875 
L 29.59375 8.796875 
L 46.6875 54.6875 
L 56.203125 54.6875 
L 35.6875 0 
L 23.484375 0 
z
" id="DejaVuSans-76"/>
      <path d="M 52 44.1875 
Q 55.375 50.25 60.0625 53.125 
Q 64.75 56 71.09375 56 
Q 79.640625 56 84.28125 50.015625 
Q 88.921875 44.046875 88.921875 33.015625 
L 88.921875 0 
L 79.890625 0 
L 79.890625 32.71875 
Q 79.890625 40.578125 77.09375 44.375 
Q 74.3125 48.1875 68.609375 48.1875 
Q 61.625 48.1875 57.5625 43.546875 
Q 53.515625 38.921875 53.515625 30.90625 
L 53.515625 0 
L 44.484375 0 
L 44.484375 32.71875 
Q 44.484375 40.625 41.703125 44.40625 
Q 38.921875 48.1875 33.109375 48.1875 
Q 26.21875 48.1875 22.15625 43.53125 
Q 18.109375 38.875 18.109375 30.90625 
L 18.109375 0 
L 9.078125 0 
L 9.078125 54.6875 
L 18.109375 54.6875 
L 18.109375 46.1875 
Q 21.1875 51.21875 25.484375 53.609375 
Q 29.78125 56 35.6875 56 
Q 41.65625 56 45.828125 52.96875 
Q 50 49.953125 52 44.1875 
z
" id="DejaVuSans-6d"/>
     </defs>
     <g transform="translate(94.6 87.426687)scale(0.1 -0.1)">
      <use xlink:href="#DejaVuSans-49"/>
      <use x="29.492188" xlink:href="#DejaVuSans-6e"/>
      <use x="92.871094" xlink:href="#DejaVuSans-76"/>
      <use x="152.050781" xlink:href="#DejaVuSans-65"/>
      <use x="213.574219" xlink:href="#DejaVuSans-73"/>
      <use x="265.673828" xlink:href="#DejaVuSans-74"/>
      <use x="304.882812" xlink:href="#DejaVuSans-6d"/>
      <use x="402.294922" xlink:href="#DejaVuSans-65"/>
      <use x="463.818359" xlink:href="#DejaVuSans-6e"/>
      <use x="527.197266" xlink:href="#DejaVuSans-74"/>
      <use x="566.40625" xlink:href="#DejaVuSans-73"/>
     </g>
    </g>
    <g id="line2d_36"/>
    <g id="line2d_37">
     <g>
      <use style="fill:#bfbf00;stroke:#bfbf00;" x="76.6" xlink:href="#m7f545e7bf4" y="98.604812"/>
     </g>
    </g>
    <g id="text_19">
     <!-- Deposits -->
     <defs>
      <path d="M 19.671875 64.796875 
L 19.671875 8.109375 
L 31.59375 8.109375 
Q 46.6875 8.109375 53.6875 14.9375 
Q 60.6875 21.78125 60.6875 36.53125 
Q 60.6875 51.171875 53.6875 57.984375 
Q 46.6875 64.796875 31.59375 64.796875 
z
M 9.8125 72.90625 
L 30.078125 72.90625 
Q 51.265625 72.90625 61.171875 64.09375 
Q 71.09375 55.28125 71.09375 36.53125 
Q 71.09375 17.671875 61.125 8.828125 
Q 51.171875 0 30.078125 0 
L 9.8125 0 
z
" id="DejaVuSans-44"/>
      <path d="M 18.109375 8.203125 
L 18.109375 -20.796875 
L 9.078125 -20.796875 
L 9.078125 54.6875 
L 18.109375 54.6875 
L 18.109375 46.390625 
Q 20.953125 51.265625 25.265625 53.625 
Q 29.59375 56 35.59375 56 
Q 45.5625 56 51.78125 48.09375 
Q 58.015625 40.1875 58.015625 27.296875 
Q 58.015625 14.40625 51.78125 6.484375 
Q 45.5625 -1.421875 35.59375 -1.421875 
Q 29.59375 -1.421875 25.265625 0.953125 
Q 20.953125 3.328125 18.109375 8.203125 
z
M 48.6875 27.296875 
Q 48.6875 37.203125 44.609375 42.84375 
Q 40.53125 48.484375 33.40625 48.484375 
Q 26.265625 48.484375 22.1875 42.84375 
Q 18.109375 37.203125 18.109375 27.296875 
Q 18.109375 17.390625 22.1875 11.75 
Q 26.265625 6.109375 33.40625 6.109375 
Q 40.53125 6.109375 44.609375 11.75 
Q 48.6875 17.390625 48.6875 27.296875 
z
" id="DejaVuSans-70"/>
     </defs>
     <g transform="translate(94.6 102.104812)scale(0.1 -0.1)">
      <use xlink:href="#DejaVuSans-44"/>
      <use x="77.001953" xlink:href="#DejaVuSans-65"/>
      <use x="138.525391" xlink:href="#DejaVuSans-70"/>
      <use x="202.001953" xlink:href="#DejaVuSans-6f"/>
      <use x="263.183594" xlink:href="#DejaVuSans-73"/>
      <use x="315.283203" xlink:href="#DejaVuSans-69"/>
      <use x="343.066406" xlink:href="#DejaVuSans-74"/>
      <use x="382.275391" xlink:href="#DejaVuSans-73"/>
     </g>
    </g>
    <g id="line2d_38"/>
    <g id="line2d_39">
     <g>
      <use style="fill:#008000;stroke:#008000;" x="76.6" xlink:href="#mc18d2f8d32" y="113.282937"/>
     </g>
    </g>
    <g id="text_20">
     <!-- Commission -->
     <defs>
      <path d="M 64.40625 67.28125 
L 64.40625 56.890625 
Q 59.421875 61.53125 53.78125 63.8125 
Q 48.140625 66.109375 41.796875 66.109375 
Q 29.296875 66.109375 22.65625 58.46875 
Q 16.015625 50.828125 16.015625 36.375 
Q 16.015625 21.96875 22.65625 14.328125 
Q 29.296875 6.6875 41.796875 6.6875 
Q 48.140625 6.6875 53.78125 8.984375 
Q 59.421875 11.28125 64.40625 15.921875 
L 64.40625 5.609375 
Q 59.234375 2.09375 53.4375 0.328125 
Q 47.65625 -1.421875 41.21875 -1.421875 
Q 24.65625 -1.421875 15.125 8.703125 
Q 5.609375 18.84375 5.609375 36.375 
Q 5.609375 53.953125 15.125 64.078125 
Q 24.65625 74.21875 41.21875 74.21875 
Q 47.75 74.21875 53.53125 72.484375 
Q 59.328125 70.75 64.40625 67.28125 
z
" id="DejaVuSans-43"/>
     </defs>
     <g transform="translate(94.6 116.782937)scale(0.1 -0.1)">
      <use xlink:href="#DejaVuSans-43"/>
      <use x="69.824219" xlink:href="#DejaVuSans-6f"/>
      <use x="131.005859" xlink:href="#DejaVuSans-6d"/>
      <use x="228.417969" xlink:href="#DejaVuSans-6d"/>
      <use x="325.830078" xlink:href="#DejaVuSans-69"/>
      <use x="353.613281" xlink:href="#DejaVuSans-73"/>
      <use x="405.712891" xlink:href="#DejaVuSans-73"/>
      <use x="457.8125" xlink:href="#DejaVuSans-69"/>
      <use x="485.595703" xlink:href="#DejaVuSans-6f"/>
      <use x="546.777344" xlink:href="#DejaVuSans-6e"/>
     </g>
    </g>
   </g>
  </g>
 </g>
 <defs>
  <clipPath id="p26633f6c14">
   <rect height="235.008" width="357.12" x="57.6" y="41.472"/>
  </clipPath>
 </defs>
</svg>
