<?xml version="1.0" encoding="utf-8" standalone="no"?>
<!DOCTYPE svg PUBLIC "-//W3C//DTD SVG 1.1//EN"
  "http://www.w3.org/Graphics/SVG/1.1/DTD/svg11.dtd">
<!-- Created with matplotlib (http://matplotlib.org/) -->
<svg height="345.6pt" version="1.1" viewBox="0 0 460.8 345.6" width="460.8pt" xmlns="http://www.w3.org/2000/svg" xmlns:xlink="http://www.w3.org/1999/xlink">
 <defs>
  <style type="text/css">
*{stroke-linecap:butt;stroke-linejoin:round;}
  </style>
 </defs>
 <g id="figure_1">
  <g id="patch_1">
   <path d="M 0 345.6 
L 460.8 345.6 
L 460.8 0 
L 0 0 
z
" style="fill:#ffffff;"/>
  </g>
  <g id="axes_1">
   <g id="patch_2">
    <path d="M 57.6 276.48 
L 414.72 276.48 
L 414.72 41.472 
L 57.6 41.472 
z
" style="fill:#ffffff;"/>
   </g>
   <g id="matplotlib.axis_1">
    <g id="xtick_1">
     <g id="line2d_1">
      <path clip-path="url(#p4c8c28626c)" d="M 73.832727 276.48 
L 73.832727 41.472 
" style="fill:none;stroke:#b0b0b0;stroke-linecap:square;stroke-width:0.8;"/>
     </g>
     <g id="line2d_2">
      <defs>
       <path d="M 0 0 
L 0 3.5 
" id="mef9d073f6b" style="stroke:#000000;stroke-width:0.8;"/>
      </defs>
      <g>
       <use style="stroke:#000000;stroke-width:0.8;" x="73.832727" xlink:href="#mef9d073f6b" y="276.48"/>
      </g>
     </g>
     <g id="text_1">
      <!-- 2019-01 -->
      <defs>
       <path d="M 19.1875 8.296875 
L 53.609375 8.296875 
L 53.609375 0 
L 7.328125 0 
L 7.328125 8.296875 
Q 12.9375 14.109375 22.625 23.890625 
Q 32.328125 33.6875 34.8125 36.53125 
Q 39.546875 41.84375 41.421875 45.53125 
Q 43.3125 49.21875 43.3125 52.78125 
Q 43.3125 58.59375 39.234375 62.25 
Q 35.15625 65.921875 28.609375 65.921875 
Q 23.96875 65.921875 18.8125 64.3125 
Q 13.671875 62.703125 7.8125 59.421875 
L 7.8125 69.390625 
Q 13.765625 71.78125 18.9375 73 
Q 24.125 74.21875 28.421875 74.21875 
Q 39.75 74.21875 46.484375 68.546875 
Q 53.21875 62.890625 53.21875 53.421875 
Q 53.21875 48.921875 51.53125 44.890625 
Q 49.859375 40.875 45.40625 35.40625 
Q 44.1875 33.984375 37.640625 27.21875 
Q 31.109375 20.453125 19.1875 8.296875 
z
" id="DejaVuSans-32"/>
       <path d="M 31.78125 66.40625 
Q 24.171875 66.40625 20.328125 58.90625 
Q 16.5 51.421875 16.5 36.375 
Q 16.5 21.390625 20.328125 13.890625 
Q 24.171875 6.390625 31.78125 6.390625 
Q 39.453125 6.390625 43.28125 13.890625 
Q 47.125 21.390625 47.125 36.375 
Q 47.125 51.421875 43.28125 58.90625 
Q 39.453125 66.40625 31.78125 66.40625 
z
M 31.78125 74.21875 
Q 44.046875 74.21875 50.515625 64.515625 
Q 56.984375 54.828125 56.984375 36.375 
Q 56.984375 17.96875 50.515625 8.265625 
Q 44.046875 -1.421875 31.78125 -1.421875 
Q 19.53125 -1.421875 13.0625 8.265625 
Q 6.59375 17.96875 6.59375 36.375 
Q 6.59375 54.828125 13.0625 64.515625 
Q 19.53125 74.21875 31.78125 74.21875 
z
" id="DejaVuSans-30"/>
       <path d="M 12.40625 8.296875 
L 28.515625 8.296875 
L 28.515625 63.921875 
L 10.984375 60.40625 
L 10.984375 69.390625 
L 28.421875 72.90625 
L 38.28125 72.90625 
L 38.28125 8.296875 
L 54.390625 8.296875 
L 54.390625 0 
L 12.40625 0 
z
" id="DejaVuSans-31"/>
       <path d="M 10.984375 1.515625 
L 10.984375 10.5 
Q 14.703125 8.734375 18.5 7.8125 
Q 22.3125 6.890625 25.984375 6.890625 
Q 35.75 6.890625 40.890625 13.453125 
Q 46.046875 20.015625 46.78125 33.40625 
Q 43.953125 29.203125 39.59375 26.953125 
Q 35.25 24.703125 29.984375 24.703125 
Q 19.046875 24.703125 12.671875 31.3125 
Q 6.296875 37.9375 6.296875 49.421875 
Q 6.296875 60.640625 12.9375 67.421875 
Q 19.578125 74.21875 30.609375 74.21875 
Q 43.265625 74.21875 49.921875 64.515625 
Q 56.59375 54.828125 56.59375 36.375 
Q 56.59375 19.140625 48.40625 8.859375 
Q 40.234375 -1.421875 26.421875 -1.421875 
Q 22.703125 -1.421875 18.890625 -0.6875 
Q 15.09375 0.046875 10.984375 1.515625 
z
M 30.609375 32.421875 
Q 37.25 32.421875 41.125 36.953125 
Q 45.015625 41.5 45.015625 49.421875 
Q 45.015625 57.28125 41.125 61.84375 
Q 37.25 66.40625 30.609375 66.40625 
Q 23.96875 66.40625 20.09375 61.84375 
Q 16.21875 57.28125 16.21875 49.421875 
Q 16.21875 41.5 20.09375 36.953125 
Q 23.96875 32.421875 30.609375 32.421875 
z
" id="DejaVuSans-39"/>
       <path d="M 4.890625 31.390625 
L 31.203125 31.390625 
L 31.203125 23.390625 
L 4.890625 23.390625 
z
" id="DejaVuSans-2d"/>
      </defs>
      <g transform="translate(36.607906 310.951846)rotate(-30)scale(0.1 -0.1)">
       <use xlink:href="#DejaVuSans-32"/>
       <use x="63.623047" xlink:href="#DejaVuSans-30"/>
       <use x="127.246094" xlink:href="#DejaVuSans-31"/>
       <use x="190.869141" xlink:href="#DejaVuSans-39"/>
       <use x="254.492188" xlink:href="#DejaVuSans-2d"/>
       <use x="290.576172" xlink:href="#DejaVuSans-30"/>
       <use x="354.199219" xlink:href="#DejaVuSans-31"/>
      </g>
     </g>
    </g>
    <g id="xtick_2">
     <g id="line2d_3">
      <path clip-path="url(#p4c8c28626c)" d="M 110.565713 276.48 
L 110.565713 41.472 
" style="fill:none;stroke:#b0b0b0;stroke-linecap:square;stroke-width:0.8;"/>
     </g>
     <g id="line2d_4">
      <g>
       <use style="stroke:#000000;stroke-width:0.8;" x="110.565713" xlink:href="#mef9d073f6b" y="276.48"/>
      </g>
     </g>
     <g id="text_2">
      <!-- 2019-02 -->
      <g transform="translate(73.340892 310.951846)rotate(-30)scale(0.1 -0.1)">
       <use xlink:href="#DejaVuSans-32"/>
       <use x="63.623047" xlink:href="#DejaVuSans-30"/>
       <use x="127.246094" xlink:href="#DejaVuSans-31"/>
       <use x="190.869141" xlink:href="#DejaVuSans-39"/>
       <use x="254.492188" xlink:href="#DejaVuSans-2d"/>
       <use x="290.576172" xlink:href="#DejaVuSans-30"/>
       <use x="354.199219" xlink:href="#DejaVuSans-32"/>
      </g>
     </g>
    </g>
    <g id="xtick_3">
     <g id="line2d_5">
      <path clip-path="url(#p4c8c28626c)" d="M 143.743894 276.48 
L 143.743894 41.472 
" style="fill:none;stroke:#b0b0b0;stroke-linecap:square;stroke-width:0.8;"/>
     </g>
     <g id="line2d_6">
      <g>
       <use style="stroke:#000000;stroke-width:0.8;" x="143.743894" xlink:href="#mef9d073f6b" y="276.48"/>
      </g>
     </g>
     <g id="text_3">
      <!-- 2019-03 -->
      <defs>
       <path d="M 40.578125 39.3125 
Q 47.65625 37.796875 51.625 33 
Q 55.609375 28.21875 55.609375 21.1875 
Q 55.609375 10.40625 48.1875 4.484375 
Q 40.765625 -1.421875 27.09375 -1.421875 
Q 22.515625 -1.421875 17.65625 -0.515625 
Q 12.796875 0.390625 7.625 2.203125 
L 7.625 11.71875 
Q 11.71875 9.328125 16.59375 8.109375 
Q 21.484375 6.890625 26.8125 6.890625 
Q 36.078125 6.890625 40.9375 10.546875 
Q 45.796875 14.203125 45.796875 21.1875 
Q 45.796875 27.640625 41.28125 31.265625 
Q 36.765625 34.90625 28.71875 34.90625 
L 20.21875 34.90625 
L 20.21875 43.015625 
L 29.109375 43.015625 
Q 36.375 43.015625 40.234375 45.921875 
Q 44.09375 48.828125 44.09375 54.296875 
Q 44.09375 59.90625 40.109375 62.90625 
Q 36.140625 65.921875 28.71875 65.921875 
Q 24.65625 65.921875 20.015625 65.03125 
Q 15.375 64.15625 9.8125 62.3125 
L 9.8125 71.09375 
Q 15.4375 72.65625 20.34375 73.4375 
Q 25.25 74.21875 29.59375 74.21875 
Q 40.828125 74.21875 47.359375 69.109375 
Q 53.90625 64.015625 53.90625 55.328125 
Q 53.90625 49.265625 50.4375 45.09375 
Q 46.96875 40.921875 40.578125 39.3125 
z
" id="DejaVuSans-33"/>
      </defs>
      <g transform="translate(106.519073 310.951846)rotate(-30)scale(0.1 -0.1)">
       <use xlink:href="#DejaVuSans-32"/>
       <use x="63.623047" xlink:href="#DejaVuSans-30"/>
       <use x="127.246094" xlink:href="#DejaVuSans-31"/>
       <use x="190.869141" xlink:href="#DejaVuSans-39"/>
       <use x="254.492188" xlink:href="#DejaVuSans-2d"/>
       <use x="290.576172" xlink:href="#DejaVuSans-30"/>
       <use x="354.199219" xlink:href="#DejaVuSans-33"/>
      </g>
     </g>
    </g>
    <g id="xtick_4">
     <g id="line2d_7">
      <path clip-path="url(#p4c8c28626c)" d="M 180.476879 276.48 
L 180.476879 41.472 
" style="fill:none;stroke:#b0b0b0;stroke-linecap:square;stroke-width:0.8;"/>
     </g>
     <g id="line2d_8">
      <g>
       <use style="stroke:#000000;stroke-width:0.8;" x="180.476879" xlink:href="#mef9d073f6b" y="276.48"/>
      </g>
     </g>
     <g id="text_4">
      <!-- 2019-04 -->
      <defs>
       <path d="M 37.796875 64.3125 
L 12.890625 25.390625 
L 37.796875 25.390625 
z
M 35.203125 72.90625 
L 47.609375 72.90625 
L 47.609375 25.390625 
L 58.015625 25.390625 
L 58.015625 17.1875 
L 47.609375 17.1875 
L 47.609375 0 
L 37.796875 0 
L 37.796875 17.1875 
L 4.890625 17.1875 
L 4.890625 26.703125 
z
" id="DejaVuSans-34"/>
      </defs>
      <g transform="translate(143.252058 310.951846)rotate(-30)scale(0.1 -0.1)">
       <use xlink:href="#DejaVuSans-32"/>
       <use x="63.623047" xlink:href="#DejaVuSans-30"/>
       <use x="127.246094" xlink:href="#DejaVuSans-31"/>
       <use x="190.869141" xlink:href="#DejaVuSans-39"/>
       <use x="254.492188" xlink:href="#DejaVuSans-2d"/>
       <use x="290.576172" xlink:href="#DejaVuSans-30"/>
       <use x="354.199219" xlink:href="#DejaVuSans-34"/>
      </g>
     </g>
    </g>
    <g id="xtick_5">
     <g id="line2d_9">
      <path clip-path="url(#p4c8c28626c)" d="M 216.02493 276.48 
L 216.02493 41.472 
" style="fill:none;stroke:#b0b0b0;stroke-linecap:square;stroke-width:0.8;"/>
     </g>
     <g id="line2d_10">
      <g>
       <use style="stroke:#000000;stroke-width:0.8;" x="216.02493" xlink:href="#mef9d073f6b" y="276.48"/>
      </g>
     </g>
     <g id="text_5">
      <!-- 2019-05 -->
      <defs>
       <path d="M 10.796875 72.90625 
L 49.515625 72.90625 
L 49.515625 64.59375 
L 19.828125 64.59375 
L 19.828125 46.734375 
Q 21.96875 47.46875 24.109375 47.828125 
Q 26.265625 48.1875 28.421875 48.1875 
Q 40.625 48.1875 47.75 41.5 
Q 54.890625 34.8125 54.890625 23.390625 
Q 54.890625 11.625 47.5625 5.09375 
Q 40.234375 -1.421875 26.90625 -1.421875 
Q 22.3125 -1.421875 17.546875 -0.640625 
Q 12.796875 0.140625 7.71875 1.703125 
L 7.71875 11.625 
Q 12.109375 9.234375 16.796875 8.0625 
Q 21.484375 6.890625 26.703125 6.890625 
Q 35.15625 6.890625 40.078125 11.328125 
Q 45.015625 15.765625 45.015625 23.390625 
Q 45.015625 31 40.078125 35.4375 
Q 35.15625 39.890625 26.703125 39.890625 
Q 22.75 39.890625 18.8125 39.015625 
Q 14.890625 38.140625 10.796875 36.28125 
z
" id="DejaVuSans-35"/>
      </defs>
      <g transform="translate(178.800109 310.951846)rotate(-30)scale(0.1 -0.1)">
       <use xlink:href="#DejaVuSans-32"/>
       <use x="63.623047" xlink:href="#DejaVuSans-30"/>
       <use x="127.246094" xlink:href="#DejaVuSans-31"/>
       <use x="190.869141" xlink:href="#DejaVuSans-39"/>
       <use x="254.492188" xlink:href="#DejaVuSans-2d"/>
       <use x="290.576172" xlink:href="#DejaVuSans-30"/>
       <use x="354.199219" xlink:href="#DejaVuSans-35"/>
      </g>
     </g>
    </g>
    <g id="xtick_6">
     <g id="line2d_11">
      <path clip-path="url(#p4c8c28626c)" d="M 252.757916 276.48 
L 252.757916 41.472 
" style="fill:none;stroke:#b0b0b0;stroke-linecap:square;stroke-width:0.8;"/>
     </g>
     <g id="line2d_12">
      <g>
       <use style="stroke:#000000;stroke-width:0.8;" x="252.757916" xlink:href="#mef9d073f6b" y="276.48"/>
      </g>
     </g>
     <g id="text_6">
      <!-- 2019-06 -->
      <defs>
       <path d="M 33.015625 40.375 
Q 26.375 40.375 22.484375 35.828125 
Q 18.609375 31.296875 18.609375 23.390625 
Q 18.609375 15.53125 22.484375 10.953125 
Q 26.375 6.390625 33.015625 6.390625 
Q 39.65625 6.390625 43.53125 10.953125 
Q 47.40625 15.53125 47.40625 23.390625 
Q 47.40625 31.296875 43.53125 35.828125 
Q 39.65625 40.375 33.015625 40.375 
z
M 52.59375 71.296875 
L 52.59375 62.3125 
Q 48.875 64.0625 45.09375 64.984375 
Q 41.3125 65.921875 37.59375 65.921875 
Q 27.828125 65.921875 22.671875 59.328125 
Q 17.53125 52.734375 16.796875 39.40625 
Q 19.671875 43.65625 24.015625 45.921875 
Q 28.375 48.1875 33.59375 48.1875 
Q 44.578125 48.1875 50.953125 41.515625 
Q 57.328125 34.859375 57.328125 23.390625 
Q 57.328125 12.15625 50.6875 5.359375 
Q 44.046875 -1.421875 33.015625 -1.421875 
Q 20.359375 -1.421875 13.671875 8.265625 
Q 6.984375 17.96875 6.984375 36.375 
Q 6.984375 53.65625 15.1875 63.9375 
Q 23.390625 74.21875 37.203125 74.21875 
Q 40.921875 74.21875 44.703125 73.484375 
Q 48.484375 72.75 52.59375 71.296875 
z
" id="DejaVuSans-36"/>
      </defs>
      <g transform="translate(215.533095 310.951846)rotate(-30)scale(0.1 -0.1)">
       <use xlink:href="#DejaVuSans-32"/>
       <use x="63.623047" xlink:href="#DejaVuSans-30"/>
       <use x="127.246094" xlink:href="#DejaVuSans-31"/>
       <use x="190.869141" xlink:href="#DejaVuSans-39"/>
       <use x="254.492188" xlink:href="#DejaVuSans-2d"/>
       <use x="290.576172" xlink:href="#DejaVuSans-30"/>
       <use x="354.199219" xlink:href="#DejaVuSans-36"/>
      </g>
     </g>
    </g>
    <g id="xtick_7">
     <g id="line2d_13">
      <path clip-path="url(#p4c8c28626c)" d="M 288.305966 276.48 
L 288.305966 41.472 
" style="fill:none;stroke:#b0b0b0;stroke-linecap:square;stroke-width:0.8;"/>
     </g>
     <g id="line2d_14">
      <g>
       <use style="stroke:#000000;stroke-width:0.8;" x="288.305966" xlink:href="#mef9d073f6b" y="276.48"/>
      </g>
     </g>
     <g id="text_7">
      <!-- 2019-07 -->
      <defs>
       <path d="M 8.203125 72.90625 
L 55.078125 72.90625 
L 55.078125 68.703125 
L 28.609375 0 
L 18.3125 0 
L 43.21875 64.59375 
L 8.203125 64.59375 
z
" id="DejaVuSans-37"/>
      </defs>
      <g transform="translate(251.081145 310.951846)rotate(-30)scale(0.1 -0.1)">
       <use xlink:href="#DejaVuSans-32"/>
       <use x="63.623047" xlink:href="#DejaVuSans-30"/>
       <use x="127.246094" xlink:href="#DejaVuSans-31"/>
       <use x="190.869141" xlink:href="#DejaVuSans-39"/>
       <use x="254.492188" xlink:href="#DejaVuSans-2d"/>
       <use x="290.576172" xlink:href="#DejaVuSans-30"/>
       <use x="354.199219" xlink:href="#DejaVuSans-37"/>
      </g>
     </g>
    </g>
    <g id="xtick_8">
     <g id="line2d_15">
      <path clip-path="url(#p4c8c28626c)" d="M 325.038952 276.48 
L 325.038952 41.472 
" style="fill:none;stroke:#b0b0b0;stroke-linecap:square;stroke-width:0.8;"/>
     </g>
     <g id="line2d_16">
      <g>
       <use style="stroke:#000000;stroke-width:0.8;" x="325.038952" xlink:href="#mef9d073f6b" y="276.48"/>
      </g>
     </g>
     <g id="text_8">
      <!-- 2019-08 -->
      <defs>
       <path d="M 31.78125 34.625 
Q 24.75 34.625 20.71875 30.859375 
Q 16.703125 27.09375 16.703125 20.515625 
Q 16.703125 13.921875 20.71875 10.15625 
Q 24.75 6.390625 31.78125 6.390625 
Q 38.8125 6.390625 42.859375 10.171875 
Q 46.921875 13.96875 46.921875 20.515625 
Q 46.921875 27.09375 42.890625 30.859375 
Q 38.875 34.625 31.78125 34.625 
z
M 21.921875 38.8125 
Q 15.578125 40.375 12.03125 44.71875 
Q 8.5 49.078125 8.5 55.328125 
Q 8.5 64.0625 14.71875 69.140625 
Q 20.953125 74.21875 31.78125 74.21875 
Q 42.671875 74.21875 48.875 69.140625 
Q 55.078125 64.0625 55.078125 55.328125 
Q 55.078125 49.078125 51.53125 44.71875 
Q 48 40.375 41.703125 38.8125 
Q 48.828125 37.15625 52.796875 32.3125 
Q 56.78125 27.484375 56.78125 20.515625 
Q 56.78125 9.90625 50.3125 4.234375 
Q 43.84375 -1.421875 31.78125 -1.421875 
Q 19.734375 -1.421875 13.25 4.234375 
Q 6.78125 9.90625 6.78125 20.515625 
Q 6.78125 27.484375 10.78125 32.3125 
Q 14.796875 37.15625 21.921875 38.8125 
z
M 18.3125 54.390625 
Q 18.3125 48.734375 21.84375 45.5625 
Q 25.390625 42.390625 31.78125 42.390625 
Q 38.140625 42.390625 41.71875 45.5625 
Q 45.3125 48.734375 45.3125 54.390625 
Q 45.3125 60.0625 41.71875 63.234375 
Q 38.140625 66.40625 31.78125 66.40625 
Q 25.390625 66.40625 21.84375 63.234375 
Q 18.3125 60.0625 18.3125 54.390625 
z
" id="DejaVuSans-38"/>
      </defs>
      <g transform="translate(287.814131 310.951846)rotate(-30)scale(0.1 -0.1)">
       <use xlink:href="#DejaVuSans-32"/>
       <use x="63.623047" xlink:href="#DejaVuSans-30"/>
       <use x="127.246094" xlink:href="#DejaVuSans-31"/>
       <use x="190.869141" xlink:href="#DejaVuSans-39"/>
       <use x="254.492188" xlink:href="#DejaVuSans-2d"/>
       <use x="290.576172" xlink:href="#DejaVuSans-30"/>
       <use x="354.199219" xlink:href="#DejaVuSans-38"/>
      </g>
     </g>
    </g>
    <g id="xtick_9">
     <g id="line2d_17">
      <path clip-path="url(#p4c8c28626c)" d="M 361.771938 276.48 
L 361.771938 41.472 
" style="fill:none;stroke:#b0b0b0;stroke-linecap:square;stroke-width:0.8;"/>
     </g>
     <g id="line2d_18">
      <g>
       <use style="stroke:#000000;stroke-width:0.8;" x="361.771938" xlink:href="#mef9d073f6b" y="276.48"/>
      </g>
     </g>
     <g id="text_9">
      <!-- 2019-09 -->
      <g transform="translate(324.547117 310.951846)rotate(-30)scale(0.1 -0.1)">
       <use xlink:href="#DejaVuSans-32"/>
       <use x="63.623047" xlink:href="#DejaVuSans-30"/>
       <use x="127.246094" xlink:href="#DejaVuSans-31"/>
       <use x="190.869141" xlink:href="#DejaVuSans-39"/>
       <use x="254.492188" xlink:href="#DejaVuSans-2d"/>
       <use x="290.576172" xlink:href="#DejaVuSans-30"/>
       <use x="354.199219" xlink:href="#DejaVuSans-39"/>
      </g>
     </g>
    </g>
    <g id="xtick_10">
     <g id="line2d_19">
      <path clip-path="url(#p4c8c28626c)" d="M 397.319988 276.48 
L 397.319988 41.472 
" style="fill:none;stroke:#b0b0b0;stroke-linecap:square;stroke-width:0.8;"/>
     </g>
     <g id="line2d_20">
      <g>
       <use style="stroke:#000000;stroke-width:0.8;" x="397.319988" xlink:href="#mef9d073f6b" y="276.48"/>
      </g>
     </g>
     <g id="text_10">
      <!-- 2019-10 -->
      <g transform="translate(360.095167 310.951846)rotate(-30)scale(0.1 -0.1)">
       <use xlink:href="#DejaVuSans-32"/>
       <use x="63.623047" xlink:href="#DejaVuSans-30"/>
       <use x="127.246094" xlink:href="#DejaVuSans-31"/>
       <use x="190.869141" xlink:href="#DejaVuSans-39"/>
       <use x="254.492188" xlink:href="#DejaVuSans-2d"/>
       <use x="290.576172" xlink:href="#DejaVuSans-31"/>
       <use x="354.199219" xlink:href="#DejaVuSans-30"/>
      </g>
     </g>
    </g>
    <g id="text_11">
     <!-- date -->
     <defs>
      <path d="M 45.40625 46.390625 
L 45.40625 75.984375 
L 54.390625 75.984375 
L 54.390625 0 
L 45.40625 0 
L 45.40625 8.203125 
Q 42.578125 3.328125 38.25 0.953125 
Q 33.9375 -1.421875 27.875 -1.421875 
Q 17.96875 -1.421875 11.734375 6.484375 
Q 5.515625 14.40625 5.515625 27.296875 
Q 5.515625 40.1875 11.734375 48.09375 
Q 17.96875 56 27.875 56 
Q 33.9375 56 38.25 53.625 
Q 42.578125 51.265625 45.40625 46.390625 
z
M 14.796875 27.296875 
Q 14.796875 17.390625 18.875 11.75 
Q 22.953125 6.109375 30.078125 6.109375 
Q 37.203125 6.109375 41.296875 11.75 
Q 45.40625 17.390625 45.40625 27.296875 
Q 45.40625 37.203125 41.296875 42.84375 
Q 37.203125 48.484375 30.078125 48.484375 
Q 22.953125 48.484375 18.875 42.84375 
Q 14.796875 37.203125 14.796875 27.296875 
z
" id="DejaVuSans-64"/>
      <path d="M 34.28125 27.484375 
Q 23.390625 27.484375 19.1875 25 
Q 14.984375 22.515625 14.984375 16.5 
Q 14.984375 11.71875 18.140625 8.90625 
Q 21.296875 6.109375 26.703125 6.109375 
Q 34.1875 6.109375 38.703125 11.40625 
Q 43.21875 16.703125 43.21875 25.484375 
L 43.21875 27.484375 
z
M 52.203125 31.203125 
L 52.203125 0 
L 43.21875 0 
L 43.21875 8.296875 
Q 40.140625 3.328125 35.546875 0.953125 
Q 30.953125 -1.421875 24.3125 -1.421875 
Q 15.921875 -1.421875 10.953125 3.296875 
Q 6 8.015625 6 15.921875 
Q 6 25.140625 12.171875 29.828125 
Q 18.359375 34.515625 30.609375 34.515625 
L 43.21875 34.515625 
L 43.21875 35.40625 
Q 43.21875 41.609375 39.140625 45 
Q 35.0625 48.390625 27.6875 48.390625 
Q 23 48.390625 18.546875 47.265625 
Q 14.109375 46.140625 10.015625 43.890625 
L 10.015625 52.203125 
Q 14.9375 54.109375 19.578125 55.046875 
Q 24.21875 56 28.609375 56 
Q 40.484375 56 46.34375 49.84375 
Q 52.203125 43.703125 52.203125 31.203125 
z
" id="DejaVuSans-61"/>
      <path d="M 18.3125 70.21875 
L 18.3125 54.6875 
L 36.8125 54.6875 
L 36.8125 47.703125 
L 18.3125 47.703125 
L 18.3125 18.015625 
Q 18.3125 11.328125 20.140625 9.421875 
Q 21.96875 7.515625 27.59375 7.515625 
L 36.8125 7.515625 
L 36.8125 0 
L 27.59375 0 
Q 17.1875 0 13.234375 3.875 
Q 9.28125 7.765625 9.28125 18.015625 
L 9.28125 47.703125 
L 2.6875 47.703125 
L 2.6875 54.6875 
L 9.28125 54.6875 
L 9.28125 70.21875 
z
" id="DejaVuSans-74"/>
      <path d="M 56.203125 29.59375 
L 56.203125 25.203125 
L 14.890625 25.203125 
Q 15.484375 15.921875 20.484375 11.0625 
Q 25.484375 6.203125 34.421875 6.203125 
Q 39.59375 6.203125 44.453125 7.46875 
Q 49.3125 8.734375 54.109375 11.28125 
L 54.109375 2.78125 
Q 49.265625 0.734375 44.1875 -0.34375 
Q 39.109375 -1.421875 33.890625 -1.421875 
Q 20.796875 -1.421875 13.15625 6.1875 
Q 5.515625 13.8125 5.515625 26.8125 
Q 5.515625 40.234375 12.765625 48.109375 
Q 20.015625 56 32.328125 56 
Q 43.359375 56 49.78125 48.890625 
Q 56.203125 41.796875 56.203125 29.59375 
z
M 47.21875 32.234375 
Q 47.125 39.59375 43.09375 43.984375 
Q 39.0625 48.390625 32.421875 48.390625 
Q 24.90625 48.390625 20.390625 44.140625 
Q 15.875 39.890625 15.1875 32.171875 
z
" id="DejaVuSans-65"/>
     </defs>
     <g transform="translate(224.885 324.351346)scale(0.1 -0.1)">
      <use xlink:href="#DejaVuSans-64"/>
      <use x="63.476562" xlink:href="#DejaVuSans-61"/>
      <use x="124.755859" xlink:href="#DejaVuSans-74"/>
      <use x="163.964844" xlink:href="#DejaVuSans-65"/>
     </g>
    </g>
   </g>
   <g id="matplotlib.axis_2">
    <g id="ytick_1">
     <g id="line2d_21">
      <path clip-path="url(#p4c8c28626c)" d="M 57.6 265.797818 
L 414.72 265.797818 
" style="fill:none;stroke:#b0b0b0;stroke-linecap:square;stroke-width:0.8;"/>
     </g>
     <g id="line2d_22">
      <defs>
       <path d="M 0 0 
L -3.5 0 
" id="md4b48dda33" style="stroke:#000000;stroke-width:0.8;"/>
      </defs>
      <g>
       <use style="stroke:#000000;stroke-width:0.8;" x="57.6" xlink:href="#md4b48dda33" y="265.797818"/>
      </g>
     </g>
     <g id="text_12">
      <!-- 0 -->
      <g transform="translate(44.2375 269.597037)scale(0.1 -0.1)">
       <use xlink:href="#DejaVuSans-30"/>
      </g>
     </g>
    </g>
    <g id="ytick_2">
     <g id="line2d_23">
      <path clip-path="url(#p4c8c28626c)" d="M 57.6 223.88486 
L 414.72 223.88486 
" style="fill:none;stroke:#b0b0b0;stroke-linecap:square;stroke-width:0.8;"/>
     </g>
     <g id="line2d_24">
      <g>
       <use style="stroke:#000000;stroke-width:0.8;" x="57.6" xlink:href="#md4b48dda33" y="223.88486"/>
      </g>
     </g>
     <g id="text_13">
      <!-- 2000 -->
      <g transform="translate(25.15 227.684078)scale(0.1 -0.1)">
       <use xlink:href="#DejaVuSans-32"/>
       <use x="63.623047" xlink:href="#DejaVuSans-30"/>
       <use x="127.246094" xlink:href="#DejaVuSans-30"/>
       <use x="190.869141" xlink:href="#DejaVuSans-30"/>
      </g>
     </g>
    </g>
    <g id="ytick_3">
     <g id="line2d_25">
      <path clip-path="url(#p4c8c28626c)" d="M 57.6 181.971901 
L 414.72 181.971901 
" style="fill:none;stroke:#b0b0b0;stroke-linecap:square;stroke-width:0.8;"/>
     </g>
     <g id="line2d_26">
      <g>
       <use style="stroke:#000000;stroke-width:0.8;" x="57.6" xlink:href="#md4b48dda33" y="181.971901"/>
      </g>
     </g>
     <g id="text_14">
      <!-- 4000 -->
      <g transform="translate(25.15 185.77112)scale(0.1 -0.1)">
       <use xlink:href="#DejaVuSans-34"/>
       <use x="63.623047" xlink:href="#DejaVuSans-30"/>
       <use x="127.246094" xlink:href="#DejaVuSans-30"/>
       <use x="190.869141" xlink:href="#DejaVuSans-30"/>
      </g>
     </g>
    </g>
    <g id="ytick_4">
     <g id="line2d_27">
      <path clip-path="url(#p4c8c28626c)" d="M 57.6 140.058943 
L 414.72 140.058943 
" style="fill:none;stroke:#b0b0b0;stroke-linecap:square;stroke-width:0.8;"/>
     </g>
     <g id="line2d_28">
      <g>
       <use style="stroke:#000000;stroke-width:0.8;" x="57.6" xlink:href="#md4b48dda33" y="140.058943"/>
      </g>
     </g>
     <g id="text_15">
      <!-- 6000 -->
      <g transform="translate(25.15 143.858162)scale(0.1 -0.1)">
       <use xlink:href="#DejaVuSans-36"/>
       <use x="63.623047" xlink:href="#DejaVuSans-30"/>
       <use x="127.246094" xlink:href="#DejaVuSans-30"/>
       <use x="190.869141" xlink:href="#DejaVuSans-30"/>
      </g>
     </g>
    </g>
    <g id="ytick_5">
     <g id="line2d_29">
      <path clip-path="url(#p4c8c28626c)" d="M 57.6 98.145984 
L 414.72 98.145984 
" style="fill:none;stroke:#b0b0b0;stroke-linecap:square;stroke-width:0.8;"/>
     </g>
     <g id="line2d_30">
      <g>
       <use style="stroke:#000000;stroke-width:0.8;" x="57.6" xlink:href="#md4b48dda33" y="98.145984"/>
      </g>
     </g>
     <g id="text_16">
      <!-- 8000 -->
      <g transform="translate(25.15 101.945203)scale(0.1 -0.1)">
       <use xlink:href="#DejaVuSans-38"/>
       <use x="63.623047" xlink:href="#DejaVuSans-30"/>
       <use x="127.246094" xlink:href="#DejaVuSans-30"/>
       <use x="190.869141" xlink:href="#DejaVuSans-30"/>
      </g>
     </g>
    </g>
    <g id="ytick_6">
     <g id="line2d_31">
      <path clip-path="url(#p4c8c28626c)" d="M 57.6 56.233026 
L 414.72 56.233026 
" style="fill:none;stroke:#b0b0b0;stroke-linecap:square;stroke-width:0.8;"/>
     </g>
     <g id="line2d_32">
      <g>
       <use style="stroke:#000000;stroke-width:0.8;" x="57.6" xlink:href="#md4b48dda33" y="56.233026"/>
      </g>
     </g>
     <g id="text_17">
      <!-- 10000 -->
      <g transform="translate(18.7875 60.032245)scale(0.1 -0.1)">
       <use xlink:href="#DejaVuSans-31"/>
       <use x="63.623047" xlink:href="#DejaVuSans-30"/>
       <use x="127.246094" xlink:href="#DejaVuSans-30"/>
       <use x="190.869141" xlink:href="#DejaVuSans-30"/>
       <use x="254.492188" xlink:href="#DejaVuSans-30"/>
      </g>
     </g>
    </g>
    <g id="text_18">
     <!-- EUR -->
     <defs>
      <path d="M 9.8125 72.90625 
L 55.90625 72.90625 
L 55.90625 64.59375 
L 19.671875 64.59375 
L 19.671875 43.015625 
L 54.390625 43.015625 
L 54.390625 34.71875 
L 19.671875 34.71875 
L 19.671875 8.296875 
L 56.78125 8.296875 
L 56.78125 0 
L 9.8125 0 
z
" id="DejaVuSans-45"/>
      <path d="M 8.6875 72.90625 
L 18.609375 72.90625 
L 18.609375 28.609375 
Q 18.609375 16.890625 22.84375 11.734375 
Q 27.09375 6.59375 36.625 6.59375 
Q 46.09375 6.59375 50.34375 11.734375 
Q 54.59375 16.890625 54.59375 28.609375 
L 54.59375 72.90625 
L 64.5 72.90625 
L 64.5 27.390625 
Q 64.5 13.140625 57.4375 5.859375 
Q 50.390625 -1.421875 36.625 -1.421875 
Q 22.796875 -1.421875 15.734375 5.859375 
Q 8.6875 13.140625 8.6875 27.390625 
z
" id="DejaVuSans-55"/>
      <path d="M 44.390625 34.1875 
Q 47.5625 33.109375 50.5625 29.59375 
Q 53.5625 26.078125 56.59375 19.921875 
L 66.609375 0 
L 56 0 
L 46.6875 18.703125 
Q 43.0625 26.03125 39.671875 28.421875 
Q 36.28125 30.8125 30.421875 30.8125 
L 19.671875 30.8125 
L 19.671875 0 
L 9.8125 0 
L 9.8125 72.90625 
L 32.078125 72.90625 
Q 44.578125 72.90625 50.734375 67.671875 
Q 56.890625 62.453125 56.890625 51.90625 
Q 56.890625 45.015625 53.6875 40.46875 
Q 50.484375 35.9375 44.390625 34.1875 
z
M 19.671875 64.796875 
L 19.671875 38.921875 
L 32.078125 38.921875 
Q 39.203125 38.921875 42.84375 42.21875 
Q 46.484375 45.515625 46.484375 51.90625 
Q 46.484375 58.296875 42.84375 61.546875 
Q 39.203125 64.796875 32.078125 64.796875 
z
" id="DejaVuSans-52"/>
     </defs>
     <g transform="translate(12.707813 169.268969)rotate(-90)scale(0.1 -0.1)">
      <use xlink:href="#DejaVuSans-45"/>
      <use x="63.183594" xlink:href="#DejaVuSans-55"/>
      <use x="136.376953" xlink:href="#DejaVuSans-52"/>
     </g>
    </g>
   </g>
   <g id="line2d_33">
    <path clip-path="url(#p4c8c28626c)" d="M 73.832727 265.797818 
L 115.305453 265.704042 
L 115.305453 265.688498 
L 115.305453 265.684248 
L 122.415063 265.535813 
L 122.415063 265.399304 
L 122.415063 265.399304 
L 124.784933 265.32639 
L 124.784933 265.294087 
L 124.784933 265.110228 
L 130.709608 264.956739 
L 130.709608 264.750075 
L 134.264413 264.636082 
L 134.264413 264.602242 
L 134.264413 264.602242 
L 140.189089 264.482929 
L 140.189089 264.460866 
L 143.743894 264.421509 
L 143.743894 264.352754 
L 143.743894 264.346821 
L 147.298699 264.240706 
L 147.298699 264.037897 
L 149.668569 263.930145 
L 149.668569 263.878816 
L 152.038439 263.76135 
L 152.038439 263.713713 
L 156.778179 263.602703 
L 156.778179 263.540787 
L 157.963114 263.428793 
L 157.963114 263.367496 
L 157.963114 263.367496 
L 163.887789 263.234979 
L 163.887789 263.112812 
L 168.627529 263.002021 
L 168.627529 262.972798 
L 176.922074 262.83564 
L 176.922074 262.815509 
L 181.661814 262.702886 
L 181.661814 262.701076 
L 182.846749 262.591045 
L 182.846749 262.550658 
L 184.031684 262.439499 
L 184.031684 262.414322 
L 188.771424 262.29318 
L 188.771424 262.21735 
L 192.326229 262.09342 
L 192.326229 262.041634 
L 197.06597 261.964068 
L 197.06597 261.932927 
L 197.06597 261.69385 
L 200.620775 261.567653 
L 200.620775 261.350914 
L 206.54545 261.240182 
L 206.54545 261.21917 
L 213.65506 261.10341 
L 213.65506 261.038123 
L 218.3948 260.889592 
L 218.3948 260.79153 
L 218.3948 260.79153 
L 221.949605 260.665434 
L 221.949605 260.594335 
L 224.319475 260.474077 
L 224.319475 260.462005 
L 230.24415 260.331178 
L 230.24415 260.167047 
L 232.61402 260.057008 
L 232.61402 260.005814 
L 238.538695 259.847284 
L 238.538695 259.7226 
L 243.278435 259.571703 
L 243.278435 259.559284 
L 255.127786 259.441284 
L 255.127786 259.294969 
L 256.312721 259.178739 
L 256.312721 259.172649 
L 259.867526 259.039831 
L 259.867526 258.997316 
L 263.422331 258.869253 
L 263.422331 258.811 
L 265.792201 258.705834 
L 265.792201 258.598676 
L 266.977136 258.487823 
L 266.977136 258.445286 
L 266.977136 258.445286 
L 271.716876 258.323096 
L 271.716876 258.286664 
L 271.716876 258.286664 
L 272.901811 258.172986 
L 272.901811 258.062009 
L 276.456616 257.952963 
L 276.456616 257.935943 
L 284.751161 257.806914 
L 284.751161 257.781807 
L 288.305966 257.668143 
L 288.305966 257.583935 
L 288.305966 257.583935 
L 289.490901 257.507802 
L 289.490901 257.436296 
L 290.675836 257.321169 
L 290.675836 256.787301 
L 291.860771 256.666605 
L 291.860771 256.154523 
L 293.045706 256.154523 
L 293.045706 256.045423 
L 293.045706 255.936312 
L 296.600511 255.812237 
L 296.600511 255.034648 
L 297.785446 254.925064 
L 297.785446 254.876441 
L 298.970381 254.876441 
L 298.970381 254.82633 
L 298.970381 254.51741 
L 301.340252 254.405981 
L 301.340252 254.177256 
L 301.340252 254.177256 
L 304.895057 254.063284 
L 304.895057 253.818353 
L 306.079992 253.709568 
L 306.079992 253.563805 
L 307.264927 253.452618 
L 307.264927 253.193382 
L 308.449862 253.07742 
L 308.449862 252.618771 
L 309.634797 252.558215 
L 309.634797 252.337101 
L 313.189602 252.097001 
L 313.189602 252.021132 
L 314.374537 251.917997 
L 314.374537 251.695064 
L 316.744407 251.578686 
L 316.744407 251.576387 
L 321.484147 251.47473 
L 321.484147 251.378494 
L 323.854017 251.289562 
L 323.854017 251.190827 
L 325.038952 251.090749 
L 325.038952 250.850377 
L 326.223887 250.738151 
L 326.223887 250.703779 
L 329.778692 250.592127 
L 329.778692 250.592127 
L 329.778692 249.344268 
L 330.963627 249.233665 
L 330.963627 248.744572 
L 332.148562 248.635541 
L 332.148562 248.500855 
L 333.333497 248.500855 
L 333.333497 248.390662 
L 333.333497 248.232522 
L 334.518432 248.130412 
L 334.518432 248.064455 
L 338.073237 247.943727 
L 338.073237 247.943727 
L 338.073237 247.72818 
L 339.258172 247.618104 
L 339.258172 247.516353 
L 340.443107 247.403912 
L 340.443107 247.380983 
L 340.443107 247.380983 
L 341.628042 247.380983 
L 341.628042 247.285716 
L 341.628042 247.148607 
L 342.812977 247.038561 
L 342.812977 246.753055 
L 346.367782 246.62852 
L 346.367782 245.894006 
L 347.552717 245.894006 
L 347.552717 245.783087 
L 347.552717 245.700818 
L 348.737652 245.590577 
L 348.737652 245.547996 
L 351.107522 245.432647 
L 351.107522 245.291518 
L 354.662328 245.192841 
L 354.662328 245.078241 
L 357.032198 244.982728 
L 357.032198 244.970226 
L 357.032198 244.858684 
L 357.032198 244.858684 
L 360.587003 244.754026 
L 360.587003 244.667655 
L 362.956873 244.556526 
L 362.956873 244.392147 
L 362.956873 244.392147 
L 364.141808 244.285481 
L 364.141808 243.944077 
L 365.326743 243.835646 
L 365.326743 243.32052 
L 366.511678 243.208608 
L 366.511678 242.880776 
L 367.696613 242.769724 
L 367.696613 242.312512 
L 371.251418 242.195333 
L 371.251418 242.195333 
L 371.251418 241.872993 
L 372.436353 241.761554 
L 372.436353 241.628205 
L 373.621288 241.517244 
L 373.621288 241.503512 
L 375.991158 241.392262 
L 375.991158 241.113796 
L 379.545963 241.009847 
L 379.545963 240.451212 
L 380.730898 240.340453 
L 380.730898 240.182163 
L 381.915833 240.182163 
L 381.915833 240.078927 
L 381.915833 239.713349 
L 383.100768 239.603386 
L 383.100768 239.559845 
L 384.285703 239.451653 
L 384.285703 239.359574 
L 387.840508 239.253741 
L 387.840508 239.175597 
L 389.025443 239.136235 
L 389.025443 238.890161 
L 391.395313 238.775867 
L 391.395313 238.603255 
L 393.765183 238.521053 
L 393.765183 238.493216 
L 397.319988 238.386629 
L 397.319988 238.088077 
L 397.319988 238.088077 
" style="fill:none;stroke:#0000ff;stroke-linecap:square;stroke-width:1.5;"/>
   </g>
   <g id="line2d_34">
    <path clip-path="url(#p4c8c28626c)" d="M 73.832727 265.797818 
L 77.238524 265.713992 
L 77.42906 255.235753 
L 77.709495 255.382448 
L 77.87784 255.675839 
L 77.928735 256.094968 
L 78.548138 260.034786 
L 78.672871 260.244351 
L 78.879481 260.474872 
L 79.066506 261.166436 
L 79.172025 261.690348 
L 79.215473 261.92087 
L 79.357885 262.549564 
L 79.471153 263.031563 
L 79.573683 263.262084 
L 80.126255 264.205126 
L 80.265786 264.288952 
L 80.358757 264.791907 
L 80.576722 264.875733 
L 80.737333 265.273906 
L 80.832511 265.378689 
L 81.458209 265.483215 
L 81.459032 223.570257 
L 81.569804 225.246775 
L 81.738397 229.605723 
L 81.868987 247.753543 
L 82.027472 251.022754 
L 82.143881 255.251832 
L 82.359857 255.457682 
L 82.487334 257.544589 
L 82.577548 257.622841 
L 82.688786 260.263357 
L 82.714515 260.535791 
L 83.010378 263.323003 
L 83.087001 263.113111 
L 83.114801 263.343632 
L 83.331037 264.076561 
L 83.920296 264.411864 
L 83.959972 264.956733 
L 84.126864 264.998646 
L 84.206559 265.166297 
L 84.362329 265.585427 
L 85.145593 265.689963 
L 85.266281 265.731876 
L 86.089344 265.767152 
L 86.237955 265.556196 
L 86.259102 265.640022 
L 86.288095 265.618782 
L 86.337604 265.74452 
L 90.078241 265.786432 
L 90.970124 265.574086 
L 90.975939 265.678868 
L 90.983976 265.741738 
L 92.162863 265.78365 
L 93.710122 265.59283 
L 93.721505 265.781438 
L 98.010778 265.760359 
L 98.010778 265.560139 
L 98.013644 265.769704 
L 98.273987 265.756939 
L 114.523561 265.783111 
L 114.523561 265.754861 
L 114.523561 265.716896 
L 114.539497 265.779766 
L 114.60881 265.768205 
L 114.726988 265.789162 
L 115.817979 265.785214 
L 116.324785 265.567837 
L 116.86116 265.547506 
L 116.86116 265.437508 
L 116.899712 265.54229 
L 119.712863 265.796755 
L 123.154125 265.72279 
L 123.187246 265.498997 
L 123.246616 265.60378 
L 123.271426 265.624736 
L 125.171285 265.480516 
L 125.218381 265.42673 
L 125.281495 265.463132 
L 125.33553 265.44233 
L 125.380253 265.630938 
L 126.824612 265.711828 
L 126.913537 265.753741 
L 132.35206 265.759537 
L 132.500671 265.795662 
L 132.94007 265.777852 
L 133.700129 265.790141 
L 133.770745 256.864358 
L 133.858436 259.284512 
L 133.944838 264.186106 
L 134.833635 264.271787 
L 134.847294 263.747443 
L 134.869553 264.250399 
L 134.987704 264.271355 
L 135.06637 265.067701 
L 135.85966 265.064702 
L 135.9091 264.849783 
L 135.924282 265.080304 
L 135.958473 265.079158 
L 136.205348 265.116022 
L 136.358484 265.595297 
L 136.358484 265.593857 
L 137.243154 265.607093 
L 137.399266 265.753789 
L 139.917911 265.641647 
L 139.986141 265.628983 
L 139.990927 265.691853 
L 147.719721 265.586832 
L 147.820591 265.507917 
L 147.830329 265.528873 
L 147.92596 265.666877 
L 147.92596 265.641195 
L 148.21162 265.716827 
L 148.21162 265.712827 
L 148.21162 265.500517 
L 148.270496 265.710082 
L 148.7657 265.751995 
L 156.709839 265.752104 
L 156.734731 265.546406 
L 156.766028 265.693101 
L 157.207416 265.654949 
L 157.249012 265.559952 
L 157.305982 265.671059 
L 157.488879 265.712971 
L 157.488879 265.694043 
L 158.386234 265.582228 
L 158.428955 265.555396 
L 158.48539 265.702091 
L 158.499654 265.723048 
L 177.387874 265.774866 
L 177.480612 265.795281 
L 177.873958 265.786657 
L 177.972566 265.577092 
L 177.972566 265.230583 
L 177.991286 265.796408 
L 182.113296 265.743803 
L 182.222354 265.632338 
L 182.244558 265.758077 
L 182.474949 265.631639 
L 182.51612 265.160847 
L 182.516298 264.315504 
L 182.570635 265.337538 
L 182.843595 265.323368 
L 182.920794 265.555251 
L 183.216671 265.448374 
L 183.31414 265.39077 
L 183.69742 265.427922 
L 183.69742 265.422779 
L 184.782088 265.291006 
L 184.782088 265.2785 
L 184.822121 265.760499 
L 184.885702 265.759396 
L 184.936486 265.791542 
L 185.080791 265.394656 
L 185.097783 265.604221 
L 186.170931 265.563773 
L 186.247403 265.773338 
L 197.972404 265.649111 
L 197.972404 265.569752 
L 198.055829 265.672041 
L 198.066074 265.665592 
L 198.213464 265.663884 
L 198.290306 265.74771 
L 201.004438 265.636666 
L 201.038245 265.540578 
L 201.112728 265.674359 
L 201.287451 265.739742 
L 201.287451 265.733819 
L 203.58495 265.776052 
L 203.63435 265.796763 
L 218.780192 265.689728 
L 218.780192 265.635904 
L 218.880555 265.734454 
L 228.385983 265.767735 
L 228.39044 265.788692 
L 230.649209 265.674742 
L 230.681081 265.582639 
L 230.753316 265.65377 
L 231.939403 265.732093 
L 232.13264 265.789461 
L 232.13264 265.787807 
L 236.764337 265.794158 
L 238.922812 265.683489 
L 238.922812 265.597435 
L 239.02792 265.67068 
L 239.188819 265.72011 
L 239.188819 265.719668 
L 247.454262 265.77861 
L 247.524782 263.68862 
L 247.591709 264.519285 
L 249.017635 264.539226 
L 249.659407 264.536589 
L 249.904924 265.793977 
L 249.930721 264.536589 
L 250.895798 264.527211 
L 251.119263 264.778689 
L 251.138038 265.7846 
L 255.530197 265.674119 
L 255.600525 265.647112 
L 255.637596 265.709981 
L 256.319029 265.749703 
L 256.319029 265.772914 
L 266.261882 265.599263 
L 266.31024 265.597177 
L 266.349203 265.63909 
L 266.36326 265.638441 
L 266.608572 265.630958 
L 266.658246 265.418735 
L 266.68647 265.653448 
L 267.379397 265.541181 
L 267.423461 265.457288 
L 267.472258 265.489407 
L 267.524867 265.521901 
L 267.618112 265.738163 
L 267.79219 265.687116 
L 270.16062 265.765927 
L 270.248544 265.786884 
L 273.293964 265.678207 
L 273.293964 265.572604 
L 273.392942 265.631634 
L 274.78535 265.706852 
L 275.03239 265.745012 
L 275.03239 265.743858 
L 284.420134 265.65737 
L 284.420134 265.709931 
L 284.424591 265.130556 
L 284.427498 265.705622 
L 284.620489 265.696284 
L 284.628608 265.39325 
L 284.632695 265.707597 
L 285.755256 265.633779 
L 285.784592 264.68765 
L 285.78466 264.436247 
L 285.789502 265.644079 
L 285.804217 265.643259 
L 286.731415 265.70905 
L 286.731703 261.999841 
L 286.826772 265.777247 
L 286.83042 265.715485 
L 286.875555 265.759168 
L 286.875555 265.740235 
L 286.880835 263.914951 
L 286.885635 265.789256 
L 286.887048 265.587869 
L 286.997697 265.199262 
L 287.060934 265.793797 
L 287.063417 264.88425 
L 287.063499 263.48202 
L 287.135431 265.797088 
L 287.178043 265.555986 
L 287.188891 265.793589 
L 288.682169 265.690345 
L 288.682169 265.593289 
L 288.786276 265.797076 
L 288.820823 265.796642 
L 288.847731 213.405444 
L 288.948903 228.151145 
L 289.123434 245.052185 
L 289.222823 261.637891 
L 289.235276 261.871799 
L 289.335214 264.538372 
L 290.142835 264.526554 
L 290.234818 264.730242 
L 290.234942 265.784707 
L 290.342738 265.739015 
L 290.44081 265.795409 
L 290.44081 265.787546 
L 291.049022 265.789676 
L 291.049022 265.688667 
L 291.099108 213.403977 
L 291.060049 265.795175 
L 291.160083 219.274255 
L 291.197455 220.557281 
L 291.310065 228.178847 
L 291.322476 228.306476 
L 291.422524 237.142413 
L 291.428284 237.141253 
L 291.435018 237.527511 
L 291.535079 251.384729 
L 291.545625 240.906489 
L 291.547532 242.142123 
L 291.622509 251.063507 
L 291.62879 240.530572 
L 291.647497 241.99102 
L 291.659936 242.4233 
L 291.772409 254.085639 
L 291.774301 254.084448 
L 291.784889 255.473547 
L 291.884827 263.021747 
L 291.897293 263.260804 
L 291.934775 265.781272 
L 292.227937 265.671078 
L 292.227937 265.368558 
L 292.32195 265.793737 
L 292.565821 265.687138 
L 292.573268 261.589773 
L 292.65956 265.797518 
L 292.663825 265.776694 
L 292.908712 265.781236 
L 292.908712 265.77753 
L 292.908712 265.760794 
L 292.917791 265.783008 
L 293.007594 265.777492 
L 293.723835 265.681628 
L 293.723835 265.660316 
L 293.730171 265.793599 
L 293.822113 265.780201 
L 294.045152 265.794654 
L 296.985396 265.677075 
L 296.985396 265.377938 
L 296.993158 265.785241 
L 297.078751 265.779776 
L 303.327939 265.779611 
L 304.58722 265.772325 
L 304.58722 265.75144 
L 304.58722 265.708376 
L 304.647386 265.796971 
L 304.663226 265.795426 
L 305.28651 265.686272 
L 305.28651 265.644276 
L 305.29371 265.77053 
L 305.363339 265.76038 
L 305.681187 265.721878 
L 305.681187 265.50878 
L 305.781262 265.742538 
L 305.801203 265.763295 
L 305.801203 265.693491 
L 305.825793 265.504846 
L 305.882105 265.756682 
L 305.897547 265.755275 
L 305.945288 265.776601 
L 305.945288 265.776032 
L 306.444003 265.646435 
L 306.444003 265.568347 
L 306.543529 265.792406 
L 307.626675 265.675221 
L 307.626675 265.56071 
L 307.718013 265.79369 
L 308.822856 265.619471 
L 308.822856 265.368185 
L 308.830316 265.790298 
L 308.930803 265.72498 
L 308.957162 265.640366 
L 309.03026 265.777283 
L 309.597644 265.759275 
L 309.995022 265.396325 
L 309.995022 265.285802 
L 310.017898 265.749276 
L 310.105273 265.723034 
L 310.2408 265.764576 
L 310.2408 264.474046 
L 310.255461 265.775405 
L 310.339984 265.752709 
L 310.486894 265.714194 
L 310.486894 265.703928 
L 313.655896 265.785184 
L 313.655896 265.774082 
L 313.655896 265.648646 
L 313.756094 265.745872 
L 314.002091 265.776023 
L 314.002091 265.768021 
L 316.442811 265.671698 
L 316.442811 265.437824 
L 316.467003 265.783821 
L 316.4705 265.782717 
L 323.016882 265.791881 
L 323.016882 265.706341 
L 323.016882 265.657032 
L 323.067091 265.783221 
L 323.092024 265.782637 
L 323.534372 265.671837 
L 323.534372 265.67079 
L 323.567013 265.738316 
L 324.42354 265.782683 
L 324.42354 265.467298 
L 324.518266 265.788224 
L 325.40635 265.662284 
L 325.40635 265.496321 
L 325.498759 265.785342 
L 330.155307 265.628148 
L 330.155307 264.919557 
L 330.238403 265.789299 
L 330.26335 265.788681 
L 330.697552 265.674217 
L 330.697552 265.625879 
L 330.730604 265.79706 
L 330.793348 265.795021 
L 331.32281 265.686777 
L 331.32281 265.522536 
L 331.417948 265.784148 
L 332.104442 265.786663 
L 332.508829 265.571154 
L 332.610454 265.782449 
L 332.795092 265.766293 
L 332.818887 265.561445 
L 332.847879 265.797313 
L 332.894262 265.779715 
L 333.160118 265.786511 
L 334.221225 265.693238 
L 334.221225 265.535364 
L 334.230139 265.787038 
L 334.267662 265.782764 
L 335.600782 265.731456 
L 335.600796 265.191031 
L 335.607653 265.782564 
L 338.475882 265.78229 
L 338.475882 265.704217 
L 338.475882 265.69993 
L 338.483233 265.795274 
L 338.582087 265.777608 
L 342.034678 265.715201 
L 342.034692 265.77625 
L 342.108764 265.79729 
L 342.109792 265.778392 
L 343.193994 265.66927 
L 343.193994 265.440865 
L 343.206831 265.797659 
L 343.294343 265.780565 
L 343.483453 265.751636 
L 343.483453 265.643097 
L 343.494452 265.790393 
L 343.573269 265.784934 
L 343.857037 265.796551 
L 344.544436 265.797 
L 344.548674 265.599856 
L 344.59961 265.782951 
L 346.743053 265.781857 
L 346.743053 265.695591 
L 346.743067 265.197556 
L 346.758303 265.795404 
L 346.845775 265.770322 
L 346.981096 265.790399 
L 346.883929 265.664265 
L 346.981096 265.781458 
L 346.981096 265.761984 
L 346.983222 265.78296 
L 347.032183 265.779665 
L 348.415814 265.67816 
L 348.415814 265.66368 
L 348.422355 265.789609 
L 348.46306 265.784417 
L 351.492873 265.670053 
L 351.492873 265.621581 
L 351.554671 265.796886 
L 351.592441 265.790098 
L 356.397229 265.779024 
L 356.468489 265.596628 
L 356.471808 265.788357 
L 357.727894 265.780585 
L 357.727894 265.768751 
L 357.727894 265.638182 
L 357.73471 265.786848 
L 357.826515 265.779699 
L 363.326027 265.662982 
L 363.326027 265.632306 
L 363.424579 265.797072 
L 364.119439 265.787909 
L 364.532384 265.679799 
L 364.532384 265.450025 
L 364.551118 265.792342 
L 364.640893 265.790018 
L 365.696322 265.676814 
L 365.696322 265.271527 
L 365.702905 265.781417 
L 365.805764 265.750811 
L 365.92833 265.72533 
L 365.928577 265.748026 
L 366.049457 265.618673 
L 366.053626 265.706938 
L 366.123708 265.467748 
L 366.203759 265.553373 
L 366.320346 265.553371 
L 366.489392 265.686879 
L 366.874441 265.587321 
L 366.874441 265.418197 
L 366.966808 265.683967 
L 367.114555 265.693596 
L 367.114555 265.664317 
L 367.114555 265.659126 
L 367.216824 265.712713 
L 367.361018 265.763147 
L 367.363871 265.759422 
L 368.060116 265.640468 
L 368.122531 265.373872 
L 368.127071 265.709176 
L 368.163332 265.692814 
L 368.299243 265.580895 
L 368.398728 265.419393 
L 368.403967 265.44035 
L 368.444452 265.46091 
L 368.444452 265.364698 
L 368.497843 265.379953 
L 368.497843 265.369403 
L 368.510721 265.432272 
L 368.604679 265.42395 
L 368.878092 265.603683 
L 369.331535 265.62464 
L 369.458367 265.750379 
L 371.618981 265.638552 
L 371.68887 265.57938 
L 372.835089 265.47159 
L 372.926551 265.424756 
L 373.056524 265.531547 
L 373.209729 265.629419 
L 375.294625 265.599354 
L 375.470993 265.703335 
L 375.470993 265.702698 
L 376.373313 265.614104 
L 376.475624 265.506471 
L 376.524338 265.547698 
L 376.623768 265.699659 
L 379.317794 265.774641 
L 379.366906 265.795531 
L 379.366906 265.793389 
L 379.939405 265.685154 
L 379.962377 265.377178 
L 380.05388 265.461004 
L 380.056363 265.691525 
L 380.182742 265.58025 
L 380.281926 265.553098 
L 380.551059 265.457493 
L 380.650243 265.225777 
L 381.097501 265.114081 
L 381.201786 265.001214 
L 381.231602 265.336518 
L 381.301422 265.321945 
L 382.302103 265.210193 
L 382.398077 264.868253 
L 382.403645 264.973035 
L 382.58539 265.04548 
L 382.905939 265.118718 
L 383.06389 265.390247 
L 383.498668 265.356477 
L 383.707252 265.747989 
L 383.746311 265.733346 
L 383.894263 265.742387 
L 383.770489 265.603274 
L 383.894263 265.735622 
L 384.77058 265.621288 
L 384.77058 265.593338 
L 384.786626 265.740033 
L 384.856515 265.735288 
L 392.488087 265.678226 
L 392.488087 265.468953 
L 392.524704 265.709858 
L 397.913114 265.637317 
L 397.913114 263.780216 
L 397.988009 265.49648 
L 398.487273 265.491684 
L 398.487273 265.491684 
" style="fill:none;stroke:#ff0000;stroke-linecap:square;stroke-width:1.5;"/>
   </g>
   <g id="line2d_35">
    <path clip-path="url(#p4c8c28626c)" d="M 73.832727 265.797818 
L 77.387532 265.672079 
L 77.387532 261.019741 
L 78.572467 260.810176 
L 78.572467 257.415226 
L 79.757402 257.268531 
L 79.757402 255.759665 
L 80.942337 255.5501 
L 80.942337 244.799426 
L 80.942337 245.155686 
L 81.737478 244.946121 
L 81.764441 228.180938 
L 82.026388 227.971373 
L 82.127272 216.617093 
L 82.127272 216.933558 
L 82.359857 216.727707 
L 82.460165 215.47906 
L 83.312207 215.164712 
L 83.312207 213.865411 
L 84.497142 213.509151 
L 84.497142 213.467238 
L 84.497142 213.467512 
L 85.682077 213.362729 
L 85.682077 213.174121 
L 85.682077 213.490303 
L 90.421818 213.301694 
L 90.421818 213.280738 
L 90.421818 213.490303 
L 92.791688 213.427433 
L 92.791688 213.238825 
L 92.791688 213.44839 
L 97.531428 213.238825 
L 97.531428 213.259781 
L 97.531428 213.469346 
L 115.305453 213.350094 
L 115.305453 213.353721 
L 115.305453 213.564944 
L 116.490388 213.460162 
L 116.490388 213.208684 
L 116.490388 213.315839 
L 117.675323 213.1901 
L 117.675323 213.169144 
L 117.675323 213.306876 
L 118.860258 213.181138 
L 118.860258 213.160181 
L 118.860258 213.2086 
L 122.415063 213.08648 
L 122.415063 212.939785 
L 122.415063 213.234878 
L 123.599998 213.109139 
L 123.599998 213.067227 
L 123.599998 213.118554 
L 124.784933 212.992815 
L 124.784933 212.636555 
L 124.784933 212.882051 
L 125.969868 212.756312 
L 125.969868 212.693442 
L 125.969868 212.741672 
L 127.154803 212.615933 
L 127.154803 212.532107 
L 127.154803 212.703866 
L 130.709608 212.539543 
L 130.709608 212.309022 
L 130.709608 212.430602 
L 133.079478 212.291925 
L 133.079478 209.23228 
L 133.079478 209.244338 
L 133.85727 209.034774 
L 133.875373 204.906347 
L 134.264413 204.780608 
L 134.264413 203.52322 
L 134.264413 204.071181 
L 135.449348 203.966398 
L 135.449348 203.42153 
L 135.449348 203.640222 
L 137.819218 203.369814 
L 139.004153 203.244075 
L 139.004153 203.181206 
L 139.004153 203.379098 
L 141.374024 203.219917 
L 141.374024 203.322092 
L 141.374024 203.343049 
L 142.558959 203.21731 
L 142.558959 203.196353 
L 142.558959 203.24663 
L 142.558959 203.24663 
L 143.743894 203.120891 
L 143.743894 203.099935 
L 143.743894 203.139927 
L 147.298699 202.972476 
L 147.298699 202.616216 
L 147.298699 202.87152 
L 149.668569 202.718629 
L 149.668569 202.65576 
L 149.668569 202.662265 
L 152.038439 202.524565 
L 152.038439 202.482652 
L 152.038439 202.511803 
L 155.593244 202.366045 
L 155.593244 202.21935 
L 155.593244 202.477567 
L 156.778179 202.351828 
L 156.778179 202.247045 
L 156.778179 202.359314 
L 157.963114 202.233575 
L 157.963114 202.128793 
L 157.963114 202.213493 
L 160.332984 202.067331 
L 160.332984 202.004461 
L 160.332984 202.056435 
L 165.072724 201.870237 
L 165.072724 201.84928 
L 165.072724 201.855005 
L 176.922074 201.604056 
L 176.922074 201.038231 
L 176.922074 201.583763 
L 181.661814 201.523865 
L 181.661814 201.502909 
L 181.661814 201.209518 
L 181.661814 201.355077 
L 182.474949 201.476528 
L 182.51612 201.968287 
L 182.516298 202.813619 
L 182.516654 201.97536 
L 182.843595 201.969732 
L 182.846749 201.697579 
L 182.846749 201.729979 
L 184.031684 201.60424 
L 184.031684 200.975545 
L 184.031684 201.424724 
L 185.216619 201.382811 
L 185.216619 201.173247 
L 185.216619 201.193159 
L 188.771424 201.154848 
L 188.771424 201.091978 
L 188.771424 201.029109 
L 188.771424 201.06435 
L 191.141294 200.918611 
L 191.141294 200.897655 
L 191.141294 200.924667 
L 195.881035 200.788748 
L 195.881035 200.792694 
L 197.06597 200.58313 
L 197.06597 200.394521 
L 197.06597 200.560764 
L 200.620775 200.401768 
L 200.620775 200.171247 
L 200.620775 200.255555 
L 208.91532 200.00346 
L 208.91532 199.961547 
L 208.91532 200.008939 
L 217.209865 199.764522 
L 217.209865 199.743565 
L 217.209865 199.805818 
L 218.3948 199.680079 
L 218.3948 199.659123 
L 218.3948 199.689026 
L 221.949605 199.524582 
L 221.949605 199.482669 
L 221.949605 199.522102 
L 224.319475 199.388444 
L 224.319475 199.346531 
L 224.319475 199.376692 
L 226.689345 199.242977 
L 226.689345 199.22202 
L 226.689345 199.247477 
L 230.24415 199.080506 
L 230.24415 198.975724 
L 230.24415 199.087297 
L 231.429085 198.961558 
L 231.429085 198.940602 
L 231.429085 198.986219 
L 233.798955 198.864066 
L 233.798955 198.78024 
L 233.798955 198.842855 
L 238.538695 198.660219 
L 238.538695 198.59735 
L 238.538695 198.658949 
L 242.0935 198.518307 
L 242.0935 198.455437 
L 242.0935 198.507465 
L 246.83324 198.407594 
L 246.83324 197.548378 
L 246.83324 197.690345 
L 249.203111 197.639044 
L 249.203111 197.639443 
L 249.203111 198.896832 
L 250.388046 198.875875 
L 250.388046 197.618486 
L 250.388046 197.638738 
L 255.127786 197.450949 
L 255.127786 197.429992 
L 255.127786 197.49103 
L 258.682591 197.31899 
L 258.682591 197.193251 
L 258.682591 197.223656 
L 263.422331 197.055972 
L 263.422331 197.014059 
L 263.422331 197.082138 
L 265.792201 196.936523 
L 265.792201 196.89461 
L 265.792201 197.135561 
L 266.977136 196.884083 
L 266.977136 196.590692 
L 266.977136 196.822726 
L 268.162071 196.788605 
L 268.162071 196.746692 
L 268.162071 196.620953 
L 268.162071 196.77124 
L 269.347006 196.645624 
L 269.347006 196.603711 
L 269.347006 196.607399 
L 272.901811 196.4402 
L 272.901811 196.356374 
L 272.901811 196.405505 
L 275.271681 196.266967 
L 275.271681 196.204098 
L 275.271681 196.217712 
L 283.566226 196.019836 
L 283.566226 195.705489 
L 283.676998 195.857776 
L 284.420134 195.897218 
L 284.420134 195.849436 
L 284.423768 196.416137 
L 284.427498 195.914843 
L 284.628608 196.217877 
L 284.751161 196.196921 
L 284.751161 196.219252 
L 285.533026 196.265015 
L 285.78285 196.465329 
L 285.78466 197.462547 
L 285.789502 196.32589 
L 286.731415 196.261351 
L 286.731703 199.97056 
L 286.83042 196.78187 
L 286.857822 196.719246 
L 286.875569 196.857464 
L 286.880835 198.616696 
L 286.876734 196.750994 
L 286.887048 197.016067 
L 286.997697 197.404675 
L 287.060934 196.83885 
L 287.063417 197.748397 
L 287.063499 199.150627 
L 287.135431 196.927109 
L 287.178043 197.168211 
L 287.188891 196.937935 
L 288.305966 196.476892 
L 288.305966 194.863243 
L 288.305966 194.892336 
L 288.686531 194.769002 
L 288.786276 194.685845 
L 288.848911 194.581676 
L 288.948903 180.531396 
L 288.961301 180.427164 
L 289.061129 170.519295 
L 289.073568 170.288773 
L 289.179252 150.118208 
L 289.222755 150.096663 
L 289.272731 146.464799 
L 289.323488 146.50494 
L 289.335214 146.463027 
L 290.234805 146.367555 
L 290.234942 145.189108 
L 290.434872 145.123933 
L 290.675836 143.866544 
L 290.77251 143.937713 
L 291.059994 143.812219 
L 291.172535 137.041168 
L 291.184988 136.810977 
L 291.297543 129.905108 
L 291.309996 129.612831 
L 291.41003 121.478136 
L 291.422469 121.291555 
L 291.522585 106.874402 
L 291.535024 106.665633 
L 291.647497 96.315906 
L 291.659936 95.898852 
L 291.772409 84.624016 
L 291.784834 84.456424 
L 291.884827 75.117738 
L 291.897293 74.887875 
L 291.934775 73.67539 
L 292.234506 73.6546 
L 292.32195 73.201824 
L 292.572144 73.036847 
L 292.584665 71.228109 
L 292.65956 69.182831 
L 293.045706 69.120081 
L 293.045706 69.125582 
L 293.045706 69.3534 
L 293.73013 69.166432 
L 293.755159 69.061709 
L 293.905072 68.949196 
L 293.955021 68.907283 
L 295.415576 68.835298 
L 296.993103 68.667101 
L 296.993158 68.500402 
L 297.130646 68.378228 
L 297.330796 68.144158 
L 299.431382 67.751001 
L 299.531388 67.604609 
L 301.340252 67.49881 
L 301.340252 67.643999 
L 301.340252 67.673585 
L 301.981351 67.566043 
L 302.206255 67.272451 
L 304.895057 67.225939 
L 304.895057 67.372582 
L 304.895057 67.914178 
L 305.656336 67.669329 
L 305.831334 66.969809 
L 307.264927 66.61999 
L 307.264927 66.648584 
L 307.630542 66.542638 
L 307.718013 66.397078 
L 308.01784 66.355711 
L 308.117888 66.313918 
L 308.449862 66.421241 
L 308.449862 66.519095 
L 308.530352 66.513888 
L 308.830316 66.304921 
L 308.917829 66.067073 
L 309.155378 65.787052 
L 309.634797 65.766095 
L 309.634797 65.859447 
L 309.634797 67.431183 
L 310.005308 67.222844 
L 310.105273 66.951944 
L 310.155318 66.910408 
L 310.24283 66.49439 
L 310.255461 65.621934 
L 311.292855 65.49913 
L 313.792369 65.324059 
L 313.979682 65.220232 
L 314.904411 65.043527 
L 315.292107 64.898179 
L 315.559472 64.995646 
L 315.559472 65.266615 
L 315.579673 65.25239 
L 316.454441 65.138865 
L 316.467003 64.828985 
L 318.304516 64.742642 
L 318.404523 64.700849 
L 322.669082 64.581416 
L 322.669082 64.754973 
L 322.669082 64.878246 
L 322.669082 64.878246 
L 323.067091 64.754124 
L 323.292009 64.706711 
L 323.667061 64.582454 
L 323.854017 64.53001 
L 323.854017 64.534339 
L 323.854017 64.89282 
L 324.43074 64.787403 
L 324.518266 64.518812 
L 325.038952 64.410763 
L 325.038952 64.459146 
L 325.623918 64.147775 
L 329.778692 63.942297 
L 329.778692 63.973516 
L 329.778692 64.31684 
L 330.163234 64.233379 
L 330.26335 63.237635 
L 330.705533 62.725364 
L 330.730604 62.685488 
L 331.330408 62.560385 
L 331.417948 62.457683 
L 332.017822 62.084346 
L 332.148562 62.084346 
L 332.148562 62.084993 
L 332.148562 62.614698 
L 332.822878 62.155774 
L 332.885348 61.945728 
L 333.333497 61.868794 
L 333.333497 61.93463 
L 333.333497 62.168841 
L 333.333497 62.168841 
L 333.854718 62.033034 
L 333.917242 61.949653 
L 334.230071 61.793875 
L 334.267662 61.627474 
L 334.518432 61.608311 
L 334.518432 61.677661 
L 334.518432 62.202794 
L 335.482591 62.047661 
L 335.607599 61.926543 
L 335.607653 61.470088 
L 335.703367 61.470371 
L 338.708261 61.343876 
L 339.258172 61.150125 
L 339.258172 61.165544 
L 339.258172 61.191294 
L 339.633566 61.069656 
L 339.946367 60.968086 
L 340.443107 60.911073 
L 340.443107 60.945759 
L 340.443107 61.119461 
L 341.096646 61.027158 
L 341.096659 60.893375 
L 342.034692 60.785695 
L 342.234883 60.726683 
L 342.422593 60.640856 
L 342.812977 60.598803 
L 342.812977 60.618718 
L 342.812977 60.806407 
L 343.194227 60.672392 
L 343.294343 60.438155 
L 343.997912 60.215582 
L 343.997912 60.221024 
L 343.997912 60.431619 
L 344.544436 60.426351 
L 344.581959 60.239792 
L 346.367782 60.222145 
L 346.367782 60.305558 
L 346.895682 59.607211 
L 346.983222 59.503193 
L 349.460216 59.162443 
L 349.922587 59.100139 
L 349.922587 59.163603 
L 349.922587 59.184686 
L 351.854978 58.976785 
L 352.129858 58.880439 
L 355.131543 58.770655 
L 355.847263 58.666163 
L 355.847263 58.675348 
L 355.847263 58.87427 
L 355.871249 58.870812 
L 356.47174 58.73797 
L 356.521798 58.612927 
L 357.032198 58.576223 
L 357.032198 58.650089 
L 357.032198 58.721095 
L 357.096875 58.720657 
L 357.734656 58.614262 
L 357.784604 58.516733 
L 358.217133 58.473399 
L 358.217133 58.490721 
L 359.402068 58.413548 
L 359.402068 58.287809 
L 359.402068 58.421969 
L 362.956873 58.227792 
L 362.956873 58.268378 
L 362.956873 58.461047 
L 364.025262 58.071729 
L 364.025275 58.030197 
L 364.538637 57.877925 
L 364.626109 57.710968 
L 365.326743 57.538225 
L 365.326743 57.32866 
L 365.326743 57.799133 
L 365.702864 57.673583 
L 365.702905 57.296366 
L 366.053626 57.187555 
L 366.879323 56.861842 
L 366.966808 56.763523 
L 367.696613 56.015967 
L 367.696613 55.869272 
L 367.696613 56.170364 
L 368.881548 56.149407 
L 368.881548 56.002712 
L 368.881548 56.004905 
L 371.251418 55.818924 
L 371.251418 55.525533 
L 371.251418 55.785091 
L 372.436353 55.701265 
L 372.436353 55.365961 
L 372.436353 55.413625 
L 373.621288 55.308842 
L 373.621288 55.162147 
L 373.621288 55.345306 
L 374.806223 55.26148 
L 374.806223 55.114785 
L 374.806223 55.127754 
L 375.991158 55.043928 
L 375.991158 54.85532 
L 375.991158 54.934138 
L 378.361028 54.785871 
L 378.361028 54.764915 
L 378.361028 54.765674 
L 379.545963 54.43037 
L 379.545963 54.409414 
L 379.545963 54.686823 
L 380.730898 54.309607 
L 380.730898 54.337119 
L 381.915833 54.127554 
L 381.915833 53.687468 
L 381.915833 53.784491 
L 383.100768 53.55397 
L 383.100768 53.092927 
L 383.100768 53.268857 
L 385.470638 53.020926 
L 385.470638 53.021202 
L 387.840508 52.896248 
L 387.840508 52.791466 
L 387.840508 52.878547 
L 391.395313 52.397231 
L 391.395313 52.313405 
L 391.395313 52.59569 
L 392.512156 52.485938 
L 392.580248 52.297672 
L 392.580248 52.464923 
L 392.949772 52.423238 
L 393.049943 52.320889 
L 393.765183 52.218403 
L 393.765183 52.224732 
L 397.319988 52.154183 
L 397.319988 52.167798 
L 397.319988 54.12635 
L 397.716736 54.00142 
L 397.71675 53.980652 
L 397.916995 53.836235 
L 397.954628 53.642748 
L 398.179532 53.620513 
L 398.179532 53.620513 
" style="fill:none;stroke:#008000;stroke-linecap:square;stroke-width:1.5;"/>
   </g>
   <g id="line2d_36">
    <defs>
     <path d="M 0 3 
C 0.795609 3 1.55874 2.683901 2.12132 2.12132 
C 2.683901 1.55874 3 0.795609 3 0 
C 3 -0.795609 2.683901 -1.55874 2.12132 -2.12132 
C 1.55874 -2.683901 0.795609 -3 0 -3 
C -0.795609 -3 -1.55874 -2.683901 -2.12132 -2.12132 
C -2.683901 -1.55874 -3 -0.795609 -3 0 
C -3 0.795609 -2.683901 1.55874 -2.12132 2.12132 
C -1.55874 2.683901 -0.795609 3 0 3 
z
" id="m8100bcb435" style="stroke:#bfbf00;"/>
    </defs>
    <g clip-path="url(#p4c8c28626c)">
     <use style="fill:#bfbf00;stroke:#bfbf00;" x="77.42906" xlink:href="#m8100bcb435" y="255.319579"/>
     <use style="fill:#bfbf00;stroke:#bfbf00;" x="81.459032" xlink:href="#m8100bcb435" y="223.88486"/>
     <use style="fill:#bfbf00;stroke:#bfbf00;" x="288.847731" xlink:href="#m8100bcb435" y="213.40662"/>
     <use style="fill:#bfbf00;stroke:#bfbf00;" x="291.099108" xlink:href="#m8100bcb435" y="213.40662"/>
     <use style="fill:#bfbf00;stroke:#bfbf00;" x="291.545625" xlink:href="#m8100bcb435" y="255.319579"/>
     <use style="fill:#bfbf00;stroke:#bfbf00;" x="291.62879" xlink:href="#m8100bcb435" y="255.319579"/>
     <use style="fill:#bfbf00;stroke:#bfbf00;" x="292.573268" xlink:href="#m8100bcb435" y="261.606522"/>
    </g>
   </g>
   <g id="line2d_37">
    <defs>
     <path d="M 0 3 
C 0.795609 3 1.55874 2.683901 2.12132 2.12132 
C 2.683901 1.55874 3 0.795609 3 0 
C 3 -0.795609 2.683901 -1.55874 2.12132 -2.12132 
C 1.55874 -2.683901 0.795609 -3 0 -3 
C -0.795609 -3 -1.55874 -2.683901 -2.12132 -2.12132 
C -2.683901 -1.55874 -3 -0.795609 -3 0 
C -3 0.795609 -2.683901 1.55874 -2.12132 2.12132 
C -1.55874 2.683901 -0.795609 3 0 3 
z
" id="m5723e1fbff" style="stroke:#008000;"/>
    </defs>
    <g clip-path="url(#p4c8c28626c)">
     <use style="fill:#008000;stroke:#008000;" x="133.770745" xlink:href="#m5723e1fbff" y="256.872035"/>
     <use style="fill:#008000;stroke:#008000;" x="247.524782" xlink:href="#m5723e1fbff" y="263.707829"/>
    </g>
   </g>
   <g id="patch_3">
    <path d="M 57.6 276.48 
L 57.6 41.472 
" style="fill:none;stroke:#000000;stroke-linecap:square;stroke-linejoin:miter;stroke-width:0.8;"/>
   </g>
   <g id="patch_4">
    <path d="M 414.72 276.48 
L 414.72 41.472 
" style="fill:none;stroke:#000000;stroke-linecap:square;stroke-linejoin:miter;stroke-width:0.8;"/>
   </g>
   <g id="patch_5">
    <path d="M 57.6 276.48 
L 414.72 276.48 
" style="fill:none;stroke:#000000;stroke-linecap:square;stroke-linejoin:miter;stroke-width:0.8;"/>
   </g>
   <g id="patch_6">
    <path d="M 57.6 41.472 
L 414.72 41.472 
" style="fill:none;stroke:#000000;stroke-linecap:square;stroke-linejoin:miter;stroke-width:0.8;"/>
   </g>
   <g id="text_19">
    <!-- My Bondora earnings -->
    <defs>
     <path d="M 9.8125 72.90625 
L 24.515625 72.90625 
L 43.109375 23.296875 
L 61.8125 72.90625 
L 76.515625 72.90625 
L 76.515625 0 
L 66.890625 0 
L 66.890625 64.015625 
L 48.09375 14.015625 
L 38.1875 14.015625 
L 19.390625 64.015625 
L 19.390625 0 
L 9.8125 0 
z
" id="DejaVuSans-4d"/>
     <path d="M 32.171875 -5.078125 
Q 28.375 -14.84375 24.75 -17.8125 
Q 21.140625 -20.796875 15.09375 -20.796875 
L 7.90625 -20.796875 
L 7.90625 -13.28125 
L 13.1875 -13.28125 
Q 16.890625 -13.28125 18.9375 -11.515625 
Q 21 -9.765625 23.484375 -3.21875 
L 25.09375 0.875 
L 2.984375 54.6875 
L 12.5 54.6875 
L 29.59375 11.921875 
L 46.6875 54.6875 
L 56.203125 54.6875 
z
" id="DejaVuSans-79"/>
     <path id="DejaVuSans-20"/>
     <path d="M 19.671875 34.8125 
L 19.671875 8.109375 
L 35.5 8.109375 
Q 43.453125 8.109375 47.28125 11.40625 
Q 51.125 14.703125 51.125 21.484375 
Q 51.125 28.328125 47.28125 31.5625 
Q 43.453125 34.8125 35.5 34.8125 
z
M 19.671875 64.796875 
L 19.671875 42.828125 
L 34.28125 42.828125 
Q 41.5 42.828125 45.03125 45.53125 
Q 48.578125 48.25 48.578125 53.8125 
Q 48.578125 59.328125 45.03125 62.0625 
Q 41.5 64.796875 34.28125 64.796875 
z
M 9.8125 72.90625 
L 35.015625 72.90625 
Q 46.296875 72.90625 52.390625 68.21875 
Q 58.5 63.53125 58.5 54.890625 
Q 58.5 48.1875 55.375 44.234375 
Q 52.25 40.28125 46.1875 39.3125 
Q 53.46875 37.75 57.5 32.78125 
Q 61.53125 27.828125 61.53125 20.40625 
Q 61.53125 10.640625 54.890625 5.3125 
Q 48.25 0 35.984375 0 
L 9.8125 0 
z
" id="DejaVuSans-42"/>
     <path d="M 30.609375 48.390625 
Q 23.390625 48.390625 19.1875 42.75 
Q 14.984375 37.109375 14.984375 27.296875 
Q 14.984375 17.484375 19.15625 11.84375 
Q 23.34375 6.203125 30.609375 6.203125 
Q 37.796875 6.203125 41.984375 11.859375 
Q 46.1875 17.53125 46.1875 27.296875 
Q 46.1875 37.015625 41.984375 42.703125 
Q 37.796875 48.390625 30.609375 48.390625 
z
M 30.609375 56 
Q 42.328125 56 49.015625 48.375 
Q 55.71875 40.765625 55.71875 27.296875 
Q 55.71875 13.875 49.015625 6.21875 
Q 42.328125 -1.421875 30.609375 -1.421875 
Q 18.84375 -1.421875 12.171875 6.21875 
Q 5.515625 13.875 5.515625 27.296875 
Q 5.515625 40.765625 12.171875 48.375 
Q 18.84375 56 30.609375 56 
z
" id="DejaVuSans-6f"/>
     <path d="M 54.890625 33.015625 
L 54.890625 0 
L 45.90625 0 
L 45.90625 32.71875 
Q 45.90625 40.484375 42.875 44.328125 
Q 39.84375 48.1875 33.796875 48.1875 
Q 26.515625 48.1875 22.3125 43.546875 
Q 18.109375 38.921875 18.109375 30.90625 
L 18.109375 0 
L 9.078125 0 
L 9.078125 54.6875 
L 18.109375 54.6875 
L 18.109375 46.1875 
Q 21.34375 51.125 25.703125 53.5625 
Q 30.078125 56 35.796875 56 
Q 45.21875 56 50.046875 50.171875 
Q 54.890625 44.34375 54.890625 33.015625 
z
" id="DejaVuSans-6e"/>
     <path d="M 41.109375 46.296875 
Q 39.59375 47.171875 37.8125 47.578125 
Q 36.03125 48 33.890625 48 
Q 26.265625 48 22.1875 43.046875 
Q 18.109375 38.09375 18.109375 28.8125 
L 18.109375 0 
L 9.078125 0 
L 9.078125 54.6875 
L 18.109375 54.6875 
L 18.109375 46.1875 
Q 20.953125 51.171875 25.484375 53.578125 
Q 30.03125 56 36.53125 56 
Q 37.453125 56 38.578125 55.875 
Q 39.703125 55.765625 41.0625 55.515625 
z
" id="DejaVuSans-72"/>
     <path d="M 9.421875 54.6875 
L 18.40625 54.6875 
L 18.40625 0 
L 9.421875 0 
z
M 9.421875 75.984375 
L 18.40625 75.984375 
L 18.40625 64.59375 
L 9.421875 64.59375 
z
" id="DejaVuSans-69"/>
     <path d="M 45.40625 27.984375 
Q 45.40625 37.75 41.375 43.109375 
Q 37.359375 48.484375 30.078125 48.484375 
Q 22.859375 48.484375 18.828125 43.109375 
Q 14.796875 37.75 14.796875 27.984375 
Q 14.796875 18.265625 18.828125 12.890625 
Q 22.859375 7.515625 30.078125 7.515625 
Q 37.359375 7.515625 41.375 12.890625 
Q 45.40625 18.265625 45.40625 27.984375 
z
M 54.390625 6.78125 
Q 54.390625 -7.171875 48.1875 -13.984375 
Q 42 -20.796875 29.203125 -20.796875 
Q 24.46875 -20.796875 20.265625 -20.09375 
Q 16.0625 -19.390625 12.109375 -17.921875 
L 12.109375 -9.1875 
Q 16.0625 -11.328125 19.921875 -12.34375 
Q 23.78125 -13.375 27.78125 -13.375 
Q 36.625 -13.375 41.015625 -8.765625 
Q 45.40625 -4.15625 45.40625 5.171875 
L 45.40625 9.625 
Q 42.625 4.78125 38.28125 2.390625 
Q 33.9375 0 27.875 0 
Q 17.828125 0 11.671875 7.65625 
Q 5.515625 15.328125 5.515625 27.984375 
Q 5.515625 40.671875 11.671875 48.328125 
Q 17.828125 56 27.875 56 
Q 33.9375 56 38.28125 53.609375 
Q 42.625 51.21875 45.40625 46.390625 
L 45.40625 54.6875 
L 54.390625 54.6875 
z
" id="DejaVuSans-67"/>
     <path d="M 44.28125 53.078125 
L 44.28125 44.578125 
Q 40.484375 46.53125 36.375 47.5 
Q 32.28125 48.484375 27.875 48.484375 
Q 21.1875 48.484375 17.84375 46.4375 
Q 14.5 44.390625 14.5 40.28125 
Q 14.5 37.15625 16.890625 35.375 
Q 19.28125 33.59375 26.515625 31.984375 
L 29.59375 31.296875 
Q 39.15625 29.25 43.1875 25.515625 
Q 47.21875 21.78125 47.21875 15.09375 
Q 47.21875 7.46875 41.1875 3.015625 
Q 35.15625 -1.421875 24.609375 -1.421875 
Q 20.21875 -1.421875 15.453125 -0.5625 
Q 10.6875 0.296875 5.421875 2 
L 5.421875 11.28125 
Q 10.40625 8.6875 15.234375 7.390625 
Q 20.0625 6.109375 24.8125 6.109375 
Q 31.15625 6.109375 34.5625 8.28125 
Q 37.984375 10.453125 37.984375 14.40625 
Q 37.984375 18.0625 35.515625 20.015625 
Q 33.0625 21.96875 24.703125 23.78125 
L 21.578125 24.515625 
Q 13.234375 26.265625 9.515625 29.90625 
Q 5.8125 33.546875 5.8125 39.890625 
Q 5.8125 47.609375 11.28125 51.796875 
Q 16.75 56 26.8125 56 
Q 31.78125 56 36.171875 55.265625 
Q 40.578125 54.546875 44.28125 53.078125 
z
" id="DejaVuSans-73"/>
    </defs>
    <g transform="translate(172.363125 35.472)scale(0.12 -0.12)">
     <use xlink:href="#DejaVuSans-4d"/>
     <use x="86.279297" xlink:href="#DejaVuSans-79"/>
     <use x="145.458984" xlink:href="#DejaVuSans-20"/>
     <use x="177.246094" xlink:href="#DejaVuSans-42"/>
     <use x="245.849609" xlink:href="#DejaVuSans-6f"/>
     <use x="307.03125" xlink:href="#DejaVuSans-6e"/>
     <use x="370.410156" xlink:href="#DejaVuSans-64"/>
     <use x="433.886719" xlink:href="#DejaVuSans-6f"/>
     <use x="495.068359" xlink:href="#DejaVuSans-72"/>
     <use x="536.181641" xlink:href="#DejaVuSans-61"/>
     <use x="597.460938" xlink:href="#DejaVuSans-20"/>
     <use x="629.248047" xlink:href="#DejaVuSans-65"/>
     <use x="690.771484" xlink:href="#DejaVuSans-61"/>
     <use x="752.050781" xlink:href="#DejaVuSans-72"/>
     <use x="793.148438" xlink:href="#DejaVuSans-6e"/>
     <use x="856.527344" xlink:href="#DejaVuSans-69"/>
     <use x="884.310547" xlink:href="#DejaVuSans-6e"/>
     <use x="947.689453" xlink:href="#DejaVuSans-67"/>
     <use x="1011.166016" xlink:href="#DejaVuSans-73"/>
    </g>
   </g>
   <g id="legend_1">
    <g id="patch_7">
     <path d="M 64.6 122.862625 
L 158.45 122.862625 
Q 160.45 122.862625 160.45 120.862625 
L 160.45 48.472 
Q 160.45 46.472 158.45 46.472 
L 64.6 46.472 
Q 62.6 46.472 62.6 48.472 
L 62.6 120.862625 
Q 62.6 122.862625 64.6 122.862625 
z
" style="fill:#ffffff;opacity:0.8;stroke:#cccccc;stroke-linejoin:miter;"/>
    </g>
    <g id="line2d_38">
     <path d="M 66.6 54.570437 
L 86.6 54.570437 
" style="fill:none;stroke:#0000ff;stroke-linecap:square;stroke-width:1.5;"/>
    </g>
    <g id="line2d_39"/>
    <g id="text_20">
     <!-- Interest -->
     <defs>
      <path d="M 9.8125 72.90625 
L 19.671875 72.90625 
L 19.671875 0 
L 9.8125 0 
z
" id="DejaVuSans-49"/>
     </defs>
     <g transform="translate(94.6 58.070437)scale(0.1 -0.1)">
      <use xlink:href="#DejaVuSans-49"/>
      <use x="29.492188" xlink:href="#DejaVuSans-6e"/>
      <use x="92.871094" xlink:href="#DejaVuSans-74"/>
      <use x="132.080078" xlink:href="#DejaVuSans-65"/>
      <use x="193.603516" xlink:href="#DejaVuSans-72"/>
      <use x="234.685547" xlink:href="#DejaVuSans-65"/>
      <use x="296.208984" xlink:href="#DejaVuSans-73"/>
      <use x="348.308594" xlink:href="#DejaVuSans-74"/>
     </g>
    </g>
    <g id="line2d_40">
     <path d="M 66.6 69.248562 
L 86.6 69.248562 
" style="fill:none;stroke:#ff0000;stroke-linecap:square;stroke-width:1.5;"/>
    </g>
    <g id="line2d_41"/>
    <g id="text_21">
     <!-- Balance -->
     <defs>
      <path d="M 9.421875 75.984375 
L 18.40625 75.984375 
L 18.40625 0 
L 9.421875 0 
z
" id="DejaVuSans-6c"/>
      <path d="M 48.78125 52.59375 
L 48.78125 44.1875 
Q 44.96875 46.296875 41.140625 47.34375 
Q 37.3125 48.390625 33.40625 48.390625 
Q 24.65625 48.390625 19.8125 42.84375 
Q 14.984375 37.3125 14.984375 27.296875 
Q 14.984375 17.28125 19.8125 11.734375 
Q 24.65625 6.203125 33.40625 6.203125 
Q 37.3125 6.203125 41.140625 7.25 
Q 44.96875 8.296875 48.78125 10.40625 
L 48.78125 2.09375 
Q 45.015625 0.34375 40.984375 -0.53125 
Q 36.96875 -1.421875 32.421875 -1.421875 
Q 20.0625 -1.421875 12.78125 6.34375 
Q 5.515625 14.109375 5.515625 27.296875 
Q 5.515625 40.671875 12.859375 48.328125 
Q 20.21875 56 33.015625 56 
Q 37.15625 56 41.109375 55.140625 
Q 45.0625 54.296875 48.78125 52.59375 
z
" id="DejaVuSans-63"/>
     </defs>
     <g transform="translate(94.6 72.748562)scale(0.1 -0.1)">
      <use xlink:href="#DejaVuSans-42"/>
      <use x="68.603516" xlink:href="#DejaVuSans-61"/>
      <use x="129.882812" xlink:href="#DejaVuSans-6c"/>
      <use x="157.666016" xlink:href="#DejaVuSans-61"/>
      <use x="218.945312" xlink:href="#DejaVuSans-6e"/>
      <use x="282.324219" xlink:href="#DejaVuSans-63"/>
      <use x="337.304688" xlink:href="#DejaVuSans-65"/>
     </g>
    </g>
    <g id="line2d_42">
     <path d="M 66.6 83.926687 
L 86.6 83.926687 
" style="fill:none;stroke:#008000;stroke-linecap:square;stroke-width:1.5;"/>
    </g>
    <g id="line2d_43"/>
    <g id="text_22">
     <!-- Investments -->
     <defs>
      <path d="M 2.984375 54.6875 
L 12.5 54.6875 
L 29.59375 8.796875 
L 46.6875 54.6875 
L 56.203125 54.6875 
L 35.6875 0 
L 23.484375 0 
z
" id="DejaVuSans-76"/>
      <path d="M 52 44.1875 
Q 55.375 50.25 60.0625 53.125 
Q 64.75 56 71.09375 56 
Q 79.640625 56 84.28125 50.015625 
Q 88.921875 44.046875 88.921875 33.015625 
L 88.921875 0 
L 79.890625 0 
L 79.890625 32.71875 
Q 79.890625 40.578125 77.09375 44.375 
Q 74.3125 48.1875 68.609375 48.1875 
Q 61.625 48.1875 57.5625 43.546875 
Q 53.515625 38.921875 53.515625 30.90625 
L 53.515625 0 
L 44.484375 0 
L 44.484375 32.71875 
Q 44.484375 40.625 41.703125 44.40625 
Q 38.921875 48.1875 33.109375 48.1875 
Q 26.21875 48.1875 22.15625 43.53125 
Q 18.109375 38.875 18.109375 30.90625 
L 18.109375 0 
L 9.078125 0 
L 9.078125 54.6875 
L 18.109375 54.6875 
L 18.109375 46.1875 
Q 21.1875 51.21875 25.484375 53.609375 
Q 29.78125 56 35.6875 56 
Q 41.65625 56 45.828125 52.96875 
Q 50 49.953125 52 44.1875 
z
" id="DejaVuSans-6d"/>
     </defs>
     <g transform="translate(94.6 87.426687)scale(0.1 -0.1)">
      <use xlink:href="#DejaVuSans-49"/>
      <use x="29.492188" xlink:href="#DejaVuSans-6e"/>
      <use x="92.871094" xlink:href="#DejaVuSans-76"/>
      <use x="152.050781" xlink:href="#DejaVuSans-65"/>
      <use x="213.574219" xlink:href="#DejaVuSans-73"/>
      <use x="265.673828" xlink:href="#DejaVuSans-74"/>
      <use x="304.882812" xlink:href="#DejaVuSans-6d"/>
      <use x="402.294922" xlink:href="#DejaVuSans-65"/>
      <use x="463.818359" xlink:href="#DejaVuSans-6e"/>
      <use x="527.197266" xlink:href="#DejaVuSans-74"/>
      <use x="566.40625" xlink:href="#DejaVuSans-73"/>
     </g>
    </g>
    <g id="line2d_44"/>
    <g id="line2d_45">
     <g>
      <use style="fill:#bfbf00;stroke:#bfbf00;" x="76.6" xlink:href="#m8100bcb435" y="98.604812"/>
     </g>
    </g>
    <g id="text_23">
     <!-- Deposits -->
     <defs>
      <path d="M 19.671875 64.796875 
L 19.671875 8.109375 
L 31.59375 8.109375 
Q 46.6875 8.109375 53.6875 14.9375 
Q 60.6875 21.78125 60.6875 36.53125 
Q 60.6875 51.171875 53.6875 57.984375 
Q 46.6875 64.796875 31.59375 64.796875 
z
M 9.8125 72.90625 
L 30.078125 72.90625 
Q 51.265625 72.90625 61.171875 64.09375 
Q 71.09375 55.28125 71.09375 36.53125 
Q 71.09375 17.671875 61.125 8.828125 
Q 51.171875 0 30.078125 0 
L 9.8125 0 
z
" id="DejaVuSans-44"/>
      <path d="M 18.109375 8.203125 
L 18.109375 -20.796875 
L 9.078125 -20.796875 
L 9.078125 54.6875 
L 18.109375 54.6875 
L 18.109375 46.390625 
Q 20.953125 51.265625 25.265625 53.625 
Q 29.59375 56 35.59375 56 
Q 45.5625 56 51.78125 48.09375 
Q 58.015625 40.1875 58.015625 27.296875 
Q 58.015625 14.40625 51.78125 6.484375 
Q 45.5625 -1.421875 35.59375 -1.421875 
Q 29.59375 -1.421875 25.265625 0.953125 
Q 20.953125 3.328125 18.109375 8.203125 
z
M 48.6875 27.296875 
Q 48.6875 37.203125 44.609375 42.84375 
Q 40.53125 48.484375 33.40625 48.484375 
Q 26.265625 48.484375 22.1875 42.84375 
Q 18.109375 37.203125 18.109375 27.296875 
Q 18.109375 17.390625 22.1875 11.75 
Q 26.265625 6.109375 33.40625 6.109375 
Q 40.53125 6.109375 44.609375 11.75 
Q 48.6875 17.390625 48.6875 27.296875 
z
" id="DejaVuSans-70"/>
     </defs>
     <g transform="translate(94.6 102.104812)scale(0.1 -0.1)">
      <use xlink:href="#DejaVuSans-44"/>
      <use x="77.001953" xlink:href="#DejaVuSans-65"/>
      <use x="138.525391" xlink:href="#DejaVuSans-70"/>
      <use x="202.001953" xlink:href="#DejaVuSans-6f"/>
      <use x="263.183594" xlink:href="#DejaVuSans-73"/>
      <use x="315.283203" xlink:href="#DejaVuSans-69"/>
      <use x="343.066406" xlink:href="#DejaVuSans-74"/>
      <use x="382.275391" xlink:href="#DejaVuSans-73"/>
     </g>
    </g>
    <g id="line2d_46"/>
    <g id="line2d_47">
     <g>
      <use style="fill:#008000;stroke:#008000;" x="76.6" xlink:href="#m5723e1fbff" y="113.282937"/>
     </g>
    </g>
    <g id="text_24">
     <!-- Commission -->
     <defs>
      <path d="M 64.40625 67.28125 
L 64.40625 56.890625 
Q 59.421875 61.53125 53.78125 63.8125 
Q 48.140625 66.109375 41.796875 66.109375 
Q 29.296875 66.109375 22.65625 58.46875 
Q 16.015625 50.828125 16.015625 36.375 
Q 16.015625 21.96875 22.65625 14.328125 
Q 29.296875 6.6875 41.796875 6.6875 
Q 48.140625 6.6875 53.78125 8.984375 
Q 59.421875 11.28125 64.40625 15.921875 
L 64.40625 5.609375 
Q 59.234375 2.09375 53.4375 0.328125 
Q 47.65625 -1.421875 41.21875 -1.421875 
Q 24.65625 -1.421875 15.125 8.703125 
Q 5.609375 18.84375 5.609375 36.375 
Q 5.609375 53.953125 15.125 64.078125 
Q 24.65625 74.21875 41.21875 74.21875 
Q 47.75 74.21875 53.53125 72.484375 
Q 59.328125 70.75 64.40625 67.28125 
z
" id="DejaVuSans-43"/>
     </defs>
     <g transform="translate(94.6 116.782937)scale(0.1 -0.1)">
      <use xlink:href="#DejaVuSans-43"/>
      <use x="69.824219" xlink:href="#DejaVuSans-6f"/>
      <use x="131.005859" xlink:href="#DejaVuSans-6d"/>
      <use x="228.417969" xlink:href="#DejaVuSans-6d"/>
      <use x="325.830078" xlink:href="#DejaVuSans-69"/>
      <use x="353.613281" xlink:href="#DejaVuSans-73"/>
      <use x="405.712891" xlink:href="#DejaVuSans-73"/>
      <use x="457.8125" xlink:href="#DejaVuSans-69"/>
      <use x="485.595703" xlink:href="#DejaVuSans-6f"/>
      <use x="546.777344" xlink:href="#DejaVuSans-6e"/>
     </g>
    </g>
   </g>
  </g>
 </g>
 <defs>
  <clipPath id="p4c8c28626c">
   <rect height="235.008" width="357.12" x="57.6" y="41.472"/>
  </clipPath>
 </defs>
</svg>
