<?xml version="1.0" encoding="utf-8" standalone="no"?>
<!DOCTYPE svg PUBLIC "-//W3C//DTD SVG 1.1//EN"
  "http://www.w3.org/Graphics/SVG/1.1/DTD/svg11.dtd">
<!-- Created with matplotlib (http://matplotlib.org/) -->
<svg height="345.6pt" version="1.1" viewBox="0 0 460.8 345.6" width="460.8pt" xmlns="http://www.w3.org/2000/svg" xmlns:xlink="http://www.w3.org/1999/xlink">
 <defs>
  <style type="text/css">
*{stroke-linecap:butt;stroke-linejoin:round;}
  </style>
 </defs>
 <g id="figure_1">
  <g id="patch_1">
   <path d="M 0 345.6 
L 460.8 345.6 
L 460.8 0 
L 0 0 
z
" style="fill:#ffffff;"/>
  </g>
  <g id="axes_1">
   <g id="patch_2">
    <path d="M 57.6 276.48 
L 414.72 276.48 
L 414.72 41.472 
L 57.6 41.472 
z
" style="fill:#ffffff;"/>
   </g>
   <g id="matplotlib.axis_1">
    <g id="xtick_1">
     <g id="line2d_1">
      <path clip-path="url(#pae171c7ac6)" d="M 103.905013 276.48 
L 103.905013 41.472 
" style="fill:none;stroke:#b0b0b0;stroke-linecap:square;stroke-width:0.8;"/>
     </g>
     <g id="line2d_2">
      <defs>
       <path d="M 0 0 
L 0 3.5 
" id="m965084fa45" style="stroke:#000000;stroke-width:0.8;"/>
      </defs>
      <g>
       <use style="stroke:#000000;stroke-width:0.8;" x="103.905013" xlink:href="#m965084fa45" y="276.48"/>
      </g>
     </g>
     <g id="text_1">
      <!-- 2019-02 -->
      <defs>
       <path d="M 19.1875 8.296875 
L 53.609375 8.296875 
L 53.609375 0 
L 7.328125 0 
L 7.328125 8.296875 
Q 12.9375 14.109375 22.625 23.890625 
Q 32.328125 33.6875 34.8125 36.53125 
Q 39.546875 41.84375 41.421875 45.53125 
Q 43.3125 49.21875 43.3125 52.78125 
Q 43.3125 58.59375 39.234375 62.25 
Q 35.15625 65.921875 28.609375 65.921875 
Q 23.96875 65.921875 18.8125 64.3125 
Q 13.671875 62.703125 7.8125 59.421875 
L 7.8125 69.390625 
Q 13.765625 71.78125 18.9375 73 
Q 24.125 74.21875 28.421875 74.21875 
Q 39.75 74.21875 46.484375 68.546875 
Q 53.21875 62.890625 53.21875 53.421875 
Q 53.21875 48.921875 51.53125 44.890625 
Q 49.859375 40.875 45.40625 35.40625 
Q 44.1875 33.984375 37.640625 27.21875 
Q 31.109375 20.453125 19.1875 8.296875 
z
" id="DejaVuSans-32"/>
       <path d="M 31.78125 66.40625 
Q 24.171875 66.40625 20.328125 58.90625 
Q 16.5 51.421875 16.5 36.375 
Q 16.5 21.390625 20.328125 13.890625 
Q 24.171875 6.390625 31.78125 6.390625 
Q 39.453125 6.390625 43.28125 13.890625 
Q 47.125 21.390625 47.125 36.375 
Q 47.125 51.421875 43.28125 58.90625 
Q 39.453125 66.40625 31.78125 66.40625 
z
M 31.78125 74.21875 
Q 44.046875 74.21875 50.515625 64.515625 
Q 56.984375 54.828125 56.984375 36.375 
Q 56.984375 17.96875 50.515625 8.265625 
Q 44.046875 -1.421875 31.78125 -1.421875 
Q 19.53125 -1.421875 13.0625 8.265625 
Q 6.59375 17.96875 6.59375 36.375 
Q 6.59375 54.828125 13.0625 64.515625 
Q 19.53125 74.21875 31.78125 74.21875 
z
" id="DejaVuSans-30"/>
       <path d="M 12.40625 8.296875 
L 28.515625 8.296875 
L 28.515625 63.921875 
L 10.984375 60.40625 
L 10.984375 69.390625 
L 28.421875 72.90625 
L 38.28125 72.90625 
L 38.28125 8.296875 
L 54.390625 8.296875 
L 54.390625 0 
L 12.40625 0 
z
" id="DejaVuSans-31"/>
       <path d="M 10.984375 1.515625 
L 10.984375 10.5 
Q 14.703125 8.734375 18.5 7.8125 
Q 22.3125 6.890625 25.984375 6.890625 
Q 35.75 6.890625 40.890625 13.453125 
Q 46.046875 20.015625 46.78125 33.40625 
Q 43.953125 29.203125 39.59375 26.953125 
Q 35.25 24.703125 29.984375 24.703125 
Q 19.046875 24.703125 12.671875 31.3125 
Q 6.296875 37.9375 6.296875 49.421875 
Q 6.296875 60.640625 12.9375 67.421875 
Q 19.578125 74.21875 30.609375 74.21875 
Q 43.265625 74.21875 49.921875 64.515625 
Q 56.59375 54.828125 56.59375 36.375 
Q 56.59375 19.140625 48.40625 8.859375 
Q 40.234375 -1.421875 26.421875 -1.421875 
Q 22.703125 -1.421875 18.890625 -0.6875 
Q 15.09375 0.046875 10.984375 1.515625 
z
M 30.609375 32.421875 
Q 37.25 32.421875 41.125 36.953125 
Q 45.015625 41.5 45.015625 49.421875 
Q 45.015625 57.28125 41.125 61.84375 
Q 37.25 66.40625 30.609375 66.40625 
Q 23.96875 66.40625 20.09375 61.84375 
Q 16.21875 57.28125 16.21875 49.421875 
Q 16.21875 41.5 20.09375 36.953125 
Q 23.96875 32.421875 30.609375 32.421875 
z
" id="DejaVuSans-39"/>
       <path d="M 4.890625 31.390625 
L 31.203125 31.390625 
L 31.203125 23.390625 
L 4.890625 23.390625 
z
" id="DejaVuSans-2d"/>
      </defs>
      <g transform="translate(66.680192 310.951846)rotate(-30)scale(0.1 -0.1)">
       <use xlink:href="#DejaVuSans-32"/>
       <use x="63.623047" xlink:href="#DejaVuSans-30"/>
       <use x="127.246094" xlink:href="#DejaVuSans-31"/>
       <use x="190.869141" xlink:href="#DejaVuSans-39"/>
       <use x="254.492188" xlink:href="#DejaVuSans-2d"/>
       <use x="290.576172" xlink:href="#DejaVuSans-30"/>
       <use x="354.199219" xlink:href="#DejaVuSans-32"/>
      </g>
     </g>
    </g>
    <g id="xtick_2">
     <g id="line2d_3">
      <path clip-path="url(#pae171c7ac6)" d="M 161.139364 276.48 
L 161.139364 41.472 
" style="fill:none;stroke:#b0b0b0;stroke-linecap:square;stroke-width:0.8;"/>
     </g>
     <g id="line2d_4">
      <g>
       <use style="stroke:#000000;stroke-width:0.8;" x="161.139364" xlink:href="#m965084fa45" y="276.48"/>
      </g>
     </g>
     <g id="text_2">
      <!-- 2019-04 -->
      <defs>
       <path d="M 37.796875 64.3125 
L 12.890625 25.390625 
L 37.796875 25.390625 
z
M 35.203125 72.90625 
L 47.609375 72.90625 
L 47.609375 25.390625 
L 58.015625 25.390625 
L 58.015625 17.1875 
L 47.609375 17.1875 
L 47.609375 0 
L 37.796875 0 
L 37.796875 17.1875 
L 4.890625 17.1875 
L 4.890625 26.703125 
z
" id="DejaVuSans-34"/>
      </defs>
      <g transform="translate(123.914543 310.951846)rotate(-30)scale(0.1 -0.1)">
       <use xlink:href="#DejaVuSans-32"/>
       <use x="63.623047" xlink:href="#DejaVuSans-30"/>
       <use x="127.246094" xlink:href="#DejaVuSans-31"/>
       <use x="190.869141" xlink:href="#DejaVuSans-39"/>
       <use x="254.492188" xlink:href="#DejaVuSans-2d"/>
       <use x="290.576172" xlink:href="#DejaVuSans-30"/>
       <use x="354.199219" xlink:href="#DejaVuSans-34"/>
      </g>
     </g>
    </g>
    <g id="xtick_3">
     <g id="line2d_5">
      <path clip-path="url(#pae171c7ac6)" d="M 220.313862 276.48 
L 220.313862 41.472 
" style="fill:none;stroke:#b0b0b0;stroke-linecap:square;stroke-width:0.8;"/>
     </g>
     <g id="line2d_6">
      <g>
       <use style="stroke:#000000;stroke-width:0.8;" x="220.313862" xlink:href="#m965084fa45" y="276.48"/>
      </g>
     </g>
     <g id="text_3">
      <!-- 2019-06 -->
      <defs>
       <path d="M 33.015625 40.375 
Q 26.375 40.375 22.484375 35.828125 
Q 18.609375 31.296875 18.609375 23.390625 
Q 18.609375 15.53125 22.484375 10.953125 
Q 26.375 6.390625 33.015625 6.390625 
Q 39.65625 6.390625 43.53125 10.953125 
Q 47.40625 15.53125 47.40625 23.390625 
Q 47.40625 31.296875 43.53125 35.828125 
Q 39.65625 40.375 33.015625 40.375 
z
M 52.59375 71.296875 
L 52.59375 62.3125 
Q 48.875 64.0625 45.09375 64.984375 
Q 41.3125 65.921875 37.59375 65.921875 
Q 27.828125 65.921875 22.671875 59.328125 
Q 17.53125 52.734375 16.796875 39.40625 
Q 19.671875 43.65625 24.015625 45.921875 
Q 28.375 48.1875 33.59375 48.1875 
Q 44.578125 48.1875 50.953125 41.515625 
Q 57.328125 34.859375 57.328125 23.390625 
Q 57.328125 12.15625 50.6875 5.359375 
Q 44.046875 -1.421875 33.015625 -1.421875 
Q 20.359375 -1.421875 13.671875 8.265625 
Q 6.984375 17.96875 6.984375 36.375 
Q 6.984375 53.65625 15.1875 63.9375 
Q 23.390625 74.21875 37.203125 74.21875 
Q 40.921875 74.21875 44.703125 73.484375 
Q 48.484375 72.75 52.59375 71.296875 
z
" id="DejaVuSans-36"/>
      </defs>
      <g transform="translate(183.089041 310.951846)rotate(-30)scale(0.1 -0.1)">
       <use xlink:href="#DejaVuSans-32"/>
       <use x="63.623047" xlink:href="#DejaVuSans-30"/>
       <use x="127.246094" xlink:href="#DejaVuSans-31"/>
       <use x="190.869141" xlink:href="#DejaVuSans-39"/>
       <use x="254.492188" xlink:href="#DejaVuSans-2d"/>
       <use x="290.576172" xlink:href="#DejaVuSans-30"/>
       <use x="354.199219" xlink:href="#DejaVuSans-36"/>
      </g>
     </g>
    </g>
    <g id="xtick_4">
     <g id="line2d_7">
      <path clip-path="url(#pae171c7ac6)" d="M 279.488361 276.48 
L 279.488361 41.472 
" style="fill:none;stroke:#b0b0b0;stroke-linecap:square;stroke-width:0.8;"/>
     </g>
     <g id="line2d_8">
      <g>
       <use style="stroke:#000000;stroke-width:0.8;" x="279.488361" xlink:href="#m965084fa45" y="276.48"/>
      </g>
     </g>
     <g id="text_4">
      <!-- 2019-08 -->
      <defs>
       <path d="M 31.78125 34.625 
Q 24.75 34.625 20.71875 30.859375 
Q 16.703125 27.09375 16.703125 20.515625 
Q 16.703125 13.921875 20.71875 10.15625 
Q 24.75 6.390625 31.78125 6.390625 
Q 38.8125 6.390625 42.859375 10.171875 
Q 46.921875 13.96875 46.921875 20.515625 
Q 46.921875 27.09375 42.890625 30.859375 
Q 38.875 34.625 31.78125 34.625 
z
M 21.921875 38.8125 
Q 15.578125 40.375 12.03125 44.71875 
Q 8.5 49.078125 8.5 55.328125 
Q 8.5 64.0625 14.71875 69.140625 
Q 20.953125 74.21875 31.78125 74.21875 
Q 42.671875 74.21875 48.875 69.140625 
Q 55.078125 64.0625 55.078125 55.328125 
Q 55.078125 49.078125 51.53125 44.71875 
Q 48 40.375 41.703125 38.8125 
Q 48.828125 37.15625 52.796875 32.3125 
Q 56.78125 27.484375 56.78125 20.515625 
Q 56.78125 9.90625 50.3125 4.234375 
Q 43.84375 -1.421875 31.78125 -1.421875 
Q 19.734375 -1.421875 13.25 4.234375 
Q 6.78125 9.90625 6.78125 20.515625 
Q 6.78125 27.484375 10.78125 32.3125 
Q 14.796875 37.15625 21.921875 38.8125 
z
M 18.3125 54.390625 
Q 18.3125 48.734375 21.84375 45.5625 
Q 25.390625 42.390625 31.78125 42.390625 
Q 38.140625 42.390625 41.71875 45.5625 
Q 45.3125 48.734375 45.3125 54.390625 
Q 45.3125 60.0625 41.71875 63.234375 
Q 38.140625 66.40625 31.78125 66.40625 
Q 25.390625 66.40625 21.84375 63.234375 
Q 18.3125 60.0625 18.3125 54.390625 
z
" id="DejaVuSans-38"/>
      </defs>
      <g transform="translate(242.26354 310.951846)rotate(-30)scale(0.1 -0.1)">
       <use xlink:href="#DejaVuSans-32"/>
       <use x="63.623047" xlink:href="#DejaVuSans-30"/>
       <use x="127.246094" xlink:href="#DejaVuSans-31"/>
       <use x="190.869141" xlink:href="#DejaVuSans-39"/>
       <use x="254.492188" xlink:href="#DejaVuSans-2d"/>
       <use x="290.576172" xlink:href="#DejaVuSans-30"/>
       <use x="354.199219" xlink:href="#DejaVuSans-38"/>
      </g>
     </g>
    </g>
    <g id="xtick_5">
     <g id="line2d_9">
      <path clip-path="url(#pae171c7ac6)" d="M 338.662859 276.48 
L 338.662859 41.472 
" style="fill:none;stroke:#b0b0b0;stroke-linecap:square;stroke-width:0.8;"/>
     </g>
     <g id="line2d_10">
      <g>
       <use style="stroke:#000000;stroke-width:0.8;" x="338.662859" xlink:href="#m965084fa45" y="276.48"/>
      </g>
     </g>
     <g id="text_5">
      <!-- 2019-10 -->
      <g transform="translate(301.438038 310.951846)rotate(-30)scale(0.1 -0.1)">
       <use xlink:href="#DejaVuSans-32"/>
       <use x="63.623047" xlink:href="#DejaVuSans-30"/>
       <use x="127.246094" xlink:href="#DejaVuSans-31"/>
       <use x="190.869141" xlink:href="#DejaVuSans-39"/>
       <use x="254.492188" xlink:href="#DejaVuSans-2d"/>
       <use x="290.576172" xlink:href="#DejaVuSans-31"/>
       <use x="354.199219" xlink:href="#DejaVuSans-30"/>
      </g>
     </g>
    </g>
    <g id="xtick_6">
     <g id="line2d_11">
      <path clip-path="url(#pae171c7ac6)" d="M 397.837357 276.48 
L 397.837357 41.472 
" style="fill:none;stroke:#b0b0b0;stroke-linecap:square;stroke-width:0.8;"/>
     </g>
     <g id="line2d_12">
      <g>
       <use style="stroke:#000000;stroke-width:0.8;" x="397.837357" xlink:href="#m965084fa45" y="276.48"/>
      </g>
     </g>
     <g id="text_6">
      <!-- 2019-12 -->
      <g transform="translate(360.612536 310.951846)rotate(-30)scale(0.1 -0.1)">
       <use xlink:href="#DejaVuSans-32"/>
       <use x="63.623047" xlink:href="#DejaVuSans-30"/>
       <use x="127.246094" xlink:href="#DejaVuSans-31"/>
       <use x="190.869141" xlink:href="#DejaVuSans-39"/>
       <use x="254.492188" xlink:href="#DejaVuSans-2d"/>
       <use x="290.576172" xlink:href="#DejaVuSans-31"/>
       <use x="354.199219" xlink:href="#DejaVuSans-32"/>
      </g>
     </g>
    </g>
    <g id="text_7">
     <!-- date -->
     <defs>
      <path d="M 45.40625 46.390625 
L 45.40625 75.984375 
L 54.390625 75.984375 
L 54.390625 0 
L 45.40625 0 
L 45.40625 8.203125 
Q 42.578125 3.328125 38.25 0.953125 
Q 33.9375 -1.421875 27.875 -1.421875 
Q 17.96875 -1.421875 11.734375 6.484375 
Q 5.515625 14.40625 5.515625 27.296875 
Q 5.515625 40.1875 11.734375 48.09375 
Q 17.96875 56 27.875 56 
Q 33.9375 56 38.25 53.625 
Q 42.578125 51.265625 45.40625 46.390625 
z
M 14.796875 27.296875 
Q 14.796875 17.390625 18.875 11.75 
Q 22.953125 6.109375 30.078125 6.109375 
Q 37.203125 6.109375 41.296875 11.75 
Q 45.40625 17.390625 45.40625 27.296875 
Q 45.40625 37.203125 41.296875 42.84375 
Q 37.203125 48.484375 30.078125 48.484375 
Q 22.953125 48.484375 18.875 42.84375 
Q 14.796875 37.203125 14.796875 27.296875 
z
" id="DejaVuSans-64"/>
      <path d="M 34.28125 27.484375 
Q 23.390625 27.484375 19.1875 25 
Q 14.984375 22.515625 14.984375 16.5 
Q 14.984375 11.71875 18.140625 8.90625 
Q 21.296875 6.109375 26.703125 6.109375 
Q 34.1875 6.109375 38.703125 11.40625 
Q 43.21875 16.703125 43.21875 25.484375 
L 43.21875 27.484375 
z
M 52.203125 31.203125 
L 52.203125 0 
L 43.21875 0 
L 43.21875 8.296875 
Q 40.140625 3.328125 35.546875 0.953125 
Q 30.953125 -1.421875 24.3125 -1.421875 
Q 15.921875 -1.421875 10.953125 3.296875 
Q 6 8.015625 6 15.921875 
Q 6 25.140625 12.171875 29.828125 
Q 18.359375 34.515625 30.609375 34.515625 
L 43.21875 34.515625 
L 43.21875 35.40625 
Q 43.21875 41.609375 39.140625 45 
Q 35.0625 48.390625 27.6875 48.390625 
Q 23 48.390625 18.546875 47.265625 
Q 14.109375 46.140625 10.015625 43.890625 
L 10.015625 52.203125 
Q 14.9375 54.109375 19.578125 55.046875 
Q 24.21875 56 28.609375 56 
Q 40.484375 56 46.34375 49.84375 
Q 52.203125 43.703125 52.203125 31.203125 
z
" id="DejaVuSans-61"/>
      <path d="M 18.3125 70.21875 
L 18.3125 54.6875 
L 36.8125 54.6875 
L 36.8125 47.703125 
L 18.3125 47.703125 
L 18.3125 18.015625 
Q 18.3125 11.328125 20.140625 9.421875 
Q 21.96875 7.515625 27.59375 7.515625 
L 36.8125 7.515625 
L 36.8125 0 
L 27.59375 0 
Q 17.1875 0 13.234375 3.875 
Q 9.28125 7.765625 9.28125 18.015625 
L 9.28125 47.703125 
L 2.6875 47.703125 
L 2.6875 54.6875 
L 9.28125 54.6875 
L 9.28125 70.21875 
z
" id="DejaVuSans-74"/>
      <path d="M 56.203125 29.59375 
L 56.203125 25.203125 
L 14.890625 25.203125 
Q 15.484375 15.921875 20.484375 11.0625 
Q 25.484375 6.203125 34.421875 6.203125 
Q 39.59375 6.203125 44.453125 7.46875 
Q 49.3125 8.734375 54.109375 11.28125 
L 54.109375 2.78125 
Q 49.265625 0.734375 44.1875 -0.34375 
Q 39.109375 -1.421875 33.890625 -1.421875 
Q 20.796875 -1.421875 13.15625 6.1875 
Q 5.515625 13.8125 5.515625 26.8125 
Q 5.515625 40.234375 12.765625 48.109375 
Q 20.015625 56 32.328125 56 
Q 43.359375 56 49.78125 48.890625 
Q 56.203125 41.796875 56.203125 29.59375 
z
M 47.21875 32.234375 
Q 47.125 39.59375 43.09375 43.984375 
Q 39.0625 48.390625 32.421875 48.390625 
Q 24.90625 48.390625 20.390625 44.140625 
Q 15.875 39.890625 15.1875 32.171875 
z
" id="DejaVuSans-65"/>
     </defs>
     <g transform="translate(224.885 324.351346)scale(0.1 -0.1)">
      <use xlink:href="#DejaVuSans-64"/>
      <use x="63.476562" xlink:href="#DejaVuSans-61"/>
      <use x="124.755859" xlink:href="#DejaVuSans-74"/>
      <use x="163.964844" xlink:href="#DejaVuSans-65"/>
     </g>
    </g>
   </g>
   <g id="matplotlib.axis_2">
    <g id="ytick_1">
     <g id="line2d_13">
      <path clip-path="url(#pae171c7ac6)" d="M 57.6 265.797818 
L 414.72 265.797818 
" style="fill:none;stroke:#b0b0b0;stroke-linecap:square;stroke-width:0.8;"/>
     </g>
     <g id="line2d_14">
      <defs>
       <path d="M 0 0 
L -3.5 0 
" id="mfaca4e79d5" style="stroke:#000000;stroke-width:0.8;"/>
      </defs>
      <g>
       <use style="stroke:#000000;stroke-width:0.8;" x="57.6" xlink:href="#mfaca4e79d5" y="265.797818"/>
      </g>
     </g>
     <g id="text_8">
      <!-- 0 -->
      <g transform="translate(44.2375 269.597037)scale(0.1 -0.1)">
       <use xlink:href="#DejaVuSans-30"/>
      </g>
     </g>
    </g>
    <g id="ytick_2">
     <g id="line2d_15">
      <path clip-path="url(#pae171c7ac6)" d="M 57.6 225.732479 
L 414.72 225.732479 
" style="fill:none;stroke:#b0b0b0;stroke-linecap:square;stroke-width:0.8;"/>
     </g>
     <g id="line2d_16">
      <g>
       <use style="stroke:#000000;stroke-width:0.8;" x="57.6" xlink:href="#mfaca4e79d5" y="225.732479"/>
      </g>
     </g>
     <g id="text_9">
      <!-- 2000 -->
      <g transform="translate(25.15 229.531698)scale(0.1 -0.1)">
       <use xlink:href="#DejaVuSans-32"/>
       <use x="63.623047" xlink:href="#DejaVuSans-30"/>
       <use x="127.246094" xlink:href="#DejaVuSans-30"/>
       <use x="190.869141" xlink:href="#DejaVuSans-30"/>
      </g>
     </g>
    </g>
    <g id="ytick_3">
     <g id="line2d_17">
      <path clip-path="url(#pae171c7ac6)" d="M 57.6 185.66714 
L 414.72 185.66714 
" style="fill:none;stroke:#b0b0b0;stroke-linecap:square;stroke-width:0.8;"/>
     </g>
     <g id="line2d_18">
      <g>
       <use style="stroke:#000000;stroke-width:0.8;" x="57.6" xlink:href="#mfaca4e79d5" y="185.66714"/>
      </g>
     </g>
     <g id="text_10">
      <!-- 4000 -->
      <g transform="translate(25.15 189.466359)scale(0.1 -0.1)">
       <use xlink:href="#DejaVuSans-34"/>
       <use x="63.623047" xlink:href="#DejaVuSans-30"/>
       <use x="127.246094" xlink:href="#DejaVuSans-30"/>
       <use x="190.869141" xlink:href="#DejaVuSans-30"/>
      </g>
     </g>
    </g>
    <g id="ytick_4">
     <g id="line2d_19">
      <path clip-path="url(#pae171c7ac6)" d="M 57.6 145.601801 
L 414.72 145.601801 
" style="fill:none;stroke:#b0b0b0;stroke-linecap:square;stroke-width:0.8;"/>
     </g>
     <g id="line2d_20">
      <g>
       <use style="stroke:#000000;stroke-width:0.8;" x="57.6" xlink:href="#mfaca4e79d5" y="145.601801"/>
      </g>
     </g>
     <g id="text_11">
      <!-- 6000 -->
      <g transform="translate(25.15 149.40102)scale(0.1 -0.1)">
       <use xlink:href="#DejaVuSans-36"/>
       <use x="63.623047" xlink:href="#DejaVuSans-30"/>
       <use x="127.246094" xlink:href="#DejaVuSans-30"/>
       <use x="190.869141" xlink:href="#DejaVuSans-30"/>
      </g>
     </g>
    </g>
    <g id="ytick_5">
     <g id="line2d_21">
      <path clip-path="url(#pae171c7ac6)" d="M 57.6 105.536462 
L 414.72 105.536462 
" style="fill:none;stroke:#b0b0b0;stroke-linecap:square;stroke-width:0.8;"/>
     </g>
     <g id="line2d_22">
      <g>
       <use style="stroke:#000000;stroke-width:0.8;" x="57.6" xlink:href="#mfaca4e79d5" y="105.536462"/>
      </g>
     </g>
     <g id="text_12">
      <!-- 8000 -->
      <g transform="translate(25.15 109.33568)scale(0.1 -0.1)">
       <use xlink:href="#DejaVuSans-38"/>
       <use x="63.623047" xlink:href="#DejaVuSans-30"/>
       <use x="127.246094" xlink:href="#DejaVuSans-30"/>
       <use x="190.869141" xlink:href="#DejaVuSans-30"/>
      </g>
     </g>
    </g>
    <g id="ytick_6">
     <g id="line2d_23">
      <path clip-path="url(#pae171c7ac6)" d="M 57.6 65.471123 
L 414.72 65.471123 
" style="fill:none;stroke:#b0b0b0;stroke-linecap:square;stroke-width:0.8;"/>
     </g>
     <g id="line2d_24">
      <g>
       <use style="stroke:#000000;stroke-width:0.8;" x="57.6" xlink:href="#mfaca4e79d5" y="65.471123"/>
      </g>
     </g>
     <g id="text_13">
      <!-- 10000 -->
      <g transform="translate(18.7875 69.270341)scale(0.1 -0.1)">
       <use xlink:href="#DejaVuSans-31"/>
       <use x="63.623047" xlink:href="#DejaVuSans-30"/>
       <use x="127.246094" xlink:href="#DejaVuSans-30"/>
       <use x="190.869141" xlink:href="#DejaVuSans-30"/>
       <use x="254.492188" xlink:href="#DejaVuSans-30"/>
      </g>
     </g>
    </g>
    <g id="text_14">
     <!-- EUR -->
     <defs>
      <path d="M 9.8125 72.90625 
L 55.90625 72.90625 
L 55.90625 64.59375 
L 19.671875 64.59375 
L 19.671875 43.015625 
L 54.390625 43.015625 
L 54.390625 34.71875 
L 19.671875 34.71875 
L 19.671875 8.296875 
L 56.78125 8.296875 
L 56.78125 0 
L 9.8125 0 
z
" id="DejaVuSans-45"/>
      <path d="M 8.6875 72.90625 
L 18.609375 72.90625 
L 18.609375 28.609375 
Q 18.609375 16.890625 22.84375 11.734375 
Q 27.09375 6.59375 36.625 6.59375 
Q 46.09375 6.59375 50.34375 11.734375 
Q 54.59375 16.890625 54.59375 28.609375 
L 54.59375 72.90625 
L 64.5 72.90625 
L 64.5 27.390625 
Q 64.5 13.140625 57.4375 5.859375 
Q 50.390625 -1.421875 36.625 -1.421875 
Q 22.796875 -1.421875 15.734375 5.859375 
Q 8.6875 13.140625 8.6875 27.390625 
z
" id="DejaVuSans-55"/>
      <path d="M 44.390625 34.1875 
Q 47.5625 33.109375 50.5625 29.59375 
Q 53.5625 26.078125 56.59375 19.921875 
L 66.609375 0 
L 56 0 
L 46.6875 18.703125 
Q 43.0625 26.03125 39.671875 28.421875 
Q 36.28125 30.8125 30.421875 30.8125 
L 19.671875 30.8125 
L 19.671875 0 
L 9.8125 0 
L 9.8125 72.90625 
L 32.078125 72.90625 
Q 44.578125 72.90625 50.734375 67.671875 
Q 56.890625 62.453125 56.890625 51.90625 
Q 56.890625 45.015625 53.6875 40.46875 
Q 50.484375 35.9375 44.390625 34.1875 
z
M 19.671875 64.796875 
L 19.671875 38.921875 
L 32.078125 38.921875 
Q 39.203125 38.921875 42.84375 42.21875 
Q 46.484375 45.515625 46.484375 51.90625 
Q 46.484375 58.296875 42.84375 61.546875 
Q 39.203125 64.796875 32.078125 64.796875 
z
" id="DejaVuSans-52"/>
     </defs>
     <g transform="translate(12.707813 169.268969)rotate(-90)scale(0.1 -0.1)">
      <use xlink:href="#DejaVuSans-45"/>
      <use x="63.183594" xlink:href="#DejaVuSans-55"/>
      <use x="136.376953" xlink:href="#DejaVuSans-52"/>
     </g>
    </g>
   </g>
   <g id="line2d_25">
    <path clip-path="url(#pae171c7ac6)" d="M 73.832727 265.797818 
L 107.785308 265.708175 
L 107.785308 265.689255 
L 113.605751 265.538685 
L 113.605751 265.416871 
L 113.605751 265.416871 
L 115.545898 265.347172 
L 115.545898 265.310283 
L 115.545898 265.140539 
L 120.396267 264.987464 
L 120.396267 264.796262 
L 123.306488 264.672669 
L 123.306488 264.654946 
L 123.306488 264.654946 
L 128.156857 264.540892 
L 128.156857 264.519802 
L 133.007226 264.410772 
L 133.007226 264.410365 
L 133.977299 264.299542 
L 133.977299 264.115478 
L 135.917447 264.007505 
L 135.917447 263.96341 
L 137.857594 263.851122 
L 137.857594 263.805585 
L 141.737889 263.694986 
L 141.737889 263.640282 
L 142.707963 263.528059 
L 142.707963 263.47463 
L 142.707963 263.47463 
L 147.558332 263.343295 
L 147.558332 263.231173 
L 151.438627 263.125266 
L 151.438627 263.097332 
L 158.229143 262.96622 
L 158.229143 262.946976 
L 162.109438 262.837587 
L 163.079512 262.732407 
L 163.079512 262.693801 
L 164.049585 262.582293 
L 164.049585 262.563474 
L 167.92988 262.444852 
L 167.92988 262.375185 
L 170.840101 262.252859 
L 170.840101 262.207215 
L 174.720396 262.133068 
L 174.720396 262.099072 
L 174.720396 261.874762 
L 177.630618 261.748667 
L 177.630618 261.546943 
L 182.480986 261.43079 
L 182.480986 261.421008 
L 188.301429 261.280395 
L 188.301429 261.247941 
L 192.181724 261.092541 
L 192.181724 261.092541 
L 192.181724 261.012219 
L 192.181724 261.012219 
L 195.091945 260.889507 
L 195.091945 260.823717 
L 197.032092 260.701779 
L 197.032092 260.697219 
L 201.882461 260.566368 
L 201.882461 260.566368 
L 201.882461 260.415264 
L 203.822609 260.307713 
L 203.822609 260.261139 
L 208.672977 260.101876 
L 208.672977 259.99041 
L 212.553272 259.846164 
L 212.553272 259.834292 
L 222.25401 259.715978 
L 222.25401 259.58163 
L 223.224083 259.465838 
L 223.224083 259.464702 
L 226.134305 259.330845 
L 226.134305 259.297097 
L 229.044526 259.171107 
L 229.044526 259.118995 
L 230.984673 259.018465 
L 230.984673 258.91603 
L 231.954747 258.807015 
L 231.954747 258.769403 
L 231.954747 258.769403 
L 235.835042 258.649398 
L 235.835042 258.617772 
L 235.835042 258.617772 
L 236.805116 258.50696 
L 236.805116 258.403021 
L 239.715337 258.291795 
L 239.715337 258.282513 
L 246.505853 258.159171 
L 246.505853 258.135171 
L 249.416075 258.019072 
L 249.416075 257.946022 
L 249.416075 257.946022 
L 250.386148 257.873245 
L 250.386148 257.804891 
L 251.356222 257.693845 
L 251.356222 257.184505 
L 252.326296 257.061885 
L 252.326296 256.579622 
L 253.296369 256.579622 
L 253.296369 256.472339 
L 253.296369 256.37103 
L 256.206591 256.247241 
L 256.206591 255.509113 
L 257.176664 255.397911 
L 257.176664 255.35788 
L 258.146738 255.35788 
L 258.146738 255.303383 
L 258.146738 255.014676 
L 260.086886 254.899212 
L 260.086886 254.689517 
L 260.086886 254.689517 
L 262.997107 254.575613 
L 262.997107 254.575613 
L 262.997107 254.346435 
L 263.967181 254.237469 
L 263.967181 254.103108 
L 264.937254 253.993833 
L 264.937254 253.749014 
L 265.907328 253.638164 
L 265.907328 253.199733 
L 266.877402 253.141847 
L 266.877402 252.93048 
L 269.787623 252.694993 
L 269.787623 252.62844 
L 270.757697 252.529852 
L 270.757697 252.316746 
L 273.667918 252.198984 
L 273.667918 252.127254 
L 276.578139 252.016427 
L 276.578139 252.014131 
L 278.518287 251.929119 
L 278.518287 251.834737 
L 279.488361 251.72023 
L 279.488361 251.509295 
L 280.458434 251.398065 
L 280.458434 251.369159 
L 283.368655 251.262428 
L 283.368655 251.262428 
L 283.368655 250.069578 
L 284.338729 249.958317 
L 284.338729 249.496318 
L 285.308803 249.387122 
L 285.308803 249.263345 
L 286.278877 249.263345 
L 286.278877 249.152808 
L 286.278877 249.006841 
L 287.24895 248.909232 
L 287.24895 248.846182 
L 290.159172 248.728547 
L 290.159172 248.728547 
L 290.159172 248.524731 
L 291.129245 248.416832 
L 291.129245 248.322242 
L 292.099319 248.209801 
L 292.099319 248.192839 
L 292.099319 248.192839 
L 293.069393 248.192839 
L 293.069393 248.101771 
L 293.069393 247.970707 
L 294.039467 247.86055 
L 294.039467 247.592592 
L 296.949688 247.469607 
L 296.949688 246.771412 
L 297.919762 246.771412 
L 297.919762 246.660418 
L 297.919762 246.58674 
L 298.889835 246.475539 
L 298.889835 246.440655 
L 300.829983 246.33039 
L 300.829983 246.195483 
L 303.740204 246.101156 
L 303.740204 245.991608 
L 305.680352 245.900305 
L 305.680352 245.88304 
L 305.680352 245.781729 
L 305.680352 245.781729 
L 308.590573 245.681685 
L 308.590573 245.599121 
L 310.53072 245.484208 
L 310.53072 245.335758 
L 310.53072 245.335758 
L 311.500794 245.228527 
L 311.500794 244.90744 
L 312.470868 244.803789 
L 312.470868 244.311371 
L 313.440941 244.199525 
L 313.440941 243.891012 
L 314.411015 243.781887 
L 314.411015 243.347798 
L 317.321236 243.230738 
L 317.321236 242.927654 
L 318.29131 242.817938 
L 318.29131 242.693657 
L 319.261384 242.586713 
L 319.261384 242.574461 
L 321.201531 242.466548 
L 321.201531 242.201924 
L 324.111753 242.088285 
L 324.111753 241.568548 
L 325.081826 241.457731 
L 325.081826 241.311359 
L 326.0519 241.311359 
L 326.0519 241.200897 
L 326.0519 240.863213 
L 327.021974 240.753139 
L 327.021974 240.716475 
L 327.992048 240.609083 
L 327.992048 240.525033 
L 330.902269 240.412599 
L 330.902269 240.349166 
L 331.872343 240.279434 
L 331.872343 240.076312 
L 333.81249 239.967057 
L 333.81249 239.802053 
L 336.722711 239.692795 
L 336.722711 239.691103 
L 336.722711 239.681204 
L 338.662859 239.594977 
L 338.662859 239.309586 
L 340.603006 239.198216 
L 340.603006 239.198216 
L 340.603006 238.891265 
L 341.57308 238.759016 
L 341.57308 238.270568 
L 344.483301 238.163273 
L 344.483301 237.621521 
L 345.453375 237.490295 
L 345.453375 237.361078 
L 347.393522 237.266118 
L 347.393522 237.250568 
L 347.393522 237.063955 
L 351.273817 236.950568 
L 351.273817 236.621236 
L 352.243891 236.510387 
L 352.243891 236.37059 
L 353.213965 236.252606 
L 353.213965 235.878649 
L 354.184039 235.766577 
L 354.184039 235.598295 
L 355.154112 235.489669 
L 355.154112 235.150268 
L 358.064334 235.061386 
L 358.064334 234.741857 
L 359.034407 234.630714 
L 360.004481 234.538945 
L 360.004481 234.419067 
L 360.974555 234.419067 
L 360.974555 234.309301 
L 360.974555 234.280065 
L 361.944629 234.168221 
L 361.944629 234.15931 
L 365.824924 234.044849 
L 365.824924 233.927755 
L 365.824924 233.927755 
L 367.765071 233.833106 
L 367.765071 233.795873 
L 368.735145 233.684211 
L 368.735145 233.654398 
L 371.645366 233.546878 
L 371.645366 232.769909 
L 371.645366 232.769909 
L 372.61544 232.674067 
L 372.61544 232.272322 
L 373.585513 232.172607 
L 373.585513 231.960594 
L 373.585513 231.960594 
L 374.555587 231.851235 
L 374.555587 231.731873 
L 374.555587 231.731873 
L 375.525661 231.620768 
L 375.525661 231.580313 
L 378.435882 231.464603 
L 378.435882 231.266268 
L 378.435882 231.266268 
L 380.37603 231.156173 
L 380.37603 230.957468 
L 382.316177 230.848042 
L 382.316177 230.724373 
L 385.226398 230.602735 
L 385.226398 230.602735 
L 385.226398 229.799895 
L 387.166546 229.690602 
L 387.166546 229.631555 
L 388.13662 229.519284 
L 388.13662 229.476415 
L 391.046841 229.363801 
L 391.046841 229.358873 
L 392.986988 229.248921 
L 392.986988 229.163234 
L 394.927136 229.054997 
L 394.927136 229.05299 
L 394.927136 229.011362 
L 397.837357 228.905484 
L 397.837357 228.905484 
" style="fill:none;stroke:#0000ff;stroke-linecap:square;stroke-width:1.5;"/>
   </g>
   <g id="line2d_26">
    <path clip-path="url(#pae171c7ac6)" d="M 73.832727 265.797818 
L 76.620959 265.717688 
L 76.776946 255.701353 
L 77.00653 255.841581 
L 77.446735 258.766351 
L 77.599836 259.988344 
L 77.79522 260.489161 
L 77.964366 260.70952 
L 78.118657 261.470762 
L 78.387908 262.832983 
L 78.450952 263.253669 
L 78.781091 264.075009 
L 79.17158 264.655956 
L 79.175408 264.83625 
L 79.371568 265.016544 
L 79.461906 265.196838 
L 79.563258 265.397165 
L 80.0755 265.497084 
L 80.076174 225.431745 
L 80.170632 227.074424 
L 80.222291 228.056024 
L 80.326024 246.045362 
L 80.430295 248.909565 
L 80.448956 249.149957 
L 80.63684 255.716723 
L 80.813654 255.913499 
L 80.918016 257.90841 
L 80.935127 257.903082 
L 80.991871 257.983213 
L 81.104003 260.767754 
L 81.346218 263.432099 
L 81.408947 263.231459 
L 81.431706 263.451818 
L 81.700418 264.192503 
L 82.07914 264.352764 
L 82.123624 264.99381 
L 82.260254 265.033875 
L 82.325498 265.194136 
L 82.453023 265.59479 
L 83.094259 265.694717 
L 83.193063 265.734783 
L 83.866883 265.768504 
L 83.988546 265.566847 
L 84.044426 265.686772 
L 84.148833 265.746869 
L 87.132483 265.786934 
L 87.862643 265.583948 
L 87.867404 265.684112 
L 87.873983 265.74421 
L 88.839106 265.784275 
L 90.102728 265.581834 
L 90.105804 265.601866 
L 90.115123 265.78216 
L 93.626633 265.76201 
L 93.626633 265.570616 
L 93.628979 265.770943 
L 93.842115 265.758741 
L 107.145194 265.783759 
L 107.145194 265.748057 
L 107.145194 265.720463 
L 107.158241 265.780561 
L 107.214986 265.769511 
L 107.311735 265.789543 
L 108.204899 265.78577 
L 108.619807 265.577976 
L 109.058923 265.55854 
L 109.058923 265.453391 
L 109.090484 265.553555 
L 111.393533 265.796802 
L 114.2108 265.683569 
L 114.237915 265.51217 
L 114.22945 265.717371 
L 114.306831 265.632366 
L 115.862194 265.491091 
L 115.90075 265.443089 
L 115.953172 265.497918 
L 115.965579 265.487501 
L 115.996657 265.458001 
L 116.22468 265.708729 
L 116.277933 265.601919 
L 116.313233 265.682049 
L 117.894476 265.767144 
L 117.93731 265.785302 
L 117.93731 265.779012 
L 120.719063 265.637205 
L 120.735534 265.601053 
L 120.786171 265.661151 
L 120.79997 265.660401 
L 121.740897 265.761224 
L 121.86256 265.795757 
L 122.222285 265.778732 
L 122.844524 265.79048 
L 122.902336 257.258165 
L 122.986049 261.134182 
L 123.04486 264.257154 
L 123.772494 264.339058 
L 123.783677 263.837828 
L 123.801899 264.318612 
L 123.898626 264.338645 
L 123.963028 265.099887 
L 124.009758 265.086608 
L 124.030147 265.106641 
L 124.612472 265.09702 
L 124.652948 264.891575 
L 124.665377 265.111934 
L 124.693368 265.110839 
L 124.895478 265.146077 
L 125.020846 265.604225 
L 125.020846 265.602848 
L 125.745101 265.615501 
L 125.872906 265.75573 
L 127.934851 265.648531 
L 127.990709 265.636426 
L 127.994628 265.696524 
L 134.321979 265.586208 
L 134.404558 265.520696 
L 134.428698 265.640892 
L 134.566069 265.72559 
L 134.566069 265.705076 
L 134.724683 265.720397 
L 134.724683 265.716574 
L 134.724683 265.513623 
L 134.830852 265.733982 
L 136.20336 265.734015 
L 136.20336 265.702803 
L 136.20336 265.694429 
L 136.273163 265.734494 
L 136.31072 265.729222 
L 141.681942 265.754119 
L 141.70232 265.557488 
L 141.727941 265.697717 
L 142.089294 265.661247 
L 142.123348 265.570438 
L 142.199887 265.696679 
L 142.31972 265.716711 
L 142.31972 265.698618 
L 143.05436 265.587999 
L 143.089334 265.566083 
L 143.147213 265.726344 
L 159.089151 265.586822 
L 159.089151 265.255588 
L 159.104477 265.79647 
L 162.479054 265.746185 
L 162.568337 265.639633 
L 162.608981 265.754828 
L 162.775128 265.638965 
L 162.808834 265.110793 
L 162.80898 264.380848 
L 162.853464 265.357828 
L 163.076929 265.344283 
L 163.14013 265.565944 
L 163.382356 265.454926 
L 163.462152 265.408714 
L 163.775932 265.444228 
L 163.775932 265.439312 
L 164.66392 265.306966 
L 164.66392 265.301393 
L 164.766441 265.781122 
L 164.790322 265.791819 
L 164.90846 265.412428 
L 164.922371 265.612755 
L 165.800928 265.574091 
L 165.863533 265.774417 
L 175.462469 265.652024 
L 175.462469 265.579805 
L 175.530767 265.677586 
L 175.572074 265.672745 
L 176.348178 265.723838 
L 176.447206 265.75106 
L 176.447206 265.749913 
L 176.509194 265.768292 
L 176.509194 265.762647 
L 177.944713 265.662908 
L 177.972389 265.551918 
L 178.033367 265.679802 
L 178.176408 265.742302 
L 178.176408 265.73664 
L 180.097749 265.796809 
L 192.497234 265.688906 
L 192.497234 265.643041 
L 192.60749 265.755905 
L 200.361231 265.769062 
L 200.36488 265.789094 
L 202.214071 265.677087 
L 202.240165 265.592125 
L 202.325069 265.659307 
L 202.619414 265.722455 
L 215.971907 265.779457 
L 216.029639 263.781599 
L 216.084431 264.575645 
L 217.372653 264.594226 
L 217.777198 264.592187 
L 217.978196 265.794147 
L 218.101533 264.583026 
L 218.789398 264.583223 
L 218.972342 264.823615 
L 218.987713 265.785183 
L 222.583453 265.676335 
L 222.641029 265.653755 
L 222.671377 265.713853 
L 222.682863 265.707334 
L 227.610759 265.777093 
L 229.405732 265.710395 
L 229.405732 265.702763 
L 229.428704 265.677491 
L 229.475479 265.725336 
L 229.50466 265.713821 
L 231.653014 265.638313 
L 231.693681 265.435446 
L 231.716787 265.659812 
L 232.284067 265.546211 
L 232.320142 265.4723 
L 232.394559 265.514031 
L 232.58872 265.697399 
L 241.03064 265.775755 
L 241.071801 265.795787 
L 245.954259 265.784358 
L 245.972593 265.665269 
L 246.035974 265.704945 
L 246.23485 265.663562 
L 246.23485 265.713805 
L 246.238499 265.159971 
L 246.240879 265.709687 
L 246.398876 265.70076 
L 246.405523 265.411084 
L 246.408868 265.711574 
L 247.327879 265.64101 
L 247.351951 264.496268 
L 247.355914 265.650856 
L 247.367961 265.650072 
L 248.127033 265.712963 
L 248.127269 262.167264 
L 248.230519 265.780373 
L 248.245036 265.742774 
L 248.249359 263.997952 
L 248.253288 265.789634 
L 248.34503 265.225648 
L 248.396801 265.793975 
L 248.398844 264.678182 
L 248.398901 263.584106 
L 248.45779 265.79712 
L 248.501555 265.793776 
L 249.724062 265.695083 
L 249.724062 265.602305 
L 249.809291 265.797109 
L 249.837574 265.796694 
L 249.859603 215.71502 
L 249.962841 233.573447 
L 249.983354 236.051782 
L 250.258691 264.593892 
L 250.278598 264.590302 
L 250.995161 264.674432 
L 250.995274 265.785285 
L 251.087307 265.781428 
L 251.661739 265.693478 
L 251.702743 215.713618 
L 251.670766 265.795291 
L 251.770244 221.997328 
L 251.783301 222.856562 
L 251.885653 230.766374 
L 251.891806 230.761102 
L 251.89587 231.30285 
L 251.998211 242.232512 
L 252.01247 244.054903 
L 252.01247 244.054683 
L 252.05966 252.020091 
L 252.068294 242.003756 
L 252.133673 251.660745 
L 252.136379 241.64441 
L 252.243727 254.011755 
L 252.264139 255.140009 
L 252.376674 264.32827 
L 252.38688 265.782002 
L 252.626884 265.672755 
L 252.626884 265.387481 
L 252.70385 265.793917 
L 252.903501 265.683418 
L 252.909597 261.775274 
L 252.980242 265.797531 
L 252.983734 265.777625 
L 253.184216 265.781967 
L 253.184216 265.769995 
L 253.184216 265.762426 
L 253.191649 265.78366 
L 253.265168 265.778388 
L 253.851535 265.666709 
L 253.851535 265.666377 
L 253.856722 265.793785 
L 253.931992 265.780977 
L 254.114589 265.794794 
L 256.521685 265.682398 
L 256.521685 265.396447 
L 256.62013 265.795157 
L 262.750367 265.71672 
L 262.750367 265.73691 
L 262.807314 265.796766 
L 262.807314 265.795531 
L 263.317579 265.6852 
L 263.317579 265.651045 
L 263.323474 265.771732 
L 263.420773 265.754757 
L 263.64069 265.725226 
L 263.64069 265.521521 
L 263.732903 265.765026 
L 263.738944 265.69809 
L 263.759075 265.517761 
L 263.824959 265.777663 
L 264.265186 265.69043 
L 264.265186 265.578463 
L 264.346666 265.792645 
L 264.364462 265.760345 
L 265.233408 265.646798 
L 265.233408 265.571162 
L 265.308184 265.793872 
L 265.338881 265.761815 
L 265.591605 265.794182 
L 265.591605 265.786502 
L 265.631284 265.765954 
L 265.702703 265.793043 
L 266.212688 265.683074 
L 266.212688 265.387124 
L 266.218796 265.790629 
L 266.322641 265.647307 
L 266.40293 265.790771 
L 266.846986 265.760974 
L 267.172309 265.312682 
L 267.172309 265.308373 
L 267.191037 265.751416 
L 267.262568 265.72633 
L 267.37352 265.766042 
L 267.37352 264.532401 
L 267.385523 265.776393 
L 267.454719 265.754697 
L 267.57499 265.71788 
L 267.57499 265.708067 
L 270.169365 265.78574 
L 270.169365 265.775128 
L 270.169365 265.655222 
L 270.251395 265.748161 
L 270.492139 265.769214 
L 270.492139 265.763089 
L 272.450936 265.677258 
L 272.450936 265.453693 
L 272.470742 265.784438 
L 272.473605 265.783383 
L 277.832948 265.792143 
L 277.832948 265.710374 
L 277.832948 265.663238 
L 277.874052 265.783865 
L 277.935984 265.782324 
L 278.98454 265.78335 
L 278.98454 265.481868 
L 279.062089 265.788647 
L 279.78914 265.666184 
L 279.78914 265.509611 
L 279.864792 265.785892 
L 279.884272 265.782658 
L 283.676979 265.660275 
L 283.676979 264.958273 
L 283.745008 265.789674 
L 283.785922 265.788166 
L 284.120901 265.674161 
L 284.120901 265.633459 
L 284.147959 265.797094 
L 284.219547 265.794589 
L 284.632783 265.691672 
L 284.632783 265.534671 
L 284.731149 265.797759 
L 285.723712 265.709594 
L 285.763705 265.792677 
L 285.838099 265.77397 
L 285.85758 265.571865 
L 285.881315 265.797335 
L 285.919287 265.780513 
L 286.136936 265.787009 
L 287.005635 265.677935 
L 287.005635 265.546934 
L 287.115509 265.795418 
L 288.135041 265.734382 
L 288.135052 265.217779 
L 288.140666 265.783237 
L 291.427667 265.784192 
L 291.427667 265.715771 
L 291.427667 265.662779 
L 291.467244 265.789425 
L 291.528693 265.785712 
L 292.624282 265.665662 
L 292.624282 265.61119 
L 292.634364 265.79224 
L 294.351395 265.796274 
L 294.351395 265.684861 
L 294.351395 265.456601 
L 294.361904 265.797666 
L 294.462134 265.780524 
L 294.715397 265.770486 
L 294.822666 265.790845 
L 295.456964 265.797036 
L 295.460434 265.608582 
L 295.502133 265.783607 
L 297.256912 265.782561 
L 297.256912 265.69032 
L 297.256923 265.224017 
L 297.269397 265.795511 
L 297.361464 265.795466 
L 297.372243 265.780455 
L 297.372243 265.670153 
L 297.381921 265.791722 
L 297.453531 265.783615 
L 301.145459 265.653364 
L 301.145459 265.62935 
L 301.196051 265.796927 
L 301.226972 265.790438 
L 305.16052 265.779852 
L 305.218859 265.605497 
L 305.262501 265.79067 
L 306.249899 265.679532 
L 306.249899 265.645219 
L 306.25548 265.787331 
L 306.330638 265.780498 
L 310.832936 265.664346 
L 310.832936 265.639602 
L 310.913619 265.797105 
L 311.482482 265.788346 
L 311.820548 265.678077 
L 311.820548 265.465356 
L 311.835885 265.792583 
L 311.909381 265.790362 
L 312.773432 265.677235 
L 312.773432 265.294727 
L 312.778821 265.78214 
L 312.880264 265.718222 
L 313.044592 265.747896 
L 313.044592 265.745685 
L 313.123321 265.501975 
L 313.123321 265.482298 
L 313.209965 265.574069 
L 313.405473 265.671736 
L 313.422696 265.691769 
L 313.737926 265.5966 
L 313.737926 265.434932 
L 313.834113 265.709219 
L 313.843623 265.679795 
L 313.974078 265.685929 
L 313.974078 265.685103 
L 313.974078 265.680232 
L 314.038671 265.754204 
L 314.053839 265.751286 
L 314.708606 265.638701 
L 314.759703 265.392561 
L 314.763419 265.713083 
L 314.802795 265.620832 
L 314.96206 265.554758 
L 315.023251 265.383791 
L 315.06696 265.388289 
L 315.185873 265.480117 
L 315.185873 265.479573 
L 315.305897 265.595682 
L 315.305897 265.592209 
L 316.235506 265.750655 
L 316.235506 265.748679 
L 317.62215 265.639787 
L 317.719292 265.579146 
L 317.860705 265.655442 
L 317.860705 265.638968 
L 317.860705 265.529868 
L 317.880814 265.670096 
L 317.945452 265.620691 
L 318.057617 265.489387 
L 318.088179 265.529691 
L 318.257784 265.560386 
L 318.669482 265.449856 
L 318.714426 265.414559 
L 318.738835 265.534755 
L 318.758585 265.496445 
L 319.159672 265.689843 
L 319.159672 265.689843 
L 319.724998 265.563474 
L 319.724998 265.539456 
L 319.790265 265.596445 
L 319.815494 265.591169 
L 320.008408 265.633751 
L 320.815141 265.705801 
L 320.980929 265.746798 
L 321.514391 265.634924 
L 321.607233 265.518658 
L 321.620055 265.538691 
L 321.906833 265.697469 
L 321.947141 265.65453 
L 323.519985 265.737295 
L 323.546483 265.757328 
L 324.433853 265.645596 
L 324.452659 265.395721 
L 324.529603 265.696211 
L 324.633066 265.585126 
L 324.934597 265.472495 
L 325.015796 265.250994 
L 325.381954 265.139266 
L 325.46733 265.03633 
L 325.491739 265.356853 
L 326.026424 265.328093 
L 326.368128 265.219469 
L 326.4467 264.90923 
L 326.451258 265.009393 
L 326.681707 265.071114 
L 326.991783 265.408213 
L 327.347723 265.375933 
L 327.570256 265.755845 
L 327.570256 265.730965 
L 327.570256 265.61185 
L 327.58254 265.752079 
L 327.671586 265.738363 
L 328.389003 265.625021 
L 328.389003 265.602352 
L 328.40214 265.742581 
L 328.459356 265.738044 
L 334.707114 265.683498 
L 334.707114 265.48345 
L 334.737092 265.713735 
L 339.148435 265.644392 
L 339.148435 263.869156 
L 339.251786 265.508504 
L 340.103025 265.515829 
L 340.227462 265.794277 
L 340.261403 265.709586 
L 340.343006 265.788023 
L 340.895679 265.677265 
L 340.89569 265.490271 
L 340.979763 265.79116 
L 340.995111 265.780383 
L 341.888365 265.652013 
L 341.888376 265.480393 
L 341.968037 265.789707 
L 341.997734 265.788878 
L 344.803403 265.667922 
L 344.803403 265.46005 
L 344.803942 265.783493 
L 344.906316 265.782866 
L 344.949408 265.760128 
L 344.949408 265.640134 
L 344.998395 265.78543 
L 346.03835 265.681398 
L 346.117999 265.605685 
L 346.121929 265.625718 
L 346.199512 265.736482 
L 346.199512 265.730203 
L 346.884413 265.735257 
L 346.902838 264.764613 
L 346.966263 265.72124 
L 347.005268 265.647802 
L 347.005268 265.574491 
L 347.048203 265.758793 
L 351.970261 265.637322 
L 351.970261 265.602741 
L 352.014633 265.7552 
L 352.055659 265.747703 
L 352.562747 265.756856 
L 352.562747 265.751961 
L 352.64774 265.605136 
L 352.56817 265.755738 
L 352.670432 265.719801 
L 353.518326 265.608764 
L 353.518326 265.416731 
L 353.520189 265.775959 
L 353.612257 265.765942 
L 354.493272 265.652213 
L 354.493272 265.575542 
L 354.536139 265.771775 
L 354.604381 265.768291 
L 354.685401 265.785727 
L 354.685401 265.784735 
L 355.467916 265.696523 
L 355.467916 265.403685 
L 355.468657 265.794628 
L 355.569942 265.78163 
L 355.802748 265.782568 
L 358.828435 265.674989 
L 358.828435 265.475042 
L 358.831388 265.783538 
L 358.889256 265.782596 
L 358.97032 265.707388 
L 358.97032 265.606913 
L 358.984983 265.797794 
L 359.010672 265.793113 
L 360.36525 265.766596 
L 360.36525 265.727023 
L 360.36525 265.667664 
L 360.380295 265.788204 
L 360.474518 265.785281 
L 360.506752 265.593105 
L 360.511704 265.793426 
L 360.550698 265.790405 
L 362.331704 265.684585 
L 362.397734 265.382902 
L 362.402551 265.791351 
L 362.437862 265.790269 
L 366.61111 265.738234 
L 366.61111 262.757562 
L 366.621484 265.777336 
L 366.651799 265.776281 
L 369.200129 265.692542 
L 369.200129 265.632923 
L 369.212502 265.793185 
L 369.281182 265.790991 
L 369.523363 265.693843 
L 369.523363 265.489283 
L 369.52489 265.791669 
L 371.98177 265.679843 
L 371.997545 265.25298 
L 372.115066 265.353143 
L 372.126653 265.573503 
L 372.311573 265.466047 
L 372.365242 264.499654 
L 372.409613 265.239768 
L 372.441983 265.206928 
L 372.556505 265.657073 
L 372.556505 265.654042 
L 372.925976 265.538849 
L 372.958087 265.513203 
L 373.012878 265.653444 
L 373.017841 265.62064 
L 373.20623 265.749323 
L 373.046651 265.550001 
L 373.20623 265.65537 
L 373.20623 265.613109 
L 373.226732 265.754502 
L 373.303777 265.743869 
L 373.333541 265.682936 
L 373.405623 265.749753 
L 373.892939 265.63975 
L 373.930024 265.561452 
L 373.988128 265.755333 
L 374.9003 265.643322 
L 374.930637 265.723452 
L 375.027735 265.66885 
L 375.101759 265.688007 
L 375.101759 265.686834 
L 375.268187 265.587563 
L 375.268187 265.469262 
L 375.286342 265.729687 
L 375.345849 265.6759 
L 375.490339 265.728619 
L 376.798973 265.618978 
L 377.09434 265.689915 
L 379.100001 265.65635 
L 379.167715 265.064388 
L 379.240673 265.189776 
L 379.298305 265.730658 
L 379.386016 265.714116 
L 382.746412 265.613909 
L 382.746412 265.542637 
L 382.854546 265.7769 
L 385.542964 265.631554 
L 385.619312 265.081725 
L 385.640454 265.101758 
L 385.700297 264.997342 
L 385.791096 265.614508 
L 385.829966 265.599629 
L 386.94335 265.675031 
L 387.000859 265.774851 
L 387.000859 265.774848 
L 387.132863 265.774581 
L 387.874542 265.699318 
L 387.890385 265.488386 
L 387.942178 265.748811 
L 387.952687 265.736211 
L 388.073587 265.755779 
L 388.073587 265.750453 
L 391.879117 265.708996 
L 391.879117 265.609831 
L 391.890783 265.790125 
L 391.981166 265.773249 
L 392.009392 265.793282 
L 392.534826 265.687549 
L 392.598263 265.569239 
L 392.616732 265.769566 
L 395.518151 265.658798 
L 395.617729 265.617528 
L 396.466959 265.61439 
L 396.669372 265.791299 
L 398.487273 265.790298 
L 398.487273 265.790298 
" style="fill:none;stroke:#ff0000;stroke-linecap:square;stroke-width:1.5;"/>
   </g>
   <g id="line2d_27">
    <path clip-path="url(#pae171c7ac6)" d="M 73.832727 265.797818 
L 76.742948 265.657589 
L 76.742948 261.23037 
L 77.713022 261.030043 
L 77.713022 257.78475 
L 78.683096 257.644522 
L 78.683096 256.202169 
L 79.65317 256.001843 
L 79.65317 245.725083 
L 79.65317 246.065639 
L 80.30413 245.865312 
L 80.326203 229.839176 
L 80.540652 229.63885 
L 80.623243 218.785092 
L 80.623243 219.087607 
L 80.813654 218.89083 
L 80.895774 217.697226 
L 81.593317 217.396736 
L 81.593317 216.15471 
L 82.563391 215.814155 
L 82.563391 215.77409 
L 82.563391 215.774352 
L 83.533465 215.674188 
L 83.533465 215.493894 
L 83.533465 215.796138 
L 87.41376 215.615844 
L 87.41376 215.595811 
L 87.41376 215.796138 
L 89.353907 215.73604 
L 89.353907 215.555746 
L 89.353907 215.756073 
L 93.234202 215.555746 
L 93.234202 215.575779 
L 93.234202 215.776105 
L 107.785308 215.66211 
L 107.785308 215.665577 
L 107.785308 215.867489 
L 108.755382 215.767326 
L 108.755382 215.526934 
L 108.755382 215.629365 
L 109.725456 215.509169 
L 109.725456 215.489136 
L 109.725456 215.620797 
L 110.695529 215.500601 
L 110.695529 215.480569 
L 110.695529 215.526853 
L 113.605751 215.390084 
L 113.605751 215.269888 
L 113.605751 215.551973 
L 114.575824 215.431777 
L 114.575824 215.391712 
L 114.575824 215.440776 
L 115.545898 215.32058 
L 115.545898 214.980025 
L 115.545898 215.214699 
L 116.515972 215.094503 
L 116.515972 215.034405 
L 116.515972 215.080509 
L 117.486046 214.960313 
L 117.486046 214.880182 
L 117.486046 215.04437 
L 120.396267 214.88729 
L 120.396267 214.666931 
L 120.396267 214.783151 
L 122.336414 214.650588 
L 122.336414 211.725818 
L 122.336414 211.737345 
L 122.973171 211.537019 
L 122.987992 207.590583 
L 123.306488 207.470387 
L 123.306488 206.268427 
L 123.306488 206.792233 
L 124.276562 206.692069 
L 124.276562 206.17122 
L 124.276562 206.380271 
L 126.216709 206.121783 
L 127.186783 206.001587 
L 127.186783 205.941489 
L 127.186783 206.130659 
L 129.126931 205.978494 
L 129.126931 206.076165 
L 129.126931 206.096198 
L 130.097004 205.976002 
L 130.097004 205.955969 
L 130.097004 206.00403 
L 130.097004 206.00403 
L 131.067078 205.883834 
L 131.067078 205.863801 
L 131.067078 205.90203 
L 133.977299 205.741961 
L 133.977299 205.401406 
L 133.977299 205.645456 
L 135.917447 205.499305 
L 135.917447 205.439207 
L 135.917447 205.445425 
L 137.857594 205.313795 
L 137.857594 205.27373 
L 137.857594 205.301595 
L 140.767815 205.162263 
L 140.767815 205.022034 
L 140.767815 205.268868 
L 141.737889 205.148672 
L 141.737889 205.048509 
L 141.737889 205.155829 
L 142.707963 205.035633 
L 142.707963 204.93547 
L 142.707963 205.016436 
L 144.64811 204.876717 
L 144.64811 204.816619 
L 144.64811 204.866301 
L 148.528405 204.688311 
L 148.528405 204.668278 
L 148.528405 204.673751 
L 158.229143 204.433865 
L 158.229143 203.892983 
L 158.229143 204.414465 
L 162.109438 204.357208 
L 162.109438 204.337176 
L 162.109438 204.056718 
L 162.109438 204.195861 
L 162.775128 204.311958 
L 162.808834 204.879706 
L 162.80898 205.590107 
L 162.809272 204.7888 
L 163.076929 204.78342 
L 163.079512 204.523264 
L 163.079512 204.554236 
L 164.049585 204.43404 
L 164.049585 203.83306 
L 164.049585 204.262438 
L 165.019659 204.222373 
L 165.019659 204.022046 
L 165.019659 204.041081 
L 167.92988 204.004458 
L 167.92988 203.94436 
L 167.92988 203.884262 
L 167.92988 203.91795 
L 169.870028 203.778635 
L 169.870028 203.758603 
L 169.870028 203.784424 
L 173.750323 203.654497 
L 173.750323 203.658269 
L 174.720396 203.457943 
L 174.720396 203.277649 
L 174.720396 203.436563 
L 177.630618 203.284576 
L 177.630618 203.064217 
L 177.630618 203.144808 
L 184.421134 202.903826 
L 184.421134 202.863761 
L 184.421134 202.909064 
L 191.21165 202.675421 
L 191.21165 202.655388 
L 191.21165 202.714897 
L 192.181724 202.594701 
L 192.181724 202.574668 
L 192.181724 202.603253 
L 195.091945 202.446058 
L 195.091945 202.405993 
L 195.091945 202.443688 
L 197.032092 202.295889 
L 197.032092 202.275856 
L 197.032092 202.304687 
L 201.882461 202.101689 
L 201.882461 201.921395 
L 201.882461 202.02805 
L 202.852535 201.907854 
L 202.852535 201.887821 
L 202.852535 201.931427 
L 204.792682 201.814659 
L 204.792682 201.734528 
L 204.792682 201.794383 
L 208.672977 201.619799 
L 208.672977 201.559701 
L 208.672977 201.618584 
L 211.583199 201.484142 
L 211.583199 201.424044 
L 211.583199 201.473778 
L 215.463494 201.378309 
L 215.463494 200.55697 
L 215.463494 200.692679 
L 217.403641 200.643639 
L 217.403641 200.64402 
L 217.403641 201.84598 
L 218.373715 201.825948 
L 218.373715 200.623988 
L 218.373715 200.643347 
L 222.25401 200.463835 
L 222.25401 200.443803 
L 222.25401 200.50215 
L 225.164231 200.337694 
L 225.164231 200.217498 
L 225.164231 200.246562 
L 229.044526 200.08627 
L 229.044526 200.046204 
L 229.044526 200.111283 
L 230.984673 199.972086 
L 230.984673 199.932021 
L 230.984673 200.16235 
L 231.954747 199.921958 
L 231.954747 199.641501 
L 231.954747 199.863306 
L 232.924821 199.830689 
L 232.924821 199.790624 
L 232.924821 199.670428 
L 232.924821 199.81409 
L 233.894895 199.673978 
L 233.894895 199.653946 
L 233.894895 199.657471 
L 236.805116 199.497643 
L 236.805116 199.417512 
L 236.805116 199.464477 
L 238.745263 199.332047 
L 238.745263 199.271949 
L 238.745263 199.284962 
L 245.53578 199.095809 
L 245.53578 198.795319 
L 245.626466 198.940893 
L 246.23485 198.978597 
L 246.23485 198.932921 
L 246.237826 199.474641 
L 246.240879 198.995445 
L 246.505853 199.286435 
L 246.505853 199.286435 
L 247.145945 199.330181 
L 247.350469 199.521664 
L 247.351951 200.474923 
L 247.355914 199.388372 
L 248.127033 199.326678 
L 248.127269 202.872376 
L 248.230519 199.764388 
L 248.245047 199.896513 
L 248.249359 201.578194 
L 248.246002 199.794737 
L 248.34503 200.419601 
L 248.396801 199.878719 
L 248.398844 200.940648 
L 248.398901 202.088588 
L 248.45779 199.963087 
L 248.501555 199.973436 
L 249.416075 199.532718 
L 249.416075 197.990202 
L 249.416075 198.018013 
L 249.727632 197.900115 
L 249.809291 197.820624 
L 249.860557 197.760878 
L 249.973047 179.172102 
L 249.983242 178.932456 
L 250.085347 167.778158 
L 250.095508 167.51853 
L 250.207538 151.725272 
L 250.386148 151.746044 
L 250.995161 151.632314 
L 251.087307 150.465996 
L 251.158951 150.443514 
L 251.356222 149.241554 
L 251.435366 149.309585 
L 251.670721 149.189624 
L 251.783313 141.675905 
L 251.793507 141.41548 
L 251.90611 132.324892 
L 251.916294 131.887333 
L 252.028975 115.819037 
L 252.039181 114.637338 
L 252.151694 103.787058 
L 252.161888 103.308486 
L 252.274401 90.54541 
L 252.325543 86.687397 
L 252.38688 82.144587 
L 252.632273 82.106294 
L 252.70385 81.691897 
L 252.908677 81.534193 
L 253.017294 77.830095 
L 253.296369 77.790087 
L 253.296369 77.887613 
L 253.296369 78.01312 
L 253.856688 77.834394 
L 253.877179 77.734288 
L 253.999909 77.626734 
L 254.0408 77.586669 
L 255.236517 77.517858 
L 256.527995 77.357075 
L 256.62013 77.177868 
L 256.804455 76.857184 
L 258.524146 76.481359 
L 258.606019 76.34142 
L 260.086886 76.240285 
L 260.086886 76.379074 
L 260.086886 76.407355 
L 260.611736 76.304554 
L 260.795859 76.023905 
L 262.997107 75.979442 
L 262.997107 76.115481 
L 262.997107 76.637343 
L 263.620346 76.403287 
L 263.763611 75.734603 
L 265.907328 75.10799 
L 265.907328 75.146067 
L 265.907328 75.303758 
L 265.973224 75.29878 
L 266.218796 75.099026 
L 266.310886 74.816445 
L 266.40293 74.619857 
L 266.877402 74.583952 
L 266.877402 74.623997 
L 266.877402 76.175639 
L 267.18073 75.976485 
L 267.262568 75.717526 
L 267.303538 75.677821 
L 267.375182 75.280142 
L 267.385523 74.446146 
L 268.234809 74.328756 
L 270.291253 74.141722 
L 270.43444 74.062152 
L 271.19149 73.893237 
L 271.727771 73.755369 
L 271.727771 74.10649 
L 271.744309 74.092892 
L 272.460457 73.984372 
L 272.470742 73.688152 
L 273.975063 73.605615 
L 274.056936 73.565664 
L 277.548213 73.451497 
L 277.548213 73.617402 
L 277.548213 73.735242 
L 277.548213 73.735242 
L 277.874052 73.616591 
L 278.058187 73.571268 
L 278.365231 73.452488 
L 278.518287 73.402356 
L 278.518287 73.406494 
L 278.518287 73.749173 
L 278.990434 73.648403 
L 279.062089 73.391652 
L 279.488361 73.288366 
L 279.488361 73.334616 
L 279.967256 73.036972 
L 283.368655 72.840552 
L 283.368655 72.875018 
L 283.368655 73.198583 
L 283.683469 73.158752 
L 283.785922 72.146977 
L 283.867985 72.054335 
L 284.004492 71.814312 
L 284.127435 71.697106 
L 284.147959 71.639145 
L 284.639003 71.600044 
L 284.731149 71.38175 
L 284.997133 71.162675 
L 285.201769 71.064503 
L 285.308803 71.064503 
L 285.308803 71.065121 
L 285.308803 71.571476 
L 285.860847 71.132782 
L 285.96312 70.91556 
L 286.278877 70.858453 
L 286.278877 70.901472 
L 286.278877 71.145274 
L 286.278877 71.145274 
L 286.705586 71.015453 
L 286.756773 70.935748 
L 287.012877 70.786837 
L 287.115509 70.608244 
L 287.24895 70.675745 
L 287.24895 71.17773 
L 288.038281 71.029435 
L 288.140621 70.913657 
L 288.140666 70.477323 
L 288.219024 70.477593 
L 290.709733 70.336788 
L 290.996309 70.17711 
L 291.467244 70.074627 
L 291.692652 69.99745 
L 292.099319 69.94295 
L 292.099319 70.055769 
L 292.099319 70.142153 
L 292.634353 70.053918 
L 292.634364 69.926033 
L 293.402306 69.823099 
L 293.607155 69.764245 
L 294.039467 69.644446 
L 294.039467 69.663484 
L 294.039467 69.842899 
L 294.351586 69.714791 
L 294.433548 69.49088 
L 295.00954 69.278118 
L 295.00954 69.28332 
L 295.00954 69.484631 
L 295.456964 69.479596 
L 295.569578 69.299 
L 296.949688 69.364128 
L 297.381865 68.696566 
L 297.453531 68.597133 
L 299.563284 68.251552 
L 299.604254 68.211847 
L 301.370181 68.113539 
L 302.230179 67.987119 
L 304.196397 67.87703 
L 304.607163 67.796962 
L 304.710278 67.805781 
L 304.710278 67.995934 
L 304.729915 67.992629 
L 305.22152 67.847205 
L 305.262501 67.746112 
L 305.680352 67.711026 
L 305.680352 67.747699 
L 305.680352 67.849512 
L 305.733301 67.849093 
L 306.255435 67.747388 
L 306.296326 67.654158 
L 306.650425 67.612735 
L 306.650425 67.629293 
L 307.620499 67.555522 
L 307.620499 67.435326 
L 307.620499 67.563572 
L 310.53072 67.377955 
L 310.53072 67.416752 
L 310.53072 67.600928 
L 311.405381 67.208856 
L 311.500794 67.088907 
L 311.500794 67.243838 
L 311.825668 67.043511 
L 311.897278 66.883913 
L 312.470868 66.718785 
L 312.470868 66.518458 
L 312.470868 66.968192 
L 312.778788 66.848177 
L 312.778821 66.487588 
L 313.065947 66.383574 
L 313.741923 66.052303 
L 313.834113 65.958201 
L 314.038671 65.844579 
L 314.411015 65.383828 
L 314.411015 65.123403 
L 314.411015 65.411222 
L 315.381089 65.39119 
L 315.381089 65.250961 
L 315.381089 65.253058 
L 317.321236 65.075275 
L 317.321236 64.794818 
L 317.321236 65.042933 
L 318.29131 64.962803 
L 318.29131 64.64228 
L 318.29131 64.687842 
L 319.261384 64.587679 
L 319.261384 64.44745 
L 319.261384 64.622536 
L 320.231458 64.542405 
L 320.231458 64.402176 
L 320.231458 64.414574 
L 321.201531 64.334443 
L 321.201531 64.154149 
L 321.201531 64.229493 
L 323.141679 64.087762 
L 323.141679 64.067729 
L 323.141679 64.068455 
L 324.111753 63.747932 
L 324.111753 63.7279 
L 324.111753 63.99308 
L 325.081826 63.632492 
L 325.081826 63.658792 
L 326.0519 63.458465 
L 326.0519 63.037779 
L 326.0519 63.130525 
L 327.021974 62.910165 
L 327.021974 62.469447 
L 327.021974 62.637621 
L 328.962121 62.400619 
L 328.962121 62.400883 
L 330.902269 62.281438 
L 330.902269 62.181274 
L 330.902269 62.264516 
L 333.81249 61.804418 
L 333.81249 61.724287 
L 333.81249 61.994129 
L 334.726818 61.889214 
L 334.782564 61.709248 
L 334.782564 61.869126 
L 335.085083 61.829279 
L 335.341176 61.653506 
L 337.692785 61.58941 
L 337.692785 61.648077 
L 337.692785 61.691433 
L 337.790073 61.68797 
L 338.608921 61.572083 
L 338.662859 61.55205 
L 338.662859 60.129731 
L 338.662859 62.014961 
L 338.987665 61.895539 
L 339.090028 61.855834 
L 339.151612 61.737636 
L 339.182421 61.552678 
L 339.632933 61.451293 
L 339.632933 61.55775 
L 340.062909 61.492175 
L 340.227462 61.215607 
L 340.903067 61.111322 
L 340.995111 60.991712 
L 341.896326 60.735004 
L 341.968037 60.655471 
L 342.285354 60.454652 
L 342.543154 60.35728 
L 342.543154 60.358379 
L 344.483301 60.300729 
L 344.483301 60.33198 
L 344.483301 60.519709 
L 344.803908 60.418667 
L 344.906316 60.028524 
L 345.15199 59.750443 
L 345.453375 59.690345 
L 345.453375 59.490018 
L 345.453375 59.737742 
L 346.371195 59.55939 
L 346.423449 59.479259 
L 346.423449 59.596697 
L 346.423449 60.598306 
L 346.884413 60.535292 
L 347.048203 59.594018 
L 347.393522 59.50067 
L 347.393522 59.480638 
L 347.393522 59.538854 
L 348.743598 59.400745 
L 351.273817 59.222625 
L 351.273817 58.9622 
L 351.273817 59.250664 
L 351.747963 59.137423 
L 352.086333 59.003868 
L 352.243891 58.904193 
L 352.243891 58.969964 
L 352.56817 58.917665 
L 352.844383 58.739146 
L 353.213965 58.663486 
L 353.213965 58.805346 
L 353.213965 58.820765 
L 353.520178 58.702064 
L 353.612257 58.354135 
L 355.468657 57.814969 
L 355.468657 57.619294 
L 356.052362 57.574173 
L 356.124186 57.574173 
L 356.124186 57.673321 
L 356.124186 57.690034 
L 357.057702 57.586053 
L 357.09426 57.56602 
L 357.09426 57.572971 
L 358.064334 57.471725 
L 358.064334 57.634802 
L 358.064334 57.854588 
L 358.821204 57.683625 
L 358.831388 57.393574 
L 359.128192 57.248009 
L 360.004481 57.046918 
L 360.004481 57.051645 
L 360.004481 57.374881 
L 360.101017 57.37199 
L 360.316802 57.344814 
L 360.511704 57.021228 
L 360.758624 56.930901 
L 361.562887 56.82233 
L 361.944629 56.802544 
L 361.944629 56.835678 
L 361.944629 57.440836 
L 362.341124 57.281933 
L 362.402551 56.804487 
L 363.688987 56.697326 
L 364.85485 56.677385 
L 364.85485 56.557189 
L 364.85485 56.752161 
L 365.442474 56.644837 
L 365.824924 56.620352 
L 365.824924 56.64759 
L 365.824924 59.565504 
L 366.611233 59.497322 
L 366.621484 56.727476 
L 368.156693 56.648508 
L 368.735145 56.559178 
L 368.735145 56.438982 
L 368.735145 56.755842 
L 369.376943 56.751955 
L 369.705218 56.453962 
L 369.705218 56.454158 
L 371.645366 56.414099 
L 371.645366 55.3724 
L 371.645366 56.196692 
L 372.61544 56.016398 
L 372.61544 55.495549 
L 372.61544 55.611857 
L 373.585513 55.331399 
L 373.585513 55.231236 
L 373.585513 55.296345 
L 374.555587 55.176149 
L 374.555587 54.795528 
L 374.555587 55.095162 
L 375.525661 54.994998 
L 375.525661 54.834737 
L 375.525661 55.031411 
L 378.435882 54.637112 
L 378.435882 54.016099 
L 378.435882 54.644058 
L 379.405956 54.50383 
L 379.405956 54.518893 
L 380.37603 54.298534 
L 380.37603 54.19837 
L 380.37603 54.275291 
L 382.316177 54.147031 
L 382.316177 53.886607 
L 382.316177 54.06381 
L 385.226398 53.989351 
L 385.226398 53.168011 
L 385.226398 53.401372 
L 386.196472 53.38134 
L 386.196472 53.020752 
L 386.196472 53.079613 
L 387.166546 52.999482 
L 387.166546 52.719025 
L 387.166546 52.973009 
L 388.13662 52.852813 
L 388.13662 52.712584 
L 388.13662 52.800248 
L 389.106693 52.680052 
L 389.106693 52.579889 
L 389.106693 52.682974 
L 391.046841 52.643142 
L 391.046841 52.442815 
L 391.046841 52.657498 
L 392.016915 52.5974 
L 392.016915 52.336975 
L 392.016915 52.572183 
L 392.986988 52.492052 
L 392.986988 52.331791 
L 392.986988 52.45734 
L 394.927136 52.297453 
L 394.927136 52.438619 
L 394.927136 52.474705 
L 395.89721 52.434639 
L 395.89721 52.154182 
L 395.89721 52.224892 
L 397.837357 52.20686 
L 397.837357 52.207092 
" style="fill:none;stroke:#008000;stroke-linecap:square;stroke-width:1.5;"/>
   </g>
   <g id="line2d_28">
    <defs>
     <path d="M 0 3 
C 0.795609 3 1.55874 2.683901 2.12132 2.12132 
C 2.683901 1.55874 3 0.795609 3 0 
C 3 -0.795609 2.683901 -1.55874 2.12132 -2.12132 
C 1.55874 -2.683901 0.795609 -3 0 -3 
C -0.795609 -3 -1.55874 -2.683901 -2.12132 -2.12132 
C -2.683901 -1.55874 -3 -0.795609 -3 0 
C -3 0.795609 -2.683901 1.55874 -2.12132 2.12132 
C -1.55874 2.683901 -0.795609 3 0 3 
z
" id="m2cf1ae9ee1" style="stroke:#bfbf00;"/>
    </defs>
    <g clip-path="url(#pae171c7ac6)">
     <use style="fill:#bfbf00;stroke:#bfbf00;" x="76.776946" xlink:href="#m2cf1ae9ee1" y="255.781483"/>
     <use style="fill:#bfbf00;stroke:#bfbf00;" x="80.076174" xlink:href="#m2cf1ae9ee1" y="225.732479"/>
     <use style="fill:#bfbf00;stroke:#bfbf00;" x="249.859603" xlink:href="#m2cf1ae9ee1" y="215.716144"/>
     <use style="fill:#bfbf00;stroke:#bfbf00;" x="251.702743" xlink:href="#m2cf1ae9ee1" y="215.716144"/>
     <use style="fill:#bfbf00;stroke:#bfbf00;" x="252.068294" xlink:href="#m2cf1ae9ee1" y="255.781483"/>
     <use style="fill:#bfbf00;stroke:#bfbf00;" x="252.136379" xlink:href="#m2cf1ae9ee1" y="255.781483"/>
     <use style="fill:#bfbf00;stroke:#bfbf00;" x="252.909597" xlink:href="#m2cf1ae9ee1" y="261.791284"/>
    </g>
   </g>
   <g id="line2d_29">
    <defs>
     <path d="M 0 3 
C 0.795609 3 1.55874 2.683901 2.12132 2.12132 
C 2.683901 1.55874 3 0.795609 3 0 
C 3 -0.795609 2.683901 -1.55874 2.12132 -2.12132 
C 1.55874 -2.683901 0.795609 -3 0 -3 
C -0.795609 -3 -1.55874 -2.683901 -2.12132 -2.12132 
C -2.683901 -1.55874 -3 -0.795609 -3 0 
C -3 0.795609 -2.683901 1.55874 -2.12132 2.12132 
C -1.55874 2.683901 -0.795609 3 0 3 
z
" id="m357ad945f4" style="stroke:#008000;"/>
    </defs>
    <g clip-path="url(#pae171c7ac6)">
     <use style="fill:#008000;stroke:#008000;" x="122.902336" xlink:href="#m357ad945f4" y="257.265504"/>
     <use style="fill:#008000;stroke:#008000;" x="216.029639" xlink:href="#m357ad945f4" y="263.79996"/>
    </g>
   </g>
   <g id="patch_3">
    <path d="M 57.6 276.48 
L 57.6 41.472 
" style="fill:none;stroke:#000000;stroke-linecap:square;stroke-linejoin:miter;stroke-width:0.8;"/>
   </g>
   <g id="patch_4">
    <path d="M 414.72 276.48 
L 414.72 41.472 
" style="fill:none;stroke:#000000;stroke-linecap:square;stroke-linejoin:miter;stroke-width:0.8;"/>
   </g>
   <g id="patch_5">
    <path d="M 57.6 276.48 
L 414.72 276.48 
" style="fill:none;stroke:#000000;stroke-linecap:square;stroke-linejoin:miter;stroke-width:0.8;"/>
   </g>
   <g id="patch_6">
    <path d="M 57.6 41.472 
L 414.72 41.472 
" style="fill:none;stroke:#000000;stroke-linecap:square;stroke-linejoin:miter;stroke-width:0.8;"/>
   </g>
   <g id="text_15">
    <!-- My Bondora earnings -->
    <defs>
     <path d="M 9.8125 72.90625 
L 24.515625 72.90625 
L 43.109375 23.296875 
L 61.8125 72.90625 
L 76.515625 72.90625 
L 76.515625 0 
L 66.890625 0 
L 66.890625 64.015625 
L 48.09375 14.015625 
L 38.1875 14.015625 
L 19.390625 64.015625 
L 19.390625 0 
L 9.8125 0 
z
" id="DejaVuSans-4d"/>
     <path d="M 32.171875 -5.078125 
Q 28.375 -14.84375 24.75 -17.8125 
Q 21.140625 -20.796875 15.09375 -20.796875 
L 7.90625 -20.796875 
L 7.90625 -13.28125 
L 13.1875 -13.28125 
Q 16.890625 -13.28125 18.9375 -11.515625 
Q 21 -9.765625 23.484375 -3.21875 
L 25.09375 0.875 
L 2.984375 54.6875 
L 12.5 54.6875 
L 29.59375 11.921875 
L 46.6875 54.6875 
L 56.203125 54.6875 
z
" id="DejaVuSans-79"/>
     <path id="DejaVuSans-20"/>
     <path d="M 19.671875 34.8125 
L 19.671875 8.109375 
L 35.5 8.109375 
Q 43.453125 8.109375 47.28125 11.40625 
Q 51.125 14.703125 51.125 21.484375 
Q 51.125 28.328125 47.28125 31.5625 
Q 43.453125 34.8125 35.5 34.8125 
z
M 19.671875 64.796875 
L 19.671875 42.828125 
L 34.28125 42.828125 
Q 41.5 42.828125 45.03125 45.53125 
Q 48.578125 48.25 48.578125 53.8125 
Q 48.578125 59.328125 45.03125 62.0625 
Q 41.5 64.796875 34.28125 64.796875 
z
M 9.8125 72.90625 
L 35.015625 72.90625 
Q 46.296875 72.90625 52.390625 68.21875 
Q 58.5 63.53125 58.5 54.890625 
Q 58.5 48.1875 55.375 44.234375 
Q 52.25 40.28125 46.1875 39.3125 
Q 53.46875 37.75 57.5 32.78125 
Q 61.53125 27.828125 61.53125 20.40625 
Q 61.53125 10.640625 54.890625 5.3125 
Q 48.25 0 35.984375 0 
L 9.8125 0 
z
" id="DejaVuSans-42"/>
     <path d="M 30.609375 48.390625 
Q 23.390625 48.390625 19.1875 42.75 
Q 14.984375 37.109375 14.984375 27.296875 
Q 14.984375 17.484375 19.15625 11.84375 
Q 23.34375 6.203125 30.609375 6.203125 
Q 37.796875 6.203125 41.984375 11.859375 
Q 46.1875 17.53125 46.1875 27.296875 
Q 46.1875 37.015625 41.984375 42.703125 
Q 37.796875 48.390625 30.609375 48.390625 
z
M 30.609375 56 
Q 42.328125 56 49.015625 48.375 
Q 55.71875 40.765625 55.71875 27.296875 
Q 55.71875 13.875 49.015625 6.21875 
Q 42.328125 -1.421875 30.609375 -1.421875 
Q 18.84375 -1.421875 12.171875 6.21875 
Q 5.515625 13.875 5.515625 27.296875 
Q 5.515625 40.765625 12.171875 48.375 
Q 18.84375 56 30.609375 56 
z
" id="DejaVuSans-6f"/>
     <path d="M 54.890625 33.015625 
L 54.890625 0 
L 45.90625 0 
L 45.90625 32.71875 
Q 45.90625 40.484375 42.875 44.328125 
Q 39.84375 48.1875 33.796875 48.1875 
Q 26.515625 48.1875 22.3125 43.546875 
Q 18.109375 38.921875 18.109375 30.90625 
L 18.109375 0 
L 9.078125 0 
L 9.078125 54.6875 
L 18.109375 54.6875 
L 18.109375 46.1875 
Q 21.34375 51.125 25.703125 53.5625 
Q 30.078125 56 35.796875 56 
Q 45.21875 56 50.046875 50.171875 
Q 54.890625 44.34375 54.890625 33.015625 
z
" id="DejaVuSans-6e"/>
     <path d="M 41.109375 46.296875 
Q 39.59375 47.171875 37.8125 47.578125 
Q 36.03125 48 33.890625 48 
Q 26.265625 48 22.1875 43.046875 
Q 18.109375 38.09375 18.109375 28.8125 
L 18.109375 0 
L 9.078125 0 
L 9.078125 54.6875 
L 18.109375 54.6875 
L 18.109375 46.1875 
Q 20.953125 51.171875 25.484375 53.578125 
Q 30.03125 56 36.53125 56 
Q 37.453125 56 38.578125 55.875 
Q 39.703125 55.765625 41.0625 55.515625 
z
" id="DejaVuSans-72"/>
     <path d="M 9.421875 54.6875 
L 18.40625 54.6875 
L 18.40625 0 
L 9.421875 0 
z
M 9.421875 75.984375 
L 18.40625 75.984375 
L 18.40625 64.59375 
L 9.421875 64.59375 
z
" id="DejaVuSans-69"/>
     <path d="M 45.40625 27.984375 
Q 45.40625 37.75 41.375 43.109375 
Q 37.359375 48.484375 30.078125 48.484375 
Q 22.859375 48.484375 18.828125 43.109375 
Q 14.796875 37.75 14.796875 27.984375 
Q 14.796875 18.265625 18.828125 12.890625 
Q 22.859375 7.515625 30.078125 7.515625 
Q 37.359375 7.515625 41.375 12.890625 
Q 45.40625 18.265625 45.40625 27.984375 
z
M 54.390625 6.78125 
Q 54.390625 -7.171875 48.1875 -13.984375 
Q 42 -20.796875 29.203125 -20.796875 
Q 24.46875 -20.796875 20.265625 -20.09375 
Q 16.0625 -19.390625 12.109375 -17.921875 
L 12.109375 -9.1875 
Q 16.0625 -11.328125 19.921875 -12.34375 
Q 23.78125 -13.375 27.78125 -13.375 
Q 36.625 -13.375 41.015625 -8.765625 
Q 45.40625 -4.15625 45.40625 5.171875 
L 45.40625 9.625 
Q 42.625 4.78125 38.28125 2.390625 
Q 33.9375 0 27.875 0 
Q 17.828125 0 11.671875 7.65625 
Q 5.515625 15.328125 5.515625 27.984375 
Q 5.515625 40.671875 11.671875 48.328125 
Q 17.828125 56 27.875 56 
Q 33.9375 56 38.28125 53.609375 
Q 42.625 51.21875 45.40625 46.390625 
L 45.40625 54.6875 
L 54.390625 54.6875 
z
" id="DejaVuSans-67"/>
     <path d="M 44.28125 53.078125 
L 44.28125 44.578125 
Q 40.484375 46.53125 36.375 47.5 
Q 32.28125 48.484375 27.875 48.484375 
Q 21.1875 48.484375 17.84375 46.4375 
Q 14.5 44.390625 14.5 40.28125 
Q 14.5 37.15625 16.890625 35.375 
Q 19.28125 33.59375 26.515625 31.984375 
L 29.59375 31.296875 
Q 39.15625 29.25 43.1875 25.515625 
Q 47.21875 21.78125 47.21875 15.09375 
Q 47.21875 7.46875 41.1875 3.015625 
Q 35.15625 -1.421875 24.609375 -1.421875 
Q 20.21875 -1.421875 15.453125 -0.5625 
Q 10.6875 0.296875 5.421875 2 
L 5.421875 11.28125 
Q 10.40625 8.6875 15.234375 7.390625 
Q 20.0625 6.109375 24.8125 6.109375 
Q 31.15625 6.109375 34.5625 8.28125 
Q 37.984375 10.453125 37.984375 14.40625 
Q 37.984375 18.0625 35.515625 20.015625 
Q 33.0625 21.96875 24.703125 23.78125 
L 21.578125 24.515625 
Q 13.234375 26.265625 9.515625 29.90625 
Q 5.8125 33.546875 5.8125 39.890625 
Q 5.8125 47.609375 11.28125 51.796875 
Q 16.75 56 26.8125 56 
Q 31.78125 56 36.171875 55.265625 
Q 40.578125 54.546875 44.28125 53.078125 
z
" id="DejaVuSans-73"/>
    </defs>
    <g transform="translate(172.363125 35.472)scale(0.12 -0.12)">
     <use xlink:href="#DejaVuSans-4d"/>
     <use x="86.279297" xlink:href="#DejaVuSans-79"/>
     <use x="145.458984" xlink:href="#DejaVuSans-20"/>
     <use x="177.246094" xlink:href="#DejaVuSans-42"/>
     <use x="245.849609" xlink:href="#DejaVuSans-6f"/>
     <use x="307.03125" xlink:href="#DejaVuSans-6e"/>
     <use x="370.410156" xlink:href="#DejaVuSans-64"/>
     <use x="433.886719" xlink:href="#DejaVuSans-6f"/>
     <use x="495.068359" xlink:href="#DejaVuSans-72"/>
     <use x="536.181641" xlink:href="#DejaVuSans-61"/>
     <use x="597.460938" xlink:href="#DejaVuSans-20"/>
     <use x="629.248047" xlink:href="#DejaVuSans-65"/>
     <use x="690.771484" xlink:href="#DejaVuSans-61"/>
     <use x="752.050781" xlink:href="#DejaVuSans-72"/>
     <use x="793.148438" xlink:href="#DejaVuSans-6e"/>
     <use x="856.527344" xlink:href="#DejaVuSans-69"/>
     <use x="884.310547" xlink:href="#DejaVuSans-6e"/>
     <use x="947.689453" xlink:href="#DejaVuSans-67"/>
     <use x="1011.166016" xlink:href="#DejaVuSans-73"/>
    </g>
   </g>
   <g id="legend_1">
    <g id="patch_7">
     <path d="M 64.6 122.862625 
L 158.45 122.862625 
Q 160.45 122.862625 160.45 120.862625 
L 160.45 48.472 
Q 160.45 46.472 158.45 46.472 
L 64.6 46.472 
Q 62.6 46.472 62.6 48.472 
L 62.6 120.862625 
Q 62.6 122.862625 64.6 122.862625 
z
" style="fill:#ffffff;opacity:0.8;stroke:#cccccc;stroke-linejoin:miter;"/>
    </g>
    <g id="line2d_30">
     <path d="M 66.6 54.570437 
L 86.6 54.570437 
" style="fill:none;stroke:#0000ff;stroke-linecap:square;stroke-width:1.5;"/>
    </g>
    <g id="line2d_31"/>
    <g id="text_16">
     <!-- Interest -->
     <defs>
      <path d="M 9.8125 72.90625 
L 19.671875 72.90625 
L 19.671875 0 
L 9.8125 0 
z
" id="DejaVuSans-49"/>
     </defs>
     <g transform="translate(94.6 58.070437)scale(0.1 -0.1)">
      <use xlink:href="#DejaVuSans-49"/>
      <use x="29.492188" xlink:href="#DejaVuSans-6e"/>
      <use x="92.871094" xlink:href="#DejaVuSans-74"/>
      <use x="132.080078" xlink:href="#DejaVuSans-65"/>
      <use x="193.603516" xlink:href="#DejaVuSans-72"/>
      <use x="234.685547" xlink:href="#DejaVuSans-65"/>
      <use x="296.208984" xlink:href="#DejaVuSans-73"/>
      <use x="348.308594" xlink:href="#DejaVuSans-74"/>
     </g>
    </g>
    <g id="line2d_32">
     <path d="M 66.6 69.248562 
L 86.6 69.248562 
" style="fill:none;stroke:#ff0000;stroke-linecap:square;stroke-width:1.5;"/>
    </g>
    <g id="line2d_33"/>
    <g id="text_17">
     <!-- Balance -->
     <defs>
      <path d="M 9.421875 75.984375 
L 18.40625 75.984375 
L 18.40625 0 
L 9.421875 0 
z
" id="DejaVuSans-6c"/>
      <path d="M 48.78125 52.59375 
L 48.78125 44.1875 
Q 44.96875 46.296875 41.140625 47.34375 
Q 37.3125 48.390625 33.40625 48.390625 
Q 24.65625 48.390625 19.8125 42.84375 
Q 14.984375 37.3125 14.984375 27.296875 
Q 14.984375 17.28125 19.8125 11.734375 
Q 24.65625 6.203125 33.40625 6.203125 
Q 37.3125 6.203125 41.140625 7.25 
Q 44.96875 8.296875 48.78125 10.40625 
L 48.78125 2.09375 
Q 45.015625 0.34375 40.984375 -0.53125 
Q 36.96875 -1.421875 32.421875 -1.421875 
Q 20.0625 -1.421875 12.78125 6.34375 
Q 5.515625 14.109375 5.515625 27.296875 
Q 5.515625 40.671875 12.859375 48.328125 
Q 20.21875 56 33.015625 56 
Q 37.15625 56 41.109375 55.140625 
Q 45.0625 54.296875 48.78125 52.59375 
z
" id="DejaVuSans-63"/>
     </defs>
     <g transform="translate(94.6 72.748562)scale(0.1 -0.1)">
      <use xlink:href="#DejaVuSans-42"/>
      <use x="68.603516" xlink:href="#DejaVuSans-61"/>
      <use x="129.882812" xlink:href="#DejaVuSans-6c"/>
      <use x="157.666016" xlink:href="#DejaVuSans-61"/>
      <use x="218.945312" xlink:href="#DejaVuSans-6e"/>
      <use x="282.324219" xlink:href="#DejaVuSans-63"/>
      <use x="337.304688" xlink:href="#DejaVuSans-65"/>
     </g>
    </g>
    <g id="line2d_34">
     <path d="M 66.6 83.926687 
L 86.6 83.926687 
" style="fill:none;stroke:#008000;stroke-linecap:square;stroke-width:1.5;"/>
    </g>
    <g id="line2d_35"/>
    <g id="text_18">
     <!-- Investments -->
     <defs>
      <path d="M 2.984375 54.6875 
L 12.5 54.6875 
L 29.59375 8.796875 
L 46.6875 54.6875 
L 56.203125 54.6875 
L 35.6875 0 
L 23.484375 0 
z
" id="DejaVuSans-76"/>
      <path d="M 52 44.1875 
Q 55.375 50.25 60.0625 53.125 
Q 64.75 56 71.09375 56 
Q 79.640625 56 84.28125 50.015625 
Q 88.921875 44.046875 88.921875 33.015625 
L 88.921875 0 
L 79.890625 0 
L 79.890625 32.71875 
Q 79.890625 40.578125 77.09375 44.375 
Q 74.3125 48.1875 68.609375 48.1875 
Q 61.625 48.1875 57.5625 43.546875 
Q 53.515625 38.921875 53.515625 30.90625 
L 53.515625 0 
L 44.484375 0 
L 44.484375 32.71875 
Q 44.484375 40.625 41.703125 44.40625 
Q 38.921875 48.1875 33.109375 48.1875 
Q 26.21875 48.1875 22.15625 43.53125 
Q 18.109375 38.875 18.109375 30.90625 
L 18.109375 0 
L 9.078125 0 
L 9.078125 54.6875 
L 18.109375 54.6875 
L 18.109375 46.1875 
Q 21.1875 51.21875 25.484375 53.609375 
Q 29.78125 56 35.6875 56 
Q 41.65625 56 45.828125 52.96875 
Q 50 49.953125 52 44.1875 
z
" id="DejaVuSans-6d"/>
     </defs>
     <g transform="translate(94.6 87.426687)scale(0.1 -0.1)">
      <use xlink:href="#DejaVuSans-49"/>
      <use x="29.492188" xlink:href="#DejaVuSans-6e"/>
      <use x="92.871094" xlink:href="#DejaVuSans-76"/>
      <use x="152.050781" xlink:href="#DejaVuSans-65"/>
      <use x="213.574219" xlink:href="#DejaVuSans-73"/>
      <use x="265.673828" xlink:href="#DejaVuSans-74"/>
      <use x="304.882812" xlink:href="#DejaVuSans-6d"/>
      <use x="402.294922" xlink:href="#DejaVuSans-65"/>
      <use x="463.818359" xlink:href="#DejaVuSans-6e"/>
      <use x="527.197266" xlink:href="#DejaVuSans-74"/>
      <use x="566.40625" xlink:href="#DejaVuSans-73"/>
     </g>
    </g>
    <g id="line2d_36"/>
    <g id="line2d_37">
     <g>
      <use style="fill:#bfbf00;stroke:#bfbf00;" x="76.6" xlink:href="#m2cf1ae9ee1" y="98.604812"/>
     </g>
    </g>
    <g id="text_19">
     <!-- Deposits -->
     <defs>
      <path d="M 19.671875 64.796875 
L 19.671875 8.109375 
L 31.59375 8.109375 
Q 46.6875 8.109375 53.6875 14.9375 
Q 60.6875 21.78125 60.6875 36.53125 
Q 60.6875 51.171875 53.6875 57.984375 
Q 46.6875 64.796875 31.59375 64.796875 
z
M 9.8125 72.90625 
L 30.078125 72.90625 
Q 51.265625 72.90625 61.171875 64.09375 
Q 71.09375 55.28125 71.09375 36.53125 
Q 71.09375 17.671875 61.125 8.828125 
Q 51.171875 0 30.078125 0 
L 9.8125 0 
z
" id="DejaVuSans-44"/>
      <path d="M 18.109375 8.203125 
L 18.109375 -20.796875 
L 9.078125 -20.796875 
L 9.078125 54.6875 
L 18.109375 54.6875 
L 18.109375 46.390625 
Q 20.953125 51.265625 25.265625 53.625 
Q 29.59375 56 35.59375 56 
Q 45.5625 56 51.78125 48.09375 
Q 58.015625 40.1875 58.015625 27.296875 
Q 58.015625 14.40625 51.78125 6.484375 
Q 45.5625 -1.421875 35.59375 -1.421875 
Q 29.59375 -1.421875 25.265625 0.953125 
Q 20.953125 3.328125 18.109375 8.203125 
z
M 48.6875 27.296875 
Q 48.6875 37.203125 44.609375 42.84375 
Q 40.53125 48.484375 33.40625 48.484375 
Q 26.265625 48.484375 22.1875 42.84375 
Q 18.109375 37.203125 18.109375 27.296875 
Q 18.109375 17.390625 22.1875 11.75 
Q 26.265625 6.109375 33.40625 6.109375 
Q 40.53125 6.109375 44.609375 11.75 
Q 48.6875 17.390625 48.6875 27.296875 
z
" id="DejaVuSans-70"/>
     </defs>
     <g transform="translate(94.6 102.104812)scale(0.1 -0.1)">
      <use xlink:href="#DejaVuSans-44"/>
      <use x="77.001953" xlink:href="#DejaVuSans-65"/>
      <use x="138.525391" xlink:href="#DejaVuSans-70"/>
      <use x="202.001953" xlink:href="#DejaVuSans-6f"/>
      <use x="263.183594" xlink:href="#DejaVuSans-73"/>
      <use x="315.283203" xlink:href="#DejaVuSans-69"/>
      <use x="343.066406" xlink:href="#DejaVuSans-74"/>
      <use x="382.275391" xlink:href="#DejaVuSans-73"/>
     </g>
    </g>
    <g id="line2d_38"/>
    <g id="line2d_39">
     <g>
      <use style="fill:#008000;stroke:#008000;" x="76.6" xlink:href="#m357ad945f4" y="113.282937"/>
     </g>
    </g>
    <g id="text_20">
     <!-- Commission -->
     <defs>
      <path d="M 64.40625 67.28125 
L 64.40625 56.890625 
Q 59.421875 61.53125 53.78125 63.8125 
Q 48.140625 66.109375 41.796875 66.109375 
Q 29.296875 66.109375 22.65625 58.46875 
Q 16.015625 50.828125 16.015625 36.375 
Q 16.015625 21.96875 22.65625 14.328125 
Q 29.296875 6.6875 41.796875 6.6875 
Q 48.140625 6.6875 53.78125 8.984375 
Q 59.421875 11.28125 64.40625 15.921875 
L 64.40625 5.609375 
Q 59.234375 2.09375 53.4375 0.328125 
Q 47.65625 -1.421875 41.21875 -1.421875 
Q 24.65625 -1.421875 15.125 8.703125 
Q 5.609375 18.84375 5.609375 36.375 
Q 5.609375 53.953125 15.125 64.078125 
Q 24.65625 74.21875 41.21875 74.21875 
Q 47.75 74.21875 53.53125 72.484375 
Q 59.328125 70.75 64.40625 67.28125 
z
" id="DejaVuSans-43"/>
     </defs>
     <g transform="translate(94.6 116.782937)scale(0.1 -0.1)">
      <use xlink:href="#DejaVuSans-43"/>
      <use x="69.824219" xlink:href="#DejaVuSans-6f"/>
      <use x="131.005859" xlink:href="#DejaVuSans-6d"/>
      <use x="228.417969" xlink:href="#DejaVuSans-6d"/>
      <use x="325.830078" xlink:href="#DejaVuSans-69"/>
      <use x="353.613281" xlink:href="#DejaVuSans-73"/>
      <use x="405.712891" xlink:href="#DejaVuSans-73"/>
      <use x="457.8125" xlink:href="#DejaVuSans-69"/>
      <use x="485.595703" xlink:href="#DejaVuSans-6f"/>
      <use x="546.777344" xlink:href="#DejaVuSans-6e"/>
     </g>
    </g>
   </g>
  </g>
 </g>
 <defs>
  <clipPath id="pae171c7ac6">
   <rect height="235.008" width="357.12" x="57.6" y="41.472"/>
  </clipPath>
 </defs>
</svg>
