<?xml version="1.0" encoding="utf-8" standalone="no"?>
<!DOCTYPE svg PUBLIC "-//W3C//DTD SVG 1.1//EN"
  "http://www.w3.org/Graphics/SVG/1.1/DTD/svg11.dtd">
<!-- Created with matplotlib (http://matplotlib.org/) -->
<svg height="345.6pt" version="1.1" viewBox="0 0 460.8 345.6" width="460.8pt" xmlns="http://www.w3.org/2000/svg" xmlns:xlink="http://www.w3.org/1999/xlink">
 <defs>
  <style type="text/css">
*{stroke-linecap:butt;stroke-linejoin:round;}
  </style>
 </defs>
 <g id="figure_1">
  <g id="patch_1">
   <path d="M 0 345.6 
L 460.8 345.6 
L 460.8 0 
L 0 0 
z
" style="fill:#ffffff;"/>
  </g>
  <g id="axes_1">
   <g id="patch_2">
    <path d="M 57.6 276.48 
L 414.72 276.48 
L 414.72 41.472 
L 57.6 41.472 
z
" style="fill:#ffffff;"/>
   </g>
   <g id="matplotlib.axis_1">
    <g id="xtick_1">
     <g id="line2d_1">
      <path clip-path="url(#pbf9ad300c1)" d="M 103.610262 276.48 
L 103.610262 41.472 
" style="fill:none;stroke:#b0b0b0;stroke-linecap:square;stroke-width:0.8;"/>
     </g>
     <g id="line2d_2">
      <defs>
       <path d="M 0 0 
L 0 3.5 
" id="mc1aa22e671" style="stroke:#000000;stroke-width:0.8;"/>
      </defs>
      <g>
       <use style="stroke:#000000;stroke-width:0.8;" x="103.610262" xlink:href="#mc1aa22e671" y="276.48"/>
      </g>
     </g>
     <g id="text_1">
      <!-- 2019-02 -->
      <defs>
       <path d="M 19.1875 8.296875 
L 53.609375 8.296875 
L 53.609375 0 
L 7.328125 0 
L 7.328125 8.296875 
Q 12.9375 14.109375 22.625 23.890625 
Q 32.328125 33.6875 34.8125 36.53125 
Q 39.546875 41.84375 41.421875 45.53125 
Q 43.3125 49.21875 43.3125 52.78125 
Q 43.3125 58.59375 39.234375 62.25 
Q 35.15625 65.921875 28.609375 65.921875 
Q 23.96875 65.921875 18.8125 64.3125 
Q 13.671875 62.703125 7.8125 59.421875 
L 7.8125 69.390625 
Q 13.765625 71.78125 18.9375 73 
Q 24.125 74.21875 28.421875 74.21875 
Q 39.75 74.21875 46.484375 68.546875 
Q 53.21875 62.890625 53.21875 53.421875 
Q 53.21875 48.921875 51.53125 44.890625 
Q 49.859375 40.875 45.40625 35.40625 
Q 44.1875 33.984375 37.640625 27.21875 
Q 31.109375 20.453125 19.1875 8.296875 
z
" id="DejaVuSans-32"/>
       <path d="M 31.78125 66.40625 
Q 24.171875 66.40625 20.328125 58.90625 
Q 16.5 51.421875 16.5 36.375 
Q 16.5 21.390625 20.328125 13.890625 
Q 24.171875 6.390625 31.78125 6.390625 
Q 39.453125 6.390625 43.28125 13.890625 
Q 47.125 21.390625 47.125 36.375 
Q 47.125 51.421875 43.28125 58.90625 
Q 39.453125 66.40625 31.78125 66.40625 
z
M 31.78125 74.21875 
Q 44.046875 74.21875 50.515625 64.515625 
Q 56.984375 54.828125 56.984375 36.375 
Q 56.984375 17.96875 50.515625 8.265625 
Q 44.046875 -1.421875 31.78125 -1.421875 
Q 19.53125 -1.421875 13.0625 8.265625 
Q 6.59375 17.96875 6.59375 36.375 
Q 6.59375 54.828125 13.0625 64.515625 
Q 19.53125 74.21875 31.78125 74.21875 
z
" id="DejaVuSans-30"/>
       <path d="M 12.40625 8.296875 
L 28.515625 8.296875 
L 28.515625 63.921875 
L 10.984375 60.40625 
L 10.984375 69.390625 
L 28.421875 72.90625 
L 38.28125 72.90625 
L 38.28125 8.296875 
L 54.390625 8.296875 
L 54.390625 0 
L 12.40625 0 
z
" id="DejaVuSans-31"/>
       <path d="M 10.984375 1.515625 
L 10.984375 10.5 
Q 14.703125 8.734375 18.5 7.8125 
Q 22.3125 6.890625 25.984375 6.890625 
Q 35.75 6.890625 40.890625 13.453125 
Q 46.046875 20.015625 46.78125 33.40625 
Q 43.953125 29.203125 39.59375 26.953125 
Q 35.25 24.703125 29.984375 24.703125 
Q 19.046875 24.703125 12.671875 31.3125 
Q 6.296875 37.9375 6.296875 49.421875 
Q 6.296875 60.640625 12.9375 67.421875 
Q 19.578125 74.21875 30.609375 74.21875 
Q 43.265625 74.21875 49.921875 64.515625 
Q 56.59375 54.828125 56.59375 36.375 
Q 56.59375 19.140625 48.40625 8.859375 
Q 40.234375 -1.421875 26.421875 -1.421875 
Q 22.703125 -1.421875 18.890625 -0.6875 
Q 15.09375 0.046875 10.984375 1.515625 
z
M 30.609375 32.421875 
Q 37.25 32.421875 41.125 36.953125 
Q 45.015625 41.5 45.015625 49.421875 
Q 45.015625 57.28125 41.125 61.84375 
Q 37.25 66.40625 30.609375 66.40625 
Q 23.96875 66.40625 20.09375 61.84375 
Q 16.21875 57.28125 16.21875 49.421875 
Q 16.21875 41.5 20.09375 36.953125 
Q 23.96875 32.421875 30.609375 32.421875 
z
" id="DejaVuSans-39"/>
       <path d="M 4.890625 31.390625 
L 31.203125 31.390625 
L 31.203125 23.390625 
L 4.890625 23.390625 
z
" id="DejaVuSans-2d"/>
      </defs>
      <g transform="translate(66.385442 310.951846)rotate(-30)scale(0.1 -0.1)">
       <use xlink:href="#DejaVuSans-32"/>
       <use x="63.623047" xlink:href="#DejaVuSans-30"/>
       <use x="127.246094" xlink:href="#DejaVuSans-31"/>
       <use x="190.869141" xlink:href="#DejaVuSans-39"/>
       <use x="254.492188" xlink:href="#DejaVuSans-2d"/>
       <use x="290.576172" xlink:href="#DejaVuSans-30"/>
       <use x="354.199219" xlink:href="#DejaVuSans-32"/>
      </g>
     </g>
    </g>
    <g id="xtick_2">
     <g id="line2d_3">
      <path clip-path="url(#pbf9ad300c1)" d="M 160.283635 276.48 
L 160.283635 41.472 
" style="fill:none;stroke:#b0b0b0;stroke-linecap:square;stroke-width:0.8;"/>
     </g>
     <g id="line2d_4">
      <g>
       <use style="stroke:#000000;stroke-width:0.8;" x="160.283635" xlink:href="#mc1aa22e671" y="276.48"/>
      </g>
     </g>
     <g id="text_2">
      <!-- 2019-04 -->
      <defs>
       <path d="M 37.796875 64.3125 
L 12.890625 25.390625 
L 37.796875 25.390625 
z
M 35.203125 72.90625 
L 47.609375 72.90625 
L 47.609375 25.390625 
L 58.015625 25.390625 
L 58.015625 17.1875 
L 47.609375 17.1875 
L 47.609375 0 
L 37.796875 0 
L 37.796875 17.1875 
L 4.890625 17.1875 
L 4.890625 26.703125 
z
" id="DejaVuSans-34"/>
      </defs>
      <g transform="translate(123.058815 310.951846)rotate(-30)scale(0.1 -0.1)">
       <use xlink:href="#DejaVuSans-32"/>
       <use x="63.623047" xlink:href="#DejaVuSans-30"/>
       <use x="127.246094" xlink:href="#DejaVuSans-31"/>
       <use x="190.869141" xlink:href="#DejaVuSans-39"/>
       <use x="254.492188" xlink:href="#DejaVuSans-2d"/>
       <use x="290.576172" xlink:href="#DejaVuSans-30"/>
       <use x="354.199219" xlink:href="#DejaVuSans-34"/>
      </g>
     </g>
    </g>
    <g id="xtick_3">
     <g id="line2d_5">
      <path clip-path="url(#pbf9ad300c1)" d="M 218.87814 276.48 
L 218.87814 41.472 
" style="fill:none;stroke:#b0b0b0;stroke-linecap:square;stroke-width:0.8;"/>
     </g>
     <g id="line2d_6">
      <g>
       <use style="stroke:#000000;stroke-width:0.8;" x="218.87814" xlink:href="#mc1aa22e671" y="276.48"/>
      </g>
     </g>
     <g id="text_3">
      <!-- 2019-06 -->
      <defs>
       <path d="M 33.015625 40.375 
Q 26.375 40.375 22.484375 35.828125 
Q 18.609375 31.296875 18.609375 23.390625 
Q 18.609375 15.53125 22.484375 10.953125 
Q 26.375 6.390625 33.015625 6.390625 
Q 39.65625 6.390625 43.53125 10.953125 
Q 47.40625 15.53125 47.40625 23.390625 
Q 47.40625 31.296875 43.53125 35.828125 
Q 39.65625 40.375 33.015625 40.375 
z
M 52.59375 71.296875 
L 52.59375 62.3125 
Q 48.875 64.0625 45.09375 64.984375 
Q 41.3125 65.921875 37.59375 65.921875 
Q 27.828125 65.921875 22.671875 59.328125 
Q 17.53125 52.734375 16.796875 39.40625 
Q 19.671875 43.65625 24.015625 45.921875 
Q 28.375 48.1875 33.59375 48.1875 
Q 44.578125 48.1875 50.953125 41.515625 
Q 57.328125 34.859375 57.328125 23.390625 
Q 57.328125 12.15625 50.6875 5.359375 
Q 44.046875 -1.421875 33.015625 -1.421875 
Q 20.359375 -1.421875 13.671875 8.265625 
Q 6.984375 17.96875 6.984375 36.375 
Q 6.984375 53.65625 15.1875 63.9375 
Q 23.390625 74.21875 37.203125 74.21875 
Q 40.921875 74.21875 44.703125 73.484375 
Q 48.484375 72.75 52.59375 71.296875 
z
" id="DejaVuSans-36"/>
      </defs>
      <g transform="translate(181.653319 310.951846)rotate(-30)scale(0.1 -0.1)">
       <use xlink:href="#DejaVuSans-32"/>
       <use x="63.623047" xlink:href="#DejaVuSans-30"/>
       <use x="127.246094" xlink:href="#DejaVuSans-31"/>
       <use x="190.869141" xlink:href="#DejaVuSans-39"/>
       <use x="254.492188" xlink:href="#DejaVuSans-2d"/>
       <use x="290.576172" xlink:href="#DejaVuSans-30"/>
       <use x="354.199219" xlink:href="#DejaVuSans-36"/>
      </g>
     </g>
    </g>
    <g id="xtick_4">
     <g id="line2d_7">
      <path clip-path="url(#pbf9ad300c1)" d="M 277.472644 276.48 
L 277.472644 41.472 
" style="fill:none;stroke:#b0b0b0;stroke-linecap:square;stroke-width:0.8;"/>
     </g>
     <g id="line2d_8">
      <g>
       <use style="stroke:#000000;stroke-width:0.8;" x="277.472644" xlink:href="#mc1aa22e671" y="276.48"/>
      </g>
     </g>
     <g id="text_4">
      <!-- 2019-08 -->
      <defs>
       <path d="M 31.78125 34.625 
Q 24.75 34.625 20.71875 30.859375 
Q 16.703125 27.09375 16.703125 20.515625 
Q 16.703125 13.921875 20.71875 10.15625 
Q 24.75 6.390625 31.78125 6.390625 
Q 38.8125 6.390625 42.859375 10.171875 
Q 46.921875 13.96875 46.921875 20.515625 
Q 46.921875 27.09375 42.890625 30.859375 
Q 38.875 34.625 31.78125 34.625 
z
M 21.921875 38.8125 
Q 15.578125 40.375 12.03125 44.71875 
Q 8.5 49.078125 8.5 55.328125 
Q 8.5 64.0625 14.71875 69.140625 
Q 20.953125 74.21875 31.78125 74.21875 
Q 42.671875 74.21875 48.875 69.140625 
Q 55.078125 64.0625 55.078125 55.328125 
Q 55.078125 49.078125 51.53125 44.71875 
Q 48 40.375 41.703125 38.8125 
Q 48.828125 37.15625 52.796875 32.3125 
Q 56.78125 27.484375 56.78125 20.515625 
Q 56.78125 9.90625 50.3125 4.234375 
Q 43.84375 -1.421875 31.78125 -1.421875 
Q 19.734375 -1.421875 13.25 4.234375 
Q 6.78125 9.90625 6.78125 20.515625 
Q 6.78125 27.484375 10.78125 32.3125 
Q 14.796875 37.15625 21.921875 38.8125 
z
M 18.3125 54.390625 
Q 18.3125 48.734375 21.84375 45.5625 
Q 25.390625 42.390625 31.78125 42.390625 
Q 38.140625 42.390625 41.71875 45.5625 
Q 45.3125 48.734375 45.3125 54.390625 
Q 45.3125 60.0625 41.71875 63.234375 
Q 38.140625 66.40625 31.78125 66.40625 
Q 25.390625 66.40625 21.84375 63.234375 
Q 18.3125 60.0625 18.3125 54.390625 
z
" id="DejaVuSans-38"/>
      </defs>
      <g transform="translate(240.247824 310.951846)rotate(-30)scale(0.1 -0.1)">
       <use xlink:href="#DejaVuSans-32"/>
       <use x="63.623047" xlink:href="#DejaVuSans-30"/>
       <use x="127.246094" xlink:href="#DejaVuSans-31"/>
       <use x="190.869141" xlink:href="#DejaVuSans-39"/>
       <use x="254.492188" xlink:href="#DejaVuSans-2d"/>
       <use x="290.576172" xlink:href="#DejaVuSans-30"/>
       <use x="354.199219" xlink:href="#DejaVuSans-38"/>
      </g>
     </g>
    </g>
    <g id="xtick_5">
     <g id="line2d_9">
      <path clip-path="url(#pbf9ad300c1)" d="M 336.067149 276.48 
L 336.067149 41.472 
" style="fill:none;stroke:#b0b0b0;stroke-linecap:square;stroke-width:0.8;"/>
     </g>
     <g id="line2d_10">
      <g>
       <use style="stroke:#000000;stroke-width:0.8;" x="336.067149" xlink:href="#mc1aa22e671" y="276.48"/>
      </g>
     </g>
     <g id="text_5">
      <!-- 2019-10 -->
      <g transform="translate(298.842328 310.951846)rotate(-30)scale(0.1 -0.1)">
       <use xlink:href="#DejaVuSans-32"/>
       <use x="63.623047" xlink:href="#DejaVuSans-30"/>
       <use x="127.246094" xlink:href="#DejaVuSans-31"/>
       <use x="190.869141" xlink:href="#DejaVuSans-39"/>
       <use x="254.492188" xlink:href="#DejaVuSans-2d"/>
       <use x="290.576172" xlink:href="#DejaVuSans-31"/>
       <use x="354.199219" xlink:href="#DejaVuSans-30"/>
      </g>
     </g>
    </g>
    <g id="xtick_6">
     <g id="line2d_11">
      <path clip-path="url(#pbf9ad300c1)" d="M 394.661653 276.48 
L 394.661653 41.472 
" style="fill:none;stroke:#b0b0b0;stroke-linecap:square;stroke-width:0.8;"/>
     </g>
     <g id="line2d_12">
      <g>
       <use style="stroke:#000000;stroke-width:0.8;" x="394.661653" xlink:href="#mc1aa22e671" y="276.48"/>
      </g>
     </g>
     <g id="text_6">
      <!-- 2019-12 -->
      <g transform="translate(357.436832 310.951846)rotate(-30)scale(0.1 -0.1)">
       <use xlink:href="#DejaVuSans-32"/>
       <use x="63.623047" xlink:href="#DejaVuSans-30"/>
       <use x="127.246094" xlink:href="#DejaVuSans-31"/>
       <use x="190.869141" xlink:href="#DejaVuSans-39"/>
       <use x="254.492188" xlink:href="#DejaVuSans-2d"/>
       <use x="290.576172" xlink:href="#DejaVuSans-31"/>
       <use x="354.199219" xlink:href="#DejaVuSans-32"/>
      </g>
     </g>
    </g>
    <g id="text_7">
     <!-- date -->
     <defs>
      <path d="M 45.40625 46.390625 
L 45.40625 75.984375 
L 54.390625 75.984375 
L 54.390625 0 
L 45.40625 0 
L 45.40625 8.203125 
Q 42.578125 3.328125 38.25 0.953125 
Q 33.9375 -1.421875 27.875 -1.421875 
Q 17.96875 -1.421875 11.734375 6.484375 
Q 5.515625 14.40625 5.515625 27.296875 
Q 5.515625 40.1875 11.734375 48.09375 
Q 17.96875 56 27.875 56 
Q 33.9375 56 38.25 53.625 
Q 42.578125 51.265625 45.40625 46.390625 
z
M 14.796875 27.296875 
Q 14.796875 17.390625 18.875 11.75 
Q 22.953125 6.109375 30.078125 6.109375 
Q 37.203125 6.109375 41.296875 11.75 
Q 45.40625 17.390625 45.40625 27.296875 
Q 45.40625 37.203125 41.296875 42.84375 
Q 37.203125 48.484375 30.078125 48.484375 
Q 22.953125 48.484375 18.875 42.84375 
Q 14.796875 37.203125 14.796875 27.296875 
z
" id="DejaVuSans-64"/>
      <path d="M 34.28125 27.484375 
Q 23.390625 27.484375 19.1875 25 
Q 14.984375 22.515625 14.984375 16.5 
Q 14.984375 11.71875 18.140625 8.90625 
Q 21.296875 6.109375 26.703125 6.109375 
Q 34.1875 6.109375 38.703125 11.40625 
Q 43.21875 16.703125 43.21875 25.484375 
L 43.21875 27.484375 
z
M 52.203125 31.203125 
L 52.203125 0 
L 43.21875 0 
L 43.21875 8.296875 
Q 40.140625 3.328125 35.546875 0.953125 
Q 30.953125 -1.421875 24.3125 -1.421875 
Q 15.921875 -1.421875 10.953125 3.296875 
Q 6 8.015625 6 15.921875 
Q 6 25.140625 12.171875 29.828125 
Q 18.359375 34.515625 30.609375 34.515625 
L 43.21875 34.515625 
L 43.21875 35.40625 
Q 43.21875 41.609375 39.140625 45 
Q 35.0625 48.390625 27.6875 48.390625 
Q 23 48.390625 18.546875 47.265625 
Q 14.109375 46.140625 10.015625 43.890625 
L 10.015625 52.203125 
Q 14.9375 54.109375 19.578125 55.046875 
Q 24.21875 56 28.609375 56 
Q 40.484375 56 46.34375 49.84375 
Q 52.203125 43.703125 52.203125 31.203125 
z
" id="DejaVuSans-61"/>
      <path d="M 18.3125 70.21875 
L 18.3125 54.6875 
L 36.8125 54.6875 
L 36.8125 47.703125 
L 18.3125 47.703125 
L 18.3125 18.015625 
Q 18.3125 11.328125 20.140625 9.421875 
Q 21.96875 7.515625 27.59375 7.515625 
L 36.8125 7.515625 
L 36.8125 0 
L 27.59375 0 
Q 17.1875 0 13.234375 3.875 
Q 9.28125 7.765625 9.28125 18.015625 
L 9.28125 47.703125 
L 2.6875 47.703125 
L 2.6875 54.6875 
L 9.28125 54.6875 
L 9.28125 70.21875 
z
" id="DejaVuSans-74"/>
      <path d="M 56.203125 29.59375 
L 56.203125 25.203125 
L 14.890625 25.203125 
Q 15.484375 15.921875 20.484375 11.0625 
Q 25.484375 6.203125 34.421875 6.203125 
Q 39.59375 6.203125 44.453125 7.46875 
Q 49.3125 8.734375 54.109375 11.28125 
L 54.109375 2.78125 
Q 49.265625 0.734375 44.1875 -0.34375 
Q 39.109375 -1.421875 33.890625 -1.421875 
Q 20.796875 -1.421875 13.15625 6.1875 
Q 5.515625 13.8125 5.515625 26.8125 
Q 5.515625 40.234375 12.765625 48.109375 
Q 20.015625 56 32.328125 56 
Q 43.359375 56 49.78125 48.890625 
Q 56.203125 41.796875 56.203125 29.59375 
z
M 47.21875 32.234375 
Q 47.125 39.59375 43.09375 43.984375 
Q 39.0625 48.390625 32.421875 48.390625 
Q 24.90625 48.390625 20.390625 44.140625 
Q 15.875 39.890625 15.1875 32.171875 
z
" id="DejaVuSans-65"/>
     </defs>
     <g transform="translate(224.885 324.351346)scale(0.1 -0.1)">
      <use xlink:href="#DejaVuSans-64"/>
      <use x="63.476562" xlink:href="#DejaVuSans-61"/>
      <use x="124.755859" xlink:href="#DejaVuSans-74"/>
      <use x="163.964844" xlink:href="#DejaVuSans-65"/>
     </g>
    </g>
   </g>
   <g id="matplotlib.axis_2">
    <g id="ytick_1">
     <g id="line2d_13">
      <path clip-path="url(#pbf9ad300c1)" d="M 57.6 265.797818 
L 414.72 265.797818 
" style="fill:none;stroke:#b0b0b0;stroke-linecap:square;stroke-width:0.8;"/>
     </g>
     <g id="line2d_14">
      <defs>
       <path d="M 0 0 
L -3.5 0 
" id="m97f0b3607e" style="stroke:#000000;stroke-width:0.8;"/>
      </defs>
      <g>
       <use style="stroke:#000000;stroke-width:0.8;" x="57.6" xlink:href="#m97f0b3607e" y="265.797818"/>
      </g>
     </g>
     <g id="text_8">
      <!-- 0 -->
      <g transform="translate(44.2375 269.597037)scale(0.1 -0.1)">
       <use xlink:href="#DejaVuSans-30"/>
      </g>
     </g>
    </g>
    <g id="ytick_2">
     <g id="line2d_15">
      <path clip-path="url(#pbf9ad300c1)" d="M 57.6 225.884238 
L 414.72 225.884238 
" style="fill:none;stroke:#b0b0b0;stroke-linecap:square;stroke-width:0.8;"/>
     </g>
     <g id="line2d_16">
      <g>
       <use style="stroke:#000000;stroke-width:0.8;" x="57.6" xlink:href="#m97f0b3607e" y="225.884238"/>
      </g>
     </g>
     <g id="text_9">
      <!-- 2000 -->
      <g transform="translate(25.15 229.683456)scale(0.1 -0.1)">
       <use xlink:href="#DejaVuSans-32"/>
       <use x="63.623047" xlink:href="#DejaVuSans-30"/>
       <use x="127.246094" xlink:href="#DejaVuSans-30"/>
       <use x="190.869141" xlink:href="#DejaVuSans-30"/>
      </g>
     </g>
    </g>
    <g id="ytick_3">
     <g id="line2d_17">
      <path clip-path="url(#pbf9ad300c1)" d="M 57.6 185.970657 
L 414.72 185.970657 
" style="fill:none;stroke:#b0b0b0;stroke-linecap:square;stroke-width:0.8;"/>
     </g>
     <g id="line2d_18">
      <g>
       <use style="stroke:#000000;stroke-width:0.8;" x="57.6" xlink:href="#m97f0b3607e" y="185.970657"/>
      </g>
     </g>
     <g id="text_10">
      <!-- 4000 -->
      <g transform="translate(25.15 189.769876)scale(0.1 -0.1)">
       <use xlink:href="#DejaVuSans-34"/>
       <use x="63.623047" xlink:href="#DejaVuSans-30"/>
       <use x="127.246094" xlink:href="#DejaVuSans-30"/>
       <use x="190.869141" xlink:href="#DejaVuSans-30"/>
      </g>
     </g>
    </g>
    <g id="ytick_4">
     <g id="line2d_19">
      <path clip-path="url(#pbf9ad300c1)" d="M 57.6 146.057076 
L 414.72 146.057076 
" style="fill:none;stroke:#b0b0b0;stroke-linecap:square;stroke-width:0.8;"/>
     </g>
     <g id="line2d_20">
      <g>
       <use style="stroke:#000000;stroke-width:0.8;" x="57.6" xlink:href="#m97f0b3607e" y="146.057076"/>
      </g>
     </g>
     <g id="text_11">
      <!-- 6000 -->
      <g transform="translate(25.15 149.856295)scale(0.1 -0.1)">
       <use xlink:href="#DejaVuSans-36"/>
       <use x="63.623047" xlink:href="#DejaVuSans-30"/>
       <use x="127.246094" xlink:href="#DejaVuSans-30"/>
       <use x="190.869141" xlink:href="#DejaVuSans-30"/>
      </g>
     </g>
    </g>
    <g id="ytick_5">
     <g id="line2d_21">
      <path clip-path="url(#pbf9ad300c1)" d="M 57.6 106.143496 
L 414.72 106.143496 
" style="fill:none;stroke:#b0b0b0;stroke-linecap:square;stroke-width:0.8;"/>
     </g>
     <g id="line2d_22">
      <g>
       <use style="stroke:#000000;stroke-width:0.8;" x="57.6" xlink:href="#m97f0b3607e" y="106.143496"/>
      </g>
     </g>
     <g id="text_12">
      <!-- 8000 -->
      <g transform="translate(25.15 109.942714)scale(0.1 -0.1)">
       <use xlink:href="#DejaVuSans-38"/>
       <use x="63.623047" xlink:href="#DejaVuSans-30"/>
       <use x="127.246094" xlink:href="#DejaVuSans-30"/>
       <use x="190.869141" xlink:href="#DejaVuSans-30"/>
      </g>
     </g>
    </g>
    <g id="ytick_6">
     <g id="line2d_23">
      <path clip-path="url(#pbf9ad300c1)" d="M 57.6 66.229915 
L 414.72 66.229915 
" style="fill:none;stroke:#b0b0b0;stroke-linecap:square;stroke-width:0.8;"/>
     </g>
     <g id="line2d_24">
      <g>
       <use style="stroke:#000000;stroke-width:0.8;" x="57.6" xlink:href="#m97f0b3607e" y="66.229915"/>
      </g>
     </g>
     <g id="text_13">
      <!-- 10000 -->
      <g transform="translate(18.7875 70.029134)scale(0.1 -0.1)">
       <use xlink:href="#DejaVuSans-31"/>
       <use x="63.623047" xlink:href="#DejaVuSans-30"/>
       <use x="127.246094" xlink:href="#DejaVuSans-30"/>
       <use x="190.869141" xlink:href="#DejaVuSans-30"/>
       <use x="254.492188" xlink:href="#DejaVuSans-30"/>
      </g>
     </g>
    </g>
    <g id="text_14">
     <!-- EUR -->
     <defs>
      <path d="M 9.8125 72.90625 
L 55.90625 72.90625 
L 55.90625 64.59375 
L 19.671875 64.59375 
L 19.671875 43.015625 
L 54.390625 43.015625 
L 54.390625 34.71875 
L 19.671875 34.71875 
L 19.671875 8.296875 
L 56.78125 8.296875 
L 56.78125 0 
L 9.8125 0 
z
" id="DejaVuSans-45"/>
      <path d="M 8.6875 72.90625 
L 18.609375 72.90625 
L 18.609375 28.609375 
Q 18.609375 16.890625 22.84375 11.734375 
Q 27.09375 6.59375 36.625 6.59375 
Q 46.09375 6.59375 50.34375 11.734375 
Q 54.59375 16.890625 54.59375 28.609375 
L 54.59375 72.90625 
L 64.5 72.90625 
L 64.5 27.390625 
Q 64.5 13.140625 57.4375 5.859375 
Q 50.390625 -1.421875 36.625 -1.421875 
Q 22.796875 -1.421875 15.734375 5.859375 
Q 8.6875 13.140625 8.6875 27.390625 
z
" id="DejaVuSans-55"/>
      <path d="M 44.390625 34.1875 
Q 47.5625 33.109375 50.5625 29.59375 
Q 53.5625 26.078125 56.59375 19.921875 
L 66.609375 0 
L 56 0 
L 46.6875 18.703125 
Q 43.0625 26.03125 39.671875 28.421875 
Q 36.28125 30.8125 30.421875 30.8125 
L 19.671875 30.8125 
L 19.671875 0 
L 9.8125 0 
L 9.8125 72.90625 
L 32.078125 72.90625 
Q 44.578125 72.90625 50.734375 67.671875 
Q 56.890625 62.453125 56.890625 51.90625 
Q 56.890625 45.015625 53.6875 40.46875 
Q 50.484375 35.9375 44.390625 34.1875 
z
M 19.671875 64.796875 
L 19.671875 38.921875 
L 32.078125 38.921875 
Q 39.203125 38.921875 42.84375 42.21875 
Q 46.484375 45.515625 46.484375 51.90625 
Q 46.484375 58.296875 42.84375 61.546875 
Q 39.203125 64.796875 32.078125 64.796875 
z
" id="DejaVuSans-52"/>
     </defs>
     <g transform="translate(12.707813 169.268969)rotate(-90)scale(0.1 -0.1)">
      <use xlink:href="#DejaVuSans-45"/>
      <use x="63.183594" xlink:href="#DejaVuSans-55"/>
      <use x="136.376953" xlink:href="#DejaVuSans-52"/>
     </g>
    </g>
   </g>
   <g id="line2d_25">
    <path clip-path="url(#pbf9ad300c1)" d="M 73.832727 265.797818 
L 107.452525 265.708515 
L 107.452525 265.689666 
L 113.215919 265.539667 
L 113.215919 265.418314 
L 113.215919 265.418314 
L 115.13705 265.348879 
L 115.13705 265.307298 
L 115.13705 265.143028 
L 119.939878 264.990534 
L 119.939878 264.800056 
L 122.821575 264.676931 
L 122.821575 264.659275 
L 122.821575 264.659275 
L 127.624403 264.545653 
L 127.624403 264.524643 
L 132.427232 264.416026 
L 132.427232 264.41562 
L 133.387797 264.301374 
L 133.387797 264.12185 
L 135.308929 264.014286 
L 135.308929 263.970359 
L 137.23006 263.858495 
L 137.23006 263.813131 
L 141.072323 263.702951 
L 141.072323 263.648455 
L 142.032888 263.532431 
L 142.032888 263.48343 
L 142.032888 263.48343 
L 146.835716 263.34914 
L 146.835716 263.34914 
L 146.835716 263.240895 
L 150.677979 263.135389 
L 150.677979 263.10756 
L 157.401939 262.976945 
L 157.401939 262.957774 
L 161.244201 262.8488 
L 162.204767 262.744018 
L 162.204767 262.705558 
L 163.165332 262.59638 
L 163.165332 262.575725 
L 167.007595 262.457552 
L 167.007595 262.388149 
L 169.889292 262.266287 
L 169.889292 262.220816 
L 173.731555 262.14695 
L 173.731555 262.109894 
L 173.731555 261.889622 
L 176.613251 261.764004 
L 176.613251 261.563045 
L 181.41608 261.447331 
L 181.41608 261.437586 
L 187.179474 261.297506 
L 187.179474 261.265175 
L 191.021736 261.110363 
L 191.021736 261.110363 
L 191.021736 261.030346 
L 191.021736 261.030346 
L 193.903433 260.908098 
L 193.903433 260.842557 
L 195.824564 260.720661 
L 195.824564 260.716539 
L 200.627393 260.586184 
L 200.627393 260.586184 
L 200.627393 260.435652 
L 202.548524 260.328509 
L 202.548524 260.28211 
L 207.351352 260.123451 
L 207.351352 260.012407 
L 211.193615 259.868708 
L 211.193615 259.856881 
L 220.799271 259.739015 
L 220.799271 259.605175 
L 221.759837 259.488834 
L 221.759837 259.48869 
L 224.641534 259.35534 
L 224.641534 259.321721 
L 227.523231 259.196208 
L 227.523231 259.144293 
L 229.444362 259.044144 
L 229.444362 258.942097 
L 230.404928 258.83093 
L 230.404928 258.796025 
L 230.404928 258.796025 
L 234.24719 258.676475 
L 234.24719 258.644969 
L 234.24719 258.644969 
L 235.207756 258.534576 
L 235.207756 258.431031 
L 238.089453 258.320226 
L 238.089453 258.310979 
L 244.813412 258.188105 
L 244.813412 258.164195 
L 247.695109 258.048537 
L 247.695109 257.975763 
L 247.695109 257.975763 
L 248.655675 257.903262 
L 248.655675 257.835166 
L 249.616241 257.719588 
L 249.616241 257.217131 
L 250.576806 257.102192 
L 250.576806 256.614538 
L 251.537372 256.614538 
L 251.537372 256.507662 
L 251.537372 256.406737 
L 254.419069 256.283416 
L 254.419069 255.548084 
L 255.379635 255.437304 
L 255.379635 255.397424 
L 256.3402 255.397424 
L 256.3402 255.349704 
L 256.3402 255.05552 
L 258.261331 254.940494 
L 258.261331 254.731593 
L 258.261331 254.731593 
L 261.143028 254.61812 
L 261.143028 254.61812 
L 261.143028 254.38981 
L 262.103594 254.278778 
L 262.103594 254.147405 
L 263.06416 254.038544 
L 263.06416 253.794652 
L 264.024725 253.684222 
L 264.024725 253.247452 
L 264.985291 253.189785 
L 264.985291 252.979219 
L 267.866988 252.744624 
L 267.866988 252.678323 
L 268.827554 252.580108 
L 268.827554 252.367809 
L 271.70925 252.250494 
L 271.70925 252.179035 
L 274.590947 252.068628 
L 274.590947 252.06634 
L 276.512079 251.981651 
L 276.512079 251.887626 
L 277.472644 251.773553 
L 277.472644 251.563416 
L 278.43321 251.451631 
L 278.43321 251.423811 
L 281.314907 251.317485 
L 281.314907 251.317485 
L 281.314907 250.129153 
L 282.275473 250.018314 
L 282.275473 249.558065 
L 283.236038 249.449282 
L 283.236038 249.325974 
L 284.196604 249.325974 
L 284.196604 249.215856 
L 284.196604 249.070441 
L 285.15717 248.973202 
L 285.15717 248.910391 
L 288.038866 248.793202 
L 288.038866 248.793202 
L 288.038866 248.590158 
L 288.999432 248.482668 
L 288.999432 248.388436 
L 289.959998 248.27642 
L 289.959998 248.259523 
L 289.959998 248.259523 
L 290.920563 248.259523 
L 290.920563 248.1688 
L 290.920563 248.038232 
L 291.881129 247.928492 
L 291.881129 247.661549 
L 294.762826 247.53903 
L 294.762826 246.84348 
L 295.723392 246.84348 
L 295.723392 246.732906 
L 295.723392 246.659507 
L 296.683957 246.548727 
L 296.683957 246.513975 
L 298.605089 246.404128 
L 298.605089 246.269732 
L 301.486786 246.175763 
L 301.486786 246.066629 
L 303.407917 245.975672 
L 303.407917 245.958473 
L 303.407917 245.857545 
L 303.407917 245.857545 
L 306.289614 245.75788 
L 306.289614 245.675629 
L 308.210745 245.561151 
L 308.210745 245.413264 
L 308.210745 245.413264 
L 309.171311 245.306439 
L 309.171311 244.986568 
L 310.131876 244.863622 
L 310.131876 244.392757 
L 311.092442 244.281334 
L 311.092442 243.97399 
L 312.053008 243.863091 
L 312.053008 243.432834 
L 314.934705 243.316217 
L 314.934705 243.014281 
L 315.89527 242.904981 
L 315.89527 242.781171 
L 316.855836 242.674631 
L 316.855836 242.662426 
L 318.776967 242.554922 
L 318.776967 242.2913 
L 321.658664 242.177113 
L 321.658664 241.660323 
L 322.61923 241.549926 
L 322.61923 241.404109 
L 323.579795 241.404109 
L 323.579795 241.293087 
L 323.579795 240.957659 
L 324.540361 240.84603 
L 324.540361 240.811478 
L 325.500927 240.704493 
L 325.500927 240.62076 
L 328.382624 240.508752 
L 328.382624 240.445559 
L 329.343189 240.408075 
L 329.343189 240.173739 
L 331.264321 240.064898 
L 331.264321 239.90052 
L 334.146018 239.791675 
L 334.146018 239.78999 
L 334.146018 239.780128 
L 336.067149 239.694228 
L 336.067149 239.409917 
L 337.98828 239.29897 
L 337.98828 239.29897 
L 337.98828 238.993181 
L 338.948846 238.86007 
L 338.948846 238.374835 
L 341.830543 238.258187 
L 341.830543 237.728247 
L 342.791108 237.597518 
L 342.791108 237.46879 
L 344.71224 237.374189 
L 344.71224 237.358699 
L 344.71224 237.172792 
L 348.554502 237.059835 
L 348.554502 236.73175 
L 349.515068 236.621322 
L 349.515068 236.482054 
L 350.475634 236.366486 
L 350.475634 235.991976 
L 351.436199 235.879348 
L 351.436199 235.712684 
L 352.396765 235.604469 
L 352.396765 235.266354 
L 355.278462 235.177809 
L 355.278462 234.85949 
L 356.239027 234.748768 
L 357.199593 234.659346 
L 357.199593 234.537922 
L 358.160159 234.537922 
L 358.160159 234.428572 
L 358.160159 234.399447 
L 359.120724 234.290554 
L 359.120724 234.279149 
L 362.962987 234.164599 
L 362.962987 234.048472 
L 362.962987 234.048472 
L 364.884118 233.959058 
L 364.884118 233.917089 
L 365.844684 233.80585 
L 365.844684 233.77615 
L 368.726381 233.669037 
L 368.726381 232.895012 
L 368.726381 232.895012 
L 369.686946 232.799533 
L 369.686946 232.399309 
L 370.647512 232.299971 
L 370.647512 232.088762 
L 370.647512 232.088762 
L 371.608078 231.977855 
L 371.608078 231.860908 
L 371.608078 231.860908 
L 372.568643 231.749242 
L 372.568643 231.749242 
L 372.568643 231.709922 
L 375.45034 231.593672 
L 375.45034 231.397065 
L 375.45034 231.397065 
L 377.371472 231.287388 
L 377.371472 231.089436 
L 379.292603 230.978468 
L 379.292603 230.978468 
L 379.292603 230.857223 
L 382.1743 230.736046 
L 382.1743 230.736046 
L 382.1743 229.936247 
L 384.095431 229.84211 
L 384.095431 229.768545 
L 385.055997 229.656699 
L 385.055997 229.613992 
L 387.937694 229.500823 
L 387.937694 229.496896 
L 389.858825 229.38736 
L 389.858825 229.301998 
L 391.779956 229.194171 
L 391.779956 229.191003 
L 391.779956 229.150701 
L 394.661653 229.045224 
L 395.622219 228.943164 
L 395.622219 228.598514 
L 396.582785 228.484747 
L 396.582785 228.241556 
L 397.54335 228.107508 
L 397.54335 227.829376 
L 397.54335 227.829376 
" style="fill:none;stroke:#0000ff;stroke-linecap:square;stroke-width:1.5;"/>
   </g>
   <g id="line2d_26">
    <path clip-path="url(#pbf9ad300c1)" d="M 73.832727 265.797818 
L 76.593631 265.717991 
L 76.748088 255.739596 
L 76.975422 255.879293 
L 77.429334 258.952639 
L 77.546503 259.730954 
L 77.655267 260.309701 
L 78.192506 262.006028 
L 78.32674 262.744429 
L 78.60297 263.782182 
L 79.119251 264.660281 
L 79.123043 264.839892 
L 79.317279 265.019503 
L 79.406732 265.199114 
L 79.507091 265.398682 
L 80.014312 265.498223 
L 80.014979 225.584642 
L 80.108512 227.221099 
L 80.159664 228.198982 
L 80.26238 246.12018 
L 80.36563 248.973533 
L 80.384107 249.213015 
L 80.57015 255.754908 
L 80.745231 255.950939 
L 80.84857 257.938294 
L 80.865513 257.932985 
L 80.921702 258.012813 
L 81.032734 260.786806 
L 81.272575 263.44106 
L 81.334689 263.24118 
L 81.357225 263.460705 
L 81.623304 264.198583 
L 81.998314 264.358238 
L 82.042362 264.996855 
L 82.177652 265.036769 
L 82.242257 265.196423 
L 82.368532 265.595559 
L 83.003483 265.695108 
L 83.101319 265.735022 
L 83.768534 265.768615 
L 83.889005 265.567722 
L 83.944337 265.687193 
L 84.04772 265.747062 
L 87.002127 265.786975 
L 87.72513 265.584758 
L 87.729844 265.684542 
L 87.736359 265.744413 
L 88.692022 265.784326 
L 89.943259 265.582652 
L 89.946305 265.602609 
L 89.955533 265.78222 
L 93.432625 265.762146 
L 93.432625 265.571477 
L 93.434948 265.771045 
L 93.645995 265.758889 
L 106.818685 265.783812 
L 106.818685 265.748246 
L 106.818685 265.720756 
L 106.831604 265.780627 
L 106.887792 265.769618 
L 106.983593 265.789575 
L 107.868003 265.785815 
L 108.278845 265.578808 
L 108.713656 265.559447 
L 108.713656 265.454696 
L 108.744908 265.55448 
L 111.025384 265.796806 
L 113.815038 265.684001 
L 113.841887 265.513252 
L 113.833505 265.717675 
L 113.910128 265.632993 
L 115.450246 265.492253 
L 115.488424 265.444432 
L 115.540332 265.499054 
L 115.552617 265.488676 
L 115.583391 265.459288 
L 115.809179 265.709067 
L 115.86191 265.602661 
L 115.896864 265.682488 
L 117.462608 265.76726 
L 117.505022 265.785349 
L 117.505022 265.779083 
L 120.259511 265.637813 
L 120.275821 265.601799 
L 120.325961 265.661669 
L 120.339625 265.660922 
L 121.271329 265.761363 
L 121.3918 265.795764 
L 121.747999 265.778804 
L 122.364139 265.790507 
L 122.421384 257.290511 
L 122.504555 261.351415 
L 122.562512 264.26299 
L 123.283014 264.344583 
L 123.294087 263.845252 
L 123.312131 264.324215 
L 123.407909 264.344172 
L 123.47168 265.10253 
L 123.517952 265.089302 
L 123.538142 265.109259 
L 124.114759 265.099674 
L 124.154838 264.895007 
L 124.167145 265.114532 
L 124.194862 265.113441 
L 124.394991 265.148546 
L 124.51913 265.604958 
L 124.51913 265.603587 
L 125.236286 265.616191 
L 125.362838 265.755889 
L 127.404574 265.649097 
L 127.459884 265.637037 
L 127.463764 265.696907 
L 133.729098 265.58701 
L 133.810869 265.521746 
L 133.834772 265.641487 
L 133.970796 265.725864 
L 133.970796 265.705427 
L 134.127855 265.720691 
L 134.127855 265.716881 
L 134.127855 265.514699 
L 134.232984 265.734224 
L 135.59204 265.734256 
L 135.59204 265.70184 
L 135.59204 265.694821 
L 135.661158 265.734734 
L 135.698347 265.729482 
L 141.016923 265.754284 
L 141.037102 265.558399 
L 141.062472 265.698096 
L 141.420283 265.661764 
L 141.454003 265.571299 
L 141.529792 265.697062 
L 141.768021 265.698709 
L 141.768021 265.689268 
L 141.792624 265.709225 
L 142.37589 265.7486 
L 142.37589 265.662287 
L 142.410522 265.56696 
L 142.467833 265.726615 
L 158.253518 265.587622 
L 158.253518 265.257642 
L 158.268693 265.796476 
L 161.610194 265.74638 
L 161.698602 265.640232 
L 161.738848 265.754991 
L 161.903367 265.639566 
L 161.936742 265.113395 
L 161.936887 264.386215 
L 161.980935 265.359494 
L 162.20221 265.346001 
L 162.264791 265.566822 
L 162.504643 265.456225 
L 162.583657 265.410188 
L 162.894362 265.445567 
L 162.894362 265.44067 
L 163.773646 265.306594 
L 163.773646 265.303273 
L 163.875162 265.781186 
L 163.898809 265.791841 
L 164.015789 265.413888 
L 164.029564 265.613456 
L 164.899509 265.574938 
L 164.961501 265.774506 
L 174.466354 265.652577 
L 174.466354 265.580631 
L 174.533983 265.678041 
L 174.574884 265.673219 
L 175.343381 265.724118 
L 175.441439 265.751237 
L 175.441439 265.750094 
L 175.50282 265.768404 
L 175.50282 265.76278 
L 176.924268 265.663419 
L 176.951673 265.552849 
L 177.012053 265.680249 
L 177.153692 265.742512 
L 177.153692 265.736872 
L 179.056201 265.796813 
L 191.334153 265.689318 
L 191.334153 265.643628 
L 191.443329 265.756064 
L 199.121072 265.76917 
L 199.124686 265.789127 
L 200.955753 265.675296 
L 200.98159 265.592904 
L 201.065662 265.659832 
L 201.357122 265.722741 
L 214.578741 265.779526 
L 214.635908 263.789236 
L 214.690163 264.580275 
L 215.965758 264.598785 
L 216.366339 264.596753 
L 216.565367 265.794161 
L 216.687494 264.587628 
L 217.368618 264.587823 
L 217.549769 264.827305 
L 217.564989 265.785231 
L 221.125486 265.676795 
L 221.182497 265.654301 
L 221.212548 265.714171 
L 221.223921 265.707677 
L 226.103517 265.777172 
L 227.880897 265.710726 
L 227.880897 265.703123 
L 227.903644 265.677947 
L 227.94996 265.725611 
L 227.978855 265.714139 
L 230.106152 265.638917 
L 230.14642 265.436819 
L 230.1693 265.660335 
L 230.73102 265.547164 
L 230.766741 265.473533 
L 230.840429 265.515106 
L 231.032686 265.697779 
L 239.391864 265.775838 
L 239.432622 265.795795 
L 244.267224 265.784409 
L 244.285379 265.665771 
L 244.348138 265.705297 
L 244.545065 265.66407 
L 244.545065 265.714124 
L 244.548679 265.162387 
L 244.551036 265.71002 
L 244.707483 265.701128 
L 244.714065 265.412549 
L 244.717378 265.711901 
L 245.627381 265.641604 
L 245.651217 264.501198 
L 245.655141 265.651413 
L 245.667071 265.650632 
L 246.418702 265.713284 
L 246.418936 262.181016 
L 246.521174 265.78044 
L 246.535549 265.742982 
L 246.539829 264.004769 
L 246.54372 265.789665 
L 246.634563 265.227815 
L 246.685826 265.793989 
L 246.68785 264.682423 
L 246.687905 263.592491 
L 246.746217 265.797123 
L 246.789554 265.793791 
L 248.000078 265.695472 
L 248.000078 265.603045 
L 248.084472 265.797112 
L 248.112477 265.796698 
L 248.13429 215.904723 
L 248.236517 233.695505 
L 248.256829 236.164453 
L 248.529467 264.598452 
L 248.549179 264.594876 
L 249.258719 264.678687 
L 249.25883 265.785332 
L 249.349962 265.78149 
L 249.918763 265.693874 
L 249.959365 215.903325 
L 249.927702 265.795301 
L 250.029017 222.614131 
L 250.039112 222.877721 
L 250.150611 232.178758 
L 250.160706 232.40324 
L 250.262099 244.137293 
L 250.266057 244.137041 
L 250.312784 252.072278 
L 250.321334 242.093883 
L 250.386072 251.714293 
L 250.388751 241.735898 
L 250.495047 254.056398 
L 250.51527 255.201333 
L 250.616563 263.940615 
L 250.62668 264.209661 
L 250.636797 265.782062 
L 250.874448 265.673229 
L 250.874448 265.389035 
L 250.95066 265.793932 
L 251.148354 265.683851 
L 251.154391 261.79051 
L 251.224343 265.797532 
L 251.227801 265.777702 
L 251.426318 265.782027 
L 251.426318 265.770101 
L 251.426318 265.76256 
L 251.433678 265.783714 
L 251.506476 265.778461 
L 254.731075 265.672107 
L 254.731075 265.397968 
L 254.828554 265.795167 
L 260.898707 265.717027 
L 260.898707 265.737141 
L 260.955095 265.79677 
L 260.955095 265.79554 
L 261.46036 265.684636 
L 261.46036 265.651601 
L 261.466196 265.771831 
L 261.562542 265.75492 
L 261.780304 265.725501 
L 261.780304 265.522568 
L 261.871613 265.76515 
L 261.877594 265.698468 
L 261.897528 265.518821 
L 261.962767 265.777739 
L 262.398679 265.690837 
L 262.398679 265.579294 
L 262.47936 265.792664 
L 262.496981 265.760487 
L 263.35741 265.647371 
L 263.35741 265.572021 
L 263.431454 265.793887 
L 263.461849 265.761951 
L 263.712097 265.794196 
L 263.712097 265.785554 
L 263.751387 265.766075 
L 263.822106 265.793061 
L 264.327092 265.683509 
L 264.327092 265.38868 
L 264.33314 265.790656 
L 264.435967 265.647877 
L 264.51547 265.790798 
L 264.955173 265.761113 
L 265.277307 265.310227 
L 265.285646 265.510612 
L 265.295852 265.751592 
L 265.394643 265.725468 
L 265.476547 265.766162 
L 265.476547 264.537194 
L 265.488432 265.776474 
L 265.55695 265.75486 
L 265.676042 265.718183 
L 265.676042 265.708407 
L 268.244988 265.785786 
L 268.244988 265.775214 
L 268.244988 265.655762 
L 268.35562 265.76588 
L 270.504196 265.677715 
L 270.504196 265.454997 
L 270.523808 265.784489 
L 270.526643 265.783437 
L 275.833457 265.792164 
L 275.833457 265.710705 
L 275.833457 265.663748 
L 275.874159 265.783918 
L 275.935484 265.782383 
L 276.973762 265.783405 
L 276.973762 265.483065 
L 277.050551 265.788681 
L 277.770475 265.666683 
L 277.770475 265.510703 
L 277.845386 265.785937 
L 277.864675 265.782716 
L 281.620209 265.660796 
L 281.620209 264.961453 
L 281.687571 265.789705 
L 281.728084 265.788202 
L 282.059779 265.67463 
L 282.059779 265.634081 
L 282.086572 265.797096 
L 282.157459 265.794601 
L 282.566644 265.692074 
L 282.566644 265.535668 
L 282.664046 265.797759 
L 283.64688 265.709928 
L 283.686481 265.792696 
L 283.760147 265.767797 
L 283.779436 265.572721 
L 283.802939 265.797337 
L 283.840539 265.780578 
L 284.056054 265.78705 
L 284.916239 265.678389 
L 284.916239 265.547884 
L 285.025036 265.795427 
L 286.034575 265.734622 
L 286.034586 265.219977 
L 286.040145 265.783292 
L 289.294928 265.784244 
L 289.294928 265.715438 
L 289.294928 265.66329 
L 289.334118 265.789457 
L 289.394965 265.785757 
L 290.479815 265.666162 
L 290.479815 265.611897 
L 290.489799 265.792261 
L 292.19 265.79628 
L 292.19 265.685289 
L 292.19 265.457893 
L 292.200406 265.797666 
L 292.299653 265.780589 
L 292.550434 265.77059 
L 292.656652 265.790871 
L 293.284733 265.797039 
L 293.288169 265.609299 
L 293.32946 265.783661 
L 295.067038 265.782618 
L 295.067038 265.689974 
L 295.06705 265.226191 
L 295.079401 265.795519 
L 295.170566 265.795475 
L 295.181239 265.780521 
L 295.181239 265.670636 
L 295.190822 265.791745 
L 295.261731 265.783669 
L 298.917473 265.653911 
L 298.917473 265.629988 
L 298.967569 265.796931 
L 298.998187 265.790466 
L 302.89318 265.77992 
L 302.950948 265.606226 
L 302.994162 265.790697 
L 303.971882 265.67998 
L 303.971882 265.645797 
L 303.977408 265.787371 
L 304.051829 265.780563 
L 308.509999 265.664851 
L 308.509999 265.640201 
L 308.589891 265.797108 
L 309.153178 265.788381 
L 309.48793 265.678531 
L 309.48793 265.466616 
L 309.503117 265.792603 
L 309.575893 265.79039 
L 310.431475 265.676648 
L 310.431475 265.296633 
L 310.436811 265.7822 
L 310.53726 265.718523 
L 310.699978 265.748085 
L 310.699978 265.745882 
L 310.777935 265.503096 
L 310.777935 265.483494 
L 310.86373 265.574917 
L 311.057321 265.672214 
L 311.074376 265.692171 
L 311.386515 265.597362 
L 311.386515 265.436306 
L 311.48176 265.709554 
L 311.491177 265.680242 
L 311.620353 265.686353 
L 311.620353 265.68553 
L 311.620353 265.680678 
L 311.684313 265.754369 
L 311.699333 265.751463 
L 312.347681 265.639304 
L 312.398278 265.394096 
L 312.401958 265.713404 
L 312.440947 265.621502 
L 312.598651 265.555678 
L 312.659242 265.385359 
L 312.702523 265.38984 
L 312.820271 265.48132 
L 312.820271 265.480778 
L 312.939118 265.596448 
L 312.939118 265.592987 
L 313.859616 265.750834 
L 313.859616 265.748865 
L 315.232669 265.637613 
L 315.328859 265.579974 
L 315.428184 265.671393 
L 315.468886 265.636287 
L 315.468886 265.530883 
L 315.488798 265.67058 
L 315.552802 265.621362 
L 315.663867 265.490555 
L 315.69413 265.530707 
L 315.862073 265.561285 
L 316.269735 265.451174 
L 316.314239 265.416011 
L 316.338409 265.535751 
L 316.357965 265.497586 
L 316.755121 265.690252 
L 316.755121 265.690252 
L 317.314906 265.564361 
L 317.314906 265.540434 
L 317.379533 265.597207 
L 317.404515 265.591952 
L 317.595538 265.634372 
L 318.394364 265.706149 
L 318.558527 265.746991 
L 319.086761 265.635344 
L 319.178693 265.519716 
L 319.191389 265.539672 
L 319.475356 265.697849 
L 319.515269 265.655073 
L 321.072697 265.737524 
L 321.098935 265.757481 
L 321.977607 265.646172 
L 321.99623 265.397244 
L 322.072419 265.696596 
L 322.174868 265.585932 
L 322.473444 265.473727 
L 322.553847 265.253065 
L 322.916416 265.14176 
L 323.000955 265.039215 
L 323.025124 265.358523 
L 323.554569 265.329872 
L 323.892924 265.22166 
L 323.970726 264.912596 
L 323.975239 265.01238 
L 324.203429 265.073866 
L 324.510466 265.409689 
L 324.862918 265.377531 
L 325.08327 265.756004 
L 325.08327 265.731218 
L 325.08327 265.612554 
L 325.095432 265.752252 
L 325.183607 265.738589 
L 325.893992 265.625676 
L 325.893992 265.603092 
L 325.906999 265.74279 
L 325.963655 265.73827 
L 332.150176 265.683931 
L 332.150176 265.484641 
L 332.17986 265.714054 
L 336.547965 265.644974 
L 336.547965 263.876462 
L 336.650303 265.5096 
L 337.4932 265.516897 
L 337.616417 265.79429 
L 337.650025 265.70992 
L 337.730829 265.788061 
L 338.278084 265.676744 
L 338.278095 265.491436 
L 338.361344 265.791185 
L 338.376542 265.780449 
L 339.261041 265.651584 
L 339.261052 265.481595 
L 339.339932 265.789737 
L 339.369338 265.788912 
L 342.147507 265.668414 
L 342.147507 265.46133 
L 342.148041 265.783548 
L 342.249412 265.782923 
L 342.292081 265.76027 
L 342.292081 265.640731 
L 342.340587 265.785477 
L 343.370349 265.681839 
L 343.449218 265.606413 
L 343.453109 265.62637 
L 343.529932 265.736714 
L 343.529932 265.73046 
L 344.208121 265.735494 
L 344.226365 264.768526 
L 344.289168 265.72153 
L 344.327791 265.648371 
L 344.327791 265.575337 
L 344.370305 265.758941 
L 349.244119 265.633052 
L 349.244119 265.60348 
L 349.288056 265.755361 
L 349.32868 265.747893 
L 349.830798 265.757011 
L 349.830798 265.751635 
L 349.914959 265.605866 
L 349.836168 265.755897 
L 349.937428 265.720097 
L 350.777011 265.60948 
L 350.777011 265.418174 
L 350.778857 265.776042 
L 350.870021 265.766063 
L 351.742402 265.652557 
L 351.742402 265.576384 
L 351.784849 265.771874 
L 351.852422 265.768403 
L 351.932647 265.785773 
L 351.932647 265.784785 
L 352.707492 265.696906 
L 352.707492 265.405178 
L 352.708226 265.794641 
L 352.808518 265.781692 
L 353.039043 265.782626 
L 356.035074 265.675454 
L 356.035074 265.476264 
L 356.037998 265.783592 
L 356.095298 265.782653 
L 356.175568 265.707731 
L 356.175568 265.607637 
L 356.190087 265.797794 
L 356.215525 265.793131 
L 357.556826 265.766714 
L 357.556826 265.727292 
L 357.556826 265.668157 
L 357.571723 265.788241 
L 357.665023 265.785329 
L 357.696941 265.593881 
L 357.701844 265.793443 
L 357.740456 265.790434 
L 359.504006 265.685014 
L 359.569389 265.384474 
L 359.574158 265.791376 
L 359.609123 265.790298 
L 363.741468 265.73846 
L 363.741468 262.769078 
L 363.75174 265.777413 
L 363.781758 265.776363 
L 366.305111 265.692941 
L 366.305111 265.633548 
L 366.317362 265.793202 
L 366.385369 265.791017 
L 366.625177 265.694237 
L 366.625177 265.490452 
L 366.626689 265.791693 
L 369.059488 265.680226 
L 369.075108 265.255044 
L 369.191477 265.354828 
L 369.20295 265.574352 
L 369.386058 265.467304 
L 369.439201 264.504572 
L 369.483138 265.241881 
L 369.51519 265.209167 
L 369.62859 265.657606 
L 369.62859 265.654586 
L 369.994439 265.53983 
L 370.026235 265.514281 
L 370.080489 265.65399 
L 370.085403 265.621311 
L 370.271947 265.749507 
L 370.113931 265.55094 
L 370.271947 265.65591 
L 370.271947 265.613809 
L 370.292247 265.754666 
L 370.368537 265.744074 
L 370.39801 265.683371 
L 370.469385 265.749936 
L 370.951925 265.640349 
L 370.988646 265.562347 
L 371.04618 265.755493 
L 371.949412 265.643907 
L 371.979452 265.723734 
L 372.075598 265.669338 
L 372.189465 265.687228 
L 372.189476 265.686097 
L 372.189476 265.677803 
L 372.190398 265.69776 
L 372.270379 265.694608 
L 372.313693 265.588359 
L 372.313693 265.470506 
L 372.331671 265.729945 
L 372.390594 265.676362 
L 372.533667 265.728881 
L 373.829475 265.619656 
L 374.121947 265.690323 
L 376.10795 265.656885 
L 376.175 265.067166 
L 376.21876 265.087123 
L 376.247243 265.192079 
L 376.30431 265.730913 
L 376.391161 265.714433 
L 379.71862 265.614605 
L 379.71862 265.543604 
L 379.825695 265.776979 
L 382.487762 265.63126 
L 382.563362 265.084437 
L 382.584297 265.104394 
L 382.643554 265.000374 
L 382.733462 265.615202 
L 382.771952 265.600379 
L 383.874423 265.675497 
L 383.931368 265.774938 
L 383.931368 265.774935 
L 384.062078 265.774669 
L 384.796488 265.699691 
L 384.812175 265.489558 
L 384.863461 265.748996 
L 384.873867 265.736444 
L 384.993582 265.755938 
L 384.993582 265.750632 
L 388.761812 265.709332 
L 388.761812 265.610543 
L 388.773364 265.790154 
L 388.862861 265.773342 
L 388.890811 265.793299 
L 389.411095 265.687966 
L 389.473909 265.570105 
L 389.492198 265.769673 
L 392.365179 265.659324 
L 392.463781 265.618211 
L 393.304688 265.615084 
L 393.505117 265.791324 
L 395.92055 265.646938 
L 396.001453 265.551294 
L 396.01545 265.571251 
L 396.08448 265.569272 
L 396.092674 265.788797 
L 396.166662 265.783475 
L 396.552478 265.680375 
L 396.552478 265.626814 
L 396.595492 265.786469 
L 396.897626 265.680231 
L 396.966377 265.509733 
L 396.986722 265.769171 
L 397.852243 265.659283 
L 397.852254 265.452914 
L 397.943564 265.76615 
L 397.961096 265.757288 
L 398.169719 265.770753 
L 398.487273 265.761744 
L 398.487273 265.761744 
" style="fill:none;stroke:#ff0000;stroke-linecap:square;stroke-width:1.5;"/>
   </g>
   <g id="line2d_27">
    <path clip-path="url(#pbf9ad300c1)" d="M 73.832727 265.797818 
L 76.714424 265.658121 
L 76.714424 261.24767 
L 77.67499 261.048102 
L 77.67499 257.815102 
L 78.635556 257.675405 
L 78.635556 256.238516 
L 79.596121 256.038948 
L 79.596121 245.801114 
L 79.596121 246.14038 
L 80.240701 245.940812 
L 80.262558 229.97538 
L 80.474905 229.775812 
L 80.556687 218.963166 
L 80.556687 219.264534 
L 80.745231 219.068503 
L 80.826546 217.87942 
L 81.517252 217.580068 
L 81.517252 216.342747 
L 82.477818 216.003482 
L 82.477818 215.963568 
L 82.477818 215.963829 
L 83.438384 215.864045 
L 83.438384 215.684434 
L 83.438384 215.985533 
L 87.280646 215.805922 
L 87.280646 215.785965 
L 87.280646 215.985533 
L 89.201778 215.925663 
L 89.201778 215.746052 
L 89.201778 215.94562 
L 93.04404 215.746052 
L 93.04404 215.766008 
L 93.04404 215.965576 
L 107.452525 215.852013 
L 107.452525 215.855467 
L 107.452525 216.056614 
L 108.413091 215.95683 
L 108.413091 215.717348 
L 108.413091 215.819392 
L 109.373656 215.699651 
L 109.373656 215.679694 
L 109.373656 215.810857 
L 110.334222 215.691116 
L 110.334222 215.671159 
L 110.334222 215.717268 
L 113.215919 215.581017 
L 113.215919 215.461277 
L 113.215919 215.742293 
L 114.176484 215.622552 
L 114.176484 215.582639 
L 114.176484 215.631518 
L 115.13705 215.511777 
L 115.13705 215.172511 
L 115.13705 215.406296 
L 116.097616 215.286556 
L 116.097616 215.226685 
L 116.097616 215.272614 
L 117.058181 215.152874 
L 117.058181 215.073047 
L 117.058181 215.236612 
L 119.939878 215.080128 
L 119.939878 214.860603 
L 119.939878 214.976383 
L 121.86101 214.844322 
L 121.86101 211.930631 
L 121.86101 211.942114 
L 122.491525 211.742547 
L 122.506201 207.811059 
L 122.821575 207.731232 
L 122.821575 206.493911 
L 122.821575 207.015732 
L 123.782141 206.915948 
L 123.782141 206.397072 
L 123.782141 206.605332 
L 125.703272 206.347823 
L 126.663838 206.228082 
L 126.663838 206.168212 
L 126.663838 206.356664 
L 128.584969 206.205076 
L 128.584969 206.302377 
L 128.584969 206.322334 
L 129.545535 206.202594 
L 129.545535 206.182637 
L 129.545535 206.230515 
L 129.545535 206.230515 
L 130.5061 206.110775 
L 130.5061 206.090818 
L 130.5061 206.128902 
L 133.387797 205.969439 
L 133.387797 205.630174 
L 133.387797 205.8733 
L 135.308929 205.727702 
L 135.308929 205.667832 
L 135.308929 205.674026 
L 137.23006 205.542895 
L 137.23006 205.502982 
L 137.23006 205.530741 
L 140.111757 205.391937 
L 140.111757 205.252239 
L 140.111757 205.498138 
L 141.072323 205.378398 
L 141.072323 205.278614 
L 141.072323 205.385527 
L 142.032888 205.265787 
L 142.032888 205.166003 
L 142.032888 205.246662 
L 143.954019 205.107472 
L 143.954019 205.047602 
L 143.954019 205.097096 
L 147.796282 204.91978 
L 147.796282 204.899823 
L 147.796282 204.905275 
L 157.401939 204.666298 
L 157.401939 204.127464 
L 157.401939 204.646972 
L 161.244201 204.589932 
L 161.244201 204.569975 
L 161.244201 204.29058 
L 161.244201 204.429196 
L 161.903367 204.544852 
L 161.936742 205.11045 
L 161.936887 205.81816 
L 161.937176 205.019888 
L 162.204767 204.755359 
L 162.204767 204.786213 
L 163.165332 204.666472 
L 163.165332 204.067768 
L 163.165332 204.49552 
L 164.125898 204.455607 
L 164.125898 204.256039 
L 164.125898 204.275001 
L 167.007595 204.238517 
L 167.007595 204.178647 
L 167.007595 204.118777 
L 167.007595 204.152337 
L 168.928726 204.01355 
L 168.928726 203.993593 
L 168.928726 204.019317 
L 172.770989 203.889882 
L 172.770989 203.89364 
L 173.731555 203.694072 
L 173.731555 203.514461 
L 173.731555 203.672773 
L 176.613251 203.521362 
L 176.613251 203.301837 
L 176.613251 203.382123 
L 183.337211 203.142054 
L 183.337211 203.102141 
L 183.337211 203.147273 
L 190.061171 202.914514 
L 190.061171 202.894557 
L 190.061171 202.953841 
L 191.021736 202.8341 
L 191.021736 202.814143 
L 191.021736 202.84262 
L 193.903433 202.68602 
L 193.903433 202.646107 
L 193.903433 202.683659 
L 195.824564 202.53642 
L 195.824564 202.516463 
L 195.824564 202.545185 
L 200.627393 202.342956 
L 200.627393 202.163345 
L 200.627393 202.269596 
L 201.587958 202.149855 
L 201.587958 202.129898 
L 201.587958 202.173339 
L 203.50909 202.057013 
L 203.50909 201.977186 
L 203.50909 202.036813 
L 207.351352 201.862891 
L 207.351352 201.80302 
L 207.351352 201.861681 
L 210.233049 201.727748 
L 210.233049 201.667877 
L 210.233049 201.717423 
L 214.075312 201.622316 
L 214.075312 200.804088 
L 214.075312 200.939282 
L 215.996443 200.890429 
L 215.996443 200.890808 
L 215.996443 202.088216 
L 216.957009 202.068259 
L 216.957009 200.870851 
L 216.957009 200.890137 
L 220.799271 200.711306 
L 220.799271 200.691349 
L 220.799271 200.749476 
L 223.680968 200.585642 
L 223.680968 200.465902 
L 223.680968 200.494856 
L 227.523231 200.33517 
L 227.523231 200.295257 
L 227.523231 200.360089 
L 229.444362 200.221419 
L 229.444362 200.181506 
L 229.444362 200.410963 
L 230.404928 200.171481 
L 230.404928 199.892086 
L 230.404928 200.113051 
L 231.365493 200.080558 
L 231.365493 200.040644 
L 231.365493 199.920903 
L 231.365493 200.064021 
L 232.326059 199.92444 
L 232.326059 199.904484 
L 232.326059 199.907996 
L 235.207756 199.748773 
L 235.207756 199.668946 
L 235.207756 199.715733 
L 237.128887 199.583804 
L 237.128887 199.523934 
L 237.128887 199.536898 
L 243.852847 199.348461 
L 243.852847 199.04911 
L 243.942644 199.194132 
L 244.544443 199.250639 
L 244.545065 199.18619 
L 244.548012 199.725858 
L 244.551036 199.248477 
L 244.813412 199.538365 
L 244.813412 199.538365 
L 245.44723 199.581945 
L 245.649749 199.772703 
L 245.651217 200.722351 
L 245.655141 199.639916 
L 246.418702 199.578455 
L 246.418936 203.110724 
L 246.521174 200.014508 
L 246.53556 200.146132 
L 246.539829 201.821443 
L 246.536505 200.044742 
L 246.634563 200.667239 
L 246.685826 200.128406 
L 246.68785 201.186312 
L 246.687905 202.329904 
L 246.746217 200.212455 
L 246.789554 200.222764 
L 247.695109 199.783715 
L 247.695109 198.247042 
L 247.695109 198.274747 
L 248.003613 198.157297 
L 248.084472 198.078107 
L 248.135246 197.978906 
L 248.236517 181.42951 
L 248.266824 178.64409 
L 248.378045 166.518987 
L 248.388173 166.259771 
L 248.478815 152.157354 
L 248.655675 152.178047 
L 249.258719 152.04466 
L 249.349962 150.902847 
L 249.420903 150.88045 
L 249.616241 149.683043 
L 249.694609 149.750817 
L 249.927657 149.631309 
L 250.039145 142.146051 
L 250.04924 141.886613 
L 250.160739 132.830458 
L 250.170823 132.394556 
L 250.2824 116.387123 
L 250.292517 115.19 
L 250.393787 105.116818 
L 250.40386 104.957939 
L 250.505175 93.266567 
L 250.515248 93.033935 
L 250.616563 83.457574 
L 250.62668 83.198877 
L 250.636797 82.840224 
L 250.879785 82.722512 
L 250.95066 82.389249 
L 251.153479 82.232142 
L 251.261031 78.542075 
L 251.537372 78.502218 
L 251.537372 78.599375 
L 251.537372 78.724406 
L 252.092199 78.546358 
L 252.112488 78.446631 
L 252.234015 78.339484 
L 252.274506 78.29957 
L 253.458503 78.23102 
L 254.737323 78.070847 
L 254.828554 77.892318 
L 255.011073 77.572849 
L 256.713909 77.198447 
L 256.794979 77.059038 
L 258.261331 76.958286 
L 258.261331 77.096549 
L 258.261331 77.124724 
L 258.781037 77.022312 
L 258.963356 76.742726 
L 261.143028 76.698432 
L 261.143028 76.83808 
L 261.143028 77.35384 
L 261.760158 77.120671 
L 261.90202 76.45452 
L 264.024725 75.830281 
L 264.024725 75.868213 
L 264.024725 76.025307 
L 264.089975 76.020348 
L 264.33314 75.82135 
L 264.424327 75.539839 
L 264.51547 75.343997 
L 264.985291 75.308227 
L 264.985291 75.348121 
L 264.985291 76.893886 
L 265.285646 76.695485 
L 265.366682 76.437508 
L 265.407251 76.397953 
L 265.478192 76.00178 
L 265.488432 75.170943 
L 266.329394 75.053998 
L 268.365682 74.867672 
L 268.507465 74.788404 
L 269.257095 74.620128 
L 269.788119 74.482783 
L 269.788119 74.832574 
L 269.804496 74.819027 
L 270.513624 74.710749 
L 270.523808 74.41582 
L 272.013385 74.333596 
L 272.094455 74.293796 
L 275.551513 74.180061 
L 275.551513 74.345339 
L 275.551513 74.462732 
L 275.551513 74.462732 
L 276.27942 74.25115 
L 276.360523 74.181049 
L 276.512079 74.131107 
L 276.512079 74.135229 
L 276.512079 74.47661 
L 276.979598 74.376222 
L 277.050551 74.120443 
L 277.472644 74.017549 
L 277.472644 74.063624 
L 277.946846 73.767106 
L 281.314907 73.57143 
L 281.314907 73.606779 
L 281.314907 73.928106 
L 281.626635 73.848626 
L 281.728084 72.880483 
L 281.809343 72.788192 
L 281.944511 72.549078 
L 282.066249 72.431612 
L 282.086572 72.374575 
L 282.572803 72.335622 
L 282.664046 72.118155 
L 282.927423 71.89991 
L 283.130054 71.802109 
L 283.236038 71.802109 
L 283.236038 71.802725 
L 283.236038 72.307162 
L 283.782671 71.870129 
L 283.883942 71.65373 
L 284.196604 71.596839 
L 284.196604 71.639695 
L 284.196604 71.882574 
L 284.196604 71.882574 
L 284.61913 71.733207 
L 284.669816 71.673841 
L 284.92341 71.525494 
L 285.025036 71.347578 
L 285.15717 71.414824 
L 285.15717 71.914907 
L 286.040089 71.74795 
L 286.117735 71.217153 
L 286.117735 71.217422 
L 288.584032 71.07715 
L 288.867799 70.918078 
L 289.334118 70.815983 
L 289.557316 70.739098 
L 289.959998 70.684805 
L 289.959998 70.797196 
L 289.959998 70.883253 
L 290.489788 70.795352 
L 290.489799 70.667951 
L 291.250213 70.565407 
L 291.453055 70.506776 
L 291.881129 70.387431 
L 291.881129 70.406396 
L 291.881129 70.585132 
L 292.190189 70.457509 
L 292.271348 70.234446 
L 292.841695 70.022491 
L 292.841695 70.027673 
L 292.841695 70.228222 
L 293.284733 70.223206 
L 293.396244 70.043294 
L 295.069095 70.089385 
L 295.170566 69.481806 
L 295.261731 69.344085 
L 297.350806 68.999813 
L 297.391374 68.960258 
L 299.139992 68.862323 
L 299.991561 68.736382 
L 301.938507 68.626709 
L 302.345247 68.546945 
L 302.447351 68.555731 
L 302.447351 68.745163 
L 302.466796 68.741871 
L 302.953583 68.596998 
L 302.994162 68.496288 
L 303.407917 68.461334 
L 303.407917 68.531677 
L 303.407917 68.599295 
L 303.460348 68.598878 
L 303.977363 68.497559 
L 304.017854 68.404682 
L 304.368482 68.363416 
L 304.368482 68.379911 
L 305.329048 68.306419 
L 305.329048 68.186678 
L 305.329048 68.314439 
L 308.210745 68.129525 
L 308.210745 68.168175 
L 308.210745 68.351653 
L 309.076833 67.961066 
L 309.171311 67.841572 
L 309.171311 67.995916 
L 309.493 67.796348 
L 309.563909 67.637355 
L 310.131876 67.472852 
L 310.131876 67.273284 
L 310.131876 67.721314 
L 310.436778 67.601753 
L 310.436811 67.242531 
L 310.721123 67.13891 
L 311.390473 66.808895 
L 311.48176 66.715149 
L 311.684313 66.601957 
L 312.053008 66.142951 
L 312.053008 65.883513 
L 312.053008 66.170242 
L 313.013573 66.150285 
L 313.013573 66.010588 
L 313.013573 66.012676 
L 314.934705 65.835567 
L 314.934705 65.556172 
L 314.934705 65.803348 
L 315.89527 65.723521 
L 315.89527 65.404212 
L 315.89527 65.449602 
L 316.855836 65.349818 
L 316.855836 65.21012 
L 316.855836 65.384542 
L 317.816402 65.304715 
L 317.816402 65.165018 
L 317.816402 65.177368 
L 318.776967 65.097541 
L 318.776967 64.91793 
L 318.776967 64.992989 
L 320.698098 64.851794 
L 320.698098 64.831837 
L 320.698098 64.83256 
L 321.658664 64.513252 
L 321.658664 64.493295 
L 321.658664 64.757471 
L 322.61923 64.398249 
L 322.61923 64.424449 
L 323.579795 64.224881 
L 323.579795 63.805788 
L 323.579795 63.898183 
L 324.540361 63.678658 
L 324.540361 63.239609 
L 324.540361 63.407146 
L 326.461492 63.171042 
L 326.461492 63.171305 
L 328.382624 63.052312 
L 328.382624 62.952528 
L 328.382624 63.035455 
L 331.264321 62.577099 
L 331.264321 62.497272 
L 331.264321 62.766091 
L 332.169687 62.661574 
L 332.224886 62.48229 
L 332.224886 62.641562 
L 332.52444 62.601866 
L 332.778023 62.426758 
L 335.106583 62.362906 
L 335.106583 62.421351 
L 335.106583 62.464543 
L 335.202918 62.461093 
L 336.01374 62.345644 
L 336.067149 62.325688 
L 336.067149 60.908756 
L 336.067149 62.786845 
L 336.388772 62.667875 
L 336.490131 62.62832 
L 336.551112 62.511328 
L 336.581618 62.326313 
L 337.027714 62.225311 
L 337.027714 62.331366 
L 337.453476 62.266039 
L 337.616417 61.990518 
L 338.2854 61.886629 
L 338.376542 61.767471 
L 339.268923 61.511736 
L 339.339932 61.432504 
L 339.654139 61.232446 
L 339.909411 61.135442 
L 339.909411 61.136537 
L 341.830543 61.079106 
L 341.830543 61.110238 
L 341.830543 61.297256 
L 342.148007 61.196597 
L 342.249412 60.807932 
L 342.492677 60.530904 
L 342.791108 60.471034 
L 342.791108 60.271466 
L 342.791108 60.518252 
L 343.751674 60.300661 
L 343.751674 60.260747 
L 343.751674 61.375556 
L 344.208121 61.312781 
L 344.370305 60.375072 
L 344.71224 60.282078 
L 344.71224 60.262121 
L 344.71224 60.320116 
L 346.049082 60.18253 
L 348.554502 60.005085 
L 348.554502 59.745647 
L 348.554502 60.033018 
L 349.024001 59.920206 
L 349.359054 59.787157 
L 349.515068 59.68786 
L 349.515068 59.753382 
L 349.836168 59.701281 
L 350.109674 59.523438 
L 350.475634 59.448064 
L 350.475634 59.590709 
L 350.475634 59.604748 
L 350.778834 59.585037 
L 350.870021 59.139885 
L 351.436199 59.001434 
L 351.436199 59.093682 
L 351.744225 58.975427 
L 351.835568 58.88422 
L 352.708226 58.565946 
L 352.708226 58.407828 
L 353.286211 58.362878 
L 353.35733 58.362878 
L 353.35733 58.46165 
L 353.35733 58.4783 
L 354.281697 58.374712 
L 354.317896 58.354755 
L 354.317896 58.36168 
L 355.278462 58.260817 
L 355.278462 58.390078 
L 355.278462 58.64223 
L 356.027914 58.471915 
L 356.037998 58.182962 
L 356.331893 58.037949 
L 357.199593 57.83762 
L 357.199593 57.842329 
L 357.199593 58.164341 
L 357.295183 58.16146 
L 357.508853 58.134387 
L 357.701844 57.812027 
L 357.946344 57.722042 
L 358.742724 57.613882 
L 359.120724 57.594172 
L 359.120724 57.62718 
L 359.120724 58.230045 
L 359.513333 58.071745 
L 359.574158 57.596107 
L 360.847986 57.489351 
L 362.002421 57.469487 
L 362.002421 57.349746 
L 362.002421 57.543979 
L 362.584286 57.437061 
L 362.962987 57.412669 
L 362.962987 57.439804 
L 362.962987 60.346666 
L 363.74159 60.278742 
L 363.75174 57.519388 
L 365.271902 57.440718 
L 365.844684 57.351727 
L 365.844684 57.231986 
L 365.844684 57.547647 
L 366.480191 57.543774 
L 366.80525 57.246909 
L 366.80525 57.247104 
L 368.726381 57.207198 
L 368.726381 56.169445 
L 368.726381 56.990614 
L 369.686946 56.811003 
L 369.686946 56.292127 
L 369.686946 56.407994 
L 370.647512 56.128599 
L 370.647512 56.028815 
L 370.647512 56.093677 
L 371.608078 55.973936 
L 371.608078 55.594757 
L 371.608078 55.893256 
L 372.568643 55.793472 
L 372.568643 55.633818 
L 372.568643 55.829747 
L 375.45034 55.436941 
L 375.45034 54.818281 
L 375.45034 55.443861 
L 376.410906 55.304164 
L 376.410906 55.31917 
L 377.371472 55.099645 
L 377.371472 54.999861 
L 377.371472 55.076491 
L 379.292603 54.948717 
L 379.292603 54.689279 
L 379.292603 54.86581 
L 382.1743 54.791634 
L 382.1743 53.973405 
L 382.1743 54.205883 
L 383.134866 54.185926 
L 383.134866 53.826704 
L 383.134866 53.885342 
L 384.095431 53.805515 
L 384.095431 53.52612 
L 384.095431 53.779141 
L 385.055997 53.659401 
L 385.055997 53.519703 
L 385.055997 53.607035 
L 386.016562 53.487294 
L 386.016562 53.38751 
L 386.016562 53.490205 
L 387.937694 53.450524 
L 387.937694 53.250956 
L 387.937694 53.464826 
L 388.898259 53.404955 
L 388.898259 53.145517 
L 388.898259 53.379833 
L 389.858825 53.300006 
L 389.858825 53.140352 
L 389.858825 53.265426 
L 391.779956 53.106145 
L 391.779956 53.246776 
L 391.779956 53.282725 
L 392.740522 53.242811 
L 392.740522 52.963416 
L 392.740522 53.033858 
L 394.661653 53.015895 
L 394.661653 53.016126 
L 395.622219 52.776644 
L 395.622219 52.497249 
L 395.622219 52.732929 
L 396.582785 52.553318 
L 396.582785 52.154182 
L 396.582785 52.223934 
L 397.54335 52.223934 
L 397.54335 52.327781 
" style="fill:none;stroke:#008000;stroke-linecap:square;stroke-width:1.5;"/>
   </g>
   <g id="line2d_28">
    <defs>
     <path d="M 0 3 
C 0.795609 3 1.55874 2.683901 2.12132 2.12132 
C 2.683901 1.55874 3 0.795609 3 0 
C 3 -0.795609 2.683901 -1.55874 2.12132 -2.12132 
C 1.55874 -2.683901 0.795609 -3 0 -3 
C -0.795609 -3 -1.55874 -2.683901 -2.12132 -2.12132 
C -2.683901 -1.55874 -3 -0.795609 -3 0 
C -3 0.795609 -2.683901 1.55874 -2.12132 2.12132 
C -1.55874 2.683901 -0.795609 3 0 3 
z
" id="m713726d596" style="stroke:#bfbf00;"/>
    </defs>
    <g clip-path="url(#pbf9ad300c1)">
     <use style="fill:#bfbf00;stroke:#bfbf00;" x="76.748088" xlink:href="#m713726d596" y="255.819423"/>
     <use style="fill:#bfbf00;stroke:#bfbf00;" x="80.014979" xlink:href="#m713726d596" y="225.884238"/>
     <use style="fill:#bfbf00;stroke:#bfbf00;" x="248.13429" xlink:href="#m713726d596" y="215.905842"/>
     <use style="fill:#bfbf00;stroke:#bfbf00;" x="249.959365" xlink:href="#m713726d596" y="215.905842"/>
     <use style="fill:#bfbf00;stroke:#bfbf00;" x="250.321334" xlink:href="#m713726d596" y="255.819423"/>
     <use style="fill:#bfbf00;stroke:#bfbf00;" x="250.388751" xlink:href="#m713726d596" y="255.819423"/>
     <use style="fill:#bfbf00;stroke:#bfbf00;" x="251.154391" xlink:href="#m713726d596" y="261.80646"/>
    </g>
   </g>
   <g id="line2d_29">
    <defs>
     <path d="M 0 3 
C 0.795609 3 1.55874 2.683901 2.12132 2.12132 
C 2.683901 1.55874 3 0.795609 3 0 
C 3 -0.795609 2.683901 -1.55874 2.12132 -2.12132 
C 1.55874 -2.683901 0.795609 -3 0 -3 
C -0.795609 -3 -1.55874 -2.683901 -2.12132 -2.12132 
C -2.683901 -1.55874 -3 -0.795609 -3 0 
C -3 0.795609 -2.683901 1.55874 -2.12132 2.12132 
C -1.55874 2.683901 -0.795609 3 0 3 
z
" id="mcf27107a08" style="stroke:#008000;"/>
    </defs>
    <g clip-path="url(#pbf9ad300c1)">
     <use style="fill:#008000;stroke:#008000;" x="122.421384" xlink:href="#mcf27107a08" y="257.297822"/>
     <use style="fill:#008000;stroke:#008000;" x="214.635908" xlink:href="#mcf27107a08" y="263.807527"/>
    </g>
   </g>
   <g id="patch_3">
    <path d="M 57.6 276.48 
L 57.6 41.472 
" style="fill:none;stroke:#000000;stroke-linecap:square;stroke-linejoin:miter;stroke-width:0.8;"/>
   </g>
   <g id="patch_4">
    <path d="M 414.72 276.48 
L 414.72 41.472 
" style="fill:none;stroke:#000000;stroke-linecap:square;stroke-linejoin:miter;stroke-width:0.8;"/>
   </g>
   <g id="patch_5">
    <path d="M 57.6 276.48 
L 414.72 276.48 
" style="fill:none;stroke:#000000;stroke-linecap:square;stroke-linejoin:miter;stroke-width:0.8;"/>
   </g>
   <g id="patch_6">
    <path d="M 57.6 41.472 
L 414.72 41.472 
" style="fill:none;stroke:#000000;stroke-linecap:square;stroke-linejoin:miter;stroke-width:0.8;"/>
   </g>
   <g id="text_15">
    <!-- My Bondora earnings -->
    <defs>
     <path d="M 9.8125 72.90625 
L 24.515625 72.90625 
L 43.109375 23.296875 
L 61.8125 72.90625 
L 76.515625 72.90625 
L 76.515625 0 
L 66.890625 0 
L 66.890625 64.015625 
L 48.09375 14.015625 
L 38.1875 14.015625 
L 19.390625 64.015625 
L 19.390625 0 
L 9.8125 0 
z
" id="DejaVuSans-4d"/>
     <path d="M 32.171875 -5.078125 
Q 28.375 -14.84375 24.75 -17.8125 
Q 21.140625 -20.796875 15.09375 -20.796875 
L 7.90625 -20.796875 
L 7.90625 -13.28125 
L 13.1875 -13.28125 
Q 16.890625 -13.28125 18.9375 -11.515625 
Q 21 -9.765625 23.484375 -3.21875 
L 25.09375 0.875 
L 2.984375 54.6875 
L 12.5 54.6875 
L 29.59375 11.921875 
L 46.6875 54.6875 
L 56.203125 54.6875 
z
" id="DejaVuSans-79"/>
     <path id="DejaVuSans-20"/>
     <path d="M 19.671875 34.8125 
L 19.671875 8.109375 
L 35.5 8.109375 
Q 43.453125 8.109375 47.28125 11.40625 
Q 51.125 14.703125 51.125 21.484375 
Q 51.125 28.328125 47.28125 31.5625 
Q 43.453125 34.8125 35.5 34.8125 
z
M 19.671875 64.796875 
L 19.671875 42.828125 
L 34.28125 42.828125 
Q 41.5 42.828125 45.03125 45.53125 
Q 48.578125 48.25 48.578125 53.8125 
Q 48.578125 59.328125 45.03125 62.0625 
Q 41.5 64.796875 34.28125 64.796875 
z
M 9.8125 72.90625 
L 35.015625 72.90625 
Q 46.296875 72.90625 52.390625 68.21875 
Q 58.5 63.53125 58.5 54.890625 
Q 58.5 48.1875 55.375 44.234375 
Q 52.25 40.28125 46.1875 39.3125 
Q 53.46875 37.75 57.5 32.78125 
Q 61.53125 27.828125 61.53125 20.40625 
Q 61.53125 10.640625 54.890625 5.3125 
Q 48.25 0 35.984375 0 
L 9.8125 0 
z
" id="DejaVuSans-42"/>
     <path d="M 30.609375 48.390625 
Q 23.390625 48.390625 19.1875 42.75 
Q 14.984375 37.109375 14.984375 27.296875 
Q 14.984375 17.484375 19.15625 11.84375 
Q 23.34375 6.203125 30.609375 6.203125 
Q 37.796875 6.203125 41.984375 11.859375 
Q 46.1875 17.53125 46.1875 27.296875 
Q 46.1875 37.015625 41.984375 42.703125 
Q 37.796875 48.390625 30.609375 48.390625 
z
M 30.609375 56 
Q 42.328125 56 49.015625 48.375 
Q 55.71875 40.765625 55.71875 27.296875 
Q 55.71875 13.875 49.015625 6.21875 
Q 42.328125 -1.421875 30.609375 -1.421875 
Q 18.84375 -1.421875 12.171875 6.21875 
Q 5.515625 13.875 5.515625 27.296875 
Q 5.515625 40.765625 12.171875 48.375 
Q 18.84375 56 30.609375 56 
z
" id="DejaVuSans-6f"/>
     <path d="M 54.890625 33.015625 
L 54.890625 0 
L 45.90625 0 
L 45.90625 32.71875 
Q 45.90625 40.484375 42.875 44.328125 
Q 39.84375 48.1875 33.796875 48.1875 
Q 26.515625 48.1875 22.3125 43.546875 
Q 18.109375 38.921875 18.109375 30.90625 
L 18.109375 0 
L 9.078125 0 
L 9.078125 54.6875 
L 18.109375 54.6875 
L 18.109375 46.1875 
Q 21.34375 51.125 25.703125 53.5625 
Q 30.078125 56 35.796875 56 
Q 45.21875 56 50.046875 50.171875 
Q 54.890625 44.34375 54.890625 33.015625 
z
" id="DejaVuSans-6e"/>
     <path d="M 41.109375 46.296875 
Q 39.59375 47.171875 37.8125 47.578125 
Q 36.03125 48 33.890625 48 
Q 26.265625 48 22.1875 43.046875 
Q 18.109375 38.09375 18.109375 28.8125 
L 18.109375 0 
L 9.078125 0 
L 9.078125 54.6875 
L 18.109375 54.6875 
L 18.109375 46.1875 
Q 20.953125 51.171875 25.484375 53.578125 
Q 30.03125 56 36.53125 56 
Q 37.453125 56 38.578125 55.875 
Q 39.703125 55.765625 41.0625 55.515625 
z
" id="DejaVuSans-72"/>
     <path d="M 9.421875 54.6875 
L 18.40625 54.6875 
L 18.40625 0 
L 9.421875 0 
z
M 9.421875 75.984375 
L 18.40625 75.984375 
L 18.40625 64.59375 
L 9.421875 64.59375 
z
" id="DejaVuSans-69"/>
     <path d="M 45.40625 27.984375 
Q 45.40625 37.75 41.375 43.109375 
Q 37.359375 48.484375 30.078125 48.484375 
Q 22.859375 48.484375 18.828125 43.109375 
Q 14.796875 37.75 14.796875 27.984375 
Q 14.796875 18.265625 18.828125 12.890625 
Q 22.859375 7.515625 30.078125 7.515625 
Q 37.359375 7.515625 41.375 12.890625 
Q 45.40625 18.265625 45.40625 27.984375 
z
M 54.390625 6.78125 
Q 54.390625 -7.171875 48.1875 -13.984375 
Q 42 -20.796875 29.203125 -20.796875 
Q 24.46875 -20.796875 20.265625 -20.09375 
Q 16.0625 -19.390625 12.109375 -17.921875 
L 12.109375 -9.1875 
Q 16.0625 -11.328125 19.921875 -12.34375 
Q 23.78125 -13.375 27.78125 -13.375 
Q 36.625 -13.375 41.015625 -8.765625 
Q 45.40625 -4.15625 45.40625 5.171875 
L 45.40625 9.625 
Q 42.625 4.78125 38.28125 2.390625 
Q 33.9375 0 27.875 0 
Q 17.828125 0 11.671875 7.65625 
Q 5.515625 15.328125 5.515625 27.984375 
Q 5.515625 40.671875 11.671875 48.328125 
Q 17.828125 56 27.875 56 
Q 33.9375 56 38.28125 53.609375 
Q 42.625 51.21875 45.40625 46.390625 
L 45.40625 54.6875 
L 54.390625 54.6875 
z
" id="DejaVuSans-67"/>
     <path d="M 44.28125 53.078125 
L 44.28125 44.578125 
Q 40.484375 46.53125 36.375 47.5 
Q 32.28125 48.484375 27.875 48.484375 
Q 21.1875 48.484375 17.84375 46.4375 
Q 14.5 44.390625 14.5 40.28125 
Q 14.5 37.15625 16.890625 35.375 
Q 19.28125 33.59375 26.515625 31.984375 
L 29.59375 31.296875 
Q 39.15625 29.25 43.1875 25.515625 
Q 47.21875 21.78125 47.21875 15.09375 
Q 47.21875 7.46875 41.1875 3.015625 
Q 35.15625 -1.421875 24.609375 -1.421875 
Q 20.21875 -1.421875 15.453125 -0.5625 
Q 10.6875 0.296875 5.421875 2 
L 5.421875 11.28125 
Q 10.40625 8.6875 15.234375 7.390625 
Q 20.0625 6.109375 24.8125 6.109375 
Q 31.15625 6.109375 34.5625 8.28125 
Q 37.984375 10.453125 37.984375 14.40625 
Q 37.984375 18.0625 35.515625 20.015625 
Q 33.0625 21.96875 24.703125 23.78125 
L 21.578125 24.515625 
Q 13.234375 26.265625 9.515625 29.90625 
Q 5.8125 33.546875 5.8125 39.890625 
Q 5.8125 47.609375 11.28125 51.796875 
Q 16.75 56 26.8125 56 
Q 31.78125 56 36.171875 55.265625 
Q 40.578125 54.546875 44.28125 53.078125 
z
" id="DejaVuSans-73"/>
    </defs>
    <g transform="translate(172.363125 35.472)scale(0.12 -0.12)">
     <use xlink:href="#DejaVuSans-4d"/>
     <use x="86.279297" xlink:href="#DejaVuSans-79"/>
     <use x="145.458984" xlink:href="#DejaVuSans-20"/>
     <use x="177.246094" xlink:href="#DejaVuSans-42"/>
     <use x="245.849609" xlink:href="#DejaVuSans-6f"/>
     <use x="307.03125" xlink:href="#DejaVuSans-6e"/>
     <use x="370.410156" xlink:href="#DejaVuSans-64"/>
     <use x="433.886719" xlink:href="#DejaVuSans-6f"/>
     <use x="495.068359" xlink:href="#DejaVuSans-72"/>
     <use x="536.181641" xlink:href="#DejaVuSans-61"/>
     <use x="597.460938" xlink:href="#DejaVuSans-20"/>
     <use x="629.248047" xlink:href="#DejaVuSans-65"/>
     <use x="690.771484" xlink:href="#DejaVuSans-61"/>
     <use x="752.050781" xlink:href="#DejaVuSans-72"/>
     <use x="793.148438" xlink:href="#DejaVuSans-6e"/>
     <use x="856.527344" xlink:href="#DejaVuSans-69"/>
     <use x="884.310547" xlink:href="#DejaVuSans-6e"/>
     <use x="947.689453" xlink:href="#DejaVuSans-67"/>
     <use x="1011.166016" xlink:href="#DejaVuSans-73"/>
    </g>
   </g>
   <g id="legend_1">
    <g id="patch_7">
     <path d="M 64.6 122.862625 
L 158.45 122.862625 
Q 160.45 122.862625 160.45 120.862625 
L 160.45 48.472 
Q 160.45 46.472 158.45 46.472 
L 64.6 46.472 
Q 62.6 46.472 62.6 48.472 
L 62.6 120.862625 
Q 62.6 122.862625 64.6 122.862625 
z
" style="fill:#ffffff;opacity:0.8;stroke:#cccccc;stroke-linejoin:miter;"/>
    </g>
    <g id="line2d_30">
     <path d="M 66.6 54.570437 
L 86.6 54.570437 
" style="fill:none;stroke:#0000ff;stroke-linecap:square;stroke-width:1.5;"/>
    </g>
    <g id="line2d_31"/>
    <g id="text_16">
     <!-- Interest -->
     <defs>
      <path d="M 9.8125 72.90625 
L 19.671875 72.90625 
L 19.671875 0 
L 9.8125 0 
z
" id="DejaVuSans-49"/>
     </defs>
     <g transform="translate(94.6 58.070437)scale(0.1 -0.1)">
      <use xlink:href="#DejaVuSans-49"/>
      <use x="29.492188" xlink:href="#DejaVuSans-6e"/>
      <use x="92.871094" xlink:href="#DejaVuSans-74"/>
      <use x="132.080078" xlink:href="#DejaVuSans-65"/>
      <use x="193.603516" xlink:href="#DejaVuSans-72"/>
      <use x="234.685547" xlink:href="#DejaVuSans-65"/>
      <use x="296.208984" xlink:href="#DejaVuSans-73"/>
      <use x="348.308594" xlink:href="#DejaVuSans-74"/>
     </g>
    </g>
    <g id="line2d_32">
     <path d="M 66.6 69.248562 
L 86.6 69.248562 
" style="fill:none;stroke:#ff0000;stroke-linecap:square;stroke-width:1.5;"/>
    </g>
    <g id="line2d_33"/>
    <g id="text_17">
     <!-- Balance -->
     <defs>
      <path d="M 9.421875 75.984375 
L 18.40625 75.984375 
L 18.40625 0 
L 9.421875 0 
z
" id="DejaVuSans-6c"/>
      <path d="M 48.78125 52.59375 
L 48.78125 44.1875 
Q 44.96875 46.296875 41.140625 47.34375 
Q 37.3125 48.390625 33.40625 48.390625 
Q 24.65625 48.390625 19.8125 42.84375 
Q 14.984375 37.3125 14.984375 27.296875 
Q 14.984375 17.28125 19.8125 11.734375 
Q 24.65625 6.203125 33.40625 6.203125 
Q 37.3125 6.203125 41.140625 7.25 
Q 44.96875 8.296875 48.78125 10.40625 
L 48.78125 2.09375 
Q 45.015625 0.34375 40.984375 -0.53125 
Q 36.96875 -1.421875 32.421875 -1.421875 
Q 20.0625 -1.421875 12.78125 6.34375 
Q 5.515625 14.109375 5.515625 27.296875 
Q 5.515625 40.671875 12.859375 48.328125 
Q 20.21875 56 33.015625 56 
Q 37.15625 56 41.109375 55.140625 
Q 45.0625 54.296875 48.78125 52.59375 
z
" id="DejaVuSans-63"/>
     </defs>
     <g transform="translate(94.6 72.748562)scale(0.1 -0.1)">
      <use xlink:href="#DejaVuSans-42"/>
      <use x="68.603516" xlink:href="#DejaVuSans-61"/>
      <use x="129.882812" xlink:href="#DejaVuSans-6c"/>
      <use x="157.666016" xlink:href="#DejaVuSans-61"/>
      <use x="218.945312" xlink:href="#DejaVuSans-6e"/>
      <use x="282.324219" xlink:href="#DejaVuSans-63"/>
      <use x="337.304688" xlink:href="#DejaVuSans-65"/>
     </g>
    </g>
    <g id="line2d_34">
     <path d="M 66.6 83.926687 
L 86.6 83.926687 
" style="fill:none;stroke:#008000;stroke-linecap:square;stroke-width:1.5;"/>
    </g>
    <g id="line2d_35"/>
    <g id="text_18">
     <!-- Investments -->
     <defs>
      <path d="M 2.984375 54.6875 
L 12.5 54.6875 
L 29.59375 8.796875 
L 46.6875 54.6875 
L 56.203125 54.6875 
L 35.6875 0 
L 23.484375 0 
z
" id="DejaVuSans-76"/>
      <path d="M 52 44.1875 
Q 55.375 50.25 60.0625 53.125 
Q 64.75 56 71.09375 56 
Q 79.640625 56 84.28125 50.015625 
Q 88.921875 44.046875 88.921875 33.015625 
L 88.921875 0 
L 79.890625 0 
L 79.890625 32.71875 
Q 79.890625 40.578125 77.09375 44.375 
Q 74.3125 48.1875 68.609375 48.1875 
Q 61.625 48.1875 57.5625 43.546875 
Q 53.515625 38.921875 53.515625 30.90625 
L 53.515625 0 
L 44.484375 0 
L 44.484375 32.71875 
Q 44.484375 40.625 41.703125 44.40625 
Q 38.921875 48.1875 33.109375 48.1875 
Q 26.21875 48.1875 22.15625 43.53125 
Q 18.109375 38.875 18.109375 30.90625 
L 18.109375 0 
L 9.078125 0 
L 9.078125 54.6875 
L 18.109375 54.6875 
L 18.109375 46.1875 
Q 21.1875 51.21875 25.484375 53.609375 
Q 29.78125 56 35.6875 56 
Q 41.65625 56 45.828125 52.96875 
Q 50 49.953125 52 44.1875 
z
" id="DejaVuSans-6d"/>
     </defs>
     <g transform="translate(94.6 87.426687)scale(0.1 -0.1)">
      <use xlink:href="#DejaVuSans-49"/>
      <use x="29.492188" xlink:href="#DejaVuSans-6e"/>
      <use x="92.871094" xlink:href="#DejaVuSans-76"/>
      <use x="152.050781" xlink:href="#DejaVuSans-65"/>
      <use x="213.574219" xlink:href="#DejaVuSans-73"/>
      <use x="265.673828" xlink:href="#DejaVuSans-74"/>
      <use x="304.882812" xlink:href="#DejaVuSans-6d"/>
      <use x="402.294922" xlink:href="#DejaVuSans-65"/>
      <use x="463.818359" xlink:href="#DejaVuSans-6e"/>
      <use x="527.197266" xlink:href="#DejaVuSans-74"/>
      <use x="566.40625" xlink:href="#DejaVuSans-73"/>
     </g>
    </g>
    <g id="line2d_36"/>
    <g id="line2d_37">
     <g>
      <use style="fill:#bfbf00;stroke:#bfbf00;" x="76.6" xlink:href="#m713726d596" y="98.604812"/>
     </g>
    </g>
    <g id="text_19">
     <!-- Deposits -->
     <defs>
      <path d="M 19.671875 64.796875 
L 19.671875 8.109375 
L 31.59375 8.109375 
Q 46.6875 8.109375 53.6875 14.9375 
Q 60.6875 21.78125 60.6875 36.53125 
Q 60.6875 51.171875 53.6875 57.984375 
Q 46.6875 64.796875 31.59375 64.796875 
z
M 9.8125 72.90625 
L 30.078125 72.90625 
Q 51.265625 72.90625 61.171875 64.09375 
Q 71.09375 55.28125 71.09375 36.53125 
Q 71.09375 17.671875 61.125 8.828125 
Q 51.171875 0 30.078125 0 
L 9.8125 0 
z
" id="DejaVuSans-44"/>
      <path d="M 18.109375 8.203125 
L 18.109375 -20.796875 
L 9.078125 -20.796875 
L 9.078125 54.6875 
L 18.109375 54.6875 
L 18.109375 46.390625 
Q 20.953125 51.265625 25.265625 53.625 
Q 29.59375 56 35.59375 56 
Q 45.5625 56 51.78125 48.09375 
Q 58.015625 40.1875 58.015625 27.296875 
Q 58.015625 14.40625 51.78125 6.484375 
Q 45.5625 -1.421875 35.59375 -1.421875 
Q 29.59375 -1.421875 25.265625 0.953125 
Q 20.953125 3.328125 18.109375 8.203125 
z
M 48.6875 27.296875 
Q 48.6875 37.203125 44.609375 42.84375 
Q 40.53125 48.484375 33.40625 48.484375 
Q 26.265625 48.484375 22.1875 42.84375 
Q 18.109375 37.203125 18.109375 27.296875 
Q 18.109375 17.390625 22.1875 11.75 
Q 26.265625 6.109375 33.40625 6.109375 
Q 40.53125 6.109375 44.609375 11.75 
Q 48.6875 17.390625 48.6875 27.296875 
z
" id="DejaVuSans-70"/>
     </defs>
     <g transform="translate(94.6 102.104812)scale(0.1 -0.1)">
      <use xlink:href="#DejaVuSans-44"/>
      <use x="77.001953" xlink:href="#DejaVuSans-65"/>
      <use x="138.525391" xlink:href="#DejaVuSans-70"/>
      <use x="202.001953" xlink:href="#DejaVuSans-6f"/>
      <use x="263.183594" xlink:href="#DejaVuSans-73"/>
      <use x="315.283203" xlink:href="#DejaVuSans-69"/>
      <use x="343.066406" xlink:href="#DejaVuSans-74"/>
      <use x="382.275391" xlink:href="#DejaVuSans-73"/>
     </g>
    </g>
    <g id="line2d_38"/>
    <g id="line2d_39">
     <g>
      <use style="fill:#008000;stroke:#008000;" x="76.6" xlink:href="#mcf27107a08" y="113.282937"/>
     </g>
    </g>
    <g id="text_20">
     <!-- Commission -->
     <defs>
      <path d="M 64.40625 67.28125 
L 64.40625 56.890625 
Q 59.421875 61.53125 53.78125 63.8125 
Q 48.140625 66.109375 41.796875 66.109375 
Q 29.296875 66.109375 22.65625 58.46875 
Q 16.015625 50.828125 16.015625 36.375 
Q 16.015625 21.96875 22.65625 14.328125 
Q 29.296875 6.6875 41.796875 6.6875 
Q 48.140625 6.6875 53.78125 8.984375 
Q 59.421875 11.28125 64.40625 15.921875 
L 64.40625 5.609375 
Q 59.234375 2.09375 53.4375 0.328125 
Q 47.65625 -1.421875 41.21875 -1.421875 
Q 24.65625 -1.421875 15.125 8.703125 
Q 5.609375 18.84375 5.609375 36.375 
Q 5.609375 53.953125 15.125 64.078125 
Q 24.65625 74.21875 41.21875 74.21875 
Q 47.75 74.21875 53.53125 72.484375 
Q 59.328125 70.75 64.40625 67.28125 
z
" id="DejaVuSans-43"/>
     </defs>
     <g transform="translate(94.6 116.782937)scale(0.1 -0.1)">
      <use xlink:href="#DejaVuSans-43"/>
      <use x="69.824219" xlink:href="#DejaVuSans-6f"/>
      <use x="131.005859" xlink:href="#DejaVuSans-6d"/>
      <use x="228.417969" xlink:href="#DejaVuSans-6d"/>
      <use x="325.830078" xlink:href="#DejaVuSans-69"/>
      <use x="353.613281" xlink:href="#DejaVuSans-73"/>
      <use x="405.712891" xlink:href="#DejaVuSans-73"/>
      <use x="457.8125" xlink:href="#DejaVuSans-69"/>
      <use x="485.595703" xlink:href="#DejaVuSans-6f"/>
      <use x="546.777344" xlink:href="#DejaVuSans-6e"/>
     </g>
    </g>
   </g>
  </g>
 </g>
 <defs>
  <clipPath id="pbf9ad300c1">
   <rect height="235.008" width="357.12" x="57.6" y="41.472"/>
  </clipPath>
 </defs>
</svg>
